G04*
G04 #@! TF.GenerationSoftware,Altium Limited,Altium Designer,18.0.11 (651)*
G04*
G04 Layer_Color=32896*
%FSLAX25Y25*%
%MOIN*%
G70*
G01*
G75*
G36*
X422354Y189500D02*
X421917D01*
Y189845D01*
X421863Y189775D01*
X421805Y189712D01*
X421742Y189658D01*
X421680Y189608D01*
X421613Y189571D01*
X421551Y189537D01*
X421489Y189508D01*
X421426Y189488D01*
X421372Y189471D01*
X421318Y189458D01*
X421268Y189450D01*
X421226Y189446D01*
X421193Y189442D01*
X421168Y189438D01*
X421147D01*
X421056Y189442D01*
X420968Y189454D01*
X420885Y189475D01*
X420806Y189500D01*
X420731Y189529D01*
X420661Y189558D01*
X420598Y189596D01*
X420536Y189633D01*
X420486Y189666D01*
X420436Y189704D01*
X420394Y189733D01*
X420361Y189766D01*
X420336Y189787D01*
X420315Y189808D01*
X420303Y189820D01*
X420299Y189824D01*
X420236Y189903D01*
X420182Y189983D01*
X420132Y190070D01*
X420091Y190161D01*
X420057Y190253D01*
X420028Y190349D01*
X420003Y190436D01*
X419987Y190523D01*
X419970Y190607D01*
X419962Y190686D01*
X419953Y190752D01*
X419945Y190815D01*
Y190865D01*
X419941Y190898D01*
Y190923D01*
Y190931D01*
X419945Y191043D01*
X419953Y191147D01*
X419970Y191243D01*
X419983Y191326D01*
X419991Y191364D01*
X419999Y191397D01*
X420008Y191426D01*
X420016Y191451D01*
X420020Y191472D01*
X420024Y191484D01*
X420028Y191493D01*
Y191497D01*
X420062Y191593D01*
X420099Y191680D01*
X420136Y191759D01*
X420174Y191825D01*
X420211Y191875D01*
X420236Y191917D01*
X420253Y191942D01*
X420261Y191950D01*
X420320Y192017D01*
X420382Y192075D01*
X420444Y192125D01*
X420503Y192167D01*
X420557Y192200D01*
X420598Y192221D01*
X420615Y192229D01*
X420627Y192237D01*
X420632Y192241D01*
X420636D01*
X420723Y192275D01*
X420806Y192300D01*
X420889Y192321D01*
X420964Y192333D01*
X421027Y192341D01*
X421056D01*
X421077Y192345D01*
X421122D01*
X421206Y192341D01*
X421289Y192329D01*
X421364Y192312D01*
X421439Y192287D01*
X421505Y192258D01*
X421567Y192229D01*
X421626Y192192D01*
X421676Y192158D01*
X421726Y192125D01*
X421767Y192092D01*
X421801Y192058D01*
X421830Y192029D01*
X421855Y192004D01*
X421871Y191988D01*
X421879Y191975D01*
X421884Y191971D01*
Y193340D01*
X422354D01*
Y189500D01*
D02*
G37*
G36*
X409828D02*
X409391D01*
Y189845D01*
X409337Y189775D01*
X409279Y189712D01*
X409216Y189658D01*
X409154Y189608D01*
X409088Y189571D01*
X409025Y189537D01*
X408963Y189508D01*
X408900Y189488D01*
X408846Y189471D01*
X408792Y189458D01*
X408742Y189450D01*
X408701Y189446D01*
X408667Y189442D01*
X408642Y189438D01*
X408622D01*
X408530Y189442D01*
X408443Y189454D01*
X408359Y189475D01*
X408281Y189500D01*
X408206Y189529D01*
X408135Y189558D01*
X408073Y189596D01*
X408010Y189633D01*
X407960Y189666D01*
X407910Y189704D01*
X407869Y189733D01*
X407835Y189766D01*
X407810Y189787D01*
X407790Y189808D01*
X407777Y189820D01*
X407773Y189824D01*
X407711Y189903D01*
X407656Y189983D01*
X407607Y190070D01*
X407565Y190161D01*
X407532Y190253D01*
X407503Y190349D01*
X407478Y190436D01*
X407461Y190523D01*
X407444Y190607D01*
X407436Y190686D01*
X407428Y190752D01*
X407419Y190815D01*
Y190865D01*
X407415Y190898D01*
Y190923D01*
Y190931D01*
X407419Y191043D01*
X407428Y191147D01*
X407444Y191243D01*
X407457Y191326D01*
X407465Y191364D01*
X407473Y191397D01*
X407482Y191426D01*
X407490Y191451D01*
X407494Y191472D01*
X407498Y191484D01*
X407503Y191493D01*
Y191497D01*
X407536Y191593D01*
X407573Y191680D01*
X407611Y191759D01*
X407648Y191825D01*
X407686Y191875D01*
X407711Y191917D01*
X407727Y191942D01*
X407735Y191950D01*
X407794Y192017D01*
X407856Y192075D01*
X407919Y192125D01*
X407977Y192167D01*
X408031Y192200D01*
X408073Y192221D01*
X408089Y192229D01*
X408102Y192237D01*
X408106Y192241D01*
X408110D01*
X408197Y192275D01*
X408281Y192300D01*
X408364Y192321D01*
X408439Y192333D01*
X408501Y192341D01*
X408530D01*
X408551Y192345D01*
X408597D01*
X408680Y192341D01*
X408763Y192329D01*
X408838Y192312D01*
X408913Y192287D01*
X408979Y192258D01*
X409042Y192229D01*
X409100Y192192D01*
X409150Y192158D01*
X409200Y192125D01*
X409241Y192092D01*
X409275Y192058D01*
X409304Y192029D01*
X409329Y192004D01*
X409345Y191988D01*
X409354Y191975D01*
X409358Y191971D01*
Y193340D01*
X409828D01*
Y189500D01*
D02*
G37*
G36*
X454473Y191122D02*
Y191010D01*
X454465Y190906D01*
X454461Y190806D01*
X454448Y190715D01*
X454440Y190627D01*
X454427Y190548D01*
X454415Y190478D01*
X454398Y190411D01*
X454386Y190353D01*
X454373Y190303D01*
X454361Y190257D01*
X454348Y190224D01*
X454340Y190195D01*
X454332Y190174D01*
X454327Y190161D01*
Y190157D01*
X454298Y190095D01*
X454265Y190032D01*
X454190Y189924D01*
X454111Y189833D01*
X454028Y189758D01*
X453991Y189725D01*
X453957Y189700D01*
X453924Y189675D01*
X453895Y189654D01*
X453874Y189641D01*
X453857Y189629D01*
X453845Y189625D01*
X453841Y189621D01*
X453774Y189587D01*
X453703Y189562D01*
X453558Y189517D01*
X453408Y189483D01*
X453267Y189463D01*
X453204Y189454D01*
X453142Y189446D01*
X453092Y189442D01*
X453046D01*
X453009Y189438D01*
X452955D01*
X452855Y189442D01*
X452759Y189446D01*
X452668Y189458D01*
X452580Y189471D01*
X452501Y189488D01*
X452426Y189504D01*
X452360Y189525D01*
X452302Y189546D01*
X452243Y189562D01*
X452198Y189583D01*
X452156Y189600D01*
X452123Y189617D01*
X452094Y189629D01*
X452077Y189641D01*
X452065Y189646D01*
X452060Y189650D01*
X451998Y189691D01*
X451940Y189733D01*
X451890Y189779D01*
X451840Y189824D01*
X451798Y189870D01*
X451757Y189920D01*
X451723Y189962D01*
X451694Y190007D01*
X451644Y190082D01*
X451628Y190116D01*
X451611Y190145D01*
X451599Y190170D01*
X451590Y190186D01*
X451586Y190199D01*
Y190203D01*
X451561Y190270D01*
X451540Y190340D01*
X451507Y190490D01*
X451486Y190644D01*
X451470Y190790D01*
X451465Y190860D01*
X451461Y190923D01*
X451457Y190977D01*
X451453Y191027D01*
Y191068D01*
Y191097D01*
Y191114D01*
Y191122D01*
Y193340D01*
X451961D01*
Y191122D01*
X451965Y190993D01*
X451969Y190873D01*
X451981Y190765D01*
X451998Y190665D01*
X452015Y190577D01*
X452035Y190498D01*
X452060Y190428D01*
X452081Y190365D01*
X452102Y190311D01*
X452127Y190265D01*
X452148Y190228D01*
X452164Y190199D01*
X452181Y190178D01*
X452189Y190161D01*
X452198Y190153D01*
X452202Y190149D01*
X452252Y190103D01*
X452306Y190066D01*
X452364Y190032D01*
X452426Y190003D01*
X452493Y189978D01*
X452560Y189958D01*
X452689Y189928D01*
X452751Y189916D01*
X452809Y189908D01*
X452863Y189903D01*
X452909Y189899D01*
X452946Y189895D01*
X453000D01*
X453117Y189899D01*
X453225Y189916D01*
X453321Y189937D01*
X453404Y189958D01*
X453437Y189970D01*
X453466Y189983D01*
X453496Y189991D01*
X453516Y189999D01*
X453533Y190007D01*
X453545Y190016D01*
X453554Y190020D01*
X453558D01*
X453637Y190074D01*
X453703Y190132D01*
X453758Y190191D01*
X453799Y190253D01*
X453832Y190303D01*
X453857Y190349D01*
X453866Y190365D01*
X453870Y190378D01*
X453874Y190382D01*
Y190386D01*
X453891Y190432D01*
X453903Y190486D01*
X453928Y190602D01*
X453945Y190723D01*
X453953Y190844D01*
X453957Y190898D01*
X453961Y190952D01*
Y190998D01*
X453966Y191039D01*
Y191077D01*
Y191102D01*
Y191118D01*
Y191122D01*
Y193340D01*
X454473D01*
Y191122D01*
D02*
G37*
G36*
X456786Y193402D02*
X456878Y193398D01*
X457048Y193369D01*
X457131Y193352D01*
X457206Y193331D01*
X457281Y193311D01*
X457348Y193290D01*
X457406Y193269D01*
X457460Y193248D01*
X457510Y193227D01*
X457547Y193211D01*
X457581Y193194D01*
X457601Y193182D01*
X457618Y193177D01*
X457622Y193173D01*
X457697Y193128D01*
X457772Y193078D01*
X457839Y193024D01*
X457901Y192969D01*
X457959Y192911D01*
X458013Y192857D01*
X458059Y192799D01*
X458105Y192749D01*
X458142Y192695D01*
X458176Y192649D01*
X458205Y192607D01*
X458230Y192570D01*
X458246Y192537D01*
X458259Y192516D01*
X458267Y192499D01*
X458271Y192495D01*
X458313Y192412D01*
X458346Y192321D01*
X458375Y192233D01*
X458404Y192146D01*
X458446Y191967D01*
X458458Y191884D01*
X458471Y191805D01*
X458479Y191730D01*
X458488Y191663D01*
X458492Y191601D01*
X458496Y191547D01*
X458500Y191505D01*
Y191472D01*
Y191455D01*
Y191447D01*
X458496Y191347D01*
X458492Y191247D01*
X458467Y191056D01*
X458454Y190964D01*
X458438Y190881D01*
X458417Y190802D01*
X458400Y190727D01*
X458379Y190661D01*
X458363Y190598D01*
X458346Y190548D01*
X458329Y190503D01*
X458317Y190469D01*
X458309Y190440D01*
X458305Y190424D01*
X458300Y190419D01*
X458259Y190332D01*
X458217Y190249D01*
X458171Y190174D01*
X458121Y190103D01*
X458072Y190037D01*
X458026Y189978D01*
X457976Y189924D01*
X457930Y189874D01*
X457884Y189829D01*
X457843Y189791D01*
X457805Y189762D01*
X457772Y189733D01*
X457747Y189712D01*
X457726Y189700D01*
X457714Y189691D01*
X457710Y189687D01*
X457635Y189641D01*
X457556Y189604D01*
X457473Y189571D01*
X457385Y189542D01*
X457302Y189521D01*
X457219Y189500D01*
X457135Y189483D01*
X457057Y189471D01*
X456982Y189458D01*
X456915Y189450D01*
X456853Y189446D01*
X456803Y189442D01*
X456757Y189438D01*
X456699D01*
X456586Y189442D01*
X456482Y189450D01*
X456383Y189467D01*
X456287Y189488D01*
X456195Y189513D01*
X456112Y189542D01*
X456037Y189571D01*
X455967Y189600D01*
X455900Y189629D01*
X455846Y189658D01*
X455796Y189687D01*
X455759Y189712D01*
X455725Y189733D01*
X455704Y189750D01*
X455688Y189758D01*
X455684Y189762D01*
X455609Y189829D01*
X455538Y189899D01*
X455476Y189974D01*
X455417Y190049D01*
X455363Y190128D01*
X455318Y190211D01*
X455276Y190286D01*
X455239Y190365D01*
X455205Y190436D01*
X455180Y190503D01*
X455155Y190565D01*
X455139Y190615D01*
X455122Y190661D01*
X455114Y190690D01*
X455105Y190711D01*
Y190719D01*
X455613Y190848D01*
X455634Y190761D01*
X455663Y190677D01*
X455692Y190598D01*
X455721Y190527D01*
X455754Y190461D01*
X455788Y190403D01*
X455821Y190349D01*
X455854Y190299D01*
X455888Y190257D01*
X455917Y190220D01*
X455946Y190186D01*
X455967Y190161D01*
X455987Y190141D01*
X456004Y190128D01*
X456012Y190120D01*
X456016Y190116D01*
X456075Y190074D01*
X456133Y190037D01*
X456191Y190003D01*
X456254Y189974D01*
X456316Y189949D01*
X456374Y189928D01*
X456491Y189899D01*
X456541Y189891D01*
X456591Y189883D01*
X456632Y189879D01*
X456670Y189874D01*
X456699Y189870D01*
X456740D01*
X456807Y189874D01*
X456869Y189879D01*
X456990Y189899D01*
X457102Y189928D01*
X457198Y189962D01*
X457239Y189978D01*
X457277Y189991D01*
X457310Y190007D01*
X457339Y190020D01*
X457364Y190032D01*
X457381Y190041D01*
X457389Y190049D01*
X457393D01*
X457447Y190087D01*
X457497Y190124D01*
X457589Y190211D01*
X457664Y190299D01*
X457726Y190390D01*
X457772Y190469D01*
X457793Y190503D01*
X457809Y190536D01*
X457818Y190561D01*
X457826Y190577D01*
X457834Y190590D01*
Y190594D01*
X457880Y190735D01*
X457918Y190881D01*
X457943Y191027D01*
X457951Y191093D01*
X457959Y191160D01*
X457963Y191222D01*
X457968Y191276D01*
X457972Y191326D01*
Y191368D01*
X457976Y191405D01*
Y191430D01*
Y191447D01*
Y191451D01*
X457972Y191593D01*
X457959Y191726D01*
X457938Y191850D01*
X457930Y191909D01*
X457918Y191963D01*
X457905Y192008D01*
X457897Y192054D01*
X457884Y192092D01*
X457876Y192125D01*
X457872Y192150D01*
X457864Y192171D01*
X457859Y192183D01*
Y192187D01*
X457805Y192316D01*
X457743Y192429D01*
X457676Y192524D01*
X457639Y192566D01*
X457606Y192607D01*
X457572Y192641D01*
X457543Y192670D01*
X457514Y192699D01*
X457493Y192720D01*
X457473Y192736D01*
X457456Y192749D01*
X457447Y192753D01*
X457443Y192757D01*
X457385Y192795D01*
X457327Y192828D01*
X457265Y192857D01*
X457202Y192882D01*
X457077Y192920D01*
X456957Y192949D01*
X456907Y192957D01*
X456857Y192961D01*
X456811Y192965D01*
X456774Y192969D01*
X456740Y192974D01*
X456628D01*
X456561Y192965D01*
X456437Y192945D01*
X456328Y192911D01*
X456283Y192895D01*
X456237Y192878D01*
X456195Y192861D01*
X456162Y192845D01*
X456133Y192828D01*
X456108Y192811D01*
X456087Y192799D01*
X456075Y192791D01*
X456066Y192786D01*
X456062Y192782D01*
X456016Y192745D01*
X455971Y192703D01*
X455896Y192607D01*
X455825Y192503D01*
X455771Y192404D01*
X455729Y192312D01*
X455709Y192275D01*
X455696Y192241D01*
X455684Y192212D01*
X455680Y192187D01*
X455671Y192175D01*
Y192171D01*
X455172Y192287D01*
X455205Y192383D01*
X455243Y192474D01*
X455280Y192562D01*
X455326Y192641D01*
X455368Y192716D01*
X455413Y192782D01*
X455459Y192845D01*
X455505Y192899D01*
X455551Y192949D01*
X455588Y192990D01*
X455625Y193028D01*
X455659Y193057D01*
X455684Y193082D01*
X455704Y193098D01*
X455717Y193107D01*
X455721Y193111D01*
X455796Y193165D01*
X455875Y193207D01*
X455954Y193248D01*
X456037Y193281D01*
X456120Y193311D01*
X456200Y193335D01*
X456279Y193352D01*
X456353Y193369D01*
X456424Y193381D01*
X456487Y193390D01*
X456545Y193398D01*
X456595Y193402D01*
X456636Y193406D01*
X456690D01*
X456786Y193402D01*
D02*
G37*
G36*
X442630Y190557D02*
Y190453D01*
X442625Y190361D01*
X442621Y190286D01*
X442617Y190224D01*
X442613Y190178D01*
X442609Y190141D01*
X442605Y190124D01*
Y190116D01*
X442584Y190041D01*
X442563Y189974D01*
X442538Y189916D01*
X442513Y189866D01*
X442492Y189824D01*
X442476Y189791D01*
X442463Y189775D01*
X442459Y189766D01*
X442417Y189716D01*
X442368Y189671D01*
X442313Y189629D01*
X442264Y189596D01*
X442214Y189567D01*
X442176Y189546D01*
X442151Y189533D01*
X442147Y189529D01*
X442143D01*
X442060Y189500D01*
X441981Y189475D01*
X441902Y189458D01*
X441831Y189450D01*
X441769Y189442D01*
X441723Y189438D01*
X441681D01*
X441577Y189442D01*
X441481Y189458D01*
X441394Y189479D01*
X441307Y189513D01*
X441228Y189546D01*
X441157Y189587D01*
X441090Y189629D01*
X441028Y189675D01*
X440974Y189716D01*
X440928Y189758D01*
X440887Y189799D01*
X440853Y189833D01*
X440828Y189866D01*
X440812Y189887D01*
X440799Y189903D01*
X440795Y189908D01*
Y189500D01*
X440375D01*
Y192283D01*
X440845D01*
Y190790D01*
X440849Y190665D01*
X440857Y190557D01*
X440870Y190465D01*
X440882Y190386D01*
X440891Y190353D01*
X440899Y190328D01*
X440907Y190303D01*
X440911Y190282D01*
X440916Y190270D01*
X440920Y190257D01*
X440924Y190253D01*
Y190249D01*
X440957Y190182D01*
X440999Y190124D01*
X441045Y190074D01*
X441086Y190032D01*
X441128Y189999D01*
X441161Y189974D01*
X441182Y189958D01*
X441186Y189953D01*
X441190D01*
X441261Y189916D01*
X441327Y189891D01*
X441394Y189870D01*
X441457Y189858D01*
X441511Y189849D01*
X441548Y189845D01*
X441585D01*
X441660Y189849D01*
X441731Y189862D01*
X441793Y189879D01*
X441843Y189899D01*
X441885Y189916D01*
X441918Y189933D01*
X441935Y189945D01*
X441943Y189949D01*
X441993Y189991D01*
X442035Y190041D01*
X442068Y190087D01*
X442093Y190132D01*
X442114Y190174D01*
X442126Y190211D01*
X442130Y190232D01*
X442135Y190241D01*
X442139Y190265D01*
X442143Y190299D01*
X442147Y190374D01*
X442155Y190457D01*
Y190540D01*
X442160Y190615D01*
Y190648D01*
Y190681D01*
Y190706D01*
Y190723D01*
Y190735D01*
Y190740D01*
Y192283D01*
X442630D01*
Y190557D01*
D02*
G37*
G36*
X412819D02*
Y190453D01*
X412815Y190361D01*
X412811Y190286D01*
X412807Y190224D01*
X412802Y190178D01*
X412798Y190141D01*
X412794Y190124D01*
Y190116D01*
X412773Y190041D01*
X412752Y189974D01*
X412727Y189916D01*
X412703Y189866D01*
X412682Y189824D01*
X412665Y189791D01*
X412653Y189775D01*
X412648Y189766D01*
X412607Y189716D01*
X412557Y189671D01*
X412503Y189629D01*
X412453Y189596D01*
X412403Y189567D01*
X412366Y189546D01*
X412341Y189533D01*
X412336Y189529D01*
X412332D01*
X412249Y189500D01*
X412170Y189475D01*
X412091Y189458D01*
X412020Y189450D01*
X411958Y189442D01*
X411912Y189438D01*
X411871D01*
X411767Y189442D01*
X411671Y189458D01*
X411584Y189479D01*
X411496Y189513D01*
X411417Y189546D01*
X411346Y189587D01*
X411280Y189629D01*
X411217Y189675D01*
X411163Y189716D01*
X411118Y189758D01*
X411076Y189799D01*
X411043Y189833D01*
X411018Y189866D01*
X411001Y189887D01*
X410989Y189903D01*
X410985Y189908D01*
Y189500D01*
X410564D01*
Y192283D01*
X411034D01*
Y190790D01*
X411039Y190665D01*
X411047Y190557D01*
X411059Y190465D01*
X411072Y190386D01*
X411080Y190353D01*
X411089Y190328D01*
X411097Y190303D01*
X411101Y190282D01*
X411105Y190270D01*
X411109Y190257D01*
X411113Y190253D01*
Y190249D01*
X411147Y190182D01*
X411188Y190124D01*
X411234Y190074D01*
X411276Y190032D01*
X411317Y189999D01*
X411351Y189974D01*
X411371Y189958D01*
X411376Y189953D01*
X411380D01*
X411450Y189916D01*
X411517Y189891D01*
X411584Y189870D01*
X411646Y189858D01*
X411700Y189849D01*
X411737Y189845D01*
X411775D01*
X411850Y189849D01*
X411920Y189862D01*
X411983Y189879D01*
X412033Y189899D01*
X412074Y189916D01*
X412108Y189933D01*
X412124Y189945D01*
X412133Y189949D01*
X412183Y189991D01*
X412224Y190041D01*
X412257Y190087D01*
X412282Y190132D01*
X412303Y190174D01*
X412316Y190211D01*
X412320Y190232D01*
X412324Y190241D01*
X412328Y190265D01*
X412332Y190299D01*
X412336Y190374D01*
X412345Y190457D01*
Y190540D01*
X412349Y190615D01*
Y190648D01*
Y190681D01*
Y190706D01*
Y190723D01*
Y190735D01*
Y190740D01*
Y192283D01*
X412819D01*
Y190557D01*
D02*
G37*
G36*
X434426Y192341D02*
X434530Y192329D01*
X434622Y192308D01*
X434713Y192283D01*
X434796Y192254D01*
X434875Y192221D01*
X434946Y192187D01*
X435008Y192150D01*
X435067Y192113D01*
X435117Y192079D01*
X435162Y192046D01*
X435196Y192017D01*
X435225Y191992D01*
X435246Y191971D01*
X435258Y191959D01*
X435262Y191954D01*
X435325Y191879D01*
X435379Y191796D01*
X435429Y191709D01*
X435470Y191622D01*
X435503Y191530D01*
X435533Y191439D01*
X435558Y191351D01*
X435574Y191264D01*
X435591Y191185D01*
X435599Y191106D01*
X435607Y191039D01*
X435616Y190981D01*
Y190931D01*
X435620Y190894D01*
Y190873D01*
Y190865D01*
X435616Y190740D01*
X435603Y190623D01*
X435587Y190515D01*
X435566Y190415D01*
X435537Y190320D01*
X435508Y190232D01*
X435474Y190153D01*
X435441Y190082D01*
X435412Y190020D01*
X435379Y189966D01*
X435350Y189920D01*
X435321Y189883D01*
X435300Y189849D01*
X435283Y189829D01*
X435271Y189816D01*
X435266Y189812D01*
X435196Y189745D01*
X435121Y189687D01*
X435046Y189637D01*
X434963Y189596D01*
X434884Y189558D01*
X434800Y189529D01*
X434721Y189504D01*
X434647Y189483D01*
X434576Y189471D01*
X434509Y189458D01*
X434451Y189450D01*
X434397Y189442D01*
X434355D01*
X434322Y189438D01*
X434297D01*
X434210Y189442D01*
X434122Y189446D01*
X434043Y189458D01*
X433968Y189475D01*
X433898Y189492D01*
X433835Y189513D01*
X433773Y189533D01*
X433719Y189554D01*
X433669Y189575D01*
X433627Y189596D01*
X433590Y189617D01*
X433557Y189633D01*
X433536Y189650D01*
X433515Y189662D01*
X433507Y189666D01*
X433503Y189671D01*
X433444Y189716D01*
X433394Y189766D01*
X433349Y189820D01*
X433303Y189874D01*
X433228Y189987D01*
X433170Y190091D01*
X433149Y190141D01*
X433128Y190186D01*
X433111Y190228D01*
X433099Y190265D01*
X433087Y190295D01*
X433078Y190315D01*
X433074Y190332D01*
Y190336D01*
X433565Y190399D01*
X433607Y190295D01*
X433657Y190203D01*
X433706Y190124D01*
X433752Y190066D01*
X433794Y190016D01*
X433827Y189983D01*
X433848Y189966D01*
X433852Y189958D01*
X433856D01*
X433927Y189912D01*
X434002Y189883D01*
X434077Y189858D01*
X434143Y189841D01*
X434206Y189833D01*
X434256Y189829D01*
X434272Y189824D01*
X434297D01*
X434360Y189829D01*
X434422Y189837D01*
X434480Y189845D01*
X434534Y189862D01*
X434634Y189899D01*
X434717Y189945D01*
X434755Y189966D01*
X434788Y189991D01*
X434813Y190012D01*
X434838Y190028D01*
X434855Y190045D01*
X434867Y190057D01*
X434875Y190062D01*
X434879Y190066D01*
X434921Y190116D01*
X434959Y190166D01*
X434988Y190224D01*
X435017Y190278D01*
X435063Y190399D01*
X435096Y190511D01*
X435108Y190565D01*
X435117Y190615D01*
X435125Y190656D01*
X435129Y190698D01*
X435133Y190727D01*
X435137Y190752D01*
Y190769D01*
Y190773D01*
X433062D01*
X433057Y190827D01*
Y190869D01*
Y190889D01*
Y190898D01*
X433062Y191023D01*
X433074Y191139D01*
X433091Y191251D01*
X433111Y191355D01*
X433141Y191451D01*
X433170Y191538D01*
X433203Y191617D01*
X433232Y191688D01*
X433265Y191751D01*
X433299Y191809D01*
X433328Y191855D01*
X433357Y191892D01*
X433378Y191925D01*
X433394Y191946D01*
X433407Y191959D01*
X433411Y191963D01*
X433478Y192029D01*
X433553Y192087D01*
X433627Y192142D01*
X433702Y192183D01*
X433777Y192221D01*
X433856Y192254D01*
X433927Y192279D01*
X433998Y192300D01*
X434064Y192312D01*
X434127Y192325D01*
X434181Y192333D01*
X434231Y192341D01*
X434268D01*
X434297Y192345D01*
X434322D01*
X434426Y192341D01*
D02*
G37*
G36*
X449140Y189500D02*
X447680D01*
X447547Y189504D01*
X447426Y189508D01*
X447322Y189521D01*
X447272Y189525D01*
X447231Y189533D01*
X447193Y189537D01*
X447160Y189542D01*
X447131Y189550D01*
X447106Y189554D01*
X447085Y189558D01*
X447073D01*
X447064Y189562D01*
X447060D01*
X446969Y189587D01*
X446885Y189617D01*
X446815Y189650D01*
X446756Y189679D01*
X446706Y189708D01*
X446669Y189729D01*
X446648Y189745D01*
X446640Y189750D01*
X446577Y189804D01*
X446523Y189862D01*
X446473Y189920D01*
X446436Y189978D01*
X446403Y190028D01*
X446378Y190070D01*
X446369Y190087D01*
X446361Y190099D01*
X446357Y190103D01*
Y190107D01*
X446319Y190195D01*
X446290Y190286D01*
X446270Y190369D01*
X446253Y190448D01*
X446245Y190515D01*
Y190540D01*
X446241Y190565D01*
Y190586D01*
Y190598D01*
Y190607D01*
Y190611D01*
Y190673D01*
X446249Y190731D01*
X446270Y190844D01*
X446303Y190944D01*
X446336Y191027D01*
X446353Y191064D01*
X446369Y191097D01*
X446386Y191127D01*
X446403Y191151D01*
X446415Y191168D01*
X446423Y191181D01*
X446428Y191189D01*
X446432Y191193D01*
X446507Y191280D01*
X446594Y191351D01*
X446681Y191414D01*
X446769Y191459D01*
X446844Y191497D01*
X446877Y191509D01*
X446906Y191522D01*
X446931Y191530D01*
X446948Y191538D01*
X446960Y191543D01*
X446964D01*
X446869Y191597D01*
X446790Y191655D01*
X446719Y191713D01*
X446665Y191767D01*
X446619Y191817D01*
X446590Y191855D01*
X446577Y191871D01*
X446569Y191884D01*
X446565Y191888D01*
Y191892D01*
X446519Y191975D01*
X446486Y192054D01*
X446461Y192133D01*
X446444Y192204D01*
X446436Y192266D01*
X446428Y192312D01*
Y192329D01*
Y192341D01*
Y192350D01*
Y192354D01*
X446436Y192454D01*
X446453Y192545D01*
X446478Y192632D01*
X446503Y192707D01*
X446532Y192770D01*
X446544Y192799D01*
X446557Y192820D01*
X446569Y192836D01*
X446573Y192849D01*
X446582Y192857D01*
Y192861D01*
X446644Y192945D01*
X446711Y193019D01*
X446777Y193082D01*
X446844Y193132D01*
X446906Y193169D01*
X446952Y193198D01*
X446973Y193207D01*
X446985Y193215D01*
X446993Y193219D01*
X446998D01*
X447106Y193261D01*
X447218Y193290D01*
X447339Y193311D01*
X447447Y193323D01*
X447501Y193331D01*
X447547Y193335D01*
X447592D01*
X447630Y193340D01*
X449140D01*
Y189500D01*
D02*
G37*
G36*
X439647D02*
X439177D01*
Y193340D01*
X439647D01*
Y189500D01*
D02*
G37*
G36*
X431518Y192341D02*
X431576Y192329D01*
X431626Y192316D01*
X431672Y192300D01*
X431705Y192279D01*
X431735Y192266D01*
X431751Y192254D01*
X431760Y192250D01*
X431784Y192229D01*
X431814Y192204D01*
X431863Y192150D01*
X431913Y192083D01*
X431959Y192017D01*
X432001Y191959D01*
X432030Y191904D01*
X432042Y191888D01*
X432051Y191871D01*
X432059Y191863D01*
Y192283D01*
X432483D01*
Y189500D01*
X432013D01*
Y190956D01*
X432009Y191064D01*
X432001Y191168D01*
X431988Y191260D01*
X431976Y191343D01*
X431963Y191409D01*
X431955Y191439D01*
X431951Y191463D01*
X431947Y191480D01*
X431943Y191493D01*
X431938Y191501D01*
Y191505D01*
X431913Y191563D01*
X431888Y191617D01*
X431859Y191659D01*
X431830Y191697D01*
X431805Y191726D01*
X431784Y191746D01*
X431768Y191759D01*
X431764Y191763D01*
X431714Y191796D01*
X431668Y191817D01*
X431622Y191834D01*
X431576Y191846D01*
X431539Y191855D01*
X431510Y191859D01*
X431485D01*
X431418Y191855D01*
X431356Y191842D01*
X431298Y191825D01*
X431248Y191809D01*
X431202Y191788D01*
X431169Y191771D01*
X431148Y191759D01*
X431140Y191755D01*
X430973Y192192D01*
X431065Y192241D01*
X431156Y192279D01*
X431235Y192308D01*
X431310Y192325D01*
X431373Y192337D01*
X431398Y192341D01*
X431418D01*
X431435Y192345D01*
X431460D01*
X431518Y192341D01*
D02*
G37*
G36*
X429139Y189500D02*
X428631D01*
Y191206D01*
X427978D01*
X427920Y191201D01*
X427870Y191197D01*
X427828D01*
X427799Y191193D01*
X427778Y191189D01*
X427766Y191185D01*
X427762D01*
X427716Y191172D01*
X427674Y191156D01*
X427637Y191139D01*
X427599Y191122D01*
X427570Y191106D01*
X427550Y191093D01*
X427533Y191085D01*
X427529Y191081D01*
X427487Y191052D01*
X427441Y191010D01*
X427396Y190969D01*
X427358Y190927D01*
X427321Y190889D01*
X427296Y190856D01*
X427279Y190835D01*
X427271Y190831D01*
Y190827D01*
X427213Y190752D01*
X427150Y190669D01*
X427092Y190582D01*
X427034Y190494D01*
X426984Y190419D01*
X426959Y190386D01*
X426942Y190357D01*
X426926Y190332D01*
X426913Y190315D01*
X426909Y190303D01*
X426905Y190299D01*
X426397Y189500D01*
X425761D01*
X426426Y190544D01*
X426501Y190652D01*
X426576Y190752D01*
X426647Y190840D01*
X426709Y190914D01*
X426763Y190973D01*
X426788Y190998D01*
X426809Y191018D01*
X426826Y191035D01*
X426838Y191048D01*
X426842Y191052D01*
X426847Y191056D01*
X426888Y191089D01*
X426938Y191127D01*
X426988Y191156D01*
X427038Y191185D01*
X427084Y191210D01*
X427121Y191231D01*
X427146Y191243D01*
X427150Y191247D01*
X427154D01*
X427055Y191264D01*
X426959Y191285D01*
X426871Y191310D01*
X426792Y191335D01*
X426718Y191364D01*
X426651Y191393D01*
X426593Y191422D01*
X426539Y191451D01*
X426489Y191480D01*
X426447Y191509D01*
X426414Y191534D01*
X426385Y191555D01*
X426364Y191576D01*
X426347Y191588D01*
X426339Y191597D01*
X426335Y191601D01*
X426289Y191655D01*
X426248Y191709D01*
X426210Y191767D01*
X426181Y191825D01*
X426156Y191884D01*
X426135Y191942D01*
X426102Y192050D01*
X426089Y192100D01*
X426081Y192146D01*
X426077Y192187D01*
X426073Y192225D01*
X426069Y192250D01*
Y192275D01*
Y192287D01*
Y192291D01*
X426077Y192408D01*
X426094Y192516D01*
X426119Y192612D01*
X426148Y192699D01*
X426164Y192736D01*
X426181Y192770D01*
X426193Y192799D01*
X426206Y192824D01*
X426214Y192845D01*
X426223Y192857D01*
X426231Y192865D01*
Y192870D01*
X426293Y192961D01*
X426364Y193036D01*
X426435Y193103D01*
X426505Y193152D01*
X426564Y193190D01*
X426614Y193215D01*
X426634Y193223D01*
X426647Y193231D01*
X426655Y193236D01*
X426659D01*
X426713Y193252D01*
X426767Y193269D01*
X426892Y193294D01*
X427021Y193315D01*
X427146Y193327D01*
X427209Y193331D01*
X427263Y193335D01*
X427308D01*
X427354Y193340D01*
X429139D01*
Y189500D01*
D02*
G37*
G36*
X444568Y192341D02*
X444660Y192333D01*
X444743Y192316D01*
X444826Y192296D01*
X444905Y192275D01*
X444976Y192246D01*
X445042Y192221D01*
X445101Y192192D01*
X445159Y192162D01*
X445205Y192133D01*
X445246Y192104D01*
X445284Y192083D01*
X445309Y192063D01*
X445329Y192046D01*
X445342Y192038D01*
X445346Y192033D01*
X445421Y191959D01*
X445487Y191879D01*
X445546Y191792D01*
X445596Y191701D01*
X445633Y191605D01*
X445671Y191509D01*
X445700Y191414D01*
X445720Y191322D01*
X445737Y191235D01*
X445754Y191156D01*
X445762Y191081D01*
X445766Y191014D01*
X445770Y190964D01*
X445775Y190923D01*
Y190898D01*
Y190894D01*
Y190889D01*
X445770Y190761D01*
X445758Y190640D01*
X445741Y190527D01*
X445720Y190424D01*
X445691Y190328D01*
X445662Y190241D01*
X445629Y190161D01*
X445596Y190087D01*
X445562Y190024D01*
X445529Y189966D01*
X445500Y189920D01*
X445471Y189883D01*
X445450Y189849D01*
X445433Y189829D01*
X445421Y189816D01*
X445417Y189812D01*
X445346Y189745D01*
X445271Y189687D01*
X445196Y189637D01*
X445117Y189596D01*
X445038Y189558D01*
X444959Y189529D01*
X444884Y189504D01*
X444809Y189483D01*
X444739Y189471D01*
X444676Y189458D01*
X444618Y189450D01*
X444568Y189442D01*
X444527D01*
X444497Y189438D01*
X444473D01*
X444339Y189446D01*
X444215Y189463D01*
X444102Y189492D01*
X444048Y189504D01*
X444002Y189521D01*
X443957Y189537D01*
X443919Y189550D01*
X443886Y189567D01*
X443857Y189579D01*
X443832Y189587D01*
X443815Y189596D01*
X443807Y189604D01*
X443803D01*
X443695Y189675D01*
X443599Y189750D01*
X443520Y189829D01*
X443453Y189908D01*
X443399Y189974D01*
X443378Y190007D01*
X443362Y190032D01*
X443349Y190053D01*
X443341Y190070D01*
X443333Y190078D01*
Y190082D01*
X443303Y190145D01*
X443279Y190207D01*
X443237Y190345D01*
X443208Y190486D01*
X443191Y190619D01*
X443183Y190681D01*
X443179Y190740D01*
X443175Y190794D01*
Y190840D01*
X443170Y190877D01*
Y190902D01*
Y190923D01*
Y190927D01*
X443175Y191048D01*
X443187Y191164D01*
X443204Y191272D01*
X443229Y191372D01*
X443254Y191463D01*
X443287Y191547D01*
X443320Y191626D01*
X443353Y191697D01*
X443387Y191759D01*
X443420Y191813D01*
X443453Y191859D01*
X443478Y191896D01*
X443503Y191929D01*
X443520Y191950D01*
X443532Y191963D01*
X443537Y191967D01*
X443607Y192033D01*
X443682Y192092D01*
X443757Y192142D01*
X443836Y192187D01*
X443915Y192221D01*
X443990Y192254D01*
X444069Y192279D01*
X444140Y192300D01*
X444210Y192312D01*
X444273Y192325D01*
X444327Y192333D01*
X444377Y192341D01*
X444418D01*
X444448Y192345D01*
X444473D01*
X444568Y192341D01*
D02*
G37*
G36*
X436677Y191959D02*
X436727Y192021D01*
X436781Y192075D01*
X436835Y192121D01*
X436885Y192162D01*
X436930Y192196D01*
X436964Y192217D01*
X436989Y192233D01*
X436993Y192237D01*
X436997D01*
X437072Y192275D01*
X437151Y192300D01*
X437226Y192321D01*
X437296Y192333D01*
X437355Y192341D01*
X437405Y192345D01*
X437509D01*
X437571Y192337D01*
X437687Y192316D01*
X437791Y192287D01*
X437883Y192254D01*
X437925Y192237D01*
X437958Y192221D01*
X437991Y192204D01*
X438016Y192192D01*
X438037Y192179D01*
X438054Y192171D01*
X438062Y192167D01*
X438066Y192162D01*
X438166Y192087D01*
X438249Y192004D01*
X438320Y191921D01*
X438378Y191834D01*
X438424Y191759D01*
X438441Y191726D01*
X438457Y191701D01*
X438465Y191676D01*
X438474Y191659D01*
X438482Y191647D01*
Y191642D01*
X438528Y191513D01*
X438561Y191380D01*
X438586Y191255D01*
X438603Y191139D01*
X438607Y191085D01*
X438611Y191035D01*
X438615Y190993D01*
Y190956D01*
X438619Y190927D01*
Y190906D01*
Y190889D01*
Y190885D01*
X438611Y190731D01*
X438594Y190590D01*
X438586Y190523D01*
X438574Y190461D01*
X438557Y190403D01*
X438545Y190349D01*
X438532Y190303D01*
X438515Y190257D01*
X438503Y190220D01*
X438495Y190191D01*
X438482Y190166D01*
X438478Y190149D01*
X438470Y190137D01*
Y190132D01*
X438407Y190016D01*
X438337Y189912D01*
X438266Y189824D01*
X438195Y189754D01*
X438133Y189696D01*
X438108Y189675D01*
X438083Y189654D01*
X438062Y189641D01*
X438049Y189629D01*
X438041Y189625D01*
X438037Y189621D01*
X437983Y189587D01*
X437929Y189562D01*
X437825Y189517D01*
X437721Y189483D01*
X437625Y189463D01*
X437583Y189454D01*
X437546Y189446D01*
X437513Y189442D01*
X437484D01*
X437459Y189438D01*
X437425D01*
X437330Y189442D01*
X437242Y189454D01*
X437163Y189475D01*
X437084Y189504D01*
X437014Y189533D01*
X436951Y189567D01*
X436893Y189604D01*
X436839Y189646D01*
X436793Y189683D01*
X436756Y189720D01*
X436722Y189754D01*
X436693Y189787D01*
X436672Y189812D01*
X436656Y189833D01*
X436648Y189845D01*
X436643Y189849D01*
Y189500D01*
X436207D01*
Y193340D01*
X436677D01*
Y191959D01*
D02*
G37*
G36*
X424301Y192341D02*
X424392Y192333D01*
X424475Y192316D01*
X424559Y192296D01*
X424638Y192275D01*
X424708Y192246D01*
X424775Y192221D01*
X424833Y192192D01*
X424891Y192162D01*
X424937Y192133D01*
X424979Y192104D01*
X425016Y192083D01*
X425041Y192063D01*
X425062Y192046D01*
X425074Y192038D01*
X425079Y192033D01*
X425153Y191959D01*
X425220Y191879D01*
X425278Y191792D01*
X425328Y191701D01*
X425366Y191605D01*
X425403Y191509D01*
X425432Y191414D01*
X425453Y191322D01*
X425470Y191235D01*
X425486Y191156D01*
X425495Y191081D01*
X425499Y191014D01*
X425503Y190964D01*
X425507Y190923D01*
Y190898D01*
Y190894D01*
Y190889D01*
X425503Y190761D01*
X425490Y190640D01*
X425474Y190527D01*
X425453Y190424D01*
X425424Y190328D01*
X425395Y190241D01*
X425361Y190161D01*
X425328Y190087D01*
X425295Y190024D01*
X425262Y189966D01*
X425233Y189920D01*
X425203Y189883D01*
X425183Y189849D01*
X425166Y189829D01*
X425153Y189816D01*
X425149Y189812D01*
X425079Y189745D01*
X425004Y189687D01*
X424929Y189637D01*
X424850Y189596D01*
X424771Y189558D01*
X424692Y189529D01*
X424617Y189504D01*
X424542Y189483D01*
X424471Y189471D01*
X424409Y189458D01*
X424351Y189450D01*
X424301Y189442D01*
X424259D01*
X424230Y189438D01*
X424205D01*
X424072Y189446D01*
X423947Y189463D01*
X423835Y189492D01*
X423781Y189504D01*
X423735Y189521D01*
X423689Y189537D01*
X423652Y189550D01*
X423618Y189567D01*
X423589Y189579D01*
X423564Y189587D01*
X423548Y189596D01*
X423539Y189604D01*
X423535D01*
X423427Y189675D01*
X423331Y189750D01*
X423252Y189829D01*
X423186Y189908D01*
X423132Y189974D01*
X423111Y190007D01*
X423094Y190032D01*
X423082Y190053D01*
X423073Y190070D01*
X423065Y190078D01*
Y190082D01*
X423036Y190145D01*
X423011Y190207D01*
X422969Y190345D01*
X422940Y190486D01*
X422924Y190619D01*
X422915Y190681D01*
X422911Y190740D01*
X422907Y190794D01*
Y190840D01*
X422903Y190877D01*
Y190902D01*
Y190923D01*
Y190927D01*
X422907Y191048D01*
X422920Y191164D01*
X422936Y191272D01*
X422961Y191372D01*
X422986Y191463D01*
X423019Y191547D01*
X423053Y191626D01*
X423086Y191697D01*
X423119Y191759D01*
X423152Y191813D01*
X423186Y191859D01*
X423211Y191896D01*
X423236Y191929D01*
X423252Y191950D01*
X423265Y191963D01*
X423269Y191967D01*
X423340Y192033D01*
X423415Y192092D01*
X423489Y192142D01*
X423568Y192187D01*
X423647Y192221D01*
X423722Y192254D01*
X423801Y192279D01*
X423872Y192300D01*
X423943Y192312D01*
X424005Y192325D01*
X424059Y192333D01*
X424109Y192341D01*
X424151D01*
X424180Y192345D01*
X424205D01*
X424301Y192341D01*
D02*
G37*
G36*
X418335D02*
X418427Y192333D01*
X418510Y192316D01*
X418593Y192296D01*
X418672Y192275D01*
X418743Y192246D01*
X418809Y192221D01*
X418868Y192192D01*
X418926Y192162D01*
X418972Y192133D01*
X419013Y192104D01*
X419051Y192083D01*
X419076Y192063D01*
X419097Y192046D01*
X419109Y192038D01*
X419113Y192033D01*
X419188Y191959D01*
X419255Y191879D01*
X419313Y191792D01*
X419363Y191701D01*
X419400Y191605D01*
X419438Y191509D01*
X419467Y191414D01*
X419487Y191322D01*
X419504Y191235D01*
X419521Y191156D01*
X419529Y191081D01*
X419533Y191014D01*
X419537Y190964D01*
X419542Y190923D01*
Y190898D01*
Y190894D01*
Y190889D01*
X419537Y190761D01*
X419525Y190640D01*
X419508Y190527D01*
X419487Y190424D01*
X419458Y190328D01*
X419429Y190241D01*
X419396Y190161D01*
X419363Y190087D01*
X419329Y190024D01*
X419296Y189966D01*
X419267Y189920D01*
X419238Y189883D01*
X419217Y189849D01*
X419201Y189829D01*
X419188Y189816D01*
X419184Y189812D01*
X419113Y189745D01*
X419038Y189687D01*
X418963Y189637D01*
X418884Y189596D01*
X418805Y189558D01*
X418726Y189529D01*
X418651Y189504D01*
X418576Y189483D01*
X418506Y189471D01*
X418443Y189458D01*
X418385Y189450D01*
X418335Y189442D01*
X418294D01*
X418264Y189438D01*
X418239D01*
X418106Y189446D01*
X417982Y189463D01*
X417869Y189492D01*
X417815Y189504D01*
X417769Y189521D01*
X417724Y189537D01*
X417686Y189550D01*
X417653Y189567D01*
X417624Y189579D01*
X417599Y189587D01*
X417582Y189596D01*
X417574Y189604D01*
X417570D01*
X417462Y189675D01*
X417366Y189750D01*
X417287Y189829D01*
X417220Y189908D01*
X417166Y189974D01*
X417145Y190007D01*
X417129Y190032D01*
X417116Y190053D01*
X417108Y190070D01*
X417100Y190078D01*
Y190082D01*
X417071Y190145D01*
X417046Y190207D01*
X417004Y190345D01*
X416975Y190486D01*
X416958Y190619D01*
X416950Y190681D01*
X416946Y190740D01*
X416942Y190794D01*
Y190840D01*
X416937Y190877D01*
Y190902D01*
Y190923D01*
Y190927D01*
X416942Y191048D01*
X416954Y191164D01*
X416971Y191272D01*
X416996Y191372D01*
X417021Y191463D01*
X417054Y191547D01*
X417087Y191626D01*
X417121Y191697D01*
X417154Y191759D01*
X417187Y191813D01*
X417220Y191859D01*
X417245Y191896D01*
X417270Y191929D01*
X417287Y191950D01*
X417299Y191963D01*
X417304Y191967D01*
X417374Y192033D01*
X417449Y192092D01*
X417524Y192142D01*
X417603Y192187D01*
X417682Y192221D01*
X417757Y192254D01*
X417836Y192279D01*
X417907Y192300D01*
X417977Y192312D01*
X418040Y192325D01*
X418094Y192333D01*
X418144Y192341D01*
X418185D01*
X418215Y192345D01*
X418239D01*
X418335Y192341D01*
D02*
G37*
G36*
X415140Y193402D02*
X415273Y193385D01*
X415390Y193365D01*
X415444Y193352D01*
X415494Y193340D01*
X415540Y193327D01*
X415581Y193315D01*
X415619Y193302D01*
X415648Y193294D01*
X415669Y193286D01*
X415689Y193277D01*
X415698Y193273D01*
X415702D01*
X415814Y193219D01*
X415910Y193157D01*
X415993Y193094D01*
X416060Y193032D01*
X416114Y192974D01*
X416155Y192928D01*
X416168Y192911D01*
X416176Y192899D01*
X416185Y192890D01*
Y192886D01*
X416239Y192791D01*
X416280Y192695D01*
X416305Y192607D01*
X416326Y192524D01*
X416338Y192449D01*
X416343Y192420D01*
Y192395D01*
X416347Y192375D01*
Y192358D01*
Y192350D01*
Y192345D01*
X416343Y192250D01*
X416326Y192158D01*
X416305Y192075D01*
X416280Y192004D01*
X416255Y191946D01*
X416234Y191900D01*
X416226Y191884D01*
X416218Y191871D01*
X416214Y191867D01*
Y191863D01*
X416159Y191788D01*
X416093Y191717D01*
X416026Y191659D01*
X415956Y191605D01*
X415897Y191563D01*
X415847Y191534D01*
X415827Y191526D01*
X415814Y191518D01*
X415806Y191509D01*
X415802D01*
X415760Y191489D01*
X415710Y191468D01*
X415656Y191447D01*
X415598Y191426D01*
X415477Y191384D01*
X415352Y191347D01*
X415294Y191330D01*
X415244Y191314D01*
X415194Y191301D01*
X415149Y191289D01*
X415115Y191280D01*
X415086Y191272D01*
X415070Y191268D01*
X415065D01*
X414970Y191247D01*
X414882Y191222D01*
X414808Y191206D01*
X414737Y191185D01*
X414674Y191168D01*
X414616Y191156D01*
X414570Y191139D01*
X414525Y191127D01*
X414491Y191118D01*
X414458Y191106D01*
X414433Y191097D01*
X414417Y191093D01*
X414400Y191089D01*
X414392Y191085D01*
X414383Y191081D01*
X414300Y191043D01*
X414229Y191006D01*
X414167Y190969D01*
X414121Y190935D01*
X414084Y190902D01*
X414059Y190877D01*
X414042Y190860D01*
X414038Y190856D01*
X414001Y190806D01*
X413975Y190752D01*
X413955Y190698D01*
X413942Y190648D01*
X413934Y190607D01*
X413930Y190569D01*
Y190548D01*
Y190544D01*
Y190540D01*
X413934Y190478D01*
X413946Y190415D01*
X413967Y190361D01*
X413984Y190311D01*
X414005Y190270D01*
X414025Y190236D01*
X414038Y190220D01*
X414042Y190211D01*
X414088Y190157D01*
X414138Y190111D01*
X414196Y190070D01*
X414250Y190037D01*
X414300Y190012D01*
X414337Y189991D01*
X414354Y189983D01*
X414367Y189978D01*
X414371Y189974D01*
X414375D01*
X414458Y189945D01*
X414545Y189924D01*
X414633Y189912D01*
X414712Y189903D01*
X414778Y189895D01*
X414808D01*
X414832Y189891D01*
X414882D01*
X415003Y189895D01*
X415111Y189908D01*
X415215Y189928D01*
X415303Y189949D01*
X415340Y189958D01*
X415373Y189966D01*
X415402Y189978D01*
X415427Y189987D01*
X415448Y189995D01*
X415461Y189999D01*
X415469Y190003D01*
X415473D01*
X415565Y190049D01*
X415644Y190099D01*
X415710Y190145D01*
X415764Y190195D01*
X415806Y190236D01*
X415835Y190270D01*
X415856Y190290D01*
X415860Y190299D01*
X415902Y190374D01*
X415935Y190453D01*
X415960Y190532D01*
X415981Y190607D01*
X415997Y190677D01*
X416001Y190702D01*
X416006Y190727D01*
X416010Y190748D01*
X416014Y190765D01*
Y190773D01*
Y190777D01*
X416492Y190735D01*
X416488Y190665D01*
X416480Y190594D01*
X416455Y190465D01*
X416422Y190345D01*
X416405Y190290D01*
X416384Y190245D01*
X416367Y190199D01*
X416347Y190157D01*
X416330Y190124D01*
X416313Y190095D01*
X416301Y190070D01*
X416293Y190053D01*
X416289Y190045D01*
X416284Y190041D01*
X416205Y189933D01*
X416114Y189841D01*
X416022Y189762D01*
X415935Y189700D01*
X415856Y189650D01*
X415823Y189633D01*
X415793Y189617D01*
X415768Y189604D01*
X415752Y189596D01*
X415739Y189587D01*
X415735D01*
X415594Y189537D01*
X415448Y189500D01*
X415303Y189475D01*
X415165Y189458D01*
X415099Y189450D01*
X415040Y189446D01*
X414991Y189442D01*
X414945D01*
X414907Y189438D01*
X414857D01*
X414708Y189446D01*
X414570Y189463D01*
X414446Y189483D01*
X414387Y189500D01*
X414337Y189513D01*
X414288Y189525D01*
X414246Y189542D01*
X414209Y189554D01*
X414179Y189562D01*
X414154Y189575D01*
X414138Y189579D01*
X414125Y189587D01*
X414121D01*
X414005Y189650D01*
X413905Y189716D01*
X413817Y189787D01*
X413747Y189854D01*
X413689Y189916D01*
X413651Y189962D01*
X413634Y189983D01*
X413626Y189995D01*
X413618Y190003D01*
Y190007D01*
X413585Y190057D01*
X413559Y190111D01*
X413514Y190211D01*
X413481Y190307D01*
X413460Y190394D01*
X413447Y190473D01*
X413443Y190503D01*
Y190532D01*
X413439Y190552D01*
Y190569D01*
Y190577D01*
Y190582D01*
X413447Y190694D01*
X413464Y190798D01*
X413489Y190889D01*
X413518Y190969D01*
X413551Y191035D01*
X413564Y191064D01*
X413576Y191085D01*
X413585Y191102D01*
X413593Y191114D01*
X413601Y191122D01*
Y191127D01*
X413634Y191168D01*
X413668Y191210D01*
X413747Y191289D01*
X413826Y191355D01*
X413909Y191409D01*
X413980Y191455D01*
X414013Y191476D01*
X414042Y191489D01*
X414063Y191501D01*
X414080Y191509D01*
X414092Y191518D01*
X414096D01*
X414142Y191538D01*
X414200Y191559D01*
X414258Y191580D01*
X414325Y191601D01*
X414466Y191638D01*
X414608Y191676D01*
X414674Y191697D01*
X414737Y191709D01*
X414795Y191726D01*
X414845Y191734D01*
X414887Y191746D01*
X414916Y191755D01*
X414936Y191759D01*
X414945D01*
X415057Y191784D01*
X415157Y191813D01*
X415244Y191838D01*
X415328Y191863D01*
X415398Y191888D01*
X415461Y191909D01*
X415515Y191929D01*
X415560Y191950D01*
X415598Y191971D01*
X415631Y191988D01*
X415656Y192000D01*
X415677Y192013D01*
X415694Y192025D01*
X415702Y192033D01*
X415710Y192038D01*
X415760Y192092D01*
X415793Y192146D01*
X415818Y192204D01*
X415839Y192258D01*
X415847Y192304D01*
X415852Y192341D01*
X415856Y192366D01*
Y192370D01*
Y192375D01*
X415852Y192420D01*
X415847Y192462D01*
X415823Y192537D01*
X415789Y192607D01*
X415752Y192666D01*
X415714Y192716D01*
X415681Y192753D01*
X415656Y192774D01*
X415652Y192782D01*
X415648D01*
X415606Y192811D01*
X415556Y192841D01*
X415452Y192882D01*
X415344Y192911D01*
X415232Y192932D01*
X415182Y192940D01*
X415132Y192945D01*
X415090Y192949D01*
X415053D01*
X415020Y192953D01*
X414899D01*
X414824Y192945D01*
X414753Y192936D01*
X414687Y192924D01*
X414629Y192911D01*
X414575Y192895D01*
X414525Y192878D01*
X414479Y192861D01*
X414441Y192841D01*
X414408Y192824D01*
X414379Y192807D01*
X414354Y192795D01*
X414337Y192782D01*
X414321Y192774D01*
X414317Y192770D01*
X414313Y192766D01*
X414271Y192728D01*
X414233Y192691D01*
X414175Y192603D01*
X414125Y192512D01*
X414092Y192424D01*
X414067Y192345D01*
X414059Y192312D01*
X414050Y192279D01*
X414046Y192254D01*
Y192237D01*
X414042Y192225D01*
Y192221D01*
X413555Y192258D01*
X413568Y192383D01*
X413593Y192495D01*
X413622Y192599D01*
X413655Y192687D01*
X413676Y192724D01*
X413689Y192761D01*
X413705Y192791D01*
X413718Y192815D01*
X413730Y192836D01*
X413738Y192849D01*
X413743Y192857D01*
X413747Y192861D01*
X413817Y192957D01*
X413897Y193036D01*
X413980Y193107D01*
X414063Y193165D01*
X414134Y193207D01*
X414167Y193223D01*
X414192Y193240D01*
X414213Y193252D01*
X414233Y193256D01*
X414242Y193265D01*
X414246D01*
X414371Y193311D01*
X414500Y193348D01*
X414629Y193373D01*
X414745Y193390D01*
X414799Y193394D01*
X414845Y193398D01*
X414891Y193402D01*
X414928Y193406D01*
X414999D01*
X415140Y193402D01*
D02*
G37*
G36*
X454070Y185803D02*
X453600D01*
Y186340D01*
X454070D01*
Y185803D01*
D02*
G37*
G36*
X449897D02*
X449427D01*
Y186340D01*
X449897D01*
Y185803D01*
D02*
G37*
G36*
X442155Y182500D02*
X441719D01*
Y182845D01*
X441665Y182775D01*
X441606Y182712D01*
X441544Y182658D01*
X441481Y182608D01*
X441415Y182571D01*
X441353Y182537D01*
X441290Y182508D01*
X441228Y182487D01*
X441174Y182471D01*
X441119Y182458D01*
X441070Y182450D01*
X441028Y182446D01*
X440995Y182442D01*
X440970Y182438D01*
X440949D01*
X440857Y182442D01*
X440770Y182454D01*
X440687Y182475D01*
X440608Y182500D01*
X440533Y182529D01*
X440462Y182558D01*
X440400Y182596D01*
X440337Y182633D01*
X440287Y182666D01*
X440238Y182704D01*
X440196Y182733D01*
X440163Y182766D01*
X440138Y182787D01*
X440117Y182808D01*
X440104Y182820D01*
X440100Y182825D01*
X440038Y182904D01*
X439984Y182983D01*
X439934Y183070D01*
X439892Y183161D01*
X439859Y183253D01*
X439830Y183349D01*
X439805Y183436D01*
X439788Y183523D01*
X439772Y183607D01*
X439763Y183686D01*
X439755Y183752D01*
X439747Y183815D01*
Y183864D01*
X439743Y183898D01*
Y183923D01*
Y183931D01*
X439747Y184043D01*
X439755Y184147D01*
X439772Y184243D01*
X439784Y184326D01*
X439792Y184364D01*
X439801Y184397D01*
X439809Y184426D01*
X439817Y184451D01*
X439822Y184472D01*
X439826Y184484D01*
X439830Y184493D01*
Y184497D01*
X439863Y184592D01*
X439901Y184680D01*
X439938Y184759D01*
X439976Y184825D01*
X440013Y184875D01*
X440038Y184917D01*
X440055Y184942D01*
X440063Y184950D01*
X440121Y185017D01*
X440183Y185075D01*
X440246Y185125D01*
X440304Y185167D01*
X440358Y185200D01*
X440400Y185221D01*
X440416Y185229D01*
X440429Y185237D01*
X440433Y185241D01*
X440437D01*
X440525Y185275D01*
X440608Y185300D01*
X440691Y185320D01*
X440766Y185333D01*
X440828Y185341D01*
X440857D01*
X440878Y185345D01*
X440924D01*
X441007Y185341D01*
X441090Y185329D01*
X441165Y185312D01*
X441240Y185287D01*
X441307Y185258D01*
X441369Y185229D01*
X441427Y185192D01*
X441477Y185158D01*
X441527Y185125D01*
X441569Y185092D01*
X441602Y185058D01*
X441631Y185029D01*
X441656Y185004D01*
X441673Y184988D01*
X441681Y184975D01*
X441685Y184971D01*
Y186340D01*
X442155D01*
Y182500D01*
D02*
G37*
G36*
X392876Y186257D02*
X392938Y186165D01*
X393009Y186078D01*
X393080Y186003D01*
X393142Y185932D01*
X393171Y185907D01*
X393192Y185882D01*
X393213Y185861D01*
X393230Y185849D01*
X393238Y185840D01*
X393242Y185836D01*
X393354Y185741D01*
X393475Y185657D01*
X393591Y185578D01*
X393700Y185512D01*
X393745Y185487D01*
X393791Y185462D01*
X393833Y185437D01*
X393866Y185420D01*
X393895Y185408D01*
X393916Y185395D01*
X393929Y185391D01*
X393933Y185387D01*
Y184934D01*
X393849Y184967D01*
X393762Y185004D01*
X393679Y185046D01*
X393604Y185083D01*
X393537Y185121D01*
X393508Y185133D01*
X393483Y185150D01*
X393463Y185158D01*
X393450Y185167D01*
X393442Y185175D01*
X393438D01*
X393338Y185237D01*
X393250Y185295D01*
X393171Y185350D01*
X393109Y185399D01*
X393055Y185441D01*
X393017Y185470D01*
X392997Y185491D01*
X392988Y185499D01*
Y182500D01*
X392518D01*
Y186352D01*
X392822D01*
X392876Y186257D01*
D02*
G37*
G36*
X413381Y185341D02*
X413501Y185329D01*
X413609Y185312D01*
X413659Y185304D01*
X413701Y185295D01*
X413743Y185287D01*
X413780Y185279D01*
X413809Y185271D01*
X413834Y185262D01*
X413855Y185254D01*
X413871Y185250D01*
X413880Y185246D01*
X413884D01*
X413980Y185204D01*
X414063Y185158D01*
X414134Y185113D01*
X414192Y185067D01*
X414238Y185025D01*
X414271Y184992D01*
X414292Y184971D01*
X414300Y184967D01*
Y184963D01*
X414350Y184892D01*
X414392Y184813D01*
X414425Y184734D01*
X414454Y184659D01*
X414475Y184592D01*
X414483Y184563D01*
X414491Y184538D01*
X414496Y184518D01*
X414500Y184501D01*
X414504Y184493D01*
Y184488D01*
X414042Y184426D01*
X414025Y184480D01*
X414009Y184530D01*
X413975Y184613D01*
X413934Y184688D01*
X413897Y184742D01*
X413863Y184784D01*
X413834Y184817D01*
X413817Y184834D01*
X413809Y184838D01*
X413743Y184875D01*
X413663Y184905D01*
X413585Y184925D01*
X413505Y184942D01*
X413431Y184950D01*
X413401D01*
X413372Y184954D01*
X413318D01*
X413193Y184946D01*
X413085Y184929D01*
X412994Y184905D01*
X412919Y184875D01*
X412861Y184842D01*
X412840Y184830D01*
X412819Y184817D01*
X412802Y184809D01*
X412794Y184801D01*
X412786Y184792D01*
X412740Y184742D01*
X412707Y184680D01*
X412682Y184613D01*
X412665Y184547D01*
X412657Y184484D01*
X412648Y184434D01*
Y184418D01*
Y184401D01*
Y184393D01*
Y184389D01*
Y184376D01*
Y184360D01*
Y184318D01*
X412653Y184301D01*
Y184285D01*
Y184272D01*
Y184268D01*
X412707Y184251D01*
X412765Y184235D01*
X412831Y184218D01*
X412898Y184201D01*
X413035Y184172D01*
X413173Y184147D01*
X413239Y184139D01*
X413297Y184131D01*
X413351Y184122D01*
X413401Y184114D01*
X413439Y184110D01*
X413468Y184106D01*
X413485Y184102D01*
X413493D01*
X413593Y184089D01*
X413676Y184077D01*
X413751Y184064D01*
X413809Y184056D01*
X413855Y184043D01*
X413888Y184039D01*
X413905Y184031D01*
X413913D01*
X413980Y184010D01*
X414046Y183985D01*
X414105Y183960D01*
X414154Y183935D01*
X414196Y183914D01*
X414225Y183894D01*
X414246Y183881D01*
X414254Y183877D01*
X414308Y183835D01*
X414354Y183794D01*
X414396Y183748D01*
X414429Y183706D01*
X414458Y183665D01*
X414479Y183636D01*
X414491Y183615D01*
X414496Y183607D01*
X414525Y183540D01*
X414550Y183478D01*
X414566Y183415D01*
X414575Y183357D01*
X414583Y183307D01*
X414587Y183265D01*
Y183240D01*
Y183236D01*
Y183232D01*
X414583Y183170D01*
X414575Y183107D01*
X414566Y183049D01*
X414550Y182995D01*
X414508Y182895D01*
X414462Y182816D01*
X414441Y182779D01*
X414421Y182750D01*
X414400Y182720D01*
X414379Y182700D01*
X414362Y182683D01*
X414354Y182671D01*
X414346Y182662D01*
X414342Y182658D01*
X414292Y182621D01*
X414242Y182587D01*
X414184Y182554D01*
X414129Y182529D01*
X414013Y182492D01*
X413897Y182467D01*
X413847Y182454D01*
X413797Y182450D01*
X413751Y182446D01*
X413713Y182442D01*
X413684Y182438D01*
X413639D01*
X413535Y182442D01*
X413439Y182450D01*
X413351Y182467D01*
X413272Y182483D01*
X413210Y182500D01*
X413181Y182508D01*
X413160Y182517D01*
X413143Y182521D01*
X413131Y182525D01*
X413123Y182529D01*
X413119D01*
X413027Y182571D01*
X412935Y182616D01*
X412852Y182671D01*
X412773Y182725D01*
X412707Y182770D01*
X412682Y182795D01*
X412657Y182812D01*
X412636Y182829D01*
X412624Y182841D01*
X412615Y182845D01*
X412611Y182849D01*
X412603Y182775D01*
X412590Y182708D01*
X412574Y182650D01*
X412557Y182600D01*
X412544Y182558D01*
X412532Y182525D01*
X412524Y182508D01*
X412520Y182500D01*
X412029D01*
X412058Y182558D01*
X412083Y182621D01*
X412104Y182675D01*
X412120Y182725D01*
X412133Y182770D01*
X412141Y182804D01*
X412145Y182825D01*
Y182833D01*
X412149Y182870D01*
X412153Y182920D01*
X412158Y182974D01*
X412162Y183037D01*
X412166Y183103D01*
Y183174D01*
X412170Y183315D01*
Y183382D01*
X412174Y183449D01*
Y183507D01*
Y183561D01*
Y183602D01*
Y183636D01*
Y183657D01*
Y183665D01*
Y184293D01*
Y184351D01*
Y184401D01*
X412178Y184447D01*
Y184493D01*
X412183Y184567D01*
X412187Y184626D01*
X412191Y184671D01*
X412195Y184701D01*
X412199Y184721D01*
Y184726D01*
X412216Y184796D01*
X412241Y184859D01*
X412266Y184913D01*
X412291Y184959D01*
X412312Y184996D01*
X412332Y185025D01*
X412345Y185042D01*
X412349Y185046D01*
X412395Y185092D01*
X412445Y185133D01*
X412499Y185171D01*
X412553Y185200D01*
X412603Y185225D01*
X412640Y185241D01*
X412657Y185250D01*
X412669Y185254D01*
X412673Y185258D01*
X412678D01*
X412765Y185287D01*
X412861Y185308D01*
X412956Y185325D01*
X413048Y185333D01*
X413127Y185341D01*
X413164D01*
X413193Y185345D01*
X413252D01*
X413381Y185341D01*
D02*
G37*
G36*
X430620Y182500D02*
X430125D01*
X429555Y184638D01*
X429447Y184164D01*
X429001Y182500D01*
X428519D01*
X427641Y185283D01*
X428099D01*
X428581Y183673D01*
X428739Y183136D01*
X428877Y183665D01*
X429297Y185283D01*
X429775D01*
X430220Y183648D01*
X430245Y183557D01*
X430266Y183473D01*
X430283Y183399D01*
X430299Y183336D01*
X430316Y183282D01*
X430329Y183236D01*
X430337Y183199D01*
X430345Y183166D01*
X430349Y183141D01*
X430358Y183120D01*
Y183103D01*
X430362Y183095D01*
X430366Y183082D01*
Y183078D01*
X430528Y183673D01*
X430969Y185283D01*
X431460D01*
X430620Y182500D01*
D02*
G37*
G36*
X458500D02*
X458009D01*
Y185770D01*
X456903Y182500D01*
X456445D01*
X455322Y185716D01*
Y182500D01*
X454831D01*
Y186340D01*
X455517D01*
X456441Y183669D01*
X456466Y183594D01*
X456491Y183528D01*
X456511Y183461D01*
X456532Y183403D01*
X456549Y183344D01*
X456566Y183295D01*
X456582Y183249D01*
X456595Y183207D01*
X456607Y183174D01*
X456615Y183141D01*
X456624Y183116D01*
X456632Y183091D01*
X456636Y183074D01*
X456640Y183062D01*
X456645Y183057D01*
Y183053D01*
X456657Y183091D01*
X456670Y183132D01*
X456699Y183220D01*
X456728Y183315D01*
X456757Y183407D01*
X456786Y183490D01*
X456799Y183528D01*
X456807Y183557D01*
X456815Y183582D01*
X456823Y183602D01*
X456828Y183615D01*
Y183619D01*
X457739Y186340D01*
X458500D01*
Y182500D01*
D02*
G37*
G36*
X397573D02*
X397123D01*
X396067Y185283D01*
X396553D01*
X397173Y183582D01*
X397215Y183469D01*
X397248Y183369D01*
X397277Y183278D01*
X397302Y183203D01*
X397323Y183141D01*
X397331Y183116D01*
X397336Y183091D01*
X397340Y183074D01*
X397344Y183062D01*
X397348Y183057D01*
Y183053D01*
X397381Y183161D01*
X397410Y183265D01*
X397440Y183361D01*
X397469Y183444D01*
X397494Y183515D01*
X397502Y183544D01*
X397510Y183569D01*
X397519Y183590D01*
X397523Y183602D01*
X397527Y183611D01*
Y183615D01*
X398126Y185283D01*
X398625D01*
X397573Y182500D01*
D02*
G37*
G36*
X445146Y183557D02*
Y183453D01*
X445142Y183361D01*
X445138Y183286D01*
X445134Y183224D01*
X445130Y183178D01*
X445126Y183141D01*
X445121Y183124D01*
Y183116D01*
X445101Y183041D01*
X445080Y182974D01*
X445055Y182916D01*
X445030Y182866D01*
X445009Y182825D01*
X444992Y182791D01*
X444980Y182775D01*
X444976Y182766D01*
X444934Y182716D01*
X444884Y182671D01*
X444830Y182629D01*
X444780Y182596D01*
X444730Y182567D01*
X444693Y182546D01*
X444668Y182533D01*
X444664Y182529D01*
X444660D01*
X444577Y182500D01*
X444497Y182475D01*
X444418Y182458D01*
X444348Y182450D01*
X444285Y182442D01*
X444240Y182438D01*
X444198D01*
X444094Y182442D01*
X443998Y182458D01*
X443911Y182479D01*
X443823Y182512D01*
X443745Y182546D01*
X443674Y182587D01*
X443607Y182629D01*
X443545Y182675D01*
X443491Y182716D01*
X443445Y182758D01*
X443403Y182799D01*
X443370Y182833D01*
X443345Y182866D01*
X443329Y182887D01*
X443316Y182904D01*
X443312Y182908D01*
Y182500D01*
X442892D01*
Y185283D01*
X443362D01*
Y183790D01*
X443366Y183665D01*
X443374Y183557D01*
X443387Y183465D01*
X443399Y183386D01*
X443407Y183353D01*
X443416Y183328D01*
X443424Y183303D01*
X443428Y183282D01*
X443433Y183270D01*
X443437Y183257D01*
X443441Y183253D01*
Y183249D01*
X443474Y183182D01*
X443516Y183124D01*
X443561Y183074D01*
X443603Y183033D01*
X443645Y182999D01*
X443678Y182974D01*
X443699Y182958D01*
X443703Y182953D01*
X443707D01*
X443778Y182916D01*
X443844Y182891D01*
X443911Y182870D01*
X443973Y182858D01*
X444027Y182849D01*
X444065Y182845D01*
X444102D01*
X444177Y182849D01*
X444248Y182862D01*
X444310Y182879D01*
X444360Y182899D01*
X444402Y182916D01*
X444435Y182933D01*
X444452Y182945D01*
X444460Y182949D01*
X444510Y182991D01*
X444552Y183041D01*
X444585Y183087D01*
X444610Y183132D01*
X444631Y183174D01*
X444643Y183211D01*
X444647Y183232D01*
X444651Y183240D01*
X444656Y183265D01*
X444660Y183299D01*
X444664Y183374D01*
X444672Y183457D01*
Y183540D01*
X444676Y183615D01*
Y183648D01*
Y183681D01*
Y183706D01*
Y183723D01*
Y183736D01*
Y183740D01*
Y185283D01*
X445146D01*
Y183557D01*
D02*
G37*
G36*
X426210Y185341D02*
X426314Y185329D01*
X426406Y185308D01*
X426497Y185283D01*
X426580Y185254D01*
X426659Y185221D01*
X426730Y185187D01*
X426792Y185150D01*
X426851Y185113D01*
X426901Y185079D01*
X426946Y185046D01*
X426980Y185017D01*
X427009Y184992D01*
X427030Y184971D01*
X427042Y184959D01*
X427046Y184954D01*
X427109Y184880D01*
X427163Y184796D01*
X427213Y184709D01*
X427254Y184622D01*
X427287Y184530D01*
X427317Y184439D01*
X427342Y184351D01*
X427358Y184264D01*
X427375Y184185D01*
X427383Y184106D01*
X427391Y184039D01*
X427400Y183981D01*
Y183931D01*
X427404Y183894D01*
Y183873D01*
Y183864D01*
X427400Y183740D01*
X427387Y183623D01*
X427371Y183515D01*
X427350Y183415D01*
X427321Y183319D01*
X427292Y183232D01*
X427258Y183153D01*
X427225Y183082D01*
X427196Y183020D01*
X427163Y182966D01*
X427134Y182920D01*
X427105Y182883D01*
X427084Y182849D01*
X427067Y182829D01*
X427055Y182816D01*
X427050Y182812D01*
X426980Y182745D01*
X426905Y182687D01*
X426830Y182637D01*
X426747Y182596D01*
X426668Y182558D01*
X426584Y182529D01*
X426505Y182504D01*
X426431Y182483D01*
X426360Y182471D01*
X426293Y182458D01*
X426235Y182450D01*
X426181Y182442D01*
X426139D01*
X426106Y182438D01*
X426081D01*
X425994Y182442D01*
X425906Y182446D01*
X425827Y182458D01*
X425752Y182475D01*
X425682Y182492D01*
X425619Y182512D01*
X425557Y182533D01*
X425503Y182554D01*
X425453Y182575D01*
X425411Y182596D01*
X425374Y182616D01*
X425341Y182633D01*
X425320Y182650D01*
X425299Y182662D01*
X425291Y182666D01*
X425287Y182671D01*
X425228Y182716D01*
X425178Y182766D01*
X425133Y182820D01*
X425087Y182874D01*
X425012Y182987D01*
X424954Y183091D01*
X424933Y183141D01*
X424912Y183186D01*
X424895Y183228D01*
X424883Y183265D01*
X424871Y183295D01*
X424862Y183315D01*
X424858Y183332D01*
Y183336D01*
X425349Y183399D01*
X425391Y183295D01*
X425441Y183203D01*
X425490Y183124D01*
X425536Y183066D01*
X425578Y183016D01*
X425611Y182983D01*
X425632Y182966D01*
X425636Y182958D01*
X425640D01*
X425711Y182912D01*
X425786Y182883D01*
X425861Y182858D01*
X425927Y182841D01*
X425990Y182833D01*
X426040Y182829D01*
X426056Y182825D01*
X426081D01*
X426144Y182829D01*
X426206Y182837D01*
X426264Y182845D01*
X426318Y182862D01*
X426418Y182899D01*
X426501Y182945D01*
X426539Y182966D01*
X426572Y182991D01*
X426597Y183012D01*
X426622Y183028D01*
X426639Y183045D01*
X426651Y183057D01*
X426659Y183062D01*
X426663Y183066D01*
X426705Y183116D01*
X426743Y183166D01*
X426772Y183224D01*
X426801Y183278D01*
X426847Y183399D01*
X426880Y183511D01*
X426892Y183565D01*
X426901Y183615D01*
X426909Y183657D01*
X426913Y183698D01*
X426917Y183727D01*
X426921Y183752D01*
Y183769D01*
Y183773D01*
X424846D01*
X424841Y183827D01*
Y183869D01*
Y183889D01*
Y183898D01*
X424846Y184023D01*
X424858Y184139D01*
X424875Y184251D01*
X424895Y184355D01*
X424925Y184451D01*
X424954Y184538D01*
X424987Y184617D01*
X425016Y184688D01*
X425049Y184751D01*
X425083Y184809D01*
X425112Y184855D01*
X425141Y184892D01*
X425162Y184925D01*
X425178Y184946D01*
X425191Y184959D01*
X425195Y184963D01*
X425262Y185029D01*
X425337Y185088D01*
X425411Y185142D01*
X425486Y185183D01*
X425561Y185221D01*
X425640Y185254D01*
X425711Y185279D01*
X425782Y185300D01*
X425848Y185312D01*
X425911Y185325D01*
X425965Y185333D01*
X426015Y185341D01*
X426052D01*
X426081Y185345D01*
X426106D01*
X426210Y185341D01*
D02*
G37*
G36*
X400281D02*
X400385Y185329D01*
X400476Y185308D01*
X400568Y185283D01*
X400651Y185254D01*
X400730Y185221D01*
X400801Y185187D01*
X400863Y185150D01*
X400921Y185113D01*
X400971Y185079D01*
X401017Y185046D01*
X401050Y185017D01*
X401080Y184992D01*
X401100Y184971D01*
X401113Y184959D01*
X401117Y184954D01*
X401179Y184880D01*
X401233Y184796D01*
X401283Y184709D01*
X401325Y184622D01*
X401358Y184530D01*
X401387Y184439D01*
X401412Y184351D01*
X401429Y184264D01*
X401446Y184185D01*
X401454Y184106D01*
X401462Y184039D01*
X401471Y183981D01*
Y183931D01*
X401475Y183894D01*
Y183873D01*
Y183864D01*
X401471Y183740D01*
X401458Y183623D01*
X401441Y183515D01*
X401421Y183415D01*
X401392Y183319D01*
X401362Y183232D01*
X401329Y183153D01*
X401296Y183082D01*
X401267Y183020D01*
X401233Y182966D01*
X401204Y182920D01*
X401175Y182883D01*
X401154Y182849D01*
X401138Y182829D01*
X401125Y182816D01*
X401121Y182812D01*
X401050Y182745D01*
X400976Y182687D01*
X400901Y182637D01*
X400817Y182596D01*
X400738Y182558D01*
X400655Y182529D01*
X400576Y182504D01*
X400501Y182483D01*
X400431Y182471D01*
X400364Y182458D01*
X400306Y182450D01*
X400252Y182442D01*
X400210D01*
X400177Y182438D01*
X400152D01*
X400065Y182442D01*
X399977Y182446D01*
X399898Y182458D01*
X399823Y182475D01*
X399752Y182492D01*
X399690Y182512D01*
X399628Y182533D01*
X399574Y182554D01*
X399524Y182575D01*
X399482Y182596D01*
X399445Y182616D01*
X399411Y182633D01*
X399391Y182650D01*
X399370Y182662D01*
X399361Y182666D01*
X399357Y182671D01*
X399299Y182716D01*
X399249Y182766D01*
X399203Y182820D01*
X399158Y182874D01*
X399083Y182987D01*
X399025Y183091D01*
X399004Y183141D01*
X398983Y183186D01*
X398966Y183228D01*
X398954Y183265D01*
X398941Y183295D01*
X398933Y183315D01*
X398929Y183332D01*
Y183336D01*
X399420Y183399D01*
X399461Y183295D01*
X399511Y183203D01*
X399561Y183124D01*
X399607Y183066D01*
X399648Y183016D01*
X399682Y182983D01*
X399703Y182966D01*
X399707Y182958D01*
X399711D01*
X399782Y182912D01*
X399856Y182883D01*
X399931Y182858D01*
X399998Y182841D01*
X400060Y182833D01*
X400110Y182829D01*
X400127Y182825D01*
X400152D01*
X400214Y182829D01*
X400277Y182837D01*
X400335Y182845D01*
X400389Y182862D01*
X400489Y182899D01*
X400572Y182945D01*
X400609Y182966D01*
X400643Y182991D01*
X400668Y183012D01*
X400693Y183028D01*
X400709Y183045D01*
X400722Y183057D01*
X400730Y183062D01*
X400734Y183066D01*
X400776Y183116D01*
X400813Y183166D01*
X400842Y183224D01*
X400872Y183278D01*
X400917Y183399D01*
X400951Y183511D01*
X400963Y183565D01*
X400971Y183615D01*
X400980Y183657D01*
X400984Y183698D01*
X400988Y183727D01*
X400992Y183752D01*
Y183769D01*
Y183773D01*
X398916D01*
X398912Y183827D01*
Y183869D01*
Y183889D01*
Y183898D01*
X398916Y184023D01*
X398929Y184139D01*
X398945Y184251D01*
X398966Y184355D01*
X398995Y184451D01*
X399025Y184538D01*
X399058Y184617D01*
X399087Y184688D01*
X399120Y184751D01*
X399153Y184809D01*
X399183Y184855D01*
X399212Y184892D01*
X399233Y184925D01*
X399249Y184946D01*
X399262Y184959D01*
X399266Y184963D01*
X399332Y185029D01*
X399407Y185088D01*
X399482Y185142D01*
X399557Y185183D01*
X399632Y185221D01*
X399711Y185254D01*
X399782Y185279D01*
X399852Y185300D01*
X399919Y185312D01*
X399981Y185325D01*
X400035Y185333D01*
X400085Y185341D01*
X400123D01*
X400152Y185345D01*
X400177D01*
X400281Y185341D01*
D02*
G37*
G36*
X454070Y182500D02*
X453600D01*
Y185283D01*
X454070D01*
Y182500D01*
D02*
G37*
G36*
X451682Y185341D02*
X451782Y185325D01*
X451873Y185304D01*
X451961Y185275D01*
X452039Y185237D01*
X452110Y185200D01*
X452177Y185158D01*
X452235Y185117D01*
X452289Y185071D01*
X452335Y185029D01*
X452372Y184992D01*
X452401Y184954D01*
X452426Y184925D01*
X452447Y184905D01*
X452456Y184888D01*
X452460Y184884D01*
Y185283D01*
X452884D01*
Y182500D01*
X452414D01*
Y184018D01*
X452410Y184114D01*
X452406Y184206D01*
X452393Y184285D01*
X452381Y184360D01*
X452364Y184426D01*
X452347Y184484D01*
X452327Y184538D01*
X452306Y184584D01*
X452285Y184626D01*
X452264Y184659D01*
X452247Y184684D01*
X452231Y184709D01*
X452218Y184726D01*
X452206Y184738D01*
X452202Y184742D01*
X452198Y184746D01*
X452156Y184780D01*
X452110Y184809D01*
X452023Y184859D01*
X451935Y184892D01*
X451857Y184913D01*
X451786Y184929D01*
X451753Y184934D01*
X451727D01*
X451707Y184938D01*
X451678D01*
X451607Y184934D01*
X451545Y184925D01*
X451490Y184909D01*
X451440Y184896D01*
X451403Y184880D01*
X451374Y184863D01*
X451353Y184855D01*
X451349Y184850D01*
X451299Y184817D01*
X451257Y184780D01*
X451224Y184742D01*
X451199Y184705D01*
X451178Y184671D01*
X451166Y184647D01*
X451158Y184630D01*
X451153Y184622D01*
X451133Y184563D01*
X451120Y184497D01*
X451108Y184426D01*
X451103Y184355D01*
X451099Y184293D01*
X451095Y184264D01*
Y184239D01*
Y184222D01*
Y184206D01*
Y184197D01*
Y184193D01*
Y182500D01*
X450625D01*
Y184210D01*
Y184268D01*
Y184322D01*
X450629Y184376D01*
Y184422D01*
X450633Y184464D01*
Y184501D01*
X450638Y184563D01*
X450646Y184609D01*
X450650Y184642D01*
X450654Y184663D01*
Y184667D01*
X450671Y184742D01*
X450696Y184809D01*
X450717Y184867D01*
X450742Y184917D01*
X450767Y184959D01*
X450783Y184992D01*
X450796Y185009D01*
X450800Y185017D01*
X450841Y185071D01*
X450891Y185117D01*
X450945Y185154D01*
X450995Y185192D01*
X451045Y185216D01*
X451083Y185237D01*
X451108Y185250D01*
X451112Y185254D01*
X451116D01*
X451195Y185283D01*
X451274Y185308D01*
X451353Y185325D01*
X451424Y185333D01*
X451486Y185341D01*
X451511D01*
X451536Y185345D01*
X451578D01*
X451682Y185341D01*
D02*
G37*
G36*
X449897Y182500D02*
X449427D01*
Y185283D01*
X449897D01*
Y182500D01*
D02*
G37*
G36*
X437621D02*
X437113D01*
Y184060D01*
X436132D01*
X435982Y184064D01*
X435849Y184077D01*
X435724Y184093D01*
X435607Y184114D01*
X435508Y184139D01*
X435412Y184168D01*
X435333Y184197D01*
X435258Y184231D01*
X435196Y184260D01*
X435142Y184289D01*
X435096Y184318D01*
X435063Y184343D01*
X435033Y184368D01*
X435017Y184385D01*
X435004Y184393D01*
X435000Y184397D01*
X434946Y184464D01*
X434896Y184530D01*
X434855Y184601D01*
X434821Y184671D01*
X434788Y184742D01*
X434763Y184809D01*
X434742Y184875D01*
X434726Y184938D01*
X434713Y185000D01*
X434705Y185054D01*
X434696Y185100D01*
X434692Y185142D01*
X434688Y185179D01*
Y185204D01*
Y185221D01*
Y185225D01*
X434692Y185329D01*
X434705Y185429D01*
X434726Y185516D01*
X434746Y185595D01*
X434771Y185657D01*
X434780Y185687D01*
X434788Y185707D01*
X434796Y185724D01*
X434805Y185737D01*
X434809Y185745D01*
Y185749D01*
X434855Y185836D01*
X434904Y185907D01*
X434959Y185974D01*
X435004Y186023D01*
X435050Y186065D01*
X435083Y186094D01*
X435108Y186115D01*
X435112Y186119D01*
X435117D01*
X435191Y186165D01*
X435271Y186202D01*
X435350Y186236D01*
X435425Y186261D01*
X435491Y186281D01*
X435520Y186286D01*
X435545Y186294D01*
X435562Y186298D01*
X435578D01*
X435587Y186302D01*
X435591D01*
X435628Y186311D01*
X435674Y186315D01*
X435766Y186323D01*
X435861Y186331D01*
X435957Y186336D01*
X436040Y186340D01*
X437621D01*
Y182500D01*
D02*
G37*
G36*
X423302Y185341D02*
X423360Y185329D01*
X423410Y185316D01*
X423456Y185300D01*
X423489Y185279D01*
X423519Y185266D01*
X423535Y185254D01*
X423544Y185250D01*
X423568Y185229D01*
X423598Y185204D01*
X423647Y185150D01*
X423697Y185083D01*
X423743Y185017D01*
X423785Y184959D01*
X423814Y184905D01*
X423826Y184888D01*
X423835Y184871D01*
X423843Y184863D01*
Y185283D01*
X424267D01*
Y182500D01*
X423797D01*
Y183956D01*
X423793Y184064D01*
X423785Y184168D01*
X423772Y184260D01*
X423760Y184343D01*
X423747Y184409D01*
X423739Y184439D01*
X423735Y184464D01*
X423731Y184480D01*
X423727Y184493D01*
X423722Y184501D01*
Y184505D01*
X423697Y184563D01*
X423672Y184617D01*
X423643Y184659D01*
X423614Y184696D01*
X423589Y184726D01*
X423568Y184746D01*
X423552Y184759D01*
X423548Y184763D01*
X423498Y184796D01*
X423452Y184817D01*
X423406Y184834D01*
X423360Y184846D01*
X423323Y184855D01*
X423294Y184859D01*
X423269D01*
X423202Y184855D01*
X423140Y184842D01*
X423082Y184825D01*
X423032Y184809D01*
X422986Y184788D01*
X422953Y184771D01*
X422932Y184759D01*
X422924Y184755D01*
X422757Y185192D01*
X422849Y185241D01*
X422940Y185279D01*
X423019Y185308D01*
X423094Y185325D01*
X423157Y185337D01*
X423182Y185341D01*
X423202D01*
X423219Y185345D01*
X423244D01*
X423302Y185341D01*
D02*
G37*
G36*
X420952Y182500D02*
X419492D01*
X419359Y182504D01*
X419238Y182508D01*
X419134Y182521D01*
X419084Y182525D01*
X419042Y182533D01*
X419005Y182537D01*
X418972Y182542D01*
X418943Y182550D01*
X418918Y182554D01*
X418897Y182558D01*
X418884D01*
X418876Y182562D01*
X418872D01*
X418780Y182587D01*
X418697Y182616D01*
X418626Y182650D01*
X418568Y182679D01*
X418518Y182708D01*
X418481Y182729D01*
X418460Y182745D01*
X418452Y182750D01*
X418389Y182804D01*
X418335Y182862D01*
X418285Y182920D01*
X418248Y182978D01*
X418215Y183028D01*
X418190Y183070D01*
X418181Y183087D01*
X418173Y183099D01*
X418169Y183103D01*
Y183107D01*
X418131Y183195D01*
X418102Y183286D01*
X418081Y183369D01*
X418065Y183449D01*
X418056Y183515D01*
Y183540D01*
X418052Y183565D01*
Y183586D01*
Y183598D01*
Y183607D01*
Y183611D01*
Y183673D01*
X418061Y183731D01*
X418081Y183844D01*
X418115Y183943D01*
X418148Y184027D01*
X418165Y184064D01*
X418181Y184097D01*
X418198Y184127D01*
X418215Y184151D01*
X418227Y184168D01*
X418235Y184181D01*
X418239Y184189D01*
X418244Y184193D01*
X418319Y184281D01*
X418406Y184351D01*
X418493Y184414D01*
X418581Y184459D01*
X418655Y184497D01*
X418689Y184509D01*
X418718Y184522D01*
X418743Y184530D01*
X418759Y184538D01*
X418772Y184543D01*
X418776D01*
X418680Y184597D01*
X418601Y184655D01*
X418531Y184713D01*
X418477Y184767D01*
X418431Y184817D01*
X418402Y184855D01*
X418389Y184871D01*
X418381Y184884D01*
X418377Y184888D01*
Y184892D01*
X418331Y184975D01*
X418298Y185054D01*
X418273Y185133D01*
X418256Y185204D01*
X418248Y185266D01*
X418239Y185312D01*
Y185329D01*
Y185341D01*
Y185350D01*
Y185354D01*
X418248Y185454D01*
X418264Y185545D01*
X418289Y185633D01*
X418314Y185707D01*
X418343Y185770D01*
X418356Y185799D01*
X418368Y185820D01*
X418381Y185836D01*
X418385Y185849D01*
X418393Y185857D01*
Y185861D01*
X418456Y185944D01*
X418522Y186019D01*
X418589Y186082D01*
X418655Y186132D01*
X418718Y186169D01*
X418764Y186198D01*
X418785Y186207D01*
X418797Y186215D01*
X418805Y186219D01*
X418809D01*
X418918Y186261D01*
X419030Y186290D01*
X419151Y186311D01*
X419259Y186323D01*
X419313Y186331D01*
X419359Y186336D01*
X419404D01*
X419442Y186340D01*
X420952D01*
Y182500D01*
D02*
G37*
G36*
X410485Y185341D02*
X410543Y185329D01*
X410593Y185316D01*
X410639Y185300D01*
X410673Y185279D01*
X410702Y185266D01*
X410718Y185254D01*
X410727Y185250D01*
X410751Y185229D01*
X410781Y185204D01*
X410831Y185150D01*
X410881Y185083D01*
X410926Y185017D01*
X410968Y184959D01*
X410997Y184905D01*
X411009Y184888D01*
X411018Y184871D01*
X411026Y184863D01*
Y185283D01*
X411450D01*
Y182500D01*
X410980D01*
Y183956D01*
X410976Y184064D01*
X410968Y184168D01*
X410955Y184260D01*
X410943Y184343D01*
X410930Y184409D01*
X410922Y184439D01*
X410918Y184464D01*
X410914Y184480D01*
X410910Y184493D01*
X410905Y184501D01*
Y184505D01*
X410881Y184563D01*
X410855Y184617D01*
X410826Y184659D01*
X410797Y184696D01*
X410772Y184726D01*
X410751Y184746D01*
X410735Y184759D01*
X410731Y184763D01*
X410681Y184796D01*
X410635Y184817D01*
X410589Y184834D01*
X410543Y184846D01*
X410506Y184855D01*
X410477Y184859D01*
X410452D01*
X410385Y184855D01*
X410323Y184842D01*
X410265Y184825D01*
X410215Y184809D01*
X410169Y184788D01*
X410136Y184771D01*
X410115Y184759D01*
X410107Y184755D01*
X409940Y185192D01*
X410032Y185241D01*
X410123Y185279D01*
X410202Y185308D01*
X410277Y185325D01*
X410340Y185337D01*
X410365Y185341D01*
X410385D01*
X410402Y185345D01*
X410427D01*
X410485Y185341D01*
D02*
G37*
G36*
X405123Y182500D02*
X404615D01*
Y184206D01*
X403962D01*
X403904Y184201D01*
X403854Y184197D01*
X403813D01*
X403784Y184193D01*
X403763Y184189D01*
X403750Y184185D01*
X403746D01*
X403700Y184172D01*
X403659Y184156D01*
X403621Y184139D01*
X403584Y184122D01*
X403555Y184106D01*
X403534Y184093D01*
X403517Y184085D01*
X403513Y184081D01*
X403472Y184052D01*
X403426Y184010D01*
X403380Y183968D01*
X403343Y183927D01*
X403305Y183889D01*
X403280Y183856D01*
X403264Y183835D01*
X403255Y183831D01*
Y183827D01*
X403197Y183752D01*
X403135Y183669D01*
X403076Y183582D01*
X403018Y183494D01*
X402968Y183419D01*
X402943Y183386D01*
X402927Y183357D01*
X402910Y183332D01*
X402897Y183315D01*
X402893Y183303D01*
X402889Y183299D01*
X402382Y182500D01*
X401745D01*
X402411Y183544D01*
X402486Y183652D01*
X402561Y183752D01*
X402631Y183839D01*
X402694Y183914D01*
X402748Y183973D01*
X402773Y183998D01*
X402793Y184018D01*
X402810Y184035D01*
X402823Y184047D01*
X402827Y184052D01*
X402831Y184056D01*
X402873Y184089D01*
X402922Y184127D01*
X402972Y184156D01*
X403022Y184185D01*
X403068Y184210D01*
X403105Y184231D01*
X403130Y184243D01*
X403135Y184247D01*
X403139D01*
X403039Y184264D01*
X402943Y184285D01*
X402856Y184310D01*
X402777Y184335D01*
X402702Y184364D01*
X402635Y184393D01*
X402577Y184422D01*
X402523Y184451D01*
X402473Y184480D01*
X402431Y184509D01*
X402398Y184534D01*
X402369Y184555D01*
X402348Y184576D01*
X402332Y184588D01*
X402323Y184597D01*
X402319Y184601D01*
X402273Y184655D01*
X402232Y184709D01*
X402194Y184767D01*
X402165Y184825D01*
X402140Y184884D01*
X402119Y184942D01*
X402086Y185050D01*
X402074Y185100D01*
X402065Y185146D01*
X402061Y185187D01*
X402057Y185225D01*
X402053Y185250D01*
Y185275D01*
Y185287D01*
Y185291D01*
X402061Y185408D01*
X402078Y185516D01*
X402103Y185612D01*
X402132Y185699D01*
X402149Y185737D01*
X402165Y185770D01*
X402178Y185799D01*
X402190Y185824D01*
X402199Y185845D01*
X402207Y185857D01*
X402215Y185865D01*
Y185870D01*
X402278Y185961D01*
X402348Y186036D01*
X402419Y186103D01*
X402490Y186153D01*
X402548Y186190D01*
X402598Y186215D01*
X402619Y186223D01*
X402631Y186232D01*
X402639Y186236D01*
X402644D01*
X402698Y186252D01*
X402752Y186269D01*
X402877Y186294D01*
X403006Y186315D01*
X403130Y186327D01*
X403193Y186331D01*
X403247Y186336D01*
X403293D01*
X403338Y186340D01*
X405123D01*
Y182500D01*
D02*
G37*
G36*
X447468Y186402D02*
X447601Y186385D01*
X447717Y186365D01*
X447771Y186352D01*
X447821Y186340D01*
X447867Y186327D01*
X447909Y186315D01*
X447946Y186302D01*
X447975Y186294D01*
X447996Y186286D01*
X448017Y186277D01*
X448025Y186273D01*
X448029D01*
X448142Y186219D01*
X448237Y186157D01*
X448320Y186094D01*
X448387Y186032D01*
X448441Y185974D01*
X448483Y185928D01*
X448495Y185911D01*
X448503Y185899D01*
X448512Y185890D01*
Y185886D01*
X448566Y185791D01*
X448607Y185695D01*
X448632Y185608D01*
X448653Y185524D01*
X448666Y185449D01*
X448670Y185420D01*
Y185395D01*
X448674Y185375D01*
Y185358D01*
Y185350D01*
Y185345D01*
X448670Y185250D01*
X448653Y185158D01*
X448632Y185075D01*
X448607Y185004D01*
X448583Y184946D01*
X448562Y184900D01*
X448553Y184884D01*
X448545Y184871D01*
X448541Y184867D01*
Y184863D01*
X448487Y184788D01*
X448420Y184717D01*
X448354Y184659D01*
X448283Y184605D01*
X448225Y184563D01*
X448175Y184534D01*
X448154Y184526D01*
X448142Y184518D01*
X448133Y184509D01*
X448129D01*
X448088Y184488D01*
X448038Y184468D01*
X447984Y184447D01*
X447925Y184426D01*
X447805Y184385D01*
X447680Y184347D01*
X447622Y184330D01*
X447572Y184314D01*
X447522Y184301D01*
X447476Y184289D01*
X447443Y184281D01*
X447414Y184272D01*
X447397Y184268D01*
X447393D01*
X447297Y184247D01*
X447210Y184222D01*
X447135Y184206D01*
X447064Y184185D01*
X447002Y184168D01*
X446944Y184156D01*
X446898Y184139D01*
X446852Y184127D01*
X446819Y184118D01*
X446785Y184106D01*
X446761Y184097D01*
X446744Y184093D01*
X446727Y184089D01*
X446719Y184085D01*
X446711Y184081D01*
X446627Y184043D01*
X446557Y184006D01*
X446494Y183968D01*
X446449Y183935D01*
X446411Y183902D01*
X446386Y183877D01*
X446369Y183860D01*
X446365Y183856D01*
X446328Y183806D01*
X446303Y183752D01*
X446282Y183698D01*
X446270Y183648D01*
X446261Y183607D01*
X446257Y183569D01*
Y183548D01*
Y183544D01*
Y183540D01*
X446261Y183478D01*
X446274Y183415D01*
X446295Y183361D01*
X446311Y183311D01*
X446332Y183270D01*
X446353Y183236D01*
X446365Y183220D01*
X446369Y183211D01*
X446415Y183157D01*
X446465Y183112D01*
X446523Y183070D01*
X446577Y183037D01*
X446627Y183012D01*
X446665Y182991D01*
X446681Y182983D01*
X446694Y182978D01*
X446698Y182974D01*
X446702D01*
X446785Y182945D01*
X446873Y182924D01*
X446960Y182912D01*
X447039Y182904D01*
X447106Y182895D01*
X447135D01*
X447160Y182891D01*
X447210D01*
X447330Y182895D01*
X447439Y182908D01*
X447543Y182929D01*
X447630Y182949D01*
X447667Y182958D01*
X447701Y182966D01*
X447730Y182978D01*
X447755Y182987D01*
X447776Y182995D01*
X447788Y182999D01*
X447796Y183003D01*
X447800D01*
X447892Y183049D01*
X447971Y183099D01*
X448038Y183145D01*
X448092Y183195D01*
X448133Y183236D01*
X448162Y183270D01*
X448183Y183290D01*
X448187Y183299D01*
X448229Y183374D01*
X448262Y183453D01*
X448287Y183532D01*
X448308Y183607D01*
X448325Y183677D01*
X448329Y183702D01*
X448333Y183727D01*
X448337Y183748D01*
X448341Y183765D01*
Y183773D01*
Y183777D01*
X448820Y183736D01*
X448815Y183665D01*
X448807Y183594D01*
X448782Y183465D01*
X448749Y183344D01*
X448732Y183290D01*
X448711Y183245D01*
X448695Y183199D01*
X448674Y183157D01*
X448657Y183124D01*
X448641Y183095D01*
X448628Y183070D01*
X448620Y183053D01*
X448616Y183045D01*
X448612Y183041D01*
X448533Y182933D01*
X448441Y182841D01*
X448350Y182762D01*
X448262Y182700D01*
X448183Y182650D01*
X448150Y182633D01*
X448121Y182616D01*
X448096Y182604D01*
X448079Y182596D01*
X448067Y182587D01*
X448063D01*
X447921Y182537D01*
X447776Y182500D01*
X447630Y182475D01*
X447493Y182458D01*
X447426Y182450D01*
X447368Y182446D01*
X447318Y182442D01*
X447272D01*
X447235Y182438D01*
X447185D01*
X447035Y182446D01*
X446898Y182463D01*
X446773Y182483D01*
X446715Y182500D01*
X446665Y182512D01*
X446615Y182525D01*
X446573Y182542D01*
X446536Y182554D01*
X446507Y182562D01*
X446482Y182575D01*
X446465Y182579D01*
X446453Y182587D01*
X446449D01*
X446332Y182650D01*
X446232Y182716D01*
X446145Y182787D01*
X446074Y182854D01*
X446016Y182916D01*
X445978Y182962D01*
X445962Y182983D01*
X445953Y182995D01*
X445945Y183003D01*
Y183008D01*
X445912Y183057D01*
X445887Y183112D01*
X445841Y183211D01*
X445808Y183307D01*
X445787Y183394D01*
X445775Y183473D01*
X445770Y183503D01*
Y183532D01*
X445766Y183553D01*
Y183569D01*
Y183577D01*
Y183582D01*
X445775Y183694D01*
X445791Y183798D01*
X445816Y183889D01*
X445845Y183968D01*
X445879Y184035D01*
X445891Y184064D01*
X445903Y184085D01*
X445912Y184102D01*
X445920Y184114D01*
X445928Y184122D01*
Y184127D01*
X445962Y184168D01*
X445995Y184210D01*
X446074Y184289D01*
X446153Y184355D01*
X446236Y184409D01*
X446307Y184455D01*
X446340Y184476D01*
X446369Y184488D01*
X446390Y184501D01*
X446407Y184509D01*
X446419Y184518D01*
X446423D01*
X446469Y184538D01*
X446527Y184559D01*
X446586Y184580D01*
X446652Y184601D01*
X446794Y184638D01*
X446935Y184676D01*
X447002Y184696D01*
X447064Y184709D01*
X447122Y184726D01*
X447172Y184734D01*
X447214Y184746D01*
X447243Y184755D01*
X447264Y184759D01*
X447272D01*
X447385Y184784D01*
X447484Y184813D01*
X447572Y184838D01*
X447655Y184863D01*
X447726Y184888D01*
X447788Y184909D01*
X447842Y184929D01*
X447888Y184950D01*
X447925Y184971D01*
X447959Y184988D01*
X447984Y185000D01*
X448004Y185013D01*
X448021Y185025D01*
X448029Y185033D01*
X448038Y185038D01*
X448088Y185092D01*
X448121Y185146D01*
X448146Y185204D01*
X448167Y185258D01*
X448175Y185304D01*
X448179Y185341D01*
X448183Y185366D01*
Y185370D01*
Y185375D01*
X448179Y185420D01*
X448175Y185462D01*
X448150Y185537D01*
X448117Y185608D01*
X448079Y185666D01*
X448042Y185716D01*
X448008Y185753D01*
X447984Y185774D01*
X447979Y185782D01*
X447975D01*
X447934Y185811D01*
X447884Y185840D01*
X447780Y185882D01*
X447672Y185911D01*
X447559Y185932D01*
X447509Y185940D01*
X447459Y185944D01*
X447418Y185949D01*
X447380D01*
X447347Y185953D01*
X447226D01*
X447152Y185944D01*
X447081Y185936D01*
X447014Y185924D01*
X446956Y185911D01*
X446902Y185895D01*
X446852Y185878D01*
X446806Y185861D01*
X446769Y185840D01*
X446735Y185824D01*
X446706Y185807D01*
X446681Y185795D01*
X446665Y185782D01*
X446648Y185774D01*
X446644Y185770D01*
X446640Y185766D01*
X446598Y185728D01*
X446561Y185691D01*
X446503Y185603D01*
X446453Y185512D01*
X446419Y185424D01*
X446394Y185345D01*
X446386Y185312D01*
X446378Y185279D01*
X446374Y185254D01*
Y185237D01*
X446369Y185225D01*
Y185221D01*
X445883Y185258D01*
X445895Y185383D01*
X445920Y185495D01*
X445949Y185599D01*
X445983Y185687D01*
X446003Y185724D01*
X446016Y185761D01*
X446032Y185791D01*
X446045Y185816D01*
X446057Y185836D01*
X446066Y185849D01*
X446070Y185857D01*
X446074Y185861D01*
X446145Y185957D01*
X446224Y186036D01*
X446307Y186107D01*
X446390Y186165D01*
X446461Y186207D01*
X446494Y186223D01*
X446519Y186240D01*
X446540Y186252D01*
X446561Y186257D01*
X446569Y186265D01*
X446573D01*
X446698Y186311D01*
X446827Y186348D01*
X446956Y186373D01*
X447073Y186390D01*
X447127Y186394D01*
X447172Y186398D01*
X447218Y186402D01*
X447256Y186406D01*
X447326D01*
X447468Y186402D01*
D02*
G37*
G36*
X433070Y185341D02*
X433161Y185333D01*
X433245Y185316D01*
X433328Y185295D01*
X433407Y185275D01*
X433478Y185246D01*
X433544Y185221D01*
X433602Y185192D01*
X433661Y185162D01*
X433706Y185133D01*
X433748Y185104D01*
X433785Y185083D01*
X433810Y185063D01*
X433831Y185046D01*
X433844Y185038D01*
X433848Y185033D01*
X433923Y184959D01*
X433989Y184880D01*
X434048Y184792D01*
X434097Y184701D01*
X434135Y184605D01*
X434172Y184509D01*
X434201Y184414D01*
X434222Y184322D01*
X434239Y184235D01*
X434256Y184156D01*
X434264Y184081D01*
X434268Y184014D01*
X434272Y183964D01*
X434276Y183923D01*
Y183898D01*
Y183894D01*
Y183889D01*
X434272Y183760D01*
X434260Y183640D01*
X434243Y183528D01*
X434222Y183423D01*
X434193Y183328D01*
X434164Y183240D01*
X434131Y183161D01*
X434097Y183087D01*
X434064Y183024D01*
X434031Y182966D01*
X434002Y182920D01*
X433973Y182883D01*
X433952Y182849D01*
X433935Y182829D01*
X433923Y182816D01*
X433919Y182812D01*
X433848Y182745D01*
X433773Y182687D01*
X433698Y182637D01*
X433619Y182596D01*
X433540Y182558D01*
X433461Y182529D01*
X433386Y182504D01*
X433311Y182483D01*
X433241Y182471D01*
X433178Y182458D01*
X433120Y182450D01*
X433070Y182442D01*
X433028D01*
X432999Y182438D01*
X432974D01*
X432841Y182446D01*
X432716Y182463D01*
X432604Y182492D01*
X432550Y182504D01*
X432504Y182521D01*
X432458Y182537D01*
X432421Y182550D01*
X432388Y182567D01*
X432359Y182579D01*
X432334Y182587D01*
X432317Y182596D01*
X432309Y182604D01*
X432304D01*
X432196Y182675D01*
X432101Y182750D01*
X432022Y182829D01*
X431955Y182908D01*
X431901Y182974D01*
X431880Y183008D01*
X431863Y183033D01*
X431851Y183053D01*
X431843Y183070D01*
X431834Y183078D01*
Y183082D01*
X431805Y183145D01*
X431780Y183207D01*
X431739Y183344D01*
X431710Y183486D01*
X431693Y183619D01*
X431685Y183681D01*
X431680Y183740D01*
X431676Y183794D01*
Y183839D01*
X431672Y183877D01*
Y183902D01*
Y183923D01*
Y183927D01*
X431676Y184047D01*
X431689Y184164D01*
X431705Y184272D01*
X431730Y184372D01*
X431755Y184464D01*
X431789Y184547D01*
X431822Y184626D01*
X431855Y184696D01*
X431888Y184759D01*
X431922Y184813D01*
X431955Y184859D01*
X431980Y184896D01*
X432005Y184929D01*
X432022Y184950D01*
X432034Y184963D01*
X432038Y184967D01*
X432109Y185033D01*
X432184Y185092D01*
X432259Y185142D01*
X432338Y185187D01*
X432417Y185221D01*
X432492Y185254D01*
X432571Y185279D01*
X432641Y185300D01*
X432712Y185312D01*
X432775Y185325D01*
X432829Y185333D01*
X432879Y185341D01*
X432920D01*
X432949Y185345D01*
X432974D01*
X433070Y185341D01*
D02*
G37*
G36*
X416380D02*
X416471Y185333D01*
X416555Y185316D01*
X416638Y185295D01*
X416717Y185275D01*
X416788Y185246D01*
X416854Y185221D01*
X416913Y185192D01*
X416971Y185162D01*
X417017Y185133D01*
X417058Y185104D01*
X417096Y185083D01*
X417121Y185063D01*
X417141Y185046D01*
X417154Y185038D01*
X417158Y185033D01*
X417233Y184959D01*
X417299Y184880D01*
X417358Y184792D01*
X417408Y184701D01*
X417445Y184605D01*
X417482Y184509D01*
X417512Y184414D01*
X417532Y184322D01*
X417549Y184235D01*
X417566Y184156D01*
X417574Y184081D01*
X417578Y184014D01*
X417582Y183964D01*
X417586Y183923D01*
Y183898D01*
Y183894D01*
Y183889D01*
X417582Y183760D01*
X417570Y183640D01*
X417553Y183528D01*
X417532Y183423D01*
X417503Y183328D01*
X417474Y183240D01*
X417441Y183161D01*
X417408Y183087D01*
X417374Y183024D01*
X417341Y182966D01*
X417312Y182920D01*
X417283Y182883D01*
X417262Y182849D01*
X417245Y182829D01*
X417233Y182816D01*
X417229Y182812D01*
X417158Y182745D01*
X417083Y182687D01*
X417008Y182637D01*
X416929Y182596D01*
X416850Y182558D01*
X416771Y182529D01*
X416696Y182504D01*
X416621Y182483D01*
X416551Y182471D01*
X416488Y182458D01*
X416430Y182450D01*
X416380Y182442D01*
X416338D01*
X416309Y182438D01*
X416284D01*
X416151Y182446D01*
X416026Y182463D01*
X415914Y182492D01*
X415860Y182504D01*
X415814Y182521D01*
X415768Y182537D01*
X415731Y182550D01*
X415698Y182567D01*
X415669Y182579D01*
X415644Y182587D01*
X415627Y182596D01*
X415619Y182604D01*
X415615D01*
X415506Y182675D01*
X415411Y182750D01*
X415332Y182829D01*
X415265Y182908D01*
X415211Y182974D01*
X415190Y183008D01*
X415174Y183033D01*
X415161Y183053D01*
X415153Y183070D01*
X415144Y183078D01*
Y183082D01*
X415115Y183145D01*
X415090Y183207D01*
X415049Y183344D01*
X415020Y183486D01*
X415003Y183619D01*
X414995Y183681D01*
X414991Y183740D01*
X414986Y183794D01*
Y183839D01*
X414982Y183877D01*
Y183902D01*
Y183923D01*
Y183927D01*
X414986Y184047D01*
X414999Y184164D01*
X415016Y184272D01*
X415040Y184372D01*
X415065Y184464D01*
X415099Y184547D01*
X415132Y184626D01*
X415165Y184696D01*
X415199Y184759D01*
X415232Y184813D01*
X415265Y184859D01*
X415290Y184896D01*
X415315Y184929D01*
X415332Y184950D01*
X415344Y184963D01*
X415348Y184967D01*
X415419Y185033D01*
X415494Y185092D01*
X415569Y185142D01*
X415648Y185187D01*
X415727Y185221D01*
X415802Y185254D01*
X415881Y185279D01*
X415951Y185300D01*
X416022Y185312D01*
X416085Y185325D01*
X416139Y185333D01*
X416189Y185341D01*
X416230D01*
X416259Y185345D01*
X416284D01*
X416380Y185341D01*
D02*
G37*
G36*
X407894Y184959D02*
X407943Y185021D01*
X407998Y185075D01*
X408052Y185121D01*
X408102Y185162D01*
X408147Y185196D01*
X408181Y185216D01*
X408206Y185233D01*
X408210Y185237D01*
X408214D01*
X408289Y185275D01*
X408368Y185300D01*
X408443Y185320D01*
X408513Y185333D01*
X408572Y185341D01*
X408622Y185345D01*
X408726D01*
X408788Y185337D01*
X408905Y185316D01*
X409009Y185287D01*
X409100Y185254D01*
X409142Y185237D01*
X409175Y185221D01*
X409208Y185204D01*
X409233Y185192D01*
X409254Y185179D01*
X409271Y185171D01*
X409279Y185167D01*
X409283Y185162D01*
X409383Y185088D01*
X409466Y185004D01*
X409537Y184921D01*
X409595Y184834D01*
X409641Y184759D01*
X409657Y184726D01*
X409674Y184701D01*
X409682Y184676D01*
X409691Y184659D01*
X409699Y184647D01*
Y184642D01*
X409745Y184513D01*
X409778Y184380D01*
X409803Y184256D01*
X409820Y184139D01*
X409824Y184085D01*
X409828Y184035D01*
X409832Y183993D01*
Y183956D01*
X409836Y183927D01*
Y183906D01*
Y183889D01*
Y183885D01*
X409828Y183731D01*
X409811Y183590D01*
X409803Y183523D01*
X409791Y183461D01*
X409774Y183403D01*
X409761Y183349D01*
X409749Y183303D01*
X409732Y183257D01*
X409720Y183220D01*
X409712Y183191D01*
X409699Y183166D01*
X409695Y183149D01*
X409687Y183136D01*
Y183132D01*
X409624Y183016D01*
X409553Y182912D01*
X409483Y182825D01*
X409412Y182754D01*
X409350Y182695D01*
X409325Y182675D01*
X409300Y182654D01*
X409279Y182641D01*
X409266Y182629D01*
X409258Y182625D01*
X409254Y182621D01*
X409200Y182587D01*
X409146Y182562D01*
X409042Y182517D01*
X408938Y182483D01*
X408842Y182463D01*
X408801Y182454D01*
X408763Y182446D01*
X408730Y182442D01*
X408701D01*
X408676Y182438D01*
X408642D01*
X408547Y182442D01*
X408459Y182454D01*
X408380Y182475D01*
X408301Y182504D01*
X408231Y182533D01*
X408168Y182567D01*
X408110Y182604D01*
X408056Y182646D01*
X408010Y182683D01*
X407973Y182720D01*
X407939Y182754D01*
X407910Y182787D01*
X407889Y182812D01*
X407873Y182833D01*
X407865Y182845D01*
X407860Y182849D01*
Y182500D01*
X407423D01*
Y186340D01*
X407894D01*
Y184959D01*
D02*
G37*
%LPC*%
G36*
X421193Y191959D02*
X421164D01*
X421106Y191954D01*
X421052Y191946D01*
X421002Y191934D01*
X420952Y191917D01*
X420864Y191875D01*
X420785Y191830D01*
X420723Y191780D01*
X420698Y191759D01*
X420677Y191738D01*
X420661Y191721D01*
X420648Y191709D01*
X420644Y191701D01*
X420640Y191697D01*
X420602Y191647D01*
X420569Y191588D01*
X420540Y191526D01*
X420515Y191463D01*
X420478Y191330D01*
X420448Y191197D01*
X420440Y191139D01*
X420436Y191081D01*
X420432Y191027D01*
X420428Y190981D01*
X420424Y190948D01*
Y190919D01*
Y190902D01*
Y190894D01*
X420428Y190798D01*
X420432Y190706D01*
X420444Y190623D01*
X420461Y190544D01*
X420478Y190473D01*
X420494Y190407D01*
X420515Y190345D01*
X420536Y190295D01*
X420561Y190245D01*
X420582Y190203D01*
X420598Y190170D01*
X420615Y190141D01*
X420632Y190120D01*
X420644Y190103D01*
X420648Y190095D01*
X420652Y190091D01*
X420694Y190045D01*
X420740Y190003D01*
X420785Y189966D01*
X420831Y189937D01*
X420877Y189912D01*
X420919Y189891D01*
X421002Y189858D01*
X421077Y189837D01*
X421106Y189833D01*
X421135Y189829D01*
X421156Y189824D01*
X421185D01*
X421255Y189829D01*
X421318Y189841D01*
X421380Y189858D01*
X421439Y189883D01*
X421493Y189908D01*
X421543Y189941D01*
X421588Y189970D01*
X421630Y190007D01*
X421663Y190041D01*
X421697Y190074D01*
X421726Y190103D01*
X421746Y190128D01*
X421763Y190153D01*
X421775Y190170D01*
X421784Y190182D01*
X421788Y190186D01*
X421813Y190232D01*
X421834Y190282D01*
X421850Y190336D01*
X421863Y190394D01*
X421888Y190515D01*
X421905Y190631D01*
X421909Y190690D01*
X421913Y190740D01*
X421917Y190790D01*
Y190827D01*
X421921Y190865D01*
Y190889D01*
Y190906D01*
Y190910D01*
X421917Y191002D01*
X421913Y191089D01*
X421900Y191172D01*
X421888Y191247D01*
X421867Y191314D01*
X421850Y191380D01*
X421830Y191439D01*
X421809Y191489D01*
X421788Y191534D01*
X421767Y191576D01*
X421746Y191609D01*
X421730Y191638D01*
X421717Y191659D01*
X421705Y191676D01*
X421701Y191684D01*
X421697Y191688D01*
X421655Y191734D01*
X421609Y191776D01*
X421563Y191813D01*
X421518Y191846D01*
X421472Y191871D01*
X421430Y191892D01*
X421347Y191925D01*
X421272Y191946D01*
X421243Y191950D01*
X421214Y191954D01*
X421193Y191959D01*
D02*
G37*
G36*
X408667D02*
X408638D01*
X408580Y191954D01*
X408526Y191946D01*
X408476Y191934D01*
X408426Y191917D01*
X408339Y191875D01*
X408260Y191830D01*
X408197Y191780D01*
X408172Y191759D01*
X408151Y191738D01*
X408135Y191721D01*
X408122Y191709D01*
X408118Y191701D01*
X408114Y191697D01*
X408077Y191647D01*
X408043Y191588D01*
X408014Y191526D01*
X407989Y191463D01*
X407952Y191330D01*
X407923Y191197D01*
X407914Y191139D01*
X407910Y191081D01*
X407906Y191027D01*
X407902Y190981D01*
X407898Y190948D01*
Y190919D01*
Y190902D01*
Y190894D01*
X407902Y190798D01*
X407906Y190706D01*
X407919Y190623D01*
X407935Y190544D01*
X407952Y190473D01*
X407969Y190407D01*
X407989Y190345D01*
X408010Y190295D01*
X408035Y190245D01*
X408056Y190203D01*
X408073Y190170D01*
X408089Y190141D01*
X408106Y190120D01*
X408118Y190103D01*
X408122Y190095D01*
X408127Y190091D01*
X408168Y190045D01*
X408214Y190003D01*
X408260Y189966D01*
X408305Y189937D01*
X408351Y189912D01*
X408393Y189891D01*
X408476Y189858D01*
X408551Y189837D01*
X408580Y189833D01*
X408609Y189829D01*
X408630Y189824D01*
X408659D01*
X408730Y189829D01*
X408792Y189841D01*
X408855Y189858D01*
X408913Y189883D01*
X408967Y189908D01*
X409017Y189941D01*
X409063Y189970D01*
X409104Y190007D01*
X409137Y190041D01*
X409171Y190074D01*
X409200Y190103D01*
X409221Y190128D01*
X409237Y190153D01*
X409250Y190170D01*
X409258Y190182D01*
X409262Y190186D01*
X409287Y190232D01*
X409308Y190282D01*
X409325Y190336D01*
X409337Y190394D01*
X409362Y190515D01*
X409379Y190631D01*
X409383Y190690D01*
X409387Y190740D01*
X409391Y190790D01*
Y190827D01*
X409395Y190865D01*
Y190889D01*
Y190906D01*
Y190910D01*
X409391Y191002D01*
X409387Y191089D01*
X409375Y191172D01*
X409362Y191247D01*
X409341Y191314D01*
X409325Y191380D01*
X409304Y191439D01*
X409283Y191489D01*
X409262Y191534D01*
X409241Y191576D01*
X409221Y191609D01*
X409204Y191638D01*
X409192Y191659D01*
X409179Y191676D01*
X409175Y191684D01*
X409171Y191688D01*
X409129Y191734D01*
X409083Y191776D01*
X409038Y191813D01*
X408992Y191846D01*
X408946Y191871D01*
X408905Y191892D01*
X408821Y191925D01*
X408746Y191946D01*
X408717Y191950D01*
X408688Y191954D01*
X408667Y191959D01*
D02*
G37*
G36*
X434355D02*
X434322D01*
X434256Y191954D01*
X434193Y191946D01*
X434135Y191934D01*
X434081Y191917D01*
X433981Y191871D01*
X433935Y191846D01*
X433894Y191821D01*
X433860Y191796D01*
X433827Y191771D01*
X433798Y191746D01*
X433777Y191726D01*
X433760Y191709D01*
X433744Y191697D01*
X433740Y191688D01*
X433736Y191684D01*
X433686Y191613D01*
X433644Y191530D01*
X433615Y191443D01*
X433590Y191355D01*
X433573Y191280D01*
X433569Y191247D01*
X433565Y191218D01*
X433561Y191193D01*
X433557Y191176D01*
Y191164D01*
Y191160D01*
X435112D01*
X435104Y191226D01*
X435096Y191289D01*
X435067Y191401D01*
X435025Y191501D01*
X435004Y191547D01*
X434983Y191584D01*
X434963Y191622D01*
X434942Y191651D01*
X434921Y191676D01*
X434904Y191701D01*
X434892Y191717D01*
X434879Y191730D01*
X434875Y191734D01*
X434871Y191738D01*
X434830Y191776D01*
X434784Y191813D01*
X434738Y191842D01*
X434692Y191867D01*
X434597Y191904D01*
X434513Y191929D01*
X434434Y191946D01*
X434405Y191950D01*
X434376Y191954D01*
X434355Y191959D01*
D02*
G37*
G36*
X448632Y192886D02*
X447792D01*
X447721Y192882D01*
X447659D01*
X447601Y192878D01*
X447547Y192874D01*
X447501Y192870D01*
X447455Y192865D01*
X447418Y192861D01*
X447389Y192853D01*
X447360Y192849D01*
X447335Y192845D01*
X447318Y192841D01*
X447301Y192836D01*
X447293D01*
X447285Y192832D01*
X447222Y192807D01*
X447172Y192778D01*
X447127Y192745D01*
X447089Y192711D01*
X447060Y192682D01*
X447039Y192657D01*
X447027Y192641D01*
X447023Y192632D01*
X446989Y192578D01*
X446969Y192520D01*
X446952Y192462D01*
X446939Y192408D01*
X446931Y192362D01*
X446927Y192329D01*
Y192304D01*
Y192300D01*
Y192296D01*
X446931Y192221D01*
X446944Y192158D01*
X446960Y192100D01*
X446977Y192050D01*
X446993Y192013D01*
X447010Y191983D01*
X447023Y191967D01*
X447027Y191959D01*
X447068Y191913D01*
X447114Y191871D01*
X447164Y191838D01*
X447210Y191813D01*
X447251Y191792D01*
X447285Y191780D01*
X447310Y191771D01*
X447314Y191767D01*
X447318D01*
X447347Y191759D01*
X447380Y191755D01*
X447455Y191742D01*
X447538Y191734D01*
X447617Y191730D01*
X447688D01*
X447721Y191726D01*
X448632D01*
Y192886D01*
D02*
G37*
G36*
Y191272D02*
X447746D01*
X447617Y191268D01*
X447505Y191264D01*
X447455Y191255D01*
X447409Y191251D01*
X447368Y191247D01*
X447326Y191239D01*
X447293Y191235D01*
X447264Y191226D01*
X447243Y191222D01*
X447222Y191218D01*
X447206Y191214D01*
X447193Y191210D01*
X447189Y191206D01*
X447185D01*
X447114Y191176D01*
X447056Y191143D01*
X447002Y191110D01*
X446956Y191072D01*
X446923Y191039D01*
X446898Y191010D01*
X446881Y190993D01*
X446877Y190985D01*
X446840Y190923D01*
X446810Y190860D01*
X446794Y190798D01*
X446777Y190740D01*
X446769Y190686D01*
X446765Y190648D01*
Y190631D01*
Y190619D01*
Y190615D01*
Y190611D01*
X446769Y190544D01*
X446777Y190482D01*
X446790Y190428D01*
X446802Y190382D01*
X446819Y190340D01*
X446831Y190311D01*
X446840Y190295D01*
X446844Y190286D01*
X446873Y190236D01*
X446906Y190195D01*
X446939Y190157D01*
X446969Y190128D01*
X446998Y190103D01*
X447018Y190087D01*
X447035Y190078D01*
X447039Y190074D01*
X447085Y190049D01*
X447135Y190028D01*
X447181Y190007D01*
X447226Y189995D01*
X447268Y189983D01*
X447301Y189974D01*
X447322Y189970D01*
X447330D01*
X447372Y189966D01*
X447426Y189962D01*
X447484Y189958D01*
X447538D01*
X447592Y189953D01*
X448632D01*
Y191272D01*
D02*
G37*
G36*
X428631Y192915D02*
X427337D01*
X427267Y192907D01*
X427200Y192899D01*
X427138Y192886D01*
X427084Y192874D01*
X427034Y192857D01*
X426988Y192845D01*
X426946Y192828D01*
X426909Y192811D01*
X426880Y192795D01*
X426851Y192778D01*
X426830Y192766D01*
X426813Y192753D01*
X426801Y192745D01*
X426797Y192741D01*
X426792Y192736D01*
X426759Y192703D01*
X426726Y192666D01*
X426676Y192595D01*
X426643Y192520D01*
X426618Y192449D01*
X426601Y192387D01*
X426597Y192358D01*
Y192337D01*
X426593Y192316D01*
Y192304D01*
Y192296D01*
Y192291D01*
X426597Y192225D01*
X426609Y192158D01*
X426626Y192100D01*
X426643Y192050D01*
X426663Y192004D01*
X426680Y191975D01*
X426693Y191954D01*
X426697Y191946D01*
X426738Y191892D01*
X426788Y191842D01*
X426838Y191805D01*
X426884Y191771D01*
X426930Y191746D01*
X426963Y191730D01*
X426988Y191721D01*
X426992Y191717D01*
X426996D01*
X427075Y191692D01*
X427163Y191676D01*
X427254Y191663D01*
X427342Y191655D01*
X427421Y191651D01*
X427454D01*
X427483Y191647D01*
X428631D01*
Y192915D01*
D02*
G37*
G36*
X444506Y191954D02*
X444473D01*
X444410Y191950D01*
X444348Y191942D01*
X444289Y191929D01*
X444235Y191913D01*
X444136Y191871D01*
X444048Y191821D01*
X444015Y191796D01*
X443982Y191771D01*
X443957Y191751D01*
X443932Y191730D01*
X443915Y191713D01*
X443903Y191701D01*
X443894Y191692D01*
X443890Y191688D01*
X443849Y191634D01*
X443811Y191580D01*
X443782Y191518D01*
X443753Y191455D01*
X443728Y191389D01*
X443711Y191322D01*
X443682Y191197D01*
X443674Y191139D01*
X443665Y191085D01*
X443661Y191035D01*
X443657Y190989D01*
X443653Y190956D01*
Y190927D01*
Y190910D01*
Y190906D01*
X443657Y190806D01*
X443661Y190715D01*
X443674Y190627D01*
X443690Y190548D01*
X443707Y190473D01*
X443728Y190407D01*
X443749Y190345D01*
X443769Y190295D01*
X443794Y190245D01*
X443815Y190203D01*
X443836Y190170D01*
X443853Y190141D01*
X443869Y190120D01*
X443882Y190103D01*
X443886Y190095D01*
X443890Y190091D01*
X443936Y190045D01*
X443982Y190003D01*
X444031Y189966D01*
X444077Y189937D01*
X444127Y189912D01*
X444177Y189891D01*
X444269Y189858D01*
X444348Y189837D01*
X444385Y189833D01*
X444414Y189829D01*
X444439Y189824D01*
X444473D01*
X444539Y189829D01*
X444597Y189837D01*
X444660Y189849D01*
X444714Y189866D01*
X444814Y189908D01*
X444897Y189958D01*
X444934Y189978D01*
X444968Y190003D01*
X444992Y190024D01*
X445017Y190045D01*
X445034Y190062D01*
X445047Y190074D01*
X445055Y190082D01*
X445059Y190087D01*
X445101Y190141D01*
X445134Y190199D01*
X445167Y190261D01*
X445192Y190324D01*
X445234Y190457D01*
X445263Y190590D01*
X445271Y190648D01*
X445280Y190706D01*
X445284Y190756D01*
X445288Y190802D01*
X445292Y190840D01*
Y190865D01*
Y190885D01*
Y190889D01*
X445288Y190985D01*
X445284Y191077D01*
X445271Y191160D01*
X445255Y191239D01*
X445238Y191310D01*
X445217Y191376D01*
X445196Y191434D01*
X445176Y191489D01*
X445155Y191534D01*
X445134Y191576D01*
X445113Y191609D01*
X445096Y191638D01*
X445080Y191659D01*
X445067Y191676D01*
X445063Y191684D01*
X445059Y191688D01*
X445013Y191734D01*
X444968Y191776D01*
X444918Y191813D01*
X444868Y191842D01*
X444818Y191867D01*
X444772Y191888D01*
X444676Y191921D01*
X444597Y191942D01*
X444560Y191946D01*
X444531Y191950D01*
X444506Y191954D01*
D02*
G37*
G36*
X437430D02*
X437400D01*
X437342Y191950D01*
X437284Y191942D01*
X437230Y191929D01*
X437180Y191913D01*
X437084Y191867D01*
X437005Y191821D01*
X436943Y191771D01*
X436918Y191746D01*
X436893Y191726D01*
X436876Y191709D01*
X436864Y191697D01*
X436860Y191688D01*
X436856Y191684D01*
X436814Y191630D01*
X436781Y191572D01*
X436752Y191509D01*
X436727Y191443D01*
X436685Y191301D01*
X436660Y191168D01*
X436648Y191102D01*
X436643Y191043D01*
X436639Y190989D01*
X436635Y190939D01*
X436631Y190902D01*
Y190873D01*
Y190856D01*
Y190848D01*
X436635Y190752D01*
X436639Y190665D01*
X436652Y190582D01*
X436664Y190507D01*
X436681Y190440D01*
X436702Y190374D01*
X436722Y190315D01*
X436739Y190265D01*
X436760Y190220D01*
X436781Y190182D01*
X436801Y190149D01*
X436818Y190124D01*
X436831Y190099D01*
X436843Y190087D01*
X436847Y190078D01*
X436851Y190074D01*
X436893Y190028D01*
X436935Y189991D01*
X436980Y189958D01*
X437026Y189928D01*
X437068Y189908D01*
X437113Y189887D01*
X437197Y189858D01*
X437267Y189837D01*
X437301Y189833D01*
X437326Y189829D01*
X437351Y189824D01*
X437380D01*
X437438Y189829D01*
X437492Y189837D01*
X437542Y189849D01*
X437592Y189866D01*
X437683Y189908D01*
X437762Y189958D01*
X437825Y190003D01*
X437850Y190024D01*
X437871Y190045D01*
X437887Y190062D01*
X437904Y190074D01*
X437908Y190082D01*
X437912Y190087D01*
X437950Y190141D01*
X437987Y190199D01*
X438016Y190261D01*
X438041Y190324D01*
X438083Y190457D01*
X438108Y190586D01*
X438116Y190648D01*
X438124Y190702D01*
X438129Y190752D01*
X438133Y190798D01*
X438137Y190835D01*
Y190860D01*
Y190881D01*
Y190885D01*
X438133Y190985D01*
X438129Y191081D01*
X438116Y191164D01*
X438103Y191247D01*
X438087Y191318D01*
X438070Y191384D01*
X438054Y191447D01*
X438033Y191497D01*
X438012Y191547D01*
X437995Y191584D01*
X437979Y191622D01*
X437962Y191647D01*
X437950Y191667D01*
X437937Y191684D01*
X437933Y191692D01*
X437929Y191697D01*
X437887Y191742D01*
X437846Y191780D01*
X437800Y191817D01*
X437758Y191846D01*
X437712Y191871D01*
X437667Y191892D01*
X437583Y191921D01*
X437513Y191942D01*
X437479Y191946D01*
X437455Y191950D01*
X437430Y191954D01*
D02*
G37*
G36*
X424238D02*
X424205D01*
X424143Y191950D01*
X424080Y191942D01*
X424022Y191929D01*
X423968Y191913D01*
X423868Y191871D01*
X423781Y191821D01*
X423747Y191796D01*
X423714Y191771D01*
X423689Y191751D01*
X423664Y191730D01*
X423647Y191713D01*
X423635Y191701D01*
X423627Y191692D01*
X423623Y191688D01*
X423581Y191634D01*
X423544Y191580D01*
X423514Y191518D01*
X423485Y191455D01*
X423460Y191389D01*
X423444Y191322D01*
X423415Y191197D01*
X423406Y191139D01*
X423398Y191085D01*
X423394Y191035D01*
X423390Y190989D01*
X423385Y190956D01*
Y190927D01*
Y190910D01*
Y190906D01*
X423390Y190806D01*
X423394Y190715D01*
X423406Y190627D01*
X423423Y190548D01*
X423440Y190473D01*
X423460Y190407D01*
X423481Y190345D01*
X423502Y190295D01*
X423527Y190245D01*
X423548Y190203D01*
X423568Y190170D01*
X423585Y190141D01*
X423602Y190120D01*
X423614Y190103D01*
X423618Y190095D01*
X423623Y190091D01*
X423668Y190045D01*
X423714Y190003D01*
X423764Y189966D01*
X423810Y189937D01*
X423860Y189912D01*
X423910Y189891D01*
X424001Y189858D01*
X424080Y189837D01*
X424118Y189833D01*
X424147Y189829D01*
X424172Y189824D01*
X424205D01*
X424271Y189829D01*
X424330Y189837D01*
X424392Y189849D01*
X424446Y189866D01*
X424546Y189908D01*
X424629Y189958D01*
X424667Y189978D01*
X424700Y190003D01*
X424725Y190024D01*
X424750Y190045D01*
X424767Y190062D01*
X424779Y190074D01*
X424787Y190082D01*
X424791Y190087D01*
X424833Y190141D01*
X424866Y190199D01*
X424900Y190261D01*
X424925Y190324D01*
X424966Y190457D01*
X424995Y190590D01*
X425004Y190648D01*
X425012Y190706D01*
X425016Y190756D01*
X425020Y190802D01*
X425025Y190840D01*
Y190865D01*
Y190885D01*
Y190889D01*
X425020Y190985D01*
X425016Y191077D01*
X425004Y191160D01*
X424987Y191239D01*
X424970Y191310D01*
X424950Y191376D01*
X424929Y191434D01*
X424908Y191489D01*
X424887Y191534D01*
X424866Y191576D01*
X424846Y191609D01*
X424829Y191638D01*
X424812Y191659D01*
X424800Y191676D01*
X424796Y191684D01*
X424791Y191688D01*
X424746Y191734D01*
X424700Y191776D01*
X424650Y191813D01*
X424600Y191842D01*
X424550Y191867D01*
X424505Y191888D01*
X424409Y191921D01*
X424330Y191942D01*
X424292Y191946D01*
X424263Y191950D01*
X424238Y191954D01*
D02*
G37*
G36*
X418273D02*
X418239D01*
X418177Y191950D01*
X418115Y191942D01*
X418056Y191929D01*
X418002Y191913D01*
X417903Y191871D01*
X417815Y191821D01*
X417782Y191796D01*
X417749Y191771D01*
X417724Y191751D01*
X417699Y191730D01*
X417682Y191713D01*
X417670Y191701D01*
X417661Y191692D01*
X417657Y191688D01*
X417616Y191634D01*
X417578Y191580D01*
X417549Y191518D01*
X417520Y191455D01*
X417495Y191389D01*
X417478Y191322D01*
X417449Y191197D01*
X417441Y191139D01*
X417432Y191085D01*
X417428Y191035D01*
X417424Y190989D01*
X417420Y190956D01*
Y190927D01*
Y190910D01*
Y190906D01*
X417424Y190806D01*
X417428Y190715D01*
X417441Y190627D01*
X417457Y190548D01*
X417474Y190473D01*
X417495Y190407D01*
X417516Y190345D01*
X417536Y190295D01*
X417561Y190245D01*
X417582Y190203D01*
X417603Y190170D01*
X417620Y190141D01*
X417636Y190120D01*
X417649Y190103D01*
X417653Y190095D01*
X417657Y190091D01*
X417703Y190045D01*
X417749Y190003D01*
X417799Y189966D01*
X417844Y189937D01*
X417894Y189912D01*
X417944Y189891D01*
X418036Y189858D01*
X418115Y189837D01*
X418152Y189833D01*
X418181Y189829D01*
X418206Y189824D01*
X418239D01*
X418306Y189829D01*
X418364Y189837D01*
X418427Y189849D01*
X418481Y189866D01*
X418581Y189908D01*
X418664Y189958D01*
X418701Y189978D01*
X418735Y190003D01*
X418759Y190024D01*
X418785Y190045D01*
X418801Y190062D01*
X418814Y190074D01*
X418822Y190082D01*
X418826Y190087D01*
X418868Y190141D01*
X418901Y190199D01*
X418934Y190261D01*
X418959Y190324D01*
X419001Y190457D01*
X419030Y190590D01*
X419038Y190648D01*
X419047Y190706D01*
X419051Y190756D01*
X419055Y190802D01*
X419059Y190840D01*
Y190865D01*
Y190885D01*
Y190889D01*
X419055Y190985D01*
X419051Y191077D01*
X419038Y191160D01*
X419022Y191239D01*
X419005Y191310D01*
X418984Y191376D01*
X418963Y191434D01*
X418943Y191489D01*
X418922Y191534D01*
X418901Y191576D01*
X418880Y191609D01*
X418863Y191638D01*
X418847Y191659D01*
X418834Y191676D01*
X418830Y191684D01*
X418826Y191688D01*
X418780Y191734D01*
X418735Y191776D01*
X418685Y191813D01*
X418635Y191842D01*
X418585Y191867D01*
X418539Y191888D01*
X418443Y191921D01*
X418364Y191942D01*
X418327Y191946D01*
X418298Y191950D01*
X418273Y191954D01*
D02*
G37*
G36*
X440995Y184959D02*
X440966D01*
X440907Y184954D01*
X440853Y184946D01*
X440803Y184934D01*
X440753Y184917D01*
X440666Y184875D01*
X440587Y184830D01*
X440525Y184780D01*
X440500Y184759D01*
X440479Y184738D01*
X440462Y184721D01*
X440450Y184709D01*
X440446Y184701D01*
X440441Y184696D01*
X440404Y184647D01*
X440371Y184588D01*
X440342Y184526D01*
X440317Y184464D01*
X440279Y184330D01*
X440250Y184197D01*
X440242Y184139D01*
X440238Y184081D01*
X440233Y184027D01*
X440229Y183981D01*
X440225Y183948D01*
Y183919D01*
Y183902D01*
Y183894D01*
X440229Y183798D01*
X440233Y183706D01*
X440246Y183623D01*
X440263Y183544D01*
X440279Y183473D01*
X440296Y183407D01*
X440317Y183344D01*
X440337Y183295D01*
X440362Y183245D01*
X440383Y183203D01*
X440400Y183170D01*
X440416Y183141D01*
X440433Y183120D01*
X440446Y183103D01*
X440450Y183095D01*
X440454Y183091D01*
X440495Y183045D01*
X440541Y183003D01*
X440587Y182966D01*
X440633Y182937D01*
X440679Y182912D01*
X440720Y182891D01*
X440803Y182858D01*
X440878Y182837D01*
X440907Y182833D01*
X440937Y182829D01*
X440957Y182825D01*
X440986D01*
X441057Y182829D01*
X441119Y182841D01*
X441182Y182858D01*
X441240Y182883D01*
X441294Y182908D01*
X441344Y182941D01*
X441390Y182970D01*
X441432Y183008D01*
X441465Y183041D01*
X441498Y183074D01*
X441527Y183103D01*
X441548Y183128D01*
X441565Y183153D01*
X441577Y183170D01*
X441585Y183182D01*
X441590Y183186D01*
X441615Y183232D01*
X441635Y183282D01*
X441652Y183336D01*
X441665Y183394D01*
X441689Y183515D01*
X441706Y183632D01*
X441710Y183690D01*
X441714Y183740D01*
X441719Y183790D01*
Y183827D01*
X441723Y183864D01*
Y183889D01*
Y183906D01*
Y183910D01*
X441719Y184002D01*
X441714Y184089D01*
X441702Y184172D01*
X441689Y184247D01*
X441669Y184314D01*
X441652Y184380D01*
X441631Y184439D01*
X441610Y184488D01*
X441590Y184534D01*
X441569Y184576D01*
X441548Y184609D01*
X441531Y184638D01*
X441519Y184659D01*
X441506Y184676D01*
X441502Y184684D01*
X441498Y184688D01*
X441457Y184734D01*
X441411Y184775D01*
X441365Y184813D01*
X441319Y184846D01*
X441273Y184871D01*
X441232Y184892D01*
X441149Y184925D01*
X441074Y184946D01*
X441045Y184950D01*
X441015Y184954D01*
X440995Y184959D01*
D02*
G37*
G36*
X412653Y183898D02*
X412648D01*
X412653Y183723D01*
X412657Y183615D01*
X412665Y183519D01*
X412678Y183436D01*
X412690Y183369D01*
X412703Y183319D01*
X412715Y183282D01*
X412723Y183261D01*
X412727Y183253D01*
X412769Y183178D01*
X412819Y183116D01*
X412869Y183057D01*
X412919Y183012D01*
X412969Y182974D01*
X413006Y182945D01*
X413031Y182929D01*
X413035Y182924D01*
X413039D01*
X413123Y182887D01*
X413206Y182858D01*
X413285Y182837D01*
X413364Y182825D01*
X413426Y182816D01*
X413455Y182812D01*
X413481Y182808D01*
X413526D01*
X413622Y182812D01*
X413705Y182829D01*
X413780Y182849D01*
X413838Y182870D01*
X413884Y182895D01*
X413917Y182912D01*
X413934Y182929D01*
X413942Y182933D01*
X413988Y182983D01*
X414025Y183033D01*
X414050Y183087D01*
X414067Y183136D01*
X414075Y183178D01*
X414080Y183215D01*
X414084Y183236D01*
Y183245D01*
X414080Y183290D01*
X414075Y183332D01*
X414063Y183369D01*
X414050Y183403D01*
X414042Y183432D01*
X414030Y183453D01*
X414025Y183465D01*
X414021Y183469D01*
X413992Y183507D01*
X413963Y183536D01*
X413934Y183561D01*
X413901Y183586D01*
X413876Y183602D01*
X413855Y183615D01*
X413838Y183619D01*
X413834Y183623D01*
X413780Y183644D01*
X413718Y183661D01*
X413651Y183677D01*
X413585Y183690D01*
X413522Y183702D01*
X413468Y183711D01*
X413451Y183715D01*
X413435Y183719D01*
X413422D01*
X413327Y183731D01*
X413239Y183748D01*
X413160Y183760D01*
X413085Y183777D01*
X413015Y183794D01*
X412952Y183806D01*
X412894Y183823D01*
X412840Y183835D01*
X412798Y183848D01*
X412757Y183860D01*
X412723Y183869D01*
X412698Y183881D01*
X412678Y183889D01*
X412661Y183894D01*
X412653Y183898D01*
D02*
G37*
G36*
X426139Y184959D02*
X426106D01*
X426040Y184954D01*
X425977Y184946D01*
X425919Y184934D01*
X425865Y184917D01*
X425765Y184871D01*
X425719Y184846D01*
X425678Y184821D01*
X425644Y184796D01*
X425611Y184771D01*
X425582Y184746D01*
X425561Y184726D01*
X425545Y184709D01*
X425528Y184696D01*
X425524Y184688D01*
X425520Y184684D01*
X425470Y184613D01*
X425428Y184530D01*
X425399Y184443D01*
X425374Y184355D01*
X425357Y184281D01*
X425353Y184247D01*
X425349Y184218D01*
X425345Y184193D01*
X425341Y184177D01*
Y184164D01*
Y184160D01*
X426896D01*
X426888Y184226D01*
X426880Y184289D01*
X426851Y184401D01*
X426809Y184501D01*
X426788Y184547D01*
X426767Y184584D01*
X426747Y184622D01*
X426726Y184651D01*
X426705Y184676D01*
X426688Y184701D01*
X426676Y184717D01*
X426663Y184730D01*
X426659Y184734D01*
X426655Y184738D01*
X426614Y184775D01*
X426568Y184813D01*
X426522Y184842D01*
X426476Y184867D01*
X426381Y184905D01*
X426297Y184929D01*
X426218Y184946D01*
X426189Y184950D01*
X426160Y184954D01*
X426139Y184959D01*
D02*
G37*
G36*
X400210D02*
X400177D01*
X400110Y184954D01*
X400048Y184946D01*
X399990Y184934D01*
X399936Y184917D01*
X399836Y184871D01*
X399790Y184846D01*
X399748Y184821D01*
X399715Y184796D01*
X399682Y184771D01*
X399653Y184746D01*
X399632Y184726D01*
X399615Y184709D01*
X399599Y184696D01*
X399594Y184688D01*
X399590Y184684D01*
X399540Y184613D01*
X399499Y184530D01*
X399470Y184443D01*
X399445Y184355D01*
X399428Y184281D01*
X399424Y184247D01*
X399420Y184218D01*
X399415Y184193D01*
X399411Y184177D01*
Y184164D01*
Y184160D01*
X400967D01*
X400959Y184226D01*
X400951Y184289D01*
X400921Y184401D01*
X400880Y184501D01*
X400859Y184547D01*
X400838Y184584D01*
X400817Y184622D01*
X400797Y184651D01*
X400776Y184676D01*
X400759Y184701D01*
X400747Y184717D01*
X400734Y184730D01*
X400730Y184734D01*
X400726Y184738D01*
X400684Y184775D01*
X400639Y184813D01*
X400593Y184842D01*
X400547Y184867D01*
X400451Y184905D01*
X400368Y184929D01*
X400289Y184946D01*
X400260Y184950D01*
X400231Y184954D01*
X400210Y184959D01*
D02*
G37*
G36*
X437113Y185886D02*
X436011D01*
X435961Y185882D01*
X435911D01*
X435870Y185878D01*
X435828Y185874D01*
X435795Y185870D01*
X435766D01*
X435716Y185861D01*
X435682Y185853D01*
X435662Y185849D01*
X435657D01*
X435587Y185824D01*
X435524Y185791D01*
X435470Y185753D01*
X435420Y185716D01*
X435387Y185682D01*
X435358Y185653D01*
X435341Y185633D01*
X435337Y185624D01*
X435295Y185558D01*
X435266Y185487D01*
X435241Y185420D01*
X435229Y185354D01*
X435221Y185300D01*
X435212Y185254D01*
Y185237D01*
Y185225D01*
Y185216D01*
Y185212D01*
X435217Y185150D01*
X435221Y185096D01*
X435246Y184992D01*
X435279Y184905D01*
X435316Y184830D01*
X435354Y184771D01*
X435387Y184730D01*
X435399Y184717D01*
X435412Y184705D01*
X435416Y184701D01*
X435420Y184696D01*
X435462Y184663D01*
X435512Y184638D01*
X435562Y184613D01*
X435616Y184592D01*
X435732Y184559D01*
X435849Y184538D01*
X435903Y184530D01*
X435957Y184522D01*
X436003Y184518D01*
X436044D01*
X436078Y184513D01*
X437113D01*
Y185886D01*
D02*
G37*
G36*
X420444D02*
X419604D01*
X419533Y185882D01*
X419471D01*
X419413Y185878D01*
X419359Y185874D01*
X419313Y185870D01*
X419267Y185865D01*
X419230Y185861D01*
X419201Y185853D01*
X419171Y185849D01*
X419146Y185845D01*
X419130Y185840D01*
X419113Y185836D01*
X419105D01*
X419097Y185832D01*
X419034Y185807D01*
X418984Y185778D01*
X418938Y185745D01*
X418901Y185712D01*
X418872Y185682D01*
X418851Y185657D01*
X418839Y185641D01*
X418834Y185633D01*
X418801Y185578D01*
X418780Y185520D01*
X418764Y185462D01*
X418751Y185408D01*
X418743Y185362D01*
X418739Y185329D01*
Y185304D01*
Y185300D01*
Y185295D01*
X418743Y185221D01*
X418755Y185158D01*
X418772Y185100D01*
X418789Y185050D01*
X418805Y185013D01*
X418822Y184984D01*
X418834Y184967D01*
X418839Y184959D01*
X418880Y184913D01*
X418926Y184871D01*
X418976Y184838D01*
X419022Y184813D01*
X419063Y184792D01*
X419097Y184780D01*
X419121Y184771D01*
X419126Y184767D01*
X419130D01*
X419159Y184759D01*
X419192Y184755D01*
X419267Y184742D01*
X419350Y184734D01*
X419429Y184730D01*
X419500D01*
X419533Y184726D01*
X420444D01*
Y185886D01*
D02*
G37*
G36*
Y184272D02*
X419558D01*
X419429Y184268D01*
X419317Y184264D01*
X419267Y184256D01*
X419221Y184251D01*
X419180Y184247D01*
X419138Y184239D01*
X419105Y184235D01*
X419076Y184226D01*
X419055Y184222D01*
X419034Y184218D01*
X419017Y184214D01*
X419005Y184210D01*
X419001Y184206D01*
X418997D01*
X418926Y184177D01*
X418868Y184143D01*
X418814Y184110D01*
X418768Y184072D01*
X418735Y184039D01*
X418710Y184010D01*
X418693Y183993D01*
X418689Y183985D01*
X418651Y183923D01*
X418622Y183860D01*
X418606Y183798D01*
X418589Y183740D01*
X418581Y183686D01*
X418576Y183648D01*
Y183632D01*
Y183619D01*
Y183615D01*
Y183611D01*
X418581Y183544D01*
X418589Y183482D01*
X418601Y183428D01*
X418614Y183382D01*
X418631Y183340D01*
X418643Y183311D01*
X418651Y183295D01*
X418655Y183286D01*
X418685Y183236D01*
X418718Y183195D01*
X418751Y183157D01*
X418780Y183128D01*
X418809Y183103D01*
X418830Y183087D01*
X418847Y183078D01*
X418851Y183074D01*
X418897Y183049D01*
X418947Y183028D01*
X418993Y183008D01*
X419038Y182995D01*
X419080Y182983D01*
X419113Y182974D01*
X419134Y182970D01*
X419142D01*
X419184Y182966D01*
X419238Y182962D01*
X419296Y182958D01*
X419350D01*
X419404Y182953D01*
X420444D01*
Y184272D01*
D02*
G37*
G36*
X404615Y185915D02*
X403322D01*
X403251Y185907D01*
X403185Y185899D01*
X403122Y185886D01*
X403068Y185874D01*
X403018Y185857D01*
X402972Y185845D01*
X402931Y185828D01*
X402893Y185811D01*
X402864Y185795D01*
X402835Y185778D01*
X402814Y185766D01*
X402798Y185753D01*
X402785Y185745D01*
X402781Y185741D01*
X402777Y185737D01*
X402743Y185703D01*
X402710Y185666D01*
X402660Y185595D01*
X402627Y185520D01*
X402602Y185449D01*
X402585Y185387D01*
X402581Y185358D01*
Y185337D01*
X402577Y185316D01*
Y185304D01*
Y185295D01*
Y185291D01*
X402581Y185225D01*
X402594Y185158D01*
X402610Y185100D01*
X402627Y185050D01*
X402648Y185004D01*
X402665Y184975D01*
X402677Y184954D01*
X402681Y184946D01*
X402723Y184892D01*
X402773Y184842D01*
X402823Y184805D01*
X402868Y184771D01*
X402914Y184746D01*
X402947Y184730D01*
X402972Y184721D01*
X402977Y184717D01*
X402981D01*
X403060Y184692D01*
X403147Y184676D01*
X403239Y184663D01*
X403326Y184655D01*
X403405Y184651D01*
X403438D01*
X403467Y184647D01*
X404615D01*
Y185915D01*
D02*
G37*
G36*
X433007Y184954D02*
X432974D01*
X432912Y184950D01*
X432849Y184942D01*
X432791Y184929D01*
X432737Y184913D01*
X432637Y184871D01*
X432550Y184821D01*
X432517Y184796D01*
X432483Y184771D01*
X432458Y184751D01*
X432433Y184730D01*
X432417Y184713D01*
X432404Y184701D01*
X432396Y184692D01*
X432392Y184688D01*
X432350Y184634D01*
X432313Y184580D01*
X432284Y184518D01*
X432255Y184455D01*
X432230Y184389D01*
X432213Y184322D01*
X432184Y184197D01*
X432175Y184139D01*
X432167Y184085D01*
X432163Y184035D01*
X432159Y183989D01*
X432155Y183956D01*
Y183927D01*
Y183910D01*
Y183906D01*
X432159Y183806D01*
X432163Y183715D01*
X432175Y183627D01*
X432192Y183548D01*
X432209Y183473D01*
X432230Y183407D01*
X432250Y183344D01*
X432271Y183295D01*
X432296Y183245D01*
X432317Y183203D01*
X432338Y183170D01*
X432354Y183141D01*
X432371Y183120D01*
X432383Y183103D01*
X432388Y183095D01*
X432392Y183091D01*
X432438Y183045D01*
X432483Y183003D01*
X432533Y182966D01*
X432579Y182937D01*
X432629Y182912D01*
X432679Y182891D01*
X432770Y182858D01*
X432849Y182837D01*
X432887Y182833D01*
X432916Y182829D01*
X432941Y182825D01*
X432974D01*
X433041Y182829D01*
X433099Y182837D01*
X433161Y182849D01*
X433216Y182866D01*
X433315Y182908D01*
X433399Y182958D01*
X433436Y182978D01*
X433469Y183003D01*
X433494Y183024D01*
X433519Y183045D01*
X433536Y183062D01*
X433548Y183074D01*
X433557Y183082D01*
X433561Y183087D01*
X433602Y183141D01*
X433636Y183199D01*
X433669Y183261D01*
X433694Y183324D01*
X433736Y183457D01*
X433765Y183590D01*
X433773Y183648D01*
X433781Y183706D01*
X433785Y183756D01*
X433790Y183802D01*
X433794Y183839D01*
Y183864D01*
Y183885D01*
Y183889D01*
X433790Y183985D01*
X433785Y184077D01*
X433773Y184160D01*
X433756Y184239D01*
X433740Y184310D01*
X433719Y184376D01*
X433698Y184434D01*
X433677Y184488D01*
X433657Y184534D01*
X433636Y184576D01*
X433615Y184609D01*
X433598Y184638D01*
X433582Y184659D01*
X433569Y184676D01*
X433565Y184684D01*
X433561Y184688D01*
X433515Y184734D01*
X433469Y184775D01*
X433419Y184813D01*
X433369Y184842D01*
X433320Y184867D01*
X433274Y184888D01*
X433178Y184921D01*
X433099Y184942D01*
X433062Y184946D01*
X433033Y184950D01*
X433007Y184954D01*
D02*
G37*
G36*
X416318D02*
X416284D01*
X416222Y184950D01*
X416159Y184942D01*
X416101Y184929D01*
X416047Y184913D01*
X415947Y184871D01*
X415860Y184821D01*
X415827Y184796D01*
X415793Y184771D01*
X415768Y184751D01*
X415743Y184730D01*
X415727Y184713D01*
X415714Y184701D01*
X415706Y184692D01*
X415702Y184688D01*
X415660Y184634D01*
X415623Y184580D01*
X415594Y184518D01*
X415565Y184455D01*
X415540Y184389D01*
X415523Y184322D01*
X415494Y184197D01*
X415486Y184139D01*
X415477Y184085D01*
X415473Y184035D01*
X415469Y183989D01*
X415465Y183956D01*
Y183927D01*
Y183910D01*
Y183906D01*
X415469Y183806D01*
X415473Y183715D01*
X415486Y183627D01*
X415502Y183548D01*
X415519Y183473D01*
X415540Y183407D01*
X415560Y183344D01*
X415581Y183295D01*
X415606Y183245D01*
X415627Y183203D01*
X415648Y183170D01*
X415664Y183141D01*
X415681Y183120D01*
X415694Y183103D01*
X415698Y183095D01*
X415702Y183091D01*
X415748Y183045D01*
X415793Y183003D01*
X415843Y182966D01*
X415889Y182937D01*
X415939Y182912D01*
X415989Y182891D01*
X416081Y182858D01*
X416159Y182837D01*
X416197Y182833D01*
X416226Y182829D01*
X416251Y182825D01*
X416284D01*
X416351Y182829D01*
X416409Y182837D01*
X416471Y182849D01*
X416526Y182866D01*
X416625Y182908D01*
X416709Y182958D01*
X416746Y182978D01*
X416779Y183003D01*
X416804Y183024D01*
X416829Y183045D01*
X416846Y183062D01*
X416858Y183074D01*
X416867Y183082D01*
X416871Y183087D01*
X416913Y183141D01*
X416946Y183199D01*
X416979Y183261D01*
X417004Y183324D01*
X417046Y183457D01*
X417075Y183590D01*
X417083Y183648D01*
X417091Y183706D01*
X417096Y183756D01*
X417100Y183802D01*
X417104Y183839D01*
Y183864D01*
Y183885D01*
Y183889D01*
X417100Y183985D01*
X417096Y184077D01*
X417083Y184160D01*
X417066Y184239D01*
X417050Y184310D01*
X417029Y184376D01*
X417008Y184434D01*
X416987Y184488D01*
X416967Y184534D01*
X416946Y184576D01*
X416925Y184609D01*
X416908Y184638D01*
X416892Y184659D01*
X416879Y184676D01*
X416875Y184684D01*
X416871Y184688D01*
X416825Y184734D01*
X416779Y184775D01*
X416729Y184813D01*
X416679Y184842D01*
X416630Y184867D01*
X416584Y184888D01*
X416488Y184921D01*
X416409Y184942D01*
X416372Y184946D01*
X416343Y184950D01*
X416318Y184954D01*
D02*
G37*
G36*
X408647D02*
X408617D01*
X408559Y184950D01*
X408501Y184942D01*
X408447Y184929D01*
X408397Y184913D01*
X408301Y184867D01*
X408222Y184821D01*
X408160Y184771D01*
X408135Y184746D01*
X408110Y184726D01*
X408093Y184709D01*
X408081Y184696D01*
X408077Y184688D01*
X408073Y184684D01*
X408031Y184630D01*
X407998Y184572D01*
X407969Y184509D01*
X407943Y184443D01*
X407902Y184301D01*
X407877Y184168D01*
X407865Y184102D01*
X407860Y184043D01*
X407856Y183989D01*
X407852Y183939D01*
X407848Y183902D01*
Y183873D01*
Y183856D01*
Y183848D01*
X407852Y183752D01*
X407856Y183665D01*
X407869Y183582D01*
X407881Y183507D01*
X407898Y183440D01*
X407919Y183374D01*
X407939Y183315D01*
X407956Y183265D01*
X407977Y183220D01*
X407998Y183182D01*
X408018Y183149D01*
X408035Y183124D01*
X408047Y183099D01*
X408060Y183087D01*
X408064Y183078D01*
X408068Y183074D01*
X408110Y183028D01*
X408151Y182991D01*
X408197Y182958D01*
X408243Y182929D01*
X408285Y182908D01*
X408330Y182887D01*
X408414Y182858D01*
X408484Y182837D01*
X408518Y182833D01*
X408543Y182829D01*
X408567Y182825D01*
X408597D01*
X408655Y182829D01*
X408709Y182837D01*
X408759Y182849D01*
X408809Y182866D01*
X408900Y182908D01*
X408979Y182958D01*
X409042Y183003D01*
X409067Y183024D01*
X409088Y183045D01*
X409104Y183062D01*
X409121Y183074D01*
X409125Y183082D01*
X409129Y183087D01*
X409167Y183141D01*
X409204Y183199D01*
X409233Y183261D01*
X409258Y183324D01*
X409300Y183457D01*
X409325Y183586D01*
X409333Y183648D01*
X409341Y183702D01*
X409345Y183752D01*
X409350Y183798D01*
X409354Y183835D01*
Y183860D01*
Y183881D01*
Y183885D01*
X409350Y183985D01*
X409345Y184081D01*
X409333Y184164D01*
X409320Y184247D01*
X409304Y184318D01*
X409287Y184385D01*
X409271Y184447D01*
X409250Y184497D01*
X409229Y184547D01*
X409212Y184584D01*
X409196Y184622D01*
X409179Y184647D01*
X409167Y184667D01*
X409154Y184684D01*
X409150Y184692D01*
X409146Y184696D01*
X409104Y184742D01*
X409063Y184780D01*
X409017Y184817D01*
X408975Y184846D01*
X408929Y184871D01*
X408884Y184892D01*
X408801Y184921D01*
X408730Y184942D01*
X408697Y184946D01*
X408672Y184950D01*
X408647Y184954D01*
D02*
G37*
%LPD*%
M02*
