G04 Layer_Color=65535*
%FSLAX23Y23*%
%MOIN*%
G70*
G01*
G75*
%ADD21C,0.010*%
%ADD22C,0.008*%
%ADD23C,0.006*%
D21*
X1488Y1356D02*
G03*
X1488Y1356I-5J0D01*
G01*
D22*
X1860Y1060D02*
Y1160D01*
X1660Y1060D02*
X1860D01*
X1660D02*
Y1160D01*
X1860D01*
X1780Y1180D02*
X1880D01*
X1780D02*
Y1380D01*
X1880D01*
Y1180D02*
Y1380D01*
X1910Y1235D02*
Y1335D01*
X2110D01*
Y1235D02*
Y1335D01*
X1910Y1235D02*
X2110D01*
X1305Y1410D02*
X1405D01*
Y1210D02*
Y1410D01*
X1305Y1210D02*
X1405D01*
X1305D02*
Y1410D01*
X1185D02*
X1285D01*
Y1210D02*
Y1410D01*
X1185Y1210D02*
X1285D01*
X1185D02*
Y1410D01*
X1065D02*
X1165D01*
Y1210D02*
Y1410D01*
X1065Y1210D02*
X1165D01*
X1065D02*
Y1410D01*
X1635Y1380D02*
Y1480D01*
X1435Y1380D02*
X1635D01*
X1435D02*
Y1480D01*
X1635D01*
X1519Y1228D02*
Y1342D01*
X1551Y1228D02*
Y1342D01*
X1519D02*
X1551D01*
X1519Y1228D02*
X1551D01*
X2050Y1600D02*
X2150D01*
Y1400D02*
Y1600D01*
X2050Y1400D02*
X2150D01*
X2050D02*
Y1600D01*
X1945Y1095D02*
Y1195D01*
X2145D01*
Y1095D02*
Y1195D01*
X1945Y1095D02*
X2145D01*
X1660Y1180D02*
X1760D01*
X1660D02*
Y1380D01*
X1760D01*
Y1180D02*
Y1380D01*
D23*
X1580Y1105D02*
X1570D01*
X1575D01*
Y1080D01*
X1570Y1075D01*
X1565D01*
X1560Y1080D01*
X1590Y1105D02*
X1610D01*
X1600D01*
Y1075D01*
X1620D02*
X1630D01*
X1625D01*
Y1105D01*
X1620Y1100D01*
X1802Y1440D02*
X1792D01*
X1797D01*
Y1415D01*
X1792Y1410D01*
X1787D01*
X1782Y1415D01*
X1812Y1440D02*
X1832D01*
X1822D01*
Y1410D01*
X1862D02*
X1842D01*
X1862Y1430D01*
Y1435D01*
X1857Y1440D01*
X1847D01*
X1842Y1435D01*
X1910Y1350D02*
Y1380D01*
X1925D01*
X1930Y1375D01*
Y1365D01*
X1925Y1360D01*
X1910D01*
X1920D02*
X1930Y1350D01*
X1940D02*
X1950D01*
X1945D01*
Y1380D01*
X1940Y1375D01*
X1345Y1460D02*
X1335D01*
X1340D01*
Y1435D01*
X1335Y1430D01*
X1330D01*
X1325Y1435D01*
X1355Y1430D02*
X1365D01*
X1360D01*
Y1460D01*
X1355Y1455D01*
X1220Y1450D02*
X1215Y1455D01*
X1205D01*
X1200Y1450D01*
Y1430D01*
X1205Y1425D01*
X1215D01*
X1220Y1430D01*
X1250Y1425D02*
X1230D01*
X1250Y1445D01*
Y1450D01*
X1245Y1455D01*
X1235D01*
X1230Y1450D01*
X1090Y1430D02*
Y1460D01*
X1105D01*
X1110Y1455D01*
Y1445D01*
X1105Y1440D01*
X1090D01*
X1120Y1430D02*
X1130D01*
X1125D01*
Y1460D01*
X1120Y1455D01*
X1485Y1525D02*
Y1495D01*
X1500D01*
X1505Y1500D01*
Y1520D01*
X1500Y1525D01*
X1485D01*
X1515Y1495D02*
X1525D01*
X1520D01*
Y1525D01*
X1515Y1520D01*
X1515Y1195D02*
Y1170D01*
X1520Y1165D01*
X1530D01*
X1535Y1170D01*
Y1195D01*
X1545Y1165D02*
X1555D01*
X1550D01*
Y1195D01*
X1545Y1190D01*
X1985Y1550D02*
Y1520D01*
X2005D01*
X2035D02*
X2015D01*
X2035Y1540D01*
Y1545D01*
X2030Y1550D01*
X2020D01*
X2015Y1545D01*
X1885Y1160D02*
Y1130D01*
X1905D01*
X1915D02*
X1925D01*
X1920D01*
Y1160D01*
X1915Y1155D01*
X2119Y1316D02*
X2139D01*
X2129D01*
Y1286D01*
X2169D02*
X2149D01*
X2169Y1306D01*
Y1311D01*
X2164Y1316D01*
X2154D01*
X2149Y1311D01*
X2125Y1070D02*
X2145D01*
X2135D01*
Y1040D01*
X2155D02*
X2165D01*
X2160D01*
Y1070D01*
X2155Y1065D01*
X1682Y1435D02*
X1677Y1440D01*
X1667D01*
X1662Y1435D01*
Y1415D01*
X1667Y1410D01*
X1677D01*
X1682Y1415D01*
X1692Y1410D02*
X1702D01*
X1697D01*
Y1440D01*
X1692Y1435D01*
X1415Y1505D02*
X1435D01*
X1425Y1515D02*
Y1495D01*
X1625Y1505D02*
X1645D01*
M02*
