G04 Layer_Physical_Order=3*
G04 Layer_Color=16440176*
%FSLAX23Y23*%
%MOIN*%
G70*
G01*
G75*
%ADD60C,0.010*%
%ADD61C,0.020*%
%ADD63C,0.006*%
%ADD66C,0.087*%
%ADD71C,0.060*%
%ADD73R,0.060X0.060*%
%ADD75C,0.063*%
%ADD76C,0.070*%
%ADD78C,0.035*%
%ADD80C,0.067*%
%ADD82C,0.050*%
%ADD83C,0.030*%
%ADD84C,0.035*%
G36*
X9030Y5010D02*
X9180Y4860D01*
Y4155D01*
X9474Y3807D01*
X9474Y3800D01*
X9479Y3790D01*
X9485Y3782D01*
X9494Y3775D01*
X9504Y3771D01*
X9504Y3771D01*
X9515Y3758D01*
X9513Y3753D01*
X9504Y3752D01*
X9494Y3748D01*
X9485Y3741D01*
X9479Y3732D01*
X9474Y3722D01*
X9474Y3721D01*
X9515D01*
Y3711D01*
X9525D01*
Y3671D01*
X9526Y3671D01*
X9536Y3675D01*
X9545Y3682D01*
X9551Y3690D01*
X9556Y3700D01*
X9556Y3702D01*
X9561Y3704D01*
X10125Y3035D01*
Y2690D01*
X8593Y2690D01*
X8590Y2694D01*
X8590Y2700D01*
X8589Y2718D01*
X8585Y2736D01*
X8578Y2752D01*
X8568Y2768D01*
X8557Y2782D01*
X8543Y2793D01*
X8527Y2803D01*
X8511Y2810D01*
X8493Y2814D01*
X8475Y2815D01*
X8457Y2814D01*
X8439Y2810D01*
X8423Y2803D01*
X8407Y2793D01*
X8393Y2782D01*
X8382Y2768D01*
X8372Y2752D01*
X8365Y2736D01*
X8361Y2718D01*
X8360Y2700D01*
X8360Y2694D01*
X8357Y2690D01*
X7807D01*
X7799Y2705D01*
X7788Y2718D01*
X7775Y2729D01*
X7759Y2737D01*
X7742Y2742D01*
X7725Y2744D01*
X7708Y2742D01*
X7691Y2737D01*
X7675Y2729D01*
X7662Y2718D01*
X7651Y2705D01*
X7643Y2690D01*
X7392D01*
X7384Y2705D01*
X7373Y2718D01*
X7360Y2729D01*
X7344Y2737D01*
X7327Y2742D01*
X7310Y2744D01*
X7293Y2742D01*
X7276Y2737D01*
X7260Y2729D01*
X7247Y2718D01*
X7236Y2705D01*
X7228Y2690D01*
X6518D01*
X6515Y2694D01*
X6515Y2700D01*
X6514Y2718D01*
X6510Y2736D01*
X6503Y2752D01*
X6493Y2768D01*
X6482Y2782D01*
X6468Y2793D01*
X6452Y2803D01*
X6436Y2810D01*
X6418Y2814D01*
X6400Y2815D01*
X6382Y2814D01*
X6364Y2810D01*
X6348Y2803D01*
X6332Y2793D01*
X6318Y2782D01*
X6307Y2768D01*
X6297Y2752D01*
X6290Y2736D01*
X6286Y2718D01*
X6285Y2700D01*
X6285Y2694D01*
X6282Y2690D01*
X6102Y2690D01*
X6094Y2705D01*
X6083Y2718D01*
X6070Y2729D01*
X6054Y2737D01*
X6037Y2742D01*
X6020Y2744D01*
X6003Y2742D01*
X5986Y2737D01*
X5970Y2729D01*
X5957Y2718D01*
X5946Y2705D01*
X5938Y2690D01*
X5687D01*
X5679Y2705D01*
X5668Y2718D01*
X5655Y2729D01*
X5639Y2737D01*
X5622Y2742D01*
X5605Y2744D01*
X5588Y2742D01*
X5571Y2737D01*
X5555Y2729D01*
X5542Y2718D01*
X5531Y2705D01*
X5523Y2690D01*
X5252D01*
X5244Y2705D01*
X5233Y2718D01*
X5220Y2729D01*
X5204Y2737D01*
X5187Y2742D01*
X5170Y2744D01*
X5153Y2742D01*
X5136Y2737D01*
X5120Y2729D01*
X5107Y2718D01*
X5096Y2705D01*
X5088Y2690D01*
X4875D01*
X4875Y3810D01*
X4880Y3813D01*
X4886Y3811D01*
X4895Y3810D01*
X4904Y3811D01*
X4913Y3814D01*
X4920Y3820D01*
X4926Y3827D01*
X4929Y3836D01*
X4930Y3845D01*
X4929Y3854D01*
X4926Y3863D01*
X4920Y3870D01*
X4913Y3876D01*
X4904Y3879D01*
X4895Y3880D01*
X4886Y3879D01*
X4880Y3877D01*
X4875Y3880D01*
Y4066D01*
X4880Y4070D01*
X4886Y4077D01*
X4889Y4086D01*
X4890Y4095D01*
X4889Y4104D01*
X4886Y4113D01*
X4880Y4120D01*
X4875Y4124D01*
X4875Y5010D01*
X9030Y5010D01*
D02*
G37*
G36*
X10760Y4253D02*
Y4206D01*
X10760Y4203D01*
X10760Y4201D01*
Y4106D01*
X10760Y4103D01*
X10760Y4101D01*
Y4006D01*
X10760Y4003D01*
X10760Y4001D01*
Y3906D01*
X10760Y3903D01*
X10760Y3901D01*
Y3806D01*
X10760Y3803D01*
X10760Y3801D01*
Y3706D01*
X10760Y3703D01*
X10760Y3701D01*
Y3606D01*
X10760Y3603D01*
X10760Y3601D01*
Y3506D01*
X10760Y3503D01*
X10760Y3501D01*
Y3429D01*
X10760Y3428D01*
X10254D01*
X10252Y3432D01*
X10252Y3433D01*
X10253Y3440D01*
X10252Y3447D01*
X10249Y3454D01*
X10245Y3460D01*
X10239Y3464D01*
X10232Y3467D01*
X10225Y3468D01*
X10218Y3467D01*
X10211Y3464D01*
X10205Y3460D01*
X10201Y3454D01*
X10198Y3447D01*
X10197Y3440D01*
X10198Y3433D01*
X10198Y3432D01*
X10196Y3428D01*
X9839D01*
X9545Y3782D01*
X9545Y3782D01*
X9551Y3790D01*
X9556Y3800D01*
X9557Y3811D01*
X9556Y3822D01*
X9551Y3832D01*
X9545Y3841D01*
X9536Y3848D01*
X9526Y3852D01*
X9515Y3853D01*
X9504Y3852D01*
X9494Y3848D01*
X9491Y3846D01*
X9235Y4153D01*
Y4853D01*
X10060D01*
X10760Y4253D01*
D02*
G37*
%LPC*%
G36*
X8302Y3721D02*
X8293Y3720D01*
X8285Y3716D01*
X8277Y3710D01*
X8272Y3703D01*
X8268Y3695D01*
X8267Y3686D01*
X8268Y3676D01*
X8272Y3668D01*
X8277Y3661D01*
X8285Y3655D01*
X8293Y3651D01*
X8302Y3650D01*
X8312Y3651D01*
X8320Y3655D01*
X8327Y3661D01*
X8333Y3668D01*
X8336Y3676D01*
X8338Y3686D01*
X8336Y3695D01*
X8333Y3703D01*
X8327Y3710D01*
X8320Y3716D01*
X8312Y3720D01*
X8302Y3721D01*
D02*
G37*
G36*
X9505Y3701D02*
X9474D01*
X9474Y3700D01*
X9479Y3690D01*
X9485Y3682D01*
X9494Y3675D01*
X9504Y3671D01*
X9505Y3671D01*
Y3701D01*
D02*
G37*
G36*
X5145Y3730D02*
X5136Y3729D01*
X5127Y3726D01*
X5120Y3720D01*
X5114Y3713D01*
X5111Y3704D01*
X5110Y3695D01*
X5111Y3686D01*
X5114Y3677D01*
X5120Y3670D01*
X5127Y3664D01*
X5136Y3661D01*
X5145Y3660D01*
X5154Y3661D01*
X5163Y3664D01*
X5170Y3670D01*
X5176Y3677D01*
X5179Y3686D01*
X5180Y3695D01*
X5179Y3704D01*
X5176Y3713D01*
X5170Y3720D01*
X5163Y3726D01*
X5154Y3729D01*
X5145Y3730D01*
D02*
G37*
G36*
X9066Y3676D02*
X9042D01*
Y3652D01*
X9050Y3655D01*
X9057Y3661D01*
X9063Y3668D01*
X9066Y3676D01*
D02*
G37*
G36*
X9022D02*
X8999D01*
X9002Y3668D01*
X9007Y3661D01*
X9015Y3655D01*
X9022Y3652D01*
Y3676D01*
D02*
G37*
G36*
X5345Y3769D02*
X5343Y3769D01*
X5332Y3764D01*
X5323Y3757D01*
X5316Y3748D01*
X5311Y3737D01*
X5311Y3735D01*
X5306Y3734D01*
X5305Y3735D01*
X5298Y3741D01*
X5289Y3744D01*
X5280Y3745D01*
X5271Y3744D01*
X5262Y3741D01*
X5255Y3735D01*
X5249Y3728D01*
X5246Y3719D01*
X5245Y3710D01*
X5246Y3701D01*
X5249Y3692D01*
X5255Y3685D01*
X5262Y3679D01*
X5271Y3676D01*
X5280Y3675D01*
X5289Y3676D01*
X5298Y3679D01*
X5305Y3685D01*
X5311Y3692D01*
X5313Y3698D01*
X5319Y3699D01*
X5323Y3693D01*
X5332Y3686D01*
X5343Y3681D01*
X5345Y3681D01*
Y3725D01*
Y3769D01*
D02*
G37*
G36*
X5080Y3795D02*
X5071Y3794D01*
X5062Y3791D01*
X5055Y3785D01*
X5049Y3778D01*
X5046Y3769D01*
X5045Y3760D01*
X5046Y3751D01*
X5049Y3742D01*
X5055Y3735D01*
X5062Y3729D01*
X5071Y3726D01*
X5080Y3725D01*
X5089Y3726D01*
X5098Y3729D01*
X5105Y3735D01*
X5111Y3742D01*
X5114Y3751D01*
X5115Y3760D01*
X5114Y3769D01*
X5111Y3778D01*
X5105Y3785D01*
X5098Y3791D01*
X5089Y3794D01*
X5080Y3795D01*
D02*
G37*
G36*
X7557Y3826D02*
X7548Y3825D01*
X7540Y3821D01*
X7532Y3815D01*
X7527Y3808D01*
X7523Y3800D01*
X7522Y3791D01*
X7523Y3781D01*
X7527Y3773D01*
X7532Y3766D01*
X7540Y3760D01*
X7548Y3756D01*
X7557Y3755D01*
X7567Y3756D01*
X7575Y3760D01*
X7582Y3766D01*
X7588Y3773D01*
X7591Y3781D01*
X7593Y3791D01*
X7591Y3800D01*
X7588Y3808D01*
X7582Y3815D01*
X7575Y3821D01*
X7567Y3825D01*
X7557Y3826D01*
D02*
G37*
G36*
X5365Y3769D02*
Y3735D01*
X5399D01*
X5399Y3737D01*
X5394Y3748D01*
X5387Y3757D01*
X5378Y3764D01*
X5367Y3769D01*
X5365Y3769D01*
D02*
G37*
G36*
X9022Y3719D02*
X9015Y3716D01*
X9007Y3710D01*
X9002Y3703D01*
X8999Y3696D01*
X9022D01*
Y3719D01*
D02*
G37*
G36*
X5399Y3715D02*
X5365D01*
Y3681D01*
X5367Y3681D01*
X5378Y3686D01*
X5387Y3693D01*
X5394Y3702D01*
X5399Y3713D01*
X5399Y3715D01*
D02*
G37*
G36*
X9042Y3719D02*
Y3696D01*
X9066D01*
X9063Y3703D01*
X9057Y3710D01*
X9050Y3716D01*
X9042Y3719D01*
D02*
G37*
G36*
X6590Y3610D02*
X6581Y3609D01*
X6572Y3606D01*
X6565Y3600D01*
X6559Y3593D01*
X6556Y3584D01*
X6555Y3575D01*
X6556Y3566D01*
X6559Y3557D01*
X6565Y3550D01*
X6572Y3544D01*
X6581Y3541D01*
X6590Y3540D01*
X6599Y3541D01*
X6608Y3544D01*
X6615Y3550D01*
X6621Y3557D01*
X6624Y3566D01*
X6625Y3575D01*
X6624Y3584D01*
X6621Y3593D01*
X6615Y3600D01*
X6608Y3606D01*
X6599Y3609D01*
X6590Y3610D01*
D02*
G37*
G36*
X9172Y3616D02*
X9163Y3615D01*
X9155Y3611D01*
X9147Y3605D01*
X9142Y3598D01*
X9138Y3590D01*
X9137Y3581D01*
X9138Y3571D01*
X9142Y3563D01*
X9147Y3556D01*
X9155Y3550D01*
X9163Y3546D01*
X9172Y3545D01*
X9182Y3546D01*
X9190Y3550D01*
X9197Y3556D01*
X9203Y3563D01*
X9206Y3571D01*
X9208Y3581D01*
X9206Y3590D01*
X9203Y3598D01*
X9197Y3605D01*
X9190Y3611D01*
X9182Y3615D01*
X9172Y3616D01*
D02*
G37*
G36*
X6740Y3615D02*
X6731Y3614D01*
X6722Y3611D01*
X6715Y3605D01*
X6709Y3598D01*
X6706Y3589D01*
X6705Y3580D01*
X6706Y3571D01*
X6709Y3562D01*
X6715Y3555D01*
X6722Y3549D01*
X6731Y3546D01*
X6740Y3545D01*
X6749Y3546D01*
X6758Y3549D01*
X6765Y3555D01*
X6771Y3562D01*
X6774Y3571D01*
X6775Y3580D01*
X6774Y3589D01*
X6771Y3598D01*
X6765Y3605D01*
X6758Y3611D01*
X6749Y3614D01*
X6740Y3615D01*
D02*
G37*
G36*
X7832Y3671D02*
X7823Y3670D01*
X7815Y3666D01*
X7807Y3660D01*
X7802Y3653D01*
X7798Y3645D01*
X7797Y3636D01*
X7798Y3626D01*
X7802Y3618D01*
X7807Y3611D01*
X7815Y3605D01*
X7823Y3601D01*
X7832Y3600D01*
X7842Y3601D01*
X7850Y3605D01*
X7857Y3611D01*
X7863Y3618D01*
X7866Y3626D01*
X7868Y3636D01*
X7866Y3645D01*
X7863Y3653D01*
X7857Y3660D01*
X7850Y3666D01*
X7842Y3670D01*
X7832Y3671D01*
D02*
G37*
G36*
X5870Y3670D02*
X5861Y3669D01*
X5852Y3666D01*
X5845Y3660D01*
X5839Y3653D01*
X5836Y3644D01*
X5835Y3635D01*
X5836Y3626D01*
X5839Y3617D01*
X5845Y3610D01*
X5852Y3604D01*
X5861Y3601D01*
X5870Y3600D01*
X5879Y3601D01*
X5888Y3604D01*
X5895Y3610D01*
X5901Y3617D01*
X5904Y3626D01*
X5905Y3635D01*
X5904Y3644D01*
X5901Y3653D01*
X5895Y3660D01*
X5888Y3666D01*
X5879Y3669D01*
X5870Y3670D01*
D02*
G37*
G36*
X5665Y3925D02*
X5631D01*
X5631Y3923D01*
X5636Y3912D01*
X5643Y3903D01*
X5652Y3896D01*
X5663Y3891D01*
X5665Y3891D01*
Y3925D01*
D02*
G37*
G36*
X9037Y3956D02*
X9028Y3955D01*
X9020Y3951D01*
X9012Y3945D01*
X9007Y3938D01*
X9003Y3930D01*
X9002Y3921D01*
X9003Y3911D01*
X9007Y3903D01*
X9012Y3896D01*
X9020Y3890D01*
X9028Y3886D01*
X9037Y3885D01*
X9047Y3886D01*
X9055Y3890D01*
X9062Y3896D01*
X9068Y3903D01*
X9071Y3911D01*
X9073Y3921D01*
X9071Y3930D01*
X9068Y3938D01*
X9062Y3945D01*
X9055Y3951D01*
X9047Y3955D01*
X9037Y3956D01*
D02*
G37*
G36*
X5390Y3985D02*
X5378Y3984D01*
X5367Y3979D01*
X5358Y3972D01*
X5351Y3963D01*
X5346Y3952D01*
X5345Y3940D01*
X5346Y3928D01*
X5351Y3917D01*
X5358Y3908D01*
X5367Y3901D01*
X5378Y3896D01*
X5390Y3895D01*
X5402Y3896D01*
X5413Y3901D01*
X5422Y3908D01*
X5429Y3917D01*
X5434Y3928D01*
X5435Y3940D01*
X5434Y3952D01*
X5429Y3963D01*
X5422Y3972D01*
X5413Y3979D01*
X5402Y3984D01*
X5390Y3985D01*
D02*
G37*
G36*
X5719Y3925D02*
X5685D01*
Y3891D01*
X5687Y3891D01*
X5698Y3896D01*
X5707Y3903D01*
X5714Y3912D01*
X5719Y3923D01*
X5719Y3925D01*
D02*
G37*
G36*
X5685Y3979D02*
Y3945D01*
X5719D01*
X5719Y3947D01*
X5714Y3958D01*
X5707Y3967D01*
X5698Y3974D01*
X5687Y3979D01*
X5685Y3979D01*
D02*
G37*
G36*
X5665D02*
X5663Y3979D01*
X5652Y3974D01*
X5643Y3967D01*
X5636Y3958D01*
X5631Y3947D01*
X5631Y3945D01*
X5665D01*
Y3979D01*
D02*
G37*
G36*
X5719Y3805D02*
X5685D01*
Y3771D01*
X5687Y3771D01*
X5698Y3776D01*
X5707Y3783D01*
X5714Y3792D01*
X5719Y3803D01*
X5719Y3805D01*
D02*
G37*
G36*
X5665D02*
X5631D01*
X5631Y3803D01*
X5636Y3792D01*
X5643Y3783D01*
X5652Y3776D01*
X5663Y3771D01*
X5665Y3771D01*
Y3805D01*
D02*
G37*
G36*
Y3859D02*
X5663Y3859D01*
X5652Y3854D01*
X5643Y3847D01*
X5636Y3838D01*
X5631Y3827D01*
X5631Y3825D01*
X5665D01*
Y3859D01*
D02*
G37*
G36*
X5685D02*
Y3825D01*
X5719D01*
X5719Y3827D01*
X5714Y3838D01*
X5707Y3847D01*
X5698Y3854D01*
X5687Y3859D01*
X5685Y3859D01*
D02*
G37*
G36*
X5101Y2868D02*
X5100Y2867D01*
X5089Y2863D01*
X5080Y2856D01*
X5073Y2847D01*
X5069Y2836D01*
X5068Y2835D01*
X5101D01*
Y2868D01*
D02*
G37*
G36*
X9362Y2897D02*
X9348Y2896D01*
X9334Y2892D01*
X9321Y2885D01*
X9310Y2875D01*
X9300Y2864D01*
X9293Y2851D01*
X9289Y2837D01*
X9288Y2823D01*
X9289Y2814D01*
X9284Y2811D01*
X9277Y2817D01*
X9264Y2822D01*
X9250Y2824D01*
X9236Y2822D01*
X9223Y2817D01*
X9212Y2808D01*
X9203Y2797D01*
X9198Y2784D01*
X9196Y2770D01*
X9198Y2756D01*
X9203Y2743D01*
X9212Y2732D01*
X9223Y2723D01*
X9236Y2718D01*
X9250Y2716D01*
X9264Y2718D01*
X9277Y2723D01*
X9288Y2732D01*
X9297Y2743D01*
X9302Y2756D01*
X9304Y2769D01*
X9307Y2771D01*
X9308Y2772D01*
X9310Y2770D01*
X9321Y2761D01*
X9334Y2754D01*
X9348Y2750D01*
X9362Y2748D01*
X9377Y2750D01*
X9391Y2754D01*
X9404Y2761D01*
X9415Y2770D01*
X9416Y2772D01*
X9418Y2771D01*
X9421Y2769D01*
X9422Y2756D01*
X9428Y2743D01*
X9436Y2732D01*
X9448Y2723D01*
X9460Y2718D01*
X9474Y2716D01*
X9488Y2718D01*
X9501Y2723D01*
X9512Y2732D01*
X9521Y2743D01*
X9526Y2756D01*
X9528Y2770D01*
X9526Y2784D01*
X9521Y2797D01*
X9512Y2808D01*
X9501Y2817D01*
X9488Y2822D01*
X9474Y2824D01*
X9460Y2822D01*
X9448Y2817D01*
X9441Y2811D01*
X9436Y2814D01*
X9437Y2823D01*
X9435Y2837D01*
X9431Y2851D01*
X9424Y2864D01*
X9415Y2875D01*
X9404Y2885D01*
X9391Y2892D01*
X9377Y2896D01*
X9362Y2897D01*
D02*
G37*
G36*
X5219Y2868D02*
X5218Y2867D01*
X5207Y2863D01*
X5198Y2856D01*
X5191Y2847D01*
X5187Y2836D01*
X5187Y2835D01*
X5219D01*
Y2868D01*
D02*
G37*
G36*
X5121D02*
Y2835D01*
X5153D01*
X5153Y2836D01*
X5149Y2847D01*
X5142Y2856D01*
X5133Y2863D01*
X5122Y2867D01*
X5121Y2868D01*
D02*
G37*
G36*
X8913Y2897D02*
X8899Y2896D01*
X8885Y2892D01*
X8872Y2885D01*
X8861Y2875D01*
X8852Y2864D01*
X8845Y2851D01*
X8840Y2837D01*
X8839Y2823D01*
X8840Y2814D01*
X8835Y2811D01*
X8828Y2817D01*
X8815Y2822D01*
X8811Y2822D01*
Y2770D01*
Y2718D01*
X8815Y2718D01*
X8828Y2723D01*
X8839Y2732D01*
X8848Y2743D01*
X8853Y2756D01*
X8855Y2769D01*
X8858Y2771D01*
X8859Y2772D01*
X8861Y2770D01*
X8872Y2761D01*
X8885Y2754D01*
X8899Y2750D01*
X8913Y2748D01*
X8928Y2750D01*
X8942Y2754D01*
X8955Y2761D01*
X8966Y2770D01*
X8967Y2772D01*
X8969Y2771D01*
X8972Y2769D01*
X8974Y2756D01*
X8979Y2743D01*
X8988Y2732D01*
X8999Y2723D01*
X9012Y2718D01*
X9016Y2718D01*
Y2770D01*
Y2822D01*
X9012Y2822D01*
X8999Y2817D01*
X8992Y2811D01*
X8987Y2814D01*
X8988Y2823D01*
X8986Y2837D01*
X8982Y2851D01*
X8975Y2864D01*
X8966Y2875D01*
X8955Y2885D01*
X8942Y2892D01*
X8928Y2896D01*
X8913Y2897D01*
D02*
G37*
G36*
X7293Y2815D02*
X7261D01*
Y2783D01*
X7262Y2783D01*
X7273Y2787D01*
X7282Y2794D01*
X7289Y2803D01*
X7293Y2814D01*
X7293Y2815D01*
D02*
G37*
G36*
X7241D02*
X7208D01*
X7209Y2814D01*
X7213Y2803D01*
X7220Y2794D01*
X7229Y2787D01*
X7240Y2783D01*
X7241Y2783D01*
Y2815D01*
D02*
G37*
G36*
X7412D02*
X7379D01*
Y2783D01*
X7380Y2783D01*
X7391Y2787D01*
X7400Y2794D01*
X7407Y2803D01*
X7411Y2814D01*
X7412Y2815D01*
D02*
G37*
G36*
X7359D02*
X7327D01*
X7327Y2814D01*
X7331Y2803D01*
X7338Y2794D01*
X7347Y2787D01*
X7358Y2783D01*
X7359Y2783D01*
Y2815D01*
D02*
G37*
G36*
X5229Y2987D02*
X5218Y2986D01*
X5207Y2981D01*
X5198Y2974D01*
X5191Y2965D01*
X5187Y2955D01*
X5185Y2943D01*
X5187Y2932D01*
X5191Y2921D01*
X5198Y2912D01*
X5207Y2905D01*
X5218Y2901D01*
X5229Y2899D01*
X5240Y2901D01*
X5251Y2905D01*
X5260Y2912D01*
X5267Y2921D01*
X5271Y2932D01*
X5273Y2943D01*
X5271Y2955D01*
X5267Y2965D01*
X5260Y2974D01*
X5251Y2981D01*
X5240Y2986D01*
X5229Y2987D01*
D02*
G37*
G36*
X5111D02*
X5100Y2986D01*
X5089Y2981D01*
X5080Y2974D01*
X5073Y2965D01*
X5069Y2955D01*
X5067Y2943D01*
X5069Y2932D01*
X5073Y2921D01*
X5080Y2912D01*
X5089Y2905D01*
X5100Y2901D01*
X5111Y2899D01*
X5122Y2901D01*
X5133Y2905D01*
X5142Y2912D01*
X5149Y2921D01*
X5153Y2932D01*
X5155Y2943D01*
X5153Y2955D01*
X5149Y2965D01*
X5142Y2974D01*
X5133Y2981D01*
X5122Y2986D01*
X5111Y2987D01*
D02*
G37*
G36*
X5664D02*
X5653Y2986D01*
X5642Y2981D01*
X5633Y2974D01*
X5626Y2965D01*
X5622Y2955D01*
X5620Y2943D01*
X5622Y2932D01*
X5626Y2921D01*
X5633Y2912D01*
X5642Y2905D01*
X5653Y2901D01*
X5664Y2899D01*
X5675Y2901D01*
X5686Y2905D01*
X5695Y2912D01*
X5702Y2921D01*
X5706Y2932D01*
X5708Y2943D01*
X5706Y2955D01*
X5702Y2965D01*
X5695Y2974D01*
X5686Y2981D01*
X5675Y2986D01*
X5664Y2987D01*
D02*
G37*
G36*
X5546D02*
X5535Y2986D01*
X5524Y2981D01*
X5515Y2974D01*
X5508Y2965D01*
X5504Y2955D01*
X5502Y2943D01*
X5504Y2932D01*
X5508Y2921D01*
X5515Y2912D01*
X5524Y2905D01*
X5535Y2901D01*
X5546Y2899D01*
X5557Y2901D01*
X5568Y2905D01*
X5577Y2912D01*
X5584Y2921D01*
X5588Y2932D01*
X5590Y2943D01*
X5588Y2955D01*
X5584Y2965D01*
X5577Y2974D01*
X5568Y2981D01*
X5557Y2986D01*
X5546Y2987D01*
D02*
G37*
G36*
X7379Y2868D02*
Y2835D01*
X7412D01*
X7411Y2836D01*
X7407Y2847D01*
X7400Y2856D01*
X7391Y2863D01*
X7380Y2867D01*
X7379Y2868D01*
D02*
G37*
G36*
X7241D02*
X7240Y2867D01*
X7229Y2863D01*
X7220Y2856D01*
X7213Y2847D01*
X7209Y2836D01*
X7208Y2835D01*
X7241D01*
Y2868D01*
D02*
G37*
G36*
X5239D02*
Y2835D01*
X5272D01*
X5271Y2836D01*
X5267Y2847D01*
X5260Y2856D01*
X5251Y2863D01*
X5240Y2867D01*
X5239Y2868D01*
D02*
G37*
G36*
X7359D02*
X7358Y2867D01*
X7347Y2863D01*
X7338Y2856D01*
X7331Y2847D01*
X7327Y2836D01*
X7327Y2835D01*
X7359D01*
Y2868D01*
D02*
G37*
G36*
X7261D02*
Y2835D01*
X7293D01*
X7293Y2836D01*
X7289Y2847D01*
X7282Y2856D01*
X7273Y2863D01*
X7262Y2867D01*
X7261Y2868D01*
D02*
G37*
G36*
X8791Y2822D02*
X8787Y2822D01*
X8774Y2817D01*
X8763Y2808D01*
X8755Y2797D01*
X8749Y2784D01*
X8749Y2780D01*
X8791D01*
Y2822D01*
D02*
G37*
G36*
X8310Y2855D02*
X8300Y2854D01*
X8290Y2850D01*
X8281Y2844D01*
X8275Y2835D01*
X8271Y2825D01*
X8270Y2815D01*
X8271Y2805D01*
X8275Y2795D01*
X8281Y2786D01*
X8290Y2780D01*
X8300Y2776D01*
X8310Y2775D01*
X8320Y2776D01*
X8330Y2780D01*
X8339Y2786D01*
X8345Y2795D01*
X8349Y2805D01*
X8350Y2815D01*
X8349Y2825D01*
X8345Y2835D01*
X8339Y2844D01*
X8330Y2850D01*
X8320Y2854D01*
X8310Y2855D01*
D02*
G37*
G36*
X5546Y2869D02*
X5535Y2867D01*
X5524Y2863D01*
X5515Y2856D01*
X5508Y2847D01*
X5504Y2836D01*
X5502Y2825D01*
X5504Y2814D01*
X5508Y2803D01*
X5515Y2794D01*
X5524Y2787D01*
X5535Y2783D01*
X5546Y2781D01*
X5557Y2783D01*
X5568Y2787D01*
X5577Y2794D01*
X5584Y2803D01*
X5588Y2814D01*
X5590Y2825D01*
X5588Y2836D01*
X5584Y2847D01*
X5577Y2856D01*
X5568Y2863D01*
X5557Y2867D01*
X5546Y2869D01*
D02*
G37*
G36*
X9036Y2822D02*
Y2780D01*
X9078D01*
X9078Y2784D01*
X9072Y2797D01*
X9064Y2808D01*
X9052Y2817D01*
X9040Y2822D01*
X9036Y2822D01*
D02*
G37*
G36*
X8210Y2945D02*
X8198Y2944D01*
X8187Y2939D01*
X8178Y2932D01*
X8171Y2923D01*
X8166Y2912D01*
X8165Y2900D01*
X8166Y2888D01*
X8171Y2877D01*
X8178Y2868D01*
X8187Y2861D01*
X8195Y2858D01*
Y2852D01*
X8190Y2850D01*
X8181Y2844D01*
X8175Y2835D01*
X8171Y2825D01*
X8170Y2815D01*
X8171Y2805D01*
X8175Y2795D01*
X8181Y2786D01*
X8190Y2780D01*
X8200Y2776D01*
X8210Y2775D01*
X8220Y2776D01*
X8230Y2780D01*
X8239Y2786D01*
X8245Y2795D01*
X8249Y2805D01*
X8250Y2815D01*
X8249Y2825D01*
X8245Y2835D01*
X8239Y2844D01*
X8230Y2850D01*
X8225Y2852D01*
Y2858D01*
X8233Y2861D01*
X8242Y2868D01*
X8249Y2877D01*
X8254Y2888D01*
X8255Y2900D01*
X8254Y2912D01*
X8249Y2923D01*
X8242Y2932D01*
X8233Y2939D01*
X8222Y2944D01*
X8210Y2945D01*
D02*
G37*
G36*
X8791Y2760D02*
X8749D01*
X8749Y2756D01*
X8755Y2743D01*
X8763Y2732D01*
X8774Y2723D01*
X8787Y2718D01*
X8791Y2718D01*
Y2760D01*
D02*
G37*
G36*
X9078D02*
X9036D01*
Y2718D01*
X9040Y2718D01*
X9052Y2723D01*
X9064Y2732D01*
X9072Y2743D01*
X9078Y2756D01*
X9078Y2760D01*
D02*
G37*
G36*
X8110Y2855D02*
X8100Y2854D01*
X8090Y2850D01*
X8081Y2844D01*
X8075Y2835D01*
X8071Y2825D01*
X8070Y2815D01*
X8071Y2805D01*
X8075Y2795D01*
X8081Y2786D01*
X8090Y2780D01*
X8100Y2776D01*
X8110Y2775D01*
X8120Y2776D01*
X8130Y2780D01*
X8139Y2786D01*
X8145Y2795D01*
X8149Y2805D01*
X8150Y2815D01*
X8149Y2825D01*
X8145Y2835D01*
X8139Y2844D01*
X8130Y2850D01*
X8120Y2854D01*
X8110Y2855D01*
D02*
G37*
G36*
X8010D02*
X8000Y2854D01*
X7990Y2850D01*
X7981Y2844D01*
X7975Y2835D01*
X7971Y2825D01*
X7970Y2815D01*
X7971Y2805D01*
X7975Y2795D01*
X7981Y2786D01*
X7990Y2780D01*
X8000Y2776D01*
X8010Y2775D01*
X8020Y2776D01*
X8030Y2780D01*
X8039Y2786D01*
X8045Y2795D01*
X8049Y2805D01*
X8050Y2815D01*
X8049Y2825D01*
X8045Y2835D01*
X8039Y2844D01*
X8030Y2850D01*
X8020Y2854D01*
X8010Y2855D01*
D02*
G37*
G36*
X5153Y2815D02*
X5121D01*
Y2783D01*
X5122Y2783D01*
X5133Y2787D01*
X5142Y2794D01*
X5149Y2803D01*
X5153Y2814D01*
X5153Y2815D01*
D02*
G37*
G36*
X5101D02*
X5068D01*
X5069Y2814D01*
X5073Y2803D01*
X5080Y2794D01*
X5089Y2787D01*
X5100Y2783D01*
X5101Y2783D01*
Y2815D01*
D02*
G37*
G36*
X5272D02*
X5239D01*
Y2783D01*
X5240Y2783D01*
X5251Y2787D01*
X5260Y2794D01*
X5267Y2803D01*
X5271Y2814D01*
X5272Y2815D01*
D02*
G37*
G36*
X5219D02*
X5187D01*
X5187Y2814D01*
X5191Y2803D01*
X5198Y2794D01*
X5207Y2787D01*
X5218Y2783D01*
X5219Y2783D01*
Y2815D01*
D02*
G37*
G36*
X7784Y2869D02*
X7773Y2867D01*
X7762Y2863D01*
X7753Y2856D01*
X7746Y2847D01*
X7742Y2836D01*
X7740Y2825D01*
X7742Y2814D01*
X7746Y2803D01*
X7753Y2794D01*
X7762Y2787D01*
X7773Y2783D01*
X7784Y2781D01*
X7795Y2783D01*
X7806Y2787D01*
X7815Y2794D01*
X7822Y2803D01*
X7826Y2814D01*
X7828Y2825D01*
X7826Y2836D01*
X7822Y2847D01*
X7815Y2856D01*
X7806Y2863D01*
X7795Y2867D01*
X7784Y2869D01*
D02*
G37*
G36*
X5961D02*
X5950Y2867D01*
X5939Y2863D01*
X5930Y2856D01*
X5923Y2847D01*
X5919Y2836D01*
X5917Y2825D01*
X5919Y2814D01*
X5923Y2803D01*
X5930Y2794D01*
X5939Y2787D01*
X5950Y2783D01*
X5961Y2781D01*
X5972Y2783D01*
X5983Y2787D01*
X5992Y2794D01*
X5999Y2803D01*
X6003Y2814D01*
X6005Y2825D01*
X6003Y2836D01*
X5999Y2847D01*
X5992Y2856D01*
X5983Y2863D01*
X5972Y2867D01*
X5961Y2869D01*
D02*
G37*
G36*
X5664D02*
X5653Y2867D01*
X5642Y2863D01*
X5633Y2856D01*
X5626Y2847D01*
X5622Y2836D01*
X5620Y2825D01*
X5622Y2814D01*
X5626Y2803D01*
X5633Y2794D01*
X5642Y2787D01*
X5653Y2783D01*
X5664Y2781D01*
X5675Y2783D01*
X5686Y2787D01*
X5695Y2794D01*
X5702Y2803D01*
X5706Y2814D01*
X5708Y2825D01*
X5706Y2836D01*
X5702Y2847D01*
X5695Y2856D01*
X5686Y2863D01*
X5675Y2867D01*
X5664Y2869D01*
D02*
G37*
G36*
X7666D02*
X7655Y2867D01*
X7644Y2863D01*
X7635Y2856D01*
X7628Y2847D01*
X7624Y2836D01*
X7622Y2825D01*
X7624Y2814D01*
X7628Y2803D01*
X7635Y2794D01*
X7644Y2787D01*
X7655Y2783D01*
X7666Y2781D01*
X7677Y2783D01*
X7688Y2787D01*
X7697Y2794D01*
X7704Y2803D01*
X7708Y2814D01*
X7710Y2825D01*
X7708Y2836D01*
X7704Y2847D01*
X7697Y2856D01*
X7688Y2863D01*
X7677Y2867D01*
X7666Y2869D01*
D02*
G37*
G36*
X6079D02*
X6068Y2867D01*
X6057Y2863D01*
X6048Y2856D01*
X6041Y2847D01*
X6037Y2836D01*
X6035Y2825D01*
X6037Y2814D01*
X6041Y2803D01*
X6048Y2794D01*
X6057Y2787D01*
X6068Y2783D01*
X6079Y2781D01*
X6090Y2783D01*
X6101Y2787D01*
X6110Y2794D01*
X6117Y2803D01*
X6121Y2814D01*
X6123Y2825D01*
X6121Y2836D01*
X6117Y2847D01*
X6110Y2856D01*
X6101Y2863D01*
X6090Y2867D01*
X6079Y2869D01*
D02*
G37*
G36*
X5961Y2987D02*
X5950Y2986D01*
X5939Y2981D01*
X5930Y2974D01*
X5923Y2965D01*
X5919Y2955D01*
X5917Y2943D01*
X5919Y2932D01*
X5923Y2921D01*
X5930Y2912D01*
X5939Y2905D01*
X5950Y2901D01*
X5961Y2899D01*
X5972Y2901D01*
X5983Y2905D01*
X5992Y2912D01*
X5999Y2921D01*
X6003Y2932D01*
X6005Y2943D01*
X6003Y2955D01*
X5999Y2965D01*
X5992Y2974D01*
X5983Y2981D01*
X5972Y2986D01*
X5961Y2987D01*
D02*
G37*
G36*
X7992Y3286D02*
X7983Y3285D01*
X7975Y3281D01*
X7967Y3275D01*
X7962Y3268D01*
X7958Y3260D01*
X7957Y3251D01*
X7958Y3241D01*
X7962Y3233D01*
X7967Y3226D01*
X7975Y3220D01*
X7983Y3216D01*
X7992Y3215D01*
X8002Y3216D01*
X8010Y3220D01*
X8017Y3226D01*
X8023Y3233D01*
X8026Y3241D01*
X8028Y3251D01*
X8026Y3260D01*
X8023Y3268D01*
X8017Y3275D01*
X8010Y3281D01*
X8002Y3285D01*
X7992Y3286D01*
D02*
G37*
G36*
X7290Y3209D02*
X7288Y3209D01*
X7277Y3204D01*
X7268Y3197D01*
X7263Y3191D01*
X7257D01*
X7252Y3197D01*
X7243Y3204D01*
X7232Y3209D01*
X7230Y3209D01*
Y3165D01*
Y3121D01*
X7232Y3121D01*
X7243Y3126D01*
X7252Y3133D01*
X7257Y3139D01*
X7263D01*
X7268Y3133D01*
X7277Y3126D01*
X7288Y3121D01*
X7290Y3121D01*
Y3165D01*
Y3209D01*
D02*
G37*
G36*
X5215Y3385D02*
X5206Y3384D01*
X5197Y3381D01*
X5190Y3375D01*
X5184Y3368D01*
X5181Y3359D01*
X5180Y3350D01*
X5181Y3341D01*
X5184Y3332D01*
X5190Y3325D01*
X5197Y3319D01*
X5206Y3316D01*
X5215Y3315D01*
X5224Y3316D01*
X5233Y3319D01*
X5240Y3325D01*
X5246Y3332D01*
X5249Y3341D01*
X5250Y3350D01*
X5249Y3359D01*
X5246Y3368D01*
X5240Y3375D01*
X5233Y3381D01*
X5224Y3384D01*
X5215Y3385D01*
D02*
G37*
G36*
X6250Y3305D02*
X6241Y3304D01*
X6232Y3301D01*
X6225Y3295D01*
X6219Y3288D01*
X6216Y3279D01*
X6215Y3270D01*
X6216Y3261D01*
X6219Y3252D01*
X6225Y3245D01*
X6232Y3239D01*
X6241Y3236D01*
X6250Y3235D01*
X6259Y3236D01*
X6268Y3239D01*
X6275Y3245D01*
X6281Y3252D01*
X6284Y3261D01*
X6285Y3270D01*
X6284Y3279D01*
X6281Y3288D01*
X6275Y3295D01*
X6268Y3301D01*
X6259Y3304D01*
X6250Y3305D01*
D02*
G37*
G36*
X7375Y3209D02*
X7373Y3209D01*
X7362Y3204D01*
X7353Y3197D01*
X7346Y3188D01*
X7345Y3186D01*
X7340D01*
X7339Y3188D01*
X7332Y3197D01*
X7323Y3204D01*
X7312Y3209D01*
X7310Y3209D01*
Y3165D01*
Y3121D01*
X7312Y3121D01*
X7323Y3126D01*
X7332Y3133D01*
X7339Y3142D01*
X7340Y3144D01*
X7345D01*
X7346Y3142D01*
X7353Y3133D01*
X7362Y3126D01*
X7373Y3121D01*
X7375Y3121D01*
Y3165D01*
Y3209D01*
D02*
G37*
G36*
X9762Y3215D02*
X9750Y3214D01*
X9739Y3209D01*
X9730Y3202D01*
X9722Y3192D01*
X9718Y3181D01*
X9716Y3169D01*
X9718Y3158D01*
X9722Y3146D01*
X9730Y3137D01*
X9739Y3130D01*
X9750Y3125D01*
X9762Y3123D01*
X9774Y3125D01*
X9785Y3130D01*
X9795Y3137D01*
X9802Y3146D01*
X9807Y3158D01*
X9808Y3169D01*
X9807Y3181D01*
X9802Y3192D01*
X9795Y3202D01*
X9785Y3209D01*
X9774Y3214D01*
X9762Y3215D01*
D02*
G37*
G36*
X9270D02*
X9258Y3214D01*
X9247Y3209D01*
X9237Y3202D01*
X9230Y3192D01*
X9226Y3181D01*
X9224Y3169D01*
X9226Y3158D01*
X9230Y3146D01*
X9237Y3137D01*
X9247Y3130D01*
X9258Y3125D01*
X9270Y3123D01*
X9282Y3125D01*
X9293Y3130D01*
X9303Y3137D01*
X9310Y3146D01*
X9314Y3158D01*
X9316Y3169D01*
X9314Y3181D01*
X9310Y3192D01*
X9303Y3202D01*
X9293Y3209D01*
X9282Y3214D01*
X9270Y3215D01*
D02*
G37*
G36*
X7395Y3209D02*
Y3175D01*
X7429D01*
X7429Y3177D01*
X7424Y3188D01*
X7417Y3197D01*
X7408Y3204D01*
X7397Y3209D01*
X7395Y3209D01*
D02*
G37*
G36*
X7210D02*
X7208Y3209D01*
X7197Y3204D01*
X7188Y3197D01*
X7181Y3188D01*
X7176Y3177D01*
X7176Y3175D01*
X7210D01*
Y3209D01*
D02*
G37*
G36*
X9762Y3412D02*
X9750Y3411D01*
X9739Y3406D01*
X9730Y3399D01*
X9722Y3389D01*
X9718Y3378D01*
X9716Y3366D01*
X9718Y3354D01*
X9722Y3343D01*
X9730Y3334D01*
X9739Y3326D01*
X9750Y3322D01*
X9762Y3320D01*
X9774Y3322D01*
X9785Y3326D01*
X9795Y3334D01*
X9802Y3343D01*
X9807Y3354D01*
X9808Y3366D01*
X9807Y3378D01*
X9802Y3389D01*
X9795Y3399D01*
X9785Y3406D01*
X9774Y3411D01*
X9762Y3412D01*
D02*
G37*
G36*
X9270D02*
X9258Y3411D01*
X9247Y3406D01*
X9237Y3399D01*
X9230Y3389D01*
X9226Y3378D01*
X9224Y3366D01*
X9226Y3354D01*
X9230Y3343D01*
X9237Y3334D01*
X9247Y3326D01*
X9258Y3322D01*
X9270Y3320D01*
X9282Y3322D01*
X9293Y3326D01*
X9303Y3334D01*
X9310Y3343D01*
X9314Y3354D01*
X9316Y3366D01*
X9314Y3378D01*
X9310Y3389D01*
X9303Y3399D01*
X9293Y3406D01*
X9282Y3411D01*
X9270Y3412D01*
D02*
G37*
G36*
X9154Y2990D02*
X9120D01*
Y2956D01*
X9122Y2956D01*
X9133Y2961D01*
X9142Y2968D01*
X9149Y2977D01*
X9154Y2988D01*
X9154Y2990D01*
D02*
G37*
G36*
X8940D02*
X8906D01*
X8906Y2988D01*
X8911Y2977D01*
X8918Y2968D01*
X8927Y2961D01*
X8938Y2956D01*
X8940Y2956D01*
Y2990D01*
D02*
G37*
G36*
X10069Y3025D02*
X10045D01*
Y3001D01*
X10053Y3004D01*
X10060Y3010D01*
X10066Y3017D01*
X10069Y3025D01*
D02*
G37*
G36*
X10025D02*
X10001D01*
X10004Y3017D01*
X10010Y3010D01*
X10017Y3004D01*
X10025Y3001D01*
Y3025D01*
D02*
G37*
G36*
X7784Y2987D02*
X7773Y2986D01*
X7762Y2981D01*
X7753Y2974D01*
X7746Y2965D01*
X7742Y2955D01*
X7740Y2943D01*
X7742Y2932D01*
X7746Y2921D01*
X7753Y2912D01*
X7762Y2905D01*
X7773Y2901D01*
X7784Y2899D01*
X7795Y2901D01*
X7806Y2905D01*
X7815Y2912D01*
X7822Y2921D01*
X7826Y2932D01*
X7828Y2943D01*
X7826Y2955D01*
X7822Y2965D01*
X7815Y2974D01*
X7806Y2981D01*
X7795Y2986D01*
X7784Y2987D01*
D02*
G37*
G36*
X7251D02*
X7240Y2986D01*
X7229Y2981D01*
X7220Y2974D01*
X7213Y2965D01*
X7209Y2955D01*
X7207Y2943D01*
X7209Y2932D01*
X7213Y2921D01*
X7220Y2912D01*
X7229Y2905D01*
X7240Y2901D01*
X7251Y2899D01*
X7262Y2901D01*
X7273Y2905D01*
X7282Y2912D01*
X7289Y2921D01*
X7293Y2932D01*
X7295Y2943D01*
X7293Y2955D01*
X7289Y2965D01*
X7282Y2974D01*
X7273Y2981D01*
X7262Y2986D01*
X7251Y2987D01*
D02*
G37*
G36*
X6079D02*
X6068Y2986D01*
X6057Y2981D01*
X6048Y2974D01*
X6041Y2965D01*
X6037Y2955D01*
X6035Y2943D01*
X6037Y2932D01*
X6041Y2921D01*
X6048Y2912D01*
X6057Y2905D01*
X6068Y2901D01*
X6079Y2899D01*
X6090Y2901D01*
X6101Y2905D01*
X6110Y2912D01*
X6117Y2921D01*
X6121Y2932D01*
X6123Y2943D01*
X6121Y2955D01*
X6117Y2965D01*
X6110Y2974D01*
X6101Y2981D01*
X6090Y2986D01*
X6079Y2987D01*
D02*
G37*
G36*
X7666D02*
X7655Y2986D01*
X7644Y2981D01*
X7635Y2974D01*
X7628Y2965D01*
X7624Y2955D01*
X7622Y2943D01*
X7624Y2932D01*
X7628Y2921D01*
X7635Y2912D01*
X7644Y2905D01*
X7655Y2901D01*
X7666Y2899D01*
X7677Y2901D01*
X7688Y2905D01*
X7697Y2912D01*
X7704Y2921D01*
X7708Y2932D01*
X7710Y2943D01*
X7708Y2955D01*
X7704Y2965D01*
X7697Y2974D01*
X7688Y2981D01*
X7677Y2986D01*
X7666Y2987D01*
D02*
G37*
G36*
X7369D02*
X7358Y2986D01*
X7347Y2981D01*
X7338Y2974D01*
X7331Y2965D01*
X7327Y2955D01*
X7325Y2943D01*
X7327Y2932D01*
X7331Y2921D01*
X7338Y2912D01*
X7347Y2905D01*
X7358Y2901D01*
X7369Y2899D01*
X7380Y2901D01*
X7391Y2905D01*
X7400Y2912D01*
X7407Y2921D01*
X7411Y2932D01*
X7413Y2943D01*
X7411Y2955D01*
X7407Y2965D01*
X7400Y2974D01*
X7391Y2981D01*
X7380Y2986D01*
X7369Y2987D01*
D02*
G37*
G36*
X10045Y3069D02*
Y3045D01*
X10069D01*
X10066Y3053D01*
X10060Y3060D01*
X10053Y3066D01*
X10045Y3069D01*
D02*
G37*
G36*
X10025D02*
X10017Y3066D01*
X10010Y3060D01*
X10004Y3053D01*
X10001Y3045D01*
X10025D01*
Y3069D01*
D02*
G37*
G36*
X7429Y3155D02*
X7395D01*
Y3121D01*
X7397Y3121D01*
X7408Y3126D01*
X7417Y3133D01*
X7424Y3142D01*
X7429Y3153D01*
X7429Y3155D01*
D02*
G37*
G36*
X7210D02*
X7176D01*
X7176Y3153D01*
X7181Y3142D01*
X7188Y3133D01*
X7197Y3126D01*
X7208Y3121D01*
X7210Y3121D01*
Y3155D01*
D02*
G37*
G36*
X7205Y3110D02*
X7196Y3109D01*
X7187Y3106D01*
X7180Y3100D01*
X7174Y3093D01*
X7171Y3084D01*
X7170Y3075D01*
X7171Y3066D01*
X7174Y3057D01*
X7180Y3050D01*
X7187Y3044D01*
X7196Y3041D01*
X7205Y3040D01*
X7214Y3041D01*
X7223Y3044D01*
X7230Y3050D01*
X7236Y3057D01*
X7239Y3066D01*
X7240Y3075D01*
X7239Y3084D01*
X7236Y3093D01*
X7230Y3100D01*
X7223Y3106D01*
X7214Y3109D01*
X7205Y3110D01*
D02*
G37*
G36*
X9120Y3044D02*
Y3010D01*
X9154D01*
X9154Y3012D01*
X9149Y3023D01*
X9142Y3032D01*
X9133Y3039D01*
X9122Y3044D01*
X9120Y3044D01*
D02*
G37*
G36*
X8940D02*
X8938Y3044D01*
X8927Y3039D01*
X8918Y3032D01*
X8911Y3023D01*
X8906Y3012D01*
X8906Y3010D01*
X8940D01*
Y3044D01*
D02*
G37*
G36*
X9100D02*
X9098Y3044D01*
X9087Y3039D01*
X9078Y3032D01*
X9073Y3026D01*
X9067D01*
X9062Y3032D01*
X9053Y3039D01*
X9042Y3044D01*
X9040Y3044D01*
Y3000D01*
Y2956D01*
X9042Y2956D01*
X9053Y2961D01*
X9062Y2968D01*
X9067Y2974D01*
X9073D01*
X9078Y2968D01*
X9087Y2961D01*
X9098Y2956D01*
X9100Y2956D01*
Y3000D01*
Y3044D01*
D02*
G37*
G36*
X9020D02*
X9018Y3044D01*
X9007Y3039D01*
X8998Y3032D01*
X8993Y3026D01*
X8987D01*
X8982Y3032D01*
X8973Y3039D01*
X8962Y3044D01*
X8960Y3044D01*
Y3000D01*
Y2956D01*
X8962Y2956D01*
X8973Y2961D01*
X8982Y2968D01*
X8987Y2974D01*
X8993D01*
X8998Y2968D01*
X9007Y2961D01*
X9018Y2956D01*
X9020Y2956D01*
Y3000D01*
Y3044D01*
D02*
G37*
G36*
X8752Y4796D02*
X8743Y4794D01*
X8734Y4789D01*
X8729Y4780D01*
X8727Y4771D01*
X8729Y4761D01*
X8734Y4753D01*
X8743Y4747D01*
X8752Y4745D01*
X8762Y4747D01*
X8770Y4753D01*
X8776Y4761D01*
X8778Y4771D01*
X8776Y4780D01*
X8770Y4789D01*
X8762Y4794D01*
X8752Y4796D01*
D02*
G37*
G36*
X7793Y4786D02*
X7742D01*
X7743Y4782D01*
X7747Y4777D01*
X7747Y4774D01*
X7746Y4771D01*
X7744Y4770D01*
X7738Y4765D01*
X7733Y4759D01*
X7731Y4753D01*
X7730Y4746D01*
X7731Y4738D01*
X7733Y4732D01*
X7738Y4726D01*
X7744Y4722D01*
X7750Y4719D01*
X7757Y4718D01*
X7765Y4719D01*
X7771Y4722D01*
X7777Y4726D01*
X7781Y4732D01*
X7784Y4738D01*
X7785Y4746D01*
X7784Y4753D01*
X7781Y4759D01*
X7777Y4765D01*
X7778Y4767D01*
X7778Y4770D01*
X7781Y4772D01*
X7787Y4776D01*
X7791Y4782D01*
X7793Y4786D01*
D02*
G37*
G36*
X6011Y4742D02*
X6004Y4741D01*
X5997Y4738D01*
X5991Y4734D01*
X5987Y4728D01*
X5984Y4721D01*
X5983Y4714D01*
X5984Y4707D01*
X5987Y4700D01*
X5991Y4694D01*
X5997Y4690D01*
X6004Y4687D01*
X6011Y4686D01*
X6018Y4687D01*
X6025Y4690D01*
X6031Y4694D01*
X6035Y4700D01*
X6038Y4707D01*
X6039Y4714D01*
X6038Y4721D01*
X6035Y4728D01*
X6031Y4734D01*
X6025Y4738D01*
X6018Y4741D01*
X6011Y4742D01*
D02*
G37*
G36*
X7350Y4915D02*
X7332Y4914D01*
X7314Y4910D01*
X7298Y4903D01*
X7282Y4893D01*
X7268Y4882D01*
X7257Y4868D01*
X7247Y4852D01*
X7240Y4836D01*
X7236Y4818D01*
X7235Y4800D01*
X7236Y4782D01*
X7240Y4764D01*
X7247Y4748D01*
X7257Y4732D01*
X7268Y4718D01*
X7282Y4707D01*
X7298Y4697D01*
X7314Y4690D01*
X7332Y4686D01*
X7350Y4685D01*
X7368Y4686D01*
X7386Y4690D01*
X7402Y4697D01*
X7418Y4707D01*
X7432Y4718D01*
X7443Y4732D01*
X7453Y4748D01*
X7460Y4764D01*
X7464Y4782D01*
X7465Y4800D01*
X7464Y4818D01*
X7460Y4836D01*
X7453Y4852D01*
X7443Y4868D01*
X7432Y4882D01*
X7418Y4893D01*
X7402Y4903D01*
X7386Y4910D01*
X7368Y4914D01*
X7350Y4915D01*
D02*
G37*
G36*
X6885Y4735D02*
X6875Y4734D01*
X6867Y4728D01*
X6861Y4720D01*
X6860Y4710D01*
X6861Y4703D01*
X6856Y4701D01*
X6855Y4703D01*
X6847Y4709D01*
X6837Y4710D01*
X6827Y4709D01*
X6819Y4703D01*
X6813Y4695D01*
X6811Y4685D01*
X6813Y4675D01*
X6819Y4667D01*
X6827Y4661D01*
X6837Y4660D01*
X6847Y4661D01*
X6855Y4667D01*
X6860Y4675D01*
X6862Y4685D01*
X6861Y4692D01*
X6866Y4694D01*
X6867Y4692D01*
X6875Y4686D01*
X6885Y4685D01*
X6895Y4686D01*
X6903Y4692D01*
X6909Y4700D01*
X6910Y4710D01*
X6909Y4720D01*
X6903Y4728D01*
X6895Y4734D01*
X6885Y4735D01*
D02*
G37*
G36*
X6695Y4745D02*
X6685Y4744D01*
X6677Y4738D01*
X6671Y4730D01*
X6670Y4720D01*
X6671Y4710D01*
X6677Y4702D01*
X6685Y4696D01*
X6695Y4695D01*
X6705Y4696D01*
X6713Y4702D01*
X6719Y4710D01*
X6720Y4720D01*
X6719Y4730D01*
X6713Y4738D01*
X6705Y4744D01*
X6695Y4745D01*
D02*
G37*
G36*
X8147Y4706D02*
X8138Y4704D01*
X8129Y4699D01*
X8124Y4690D01*
X8122Y4681D01*
X8124Y4671D01*
X8129Y4663D01*
X8138Y4657D01*
X8147Y4655D01*
X8157Y4657D01*
X8165Y4663D01*
X8168Y4667D01*
X8174Y4666D01*
X8174Y4666D01*
X8179Y4658D01*
X8188Y4652D01*
X8197Y4650D01*
X8207Y4652D01*
X8215Y4658D01*
X8221Y4666D01*
X8223Y4676D01*
X8221Y4685D01*
X8215Y4694D01*
X8207Y4699D01*
X8197Y4701D01*
X8188Y4699D01*
X8179Y4694D01*
X8176Y4689D01*
X8171Y4690D01*
X8171Y4690D01*
X8165Y4699D01*
X8157Y4704D01*
X8147Y4706D01*
D02*
G37*
G36*
X7762Y4708D02*
X7755Y4707D01*
X7749Y4705D01*
X7743Y4700D01*
X7738Y4694D01*
X7736Y4688D01*
X7735Y4681D01*
X7736Y4673D01*
X7738Y4667D01*
X7743Y4661D01*
X7749Y4657D01*
X7755Y4654D01*
X7762Y4653D01*
X7770Y4654D01*
X7771Y4654D01*
X7772Y4654D01*
X7775Y4651D01*
X7775Y4646D01*
X7776Y4638D01*
X7778Y4632D01*
X7783Y4626D01*
X7789Y4622D01*
X7795Y4619D01*
X7802Y4618D01*
X7810Y4619D01*
X7816Y4622D01*
X7822Y4626D01*
X7826Y4632D01*
X7829Y4638D01*
X7830Y4646D01*
X7829Y4653D01*
X7826Y4659D01*
X7822Y4665D01*
X7816Y4670D01*
X7810Y4672D01*
X7802Y4673D01*
X7795Y4672D01*
X7794Y4672D01*
X7793Y4672D01*
X7789Y4675D01*
X7790Y4681D01*
X7789Y4688D01*
X7786Y4694D01*
X7782Y4700D01*
X7776Y4705D01*
X7770Y4707D01*
X7762Y4708D01*
D02*
G37*
G36*
X8132Y4646D02*
X8123Y4644D01*
X8114Y4639D01*
X8109Y4630D01*
X8107Y4621D01*
X8109Y4611D01*
X8114Y4603D01*
X8123Y4597D01*
X8132Y4595D01*
X8142Y4597D01*
X8147Y4600D01*
X8152Y4598D01*
X8153Y4591D01*
X8157Y4583D01*
X8162Y4576D01*
X8170Y4570D01*
X8178Y4566D01*
X8187Y4565D01*
X8197Y4566D01*
X8205Y4570D01*
X8212Y4576D01*
X8218Y4583D01*
X8221Y4591D01*
X8223Y4601D01*
X8221Y4610D01*
X8218Y4618D01*
X8212Y4625D01*
X8205Y4631D01*
X8197Y4635D01*
X8187Y4636D01*
X8178Y4635D01*
X8170Y4631D01*
X8162Y4625D01*
X8162Y4625D01*
X8157Y4626D01*
X8156Y4630D01*
X8150Y4639D01*
X8142Y4644D01*
X8132Y4646D01*
D02*
G37*
G36*
X6260Y4635D02*
X6250Y4634D01*
X6242Y4628D01*
X6236Y4620D01*
X6235Y4610D01*
X6236Y4600D01*
X6242Y4592D01*
X6250Y4586D01*
X6260Y4585D01*
X6270Y4586D01*
X6270Y4586D01*
X6271Y4580D01*
X6277Y4572D01*
X6285Y4566D01*
X6295Y4565D01*
X6305Y4566D01*
X6313Y4572D01*
X6319Y4580D01*
X6320Y4590D01*
X6319Y4600D01*
X6313Y4608D01*
X6305Y4614D01*
X6295Y4615D01*
X6285Y4614D01*
X6285Y4614D01*
X6284Y4620D01*
X6278Y4628D01*
X6270Y4634D01*
X6260Y4635D01*
D02*
G37*
G36*
X6695Y4683D02*
Y4660D01*
X6685D01*
Y4650D01*
X6662D01*
X6667Y4642D01*
X6675Y4636D01*
X6685Y4635D01*
X6695Y4636D01*
X6695Y4636D01*
X6696Y4630D01*
X6702Y4622D01*
X6710Y4616D01*
X6720Y4615D01*
X6730Y4616D01*
X6738Y4622D01*
X6744Y4630D01*
X6745Y4640D01*
X6744Y4650D01*
X6738Y4658D01*
X6730Y4664D01*
X6720Y4665D01*
X6710Y4664D01*
X6710Y4664D01*
X6709Y4670D01*
X6703Y4678D01*
X6695Y4683D01*
D02*
G37*
G36*
X6000Y4601D02*
Y4585D01*
X6016D01*
X6014Y4589D01*
X6010Y4595D01*
X6004Y4599D01*
X6000Y4601D01*
D02*
G37*
G36*
X8602Y4826D02*
X8593Y4824D01*
X8584Y4819D01*
X8579Y4810D01*
X8577Y4801D01*
X8579Y4791D01*
X8584Y4783D01*
X8588Y4780D01*
X8587Y4775D01*
X8583Y4774D01*
X8574Y4769D01*
X8569Y4761D01*
X8592D01*
Y4741D01*
X8569D01*
X8574Y4733D01*
X8583Y4727D01*
X8592Y4725D01*
X8597Y4726D01*
X8602Y4726D01*
X8603Y4722D01*
X8604Y4716D01*
X8609Y4708D01*
X8618Y4702D01*
X8625Y4701D01*
Y4695D01*
X8618Y4694D01*
X8609Y4689D01*
X8604Y4680D01*
X8602Y4672D01*
X8598Y4669D01*
X8597Y4669D01*
X8587Y4671D01*
X8578Y4669D01*
X8569Y4664D01*
X8564Y4655D01*
X8562Y4646D01*
X8564Y4636D01*
X8569Y4628D01*
X8578Y4622D01*
X8587Y4620D01*
X8597Y4622D01*
X8598Y4623D01*
X8603Y4621D01*
X8604Y4616D01*
X8609Y4608D01*
X8618Y4602D01*
X8627Y4600D01*
X8637Y4602D01*
X8645Y4608D01*
X8647Y4610D01*
X8741D01*
X8772Y4579D01*
Y4563D01*
X8768Y4560D01*
X8762Y4561D01*
X8753Y4559D01*
X8744Y4554D01*
X8739Y4545D01*
X8737Y4536D01*
X8739Y4526D01*
X8744Y4518D01*
X8747Y4516D01*
Y4487D01*
X8691Y4430D01*
X8685Y4432D01*
X8680Y4439D01*
X8672Y4444D01*
X8662Y4446D01*
X8653Y4444D01*
X8644Y4439D01*
X8639Y4430D01*
X8637Y4421D01*
X8639Y4411D01*
X8644Y4403D01*
X8651Y4398D01*
X8653Y4392D01*
X8596Y4336D01*
X8477D01*
X8472Y4335D01*
X8467Y4331D01*
X8352Y4216D01*
X8348Y4211D01*
X8347Y4206D01*
Y3751D01*
X8348Y3745D01*
X8352Y3740D01*
X8394Y3697D01*
X8393Y3695D01*
X8392Y3686D01*
X8393Y3676D01*
X8397Y3668D01*
X8402Y3661D01*
X8410Y3655D01*
X8418Y3651D01*
X8427Y3650D01*
X8437Y3651D01*
X8445Y3655D01*
X8452Y3661D01*
X8458Y3668D01*
X8461Y3676D01*
X8463Y3686D01*
X8461Y3695D01*
X8458Y3703D01*
X8452Y3710D01*
X8445Y3716D01*
X8437Y3720D01*
X8427Y3721D01*
X8418Y3720D01*
X8416Y3719D01*
X8378Y3757D01*
Y4199D01*
X8484Y4305D01*
X8602D01*
X8608Y4306D01*
X8613Y4310D01*
X8767Y4464D01*
X8772Y4462D01*
Y4422D01*
X8629Y4279D01*
X8627Y4280D01*
X8617Y4281D01*
X8608Y4280D01*
X8600Y4276D01*
X8592Y4270D01*
X8587Y4263D01*
X8583Y4255D01*
X8582Y4246D01*
X8583Y4236D01*
X8587Y4228D01*
X8592Y4221D01*
X8600Y4215D01*
X8608Y4211D01*
X8617Y4210D01*
X8627Y4211D01*
X8635Y4215D01*
X8642Y4221D01*
X8648Y4228D01*
X8651Y4236D01*
X8653Y4246D01*
X8651Y4255D01*
X8651Y4257D01*
X8798Y4405D01*
X8802Y4410D01*
X8803Y4416D01*
Y4586D01*
X8802Y4591D01*
X8798Y4596D01*
X8758Y4636D01*
X8753Y4640D01*
X8747Y4641D01*
X8647D01*
X8645Y4644D01*
X8642Y4646D01*
Y4651D01*
X8645Y4653D01*
X8651Y4661D01*
X8653Y4671D01*
X8651Y4680D01*
X8645Y4689D01*
X8637Y4694D01*
X8630Y4695D01*
Y4701D01*
X8637Y4702D01*
X8645Y4708D01*
X8651Y4716D01*
X8653Y4726D01*
X8651Y4735D01*
X8645Y4744D01*
X8637Y4749D01*
X8627Y4751D01*
X8623Y4750D01*
X8618Y4751D01*
X8617Y4754D01*
X8616Y4760D01*
X8610Y4769D01*
X8607Y4771D01*
X8608Y4776D01*
X8612Y4777D01*
X8620Y4783D01*
X8626Y4791D01*
X8628Y4801D01*
X8626Y4810D01*
X8620Y4819D01*
X8612Y4824D01*
X8602Y4826D01*
D02*
G37*
G36*
X8837Y4716D02*
X8828Y4714D01*
X8819Y4709D01*
X8814Y4700D01*
X8812Y4691D01*
X8814Y4681D01*
X8819Y4673D01*
X8828Y4667D01*
X8837Y4665D01*
X8847Y4667D01*
X8855Y4673D01*
X8861Y4681D01*
X8863Y4691D01*
X8861Y4700D01*
X8855Y4709D01*
X8847Y4714D01*
X8837Y4716D01*
D02*
G37*
G36*
X7917Y4738D02*
X7910Y4737D01*
X7904Y4735D01*
X7898Y4730D01*
X7893Y4724D01*
X7891Y4718D01*
X7890Y4711D01*
X7891Y4703D01*
X7893Y4697D01*
X7898Y4691D01*
X7904Y4687D01*
X7910Y4684D01*
X7917Y4683D01*
X7925Y4684D01*
X7931Y4687D01*
X7937Y4691D01*
X7941Y4697D01*
X7944Y4703D01*
X7945Y4711D01*
X7944Y4718D01*
X7941Y4724D01*
X7937Y4730D01*
X7931Y4735D01*
X7925Y4737D01*
X7917Y4738D01*
D02*
G37*
G36*
X6675Y4683D02*
X6667Y4678D01*
X6662Y4670D01*
X6675D01*
Y4683D01*
D02*
G37*
G36*
X6457Y4923D02*
X6450Y4922D01*
X6444Y4919D01*
X6438Y4915D01*
X6433Y4909D01*
X6431Y4902D01*
X6430Y4895D01*
X6431Y4888D01*
X6433Y4881D01*
X6438Y4875D01*
X6444Y4871D01*
X6450Y4868D01*
X6457Y4867D01*
X6465Y4868D01*
X6471Y4871D01*
X6477Y4875D01*
X6482Y4881D01*
X6484Y4888D01*
X6485Y4895D01*
X6484Y4902D01*
X6482Y4909D01*
X6477Y4915D01*
X6471Y4919D01*
X6465Y4922D01*
X6457Y4923D01*
D02*
G37*
G36*
X9124Y4880D02*
X9100D01*
Y4856D01*
X9108Y4859D01*
X9115Y4865D01*
X9121Y4872D01*
X9124Y4880D01*
D02*
G37*
G36*
X6706Y4885D02*
X6690D01*
Y4869D01*
X6694Y4871D01*
X6700Y4875D01*
X6704Y4881D01*
X6706Y4885D01*
D02*
G37*
G36*
X6670D02*
X6654D01*
X6656Y4881D01*
X6660Y4875D01*
X6666Y4871D01*
X6670Y4869D01*
Y4885D01*
D02*
G37*
G36*
X9080Y4880D02*
X9056D01*
X9059Y4872D01*
X9065Y4865D01*
X9072Y4859D01*
X9080Y4856D01*
Y4880D01*
D02*
G37*
G36*
X8569Y4945D02*
X8545D01*
Y4921D01*
X8553Y4924D01*
X8560Y4930D01*
X8566Y4937D01*
X8569Y4945D01*
D02*
G37*
G36*
X8525D02*
X8501D01*
X8504Y4937D01*
X8510Y4930D01*
X8517Y4924D01*
X8525Y4921D01*
Y4945D01*
D02*
G37*
G36*
X8545Y4989D02*
Y4965D01*
X8569D01*
X8566Y4973D01*
X8560Y4980D01*
X8553Y4986D01*
X8545Y4989D01*
D02*
G37*
G36*
X8525D02*
X8517Y4986D01*
X8510Y4980D01*
X8504Y4973D01*
X8501Y4965D01*
X8525D01*
Y4989D01*
D02*
G37*
G36*
X8245Y4985D02*
X8236Y4984D01*
X8227Y4981D01*
X8220Y4975D01*
X8214Y4968D01*
X8211Y4959D01*
X8210Y4950D01*
X8211Y4941D01*
X8214Y4932D01*
X8220Y4925D01*
X8227Y4919D01*
X8236Y4916D01*
X8245Y4915D01*
X8254Y4916D01*
X8263Y4919D01*
X8270Y4925D01*
X8276Y4932D01*
X8279Y4941D01*
X8280Y4950D01*
X8279Y4959D01*
X8276Y4968D01*
X8270Y4975D01*
X8263Y4981D01*
X8254Y4984D01*
X8245Y4985D01*
D02*
G37*
G36*
X9100Y4924D02*
Y4900D01*
X9124D01*
X9121Y4908D01*
X9115Y4915D01*
X9108Y4921D01*
X9100Y4924D01*
D02*
G37*
G36*
X9080D02*
X9072Y4921D01*
X9065Y4915D01*
X9059Y4908D01*
X9056Y4900D01*
X9080D01*
Y4924D01*
D02*
G37*
G36*
X6690Y4921D02*
Y4905D01*
X6706D01*
X6704Y4909D01*
X6700Y4915D01*
X6694Y4919D01*
X6690Y4921D01*
D02*
G37*
G36*
X6670D02*
X6666Y4919D01*
X6660Y4915D01*
X6656Y4909D01*
X6654Y4905D01*
X6670D01*
Y4921D01*
D02*
G37*
G36*
X7777Y4821D02*
Y4806D01*
X7793D01*
X7791Y4809D01*
X7787Y4815D01*
X7781Y4820D01*
X7777Y4821D01*
D02*
G37*
G36*
X7757D02*
X7754Y4820D01*
X7748Y4815D01*
X7743Y4809D01*
X7742Y4806D01*
X7757D01*
Y4821D01*
D02*
G37*
G36*
X5925Y4850D02*
X5915Y4849D01*
X5907Y4843D01*
X5901Y4835D01*
X5900Y4825D01*
X5901Y4815D01*
X5907Y4807D01*
X5915Y4801D01*
X5925Y4800D01*
X5935Y4801D01*
X5943Y4807D01*
X5949Y4815D01*
X5950Y4825D01*
X5949Y4835D01*
X5943Y4843D01*
X5935Y4849D01*
X5925Y4850D01*
D02*
G37*
G36*
X6016Y4565D02*
X6000D01*
Y4549D01*
X6004Y4551D01*
X6010Y4555D01*
X6014Y4561D01*
X6016Y4565D01*
D02*
G37*
G36*
X5095Y4139D02*
Y4115D01*
X5119D01*
X5116Y4123D01*
X5110Y4130D01*
X5103Y4136D01*
X5095Y4139D01*
D02*
G37*
G36*
X5075D02*
X5067Y4136D01*
X5060Y4130D01*
X5054Y4123D01*
X5051Y4115D01*
X5075D01*
Y4139D01*
D02*
G37*
G36*
X6565Y4180D02*
X6556Y4179D01*
X6547Y4176D01*
X6540Y4170D01*
X6534Y4163D01*
X6531Y4154D01*
X6530Y4145D01*
X6531Y4136D01*
X6534Y4127D01*
X6540Y4120D01*
X6547Y4114D01*
X6556Y4111D01*
X6565Y4110D01*
X6574Y4111D01*
X6583Y4114D01*
X6590Y4120D01*
X6596Y4127D01*
X6599Y4136D01*
X6600Y4145D01*
X6599Y4154D01*
X6596Y4163D01*
X6590Y4170D01*
X6583Y4176D01*
X6574Y4179D01*
X6565Y4180D01*
D02*
G37*
G36*
X7687Y4366D02*
X7676Y4364D01*
X7665Y4360D01*
X7655Y4353D01*
X7648Y4343D01*
X7644Y4332D01*
X7642Y4321D01*
X7644Y4309D01*
X7648Y4298D01*
X7655Y4288D01*
X7665Y4281D01*
X7676Y4277D01*
X7687Y4275D01*
X7699Y4277D01*
X7710Y4281D01*
X7719Y4288D01*
X7727Y4298D01*
X7731Y4309D01*
X7733Y4321D01*
X7731Y4332D01*
X7727Y4343D01*
X7719Y4353D01*
X7710Y4360D01*
X7699Y4364D01*
X7687Y4366D01*
D02*
G37*
G36*
X6290Y4260D02*
X6280Y4259D01*
X6272Y4253D01*
X6266Y4245D01*
X6265Y4235D01*
X6266Y4225D01*
X6272Y4217D01*
X6280Y4211D01*
X6290Y4210D01*
X6300Y4211D01*
X6308Y4217D01*
X6314Y4225D01*
X6315Y4235D01*
X6314Y4245D01*
X6308Y4253D01*
X6300Y4259D01*
X6290Y4260D01*
D02*
G37*
G36*
X8282Y4281D02*
X8273Y4280D01*
X8265Y4276D01*
X8257Y4270D01*
X8252Y4263D01*
X8248Y4255D01*
X8247Y4246D01*
X8248Y4236D01*
X8252Y4228D01*
X8257Y4221D01*
X8265Y4215D01*
X8273Y4211D01*
X8282Y4210D01*
X8292Y4211D01*
X8300Y4215D01*
X8307Y4221D01*
X8313Y4228D01*
X8316Y4236D01*
X8318Y4246D01*
X8316Y4255D01*
X8313Y4263D01*
X8307Y4270D01*
X8300Y4276D01*
X8292Y4280D01*
X8282Y4281D01*
D02*
G37*
G36*
X5719Y4050D02*
X5685D01*
Y4016D01*
X5687Y4016D01*
X5698Y4021D01*
X5707Y4028D01*
X5714Y4037D01*
X5719Y4048D01*
X5719Y4050D01*
D02*
G37*
G36*
X5665D02*
X5631D01*
X5631Y4048D01*
X5636Y4037D01*
X5643Y4028D01*
X5652Y4021D01*
X5663Y4016D01*
X5665Y4016D01*
Y4050D01*
D02*
G37*
G36*
X5075Y4095D02*
X5051D01*
X5054Y4087D01*
X5060Y4080D01*
X5067Y4074D01*
X5075Y4071D01*
Y4095D01*
D02*
G37*
G36*
X5685Y4104D02*
Y4070D01*
X5719D01*
X5719Y4072D01*
X5714Y4083D01*
X5707Y4092D01*
X5698Y4099D01*
X5687Y4104D01*
X5685Y4104D01*
D02*
G37*
G36*
X5119Y4095D02*
X5095D01*
Y4071D01*
X5103Y4074D01*
X5110Y4080D01*
X5116Y4087D01*
X5119Y4095D01*
D02*
G37*
G36*
X5665Y4104D02*
X5663Y4104D01*
X5652Y4099D01*
X5643Y4092D01*
X5636Y4083D01*
X5631Y4072D01*
X5631Y4070D01*
X5665D01*
Y4104D01*
D02*
G37*
G36*
X5235Y4130D02*
X5226Y4129D01*
X5217Y4126D01*
X5210Y4120D01*
X5204Y4113D01*
X5201Y4104D01*
X5200Y4095D01*
X5201Y4086D01*
X5204Y4077D01*
X5210Y4070D01*
X5217Y4064D01*
X5226Y4061D01*
X5235Y4060D01*
X5244Y4061D01*
X5253Y4064D01*
X5260Y4070D01*
X5266Y4077D01*
X5269Y4086D01*
X5270Y4095D01*
X5269Y4104D01*
X5266Y4113D01*
X5260Y4120D01*
X5253Y4126D01*
X5244Y4129D01*
X5235Y4130D01*
D02*
G37*
G36*
X6175Y4390D02*
X6163Y4389D01*
X6152Y4384D01*
X6143Y4377D01*
X6136Y4368D01*
X6131Y4357D01*
X6130Y4345D01*
X6131Y4333D01*
X6136Y4322D01*
X6143Y4313D01*
X6152Y4306D01*
X6163Y4301D01*
X6175Y4300D01*
X6187Y4301D01*
X6198Y4306D01*
X6207Y4313D01*
X6214Y4322D01*
X6219Y4333D01*
X6220Y4345D01*
X6219Y4357D01*
X6214Y4368D01*
X6207Y4377D01*
X6198Y4384D01*
X6187Y4389D01*
X6175Y4390D01*
D02*
G37*
G36*
X9144Y4450D02*
X9120D01*
Y4426D01*
X9128Y4429D01*
X9135Y4435D01*
X9141Y4442D01*
X9144Y4450D01*
D02*
G37*
G36*
X9120Y4494D02*
Y4470D01*
X9144D01*
X9141Y4478D01*
X9135Y4485D01*
X9128Y4491D01*
X9120Y4494D01*
D02*
G37*
G36*
X9100D02*
X9092Y4491D01*
X9085Y4485D01*
X9079Y4478D01*
X9076Y4470D01*
X9100D01*
Y4494D01*
D02*
G37*
G36*
Y4450D02*
X9076D01*
X9079Y4442D01*
X9085Y4435D01*
X9092Y4429D01*
X9100Y4426D01*
Y4450D01*
D02*
G37*
G36*
X4920Y4439D02*
X4918Y4439D01*
X4907Y4434D01*
X4898Y4427D01*
X4891Y4418D01*
X4886Y4407D01*
X4886Y4405D01*
X4920D01*
Y4439D01*
D02*
G37*
G36*
X8502Y4491D02*
X8491Y4489D01*
X8480Y4485D01*
X8470Y4478D01*
X8463Y4468D01*
X8459Y4457D01*
X8457Y4446D01*
X8459Y4434D01*
X8463Y4423D01*
X8470Y4413D01*
X8480Y4406D01*
X8491Y4402D01*
X8502Y4400D01*
X8514Y4402D01*
X8525Y4406D01*
X8534Y4413D01*
X8542Y4423D01*
X8546Y4434D01*
X8548Y4446D01*
X8546Y4457D01*
X8542Y4468D01*
X8534Y4478D01*
X8525Y4485D01*
X8514Y4489D01*
X8502Y4491D01*
D02*
G37*
G36*
X4940Y4439D02*
Y4405D01*
X4974D01*
X4974Y4407D01*
X4969Y4418D01*
X4962Y4427D01*
X4953Y4434D01*
X4942Y4439D01*
X4940Y4439D01*
D02*
G37*
G36*
X8597Y4596D02*
X8588Y4594D01*
X8579Y4589D01*
X8574Y4580D01*
X8572Y4571D01*
X8574Y4561D01*
X8579Y4553D01*
X8588Y4547D01*
X8597Y4545D01*
X8607Y4547D01*
X8615Y4553D01*
X8621Y4561D01*
X8623Y4571D01*
X8621Y4580D01*
X8615Y4589D01*
X8607Y4594D01*
X8597Y4596D01*
D02*
G37*
G36*
X5940Y4623D02*
X5933Y4622D01*
X5926Y4619D01*
X5920Y4615D01*
X5916Y4609D01*
X5913Y4602D01*
X5912Y4595D01*
X5913Y4588D01*
X5916Y4581D01*
X5920Y4575D01*
X5926Y4571D01*
X5933Y4568D01*
X5940Y4567D01*
X5947Y4568D01*
X5954Y4571D01*
X5957Y4574D01*
X5963Y4572D01*
X5963Y4568D01*
X5966Y4561D01*
X5970Y4555D01*
X5976Y4551D01*
X5980Y4549D01*
Y4575D01*
Y4601D01*
X5976Y4599D01*
X5973Y4596D01*
X5967Y4598D01*
X5967Y4602D01*
X5964Y4609D01*
X5960Y4615D01*
X5954Y4619D01*
X5947Y4622D01*
X5940Y4623D01*
D02*
G37*
G36*
X6730Y4560D02*
X6720Y4559D01*
X6712Y4553D01*
X6709Y4548D01*
X6708D01*
X6700Y4554D01*
X6690Y4555D01*
X6680Y4554D01*
X6672Y4548D01*
X6666Y4540D01*
X6665Y4530D01*
X6666Y4520D01*
X6672Y4512D01*
X6675Y4510D01*
Y4510D01*
X6676Y4504D01*
X6679Y4499D01*
X6683Y4495D01*
X6682Y4490D01*
X6675Y4489D01*
X6667Y4483D01*
X6661Y4475D01*
X6660Y4465D01*
X6661Y4455D01*
X6667Y4447D01*
X6675Y4441D01*
X6685Y4440D01*
X6695Y4441D01*
X6703Y4447D01*
X6709Y4455D01*
X6710Y4461D01*
X6715Y4461D01*
Y4340D01*
X6716Y4334D01*
X6719Y4329D01*
X6914Y4134D01*
X6918Y4132D01*
X6919Y4127D01*
X6925Y4120D01*
X6932Y4114D01*
X6941Y4111D01*
X6950Y4110D01*
X6959Y4111D01*
X6968Y4114D01*
X6975Y4120D01*
X6981Y4127D01*
X6984Y4136D01*
X6985Y4145D01*
X6984Y4154D01*
X6981Y4163D01*
X6975Y4170D01*
X6968Y4176D01*
X6959Y4179D01*
X6950Y4180D01*
X6941Y4179D01*
X6932Y4176D01*
X6925Y4170D01*
X6922Y4170D01*
X6862Y4230D01*
X6863Y4235D01*
X6870Y4236D01*
X6878Y4242D01*
X6884Y4250D01*
X6885Y4260D01*
X6884Y4270D01*
X6878Y4278D01*
X6875Y4280D01*
Y4430D01*
X6874Y4435D01*
X6875Y4440D01*
X6874Y4450D01*
X6868Y4458D01*
X6860Y4464D01*
X6850Y4465D01*
X6840Y4464D01*
X6832Y4458D01*
X6826Y4450D01*
X6825Y4440D01*
X6826Y4430D01*
X6832Y4422D01*
X6840Y4416D01*
X6845Y4416D01*
Y4280D01*
X6842Y4278D01*
X6836Y4270D01*
X6835Y4263D01*
X6830Y4262D01*
X6745Y4346D01*
Y4470D01*
X6744Y4476D01*
X6741Y4481D01*
X6709Y4513D01*
X6711Y4517D01*
X6712D01*
X6720Y4511D01*
X6730Y4510D01*
X6740Y4511D01*
X6748Y4517D01*
X6754Y4525D01*
X6755Y4535D01*
X6754Y4545D01*
X6748Y4553D01*
X6740Y4559D01*
X6730Y4560D01*
D02*
G37*
G36*
X7702Y4546D02*
X7693Y4545D01*
X7685Y4541D01*
X7677Y4535D01*
X7672Y4528D01*
X7668Y4520D01*
X7667Y4511D01*
X7668Y4501D01*
X7672Y4493D01*
X7677Y4486D01*
X7685Y4480D01*
X7693Y4476D01*
X7702Y4475D01*
X7712Y4476D01*
X7720Y4480D01*
X7727Y4486D01*
X7733Y4493D01*
X7736Y4501D01*
X7738Y4511D01*
X7736Y4520D01*
X7733Y4528D01*
X7727Y4535D01*
X7720Y4541D01*
X7712Y4545D01*
X7702Y4546D01*
D02*
G37*
G36*
X6280Y4545D02*
X6271Y4544D01*
X6262Y4541D01*
X6255Y4535D01*
X6249Y4528D01*
X6246Y4519D01*
X6245Y4510D01*
X6246Y4501D01*
X6249Y4492D01*
X6255Y4485D01*
X6262Y4479D01*
X6271Y4476D01*
X6280Y4475D01*
X6289Y4476D01*
X6298Y4479D01*
X6305Y4485D01*
X6311Y4492D01*
X6314Y4501D01*
X6315Y4510D01*
X6314Y4519D01*
X6311Y4528D01*
X6305Y4535D01*
X6298Y4541D01*
X6289Y4544D01*
X6280Y4545D01*
D02*
G37*
G36*
X6860Y4550D02*
X6850Y4549D01*
X6842Y4543D01*
X6836Y4535D01*
X6835Y4525D01*
X6836Y4515D01*
X6842Y4507D01*
X6850Y4501D01*
X6860Y4500D01*
X6870Y4501D01*
X6878Y4507D01*
X6884Y4515D01*
X6885Y4525D01*
X6884Y4535D01*
X6878Y4543D01*
X6870Y4549D01*
X6860Y4550D01*
D02*
G37*
G36*
X7852Y4538D02*
X7845Y4537D01*
X7839Y4535D01*
X7833Y4530D01*
X7828Y4524D01*
X7826Y4518D01*
X7825Y4511D01*
X7826Y4503D01*
X7828Y4497D01*
X7833Y4491D01*
X7839Y4487D01*
X7845Y4484D01*
X7852Y4483D01*
X7860Y4484D01*
X7866Y4487D01*
X7872Y4491D01*
X7876Y4497D01*
X7879Y4503D01*
X7880Y4511D01*
X7879Y4518D01*
X7876Y4524D01*
X7872Y4530D01*
X7866Y4535D01*
X7860Y4537D01*
X7852Y4538D01*
D02*
G37*
G36*
X7115Y4400D02*
X7103Y4399D01*
X7092Y4394D01*
X7083Y4387D01*
X7076Y4378D01*
X7071Y4367D01*
X7070Y4355D01*
X7071Y4343D01*
X7076Y4332D01*
X7083Y4323D01*
X7092Y4316D01*
X7103Y4311D01*
X7115Y4310D01*
X7127Y4311D01*
X7138Y4316D01*
X7147Y4323D01*
X7154Y4332D01*
X7159Y4343D01*
X7160Y4355D01*
X7159Y4367D01*
X7154Y4378D01*
X7147Y4387D01*
X7138Y4394D01*
X7127Y4399D01*
X7115Y4400D01*
D02*
G37*
G36*
X5325Y4405D02*
X5316Y4404D01*
X5307Y4401D01*
X5300Y4395D01*
X5294Y4388D01*
X5291Y4379D01*
X5290Y4370D01*
X5291Y4361D01*
X5294Y4352D01*
X5300Y4345D01*
X5307Y4339D01*
X5316Y4336D01*
X5325Y4335D01*
X5334Y4336D01*
X5343Y4339D01*
X5350Y4345D01*
X5356Y4352D01*
X5359Y4361D01*
X5360Y4370D01*
X5359Y4379D01*
X5356Y4388D01*
X5350Y4395D01*
X5343Y4401D01*
X5334Y4404D01*
X5325Y4405D01*
D02*
G37*
G36*
X6680Y4375D02*
X6670Y4374D01*
X6662Y4368D01*
X6656Y4360D01*
X6655Y4350D01*
X6656Y4340D01*
X6662Y4332D01*
X6670Y4326D01*
X6680Y4325D01*
X6690Y4326D01*
X6698Y4332D01*
X6704Y4340D01*
X6705Y4350D01*
X6704Y4360D01*
X6698Y4368D01*
X6690Y4374D01*
X6680Y4375D01*
D02*
G37*
G36*
X6470Y4395D02*
X6458Y4394D01*
X6447Y4389D01*
X6438Y4382D01*
X6431Y4373D01*
X6426Y4362D01*
X6425Y4350D01*
X6426Y4338D01*
X6431Y4327D01*
X6438Y4318D01*
X6447Y4311D01*
X6458Y4306D01*
X6470Y4305D01*
X6482Y4306D01*
X6493Y4311D01*
X6502Y4318D01*
X6509Y4327D01*
X6514Y4338D01*
X6515Y4350D01*
X6514Y4362D01*
X6509Y4373D01*
X6502Y4382D01*
X6493Y4389D01*
X6482Y4394D01*
X6470Y4395D01*
D02*
G37*
G36*
X4974Y4385D02*
X4940D01*
Y4351D01*
X4942Y4351D01*
X4953Y4356D01*
X4962Y4363D01*
X4969Y4372D01*
X4974Y4383D01*
X4974Y4385D01*
D02*
G37*
G36*
X8402Y4491D02*
X8391Y4489D01*
X8380Y4485D01*
X8370Y4478D01*
X8363Y4468D01*
X8359Y4457D01*
X8357Y4446D01*
X8359Y4434D01*
X8363Y4423D01*
X8370Y4413D01*
X8380Y4406D01*
X8391Y4402D01*
X8402Y4400D01*
X8414Y4402D01*
X8425Y4406D01*
X8434Y4413D01*
X8442Y4423D01*
X8446Y4434D01*
X8448Y4446D01*
X8446Y4457D01*
X8442Y4468D01*
X8434Y4478D01*
X8425Y4485D01*
X8414Y4489D01*
X8402Y4491D01*
D02*
G37*
G36*
X4920Y4385D02*
X4886D01*
X4886Y4383D01*
X4891Y4372D01*
X4898Y4363D01*
X4907Y4356D01*
X4918Y4351D01*
X4920Y4351D01*
Y4385D01*
D02*
G37*
G36*
X10690Y3693D02*
X10661D01*
X10661Y3693D01*
X10665Y3683D01*
X10671Y3675D01*
X10680Y3668D01*
X10690Y3664D01*
X10690Y3664D01*
Y3693D01*
D02*
G37*
G36*
X10739D02*
X10710D01*
Y3664D01*
X10710Y3664D01*
X10720Y3668D01*
X10729Y3675D01*
X10735Y3683D01*
X10739Y3693D01*
X10739Y3693D01*
D02*
G37*
G36*
X10600Y3743D02*
X10590Y3742D01*
X10580Y3738D01*
X10571Y3732D01*
X10565Y3723D01*
X10561Y3714D01*
X10560Y3703D01*
X10561Y3693D01*
X10565Y3683D01*
X10571Y3675D01*
X10580Y3668D01*
X10590Y3664D01*
X10600Y3663D01*
X10610Y3664D01*
X10620Y3668D01*
X10629Y3675D01*
X10635Y3683D01*
X10639Y3693D01*
X10640Y3703D01*
X10639Y3714D01*
X10635Y3723D01*
X10629Y3732D01*
X10620Y3738D01*
X10610Y3742D01*
X10600Y3743D01*
D02*
G37*
G36*
X10710Y3742D02*
Y3713D01*
X10739D01*
X10739Y3714D01*
X10735Y3723D01*
X10729Y3732D01*
X10720Y3738D01*
X10710Y3742D01*
X10710Y3742D01*
D02*
G37*
G36*
X10690D02*
X10690Y3742D01*
X10680Y3738D01*
X10671Y3732D01*
X10665Y3723D01*
X10661Y3714D01*
X10661Y3713D01*
X10690D01*
Y3742D01*
D02*
G37*
G36*
X9990Y3603D02*
X9910D01*
Y3523D01*
X9990D01*
Y3603D01*
D02*
G37*
G36*
X10250Y3603D02*
X10239Y3602D01*
X10229Y3598D01*
X10221Y3592D01*
X10215Y3583D01*
X10211Y3574D01*
X10209Y3563D01*
X10211Y3553D01*
X10215Y3543D01*
X10221Y3535D01*
X10229Y3528D01*
X10239Y3524D01*
X10250Y3523D01*
X10260Y3524D01*
X10270Y3528D01*
X10278Y3535D01*
X10284Y3543D01*
X10288Y3553D01*
X10290Y3563D01*
X10288Y3574D01*
X10284Y3583D01*
X10278Y3592D01*
X10270Y3598D01*
X10260Y3602D01*
X10250Y3603D01*
D02*
G37*
G36*
X10710Y3542D02*
Y3513D01*
X10739D01*
X10739Y3514D01*
X10735Y3523D01*
X10729Y3532D01*
X10720Y3538D01*
X10710Y3542D01*
X10710Y3542D01*
D02*
G37*
G36*
X10690D02*
X10690Y3542D01*
X10680Y3538D01*
X10671Y3532D01*
X10665Y3523D01*
X10661Y3514D01*
X10661Y3513D01*
X10690D01*
Y3542D01*
D02*
G37*
G36*
X10150Y3603D02*
X10139Y3602D01*
X10129Y3598D01*
X10121Y3592D01*
X10115Y3583D01*
X10111Y3574D01*
X10109Y3563D01*
X10111Y3553D01*
X10115Y3543D01*
X10121Y3535D01*
X10129Y3528D01*
X10139Y3524D01*
X10150Y3523D01*
X10160Y3524D01*
X10170Y3528D01*
X10178Y3535D01*
X10184Y3543D01*
X10188Y3553D01*
X10190Y3563D01*
X10188Y3574D01*
X10184Y3583D01*
X10178Y3592D01*
X10170Y3598D01*
X10160Y3602D01*
X10150Y3603D01*
D02*
G37*
G36*
X10050D02*
X10039Y3602D01*
X10029Y3598D01*
X10021Y3592D01*
X10015Y3583D01*
X10011Y3574D01*
X10009Y3563D01*
X10011Y3553D01*
X10015Y3543D01*
X10021Y3535D01*
X10029Y3528D01*
X10039Y3524D01*
X10050Y3523D01*
X10060Y3524D01*
X10070Y3528D01*
X10078Y3535D01*
X10084Y3543D01*
X10088Y3553D01*
X10090Y3563D01*
X10088Y3574D01*
X10084Y3583D01*
X10078Y3592D01*
X10070Y3598D01*
X10060Y3602D01*
X10050Y3603D01*
D02*
G37*
G36*
X10427Y3777D02*
X10401D01*
X10375D01*
X10377Y3773D01*
X10381Y3767D01*
X10383Y3765D01*
X10383Y3759D01*
X10381Y3757D01*
X10377Y3751D01*
X10374Y3745D01*
X10373Y3737D01*
X10374Y3730D01*
X10377Y3723D01*
X10381Y3718D01*
X10383Y3716D01*
Y3710D01*
X10381Y3708D01*
X10377Y3702D01*
X10374Y3695D01*
X10373Y3688D01*
X10374Y3681D01*
X10377Y3674D01*
X10378Y3672D01*
X10376Y3667D01*
X10373D01*
Y3641D01*
X10373Y3639D01*
X10373Y3637D01*
Y3611D01*
X10398D01*
X10401Y3611D01*
X10403Y3611D01*
X10429D01*
Y3637D01*
X10429Y3639D01*
X10429Y3641D01*
Y3667D01*
X10426D01*
X10423Y3672D01*
X10425Y3674D01*
X10428Y3681D01*
X10429Y3688D01*
X10428Y3695D01*
X10425Y3702D01*
X10421Y3708D01*
X10418Y3710D01*
Y3716D01*
X10421Y3718D01*
X10425Y3723D01*
X10428Y3730D01*
X10429Y3737D01*
X10428Y3745D01*
X10425Y3751D01*
X10421Y3757D01*
X10418Y3759D01*
X10418Y3765D01*
X10421Y3767D01*
X10425Y3773D01*
X10427Y3777D01*
D02*
G37*
G36*
X10521Y3773D02*
X10495D01*
X10469D01*
X10471Y3769D01*
X10475Y3764D01*
X10477Y3762D01*
X10477Y3756D01*
X10475Y3754D01*
X10471Y3748D01*
X10468Y3741D01*
X10467Y3734D01*
X10468Y3727D01*
X10471Y3720D01*
X10475Y3714D01*
X10477Y3713D01*
Y3706D01*
X10475Y3705D01*
X10471Y3699D01*
X10468Y3692D01*
X10467Y3685D01*
X10468Y3678D01*
X10471Y3671D01*
X10473Y3669D01*
X10470Y3664D01*
X10467D01*
Y3638D01*
X10467Y3636D01*
X10467Y3633D01*
Y3608D01*
X10493D01*
X10495Y3608D01*
X10497Y3608D01*
X10523D01*
Y3633D01*
X10523Y3636D01*
X10523Y3638D01*
Y3664D01*
X10520D01*
X10517Y3669D01*
X10519Y3671D01*
X10522Y3678D01*
X10523Y3685D01*
X10522Y3692D01*
X10519Y3699D01*
X10515Y3705D01*
X10513Y3706D01*
Y3713D01*
X10515Y3714D01*
X10519Y3720D01*
X10522Y3727D01*
X10523Y3734D01*
X10522Y3741D01*
X10519Y3748D01*
X10515Y3754D01*
X10513Y3756D01*
X10513Y3762D01*
X10515Y3764D01*
X10519Y3769D01*
X10521Y3773D01*
D02*
G37*
G36*
X10710Y3642D02*
Y3613D01*
X10739D01*
X10739Y3614D01*
X10735Y3623D01*
X10729Y3632D01*
X10720Y3638D01*
X10710Y3642D01*
X10710Y3642D01*
D02*
G37*
G36*
X10690D02*
X10690Y3642D01*
X10680Y3638D01*
X10671Y3632D01*
X10665Y3623D01*
X10661Y3614D01*
X10661Y3613D01*
X10690D01*
Y3642D01*
D02*
G37*
G36*
Y3593D02*
X10661D01*
X10661Y3593D01*
X10665Y3583D01*
X10671Y3575D01*
X10680Y3568D01*
X10690Y3564D01*
X10690Y3564D01*
Y3593D01*
D02*
G37*
G36*
X10600Y3643D02*
X10590Y3642D01*
X10580Y3638D01*
X10571Y3632D01*
X10565Y3623D01*
X10561Y3614D01*
X10560Y3603D01*
X10561Y3593D01*
X10565Y3583D01*
X10571Y3575D01*
X10580Y3568D01*
X10590Y3564D01*
X10600Y3563D01*
X10610Y3564D01*
X10620Y3568D01*
X10629Y3575D01*
X10635Y3583D01*
X10639Y3593D01*
X10640Y3603D01*
X10639Y3614D01*
X10635Y3623D01*
X10629Y3632D01*
X10620Y3638D01*
X10610Y3642D01*
X10600Y3643D01*
D02*
G37*
G36*
X10739Y3593D02*
X10710D01*
Y3564D01*
X10710Y3564D01*
X10720Y3568D01*
X10729Y3575D01*
X10735Y3583D01*
X10739Y3593D01*
X10739Y3593D01*
D02*
G37*
G36*
X10215Y3773D02*
X10199D01*
X10201Y3769D01*
X10205Y3764D01*
X10211Y3759D01*
X10215Y3758D01*
Y3773D01*
D02*
G37*
G36*
X9556Y3901D02*
X9525D01*
Y3871D01*
X9526Y3871D01*
X9536Y3875D01*
X9545Y3882D01*
X9551Y3890D01*
X9556Y3900D01*
X9556Y3901D01*
D02*
G37*
G36*
X10690Y3893D02*
X10661D01*
X10661Y3893D01*
X10665Y3883D01*
X10671Y3875D01*
X10680Y3868D01*
X10690Y3864D01*
X10690Y3864D01*
Y3893D01*
D02*
G37*
G36*
X10600Y3943D02*
X10590Y3942D01*
X10580Y3938D01*
X10571Y3932D01*
X10565Y3923D01*
X10561Y3914D01*
X10560Y3903D01*
X10561Y3893D01*
X10565Y3883D01*
X10571Y3875D01*
X10580Y3868D01*
X10590Y3864D01*
X10600Y3863D01*
X10610Y3864D01*
X10620Y3868D01*
X10629Y3875D01*
X10635Y3883D01*
X10639Y3893D01*
X10640Y3903D01*
X10639Y3914D01*
X10635Y3923D01*
X10629Y3932D01*
X10620Y3938D01*
X10610Y3942D01*
X10600Y3943D01*
D02*
G37*
G36*
X9505Y3901D02*
X9474D01*
X9474Y3900D01*
X9479Y3890D01*
X9485Y3882D01*
X9494Y3875D01*
X9504Y3871D01*
X9505Y3871D01*
Y3901D01*
D02*
G37*
G36*
X10739Y3893D02*
X10710D01*
Y3864D01*
X10710Y3864D01*
X10720Y3868D01*
X10729Y3875D01*
X10735Y3883D01*
X10739Y3893D01*
X10739Y3893D01*
D02*
G37*
G36*
X10600Y4043D02*
X10590Y4042D01*
X10580Y4038D01*
X10571Y4032D01*
X10565Y4023D01*
X10561Y4014D01*
X10560Y4003D01*
X10561Y3993D01*
X10565Y3983D01*
X10571Y3975D01*
X10580Y3968D01*
X10590Y3964D01*
X10600Y3963D01*
X10610Y3964D01*
X10620Y3968D01*
X10629Y3975D01*
X10635Y3983D01*
X10639Y3993D01*
X10640Y4003D01*
X10639Y4014D01*
X10635Y4023D01*
X10629Y4032D01*
X10620Y4038D01*
X10610Y4042D01*
X10600Y4043D01*
D02*
G37*
G36*
X10245Y3966D02*
X10238Y3965D01*
X10231Y3962D01*
X10225Y3958D01*
X10225Y3957D01*
X10220D01*
X10220Y3958D01*
X10214Y3962D01*
X10207Y3965D01*
X10200Y3966D01*
X10193Y3965D01*
X10186Y3962D01*
X10180Y3958D01*
X10176Y3952D01*
X10175Y3949D01*
X10169Y3947D01*
X10162Y3950D01*
X10155Y3951D01*
X10148Y3950D01*
X10141Y3947D01*
X10135Y3943D01*
X10131Y3937D01*
X10128Y3930D01*
X10127Y3923D01*
X10128Y3916D01*
X10131Y3909D01*
X10135Y3904D01*
X10141Y3899D01*
X10148Y3896D01*
X10155Y3895D01*
X10162Y3896D01*
X10169Y3899D01*
X10175Y3904D01*
X10179Y3909D01*
X10180Y3912D01*
X10186Y3914D01*
X10193Y3911D01*
X10200Y3910D01*
X10207Y3911D01*
X10214Y3914D01*
X10219Y3918D01*
X10221Y3919D01*
X10224D01*
X10226Y3918D01*
X10231Y3914D01*
X10238Y3911D01*
X10245Y3910D01*
X10252Y3911D01*
X10259Y3914D01*
X10265Y3919D01*
X10269Y3924D01*
X10272Y3931D01*
X10273Y3938D01*
X10272Y3945D01*
X10269Y3952D01*
X10265Y3958D01*
X10259Y3962D01*
X10252Y3965D01*
X10245Y3966D01*
D02*
G37*
G36*
X10330Y3980D02*
X10320Y3979D01*
X10312Y3973D01*
X10306Y3965D01*
X10305Y3955D01*
X10306Y3945D01*
X10312Y3937D01*
X10320Y3931D01*
X10330Y3930D01*
X10340Y3931D01*
X10348Y3937D01*
X10354Y3945D01*
X10355Y3955D01*
X10354Y3965D01*
X10348Y3973D01*
X10340Y3979D01*
X10330Y3980D01*
D02*
G37*
G36*
X10710Y3942D02*
Y3913D01*
X10739D01*
X10739Y3914D01*
X10735Y3923D01*
X10729Y3932D01*
X10720Y3938D01*
X10710Y3942D01*
X10710Y3942D01*
D02*
G37*
G36*
X10690D02*
X10690Y3942D01*
X10680Y3938D01*
X10671Y3932D01*
X10665Y3923D01*
X10661Y3914D01*
X10661Y3913D01*
X10690D01*
Y3942D01*
D02*
G37*
G36*
X9525Y3952D02*
Y3921D01*
X9556D01*
X9556Y3922D01*
X9551Y3932D01*
X9545Y3941D01*
X9536Y3948D01*
X9526Y3952D01*
X9525Y3952D01*
D02*
G37*
G36*
X9505D02*
X9504Y3952D01*
X9494Y3948D01*
X9485Y3941D01*
X9479Y3932D01*
X9474Y3922D01*
X9474Y3921D01*
X9505D01*
Y3952D01*
D02*
G37*
G36*
X10050Y3844D02*
X10040Y3842D01*
X10032Y3836D01*
X10026Y3828D01*
X10025Y3818D01*
X10026Y3808D01*
X10032Y3800D01*
X10040Y3795D01*
X10050Y3793D01*
X10060Y3795D01*
X10068Y3800D01*
X10074Y3808D01*
X10075Y3818D01*
X10074Y3828D01*
X10068Y3836D01*
X10060Y3842D01*
X10050Y3844D01*
D02*
G37*
G36*
X10235Y3809D02*
Y3793D01*
X10251D01*
X10249Y3797D01*
X10245Y3803D01*
X10239Y3807D01*
X10235Y3809D01*
D02*
G37*
G36*
X10215D02*
X10211Y3807D01*
X10205Y3803D01*
X10201Y3797D01*
X10199Y3793D01*
X10215D01*
Y3809D01*
D02*
G37*
G36*
X10600Y3843D02*
X10590Y3842D01*
X10580Y3838D01*
X10571Y3832D01*
X10565Y3823D01*
X10561Y3814D01*
X10560Y3803D01*
X10561Y3793D01*
X10565Y3783D01*
X10571Y3775D01*
X10580Y3768D01*
X10590Y3764D01*
X10600Y3763D01*
X10610Y3764D01*
X10620Y3768D01*
X10629Y3775D01*
X10635Y3783D01*
X10639Y3793D01*
X10640Y3803D01*
X10639Y3814D01*
X10635Y3823D01*
X10629Y3832D01*
X10620Y3838D01*
X10610Y3842D01*
X10600Y3843D01*
D02*
G37*
G36*
X10251Y3773D02*
X10235D01*
Y3758D01*
X10239Y3759D01*
X10245Y3764D01*
X10249Y3769D01*
X10251Y3773D01*
D02*
G37*
G36*
X10739Y3793D02*
X10710D01*
Y3764D01*
X10710Y3764D01*
X10720Y3768D01*
X10729Y3775D01*
X10735Y3783D01*
X10739Y3793D01*
X10739Y3793D01*
D02*
G37*
G36*
X10690D02*
X10661D01*
X10661Y3793D01*
X10665Y3783D01*
X10671Y3775D01*
X10680Y3768D01*
X10690Y3764D01*
X10690Y3764D01*
Y3793D01*
D02*
G37*
G36*
X10710Y3842D02*
Y3813D01*
X10739D01*
X10739Y3814D01*
X10735Y3823D01*
X10729Y3832D01*
X10720Y3838D01*
X10710Y3842D01*
X10710Y3842D01*
D02*
G37*
G36*
X9850Y3916D02*
X9843Y3915D01*
X9836Y3912D01*
X9830Y3908D01*
X9826Y3902D01*
X9823Y3895D01*
X9822Y3888D01*
X9823Y3881D01*
X9826Y3874D01*
X9830Y3869D01*
X9836Y3864D01*
X9843Y3861D01*
X9850Y3860D01*
X9857Y3861D01*
X9864Y3864D01*
X9870Y3869D01*
X9874Y3874D01*
X9877Y3881D01*
X9878Y3888D01*
X9877Y3895D01*
X9874Y3902D01*
X9870Y3908D01*
X9864Y3912D01*
X9857Y3915D01*
X9850Y3916D01*
D02*
G37*
G36*
X10690Y3842D02*
X10690Y3842D01*
X10680Y3838D01*
X10671Y3832D01*
X10665Y3823D01*
X10661Y3814D01*
X10661Y3813D01*
X10690D01*
Y3842D01*
D02*
G37*
G36*
X10505Y3809D02*
Y3793D01*
X10521D01*
X10519Y3797D01*
X10515Y3803D01*
X10509Y3808D01*
X10505Y3809D01*
D02*
G37*
G36*
X10485D02*
X10481Y3808D01*
X10475Y3803D01*
X10471Y3797D01*
X10469Y3793D01*
X10485D01*
Y3809D01*
D02*
G37*
G36*
X10411Y3812D02*
Y3797D01*
X10427D01*
X10425Y3801D01*
X10421Y3806D01*
X10415Y3811D01*
X10411Y3812D01*
D02*
G37*
G36*
X10391Y3812D02*
X10387Y3811D01*
X10381Y3806D01*
X10377Y3801D01*
X10375Y3797D01*
X10391D01*
Y3812D01*
D02*
G37*
G36*
X10739Y3493D02*
X10710D01*
Y3464D01*
X10710Y3464D01*
X10720Y3468D01*
X10729Y3475D01*
X10735Y3483D01*
X10739Y3493D01*
X10739Y3493D01*
D02*
G37*
G36*
X10690D02*
X10661D01*
X10661Y3493D01*
X10665Y3483D01*
X10671Y3475D01*
X10680Y3468D01*
X10690Y3464D01*
X10690Y3464D01*
Y3493D01*
D02*
G37*
G36*
X9925Y3507D02*
Y3483D01*
X9949D01*
X9946Y3491D01*
X9940Y3498D01*
X9933Y3504D01*
X9925Y3507D01*
D02*
G37*
G36*
X9905D02*
X9897Y3504D01*
X9890Y3498D01*
X9884Y3491D01*
X9881Y3483D01*
X9905D01*
Y3507D01*
D02*
G37*
G36*
X10600Y3543D02*
X10590Y3542D01*
X10580Y3538D01*
X10571Y3532D01*
X10565Y3523D01*
X10561Y3514D01*
X10560Y3503D01*
X10561Y3493D01*
X10565Y3483D01*
X10571Y3475D01*
X10580Y3468D01*
X10590Y3464D01*
X10600Y3463D01*
X10610Y3464D01*
X10620Y3468D01*
X10629Y3475D01*
X10635Y3483D01*
X10639Y3493D01*
X10640Y3503D01*
X10639Y3514D01*
X10635Y3523D01*
X10629Y3532D01*
X10620Y3538D01*
X10610Y3542D01*
X10600Y3543D01*
D02*
G37*
G36*
X9949Y3463D02*
X9925D01*
Y3439D01*
X9933Y3443D01*
X9940Y3448D01*
X9946Y3455D01*
X9949Y3463D01*
D02*
G37*
G36*
X9905D02*
X9881D01*
X9884Y3455D01*
X9890Y3448D01*
X9897Y3443D01*
X9905Y3439D01*
Y3463D01*
D02*
G37*
G36*
X10690Y3993D02*
X10661D01*
X10661Y3993D01*
X10665Y3983D01*
X10671Y3975D01*
X10680Y3968D01*
X10690Y3964D01*
X10690Y3964D01*
Y3993D01*
D02*
G37*
G36*
X9390Y4788D02*
X9361D01*
X9361Y4788D01*
X9365Y4778D01*
X9371Y4770D01*
X9380Y4763D01*
X9390Y4759D01*
X9390Y4759D01*
Y4788D01*
D02*
G37*
G36*
X9890D02*
X9861D01*
X9861Y4788D01*
X9865Y4778D01*
X9871Y4770D01*
X9880Y4763D01*
X9890Y4759D01*
X9890Y4759D01*
Y4788D01*
D02*
G37*
G36*
X9690D02*
X9661D01*
X9661Y4788D01*
X9665Y4778D01*
X9671Y4770D01*
X9680Y4763D01*
X9690Y4759D01*
X9690Y4759D01*
Y4788D01*
D02*
G37*
G36*
X9439D02*
X9410D01*
Y4759D01*
X9410Y4759D01*
X9420Y4763D01*
X9429Y4770D01*
X9435Y4778D01*
X9439Y4788D01*
X9439Y4788D01*
D02*
G37*
G36*
X9339D02*
X9310D01*
Y4759D01*
X9310Y4759D01*
X9320Y4763D01*
X9329Y4770D01*
X9335Y4778D01*
X9339Y4788D01*
X9339Y4788D01*
D02*
G37*
G36*
X9639D02*
X9610D01*
Y4759D01*
X9610Y4759D01*
X9620Y4763D01*
X9629Y4770D01*
X9635Y4778D01*
X9639Y4788D01*
X9639Y4788D01*
D02*
G37*
G36*
X9539D02*
X9510D01*
Y4759D01*
X9510Y4759D01*
X9520Y4763D01*
X9529Y4770D01*
X9535Y4778D01*
X9539Y4788D01*
X9539Y4788D01*
D02*
G37*
G36*
X9990D02*
X9961D01*
X9961Y4788D01*
X9965Y4778D01*
X9971Y4770D01*
X9980Y4763D01*
X9990Y4759D01*
X9990Y4759D01*
Y4788D01*
D02*
G37*
G36*
X9490D02*
X9461D01*
X9461Y4788D01*
X9465Y4778D01*
X9471Y4770D01*
X9480Y4763D01*
X9490Y4759D01*
X9490Y4759D01*
Y4788D01*
D02*
G37*
G36*
X9290D02*
X9261D01*
X9261Y4788D01*
X9265Y4778D01*
X9271Y4770D01*
X9280Y4763D01*
X9290Y4759D01*
X9290Y4759D01*
Y4788D01*
D02*
G37*
G36*
X9790D02*
X9761D01*
X9761Y4788D01*
X9765Y4778D01*
X9771Y4770D01*
X9780Y4763D01*
X9790Y4759D01*
X9790Y4759D01*
Y4788D01*
D02*
G37*
G36*
X9590D02*
X9561D01*
X9561Y4788D01*
X9565Y4778D01*
X9571Y4770D01*
X9580Y4763D01*
X9590Y4759D01*
X9590Y4759D01*
Y4788D01*
D02*
G37*
G36*
X9300Y4738D02*
X9290Y4737D01*
X9280Y4733D01*
X9271Y4727D01*
X9265Y4718D01*
X9261Y4709D01*
X9260Y4698D01*
X9261Y4688D01*
X9265Y4678D01*
X9271Y4670D01*
X9280Y4663D01*
X9290Y4659D01*
X9300Y4658D01*
X9310Y4659D01*
X9320Y4663D01*
X9329Y4670D01*
X9335Y4678D01*
X9339Y4688D01*
X9340Y4698D01*
X9339Y4709D01*
X9335Y4718D01*
X9329Y4727D01*
X9320Y4733D01*
X9310Y4737D01*
X9300Y4738D01*
D02*
G37*
G36*
X9500D02*
X9490Y4737D01*
X9480Y4733D01*
X9471Y4727D01*
X9465Y4718D01*
X9461Y4709D01*
X9460Y4698D01*
X9461Y4688D01*
X9465Y4678D01*
X9471Y4670D01*
X9480Y4663D01*
X9490Y4659D01*
X9500Y4658D01*
X9510Y4659D01*
X9520Y4663D01*
X9529Y4670D01*
X9535Y4678D01*
X9539Y4688D01*
X9540Y4698D01*
X9539Y4709D01*
X9535Y4718D01*
X9529Y4727D01*
X9520Y4733D01*
X9510Y4737D01*
X9500Y4738D01*
D02*
G37*
G36*
X9400D02*
X9390Y4737D01*
X9380Y4733D01*
X9371Y4727D01*
X9365Y4718D01*
X9361Y4709D01*
X9360Y4698D01*
X9361Y4688D01*
X9365Y4678D01*
X9371Y4670D01*
X9380Y4663D01*
X9390Y4659D01*
X9400Y4658D01*
X9410Y4659D01*
X9420Y4663D01*
X9429Y4670D01*
X9435Y4678D01*
X9439Y4688D01*
X9440Y4698D01*
X9439Y4709D01*
X9435Y4718D01*
X9429Y4727D01*
X9420Y4733D01*
X9410Y4737D01*
X9400Y4738D01*
D02*
G37*
G36*
X10000D02*
X9990Y4737D01*
X9980Y4733D01*
X9971Y4727D01*
X9965Y4718D01*
X9961Y4709D01*
X9960Y4698D01*
X9961Y4688D01*
X9965Y4678D01*
X9971Y4670D01*
X9980Y4663D01*
X9990Y4659D01*
X10000Y4658D01*
X10010Y4659D01*
X10020Y4663D01*
X10029Y4670D01*
X10035Y4678D01*
X10039Y4688D01*
X10040Y4698D01*
X10039Y4709D01*
X10035Y4718D01*
X10029Y4727D01*
X10020Y4733D01*
X10010Y4737D01*
X10000Y4738D01*
D02*
G37*
G36*
X9700D02*
X9690Y4737D01*
X9680Y4733D01*
X9671Y4727D01*
X9665Y4718D01*
X9661Y4709D01*
X9660Y4698D01*
X9661Y4688D01*
X9665Y4678D01*
X9671Y4670D01*
X9680Y4663D01*
X9690Y4659D01*
X9700Y4658D01*
X9710Y4659D01*
X9720Y4663D01*
X9729Y4670D01*
X9735Y4678D01*
X9739Y4688D01*
X9740Y4698D01*
X9739Y4709D01*
X9735Y4718D01*
X9729Y4727D01*
X9720Y4733D01*
X9710Y4737D01*
X9700Y4738D01*
D02*
G37*
G36*
X9600D02*
X9590Y4737D01*
X9580Y4733D01*
X9571Y4727D01*
X9565Y4718D01*
X9561Y4709D01*
X9560Y4698D01*
X9561Y4688D01*
X9565Y4678D01*
X9571Y4670D01*
X9580Y4663D01*
X9590Y4659D01*
X9600Y4658D01*
X9610Y4659D01*
X9620Y4663D01*
X9629Y4670D01*
X9635Y4678D01*
X9639Y4688D01*
X9640Y4698D01*
X9639Y4709D01*
X9635Y4718D01*
X9629Y4727D01*
X9620Y4733D01*
X9610Y4737D01*
X9600Y4738D01*
D02*
G37*
G36*
X9900D02*
X9890Y4737D01*
X9880Y4733D01*
X9871Y4727D01*
X9865Y4718D01*
X9861Y4709D01*
X9860Y4698D01*
X9861Y4688D01*
X9865Y4678D01*
X9871Y4670D01*
X9880Y4663D01*
X9890Y4659D01*
X9900Y4658D01*
X9910Y4659D01*
X9920Y4663D01*
X9929Y4670D01*
X9935Y4678D01*
X9939Y4688D01*
X9940Y4698D01*
X9939Y4709D01*
X9935Y4718D01*
X9929Y4727D01*
X9920Y4733D01*
X9910Y4737D01*
X9900Y4738D01*
D02*
G37*
G36*
X9800D02*
X9790Y4737D01*
X9780Y4733D01*
X9771Y4727D01*
X9765Y4718D01*
X9761Y4709D01*
X9760Y4698D01*
X9761Y4688D01*
X9765Y4678D01*
X9771Y4670D01*
X9780Y4663D01*
X9790Y4659D01*
X9800Y4658D01*
X9810Y4659D01*
X9820Y4663D01*
X9829Y4670D01*
X9835Y4678D01*
X9839Y4688D01*
X9840Y4698D01*
X9839Y4709D01*
X9835Y4718D01*
X9829Y4727D01*
X9820Y4733D01*
X9810Y4737D01*
X9800Y4738D01*
D02*
G37*
G36*
X9739Y4788D02*
X9710D01*
Y4759D01*
X9710Y4759D01*
X9720Y4763D01*
X9729Y4770D01*
X9735Y4778D01*
X9739Y4788D01*
X9739Y4788D01*
D02*
G37*
G36*
X9810Y4837D02*
Y4808D01*
X9839D01*
X9839Y4809D01*
X9835Y4818D01*
X9829Y4827D01*
X9820Y4833D01*
X9810Y4837D01*
X9810Y4837D01*
D02*
G37*
G36*
X9710D02*
Y4808D01*
X9739D01*
X9739Y4809D01*
X9735Y4818D01*
X9729Y4827D01*
X9720Y4833D01*
X9710Y4837D01*
X9710Y4837D01*
D02*
G37*
G36*
X10010D02*
Y4808D01*
X10039D01*
X10039Y4809D01*
X10035Y4818D01*
X10029Y4827D01*
X10020Y4833D01*
X10010Y4837D01*
X10010Y4837D01*
D02*
G37*
G36*
X9910D02*
Y4808D01*
X9939D01*
X9939Y4809D01*
X9935Y4818D01*
X9929Y4827D01*
X9920Y4833D01*
X9910Y4837D01*
X9910Y4837D01*
D02*
G37*
G36*
X9290D02*
X9290Y4837D01*
X9280Y4833D01*
X9271Y4827D01*
X9265Y4818D01*
X9261Y4809D01*
X9261Y4808D01*
X9290D01*
Y4837D01*
D02*
G37*
G36*
X9490D02*
X9490Y4837D01*
X9480Y4833D01*
X9471Y4827D01*
X9465Y4818D01*
X9461Y4809D01*
X9461Y4808D01*
X9490D01*
Y4837D01*
D02*
G37*
G36*
X9390D02*
X9390Y4837D01*
X9380Y4833D01*
X9371Y4827D01*
X9365Y4818D01*
X9361Y4809D01*
X9361Y4808D01*
X9390D01*
Y4837D01*
D02*
G37*
G36*
X9939Y4788D02*
X9910D01*
Y4759D01*
X9910Y4759D01*
X9920Y4763D01*
X9929Y4770D01*
X9935Y4778D01*
X9939Y4788D01*
X9939Y4788D01*
D02*
G37*
G36*
X9839D02*
X9810D01*
Y4759D01*
X9810Y4759D01*
X9820Y4763D01*
X9829Y4770D01*
X9835Y4778D01*
X9839Y4788D01*
X9839Y4788D01*
D02*
G37*
G36*
X10039D02*
X10010D01*
Y4759D01*
X10010Y4759D01*
X10020Y4763D01*
X10029Y4770D01*
X10035Y4778D01*
X10039Y4788D01*
X10039Y4788D01*
D02*
G37*
G36*
X9410Y4837D02*
Y4808D01*
X9439D01*
X9439Y4809D01*
X9435Y4818D01*
X9429Y4827D01*
X9420Y4833D01*
X9410Y4837D01*
X9410Y4837D01*
D02*
G37*
G36*
X9310D02*
Y4808D01*
X9339D01*
X9339Y4809D01*
X9335Y4818D01*
X9329Y4827D01*
X9320Y4833D01*
X9310Y4837D01*
X9310Y4837D01*
D02*
G37*
G36*
X9610D02*
Y4808D01*
X9639D01*
X9639Y4809D01*
X9635Y4818D01*
X9629Y4827D01*
X9620Y4833D01*
X9610Y4837D01*
X9610Y4837D01*
D02*
G37*
G36*
X9510D02*
Y4808D01*
X9539D01*
X9539Y4809D01*
X9535Y4818D01*
X9529Y4827D01*
X9520Y4833D01*
X9510Y4837D01*
X9510Y4837D01*
D02*
G37*
G36*
X9990D02*
X9990Y4837D01*
X9980Y4833D01*
X9971Y4827D01*
X9965Y4818D01*
X9961Y4809D01*
X9961Y4808D01*
X9990D01*
Y4837D01*
D02*
G37*
G36*
X9690D02*
X9690Y4837D01*
X9680Y4833D01*
X9671Y4827D01*
X9665Y4818D01*
X9661Y4809D01*
X9661Y4808D01*
X9690D01*
Y4837D01*
D02*
G37*
G36*
X9590D02*
X9590Y4837D01*
X9580Y4833D01*
X9571Y4827D01*
X9565Y4818D01*
X9561Y4809D01*
X9561Y4808D01*
X9590D01*
Y4837D01*
D02*
G37*
G36*
X9890D02*
X9890Y4837D01*
X9880Y4833D01*
X9871Y4827D01*
X9865Y4818D01*
X9861Y4809D01*
X9861Y4808D01*
X9890D01*
Y4837D01*
D02*
G37*
G36*
X9790D02*
X9790Y4837D01*
X9780Y4833D01*
X9771Y4827D01*
X9765Y4818D01*
X9761Y4809D01*
X9761Y4808D01*
X9790D01*
Y4837D01*
D02*
G37*
G36*
X9315Y4198D02*
X9305Y4197D01*
X9295Y4193D01*
X9286Y4187D01*
X9280Y4178D01*
X9276Y4169D01*
X9275Y4158D01*
X9276Y4148D01*
X9280Y4138D01*
X9286Y4130D01*
X9295Y4123D01*
X9305Y4119D01*
X9315Y4118D01*
X9325Y4119D01*
X9335Y4123D01*
X9344Y4130D01*
X9350Y4138D01*
X9354Y4148D01*
X9355Y4158D01*
X9354Y4169D01*
X9350Y4178D01*
X9344Y4187D01*
X9335Y4193D01*
X9325Y4197D01*
X9315Y4198D01*
D02*
G37*
G36*
X10690Y4193D02*
X10661D01*
X10661Y4193D01*
X10665Y4183D01*
X10671Y4175D01*
X10680Y4168D01*
X10690Y4164D01*
X10690Y4164D01*
Y4193D01*
D02*
G37*
G36*
X10600Y4243D02*
X10590Y4242D01*
X10580Y4238D01*
X10571Y4232D01*
X10565Y4223D01*
X10561Y4214D01*
X10560Y4203D01*
X10561Y4193D01*
X10565Y4183D01*
X10571Y4175D01*
X10580Y4168D01*
X10590Y4164D01*
X10600Y4163D01*
X10610Y4164D01*
X10620Y4168D01*
X10629Y4175D01*
X10635Y4183D01*
X10639Y4193D01*
X10640Y4203D01*
X10639Y4214D01*
X10635Y4223D01*
X10629Y4232D01*
X10620Y4238D01*
X10610Y4242D01*
X10600Y4243D01*
D02*
G37*
G36*
X10525Y4155D02*
X10515Y4154D01*
X10507Y4148D01*
X10501Y4140D01*
X10500Y4130D01*
X10501Y4120D01*
X10507Y4112D01*
X10515Y4106D01*
X10525Y4105D01*
X10535Y4106D01*
X10543Y4112D01*
X10549Y4120D01*
X10550Y4130D01*
X10549Y4140D01*
X10543Y4148D01*
X10535Y4154D01*
X10525Y4155D01*
D02*
G37*
G36*
X10710Y4142D02*
Y4113D01*
X10739D01*
X10739Y4114D01*
X10735Y4123D01*
X10729Y4132D01*
X10720Y4138D01*
X10710Y4142D01*
X10710Y4142D01*
D02*
G37*
G36*
X10690D02*
X10690Y4142D01*
X10680Y4138D01*
X10671Y4132D01*
X10665Y4123D01*
X10661Y4114D01*
X10661Y4113D01*
X10690D01*
Y4142D01*
D02*
G37*
G36*
X10376Y4282D02*
X10360D01*
X10362Y4279D01*
X10366Y4273D01*
X10372Y4268D01*
X10376Y4267D01*
Y4282D01*
D02*
G37*
G36*
X9315Y4298D02*
X9305Y4297D01*
X9295Y4293D01*
X9286Y4287D01*
X9280Y4278D01*
X9276Y4269D01*
X9275Y4258D01*
X9276Y4248D01*
X9280Y4238D01*
X9286Y4230D01*
X9295Y4223D01*
X9305Y4219D01*
X9315Y4218D01*
X9325Y4219D01*
X9335Y4223D01*
X9344Y4230D01*
X9350Y4238D01*
X9354Y4248D01*
X9355Y4258D01*
X9354Y4269D01*
X9350Y4278D01*
X9344Y4287D01*
X9335Y4293D01*
X9325Y4297D01*
X9315Y4298D01*
D02*
G37*
G36*
X9935Y4346D02*
X9928Y4345D01*
X9921Y4342D01*
X9915Y4338D01*
X9911Y4332D01*
X9908Y4325D01*
X9907Y4318D01*
X9908Y4311D01*
X9911Y4304D01*
X9915Y4299D01*
X9921Y4294D01*
X9928Y4291D01*
X9935Y4290D01*
X9942Y4291D01*
X9949Y4294D01*
X9955Y4299D01*
X9959Y4304D01*
X9962Y4311D01*
X9963Y4318D01*
X9962Y4325D01*
X9959Y4332D01*
X9955Y4338D01*
X9949Y4342D01*
X9942Y4345D01*
X9935Y4346D01*
D02*
G37*
G36*
X10710Y4242D02*
Y4213D01*
X10739D01*
X10739Y4214D01*
X10735Y4223D01*
X10729Y4232D01*
X10720Y4238D01*
X10710Y4242D01*
X10710Y4242D01*
D02*
G37*
G36*
X10739Y4193D02*
X10710D01*
Y4164D01*
X10710Y4164D01*
X10720Y4168D01*
X10729Y4175D01*
X10735Y4183D01*
X10739Y4193D01*
X10739Y4193D01*
D02*
G37*
G36*
X10690Y4242D02*
X10690Y4242D01*
X10680Y4238D01*
X10671Y4232D01*
X10665Y4223D01*
X10661Y4214D01*
X10661Y4213D01*
X10690D01*
Y4242D01*
D02*
G37*
G36*
X10710Y4042D02*
Y4013D01*
X10739D01*
X10739Y4014D01*
X10735Y4023D01*
X10729Y4032D01*
X10720Y4038D01*
X10710Y4042D01*
X10710Y4042D01*
D02*
G37*
G36*
X10690D02*
X10690Y4042D01*
X10680Y4038D01*
X10671Y4032D01*
X10665Y4023D01*
X10661Y4014D01*
X10661Y4013D01*
X10690D01*
Y4042D01*
D02*
G37*
G36*
X9895Y4019D02*
Y4003D01*
X9911D01*
X9909Y4007D01*
X9905Y4013D01*
X9899Y4017D01*
X9895Y4019D01*
D02*
G37*
G36*
X9875Y3983D02*
X9859D01*
X9861Y3979D01*
X9865Y3974D01*
X9871Y3969D01*
X9875Y3968D01*
Y3983D01*
D02*
G37*
G36*
X10739Y3993D02*
X10710D01*
Y3964D01*
X10710Y3964D01*
X10720Y3968D01*
X10729Y3975D01*
X10735Y3983D01*
X10739Y3993D01*
X10739Y3993D01*
D02*
G37*
G36*
X9875Y4019D02*
X9871Y4017D01*
X9865Y4013D01*
X9861Y4007D01*
X9859Y4003D01*
X9875D01*
Y4019D01*
D02*
G37*
G36*
X9911Y3983D02*
X9895D01*
Y3968D01*
X9899Y3969D01*
X9905Y3974D01*
X9909Y3979D01*
X9911Y3983D01*
D02*
G37*
G36*
X9817Y4163D02*
X9808Y4162D01*
X9799Y4159D01*
X9792Y4153D01*
X9786Y4146D01*
X9783Y4137D01*
X9782Y4128D01*
X9783Y4119D01*
X9786Y4110D01*
X9792Y4103D01*
X9799Y4098D01*
X9808Y4094D01*
X9817Y4093D01*
X9826Y4094D01*
X9835Y4098D01*
X9842Y4103D01*
X9847Y4110D01*
X9851Y4119D01*
X9852Y4128D01*
X9851Y4137D01*
X9847Y4146D01*
X9842Y4153D01*
X9835Y4159D01*
X9826Y4162D01*
X9817Y4163D01*
D02*
G37*
G36*
X10600Y4143D02*
X10590Y4142D01*
X10580Y4138D01*
X10571Y4132D01*
X10565Y4123D01*
X10561Y4114D01*
X10560Y4103D01*
X10561Y4093D01*
X10565Y4083D01*
X10571Y4075D01*
X10580Y4068D01*
X10590Y4064D01*
X10600Y4063D01*
X10610Y4064D01*
X10620Y4068D01*
X10629Y4075D01*
X10635Y4083D01*
X10639Y4093D01*
X10640Y4103D01*
X10639Y4114D01*
X10635Y4123D01*
X10629Y4132D01*
X10620Y4138D01*
X10610Y4142D01*
X10600Y4143D01*
D02*
G37*
G36*
X10739Y4093D02*
X10710D01*
Y4064D01*
X10710Y4064D01*
X10720Y4068D01*
X10729Y4075D01*
X10735Y4083D01*
X10739Y4093D01*
X10739Y4093D01*
D02*
G37*
G36*
X10690D02*
X10661D01*
X10661Y4093D01*
X10665Y4083D01*
X10671Y4075D01*
X10680Y4068D01*
X10690Y4064D01*
X10690Y4064D01*
Y4093D01*
D02*
G37*
G36*
X10402Y4489D02*
X10395Y4488D01*
X10388Y4485D01*
X10382Y4481D01*
X10378Y4475D01*
X10375Y4468D01*
X10374Y4461D01*
X10375Y4454D01*
X10378Y4447D01*
X10382Y4442D01*
X10388Y4437D01*
X10395Y4434D01*
X10402Y4433D01*
X10409Y4434D01*
X10416Y4437D01*
X10422Y4442D01*
X10426Y4447D01*
X10429Y4454D01*
X10430Y4461D01*
X10429Y4468D01*
X10426Y4475D01*
X10422Y4481D01*
X10416Y4485D01*
X10409Y4488D01*
X10402Y4489D01*
D02*
G37*
G36*
X9355Y4498D02*
X9275D01*
Y4418D01*
X9355D01*
Y4498D01*
D02*
G37*
G36*
Y4596D02*
X9348Y4595D01*
X9341Y4592D01*
X9335Y4588D01*
X9331Y4582D01*
X9328Y4575D01*
X9327Y4568D01*
X9328Y4561D01*
X9331Y4554D01*
X9335Y4549D01*
X9341Y4544D01*
X9348Y4541D01*
X9355Y4540D01*
X9362Y4541D01*
X9369Y4544D01*
X9375Y4549D01*
X9379Y4554D01*
X9382Y4561D01*
X9383Y4568D01*
X9382Y4575D01*
X9379Y4582D01*
X9375Y4588D01*
X9369Y4592D01*
X9362Y4595D01*
X9355Y4596D01*
D02*
G37*
G36*
X9800Y4556D02*
X9793Y4555D01*
X9786Y4552D01*
X9780Y4548D01*
X9776Y4542D01*
X9773Y4535D01*
X9772Y4528D01*
X9773Y4521D01*
X9776Y4514D01*
X9780Y4509D01*
X9786Y4504D01*
X9793Y4501D01*
X9800Y4500D01*
X9807Y4501D01*
X9814Y4504D01*
X9820Y4509D01*
X9824Y4514D01*
X9827Y4521D01*
X9828Y4528D01*
X9827Y4535D01*
X9824Y4542D01*
X9820Y4548D01*
X9814Y4552D01*
X9807Y4555D01*
X9800Y4556D01*
D02*
G37*
G36*
X9315Y4398D02*
X9305Y4397D01*
X9295Y4393D01*
X9286Y4387D01*
X9280Y4378D01*
X9276Y4369D01*
X9275Y4358D01*
X9276Y4348D01*
X9280Y4338D01*
X9286Y4330D01*
X9295Y4323D01*
X9305Y4319D01*
X9315Y4318D01*
X9325Y4319D01*
X9335Y4323D01*
X9344Y4330D01*
X9350Y4338D01*
X9354Y4348D01*
X9355Y4358D01*
X9354Y4369D01*
X9350Y4378D01*
X9344Y4387D01*
X9335Y4393D01*
X9325Y4397D01*
X9315Y4398D01*
D02*
G37*
G36*
X10436Y4320D02*
X10428Y4319D01*
X10422Y4317D01*
X10416Y4312D01*
X10414Y4309D01*
X10408D01*
X10405Y4312D01*
X10400Y4317D01*
X10396Y4318D01*
Y4293D01*
Y4267D01*
X10400Y4268D01*
X10405Y4273D01*
X10408Y4276D01*
X10414D01*
X10416Y4273D01*
X10422Y4268D01*
X10428Y4266D01*
X10436Y4265D01*
X10443Y4266D01*
X10450Y4268D01*
X10455Y4273D01*
X10460Y4279D01*
X10462Y4285D01*
X10463Y4293D01*
X10462Y4300D01*
X10460Y4306D01*
X10455Y4312D01*
X10450Y4317D01*
X10443Y4319D01*
X10436Y4320D01*
D02*
G37*
G36*
X10376Y4318D02*
X10372Y4317D01*
X10366Y4312D01*
X10362Y4306D01*
X10360Y4302D01*
X10376D01*
Y4318D01*
D02*
G37*
G36*
X10136Y4323D02*
X10120D01*
Y4308D01*
X10124Y4309D01*
X10130Y4314D01*
X10134Y4319D01*
X10136Y4323D01*
D02*
G37*
G36*
X10100D02*
X10084D01*
X10086Y4319D01*
X10090Y4314D01*
X10096Y4309D01*
X10100Y4308D01*
Y4323D01*
D02*
G37*
G36*
X10295Y4389D02*
X10291Y4387D01*
X10285Y4383D01*
X10281Y4377D01*
X10278Y4370D01*
X10277Y4363D01*
X10277Y4363D01*
X10273Y4360D01*
X10268Y4364D01*
X10259Y4367D01*
X10250Y4368D01*
X10241Y4367D01*
X10232Y4364D01*
X10225Y4358D01*
X10219Y4351D01*
X10216Y4342D01*
X10215Y4333D01*
X10216Y4324D01*
X10219Y4315D01*
X10225Y4308D01*
X10232Y4303D01*
X10241Y4299D01*
X10250Y4298D01*
X10259Y4299D01*
X10268Y4303D01*
X10275Y4308D01*
X10281Y4315D01*
X10284Y4324D01*
X10285Y4333D01*
X10285Y4338D01*
X10289Y4340D01*
X10291Y4339D01*
X10295Y4338D01*
Y4363D01*
Y4389D01*
D02*
G37*
G36*
X10315D02*
Y4373D01*
X10331D01*
X10329Y4377D01*
X10325Y4383D01*
X10319Y4387D01*
X10315Y4389D01*
D02*
G37*
G36*
X10331Y4353D02*
X10315D01*
Y4338D01*
X10319Y4339D01*
X10325Y4344D01*
X10329Y4349D01*
X10331Y4353D01*
D02*
G37*
G36*
X9675Y4391D02*
X9668Y4390D01*
X9661Y4387D01*
X9655Y4383D01*
X9651Y4377D01*
X9648Y4370D01*
X9647Y4363D01*
X9648Y4356D01*
X9651Y4349D01*
X9655Y4344D01*
X9661Y4339D01*
X9668Y4336D01*
X9675Y4335D01*
X9682Y4336D01*
X9689Y4339D01*
X9695Y4344D01*
X9699Y4349D01*
X9702Y4356D01*
X9703Y4363D01*
X9702Y4370D01*
X9699Y4377D01*
X9695Y4383D01*
X9689Y4387D01*
X9682Y4390D01*
X9675Y4391D01*
D02*
G37*
G36*
X10120Y4359D02*
Y4343D01*
X10136D01*
X10134Y4347D01*
X10130Y4353D01*
X10124Y4357D01*
X10120Y4359D01*
D02*
G37*
G36*
X10100D02*
X10096Y4357D01*
X10090Y4353D01*
X10086Y4347D01*
X10084Y4343D01*
X10100D01*
Y4359D01*
D02*
G37*
%LPD*%
D60*
X4804Y2943D02*
X4810Y2949D01*
X8602Y4321D02*
X8762Y4481D01*
X8477Y4321D02*
X8602D01*
X8362Y4206D02*
X8477Y4321D01*
X8362Y3751D02*
X8427Y3686D01*
X8362Y3751D02*
Y4206D01*
X8762Y4481D02*
Y4536D01*
X8627Y4626D02*
X8747D01*
X8787Y4586D01*
Y4416D02*
Y4586D01*
X8617Y4246D02*
X8787Y4416D01*
X9308Y4465D02*
X9315Y4458D01*
X6690Y4510D02*
Y4530D01*
X6925Y4145D02*
X6950D01*
X6730Y4340D02*
X6925Y4145D01*
X6730Y4340D02*
Y4470D01*
X6690Y4510D02*
X6730Y4470D01*
X6850Y4440D02*
X6860Y4430D01*
Y4260D02*
Y4430D01*
D61*
X4790Y2969D02*
Y3965D01*
Y2969D02*
X4810Y2949D01*
D63*
X10402Y4461D02*
X10413D01*
D66*
X8801Y2770D02*
D03*
X9026D02*
D03*
D71*
X10700Y4203D02*
D03*
Y4103D02*
D03*
Y4003D02*
D03*
Y3903D02*
D03*
Y3803D02*
D03*
Y3703D02*
D03*
Y3603D02*
D03*
Y3503D02*
D03*
X9300Y4798D02*
D03*
X9400D02*
D03*
X9500D02*
D03*
X9600D02*
D03*
X9700D02*
D03*
X9800D02*
D03*
X9900D02*
D03*
X10000D02*
D03*
D73*
X9315Y4458D02*
D03*
D75*
X9515Y3711D02*
D03*
Y3911D02*
D03*
D76*
X4930Y4395D02*
D03*
X9030Y3000D02*
D03*
X9110D02*
D03*
X8950D02*
D03*
X5355Y3725D02*
D03*
X5675Y4060D02*
D03*
Y3935D02*
D03*
Y3815D02*
D03*
X7220Y3165D02*
D03*
X7300D02*
D03*
X7385D02*
D03*
D78*
X10401Y3787D02*
D03*
X10495Y3783D02*
D03*
D80*
X4789Y2943D02*
D03*
X5111Y2825D02*
D03*
X5229D02*
D03*
X7251D02*
D03*
X7369D02*
D03*
D82*
X4790Y3965D02*
D03*
X5085Y4105D02*
D03*
X8617Y4246D02*
D03*
X9032Y3686D02*
D03*
X8427D02*
D03*
X9915Y3473D02*
D03*
X9090Y4890D02*
D03*
X9110Y4460D02*
D03*
X6950Y4145D02*
D03*
X8535Y4955D02*
D03*
X10035Y3035D02*
D03*
D83*
X6690Y4530D02*
D03*
X6685Y4660D02*
D03*
X8762Y4536D02*
D03*
X8627Y4626D02*
D03*
X8592Y4751D02*
D03*
X6850Y4440D02*
D03*
X6860Y4260D02*
D03*
D84*
X6680Y4895D02*
D03*
X5990Y4575D02*
D03*
X7767Y4796D02*
D03*
X10225Y3783D02*
D03*
X10110Y4333D02*
D03*
X10305Y4363D02*
D03*
X10402Y4461D02*
D03*
X10386Y4293D02*
D03*
X9885Y3993D02*
D03*
M02*
