G04 Layer_Color=65535*
%FSLAX23Y23*%
%MOIN*%
G70*
G01*
G75*
%ADD54C,0.010*%
%ADD59C,0.006*%
%ADD82C,0.008*%
%ADD83C,0.010*%
%ADD84C,0.024*%
%ADD85C,0.002*%
%ADD86C,0.005*%
%ADD87C,0.004*%
%ADD88C,0.005*%
D54*
X10288Y3280D02*
G03*
X10288Y3268I0J-6D01*
G01*
X9562Y4643D02*
G03*
X9587Y4643I13J0D01*
G01*
X9280Y3504D02*
X9752D01*
X9280Y3032D02*
X9752D01*
X9280D02*
Y3127D01*
X9280Y3212D02*
Y3324D01*
Y3409D02*
Y3504D01*
X9752Y3409D02*
Y3504D01*
Y3032D02*
Y3127D01*
Y3212D02*
Y3324D01*
X9937Y2666D02*
Y3001D01*
X10393D01*
X9937Y2666D02*
X10393D01*
Y3001D01*
X4950Y2885D02*
Y2990D01*
X5390Y2885D02*
Y2990D01*
X6240Y2885D02*
Y2985D01*
X10828Y4800D02*
Y4981D01*
X10942Y4800D02*
Y4981D01*
X10828Y4800D02*
X10842D01*
X10828Y4981D02*
X10842D01*
X10928D02*
X10942D01*
X10928Y4800D02*
X10942D01*
X8772Y4828D02*
X8953D01*
X8772Y4943D02*
X8953D01*
Y4828D02*
Y4843D01*
X8772Y4828D02*
Y4843D01*
Y4928D02*
Y4943D01*
X8953Y4928D02*
Y4943D01*
X8944Y4450D02*
Y4631D01*
X8830Y4450D02*
Y4631D01*
X8930D02*
X8944D01*
X8930Y4450D02*
X8944D01*
X8830D02*
X8844D01*
X8830Y4631D02*
X8844D01*
X6850Y4738D02*
X7031D01*
X6850Y4852D02*
X7031D01*
Y4738D02*
Y4752D01*
X6850Y4738D02*
Y4752D01*
Y4838D02*
Y4852D01*
X7031Y4838D02*
Y4852D01*
X7057Y4370D02*
Y4551D01*
X6943Y4370D02*
Y4551D01*
X7043D02*
X7057D01*
X7043Y4370D02*
X7057D01*
X6943D02*
X6957D01*
X6943Y4551D02*
X6957D01*
X10288Y3280D02*
Y3306D01*
Y3241D02*
Y3268D01*
X10087Y3241D02*
X10288D01*
X10087D02*
Y3306D01*
X10288D01*
X5234Y3564D02*
Y3616D01*
X5178Y3564D02*
X5234D01*
X5178D02*
Y3616D01*
X5179Y3616D02*
X5234D01*
X5191Y3566D02*
Y3614D01*
X8901Y3847D02*
X8950D01*
X8704D02*
X8754D01*
X8901Y4128D02*
X8950D01*
X8704D02*
X8754D01*
X8704Y3847D02*
Y4128D01*
X8950Y3847D02*
Y4128D01*
X7658Y3007D02*
Y3056D01*
Y3204D02*
Y3253D01*
X7939Y3007D02*
Y3056D01*
Y3204D02*
Y3253D01*
X7658D02*
X7939D01*
X7658Y3007D02*
X7939D01*
X7254Y3776D02*
X7303D01*
X7057D02*
X7106D01*
X7254Y4057D02*
X7303D01*
X7057D02*
X7106D01*
X7057Y3776D02*
Y4057D01*
X7303Y3776D02*
Y4057D01*
X5933Y3007D02*
Y3056D01*
Y3204D02*
Y3253D01*
X6214Y3007D02*
Y3056D01*
Y3204D02*
Y3253D01*
X5933D02*
X6214D01*
X5933Y3007D02*
X6214D01*
X9259Y3583D02*
X9594D01*
X9259D02*
Y4040D01*
X9594Y3583D02*
Y4040D01*
X9259D02*
X9594D01*
X8777Y2978D02*
Y3062D01*
X8097Y2978D02*
Y3062D01*
Y3569D02*
Y3653D01*
X8777Y3569D02*
Y3653D01*
X8097D02*
X8777D01*
X8097Y2978D02*
X8777D01*
X7030Y2862D02*
Y2947D01*
X6350Y2862D02*
Y2947D01*
Y3453D02*
Y3538D01*
X7030Y3453D02*
Y3538D01*
X6350D02*
X7030D01*
X6350Y2862D02*
X7030D01*
X9585Y4393D02*
Y4643D01*
X9565Y4393D02*
X9585D01*
X9565D02*
Y4643D01*
X9587D01*
X9562D02*
X9585D01*
X10653Y4799D02*
X10667D01*
X10653Y4980D02*
X10667D01*
X10553D02*
X10567D01*
X10553Y4799D02*
X10567D01*
X10667D02*
Y4980D01*
X10553Y4799D02*
Y4980D01*
X10793Y4799D02*
X10807D01*
X10793Y4980D02*
X10807D01*
X10693D02*
X10707D01*
X10693Y4799D02*
X10707D01*
X10807D02*
Y4980D01*
X10693Y4799D02*
Y4980D01*
X4210Y4887D02*
X4200Y4897D01*
X4180D01*
X4170Y4887D01*
Y4847D01*
X4180Y4837D01*
X4200D01*
X4210Y4847D01*
X4230Y4897D02*
Y4847D01*
X4240Y4837D01*
X4260D01*
X4270Y4847D01*
Y4897D01*
X4350D02*
Y4837D01*
X4380D01*
X4390Y4847D01*
Y4857D01*
X4380Y4867D01*
X4350D01*
X4380D01*
X4390Y4877D01*
Y4887D01*
X4380Y4897D01*
X4350D01*
X4420Y4837D02*
X4440D01*
X4450Y4847D01*
Y4867D01*
X4440Y4877D01*
X4420D01*
X4410Y4867D01*
Y4847D01*
X4420Y4837D01*
X4470Y4877D02*
Y4847D01*
X4480Y4837D01*
X4510D01*
Y4877D01*
X4530Y4837D02*
X4550D01*
X4540D01*
Y4897D01*
X4530D01*
X4620D02*
Y4837D01*
X4590D01*
X4580Y4847D01*
Y4867D01*
X4590Y4877D01*
X4620D01*
X4670Y4837D02*
X4650D01*
X4640Y4847D01*
Y4867D01*
X4650Y4877D01*
X4670D01*
X4680Y4867D01*
Y4857D01*
X4640D01*
X4700Y4877D02*
Y4837D01*
Y4857D01*
X4710Y4867D01*
X4720Y4877D01*
X4730D01*
X4820Y4837D02*
Y4897D01*
X4850D01*
X4860Y4887D01*
Y4867D01*
X4850Y4857D01*
X4820D01*
X4840D02*
X4860Y4837D01*
X4890D02*
X4910D01*
X4920Y4847D01*
Y4867D01*
X4910Y4877D01*
X4890D01*
X4880Y4867D01*
Y4847D01*
X4890Y4837D01*
X4940Y4897D02*
Y4837D01*
X4970D01*
X4980Y4847D01*
Y4857D01*
Y4867D01*
X4970Y4877D01*
X4940D01*
X5010Y4837D02*
X5030D01*
X5040Y4847D01*
Y4867D01*
X5030Y4877D01*
X5010D01*
X5000Y4867D01*
Y4847D01*
X5010Y4837D01*
X5100Y4887D02*
X5090Y4897D01*
X5070D01*
X5060Y4887D01*
Y4877D01*
X5070Y4867D01*
X5090D01*
X5100Y4857D01*
Y4847D01*
X5090Y4837D01*
X5070D01*
X5060Y4847D01*
X5120Y4877D02*
Y4847D01*
X5130Y4837D01*
X5160D01*
Y4877D01*
X5180Y4897D02*
Y4837D01*
X5210D01*
X5220Y4847D01*
Y4857D01*
Y4867D01*
X5210Y4877D01*
X5180D01*
X4170Y4741D02*
Y4801D01*
X4200D01*
X4210Y4791D01*
Y4771D01*
X4200Y4761D01*
X4170D01*
X4240Y4741D02*
X4260D01*
X4270Y4751D01*
Y4771D01*
X4260Y4781D01*
X4240D01*
X4230Y4771D01*
Y4751D01*
X4240Y4741D01*
X4290Y4781D02*
Y4751D01*
X4300Y4741D01*
X4310Y4751D01*
X4320Y4741D01*
X4330Y4751D01*
Y4781D01*
X4380Y4741D02*
X4360D01*
X4350Y4751D01*
Y4771D01*
X4360Y4781D01*
X4380D01*
X4390Y4771D01*
Y4761D01*
X4350D01*
X4410Y4781D02*
Y4741D01*
Y4761D01*
X4420Y4771D01*
X4430Y4781D01*
X4440D01*
X4470Y4741D02*
X4510Y4781D01*
X4570Y4801D02*
X4530D01*
Y4741D01*
X4570D01*
X4530Y4771D02*
X4550D01*
X4590Y4741D02*
Y4781D01*
X4600D01*
X4610Y4771D01*
Y4741D01*
Y4771D01*
X4620Y4781D01*
X4630Y4771D01*
Y4741D01*
X4650Y4801D02*
Y4741D01*
X4680D01*
X4690Y4751D01*
Y4761D01*
Y4771D01*
X4680Y4781D01*
X4650D01*
X4740Y4741D02*
X4720D01*
X4710Y4751D01*
Y4771D01*
X4720Y4781D01*
X4740D01*
X4750Y4771D01*
Y4761D01*
X4710D01*
X4810Y4801D02*
Y4741D01*
X4780D01*
X4770Y4751D01*
Y4771D01*
X4780Y4781D01*
X4810D01*
X4870Y4801D02*
Y4741D01*
X4840D01*
X4830Y4751D01*
Y4771D01*
X4840Y4781D01*
X4870D01*
X4920Y4741D02*
X4900D01*
X4890Y4751D01*
Y4771D01*
X4900Y4781D01*
X4920D01*
X4930Y4771D01*
Y4761D01*
X4890D01*
X4990Y4801D02*
Y4741D01*
X4960D01*
X4950Y4751D01*
Y4771D01*
X4960Y4781D01*
X4990D01*
X5110Y4791D02*
X5100Y4801D01*
X5080D01*
X5070Y4791D01*
Y4781D01*
X5080Y4771D01*
X5100D01*
X5110Y4761D01*
Y4751D01*
X5100Y4741D01*
X5080D01*
X5070Y4751D01*
X5130Y4781D02*
Y4751D01*
X5140Y4741D01*
X5170D01*
Y4731D01*
X5160Y4721D01*
X5150D01*
X5170Y4741D02*
Y4781D01*
X5190Y4741D02*
X5220D01*
X5230Y4751D01*
X5220Y4761D01*
X5200D01*
X5190Y4771D01*
X5200Y4781D01*
X5230D01*
X5260Y4791D02*
Y4781D01*
X5250D01*
X5270D01*
X5260D01*
Y4751D01*
X5270Y4741D01*
X5330D02*
X5310D01*
X5300Y4751D01*
Y4771D01*
X5310Y4781D01*
X5330D01*
X5340Y4771D01*
Y4761D01*
X5300D01*
X5360Y4741D02*
Y4781D01*
X5370D01*
X5380Y4771D01*
Y4741D01*
Y4771D01*
X5390Y4781D01*
X5400Y4771D01*
Y4741D01*
X5480Y4801D02*
Y4741D01*
X5510D01*
X5520Y4751D01*
Y4761D01*
X5510Y4771D01*
X5480D01*
X5510D01*
X5520Y4781D01*
Y4791D01*
X5510Y4801D01*
X5480D01*
X5550Y4741D02*
X5570D01*
X5580Y4751D01*
Y4771D01*
X5570Y4781D01*
X5550D01*
X5540Y4771D01*
Y4751D01*
X5550Y4741D01*
X5610Y4781D02*
X5630D01*
X5640Y4771D01*
Y4741D01*
X5610D01*
X5600Y4751D01*
X5610Y4761D01*
X5640D01*
X5660Y4781D02*
Y4741D01*
Y4761D01*
X5670Y4771D01*
X5680Y4781D01*
X5690D01*
X5759Y4801D02*
Y4741D01*
X5729D01*
X5719Y4751D01*
Y4771D01*
X5729Y4781D01*
X5759D01*
X4170Y4625D02*
Y4685D01*
X4200D01*
X4210Y4675D01*
Y4655D01*
X4200Y4645D01*
X4170D01*
X4190D02*
X4210Y4625D01*
X4260D02*
X4240D01*
X4230Y4635D01*
Y4655D01*
X4240Y4665D01*
X4260D01*
X4270Y4655D01*
Y4645D01*
X4230D01*
X4290Y4665D02*
X4310Y4625D01*
X4330Y4665D01*
X4440Y4625D02*
Y4685D01*
X4410Y4655D01*
X4450D01*
X8530Y2840D02*
Y2900D01*
X8560D01*
X8570Y2890D01*
Y2870D01*
X8560Y2860D01*
X8530D01*
X8590Y2840D02*
X8610D01*
X8600D01*
Y2900D01*
X8590Y2890D01*
X6860Y2665D02*
Y2625D01*
X6880Y2605D01*
X6900Y2625D01*
Y2665D01*
X6920D02*
Y2605D01*
X6950D01*
X6960Y2615D01*
Y2625D01*
Y2635D01*
X6950Y2645D01*
X6920D01*
X6990D02*
X7010D01*
X7020Y2635D01*
Y2605D01*
X6990D01*
X6980Y2615D01*
X6990Y2625D01*
X7020D01*
X7050Y2655D02*
Y2645D01*
X7040D01*
X7060D01*
X7050D01*
Y2615D01*
X7060Y2605D01*
X4745Y3075D02*
Y3135D01*
X4715Y3105D01*
X4755D01*
X4775Y3125D02*
X4785Y3135D01*
X4805D01*
X4815Y3125D01*
Y3115D01*
X4805Y3105D01*
X4815Y3095D01*
Y3085D01*
X4805Y3075D01*
X4785D01*
X4775Y3085D01*
Y3095D01*
X4785Y3105D01*
X4775Y3115D01*
Y3125D01*
X4785Y3105D02*
X4805D01*
X4835Y3135D02*
Y3095D01*
X4855Y3075D01*
X4875Y3095D01*
Y3135D01*
X5080D02*
Y3095D01*
X5100Y3075D01*
X5120Y3095D01*
Y3135D01*
X5140D02*
Y3075D01*
X5170D01*
X5180Y3085D01*
Y3095D01*
Y3105D01*
X5170Y3115D01*
X5140D01*
X5210D02*
X5230D01*
X5240Y3105D01*
Y3075D01*
X5210D01*
X5200Y3085D01*
X5210Y3095D01*
X5240D01*
X5270Y3125D02*
Y3115D01*
X5260D01*
X5280D01*
X5270D01*
Y3085D01*
X5280Y3075D01*
X7990Y2605D02*
X8010D01*
X8000D01*
Y2665D01*
X7990Y2655D01*
X8080Y2605D02*
X8040D01*
X8080Y2645D01*
Y2655D01*
X8070Y2665D01*
X8050D01*
X8040Y2655D01*
X8100Y2665D02*
Y2625D01*
X8120Y2605D01*
X8140Y2625D01*
Y2665D01*
X5655Y3080D02*
X5675D01*
X5665D01*
Y3140D01*
X5655Y3130D01*
X5705Y3090D02*
X5715Y3080D01*
X5735D01*
X5745Y3090D01*
Y3130D01*
X5735Y3140D01*
X5715D01*
X5705Y3130D01*
Y3120D01*
X5715Y3110D01*
X5745D01*
X5765Y3140D02*
Y3100D01*
X5785Y3080D01*
X5805Y3100D01*
Y3140D01*
X10455Y2555D02*
X10465Y2545D01*
X10485D01*
X10495Y2555D01*
Y2595D01*
X10485Y2605D01*
X10465D01*
X10455Y2595D01*
Y2585D01*
X10465Y2575D01*
X10495D01*
X10515Y2605D02*
Y2565D01*
X10535Y2545D01*
X10555Y2565D01*
Y2605D01*
X8803Y4062D02*
X8843D01*
X8863Y4042D01*
X8843Y4022D01*
X8803D01*
X8833D01*
Y4062D01*
X8863Y3952D02*
X8803D01*
X8823D01*
X8863Y3912D01*
X8833Y3942D01*
X8803Y3912D01*
X7873Y3155D02*
Y3115D01*
X7853Y3095D01*
X7833Y3115D01*
Y3155D01*
Y3125D01*
X7873D01*
X7763Y3095D02*
Y3155D01*
Y3135D01*
X7723Y3095D01*
X7753Y3125D01*
X7723Y3155D01*
X7155Y3992D02*
X7195D01*
X7215Y3972D01*
X7195Y3952D01*
X7155D01*
X7185D01*
Y3992D01*
X7215Y3881D02*
X7155D01*
X7175D01*
X7215Y3841D01*
X7185Y3871D01*
X7155Y3841D01*
X6148Y3155D02*
Y3115D01*
X6128Y3095D01*
X6108Y3115D01*
Y3155D01*
Y3125D01*
X6148D01*
X6038Y3095D02*
Y3155D01*
Y3135D01*
X5998Y3095D01*
X6028Y3125D01*
X5998Y3155D01*
D59*
X9280Y3567D02*
Y3535D01*
X9296D01*
X9301Y3540D01*
Y3546D01*
X9296Y3551D01*
X9280D01*
X9296D01*
X9301Y3556D01*
Y3562D01*
X9296Y3567D01*
X9280D01*
X9312Y3535D02*
X9323D01*
X9317D01*
Y3567D01*
X9312Y3562D01*
X9865Y2702D02*
Y2675D01*
X9870Y2670D01*
X9881D01*
X9886Y2675D01*
Y2702D01*
X9897Y2697D02*
X9902Y2702D01*
X9913D01*
X9918Y2697D01*
Y2691D01*
X9913Y2686D01*
X9918Y2681D01*
Y2675D01*
X9913Y2670D01*
X9902D01*
X9897Y2675D01*
Y2681D01*
X9902Y2686D01*
X9897Y2691D01*
Y2697D01*
X9902Y2686D02*
X9913D01*
X5591Y3042D02*
X5581D01*
X5586D01*
Y3015D01*
X5581Y3010D01*
X5575D01*
X5570Y3015D01*
X5602Y3037D02*
X5607Y3042D01*
X5618D01*
X5623Y3037D01*
Y3031D01*
X5618Y3026D01*
X5623Y3021D01*
Y3015D01*
X5618Y3010D01*
X5607D01*
X5602Y3015D01*
Y3021D01*
X5607Y3026D01*
X5602Y3031D01*
Y3037D01*
X5607Y3026D02*
X5618D01*
X6866Y2780D02*
X6861Y2785D01*
X6850D01*
X6845Y2780D01*
Y2758D01*
X6850Y2753D01*
X6861D01*
X6866Y2758D01*
X6898Y2785D02*
X6877D01*
Y2769D01*
X6888Y2774D01*
X6893D01*
X6898Y2769D01*
Y2758D01*
X6893Y2753D01*
X6882D01*
X6877Y2758D01*
X6930Y2785D02*
X6920Y2780D01*
X6909Y2769D01*
Y2758D01*
X6914Y2753D01*
X6925D01*
X6930Y2758D01*
Y2764D01*
X6925Y2769D01*
X6909D01*
X5356Y3212D02*
X5351Y3217D01*
X5340D01*
X5335Y3212D01*
Y3190D01*
X5340Y3185D01*
X5351D01*
X5356Y3190D01*
X5388Y3217D02*
X5367D01*
Y3201D01*
X5378Y3206D01*
X5383D01*
X5388Y3201D01*
Y3190D01*
X5383Y3185D01*
X5372D01*
X5367Y3190D01*
X5420Y3217D02*
X5399D01*
Y3201D01*
X5410Y3206D01*
X5415D01*
X5420Y3201D01*
Y3190D01*
X5415Y3185D01*
X5404D01*
X5399Y3190D01*
X7456Y3012D02*
X7446D01*
X7451D01*
Y2985D01*
X7446Y2980D01*
X7440D01*
X7435Y2985D01*
X7467Y3012D02*
X7488D01*
Y3007D01*
X7467Y2985D01*
Y2980D01*
X5166Y3047D02*
X5156D01*
X5161D01*
Y3020D01*
X5156Y3015D01*
X5150D01*
X5145Y3020D01*
X5198Y3047D02*
X5188Y3042D01*
X5177Y3031D01*
Y3020D01*
X5182Y3015D01*
X5193D01*
X5198Y3020D01*
Y3026D01*
X5193Y3031D01*
X5177D01*
X10020Y3325D02*
Y3298D01*
X10025Y3293D01*
X10036D01*
X10041Y3298D01*
Y3325D01*
X10052D02*
X10073D01*
Y3320D01*
X10052Y3298D01*
Y3293D01*
X10879Y3090D02*
Y3063D01*
X10884Y3058D01*
X10895D01*
X10900Y3063D01*
Y3090D01*
X10932D02*
X10921Y3085D01*
X10911Y3074D01*
Y3063D01*
X10916Y3058D01*
X10927D01*
X10932Y3063D01*
Y3069D01*
X10927Y3074D01*
X10911D01*
X9270Y4085D02*
Y4058D01*
X9275Y4053D01*
X9286D01*
X9291Y4058D01*
Y4085D01*
X9323D02*
X9302D01*
Y4069D01*
X9313Y4074D01*
X9318D01*
X9323Y4069D01*
Y4058D01*
X9318Y4053D01*
X9307D01*
X9302Y4058D01*
X9975Y4352D02*
Y4325D01*
X9980Y4320D01*
X9991D01*
X9996Y4325D01*
Y4352D01*
X10023Y4320D02*
Y4352D01*
X10007Y4336D01*
X10028D01*
X6322Y4839D02*
Y4812D01*
X6327Y4807D01*
X6338D01*
X6343Y4812D01*
Y4839D01*
X6375Y4807D02*
X6354D01*
X6375Y4828D01*
Y4834D01*
X6370Y4839D01*
X6359D01*
X6354Y4834D01*
X8235Y4912D02*
Y4885D01*
X8240Y4880D01*
X8251D01*
X8256Y4885D01*
Y4912D01*
X8267Y4880D02*
X8278D01*
X8272D01*
Y4912D01*
X8267Y4907D01*
X10475Y3061D02*
Y3093D01*
X10491D01*
X10496Y3088D01*
Y3077D01*
X10491Y3072D01*
X10475D01*
X10486D02*
X10496Y3061D01*
X10507Y3088D02*
X10512Y3093D01*
X10523D01*
X10528Y3088D01*
Y3083D01*
X10523Y3077D01*
X10518D01*
X10523D01*
X10528Y3072D01*
Y3067D01*
X10523Y3061D01*
X10512D01*
X10507Y3067D01*
X10539Y3093D02*
X10560D01*
Y3088D01*
X10539Y3067D01*
Y3061D01*
X10299Y3281D02*
Y3313D01*
X10315D01*
X10320Y3308D01*
Y3297D01*
X10315Y3292D01*
X10299D01*
X10310D02*
X10320Y3281D01*
X10331Y3308D02*
X10336Y3313D01*
X10347D01*
X10352Y3308D01*
Y3303D01*
X10347Y3297D01*
X10342D01*
X10347D01*
X10352Y3292D01*
Y3287D01*
X10347Y3281D01*
X10336D01*
X10331Y3287D01*
X10384Y3313D02*
X10374Y3308D01*
X10363Y3297D01*
Y3287D01*
X10368Y3281D01*
X10379D01*
X10384Y3287D01*
Y3292D01*
X10379Y3297D01*
X10363D01*
X10300Y3231D02*
Y3263D01*
X10316D01*
X10321Y3258D01*
Y3247D01*
X10316Y3242D01*
X10300D01*
X10311D02*
X10321Y3231D01*
X10332Y3258D02*
X10337Y3263D01*
X10348D01*
X10353Y3258D01*
Y3253D01*
X10348Y3247D01*
X10343D01*
X10348D01*
X10353Y3242D01*
Y3237D01*
X10348Y3231D01*
X10337D01*
X10332Y3237D01*
X10385Y3263D02*
X10364D01*
Y3247D01*
X10375Y3253D01*
X10380D01*
X10385Y3247D01*
Y3237D01*
X10380Y3231D01*
X10369D01*
X10364Y3237D01*
X10310Y3813D02*
X10278D01*
Y3829D01*
X10283Y3834D01*
X10294D01*
X10299Y3829D01*
Y3813D01*
Y3824D02*
X10310Y3834D01*
X10283Y3845D02*
X10278Y3850D01*
Y3861D01*
X10283Y3866D01*
X10289D01*
X10294Y3861D01*
Y3856D01*
Y3861D01*
X10299Y3866D01*
X10305D01*
X10310Y3861D01*
Y3850D01*
X10305Y3845D01*
X10310Y3893D02*
X10278D01*
X10294Y3877D01*
Y3898D01*
X10170Y3813D02*
X10138D01*
Y3829D01*
X10143Y3834D01*
X10154D01*
X10159Y3829D01*
Y3813D01*
Y3824D02*
X10170Y3834D01*
X10143Y3845D02*
X10138Y3850D01*
Y3861D01*
X10143Y3866D01*
X10149D01*
X10154Y3861D01*
Y3856D01*
Y3861D01*
X10159Y3866D01*
X10165D01*
X10170Y3861D01*
Y3850D01*
X10165Y3845D01*
X10143Y3877D02*
X10138Y3882D01*
Y3893D01*
X10143Y3898D01*
X10149D01*
X10154Y3893D01*
Y3888D01*
Y3893D01*
X10159Y3898D01*
X10165D01*
X10170Y3893D01*
Y3882D01*
X10165Y3877D01*
X10470Y4433D02*
X10438D01*
Y4449D01*
X10443Y4454D01*
X10454D01*
X10459Y4449D01*
Y4433D01*
Y4444D02*
X10470Y4454D01*
X10443Y4465D02*
X10438Y4470D01*
Y4481D01*
X10443Y4486D01*
X10449D01*
X10454Y4481D01*
Y4476D01*
Y4481D01*
X10459Y4486D01*
X10465D01*
X10470Y4481D01*
Y4470D01*
X10465Y4465D01*
X10470Y4518D02*
Y4497D01*
X10449Y4518D01*
X10443D01*
X10438Y4513D01*
Y4502D01*
X10443Y4497D01*
X10420Y4498D02*
X10388D01*
Y4514D01*
X10393Y4519D01*
X10404D01*
X10409Y4514D01*
Y4498D01*
Y4509D02*
X10420Y4519D01*
X10393Y4530D02*
X10388Y4535D01*
Y4546D01*
X10393Y4551D01*
X10399D01*
X10404Y4546D01*
Y4541D01*
Y4546D01*
X10409Y4551D01*
X10415D01*
X10420Y4546D01*
Y4535D01*
X10415Y4530D01*
X10420Y4562D02*
Y4573D01*
Y4567D01*
X10388D01*
X10393Y4562D01*
X9490Y4243D02*
Y4275D01*
X9506D01*
X9511Y4270D01*
Y4259D01*
X9506Y4254D01*
X9490D01*
X9501D02*
X9511Y4243D01*
X9522Y4270D02*
X9527Y4275D01*
X9538D01*
X9543Y4270D01*
Y4264D01*
X9538Y4259D01*
X9533D01*
X9538D01*
X9543Y4254D01*
Y4248D01*
X9538Y4243D01*
X9527D01*
X9522Y4248D01*
X9554Y4270D02*
X9559Y4275D01*
X9570D01*
X9575Y4270D01*
Y4248D01*
X9570Y4243D01*
X9559D01*
X9554Y4248D01*
Y4270D01*
X9495Y4338D02*
Y4370D01*
X9511D01*
X9516Y4365D01*
Y4354D01*
X9511Y4349D01*
X9495D01*
X9506D02*
X9516Y4338D01*
X9548D02*
X9527D01*
X9548Y4359D01*
Y4365D01*
X9543Y4370D01*
X9532D01*
X9527Y4365D01*
X9559Y4343D02*
X9564Y4338D01*
X9575D01*
X9580Y4343D01*
Y4365D01*
X9575Y4370D01*
X9564D01*
X9559Y4365D01*
Y4359D01*
X9564Y4354D01*
X9580D01*
X10015Y3705D02*
X9983D01*
Y3721D01*
X9988Y3726D01*
X9999D01*
X10004Y3721D01*
Y3705D01*
Y3716D02*
X10015Y3726D01*
Y3758D02*
Y3737D01*
X9994Y3758D01*
X9988D01*
X9983Y3753D01*
Y3742D01*
X9988Y3737D01*
Y3769D02*
X9983Y3774D01*
Y3785D01*
X9988Y3790D01*
X9994D01*
X9999Y3785D01*
X10004Y3790D01*
X10010D01*
X10015Y3785D01*
Y3774D01*
X10010Y3769D01*
X10004D01*
X9999Y3774D01*
X9994Y3769D01*
X9988D01*
X9999Y3774D02*
Y3785D01*
X10120Y3705D02*
X10088D01*
Y3721D01*
X10093Y3726D01*
X10104D01*
X10109Y3721D01*
Y3705D01*
Y3716D02*
X10120Y3726D01*
Y3758D02*
Y3737D01*
X10099Y3758D01*
X10093D01*
X10088Y3753D01*
Y3742D01*
X10093Y3737D01*
X10088Y3769D02*
Y3790D01*
X10093D01*
X10115Y3769D01*
X10120D01*
X4940Y3885D02*
X4972D01*
Y3869D01*
X4967Y3864D01*
X4956D01*
X4951Y3869D01*
Y3885D01*
Y3874D02*
X4940Y3864D01*
Y3832D02*
Y3853D01*
X4961Y3832D01*
X4967D01*
X4972Y3837D01*
Y3848D01*
X4967Y3853D01*
X4972Y3800D02*
X4967Y3810D01*
X4956Y3821D01*
X4945D01*
X4940Y3816D01*
Y3805D01*
X4945Y3800D01*
X4951D01*
X4956Y3805D01*
Y3821D01*
X5305Y3590D02*
Y3622D01*
X5321D01*
X5326Y3617D01*
Y3606D01*
X5321Y3601D01*
X5305D01*
X5316D02*
X5326Y3590D01*
X5358D02*
X5337D01*
X5358Y3611D01*
Y3617D01*
X5353Y3622D01*
X5342D01*
X5337Y3617D01*
X5390Y3622D02*
X5369D01*
Y3606D01*
X5380Y3611D01*
X5385D01*
X5390Y3606D01*
Y3595D01*
X5385Y3590D01*
X5374D01*
X5369Y3595D01*
X4900Y4130D02*
Y4162D01*
X4916D01*
X4921Y4157D01*
Y4146D01*
X4916Y4141D01*
X4900D01*
X4911D02*
X4921Y4130D01*
X4953D02*
X4932D01*
X4953Y4151D01*
Y4157D01*
X4948Y4162D01*
X4937D01*
X4932Y4157D01*
X4980Y4130D02*
Y4162D01*
X4964Y4146D01*
X4985D01*
X5010Y4085D02*
X5042D01*
Y4069D01*
X5037Y4064D01*
X5026D01*
X5021Y4069D01*
Y4085D01*
Y4074D02*
X5010Y4064D01*
Y4032D02*
Y4053D01*
X5031Y4032D01*
X5037D01*
X5042Y4037D01*
Y4048D01*
X5037Y4053D01*
Y4021D02*
X5042Y4016D01*
Y4005D01*
X5037Y4000D01*
X5031D01*
X5026Y4005D01*
Y4010D01*
Y4005D01*
X5021Y4000D01*
X5015D01*
X5010Y4005D01*
Y4016D01*
X5015Y4021D01*
X5275Y4300D02*
Y4332D01*
X5291D01*
X5296Y4327D01*
Y4316D01*
X5291Y4311D01*
X5275D01*
X5286D02*
X5296Y4300D01*
X5328D02*
X5307D01*
X5328Y4321D01*
Y4327D01*
X5323Y4332D01*
X5312D01*
X5307Y4327D01*
X5360Y4300D02*
X5339D01*
X5360Y4321D01*
Y4327D01*
X5355Y4332D01*
X5344D01*
X5339Y4327D01*
X5875Y4745D02*
Y4777D01*
X5891D01*
X5896Y4771D01*
Y4761D01*
X5891Y4755D01*
X5875D01*
X5886D02*
X5896Y4745D01*
X5928D02*
X5907D01*
X5928Y4766D01*
Y4771D01*
X5923Y4777D01*
X5912D01*
X5907Y4771D01*
X5939D02*
X5944Y4777D01*
X5955D01*
X5960Y4771D01*
Y4750D01*
X5955Y4745D01*
X5944D01*
X5939Y4750D01*
Y4771D01*
X5880Y4420D02*
Y4452D01*
X5896D01*
X5901Y4447D01*
Y4436D01*
X5896Y4431D01*
X5880D01*
X5891D02*
X5901Y4420D01*
X5912D02*
X5923D01*
X5917D01*
Y4452D01*
X5912Y4447D01*
X5939Y4425D02*
X5944Y4420D01*
X5955D01*
X5960Y4425D01*
Y4447D01*
X5955Y4452D01*
X5944D01*
X5939Y4447D01*
Y4441D01*
X5944Y4436D01*
X5960D01*
X5960Y4810D02*
Y4842D01*
X5976D01*
X5982Y4837D01*
Y4826D01*
X5976Y4821D01*
X5960D01*
X5971D02*
X5982Y4810D01*
X5992D02*
X6003D01*
X5998D01*
Y4842D01*
X5992Y4837D01*
X6019Y4842D02*
X6040D01*
Y4837D01*
X6019Y4815D01*
Y4810D01*
X7180Y4220D02*
Y4252D01*
X7196D01*
X7201Y4247D01*
Y4236D01*
X7196Y4231D01*
X7180D01*
X7191D02*
X7201Y4220D01*
X7212D02*
X7223D01*
X7217D01*
Y4252D01*
X7212Y4247D01*
X7260Y4252D02*
X7249Y4247D01*
X7239Y4236D01*
Y4225D01*
X7244Y4220D01*
X7255D01*
X7260Y4225D01*
Y4231D01*
X7255Y4236D01*
X7239D01*
X6330Y4190D02*
Y4222D01*
X6346D01*
X6351Y4217D01*
Y4206D01*
X6346Y4201D01*
X6330D01*
X6341D02*
X6351Y4190D01*
X6362D02*
X6373D01*
X6367D01*
Y4222D01*
X6362Y4217D01*
X6410Y4222D02*
X6389D01*
Y4206D01*
X6399Y4211D01*
X6405D01*
X6410Y4206D01*
Y4195D01*
X6405Y4190D01*
X6394D01*
X6389Y4195D01*
X6055Y4745D02*
Y4777D01*
X6071D01*
X6076Y4772D01*
Y4761D01*
X6071Y4756D01*
X6055D01*
X6066D02*
X6076Y4745D01*
X6087D02*
X6098D01*
X6092D01*
Y4777D01*
X6087Y4772D01*
X6130Y4745D02*
Y4777D01*
X6114Y4761D01*
X6135D01*
X6530Y4795D02*
Y4827D01*
X6546D01*
X6551Y4822D01*
Y4811D01*
X6546Y4806D01*
X6530D01*
X6541D02*
X6551Y4795D01*
X6562D02*
X6573D01*
X6567D01*
Y4827D01*
X6562Y4822D01*
X6589D02*
X6594Y4827D01*
X6605D01*
X6610Y4822D01*
Y4816D01*
X6605Y4811D01*
X6599D01*
X6605D01*
X6610Y4806D01*
Y4800D01*
X6605Y4795D01*
X6594D01*
X6589Y4800D01*
X6020Y4560D02*
Y4592D01*
X6036D01*
X6041Y4587D01*
Y4576D01*
X6036Y4571D01*
X6020D01*
X6031D02*
X6041Y4560D01*
X6052D02*
X6063D01*
X6057D01*
Y4592D01*
X6052Y4587D01*
X6100Y4560D02*
X6079D01*
X6100Y4581D01*
Y4587D01*
X6095Y4592D01*
X6084D01*
X6079Y4587D01*
X6115Y4540D02*
Y4572D01*
X6131D01*
X6136Y4567D01*
Y4556D01*
X6131Y4551D01*
X6115D01*
X6126D02*
X6136Y4540D01*
X6147D02*
X6158D01*
X6152D01*
Y4572D01*
X6147Y4567D01*
X6174Y4540D02*
X6184D01*
X6179D01*
Y4572D01*
X6174Y4567D01*
X7637Y4766D02*
Y4798D01*
X7653D01*
X7659Y4792D01*
Y4782D01*
X7653Y4776D01*
X7637D01*
X7648D02*
X7659Y4766D01*
X7669D02*
X7680D01*
X7675D01*
Y4798D01*
X7669Y4792D01*
X7696D02*
X7701Y4798D01*
X7712D01*
X7717Y4792D01*
Y4771D01*
X7712Y4766D01*
X7701D01*
X7696Y4771D01*
Y4792D01*
X7617Y4601D02*
Y4633D01*
X7633D01*
X7639Y4627D01*
Y4617D01*
X7633Y4611D01*
X7617D01*
X7628D02*
X7639Y4601D01*
X7649Y4606D02*
X7655Y4601D01*
X7665D01*
X7671Y4606D01*
Y4627D01*
X7665Y4633D01*
X7655D01*
X7649Y4627D01*
Y4622D01*
X7655Y4617D01*
X7671D01*
X7907Y4916D02*
Y4948D01*
X7923D01*
X7929Y4942D01*
Y4932D01*
X7923Y4926D01*
X7907D01*
X7918D02*
X7929Y4916D01*
X7939Y4942D02*
X7945Y4948D01*
X7955D01*
X7961Y4942D01*
Y4937D01*
X7955Y4932D01*
X7961Y4926D01*
Y4921D01*
X7955Y4916D01*
X7945D01*
X7939Y4921D01*
Y4926D01*
X7945Y4932D01*
X7939Y4937D01*
Y4942D01*
X7945Y4932D02*
X7955D01*
X8567Y4366D02*
Y4398D01*
X8583D01*
X8589Y4392D01*
Y4382D01*
X8583Y4376D01*
X8567D01*
X8578D02*
X8589Y4366D01*
X8599Y4398D02*
X8621D01*
Y4392D01*
X8599Y4371D01*
Y4366D01*
X8292D02*
Y4398D01*
X8308D01*
X8314Y4392D01*
Y4382D01*
X8308Y4376D01*
X8292D01*
X8303D02*
X8314Y4366D01*
X8346Y4398D02*
X8335Y4392D01*
X8324Y4382D01*
Y4371D01*
X8330Y4366D01*
X8340D01*
X8346Y4371D01*
Y4376D01*
X8340Y4382D01*
X8324D01*
X7902Y4796D02*
Y4828D01*
X7918D01*
X7924Y4822D01*
Y4812D01*
X7918Y4806D01*
X7902D01*
X7913D02*
X7924Y4796D01*
X7956Y4828D02*
X7934D01*
Y4812D01*
X7945Y4817D01*
X7950D01*
X7956Y4812D01*
Y4801D01*
X7950Y4796D01*
X7940D01*
X7934Y4801D01*
X8440Y4875D02*
Y4907D01*
X8456D01*
X8461Y4902D01*
Y4891D01*
X8456Y4886D01*
X8440D01*
X8451D02*
X8461Y4875D01*
X8488D02*
Y4907D01*
X8472Y4891D01*
X8493D01*
X7802Y4826D02*
Y4858D01*
X7818D01*
X7824Y4853D01*
Y4842D01*
X7818Y4837D01*
X7802D01*
X7813D02*
X7824Y4826D01*
X7834Y4853D02*
X7840Y4858D01*
X7850D01*
X7856Y4853D01*
Y4847D01*
X7850Y4842D01*
X7845D01*
X7850D01*
X7856Y4837D01*
Y4831D01*
X7850Y4826D01*
X7840D01*
X7834Y4831D01*
X8037Y4531D02*
Y4563D01*
X8053D01*
X8059Y4557D01*
Y4547D01*
X8053Y4541D01*
X8037D01*
X8048D02*
X8059Y4531D01*
X8091D02*
X8069D01*
X8091Y4552D01*
Y4557D01*
X8085Y4563D01*
X8075D01*
X8069Y4557D01*
X10151Y4635D02*
Y4657D01*
X10146Y4662D01*
X10135D01*
X10130Y4657D01*
Y4635D01*
X10135Y4630D01*
X10146D01*
X10140Y4641D02*
X10151Y4630D01*
X10146D02*
X10151Y4635D01*
X10162Y4630D02*
X10172D01*
X10167D01*
Y4662D01*
X10162Y4657D01*
X10204Y4630D02*
Y4662D01*
X10188Y4646D01*
X10210D01*
X10266Y4635D02*
Y4657D01*
X10261Y4662D01*
X10250D01*
X10245Y4657D01*
Y4635D01*
X10250Y4630D01*
X10261D01*
X10256Y4641D02*
X10266Y4630D01*
X10261D02*
X10266Y4635D01*
X10277Y4630D02*
X10288D01*
X10282D01*
Y4662D01*
X10277Y4657D01*
X10304D02*
X10309Y4662D01*
X10320D01*
X10325Y4657D01*
Y4651D01*
X10320Y4646D01*
X10314D01*
X10320D01*
X10325Y4641D01*
Y4635D01*
X10320Y4630D01*
X10309D01*
X10304Y4635D01*
X10421Y4640D02*
Y4662D01*
X10416Y4667D01*
X10405D01*
X10400Y4662D01*
Y4640D01*
X10405Y4635D01*
X10416D01*
X10411Y4646D02*
X10421Y4635D01*
X10416D02*
X10421Y4640D01*
X10432Y4635D02*
X10443D01*
X10437D01*
Y4667D01*
X10432Y4662D01*
X10480Y4635D02*
X10459D01*
X10480Y4656D01*
Y4662D01*
X10475Y4667D01*
X10464D01*
X10459Y4662D01*
X4511Y3355D02*
Y3377D01*
X4506Y3382D01*
X4495D01*
X4490Y3377D01*
Y3355D01*
X4495Y3350D01*
X4506D01*
X4501Y3361D02*
X4511Y3350D01*
X4506D02*
X4511Y3355D01*
X4522Y3350D02*
X4533D01*
X4527D01*
Y3382D01*
X4522Y3377D01*
X4549Y3350D02*
X4559D01*
X4554D01*
Y3382D01*
X4549Y3377D01*
X5001Y3230D02*
Y3252D01*
X4996Y3257D01*
X4985D01*
X4980Y3252D01*
Y3230D01*
X4985Y3225D01*
X4996D01*
X4991Y3236D02*
X5001Y3225D01*
X4996D02*
X5001Y3230D01*
X5012Y3225D02*
X5023D01*
X5017D01*
Y3257D01*
X5012Y3252D01*
X5039D02*
X5044Y3257D01*
X5055D01*
X5060Y3252D01*
Y3230D01*
X5055Y3225D01*
X5044D01*
X5039Y3230D01*
Y3252D01*
X5796Y3605D02*
Y3627D01*
X5791Y3632D01*
X5780D01*
X5775Y3627D01*
Y3605D01*
X5780Y3600D01*
X5791D01*
X5786Y3611D02*
X5796Y3600D01*
X5791D02*
X5796Y3605D01*
X5807D02*
X5812Y3600D01*
X5823D01*
X5828Y3605D01*
Y3627D01*
X5823Y3632D01*
X5812D01*
X5807Y3627D01*
Y3621D01*
X5812Y3616D01*
X5828D01*
X6343Y4140D02*
Y4161D01*
X6338Y4167D01*
X6327D01*
X6322Y4161D01*
Y4140D01*
X6327Y4135D01*
X6338D01*
X6333Y4145D02*
X6343Y4135D01*
X6338D02*
X6343Y4140D01*
X6354Y4161D02*
X6359Y4167D01*
X6370D01*
X6375Y4161D01*
Y4156D01*
X6370Y4151D01*
X6375Y4145D01*
Y4140D01*
X6370Y4135D01*
X6359D01*
X6354Y4140D01*
Y4145D01*
X6359Y4151D01*
X6354Y4156D01*
Y4161D01*
X6359Y4151D02*
X6370D01*
X6733Y4145D02*
Y4167D01*
X6728Y4172D01*
X6717D01*
X6712Y4167D01*
Y4145D01*
X6717Y4140D01*
X6728D01*
X6723Y4151D02*
X6733Y4140D01*
X6728D02*
X6733Y4145D01*
X6744Y4172D02*
X6765D01*
Y4167D01*
X6744Y4145D01*
Y4140D01*
X7391Y3725D02*
Y3747D01*
X7386Y3752D01*
X7375D01*
X7370Y3747D01*
Y3725D01*
X7375Y3720D01*
X7386D01*
X7381Y3731D02*
X7391Y3720D01*
X7386D02*
X7391Y3725D01*
X7423Y3752D02*
X7413Y3747D01*
X7402Y3736D01*
Y3725D01*
X7407Y3720D01*
X7418D01*
X7423Y3725D01*
Y3731D01*
X7418Y3736D01*
X7402D01*
X7539Y3586D02*
Y3607D01*
X7533Y3613D01*
X7523D01*
X7517Y3607D01*
Y3586D01*
X7523Y3581D01*
X7533D01*
X7528Y3591D02*
X7539Y3581D01*
X7533D02*
X7539Y3586D01*
X7571Y3613D02*
X7549D01*
Y3597D01*
X7560Y3602D01*
X7565D01*
X7571Y3597D01*
Y3586D01*
X7565Y3581D01*
X7555D01*
X7549Y3586D01*
X8194Y4141D02*
Y4163D01*
X8188Y4168D01*
X8178D01*
X8172Y4163D01*
Y4141D01*
X8178Y4136D01*
X8188D01*
X8183Y4147D02*
X8194Y4136D01*
X8188D02*
X8194Y4141D01*
X8220Y4136D02*
Y4168D01*
X8204Y4152D01*
X8226D01*
X8524Y4141D02*
Y4163D01*
X8518Y4168D01*
X8508D01*
X8502Y4163D01*
Y4141D01*
X8508Y4136D01*
X8518D01*
X8513Y4147D02*
X8524Y4136D01*
X8518D02*
X8524Y4141D01*
X8534Y4163D02*
X8540Y4168D01*
X8550D01*
X8556Y4163D01*
Y4157D01*
X8550Y4152D01*
X8545D01*
X8550D01*
X8556Y4147D01*
Y4141D01*
X8550Y4136D01*
X8540D01*
X8534Y4141D01*
X8896Y3566D02*
Y3587D01*
X8890Y3593D01*
X8880D01*
X8874Y3587D01*
Y3566D01*
X8880Y3561D01*
X8890D01*
X8885Y3571D02*
X8896Y3561D01*
X8890D02*
X8896Y3566D01*
X8928Y3561D02*
X8906D01*
X8928Y3582D01*
Y3587D01*
X8922Y3593D01*
X8912D01*
X8906Y3587D01*
X9325Y4598D02*
Y4630D01*
X9341D01*
X9346Y4625D01*
Y4614D01*
X9341Y4609D01*
X9325D01*
X9357Y4625D02*
X9362Y4630D01*
X9373D01*
X9378Y4625D01*
Y4619D01*
X9373Y4614D01*
X9378Y4609D01*
Y4603D01*
X9373Y4598D01*
X9362D01*
X9357Y4603D01*
Y4609D01*
X9362Y4614D01*
X9357Y4619D01*
Y4625D01*
X9362Y4614D02*
X9373D01*
X9270Y4523D02*
Y4555D01*
X9286D01*
X9291Y4550D01*
Y4539D01*
X9286Y4534D01*
X9270D01*
X9323Y4555D02*
X9313Y4550D01*
X9302Y4539D01*
Y4528D01*
X9307Y4523D01*
X9318D01*
X9323Y4528D01*
Y4534D01*
X9318Y4539D01*
X9302D01*
X9825Y3555D02*
Y3587D01*
X9841D01*
X9846Y3582D01*
Y3571D01*
X9841Y3566D01*
X9825D01*
X9873Y3555D02*
Y3587D01*
X9857Y3571D01*
X9878D01*
X10055Y4795D02*
Y4827D01*
X10071D01*
X10076Y4822D01*
Y4811D01*
X10071Y4806D01*
X10055D01*
X10087Y4822D02*
X10092Y4827D01*
X10103D01*
X10108Y4822D01*
Y4816D01*
X10103Y4811D01*
X10098D01*
X10103D01*
X10108Y4806D01*
Y4800D01*
X10103Y4795D01*
X10092D01*
X10087Y4800D01*
X10570Y3415D02*
Y3447D01*
X10586D01*
X10591Y3442D01*
Y3431D01*
X10586Y3426D01*
X10570D01*
X10623Y3415D02*
X10602D01*
X10623Y3436D01*
Y3442D01*
X10618Y3447D01*
X10607D01*
X10602Y3442D01*
X4490Y4447D02*
Y4415D01*
X4511D01*
X4522Y4442D02*
X4527Y4447D01*
X4538D01*
X4543Y4442D01*
Y4436D01*
X4538Y4431D01*
X4533D01*
X4538D01*
X4543Y4426D01*
Y4420D01*
X4538Y4415D01*
X4527D01*
X4522Y4420D01*
X6298Y3601D02*
Y3569D01*
X6319D01*
X6351D02*
X6330D01*
X6351Y3590D01*
Y3596D01*
X6346Y3601D01*
X6335D01*
X6330Y3596D01*
X8389Y3532D02*
Y3500D01*
X8411D01*
X8421D02*
X8432D01*
X8427D01*
Y3532D01*
X8421Y3526D01*
X7556Y3012D02*
X7546D01*
X7551D01*
Y2985D01*
X7546Y2980D01*
X7540D01*
X7535Y2985D01*
X7588Y3012D02*
X7567D01*
Y2996D01*
X7578Y3001D01*
X7583D01*
X7588Y2996D01*
Y2985D01*
X7583Y2980D01*
X7572D01*
X7567Y2985D01*
X8016Y2872D02*
X8006D01*
X8011D01*
Y2845D01*
X8006Y2840D01*
X8000D01*
X7995Y2845D01*
X8043Y2840D02*
Y2872D01*
X8027Y2856D01*
X8048D01*
X4726Y3027D02*
X4716D01*
X4721D01*
Y3000D01*
X4716Y2995D01*
X4710D01*
X4705Y3000D01*
X4737Y3022D02*
X4742Y3027D01*
X4753D01*
X4758Y3022D01*
Y3016D01*
X4753Y3011D01*
X4748D01*
X4753D01*
X4758Y3006D01*
Y3000D01*
X4753Y2995D01*
X4742D01*
X4737Y3000D01*
X5850Y3007D02*
X5840D01*
X5845D01*
Y2980D01*
X5840Y2975D01*
X5834D01*
X5829Y2980D01*
X5882Y2975D02*
X5861D01*
X5882Y2996D01*
Y3002D01*
X5877Y3007D01*
X5866D01*
X5861Y3002D01*
X10446Y3012D02*
X10436D01*
X10441D01*
Y2985D01*
X10436Y2980D01*
X10430D01*
X10425Y2985D01*
X10457Y2980D02*
X10468D01*
X10462D01*
Y3012D01*
X10457Y3007D01*
X10070Y4984D02*
Y4952D01*
X10086D01*
X10091Y4957D01*
Y4979D01*
X10086Y4984D01*
X10070D01*
X10102Y4952D02*
X10113D01*
X10107D01*
Y4984D01*
X10102Y4979D01*
X10129D02*
X10134Y4984D01*
X10145D01*
X10150Y4979D01*
Y4973D01*
X10145Y4968D01*
X10139D01*
X10145D01*
X10150Y4963D01*
Y4957D01*
X10145Y4952D01*
X10134D01*
X10129Y4957D01*
X5170Y3552D02*
Y3520D01*
X5186D01*
X5191Y3525D01*
Y3547D01*
X5186Y3552D01*
X5170D01*
X5202Y3520D02*
X5213D01*
X5207D01*
Y3552D01*
X5202Y3547D01*
X5250Y3520D02*
X5229D01*
X5250Y3541D01*
Y3547D01*
X5245Y3552D01*
X5234D01*
X5229Y3547D01*
X5835Y3262D02*
Y3230D01*
X5851D01*
X5856Y3235D01*
Y3257D01*
X5851Y3262D01*
X5835D01*
X5867Y3230D02*
X5878D01*
X5872D01*
Y3262D01*
X5867Y3257D01*
X5894Y3230D02*
X5904D01*
X5899D01*
Y3262D01*
X5894Y3257D01*
X7265Y3737D02*
Y3705D01*
X7281D01*
X7286Y3710D01*
Y3732D01*
X7281Y3737D01*
X7265D01*
X7297Y3705D02*
X7308D01*
X7302D01*
Y3737D01*
X7297Y3732D01*
X7324D02*
X7329Y3737D01*
X7340D01*
X7345Y3732D01*
Y3710D01*
X7340Y3705D01*
X7329D01*
X7324Y3710D01*
Y3732D01*
X6070Y4357D02*
Y4325D01*
X6086D01*
X6091Y4330D01*
Y4352D01*
X6086Y4357D01*
X6070D01*
X6102Y4330D02*
X6107Y4325D01*
X6118D01*
X6123Y4330D01*
Y4352D01*
X6118Y4357D01*
X6107D01*
X6102Y4352D01*
Y4346D01*
X6107Y4341D01*
X6123D01*
X6965Y4617D02*
Y4585D01*
X6981D01*
X6986Y4590D01*
Y4612D01*
X6981Y4617D01*
X6965D01*
X6997Y4612D02*
X7002Y4617D01*
X7013D01*
X7018Y4612D01*
Y4606D01*
X7013Y4601D01*
X7018Y4596D01*
Y4590D01*
X7013Y4585D01*
X7002D01*
X6997Y4590D01*
Y4596D01*
X7002Y4601D01*
X6997Y4606D01*
Y4612D01*
X7002Y4601D02*
X7013D01*
X6780Y4872D02*
Y4840D01*
X6796D01*
X6801Y4845D01*
Y4867D01*
X6796Y4872D01*
X6780D01*
X6812D02*
X6833D01*
Y4867D01*
X6812Y4845D01*
Y4840D01*
X7570Y3247D02*
Y3215D01*
X7586D01*
X7591Y3220D01*
Y3242D01*
X7586Y3247D01*
X7570D01*
X7623D02*
X7613Y3242D01*
X7602Y3231D01*
Y3220D01*
X7607Y3215D01*
X7618D01*
X7623Y3220D01*
Y3226D01*
X7618Y3231D01*
X7602D01*
X8705Y4241D02*
Y4209D01*
X8721D01*
X8727Y4214D01*
Y4235D01*
X8721Y4241D01*
X8705D01*
X8759D02*
X8737D01*
Y4225D01*
X8748Y4230D01*
X8753D01*
X8759Y4225D01*
Y4214D01*
X8753Y4209D01*
X8743D01*
X8737Y4214D01*
X7837Y4483D02*
Y4451D01*
X7853D01*
X7859Y4456D01*
Y4477D01*
X7853Y4483D01*
X7837D01*
X7885Y4451D02*
Y4483D01*
X7869Y4467D01*
X7891D01*
X8762Y4507D02*
Y4475D01*
X8778D01*
X8784Y4480D01*
Y4501D01*
X8778Y4507D01*
X8762D01*
X8794Y4501D02*
X8800Y4507D01*
X8810D01*
X8816Y4501D01*
Y4496D01*
X8810Y4491D01*
X8805D01*
X8810D01*
X8816Y4485D01*
Y4480D01*
X8810Y4475D01*
X8800D01*
X8794Y4480D01*
X8782Y4813D02*
Y4781D01*
X8798D01*
X8804Y4786D01*
Y4807D01*
X8798Y4813D01*
X8782D01*
X8836Y4781D02*
X8814D01*
X8836Y4802D01*
Y4807D01*
X8830Y4813D01*
X8820D01*
X8814Y4807D01*
X9861Y3140D02*
X9856Y3145D01*
X9845D01*
X9840Y3140D01*
Y3118D01*
X9845Y3113D01*
X9856D01*
X9861Y3118D01*
X9893Y3145D02*
X9872D01*
Y3129D01*
X9883Y3134D01*
X9888D01*
X9893Y3129D01*
Y3118D01*
X9888Y3113D01*
X9877D01*
X9872Y3118D01*
X9920Y3113D02*
Y3145D01*
X9904Y3129D01*
X9925D01*
X10101Y3063D02*
X10096Y3068D01*
X10085D01*
X10080Y3063D01*
Y3042D01*
X10085Y3036D01*
X10096D01*
X10101Y3042D01*
X10133Y3068D02*
X10112D01*
Y3052D01*
X10123Y3058D01*
X10128D01*
X10133Y3052D01*
Y3042D01*
X10128Y3036D01*
X10117D01*
X10112Y3042D01*
X10144Y3063D02*
X10149Y3068D01*
X10160D01*
X10165Y3063D01*
Y3058D01*
X10160Y3052D01*
X10155D01*
X10160D01*
X10165Y3047D01*
Y3042D01*
X10160Y3036D01*
X10149D01*
X10144Y3042D01*
X10386Y3123D02*
X10381Y3128D01*
X10370D01*
X10365Y3123D01*
Y3102D01*
X10370Y3096D01*
X10381D01*
X10386Y3102D01*
X10418Y3128D02*
X10397D01*
Y3112D01*
X10408Y3118D01*
X10413D01*
X10418Y3112D01*
Y3102D01*
X10413Y3096D01*
X10402D01*
X10397Y3102D01*
X10450Y3096D02*
X10429D01*
X10450Y3118D01*
Y3123D01*
X10445Y3128D01*
X10434D01*
X10429Y3123D01*
X10381Y3443D02*
X10376Y3448D01*
X10365D01*
X10360Y3443D01*
Y3422D01*
X10365Y3416D01*
X10376D01*
X10381Y3422D01*
X10413Y3448D02*
X10392D01*
Y3432D01*
X10403Y3438D01*
X10408D01*
X10413Y3432D01*
Y3422D01*
X10408Y3416D01*
X10397D01*
X10392Y3422D01*
X10424Y3416D02*
X10435D01*
X10429D01*
Y3448D01*
X10424Y3443D01*
X10566Y3242D02*
X10561Y3247D01*
X10550D01*
X10545Y3242D01*
Y3220D01*
X10550Y3215D01*
X10561D01*
X10566Y3220D01*
X10598Y3247D02*
X10577D01*
Y3231D01*
X10588Y3236D01*
X10593D01*
X10598Y3231D01*
Y3220D01*
X10593Y3215D01*
X10582D01*
X10577Y3220D01*
X10609Y3242D02*
X10614Y3247D01*
X10625D01*
X10630Y3242D01*
Y3220D01*
X10625Y3215D01*
X10614D01*
X10609Y3220D01*
Y3242D01*
X9631Y4013D02*
X9626Y4018D01*
X9615D01*
X9610Y4013D01*
Y3992D01*
X9615Y3986D01*
X9626D01*
X9631Y3992D01*
X9658Y3986D02*
Y4018D01*
X9642Y4002D01*
X9663D01*
X9674Y3992D02*
X9679Y3986D01*
X9690D01*
X9695Y3992D01*
Y4013D01*
X9690Y4018D01*
X9679D01*
X9674Y4013D01*
Y4008D01*
X9679Y4002D01*
X9695D01*
X9631Y3633D02*
X9626Y3638D01*
X9615D01*
X9610Y3633D01*
Y3612D01*
X9615Y3606D01*
X9626D01*
X9631Y3612D01*
X9658Y3606D02*
Y3638D01*
X9642Y3622D01*
X9663D01*
X9674Y3633D02*
X9679Y3638D01*
X9690D01*
X9695Y3633D01*
Y3628D01*
X9690Y3622D01*
X9695Y3617D01*
Y3612D01*
X9690Y3606D01*
X9679D01*
X9674Y3612D01*
Y3617D01*
X9679Y3622D01*
X9674Y3628D01*
Y3633D01*
X9679Y3622D02*
X9690D01*
X9791Y4007D02*
X9786Y4012D01*
X9775D01*
X9770Y4007D01*
Y3985D01*
X9775Y3980D01*
X9786D01*
X9791Y3985D01*
X9818Y3980D02*
Y4012D01*
X9802Y3996D01*
X9823D01*
X9834Y4012D02*
X9855D01*
Y4007D01*
X9834Y3985D01*
Y3980D01*
X9988Y4456D02*
X9983Y4451D01*
Y4440D01*
X9988Y4435D01*
X10010D01*
X10015Y4440D01*
Y4451D01*
X10010Y4456D01*
X10015Y4483D02*
X9983D01*
X9999Y4467D01*
Y4488D01*
X9983Y4520D02*
X9988Y4510D01*
X9999Y4499D01*
X10010D01*
X10015Y4504D01*
Y4515D01*
X10010Y4520D01*
X10004D01*
X9999Y4515D01*
Y4499D01*
X10231Y4585D02*
X10226Y4590D01*
X10215D01*
X10210Y4585D01*
Y4563D01*
X10215Y4558D01*
X10226D01*
X10231Y4563D01*
X10258Y4558D02*
Y4590D01*
X10242Y4574D01*
X10263D01*
X10295Y4590D02*
X10274D01*
Y4574D01*
X10285Y4579D01*
X10290D01*
X10295Y4574D01*
Y4563D01*
X10290Y4558D01*
X10279D01*
X10274Y4563D01*
X10371Y4175D02*
X10366Y4180D01*
X10355D01*
X10350Y4175D01*
Y4153D01*
X10355Y4148D01*
X10366D01*
X10371Y4153D01*
X10398Y4148D02*
Y4180D01*
X10382Y4164D01*
X10403D01*
X10430Y4148D02*
Y4180D01*
X10414Y4164D01*
X10435D01*
X10348Y4574D02*
X10343Y4569D01*
Y4558D01*
X10348Y4553D01*
X10370D01*
X10375Y4558D01*
Y4569D01*
X10370Y4574D01*
X10375Y4601D02*
X10343D01*
X10359Y4585D01*
Y4606D01*
X10348Y4617D02*
X10343Y4622D01*
Y4633D01*
X10348Y4638D01*
X10354D01*
X10359Y4633D01*
Y4628D01*
Y4633D01*
X10364Y4638D01*
X10370D01*
X10375Y4633D01*
Y4622D01*
X10370Y4617D01*
X10116Y4580D02*
X10111Y4585D01*
X10100D01*
X10095Y4580D01*
Y4558D01*
X10100Y4553D01*
X10111D01*
X10116Y4558D01*
X10143Y4553D02*
Y4585D01*
X10127Y4569D01*
X10148D01*
X10180Y4553D02*
X10159D01*
X10180Y4574D01*
Y4580D01*
X10175Y4585D01*
X10164D01*
X10159Y4580D01*
X4305Y3254D02*
X4300Y3259D01*
X4289D01*
X4284Y3254D01*
Y3232D01*
X4289Y3227D01*
X4300D01*
X4305Y3232D01*
X4332Y3227D02*
Y3259D01*
X4316Y3243D01*
X4337D01*
X4348Y3227D02*
X4359D01*
X4353D01*
Y3259D01*
X4348Y3254D01*
X4180D02*
X4175Y3259D01*
X4164D01*
X4159Y3254D01*
Y3232D01*
X4164Y3227D01*
X4175D01*
X4180Y3232D01*
X4207Y3227D02*
Y3259D01*
X4191Y3243D01*
X4212D01*
X4223Y3254D02*
X4228Y3259D01*
X4239D01*
X4244Y3254D01*
Y3232D01*
X4239Y3227D01*
X4228D01*
X4223Y3232D01*
Y3254D01*
X4126Y2962D02*
X4121Y2967D01*
X4110D01*
X4105Y2962D01*
Y2940D01*
X4110Y2935D01*
X4121D01*
X4126Y2940D01*
X4137Y2962D02*
X4142Y2967D01*
X4153D01*
X4158Y2962D01*
Y2956D01*
X4153Y2951D01*
X4148D01*
X4153D01*
X4158Y2946D01*
Y2940D01*
X4153Y2935D01*
X4142D01*
X4137Y2940D01*
X4169D02*
X4174Y2935D01*
X4185D01*
X4190Y2940D01*
Y2962D01*
X4185Y2967D01*
X4174D01*
X4169Y2962D01*
Y2956D01*
X4174Y2951D01*
X4190D01*
X4055Y3254D02*
X4050Y3259D01*
X4039D01*
X4034Y3254D01*
Y3232D01*
X4039Y3227D01*
X4050D01*
X4055Y3232D01*
X4066Y3254D02*
X4071Y3259D01*
X4082D01*
X4087Y3254D01*
Y3248D01*
X4082Y3243D01*
X4077D01*
X4082D01*
X4087Y3238D01*
Y3232D01*
X4082Y3227D01*
X4071D01*
X4066Y3232D01*
X4098Y3254D02*
X4103Y3259D01*
X4114D01*
X4119Y3254D01*
Y3248D01*
X4114Y3243D01*
X4119Y3238D01*
Y3232D01*
X4114Y3227D01*
X4103D01*
X4098Y3232D01*
Y3238D01*
X4103Y3243D01*
X4098Y3248D01*
Y3254D01*
X4103Y3243D02*
X4114D01*
X3726Y2957D02*
X3721Y2962D01*
X3710D01*
X3705Y2957D01*
Y2935D01*
X3710Y2930D01*
X3721D01*
X3726Y2935D01*
X3737Y2957D02*
X3742Y2962D01*
X3753D01*
X3758Y2957D01*
Y2951D01*
X3753Y2946D01*
X3748D01*
X3753D01*
X3758Y2941D01*
Y2935D01*
X3753Y2930D01*
X3742D01*
X3737Y2935D01*
X3769Y2962D02*
X3790D01*
Y2957D01*
X3769Y2935D01*
Y2930D01*
X3930Y3254D02*
X3925Y3259D01*
X3914D01*
X3909Y3254D01*
Y3232D01*
X3914Y3227D01*
X3925D01*
X3930Y3232D01*
X3941Y3254D02*
X3946Y3259D01*
X3957D01*
X3962Y3254D01*
Y3248D01*
X3957Y3243D01*
X3952D01*
X3957D01*
X3962Y3238D01*
Y3232D01*
X3957Y3227D01*
X3946D01*
X3941Y3232D01*
X3994Y3259D02*
X3984Y3254D01*
X3973Y3243D01*
Y3232D01*
X3978Y3227D01*
X3989D01*
X3994Y3232D01*
Y3238D01*
X3989Y3243D01*
X3973D01*
X3805Y3254D02*
X3800Y3259D01*
X3789D01*
X3784Y3254D01*
Y3232D01*
X3789Y3227D01*
X3800D01*
X3805Y3232D01*
X3816Y3254D02*
X3821Y3259D01*
X3832D01*
X3837Y3254D01*
Y3248D01*
X3832Y3243D01*
X3827D01*
X3832D01*
X3837Y3238D01*
Y3232D01*
X3832Y3227D01*
X3821D01*
X3816Y3232D01*
X3869Y3259D02*
X3848D01*
Y3243D01*
X3859Y3248D01*
X3864D01*
X3869Y3243D01*
Y3232D01*
X3864Y3227D01*
X3853D01*
X3848Y3232D01*
X4857Y3764D02*
X4862Y3769D01*
Y3780D01*
X4857Y3785D01*
X4835D01*
X4830Y3780D01*
Y3769D01*
X4835Y3764D01*
X4857Y3753D02*
X4862Y3748D01*
Y3737D01*
X4857Y3732D01*
X4851D01*
X4846Y3737D01*
Y3742D01*
Y3737D01*
X4841Y3732D01*
X4835D01*
X4830Y3737D01*
Y3748D01*
X4835Y3753D01*
X4830Y3705D02*
X4862D01*
X4846Y3721D01*
Y3700D01*
X5092Y3544D02*
X5097Y3549D01*
Y3560D01*
X5092Y3565D01*
X5070D01*
X5065Y3560D01*
Y3549D01*
X5070Y3544D01*
X5092Y3533D02*
X5097Y3528D01*
Y3517D01*
X5092Y3512D01*
X5086D01*
X5081Y3517D01*
Y3522D01*
Y3517D01*
X5076Y3512D01*
X5070D01*
X5065Y3517D01*
Y3528D01*
X5070Y3533D01*
X5092Y3501D02*
X5097Y3496D01*
Y3485D01*
X5092Y3480D01*
X5086D01*
X5081Y3485D01*
Y3490D01*
Y3485D01*
X5076Y3480D01*
X5070D01*
X5065Y3485D01*
Y3496D01*
X5070Y3501D01*
X4857Y3964D02*
X4862Y3969D01*
Y3980D01*
X4857Y3985D01*
X4835D01*
X4830Y3980D01*
Y3969D01*
X4835Y3964D01*
X4857Y3953D02*
X4862Y3948D01*
Y3937D01*
X4857Y3932D01*
X4851D01*
X4846Y3937D01*
Y3942D01*
Y3937D01*
X4841Y3932D01*
X4835D01*
X4830Y3937D01*
Y3948D01*
X4835Y3953D01*
X4830Y3900D02*
Y3921D01*
X4851Y3900D01*
X4857D01*
X4862Y3905D01*
Y3916D01*
X4857Y3921D01*
X5411Y4352D02*
X5406Y4357D01*
X5395D01*
X5390Y4352D01*
Y4330D01*
X5395Y4325D01*
X5406D01*
X5411Y4330D01*
X5422Y4352D02*
X5427Y4357D01*
X5438D01*
X5443Y4352D01*
Y4346D01*
X5438Y4341D01*
X5433D01*
X5438D01*
X5443Y4336D01*
Y4330D01*
X5438Y4325D01*
X5427D01*
X5422Y4330D01*
X5454Y4325D02*
X5465D01*
X5459D01*
Y4357D01*
X5454Y4352D01*
X5627Y3834D02*
X5632Y3839D01*
Y3850D01*
X5627Y3855D01*
X5605D01*
X5600Y3850D01*
Y3839D01*
X5605Y3834D01*
X5627Y3823D02*
X5632Y3818D01*
Y3807D01*
X5627Y3802D01*
X5621D01*
X5616Y3807D01*
Y3812D01*
Y3807D01*
X5611Y3802D01*
X5605D01*
X5600Y3807D01*
Y3818D01*
X5605Y3823D01*
X5627Y3791D02*
X5632Y3786D01*
Y3775D01*
X5627Y3770D01*
X5605D01*
X5600Y3775D01*
Y3786D01*
X5605Y3791D01*
X5627D01*
X5181Y4352D02*
X5176Y4357D01*
X5165D01*
X5160Y4352D01*
Y4330D01*
X5165Y4325D01*
X5176D01*
X5181Y4330D01*
X5213Y4325D02*
X5192D01*
X5213Y4346D01*
Y4352D01*
X5208Y4357D01*
X5197D01*
X5192Y4352D01*
X5224Y4330D02*
X5229Y4325D01*
X5240D01*
X5245Y4330D01*
Y4352D01*
X5240Y4357D01*
X5229D01*
X5224Y4352D01*
Y4346D01*
X5229Y4341D01*
X5245D01*
X5627Y3959D02*
X5632Y3964D01*
Y3975D01*
X5627Y3980D01*
X5605D01*
X5600Y3975D01*
Y3964D01*
X5605Y3959D01*
X5600Y3927D02*
Y3948D01*
X5621Y3927D01*
X5627D01*
X5632Y3932D01*
Y3943D01*
X5627Y3948D01*
Y3916D02*
X5632Y3911D01*
Y3900D01*
X5627Y3895D01*
X5621D01*
X5616Y3900D01*
X5611Y3895D01*
X5605D01*
X5600Y3900D01*
Y3911D01*
X5605Y3916D01*
X5611D01*
X5616Y3911D01*
X5621Y3916D01*
X5627D01*
X5616Y3911D02*
Y3900D01*
X5627Y4084D02*
X5632Y4089D01*
Y4100D01*
X5627Y4105D01*
X5605D01*
X5600Y4100D01*
Y4089D01*
X5605Y4084D01*
X5600Y4052D02*
Y4073D01*
X5621Y4052D01*
X5627D01*
X5632Y4057D01*
Y4068D01*
X5627Y4073D01*
X5632Y4041D02*
Y4020D01*
X5627D01*
X5605Y4041D01*
X5600D01*
X5785Y4343D02*
X5780Y4348D01*
X5769D01*
X5764Y4343D01*
Y4321D01*
X5769Y4316D01*
X5780D01*
X5785Y4321D01*
X5817Y4316D02*
X5796D01*
X5817Y4337D01*
Y4343D01*
X5812Y4348D01*
X5801D01*
X5796Y4343D01*
X5849Y4348D02*
X5839Y4343D01*
X5828Y4332D01*
Y4321D01*
X5833Y4316D01*
X5844D01*
X5849Y4321D01*
Y4327D01*
X5844Y4332D01*
X5828D01*
X6129Y3652D02*
X6123Y3657D01*
X6113D01*
X6107Y3652D01*
Y3630D01*
X6113Y3625D01*
X6123D01*
X6129Y3630D01*
X6161Y3625D02*
X6139D01*
X6161Y3646D01*
Y3652D01*
X6155Y3657D01*
X6145D01*
X6139Y3652D01*
X6193Y3657D02*
X6171D01*
Y3641D01*
X6182Y3646D01*
X6187D01*
X6193Y3641D01*
Y3630D01*
X6187Y3625D01*
X6177D01*
X6171Y3630D01*
X6861Y4497D02*
X6856Y4502D01*
X6845D01*
X6840Y4497D01*
Y4475D01*
X6845Y4470D01*
X6856D01*
X6861Y4475D01*
X6893Y4470D02*
X6872D01*
X6893Y4491D01*
Y4497D01*
X6888Y4502D01*
X6877D01*
X6872Y4497D01*
X6920Y4470D02*
Y4502D01*
X6904Y4486D01*
X6925D01*
X6186Y4892D02*
X6181Y4897D01*
X6170D01*
X6165Y4892D01*
Y4870D01*
X6170Y4865D01*
X6181D01*
X6186Y4870D01*
X6218Y4865D02*
X6197D01*
X6218Y4886D01*
Y4892D01*
X6213Y4897D01*
X6202D01*
X6197Y4892D01*
X6229D02*
X6234Y4897D01*
X6245D01*
X6250Y4892D01*
Y4886D01*
X6245Y4881D01*
X6240D01*
X6245D01*
X6250Y4876D01*
Y4870D01*
X6245Y4865D01*
X6234D01*
X6229Y4870D01*
X6656Y4822D02*
X6651Y4827D01*
X6640D01*
X6635Y4822D01*
Y4800D01*
X6640Y4795D01*
X6651D01*
X6656Y4800D01*
X6688Y4795D02*
X6667D01*
X6688Y4816D01*
Y4822D01*
X6683Y4827D01*
X6672D01*
X6667Y4822D01*
X6720Y4795D02*
X6699D01*
X6720Y4816D01*
Y4822D01*
X6715Y4827D01*
X6704D01*
X6699Y4822D01*
X6251Y4334D02*
X6246Y4339D01*
X6235D01*
X6230Y4334D01*
Y4312D01*
X6235Y4307D01*
X6246D01*
X6251Y4312D01*
X6283Y4307D02*
X6262D01*
X6283Y4328D01*
Y4334D01*
X6278Y4339D01*
X6267D01*
X6262Y4334D01*
X6294Y4307D02*
X6305D01*
X6299D01*
Y4339D01*
X6294Y4334D01*
X6186Y4942D02*
X6181Y4947D01*
X6170D01*
X6165Y4942D01*
Y4920D01*
X6170Y4915D01*
X6181D01*
X6186Y4920D01*
X6218Y4915D02*
X6197D01*
X6218Y4936D01*
Y4942D01*
X6213Y4947D01*
X6202D01*
X6197Y4942D01*
X6229D02*
X6234Y4947D01*
X6245D01*
X6250Y4942D01*
Y4920D01*
X6245Y4915D01*
X6234D01*
X6229Y4920D01*
Y4942D01*
X6886Y4677D02*
X6881Y4682D01*
X6870D01*
X6865Y4677D01*
Y4655D01*
X6870Y4650D01*
X6881D01*
X6886Y4655D01*
X6897Y4650D02*
X6908D01*
X6902D01*
Y4682D01*
X6897Y4677D01*
X6924Y4655D02*
X6929Y4650D01*
X6940D01*
X6945Y4655D01*
Y4677D01*
X6940Y4682D01*
X6929D01*
X6924Y4677D01*
Y4671D01*
X6929Y4666D01*
X6945D01*
X6008Y4667D02*
X6003Y4672D01*
X5992D01*
X5987Y4667D01*
Y4645D01*
X5992Y4640D01*
X6003D01*
X6008Y4645D01*
X6019Y4640D02*
X6030D01*
X6024D01*
Y4672D01*
X6019Y4667D01*
X6045D02*
X6051Y4672D01*
X6061D01*
X6067Y4667D01*
Y4661D01*
X6061Y4656D01*
X6067Y4651D01*
Y4645D01*
X6061Y4640D01*
X6051D01*
X6045Y4645D01*
Y4651D01*
X6051Y4656D01*
X6045Y4661D01*
Y4667D01*
X6051Y4656D02*
X6061D01*
X6111Y4402D02*
X6106Y4407D01*
X6095D01*
X6090Y4402D01*
Y4380D01*
X6095Y4375D01*
X6106D01*
X6111Y4380D01*
X6122Y4375D02*
X6133D01*
X6127D01*
Y4407D01*
X6122Y4402D01*
X6149Y4407D02*
X6170D01*
Y4402D01*
X6149Y4380D01*
Y4375D01*
X7426Y3082D02*
X7421Y3087D01*
X7410D01*
X7405Y3082D01*
Y3060D01*
X7410Y3055D01*
X7421D01*
X7426Y3060D01*
X7437Y3055D02*
X7448D01*
X7442D01*
Y3087D01*
X7437Y3082D01*
X7485Y3087D02*
X7474Y3082D01*
X7464Y3071D01*
Y3060D01*
X7469Y3055D01*
X7480D01*
X7485Y3060D01*
Y3066D01*
X7480Y3071D01*
X7464D01*
X6736Y4917D02*
X6731Y4922D01*
X6720D01*
X6715Y4917D01*
Y4895D01*
X6720Y4890D01*
X6731D01*
X6736Y4895D01*
X6747Y4890D02*
X6758D01*
X6752D01*
Y4922D01*
X6747Y4917D01*
X6795Y4922D02*
X6774D01*
Y4906D01*
X6784Y4911D01*
X6790D01*
X6795Y4906D01*
Y4895D01*
X6790Y4890D01*
X6779D01*
X6774Y4895D01*
X7556Y4348D02*
X7550Y4354D01*
X7540D01*
X7534Y4348D01*
Y4327D01*
X7540Y4322D01*
X7550D01*
X7556Y4327D01*
X7566Y4322D02*
X7577D01*
X7572D01*
Y4354D01*
X7566Y4348D01*
X7609Y4322D02*
Y4354D01*
X7593Y4338D01*
X7614D01*
X7544Y3657D02*
X7538Y3663D01*
X7528D01*
X7522Y3657D01*
Y3636D01*
X7528Y3631D01*
X7538D01*
X7544Y3636D01*
X7554Y3631D02*
X7565D01*
X7560D01*
Y3663D01*
X7554Y3657D01*
X7581D02*
X7586Y3663D01*
X7597D01*
X7602Y3657D01*
Y3652D01*
X7597Y3647D01*
X7592D01*
X7597D01*
X7602Y3641D01*
Y3636D01*
X7597Y3631D01*
X7586D01*
X7581Y3636D01*
X8734Y4582D02*
X8728Y4588D01*
X8718D01*
X8712Y4582D01*
Y4561D01*
X8718Y4556D01*
X8728D01*
X8734Y4561D01*
X8744Y4556D02*
X8755D01*
X8750D01*
Y4588D01*
X8744Y4582D01*
X8792Y4556D02*
X8771D01*
X8792Y4577D01*
Y4582D01*
X8787Y4588D01*
X8776D01*
X8771Y4582D01*
X8039Y4935D02*
X8033Y4941D01*
X8023D01*
X8017Y4935D01*
Y4914D01*
X8023Y4909D01*
X8033D01*
X8039Y4914D01*
X8049Y4909D02*
X8060D01*
X8055D01*
Y4941D01*
X8049Y4935D01*
X8076Y4909D02*
X8087D01*
X8081D01*
Y4941D01*
X8076Y4935D01*
X8674Y4947D02*
X8668Y4953D01*
X8658D01*
X8652Y4947D01*
Y4926D01*
X8658Y4921D01*
X8668D01*
X8674Y4926D01*
X8684Y4921D02*
X8695D01*
X8690D01*
Y4953D01*
X8684Y4947D01*
X8711D02*
X8716Y4953D01*
X8727D01*
X8732Y4947D01*
Y4926D01*
X8727Y4921D01*
X8716D01*
X8711Y4926D01*
Y4947D01*
X8309Y4482D02*
X8303Y4488D01*
X8293D01*
X8287Y4482D01*
Y4461D01*
X8293Y4456D01*
X8303D01*
X8309Y4461D01*
X8319D02*
X8325Y4456D01*
X8335D01*
X8341Y4461D01*
Y4482D01*
X8335Y4488D01*
X8325D01*
X8319Y4482D01*
Y4477D01*
X8325Y4472D01*
X8341D01*
X8161Y4807D02*
X8156Y4812D01*
X8145D01*
X8140Y4807D01*
Y4785D01*
X8145Y4780D01*
X8156D01*
X8161Y4785D01*
X8172Y4807D02*
X8177Y4812D01*
X8188D01*
X8193Y4807D01*
Y4801D01*
X8188Y4796D01*
X8193Y4791D01*
Y4785D01*
X8188Y4780D01*
X8177D01*
X8172Y4785D01*
Y4791D01*
X8177Y4796D01*
X8172Y4801D01*
Y4807D01*
X8177Y4796D02*
X8188D01*
X8849Y4747D02*
X8843Y4753D01*
X8833D01*
X8827Y4747D01*
Y4726D01*
X8833Y4721D01*
X8843D01*
X8849Y4726D01*
X8859Y4753D02*
X8881D01*
Y4747D01*
X8859Y4726D01*
Y4721D01*
X8139Y4742D02*
X8133Y4748D01*
X8123D01*
X8117Y4742D01*
Y4721D01*
X8123Y4716D01*
X8133D01*
X8139Y4721D01*
X8171Y4748D02*
X8160Y4742D01*
X8149Y4732D01*
Y4721D01*
X8155Y4716D01*
X8165D01*
X8171Y4721D01*
Y4726D01*
X8165Y4732D01*
X8149D01*
X7884Y4657D02*
X7878Y4663D01*
X7868D01*
X7862Y4657D01*
Y4636D01*
X7868Y4631D01*
X7878D01*
X7884Y4636D01*
X7916Y4663D02*
X7894D01*
Y4647D01*
X7905Y4652D01*
X7910D01*
X7916Y4647D01*
Y4636D01*
X7910Y4631D01*
X7900D01*
X7894Y4636D01*
X8293Y4956D02*
X8288Y4951D01*
Y4940D01*
X8293Y4935D01*
X8315D01*
X8320Y4940D01*
Y4951D01*
X8315Y4956D01*
X8320Y4983D02*
X8288D01*
X8304Y4967D01*
Y4988D01*
X9114Y3854D02*
X9119Y3860D01*
Y3870D01*
X9114Y3876D01*
X9093D01*
X9087Y3870D01*
Y3860D01*
X9093Y3854D01*
X9114Y3844D02*
X9119Y3838D01*
Y3828D01*
X9114Y3822D01*
X9109D01*
X9103Y3828D01*
Y3833D01*
Y3828D01*
X9098Y3822D01*
X9093D01*
X9087Y3828D01*
Y3838D01*
X9093Y3844D01*
X10361Y2617D02*
X10356Y2622D01*
X10345D01*
X10340Y2617D01*
Y2595D01*
X10345Y2590D01*
X10356D01*
X10361Y2595D01*
X10393Y2590D02*
X10372D01*
X10393Y2611D01*
Y2617D01*
X10388Y2622D01*
X10377D01*
X10372Y2617D01*
X9946D02*
X9941Y2622D01*
X9930D01*
X9925Y2617D01*
Y2595D01*
X9930Y2590D01*
X9941D01*
X9946Y2595D01*
X9957Y2590D02*
X9968D01*
X9962D01*
Y2622D01*
X9957Y2617D01*
X5072Y3960D02*
X5045D01*
X5040Y3955D01*
Y3944D01*
X5045Y3939D01*
X5072D01*
X5067Y3928D02*
X5072Y3923D01*
Y3912D01*
X5067Y3907D01*
X5061D01*
X5056Y3912D01*
Y3917D01*
Y3912D01*
X5051Y3907D01*
X5045D01*
X5040Y3912D01*
Y3923D01*
X5045Y3928D01*
X9840Y3403D02*
Y3435D01*
X9856D01*
X9861Y3430D01*
Y3419D01*
X9856Y3414D01*
X9840D01*
X9851D02*
X9861Y3403D01*
X9872D02*
X9883D01*
X9877D01*
Y3435D01*
X9872Y3430D01*
X9899D02*
X9904Y3435D01*
X9915D01*
X9920Y3430D01*
Y3424D01*
X9915Y3419D01*
X9920Y3414D01*
Y3408D01*
X9915Y3403D01*
X9904D01*
X9899Y3408D01*
Y3414D01*
X9904Y3419D01*
X9899Y3424D01*
Y3430D01*
X9904Y3419D02*
X9915D01*
X10460Y3847D02*
Y3879D01*
X10476D01*
X10481Y3874D01*
Y3863D01*
X10476Y3858D01*
X10460D01*
X10513Y3879D02*
X10492D01*
Y3863D01*
X10503Y3868D01*
X10508D01*
X10513Y3863D01*
Y3852D01*
X10508Y3847D01*
X10497D01*
X10492Y3852D01*
X5040Y4440D02*
Y4472D01*
X5056D01*
X5061Y4467D01*
Y4456D01*
X5056Y4451D01*
X5040D01*
X5051D02*
X5061Y4440D01*
X5093D02*
X5072D01*
X5093Y4461D01*
Y4467D01*
X5088Y4472D01*
X5077D01*
X5072Y4467D01*
X5104Y4440D02*
X5115D01*
X5109D01*
Y4472D01*
X5104Y4467D01*
X10375Y3845D02*
Y3877D01*
X10391D01*
X10396Y3872D01*
Y3861D01*
X10391Y3856D01*
X10375D01*
X10407Y3877D02*
X10428D01*
Y3872D01*
X10407Y3850D01*
Y3845D01*
X10845Y4772D02*
Y4740D01*
X10861D01*
X10866Y4745D01*
Y4767D01*
X10861Y4772D01*
X10845D01*
X10877Y4740D02*
X10888D01*
X10882D01*
Y4772D01*
X10877Y4767D01*
X10920Y4740D02*
Y4772D01*
X10904Y4756D01*
X10925D01*
X10866Y4425D02*
Y4447D01*
X10861Y4452D01*
X10850D01*
X10845Y4447D01*
Y4425D01*
X10850Y4420D01*
X10861D01*
X10856Y4431D02*
X10866Y4420D01*
X10861D02*
X10866Y4425D01*
X10877Y4420D02*
X10888D01*
X10882D01*
Y4452D01*
X10877Y4447D01*
X10925Y4452D02*
X10904D01*
Y4436D01*
X10914Y4441D01*
X10920D01*
X10925Y4436D01*
Y4425D01*
X10920Y4420D01*
X10909D01*
X10904Y4425D01*
X10525Y4275D02*
X10493D01*
Y4291D01*
X10498Y4296D01*
X10509D01*
X10514Y4291D01*
Y4275D01*
Y4286D02*
X10525Y4296D01*
X10498Y4307D02*
X10493Y4312D01*
Y4323D01*
X10498Y4328D01*
X10504D01*
X10509Y4323D01*
Y4318D01*
Y4323D01*
X10514Y4328D01*
X10520D01*
X10525Y4323D01*
Y4312D01*
X10520Y4307D01*
X10498Y4339D02*
X10493Y4344D01*
Y4355D01*
X10498Y4360D01*
X10504D01*
X10509Y4355D01*
X10514Y4360D01*
X10520D01*
X10525Y4355D01*
Y4344D01*
X10520Y4339D01*
X10514D01*
X10509Y4344D01*
X10504Y4339D01*
X10498D01*
X10509Y4344D02*
Y4355D01*
X10670Y4270D02*
X10638D01*
Y4286D01*
X10643Y4291D01*
X10654D01*
X10659Y4286D01*
Y4270D01*
Y4281D02*
X10670Y4291D01*
X10643Y4302D02*
X10638Y4307D01*
Y4318D01*
X10643Y4323D01*
X10649D01*
X10654Y4318D01*
Y4313D01*
Y4318D01*
X10659Y4323D01*
X10665D01*
X10670Y4318D01*
Y4307D01*
X10665Y4302D01*
Y4334D02*
X10670Y4339D01*
Y4350D01*
X10665Y4355D01*
X10643D01*
X10638Y4350D01*
Y4339D01*
X10643Y4334D01*
X10649D01*
X10654Y4339D01*
Y4355D01*
X10705Y4767D02*
Y4735D01*
X10721D01*
X10726Y4740D01*
Y4762D01*
X10721Y4767D01*
X10705D01*
X10737Y4735D02*
X10748D01*
X10742D01*
Y4767D01*
X10737Y4762D01*
X10785Y4767D02*
X10764D01*
Y4751D01*
X10774Y4756D01*
X10780D01*
X10785Y4751D01*
Y4740D01*
X10780Y4735D01*
X10769D01*
X10764Y4740D01*
X10570Y4772D02*
Y4740D01*
X10586D01*
X10591Y4745D01*
Y4767D01*
X10586Y4772D01*
X10570D01*
X10602Y4740D02*
X10613D01*
X10607D01*
Y4772D01*
X10602Y4767D01*
X10650Y4772D02*
X10639Y4767D01*
X10629Y4756D01*
Y4745D01*
X10634Y4740D01*
X10645D01*
X10650Y4745D01*
Y4751D01*
X10645Y4756D01*
X10629D01*
X10535Y4580D02*
Y4612D01*
X10551D01*
X10556Y4607D01*
Y4596D01*
X10551Y4591D01*
X10535D01*
X10567Y4585D02*
X10572Y4580D01*
X10583D01*
X10588Y4585D01*
Y4607D01*
X10583Y4612D01*
X10572D01*
X10567Y4607D01*
Y4601D01*
X10572Y4596D01*
X10588D01*
X10761Y4365D02*
Y4387D01*
X10756Y4392D01*
X10745D01*
X10740Y4387D01*
Y4365D01*
X10745Y4360D01*
X10756D01*
X10751Y4371D02*
X10761Y4360D01*
X10756D02*
X10761Y4365D01*
X10772Y4360D02*
X10783D01*
X10777D01*
Y4392D01*
X10772Y4387D01*
X10820Y4392D02*
X10809Y4387D01*
X10799Y4376D01*
Y4365D01*
X10804Y4360D01*
X10815D01*
X10820Y4365D01*
Y4371D01*
X10815Y4376D01*
X10799D01*
X10546Y4430D02*
Y4452D01*
X10541Y4457D01*
X10530D01*
X10525Y4452D01*
Y4430D01*
X10530Y4425D01*
X10541D01*
X10536Y4436D02*
X10546Y4425D01*
X10541D02*
X10546Y4430D01*
X10557Y4425D02*
X10568D01*
X10562D01*
Y4457D01*
X10557Y4452D01*
X10584Y4457D02*
X10605D01*
Y4452D01*
X10584Y4430D01*
Y4425D01*
X9855Y4160D02*
Y4192D01*
X9871D01*
X9876Y4187D01*
Y4176D01*
X9871Y4171D01*
X9855D01*
X9866D02*
X9876Y4160D01*
X9903D02*
Y4192D01*
X9887Y4176D01*
X9908D01*
X9919Y4187D02*
X9924Y4192D01*
X9935D01*
X9940Y4187D01*
Y4165D01*
X9935Y4160D01*
X9924D01*
X9919Y4165D01*
Y4187D01*
X9500Y4165D02*
Y4197D01*
X9516D01*
X9522Y4192D01*
Y4181D01*
X9516Y4176D01*
X9500D01*
X9511D02*
X9522Y4165D01*
X9548D02*
Y4197D01*
X9532Y4181D01*
X9554D01*
X9564Y4165D02*
X9575D01*
X9570D01*
Y4197D01*
X9564Y4192D01*
X9855Y4110D02*
Y4142D01*
X9871D01*
X9877Y4137D01*
Y4126D01*
X9871Y4121D01*
X9855D01*
X9866D02*
X9877Y4110D01*
X9903D02*
Y4142D01*
X9887Y4126D01*
X9909D01*
X9941Y4110D02*
X9919D01*
X9941Y4131D01*
Y4137D01*
X9935Y4142D01*
X9925D01*
X9919Y4137D01*
X9495Y4110D02*
Y4142D01*
X9511D01*
X9516Y4137D01*
Y4126D01*
X9511Y4121D01*
X9495D01*
X9506D02*
X9516Y4110D01*
X9543D02*
Y4142D01*
X9527Y4126D01*
X9548D01*
X9559Y4137D02*
X9564Y4142D01*
X9575D01*
X9580Y4137D01*
Y4131D01*
X9575Y4126D01*
X9570D01*
X9575D01*
X9580Y4121D01*
Y4115D01*
X9575Y4110D01*
X9564D01*
X9559Y4115D01*
X10335Y3597D02*
X10346D01*
X10340D01*
Y3565D01*
X10335D01*
X10346D01*
X10383D02*
X10362D01*
X10383Y3586D01*
Y3592D01*
X10378Y3597D01*
X10367D01*
X10362Y3592D01*
X10415D02*
X10410Y3597D01*
X10399D01*
X10394Y3592D01*
Y3570D01*
X10399Y3565D01*
X10410D01*
X10415Y3570D01*
X10426Y3560D02*
X10447D01*
X10458Y3597D02*
Y3565D01*
X10474D01*
X10479Y3570D01*
Y3576D01*
X10474Y3581D01*
X10458D01*
X10474D01*
X10479Y3586D01*
Y3592D01*
X10474Y3597D01*
X10458D01*
X10490Y3586D02*
Y3570D01*
X10495Y3565D01*
X10511D01*
Y3586D01*
X10522Y3565D02*
X10538D01*
X10543Y3570D01*
X10538Y3576D01*
X10527D01*
X10522Y3581D01*
X10527Y3586D01*
X10543D01*
X9995Y3470D02*
Y3502D01*
X10011D01*
X10016Y3497D01*
Y3486D01*
X10011Y3481D01*
X9995D01*
X10027Y3470D02*
Y3491D01*
X10043D01*
X10048Y3486D01*
Y3470D01*
X10059Y3491D02*
Y3475D01*
X10064Y3470D01*
X10080D01*
Y3491D01*
X10107Y3470D02*
X10096D01*
X10091Y3475D01*
Y3486D01*
X10096Y3491D01*
X10107D01*
X10112Y3486D01*
Y3481D01*
X10091D01*
X10123Y3470D02*
Y3491D01*
X10128D01*
X10134Y3486D01*
Y3470D01*
Y3486D01*
X10139Y3491D01*
X10144Y3486D01*
Y3470D01*
X10160Y3491D02*
X10171D01*
X10176Y3486D01*
Y3470D01*
X10160D01*
X10155Y3475D01*
X10160Y3481D01*
X10176D01*
X10192Y3497D02*
Y3491D01*
X10187D01*
X10198D01*
X10192D01*
Y3475D01*
X10198Y3470D01*
X10214D02*
X10224D01*
X10219D01*
Y3491D01*
X10214D01*
X10262D02*
X10246D01*
X10240Y3486D01*
Y3475D01*
X10246Y3470D01*
X10262D01*
X10272D02*
X10288D01*
X10294Y3475D01*
X10288Y3481D01*
X10278D01*
X10272Y3486D01*
X10278Y3491D01*
X10294D01*
X9203Y4130D02*
X9235D01*
X9219D01*
Y4151D01*
X9203D01*
X9235D01*
X9214Y4162D02*
X9230D01*
X9235Y4167D01*
Y4183D01*
X9240D01*
X9246Y4178D01*
Y4173D01*
X9235Y4183D02*
X9214D01*
X9203Y4215D02*
X9235D01*
Y4199D01*
X9230Y4194D01*
X9219D01*
X9214Y4199D01*
Y4215D01*
Y4226D02*
X9235D01*
X9224D01*
X9219Y4231D01*
X9214Y4237D01*
Y4242D01*
X9235Y4263D02*
Y4274D01*
X9230Y4279D01*
X9219D01*
X9214Y4274D01*
Y4263D01*
X9219Y4258D01*
X9230D01*
X9235Y4263D01*
X9246Y4290D02*
X9214D01*
Y4306D01*
X9219Y4311D01*
X9230D01*
X9235Y4306D01*
Y4290D01*
X9203Y4322D02*
X9235D01*
X9219D01*
X9214Y4327D01*
Y4338D01*
X9219Y4343D01*
X9235D01*
Y4359D02*
Y4370D01*
X9230Y4375D01*
X9219D01*
X9214Y4370D01*
Y4359D01*
X9219Y4354D01*
X9230D01*
X9235Y4359D01*
Y4386D02*
X9214D01*
Y4402D01*
X9219Y4407D01*
X9235D01*
Y4434D02*
Y4423D01*
X9230Y4418D01*
X9219D01*
X9214Y4423D01*
Y4434D01*
X9219Y4439D01*
X9224D01*
Y4418D01*
X9235Y4450D02*
Y4466D01*
X9230Y4471D01*
X9224Y4466D01*
Y4455D01*
X9219Y4450D01*
X9214Y4455D01*
Y4471D01*
X9415Y4950D02*
Y4982D01*
X9426Y4971D01*
X9436Y4982D01*
Y4950D01*
X9452D02*
X9463D01*
X9468Y4955D01*
Y4966D01*
X9463Y4971D01*
X9452D01*
X9447Y4966D01*
Y4955D01*
X9452Y4950D01*
X9484Y4977D02*
Y4971D01*
X9479D01*
X9490D01*
X9484D01*
Y4955D01*
X9490Y4950D01*
X9511D02*
X9522D01*
X9527Y4955D01*
Y4966D01*
X9522Y4971D01*
X9511D01*
X9506Y4966D01*
Y4955D01*
X9511Y4950D01*
X9538Y4971D02*
Y4950D01*
Y4961D01*
X9543Y4966D01*
X9548Y4971D01*
X9554D01*
X9570Y4950D02*
X9586D01*
X9591Y4955D01*
X9586Y4961D01*
X9575D01*
X9570Y4966D01*
X9575Y4971D01*
X9591D01*
X10513Y3936D02*
X10508Y3931D01*
Y3920D01*
X10513Y3915D01*
X10519D01*
X10524Y3920D01*
Y3931D01*
X10529Y3936D01*
X10535D01*
X10540Y3931D01*
Y3920D01*
X10535Y3915D01*
X10540Y3963D02*
Y3952D01*
X10535Y3947D01*
X10524D01*
X10519Y3952D01*
Y3963D01*
X10524Y3968D01*
X10529D01*
Y3947D01*
X10519Y3979D02*
X10540D01*
X10529D01*
X10524Y3984D01*
X10519Y3990D01*
Y3995D01*
Y4011D02*
X10540Y4022D01*
X10519Y4032D01*
X10540Y4048D02*
Y4059D01*
X10535Y4064D01*
X10524D01*
X10519Y4059D01*
Y4048D01*
X10524Y4043D01*
X10535D01*
X10540Y4048D01*
Y4075D02*
Y4091D01*
X10535Y4096D01*
X10529Y4091D01*
Y4080D01*
X10524Y4075D01*
X10519Y4080D01*
Y4096D01*
X10125Y3662D02*
X10146D01*
X10136D01*
Y3630D01*
X10157Y3651D02*
X10178Y3630D01*
X10168Y3641D01*
X10178Y3651D01*
X10157Y3630D01*
X10025D02*
Y3662D01*
X10041D01*
X10046Y3657D01*
Y3646D01*
X10041Y3641D01*
X10025D01*
X10036D02*
X10046Y3630D01*
X10057Y3651D02*
X10078Y3630D01*
X10068Y3641D01*
X10078Y3651D01*
X10057Y3630D01*
X10296Y3752D02*
X10291Y3757D01*
X10280D01*
X10275Y3752D01*
Y3746D01*
X10280Y3741D01*
X10291D01*
X10296Y3736D01*
Y3730D01*
X10291Y3725D01*
X10280D01*
X10275Y3730D01*
X10328Y3752D02*
X10323Y3757D01*
X10312D01*
X10307Y3752D01*
Y3730D01*
X10312Y3725D01*
X10323D01*
X10328Y3730D01*
X10339Y3757D02*
Y3725D01*
X10360D01*
X10296Y3702D02*
X10291Y3707D01*
X10280D01*
X10275Y3702D01*
Y3696D01*
X10280Y3691D01*
X10291D01*
X10296Y3686D01*
Y3680D01*
X10291Y3675D01*
X10280D01*
X10275Y3680D01*
X10307Y3707D02*
Y3675D01*
X10323D01*
X10328Y3680D01*
Y3702D01*
X10323Y3707D01*
X10307D01*
X10339Y3675D02*
Y3696D01*
X10350Y3707D01*
X10360Y3696D01*
Y3675D01*
Y3691D01*
X10339D01*
D82*
X5338Y3938D02*
G03*
X5338Y3926I0J-6D01*
G01*
X5277Y3641D02*
X5293D01*
X5277Y3669D02*
X5293D01*
X5427Y3074D02*
Y3106D01*
X5333Y3074D02*
Y3106D01*
X7042Y2752D02*
Y2784D01*
X6948Y2752D02*
Y2784D01*
X7304Y3045D02*
X7336D01*
X7304Y3105D02*
X7336D01*
X5984Y3605D02*
X6016D01*
X5984Y3665D02*
X6016D01*
X6329Y4925D02*
X6361D01*
X6329Y4865D02*
X6361D01*
X6230Y4757D02*
Y4789D01*
X6170Y4757D02*
Y4789D01*
X5954Y4503D02*
Y4518D01*
X5926Y4503D02*
Y4518D01*
X5954Y4677D02*
Y4692D01*
X5926Y4677D02*
Y4692D01*
X6012Y4511D02*
X6028D01*
X6012Y4539D02*
X6028D01*
X6146Y4425D02*
X6178D01*
X6146Y4485D02*
X6178D01*
X6093Y4701D02*
X6108D01*
X6093Y4729D02*
X6108D01*
X6800Y4729D02*
Y4761D01*
X6740Y4729D02*
Y4761D01*
X6819Y4635D02*
X6851D01*
X6819Y4575D02*
X6851D01*
X6093Y4811D02*
X6108D01*
X6093Y4839D02*
X6108D01*
X6141Y4615D02*
X6173D01*
X6141Y4675D02*
X6173D01*
X6755Y4419D02*
Y4451D01*
X6815Y4419D02*
Y4451D01*
X6385Y4306D02*
Y4338D01*
X6325Y4306D02*
Y4338D01*
X6201Y4542D02*
Y4558D01*
X6229Y4542D02*
Y4558D01*
X6457Y4801D02*
X6473D01*
X6457Y4829D02*
X6473D01*
X8717Y4815D02*
Y4846D01*
X8658Y4815D02*
Y4846D01*
X8633Y4505D02*
Y4536D01*
X8692Y4505D02*
Y4536D01*
X7716Y4702D02*
Y4718D01*
X7689Y4702D02*
Y4718D01*
X7809Y4758D02*
Y4773D01*
X7836Y4758D02*
Y4773D01*
X8712Y4725D02*
X8743D01*
X8712Y4666D02*
X8743D01*
X7940Y4862D02*
X7955D01*
X7940Y4889D02*
X7955D01*
X8082Y4803D02*
Y4834D01*
X8023Y4803D02*
Y4834D01*
X7940Y4752D02*
X7955D01*
X7940Y4779D02*
X7955D01*
X7716Y4593D02*
Y4608D01*
X7689Y4593D02*
Y4608D01*
X7902Y4551D02*
X7933D01*
X7902Y4610D02*
X7933D01*
X8050Y4609D02*
X8065D01*
X8050Y4582D02*
X8065D01*
X9008Y3790D02*
Y3821D01*
X9067Y3790D02*
Y3821D01*
X8399Y4930D02*
X8431D01*
X8399Y4990D02*
X8431D01*
X8012Y4661D02*
X8043D01*
X8012Y4720D02*
X8043D01*
X8372Y4881D02*
X8388D01*
X8372Y4909D02*
X8388D01*
X8182Y4441D02*
X8213D01*
X8182Y4500D02*
X8213D01*
X7682Y3665D02*
X7713D01*
X7682Y3606D02*
X7713D01*
X10231Y2575D02*
X10263D01*
X10231Y2635D02*
X10263D01*
X10049Y2635D02*
X10081D01*
X10049Y2575D02*
X10081D01*
X9417Y4272D02*
X9433D01*
X9417Y4244D02*
X9433D01*
X9422Y4372D02*
X9438D01*
X9422Y4344D02*
X9438D01*
X10164Y3737D02*
Y3752D01*
X10136Y3737D02*
Y3752D01*
X10064Y3737D02*
Y3752D01*
X10036Y3737D02*
Y3752D01*
X9910Y3222D02*
Y3254D01*
X9850Y3222D02*
Y3254D01*
X10409Y3337D02*
X10441D01*
X10409Y3396D02*
X10441D01*
X10237Y3101D02*
X10269D01*
X10237Y3042D02*
X10269D01*
X10554Y3149D02*
Y3165D01*
X10526Y3149D02*
Y3165D01*
X10409Y3147D02*
X10441D01*
X10409Y3206D02*
X10441D01*
X10640Y3109D02*
Y3140D01*
X10580Y3109D02*
Y3140D01*
X10437Y3283D02*
X10452D01*
X10437Y3310D02*
X10452D01*
X10438Y3260D02*
X10453D01*
X10438Y3233D02*
X10453D01*
X9690Y3876D02*
Y3907D01*
X9630Y3876D02*
Y3907D01*
X9630Y3711D02*
Y3742D01*
X9690Y3711D02*
Y3742D01*
X10381Y4370D02*
Y4386D01*
X10409Y4370D02*
Y4386D01*
X10374Y4258D02*
X10406D01*
X10374Y4199D02*
X10406D01*
X10186Y3850D02*
Y3866D01*
X10214Y3850D02*
Y3866D01*
X10236Y3850D02*
Y3866D01*
X10264Y3850D02*
Y3866D01*
X10431Y4370D02*
Y4386D01*
X10459Y4370D02*
Y4386D01*
X4938Y4109D02*
X4953D01*
X4938Y4081D02*
X4953D01*
X4934Y3715D02*
X4966D01*
X4934Y3775D02*
X4966D01*
X4991Y3837D02*
Y3853D01*
X5019Y3837D02*
Y3853D01*
X4934Y3915D02*
X4966D01*
X4934Y3975D02*
X4966D01*
X4938Y4044D02*
X4953D01*
X4938Y4016D02*
X4953D01*
X5380Y4219D02*
Y4251D01*
X5440Y4219D02*
Y4251D01*
X5250Y4219D02*
Y4251D01*
X5190Y4219D02*
Y4251D01*
X5311Y4232D02*
Y4247D01*
X5339Y4232D02*
Y4247D01*
X4288Y3104D02*
Y3136D01*
X4382Y3104D02*
Y3136D01*
X4163Y3104D02*
Y3136D01*
X4257Y3104D02*
Y3136D01*
X4038Y3104D02*
Y3136D01*
X4132Y3104D02*
Y3136D01*
X3913Y3104D02*
Y3136D01*
X4007Y3104D02*
Y3136D01*
X3788Y3104D02*
Y3136D01*
X3882Y3104D02*
Y3136D01*
X5127Y4268D02*
Y4362D01*
X5033Y4268D02*
Y4362D01*
X4959Y3555D02*
X4991D01*
X4959Y3495D02*
X4991D01*
X9872Y3354D02*
X9887D01*
X9872Y3382D02*
X9887D01*
X9854Y4029D02*
X9886D01*
X9854Y4088D02*
X9886D01*
X10040Y4452D02*
Y4484D01*
X10100Y4452D02*
Y4484D01*
X10185Y4452D02*
Y4484D01*
X10125Y4452D02*
Y4484D01*
X10210Y4452D02*
Y4484D01*
X10270Y4452D02*
Y4484D01*
X10295Y4452D02*
Y4484D01*
X10355Y4452D02*
Y4484D01*
X8136Y4880D02*
Y4911D01*
X8195Y4880D02*
Y4911D01*
X5494Y3862D02*
X5526D01*
X5494Y3768D02*
X5526D01*
X5494Y3987D02*
X5526D01*
X5494Y3893D02*
X5526D01*
X5494Y4112D02*
X5526D01*
X5494Y4018D02*
X5526D01*
X6552Y4865D02*
X6584D01*
X6552Y4925D02*
X6584D01*
X10619Y4307D02*
Y4323D01*
X10591Y4307D02*
Y4323D01*
X10569Y4307D02*
Y4323D01*
X10541Y4307D02*
Y4323D01*
X8432Y4296D02*
Y4335D01*
X8373Y4296D02*
Y4335D01*
X8532Y4296D02*
Y4335D01*
X8473Y4296D02*
Y4335D01*
X6500Y4190D02*
Y4230D01*
X6440Y4190D02*
Y4230D01*
X7150Y4195D02*
Y4235D01*
X7090Y4195D02*
Y4235D01*
X5082Y4003D02*
X5338D01*
X5082Y3858D02*
Y4003D01*
Y3858D02*
X5338D01*
Y3926D01*
Y3938D02*
Y4003D01*
X8312Y4519D02*
Y4853D01*
X8477Y4519D02*
Y4853D01*
X8312D02*
X8477D01*
X8312Y4519D02*
X8477D01*
X6407Y4433D02*
Y4767D01*
X6573Y4433D02*
Y4767D01*
X6407D02*
X6573D01*
X6407Y4433D02*
X6573D01*
X10070Y4835D02*
Y4935D01*
X10470D01*
X10070Y4835D02*
X10470D01*
Y4935D01*
X9900Y3513D02*
Y3613D01*
X10300D01*
X9900Y3513D02*
X10300D01*
Y3613D01*
X9265Y4508D02*
X9365D01*
Y4108D02*
Y4508D01*
X9265Y4108D02*
Y4508D01*
Y4108D02*
X9365D01*
X8890Y3351D02*
Y3357D01*
X9154D01*
Y3351D02*
Y3357D01*
X8395Y4031D02*
Y4037D01*
X8659D01*
Y4031D02*
Y4037D01*
X8060Y4031D02*
Y4037D01*
X8324D01*
Y4031D02*
Y4037D01*
X7822Y3542D02*
X7828D01*
Y3279D02*
Y3542D01*
X7822Y3279D02*
X7828D01*
X7168Y3515D02*
Y3521D01*
X7432D01*
Y3515D02*
Y3521D01*
X6728Y3931D02*
Y3936D01*
X6992D01*
Y3931D02*
Y3936D01*
X6338Y3926D02*
Y3931D01*
X6602D01*
Y3926D02*
Y3931D01*
X6090Y3562D02*
X6096D01*
Y3298D02*
Y3562D01*
X6090Y3298D02*
X6096D01*
X7982Y3869D02*
Y4202D01*
X7834D02*
X7982D01*
X7569D02*
X7717D01*
X7569Y3869D02*
Y4202D01*
X7834Y3789D02*
X7902D01*
X7982Y3869D01*
X7569D02*
X7649Y3789D01*
X7717D01*
X6212Y3864D02*
Y4197D01*
X6063D02*
X6212D01*
X5798D02*
X5947D01*
X5798Y3864D02*
Y4197D01*
X6063Y3783D02*
X6131D01*
X6212Y3864D01*
X5798D02*
X5879Y3783D01*
X5947D01*
X3938Y2907D02*
X3986D01*
X4042Y2851D01*
X3716Y2853D02*
X3771Y2908D01*
X3822D01*
X4042Y2584D02*
Y2851D01*
X3938Y2584D02*
X4042D01*
X3716D02*
X3822D01*
X3716D02*
Y2853D01*
X4338Y2907D02*
X4386D01*
X4442Y2851D01*
X4116Y2853D02*
X4171Y2908D01*
X4222D01*
X4442Y2584D02*
Y2851D01*
X4338Y2584D02*
X4442D01*
X4116D02*
X4222D01*
X4116D02*
Y2853D01*
X7746Y4561D02*
X7809D01*
Y4500D02*
Y4561D01*
X7746Y4500D02*
Y4561D01*
Y4500D02*
X7809D01*
X5989Y4436D02*
X6051D01*
Y4375D02*
Y4436D01*
X5989Y4375D02*
Y4436D01*
Y4375D02*
X6051D01*
X9788Y4139D02*
X9803D01*
X9788Y4111D02*
X9803D01*
X9633Y4111D02*
X9648D01*
X9633Y4139D02*
X9648D01*
X9787Y4189D02*
X9803D01*
X9787Y4161D02*
X9803D01*
X9633D02*
X9648D01*
X9633Y4189D02*
X9648D01*
X10945Y4625D02*
Y4725D01*
X10545Y4625D02*
X10945D01*
X10545Y4725D02*
X10945D01*
X10545Y4625D02*
Y4725D01*
D83*
X8265Y4857D02*
G03*
X8265Y4857I-5J0D01*
G01*
X6361Y4771D02*
G03*
X6361Y4771I-5J0D01*
G01*
X9160Y3475D02*
G03*
X9160Y3475I-5J0D01*
G01*
X8665Y4155D02*
G03*
X8665Y4155I-5J0D01*
G01*
X8330D02*
G03*
X8330Y4155I-5J0D01*
G01*
X7951Y3278D02*
G03*
X7951Y3278I-5J0D01*
G01*
X7437Y3639D02*
G03*
X7437Y3639I-5J0D01*
G01*
X6997Y4055D02*
G03*
X6997Y4055I-5J0D01*
G01*
X6607Y4050D02*
G03*
X6607Y4050I-5J0D01*
G01*
X6219Y3298D02*
G03*
X6219Y3298I-5J0D01*
G01*
X7828Y4595D02*
G03*
X7828Y4595I-5J0D01*
G01*
X6071Y4470D02*
G03*
X6071Y4470I-5J0D01*
G01*
D84*
X8363Y4814D02*
G03*
X8363Y4814I-12J0D01*
G01*
X6459Y4728D02*
G03*
X6459Y4728I-12J0D01*
G01*
D85*
X9980Y4259D02*
G03*
X9980Y4259I-4J0D01*
G01*
X9978D02*
G03*
X9978Y4259I-2J0D01*
G01*
X9979D02*
G03*
X9979Y4259I-2J0D01*
G01*
X9977Y4259D02*
G03*
X9977Y4259I-1J0D01*
G01*
D86*
X9992Y4271D02*
X10004D01*
X9992Y4259D02*
Y4271D01*
Y3995D02*
Y4007D01*
Y3995D02*
X10004D01*
X10268Y4259D02*
Y4271D01*
X10256D02*
X10268D01*
X10256Y3995D02*
X10268D01*
Y4007D01*
D87*
X10898Y4856D02*
X10877D01*
X10866Y4867D01*
X10877Y4877D01*
X10898D01*
X10882D01*
Y4856D01*
X10866Y4904D02*
X10898D01*
X10887D01*
X10866Y4925D01*
X10882Y4909D01*
X10898Y4925D01*
X8897Y4898D02*
Y4877D01*
X8886Y4867D01*
X8876Y4877D01*
Y4898D01*
Y4883D01*
X8897D01*
X8850Y4867D02*
Y4898D01*
Y4888D01*
X8829Y4867D01*
X8844Y4883D01*
X8829Y4898D01*
X8875Y4574D02*
X8896D01*
X8906Y4564D01*
X8896Y4553D01*
X8875D01*
X8890D01*
Y4574D01*
X8906Y4527D02*
X8875D01*
X8885D01*
X8906Y4506D01*
X8890Y4522D01*
X8875Y4506D01*
X6974Y4808D02*
Y4787D01*
X6964Y4776D01*
X6953Y4787D01*
Y4808D01*
Y4792D01*
X6974D01*
X6927Y4776D02*
Y4808D01*
Y4797D01*
X6906Y4776D01*
X6922Y4792D01*
X6906Y4808D01*
X6987Y4494D02*
X7008D01*
X7019Y4484D01*
X7008Y4473D01*
X6987D01*
X7003D01*
Y4494D01*
X7019Y4447D02*
X6987D01*
X6998D01*
X7019Y4426D01*
X7003Y4442D01*
X6987Y4426D01*
X10591Y4903D02*
X10623D01*
X10612D01*
X10591Y4924D01*
X10607Y4908D01*
X10623Y4924D01*
Y4856D02*
X10602D01*
X10591Y4866D01*
X10602Y4877D01*
X10623D01*
X10607D01*
Y4856D01*
X10731Y4903D02*
X10763D01*
X10752D01*
X10731Y4924D01*
X10747Y4908D01*
X10763Y4924D01*
Y4856D02*
X10742D01*
X10731Y4866D01*
X10742Y4877D01*
X10763D01*
X10747D01*
Y4856D01*
D88*
X10485Y2918D02*
X10482Y2922D01*
Y2928D01*
X10485Y2932D01*
X10488D01*
X10491Y2928D01*
Y2925D01*
Y2928D01*
X10495Y2932D01*
X10498D01*
X10501Y2928D01*
Y2922D01*
X10498Y2918D01*
X10501Y2810D02*
X10482D01*
X10491Y2800D01*
Y2813D01*
X10619D02*
Y2800D01*
X10606Y2813D01*
X10603D01*
X10600Y2810D01*
Y2804D01*
X10603Y2800D01*
X10619Y2918D02*
Y2925D01*
Y2922D01*
X10600D01*
X10603Y2918D01*
X6118Y2920D02*
X6122Y2923D01*
X6128D01*
X6132Y2920D01*
Y2917D01*
X6128Y2914D01*
X6125D01*
X6128D01*
X6132Y2910D01*
Y2907D01*
X6128Y2904D01*
X6122D01*
X6118Y2907D01*
X6010Y2904D02*
Y2923D01*
X6000Y2914D01*
X6013D01*
Y2786D02*
X6000D01*
X6013Y2799D01*
Y2802D01*
X6010Y2805D01*
X6004D01*
X6000Y2802D01*
X6118Y2786D02*
X6125D01*
X6122D01*
Y2805D01*
X6118Y2802D01*
X4828Y2920D02*
X4832Y2923D01*
X4838D01*
X4842Y2920D01*
Y2917D01*
X4838Y2914D01*
X4835D01*
X4838D01*
X4842Y2910D01*
Y2907D01*
X4838Y2904D01*
X4832D01*
X4828Y2907D01*
X4720Y2904D02*
Y2923D01*
X4710Y2914D01*
X4723D01*
Y2786D02*
X4710D01*
X4723Y2799D01*
Y2802D01*
X4720Y2805D01*
X4714D01*
X4710Y2802D01*
X4828Y2786D02*
X4835D01*
X4832D01*
Y2805D01*
X4828Y2802D01*
X7823Y2920D02*
X7827Y2923D01*
X7833D01*
X7837Y2920D01*
Y2917D01*
X7833Y2914D01*
X7830D01*
X7833D01*
X7837Y2910D01*
Y2907D01*
X7833Y2904D01*
X7827D01*
X7823Y2907D01*
X7715Y2904D02*
Y2923D01*
X7705Y2914D01*
X7718D01*
Y2786D02*
X7705D01*
X7718Y2799D01*
Y2802D01*
X7715Y2805D01*
X7709D01*
X7705Y2802D01*
X7823Y2786D02*
X7830D01*
X7827D01*
Y2805D01*
X7823Y2802D01*
X5268Y2920D02*
X5272Y2923D01*
X5278D01*
X5282Y2920D01*
Y2917D01*
X5278Y2914D01*
X5275D01*
X5278D01*
X5282Y2910D01*
Y2907D01*
X5278Y2904D01*
X5272D01*
X5268Y2907D01*
X5160Y2904D02*
Y2923D01*
X5150Y2914D01*
X5163D01*
Y2786D02*
X5150D01*
X5163Y2799D01*
Y2802D01*
X5160Y2805D01*
X5154D01*
X5150Y2802D01*
X5268Y2786D02*
X5275D01*
X5272D01*
Y2805D01*
X5268Y2802D01*
X7408Y2920D02*
X7412Y2923D01*
X7418D01*
X7422Y2920D01*
Y2917D01*
X7418Y2914D01*
X7415D01*
X7418D01*
X7422Y2910D01*
Y2907D01*
X7418Y2904D01*
X7412D01*
X7408Y2907D01*
X7300Y2904D02*
Y2923D01*
X7290Y2914D01*
X7303D01*
Y2786D02*
X7290D01*
X7303Y2799D01*
Y2802D01*
X7300Y2805D01*
X7294D01*
X7290Y2802D01*
X7408Y2786D02*
X7415D01*
X7412D01*
Y2805D01*
X7408Y2802D01*
X5703Y2920D02*
X5707Y2923D01*
X5713D01*
X5717Y2920D01*
Y2917D01*
X5713Y2914D01*
X5710D01*
X5713D01*
X5717Y2910D01*
Y2907D01*
X5713Y2904D01*
X5707D01*
X5703Y2907D01*
X5595Y2904D02*
Y2923D01*
X5585Y2914D01*
X5598D01*
Y2786D02*
X5585D01*
X5598Y2799D01*
Y2802D01*
X5595Y2805D01*
X5589D01*
X5585Y2802D01*
X5703Y2786D02*
X5710D01*
X5707D01*
Y2805D01*
X5703Y2802D01*
M02*
