M48
;Layer_Color=9474304
;FILE_FORMAT=2:3
INCH,LZ
;TYPE=PLATED
T1F00S00C0.015
T2F00S00C0.026
T3F00S00C0.028
T4F00S00C0.031
T5F00S00C0.033
T6F00S00C0.035
T7F00S00C0.040
T8F00S00C0.040
T9F00S00C0.043
T10F00S00C0.049
T11F00S00C0.050
T12F00S00C0.051
T13F00S00C0.071
%
T01
X1014Y03106
X10405Y03071
X0599Y04575
X0594Y04595
X0626Y0461
X06295Y0459
X0629Y04235
X0668Y0435
X06685Y04465
X0669Y0453
X0673Y04535
X0672Y0464
X06685Y0466
X06837Y04685
X0686Y04525
X0685Y0444
X0686Y0426
X07762Y04681
X07802Y04646
X07852Y04511
X08132Y04621
X08147Y04681
X08197Y04676
X08587Y04646
X08627Y04626
Y04671
X08597Y04571
X08762Y04536
X08662Y04421
X09355Y04568
X098Y04528
X09675Y04363
X0972Y04175
Y04125
X09885Y03993
X0985Y03888
X1005Y03818
X10155Y03923
X102Y03938
X10245
X1033Y03955
X10225Y03783
Y0344
X10315Y03366
X1032Y03181
X10615Y03325
X10525Y0413
X10436Y04293
X10386
X10305Y04363
X10402Y04461
X10575Y044
X107Y0439
X105Y04605
X1011Y04333
X09935Y04318
X1024Y0479
X1039Y04795
X08837Y04691
X08752Y04771
X08627Y04726
X08592Y04751
X08602Y04801
X07917Y04711
X07757Y04746
X07767Y04796
X06885Y0471
X06695Y0472
X0668Y04895
X06457
X05925Y04825
X06011Y04714
T02
X10401Y03639
Y03688
Y03737
Y03787
X10495Y03783
Y03734
Y03685
Y03636
T03
X07205Y03075
X04415Y0336
X04335Y033
X0421
X04085
X03955
X03835
X05215Y0335
X05145Y03695
X0508Y0376
X0528Y0371
X05235Y04095
X05085Y04105
X04855Y04095
X0479Y03965
X04895Y03845
X05325Y0437
X0587Y03635
X0625Y0327
X0659Y03575
X0674Y0358
X06565Y04145
X0695
X07557Y03791
X07702Y04511
X0628Y0451
X08187Y04601
X08282Y04246
X08617
X0911Y0446
X09037Y03921
X09032Y03686
X09195Y0358
X08427Y03686
X08302
X07832Y03636
X07992Y03251
X09915Y03473
X09755Y0406
X1025Y04333
X10635Y0443
X1076
X0909Y0489
X08535Y04955
X08245Y0495
T04
X10065Y02745
X10165
X10265
T05
X10799Y03181
Y03378
T06
X10595Y04675
X10695
X10795
X10895
T07
X10462Y02761
X1058
Y02879
X10462
X07784Y02825
X07666
Y02943
X07784
X07369
Y02825
X07251
Y02943
X06079
Y02825
X05961
Y02943
X05664
Y02825
X05546
Y02943
X05229
Y02825
X05111
Y02943
X04789
Y02825
X04671
Y02943
T08
X07995Y02765
X08095
X08195
X08295
X09315Y04158
Y04258
Y04358
Y04458
X0995Y03563
X1005
X1015
X1025
X106Y03603
Y03703
Y03803
Y03903
Y04003
Y04103
Y04203
X107
X108
Y04103
X107
Y04003
X108
Y03903
X107
Y03803
X108
Y03703
X107
Y03603
X108
Y03503
X107
X106
X1042Y04885
X1032
X1022
X1012
X1Y04898
X099
X098
X097
X096
X095
X094
Y04798
Y04698
X095
Y04798
X096
Y04698
X097
Y04798
X098
Y04698
X099
Y04798
X1
Y04698
X093
Y04798
Y04898
T09
X09515Y03711
Y03811
Y03911
T10
X08195Y0285
T11
X0895Y03
X0903
X0911
X0449Y0275
X05355Y03725
X0539Y0394
X05675Y03935
Y03815
Y0406
X06175Y04345
X0493Y04395
X0647Y0435
X07115Y04355
X07687Y04321
X07385Y03165
X073
X0722
X08402Y04446
X08502
T12
X0927Y03169
Y03366
X09762
Y03169
T13
X09474Y0277
X0925
X09026
X08801
M30
