G04*
G04 #@! TF.GenerationSoftware,Altium Limited,Altium Designer,19.1.6 (110)*
G04*
G04 Layer_Color=8388736*
%FSLAX25Y25*%
%MOIN*%
G70*
G01*
G75*
%ADD33R,0.14800X0.39000*%
%ADD34R,0.11824X0.03950*%
%ADD35O,0.06312X0.02572*%
%ADD36O,0.07099X0.02572*%
%ADD37R,0.04304X0.10406*%
%ADD38R,0.22847X0.10406*%
%ADD39R,0.04343X0.03556*%
%ADD40R,0.03556X0.04343*%
%ADD41R,0.18595X0.18280*%
%ADD42R,0.03595X0.06202*%
%ADD43R,0.07375X0.07316*%
%ADD44R,0.07493X0.05131*%
%ADD45R,0.05131X0.07493*%
%ADD46R,0.15367X0.38989*%
%ADD47R,0.06312X0.40564*%
%ADD48R,0.03950X0.32296*%
%ADD49C,0.12611*%
%ADD50C,0.09461*%
%ADD51C,0.20800*%
%ADD52C,0.00800*%
%ADD53C,0.12205*%
%ADD54C,0.06706*%
%ADD55R,0.06706X0.06706*%
%ADD56C,0.16800*%
%ADD57C,0.03400*%
%ADD58C,0.05800*%
D33*
X778539Y199000D02*
D03*
Y383500D02*
D03*
D34*
X814167Y196638D02*
D03*
Y201362D02*
D03*
Y206087D02*
D03*
Y210811D02*
D03*
Y215535D02*
D03*
Y191913D02*
D03*
Y187189D02*
D03*
Y182465D02*
D03*
Y366965D02*
D03*
Y371689D02*
D03*
Y376413D02*
D03*
Y400035D02*
D03*
Y395311D02*
D03*
Y390587D02*
D03*
Y385862D02*
D03*
Y381138D02*
D03*
D35*
X670094Y386500D02*
D03*
Y383941D02*
D03*
Y381382D02*
D03*
Y378823D02*
D03*
Y376264D02*
D03*
Y373705D02*
D03*
Y371146D02*
D03*
Y368587D02*
D03*
Y366028D02*
D03*
Y363469D02*
D03*
X693323Y386500D02*
D03*
Y383941D02*
D03*
Y381382D02*
D03*
Y378823D02*
D03*
Y376264D02*
D03*
Y373705D02*
D03*
Y371146D02*
D03*
Y368587D02*
D03*
Y366028D02*
D03*
Y363469D02*
D03*
X528094Y386500D02*
D03*
Y383941D02*
D03*
Y381382D02*
D03*
Y378823D02*
D03*
Y376264D02*
D03*
Y373705D02*
D03*
Y371146D02*
D03*
Y368587D02*
D03*
Y366028D02*
D03*
Y363469D02*
D03*
X551323Y386500D02*
D03*
Y383941D02*
D03*
Y381382D02*
D03*
Y378823D02*
D03*
Y376264D02*
D03*
Y373705D02*
D03*
Y371146D02*
D03*
Y368587D02*
D03*
Y366028D02*
D03*
Y363469D02*
D03*
X386094Y386500D02*
D03*
Y383941D02*
D03*
Y381382D02*
D03*
Y378823D02*
D03*
Y376264D02*
D03*
Y373705D02*
D03*
Y371146D02*
D03*
Y368587D02*
D03*
Y366028D02*
D03*
Y363469D02*
D03*
X409323Y386500D02*
D03*
Y383941D02*
D03*
Y381382D02*
D03*
Y378823D02*
D03*
Y376264D02*
D03*
Y373705D02*
D03*
Y371146D02*
D03*
Y368587D02*
D03*
Y366028D02*
D03*
Y363469D02*
D03*
X244094Y386500D02*
D03*
Y383941D02*
D03*
Y381382D02*
D03*
Y378823D02*
D03*
Y376264D02*
D03*
Y373705D02*
D03*
Y371146D02*
D03*
Y368587D02*
D03*
Y366028D02*
D03*
Y363469D02*
D03*
X267323Y386500D02*
D03*
Y383941D02*
D03*
Y381382D02*
D03*
Y378823D02*
D03*
Y376264D02*
D03*
Y373705D02*
D03*
Y371146D02*
D03*
Y368587D02*
D03*
Y366028D02*
D03*
Y363469D02*
D03*
X275905Y185421D02*
D03*
Y187980D02*
D03*
Y190539D02*
D03*
Y193098D02*
D03*
Y195658D02*
D03*
Y198216D02*
D03*
Y200776D02*
D03*
Y203335D02*
D03*
Y205894D02*
D03*
Y208453D02*
D03*
X252677Y185421D02*
D03*
Y187980D02*
D03*
Y190539D02*
D03*
Y193098D02*
D03*
Y195658D02*
D03*
Y198216D02*
D03*
Y200776D02*
D03*
Y203335D02*
D03*
Y205894D02*
D03*
Y208453D02*
D03*
X417906Y185421D02*
D03*
Y187980D02*
D03*
Y190539D02*
D03*
Y193098D02*
D03*
Y195658D02*
D03*
Y198216D02*
D03*
Y200776D02*
D03*
Y203335D02*
D03*
Y205894D02*
D03*
Y208453D02*
D03*
X394677Y185421D02*
D03*
Y187980D02*
D03*
Y190539D02*
D03*
Y193098D02*
D03*
Y195658D02*
D03*
Y198216D02*
D03*
Y200776D02*
D03*
Y203335D02*
D03*
Y205894D02*
D03*
Y208453D02*
D03*
X559905Y185421D02*
D03*
Y187980D02*
D03*
Y190539D02*
D03*
Y193098D02*
D03*
Y195658D02*
D03*
Y198216D02*
D03*
Y200776D02*
D03*
Y203335D02*
D03*
Y205894D02*
D03*
Y208453D02*
D03*
X536677Y185421D02*
D03*
Y187980D02*
D03*
Y190539D02*
D03*
Y193098D02*
D03*
Y195658D02*
D03*
Y198216D02*
D03*
Y200776D02*
D03*
Y203335D02*
D03*
Y205894D02*
D03*
Y208453D02*
D03*
X701905Y185421D02*
D03*
Y187980D02*
D03*
Y190539D02*
D03*
Y193098D02*
D03*
Y195658D02*
D03*
Y198216D02*
D03*
Y200776D02*
D03*
Y203335D02*
D03*
Y205894D02*
D03*
Y208453D02*
D03*
X678677Y185421D02*
D03*
Y187980D02*
D03*
Y190539D02*
D03*
Y193098D02*
D03*
Y195658D02*
D03*
Y198216D02*
D03*
Y200776D02*
D03*
Y203335D02*
D03*
Y205894D02*
D03*
Y208453D02*
D03*
D36*
X813965Y158161D02*
D03*
Y160721D02*
D03*
Y163279D02*
D03*
Y165839D02*
D03*
X797035Y158161D02*
D03*
Y160721D02*
D03*
Y163279D02*
D03*
Y165839D02*
D03*
X814465Y343661D02*
D03*
Y346220D02*
D03*
Y348780D02*
D03*
Y351339D02*
D03*
X797535Y343661D02*
D03*
Y346220D02*
D03*
Y348780D02*
D03*
Y351339D02*
D03*
D37*
X718929Y384606D02*
D03*
Y365079D02*
D03*
X576929Y384606D02*
D03*
Y365079D02*
D03*
X434929Y384606D02*
D03*
Y365079D02*
D03*
X292929Y384606D02*
D03*
Y365079D02*
D03*
X227071Y187315D02*
D03*
Y206842D02*
D03*
X369071Y187315D02*
D03*
Y206842D02*
D03*
X511071Y187315D02*
D03*
Y206842D02*
D03*
X653071Y187315D02*
D03*
Y206842D02*
D03*
D38*
X735209Y384606D02*
D03*
Y365079D02*
D03*
X593209Y384606D02*
D03*
Y365079D02*
D03*
X451209Y384606D02*
D03*
Y365079D02*
D03*
X309209Y384606D02*
D03*
Y365079D02*
D03*
X210791Y187315D02*
D03*
Y206842D02*
D03*
X352791Y187315D02*
D03*
Y206842D02*
D03*
X494791Y187315D02*
D03*
Y206842D02*
D03*
X636791Y187315D02*
D03*
Y206842D02*
D03*
D39*
X654709Y367032D02*
D03*
Y372937D02*
D03*
X512709Y367032D02*
D03*
Y372937D02*
D03*
X370709Y367032D02*
D03*
Y372937D02*
D03*
X228709Y367032D02*
D03*
Y372937D02*
D03*
X291291Y204890D02*
D03*
Y198984D02*
D03*
X433291Y204890D02*
D03*
Y198984D02*
D03*
X575291Y204890D02*
D03*
Y198984D02*
D03*
X717291Y204890D02*
D03*
Y198984D02*
D03*
X709709Y352031D02*
D03*
Y346126D02*
D03*
X567709Y352031D02*
D03*
Y346126D02*
D03*
X425709Y352031D02*
D03*
Y346126D02*
D03*
X283709Y352031D02*
D03*
Y346126D02*
D03*
X236291Y219890D02*
D03*
Y225795D02*
D03*
X378291Y219890D02*
D03*
Y225795D02*
D03*
X520291Y219890D02*
D03*
Y225795D02*
D03*
X662291Y219890D02*
D03*
Y225795D02*
D03*
X709709Y369531D02*
D03*
Y363626D02*
D03*
X567709Y369531D02*
D03*
Y363626D02*
D03*
X425709Y369531D02*
D03*
Y363626D02*
D03*
X283709Y369531D02*
D03*
Y363626D02*
D03*
X236291Y202390D02*
D03*
Y208295D02*
D03*
X378291Y202390D02*
D03*
Y208295D02*
D03*
X520291Y202390D02*
D03*
Y208295D02*
D03*
X662291Y202390D02*
D03*
Y208295D02*
D03*
D40*
X717953Y282000D02*
D03*
X712047D02*
D03*
X712047Y292000D02*
D03*
X717953D02*
D03*
X785547Y151000D02*
D03*
X791453D02*
D03*
X786047Y336000D02*
D03*
X791953D02*
D03*
X676000Y399000D02*
D03*
X670094D02*
D03*
X534000D02*
D03*
X528094D02*
D03*
X392000D02*
D03*
X386094D02*
D03*
X250000D02*
D03*
X244094D02*
D03*
X270000Y172921D02*
D03*
X275905D02*
D03*
X412000D02*
D03*
X417906D02*
D03*
X554000D02*
D03*
X559905D02*
D03*
X696000D02*
D03*
X701905D02*
D03*
X676000Y393500D02*
D03*
X670094D02*
D03*
X534000D02*
D03*
X528094D02*
D03*
X392000D02*
D03*
X386094D02*
D03*
X250000D02*
D03*
X244094D02*
D03*
X270000Y178421D02*
D03*
X275905D02*
D03*
X412000D02*
D03*
X417906D02*
D03*
X554000D02*
D03*
X559905D02*
D03*
X696000D02*
D03*
X701905D02*
D03*
X676000Y404500D02*
D03*
X670094D02*
D03*
X534000D02*
D03*
X528094D02*
D03*
X392000D02*
D03*
X386094D02*
D03*
X250000D02*
D03*
X244094D02*
D03*
X270000Y167421D02*
D03*
X275905D02*
D03*
X412000D02*
D03*
X417906D02*
D03*
X554000D02*
D03*
X559905D02*
D03*
X696000D02*
D03*
X701905D02*
D03*
X676000Y410000D02*
D03*
X670094D02*
D03*
X534000D02*
D03*
X528094D02*
D03*
X392000D02*
D03*
X386094D02*
D03*
X250000D02*
D03*
X244094D02*
D03*
X270000Y161921D02*
D03*
X275905D02*
D03*
X412000D02*
D03*
X417906D02*
D03*
X554000D02*
D03*
X559905D02*
D03*
X696000D02*
D03*
X701905D02*
D03*
X686953Y410000D02*
D03*
X681047D02*
D03*
X544953D02*
D03*
X539047D02*
D03*
X402953D02*
D03*
X397047D02*
D03*
X260953D02*
D03*
X255047D02*
D03*
X259047Y161921D02*
D03*
X264953D02*
D03*
X401047D02*
D03*
X406953D02*
D03*
X543047D02*
D03*
X548953D02*
D03*
X685047D02*
D03*
X690953D02*
D03*
X686953Y404500D02*
D03*
X681047D02*
D03*
X544953D02*
D03*
X539047D02*
D03*
X402953D02*
D03*
X397047D02*
D03*
X260953D02*
D03*
X255047D02*
D03*
X259047Y167421D02*
D03*
X264953D02*
D03*
X401047D02*
D03*
X406953D02*
D03*
X543047D02*
D03*
X548953D02*
D03*
X685047D02*
D03*
X690953D02*
D03*
D41*
X736209Y333484D02*
D03*
X594209D02*
D03*
X452209D02*
D03*
X310209D02*
D03*
X209791Y238437D02*
D03*
X351791D02*
D03*
X493791D02*
D03*
X635791D02*
D03*
D42*
X728709Y349256D02*
D03*
X733709D02*
D03*
X738709D02*
D03*
X743709D02*
D03*
X586709D02*
D03*
X591709D02*
D03*
X596709D02*
D03*
X601709D02*
D03*
X444709D02*
D03*
X449709D02*
D03*
X454709D02*
D03*
X459709D02*
D03*
X302709D02*
D03*
X307709D02*
D03*
X312709D02*
D03*
X317709D02*
D03*
X217291Y222665D02*
D03*
X212291D02*
D03*
X207291D02*
D03*
X202291D02*
D03*
X359291D02*
D03*
X354291D02*
D03*
X349291D02*
D03*
X344291D02*
D03*
X501291D02*
D03*
X496291D02*
D03*
X491291D02*
D03*
X486291D02*
D03*
X643291D02*
D03*
X638291D02*
D03*
X633291D02*
D03*
X628291D02*
D03*
D43*
X678000Y424000D02*
D03*
Y439079D02*
D03*
X536000Y424000D02*
D03*
Y439079D02*
D03*
X394000Y424000D02*
D03*
Y439079D02*
D03*
X252000Y424000D02*
D03*
Y439079D02*
D03*
X268000Y147921D02*
D03*
Y132843D02*
D03*
X410000Y147921D02*
D03*
Y132843D02*
D03*
X552000Y147921D02*
D03*
Y132843D02*
D03*
X694000Y147921D02*
D03*
Y132843D02*
D03*
D44*
X707709Y386394D02*
D03*
Y375764D02*
D03*
X565709Y386394D02*
D03*
Y375764D02*
D03*
X423709Y386394D02*
D03*
Y375764D02*
D03*
X281709Y386394D02*
D03*
Y375764D02*
D03*
X238291Y185528D02*
D03*
Y196158D02*
D03*
X380291Y185528D02*
D03*
Y196158D02*
D03*
X522291Y185528D02*
D03*
Y196158D02*
D03*
X664291Y185528D02*
D03*
Y196158D02*
D03*
D45*
X654209Y379984D02*
D03*
X643579D02*
D03*
X512209D02*
D03*
X501579D02*
D03*
X370209D02*
D03*
X359579D02*
D03*
X228209D02*
D03*
X217579D02*
D03*
X291791Y191937D02*
D03*
X302421D02*
D03*
X433791D02*
D03*
X444421D02*
D03*
X575791D02*
D03*
X586421D02*
D03*
X717791D02*
D03*
X728421D02*
D03*
X654524Y359984D02*
D03*
X643894D02*
D03*
X512524D02*
D03*
X501894D02*
D03*
X370524D02*
D03*
X359894D02*
D03*
X228524D02*
D03*
X217894D02*
D03*
X291476Y211937D02*
D03*
X302106D02*
D03*
X433476D02*
D03*
X444106D02*
D03*
X575476D02*
D03*
X586106D02*
D03*
X717476D02*
D03*
X728106D02*
D03*
X785315Y160500D02*
D03*
X774685D02*
D03*
X785815Y346500D02*
D03*
X775185D02*
D03*
D46*
X791532Y199000D02*
D03*
Y383500D02*
D03*
D47*
X770075Y199000D02*
D03*
Y383500D02*
D03*
D48*
X810232Y201362D02*
D03*
Y385862D02*
D03*
D49*
X761724Y297441D02*
D03*
Y252559D02*
D03*
D50*
X767000Y286221D02*
D03*
Y308661D02*
D03*
Y241339D02*
D03*
Y263779D02*
D03*
D51*
X767500Y450000D02*
D03*
X750000Y125000D02*
D03*
X190000Y135000D02*
D03*
Y437500D02*
D03*
D52*
X696008Y449890D02*
D03*
X554008D02*
D03*
X412008D02*
D03*
X270008D02*
D03*
X249992Y122031D02*
D03*
X391992D02*
D03*
X533992D02*
D03*
X675992D02*
D03*
D53*
X709709Y438984D02*
D03*
Y416543D02*
D03*
X567709Y438984D02*
D03*
Y416543D02*
D03*
X425709Y438984D02*
D03*
Y416543D02*
D03*
X283709Y438984D02*
D03*
Y416543D02*
D03*
X236291Y132937D02*
D03*
Y155378D02*
D03*
X378291Y132937D02*
D03*
Y155378D02*
D03*
X520291Y132937D02*
D03*
Y155378D02*
D03*
X662291Y132937D02*
D03*
Y155378D02*
D03*
D54*
X176500Y306000D02*
D03*
Y296000D02*
D03*
Y286000D02*
D03*
X732000Y292000D02*
D03*
D55*
X176500Y276000D02*
D03*
X732000Y282000D02*
D03*
D56*
X858000Y136630D02*
D03*
X838315D02*
D03*
Y176000D02*
D03*
X858000D02*
D03*
Y215370D02*
D03*
X838315D02*
D03*
Y254740D02*
D03*
X858000D02*
D03*
X893433Y114071D02*
D03*
Y277299D02*
D03*
X858500Y321130D02*
D03*
X838815D02*
D03*
Y360500D02*
D03*
X858500D02*
D03*
Y399870D02*
D03*
X838815D02*
D03*
Y439240D02*
D03*
X858500D02*
D03*
X893933Y298571D02*
D03*
Y461799D02*
D03*
D57*
X728406Y205921D02*
D03*
X246791Y190342D02*
D03*
Y195843D02*
D03*
X654000Y465000D02*
D03*
X512000D02*
D03*
X369500D02*
D03*
X228000D02*
D03*
X662500Y462500D02*
D03*
X520000D02*
D03*
X377500D02*
D03*
X235000D02*
D03*
X712000Y287000D02*
D03*
X665000Y389000D02*
D03*
X522500D02*
D03*
X380000Y390000D02*
D03*
X238500D02*
D03*
X160000Y312500D02*
D03*
X165000Y297500D02*
D03*
X717500Y105000D02*
D03*
X710000Y107500D02*
D03*
X575500Y105000D02*
D03*
X567500Y107500D02*
D03*
X433500Y105000D02*
D03*
X425000Y107500D02*
D03*
X292000Y105000D02*
D03*
X285000Y107500D02*
D03*
X707500Y182000D02*
D03*
X565000Y181500D02*
D03*
X422500D02*
D03*
X281500Y182000D02*
D03*
X155000Y254500D02*
D03*
Y297500D02*
D03*
X660000Y287000D02*
D03*
X570000D02*
D03*
X517500D02*
D03*
X428000D02*
D03*
X376000D02*
D03*
X234000D02*
D03*
X286500D02*
D03*
X718000D02*
D03*
X820500Y347500D02*
D03*
X791500Y350000D02*
D03*
X791000Y164500D02*
D03*
X820000Y162000D02*
D03*
X643595Y366000D02*
D03*
X681000Y399000D02*
D03*
X670000Y415000D02*
D03*
X663095Y374000D02*
D03*
X664094Y359500D02*
D03*
X699209Y381579D02*
D03*
Y376079D02*
D03*
Y362079D02*
D03*
X723709Y357079D02*
D03*
X501594Y366000D02*
D03*
X539000Y399000D02*
D03*
X528000Y415000D02*
D03*
X521095Y374000D02*
D03*
X522094Y359500D02*
D03*
X557209Y381579D02*
D03*
Y376079D02*
D03*
Y362079D02*
D03*
X581709Y357079D02*
D03*
X359594Y366000D02*
D03*
X397000Y399000D02*
D03*
X386000Y415000D02*
D03*
X379095Y374000D02*
D03*
X380095Y359500D02*
D03*
X415209Y381579D02*
D03*
Y376079D02*
D03*
Y362079D02*
D03*
X439709Y357079D02*
D03*
X217595Y366000D02*
D03*
X255000Y399000D02*
D03*
X244000Y415000D02*
D03*
X237094Y374000D02*
D03*
X238094Y359500D02*
D03*
X273209Y381579D02*
D03*
Y376079D02*
D03*
Y362079D02*
D03*
X297709Y357079D02*
D03*
X302406Y205921D02*
D03*
X265000Y172921D02*
D03*
X276000Y156921D02*
D03*
X282906Y197921D02*
D03*
X281906Y212421D02*
D03*
X246791Y209842D02*
D03*
X222291Y214843D02*
D03*
X444406Y205921D02*
D03*
X407000Y172921D02*
D03*
X418000Y156921D02*
D03*
X424905Y197921D02*
D03*
X423906Y212421D02*
D03*
X388791Y190342D02*
D03*
Y195843D02*
D03*
Y209842D02*
D03*
X364291Y214843D02*
D03*
X586406Y205921D02*
D03*
X549000Y172921D02*
D03*
X560000Y156921D02*
D03*
X566905Y197921D02*
D03*
X565906Y212421D02*
D03*
X530791Y190342D02*
D03*
Y195843D02*
D03*
Y209842D02*
D03*
X506291Y214843D02*
D03*
X702000Y156921D02*
D03*
X691000Y172921D02*
D03*
X708906Y197921D02*
D03*
X707905Y212421D02*
D03*
X648291Y214843D02*
D03*
X672791Y209842D02*
D03*
Y195843D02*
D03*
Y190342D02*
D03*
D58*
X735047Y396000D02*
D03*
X593047D02*
D03*
X451047D02*
D03*
X309047D02*
D03*
X210953Y175921D02*
D03*
X352953D02*
D03*
X494953D02*
D03*
X636953D02*
D03*
M02*
