G04 Layer_Physical_Order=3*
G04 Layer_Color=16440176*
%FSLAX25Y25*%
%MOIN*%
G70*
G01*
G75*
%ADD23C,0.01000*%
%ADD29C,0.03543*%
%ADD38C,0.02600*%
D23*
X237000Y303500D02*
X259500Y281000D01*
X228500Y128500D02*
Y252500D01*
X257500Y281500D02*
X258780D01*
X228500Y252500D02*
X257500Y281500D01*
X701000Y201016D02*
Y282500D01*
X705500Y287000D01*
X697905Y197921D02*
X701000Y201016D01*
X666500Y287000D02*
X705500D01*
X596000D02*
X666500D01*
X652000Y301500D02*
X666500Y287000D01*
X652000Y301500D02*
Y373984D01*
X542000Y287000D02*
X596000D01*
X478500D02*
X542000D01*
X524000Y305000D02*
X542000Y287000D01*
X524000Y305000D02*
Y373984D01*
X418000Y287000D02*
X478500D01*
X333780D02*
X418000D01*
X396000Y309000D02*
X418000Y287000D01*
X396000Y309000D02*
Y373984D01*
X306000Y287000D02*
X333780D01*
X268000Y325000D02*
X306000Y287000D01*
X268000Y325000D02*
Y373984D01*
X705500Y287000D02*
X712000D01*
X573000Y264000D02*
X596000Y287000D01*
X573000Y201016D02*
Y264000D01*
X445000Y253500D02*
X478500Y287000D01*
X445000Y201016D02*
Y253500D01*
X317000Y270220D02*
X333780Y287000D01*
X317000Y201016D02*
Y270220D01*
X273500Y393500D02*
Y450500D01*
X264000Y460000D02*
X273500Y450500D01*
X247000Y460000D02*
X264000D01*
X237000Y450000D02*
X247000Y460000D01*
X237000Y303500D02*
Y450000D01*
X519500Y460000D02*
X613500D01*
X392500D02*
X519500D01*
X529500Y450000D01*
Y393500D02*
Y450000D01*
X264000Y460000D02*
X392500D01*
X401500Y451000D01*
Y393500D02*
Y451000D01*
X613500Y460000D02*
X657500Y416000D01*
Y393500D02*
Y416000D01*
X242500Y114500D02*
X303500D01*
X228500Y128500D02*
X242500Y114500D01*
X557500D02*
X680000D01*
X432500D02*
X557500D01*
X567500Y124500D01*
Y181500D01*
X303500Y114500D02*
X432500D01*
X439500Y121500D01*
Y181500D01*
X303500Y114500D02*
X311500Y122500D01*
Y181500D01*
X680000Y114500D02*
X695500Y130000D01*
Y181500D01*
X268000Y373984D02*
X271094Y377079D01*
X319500Y395000D02*
X325000Y389500D01*
Y381500D02*
Y389500D01*
X307500Y391500D02*
X311000Y395000D01*
X319500D01*
X307500Y385974D02*
Y391500D01*
X396000Y373984D02*
X399095Y377079D01*
X447500Y395000D02*
X453000Y389500D01*
Y381500D02*
Y389500D01*
X435500Y391500D02*
X439000Y395000D01*
X447500D01*
X435500Y385974D02*
Y391500D01*
X524000Y373984D02*
X527095Y377079D01*
X575500Y395000D02*
X581000Y389500D01*
Y381500D02*
Y389500D01*
X563500Y391500D02*
X567000Y395000D01*
X575500D01*
X563500Y385974D02*
Y391500D01*
X652000Y373984D02*
X655094Y377079D01*
X691500Y385974D02*
Y391500D01*
X695000Y395000D01*
X709000Y381500D02*
Y389500D01*
X695000Y395000D02*
X703500D01*
X709000Y389500D01*
X313906Y197921D02*
X317000Y201016D01*
X277500Y183500D02*
Y189026D01*
X274000Y180000D02*
X277500Y183500D01*
X260000Y185500D02*
Y193500D01*
X265500Y180000D02*
X274000D01*
X260000Y185500D02*
X265500Y180000D01*
X441905Y197921D02*
X445000Y201016D01*
X405500Y183500D02*
Y189026D01*
X402000Y180000D02*
X405500Y183500D01*
X388000Y185500D02*
X393500Y180000D01*
X402000D01*
X388000Y185500D02*
Y193500D01*
X661500Y183500D02*
Y189026D01*
X658000Y180000D02*
X661500Y183500D01*
X644000Y185500D02*
Y193500D01*
X649500Y180000D02*
X658000D01*
X644000Y185500D02*
X649500Y180000D01*
X569906Y197921D02*
X573000Y201016D01*
X533500Y183500D02*
Y189026D01*
X530000Y180000D02*
X533500Y183500D01*
X516000Y185500D02*
Y193500D01*
X521500Y180000D02*
X530000D01*
X516000Y185500D02*
X521500Y180000D01*
D29*
X258780Y281500D02*
D03*
D38*
X712000Y287000D02*
D03*
X271094Y377079D02*
D03*
X273500Y393500D02*
D03*
X325000Y381500D02*
D03*
X307500Y385974D02*
D03*
X399095Y377079D02*
D03*
X401500Y393500D02*
D03*
X453000Y381500D02*
D03*
X435500Y385974D02*
D03*
X527095Y377079D02*
D03*
X529500Y393500D02*
D03*
X581000Y381500D02*
D03*
X563500Y385974D02*
D03*
X655094Y377079D02*
D03*
X657500Y393500D02*
D03*
X691500Y385974D02*
D03*
X709000Y381500D02*
D03*
X313906Y197921D02*
D03*
X311500Y181500D02*
D03*
X277500Y189026D02*
D03*
X260000Y193500D02*
D03*
X441905Y197921D02*
D03*
X439500Y181500D02*
D03*
X405500Y189026D02*
D03*
X388000Y193500D02*
D03*
X697905Y197921D02*
D03*
X695500Y181500D02*
D03*
X661500Y189026D02*
D03*
X644000Y193500D02*
D03*
X569906Y197921D02*
D03*
X567500Y181500D02*
D03*
X533500Y189026D02*
D03*
X516000Y193500D02*
D03*
M02*
