M48
;Layer_Color=9474304
;FILE_FORMAT=2:5
INCH,LZ
;TYPE=PLATED
T1F00S00C0.01400
T2F00S00C0.02800
T3F00S00C0.03543
T4F00S00C0.07087
T5F00S00C0.07087
T6F00S00C0.11024
;TYPE=NON_PLATED
T7F00S00C0.07087
T8F00S00C0.11811
T9F00S00C0.11811
T10F00S00C0.20000
%
T01
X0285Y01075
X0292Y0105
X0425Y01075
X04335Y0105
X05675Y01075
X05755Y0105
X071Y01075
X07175Y0105
X0791Y01645
X082Y0162
X0702Y0156921
X0691Y0172921
X07075Y0182
X0708906Y0197921
X0707905Y0212421
X0728406Y0205921
X0672791Y0209842
Y0195843
Y0190342
X0648291Y0214843
X066Y0287
X0712
X0718
X057
X05175
X0506291Y0214843
X0530791Y0209842
Y0195843
Y0190342
X0549Y0172921
X0565Y01815
X0566905Y0197921
X0565906Y0212421
X0586406Y0205921
X056Y0156921
X0418
X0407Y0172921
X04225Y01815
X0424905Y0197921
X0423906Y0212421
X0444406Y0205921
X0388791Y0209842
Y0195843
Y0190342
X0364291Y0214843
X0376Y0287
X0428
X02865
X0234
X0165Y02975
X0222291Y0214843
X0246791Y0209842
Y0195843
Y0190342
X0265Y0172921
X02815Y0182
X0282906Y0197921
X0281906Y0212421
X0302406Y0205921
X0276Y0156921
X0155Y02545
Y02975
X016Y03125
X0217595Y0366
X0238094Y03595
X0237094Y0374
X02385Y039
X0255Y0399
X0244Y0415
X0235Y04625
X0228Y0465
X0273209Y0381579
Y0376079
Y0362079
X0297709Y0357079
X0359594Y0366
X0380095Y03595
X0379095Y0374
X038Y039
X0397Y0399
X0386Y0415
X03775Y04625
X03695Y0465
X0415209Y0381579
Y0376079
Y0362079
X0439709Y0357079
X0501594Y0366
X0522094Y03595
X0521095Y0374
X05225Y0389
X0539Y0399
X0528Y0415
X052Y04625
X0512Y0465
X0557209Y0381579
Y0376079
Y0362079
X0581709Y0357079
X0643595Y0366
X0664094Y03595
X0663095Y0374
X0665Y0389
X0681Y0399
X067Y0415
X06625Y04625
X0654Y0465
X0699209Y0381579
Y0376079
Y0362079
X0723709Y0357079
X07915Y035
X08205Y03475
T02
X0636953Y0175921
X0494953
X0352953
X0210953
X0309047Y0396
X0451047
X0593047
X0735047
T03
X0732Y0282
Y0292
X01765Y0296
Y0306
Y0286
Y0276
T04
X0767Y0241339
Y0263779
Y0286221
Y0308661
T05
X0236291Y0132937
Y0155378
X0378291
Y0132937
X0520291
Y0155378
X0662291
Y0132937
X0283709Y0416543
Y0438984
X0425709
Y0416543
X0567709
Y0438984
X0709709
Y0416543
T06
X0838315Y013663
X0858
Y0176
X0838315
Y021537
X0858
Y025474
X0838315
X0838815Y032113
X08585
Y03605
X0838815
Y039987
X08585
Y043924
X0838815
T07
X0249992Y0122031
X0391992
X0533992
X0675992
X0270008Y044989
X0412008
X0554008
X0696008
T08
X0761724Y0252559
Y0297441
T09
X0893433Y0114071
Y0277299
X0893933Y0298571
Y0461799
T10
X019Y0135
X075Y0125
X019Y04375
X07675Y045
M30
