G04*
G04 #@! TF.GenerationSoftware,Altium Limited,Altium Designer,19.1.6 (110)*
G04*
G04 Layer_Color=16711935*
%FSLAX25Y25*%
%MOIN*%
G70*
G01*
G75*
%ADD49C,0.12611*%
%ADD50C,0.09461*%
%ADD51C,0.20800*%
%ADD52C,0.00800*%
%ADD53C,0.12205*%
%ADD54C,0.06706*%
%ADD55R,0.06706X0.06706*%
%ADD56C,0.16800*%
%ADD57C,0.03400*%
%ADD58C,0.05800*%
D49*
X761724Y297441D02*
D03*
Y252559D02*
D03*
D50*
X767000Y286221D02*
D03*
Y308661D02*
D03*
Y241339D02*
D03*
Y263779D02*
D03*
D51*
X767500Y450000D02*
D03*
X750000Y125000D02*
D03*
X190000Y135000D02*
D03*
Y437500D02*
D03*
D52*
X696008Y449890D02*
D03*
X554008D02*
D03*
X412008D02*
D03*
X270008D02*
D03*
X249992Y122031D02*
D03*
X391992D02*
D03*
X533992D02*
D03*
X675992D02*
D03*
D53*
X709709Y438984D02*
D03*
Y416543D02*
D03*
X567709Y438984D02*
D03*
Y416543D02*
D03*
X425709Y438984D02*
D03*
Y416543D02*
D03*
X283709Y438984D02*
D03*
Y416543D02*
D03*
X236291Y132937D02*
D03*
Y155378D02*
D03*
X378291Y132937D02*
D03*
Y155378D02*
D03*
X520291Y132937D02*
D03*
Y155378D02*
D03*
X662291Y132937D02*
D03*
Y155378D02*
D03*
D54*
X176500Y306000D02*
D03*
Y296000D02*
D03*
Y286000D02*
D03*
X732000Y292000D02*
D03*
D55*
X176500Y276000D02*
D03*
X732000Y282000D02*
D03*
D56*
X858000Y136630D02*
D03*
X838315D02*
D03*
Y176000D02*
D03*
X858000D02*
D03*
Y215370D02*
D03*
X838315D02*
D03*
Y254740D02*
D03*
X858000D02*
D03*
X893433Y114071D02*
D03*
Y277299D02*
D03*
X858500Y321130D02*
D03*
X838815D02*
D03*
Y360500D02*
D03*
X858500D02*
D03*
Y399870D02*
D03*
X838815D02*
D03*
Y439240D02*
D03*
X858500D02*
D03*
X893933Y298571D02*
D03*
Y461799D02*
D03*
D57*
X728406Y205921D02*
D03*
X246791Y190342D02*
D03*
Y195843D02*
D03*
X654000Y465000D02*
D03*
X512000D02*
D03*
X369500D02*
D03*
X228000D02*
D03*
X662500Y462500D02*
D03*
X520000D02*
D03*
X377500D02*
D03*
X235000D02*
D03*
X712000Y287000D02*
D03*
X665000Y389000D02*
D03*
X522500D02*
D03*
X380000Y390000D02*
D03*
X238500D02*
D03*
X160000Y312500D02*
D03*
X165000Y297500D02*
D03*
X717500Y105000D02*
D03*
X710000Y107500D02*
D03*
X575500Y105000D02*
D03*
X567500Y107500D02*
D03*
X433500Y105000D02*
D03*
X425000Y107500D02*
D03*
X292000Y105000D02*
D03*
X285000Y107500D02*
D03*
X707500Y182000D02*
D03*
X565000Y181500D02*
D03*
X422500D02*
D03*
X281500Y182000D02*
D03*
X155000Y254500D02*
D03*
Y297500D02*
D03*
X660000Y287000D02*
D03*
X570000D02*
D03*
X517500D02*
D03*
X428000D02*
D03*
X376000D02*
D03*
X234000D02*
D03*
X286500D02*
D03*
X718000D02*
D03*
X820500Y347500D02*
D03*
X791500Y350000D02*
D03*
X791000Y164500D02*
D03*
X820000Y162000D02*
D03*
X643595Y366000D02*
D03*
X681000Y399000D02*
D03*
X670000Y415000D02*
D03*
X663095Y374000D02*
D03*
X664094Y359500D02*
D03*
X699209Y381579D02*
D03*
Y376079D02*
D03*
Y362079D02*
D03*
X723709Y357079D02*
D03*
X501594Y366000D02*
D03*
X539000Y399000D02*
D03*
X528000Y415000D02*
D03*
X521095Y374000D02*
D03*
X522094Y359500D02*
D03*
X557209Y381579D02*
D03*
Y376079D02*
D03*
Y362079D02*
D03*
X581709Y357079D02*
D03*
X359594Y366000D02*
D03*
X397000Y399000D02*
D03*
X386000Y415000D02*
D03*
X379095Y374000D02*
D03*
X380095Y359500D02*
D03*
X415209Y381579D02*
D03*
Y376079D02*
D03*
Y362079D02*
D03*
X439709Y357079D02*
D03*
X217595Y366000D02*
D03*
X255000Y399000D02*
D03*
X244000Y415000D02*
D03*
X237094Y374000D02*
D03*
X238094Y359500D02*
D03*
X273209Y381579D02*
D03*
Y376079D02*
D03*
Y362079D02*
D03*
X297709Y357079D02*
D03*
X302406Y205921D02*
D03*
X265000Y172921D02*
D03*
X276000Y156921D02*
D03*
X282906Y197921D02*
D03*
X281906Y212421D02*
D03*
X246791Y209842D02*
D03*
X222291Y214843D02*
D03*
X444406Y205921D02*
D03*
X407000Y172921D02*
D03*
X418000Y156921D02*
D03*
X424905Y197921D02*
D03*
X423906Y212421D02*
D03*
X388791Y190342D02*
D03*
Y195843D02*
D03*
Y209842D02*
D03*
X364291Y214843D02*
D03*
X586406Y205921D02*
D03*
X549000Y172921D02*
D03*
X560000Y156921D02*
D03*
X566905Y197921D02*
D03*
X565906Y212421D02*
D03*
X530791Y190342D02*
D03*
Y195843D02*
D03*
Y209842D02*
D03*
X506291Y214843D02*
D03*
X702000Y156921D02*
D03*
X691000Y172921D02*
D03*
X708906Y197921D02*
D03*
X707905Y212421D02*
D03*
X648291Y214843D02*
D03*
X672791Y209842D02*
D03*
Y195843D02*
D03*
Y190342D02*
D03*
D58*
X735047Y396000D02*
D03*
X593047D02*
D03*
X451047D02*
D03*
X309047D02*
D03*
X210953Y175921D02*
D03*
X352953D02*
D03*
X494953D02*
D03*
X636953D02*
D03*
M02*
