G04*
G04 #@! TF.GenerationSoftware,Altium Limited,Altium Designer,19.1.8 (144)*
G04*
G04 Layer_Color=65535*
%FSLAX25Y25*%
%MOIN*%
G70*
G01*
G75*
%ADD10C,0.00984*%
%ADD11C,0.02362*%
%ADD12C,0.01575*%
%ADD13C,0.00787*%
%ADD14C,0.01000*%
%ADD15C,0.00394*%
%ADD16C,0.00600*%
D10*
X670587Y389551D02*
G03*
X670587Y389551I-492J0D01*
G01*
X528587Y389551D02*
G03*
X528587Y389551I-492J0D01*
G01*
X386587Y389551D02*
G03*
X386587Y389551I-492J0D01*
G01*
X244587Y389551D02*
G03*
X244587Y389551I-492J0D01*
G01*
X276398Y182370D02*
G03*
X276398Y182370I-492J0D01*
G01*
X418398Y182370D02*
G03*
X418398Y182370I-492J0D01*
G01*
X560398D02*
G03*
X560398Y182370I-492J0D01*
G01*
X702398Y182370D02*
G03*
X702398Y182370I-492J0D01*
G01*
X814457Y155110D02*
G03*
X814457Y155110I-492J0D01*
G01*
X814957Y340610D02*
G03*
X814957Y340610I-492J0D01*
G01*
X822335Y182465D02*
G03*
X822335Y182465I-492J0D01*
G01*
Y366965D02*
G03*
X822335Y366965I-492J0D01*
G01*
D11*
X679543Y384039D02*
G03*
X679543Y384039I-1181J0D01*
G01*
X537543Y384039D02*
G03*
X537543Y384039I-1181J0D01*
G01*
X395543Y384039D02*
G03*
X395543Y384039I-1181J0D01*
G01*
X253543Y384039D02*
G03*
X253543Y384039I-1181J0D01*
G01*
X268819Y187882D02*
G03*
X268819Y187882I-1181J0D01*
G01*
X410819Y187882D02*
G03*
X410819Y187882I-1181J0D01*
G01*
X552819D02*
G03*
X552819Y187882I-1181J0D01*
G01*
X694819Y187882D02*
G03*
X694819Y187882I-1181J0D01*
G01*
D12*
X806878Y159047D02*
G03*
X806878Y159047I-787J0D01*
G01*
X807378Y344547D02*
G03*
X807378Y344547I-787J0D01*
G01*
D13*
X674425Y361992D02*
Y387976D01*
X688992Y361992D02*
Y387976D01*
X674425D02*
X688992D01*
X674425Y361992D02*
X688992D01*
X532425Y361992D02*
Y387976D01*
X546992Y361992D02*
Y387976D01*
X532425D02*
X546992D01*
X532425Y361992D02*
X546992D01*
X390425Y361992D02*
Y387976D01*
X404992Y361992D02*
Y387976D01*
X390425D02*
X404992D01*
X390425Y361992D02*
X404992D01*
X248425Y361992D02*
Y387976D01*
X262992Y361992D02*
Y387976D01*
X248425D02*
X262992D01*
X248425Y361992D02*
X262992D01*
X271575Y183945D02*
Y209929D01*
X257008Y183945D02*
Y209929D01*
Y183945D02*
X271575D01*
X257008Y209929D02*
X271575D01*
X413575Y183945D02*
Y209929D01*
X399008Y183945D02*
Y209929D01*
Y183945D02*
X413575D01*
X399008Y209929D02*
X413575D01*
X555575Y183945D02*
Y209929D01*
X541008Y183945D02*
Y209929D01*
Y183945D02*
X555575D01*
X541008Y209929D02*
X555575D01*
X697575Y183945D02*
Y209929D01*
X683008Y183945D02*
Y209929D01*
Y183945D02*
X697575D01*
X683008Y209929D02*
X697575D01*
X809240Y155898D02*
Y168102D01*
X801760Y155898D02*
Y168102D01*
Y155898D02*
X809240D01*
X801760Y168102D02*
X809240D01*
X809740Y341398D02*
Y353602D01*
X802260Y341398D02*
Y353602D01*
Y341398D02*
X809740D01*
X802260Y353602D02*
X809740D01*
X653331Y369197D02*
Y370772D01*
X656087Y369197D02*
Y370772D01*
X511331Y369197D02*
Y370772D01*
X514087Y369197D02*
Y370772D01*
X369331Y369197D02*
Y370772D01*
X372087Y369197D02*
Y370772D01*
X227331Y369197D02*
Y370772D01*
X230087Y369197D02*
Y370772D01*
X292669Y201150D02*
Y202724D01*
X289913Y201150D02*
Y202724D01*
X434669Y201150D02*
Y202724D01*
X431913Y201150D02*
Y202724D01*
X576669Y201150D02*
Y202724D01*
X573913Y201150D02*
Y202724D01*
X718669Y201150D02*
Y202724D01*
X715913Y201150D02*
Y202724D01*
X714213Y280622D02*
X715787D01*
X714213Y283378D02*
X715787D01*
X714213Y293378D02*
X715787D01*
X714213Y290622D02*
X715787D01*
X787713Y152378D02*
X789287D01*
X787713Y149622D02*
X789287D01*
X788213Y337378D02*
X789787D01*
X788213Y334622D02*
X789787D01*
X774405Y178331D02*
X816482D01*
X774405D02*
Y180299D01*
X816482Y178331D02*
Y179315D01*
Y218685D02*
Y219669D01*
X774405Y217701D02*
Y219669D01*
X816482D01*
X774405Y362831D02*
X816482D01*
X774405D02*
Y364799D01*
X816482Y362831D02*
Y363815D01*
Y403185D02*
Y404169D01*
X774405Y402201D02*
Y404169D01*
X816482D01*
X171500Y271000D02*
X181500D01*
X171500D02*
Y311000D01*
X181500Y271000D02*
Y311000D01*
X171500D02*
X181500D01*
X727000Y297000D02*
X737000D01*
Y277000D02*
Y297000D01*
X727000Y277000D02*
X737000D01*
X727000D02*
Y297000D01*
X711087Y348291D02*
Y349866D01*
X708331Y348291D02*
Y349866D01*
X569087Y348291D02*
Y349866D01*
X566331Y348291D02*
Y349866D01*
X427087Y348291D02*
Y349866D01*
X424331Y348291D02*
Y349866D01*
X285087Y348291D02*
Y349866D01*
X282331Y348291D02*
Y349866D01*
X234913Y222055D02*
Y223630D01*
X237669Y222055D02*
Y223630D01*
X376913Y222055D02*
Y223630D01*
X379669Y222055D02*
Y223630D01*
X518913Y222055D02*
Y223630D01*
X521669Y222055D02*
Y223630D01*
X660913Y222055D02*
Y223630D01*
X663669Y222055D02*
Y223630D01*
X711087Y365791D02*
Y367366D01*
X708331Y365791D02*
Y367366D01*
X569087Y365791D02*
Y367366D01*
X566331Y365791D02*
Y367366D01*
X427087Y365791D02*
Y367366D01*
X424331Y365791D02*
Y367366D01*
X285087Y365791D02*
Y367366D01*
X282331Y365791D02*
Y367366D01*
X234913Y204555D02*
Y206130D01*
X237669Y204555D02*
Y206130D01*
X376913Y204555D02*
Y206130D01*
X379669Y204555D02*
Y206130D01*
X518913Y204555D02*
Y206130D01*
X521669Y204555D02*
Y206130D01*
X660913Y204555D02*
Y206130D01*
X663669Y204555D02*
Y206130D01*
X672260Y397622D02*
X673835D01*
X672260Y400378D02*
X673835D01*
X530260Y397622D02*
X531835D01*
X530260Y400378D02*
X531835D01*
X388260Y397622D02*
X389835D01*
X388260Y400378D02*
X389835D01*
X246260Y397622D02*
X247835D01*
X246260Y400378D02*
X247835D01*
X272165Y174299D02*
X273740D01*
X272165Y171543D02*
X273740D01*
X414165Y174299D02*
X415740D01*
X414165Y171543D02*
X415740D01*
X556165Y174299D02*
X557740D01*
X556165Y171543D02*
X557740D01*
X698165Y174299D02*
X699740D01*
X698165Y171543D02*
X699740D01*
X672260Y392122D02*
X673835D01*
X672260Y394878D02*
X673835D01*
X530260Y392122D02*
X531835D01*
X530260Y394878D02*
X531835D01*
X388260Y392122D02*
X389835D01*
X388260Y394878D02*
X389835D01*
X246260Y392122D02*
X247835D01*
X246260Y394878D02*
X247835D01*
X272165Y179799D02*
X273740D01*
X272165Y177043D02*
X273740D01*
X414165Y179799D02*
X415740D01*
X414165Y177043D02*
X415740D01*
X556165Y179799D02*
X557740D01*
X556165Y177043D02*
X557740D01*
X698165Y179799D02*
X699740D01*
X698165Y177043D02*
X699740D01*
X672260Y403122D02*
X673835D01*
X672260Y405878D02*
X673835D01*
X530260Y403122D02*
X531835D01*
X530260Y405878D02*
X531835D01*
X388260Y403122D02*
X389835D01*
X388260Y405878D02*
X389835D01*
X246260Y403122D02*
X247835D01*
X246260Y405878D02*
X247835D01*
X272165Y168799D02*
X273740D01*
X272165Y166043D02*
X273740D01*
X414165Y168799D02*
X415740D01*
X414165Y166043D02*
X415740D01*
X556165Y168799D02*
X557740D01*
X556165Y166043D02*
X557740D01*
X698165Y168799D02*
X699740D01*
X698165Y166043D02*
X699740D01*
X672260Y408622D02*
X673835D01*
X672260Y411378D02*
X673835D01*
X530260Y408622D02*
X531835D01*
X530260Y411378D02*
X531835D01*
X388260Y408622D02*
X389835D01*
X388260Y411378D02*
X389835D01*
X246260Y408622D02*
X247835D01*
X246260Y411378D02*
X247835D01*
X272165Y163299D02*
X273740D01*
X272165Y160543D02*
X273740D01*
X414165Y163299D02*
X415740D01*
X414165Y160543D02*
X415740D01*
X556165Y163299D02*
X557740D01*
X556165Y160543D02*
X557740D01*
X698165Y163299D02*
X699740D01*
X698165Y160543D02*
X699740D01*
X683213Y408622D02*
X684787D01*
X683213Y411378D02*
X684787D01*
X541213Y408622D02*
X542787D01*
X541213Y411378D02*
X542787D01*
X399213Y408622D02*
X400787D01*
X399213Y411378D02*
X400787D01*
X257213Y408622D02*
X258787D01*
X257213Y411378D02*
X258787D01*
X261213Y163299D02*
X262787D01*
X261213Y160543D02*
X262787D01*
X403213Y163299D02*
X404787D01*
X403213Y160543D02*
X404787D01*
X545213Y163299D02*
X546787D01*
X545213Y160543D02*
X546787D01*
X687213Y163299D02*
X688787D01*
X687213Y160543D02*
X688787D01*
X683213Y403122D02*
X684787D01*
X683213Y405878D02*
X684787D01*
X541213Y403122D02*
X542787D01*
X541213Y405878D02*
X542787D01*
X399213Y403122D02*
X400787D01*
X399213Y405878D02*
X400787D01*
X257213Y403122D02*
X258787D01*
X257213Y405878D02*
X258787D01*
X261213Y168799D02*
X262787D01*
X261213Y166043D02*
X262787D01*
X403213Y168799D02*
X404787D01*
X403213Y166043D02*
X404787D01*
X545213Y168799D02*
X546787D01*
X545213Y166043D02*
X546787D01*
X687213Y168799D02*
X688787D01*
X687213Y166043D02*
X688787D01*
X710661Y379504D02*
Y382654D01*
X704756Y379504D02*
Y382654D01*
X568661Y379504D02*
Y382654D01*
X562756Y379504D02*
Y382654D01*
X426661Y379504D02*
Y382654D01*
X420756Y379504D02*
Y382654D01*
X284661Y379504D02*
Y382654D01*
X278756Y379504D02*
Y382654D01*
X235339Y189268D02*
Y192417D01*
X241244Y189268D02*
Y192417D01*
X377339Y189268D02*
Y192417D01*
X383244Y189268D02*
Y192417D01*
X519339Y189268D02*
Y192417D01*
X525244Y189268D02*
Y192417D01*
X661339Y189268D02*
Y192417D01*
X667244Y189268D02*
Y192417D01*
X647319Y377031D02*
X650468D01*
X647319Y382937D02*
X650468D01*
X505319Y377031D02*
X508468D01*
X505319Y382937D02*
X508468D01*
X363319Y377031D02*
X366469D01*
X363319Y382937D02*
X366469D01*
X221319Y377031D02*
X224468D01*
X221319Y382937D02*
X224468D01*
X295532Y194890D02*
X298681D01*
X295532Y188984D02*
X298681D01*
X437532Y194890D02*
X440681D01*
X437532Y188984D02*
X440681D01*
X579531Y194890D02*
X582681D01*
X579531Y188984D02*
X582681D01*
X721531Y194890D02*
X724681D01*
X721531Y188984D02*
X724681D01*
X647634Y357031D02*
X650783D01*
X647634Y362937D02*
X650783D01*
X505634Y357031D02*
X508783D01*
X505634Y362937D02*
X508783D01*
X363634Y357031D02*
X366783D01*
X363634Y362937D02*
X366783D01*
X221634Y357031D02*
X224783D01*
X221634Y362937D02*
X224783D01*
X295216Y214890D02*
X298366D01*
X295216Y208984D02*
X298366D01*
X437217Y214890D02*
X440366D01*
X437217Y208984D02*
X440366D01*
X579216Y214890D02*
X582366D01*
X579216Y208984D02*
X582366D01*
X721216Y214890D02*
X724366D01*
X721216Y208984D02*
X724366D01*
X778425Y157547D02*
X781575D01*
X778425Y163453D02*
X781575D01*
X778925Y343547D02*
X782075D01*
X778925Y349453D02*
X782075D01*
D14*
X691323Y401543D02*
X728094D01*
Y469575D01*
X691323D02*
X728094D01*
X691323Y401543D02*
Y469575D01*
X549323Y401543D02*
X586095D01*
Y469575D01*
X549323D02*
X586095D01*
X549323Y401543D02*
Y469575D01*
X407323Y401543D02*
X444095D01*
Y469575D01*
X407323D02*
X444095D01*
X407323Y401543D02*
Y469575D01*
X265323Y401543D02*
X302095D01*
Y469575D01*
X265323D02*
X302095D01*
X265323Y401543D02*
Y469575D01*
X217905Y170378D02*
X254677D01*
X217905Y102346D02*
Y170378D01*
Y102346D02*
X254677D01*
Y170378D01*
X359906D02*
X396677D01*
X359906Y102346D02*
Y170378D01*
Y102346D02*
X396677D01*
Y170378D01*
X501905D02*
X538677D01*
X501905Y102346D02*
Y170378D01*
Y102346D02*
X538677D01*
Y170378D01*
X643905D02*
X680677D01*
X643905Y102346D02*
Y170378D01*
Y102346D02*
X680677D01*
Y170378D01*
X683709Y422484D02*
Y440594D01*
X672291Y422484D02*
Y440594D01*
X682291D02*
X683709D01*
X682291Y422484D02*
X683709D01*
X672291D02*
X673709D01*
X672291Y440594D02*
X673709D01*
X541709Y422484D02*
Y440594D01*
X530291Y422484D02*
Y440594D01*
X540291D02*
X541709D01*
X540291Y422484D02*
X541709D01*
X530291D02*
X531709D01*
X530291Y440594D02*
X531709D01*
X399709Y422484D02*
Y440594D01*
X388291Y422484D02*
Y440594D01*
X398291D02*
X399709D01*
X398291Y422484D02*
X399709D01*
X388291D02*
X389709D01*
X388291Y440594D02*
X389709D01*
X257709Y422484D02*
Y440594D01*
X246291Y422484D02*
Y440594D01*
X256291D02*
X257709D01*
X256291Y422484D02*
X257709D01*
X246291D02*
X247709D01*
X246291Y440594D02*
X247709D01*
X262291Y131327D02*
Y149437D01*
X273709Y131327D02*
Y149437D01*
X262291Y131327D02*
X263709D01*
X262291Y149437D02*
X263709D01*
X272291D02*
X273709D01*
X272291Y131327D02*
X273709D01*
X404291D02*
Y149437D01*
X415709Y131327D02*
Y149437D01*
X404291Y131327D02*
X405709D01*
X404291Y149437D02*
X405709D01*
X414291D02*
X415709D01*
X414291Y131327D02*
X415709D01*
X546291D02*
Y149437D01*
X557709Y131327D02*
Y149437D01*
X546291Y131327D02*
X547709D01*
X546291Y149437D02*
X547709D01*
X556291D02*
X557709D01*
X556291Y131327D02*
X557709D01*
X688291D02*
Y149437D01*
X699709Y131327D02*
Y149437D01*
X688291Y131327D02*
X689709D01*
X688291Y149437D02*
X689709D01*
X698291D02*
X699709D01*
X698291Y131327D02*
X699709D01*
X140000Y106000D02*
X142000Y100000D01*
X144000Y106000D01*
X142000Y475000D02*
X144000Y469000D01*
X140000D02*
X142000Y475000D01*
Y100000D02*
Y264806D01*
Y306994D02*
Y475000D01*
X141000Y100000D02*
X148500D01*
X141000Y475000D02*
X148500D01*
X150000Y91000D02*
X156000Y93000D01*
X150000Y91000D02*
X156000Y89000D01*
X914000D02*
X920000Y91000D01*
X914000Y93000D02*
X920000Y91000D01*
X150000D02*
X512306D01*
X554494D02*
X920000D01*
X150000Y90000D02*
Y98500D01*
X920000Y90000D02*
Y98500D01*
D15*
X676721Y434945D02*
X678820D01*
X679869Y433895D01*
X678820Y432846D01*
X676721D01*
X678295D01*
Y434945D01*
X679869Y430221D02*
X676721D01*
X677770D01*
X679869Y428121D01*
X678295Y429696D01*
X676721Y428121D01*
X534721Y434945D02*
X536820D01*
X537869Y433895D01*
X536820Y432846D01*
X534721D01*
X536295D01*
Y434945D01*
X537869Y430221D02*
X534721D01*
X535770D01*
X537869Y428121D01*
X536295Y429696D01*
X534721Y428121D01*
X392721Y434945D02*
X394819D01*
X395869Y433895D01*
X394819Y432846D01*
X392721D01*
X394295D01*
Y434945D01*
X395869Y430221D02*
X392721D01*
X393770D01*
X395869Y428121D01*
X394295Y429696D01*
X392721Y428121D01*
X250721Y434945D02*
X252819D01*
X253869Y433895D01*
X252819Y432846D01*
X250721D01*
X252295D01*
Y434945D01*
X253869Y430221D02*
X250721D01*
X251770D01*
X253869Y428121D01*
X252295Y429696D01*
X250721Y428121D01*
X269280Y136976D02*
X267180D01*
X266131Y138026D01*
X267180Y139076D01*
X269280D01*
X267705D01*
Y136976D01*
X266131Y141701D02*
X269280D01*
X268230D01*
X266131Y143800D01*
X267705Y142226D01*
X269280Y143800D01*
X411279Y136976D02*
X409180D01*
X408131Y138026D01*
X409180Y139076D01*
X411279D01*
X409705D01*
Y136976D01*
X408131Y141701D02*
X411279D01*
X410230D01*
X408131Y143800D01*
X409705Y142226D01*
X411279Y143800D01*
X553279Y136976D02*
X551181D01*
X550131Y138026D01*
X551181Y139076D01*
X553279D01*
X551705D01*
Y136976D01*
X550131Y141701D02*
X553279D01*
X552230D01*
X550131Y143800D01*
X551705Y142226D01*
X553279Y143800D01*
X695280Y136976D02*
X693181D01*
X692131Y138026D01*
X693181Y139076D01*
X695280D01*
X693705D01*
Y136976D01*
X692131Y141701D02*
X695280D01*
X694230D01*
X692131Y143800D01*
X693705Y142226D01*
X695280Y143800D01*
D16*
X140601Y266406D02*
X139601Y267406D01*
Y269405D01*
X140601Y270405D01*
X141600D01*
X142600Y269405D01*
Y268406D01*
Y269405D01*
X143600Y270405D01*
X144599D01*
X145599Y269405D01*
Y267406D01*
X144599Y266406D01*
X139601Y272404D02*
Y276403D01*
X140601D01*
X144599Y272404D01*
X145599D01*
X139601Y282401D02*
Y278402D01*
X142600D01*
X141600Y280402D01*
Y281401D01*
X142600Y282401D01*
X144599D01*
X145599Y281401D01*
Y279402D01*
X144599Y278402D01*
X140601Y284401D02*
X139601Y285400D01*
Y287400D01*
X140601Y288399D01*
X144599D01*
X145599Y287400D01*
Y285400D01*
X144599Y284401D01*
X140601D01*
X145599Y290399D02*
X144599D01*
Y291398D01*
X145599D01*
Y290399D01*
X140601Y295397D02*
X139601Y296397D01*
Y298396D01*
X140601Y299396D01*
X144599D01*
X145599Y298396D01*
Y296397D01*
X144599Y295397D01*
X140601D01*
Y301395D02*
X139601Y302395D01*
Y304394D01*
X140601Y305394D01*
X144599D01*
X145599Y304394D01*
Y302395D01*
X144599Y301395D01*
X140601D01*
X513906Y93399D02*
X517905D01*
Y92399D01*
X513906Y88401D01*
Y87401D01*
X519904Y93399D02*
X523903D01*
Y92399D01*
X519904Y88401D01*
Y87401D01*
X525902Y92399D02*
X526902Y93399D01*
X528901D01*
X529901Y92399D01*
Y88401D01*
X528901Y87401D01*
X526902D01*
X525902Y88401D01*
Y92399D01*
X531901D02*
X532900Y93399D01*
X534900D01*
X535899Y92399D01*
Y88401D01*
X534900Y87401D01*
X532900D01*
X531901Y88401D01*
Y92399D01*
X537898Y87401D02*
Y88401D01*
X538898D01*
Y87401D01*
X537898D01*
X542897Y92399D02*
X543897Y93399D01*
X545896D01*
X546896Y92399D01*
Y88401D01*
X545896Y87401D01*
X543897D01*
X542897Y88401D01*
Y92399D01*
X548895D02*
X549895Y93399D01*
X551894D01*
X552894Y92399D01*
Y88401D01*
X551894Y87401D01*
X549895D01*
X548895Y88401D01*
Y92399D01*
X687094Y356301D02*
Y358967D01*
X686561Y359500D01*
X685495D01*
X684962Y358967D01*
Y356301D01*
X683895Y356834D02*
X683362Y356301D01*
X682296D01*
X681763Y356834D01*
Y357367D01*
X682296Y357901D01*
X682829D01*
X682296D01*
X681763Y358434D01*
Y358967D01*
X682296Y359500D01*
X683362D01*
X683895Y358967D01*
X680697Y360033D02*
X678564D01*
X675365Y356301D02*
X677498D01*
Y359500D01*
X675365D01*
X677498Y357901D02*
X676431D01*
X672166Y356834D02*
X672699Y356301D01*
X673766D01*
X674299Y356834D01*
Y357367D01*
X673766Y357901D01*
X672699D01*
X672166Y358434D01*
Y358967D01*
X672699Y359500D01*
X673766D01*
X674299Y358967D01*
X668967Y356834D02*
X669500Y356301D01*
X670567D01*
X671100Y356834D01*
Y358967D01*
X670567Y359500D01*
X669500D01*
X668967Y358967D01*
X667901Y356834D02*
X667368Y356301D01*
X666301D01*
X665768Y356834D01*
Y357367D01*
X666301Y357901D01*
X665768Y358434D01*
Y358967D01*
X666301Y359500D01*
X667368D01*
X667901Y358967D01*
Y358434D01*
X667368Y357901D01*
X667901Y357367D01*
Y356834D01*
X667368Y357901D02*
X666301D01*
X545094Y356301D02*
Y358967D01*
X544561Y359500D01*
X543495D01*
X542962Y358967D01*
Y356301D01*
X541895Y356834D02*
X541362Y356301D01*
X540296D01*
X539763Y356834D01*
Y357367D01*
X540296Y357901D01*
X540829D01*
X540296D01*
X539763Y358434D01*
Y358967D01*
X540296Y359500D01*
X541362D01*
X541895Y358967D01*
X538697Y360033D02*
X536564D01*
X533365Y356301D02*
X535498D01*
Y359500D01*
X533365D01*
X535498Y357901D02*
X534431D01*
X530166Y356834D02*
X530699Y356301D01*
X531766D01*
X532299Y356834D01*
Y357367D01*
X531766Y357901D01*
X530699D01*
X530166Y358434D01*
Y358967D01*
X530699Y359500D01*
X531766D01*
X532299Y358967D01*
X526967Y356834D02*
X527500Y356301D01*
X528567D01*
X529100Y356834D01*
Y358967D01*
X528567Y359500D01*
X527500D01*
X526967Y358967D01*
X525901Y356301D02*
X523768D01*
Y356834D01*
X525901Y358967D01*
Y359500D01*
X403094Y356301D02*
Y358967D01*
X402561Y359500D01*
X401495D01*
X400962Y358967D01*
Y356301D01*
X399896Y356834D02*
X399362Y356301D01*
X398296D01*
X397763Y356834D01*
Y357367D01*
X398296Y357901D01*
X398829D01*
X398296D01*
X397763Y358434D01*
Y358967D01*
X398296Y359500D01*
X399362D01*
X399896Y358967D01*
X396697Y360033D02*
X394564D01*
X391365Y356301D02*
X393498D01*
Y359500D01*
X391365D01*
X393498Y357901D02*
X392431D01*
X388166Y356834D02*
X388699Y356301D01*
X389766D01*
X390299Y356834D01*
Y357367D01*
X389766Y357901D01*
X388699D01*
X388166Y358434D01*
Y358967D01*
X388699Y359500D01*
X389766D01*
X390299Y358967D01*
X384967Y356834D02*
X385500Y356301D01*
X386566D01*
X387100Y356834D01*
Y358967D01*
X386566Y359500D01*
X385500D01*
X384967Y358967D01*
X381768Y356301D02*
X382834Y356834D01*
X383901Y357901D01*
Y358967D01*
X383367Y359500D01*
X382301D01*
X381768Y358967D01*
Y358434D01*
X382301Y357901D01*
X383901D01*
X261094Y356301D02*
Y358967D01*
X260561Y359500D01*
X259495D01*
X258962Y358967D01*
Y356301D01*
X257895Y356834D02*
X257362Y356301D01*
X256296D01*
X255763Y356834D01*
Y357367D01*
X256296Y357901D01*
X256829D01*
X256296D01*
X255763Y358434D01*
Y358967D01*
X256296Y359500D01*
X257362D01*
X257895Y358967D01*
X254697Y360033D02*
X252564D01*
X249365Y356301D02*
X251498D01*
Y359500D01*
X249365D01*
X251498Y357901D02*
X250431D01*
X246166Y356834D02*
X246699Y356301D01*
X247765D01*
X248299Y356834D01*
Y357367D01*
X247765Y357901D01*
X246699D01*
X246166Y358434D01*
Y358967D01*
X246699Y359500D01*
X247765D01*
X248299Y358967D01*
X242967Y356834D02*
X243500Y356301D01*
X244566D01*
X245100Y356834D01*
Y358967D01*
X244566Y359500D01*
X243500D01*
X242967Y358967D01*
X239768Y356301D02*
X241901D01*
Y357901D01*
X240834Y357367D01*
X240301D01*
X239768Y357901D01*
Y358967D01*
X240301Y359500D01*
X241368D01*
X241901Y358967D01*
X258906Y215620D02*
Y212954D01*
X259439Y212421D01*
X260505D01*
X261038Y212954D01*
Y215620D01*
X262105Y215087D02*
X262638Y215620D01*
X263704D01*
X264237Y215087D01*
Y214554D01*
X263704Y214021D01*
X263171D01*
X263704D01*
X264237Y213488D01*
Y212954D01*
X263704Y212421D01*
X262638D01*
X262105Y212954D01*
X265303Y211888D02*
X267436D01*
X270635Y215620D02*
X268502D01*
Y212421D01*
X270635D01*
X268502Y214021D02*
X269569D01*
X273834Y215087D02*
X273301Y215620D01*
X272235D01*
X271701Y215087D01*
Y214554D01*
X272235Y214021D01*
X273301D01*
X273834Y213488D01*
Y212954D01*
X273301Y212421D01*
X272235D01*
X271701Y212954D01*
X277033Y215087D02*
X276500Y215620D01*
X275433D01*
X274900Y215087D01*
Y212954D01*
X275433Y212421D01*
X276500D01*
X277033Y212954D01*
X279699Y212421D02*
Y215620D01*
X278099Y214021D01*
X280232D01*
X400906Y215620D02*
Y212954D01*
X401439Y212421D01*
X402505D01*
X403038Y212954D01*
Y215620D01*
X404105Y215087D02*
X404638Y215620D01*
X405704D01*
X406237Y215087D01*
Y214554D01*
X405704Y214021D01*
X405171D01*
X405704D01*
X406237Y213488D01*
Y212954D01*
X405704Y212421D01*
X404638D01*
X404105Y212954D01*
X407303Y211888D02*
X409436D01*
X412635Y215620D02*
X410502D01*
Y212421D01*
X412635D01*
X410502Y214021D02*
X411569D01*
X415834Y215087D02*
X415301Y215620D01*
X414234D01*
X413701Y215087D01*
Y214554D01*
X414234Y214021D01*
X415301D01*
X415834Y213488D01*
Y212954D01*
X415301Y212421D01*
X414234D01*
X413701Y212954D01*
X419033Y215087D02*
X418500Y215620D01*
X417434D01*
X416900Y215087D01*
Y212954D01*
X417434Y212421D01*
X418500D01*
X419033Y212954D01*
X420099Y215087D02*
X420633Y215620D01*
X421699D01*
X422232Y215087D01*
Y214554D01*
X421699Y214021D01*
X421166D01*
X421699D01*
X422232Y213488D01*
Y212954D01*
X421699Y212421D01*
X420633D01*
X420099Y212954D01*
X542906Y215620D02*
Y212954D01*
X543439Y212421D01*
X544505D01*
X545038Y212954D01*
Y215620D01*
X546104Y215087D02*
X546638Y215620D01*
X547704D01*
X548237Y215087D01*
Y214554D01*
X547704Y214021D01*
X547171D01*
X547704D01*
X548237Y213488D01*
Y212954D01*
X547704Y212421D01*
X546638D01*
X546104Y212954D01*
X549303Y211888D02*
X551436D01*
X554635Y215620D02*
X552502D01*
Y212421D01*
X554635D01*
X552502Y214021D02*
X553569D01*
X557834Y215087D02*
X557301Y215620D01*
X556235D01*
X555701Y215087D01*
Y214554D01*
X556235Y214021D01*
X557301D01*
X557834Y213488D01*
Y212954D01*
X557301Y212421D01*
X556235D01*
X555701Y212954D01*
X561033Y215087D02*
X560500Y215620D01*
X559434D01*
X558900Y215087D01*
Y212954D01*
X559434Y212421D01*
X560500D01*
X561033Y212954D01*
X564232Y212421D02*
X562099D01*
X564232Y214554D01*
Y215087D01*
X563699Y215620D01*
X562633D01*
X562099Y215087D01*
X684905Y215620D02*
Y212954D01*
X685439Y212421D01*
X686505D01*
X687038Y212954D01*
Y215620D01*
X688104Y215087D02*
X688638Y215620D01*
X689704D01*
X690237Y215087D01*
Y214554D01*
X689704Y214021D01*
X689171D01*
X689704D01*
X690237Y213488D01*
Y212954D01*
X689704Y212421D01*
X688638D01*
X688104Y212954D01*
X691303Y211888D02*
X693436D01*
X696635Y215620D02*
X694502D01*
Y212421D01*
X696635D01*
X694502Y214021D02*
X695569D01*
X699834Y215087D02*
X699301Y215620D01*
X698235D01*
X697701Y215087D01*
Y214554D01*
X698235Y214021D01*
X699301D01*
X699834Y213488D01*
Y212954D01*
X699301Y212421D01*
X698235D01*
X697701Y212954D01*
X703033Y215087D02*
X702500Y215620D01*
X701434D01*
X700900Y215087D01*
Y212954D01*
X701434Y212421D01*
X702500D01*
X703033Y212954D01*
X704099Y212421D02*
X705166D01*
X704633D01*
Y215620D01*
X704099Y215087D01*
X793500Y175199D02*
Y172533D01*
X794033Y172000D01*
X795099D01*
X795633Y172533D01*
Y175199D01*
X798832Y172000D02*
X796699D01*
X798832Y174133D01*
Y174666D01*
X798298Y175199D01*
X797232D01*
X796699Y174666D01*
X794000Y360699D02*
Y358033D01*
X794533Y357500D01*
X795600D01*
X796133Y358033D01*
Y360699D01*
X797199Y357500D02*
X798265D01*
X797732D01*
Y360699D01*
X797199Y360166D01*
X746047Y358000D02*
Y354801D01*
X744448D01*
X743915Y355334D01*
Y356400D01*
X744448Y356934D01*
X746047D01*
X744981D02*
X743915Y358000D01*
X740716Y354801D02*
X741782Y355334D01*
X742848Y356400D01*
Y357467D01*
X742315Y358000D01*
X741249D01*
X740716Y357467D01*
Y356934D01*
X741249Y356400D01*
X742848D01*
X739649Y358533D02*
X737517D01*
X734318Y354801D02*
X736450D01*
Y358000D01*
X734318D01*
X736450Y356400D02*
X735384D01*
X731119Y355334D02*
X731652Y354801D01*
X732718D01*
X733251Y355334D01*
Y355867D01*
X732718Y356400D01*
X731652D01*
X731119Y356934D01*
Y357467D01*
X731652Y358000D01*
X732718D01*
X733251Y357467D01*
X727920Y355334D02*
X728453Y354801D01*
X729519D01*
X730052Y355334D01*
Y357467D01*
X729519Y358000D01*
X728453D01*
X727920Y357467D01*
X726853Y355334D02*
X726320Y354801D01*
X725254D01*
X724721Y355334D01*
Y355867D01*
X725254Y356400D01*
X724721Y356934D01*
Y357467D01*
X725254Y358000D01*
X726320D01*
X726853Y357467D01*
Y356934D01*
X726320Y356400D01*
X726853Y355867D01*
Y355334D01*
X726320Y356400D02*
X725254D01*
X604047Y358000D02*
Y354801D01*
X602448D01*
X601915Y355334D01*
Y356400D01*
X602448Y356934D01*
X604047D01*
X602981D02*
X601915Y358000D01*
X598716Y354801D02*
X599782Y355334D01*
X600848Y356400D01*
Y357467D01*
X600315Y358000D01*
X599249D01*
X598716Y357467D01*
Y356934D01*
X599249Y356400D01*
X600848D01*
X597649Y358533D02*
X595517D01*
X592318Y354801D02*
X594450D01*
Y358000D01*
X592318D01*
X594450Y356400D02*
X593384D01*
X589119Y355334D02*
X589652Y354801D01*
X590718D01*
X591251Y355334D01*
Y355867D01*
X590718Y356400D01*
X589652D01*
X589119Y356934D01*
Y357467D01*
X589652Y358000D01*
X590718D01*
X591251Y357467D01*
X585920Y355334D02*
X586453Y354801D01*
X587519D01*
X588052Y355334D01*
Y357467D01*
X587519Y358000D01*
X586453D01*
X585920Y357467D01*
X584853Y354801D02*
X582721D01*
Y355334D01*
X584853Y357467D01*
Y358000D01*
X462047D02*
Y354801D01*
X460448D01*
X459915Y355334D01*
Y356400D01*
X460448Y356934D01*
X462047D01*
X460981D02*
X459915Y358000D01*
X456716Y354801D02*
X457782Y355334D01*
X458848Y356400D01*
Y357467D01*
X458315Y358000D01*
X457249D01*
X456716Y357467D01*
Y356934D01*
X457249Y356400D01*
X458848D01*
X455649Y358533D02*
X453517D01*
X450318Y354801D02*
X452450D01*
Y358000D01*
X450318D01*
X452450Y356400D02*
X451384D01*
X447119Y355334D02*
X447652Y354801D01*
X448718D01*
X449251Y355334D01*
Y355867D01*
X448718Y356400D01*
X447652D01*
X447119Y356934D01*
Y357467D01*
X447652Y358000D01*
X448718D01*
X449251Y357467D01*
X443920Y355334D02*
X444453Y354801D01*
X445519D01*
X446052Y355334D01*
Y357467D01*
X445519Y358000D01*
X444453D01*
X443920Y357467D01*
X440721Y354801D02*
X441787Y355334D01*
X442853Y356400D01*
Y357467D01*
X442320Y358000D01*
X441254D01*
X440721Y357467D01*
Y356934D01*
X441254Y356400D01*
X442853D01*
X320047Y358000D02*
Y354801D01*
X318448D01*
X317915Y355334D01*
Y356400D01*
X318448Y356934D01*
X320047D01*
X318981D02*
X317915Y358000D01*
X314716Y354801D02*
X315782Y355334D01*
X316848Y356400D01*
Y357467D01*
X316315Y358000D01*
X315249D01*
X314716Y357467D01*
Y356934D01*
X315249Y356400D01*
X316848D01*
X313649Y358533D02*
X311517D01*
X308318Y354801D02*
X310450D01*
Y358000D01*
X308318D01*
X310450Y356400D02*
X309384D01*
X305119Y355334D02*
X305652Y354801D01*
X306718D01*
X307251Y355334D01*
Y355867D01*
X306718Y356400D01*
X305652D01*
X305119Y356934D01*
Y357467D01*
X305652Y358000D01*
X306718D01*
X307251Y357467D01*
X301920Y355334D02*
X302453Y354801D01*
X303519D01*
X304052Y355334D01*
Y357467D01*
X303519Y358000D01*
X302453D01*
X301920Y357467D01*
X298721Y354801D02*
X300853D01*
Y356400D01*
X299787Y355867D01*
X299254D01*
X298721Y356400D01*
Y357467D01*
X299254Y358000D01*
X300320D01*
X300853Y357467D01*
X199953Y213921D02*
Y217120D01*
X201552D01*
X202085Y216587D01*
Y215521D01*
X201552Y214988D01*
X199953D01*
X201019D02*
X202085Y213921D01*
X205284Y217120D02*
X204218Y216587D01*
X203152Y215521D01*
Y214454D01*
X203685Y213921D01*
X204751D01*
X205284Y214454D01*
Y214988D01*
X204751Y215521D01*
X203152D01*
X206351Y213388D02*
X208483D01*
X211682Y217120D02*
X209550D01*
Y213921D01*
X211682D01*
X209550Y215521D02*
X210616D01*
X214881Y216587D02*
X214348Y217120D01*
X213282D01*
X212749Y216587D01*
Y216054D01*
X213282Y215521D01*
X214348D01*
X214881Y214988D01*
Y214454D01*
X214348Y213921D01*
X213282D01*
X212749Y214454D01*
X218080Y216587D02*
X217547Y217120D01*
X216481D01*
X215948Y216587D01*
Y214454D01*
X216481Y213921D01*
X217547D01*
X218080Y214454D01*
X220746Y213921D02*
Y217120D01*
X219147Y215521D01*
X221279D01*
X341953Y213921D02*
Y217120D01*
X343552D01*
X344085Y216587D01*
Y215521D01*
X343552Y214988D01*
X341953D01*
X343019D02*
X344085Y213921D01*
X347284Y217120D02*
X346218Y216587D01*
X345152Y215521D01*
Y214454D01*
X345685Y213921D01*
X346751D01*
X347284Y214454D01*
Y214988D01*
X346751Y215521D01*
X345152D01*
X348351Y213388D02*
X350483D01*
X353682Y217120D02*
X351550D01*
Y213921D01*
X353682D01*
X351550Y215521D02*
X352616D01*
X356881Y216587D02*
X356348Y217120D01*
X355282D01*
X354749Y216587D01*
Y216054D01*
X355282Y215521D01*
X356348D01*
X356881Y214988D01*
Y214454D01*
X356348Y213921D01*
X355282D01*
X354749Y214454D01*
X360080Y216587D02*
X359547Y217120D01*
X358481D01*
X357948Y216587D01*
Y214454D01*
X358481Y213921D01*
X359547D01*
X360080Y214454D01*
X361147Y216587D02*
X361680Y217120D01*
X362746D01*
X363279Y216587D01*
Y216054D01*
X362746Y215521D01*
X362213D01*
X362746D01*
X363279Y214988D01*
Y214454D01*
X362746Y213921D01*
X361680D01*
X361147Y214454D01*
X483953Y213921D02*
Y217120D01*
X485552D01*
X486085Y216587D01*
Y215521D01*
X485552Y214988D01*
X483953D01*
X485019D02*
X486085Y213921D01*
X489284Y217120D02*
X488218Y216587D01*
X487152Y215521D01*
Y214454D01*
X487685Y213921D01*
X488751D01*
X489284Y214454D01*
Y214988D01*
X488751Y215521D01*
X487152D01*
X490351Y213388D02*
X492483D01*
X495682Y217120D02*
X493550D01*
Y213921D01*
X495682D01*
X493550Y215521D02*
X494616D01*
X498881Y216587D02*
X498348Y217120D01*
X497282D01*
X496749Y216587D01*
Y216054D01*
X497282Y215521D01*
X498348D01*
X498881Y214988D01*
Y214454D01*
X498348Y213921D01*
X497282D01*
X496749Y214454D01*
X502080Y216587D02*
X501547Y217120D01*
X500481D01*
X499948Y216587D01*
Y214454D01*
X500481Y213921D01*
X501547D01*
X502080Y214454D01*
X505279Y213921D02*
X503147D01*
X505279Y216054D01*
Y216587D01*
X504746Y217120D01*
X503680D01*
X503147Y216587D01*
X625953Y213921D02*
Y217120D01*
X627552D01*
X628085Y216587D01*
Y215521D01*
X627552Y214988D01*
X625953D01*
X627019D02*
X628085Y213921D01*
X631284Y217120D02*
X630218Y216587D01*
X629152Y215521D01*
Y214454D01*
X629685Y213921D01*
X630751D01*
X631284Y214454D01*
Y214988D01*
X630751Y215521D01*
X629152D01*
X632351Y213388D02*
X634483D01*
X637682Y217120D02*
X635550D01*
Y213921D01*
X637682D01*
X635550Y215521D02*
X636616D01*
X640881Y216587D02*
X640348Y217120D01*
X639282D01*
X638749Y216587D01*
Y216054D01*
X639282Y215521D01*
X640348D01*
X640881Y214988D01*
Y214454D01*
X640348Y213921D01*
X639282D01*
X638749Y214454D01*
X644080Y216587D02*
X643547Y217120D01*
X642481D01*
X641948Y216587D01*
Y214454D01*
X642481Y213921D01*
X643547D01*
X644080Y214454D01*
X645147Y213921D02*
X646213D01*
X645680D01*
Y217120D01*
X645147Y216587D01*
X651209Y370984D02*
Y367785D01*
X649609D01*
X649076Y368319D01*
Y369385D01*
X649609Y369918D01*
X651209D01*
X650142D02*
X649076Y370984D01*
X645877Y367785D02*
X648010D01*
Y369385D01*
X646943Y368852D01*
X646410D01*
X645877Y369385D01*
Y370451D01*
X646410Y370984D01*
X647476D01*
X648010Y370451D01*
X644811Y371517D02*
X642678D01*
X639479Y367785D02*
X641612D01*
Y370984D01*
X639479D01*
X641612Y369385D02*
X640545D01*
X636280Y368319D02*
X636813Y367785D01*
X637880D01*
X638413Y368319D01*
Y368852D01*
X637880Y369385D01*
X636813D01*
X636280Y369918D01*
Y370451D01*
X636813Y370984D01*
X637880D01*
X638413Y370451D01*
X633081Y368319D02*
X633614Y367785D01*
X634681D01*
X635214Y368319D01*
Y370451D01*
X634681Y370984D01*
X633614D01*
X633081Y370451D01*
X632015Y368319D02*
X631482Y367785D01*
X630415D01*
X629882Y368319D01*
Y368852D01*
X630415Y369385D01*
X629882Y369918D01*
Y370451D01*
X630415Y370984D01*
X631482D01*
X632015Y370451D01*
Y369918D01*
X631482Y369385D01*
X632015Y368852D01*
Y368319D01*
X631482Y369385D02*
X630415D01*
X509209Y370984D02*
Y367785D01*
X507609D01*
X507076Y368319D01*
Y369385D01*
X507609Y369918D01*
X509209D01*
X508142D02*
X507076Y370984D01*
X503877Y367785D02*
X506010D01*
Y369385D01*
X504943Y368852D01*
X504410D01*
X503877Y369385D01*
Y370451D01*
X504410Y370984D01*
X505477D01*
X506010Y370451D01*
X502811Y371517D02*
X500678D01*
X497479Y367785D02*
X499612D01*
Y370984D01*
X497479D01*
X499612Y369385D02*
X498545D01*
X494280Y368319D02*
X494813Y367785D01*
X495880D01*
X496413Y368319D01*
Y368852D01*
X495880Y369385D01*
X494813D01*
X494280Y369918D01*
Y370451D01*
X494813Y370984D01*
X495880D01*
X496413Y370451D01*
X491081Y368319D02*
X491614Y367785D01*
X492681D01*
X493214Y368319D01*
Y370451D01*
X492681Y370984D01*
X491614D01*
X491081Y370451D01*
X490015Y367785D02*
X487882D01*
Y368319D01*
X490015Y370451D01*
Y370984D01*
X367209D02*
Y367785D01*
X365609D01*
X365076Y368319D01*
Y369385D01*
X365609Y369918D01*
X367209D01*
X366142D02*
X365076Y370984D01*
X361877Y367785D02*
X364010D01*
Y369385D01*
X362943Y368852D01*
X362410D01*
X361877Y369385D01*
Y370451D01*
X362410Y370984D01*
X363476D01*
X364010Y370451D01*
X360811Y371517D02*
X358678D01*
X355479Y367785D02*
X357612D01*
Y370984D01*
X355479D01*
X357612Y369385D02*
X356545D01*
X352280Y368319D02*
X352813Y367785D01*
X353880D01*
X354413Y368319D01*
Y368852D01*
X353880Y369385D01*
X352813D01*
X352280Y369918D01*
Y370451D01*
X352813Y370984D01*
X353880D01*
X354413Y370451D01*
X349081Y368319D02*
X349614Y367785D01*
X350681D01*
X351214Y368319D01*
Y370451D01*
X350681Y370984D01*
X349614D01*
X349081Y370451D01*
X345882Y367785D02*
X346949Y368319D01*
X348015Y369385D01*
Y370451D01*
X347482Y370984D01*
X346415D01*
X345882Y370451D01*
Y369918D01*
X346415Y369385D01*
X348015D01*
X225209Y370984D02*
Y367785D01*
X223609D01*
X223076Y368319D01*
Y369385D01*
X223609Y369918D01*
X225209D01*
X224142D02*
X223076Y370984D01*
X219877Y367785D02*
X222010D01*
Y369385D01*
X220943Y368852D01*
X220410D01*
X219877Y369385D01*
Y370451D01*
X220410Y370984D01*
X221477D01*
X222010Y370451D01*
X218811Y371517D02*
X216678D01*
X213479Y367785D02*
X215612D01*
Y370984D01*
X213479D01*
X215612Y369385D02*
X214545D01*
X210280Y368319D02*
X210813Y367785D01*
X211880D01*
X212413Y368319D01*
Y368852D01*
X211880Y369385D01*
X210813D01*
X210280Y369918D01*
Y370451D01*
X210813Y370984D01*
X211880D01*
X212413Y370451D01*
X207081Y368319D02*
X207614Y367785D01*
X208681D01*
X209214Y368319D01*
Y370451D01*
X208681Y370984D01*
X207614D01*
X207081Y370451D01*
X203882Y367785D02*
X206015D01*
Y369385D01*
X204948Y368852D01*
X204415D01*
X203882Y369385D01*
Y370451D01*
X204415Y370984D01*
X205482D01*
X206015Y370451D01*
X294791Y200937D02*
Y204136D01*
X296391D01*
X296924Y203603D01*
Y202537D01*
X296391Y202003D01*
X294791D01*
X295858D02*
X296924Y200937D01*
X300123Y204136D02*
X297990D01*
Y202537D01*
X299057Y203070D01*
X299590D01*
X300123Y202537D01*
Y201470D01*
X299590Y200937D01*
X298523D01*
X297990Y201470D01*
X301189Y200404D02*
X303322D01*
X306521Y204136D02*
X304388D01*
Y200937D01*
X306521D01*
X304388Y202537D02*
X305455D01*
X309720Y203603D02*
X309187Y204136D01*
X308120D01*
X307587Y203603D01*
Y203070D01*
X308120Y202537D01*
X309187D01*
X309720Y202003D01*
Y201470D01*
X309187Y200937D01*
X308120D01*
X307587Y201470D01*
X312919Y203603D02*
X312386Y204136D01*
X311319D01*
X310786Y203603D01*
Y201470D01*
X311319Y200937D01*
X312386D01*
X312919Y201470D01*
X315585Y200937D02*
Y204136D01*
X313985Y202537D01*
X316118D01*
X436791Y200937D02*
Y204136D01*
X438391D01*
X438924Y203603D01*
Y202537D01*
X438391Y202003D01*
X436791D01*
X437858D02*
X438924Y200937D01*
X442123Y204136D02*
X439990D01*
Y202537D01*
X441057Y203070D01*
X441590D01*
X442123Y202537D01*
Y201470D01*
X441590Y200937D01*
X440523D01*
X439990Y201470D01*
X443189Y200404D02*
X445322D01*
X448521Y204136D02*
X446388D01*
Y200937D01*
X448521D01*
X446388Y202537D02*
X447455D01*
X451720Y203603D02*
X451187Y204136D01*
X450120D01*
X449587Y203603D01*
Y203070D01*
X450120Y202537D01*
X451187D01*
X451720Y202003D01*
Y201470D01*
X451187Y200937D01*
X450120D01*
X449587Y201470D01*
X454919Y203603D02*
X454386Y204136D01*
X453319D01*
X452786Y203603D01*
Y201470D01*
X453319Y200937D01*
X454386D01*
X454919Y201470D01*
X455985Y203603D02*
X456518Y204136D01*
X457585D01*
X458118Y203603D01*
Y203070D01*
X457585Y202537D01*
X457052D01*
X457585D01*
X458118Y202003D01*
Y201470D01*
X457585Y200937D01*
X456518D01*
X455985Y201470D01*
X578791Y200937D02*
Y204136D01*
X580391D01*
X580924Y203603D01*
Y202537D01*
X580391Y202003D01*
X578791D01*
X579858D02*
X580924Y200937D01*
X584123Y204136D02*
X581990D01*
Y202537D01*
X583057Y203070D01*
X583590D01*
X584123Y202537D01*
Y201470D01*
X583590Y200937D01*
X582523D01*
X581990Y201470D01*
X585189Y200404D02*
X587322D01*
X590521Y204136D02*
X588388D01*
Y200937D01*
X590521D01*
X588388Y202537D02*
X589455D01*
X593720Y203603D02*
X593187Y204136D01*
X592120D01*
X591587Y203603D01*
Y203070D01*
X592120Y202537D01*
X593187D01*
X593720Y202003D01*
Y201470D01*
X593187Y200937D01*
X592120D01*
X591587Y201470D01*
X596919Y203603D02*
X596386Y204136D01*
X595319D01*
X594786Y203603D01*
Y201470D01*
X595319Y200937D01*
X596386D01*
X596919Y201470D01*
X600118Y200937D02*
X597985D01*
X600118Y203070D01*
Y203603D01*
X599585Y204136D01*
X598518D01*
X597985Y203603D01*
X720791Y200937D02*
Y204136D01*
X722391D01*
X722924Y203603D01*
Y202537D01*
X722391Y202003D01*
X720791D01*
X721858D02*
X722924Y200937D01*
X726123Y204136D02*
X723990D01*
Y202537D01*
X725057Y203070D01*
X725590D01*
X726123Y202537D01*
Y201470D01*
X725590Y200937D01*
X724523D01*
X723990Y201470D01*
X727189Y200404D02*
X729322D01*
X732521Y204136D02*
X730388D01*
Y200937D01*
X732521D01*
X730388Y202537D02*
X731455D01*
X735720Y203603D02*
X735187Y204136D01*
X734120D01*
X733587Y203603D01*
Y203070D01*
X734120Y202537D01*
X735187D01*
X735720Y202003D01*
Y201470D01*
X735187Y200937D01*
X734120D01*
X733587Y201470D01*
X738919Y203603D02*
X738386Y204136D01*
X737319D01*
X736786Y203603D01*
Y201470D01*
X737319Y200937D01*
X738386D01*
X738919Y201470D01*
X739985Y200937D02*
X741051D01*
X740518D01*
Y204136D01*
X739985Y203603D01*
X711000Y274500D02*
Y277699D01*
X712600D01*
X713133Y277166D01*
Y276099D01*
X712600Y275566D01*
X711000D01*
X712066D02*
X713133Y274500D01*
X715798D02*
Y277699D01*
X714199Y276099D01*
X716332D01*
X710700Y297000D02*
Y300199D01*
X712299D01*
X712833Y299666D01*
Y298600D01*
X712299Y298066D01*
X710700D01*
X711766D02*
X712833Y297000D01*
X713899Y299666D02*
X714432Y300199D01*
X715498D01*
X716032Y299666D01*
Y299133D01*
X715498Y298600D01*
X714965D01*
X715498D01*
X716032Y298066D01*
Y297533D01*
X715498Y297000D01*
X714432D01*
X713899Y297533D01*
X786000Y144500D02*
Y147699D01*
X787600D01*
X788133Y147166D01*
Y146099D01*
X787600Y145566D01*
X786000D01*
X787066D02*
X788133Y144500D01*
X791332D02*
X789199D01*
X791332Y146633D01*
Y147166D01*
X790798Y147699D01*
X789732D01*
X789199Y147166D01*
X787000Y329500D02*
Y332699D01*
X788599D01*
X789133Y332166D01*
Y331100D01*
X788599Y330566D01*
X787000D01*
X788066D02*
X789133Y329500D01*
X790199D02*
X791265D01*
X790732D01*
Y332699D01*
X790199Y332166D01*
X729633Y356054D02*
Y358187D01*
X729100Y358720D01*
X728033D01*
X727500Y358187D01*
Y356054D01*
X728033Y355521D01*
X729100D01*
X728566Y356588D02*
X729633Y355521D01*
X729100D02*
X729633Y356054D01*
X730699Y358187D02*
X731232Y358720D01*
X732298D01*
X732832Y358187D01*
Y357654D01*
X732298Y357121D01*
X731765D01*
X732298D01*
X732832Y356588D01*
Y356054D01*
X732298Y355521D01*
X731232D01*
X730699Y356054D01*
X733898Y354988D02*
X736031D01*
X739230Y358720D02*
X737097D01*
Y355521D01*
X739230D01*
X737097Y357121D02*
X738163D01*
X742428Y358187D02*
X741895Y358720D01*
X740829D01*
X740296Y358187D01*
Y357654D01*
X740829Y357121D01*
X741895D01*
X742428Y356588D01*
Y356054D01*
X741895Y355521D01*
X740829D01*
X740296Y356054D01*
X745627Y358187D02*
X745094Y358720D01*
X744028D01*
X743495Y358187D01*
Y356054D01*
X744028Y355521D01*
X745094D01*
X745627Y356054D01*
X746694Y358187D02*
X747227Y358720D01*
X748293D01*
X748827Y358187D01*
Y357654D01*
X748293Y357121D01*
X748827Y356588D01*
Y356054D01*
X748293Y355521D01*
X747227D01*
X746694Y356054D01*
Y356588D01*
X747227Y357121D01*
X746694Y357654D01*
Y358187D01*
X747227Y357121D02*
X748293D01*
X587633Y356054D02*
Y358187D01*
X587100Y358720D01*
X586033D01*
X585500Y358187D01*
Y356054D01*
X586033Y355521D01*
X587100D01*
X586566Y356588D02*
X587633Y355521D01*
X587100D02*
X587633Y356054D01*
X588699Y358187D02*
X589232Y358720D01*
X590298D01*
X590832Y358187D01*
Y357654D01*
X590298Y357121D01*
X589765D01*
X590298D01*
X590832Y356588D01*
Y356054D01*
X590298Y355521D01*
X589232D01*
X588699Y356054D01*
X591898Y354988D02*
X594031D01*
X597230Y358720D02*
X595097D01*
Y355521D01*
X597230D01*
X595097Y357121D02*
X596163D01*
X600428Y358187D02*
X599895Y358720D01*
X598829D01*
X598296Y358187D01*
Y357654D01*
X598829Y357121D01*
X599895D01*
X600428Y356588D01*
Y356054D01*
X599895Y355521D01*
X598829D01*
X598296Y356054D01*
X603627Y358187D02*
X603094Y358720D01*
X602028D01*
X601495Y358187D01*
Y356054D01*
X602028Y355521D01*
X603094D01*
X603627Y356054D01*
X604694Y358720D02*
X606826D01*
Y358187D01*
X604694Y356054D01*
Y355521D01*
X445633Y356054D02*
Y358187D01*
X445099Y358720D01*
X444033D01*
X443500Y358187D01*
Y356054D01*
X444033Y355521D01*
X445099D01*
X444566Y356588D02*
X445633Y355521D01*
X445099D02*
X445633Y356054D01*
X446699Y358187D02*
X447232Y358720D01*
X448298D01*
X448832Y358187D01*
Y357654D01*
X448298Y357121D01*
X447765D01*
X448298D01*
X448832Y356588D01*
Y356054D01*
X448298Y355521D01*
X447232D01*
X446699Y356054D01*
X449898Y354988D02*
X452031D01*
X455230Y358720D02*
X453097D01*
Y355521D01*
X455230D01*
X453097Y357121D02*
X454163D01*
X458428Y358187D02*
X457895Y358720D01*
X456829D01*
X456296Y358187D01*
Y357654D01*
X456829Y357121D01*
X457895D01*
X458428Y356588D01*
Y356054D01*
X457895Y355521D01*
X456829D01*
X456296Y356054D01*
X461627Y358187D02*
X461094Y358720D01*
X460028D01*
X459495Y358187D01*
Y356054D01*
X460028Y355521D01*
X461094D01*
X461627Y356054D01*
X464826Y358720D02*
X463760Y358187D01*
X462694Y357121D01*
Y356054D01*
X463227Y355521D01*
X464293D01*
X464826Y356054D01*
Y356588D01*
X464293Y357121D01*
X462694D01*
X317367Y321388D02*
Y319255D01*
X317900Y318722D01*
X318967D01*
X319500Y319255D01*
Y321388D01*
X318967Y321921D01*
X317900D01*
X318434Y320855D02*
X317367Y321921D01*
X317900D02*
X317367Y321388D01*
X316301Y319255D02*
X315768Y318722D01*
X314702D01*
X314168Y319255D01*
Y319789D01*
X314702Y320322D01*
X315235D01*
X314702D01*
X314168Y320855D01*
Y321388D01*
X314702Y321921D01*
X315768D01*
X316301Y321388D01*
X313102Y322454D02*
X310969D01*
X307770Y318722D02*
X309903D01*
Y321921D01*
X307770D01*
X309903Y320322D02*
X308837D01*
X304572Y319255D02*
X305105Y318722D01*
X306171D01*
X306704Y319255D01*
Y319789D01*
X306171Y320322D01*
X305105D01*
X304572Y320855D01*
Y321388D01*
X305105Y321921D01*
X306171D01*
X306704Y321388D01*
X301373Y319255D02*
X301906Y318722D01*
X302972D01*
X303505Y319255D01*
Y321388D01*
X302972Y321921D01*
X301906D01*
X301373Y321388D01*
X298173Y318722D02*
X300306D01*
Y320322D01*
X299240Y319789D01*
X298707D01*
X298173Y320322D01*
Y321388D01*
X298707Y321921D01*
X299773D01*
X300306Y321388D01*
X203224Y251270D02*
Y253403D01*
X202691Y253936D01*
X201624D01*
X201091Y253403D01*
Y251270D01*
X201624Y250737D01*
X202691D01*
X202158Y251803D02*
X203224Y250737D01*
X202691D02*
X203224Y251270D01*
X204290Y253403D02*
X204823Y253936D01*
X205890D01*
X206423Y253403D01*
Y252870D01*
X205890Y252337D01*
X205357D01*
X205890D01*
X206423Y251803D01*
Y251270D01*
X205890Y250737D01*
X204823D01*
X204290Y251270D01*
X207489Y250204D02*
X209622D01*
X212821Y253936D02*
X210688D01*
Y250737D01*
X212821D01*
X210688Y252337D02*
X211755D01*
X216020Y253403D02*
X215487Y253936D01*
X214420D01*
X213887Y253403D01*
Y252870D01*
X214420Y252337D01*
X215487D01*
X216020Y251803D01*
Y251270D01*
X215487Y250737D01*
X214420D01*
X213887Y251270D01*
X219219Y253403D02*
X218686Y253936D01*
X217619D01*
X217086Y253403D01*
Y251270D01*
X217619Y250737D01*
X218686D01*
X219219Y251270D01*
X221885Y250737D02*
Y253936D01*
X220285Y252337D01*
X222418D01*
X345224Y251270D02*
Y253403D01*
X344691Y253936D01*
X343624D01*
X343091Y253403D01*
Y251270D01*
X343624Y250737D01*
X344691D01*
X344158Y251803D02*
X345224Y250737D01*
X344691D02*
X345224Y251270D01*
X346290Y253403D02*
X346824Y253936D01*
X347890D01*
X348423Y253403D01*
Y252870D01*
X347890Y252337D01*
X347357D01*
X347890D01*
X348423Y251803D01*
Y251270D01*
X347890Y250737D01*
X346824D01*
X346290Y251270D01*
X349489Y250204D02*
X351622D01*
X354821Y253936D02*
X352688D01*
Y250737D01*
X354821D01*
X352688Y252337D02*
X353755D01*
X358020Y253403D02*
X357487Y253936D01*
X356420D01*
X355887Y253403D01*
Y252870D01*
X356420Y252337D01*
X357487D01*
X358020Y251803D01*
Y251270D01*
X357487Y250737D01*
X356420D01*
X355887Y251270D01*
X361219Y253403D02*
X360686Y253936D01*
X359619D01*
X359086Y253403D01*
Y251270D01*
X359619Y250737D01*
X360686D01*
X361219Y251270D01*
X362285Y253403D02*
X362818Y253936D01*
X363885D01*
X364418Y253403D01*
Y252870D01*
X363885Y252337D01*
X363351D01*
X363885D01*
X364418Y251803D01*
Y251270D01*
X363885Y250737D01*
X362818D01*
X362285Y251270D01*
X487224D02*
Y253403D01*
X486691Y253936D01*
X485625D01*
X485091Y253403D01*
Y251270D01*
X485625Y250737D01*
X486691D01*
X486158Y251803D02*
X487224Y250737D01*
X486691D02*
X487224Y251270D01*
X488290Y253403D02*
X488824Y253936D01*
X489890D01*
X490423Y253403D01*
Y252870D01*
X489890Y252337D01*
X489357D01*
X489890D01*
X490423Y251803D01*
Y251270D01*
X489890Y250737D01*
X488824D01*
X488290Y251270D01*
X491489Y250204D02*
X493622D01*
X496821Y253936D02*
X494688D01*
Y250737D01*
X496821D01*
X494688Y252337D02*
X495755D01*
X500020Y253403D02*
X499487Y253936D01*
X498420D01*
X497887Y253403D01*
Y252870D01*
X498420Y252337D01*
X499487D01*
X500020Y251803D01*
Y251270D01*
X499487Y250737D01*
X498420D01*
X497887Y251270D01*
X503219Y253403D02*
X502686Y253936D01*
X501619D01*
X501086Y253403D01*
Y251270D01*
X501619Y250737D01*
X502686D01*
X503219Y251270D01*
X506418Y250737D02*
X504285D01*
X506418Y252870D01*
Y253403D01*
X505885Y253936D01*
X504818D01*
X504285Y253403D01*
X629224Y251270D02*
Y253403D01*
X628691Y253936D01*
X627625D01*
X627091Y253403D01*
Y251270D01*
X627625Y250737D01*
X628691D01*
X628158Y251803D02*
X629224Y250737D01*
X628691D02*
X629224Y251270D01*
X630290Y253403D02*
X630824Y253936D01*
X631890D01*
X632423Y253403D01*
Y252870D01*
X631890Y252337D01*
X631357D01*
X631890D01*
X632423Y251803D01*
Y251270D01*
X631890Y250737D01*
X630824D01*
X630290Y251270D01*
X633489Y250204D02*
X635622D01*
X638821Y253936D02*
X636688D01*
Y250737D01*
X638821D01*
X636688Y252337D02*
X637755D01*
X642020Y253403D02*
X641487Y253936D01*
X640420D01*
X639887Y253403D01*
Y252870D01*
X640420Y252337D01*
X641487D01*
X642020Y251803D01*
Y251270D01*
X641487Y250737D01*
X640420D01*
X639887Y251270D01*
X645219Y253403D02*
X644686Y253936D01*
X643619D01*
X643086Y253403D01*
Y251270D01*
X643619Y250737D01*
X644686D01*
X645219Y251270D01*
X646285Y250737D02*
X647352D01*
X646818D01*
Y253936D01*
X646285Y253403D01*
X769533Y223333D02*
Y225466D01*
X768999Y225999D01*
X767933D01*
X767400Y225466D01*
Y223333D01*
X767933Y222800D01*
X768999D01*
X768466Y223866D02*
X769533Y222800D01*
X768999D02*
X769533Y223333D01*
X772732Y222800D02*
X770599D01*
X772732Y224933D01*
Y225466D01*
X772198Y225999D01*
X771132D01*
X770599Y225466D01*
X769533Y407833D02*
Y409966D01*
X768999Y410499D01*
X767933D01*
X767400Y409966D01*
Y407833D01*
X767933Y407300D01*
X768999D01*
X768466Y408366D02*
X769533Y407300D01*
X768999D02*
X769533Y407833D01*
X770599Y407300D02*
X771665D01*
X771132D01*
Y410499D01*
X770599Y409966D01*
X728094Y400000D02*
Y396801D01*
X726495D01*
X725962Y397334D01*
Y398400D01*
X726495Y398934D01*
X728094D01*
X722763Y396801D02*
X723829Y397334D01*
X724895Y398400D01*
Y399467D01*
X724362Y400000D01*
X723296D01*
X722763Y399467D01*
Y398934D01*
X723296Y398400D01*
X724895D01*
X721697Y400533D02*
X719564D01*
X716365Y396801D02*
X718498D01*
Y400000D01*
X716365D01*
X718498Y398400D02*
X717431D01*
X713166Y397334D02*
X713699Y396801D01*
X714766D01*
X715299Y397334D01*
Y397867D01*
X714766Y398400D01*
X713699D01*
X713166Y398934D01*
Y399467D01*
X713699Y400000D01*
X714766D01*
X715299Y399467D01*
X709967Y397334D02*
X710500Y396801D01*
X711566D01*
X712100Y397334D01*
Y399467D01*
X711566Y400000D01*
X710500D01*
X709967Y399467D01*
X708901Y397334D02*
X708367Y396801D01*
X707301D01*
X706768Y397334D01*
Y397867D01*
X707301Y398400D01*
X706768Y398934D01*
Y399467D01*
X707301Y400000D01*
X708367D01*
X708901Y399467D01*
Y398934D01*
X708367Y398400D01*
X708901Y397867D01*
Y397334D01*
X708367Y398400D02*
X707301D01*
X586095Y400000D02*
Y396801D01*
X584495D01*
X583962Y397334D01*
Y398400D01*
X584495Y398934D01*
X586095D01*
X580763Y396801D02*
X581829Y397334D01*
X582896Y398400D01*
Y399467D01*
X582362Y400000D01*
X581296D01*
X580763Y399467D01*
Y398934D01*
X581296Y398400D01*
X582896D01*
X579697Y400533D02*
X577564D01*
X574365Y396801D02*
X576498D01*
Y400000D01*
X574365D01*
X576498Y398400D02*
X575431D01*
X571166Y397334D02*
X571699Y396801D01*
X572765D01*
X573299Y397334D01*
Y397867D01*
X572765Y398400D01*
X571699D01*
X571166Y398934D01*
Y399467D01*
X571699Y400000D01*
X572765D01*
X573299Y399467D01*
X567967Y397334D02*
X568500Y396801D01*
X569566D01*
X570100Y397334D01*
Y399467D01*
X569566Y400000D01*
X568500D01*
X567967Y399467D01*
X566901Y396801D02*
X564768D01*
Y397334D01*
X566901Y399467D01*
Y400000D01*
X444095D02*
Y396801D01*
X442495D01*
X441962Y397334D01*
Y398400D01*
X442495Y398934D01*
X444095D01*
X438763Y396801D02*
X439829Y397334D01*
X440896Y398400D01*
Y399467D01*
X440362Y400000D01*
X439296D01*
X438763Y399467D01*
Y398934D01*
X439296Y398400D01*
X440896D01*
X437697Y400533D02*
X435564D01*
X432365Y396801D02*
X434498D01*
Y400000D01*
X432365D01*
X434498Y398400D02*
X433431D01*
X429166Y397334D02*
X429699Y396801D01*
X430765D01*
X431299Y397334D01*
Y397867D01*
X430765Y398400D01*
X429699D01*
X429166Y398934D01*
Y399467D01*
X429699Y400000D01*
X430765D01*
X431299Y399467D01*
X425967Y397334D02*
X426500Y396801D01*
X427566D01*
X428100Y397334D01*
Y399467D01*
X427566Y400000D01*
X426500D01*
X425967Y399467D01*
X422768Y396801D02*
X423834Y397334D01*
X424901Y398400D01*
Y399467D01*
X424368Y400000D01*
X423301D01*
X422768Y399467D01*
Y398934D01*
X423301Y398400D01*
X424901D01*
X302095Y400000D02*
Y396801D01*
X300495D01*
X299962Y397334D01*
Y398400D01*
X300495Y398934D01*
X302095D01*
X296763Y396801D02*
X297829Y397334D01*
X298896Y398400D01*
Y399467D01*
X298362Y400000D01*
X297296D01*
X296763Y399467D01*
Y398934D01*
X297296Y398400D01*
X298896D01*
X295697Y400533D02*
X293564D01*
X290365Y396801D02*
X292498D01*
Y400000D01*
X290365D01*
X292498Y398400D02*
X291431D01*
X287166Y397334D02*
X287699Y396801D01*
X288766D01*
X289299Y397334D01*
Y397867D01*
X288766Y398400D01*
X287699D01*
X287166Y398934D01*
Y399467D01*
X287699Y400000D01*
X288766D01*
X289299Y399467D01*
X283967Y397334D02*
X284500Y396801D01*
X285566D01*
X286100Y397334D01*
Y399467D01*
X285566Y400000D01*
X284500D01*
X283967Y399467D01*
X280768Y396801D02*
X282901D01*
Y398400D01*
X281834Y397867D01*
X281301D01*
X280768Y398400D01*
Y399467D01*
X281301Y400000D01*
X282367D01*
X282901Y399467D01*
X217905Y171921D02*
Y175120D01*
X219505D01*
X220038Y174587D01*
Y173521D01*
X219505Y172988D01*
X217905D01*
X223237Y175120D02*
X222171Y174587D01*
X221105Y173521D01*
Y172454D01*
X221638Y171921D01*
X222704D01*
X223237Y172454D01*
Y172988D01*
X222704Y173521D01*
X221105D01*
X224303Y171388D02*
X226436D01*
X229635Y175120D02*
X227502D01*
Y171921D01*
X229635D01*
X227502Y173521D02*
X228569D01*
X232834Y174587D02*
X232301Y175120D01*
X231235D01*
X230701Y174587D01*
Y174054D01*
X231235Y173521D01*
X232301D01*
X232834Y172988D01*
Y172454D01*
X232301Y171921D01*
X231235D01*
X230701Y172454D01*
X236033Y174587D02*
X235500Y175120D01*
X234434D01*
X233900Y174587D01*
Y172454D01*
X234434Y171921D01*
X235500D01*
X236033Y172454D01*
X238699Y171921D02*
Y175120D01*
X237099Y173521D01*
X239232D01*
X359906Y171921D02*
Y175120D01*
X361505D01*
X362038Y174587D01*
Y173521D01*
X361505Y172988D01*
X359906D01*
X365237Y175120D02*
X364171Y174587D01*
X363105Y173521D01*
Y172454D01*
X363638Y171921D01*
X364704D01*
X365237Y172454D01*
Y172988D01*
X364704Y173521D01*
X363105D01*
X366303Y171388D02*
X368436D01*
X371635Y175120D02*
X369502D01*
Y171921D01*
X371635D01*
X369502Y173521D02*
X370569D01*
X374834Y174587D02*
X374301Y175120D01*
X373235D01*
X372701Y174587D01*
Y174054D01*
X373235Y173521D01*
X374301D01*
X374834Y172988D01*
Y172454D01*
X374301Y171921D01*
X373235D01*
X372701Y172454D01*
X378033Y174587D02*
X377500Y175120D01*
X376433D01*
X375900Y174587D01*
Y172454D01*
X376433Y171921D01*
X377500D01*
X378033Y172454D01*
X379099Y174587D02*
X379632Y175120D01*
X380699D01*
X381232Y174587D01*
Y174054D01*
X380699Y173521D01*
X380166D01*
X380699D01*
X381232Y172988D01*
Y172454D01*
X380699Y171921D01*
X379632D01*
X379099Y172454D01*
X501905Y171921D02*
Y175120D01*
X503505D01*
X504038Y174587D01*
Y173521D01*
X503505Y172988D01*
X501905D01*
X507237Y175120D02*
X506171Y174587D01*
X505104Y173521D01*
Y172454D01*
X505638Y171921D01*
X506704D01*
X507237Y172454D01*
Y172988D01*
X506704Y173521D01*
X505104D01*
X508303Y171388D02*
X510436D01*
X513635Y175120D02*
X511502D01*
Y171921D01*
X513635D01*
X511502Y173521D02*
X512569D01*
X516834Y174587D02*
X516301Y175120D01*
X515235D01*
X514701Y174587D01*
Y174054D01*
X515235Y173521D01*
X516301D01*
X516834Y172988D01*
Y172454D01*
X516301Y171921D01*
X515235D01*
X514701Y172454D01*
X520033Y174587D02*
X519500Y175120D01*
X518434D01*
X517900Y174587D01*
Y172454D01*
X518434Y171921D01*
X519500D01*
X520033Y172454D01*
X523232Y171921D02*
X521099D01*
X523232Y174054D01*
Y174587D01*
X522699Y175120D01*
X521632D01*
X521099Y174587D01*
X643905Y171921D02*
Y175120D01*
X645505D01*
X646038Y174587D01*
Y173521D01*
X645505Y172988D01*
X643905D01*
X649237Y175120D02*
X648171Y174587D01*
X647105Y173521D01*
Y172454D01*
X647638Y171921D01*
X648704D01*
X649237Y172454D01*
Y172988D01*
X648704Y173521D01*
X647105D01*
X650303Y171388D02*
X652436D01*
X655635Y175120D02*
X653502D01*
Y171921D01*
X655635D01*
X653502Y173521D02*
X654569D01*
X658834Y174587D02*
X658301Y175120D01*
X657234D01*
X656701Y174587D01*
Y174054D01*
X657234Y173521D01*
X658301D01*
X658834Y172988D01*
Y172454D01*
X658301Y171921D01*
X657234D01*
X656701Y172454D01*
X662033Y174587D02*
X661500Y175120D01*
X660433D01*
X659900Y174587D01*
Y172454D01*
X660433Y171921D01*
X661500D01*
X662033Y172454D01*
X663099Y171921D02*
X664166D01*
X663632D01*
Y175120D01*
X663099Y174587D01*
X171700Y314000D02*
Y317199D01*
X173300D01*
X173833Y316666D01*
Y315599D01*
X173300Y315066D01*
X171700D01*
X177032Y317199D02*
X174899D01*
Y315599D01*
X175965Y316133D01*
X176498D01*
X177032Y315599D01*
Y314533D01*
X176498Y314000D01*
X175432D01*
X174899Y314533D01*
X727200Y300000D02*
Y303199D01*
X728799D01*
X729333Y302666D01*
Y301600D01*
X728799Y301066D01*
X727200D01*
X730399Y302666D02*
X730932Y303199D01*
X731998D01*
X732532Y302666D01*
Y302133D01*
X731998Y301600D01*
X731465D01*
X731998D01*
X732532Y301066D01*
Y300533D01*
X731998Y300000D01*
X730932D01*
X730399Y300533D01*
X823500Y277500D02*
Y280699D01*
X825099D01*
X825633Y280166D01*
Y279099D01*
X825099Y278566D01*
X823500D01*
X828832Y277500D02*
X826699D01*
X828832Y279633D01*
Y280166D01*
X828298Y280699D01*
X827232D01*
X826699Y280166D01*
X825000Y462500D02*
Y465699D01*
X826600D01*
X827133Y465166D01*
Y464100D01*
X826600Y463566D01*
X825000D01*
X828199Y462500D02*
X829265D01*
X828732D01*
Y465699D01*
X828199Y465166D01*
X709462Y339301D02*
X710528D01*
X709995D01*
Y341967D01*
X710528Y342500D01*
X711061D01*
X711594Y341967D01*
X708395Y339834D02*
X707862Y339301D01*
X706796D01*
X706263Y339834D01*
Y340367D01*
X706796Y340900D01*
X706263Y341434D01*
Y341967D01*
X706796Y342500D01*
X707862D01*
X708395Y341967D01*
Y341434D01*
X707862Y340900D01*
X708395Y340367D01*
Y339834D01*
X707862Y340900D02*
X706796D01*
X705197Y343033D02*
X703064D01*
X699865Y339301D02*
X701998D01*
Y342500D01*
X699865D01*
X701998Y340900D02*
X700931D01*
X696666Y339834D02*
X697199Y339301D01*
X698266D01*
X698799Y339834D01*
Y340367D01*
X698266Y340900D01*
X697199D01*
X696666Y341434D01*
Y341967D01*
X697199Y342500D01*
X698266D01*
X698799Y341967D01*
X693467Y339834D02*
X694000Y339301D01*
X695066D01*
X695600Y339834D01*
Y341967D01*
X695066Y342500D01*
X694000D01*
X693467Y341967D01*
X692401Y339834D02*
X691867Y339301D01*
X690801D01*
X690268Y339834D01*
Y340367D01*
X690801Y340900D01*
X690268Y341434D01*
Y341967D01*
X690801Y342500D01*
X691867D01*
X692401Y341967D01*
Y341434D01*
X691867Y340900D01*
X692401Y340367D01*
Y339834D01*
X691867Y340900D02*
X690801D01*
X567462Y339301D02*
X568528D01*
X567995D01*
Y341967D01*
X568528Y342500D01*
X569061D01*
X569594Y341967D01*
X566396Y339834D02*
X565862Y339301D01*
X564796D01*
X564263Y339834D01*
Y340367D01*
X564796Y340900D01*
X564263Y341434D01*
Y341967D01*
X564796Y342500D01*
X565862D01*
X566396Y341967D01*
Y341434D01*
X565862Y340900D01*
X566396Y340367D01*
Y339834D01*
X565862Y340900D02*
X564796D01*
X563197Y343033D02*
X561064D01*
X557865Y339301D02*
X559998D01*
Y342500D01*
X557865D01*
X559998Y340900D02*
X558931D01*
X554666Y339834D02*
X555199Y339301D01*
X556265D01*
X556799Y339834D01*
Y340367D01*
X556265Y340900D01*
X555199D01*
X554666Y341434D01*
Y341967D01*
X555199Y342500D01*
X556265D01*
X556799Y341967D01*
X551467Y339834D02*
X552000Y339301D01*
X553066D01*
X553600Y339834D01*
Y341967D01*
X553066Y342500D01*
X552000D01*
X551467Y341967D01*
X550401Y339301D02*
X548268D01*
Y339834D01*
X550401Y341967D01*
Y342500D01*
X425462Y339301D02*
X426528D01*
X425995D01*
Y341967D01*
X426528Y342500D01*
X427061D01*
X427595Y341967D01*
X424396Y339834D02*
X423862Y339301D01*
X422796D01*
X422263Y339834D01*
Y340367D01*
X422796Y340900D01*
X422263Y341434D01*
Y341967D01*
X422796Y342500D01*
X423862D01*
X424396Y341967D01*
Y341434D01*
X423862Y340900D01*
X424396Y340367D01*
Y339834D01*
X423862Y340900D02*
X422796D01*
X421197Y343033D02*
X419064D01*
X415865Y339301D02*
X417998D01*
Y342500D01*
X415865D01*
X417998Y340900D02*
X416931D01*
X412666Y339834D02*
X413199Y339301D01*
X414265D01*
X414799Y339834D01*
Y340367D01*
X414265Y340900D01*
X413199D01*
X412666Y341434D01*
Y341967D01*
X413199Y342500D01*
X414265D01*
X414799Y341967D01*
X409467Y339834D02*
X410000Y339301D01*
X411066D01*
X411600Y339834D01*
Y341967D01*
X411066Y342500D01*
X410000D01*
X409467Y341967D01*
X406268Y339301D02*
X407334Y339834D01*
X408401Y340900D01*
Y341967D01*
X407867Y342500D01*
X406801D01*
X406268Y341967D01*
Y341434D01*
X406801Y340900D01*
X408401D01*
X283462Y339301D02*
X284528D01*
X283995D01*
Y341967D01*
X284528Y342500D01*
X285061D01*
X285595Y341967D01*
X282396Y339834D02*
X281862Y339301D01*
X280796D01*
X280263Y339834D01*
Y340367D01*
X280796Y340900D01*
X280263Y341434D01*
Y341967D01*
X280796Y342500D01*
X281862D01*
X282396Y341967D01*
Y341434D01*
X281862Y340900D01*
X282396Y340367D01*
Y339834D01*
X281862Y340900D02*
X280796D01*
X279197Y343033D02*
X277064D01*
X273865Y339301D02*
X275998D01*
Y342500D01*
X273865D01*
X275998Y340900D02*
X274931D01*
X270666Y339834D02*
X271199Y339301D01*
X272266D01*
X272799Y339834D01*
Y340367D01*
X272266Y340900D01*
X271199D01*
X270666Y341434D01*
Y341967D01*
X271199Y342500D01*
X272266D01*
X272799Y341967D01*
X267467Y339834D02*
X268000Y339301D01*
X269067D01*
X269600Y339834D01*
Y341967D01*
X269067Y342500D01*
X268000D01*
X267467Y341967D01*
X264268Y339301D02*
X266401D01*
Y340900D01*
X265334Y340367D01*
X264801D01*
X264268Y340900D01*
Y341967D01*
X264801Y342500D01*
X265867D01*
X266401Y341967D01*
X236538Y232620D02*
X235472D01*
X236005D01*
Y229954D01*
X235472Y229421D01*
X234939D01*
X234405Y229954D01*
X237604Y232087D02*
X238138Y232620D01*
X239204D01*
X239737Y232087D01*
Y231554D01*
X239204Y231021D01*
X239737Y230488D01*
Y229954D01*
X239204Y229421D01*
X238138D01*
X237604Y229954D01*
Y230488D01*
X238138Y231021D01*
X237604Y231554D01*
Y232087D01*
X238138Y231021D02*
X239204D01*
X240803Y228888D02*
X242936D01*
X246135Y232620D02*
X244002D01*
Y229421D01*
X246135D01*
X244002Y231021D02*
X245069D01*
X249334Y232087D02*
X248801Y232620D01*
X247734D01*
X247201Y232087D01*
Y231554D01*
X247734Y231021D01*
X248801D01*
X249334Y230488D01*
Y229954D01*
X248801Y229421D01*
X247734D01*
X247201Y229954D01*
X252533Y232087D02*
X252000Y232620D01*
X250934D01*
X250400Y232087D01*
Y229954D01*
X250934Y229421D01*
X252000D01*
X252533Y229954D01*
X255199Y229421D02*
Y232620D01*
X253599Y231021D01*
X255732D01*
X378538Y232620D02*
X377472D01*
X378005D01*
Y229954D01*
X377472Y229421D01*
X376939D01*
X376406Y229954D01*
X379605Y232087D02*
X380138Y232620D01*
X381204D01*
X381737Y232087D01*
Y231554D01*
X381204Y231021D01*
X381737Y230488D01*
Y229954D01*
X381204Y229421D01*
X380138D01*
X379605Y229954D01*
Y230488D01*
X380138Y231021D01*
X379605Y231554D01*
Y232087D01*
X380138Y231021D02*
X381204D01*
X382803Y228888D02*
X384936D01*
X388135Y232620D02*
X386002D01*
Y229421D01*
X388135D01*
X386002Y231021D02*
X387069D01*
X391334Y232087D02*
X390801Y232620D01*
X389735D01*
X389201Y232087D01*
Y231554D01*
X389735Y231021D01*
X390801D01*
X391334Y230488D01*
Y229954D01*
X390801Y229421D01*
X389735D01*
X389201Y229954D01*
X394533Y232087D02*
X394000Y232620D01*
X392934D01*
X392400Y232087D01*
Y229954D01*
X392934Y229421D01*
X394000D01*
X394533Y229954D01*
X395599Y232087D02*
X396132Y232620D01*
X397199D01*
X397732Y232087D01*
Y231554D01*
X397199Y231021D01*
X396666D01*
X397199D01*
X397732Y230488D01*
Y229954D01*
X397199Y229421D01*
X396132D01*
X395599Y229954D01*
X520538Y232620D02*
X519472D01*
X520005D01*
Y229954D01*
X519472Y229421D01*
X518939D01*
X518405Y229954D01*
X521604Y232087D02*
X522138Y232620D01*
X523204D01*
X523737Y232087D01*
Y231554D01*
X523204Y231021D01*
X523737Y230488D01*
Y229954D01*
X523204Y229421D01*
X522138D01*
X521604Y229954D01*
Y230488D01*
X522138Y231021D01*
X521604Y231554D01*
Y232087D01*
X522138Y231021D02*
X523204D01*
X524803Y228888D02*
X526936D01*
X530135Y232620D02*
X528002D01*
Y229421D01*
X530135D01*
X528002Y231021D02*
X529069D01*
X533334Y232087D02*
X532801Y232620D01*
X531735D01*
X531201Y232087D01*
Y231554D01*
X531735Y231021D01*
X532801D01*
X533334Y230488D01*
Y229954D01*
X532801Y229421D01*
X531735D01*
X531201Y229954D01*
X536533Y232087D02*
X536000Y232620D01*
X534934D01*
X534400Y232087D01*
Y229954D01*
X534934Y229421D01*
X536000D01*
X536533Y229954D01*
X539732Y229421D02*
X537599D01*
X539732Y231554D01*
Y232087D01*
X539199Y232620D01*
X538132D01*
X537599Y232087D01*
X662538Y232620D02*
X661472D01*
X662005D01*
Y229954D01*
X661472Y229421D01*
X660939D01*
X660405Y229954D01*
X663604Y232087D02*
X664138Y232620D01*
X665204D01*
X665737Y232087D01*
Y231554D01*
X665204Y231021D01*
X665737Y230488D01*
Y229954D01*
X665204Y229421D01*
X664138D01*
X663604Y229954D01*
Y230488D01*
X664138Y231021D01*
X663604Y231554D01*
Y232087D01*
X664138Y231021D02*
X665204D01*
X666803Y228888D02*
X668936D01*
X672135Y232620D02*
X670002D01*
Y229421D01*
X672135D01*
X670002Y231021D02*
X671069D01*
X675334Y232087D02*
X674801Y232620D01*
X673735D01*
X673201Y232087D01*
Y231554D01*
X673735Y231021D01*
X674801D01*
X675334Y230488D01*
Y229954D01*
X674801Y229421D01*
X673735D01*
X673201Y229954D01*
X678533Y232087D02*
X678000Y232620D01*
X676933D01*
X676400Y232087D01*
Y229954D01*
X676933Y229421D01*
X678000D01*
X678533Y229954D01*
X679599Y229421D02*
X680666D01*
X680132D01*
Y232620D01*
X679599Y232087D01*
X709962Y356301D02*
X711028D01*
X710495D01*
Y358967D01*
X711028Y359500D01*
X711561D01*
X712094Y358967D01*
X708895Y356301D02*
X706763D01*
Y356834D01*
X708895Y358967D01*
Y359500D01*
X705697Y360033D02*
X703564D01*
X700365Y356301D02*
X702498D01*
Y359500D01*
X700365D01*
X702498Y357901D02*
X701431D01*
X697166Y356834D02*
X697699Y356301D01*
X698766D01*
X699299Y356834D01*
Y357367D01*
X698766Y357901D01*
X697699D01*
X697166Y358434D01*
Y358967D01*
X697699Y359500D01*
X698766D01*
X699299Y358967D01*
X693967Y356834D02*
X694500Y356301D01*
X695567D01*
X696100Y356834D01*
Y358967D01*
X695567Y359500D01*
X694500D01*
X693967Y358967D01*
X692901Y356834D02*
X692368Y356301D01*
X691301D01*
X690768Y356834D01*
Y357367D01*
X691301Y357901D01*
X690768Y358434D01*
Y358967D01*
X691301Y359500D01*
X692368D01*
X692901Y358967D01*
Y358434D01*
X692368Y357901D01*
X692901Y357367D01*
Y356834D01*
X692368Y357901D02*
X691301D01*
X567962Y356301D02*
X569028D01*
X568495D01*
Y358967D01*
X569028Y359500D01*
X569561D01*
X570094Y358967D01*
X566895Y356301D02*
X564763D01*
Y356834D01*
X566895Y358967D01*
Y359500D01*
X563697Y360033D02*
X561564D01*
X558365Y356301D02*
X560498D01*
Y359500D01*
X558365D01*
X560498Y357901D02*
X559431D01*
X555166Y356834D02*
X555699Y356301D01*
X556766D01*
X557299Y356834D01*
Y357367D01*
X556766Y357901D01*
X555699D01*
X555166Y358434D01*
Y358967D01*
X555699Y359500D01*
X556766D01*
X557299Y358967D01*
X551967Y356834D02*
X552500Y356301D01*
X553567D01*
X554100Y356834D01*
Y358967D01*
X553567Y359500D01*
X552500D01*
X551967Y358967D01*
X550901Y356301D02*
X548768D01*
Y356834D01*
X550901Y358967D01*
Y359500D01*
X425962Y356301D02*
X427028D01*
X426495D01*
Y358967D01*
X427028Y359500D01*
X427561D01*
X428094Y358967D01*
X424895Y356301D02*
X422763D01*
Y356834D01*
X424895Y358967D01*
Y359500D01*
X421697Y360033D02*
X419564D01*
X416365Y356301D02*
X418498D01*
Y359500D01*
X416365D01*
X418498Y357901D02*
X417431D01*
X413166Y356834D02*
X413699Y356301D01*
X414766D01*
X415299Y356834D01*
Y357367D01*
X414766Y357901D01*
X413699D01*
X413166Y358434D01*
Y358967D01*
X413699Y359500D01*
X414766D01*
X415299Y358967D01*
X409967Y356834D02*
X410500Y356301D01*
X411566D01*
X412100Y356834D01*
Y358967D01*
X411566Y359500D01*
X410500D01*
X409967Y358967D01*
X406768Y356301D02*
X407834Y356834D01*
X408901Y357901D01*
Y358967D01*
X408367Y359500D01*
X407301D01*
X406768Y358967D01*
Y358434D01*
X407301Y357901D01*
X408901D01*
X283962Y356301D02*
X285028D01*
X284495D01*
Y358967D01*
X285028Y359500D01*
X285561D01*
X286094Y358967D01*
X282895Y356301D02*
X280763D01*
Y356834D01*
X282895Y358967D01*
Y359500D01*
X279697Y360033D02*
X277564D01*
X274365Y356301D02*
X276498D01*
Y359500D01*
X274365D01*
X276498Y357901D02*
X275431D01*
X271166Y356834D02*
X271699Y356301D01*
X272765D01*
X273299Y356834D01*
Y357367D01*
X272765Y357901D01*
X271699D01*
X271166Y358434D01*
Y358967D01*
X271699Y359500D01*
X272765D01*
X273299Y358967D01*
X267967Y356834D02*
X268500Y356301D01*
X269566D01*
X270100Y356834D01*
Y358967D01*
X269566Y359500D01*
X268500D01*
X267967Y358967D01*
X264768Y356301D02*
X266901D01*
Y357901D01*
X265834Y357367D01*
X265301D01*
X264768Y357901D01*
Y358967D01*
X265301Y359500D01*
X266368D01*
X266901Y358967D01*
X236038Y215620D02*
X234972D01*
X235505D01*
Y212954D01*
X234972Y212421D01*
X234439D01*
X233906Y212954D01*
X237105Y215620D02*
X239237D01*
Y215087D01*
X237105Y212954D01*
Y212421D01*
X240303Y211888D02*
X242436D01*
X245635Y215620D02*
X243502D01*
Y212421D01*
X245635D01*
X243502Y214021D02*
X244569D01*
X248834Y215087D02*
X248301Y215620D01*
X247235D01*
X246701Y215087D01*
Y214554D01*
X247235Y214021D01*
X248301D01*
X248834Y213488D01*
Y212954D01*
X248301Y212421D01*
X247235D01*
X246701Y212954D01*
X252033Y215087D02*
X251500Y215620D01*
X250433D01*
X249900Y215087D01*
Y212954D01*
X250433Y212421D01*
X251500D01*
X252033Y212954D01*
X254699Y212421D02*
Y215620D01*
X253099Y214021D01*
X255232D01*
X378038Y215620D02*
X376972D01*
X377505D01*
Y212954D01*
X376972Y212421D01*
X376439D01*
X375905Y212954D01*
X379104Y215620D02*
X381237D01*
Y215087D01*
X379104Y212954D01*
Y212421D01*
X382303Y211888D02*
X384436D01*
X387635Y215620D02*
X385502D01*
Y212421D01*
X387635D01*
X385502Y214021D02*
X386569D01*
X390834Y215087D02*
X390301Y215620D01*
X389234D01*
X388701Y215087D01*
Y214554D01*
X389234Y214021D01*
X390301D01*
X390834Y213488D01*
Y212954D01*
X390301Y212421D01*
X389234D01*
X388701Y212954D01*
X394033Y215087D02*
X393500Y215620D01*
X392434D01*
X391900Y215087D01*
Y212954D01*
X392434Y212421D01*
X393500D01*
X394033Y212954D01*
X395099Y215087D02*
X395633Y215620D01*
X396699D01*
X397232Y215087D01*
Y214554D01*
X396699Y214021D01*
X396166D01*
X396699D01*
X397232Y213488D01*
Y212954D01*
X396699Y212421D01*
X395633D01*
X395099Y212954D01*
X520038Y215620D02*
X518972D01*
X519505D01*
Y212954D01*
X518972Y212421D01*
X518439D01*
X517906Y212954D01*
X521104Y215620D02*
X523237D01*
Y215087D01*
X521104Y212954D01*
Y212421D01*
X524303Y211888D02*
X526436D01*
X529635Y215620D02*
X527502D01*
Y212421D01*
X529635D01*
X527502Y214021D02*
X528569D01*
X532834Y215087D02*
X532301Y215620D01*
X531235D01*
X530701Y215087D01*
Y214554D01*
X531235Y214021D01*
X532301D01*
X532834Y213488D01*
Y212954D01*
X532301Y212421D01*
X531235D01*
X530701Y212954D01*
X536033Y215087D02*
X535500Y215620D01*
X534434D01*
X533900Y215087D01*
Y212954D01*
X534434Y212421D01*
X535500D01*
X536033Y212954D01*
X539232Y212421D02*
X537099D01*
X539232Y214554D01*
Y215087D01*
X538699Y215620D01*
X537633D01*
X537099Y215087D01*
X662038Y215620D02*
X660972D01*
X661505D01*
Y212954D01*
X660972Y212421D01*
X660439D01*
X659905Y212954D01*
X663104Y215620D02*
X665237D01*
Y215087D01*
X663104Y212954D01*
Y212421D01*
X666303Y211888D02*
X668436D01*
X671635Y215620D02*
X669502D01*
Y212421D01*
X671635D01*
X669502Y214021D02*
X670569D01*
X674834Y215087D02*
X674301Y215620D01*
X673235D01*
X672701Y215087D01*
Y214554D01*
X673235Y214021D01*
X674301D01*
X674834Y213488D01*
Y212954D01*
X674301Y212421D01*
X673235D01*
X672701Y212954D01*
X678033Y215087D02*
X677500Y215620D01*
X676434D01*
X675900Y215087D01*
Y212954D01*
X676434Y212421D01*
X677500D01*
X678033Y212954D01*
X679099Y212421D02*
X680166D01*
X679633D01*
Y215620D01*
X679099Y215087D01*
X642367Y397301D02*
X643434D01*
X642901D01*
Y399967D01*
X643434Y400500D01*
X643967D01*
X644500Y399967D01*
X639168Y397301D02*
X640235Y397834D01*
X641301Y398901D01*
Y399967D01*
X640768Y400500D01*
X639702D01*
X639168Y399967D01*
Y399434D01*
X639702Y398901D01*
X641301D01*
X638102Y401033D02*
X635969D01*
X632770Y397301D02*
X634903D01*
Y400500D01*
X632770D01*
X634903Y398901D02*
X633837D01*
X629571Y397834D02*
X630105Y397301D01*
X631171D01*
X631704Y397834D01*
Y398367D01*
X631171Y398901D01*
X630105D01*
X629571Y399434D01*
Y399967D01*
X630105Y400500D01*
X631171D01*
X631704Y399967D01*
X626372Y397834D02*
X626906Y397301D01*
X627972D01*
X628505Y397834D01*
Y399967D01*
X627972Y400500D01*
X626906D01*
X626372Y399967D01*
X625306Y397834D02*
X624773Y397301D01*
X623707D01*
X623174Y397834D01*
Y398367D01*
X623707Y398901D01*
X623174Y399434D01*
Y399967D01*
X623707Y400500D01*
X624773D01*
X625306Y399967D01*
Y399434D01*
X624773Y398901D01*
X625306Y398367D01*
Y397834D01*
X624773Y398901D02*
X623707D01*
X500367Y397301D02*
X501434D01*
X500901D01*
Y399967D01*
X501434Y400500D01*
X501967D01*
X502500Y399967D01*
X497168Y397301D02*
X498235Y397834D01*
X499301Y398901D01*
Y399967D01*
X498768Y400500D01*
X497702D01*
X497168Y399967D01*
Y399434D01*
X497702Y398901D01*
X499301D01*
X496102Y401033D02*
X493969D01*
X490770Y397301D02*
X492903D01*
Y400500D01*
X490770D01*
X492903Y398901D02*
X491837D01*
X487571Y397834D02*
X488105Y397301D01*
X489171D01*
X489704Y397834D01*
Y398367D01*
X489171Y398901D01*
X488105D01*
X487571Y399434D01*
Y399967D01*
X488105Y400500D01*
X489171D01*
X489704Y399967D01*
X484373Y397834D02*
X484906Y397301D01*
X485972D01*
X486505Y397834D01*
Y399967D01*
X485972Y400500D01*
X484906D01*
X484373Y399967D01*
X483306Y397301D02*
X481174D01*
Y397834D01*
X483306Y399967D01*
Y400500D01*
X358367Y397301D02*
X359434D01*
X358900D01*
Y399967D01*
X359434Y400500D01*
X359967D01*
X360500Y399967D01*
X355168Y397301D02*
X356235Y397834D01*
X357301Y398901D01*
Y399967D01*
X356768Y400500D01*
X355701D01*
X355168Y399967D01*
Y399434D01*
X355701Y398901D01*
X357301D01*
X354102Y401033D02*
X351969D01*
X348770Y397301D02*
X350903D01*
Y400500D01*
X348770D01*
X350903Y398901D02*
X349837D01*
X345571Y397834D02*
X346105Y397301D01*
X347171D01*
X347704Y397834D01*
Y398367D01*
X347171Y398901D01*
X346105D01*
X345571Y399434D01*
Y399967D01*
X346105Y400500D01*
X347171D01*
X347704Y399967D01*
X342372Y397834D02*
X342906Y397301D01*
X343972D01*
X344505Y397834D01*
Y399967D01*
X343972Y400500D01*
X342906D01*
X342372Y399967D01*
X339174Y397301D02*
X340240Y397834D01*
X341306Y398901D01*
Y399967D01*
X340773Y400500D01*
X339707D01*
X339174Y399967D01*
Y399434D01*
X339707Y398901D01*
X341306D01*
X216367Y397301D02*
X217434D01*
X216900D01*
Y399967D01*
X217434Y400500D01*
X217967D01*
X218500Y399967D01*
X213168Y397301D02*
X214235Y397834D01*
X215301Y398901D01*
Y399967D01*
X214768Y400500D01*
X213702D01*
X213168Y399967D01*
Y399434D01*
X213702Y398901D01*
X215301D01*
X212102Y401033D02*
X209969D01*
X206770Y397301D02*
X208903D01*
Y400500D01*
X206770D01*
X208903Y398901D02*
X207837D01*
X203572Y397834D02*
X204105Y397301D01*
X205171D01*
X205704Y397834D01*
Y398367D01*
X205171Y398901D01*
X204105D01*
X203572Y399434D01*
Y399967D01*
X204105Y400500D01*
X205171D01*
X205704Y399967D01*
X200373Y397834D02*
X200906Y397301D01*
X201972D01*
X202505Y397834D01*
Y399967D01*
X201972Y400500D01*
X200906D01*
X200373Y399967D01*
X197174Y397301D02*
X199306D01*
Y398901D01*
X198240Y398367D01*
X197707D01*
X197174Y398901D01*
Y399967D01*
X197707Y400500D01*
X198773D01*
X199306Y399967D01*
X303633Y174620D02*
X302566D01*
X303099D01*
Y171954D01*
X302566Y171421D01*
X302033D01*
X301500Y171954D01*
X306832Y174620D02*
X305765Y174087D01*
X304699Y173021D01*
Y171954D01*
X305232Y171421D01*
X306298D01*
X306832Y171954D01*
Y172488D01*
X306298Y173021D01*
X304699D01*
X307898Y170888D02*
X310031D01*
X313230Y174620D02*
X311097D01*
Y171421D01*
X313230D01*
X311097Y173021D02*
X312163D01*
X316428Y174087D02*
X315895Y174620D01*
X314829D01*
X314296Y174087D01*
Y173554D01*
X314829Y173021D01*
X315895D01*
X316428Y172488D01*
Y171954D01*
X315895Y171421D01*
X314829D01*
X314296Y171954D01*
X319627Y174087D02*
X319094Y174620D01*
X318028D01*
X317495Y174087D01*
Y171954D01*
X318028Y171421D01*
X319094D01*
X319627Y171954D01*
X322293Y171421D02*
Y174620D01*
X320694Y173021D01*
X322827D01*
X445633Y174620D02*
X444566D01*
X445099D01*
Y171954D01*
X444566Y171421D01*
X444033D01*
X443500Y171954D01*
X448832Y174620D02*
X447765Y174087D01*
X446699Y173021D01*
Y171954D01*
X447232Y171421D01*
X448298D01*
X448832Y171954D01*
Y172488D01*
X448298Y173021D01*
X446699D01*
X449898Y170888D02*
X452031D01*
X455230Y174620D02*
X453097D01*
Y171421D01*
X455230D01*
X453097Y173021D02*
X454163D01*
X458428Y174087D02*
X457895Y174620D01*
X456829D01*
X456296Y174087D01*
Y173554D01*
X456829Y173021D01*
X457895D01*
X458428Y172488D01*
Y171954D01*
X457895Y171421D01*
X456829D01*
X456296Y171954D01*
X461627Y174087D02*
X461094Y174620D01*
X460028D01*
X459495Y174087D01*
Y171954D01*
X460028Y171421D01*
X461094D01*
X461627Y171954D01*
X462694Y174087D02*
X463227Y174620D01*
X464293D01*
X464826Y174087D01*
Y173554D01*
X464293Y173021D01*
X463760D01*
X464293D01*
X464826Y172488D01*
Y171954D01*
X464293Y171421D01*
X463227D01*
X462694Y171954D01*
X587633Y174620D02*
X586566D01*
X587100D01*
Y171954D01*
X586566Y171421D01*
X586033D01*
X585500Y171954D01*
X590832Y174620D02*
X589765Y174087D01*
X588699Y173021D01*
Y171954D01*
X589232Y171421D01*
X590298D01*
X590832Y171954D01*
Y172488D01*
X590298Y173021D01*
X588699D01*
X591898Y170888D02*
X594031D01*
X597230Y174620D02*
X595097D01*
Y171421D01*
X597230D01*
X595097Y173021D02*
X596163D01*
X600428Y174087D02*
X599895Y174620D01*
X598829D01*
X598296Y174087D01*
Y173554D01*
X598829Y173021D01*
X599895D01*
X600428Y172488D01*
Y171954D01*
X599895Y171421D01*
X598829D01*
X598296Y171954D01*
X603627Y174087D02*
X603094Y174620D01*
X602028D01*
X601495Y174087D01*
Y171954D01*
X602028Y171421D01*
X603094D01*
X603627Y171954D01*
X606826Y171421D02*
X604694D01*
X606826Y173554D01*
Y174087D01*
X606293Y174620D01*
X605227D01*
X604694Y174087D01*
X729633Y174620D02*
X728566D01*
X729100D01*
Y171954D01*
X728566Y171421D01*
X728033D01*
X727500Y171954D01*
X732832Y174620D02*
X731765Y174087D01*
X730699Y173021D01*
Y171954D01*
X731232Y171421D01*
X732298D01*
X732832Y171954D01*
Y172488D01*
X732298Y173021D01*
X730699D01*
X733898Y170888D02*
X736031D01*
X739230Y174620D02*
X737097D01*
Y171421D01*
X739230D01*
X737097Y173021D02*
X738163D01*
X742428Y174087D02*
X741895Y174620D01*
X740829D01*
X740296Y174087D01*
Y173554D01*
X740829Y173021D01*
X741895D01*
X742428Y172488D01*
Y171954D01*
X741895Y171421D01*
X740829D01*
X740296Y171954D01*
X745627Y174087D02*
X745094Y174620D01*
X744028D01*
X743495Y174087D01*
Y171954D01*
X744028Y171421D01*
X745094D01*
X745627Y171954D01*
X746694Y171421D02*
X747760D01*
X747227D01*
Y174620D01*
X746694Y174087D01*
X642367Y391801D02*
X643434D01*
X642901D01*
Y394467D01*
X643434Y395000D01*
X643967D01*
X644500Y394467D01*
X639168Y391801D02*
X641301D01*
Y393401D01*
X640235Y392867D01*
X639702D01*
X639168Y393401D01*
Y394467D01*
X639702Y395000D01*
X640768D01*
X641301Y394467D01*
X638102Y395533D02*
X635969D01*
X632770Y391801D02*
X634903D01*
Y395000D01*
X632770D01*
X634903Y393401D02*
X633837D01*
X629571Y392334D02*
X630105Y391801D01*
X631171D01*
X631704Y392334D01*
Y392867D01*
X631171Y393401D01*
X630105D01*
X629571Y393934D01*
Y394467D01*
X630105Y395000D01*
X631171D01*
X631704Y394467D01*
X626372Y392334D02*
X626906Y391801D01*
X627972D01*
X628505Y392334D01*
Y394467D01*
X627972Y395000D01*
X626906D01*
X626372Y394467D01*
X625306Y392334D02*
X624773Y391801D01*
X623707D01*
X623174Y392334D01*
Y392867D01*
X623707Y393401D01*
X623174Y393934D01*
Y394467D01*
X623707Y395000D01*
X624773D01*
X625306Y394467D01*
Y393934D01*
X624773Y393401D01*
X625306Y392867D01*
Y392334D01*
X624773Y393401D02*
X623707D01*
X500367Y391801D02*
X501434D01*
X500901D01*
Y394467D01*
X501434Y395000D01*
X501967D01*
X502500Y394467D01*
X497168Y391801D02*
X499301D01*
Y393401D01*
X498235Y392867D01*
X497702D01*
X497168Y393401D01*
Y394467D01*
X497702Y395000D01*
X498768D01*
X499301Y394467D01*
X496102Y395533D02*
X493969D01*
X490770Y391801D02*
X492903D01*
Y395000D01*
X490770D01*
X492903Y393401D02*
X491837D01*
X487571Y392334D02*
X488105Y391801D01*
X489171D01*
X489704Y392334D01*
Y392867D01*
X489171Y393401D01*
X488105D01*
X487571Y393934D01*
Y394467D01*
X488105Y395000D01*
X489171D01*
X489704Y394467D01*
X484373Y392334D02*
X484906Y391801D01*
X485972D01*
X486505Y392334D01*
Y394467D01*
X485972Y395000D01*
X484906D01*
X484373Y394467D01*
X483306Y391801D02*
X481174D01*
Y392334D01*
X483306Y394467D01*
Y395000D01*
X358367Y391801D02*
X359434D01*
X358900D01*
Y394467D01*
X359434Y395000D01*
X359967D01*
X360500Y394467D01*
X355168Y391801D02*
X357301D01*
Y393401D01*
X356235Y392867D01*
X355701D01*
X355168Y393401D01*
Y394467D01*
X355701Y395000D01*
X356768D01*
X357301Y394467D01*
X354102Y395533D02*
X351969D01*
X348770Y391801D02*
X350903D01*
Y395000D01*
X348770D01*
X350903Y393401D02*
X349837D01*
X345571Y392334D02*
X346105Y391801D01*
X347171D01*
X347704Y392334D01*
Y392867D01*
X347171Y393401D01*
X346105D01*
X345571Y393934D01*
Y394467D01*
X346105Y395000D01*
X347171D01*
X347704Y394467D01*
X342372Y392334D02*
X342906Y391801D01*
X343972D01*
X344505Y392334D01*
Y394467D01*
X343972Y395000D01*
X342906D01*
X342372Y394467D01*
X339174Y391801D02*
X340240Y392334D01*
X341306Y393401D01*
Y394467D01*
X340773Y395000D01*
X339707D01*
X339174Y394467D01*
Y393934D01*
X339707Y393401D01*
X341306D01*
X216367Y391801D02*
X217434D01*
X216900D01*
Y394467D01*
X217434Y395000D01*
X217967D01*
X218500Y394467D01*
X213168Y391801D02*
X215301D01*
Y393401D01*
X214235Y392867D01*
X213702D01*
X213168Y393401D01*
Y394467D01*
X213702Y395000D01*
X214768D01*
X215301Y394467D01*
X212102Y395533D02*
X209969D01*
X206770Y391801D02*
X208903D01*
Y395000D01*
X206770D01*
X208903Y393401D02*
X207837D01*
X203572Y392334D02*
X204105Y391801D01*
X205171D01*
X205704Y392334D01*
Y392867D01*
X205171Y393401D01*
X204105D01*
X203572Y393934D01*
Y394467D01*
X204105Y395000D01*
X205171D01*
X205704Y394467D01*
X200373Y392334D02*
X200906Y391801D01*
X201972D01*
X202505Y392334D01*
Y394467D01*
X201972Y395000D01*
X200906D01*
X200373Y394467D01*
X197174Y391801D02*
X199306D01*
Y393401D01*
X198240Y392867D01*
X197707D01*
X197174Y393401D01*
Y394467D01*
X197707Y395000D01*
X198773D01*
X199306Y394467D01*
X303633Y180120D02*
X302566D01*
X303099D01*
Y177454D01*
X302566Y176921D01*
X302033D01*
X301500Y177454D01*
X306832Y180120D02*
X304699D01*
Y178521D01*
X305765Y179054D01*
X306298D01*
X306832Y178521D01*
Y177454D01*
X306298Y176921D01*
X305232D01*
X304699Y177454D01*
X307898Y176388D02*
X310031D01*
X313230Y180120D02*
X311097D01*
Y176921D01*
X313230D01*
X311097Y178521D02*
X312163D01*
X316428Y179587D02*
X315895Y180120D01*
X314829D01*
X314296Y179587D01*
Y179054D01*
X314829Y178521D01*
X315895D01*
X316428Y177988D01*
Y177454D01*
X315895Y176921D01*
X314829D01*
X314296Y177454D01*
X319627Y179587D02*
X319094Y180120D01*
X318028D01*
X317495Y179587D01*
Y177454D01*
X318028Y176921D01*
X319094D01*
X319627Y177454D01*
X322293Y176921D02*
Y180120D01*
X320694Y178521D01*
X322827D01*
X445633Y180120D02*
X444566D01*
X445099D01*
Y177454D01*
X444566Y176921D01*
X444033D01*
X443500Y177454D01*
X448832Y180120D02*
X446699D01*
Y178521D01*
X447765Y179054D01*
X448298D01*
X448832Y178521D01*
Y177454D01*
X448298Y176921D01*
X447232D01*
X446699Y177454D01*
X449898Y176388D02*
X452031D01*
X455230Y180120D02*
X453097D01*
Y176921D01*
X455230D01*
X453097Y178521D02*
X454163D01*
X458428Y179587D02*
X457895Y180120D01*
X456829D01*
X456296Y179587D01*
Y179054D01*
X456829Y178521D01*
X457895D01*
X458428Y177988D01*
Y177454D01*
X457895Y176921D01*
X456829D01*
X456296Y177454D01*
X461627Y179587D02*
X461094Y180120D01*
X460028D01*
X459495Y179587D01*
Y177454D01*
X460028Y176921D01*
X461094D01*
X461627Y177454D01*
X462694Y179587D02*
X463227Y180120D01*
X464293D01*
X464826Y179587D01*
Y179054D01*
X464293Y178521D01*
X463760D01*
X464293D01*
X464826Y177988D01*
Y177454D01*
X464293Y176921D01*
X463227D01*
X462694Y177454D01*
X587633Y180120D02*
X586566D01*
X587100D01*
Y177454D01*
X586566Y176921D01*
X586033D01*
X585500Y177454D01*
X590832Y180120D02*
X588699D01*
Y178521D01*
X589765Y179054D01*
X590298D01*
X590832Y178521D01*
Y177454D01*
X590298Y176921D01*
X589232D01*
X588699Y177454D01*
X591898Y176388D02*
X594031D01*
X597230Y180120D02*
X595097D01*
Y176921D01*
X597230D01*
X595097Y178521D02*
X596163D01*
X600428Y179587D02*
X599895Y180120D01*
X598829D01*
X598296Y179587D01*
Y179054D01*
X598829Y178521D01*
X599895D01*
X600428Y177988D01*
Y177454D01*
X599895Y176921D01*
X598829D01*
X598296Y177454D01*
X603627Y179587D02*
X603094Y180120D01*
X602028D01*
X601495Y179587D01*
Y177454D01*
X602028Y176921D01*
X603094D01*
X603627Y177454D01*
X606826Y176921D02*
X604694D01*
X606826Y179054D01*
Y179587D01*
X606293Y180120D01*
X605227D01*
X604694Y179587D01*
X729633Y180120D02*
X728566D01*
X729100D01*
Y177454D01*
X728566Y176921D01*
X728033D01*
X727500Y177454D01*
X732832Y180120D02*
X730699D01*
Y178521D01*
X731765Y179054D01*
X732298D01*
X732832Y178521D01*
Y177454D01*
X732298Y176921D01*
X731232D01*
X730699Y177454D01*
X733898Y176388D02*
X736031D01*
X739230Y180120D02*
X737097D01*
Y176921D01*
X739230D01*
X737097Y178521D02*
X738163D01*
X742428Y179587D02*
X741895Y180120D01*
X740829D01*
X740296Y179587D01*
Y179054D01*
X740829Y178521D01*
X741895D01*
X742428Y177988D01*
Y177454D01*
X741895Y176921D01*
X740829D01*
X740296Y177454D01*
X745627Y179587D02*
X745094Y180120D01*
X744028D01*
X743495Y179587D01*
Y177454D01*
X744028Y176921D01*
X745094D01*
X745627Y177454D01*
X746694Y176921D02*
X747760D01*
X747227D01*
Y180120D01*
X746694Y179587D01*
X642367Y402801D02*
X643434D01*
X642901D01*
Y405467D01*
X643434Y406000D01*
X643967D01*
X644500Y405467D01*
X639702Y406000D02*
Y402801D01*
X641301Y404400D01*
X639168D01*
X638102Y406533D02*
X635969D01*
X632770Y402801D02*
X634903D01*
Y406000D01*
X632770D01*
X634903Y404400D02*
X633837D01*
X629571Y403334D02*
X630105Y402801D01*
X631171D01*
X631704Y403334D01*
Y403867D01*
X631171Y404400D01*
X630105D01*
X629571Y404934D01*
Y405467D01*
X630105Y406000D01*
X631171D01*
X631704Y405467D01*
X626372Y403334D02*
X626906Y402801D01*
X627972D01*
X628505Y403334D01*
Y405467D01*
X627972Y406000D01*
X626906D01*
X626372Y405467D01*
X625306Y403334D02*
X624773Y402801D01*
X623707D01*
X623174Y403334D01*
Y403867D01*
X623707Y404400D01*
X623174Y404934D01*
Y405467D01*
X623707Y406000D01*
X624773D01*
X625306Y405467D01*
Y404934D01*
X624773Y404400D01*
X625306Y403867D01*
Y403334D01*
X624773Y404400D02*
X623707D01*
X500367Y402801D02*
X501434D01*
X500901D01*
Y405467D01*
X501434Y406000D01*
X501967D01*
X502500Y405467D01*
X497702Y406000D02*
Y402801D01*
X499301Y404400D01*
X497168D01*
X496102Y406533D02*
X493969D01*
X490770Y402801D02*
X492903D01*
Y406000D01*
X490770D01*
X492903Y404400D02*
X491837D01*
X487571Y403334D02*
X488105Y402801D01*
X489171D01*
X489704Y403334D01*
Y403867D01*
X489171Y404400D01*
X488105D01*
X487571Y404934D01*
Y405467D01*
X488105Y406000D01*
X489171D01*
X489704Y405467D01*
X484373Y403334D02*
X484906Y402801D01*
X485972D01*
X486505Y403334D01*
Y405467D01*
X485972Y406000D01*
X484906D01*
X484373Y405467D01*
X483306Y402801D02*
X481174D01*
Y403334D01*
X483306Y405467D01*
Y406000D01*
X358367Y402801D02*
X359434D01*
X358900D01*
Y405467D01*
X359434Y406000D01*
X359967D01*
X360500Y405467D01*
X355701Y406000D02*
Y402801D01*
X357301Y404400D01*
X355168D01*
X354102Y406533D02*
X351969D01*
X348770Y402801D02*
X350903D01*
Y406000D01*
X348770D01*
X350903Y404400D02*
X349837D01*
X345571Y403334D02*
X346105Y402801D01*
X347171D01*
X347704Y403334D01*
Y403867D01*
X347171Y404400D01*
X346105D01*
X345571Y404934D01*
Y405467D01*
X346105Y406000D01*
X347171D01*
X347704Y405467D01*
X342372Y403334D02*
X342906Y402801D01*
X343972D01*
X344505Y403334D01*
Y405467D01*
X343972Y406000D01*
X342906D01*
X342372Y405467D01*
X339174Y402801D02*
X340240Y403334D01*
X341306Y404400D01*
Y405467D01*
X340773Y406000D01*
X339707D01*
X339174Y405467D01*
Y404934D01*
X339707Y404400D01*
X341306D01*
X216367Y402801D02*
X217434D01*
X216900D01*
Y405467D01*
X217434Y406000D01*
X217967D01*
X218500Y405467D01*
X213702Y406000D02*
Y402801D01*
X215301Y404400D01*
X213168D01*
X212102Y406533D02*
X209969D01*
X206770Y402801D02*
X208903D01*
Y406000D01*
X206770D01*
X208903Y404400D02*
X207837D01*
X203572Y403334D02*
X204105Y402801D01*
X205171D01*
X205704Y403334D01*
Y403867D01*
X205171Y404400D01*
X204105D01*
X203572Y404934D01*
Y405467D01*
X204105Y406000D01*
X205171D01*
X205704Y405467D01*
X200373Y403334D02*
X200906Y402801D01*
X201972D01*
X202505Y403334D01*
Y405467D01*
X201972Y406000D01*
X200906D01*
X200373Y405467D01*
X197174Y402801D02*
X199306D01*
Y404400D01*
X198240Y403867D01*
X197707D01*
X197174Y404400D01*
Y405467D01*
X197707Y406000D01*
X198773D01*
X199306Y405467D01*
X303633Y169120D02*
X302566D01*
X303099D01*
Y166454D01*
X302566Y165921D01*
X302033D01*
X301500Y166454D01*
X306298Y165921D02*
Y169120D01*
X304699Y167521D01*
X306832D01*
X307898Y165388D02*
X310031D01*
X313230Y169120D02*
X311097D01*
Y165921D01*
X313230D01*
X311097Y167521D02*
X312163D01*
X316428Y168587D02*
X315895Y169120D01*
X314829D01*
X314296Y168587D01*
Y168054D01*
X314829Y167521D01*
X315895D01*
X316428Y166988D01*
Y166454D01*
X315895Y165921D01*
X314829D01*
X314296Y166454D01*
X319627Y168587D02*
X319094Y169120D01*
X318028D01*
X317495Y168587D01*
Y166454D01*
X318028Y165921D01*
X319094D01*
X319627Y166454D01*
X322293Y165921D02*
Y169120D01*
X320694Y167521D01*
X322827D01*
X445633Y169120D02*
X444566D01*
X445099D01*
Y166454D01*
X444566Y165921D01*
X444033D01*
X443500Y166454D01*
X448298Y165921D02*
Y169120D01*
X446699Y167521D01*
X448832D01*
X449898Y165388D02*
X452031D01*
X455230Y169120D02*
X453097D01*
Y165921D01*
X455230D01*
X453097Y167521D02*
X454163D01*
X458428Y168587D02*
X457895Y169120D01*
X456829D01*
X456296Y168587D01*
Y168054D01*
X456829Y167521D01*
X457895D01*
X458428Y166988D01*
Y166454D01*
X457895Y165921D01*
X456829D01*
X456296Y166454D01*
X461627Y168587D02*
X461094Y169120D01*
X460028D01*
X459495Y168587D01*
Y166454D01*
X460028Y165921D01*
X461094D01*
X461627Y166454D01*
X462694Y168587D02*
X463227Y169120D01*
X464293D01*
X464826Y168587D01*
Y168054D01*
X464293Y167521D01*
X463760D01*
X464293D01*
X464826Y166988D01*
Y166454D01*
X464293Y165921D01*
X463227D01*
X462694Y166454D01*
X587633Y169120D02*
X586566D01*
X587100D01*
Y166454D01*
X586566Y165921D01*
X586033D01*
X585500Y166454D01*
X590298Y165921D02*
Y169120D01*
X588699Y167521D01*
X590832D01*
X591898Y165388D02*
X594031D01*
X597230Y169120D02*
X595097D01*
Y165921D01*
X597230D01*
X595097Y167521D02*
X596163D01*
X600428Y168587D02*
X599895Y169120D01*
X598829D01*
X598296Y168587D01*
Y168054D01*
X598829Y167521D01*
X599895D01*
X600428Y166988D01*
Y166454D01*
X599895Y165921D01*
X598829D01*
X598296Y166454D01*
X603627Y168587D02*
X603094Y169120D01*
X602028D01*
X601495Y168587D01*
Y166454D01*
X602028Y165921D01*
X603094D01*
X603627Y166454D01*
X606826Y165921D02*
X604694D01*
X606826Y168054D01*
Y168587D01*
X606293Y169120D01*
X605227D01*
X604694Y168587D01*
X729633Y169120D02*
X728566D01*
X729100D01*
Y166454D01*
X728566Y165921D01*
X728033D01*
X727500Y166454D01*
X732298Y165921D02*
Y169120D01*
X730699Y167521D01*
X732832D01*
X733898Y165388D02*
X736031D01*
X739230Y169120D02*
X737097D01*
Y165921D01*
X739230D01*
X737097Y167521D02*
X738163D01*
X742428Y168587D02*
X741895Y169120D01*
X740829D01*
X740296Y168587D01*
Y168054D01*
X740829Y167521D01*
X741895D01*
X742428Y166988D01*
Y166454D01*
X741895Y165921D01*
X740829D01*
X740296Y166454D01*
X745627Y168587D02*
X745094Y169120D01*
X744028D01*
X743495Y168587D01*
Y166454D01*
X744028Y165921D01*
X745094D01*
X745627Y166454D01*
X746694Y165921D02*
X747760D01*
X747227D01*
Y169120D01*
X746694Y168587D01*
X642367Y408301D02*
X643434D01*
X642901D01*
Y410967D01*
X643434Y411500D01*
X643967D01*
X644500Y410967D01*
X641301Y408834D02*
X640768Y408301D01*
X639702D01*
X639168Y408834D01*
Y409367D01*
X639702Y409901D01*
X640235D01*
X639702D01*
X639168Y410434D01*
Y410967D01*
X639702Y411500D01*
X640768D01*
X641301Y410967D01*
X638102Y412033D02*
X635969D01*
X632770Y408301D02*
X634903D01*
Y411500D01*
X632770D01*
X634903Y409901D02*
X633837D01*
X629571Y408834D02*
X630105Y408301D01*
X631171D01*
X631704Y408834D01*
Y409367D01*
X631171Y409901D01*
X630105D01*
X629571Y410434D01*
Y410967D01*
X630105Y411500D01*
X631171D01*
X631704Y410967D01*
X626372Y408834D02*
X626906Y408301D01*
X627972D01*
X628505Y408834D01*
Y410967D01*
X627972Y411500D01*
X626906D01*
X626372Y410967D01*
X625306Y408834D02*
X624773Y408301D01*
X623707D01*
X623174Y408834D01*
Y409367D01*
X623707Y409901D01*
X623174Y410434D01*
Y410967D01*
X623707Y411500D01*
X624773D01*
X625306Y410967D01*
Y410434D01*
X624773Y409901D01*
X625306Y409367D01*
Y408834D01*
X624773Y409901D02*
X623707D01*
X500367Y408301D02*
X501434D01*
X500901D01*
Y410967D01*
X501434Y411500D01*
X501967D01*
X502500Y410967D01*
X499301Y408834D02*
X498768Y408301D01*
X497702D01*
X497168Y408834D01*
Y409367D01*
X497702Y409901D01*
X498235D01*
X497702D01*
X497168Y410434D01*
Y410967D01*
X497702Y411500D01*
X498768D01*
X499301Y410967D01*
X496102Y412033D02*
X493969D01*
X490770Y408301D02*
X492903D01*
Y411500D01*
X490770D01*
X492903Y409901D02*
X491837D01*
X487571Y408834D02*
X488105Y408301D01*
X489171D01*
X489704Y408834D01*
Y409367D01*
X489171Y409901D01*
X488105D01*
X487571Y410434D01*
Y410967D01*
X488105Y411500D01*
X489171D01*
X489704Y410967D01*
X484373Y408834D02*
X484906Y408301D01*
X485972D01*
X486505Y408834D01*
Y410967D01*
X485972Y411500D01*
X484906D01*
X484373Y410967D01*
X483306Y408301D02*
X481174D01*
Y408834D01*
X483306Y410967D01*
Y411500D01*
X358367Y408301D02*
X359434D01*
X358900D01*
Y410967D01*
X359434Y411500D01*
X359967D01*
X360500Y410967D01*
X357301Y408834D02*
X356768Y408301D01*
X355701D01*
X355168Y408834D01*
Y409367D01*
X355701Y409901D01*
X356235D01*
X355701D01*
X355168Y410434D01*
Y410967D01*
X355701Y411500D01*
X356768D01*
X357301Y410967D01*
X354102Y412033D02*
X351969D01*
X348770Y408301D02*
X350903D01*
Y411500D01*
X348770D01*
X350903Y409901D02*
X349837D01*
X345571Y408834D02*
X346105Y408301D01*
X347171D01*
X347704Y408834D01*
Y409367D01*
X347171Y409901D01*
X346105D01*
X345571Y410434D01*
Y410967D01*
X346105Y411500D01*
X347171D01*
X347704Y410967D01*
X342372Y408834D02*
X342906Y408301D01*
X343972D01*
X344505Y408834D01*
Y410967D01*
X343972Y411500D01*
X342906D01*
X342372Y410967D01*
X339174Y408301D02*
X340240Y408834D01*
X341306Y409901D01*
Y410967D01*
X340773Y411500D01*
X339707D01*
X339174Y410967D01*
Y410434D01*
X339707Y409901D01*
X341306D01*
X216367Y408301D02*
X217434D01*
X216900D01*
Y410967D01*
X217434Y411500D01*
X217967D01*
X218500Y410967D01*
X215301Y408834D02*
X214768Y408301D01*
X213702D01*
X213168Y408834D01*
Y409367D01*
X213702Y409901D01*
X214235D01*
X213702D01*
X213168Y410434D01*
Y410967D01*
X213702Y411500D01*
X214768D01*
X215301Y410967D01*
X212102Y412033D02*
X209969D01*
X206770Y408301D02*
X208903D01*
Y411500D01*
X206770D01*
X208903Y409901D02*
X207837D01*
X203572Y408834D02*
X204105Y408301D01*
X205171D01*
X205704Y408834D01*
Y409367D01*
X205171Y409901D01*
X204105D01*
X203572Y410434D01*
Y410967D01*
X204105Y411500D01*
X205171D01*
X205704Y410967D01*
X200373Y408834D02*
X200906Y408301D01*
X201972D01*
X202505Y408834D01*
Y410967D01*
X201972Y411500D01*
X200906D01*
X200373Y410967D01*
X197174Y408301D02*
X199306D01*
Y409901D01*
X198240Y409367D01*
X197707D01*
X197174Y409901D01*
Y410967D01*
X197707Y411500D01*
X198773D01*
X199306Y410967D01*
X303633Y163620D02*
X302566D01*
X303099D01*
Y160954D01*
X302566Y160421D01*
X302033D01*
X301500Y160954D01*
X304699Y163087D02*
X305232Y163620D01*
X306298D01*
X306832Y163087D01*
Y162554D01*
X306298Y162021D01*
X305765D01*
X306298D01*
X306832Y161488D01*
Y160954D01*
X306298Y160421D01*
X305232D01*
X304699Y160954D01*
X307898Y159888D02*
X310031D01*
X313230Y163620D02*
X311097D01*
Y160421D01*
X313230D01*
X311097Y162021D02*
X312163D01*
X316428Y163087D02*
X315895Y163620D01*
X314829D01*
X314296Y163087D01*
Y162554D01*
X314829Y162021D01*
X315895D01*
X316428Y161488D01*
Y160954D01*
X315895Y160421D01*
X314829D01*
X314296Y160954D01*
X319627Y163087D02*
X319094Y163620D01*
X318028D01*
X317495Y163087D01*
Y160954D01*
X318028Y160421D01*
X319094D01*
X319627Y160954D01*
X322293Y160421D02*
Y163620D01*
X320694Y162021D01*
X322827D01*
X445633Y163620D02*
X444566D01*
X445099D01*
Y160954D01*
X444566Y160421D01*
X444033D01*
X443500Y160954D01*
X446699Y163087D02*
X447232Y163620D01*
X448298D01*
X448832Y163087D01*
Y162554D01*
X448298Y162021D01*
X447765D01*
X448298D01*
X448832Y161488D01*
Y160954D01*
X448298Y160421D01*
X447232D01*
X446699Y160954D01*
X449898Y159888D02*
X452031D01*
X455230Y163620D02*
X453097D01*
Y160421D01*
X455230D01*
X453097Y162021D02*
X454163D01*
X458428Y163087D02*
X457895Y163620D01*
X456829D01*
X456296Y163087D01*
Y162554D01*
X456829Y162021D01*
X457895D01*
X458428Y161488D01*
Y160954D01*
X457895Y160421D01*
X456829D01*
X456296Y160954D01*
X461627Y163087D02*
X461094Y163620D01*
X460028D01*
X459495Y163087D01*
Y160954D01*
X460028Y160421D01*
X461094D01*
X461627Y160954D01*
X462694Y163087D02*
X463227Y163620D01*
X464293D01*
X464826Y163087D01*
Y162554D01*
X464293Y162021D01*
X463760D01*
X464293D01*
X464826Y161488D01*
Y160954D01*
X464293Y160421D01*
X463227D01*
X462694Y160954D01*
X587633Y163620D02*
X586566D01*
X587100D01*
Y160954D01*
X586566Y160421D01*
X586033D01*
X585500Y160954D01*
X588699Y163087D02*
X589232Y163620D01*
X590298D01*
X590832Y163087D01*
Y162554D01*
X590298Y162021D01*
X589765D01*
X590298D01*
X590832Y161488D01*
Y160954D01*
X590298Y160421D01*
X589232D01*
X588699Y160954D01*
X591898Y159888D02*
X594031D01*
X597230Y163620D02*
X595097D01*
Y160421D01*
X597230D01*
X595097Y162021D02*
X596163D01*
X600428Y163087D02*
X599895Y163620D01*
X598829D01*
X598296Y163087D01*
Y162554D01*
X598829Y162021D01*
X599895D01*
X600428Y161488D01*
Y160954D01*
X599895Y160421D01*
X598829D01*
X598296Y160954D01*
X603627Y163087D02*
X603094Y163620D01*
X602028D01*
X601495Y163087D01*
Y160954D01*
X602028Y160421D01*
X603094D01*
X603627Y160954D01*
X606826Y160421D02*
X604694D01*
X606826Y162554D01*
Y163087D01*
X606293Y163620D01*
X605227D01*
X604694Y163087D01*
X729633Y163620D02*
X728566D01*
X729100D01*
Y160954D01*
X728566Y160421D01*
X728033D01*
X727500Y160954D01*
X730699Y163087D02*
X731232Y163620D01*
X732298D01*
X732832Y163087D01*
Y162554D01*
X732298Y162021D01*
X731765D01*
X732298D01*
X732832Y161488D01*
Y160954D01*
X732298Y160421D01*
X731232D01*
X730699Y160954D01*
X733898Y159888D02*
X736031D01*
X739230Y163620D02*
X737097D01*
Y160421D01*
X739230D01*
X737097Y162021D02*
X738163D01*
X742428Y163087D02*
X741895Y163620D01*
X740829D01*
X740296Y163087D01*
Y162554D01*
X740829Y162021D01*
X741895D01*
X742428Y161488D01*
Y160954D01*
X741895Y160421D01*
X740829D01*
X740296Y160954D01*
X745627Y163087D02*
X745094Y163620D01*
X744028D01*
X743495Y163087D01*
Y160954D01*
X744028Y160421D01*
X745094D01*
X745627Y160954D01*
X746694Y160421D02*
X747760D01*
X747227D01*
Y163620D01*
X746694Y163087D01*
X664867Y408301D02*
X665934D01*
X665401D01*
Y410967D01*
X665934Y411500D01*
X666467D01*
X667000Y410967D01*
X661668Y411500D02*
X663801D01*
X661668Y409367D01*
Y408834D01*
X662202Y408301D01*
X663268D01*
X663801Y408834D01*
X660602Y412033D02*
X658469D01*
X655270Y408301D02*
X657403D01*
Y411500D01*
X655270D01*
X657403Y409901D02*
X656337D01*
X652072Y408834D02*
X652605Y408301D01*
X653671D01*
X654204Y408834D01*
Y409367D01*
X653671Y409901D01*
X652605D01*
X652072Y410434D01*
Y410967D01*
X652605Y411500D01*
X653671D01*
X654204Y410967D01*
X648873Y408834D02*
X649406Y408301D01*
X650472D01*
X651005Y408834D01*
Y410967D01*
X650472Y411500D01*
X649406D01*
X648873Y410967D01*
X647806Y408834D02*
X647273Y408301D01*
X646207D01*
X645674Y408834D01*
Y409367D01*
X646207Y409901D01*
X645674Y410434D01*
Y410967D01*
X646207Y411500D01*
X647273D01*
X647806Y410967D01*
Y410434D01*
X647273Y409901D01*
X647806Y409367D01*
Y408834D01*
X647273Y409901D02*
X646207D01*
X522867Y408301D02*
X523934D01*
X523400D01*
Y410967D01*
X523934Y411500D01*
X524467D01*
X525000Y410967D01*
X519668Y411500D02*
X521801D01*
X519668Y409367D01*
Y408834D01*
X520202Y408301D01*
X521268D01*
X521801Y408834D01*
X518602Y412033D02*
X516469D01*
X513270Y408301D02*
X515403D01*
Y411500D01*
X513270D01*
X515403Y409901D02*
X514337D01*
X510072Y408834D02*
X510605Y408301D01*
X511671D01*
X512204Y408834D01*
Y409367D01*
X511671Y409901D01*
X510605D01*
X510072Y410434D01*
Y410967D01*
X510605Y411500D01*
X511671D01*
X512204Y410967D01*
X506873Y408834D02*
X507406Y408301D01*
X508472D01*
X509005Y408834D01*
Y410967D01*
X508472Y411500D01*
X507406D01*
X506873Y410967D01*
X505806Y408301D02*
X503674D01*
Y408834D01*
X505806Y410967D01*
Y411500D01*
X380867Y408301D02*
X381934D01*
X381400D01*
Y410967D01*
X381934Y411500D01*
X382467D01*
X383000Y410967D01*
X377668Y411500D02*
X379801D01*
X377668Y409367D01*
Y408834D01*
X378202Y408301D01*
X379268D01*
X379801Y408834D01*
X376602Y412033D02*
X374469D01*
X371270Y408301D02*
X373403D01*
Y411500D01*
X371270D01*
X373403Y409901D02*
X372337D01*
X368072Y408834D02*
X368605Y408301D01*
X369671D01*
X370204Y408834D01*
Y409367D01*
X369671Y409901D01*
X368605D01*
X368072Y410434D01*
Y410967D01*
X368605Y411500D01*
X369671D01*
X370204Y410967D01*
X364873Y408834D02*
X365406Y408301D01*
X366472D01*
X367005Y408834D01*
Y410967D01*
X366472Y411500D01*
X365406D01*
X364873Y410967D01*
X361673Y408301D02*
X362740Y408834D01*
X363806Y409901D01*
Y410967D01*
X363273Y411500D01*
X362207D01*
X361673Y410967D01*
Y410434D01*
X362207Y409901D01*
X363806D01*
X238867Y408301D02*
X239934D01*
X239401D01*
Y410967D01*
X239934Y411500D01*
X240467D01*
X241000Y410967D01*
X235668Y411500D02*
X237801D01*
X235668Y409367D01*
Y408834D01*
X236202Y408301D01*
X237268D01*
X237801Y408834D01*
X234602Y412033D02*
X232469D01*
X229270Y408301D02*
X231403D01*
Y411500D01*
X229270D01*
X231403Y409901D02*
X230337D01*
X226072Y408834D02*
X226605Y408301D01*
X227671D01*
X228204Y408834D01*
Y409367D01*
X227671Y409901D01*
X226605D01*
X226072Y410434D01*
Y410967D01*
X226605Y411500D01*
X227671D01*
X228204Y410967D01*
X222872Y408834D02*
X223406Y408301D01*
X224472D01*
X225005Y408834D01*
Y410967D01*
X224472Y411500D01*
X223406D01*
X222872Y410967D01*
X219673Y408301D02*
X221806D01*
Y409901D01*
X220740Y409367D01*
X220207D01*
X219673Y409901D01*
Y410967D01*
X220207Y411500D01*
X221273D01*
X221806Y410967D01*
X281133Y163620D02*
X280066D01*
X280599D01*
Y160954D01*
X280066Y160421D01*
X279533D01*
X279000Y160954D01*
X284332Y160421D02*
X282199D01*
X284332Y162554D01*
Y163087D01*
X283799Y163620D01*
X282732D01*
X282199Y163087D01*
X285398Y159888D02*
X287531D01*
X290730Y163620D02*
X288597D01*
Y160421D01*
X290730D01*
X288597Y162021D02*
X289663D01*
X293929Y163087D02*
X293395Y163620D01*
X292329D01*
X291796Y163087D01*
Y162554D01*
X292329Y162021D01*
X293395D01*
X293929Y161488D01*
Y160954D01*
X293395Y160421D01*
X292329D01*
X291796Y160954D01*
X297128Y163087D02*
X296594Y163620D01*
X295528D01*
X294995Y163087D01*
Y160954D01*
X295528Y160421D01*
X296594D01*
X297128Y160954D01*
X299793Y160421D02*
Y163620D01*
X298194Y162021D01*
X300326D01*
X423133Y163620D02*
X422066D01*
X422600D01*
Y160954D01*
X422066Y160421D01*
X421533D01*
X421000Y160954D01*
X426332Y160421D02*
X424199D01*
X426332Y162554D01*
Y163087D01*
X425798Y163620D01*
X424732D01*
X424199Y163087D01*
X427398Y159888D02*
X429531D01*
X432730Y163620D02*
X430597D01*
Y160421D01*
X432730D01*
X430597Y162021D02*
X431663D01*
X435928Y163087D02*
X435395Y163620D01*
X434329D01*
X433796Y163087D01*
Y162554D01*
X434329Y162021D01*
X435395D01*
X435928Y161488D01*
Y160954D01*
X435395Y160421D01*
X434329D01*
X433796Y160954D01*
X439127Y163087D02*
X438594Y163620D01*
X437528D01*
X436995Y163087D01*
Y160954D01*
X437528Y160421D01*
X438594D01*
X439127Y160954D01*
X440194Y163087D02*
X440727Y163620D01*
X441793D01*
X442326Y163087D01*
Y162554D01*
X441793Y162021D01*
X441260D01*
X441793D01*
X442326Y161488D01*
Y160954D01*
X441793Y160421D01*
X440727D01*
X440194Y160954D01*
X565133Y163620D02*
X564066D01*
X564600D01*
Y160954D01*
X564066Y160421D01*
X563533D01*
X563000Y160954D01*
X568332Y160421D02*
X566199D01*
X568332Y162554D01*
Y163087D01*
X567798Y163620D01*
X566732D01*
X566199Y163087D01*
X569398Y159888D02*
X571531D01*
X574730Y163620D02*
X572597D01*
Y160421D01*
X574730D01*
X572597Y162021D02*
X573663D01*
X577928Y163087D02*
X577395Y163620D01*
X576329D01*
X575796Y163087D01*
Y162554D01*
X576329Y162021D01*
X577395D01*
X577928Y161488D01*
Y160954D01*
X577395Y160421D01*
X576329D01*
X575796Y160954D01*
X581128Y163087D02*
X580594Y163620D01*
X579528D01*
X578995Y163087D01*
Y160954D01*
X579528Y160421D01*
X580594D01*
X581128Y160954D01*
X584327Y160421D02*
X582194D01*
X584327Y162554D01*
Y163087D01*
X583793Y163620D01*
X582727D01*
X582194Y163087D01*
X707133Y163620D02*
X706066D01*
X706600D01*
Y160954D01*
X706066Y160421D01*
X705533D01*
X705000Y160954D01*
X710332Y160421D02*
X708199D01*
X710332Y162554D01*
Y163087D01*
X709798Y163620D01*
X708732D01*
X708199Y163087D01*
X711398Y159888D02*
X713531D01*
X716730Y163620D02*
X714597D01*
Y160421D01*
X716730D01*
X714597Y162021D02*
X715663D01*
X719929Y163087D02*
X719395Y163620D01*
X718329D01*
X717796Y163087D01*
Y162554D01*
X718329Y162021D01*
X719395D01*
X719929Y161488D01*
Y160954D01*
X719395Y160421D01*
X718329D01*
X717796Y160954D01*
X723128Y163087D02*
X722594Y163620D01*
X721528D01*
X720995Y163087D01*
Y160954D01*
X721528Y160421D01*
X722594D01*
X723128Y160954D01*
X724194Y160421D02*
X725260D01*
X724727D01*
Y163620D01*
X724194Y163087D01*
X664367Y402801D02*
X665434D01*
X664900D01*
Y405467D01*
X665434Y406000D01*
X665967D01*
X666500Y405467D01*
X663301Y406000D02*
X662235D01*
X662768D01*
Y402801D01*
X663301Y403334D01*
X660635Y406533D02*
X658503D01*
X655304Y402801D02*
X657436D01*
Y406000D01*
X655304D01*
X657436Y404400D02*
X656370D01*
X652105Y403334D02*
X652638Y402801D01*
X653704D01*
X654237Y403334D01*
Y403867D01*
X653704Y404400D01*
X652638D01*
X652105Y404934D01*
Y405467D01*
X652638Y406000D01*
X653704D01*
X654237Y405467D01*
X648906Y403334D02*
X649439Y402801D01*
X650505D01*
X651038Y403334D01*
Y405467D01*
X650505Y406000D01*
X649439D01*
X648906Y405467D01*
X647839Y403334D02*
X647306Y402801D01*
X646240D01*
X645707Y403334D01*
Y403867D01*
X646240Y404400D01*
X645707Y404934D01*
Y405467D01*
X646240Y406000D01*
X647306D01*
X647839Y405467D01*
Y404934D01*
X647306Y404400D01*
X647839Y403867D01*
Y403334D01*
X647306Y404400D02*
X646240D01*
X522367Y402801D02*
X523434D01*
X522900D01*
Y405467D01*
X523434Y406000D01*
X523967D01*
X524500Y405467D01*
X521301Y406000D02*
X520235D01*
X520768D01*
Y402801D01*
X521301Y403334D01*
X518635Y406533D02*
X516503D01*
X513304Y402801D02*
X515436D01*
Y406000D01*
X513304D01*
X515436Y404400D02*
X514370D01*
X510105Y403334D02*
X510638Y402801D01*
X511704D01*
X512237Y403334D01*
Y403867D01*
X511704Y404400D01*
X510638D01*
X510105Y404934D01*
Y405467D01*
X510638Y406000D01*
X511704D01*
X512237Y405467D01*
X506906Y403334D02*
X507439Y402801D01*
X508505D01*
X509038Y403334D01*
Y405467D01*
X508505Y406000D01*
X507439D01*
X506906Y405467D01*
X505839Y402801D02*
X503707D01*
Y403334D01*
X505839Y405467D01*
Y406000D01*
X380367Y402801D02*
X381434D01*
X380901D01*
Y405467D01*
X381434Y406000D01*
X381967D01*
X382500Y405467D01*
X379301Y406000D02*
X378235D01*
X378768D01*
Y402801D01*
X379301Y403334D01*
X376635Y406533D02*
X374503D01*
X371304Y402801D02*
X373436D01*
Y406000D01*
X371304D01*
X373436Y404400D02*
X372370D01*
X368105Y403334D02*
X368638Y402801D01*
X369704D01*
X370237Y403334D01*
Y403867D01*
X369704Y404400D01*
X368638D01*
X368105Y404934D01*
Y405467D01*
X368638Y406000D01*
X369704D01*
X370237Y405467D01*
X364906Y403334D02*
X365439Y402801D01*
X366505D01*
X367038Y403334D01*
Y405467D01*
X366505Y406000D01*
X365439D01*
X364906Y405467D01*
X361707Y402801D02*
X362773Y403334D01*
X363839Y404400D01*
Y405467D01*
X363306Y406000D01*
X362240D01*
X361707Y405467D01*
Y404934D01*
X362240Y404400D01*
X363839D01*
X238367Y402801D02*
X239434D01*
X238900D01*
Y405467D01*
X239434Y406000D01*
X239967D01*
X240500Y405467D01*
X237301Y406000D02*
X236235D01*
X236768D01*
Y402801D01*
X237301Y403334D01*
X234635Y406533D02*
X232503D01*
X229304Y402801D02*
X231436D01*
Y406000D01*
X229304D01*
X231436Y404400D02*
X230370D01*
X226105Y403334D02*
X226638Y402801D01*
X227704D01*
X228237Y403334D01*
Y403867D01*
X227704Y404400D01*
X226638D01*
X226105Y404934D01*
Y405467D01*
X226638Y406000D01*
X227704D01*
X228237Y405467D01*
X222906Y403334D02*
X223439Y402801D01*
X224505D01*
X225038Y403334D01*
Y405467D01*
X224505Y406000D01*
X223439D01*
X222906Y405467D01*
X219707Y402801D02*
X221839D01*
Y404400D01*
X220773Y403867D01*
X220240D01*
X219707Y404400D01*
Y405467D01*
X220240Y406000D01*
X221306D01*
X221839Y405467D01*
X281633Y169120D02*
X280566D01*
X281100D01*
Y166454D01*
X280566Y165921D01*
X280033D01*
X279500Y166454D01*
X282699Y165921D02*
X283765D01*
X283232D01*
Y169120D01*
X282699Y168587D01*
X285365Y165388D02*
X287497D01*
X290696Y169120D02*
X288564D01*
Y165921D01*
X290696D01*
X288564Y167521D02*
X289630D01*
X293895Y168587D02*
X293362Y169120D01*
X292296D01*
X291763Y168587D01*
Y168054D01*
X292296Y167521D01*
X293362D01*
X293895Y166988D01*
Y166454D01*
X293362Y165921D01*
X292296D01*
X291763Y166454D01*
X297094Y168587D02*
X296561Y169120D01*
X295495D01*
X294962Y168587D01*
Y166454D01*
X295495Y165921D01*
X296561D01*
X297094Y166454D01*
X299760Y165921D02*
Y169120D01*
X298161Y167521D01*
X300293D01*
X423633Y169120D02*
X422566D01*
X423100D01*
Y166454D01*
X422566Y165921D01*
X422033D01*
X421500Y166454D01*
X424699Y165921D02*
X425765D01*
X425232D01*
Y169120D01*
X424699Y168587D01*
X427365Y165388D02*
X429497D01*
X432696Y169120D02*
X430564D01*
Y165921D01*
X432696D01*
X430564Y167521D02*
X431630D01*
X435895Y168587D02*
X435362Y169120D01*
X434296D01*
X433763Y168587D01*
Y168054D01*
X434296Y167521D01*
X435362D01*
X435895Y166988D01*
Y166454D01*
X435362Y165921D01*
X434296D01*
X433763Y166454D01*
X439094Y168587D02*
X438561Y169120D01*
X437495D01*
X436962Y168587D01*
Y166454D01*
X437495Y165921D01*
X438561D01*
X439094Y166454D01*
X440161Y168587D02*
X440694Y169120D01*
X441760D01*
X442293Y168587D01*
Y168054D01*
X441760Y167521D01*
X441227D01*
X441760D01*
X442293Y166988D01*
Y166454D01*
X441760Y165921D01*
X440694D01*
X440161Y166454D01*
X565633Y169120D02*
X564566D01*
X565099D01*
Y166454D01*
X564566Y165921D01*
X564033D01*
X563500Y166454D01*
X566699Y165921D02*
X567765D01*
X567232D01*
Y169120D01*
X566699Y168587D01*
X569365Y165388D02*
X571497D01*
X574696Y169120D02*
X572564D01*
Y165921D01*
X574696D01*
X572564Y167521D02*
X573630D01*
X577895Y168587D02*
X577362Y169120D01*
X576296D01*
X575763Y168587D01*
Y168054D01*
X576296Y167521D01*
X577362D01*
X577895Y166988D01*
Y166454D01*
X577362Y165921D01*
X576296D01*
X575763Y166454D01*
X581094Y168587D02*
X580561Y169120D01*
X579495D01*
X578962Y168587D01*
Y166454D01*
X579495Y165921D01*
X580561D01*
X581094Y166454D01*
X584293Y165921D02*
X582161D01*
X584293Y168054D01*
Y168587D01*
X583760Y169120D01*
X582694D01*
X582161Y168587D01*
X707633Y169120D02*
X706566D01*
X707099D01*
Y166454D01*
X706566Y165921D01*
X706033D01*
X705500Y166454D01*
X708699Y165921D02*
X709765D01*
X709232D01*
Y169120D01*
X708699Y168587D01*
X711365Y165388D02*
X713497D01*
X716696Y169120D02*
X714564D01*
Y165921D01*
X716696D01*
X714564Y167521D02*
X715630D01*
X719895Y168587D02*
X719362Y169120D01*
X718296D01*
X717763Y168587D01*
Y168054D01*
X718296Y167521D01*
X719362D01*
X719895Y166988D01*
Y166454D01*
X719362Y165921D01*
X718296D01*
X717763Y166454D01*
X723094Y168587D02*
X722561Y169120D01*
X721495D01*
X720962Y168587D01*
Y166454D01*
X721495Y165921D01*
X722561D01*
X723094Y166454D01*
X724161Y165921D02*
X725227D01*
X724694D01*
Y169120D01*
X724161Y168587D01*
X683386Y444801D02*
Y448000D01*
X681786D01*
X681253Y447467D01*
Y445334D01*
X681786Y444801D01*
X683386D01*
X680187Y448000D02*
X679120D01*
X679654D01*
Y444801D01*
X680187Y445334D01*
X677521Y448533D02*
X675388D01*
X672190Y444801D02*
X674322D01*
Y448000D01*
X672190D01*
X674322Y446400D02*
X673256D01*
X668991Y445334D02*
X669524Y444801D01*
X670590D01*
X671123Y445334D01*
Y445867D01*
X670590Y446400D01*
X669524D01*
X668991Y446934D01*
Y447467D01*
X669524Y448000D01*
X670590D01*
X671123Y447467D01*
X665792Y445334D02*
X666325Y444801D01*
X667391D01*
X667924Y445334D01*
Y447467D01*
X667391Y448000D01*
X666325D01*
X665792Y447467D01*
X664725Y445334D02*
X664192Y444801D01*
X663126D01*
X662593Y445334D01*
Y445867D01*
X663126Y446400D01*
X662593Y446934D01*
Y447467D01*
X663126Y448000D01*
X664192D01*
X664725Y447467D01*
Y446934D01*
X664192Y446400D01*
X664725Y445867D01*
Y445334D01*
X664192Y446400D02*
X663126D01*
X541386Y444801D02*
Y448000D01*
X539786D01*
X539253Y447467D01*
Y445334D01*
X539786Y444801D01*
X541386D01*
X538187Y448000D02*
X537120D01*
X537654D01*
Y444801D01*
X538187Y445334D01*
X535521Y448533D02*
X533388D01*
X530190Y444801D02*
X532322D01*
Y448000D01*
X530190D01*
X532322Y446400D02*
X531256D01*
X526991Y445334D02*
X527524Y444801D01*
X528590D01*
X529123Y445334D01*
Y445867D01*
X528590Y446400D01*
X527524D01*
X526991Y446934D01*
Y447467D01*
X527524Y448000D01*
X528590D01*
X529123Y447467D01*
X523792Y445334D02*
X524325Y444801D01*
X525391D01*
X525924Y445334D01*
Y447467D01*
X525391Y448000D01*
X524325D01*
X523792Y447467D01*
X522725Y444801D02*
X520592D01*
Y445334D01*
X522725Y447467D01*
Y448000D01*
X399386Y444801D02*
Y448000D01*
X397786D01*
X397253Y447467D01*
Y445334D01*
X397786Y444801D01*
X399386D01*
X396187Y448000D02*
X395121D01*
X395654D01*
Y444801D01*
X396187Y445334D01*
X393521Y448533D02*
X391388D01*
X388189Y444801D02*
X390322D01*
Y448000D01*
X388189D01*
X390322Y446400D02*
X389256D01*
X384991Y445334D02*
X385524Y444801D01*
X386590D01*
X387123Y445334D01*
Y445867D01*
X386590Y446400D01*
X385524D01*
X384991Y446934D01*
Y447467D01*
X385524Y448000D01*
X386590D01*
X387123Y447467D01*
X381791Y445334D02*
X382325Y444801D01*
X383391D01*
X383924Y445334D01*
Y447467D01*
X383391Y448000D01*
X382325D01*
X381791Y447467D01*
X378592Y444801D02*
X379659Y445334D01*
X380725Y446400D01*
Y447467D01*
X380192Y448000D01*
X379126D01*
X378592Y447467D01*
Y446934D01*
X379126Y446400D01*
X380725D01*
X257386Y444801D02*
Y448000D01*
X255786D01*
X255253Y447467D01*
Y445334D01*
X255786Y444801D01*
X257386D01*
X254187Y448000D02*
X253120D01*
X253654D01*
Y444801D01*
X254187Y445334D01*
X251521Y448533D02*
X249388D01*
X246189Y444801D02*
X248322D01*
Y448000D01*
X246189D01*
X248322Y446400D02*
X247256D01*
X242990Y445334D02*
X243524Y444801D01*
X244590D01*
X245123Y445334D01*
Y445867D01*
X244590Y446400D01*
X243524D01*
X242990Y446934D01*
Y447467D01*
X243524Y448000D01*
X244590D01*
X245123Y447467D01*
X239791Y445334D02*
X240325Y444801D01*
X241391D01*
X241924Y445334D01*
Y447467D01*
X241391Y448000D01*
X240325D01*
X239791Y447467D01*
X236593Y444801D02*
X238725D01*
Y446400D01*
X237659Y445867D01*
X237126D01*
X236593Y446400D01*
Y447467D01*
X237126Y448000D01*
X238192D01*
X238725Y447467D01*
X262614Y127120D02*
Y123921D01*
X264214D01*
X264747Y124454D01*
Y126587D01*
X264214Y127120D01*
X262614D01*
X265813Y123921D02*
X266880D01*
X266346D01*
Y127120D01*
X265813Y126587D01*
X268479Y123388D02*
X270612D01*
X273811Y127120D02*
X271678D01*
Y123921D01*
X273811D01*
X271678Y125521D02*
X272744D01*
X277010Y126587D02*
X276476Y127120D01*
X275410D01*
X274877Y126587D01*
Y126054D01*
X275410Y125521D01*
X276476D01*
X277010Y124988D01*
Y124454D01*
X276476Y123921D01*
X275410D01*
X274877Y124454D01*
X280208Y126587D02*
X279675Y127120D01*
X278609D01*
X278076Y126587D01*
Y124454D01*
X278609Y123921D01*
X279675D01*
X280208Y124454D01*
X282874Y123921D02*
Y127120D01*
X281275Y125521D01*
X283407D01*
X404614Y127120D02*
Y123921D01*
X406214D01*
X406747Y124454D01*
Y126587D01*
X406214Y127120D01*
X404614D01*
X407813Y123921D02*
X408880D01*
X408346D01*
Y127120D01*
X407813Y126587D01*
X410479Y123388D02*
X412612D01*
X415810Y127120D02*
X413678D01*
Y123921D01*
X415810D01*
X413678Y125521D02*
X414744D01*
X419009Y126587D02*
X418476Y127120D01*
X417410D01*
X416877Y126587D01*
Y126054D01*
X417410Y125521D01*
X418476D01*
X419009Y124988D01*
Y124454D01*
X418476Y123921D01*
X417410D01*
X416877Y124454D01*
X422208Y126587D02*
X421675Y127120D01*
X420609D01*
X420076Y126587D01*
Y124454D01*
X420609Y123921D01*
X421675D01*
X422208Y124454D01*
X423275Y126587D02*
X423808Y127120D01*
X424874D01*
X425408Y126587D01*
Y126054D01*
X424874Y125521D01*
X424341D01*
X424874D01*
X425408Y124988D01*
Y124454D01*
X424874Y123921D01*
X423808D01*
X423275Y124454D01*
X546614Y127120D02*
Y123921D01*
X548214D01*
X548747Y124454D01*
Y126587D01*
X548214Y127120D01*
X546614D01*
X549813Y123921D02*
X550879D01*
X550346D01*
Y127120D01*
X549813Y126587D01*
X552479Y123388D02*
X554612D01*
X557810Y127120D02*
X555678D01*
Y123921D01*
X557810D01*
X555678Y125521D02*
X556744D01*
X561010Y126587D02*
X560476Y127120D01*
X559410D01*
X558877Y126587D01*
Y126054D01*
X559410Y125521D01*
X560476D01*
X561010Y124988D01*
Y124454D01*
X560476Y123921D01*
X559410D01*
X558877Y124454D01*
X564209Y126587D02*
X563675Y127120D01*
X562609D01*
X562076Y126587D01*
Y124454D01*
X562609Y123921D01*
X563675D01*
X564209Y124454D01*
X567408Y123921D02*
X565275D01*
X567408Y126054D01*
Y126587D01*
X566874Y127120D01*
X565808D01*
X565275Y126587D01*
X688614Y127120D02*
Y123921D01*
X690214D01*
X690747Y124454D01*
Y126587D01*
X690214Y127120D01*
X688614D01*
X691813Y123921D02*
X692879D01*
X692346D01*
Y127120D01*
X691813Y126587D01*
X694479Y123388D02*
X696612D01*
X699811Y127120D02*
X697678D01*
Y123921D01*
X699811D01*
X697678Y125521D02*
X698744D01*
X703010Y126587D02*
X702476Y127120D01*
X701410D01*
X700877Y126587D01*
Y126054D01*
X701410Y125521D01*
X702476D01*
X703010Y124988D01*
Y124454D01*
X702476Y123921D01*
X701410D01*
X700877Y124454D01*
X706209Y126587D02*
X705675Y127120D01*
X704609D01*
X704076Y126587D01*
Y124454D01*
X704609Y123921D01*
X705675D01*
X706209Y124454D01*
X707275Y123921D02*
X708341D01*
X707808D01*
Y127120D01*
X707275Y126587D01*
X715076Y390913D02*
X715609Y390380D01*
X716676D01*
X717209Y390913D01*
Y393046D01*
X716676Y393579D01*
X715609D01*
X715076Y393046D01*
X711877Y390380D02*
X714010D01*
Y391979D01*
X712943Y391446D01*
X712410D01*
X711877Y391979D01*
Y393046D01*
X712410Y393579D01*
X713477D01*
X714010Y393046D01*
X710811Y394112D02*
X708678D01*
X705479Y390380D02*
X707612D01*
Y393579D01*
X705479D01*
X707612Y391979D02*
X706545D01*
X702280Y390913D02*
X702813Y390380D01*
X703880D01*
X704413Y390913D01*
Y391446D01*
X703880Y391979D01*
X702813D01*
X702280Y392512D01*
Y393046D01*
X702813Y393579D01*
X703880D01*
X704413Y393046D01*
X699081Y390913D02*
X699614Y390380D01*
X700681D01*
X701214Y390913D01*
Y393046D01*
X700681Y393579D01*
X699614D01*
X699081Y393046D01*
X698015Y390913D02*
X697482Y390380D01*
X696415D01*
X695882Y390913D01*
Y391446D01*
X696415Y391979D01*
X695882Y392512D01*
Y393046D01*
X696415Y393579D01*
X697482D01*
X698015Y393046D01*
Y392512D01*
X697482Y391979D01*
X698015Y391446D01*
Y390913D01*
X697482Y391979D02*
X696415D01*
X573076Y390913D02*
X573609Y390380D01*
X574676D01*
X575209Y390913D01*
Y393046D01*
X574676Y393579D01*
X573609D01*
X573076Y393046D01*
X569877Y390380D02*
X572010D01*
Y391979D01*
X570943Y391446D01*
X570410D01*
X569877Y391979D01*
Y393046D01*
X570410Y393579D01*
X571477D01*
X572010Y393046D01*
X568811Y394112D02*
X566678D01*
X563479Y390380D02*
X565612D01*
Y393579D01*
X563479D01*
X565612Y391979D02*
X564545D01*
X560280Y390913D02*
X560813Y390380D01*
X561880D01*
X562413Y390913D01*
Y391446D01*
X561880Y391979D01*
X560813D01*
X560280Y392512D01*
Y393046D01*
X560813Y393579D01*
X561880D01*
X562413Y393046D01*
X557081Y390913D02*
X557614Y390380D01*
X558681D01*
X559214Y390913D01*
Y393046D01*
X558681Y393579D01*
X557614D01*
X557081Y393046D01*
X556015Y390380D02*
X553882D01*
Y390913D01*
X556015Y393046D01*
Y393579D01*
X431076Y390913D02*
X431609Y390380D01*
X432676D01*
X433209Y390913D01*
Y393046D01*
X432676Y393579D01*
X431609D01*
X431076Y393046D01*
X427877Y390380D02*
X430010D01*
Y391979D01*
X428943Y391446D01*
X428410D01*
X427877Y391979D01*
Y393046D01*
X428410Y393579D01*
X429476D01*
X430010Y393046D01*
X426811Y394112D02*
X424678D01*
X421479Y390380D02*
X423612D01*
Y393579D01*
X421479D01*
X423612Y391979D02*
X422545D01*
X418280Y390913D02*
X418813Y390380D01*
X419880D01*
X420413Y390913D01*
Y391446D01*
X419880Y391979D01*
X418813D01*
X418280Y392512D01*
Y393046D01*
X418813Y393579D01*
X419880D01*
X420413Y393046D01*
X415081Y390913D02*
X415614Y390380D01*
X416681D01*
X417214Y390913D01*
Y393046D01*
X416681Y393579D01*
X415614D01*
X415081Y393046D01*
X411882Y390380D02*
X412949Y390913D01*
X414015Y391979D01*
Y393046D01*
X413482Y393579D01*
X412415D01*
X411882Y393046D01*
Y392512D01*
X412415Y391979D01*
X414015D01*
X289076Y390913D02*
X289609Y390380D01*
X290675D01*
X291209Y390913D01*
Y393046D01*
X290675Y393579D01*
X289609D01*
X289076Y393046D01*
X285877Y390380D02*
X288010D01*
Y391979D01*
X286943Y391446D01*
X286410D01*
X285877Y391979D01*
Y393046D01*
X286410Y393579D01*
X287476D01*
X288010Y393046D01*
X284811Y394112D02*
X282678D01*
X279479Y390380D02*
X281612D01*
Y393579D01*
X279479D01*
X281612Y391979D02*
X280545D01*
X276280Y390913D02*
X276813Y390380D01*
X277880D01*
X278413Y390913D01*
Y391446D01*
X277880Y391979D01*
X276813D01*
X276280Y392512D01*
Y393046D01*
X276813Y393579D01*
X277880D01*
X278413Y393046D01*
X273081Y390913D02*
X273614Y390380D01*
X274681D01*
X275214Y390913D01*
Y393046D01*
X274681Y393579D01*
X273614D01*
X273081Y393046D01*
X269882Y390380D02*
X272015D01*
Y391979D01*
X270949Y391446D01*
X270415D01*
X269882Y391979D01*
Y393046D01*
X270415Y393579D01*
X271482D01*
X272015Y393046D01*
X230924Y181008D02*
X230391Y181542D01*
X229325D01*
X228791Y181008D01*
Y178876D01*
X229325Y178342D01*
X230391D01*
X230924Y178876D01*
X234123Y181542D02*
X231990D01*
Y179942D01*
X233057Y180475D01*
X233590D01*
X234123Y179942D01*
Y178876D01*
X233590Y178342D01*
X232523D01*
X231990Y178876D01*
X235189Y177809D02*
X237322D01*
X240521Y181542D02*
X238388D01*
Y178342D01*
X240521D01*
X238388Y179942D02*
X239455D01*
X243720Y181008D02*
X243187Y181542D01*
X242120D01*
X241587Y181008D01*
Y180475D01*
X242120Y179942D01*
X243187D01*
X243720Y179409D01*
Y178876D01*
X243187Y178342D01*
X242120D01*
X241587Y178876D01*
X246919Y181008D02*
X246386Y181542D01*
X245319D01*
X244786Y181008D01*
Y178876D01*
X245319Y178342D01*
X246386D01*
X246919Y178876D01*
X249585Y178342D02*
Y181542D01*
X247985Y179942D01*
X250118D01*
X372924Y181008D02*
X372391Y181542D01*
X371324D01*
X370791Y181008D01*
Y178876D01*
X371324Y178342D01*
X372391D01*
X372924Y178876D01*
X376123Y181542D02*
X373990D01*
Y179942D01*
X375057Y180475D01*
X375590D01*
X376123Y179942D01*
Y178876D01*
X375590Y178342D01*
X374523D01*
X373990Y178876D01*
X377189Y177809D02*
X379322D01*
X382521Y181542D02*
X380388D01*
Y178342D01*
X382521D01*
X380388Y179942D02*
X381455D01*
X385720Y181008D02*
X385187Y181542D01*
X384120D01*
X383587Y181008D01*
Y180475D01*
X384120Y179942D01*
X385187D01*
X385720Y179409D01*
Y178876D01*
X385187Y178342D01*
X384120D01*
X383587Y178876D01*
X388919Y181008D02*
X388386Y181542D01*
X387319D01*
X386786Y181008D01*
Y178876D01*
X387319Y178342D01*
X388386D01*
X388919Y178876D01*
X389985Y181008D02*
X390518Y181542D01*
X391585D01*
X392118Y181008D01*
Y180475D01*
X391585Y179942D01*
X391052D01*
X391585D01*
X392118Y179409D01*
Y178876D01*
X391585Y178342D01*
X390518D01*
X389985Y178876D01*
X514924Y181008D02*
X514391Y181542D01*
X513324D01*
X512791Y181008D01*
Y178876D01*
X513324Y178342D01*
X514391D01*
X514924Y178876D01*
X518123Y181542D02*
X515990D01*
Y179942D01*
X517057Y180475D01*
X517590D01*
X518123Y179942D01*
Y178876D01*
X517590Y178342D01*
X516524D01*
X515990Y178876D01*
X519189Y177809D02*
X521322D01*
X524521Y181542D02*
X522388D01*
Y178342D01*
X524521D01*
X522388Y179942D02*
X523455D01*
X527720Y181008D02*
X527187Y181542D01*
X526120D01*
X525587Y181008D01*
Y180475D01*
X526120Y179942D01*
X527187D01*
X527720Y179409D01*
Y178876D01*
X527187Y178342D01*
X526120D01*
X525587Y178876D01*
X530919Y181008D02*
X530386Y181542D01*
X529319D01*
X528786Y181008D01*
Y178876D01*
X529319Y178342D01*
X530386D01*
X530919Y178876D01*
X534118Y178342D02*
X531985D01*
X534118Y180475D01*
Y181008D01*
X533585Y181542D01*
X532518D01*
X531985Y181008D01*
X656924D02*
X656391Y181542D01*
X655325D01*
X654791Y181008D01*
Y178876D01*
X655325Y178342D01*
X656391D01*
X656924Y178876D01*
X660123Y181542D02*
X657990D01*
Y179942D01*
X659057Y180475D01*
X659590D01*
X660123Y179942D01*
Y178876D01*
X659590Y178342D01*
X658524D01*
X657990Y178876D01*
X661189Y177809D02*
X663322D01*
X666521Y181542D02*
X664388D01*
Y178342D01*
X666521D01*
X664388Y179942D02*
X665455D01*
X669720Y181008D02*
X669187Y181542D01*
X668120D01*
X667587Y181008D01*
Y180475D01*
X668120Y179942D01*
X669187D01*
X669720Y179409D01*
Y178876D01*
X669187Y178342D01*
X668120D01*
X667587Y178876D01*
X672919Y181008D02*
X672386Y181542D01*
X671319D01*
X670786Y181008D01*
Y178876D01*
X671319Y178342D01*
X672386D01*
X672919Y178876D01*
X673985Y178342D02*
X675051D01*
X674518D01*
Y181542D01*
X673985Y181008D01*
X654261Y385819D02*
X654794Y385285D01*
X655861D01*
X656394Y385819D01*
Y387951D01*
X655861Y388484D01*
X654794D01*
X654261Y387951D01*
X651595Y388484D02*
Y385285D01*
X653195Y386885D01*
X651062D01*
X649996Y389017D02*
X647863D01*
X644664Y385285D02*
X646797D01*
Y388484D01*
X644664D01*
X646797Y386885D02*
X645730D01*
X641465Y385819D02*
X641998Y385285D01*
X643065D01*
X643598Y385819D01*
Y386352D01*
X643065Y386885D01*
X641998D01*
X641465Y387418D01*
Y387951D01*
X641998Y388484D01*
X643065D01*
X643598Y387951D01*
X638266Y385819D02*
X638799Y385285D01*
X639866D01*
X640399Y385819D01*
Y387951D01*
X639866Y388484D01*
X638799D01*
X638266Y387951D01*
X637200Y385819D02*
X636667Y385285D01*
X635600D01*
X635067Y385819D01*
Y386352D01*
X635600Y386885D01*
X635067Y387418D01*
Y387951D01*
X635600Y388484D01*
X636667D01*
X637200Y387951D01*
Y387418D01*
X636667Y386885D01*
X637200Y386352D01*
Y385819D01*
X636667Y386885D02*
X635600D01*
X512261Y385819D02*
X512794Y385285D01*
X513861D01*
X514394Y385819D01*
Y387951D01*
X513861Y388484D01*
X512794D01*
X512261Y387951D01*
X509595Y388484D02*
Y385285D01*
X511195Y386885D01*
X509062D01*
X507996Y389017D02*
X505863D01*
X502664Y385285D02*
X504797D01*
Y388484D01*
X502664D01*
X504797Y386885D02*
X503730D01*
X499465Y385819D02*
X499998Y385285D01*
X501065D01*
X501598Y385819D01*
Y386352D01*
X501065Y386885D01*
X499998D01*
X499465Y387418D01*
Y387951D01*
X499998Y388484D01*
X501065D01*
X501598Y387951D01*
X496266Y385819D02*
X496799Y385285D01*
X497866D01*
X498399Y385819D01*
Y387951D01*
X497866Y388484D01*
X496799D01*
X496266Y387951D01*
X495200Y385285D02*
X493067D01*
Y385819D01*
X495200Y387951D01*
Y388484D01*
X370261Y385819D02*
X370794Y385285D01*
X371861D01*
X372394Y385819D01*
Y387951D01*
X371861Y388484D01*
X370794D01*
X370261Y387951D01*
X367595Y388484D02*
Y385285D01*
X369195Y386885D01*
X367062D01*
X365996Y389017D02*
X363863D01*
X360664Y385285D02*
X362797D01*
Y388484D01*
X360664D01*
X362797Y386885D02*
X361731D01*
X357465Y385819D02*
X357998Y385285D01*
X359065D01*
X359598Y385819D01*
Y386352D01*
X359065Y386885D01*
X357998D01*
X357465Y387418D01*
Y387951D01*
X357998Y388484D01*
X359065D01*
X359598Y387951D01*
X354266Y385819D02*
X354799Y385285D01*
X355866D01*
X356399Y385819D01*
Y387951D01*
X355866Y388484D01*
X354799D01*
X354266Y387951D01*
X351067Y385285D02*
X352134Y385819D01*
X353200Y386885D01*
Y387951D01*
X352667Y388484D01*
X351600D01*
X351067Y387951D01*
Y387418D01*
X351600Y386885D01*
X353200D01*
X228261Y385819D02*
X228794Y385285D01*
X229861D01*
X230394Y385819D01*
Y387951D01*
X229861Y388484D01*
X228794D01*
X228261Y387951D01*
X225595Y388484D02*
Y385285D01*
X227195Y386885D01*
X225062D01*
X223996Y389017D02*
X221863D01*
X218664Y385285D02*
X220797D01*
Y388484D01*
X218664D01*
X220797Y386885D02*
X219730D01*
X215465Y385819D02*
X215998Y385285D01*
X217065D01*
X217598Y385819D01*
Y386352D01*
X217065Y386885D01*
X215998D01*
X215465Y387418D01*
Y387951D01*
X215998Y388484D01*
X217065D01*
X217598Y387951D01*
X212266Y385819D02*
X212799Y385285D01*
X213866D01*
X214399Y385819D01*
Y387951D01*
X213866Y388484D01*
X212799D01*
X212266Y387951D01*
X209067Y385285D02*
X211200D01*
Y386885D01*
X210134Y386352D01*
X209600D01*
X209067Y386885D01*
Y387951D01*
X209600Y388484D01*
X210667D01*
X211200Y387951D01*
X291739Y186103D02*
X291206Y186636D01*
X290139D01*
X289606Y186103D01*
Y183970D01*
X290139Y183437D01*
X291206D01*
X291739Y183970D01*
X294405Y183437D02*
Y186636D01*
X292805Y185037D01*
X294938D01*
X296004Y182904D02*
X298137D01*
X301336Y186636D02*
X299203D01*
Y183437D01*
X301336D01*
X299203Y185037D02*
X300270D01*
X304535Y186103D02*
X304002Y186636D01*
X302935D01*
X302402Y186103D01*
Y185570D01*
X302935Y185037D01*
X304002D01*
X304535Y184503D01*
Y183970D01*
X304002Y183437D01*
X302935D01*
X302402Y183970D01*
X307734Y186103D02*
X307201Y186636D01*
X306134D01*
X305601Y186103D01*
Y183970D01*
X306134Y183437D01*
X307201D01*
X307734Y183970D01*
X310400Y183437D02*
Y186636D01*
X308800Y185037D01*
X310933D01*
X433739Y186103D02*
X433206Y186636D01*
X432139D01*
X431606Y186103D01*
Y183970D01*
X432139Y183437D01*
X433206D01*
X433739Y183970D01*
X436405Y183437D02*
Y186636D01*
X434805Y185037D01*
X436938D01*
X438004Y182904D02*
X440137D01*
X443336Y186636D02*
X441203D01*
Y183437D01*
X443336D01*
X441203Y185037D02*
X442270D01*
X446535Y186103D02*
X446002Y186636D01*
X444935D01*
X444402Y186103D01*
Y185570D01*
X444935Y185037D01*
X446002D01*
X446535Y184503D01*
Y183970D01*
X446002Y183437D01*
X444935D01*
X444402Y183970D01*
X449734Y186103D02*
X449201Y186636D01*
X448134D01*
X447601Y186103D01*
Y183970D01*
X448134Y183437D01*
X449201D01*
X449734Y183970D01*
X450800Y186103D02*
X451333Y186636D01*
X452400D01*
X452933Y186103D01*
Y185570D01*
X452400Y185037D01*
X451866D01*
X452400D01*
X452933Y184503D01*
Y183970D01*
X452400Y183437D01*
X451333D01*
X450800Y183970D01*
X575739Y186103D02*
X575206Y186636D01*
X574139D01*
X573606Y186103D01*
Y183970D01*
X574139Y183437D01*
X575206D01*
X575739Y183970D01*
X578405Y183437D02*
Y186636D01*
X576805Y185037D01*
X578938D01*
X580004Y182904D02*
X582137D01*
X585336Y186636D02*
X583203D01*
Y183437D01*
X585336D01*
X583203Y185037D02*
X584270D01*
X588535Y186103D02*
X588002Y186636D01*
X586935D01*
X586402Y186103D01*
Y185570D01*
X586935Y185037D01*
X588002D01*
X588535Y184503D01*
Y183970D01*
X588002Y183437D01*
X586935D01*
X586402Y183970D01*
X591734Y186103D02*
X591201Y186636D01*
X590134D01*
X589601Y186103D01*
Y183970D01*
X590134Y183437D01*
X591201D01*
X591734Y183970D01*
X594933Y183437D02*
X592800D01*
X594933Y185570D01*
Y186103D01*
X594400Y186636D01*
X593333D01*
X592800Y186103D01*
X717739D02*
X717206Y186636D01*
X716140D01*
X715606Y186103D01*
Y183970D01*
X716140Y183437D01*
X717206D01*
X717739Y183970D01*
X720405Y183437D02*
Y186636D01*
X718805Y185037D01*
X720938D01*
X722004Y182904D02*
X724137D01*
X727336Y186636D02*
X725203D01*
Y183437D01*
X727336D01*
X725203Y185037D02*
X726269D01*
X730535Y186103D02*
X730002Y186636D01*
X728935D01*
X728402Y186103D01*
Y185570D01*
X728935Y185037D01*
X730002D01*
X730535Y184503D01*
Y183970D01*
X730002Y183437D01*
X728935D01*
X728402Y183970D01*
X733734Y186103D02*
X733201Y186636D01*
X732134D01*
X731601Y186103D01*
Y183970D01*
X732134Y183437D01*
X733201D01*
X733734Y183970D01*
X734800Y183437D02*
X735866D01*
X735333D01*
Y186636D01*
X734800Y186103D01*
X654576Y351818D02*
X655109Y351285D01*
X656176D01*
X656709Y351818D01*
Y353951D01*
X656176Y354484D01*
X655109D01*
X654576Y353951D01*
X653510Y351818D02*
X652977Y351285D01*
X651910D01*
X651377Y351818D01*
Y352352D01*
X651910Y352885D01*
X652443D01*
X651910D01*
X651377Y353418D01*
Y353951D01*
X651910Y354484D01*
X652977D01*
X653510Y353951D01*
X650311Y355017D02*
X648178D01*
X644979Y351285D02*
X647112D01*
Y354484D01*
X644979D01*
X647112Y352885D02*
X646045D01*
X641780Y351818D02*
X642313Y351285D01*
X643380D01*
X643913Y351818D01*
Y352352D01*
X643380Y352885D01*
X642313D01*
X641780Y353418D01*
Y353951D01*
X642313Y354484D01*
X643380D01*
X643913Y353951D01*
X638581Y351818D02*
X639114Y351285D01*
X640181D01*
X640714Y351818D01*
Y353951D01*
X640181Y354484D01*
X639114D01*
X638581Y353951D01*
X637515Y351818D02*
X636982Y351285D01*
X635915D01*
X635382Y351818D01*
Y352352D01*
X635915Y352885D01*
X635382Y353418D01*
Y353951D01*
X635915Y354484D01*
X636982D01*
X637515Y353951D01*
Y353418D01*
X636982Y352885D01*
X637515Y352352D01*
Y351818D01*
X636982Y352885D02*
X635915D01*
X512576Y351818D02*
X513109Y351285D01*
X514176D01*
X514709Y351818D01*
Y353951D01*
X514176Y354484D01*
X513109D01*
X512576Y353951D01*
X511510Y351818D02*
X510977Y351285D01*
X509910D01*
X509377Y351818D01*
Y352352D01*
X509910Y352885D01*
X510443D01*
X509910D01*
X509377Y353418D01*
Y353951D01*
X509910Y354484D01*
X510977D01*
X511510Y353951D01*
X508311Y355017D02*
X506178D01*
X502979Y351285D02*
X505112D01*
Y354484D01*
X502979D01*
X505112Y352885D02*
X504045D01*
X499780Y351818D02*
X500313Y351285D01*
X501380D01*
X501913Y351818D01*
Y352352D01*
X501380Y352885D01*
X500313D01*
X499780Y353418D01*
Y353951D01*
X500313Y354484D01*
X501380D01*
X501913Y353951D01*
X496581Y351818D02*
X497114Y351285D01*
X498181D01*
X498714Y351818D01*
Y353951D01*
X498181Y354484D01*
X497114D01*
X496581Y353951D01*
X495515Y351285D02*
X493382D01*
Y351818D01*
X495515Y353951D01*
Y354484D01*
X370576Y351818D02*
X371109Y351285D01*
X372176D01*
X372709Y351818D01*
Y353951D01*
X372176Y354484D01*
X371109D01*
X370576Y353951D01*
X369510Y351818D02*
X368976Y351285D01*
X367910D01*
X367377Y351818D01*
Y352352D01*
X367910Y352885D01*
X368443D01*
X367910D01*
X367377Y353418D01*
Y353951D01*
X367910Y354484D01*
X368976D01*
X369510Y353951D01*
X366311Y355017D02*
X364178D01*
X360979Y351285D02*
X363112D01*
Y354484D01*
X360979D01*
X363112Y352885D02*
X362045D01*
X357780Y351818D02*
X358313Y351285D01*
X359380D01*
X359913Y351818D01*
Y352352D01*
X359380Y352885D01*
X358313D01*
X357780Y353418D01*
Y353951D01*
X358313Y354484D01*
X359380D01*
X359913Y353951D01*
X354581Y351818D02*
X355114Y351285D01*
X356181D01*
X356714Y351818D01*
Y353951D01*
X356181Y354484D01*
X355114D01*
X354581Y353951D01*
X351382Y351285D02*
X352449Y351818D01*
X353515Y352885D01*
Y353951D01*
X352982Y354484D01*
X351915D01*
X351382Y353951D01*
Y353418D01*
X351915Y352885D01*
X353515D01*
X228576Y351818D02*
X229109Y351285D01*
X230175D01*
X230709Y351818D01*
Y353951D01*
X230175Y354484D01*
X229109D01*
X228576Y353951D01*
X227510Y351818D02*
X226976Y351285D01*
X225910D01*
X225377Y351818D01*
Y352352D01*
X225910Y352885D01*
X226443D01*
X225910D01*
X225377Y353418D01*
Y353951D01*
X225910Y354484D01*
X226976D01*
X227510Y353951D01*
X224311Y355017D02*
X222178D01*
X218979Y351285D02*
X221112D01*
Y354484D01*
X218979D01*
X221112Y352885D02*
X220045D01*
X215780Y351818D02*
X216313Y351285D01*
X217380D01*
X217913Y351818D01*
Y352352D01*
X217380Y352885D01*
X216313D01*
X215780Y353418D01*
Y353951D01*
X216313Y354484D01*
X217380D01*
X217913Y353951D01*
X212581Y351818D02*
X213114Y351285D01*
X214181D01*
X214714Y351818D01*
Y353951D01*
X214181Y354484D01*
X213114D01*
X212581Y353951D01*
X209382Y351285D02*
X211515D01*
Y352885D01*
X210449Y352352D01*
X209915D01*
X209382Y352885D01*
Y353951D01*
X209915Y354484D01*
X210982D01*
X211515Y353951D01*
X291424Y220103D02*
X290891Y220636D01*
X289825D01*
X289291Y220103D01*
Y217970D01*
X289825Y217437D01*
X290891D01*
X291424Y217970D01*
X292490Y220103D02*
X293023Y220636D01*
X294090D01*
X294623Y220103D01*
Y219570D01*
X294090Y219037D01*
X293557D01*
X294090D01*
X294623Y218503D01*
Y217970D01*
X294090Y217437D01*
X293023D01*
X292490Y217970D01*
X295689Y216904D02*
X297822D01*
X301021Y220636D02*
X298888D01*
Y217437D01*
X301021D01*
X298888Y219037D02*
X299955D01*
X304220Y220103D02*
X303687Y220636D01*
X302620D01*
X302087Y220103D01*
Y219570D01*
X302620Y219037D01*
X303687D01*
X304220Y218503D01*
Y217970D01*
X303687Y217437D01*
X302620D01*
X302087Y217970D01*
X307419Y220103D02*
X306886Y220636D01*
X305819D01*
X305286Y220103D01*
Y217970D01*
X305819Y217437D01*
X306886D01*
X307419Y217970D01*
X310085Y217437D02*
Y220636D01*
X308485Y219037D01*
X310618D01*
X433424Y220103D02*
X432891Y220636D01*
X431824D01*
X431291Y220103D01*
Y217970D01*
X431824Y217437D01*
X432891D01*
X433424Y217970D01*
X434490Y220103D02*
X435023Y220636D01*
X436090D01*
X436623Y220103D01*
Y219570D01*
X436090Y219037D01*
X435557D01*
X436090D01*
X436623Y218503D01*
Y217970D01*
X436090Y217437D01*
X435023D01*
X434490Y217970D01*
X437689Y216904D02*
X439822D01*
X443021Y220636D02*
X440888D01*
Y217437D01*
X443021D01*
X440888Y219037D02*
X441955D01*
X446220Y220103D02*
X445687Y220636D01*
X444620D01*
X444087Y220103D01*
Y219570D01*
X444620Y219037D01*
X445687D01*
X446220Y218503D01*
Y217970D01*
X445687Y217437D01*
X444620D01*
X444087Y217970D01*
X449419Y220103D02*
X448886Y220636D01*
X447819D01*
X447286Y220103D01*
Y217970D01*
X447819Y217437D01*
X448886D01*
X449419Y217970D01*
X450485Y220103D02*
X451018Y220636D01*
X452085D01*
X452618Y220103D01*
Y219570D01*
X452085Y219037D01*
X451551D01*
X452085D01*
X452618Y218503D01*
Y217970D01*
X452085Y217437D01*
X451018D01*
X450485Y217970D01*
X575424Y220103D02*
X574891Y220636D01*
X573825D01*
X573291Y220103D01*
Y217970D01*
X573825Y217437D01*
X574891D01*
X575424Y217970D01*
X576490Y220103D02*
X577024Y220636D01*
X578090D01*
X578623Y220103D01*
Y219570D01*
X578090Y219037D01*
X577557D01*
X578090D01*
X578623Y218503D01*
Y217970D01*
X578090Y217437D01*
X577024D01*
X576490Y217970D01*
X579689Y216904D02*
X581822D01*
X585021Y220636D02*
X582888D01*
Y217437D01*
X585021D01*
X582888Y219037D02*
X583955D01*
X588220Y220103D02*
X587687Y220636D01*
X586620D01*
X586087Y220103D01*
Y219570D01*
X586620Y219037D01*
X587687D01*
X588220Y218503D01*
Y217970D01*
X587687Y217437D01*
X586620D01*
X586087Y217970D01*
X591419Y220103D02*
X590886Y220636D01*
X589819D01*
X589286Y220103D01*
Y217970D01*
X589819Y217437D01*
X590886D01*
X591419Y217970D01*
X594618Y217437D02*
X592485D01*
X594618Y219570D01*
Y220103D01*
X594085Y220636D01*
X593018D01*
X592485Y220103D01*
X717424D02*
X716891Y220636D01*
X715825D01*
X715291Y220103D01*
Y217970D01*
X715825Y217437D01*
X716891D01*
X717424Y217970D01*
X718490Y220103D02*
X719024Y220636D01*
X720090D01*
X720623Y220103D01*
Y219570D01*
X720090Y219037D01*
X719557D01*
X720090D01*
X720623Y218503D01*
Y217970D01*
X720090Y217437D01*
X719024D01*
X718490Y217970D01*
X721689Y216904D02*
X723822D01*
X727021Y220636D02*
X724888D01*
Y217437D01*
X727021D01*
X724888Y219037D02*
X725955D01*
X730220Y220103D02*
X729687Y220636D01*
X728620D01*
X728087Y220103D01*
Y219570D01*
X728620Y219037D01*
X729687D01*
X730220Y218503D01*
Y217970D01*
X729687Y217437D01*
X728620D01*
X728087Y217970D01*
X733419Y220103D02*
X732886Y220636D01*
X731819D01*
X731286Y220103D01*
Y217970D01*
X731819Y217437D01*
X732886D01*
X733419Y217970D01*
X734485Y217437D02*
X735552D01*
X735018D01*
Y220636D01*
X734485Y220103D01*
X774633Y169666D02*
X774099Y170199D01*
X773033D01*
X772500Y169666D01*
Y167533D01*
X773033Y167000D01*
X774099D01*
X774633Y167533D01*
X777832Y167000D02*
X775699D01*
X777832Y169133D01*
Y169666D01*
X777298Y170199D01*
X776232D01*
X775699Y169666D01*
X775133Y355666D02*
X774600Y356199D01*
X773533D01*
X773000Y355666D01*
Y353533D01*
X773533Y353000D01*
X774600D01*
X775133Y353533D01*
X776199Y353000D02*
X777265D01*
X776732D01*
Y356199D01*
X776199Y355666D01*
M02*
