G04 Layer_Color=65535*
%FSLAX23Y23*%
%MOIN*%
G70*
G01*
G75*
%ADD24C,0.010*%
%ADD36C,0.008*%
%ADD37C,0.010*%
%ADD38C,0.016*%
%ADD39C,0.024*%
%ADD40C,0.005*%
D24*
X4720Y4220D02*
X5088D01*
Y4900D01*
X4720D02*
X5088D01*
X4720Y4220D02*
Y4900D01*
X4508Y4575D02*
X4522D01*
X4508Y4394D02*
X4522D01*
X4608D02*
X4622D01*
X4608Y4575D02*
X4622D01*
X4508Y4394D02*
Y4575D01*
X4622Y4394D02*
Y4575D01*
X3760Y4220D02*
X4128D01*
Y4900D01*
X3760D02*
X4128D01*
X3760Y4220D02*
Y4900D01*
X3548Y4575D02*
X3562D01*
X3548Y4394D02*
X3562D01*
X3648D02*
X3662D01*
X3648Y4575D02*
X3662D01*
X3548Y4394D02*
Y4575D01*
X3662Y4394D02*
Y4575D01*
X2810Y4220D02*
X3178D01*
Y4900D01*
X2810D02*
X3178D01*
X2810Y4220D02*
Y4900D01*
X2598Y4575D02*
X2612D01*
X2598Y4394D02*
X2612D01*
X2698D02*
X2712D01*
X2698Y4575D02*
X2712D01*
X2598Y4394D02*
Y4575D01*
X2712Y4394D02*
Y4575D01*
X1658D02*
X1672D01*
X1658Y4394D02*
X1672D01*
X1758D02*
X1772D01*
X1758Y4575D02*
X1772D01*
X1658Y4394D02*
Y4575D01*
X1772Y4394D02*
Y4575D01*
X1870Y4220D02*
X2238D01*
Y4900D01*
X1870D02*
X2238D01*
X1870Y4220D02*
Y4900D01*
X5288Y1425D02*
X5302D01*
X5288Y1606D02*
X5302D01*
X5188D02*
X5202D01*
X5188Y1425D02*
X5202D01*
X5302D02*
Y1606D01*
X5188Y1425D02*
Y1606D01*
X4722Y1780D02*
X5090D01*
X4722Y1100D02*
Y1780D01*
Y1100D02*
X5090D01*
Y1780D01*
X3762D02*
X4130D01*
X3762Y1100D02*
Y1780D01*
Y1100D02*
X4130D01*
Y1780D01*
X4328Y1425D02*
X4342D01*
X4328Y1606D02*
X4342D01*
X4228D02*
X4242D01*
X4228Y1425D02*
X4242D01*
X4342D02*
Y1606D01*
X4228Y1425D02*
Y1606D01*
X2812Y1780D02*
X3180D01*
X2812Y1100D02*
Y1780D01*
Y1100D02*
X3180D01*
Y1780D01*
X3378Y1425D02*
X3392D01*
X3378Y1606D02*
X3392D01*
X3278D02*
X3292D01*
X3278Y1425D02*
X3292D01*
X3392D02*
Y1606D01*
X3278Y1425D02*
Y1606D01*
X1872Y1780D02*
X2240D01*
X1872Y1100D02*
Y1780D01*
Y1100D02*
X2240D01*
Y1780D01*
X2438Y1424D02*
X2452D01*
X2438Y1605D02*
X2452D01*
X2338D02*
X2352D01*
X2338Y1424D02*
X2352D01*
X2452D02*
Y1605D01*
X2338Y1424D02*
Y1605D01*
D36*
X4540Y1761D02*
G03*
X4527Y1761I-6J0D01*
G01*
X5270Y4239D02*
G03*
X5283Y4239I6J0D01*
G01*
X4310D02*
G03*
X4323Y4239I6J0D01*
G01*
X3360D02*
G03*
X3373Y4239I6J0D01*
G01*
X2420D02*
G03*
X2433Y4239I6J0D01*
G01*
X3580Y1761D02*
G03*
X3567Y1761I-6J0D01*
G01*
X2630D02*
G03*
X2617Y1761I-6J0D01*
G01*
X1690Y1761D02*
G03*
X1677Y1761I-6J0D01*
G01*
X4664Y1465D02*
Y1595D01*
X4536Y1465D02*
Y1595D01*
X3704Y1465D02*
Y1595D01*
X3576Y1465D02*
Y1595D01*
X2754Y1465D02*
Y1595D01*
X2626Y1465D02*
Y1595D01*
X1814Y1465D02*
Y1594D01*
X1686Y1465D02*
Y1594D01*
X4566Y1761D02*
Y1863D01*
X4501D02*
X4566D01*
X4501Y1761D02*
Y1863D01*
Y1761D02*
X4527D01*
X4540D02*
X4566D01*
X5244Y4137D02*
Y4239D01*
Y4137D02*
X5309D01*
Y4239D01*
X5283D02*
X5309D01*
X5244D02*
X5270D01*
X4284Y4137D02*
Y4239D01*
Y4137D02*
X4349D01*
Y4239D01*
X4323D02*
X4349D01*
X4284D02*
X4310D01*
X3334Y4137D02*
Y4239D01*
Y4137D02*
X3399D01*
Y4239D01*
X3373D02*
X3399D01*
X3334D02*
X3360D01*
X2394Y4137D02*
Y4239D01*
Y4137D02*
X2459D01*
Y4239D01*
X2433D02*
X2459D01*
X2394D02*
X2420D01*
X5992Y2059D02*
Y2181D01*
X5918Y2059D02*
Y2181D01*
Y2059D02*
X5992D01*
X5918Y2181D02*
X5992D01*
X3334Y2985D02*
X3366D01*
X3334Y3045D02*
X3366D01*
X4350Y2050D02*
Y3450D01*
X4550Y2050D02*
Y3450D01*
X4350Y2050D02*
X4550D01*
X4350Y3450D02*
X4550D01*
X5639Y3488D02*
X6060D01*
X5639D02*
Y3508D01*
X6060Y3488D02*
Y3498D01*
Y3892D02*
Y3902D01*
X5639Y3882D02*
Y3902D01*
X6060D01*
X5644Y2293D02*
X6065D01*
X5644D02*
Y2313D01*
X6065Y2293D02*
Y2303D01*
Y2697D02*
Y2707D01*
X5644Y2687D02*
Y2707D01*
X6065D01*
X2296Y4405D02*
Y4535D01*
X2424Y4405D02*
Y4535D01*
X3236Y4405D02*
Y4535D01*
X3364Y4405D02*
Y4535D01*
X4186Y4405D02*
Y4535D01*
X4314Y4405D02*
Y4535D01*
X5146Y4405D02*
Y4535D01*
X5274Y4405D02*
Y4535D01*
X5629Y3332D02*
Y3348D01*
X5601Y3332D02*
Y3348D01*
X3037Y3063D02*
X3163D01*
X3037Y2867D02*
X3163D01*
X3037D02*
Y3063D01*
X3163Y2867D02*
Y3063D01*
X5755Y3349D02*
Y3381D01*
X5695Y3349D02*
Y3381D01*
X5982Y3264D02*
Y3386D01*
X5908Y3264D02*
Y3386D01*
Y3264D02*
X5982D01*
X5908Y3386D02*
X5982D01*
X5765Y2147D02*
Y2179D01*
X5705Y2147D02*
Y2179D01*
X5608Y2124D02*
X5623D01*
X5608Y2096D02*
X5623D01*
X5569Y2245D02*
X5601D01*
X5569Y2185D02*
X5601D01*
X3281Y2907D02*
Y2923D01*
X3309Y2907D02*
Y2923D01*
X3372Y2954D02*
X3388D01*
X3372Y2926D02*
X3388D01*
X2960Y2734D02*
Y2766D01*
X3020Y2734D02*
Y2766D01*
X2700Y2950D02*
X2900D01*
Y3050D01*
X2700D02*
X2900D01*
X2700Y2950D02*
Y3050D01*
X2649Y2992D02*
Y3008D01*
X2621Y2992D02*
Y3008D01*
X3606Y1761D02*
Y1863D01*
X3541D02*
X3606D01*
X3541Y1761D02*
Y1863D01*
Y1761D02*
X3567D01*
X3580D02*
X3606D01*
X2656D02*
Y1863D01*
X2591D02*
X2656D01*
X2591Y1761D02*
Y1863D01*
Y1761D02*
X2617D01*
X2630D02*
X2656D01*
X1716Y1761D02*
Y1863D01*
X1652D02*
X1716D01*
X1652Y1761D02*
Y1863D01*
Y1761D02*
X1677D01*
X1690D02*
X1716D01*
D37*
X6045Y2051D02*
G03*
X6045Y2051I-5J0D01*
G01*
X6118Y3530D02*
G03*
X6118Y3530I-5J0D01*
G01*
X6123Y2335D02*
G03*
X6123Y2335I-5J0D01*
G01*
X3212Y2857D02*
G03*
X3212Y2857I-5J0D01*
G01*
X6035Y3256D02*
G03*
X6035Y3256I-5J0D01*
G01*
D38*
X5969Y2090D02*
G03*
X5969Y2090I-8J0D01*
G01*
X5959Y3295D02*
G03*
X5959Y3295I-8J0D01*
G01*
D39*
X3135Y2906D02*
G03*
X3135Y2906I-12J0D01*
G01*
D40*
X5795Y3455D02*
X5790Y3460D01*
X5780D01*
X5775Y3455D01*
Y3435D01*
X5780Y3430D01*
X5790D01*
X5795Y3435D01*
X5805Y3430D02*
X5815D01*
X5810D01*
Y3460D01*
X5805Y3455D01*
X5805Y2265D02*
X5800Y2270D01*
X5790D01*
X5785Y2265D01*
Y2245D01*
X5790Y2240D01*
X5800D01*
X5805Y2245D01*
X5835Y2240D02*
X5815D01*
X5835Y2260D01*
Y2265D01*
X5830Y2270D01*
X5820D01*
X5815Y2265D01*
X3294Y3104D02*
X3289Y3109D01*
X3279D01*
X3274Y3104D01*
Y3084D01*
X3279Y3079D01*
X3289D01*
X3294Y3084D01*
X3304Y3104D02*
X3309Y3109D01*
X3319D01*
X3324Y3104D01*
Y3099D01*
X3319Y3094D01*
X3314D01*
X3319D01*
X3324Y3089D01*
Y3084D01*
X3319Y3079D01*
X3309D01*
X3304Y3084D01*
X5452Y2220D02*
X5447Y2225D01*
X5437D01*
X5432Y2220D01*
Y2200D01*
X5437Y2195D01*
X5447D01*
X5452Y2200D01*
X5477Y2195D02*
Y2225D01*
X5462Y2210D01*
X5482D01*
X3075Y2760D02*
X3070Y2765D01*
X3060D01*
X3055Y2760D01*
Y2740D01*
X3060Y2735D01*
X3070D01*
X3075Y2740D01*
X3105Y2765D02*
X3085D01*
Y2750D01*
X3095Y2755D01*
X3100D01*
X3105Y2750D01*
Y2740D01*
X3100Y2735D01*
X3090D01*
X3085Y2740D01*
X5180Y1385D02*
Y1355D01*
X5195D01*
X5200Y1360D01*
Y1380D01*
X5195Y1385D01*
X5180D01*
X5210Y1355D02*
X5220D01*
X5215D01*
Y1385D01*
X5210Y1380D01*
X5235Y1350D02*
X5255D01*
X5285Y1385D02*
X5265D01*
Y1355D01*
X5285D01*
X5265Y1370D02*
X5275D01*
X5315Y1380D02*
X5310Y1385D01*
X5300D01*
X5295Y1380D01*
Y1375D01*
X5300Y1370D01*
X5310D01*
X5315Y1365D01*
Y1360D01*
X5310Y1355D01*
X5300D01*
X5295Y1360D01*
X5345Y1380D02*
X5340Y1385D01*
X5330D01*
X5325Y1380D01*
Y1360D01*
X5330Y1355D01*
X5340D01*
X5345Y1360D01*
X5355Y1355D02*
X5365D01*
X5360D01*
Y1385D01*
X5355Y1380D01*
X4210Y1385D02*
Y1355D01*
X4225D01*
X4230Y1360D01*
Y1380D01*
X4225Y1385D01*
X4210D01*
X4240Y1355D02*
X4250D01*
X4245D01*
Y1385D01*
X4240Y1380D01*
X4265Y1350D02*
X4285D01*
X4315Y1385D02*
X4295D01*
Y1355D01*
X4315D01*
X4295Y1370D02*
X4305D01*
X4345Y1380D02*
X4340Y1385D01*
X4330D01*
X4325Y1380D01*
Y1375D01*
X4330Y1370D01*
X4340D01*
X4345Y1365D01*
Y1360D01*
X4340Y1355D01*
X4330D01*
X4325Y1360D01*
X4375Y1380D02*
X4370Y1385D01*
X4360D01*
X4355Y1380D01*
Y1360D01*
X4360Y1355D01*
X4370D01*
X4375Y1360D01*
X4405Y1355D02*
X4385D01*
X4405Y1375D01*
Y1380D01*
X4400Y1385D01*
X4390D01*
X4385Y1380D01*
X3260Y1385D02*
Y1355D01*
X3275D01*
X3280Y1360D01*
Y1380D01*
X3275Y1385D01*
X3260D01*
X3290Y1355D02*
X3300D01*
X3295D01*
Y1385D01*
X3290Y1380D01*
X3315Y1350D02*
X3335D01*
X3365Y1385D02*
X3345D01*
Y1355D01*
X3365D01*
X3345Y1370D02*
X3355D01*
X3395Y1380D02*
X3390Y1385D01*
X3380D01*
X3375Y1380D01*
Y1375D01*
X3380Y1370D01*
X3390D01*
X3395Y1365D01*
Y1360D01*
X3390Y1355D01*
X3380D01*
X3375Y1360D01*
X3425Y1380D02*
X3420Y1385D01*
X3410D01*
X3405Y1380D01*
Y1360D01*
X3410Y1355D01*
X3420D01*
X3425Y1360D01*
X3435Y1380D02*
X3440Y1385D01*
X3450D01*
X3455Y1380D01*
Y1375D01*
X3450Y1370D01*
X3445D01*
X3450D01*
X3455Y1365D01*
Y1360D01*
X3450Y1355D01*
X3440D01*
X3435Y1360D01*
X2320Y1385D02*
Y1355D01*
X2335D01*
X2340Y1360D01*
Y1380D01*
X2335Y1385D01*
X2320D01*
X2350Y1355D02*
X2360D01*
X2355D01*
Y1385D01*
X2350Y1380D01*
X2375Y1350D02*
X2395D01*
X2425Y1385D02*
X2405D01*
Y1355D01*
X2425D01*
X2405Y1370D02*
X2415D01*
X2455Y1380D02*
X2450Y1385D01*
X2440D01*
X2435Y1380D01*
Y1375D01*
X2440Y1370D01*
X2450D01*
X2455Y1365D01*
Y1360D01*
X2450Y1355D01*
X2440D01*
X2435Y1360D01*
X2485Y1380D02*
X2480Y1385D01*
X2470D01*
X2465Y1380D01*
Y1360D01*
X2470Y1355D01*
X2480D01*
X2485Y1360D01*
X2510Y1355D02*
Y1385D01*
X2495Y1370D01*
X2515D01*
X1595Y4650D02*
Y4620D01*
X1610D01*
X1615Y4625D01*
Y4645D01*
X1610Y4650D01*
X1595D01*
X1625Y4620D02*
X1635D01*
X1630D01*
Y4650D01*
X1625Y4645D01*
X1650Y4615D02*
X1670D01*
X1700Y4650D02*
X1680D01*
Y4620D01*
X1700D01*
X1680Y4635D02*
X1690D01*
X1730Y4645D02*
X1725Y4650D01*
X1715D01*
X1710Y4645D01*
Y4640D01*
X1715Y4635D01*
X1725D01*
X1730Y4630D01*
Y4625D01*
X1725Y4620D01*
X1715D01*
X1710Y4625D01*
X1760Y4645D02*
X1755Y4650D01*
X1745D01*
X1740Y4645D01*
Y4625D01*
X1745Y4620D01*
X1755D01*
X1760Y4625D01*
X1790Y4650D02*
X1770D01*
Y4635D01*
X1780Y4640D01*
X1785D01*
X1790Y4635D01*
Y4625D01*
X1785Y4620D01*
X1775D01*
X1770Y4625D01*
X2535Y4650D02*
Y4620D01*
X2550D01*
X2555Y4625D01*
Y4645D01*
X2550Y4650D01*
X2535D01*
X2565Y4620D02*
X2575D01*
X2570D01*
Y4650D01*
X2565Y4645D01*
X2590Y4615D02*
X2610D01*
X2640Y4650D02*
X2620D01*
Y4620D01*
X2640D01*
X2620Y4635D02*
X2630D01*
X2670Y4645D02*
X2665Y4650D01*
X2655D01*
X2650Y4645D01*
Y4640D01*
X2655Y4635D01*
X2665D01*
X2670Y4630D01*
Y4625D01*
X2665Y4620D01*
X2655D01*
X2650Y4625D01*
X2700Y4645D02*
X2695Y4650D01*
X2685D01*
X2680Y4645D01*
Y4625D01*
X2685Y4620D01*
X2695D01*
X2700Y4625D01*
X2730Y4650D02*
X2720Y4645D01*
X2710Y4635D01*
Y4625D01*
X2715Y4620D01*
X2725D01*
X2730Y4625D01*
Y4630D01*
X2725Y4635D01*
X2710D01*
X3485Y4650D02*
Y4620D01*
X3500D01*
X3505Y4625D01*
Y4645D01*
X3500Y4650D01*
X3485D01*
X3515Y4620D02*
X3525D01*
X3520D01*
Y4650D01*
X3515Y4645D01*
X3540Y4615D02*
X3560D01*
X3590Y4650D02*
X3570D01*
Y4620D01*
X3590D01*
X3570Y4635D02*
X3580D01*
X3620Y4645D02*
X3615Y4650D01*
X3605D01*
X3600Y4645D01*
Y4640D01*
X3605Y4635D01*
X3615D01*
X3620Y4630D01*
Y4625D01*
X3615Y4620D01*
X3605D01*
X3600Y4625D01*
X3650Y4645D02*
X3645Y4650D01*
X3635D01*
X3630Y4645D01*
Y4625D01*
X3635Y4620D01*
X3645D01*
X3650Y4625D01*
X3660Y4650D02*
X3680D01*
Y4645D01*
X3660Y4625D01*
Y4620D01*
X4445Y4650D02*
Y4620D01*
X4460D01*
X4465Y4625D01*
Y4645D01*
X4460Y4650D01*
X4445D01*
X4475Y4620D02*
X4485D01*
X4480D01*
Y4650D01*
X4475Y4645D01*
X4500Y4615D02*
X4520D01*
X4550Y4650D02*
X4530D01*
Y4620D01*
X4550D01*
X4530Y4635D02*
X4540D01*
X4580Y4645D02*
X4575Y4650D01*
X4565D01*
X4560Y4645D01*
Y4640D01*
X4565Y4635D01*
X4575D01*
X4580Y4630D01*
Y4625D01*
X4575Y4620D01*
X4565D01*
X4560Y4625D01*
X4610Y4645D02*
X4605Y4650D01*
X4595D01*
X4590Y4645D01*
Y4625D01*
X4595Y4620D01*
X4605D01*
X4610Y4625D01*
X4620Y4645D02*
X4625Y4650D01*
X4635D01*
X4640Y4645D01*
Y4640D01*
X4635Y4635D01*
X4640Y4630D01*
Y4625D01*
X4635Y4620D01*
X4625D01*
X4620Y4625D01*
Y4630D01*
X4625Y4635D01*
X4620Y4640D01*
Y4645D01*
X4625Y4635D02*
X4635D01*
X6274Y4953D02*
X6264D01*
X6269D01*
Y4928D01*
X6264Y4923D01*
X6259D01*
X6254Y4928D01*
X6284Y4923D02*
X6294D01*
X6289D01*
Y4953D01*
X6284Y4948D01*
X6274Y2987D02*
X6264D01*
X6269D01*
Y2962D01*
X6264Y2957D01*
X6259D01*
X6254Y2962D01*
X6304Y2957D02*
X6284D01*
X6304Y2977D01*
Y2982D01*
X6299Y2987D01*
X6289D01*
X6284Y2982D01*
X4825Y1040D02*
Y1070D01*
X4840D01*
X4845Y1065D01*
Y1055D01*
X4840Y1050D01*
X4825D01*
X4855Y1040D02*
X4865D01*
X4860D01*
Y1070D01*
X4855Y1065D01*
X4880Y1035D02*
X4900D01*
X4930Y1070D02*
X4910D01*
Y1040D01*
X4930D01*
X4910Y1055D02*
X4920D01*
X4960Y1065D02*
X4955Y1070D01*
X4945D01*
X4940Y1065D01*
Y1060D01*
X4945Y1055D01*
X4955D01*
X4960Y1050D01*
Y1045D01*
X4955Y1040D01*
X4945D01*
X4940Y1045D01*
X4990Y1065D02*
X4985Y1070D01*
X4975D01*
X4970Y1065D01*
Y1045D01*
X4975Y1040D01*
X4985D01*
X4990Y1045D01*
X5000Y1040D02*
X5010D01*
X5005D01*
Y1070D01*
X5000Y1065D01*
X3855Y1040D02*
Y1070D01*
X3870D01*
X3875Y1065D01*
Y1055D01*
X3870Y1050D01*
X3855D01*
X3885Y1040D02*
X3895D01*
X3890D01*
Y1070D01*
X3885Y1065D01*
X3910Y1035D02*
X3930D01*
X3960Y1070D02*
X3940D01*
Y1040D01*
X3960D01*
X3940Y1055D02*
X3950D01*
X3990Y1065D02*
X3985Y1070D01*
X3975D01*
X3970Y1065D01*
Y1060D01*
X3975Y1055D01*
X3985D01*
X3990Y1050D01*
Y1045D01*
X3985Y1040D01*
X3975D01*
X3970Y1045D01*
X4020Y1065D02*
X4015Y1070D01*
X4005D01*
X4000Y1065D01*
Y1045D01*
X4005Y1040D01*
X4015D01*
X4020Y1045D01*
X4050Y1040D02*
X4030D01*
X4050Y1060D01*
Y1065D01*
X4045Y1070D01*
X4035D01*
X4030Y1065D01*
X2905Y1040D02*
Y1070D01*
X2920D01*
X2925Y1065D01*
Y1055D01*
X2920Y1050D01*
X2905D01*
X2935Y1040D02*
X2945D01*
X2940D01*
Y1070D01*
X2935Y1065D01*
X2960Y1035D02*
X2980D01*
X3010Y1070D02*
X2990D01*
Y1040D01*
X3010D01*
X2990Y1055D02*
X3000D01*
X3040Y1065D02*
X3035Y1070D01*
X3025D01*
X3020Y1065D01*
Y1060D01*
X3025Y1055D01*
X3035D01*
X3040Y1050D01*
Y1045D01*
X3035Y1040D01*
X3025D01*
X3020Y1045D01*
X3070Y1065D02*
X3065Y1070D01*
X3055D01*
X3050Y1065D01*
Y1045D01*
X3055Y1040D01*
X3065D01*
X3070Y1045D01*
X3080Y1065D02*
X3085Y1070D01*
X3095D01*
X3100Y1065D01*
Y1060D01*
X3095Y1055D01*
X3090D01*
X3095D01*
X3100Y1050D01*
Y1045D01*
X3095Y1040D01*
X3085D01*
X3080Y1045D01*
X1965Y1040D02*
Y1070D01*
X1980D01*
X1985Y1065D01*
Y1055D01*
X1980Y1050D01*
X1965D01*
X1995Y1040D02*
X2005D01*
X2000D01*
Y1070D01*
X1995Y1065D01*
X2020Y1035D02*
X2040D01*
X2070Y1070D02*
X2050D01*
Y1040D01*
X2070D01*
X2050Y1055D02*
X2060D01*
X2100Y1065D02*
X2095Y1070D01*
X2085D01*
X2080Y1065D01*
Y1060D01*
X2085Y1055D01*
X2095D01*
X2100Y1050D01*
Y1045D01*
X2095Y1040D01*
X2085D01*
X2080Y1045D01*
X2130Y1065D02*
X2125Y1070D01*
X2115D01*
X2110Y1065D01*
Y1045D01*
X2115Y1040D01*
X2125D01*
X2130Y1045D01*
X2155Y1040D02*
Y1070D01*
X2140Y1055D01*
X2160D01*
X1949Y4935D02*
Y4965D01*
X1964D01*
X1969Y4960D01*
Y4950D01*
X1964Y4945D01*
X1949D01*
X1979Y4935D02*
X1989D01*
X1984D01*
Y4965D01*
X1979Y4960D01*
X2004Y4930D02*
X2024D01*
X2054Y4965D02*
X2034D01*
Y4935D01*
X2054D01*
X2034Y4950D02*
X2044D01*
X2084Y4960D02*
X2079Y4965D01*
X2069D01*
X2064Y4960D01*
Y4955D01*
X2069Y4950D01*
X2079D01*
X2084Y4945D01*
Y4940D01*
X2079Y4935D01*
X2069D01*
X2064Y4940D01*
X2114Y4960D02*
X2109Y4965D01*
X2099D01*
X2094Y4960D01*
Y4940D01*
X2099Y4935D01*
X2109D01*
X2114Y4940D01*
X2144Y4965D02*
X2124D01*
Y4950D01*
X2134Y4955D01*
X2139D01*
X2144Y4950D01*
Y4940D01*
X2139Y4935D01*
X2129D01*
X2124Y4940D01*
X2889Y4935D02*
Y4965D01*
X2904D01*
X2909Y4960D01*
Y4950D01*
X2904Y4945D01*
X2889D01*
X2919Y4935D02*
X2929D01*
X2924D01*
Y4965D01*
X2919Y4960D01*
X2944Y4930D02*
X2964D01*
X2994Y4965D02*
X2974D01*
Y4935D01*
X2994D01*
X2974Y4950D02*
X2984D01*
X3024Y4960D02*
X3019Y4965D01*
X3009D01*
X3004Y4960D01*
Y4955D01*
X3009Y4950D01*
X3019D01*
X3024Y4945D01*
Y4940D01*
X3019Y4935D01*
X3009D01*
X3004Y4940D01*
X3054Y4960D02*
X3049Y4965D01*
X3039D01*
X3034Y4960D01*
Y4940D01*
X3039Y4935D01*
X3049D01*
X3054Y4940D01*
X3084Y4965D02*
X3074Y4960D01*
X3064Y4950D01*
Y4940D01*
X3069Y4935D01*
X3079D01*
X3084Y4940D01*
Y4945D01*
X3079Y4950D01*
X3064D01*
X3839Y4935D02*
Y4965D01*
X3854D01*
X3859Y4960D01*
Y4950D01*
X3854Y4945D01*
X3839D01*
X3869Y4935D02*
X3879D01*
X3874D01*
Y4965D01*
X3869Y4960D01*
X3894Y4930D02*
X3914D01*
X3944Y4965D02*
X3924D01*
Y4935D01*
X3944D01*
X3924Y4950D02*
X3934D01*
X3974Y4960D02*
X3969Y4965D01*
X3959D01*
X3954Y4960D01*
Y4955D01*
X3959Y4950D01*
X3969D01*
X3974Y4945D01*
Y4940D01*
X3969Y4935D01*
X3959D01*
X3954Y4940D01*
X4004Y4960D02*
X3999Y4965D01*
X3989D01*
X3984Y4960D01*
Y4940D01*
X3989Y4935D01*
X3999D01*
X4004Y4940D01*
X4014Y4965D02*
X4034D01*
Y4960D01*
X4014Y4940D01*
Y4935D01*
X4799D02*
Y4965D01*
X4814D01*
X4819Y4960D01*
Y4950D01*
X4814Y4945D01*
X4799D01*
X4829Y4935D02*
X4839D01*
X4834D01*
Y4965D01*
X4829Y4960D01*
X4854Y4930D02*
X4874D01*
X4904Y4965D02*
X4884D01*
Y4935D01*
X4904D01*
X4884Y4950D02*
X4894D01*
X4934Y4960D02*
X4929Y4965D01*
X4919D01*
X4914Y4960D01*
Y4955D01*
X4919Y4950D01*
X4929D01*
X4934Y4945D01*
Y4940D01*
X4929Y4935D01*
X4919D01*
X4914Y4940D01*
X4964Y4960D02*
X4959Y4965D01*
X4949D01*
X4944Y4960D01*
Y4940D01*
X4949Y4935D01*
X4959D01*
X4964Y4940D01*
X4974Y4960D02*
X4979Y4965D01*
X4989D01*
X4994Y4960D01*
Y4955D01*
X4989Y4950D01*
X4994Y4945D01*
Y4940D01*
X4989Y4935D01*
X4979D01*
X4974Y4940D01*
Y4945D01*
X4979Y4950D01*
X4974Y4955D01*
Y4960D01*
X4979Y4950D02*
X4989D01*
X4351Y3540D02*
Y3570D01*
X4366D01*
X4371Y3565D01*
Y3555D01*
X4366Y3550D01*
X4351D01*
X4401Y3540D02*
X4381D01*
X4401Y3560D01*
Y3565D01*
X4396Y3570D01*
X4386D01*
X4381Y3565D01*
X4865Y2135D02*
Y2155D01*
X4860Y2160D01*
X4850D01*
X4845Y2155D01*
Y2135D01*
X4850Y2130D01*
X4860D01*
X4855Y2140D02*
X4865Y2130D01*
X4860D02*
X4865Y2135D01*
X4875Y2130D02*
X4885D01*
X4880D01*
Y2160D01*
X4875Y2155D01*
X4900Y2125D02*
X4920D01*
X4950Y2160D02*
X4930D01*
Y2130D01*
X4950D01*
X4930Y2145D02*
X4940D01*
X4980Y2155D02*
X4975Y2160D01*
X4965D01*
X4960Y2155D01*
Y2150D01*
X4965Y2145D01*
X4975D01*
X4980Y2140D01*
Y2135D01*
X4975Y2130D01*
X4965D01*
X4960Y2135D01*
X5010Y2155D02*
X5005Y2160D01*
X4995D01*
X4990Y2155D01*
Y2135D01*
X4995Y2130D01*
X5005D01*
X5010Y2135D01*
X5020Y2130D02*
X5030D01*
X5025D01*
Y2160D01*
X5020Y2155D01*
X3905Y2135D02*
Y2155D01*
X3900Y2160D01*
X3890D01*
X3885Y2155D01*
Y2135D01*
X3890Y2130D01*
X3900D01*
X3895Y2140D02*
X3905Y2130D01*
X3900D02*
X3905Y2135D01*
X3915Y2130D02*
X3925D01*
X3920D01*
Y2160D01*
X3915Y2155D01*
X3940Y2125D02*
X3960D01*
X3990Y2160D02*
X3970D01*
Y2130D01*
X3990D01*
X3970Y2145D02*
X3980D01*
X4020Y2155D02*
X4015Y2160D01*
X4005D01*
X4000Y2155D01*
Y2150D01*
X4005Y2145D01*
X4015D01*
X4020Y2140D01*
Y2135D01*
X4015Y2130D01*
X4005D01*
X4000Y2135D01*
X4050Y2155D02*
X4045Y2160D01*
X4035D01*
X4030Y2155D01*
Y2135D01*
X4035Y2130D01*
X4045D01*
X4050Y2135D01*
X4080Y2130D02*
X4060D01*
X4080Y2150D01*
Y2155D01*
X4075Y2160D01*
X4065D01*
X4060Y2155D01*
X2955Y2135D02*
Y2155D01*
X2950Y2160D01*
X2940D01*
X2935Y2155D01*
Y2135D01*
X2940Y2130D01*
X2950D01*
X2945Y2140D02*
X2955Y2130D01*
X2950D02*
X2955Y2135D01*
X2965Y2130D02*
X2975D01*
X2970D01*
Y2160D01*
X2965Y2155D01*
X2990Y2125D02*
X3010D01*
X3040Y2160D02*
X3020D01*
Y2130D01*
X3040D01*
X3020Y2145D02*
X3030D01*
X3070Y2155D02*
X3065Y2160D01*
X3055D01*
X3050Y2155D01*
Y2150D01*
X3055Y2145D01*
X3065D01*
X3070Y2140D01*
Y2135D01*
X3065Y2130D01*
X3055D01*
X3050Y2135D01*
X3100Y2155D02*
X3095Y2160D01*
X3085D01*
X3080Y2155D01*
Y2135D01*
X3085Y2130D01*
X3095D01*
X3100Y2135D01*
X3110Y2155D02*
X3115Y2160D01*
X3125D01*
X3130Y2155D01*
Y2150D01*
X3125Y2145D01*
X3120D01*
X3125D01*
X3130Y2140D01*
Y2135D01*
X3125Y2130D01*
X3115D01*
X3110Y2135D01*
X2015D02*
Y2155D01*
X2010Y2160D01*
X2000D01*
X1995Y2155D01*
Y2135D01*
X2000Y2130D01*
X2010D01*
X2005Y2140D02*
X2015Y2130D01*
X2010D02*
X2015Y2135D01*
X2025Y2130D02*
X2035D01*
X2030D01*
Y2160D01*
X2025Y2155D01*
X2050Y2125D02*
X2070D01*
X2100Y2160D02*
X2080D01*
Y2130D01*
X2100D01*
X2080Y2145D02*
X2090D01*
X2130Y2155D02*
X2125Y2160D01*
X2115D01*
X2110Y2155D01*
Y2150D01*
X2115Y2145D01*
X2125D01*
X2130Y2140D01*
Y2135D01*
X2125Y2130D01*
X2115D01*
X2110Y2135D01*
X2160Y2155D02*
X2155Y2160D01*
X2145D01*
X2140Y2155D01*
Y2135D01*
X2145Y2130D01*
X2155D01*
X2160Y2135D01*
X2185Y2130D02*
Y2160D01*
X2170Y2145D01*
X2190D01*
X1950Y3845D02*
Y3865D01*
X1945Y3870D01*
X1935D01*
X1930Y3865D01*
Y3845D01*
X1935Y3840D01*
X1945D01*
X1940Y3850D02*
X1950Y3840D01*
X1945D02*
X1950Y3845D01*
X1960Y3840D02*
X1970D01*
X1965D01*
Y3870D01*
X1960Y3865D01*
X1985Y3835D02*
X2005D01*
X2035Y3870D02*
X2015D01*
Y3840D01*
X2035D01*
X2015Y3855D02*
X2025D01*
X2065Y3865D02*
X2060Y3870D01*
X2050D01*
X2045Y3865D01*
Y3860D01*
X2050Y3855D01*
X2060D01*
X2065Y3850D01*
Y3845D01*
X2060Y3840D01*
X2050D01*
X2045Y3845D01*
X2095Y3865D02*
X2090Y3870D01*
X2080D01*
X2075Y3865D01*
Y3845D01*
X2080Y3840D01*
X2090D01*
X2095Y3845D01*
X2125Y3870D02*
X2105D01*
Y3855D01*
X2115Y3860D01*
X2120D01*
X2125Y3855D01*
Y3845D01*
X2120Y3840D01*
X2110D01*
X2105Y3845D01*
X2890D02*
Y3865D01*
X2885Y3870D01*
X2875D01*
X2870Y3865D01*
Y3845D01*
X2875Y3840D01*
X2885D01*
X2880Y3850D02*
X2890Y3840D01*
X2885D02*
X2890Y3845D01*
X2900Y3840D02*
X2910D01*
X2905D01*
Y3870D01*
X2900Y3865D01*
X2925Y3835D02*
X2945D01*
X2975Y3870D02*
X2955D01*
Y3840D01*
X2975D01*
X2955Y3855D02*
X2965D01*
X3005Y3865D02*
X3000Y3870D01*
X2990D01*
X2985Y3865D01*
Y3860D01*
X2990Y3855D01*
X3000D01*
X3005Y3850D01*
Y3845D01*
X3000Y3840D01*
X2990D01*
X2985Y3845D01*
X3035Y3865D02*
X3030Y3870D01*
X3020D01*
X3015Y3865D01*
Y3845D01*
X3020Y3840D01*
X3030D01*
X3035Y3845D01*
X3065Y3870D02*
X3055Y3865D01*
X3045Y3855D01*
Y3845D01*
X3050Y3840D01*
X3060D01*
X3065Y3845D01*
Y3850D01*
X3060Y3855D01*
X3045D01*
X3840Y3845D02*
Y3865D01*
X3835Y3870D01*
X3825D01*
X3820Y3865D01*
Y3845D01*
X3825Y3840D01*
X3835D01*
X3830Y3850D02*
X3840Y3840D01*
X3835D02*
X3840Y3845D01*
X3850Y3840D02*
X3860D01*
X3855D01*
Y3870D01*
X3850Y3865D01*
X3875Y3835D02*
X3895D01*
X3925Y3870D02*
X3905D01*
Y3840D01*
X3925D01*
X3905Y3855D02*
X3915D01*
X3955Y3865D02*
X3950Y3870D01*
X3940D01*
X3935Y3865D01*
Y3860D01*
X3940Y3855D01*
X3950D01*
X3955Y3850D01*
Y3845D01*
X3950Y3840D01*
X3940D01*
X3935Y3845D01*
X3985Y3865D02*
X3980Y3870D01*
X3970D01*
X3965Y3865D01*
Y3845D01*
X3970Y3840D01*
X3980D01*
X3985Y3845D01*
X3995Y3870D02*
X4015D01*
Y3865D01*
X3995Y3845D01*
Y3840D01*
X4800Y3845D02*
Y3865D01*
X4795Y3870D01*
X4785D01*
X4780Y3865D01*
Y3845D01*
X4785Y3840D01*
X4795D01*
X4790Y3850D02*
X4800Y3840D01*
X4795D02*
X4800Y3845D01*
X4810Y3840D02*
X4820D01*
X4815D01*
Y3870D01*
X4810Y3865D01*
X4835Y3835D02*
X4855D01*
X4885Y3870D02*
X4865D01*
Y3840D01*
X4885D01*
X4865Y3855D02*
X4875D01*
X4915Y3865D02*
X4910Y3870D01*
X4900D01*
X4895Y3865D01*
Y3860D01*
X4900Y3855D01*
X4910D01*
X4915Y3850D01*
Y3845D01*
X4910Y3840D01*
X4900D01*
X4895Y3845D01*
X4945Y3865D02*
X4940Y3870D01*
X4930D01*
X4925Y3865D01*
Y3845D01*
X4930Y3840D01*
X4940D01*
X4945Y3845D01*
X4955Y3865D02*
X4960Y3870D01*
X4970D01*
X4975Y3865D01*
Y3860D01*
X4970Y3855D01*
X4975Y3850D01*
Y3845D01*
X4970Y3840D01*
X4960D01*
X4955Y3845D01*
Y3850D01*
X4960Y3855D01*
X4955Y3860D01*
Y3865D01*
X4960Y3855D02*
X4970D01*
X5588Y3937D02*
Y3957D01*
X5583Y3962D01*
X5573D01*
X5568Y3957D01*
Y3937D01*
X5573Y3932D01*
X5583D01*
X5578Y3942D02*
X5588Y3932D01*
X5583D02*
X5588Y3937D01*
X5618Y3932D02*
X5598D01*
X5618Y3952D01*
Y3957D01*
X5613Y3962D01*
X5603D01*
X5598Y3957D01*
X5593Y2742D02*
Y2762D01*
X5588Y2767D01*
X5578D01*
X5573Y2762D01*
Y2742D01*
X5578Y2737D01*
X5588D01*
X5583Y2747D02*
X5593Y2737D01*
X5588D02*
X5593Y2742D01*
X5603Y2762D02*
X5608Y2767D01*
X5618D01*
X5623Y2762D01*
Y2757D01*
X5618Y2752D01*
X5613D01*
X5618D01*
X5623Y2747D01*
Y2742D01*
X5618Y2737D01*
X5608D01*
X5603Y2742D01*
X4475Y1330D02*
Y1360D01*
X4490D01*
X4495Y1355D01*
Y1345D01*
X4490Y1340D01*
X4475D01*
X4485D02*
X4495Y1330D01*
X4505D02*
X4515D01*
X4510D01*
Y1360D01*
X4505Y1355D01*
X4530Y1325D02*
X4550D01*
X4580Y1360D02*
X4560D01*
Y1330D01*
X4580D01*
X4560Y1345D02*
X4570D01*
X4610Y1355D02*
X4605Y1360D01*
X4595D01*
X4590Y1355D01*
Y1350D01*
X4595Y1345D01*
X4605D01*
X4610Y1340D01*
Y1335D01*
X4605Y1330D01*
X4595D01*
X4590Y1335D01*
X4640Y1355D02*
X4635Y1360D01*
X4625D01*
X4620Y1355D01*
Y1335D01*
X4625Y1330D01*
X4635D01*
X4640Y1335D01*
X4650Y1330D02*
X4660D01*
X4655D01*
Y1360D01*
X4650Y1355D01*
X3515Y1330D02*
Y1360D01*
X3530D01*
X3535Y1355D01*
Y1345D01*
X3530Y1340D01*
X3515D01*
X3525D02*
X3535Y1330D01*
X3545D02*
X3555D01*
X3550D01*
Y1360D01*
X3545Y1355D01*
X3570Y1325D02*
X3590D01*
X3620Y1360D02*
X3600D01*
Y1330D01*
X3620D01*
X3600Y1345D02*
X3610D01*
X3650Y1355D02*
X3645Y1360D01*
X3635D01*
X3630Y1355D01*
Y1350D01*
X3635Y1345D01*
X3645D01*
X3650Y1340D01*
Y1335D01*
X3645Y1330D01*
X3635D01*
X3630Y1335D01*
X3680Y1355D02*
X3675Y1360D01*
X3665D01*
X3660Y1355D01*
Y1335D01*
X3665Y1330D01*
X3675D01*
X3680Y1335D01*
X3710Y1330D02*
X3690D01*
X3710Y1350D01*
Y1355D01*
X3705Y1360D01*
X3695D01*
X3690Y1355D01*
X2565Y1330D02*
Y1360D01*
X2580D01*
X2585Y1355D01*
Y1345D01*
X2580Y1340D01*
X2565D01*
X2575D02*
X2585Y1330D01*
X2595D02*
X2605D01*
X2600D01*
Y1360D01*
X2595Y1355D01*
X2620Y1325D02*
X2640D01*
X2670Y1360D02*
X2650D01*
Y1330D01*
X2670D01*
X2650Y1345D02*
X2660D01*
X2700Y1355D02*
X2695Y1360D01*
X2685D01*
X2680Y1355D01*
Y1350D01*
X2685Y1345D01*
X2695D01*
X2700Y1340D01*
Y1335D01*
X2695Y1330D01*
X2685D01*
X2680Y1335D01*
X2730Y1355D02*
X2725Y1360D01*
X2715D01*
X2710Y1355D01*
Y1335D01*
X2715Y1330D01*
X2725D01*
X2730Y1335D01*
X2740Y1355D02*
X2745Y1360D01*
X2755D01*
X2760Y1355D01*
Y1350D01*
X2755Y1345D01*
X2750D01*
X2755D01*
X2760Y1340D01*
Y1335D01*
X2755Y1330D01*
X2745D01*
X2740Y1335D01*
X1625Y1330D02*
Y1360D01*
X1640D01*
X1645Y1355D01*
Y1345D01*
X1640Y1340D01*
X1625D01*
X1635D02*
X1645Y1330D01*
X1655D02*
X1665D01*
X1660D01*
Y1360D01*
X1655Y1355D01*
X1680Y1325D02*
X1700D01*
X1730Y1360D02*
X1710D01*
Y1330D01*
X1730D01*
X1710Y1345D02*
X1720D01*
X1760Y1355D02*
X1755Y1360D01*
X1745D01*
X1740Y1355D01*
Y1350D01*
X1745Y1345D01*
X1755D01*
X1760Y1340D01*
Y1335D01*
X1755Y1330D01*
X1745D01*
X1740Y1335D01*
X1790Y1355D02*
X1785Y1360D01*
X1775D01*
X1770Y1355D01*
Y1335D01*
X1775Y1330D01*
X1785D01*
X1790Y1335D01*
X1815Y1330D02*
Y1360D01*
X1800Y1345D01*
X1820D01*
X2285Y4656D02*
Y4686D01*
X2300D01*
X2305Y4681D01*
Y4671D01*
X2300Y4666D01*
X2285D01*
X2295D02*
X2305Y4656D01*
X2315D02*
X2325D01*
X2320D01*
Y4686D01*
X2315Y4681D01*
X2340Y4651D02*
X2360D01*
X2390Y4686D02*
X2370D01*
Y4656D01*
X2390D01*
X2370Y4671D02*
X2380D01*
X2420Y4681D02*
X2415Y4686D01*
X2405D01*
X2400Y4681D01*
Y4676D01*
X2405Y4671D01*
X2415D01*
X2420Y4666D01*
Y4661D01*
X2415Y4656D01*
X2405D01*
X2400Y4661D01*
X2450Y4681D02*
X2445Y4686D01*
X2435D01*
X2430Y4681D01*
Y4661D01*
X2435Y4656D01*
X2445D01*
X2450Y4661D01*
X2480Y4686D02*
X2460D01*
Y4671D01*
X2470Y4676D01*
X2475D01*
X2480Y4671D01*
Y4661D01*
X2475Y4656D01*
X2465D01*
X2460Y4661D01*
X3225Y4656D02*
Y4686D01*
X3240D01*
X3245Y4681D01*
Y4671D01*
X3240Y4666D01*
X3225D01*
X3235D02*
X3245Y4656D01*
X3255D02*
X3265D01*
X3260D01*
Y4686D01*
X3255Y4681D01*
X3280Y4651D02*
X3300D01*
X3330Y4686D02*
X3310D01*
Y4656D01*
X3330D01*
X3310Y4671D02*
X3320D01*
X3360Y4681D02*
X3355Y4686D01*
X3345D01*
X3340Y4681D01*
Y4676D01*
X3345Y4671D01*
X3355D01*
X3360Y4666D01*
Y4661D01*
X3355Y4656D01*
X3345D01*
X3340Y4661D01*
X3390Y4681D02*
X3385Y4686D01*
X3375D01*
X3370Y4681D01*
Y4661D01*
X3375Y4656D01*
X3385D01*
X3390Y4661D01*
X3420Y4686D02*
X3410Y4681D01*
X3400Y4671D01*
Y4661D01*
X3405Y4656D01*
X3415D01*
X3420Y4661D01*
Y4666D01*
X3415Y4671D01*
X3400D01*
X4175Y4656D02*
Y4686D01*
X4190D01*
X4195Y4681D01*
Y4671D01*
X4190Y4666D01*
X4175D01*
X4185D02*
X4195Y4656D01*
X4205D02*
X4215D01*
X4210D01*
Y4686D01*
X4205Y4681D01*
X4230Y4651D02*
X4250D01*
X4280Y4686D02*
X4260D01*
Y4656D01*
X4280D01*
X4260Y4671D02*
X4270D01*
X4310Y4681D02*
X4305Y4686D01*
X4295D01*
X4290Y4681D01*
Y4676D01*
X4295Y4671D01*
X4305D01*
X4310Y4666D01*
Y4661D01*
X4305Y4656D01*
X4295D01*
X4290Y4661D01*
X4340Y4681D02*
X4335Y4686D01*
X4325D01*
X4320Y4681D01*
Y4661D01*
X4325Y4656D01*
X4335D01*
X4340Y4661D01*
X4350Y4686D02*
X4370D01*
Y4681D01*
X4350Y4661D01*
Y4656D01*
X5135D02*
Y4686D01*
X5150D01*
X5155Y4681D01*
Y4671D01*
X5150Y4666D01*
X5135D01*
X5145D02*
X5155Y4656D01*
X5165D02*
X5175D01*
X5170D01*
Y4686D01*
X5165Y4681D01*
X5190Y4651D02*
X5210D01*
X5240Y4686D02*
X5220D01*
Y4656D01*
X5240D01*
X5220Y4671D02*
X5230D01*
X5270Y4681D02*
X5265Y4686D01*
X5255D01*
X5250Y4681D01*
Y4676D01*
X5255Y4671D01*
X5265D01*
X5270Y4666D01*
Y4661D01*
X5265Y4656D01*
X5255D01*
X5250Y4661D01*
X5300Y4681D02*
X5295Y4686D01*
X5285D01*
X5280Y4681D01*
Y4661D01*
X5285Y4656D01*
X5295D01*
X5300Y4661D01*
X5310Y4681D02*
X5315Y4686D01*
X5325D01*
X5330Y4681D01*
Y4676D01*
X5325Y4671D01*
X5330Y4666D01*
Y4661D01*
X5325Y4656D01*
X5315D01*
X5310Y4661D01*
Y4666D01*
X5315Y4671D01*
X5310Y4676D01*
Y4681D01*
X5315Y4671D02*
X5325D01*
X5596Y3414D02*
Y3444D01*
X5611D01*
X5616Y3439D01*
Y3429D01*
X5611Y3424D01*
X5596D01*
X5606D02*
X5616Y3414D01*
X5646D02*
X5626D01*
X5646Y3434D01*
Y3439D01*
X5641Y3444D01*
X5631D01*
X5626Y3439D01*
X5500Y2095D02*
Y2125D01*
X5515D01*
X5520Y2120D01*
Y2110D01*
X5515Y2105D01*
X5500D01*
X5510D02*
X5520Y2095D01*
X5530Y2120D02*
X5535Y2125D01*
X5545D01*
X5550Y2120D01*
Y2115D01*
X5545Y2110D01*
X5540D01*
X5545D01*
X5550Y2105D01*
Y2100D01*
X5545Y2095D01*
X5535D01*
X5530Y2100D01*
X3365Y2875D02*
Y2905D01*
X3380D01*
X3385Y2900D01*
Y2890D01*
X3380Y2885D01*
X3365D01*
X3375D02*
X3385Y2875D01*
X3410D02*
Y2905D01*
X3395Y2890D01*
X3415D01*
X3270Y2830D02*
Y2860D01*
X3285D01*
X3290Y2855D01*
Y2845D01*
X3285Y2840D01*
X3270D01*
X3280D02*
X3290Y2830D01*
X3320Y2860D02*
X3300D01*
Y2845D01*
X3310Y2850D01*
X3315D01*
X3320Y2845D01*
Y2835D01*
X3315Y2830D01*
X3305D01*
X3300Y2835D01*
X4380Y1920D02*
Y1895D01*
X4385Y1890D01*
X4395D01*
X4400Y1895D01*
Y1920D01*
X4410Y1890D02*
X4420D01*
X4415D01*
Y1920D01*
X4410Y1915D01*
X4435Y1885D02*
X4455D01*
X4485Y1920D02*
X4465D01*
Y1890D01*
X4485D01*
X4465Y1905D02*
X4475D01*
X4515Y1915D02*
X4510Y1920D01*
X4500D01*
X4495Y1915D01*
Y1910D01*
X4500Y1905D01*
X4510D01*
X4515Y1900D01*
Y1895D01*
X4510Y1890D01*
X4500D01*
X4495Y1895D01*
X4545Y1915D02*
X4540Y1920D01*
X4530D01*
X4525Y1915D01*
Y1895D01*
X4530Y1890D01*
X4540D01*
X4545Y1895D01*
X4555Y1890D02*
X4565D01*
X4560D01*
Y1920D01*
X4555Y1915D01*
X3410Y1920D02*
Y1895D01*
X3415Y1890D01*
X3425D01*
X3430Y1895D01*
Y1920D01*
X3440Y1890D02*
X3450D01*
X3445D01*
Y1920D01*
X3440Y1915D01*
X3465Y1885D02*
X3485D01*
X3515Y1920D02*
X3495D01*
Y1890D01*
X3515D01*
X3495Y1905D02*
X3505D01*
X3545Y1915D02*
X3540Y1920D01*
X3530D01*
X3525Y1915D01*
Y1910D01*
X3530Y1905D01*
X3540D01*
X3545Y1900D01*
Y1895D01*
X3540Y1890D01*
X3530D01*
X3525Y1895D01*
X3575Y1915D02*
X3570Y1920D01*
X3560D01*
X3555Y1915D01*
Y1895D01*
X3560Y1890D01*
X3570D01*
X3575Y1895D01*
X3605Y1890D02*
X3585D01*
X3605Y1910D01*
Y1915D01*
X3600Y1920D01*
X3590D01*
X3585Y1915D01*
X2460Y1920D02*
Y1895D01*
X2465Y1890D01*
X2475D01*
X2480Y1895D01*
Y1920D01*
X2490Y1890D02*
X2500D01*
X2495D01*
Y1920D01*
X2490Y1915D01*
X2515Y1885D02*
X2535D01*
X2565Y1920D02*
X2545D01*
Y1890D01*
X2565D01*
X2545Y1905D02*
X2555D01*
X2595Y1915D02*
X2590Y1920D01*
X2580D01*
X2575Y1915D01*
Y1910D01*
X2580Y1905D01*
X2590D01*
X2595Y1900D01*
Y1895D01*
X2590Y1890D01*
X2580D01*
X2575Y1895D01*
X2625Y1915D02*
X2620Y1920D01*
X2610D01*
X2605Y1915D01*
Y1895D01*
X2610Y1890D01*
X2620D01*
X2625Y1895D01*
X2635Y1915D02*
X2640Y1920D01*
X2650D01*
X2655Y1915D01*
Y1910D01*
X2650Y1905D01*
X2645D01*
X2650D01*
X2655Y1900D01*
Y1895D01*
X2650Y1890D01*
X2640D01*
X2635Y1895D01*
X1520Y1920D02*
Y1895D01*
X1525Y1890D01*
X1535D01*
X1540Y1895D01*
Y1920D01*
X1550Y1890D02*
X1560D01*
X1555D01*
Y1920D01*
X1550Y1915D01*
X1575Y1885D02*
X1595D01*
X1625Y1920D02*
X1605D01*
Y1890D01*
X1625D01*
X1605Y1905D02*
X1615D01*
X1655Y1915D02*
X1650Y1920D01*
X1640D01*
X1635Y1915D01*
Y1910D01*
X1640Y1905D01*
X1650D01*
X1655Y1900D01*
Y1895D01*
X1650Y1890D01*
X1640D01*
X1635Y1895D01*
X1685Y1915D02*
X1680Y1920D01*
X1670D01*
X1665Y1915D01*
Y1895D01*
X1670Y1890D01*
X1680D01*
X1685Y1895D01*
X1710Y1890D02*
Y1920D01*
X1695Y1905D01*
X1715D01*
X2395Y4110D02*
Y4085D01*
X2400Y4080D01*
X2410D01*
X2415Y4085D01*
Y4110D01*
X2425Y4080D02*
X2435D01*
X2430D01*
Y4110D01*
X2425Y4105D01*
X2450Y4075D02*
X2470D01*
X2500Y4110D02*
X2480D01*
Y4080D01*
X2500D01*
X2480Y4095D02*
X2490D01*
X2530Y4105D02*
X2525Y4110D01*
X2515D01*
X2510Y4105D01*
Y4100D01*
X2515Y4095D01*
X2525D01*
X2530Y4090D01*
Y4085D01*
X2525Y4080D01*
X2515D01*
X2510Y4085D01*
X2560Y4105D02*
X2555Y4110D01*
X2545D01*
X2540Y4105D01*
Y4085D01*
X2545Y4080D01*
X2555D01*
X2560Y4085D01*
X2590Y4110D02*
X2570D01*
Y4095D01*
X2580Y4100D01*
X2585D01*
X2590Y4095D01*
Y4085D01*
X2585Y4080D01*
X2575D01*
X2570Y4085D01*
X3335Y4110D02*
Y4085D01*
X3340Y4080D01*
X3350D01*
X3355Y4085D01*
Y4110D01*
X3365Y4080D02*
X3375D01*
X3370D01*
Y4110D01*
X3365Y4105D01*
X3390Y4075D02*
X3410D01*
X3440Y4110D02*
X3420D01*
Y4080D01*
X3440D01*
X3420Y4095D02*
X3430D01*
X3470Y4105D02*
X3465Y4110D01*
X3455D01*
X3450Y4105D01*
Y4100D01*
X3455Y4095D01*
X3465D01*
X3470Y4090D01*
Y4085D01*
X3465Y4080D01*
X3455D01*
X3450Y4085D01*
X3500Y4105D02*
X3495Y4110D01*
X3485D01*
X3480Y4105D01*
Y4085D01*
X3485Y4080D01*
X3495D01*
X3500Y4085D01*
X3530Y4110D02*
X3520Y4105D01*
X3510Y4095D01*
Y4085D01*
X3515Y4080D01*
X3525D01*
X3530Y4085D01*
Y4090D01*
X3525Y4095D01*
X3510D01*
X4285Y4110D02*
Y4085D01*
X4290Y4080D01*
X4300D01*
X4305Y4085D01*
Y4110D01*
X4315Y4080D02*
X4325D01*
X4320D01*
Y4110D01*
X4315Y4105D01*
X4340Y4075D02*
X4360D01*
X4390Y4110D02*
X4370D01*
Y4080D01*
X4390D01*
X4370Y4095D02*
X4380D01*
X4420Y4105D02*
X4415Y4110D01*
X4405D01*
X4400Y4105D01*
Y4100D01*
X4405Y4095D01*
X4415D01*
X4420Y4090D01*
Y4085D01*
X4415Y4080D01*
X4405D01*
X4400Y4085D01*
X4450Y4105D02*
X4445Y4110D01*
X4435D01*
X4430Y4105D01*
Y4085D01*
X4435Y4080D01*
X4445D01*
X4450Y4085D01*
X4460Y4110D02*
X4480D01*
Y4105D01*
X4460Y4085D01*
Y4080D01*
X5245Y4110D02*
Y4085D01*
X5250Y4080D01*
X5260D01*
X5265Y4085D01*
Y4110D01*
X5275Y4080D02*
X5285D01*
X5280D01*
Y4110D01*
X5275Y4105D01*
X5300Y4075D02*
X5320D01*
X5350Y4110D02*
X5330D01*
Y4080D01*
X5350D01*
X5330Y4095D02*
X5340D01*
X5380Y4105D02*
X5375Y4110D01*
X5365D01*
X5360Y4105D01*
Y4100D01*
X5365Y4095D01*
X5375D01*
X5380Y4090D01*
Y4085D01*
X5375Y4080D01*
X5365D01*
X5360Y4085D01*
X5410Y4105D02*
X5405Y4110D01*
X5395D01*
X5390Y4105D01*
Y4085D01*
X5395Y4080D01*
X5405D01*
X5410Y4085D01*
X5420Y4105D02*
X5425Y4110D01*
X5435D01*
X5440Y4105D01*
Y4100D01*
X5435Y4095D01*
X5440Y4090D01*
Y4085D01*
X5435Y4080D01*
X5425D01*
X5420Y4085D01*
Y4090D01*
X5425Y4095D01*
X5420Y4100D01*
Y4105D01*
X5425Y4095D02*
X5435D01*
X5910Y3440D02*
Y3415D01*
X5915Y3410D01*
X5925D01*
X5930Y3415D01*
Y3440D01*
X5960Y3410D02*
X5940D01*
X5960Y3430D01*
Y3435D01*
X5955Y3440D01*
X5945D01*
X5940Y3435D01*
X5925Y2225D02*
Y2200D01*
X5930Y2195D01*
X5940D01*
X5945Y2200D01*
Y2225D01*
X5955Y2220D02*
X5960Y2225D01*
X5970D01*
X5975Y2220D01*
Y2215D01*
X5970Y2210D01*
X5965D01*
X5970D01*
X5975Y2205D01*
Y2200D01*
X5970Y2195D01*
X5960D01*
X5955Y2200D01*
X2958Y3129D02*
Y3104D01*
X2963Y3099D01*
X2973D01*
X2978Y3104D01*
Y3129D01*
X3003Y3099D02*
Y3129D01*
X2988Y3114D01*
X3008D01*
X2775Y3065D02*
Y3095D01*
X2790D01*
X2795Y3090D01*
Y3080D01*
X2790Y3075D01*
X2775D01*
X2805Y3090D02*
X2810Y3095D01*
X2820D01*
X2825Y3090D01*
Y3085D01*
X2820Y3080D01*
X2815D01*
X2820D01*
X2825Y3075D01*
Y3070D01*
X2820Y3065D01*
X2810D01*
X2805Y3070D01*
X2550Y2985D02*
Y3015D01*
X2565D01*
X2570Y3010D01*
Y3000D01*
X2565Y2995D01*
X2550D01*
X2560D02*
X2570Y2985D01*
X2600Y3015D02*
X2590Y3010D01*
X2580Y3000D01*
Y2990D01*
X2585Y2985D01*
X2595D01*
X2600Y2990D01*
Y2995D01*
X2595Y3000D01*
X2580D01*
X4582Y4471D02*
X4552D01*
X4562D01*
X4582Y4451D01*
X4567Y4466D01*
X4552Y4451D01*
Y4519D02*
X4572D01*
X4582Y4509D01*
X4572Y4499D01*
X4552D01*
X4567D01*
Y4519D01*
X3622Y4471D02*
X3592D01*
X3602D01*
X3622Y4451D01*
X3607Y4466D01*
X3592Y4451D01*
Y4519D02*
X3612D01*
X3622Y4509D01*
X3612Y4499D01*
X3592D01*
X3607D01*
Y4519D01*
X2672Y4471D02*
X2642D01*
X2652D01*
X2672Y4451D01*
X2657Y4466D01*
X2642Y4451D01*
Y4519D02*
X2662D01*
X2672Y4509D01*
X2662Y4499D01*
X2642D01*
X2657D01*
Y4519D01*
X1732Y4471D02*
X1702D01*
X1712D01*
X1732Y4451D01*
X1717Y4466D01*
X1702Y4451D01*
Y4519D02*
X1722D01*
X1732Y4509D01*
X1722Y4499D01*
X1702D01*
X1717D01*
Y4519D01*
X4420Y3480D02*
Y3460D01*
X4400Y3480D01*
X4395D01*
X4390Y3475D01*
Y3465D01*
X4395Y3460D01*
Y3490D02*
X4390Y3495D01*
Y3505D01*
X4395Y3510D01*
X4400D01*
X4405Y3505D01*
X4410Y3510D01*
X4415D01*
X4420Y3505D01*
Y3495D01*
X4415Y3490D01*
X4410D01*
X4405Y3495D01*
X4400Y3490D01*
X4395D01*
X4405Y3495D02*
Y3505D01*
X4520Y3480D02*
Y3460D01*
X4500Y3480D01*
X4495D01*
X4490Y3475D01*
Y3465D01*
X4495Y3460D01*
X4490Y3490D02*
Y3510D01*
X4495D01*
X4515Y3490D01*
X4520D01*
Y2000D02*
Y2010D01*
Y2005D01*
X4490D01*
X4495Y2000D01*
X4420Y2020D02*
Y2000D01*
X4400Y2020D01*
X4395D01*
X4390Y2015D01*
Y2005D01*
X4395Y2000D01*
X5228Y1529D02*
X5258D01*
X5248D01*
X5228Y1549D01*
X5243Y1534D01*
X5258Y1549D01*
Y1481D02*
X5238D01*
X5228Y1491D01*
X5238Y1501D01*
X5258D01*
X5243D01*
Y1481D01*
X4268Y1529D02*
X4298D01*
X4288D01*
X4268Y1549D01*
X4283Y1534D01*
X4298Y1549D01*
Y1481D02*
X4278D01*
X4268Y1491D01*
X4278Y1501D01*
X4298D01*
X4283D01*
Y1481D01*
X3318Y1529D02*
X3348D01*
X3338D01*
X3318Y1549D01*
X3333Y1534D01*
X3348Y1549D01*
Y1481D02*
X3328D01*
X3318Y1491D01*
X3328Y1501D01*
X3348D01*
X3333D01*
Y1481D01*
X2378Y1528D02*
X2408D01*
X2398D01*
X2378Y1548D01*
X2393Y1533D01*
X2408Y1548D01*
Y1481D02*
X2388D01*
X2378Y1491D01*
X2388Y1501D01*
X2408D01*
X2393D01*
Y1481D01*
M02*
