G04 Layer_Color=32896*
%FSLAX25Y25*%
%MOIN*%
G70*
G01*
G75*
G36*
X366800Y173300D02*
X366000D01*
Y171700D01*
X365200D01*
Y170900D01*
X364400D01*
Y170100D01*
X363600D01*
Y171700D01*
X364400D01*
Y172500D01*
X365200D01*
Y174100D01*
X366000D01*
Y174900D01*
X366800D01*
Y173300D01*
D02*
G37*
G36*
X190900Y170300D02*
X189300D01*
Y171100D01*
X190900D01*
Y170300D01*
D02*
G37*
G36*
X198100Y176700D02*
X198900D01*
Y174300D01*
X199700D01*
Y173500D01*
X201300D01*
Y170300D01*
X200500D01*
Y169500D01*
X199700D01*
Y168700D01*
X198900D01*
Y167900D01*
X199700D01*
Y167100D01*
X200500D01*
Y166300D01*
X199700D01*
Y167100D01*
X198900D01*
Y167900D01*
X198100D01*
Y168700D01*
X197300D01*
Y169500D01*
X198100D01*
Y170300D01*
X199700D01*
Y171100D01*
X200500D01*
Y172700D01*
X198100D01*
Y176700D01*
X197300D01*
Y177500D01*
X198100D01*
Y176700D01*
D02*
G37*
G36*
X188500Y169500D02*
X186100D01*
Y170300D01*
X188500D01*
Y169500D01*
D02*
G37*
G36*
X193300Y171100D02*
X191700D01*
Y171900D01*
X193300D01*
Y171100D01*
D02*
G37*
G36*
X223700Y160700D02*
X222100D01*
Y159900D01*
X220500D01*
Y159100D01*
X218900D01*
Y158300D01*
X217300D01*
Y154300D01*
X218100D01*
Y146300D01*
X217300D01*
Y143900D01*
X216500D01*
Y142300D01*
X215700D01*
Y140700D01*
X214900D01*
Y139900D01*
X214100D01*
Y138300D01*
X213300D01*
Y137500D01*
X212500D01*
Y135900D01*
X211700D01*
Y135100D01*
X210900D01*
Y134300D01*
X210100D01*
Y133500D01*
X209300D01*
Y130300D01*
X210100D01*
Y125500D01*
X209300D01*
Y123900D01*
X208500D01*
Y123100D01*
X204500D01*
Y123900D01*
X203700D01*
Y124700D01*
X202100D01*
Y126300D01*
X201300D01*
Y127100D01*
X202100D01*
Y126300D01*
X202900D01*
Y125500D01*
X203700D01*
Y124700D01*
X204500D01*
Y123900D01*
X207700D01*
Y124700D01*
X208500D01*
Y126300D01*
X209300D01*
Y128700D01*
X208500D01*
Y131900D01*
X207700D01*
Y132700D01*
X206100D01*
Y131900D01*
X202100D01*
Y132700D01*
X200500D01*
Y133500D01*
X198900D01*
Y134300D01*
X198100D01*
Y135100D01*
X197300D01*
Y135900D01*
X196500D01*
Y136700D01*
X195700D01*
Y138300D01*
X194900D01*
Y139900D01*
X194100D01*
Y139100D01*
X193300D01*
Y140700D01*
X194100D01*
Y143900D01*
X193300D01*
Y147900D01*
X194100D01*
Y151900D01*
X194900D01*
Y153500D01*
X195700D01*
Y142300D01*
X196500D01*
Y139900D01*
X197300D01*
Y139100D01*
X198100D01*
Y137500D01*
X198900D01*
Y136700D01*
X200500D01*
Y135900D01*
X201300D01*
Y135100D01*
X203700D01*
Y134300D01*
X207700D01*
Y135100D01*
X209300D01*
Y135900D01*
X210100D01*
Y136700D01*
X210900D01*
Y137500D01*
X211700D01*
Y138300D01*
X212500D01*
Y139900D01*
X213300D01*
Y140700D01*
X214100D01*
Y142300D01*
X214900D01*
Y143100D01*
X215700D01*
Y144700D01*
X216500D01*
Y155900D01*
X215700D01*
Y159100D01*
X217300D01*
Y159900D01*
X219700D01*
Y160700D01*
X221300D01*
Y161500D01*
X223700D01*
Y160700D01*
D02*
G37*
G36*
X347600Y227700D02*
X350000D01*
Y226900D01*
X352400D01*
Y226100D01*
X354000D01*
Y225300D01*
X355600D01*
Y224500D01*
X356400D01*
Y223700D01*
X358000D01*
Y222900D01*
X358800D01*
Y222100D01*
X360400D01*
Y221300D01*
X361200D01*
Y220500D01*
X362000D01*
Y219700D01*
X362800D01*
Y218900D01*
X363600D01*
Y218100D01*
X364400D01*
Y217300D01*
X365200D01*
Y215700D01*
X366000D01*
Y214900D01*
X366800D01*
Y213300D01*
X367600D01*
Y211700D01*
X368400D01*
Y210100D01*
X369200D01*
Y207700D01*
X370000D01*
Y205300D01*
X370800D01*
Y202900D01*
X371600D01*
Y198100D01*
X372400D01*
Y190100D01*
X371600D01*
Y185300D01*
X370800D01*
Y182900D01*
X370000D01*
Y179700D01*
X369200D01*
Y178100D01*
X368400D01*
Y176500D01*
X367600D01*
Y174900D01*
X366800D01*
Y177300D01*
X367600D01*
Y178900D01*
X368400D01*
Y182100D01*
X369200D01*
Y186900D01*
X370000D01*
Y202900D01*
X369200D01*
Y206100D01*
X368400D01*
Y208500D01*
X367600D01*
Y210100D01*
X366800D01*
Y211700D01*
X366000D01*
Y212500D01*
X365200D01*
Y214100D01*
X364400D01*
Y214900D01*
X363600D01*
Y216500D01*
X362800D01*
Y217300D01*
X362000D01*
Y218100D01*
X361200D01*
Y218900D01*
X360400D01*
Y219700D01*
X359600D01*
Y220500D01*
X358800D01*
Y221300D01*
X357200D01*
Y222100D01*
X356400D01*
Y222900D01*
X354800D01*
Y223700D01*
X353200D01*
Y224500D01*
X352400D01*
Y225300D01*
X350800D01*
Y226100D01*
X329200D01*
Y225300D01*
X326000D01*
Y224500D01*
X324400D01*
Y223700D01*
X322800D01*
Y222900D01*
X321200D01*
Y222100D01*
X319600D01*
Y221300D01*
X318800D01*
Y220500D01*
X317200D01*
Y219700D01*
X316400D01*
Y218900D01*
X315600D01*
Y218100D01*
X314000D01*
Y217300D01*
X313200D01*
Y216500D01*
X312400D01*
Y215700D01*
X311600D01*
Y214100D01*
X310800D01*
Y213300D01*
X310000D01*
Y212500D01*
X309200D01*
Y210900D01*
X308400D01*
Y210100D01*
X307600D01*
Y208500D01*
X306800D01*
Y206900D01*
X306000D01*
Y205300D01*
X305200D01*
Y203700D01*
X304400D01*
Y201300D01*
X303600D01*
Y204500D01*
X304400D01*
Y206900D01*
X305200D01*
Y208500D01*
X306000D01*
Y210100D01*
X306800D01*
Y211700D01*
X307600D01*
Y212500D01*
X308400D01*
Y214100D01*
X309200D01*
Y214900D01*
X310000D01*
Y215700D01*
X310800D01*
Y216500D01*
X311600D01*
Y217300D01*
X312400D01*
Y218100D01*
X313200D01*
Y218900D01*
X314000D01*
Y219700D01*
X314800D01*
Y220500D01*
X316400D01*
Y221300D01*
X317200D01*
Y222100D01*
X318800D01*
Y222900D01*
X319600D01*
Y223700D01*
X321200D01*
Y224500D01*
X322800D01*
Y225300D01*
X324400D01*
Y226100D01*
X326800D01*
Y226900D01*
X330000D01*
Y227700D01*
X335600D01*
Y228500D01*
X347600D01*
Y227700D01*
D02*
G37*
G36*
X194900Y171900D02*
X193300D01*
Y172700D01*
X194100D01*
Y173500D01*
X194900D01*
Y171900D01*
D02*
G37*
G36*
X289200Y209300D02*
X290000D01*
Y195700D01*
X290800D01*
Y190900D01*
X291600D01*
Y187700D01*
X292400D01*
Y184500D01*
X293200D01*
Y182100D01*
X294000D01*
Y180500D01*
X294800D01*
Y178100D01*
X295600D01*
Y176500D01*
X296400D01*
Y174100D01*
X295600D01*
Y173300D01*
X294800D01*
Y174900D01*
X294000D01*
Y175700D01*
X293200D01*
Y177300D01*
X292400D01*
Y179700D01*
X291600D01*
Y182100D01*
X290800D01*
Y185300D01*
X290000D01*
Y188500D01*
X289200D01*
Y193300D01*
X288400D01*
Y196500D01*
X287600D01*
Y199700D01*
X286800D01*
Y206900D01*
X287600D01*
Y210100D01*
X289200D01*
Y209300D01*
D02*
G37*
G36*
X153300Y154300D02*
X154900D01*
Y153500D01*
X156500D01*
Y152700D01*
X159700D01*
Y151900D01*
X158100D01*
Y151100D01*
X154900D01*
Y151900D01*
X154100D01*
Y152700D01*
X153300D01*
Y154300D01*
X152500D01*
Y155100D01*
X153300D01*
Y154300D01*
D02*
G37*
G36*
X206900Y151900D02*
X206100D01*
Y151100D01*
X205300D01*
Y153500D01*
X206900D01*
Y151900D01*
D02*
G37*
G36*
X201300Y147900D02*
X202100D01*
Y147100D01*
X199700D01*
Y147900D01*
X200500D01*
Y148700D01*
X201300D01*
Y147900D01*
D02*
G37*
G36*
X191700Y149500D02*
X192500D01*
Y147900D01*
X190900D01*
Y150300D01*
X191700D01*
Y149500D01*
D02*
G37*
G36*
X159700Y165500D02*
X160500D01*
Y164700D01*
X161300D01*
Y162300D01*
X162100D01*
Y158300D01*
X162900D01*
Y156700D01*
X162100D01*
Y154300D01*
X161300D01*
Y160700D01*
X160500D01*
Y163100D01*
X159700D01*
Y162300D01*
X158900D01*
Y157500D01*
X158100D01*
Y156700D01*
X157300D01*
Y155900D01*
X154900D01*
Y156700D01*
X152500D01*
Y155900D01*
X151700D01*
Y162300D01*
X152500D01*
Y163900D01*
X153300D01*
Y164700D01*
X154900D01*
Y165500D01*
X156500D01*
Y166300D01*
X159700D01*
Y165500D01*
D02*
G37*
G36*
X194900Y167100D02*
X195700D01*
Y166300D01*
X196500D01*
Y165500D01*
X198900D01*
Y164700D01*
X196500D01*
Y165500D01*
X195700D01*
Y166300D01*
X194900D01*
Y167100D01*
X190900D01*
Y166300D01*
X189300D01*
Y165500D01*
X187700D01*
Y164700D01*
X186100D01*
Y163900D01*
X184500D01*
Y163100D01*
X182900D01*
Y162300D01*
X181300D01*
Y161500D01*
X178900D01*
Y160700D01*
X176500D01*
Y162300D01*
X177300D01*
Y163100D01*
X179700D01*
Y163900D01*
X182100D01*
Y164700D01*
X184500D01*
Y165500D01*
X186100D01*
Y166300D01*
X187700D01*
Y167100D01*
X189300D01*
Y167900D01*
X194900D01*
Y167100D01*
D02*
G37*
G36*
X186100Y168700D02*
X183700D01*
Y167900D01*
X181300D01*
Y167100D01*
X178900D01*
Y166300D01*
X175700D01*
Y165500D01*
X174900D01*
Y167100D01*
X175700D01*
Y167900D01*
X178900D01*
Y168700D01*
X182900D01*
Y169500D01*
X186100D01*
Y168700D01*
D02*
G37*
G36*
X302800Y190100D02*
X303600D01*
Y186900D01*
X304400D01*
Y184500D01*
X305200D01*
Y182100D01*
X306000D01*
Y179700D01*
X306800D01*
Y178100D01*
X307600D01*
Y176500D01*
X308400D01*
Y174900D01*
X309200D01*
Y173300D01*
X310000D01*
Y172500D01*
X310800D01*
Y170900D01*
X311600D01*
Y170100D01*
X312400D01*
Y169300D01*
X313200D01*
Y168500D01*
X314000D01*
Y167700D01*
X314800D01*
Y166900D01*
X315600D01*
Y166100D01*
X316400D01*
Y165300D01*
X317200D01*
Y164500D01*
X318000D01*
Y163700D01*
X319600D01*
Y162900D01*
X321200D01*
Y162100D01*
X322000D01*
Y161300D01*
X324400D01*
Y160500D01*
X326800D01*
Y159700D01*
X330800D01*
Y158900D01*
X342800D01*
Y159700D01*
X346800D01*
Y160500D01*
X349200D01*
Y161300D01*
X350800D01*
Y162100D01*
X352400D01*
Y162900D01*
X354000D01*
Y163700D01*
X355600D01*
Y164500D01*
X357200D01*
Y165300D01*
X358000D01*
Y166100D01*
X358800D01*
Y166900D01*
X360400D01*
Y167700D01*
X361200D01*
Y168500D01*
X362000D01*
Y169300D01*
X362800D01*
Y170100D01*
X363600D01*
Y168500D01*
X362800D01*
Y167700D01*
X362000D01*
Y166900D01*
X361200D01*
Y166100D01*
X360400D01*
Y165300D01*
X359600D01*
Y164500D01*
X358000D01*
Y163700D01*
X357200D01*
Y162900D01*
X356400D01*
Y162100D01*
X354800D01*
Y161300D01*
X353200D01*
Y160500D01*
X351600D01*
Y159700D01*
X350000D01*
Y158900D01*
X347600D01*
Y158100D01*
X345200D01*
Y157300D01*
X342000D01*
Y156500D01*
X331600D01*
Y157300D01*
X328400D01*
Y158100D01*
X326000D01*
Y158900D01*
X324400D01*
Y159700D01*
X322800D01*
Y160500D01*
X321200D01*
Y161300D01*
X319600D01*
Y162100D01*
X318000D01*
Y162900D01*
X317200D01*
Y163700D01*
X316400D01*
Y164500D01*
X314800D01*
Y165300D01*
X314000D01*
Y166100D01*
X313200D01*
Y166900D01*
X312400D01*
Y167700D01*
X311600D01*
Y168500D01*
X310800D01*
Y169300D01*
X310000D01*
Y170100D01*
X309200D01*
Y171700D01*
X308400D01*
Y172500D01*
X307600D01*
Y174100D01*
X306800D01*
Y175700D01*
X306000D01*
Y177300D01*
X305200D01*
Y178900D01*
X304400D01*
Y181300D01*
X303600D01*
Y184500D01*
X302800D01*
Y189300D01*
X302000D01*
Y196500D01*
X302800D01*
Y190100D01*
D02*
G37*
G36*
X225300Y161500D02*
X223700D01*
Y162300D01*
X225300D01*
Y161500D01*
D02*
G37*
G36*
X211700Y196700D02*
X212500D01*
Y195900D01*
X213300D01*
Y195100D01*
X214100D01*
Y194300D01*
X214900D01*
Y193500D01*
X215700D01*
Y192700D01*
X216500D01*
Y190300D01*
X215700D01*
Y189500D01*
X214900D01*
Y188700D01*
X214100D01*
Y187900D01*
X213300D01*
Y187100D01*
X212500D01*
Y186300D01*
X210900D01*
Y185500D01*
X210100D01*
Y183100D01*
X210900D01*
Y181500D01*
X212500D01*
Y182300D01*
X213300D01*
Y183100D01*
X214100D01*
Y183900D01*
X214900D01*
Y184700D01*
X215700D01*
Y185500D01*
X216500D01*
Y186300D01*
X217300D01*
Y184700D01*
X216500D01*
Y183900D01*
X215700D01*
Y183100D01*
X214900D01*
Y182300D01*
X214100D01*
Y181500D01*
X213300D01*
Y180700D01*
X212500D01*
Y178300D01*
X213300D01*
Y176700D01*
X214100D01*
Y173500D01*
X214900D01*
Y170300D01*
X215700D01*
Y165500D01*
X217300D01*
Y166300D01*
X218100D01*
Y167100D01*
X218900D01*
Y174300D01*
X220500D01*
Y173500D01*
X223700D01*
Y172700D01*
X225300D01*
Y171900D01*
X226900D01*
Y171100D01*
X227700D01*
Y170300D01*
X228500D01*
Y169500D01*
X230100D01*
Y167900D01*
X230900D01*
Y165500D01*
X230100D01*
Y164700D01*
X229300D01*
Y163900D01*
X228500D01*
Y163100D01*
X226900D01*
Y162300D01*
X225300D01*
Y163100D01*
X226100D01*
Y163900D01*
X227700D01*
Y164700D01*
X228500D01*
Y165500D01*
X229300D01*
Y167900D01*
X228500D01*
Y168700D01*
X227700D01*
Y169500D01*
X226100D01*
Y170300D01*
X224500D01*
Y171100D01*
X222100D01*
Y171900D01*
X220500D01*
Y169500D01*
X221300D01*
Y167900D01*
X222100D01*
Y167100D01*
X221300D01*
Y166300D01*
X220500D01*
Y165500D01*
X219700D01*
Y164700D01*
X218100D01*
Y163900D01*
X217300D01*
Y163100D01*
X214900D01*
Y165500D01*
X214100D01*
Y169500D01*
X213300D01*
Y173500D01*
X212500D01*
Y175900D01*
X211700D01*
Y178300D01*
X210900D01*
Y179900D01*
X210100D01*
Y181500D01*
X209300D01*
Y183100D01*
X208500D01*
Y183900D01*
X207700D01*
Y185500D01*
X206900D01*
Y186300D01*
X206100D01*
Y187100D01*
X205300D01*
Y187900D01*
X204500D01*
Y188700D01*
X203700D01*
Y189500D01*
X202900D01*
Y190300D01*
X201300D01*
Y191100D01*
X199700D01*
Y191900D01*
X198100D01*
Y192700D01*
X194900D01*
Y193500D01*
X190900D01*
Y194300D01*
X178900D01*
Y193500D01*
X174100D01*
Y192700D01*
X171700D01*
Y191900D01*
X170900D01*
Y191100D01*
X168500D01*
Y190300D01*
X166900D01*
Y189500D01*
X165300D01*
Y188700D01*
X163700D01*
Y187900D01*
X162100D01*
Y187100D01*
X161300D01*
Y184700D01*
X162100D01*
Y180700D01*
X162900D01*
Y175100D01*
X163700D01*
Y171100D01*
X164500D01*
Y165500D01*
X165300D01*
Y160700D01*
X164500D01*
Y164700D01*
X163700D01*
Y167900D01*
X162900D01*
Y171100D01*
X162100D01*
Y175100D01*
X161300D01*
Y179100D01*
X160500D01*
Y183900D01*
X159700D01*
Y185500D01*
X158100D01*
Y184700D01*
X155700D01*
Y183900D01*
X154900D01*
Y182300D01*
X155700D01*
Y178300D01*
X157300D01*
Y179100D01*
X158100D01*
Y178300D01*
X158900D01*
Y170300D01*
X157300D01*
Y171100D01*
X156500D01*
Y171900D01*
X158100D01*
Y175900D01*
X156500D01*
Y175100D01*
X155700D01*
Y173500D01*
X154900D01*
Y171900D01*
X154100D01*
Y169500D01*
X153300D01*
Y168700D01*
X152500D01*
Y171100D01*
X153300D01*
Y171900D01*
X149300D01*
Y172700D01*
X147700D01*
Y173500D01*
X146900D01*
Y174300D01*
X145300D01*
Y172700D01*
X144500D01*
Y171100D01*
X143700D01*
Y169500D01*
X142900D01*
Y167100D01*
X142100D01*
Y165500D01*
X141300D01*
Y161500D01*
X140500D01*
Y159100D01*
X141300D01*
Y155900D01*
X142100D01*
Y154300D01*
X142900D01*
Y153500D01*
X143700D01*
Y152700D01*
X144500D01*
Y151900D01*
X146100D01*
Y151100D01*
X146900D01*
Y150300D01*
X148500D01*
Y149500D01*
X150100D01*
Y148700D01*
X158100D01*
Y149500D01*
X160500D01*
Y150300D01*
X163700D01*
Y151100D01*
X166100D01*
Y151900D01*
X168500D01*
Y152700D01*
X170900D01*
Y153500D01*
X173300D01*
Y154300D01*
X174900D01*
Y155100D01*
X177300D01*
Y155900D01*
X179700D01*
Y156700D01*
X181300D01*
Y157500D01*
X183700D01*
Y158300D01*
X191700D01*
Y156700D01*
X190100D01*
Y155900D01*
X189300D01*
Y153500D01*
X188500D01*
Y143900D01*
X189300D01*
Y141500D01*
X190100D01*
Y139900D01*
X190900D01*
Y139100D01*
X191700D01*
Y138300D01*
X192500D01*
Y137500D01*
X191700D01*
Y135900D01*
X190900D01*
Y135100D01*
X190100D01*
Y134300D01*
X189300D01*
Y133500D01*
X188500D01*
Y131900D01*
X187700D01*
Y131100D01*
X186900D01*
Y130300D01*
X186100D01*
Y129500D01*
X185300D01*
Y128700D01*
X184500D01*
Y127900D01*
X183700D01*
Y127100D01*
X182900D01*
Y126300D01*
X182100D01*
Y125500D01*
X181300D01*
Y124700D01*
X180500D01*
Y123900D01*
X179700D01*
Y123100D01*
X178900D01*
Y122300D01*
X178100D01*
Y123900D01*
X178900D01*
Y125500D01*
X179700D01*
Y126300D01*
X180500D01*
Y127100D01*
X181300D01*
Y127900D01*
X182100D01*
Y128700D01*
X182900D01*
Y129500D01*
X183700D01*
Y130300D01*
X184500D01*
Y131100D01*
X185300D01*
Y131900D01*
X186100D01*
Y132700D01*
X186900D01*
Y133500D01*
X187700D01*
Y134300D01*
X188500D01*
Y135100D01*
X189300D01*
Y135900D01*
X190100D01*
Y138300D01*
X189300D01*
Y139100D01*
X188500D01*
Y140700D01*
X187700D01*
Y143100D01*
X186900D01*
Y151100D01*
X187700D01*
Y155100D01*
X188500D01*
Y156700D01*
X186900D01*
Y155900D01*
X183700D01*
Y155100D01*
X180500D01*
Y154300D01*
X178900D01*
Y153500D01*
X177300D01*
Y152700D01*
X175700D01*
Y151900D01*
X174100D01*
Y151100D01*
X172500D01*
Y150300D01*
X170900D01*
Y149500D01*
X168500D01*
Y148700D01*
X166100D01*
Y147900D01*
X162100D01*
Y147100D01*
X156500D01*
Y146300D01*
X147700D01*
Y147100D01*
X145300D01*
Y147900D01*
X144500D01*
Y148700D01*
X143700D01*
Y149500D01*
X142900D01*
Y151100D01*
X142100D01*
Y152700D01*
X141300D01*
Y153500D01*
X140500D01*
Y155900D01*
X139700D01*
Y164700D01*
X140500D01*
Y167100D01*
X141300D01*
Y168700D01*
X142100D01*
Y170300D01*
X142900D01*
Y172700D01*
X143700D01*
Y174300D01*
X144500D01*
Y175900D01*
X145300D01*
Y181500D01*
X146100D01*
Y183900D01*
X146900D01*
Y184700D01*
X147700D01*
Y185500D01*
X149300D01*
Y186300D01*
X154100D01*
Y185500D01*
X155700D01*
Y186300D01*
X157300D01*
Y187100D01*
X158900D01*
Y187900D01*
X159700D01*
Y188700D01*
X161300D01*
Y189500D01*
X162100D01*
Y190300D01*
X163700D01*
Y191100D01*
X165300D01*
Y191900D01*
X166900D01*
Y192700D01*
X168500D01*
Y193500D01*
X170100D01*
Y194300D01*
X171700D01*
Y195100D01*
X173300D01*
Y195900D01*
X191700D01*
Y195100D01*
X196500D01*
Y194300D01*
X198900D01*
Y193500D01*
X201300D01*
Y192700D01*
X202900D01*
Y191900D01*
X204500D01*
Y191100D01*
X205300D01*
Y190300D01*
X206100D01*
Y189500D01*
X206900D01*
Y187900D01*
X207700D01*
Y186300D01*
X210100D01*
Y187100D01*
X210900D01*
Y187900D01*
X211700D01*
Y188700D01*
X213300D01*
Y189500D01*
X214100D01*
Y190300D01*
X214900D01*
Y191100D01*
X215700D01*
Y192700D01*
X214100D01*
Y193500D01*
X213300D01*
Y194300D01*
X212500D01*
Y195900D01*
X211700D01*
Y196700D01*
X210900D01*
Y199100D01*
X211700D01*
Y196700D01*
D02*
G37*
G36*
X278800Y315700D02*
X274800D01*
Y316500D01*
X278800D01*
Y315700D01*
D02*
G37*
G36*
X178100Y120700D02*
X178900D01*
Y119100D01*
X179700D01*
Y118300D01*
X184500D01*
Y117500D01*
X183700D01*
Y116700D01*
X178900D01*
Y118300D01*
X178100D01*
Y120700D01*
X177300D01*
Y122300D01*
X178100D01*
Y120700D01*
D02*
G37*
G36*
X270000Y314100D02*
X267600D01*
Y314900D01*
X270000D01*
Y314100D01*
D02*
G37*
G36*
X274000Y314900D02*
X271600D01*
Y315700D01*
X274000D01*
Y314900D01*
D02*
G37*
G36*
X381200Y387700D02*
X382000D01*
Y386900D01*
X382800D01*
Y385300D01*
X383600D01*
Y384500D01*
X384400D01*
Y383700D01*
X385200D01*
Y382900D01*
X386000D01*
Y382100D01*
X386800D01*
Y380500D01*
X387600D01*
Y378900D01*
X388400D01*
Y377300D01*
X389200D01*
Y375700D01*
X390000D01*
Y374100D01*
X390800D01*
Y371700D01*
X391600D01*
Y368500D01*
X392400D01*
Y364500D01*
X393200D01*
Y360500D01*
X394000D01*
Y355700D01*
X394800D01*
Y351700D01*
X395600D01*
Y346900D01*
X396400D01*
Y342900D01*
X397200D01*
Y340500D01*
X403600D01*
Y339700D01*
X398800D01*
Y338900D01*
X395600D01*
Y338100D01*
X394800D01*
Y347700D01*
X394000D01*
Y354900D01*
X393200D01*
Y358900D01*
X392400D01*
Y362100D01*
X391600D01*
Y364500D01*
X390800D01*
Y366900D01*
X390000D01*
Y367700D01*
X389200D01*
Y369300D01*
X388400D01*
Y370900D01*
X387600D01*
Y372500D01*
X386800D01*
Y374900D01*
X386000D01*
Y377300D01*
X385200D01*
Y379700D01*
X384400D01*
Y382900D01*
X383600D01*
Y384500D01*
X382000D01*
Y382900D01*
X381200D01*
Y382100D01*
X380400D01*
Y381300D01*
X379600D01*
Y377300D01*
X378800D01*
Y374900D01*
X378000D01*
Y373300D01*
X377200D01*
Y371700D01*
X376400D01*
Y370100D01*
X375600D01*
Y369300D01*
X374800D01*
Y367700D01*
X374000D01*
Y366100D01*
X373200D01*
Y364500D01*
X372400D01*
Y362900D01*
X371600D01*
Y361300D01*
X370800D01*
Y359700D01*
X370000D01*
Y358900D01*
X369200D01*
Y357300D01*
X368400D01*
Y356500D01*
X367600D01*
Y355700D01*
X366800D01*
Y354100D01*
X366000D01*
Y353300D01*
X365200D01*
Y351700D01*
X364400D01*
Y350900D01*
X363600D01*
Y350100D01*
X362800D01*
Y348500D01*
X362000D01*
Y347700D01*
X361200D01*
Y346100D01*
X360400D01*
Y345300D01*
X359600D01*
Y344500D01*
X358000D01*
Y343700D01*
X356400D01*
Y345300D01*
X357200D01*
Y346100D01*
X358000D01*
Y346900D01*
X358800D01*
Y347700D01*
X359600D01*
Y348500D01*
X360400D01*
Y350100D01*
X361200D01*
Y350900D01*
X362000D01*
Y351700D01*
X362800D01*
Y353300D01*
X363600D01*
Y354100D01*
X364400D01*
Y354900D01*
X365200D01*
Y356500D01*
X366000D01*
Y357300D01*
X366800D01*
Y358900D01*
X367600D01*
Y359700D01*
X368400D01*
Y361300D01*
X369200D01*
Y362100D01*
X370000D01*
Y363700D01*
X370800D01*
Y365300D01*
X371600D01*
Y366900D01*
X372400D01*
Y368500D01*
X373200D01*
Y370100D01*
X374000D01*
Y371700D01*
X374800D01*
Y373300D01*
X375600D01*
Y374900D01*
X376400D01*
Y377300D01*
X377200D01*
Y378900D01*
X378000D01*
Y381300D01*
X378800D01*
Y383700D01*
X379600D01*
Y386900D01*
X380400D01*
Y388500D01*
X381200D01*
Y387700D01*
D02*
G37*
G36*
X282800Y344500D02*
X284400D01*
Y342900D01*
X283600D01*
Y343700D01*
X282800D01*
Y344500D01*
X282000D01*
Y345300D01*
X282800D01*
Y344500D01*
D02*
G37*
G36*
X201200Y410900D02*
X202000D01*
Y410100D01*
X202800D01*
Y409300D01*
X203600D01*
Y408500D01*
X204400D01*
Y407700D01*
X205200D01*
Y406900D01*
X206000D01*
Y406100D01*
X206800D01*
Y405300D01*
X207600D01*
Y404500D01*
X208400D01*
Y403700D01*
X209200D01*
Y402900D01*
X210000D01*
Y402100D01*
X210800D01*
Y401300D01*
X211600D01*
Y400500D01*
X212400D01*
Y398900D01*
X213200D01*
Y398100D01*
X214000D01*
Y397300D01*
X214800D01*
Y396500D01*
X215600D01*
Y395700D01*
X216400D01*
Y394900D01*
X217200D01*
Y394100D01*
X218000D01*
Y393300D01*
X218800D01*
Y391700D01*
X219600D01*
Y390900D01*
X220400D01*
Y390100D01*
X221200D01*
Y389300D01*
X222000D01*
Y388500D01*
X222800D01*
Y387700D01*
X223600D01*
Y386900D01*
X224400D01*
Y386100D01*
X226000D01*
Y385300D01*
X226800D01*
Y384500D01*
X227600D01*
Y383700D01*
X228400D01*
Y382900D01*
X229200D01*
Y382100D01*
X230800D01*
Y381300D01*
X231600D01*
Y380500D01*
X232400D01*
Y379700D01*
X234000D01*
Y378900D01*
X234800D01*
Y378100D01*
X236400D01*
Y377300D01*
X237200D01*
Y376500D01*
X238800D01*
Y375700D01*
X239600D01*
Y374900D01*
X241200D01*
Y374100D01*
X242000D01*
Y373300D01*
X243600D01*
Y372500D01*
X244400D01*
Y371700D01*
X246000D01*
Y370900D01*
X246800D01*
Y370100D01*
X247600D01*
Y369300D01*
X249200D01*
Y368500D01*
X250000D01*
Y367700D01*
X251600D01*
Y366900D01*
X252400D01*
Y366100D01*
X254000D01*
Y365300D01*
X254800D01*
Y364500D01*
X256400D01*
Y363700D01*
X257200D01*
Y362900D01*
X258800D01*
Y362100D01*
X259600D01*
Y361300D01*
X262000D01*
Y360500D01*
X263600D01*
Y359700D01*
X264400D01*
Y358900D01*
X266000D01*
Y358100D01*
X266800D01*
Y357300D01*
X267600D01*
Y356500D01*
X268400D01*
Y355700D01*
X270000D01*
Y354900D01*
X270800D01*
Y354100D01*
X271600D01*
Y353300D01*
X272400D01*
Y352500D01*
X274000D01*
Y351700D01*
X274800D01*
Y350900D01*
X275600D01*
Y350100D01*
X276400D01*
Y349300D01*
X277200D01*
Y348500D01*
X278800D01*
Y347700D01*
X279600D01*
Y346900D01*
X280400D01*
Y346100D01*
X281200D01*
Y345300D01*
X280400D01*
Y346100D01*
X279600D01*
Y346900D01*
X278000D01*
Y347700D01*
X277200D01*
Y348500D01*
X275600D01*
Y349300D01*
X274800D01*
Y350100D01*
X273200D01*
Y350900D01*
X272400D01*
Y351700D01*
X270800D01*
Y352500D01*
X270000D01*
Y353300D01*
X268400D01*
Y354100D01*
X267600D01*
Y354900D01*
X266000D01*
Y355700D01*
X265200D01*
Y356500D01*
X263600D01*
Y357300D01*
X262800D01*
Y358100D01*
X261200D01*
Y358900D01*
X260400D01*
Y359700D01*
X259600D01*
Y360500D01*
X258000D01*
Y361300D01*
X257200D01*
Y362100D01*
X255600D01*
Y362900D01*
X254800D01*
Y363700D01*
X253200D01*
Y364500D01*
X252400D01*
Y365300D01*
X250800D01*
Y366100D01*
X250000D01*
Y366900D01*
X248400D01*
Y367700D01*
X247600D01*
Y368500D01*
X246000D01*
Y369300D01*
X245200D01*
Y370100D01*
X243600D01*
Y370900D01*
X242800D01*
Y371700D01*
X241200D01*
Y372500D01*
X240400D01*
Y373300D01*
X238800D01*
Y374100D01*
X238000D01*
Y374900D01*
X236400D01*
Y375700D01*
X235600D01*
Y376500D01*
X234000D01*
Y377300D01*
X233200D01*
Y378100D01*
X231600D01*
Y378900D01*
X230800D01*
Y379700D01*
X230000D01*
Y380500D01*
X229200D01*
Y381300D01*
X227600D01*
Y382100D01*
X226800D01*
Y382900D01*
X226000D01*
Y383700D01*
X225200D01*
Y384500D01*
X224400D01*
Y385300D01*
X223600D01*
Y386100D01*
X222800D01*
Y386900D01*
X221200D01*
Y387700D01*
X220400D01*
Y388500D01*
X219600D01*
Y389300D01*
X218800D01*
Y390100D01*
X218000D01*
Y390900D01*
X217200D01*
Y391700D01*
X216400D01*
Y393300D01*
X215600D01*
Y394100D01*
X214800D01*
Y394900D01*
X214000D01*
Y395700D01*
X213200D01*
Y396500D01*
X212400D01*
Y397300D01*
X211600D01*
Y398900D01*
X210800D01*
Y399700D01*
X210000D01*
Y400500D01*
X209200D01*
Y401300D01*
X208400D01*
Y402100D01*
X207600D01*
Y403700D01*
X206000D01*
Y404500D01*
X205200D01*
Y405300D01*
X204400D01*
Y406100D01*
X202800D01*
Y401300D01*
X203600D01*
Y396500D01*
X204400D01*
Y392500D01*
X205200D01*
Y388500D01*
X206000D01*
Y384500D01*
X206800D01*
Y380500D01*
X207600D01*
Y376500D01*
X208400D01*
Y371700D01*
X209200D01*
Y367700D01*
X210000D01*
Y363700D01*
X210800D01*
Y358100D01*
X211600D01*
Y354100D01*
X212400D01*
Y348500D01*
X213200D01*
Y342900D01*
X214000D01*
Y326900D01*
X214800D01*
Y319700D01*
X215600D01*
Y313300D01*
X214800D01*
Y314100D01*
X208400D01*
Y314900D01*
X205200D01*
Y315700D01*
X202000D01*
Y316500D01*
X199600D01*
Y317300D01*
X196400D01*
Y318100D01*
X193200D01*
Y318900D01*
X190000D01*
Y319700D01*
X187600D01*
Y320500D01*
X184400D01*
Y321300D01*
X181200D01*
Y322100D01*
X178000D01*
Y322900D01*
X174000D01*
Y323700D01*
X170000D01*
Y324500D01*
X166000D01*
Y325300D01*
X162000D01*
Y326100D01*
X156400D01*
Y326900D01*
X150000D01*
Y327700D01*
X131600D01*
Y328500D01*
X117200D01*
Y327700D01*
X114000D01*
Y328500D01*
X111600D01*
Y329300D01*
X110000D01*
Y326100D01*
X110800D01*
Y325300D01*
X112400D01*
Y324500D01*
X114000D01*
Y323700D01*
X114800D01*
Y322900D01*
X115600D01*
Y322100D01*
X117200D01*
Y321300D01*
X118000D01*
Y320500D01*
X118800D01*
Y319700D01*
X119600D01*
Y318900D01*
X120400D01*
Y318100D01*
X121200D01*
Y317300D01*
X122000D01*
Y316500D01*
X122800D01*
Y315700D01*
X123600D01*
Y314900D01*
X124400D01*
Y314100D01*
X125200D01*
Y312500D01*
X126000D01*
Y311700D01*
X126800D01*
Y310900D01*
X127600D01*
Y310100D01*
X128400D01*
Y309300D01*
X129200D01*
Y308500D01*
X130000D01*
Y306900D01*
X130800D01*
Y306100D01*
X131600D01*
Y305300D01*
X132400D01*
Y304500D01*
X133200D01*
Y303700D01*
X134000D01*
Y302900D01*
X134800D01*
Y302100D01*
X135600D01*
Y301300D01*
X136400D01*
Y299700D01*
X137200D01*
Y298900D01*
X138000D01*
Y298100D01*
X138800D01*
Y297300D01*
X139600D01*
Y295700D01*
X140400D01*
Y294900D01*
X141200D01*
Y294100D01*
X142000D01*
Y293300D01*
X142800D01*
Y291700D01*
X143600D01*
Y290900D01*
X144400D01*
Y290100D01*
X145200D01*
Y288500D01*
X146000D01*
Y287700D01*
X146800D01*
Y286900D01*
X147600D01*
Y286100D01*
X148400D01*
Y284500D01*
X149200D01*
Y283700D01*
X150000D01*
Y282900D01*
X150800D01*
Y281300D01*
X151600D01*
Y280500D01*
X152400D01*
Y279700D01*
X153200D01*
Y278900D01*
X154000D01*
Y278100D01*
X154800D01*
Y276500D01*
X155600D01*
Y275700D01*
X156400D01*
Y274900D01*
X157200D01*
Y274100D01*
X158000D01*
Y273300D01*
X158800D01*
Y272500D01*
X159600D01*
Y271700D01*
X160400D01*
Y270900D01*
X161200D01*
Y270100D01*
X162000D01*
Y269300D01*
X162800D01*
Y268500D01*
X163600D01*
Y267700D01*
X164400D01*
Y266900D01*
X165200D01*
Y266100D01*
X166000D01*
Y265300D01*
X166800D01*
Y264500D01*
X167600D01*
Y263700D01*
X168400D01*
Y262900D01*
X170000D01*
Y262100D01*
X170800D01*
Y261300D01*
X171600D01*
Y260500D01*
X172400D01*
Y259700D01*
X173200D01*
Y258900D01*
X174800D01*
Y258100D01*
X175600D01*
Y257300D01*
X176400D01*
Y256500D01*
X177200D01*
Y255700D01*
X178800D01*
Y254900D01*
X179600D01*
Y254100D01*
X180400D01*
Y251700D01*
X179600D01*
Y250100D01*
X178800D01*
Y249300D01*
X178000D01*
Y248500D01*
X176400D01*
Y247700D01*
X174800D01*
Y246900D01*
X173200D01*
Y246100D01*
X171600D01*
Y245300D01*
X170800D01*
Y244500D01*
X169200D01*
Y243700D01*
X167600D01*
Y242900D01*
X166800D01*
Y242100D01*
X165200D01*
Y241300D01*
X163600D01*
Y240500D01*
X162800D01*
Y239700D01*
X161200D01*
Y238900D01*
X160400D01*
Y238100D01*
X158800D01*
Y237300D01*
X158000D01*
Y236500D01*
X156400D01*
Y235700D01*
X155600D01*
Y234900D01*
X154800D01*
Y234100D01*
X153200D01*
Y233300D01*
X152400D01*
Y232500D01*
X151600D01*
Y231700D01*
X152400D01*
Y230900D01*
X160400D01*
Y231700D01*
X201200D01*
Y234900D01*
X200400D01*
Y238100D01*
X201200D01*
Y248500D01*
X202000D01*
Y254100D01*
X202800D01*
Y258100D01*
X203600D01*
Y261300D01*
X204400D01*
Y263700D01*
X205200D01*
Y266900D01*
X206000D01*
Y268500D01*
X206800D01*
Y270900D01*
X207600D01*
Y272500D01*
X208400D01*
Y274100D01*
X209200D01*
Y275700D01*
X210000D01*
Y277300D01*
X210800D01*
Y278900D01*
X211600D01*
Y280500D01*
X212400D01*
Y281300D01*
X213200D01*
Y282900D01*
X214000D01*
Y283700D01*
X214800D01*
Y284500D01*
X215600D01*
Y286100D01*
X216400D01*
Y286900D01*
X217200D01*
Y287700D01*
X218000D01*
Y288500D01*
X218800D01*
Y289300D01*
X219600D01*
Y290100D01*
X220400D01*
Y290900D01*
X221200D01*
Y291700D01*
X222000D01*
Y292500D01*
X222800D01*
Y293300D01*
X223600D01*
Y294100D01*
X224400D01*
Y294900D01*
X225200D01*
Y295700D01*
X226000D01*
Y296500D01*
X227600D01*
Y297300D01*
X228400D01*
Y298100D01*
X229200D01*
Y298900D01*
X230800D01*
Y299700D01*
X231600D01*
Y300500D01*
X233200D01*
Y301300D01*
X234800D01*
Y302100D01*
X235600D01*
Y302900D01*
X237200D01*
Y303700D01*
X238800D01*
Y304500D01*
X239600D01*
Y305300D01*
X241200D01*
Y306100D01*
X242800D01*
Y306900D01*
X244400D01*
Y307700D01*
X246000D01*
Y308500D01*
X247600D01*
Y309300D01*
X250000D01*
Y310100D01*
X252400D01*
Y310900D01*
X254800D01*
Y311700D01*
X257200D01*
Y312500D01*
X260400D01*
Y313300D01*
X264400D01*
Y314100D01*
X267600D01*
Y313300D01*
X265200D01*
Y312500D01*
X262800D01*
Y311700D01*
X260400D01*
Y310900D01*
X258800D01*
Y310100D01*
X256400D01*
Y309300D01*
X254000D01*
Y308500D01*
X252400D01*
Y307700D01*
X250000D01*
Y306900D01*
X248400D01*
Y306100D01*
X246000D01*
Y305300D01*
X244400D01*
Y304500D01*
X242800D01*
Y303700D01*
X241200D01*
Y302900D01*
X239600D01*
Y302100D01*
X238000D01*
Y301300D01*
X236400D01*
Y300500D01*
X235600D01*
Y299700D01*
X234000D01*
Y298900D01*
X232400D01*
Y298100D01*
X231600D01*
Y297300D01*
X230000D01*
Y296500D01*
X229200D01*
Y295700D01*
X228400D01*
Y294900D01*
X227600D01*
Y294100D01*
X226000D01*
Y293300D01*
X225200D01*
Y292500D01*
X224400D01*
Y291700D01*
X223600D01*
Y290900D01*
X222800D01*
Y290100D01*
X222000D01*
Y289300D01*
X221200D01*
Y288500D01*
X220400D01*
Y287700D01*
X219600D01*
Y286900D01*
X218800D01*
Y286100D01*
X218000D01*
Y284500D01*
X217200D01*
Y283700D01*
X216400D01*
Y282900D01*
X215600D01*
Y281300D01*
X214800D01*
Y280500D01*
X214000D01*
Y278900D01*
X213200D01*
Y277300D01*
X212400D01*
Y276500D01*
X211600D01*
Y274900D01*
X210800D01*
Y273300D01*
X210000D01*
Y271700D01*
X209200D01*
Y269300D01*
X208400D01*
Y267700D01*
X207600D01*
Y265300D01*
X206800D01*
Y262100D01*
X206000D01*
Y259700D01*
X205200D01*
Y255700D01*
X204400D01*
Y251700D01*
X203600D01*
Y245300D01*
X202800D01*
Y231700D01*
X215600D01*
Y232500D01*
X235600D01*
Y233300D01*
X236400D01*
Y236500D01*
X237200D01*
Y239700D01*
X238000D01*
Y242100D01*
X238800D01*
Y245300D01*
X239600D01*
Y249300D01*
X240400D01*
Y256500D01*
X239600D01*
Y258100D01*
X240400D01*
Y259700D01*
X242000D01*
Y256500D01*
X242800D01*
Y251700D01*
X242000D01*
Y246900D01*
X241200D01*
Y242900D01*
X240400D01*
Y239700D01*
X239600D01*
Y236500D01*
X238800D01*
Y234100D01*
X238000D01*
Y232500D01*
X245200D01*
Y236500D01*
X246000D01*
Y240500D01*
X246800D01*
Y244500D01*
X247600D01*
Y250100D01*
X248400D01*
Y258900D01*
X249200D01*
Y270100D01*
X248400D01*
Y276500D01*
X249200D01*
Y277300D01*
X250000D01*
Y278900D01*
X250800D01*
Y274100D01*
X250000D01*
Y269300D01*
X250800D01*
Y253300D01*
X250000D01*
Y247700D01*
X249200D01*
Y242900D01*
X248400D01*
Y238900D01*
X247600D01*
Y234900D01*
X246800D01*
Y232500D01*
X258800D01*
Y234900D01*
X259600D01*
Y239700D01*
X260400D01*
Y245300D01*
X261200D01*
Y252500D01*
X262000D01*
Y259700D01*
X262800D01*
Y271700D01*
X262000D01*
Y274900D01*
X261200D01*
Y276500D01*
X262000D01*
Y296500D01*
X261200D01*
Y299700D01*
X262000D01*
Y302900D01*
X262800D01*
Y304500D01*
X263600D01*
Y306100D01*
X265200D01*
Y306900D01*
X266800D01*
Y307700D01*
X267600D01*
Y306900D01*
X268400D01*
Y306100D01*
X266800D01*
Y305300D01*
X266000D01*
Y304500D01*
X265200D01*
Y303700D01*
X264400D01*
Y302900D01*
X263600D01*
Y279700D01*
X264400D01*
Y277300D01*
X265200D01*
Y274100D01*
X264400D01*
Y264500D01*
X265200D01*
Y258100D01*
X264400D01*
Y255700D01*
X263600D01*
Y251700D01*
X262800D01*
Y242900D01*
X262000D01*
Y238100D01*
X261200D01*
Y233300D01*
X260400D01*
Y232500D01*
X270800D01*
Y234900D01*
X271600D01*
Y238100D01*
X272400D01*
Y241300D01*
X273200D01*
Y246900D01*
X274000D01*
Y258900D01*
X274800D01*
Y270100D01*
X274000D01*
Y273300D01*
X273200D01*
Y278100D01*
X274000D01*
Y283700D01*
X273200D01*
Y289300D01*
X272400D01*
Y292500D01*
X271600D01*
Y296500D01*
X270800D01*
Y299700D01*
X270000D01*
Y304500D01*
X269200D01*
Y306100D01*
X270000D01*
Y305300D01*
X270800D01*
Y304500D01*
X272400D01*
Y303700D01*
X273200D01*
Y301300D01*
X274000D01*
Y298100D01*
X274800D01*
Y294900D01*
X275600D01*
Y288500D01*
X274800D01*
Y283700D01*
X275600D01*
Y278900D01*
X276400D01*
Y262100D01*
X277200D01*
Y260500D01*
X276400D01*
Y258900D01*
X275600D01*
Y258100D01*
X276400D01*
Y250100D01*
X275600D01*
Y245300D01*
X274800D01*
Y241300D01*
X274000D01*
Y237300D01*
X273200D01*
Y233300D01*
X272400D01*
Y232500D01*
X275600D01*
Y233300D01*
X354800D01*
Y234100D01*
X386800D01*
Y235700D01*
X386000D01*
Y236500D01*
X385200D01*
Y237300D01*
X383600D01*
Y238100D01*
X382800D01*
Y238900D01*
X381200D01*
Y239700D01*
X379600D01*
Y240500D01*
X377200D01*
Y241300D01*
X374000D01*
Y242100D01*
X365200D01*
Y241300D01*
X361200D01*
Y242100D01*
X359600D01*
Y242900D01*
X355600D01*
Y242100D01*
X350000D01*
Y242900D01*
X348400D01*
Y244500D01*
X368400D01*
Y243700D01*
X374800D01*
Y242900D01*
X378000D01*
Y242100D01*
X380400D01*
Y241300D01*
X382000D01*
Y240500D01*
X383600D01*
Y239700D01*
X385200D01*
Y238900D01*
X386000D01*
Y238100D01*
X387600D01*
Y237300D01*
X388400D01*
Y236500D01*
X389200D01*
Y235700D01*
X390000D01*
Y234900D01*
X410000D01*
Y246900D01*
X410800D01*
Y254900D01*
X411600D01*
Y258900D01*
X412400D01*
Y262100D01*
X413200D01*
Y264500D01*
X414000D01*
Y266900D01*
X414800D01*
Y269300D01*
X415600D01*
Y271700D01*
X416400D01*
Y274900D01*
X417200D01*
Y277300D01*
X418000D01*
Y279700D01*
X418800D01*
Y282900D01*
X419600D01*
Y285300D01*
X420400D01*
Y286900D01*
X421200D01*
Y287700D01*
X422800D01*
Y286900D01*
X422000D01*
Y284500D01*
X421200D01*
Y282100D01*
X420400D01*
Y279700D01*
X419600D01*
Y277300D01*
X418800D01*
Y274100D01*
X418000D01*
Y271700D01*
X417200D01*
Y269300D01*
X416400D01*
Y266900D01*
X415600D01*
Y264500D01*
X414800D01*
Y262100D01*
X414000D01*
Y260500D01*
X414800D01*
Y259700D01*
X416400D01*
Y258900D01*
X417200D01*
Y258100D01*
X418800D01*
Y257300D01*
X419600D01*
Y256500D01*
X421200D01*
Y255700D01*
X422000D01*
Y254900D01*
X422800D01*
Y254100D01*
X423600D01*
Y253300D01*
X424400D01*
Y252500D01*
X425200D01*
Y251700D01*
X426000D01*
Y250100D01*
X426800D01*
Y249300D01*
X427600D01*
Y248500D01*
X428400D01*
Y246900D01*
X429200D01*
Y245300D01*
X430000D01*
Y244500D01*
X433200D01*
Y243700D01*
X436400D01*
Y242900D01*
X438800D01*
Y242100D01*
X441200D01*
Y241300D01*
X442800D01*
Y240500D01*
X444400D01*
Y239700D01*
X446000D01*
Y238900D01*
X446800D01*
Y238100D01*
X448400D01*
Y237300D01*
X449200D01*
Y236500D01*
X450000D01*
Y235700D01*
X450800D01*
Y234900D01*
X451600D01*
Y234100D01*
X453200D01*
Y233300D01*
X464400D01*
Y232500D01*
X473200D01*
Y231700D01*
X486800D01*
Y252500D01*
X486000D01*
Y254900D01*
X485200D01*
Y257300D01*
X484400D01*
Y258900D01*
X483600D01*
Y260500D01*
X482800D01*
Y261300D01*
X482000D01*
Y264500D01*
X481200D01*
Y267700D01*
X480400D01*
Y269300D01*
X479600D01*
Y270900D01*
X478800D01*
Y272500D01*
X478000D01*
Y273300D01*
X477200D01*
Y274900D01*
X476400D01*
Y275700D01*
X475600D01*
Y277300D01*
X474800D01*
Y278100D01*
X474000D01*
Y278900D01*
X473200D01*
Y279700D01*
X472400D01*
Y281300D01*
X471600D01*
Y282100D01*
X470800D01*
Y283700D01*
X470000D01*
Y284500D01*
X469200D01*
Y285300D01*
X468400D01*
Y286100D01*
X467600D01*
Y287700D01*
X466800D01*
Y288500D01*
X466000D01*
Y289300D01*
X465200D01*
Y290100D01*
X463600D01*
Y290900D01*
X462800D01*
Y291700D01*
X462000D01*
Y292500D01*
X460400D01*
Y293300D01*
X459600D01*
Y294100D01*
X458800D01*
Y294900D01*
X458000D01*
Y295700D01*
X457200D01*
Y296500D01*
X456400D01*
Y297300D01*
X455600D01*
Y298100D01*
X454000D01*
Y298900D01*
X453200D01*
Y299700D01*
X451600D01*
Y300500D01*
X450000D01*
Y301300D01*
X448400D01*
Y302100D01*
X446800D01*
Y302900D01*
X445200D01*
Y303700D01*
X443600D01*
Y304500D01*
X442000D01*
Y305300D01*
X440400D01*
Y306100D01*
X438800D01*
Y306900D01*
X436400D01*
Y307700D01*
X434000D01*
Y308500D01*
X432400D01*
Y309300D01*
X429200D01*
Y310100D01*
X426800D01*
Y310900D01*
X422800D01*
Y311700D01*
X417200D01*
Y312500D01*
X413200D01*
Y313300D01*
X408400D01*
Y314100D01*
X404400D01*
Y314900D01*
X400400D01*
Y315700D01*
X395600D01*
Y316500D01*
X390000D01*
Y317300D01*
X380400D01*
Y318100D01*
X371600D01*
Y318900D01*
X358800D01*
Y319700D01*
X350800D01*
Y318900D01*
X337200D01*
Y319700D01*
X331600D01*
Y320500D01*
X328400D01*
Y319700D01*
X325200D01*
Y318900D01*
X321200D01*
Y319700D01*
X318000D01*
Y318900D01*
X302000D01*
Y318100D01*
X298000D01*
Y317300D01*
X290800D01*
Y316500D01*
X279600D01*
Y317300D01*
X282800D01*
Y318100D01*
X286000D01*
Y318900D01*
X290800D01*
Y319700D01*
X298000D01*
Y320500D01*
X310000D01*
Y321300D01*
X321200D01*
Y322100D01*
X358000D01*
Y321300D01*
X363600D01*
Y323700D01*
X364400D01*
Y325300D01*
X365200D01*
Y326900D01*
X366000D01*
Y328500D01*
X366800D01*
Y329300D01*
X367600D01*
Y330900D01*
X368400D01*
Y331700D01*
X369200D01*
Y332500D01*
X370800D01*
Y333300D01*
X371600D01*
Y334100D01*
X372400D01*
Y334900D01*
X374800D01*
Y335700D01*
X378800D01*
Y336500D01*
X382800D01*
Y337300D01*
X386800D01*
Y338100D01*
X387600D01*
Y337300D01*
X388400D01*
Y336500D01*
X390000D01*
Y335700D01*
X390800D01*
Y334900D01*
X392400D01*
Y334100D01*
X393200D01*
Y333300D01*
X394800D01*
Y332500D01*
X395600D01*
Y331700D01*
X397200D01*
Y330900D01*
X398000D01*
Y330100D01*
X398800D01*
Y329300D01*
X399600D01*
Y328500D01*
X400400D01*
Y326900D01*
X401200D01*
Y326100D01*
X402000D01*
Y323700D01*
X402800D01*
Y319700D01*
X403600D01*
Y317300D01*
X406000D01*
Y316500D01*
X410000D01*
Y315700D01*
X413200D01*
Y314900D01*
X416400D01*
Y314100D01*
X419600D01*
Y313300D01*
X422800D01*
Y312500D01*
X426800D01*
Y311700D01*
X429200D01*
Y310900D01*
X430800D01*
Y315700D01*
X431600D01*
Y319700D01*
X432400D01*
Y324500D01*
X433200D01*
Y329300D01*
X434000D01*
Y333300D01*
X434800D01*
Y338100D01*
X435600D01*
Y342900D01*
X436400D01*
Y347700D01*
X437200D01*
Y348500D01*
X434000D01*
Y349300D01*
X434800D01*
Y350100D01*
X437200D01*
Y349300D01*
X438000D01*
Y341300D01*
X437200D01*
Y336500D01*
X436400D01*
Y331700D01*
X435600D01*
Y327700D01*
X434800D01*
Y322900D01*
X434000D01*
Y318900D01*
X433200D01*
Y314100D01*
X436400D01*
Y314900D01*
X445200D01*
Y314100D01*
X457200D01*
Y313300D01*
X456400D01*
Y310100D01*
X455600D01*
Y307700D01*
X454800D01*
Y305300D01*
X454000D01*
Y300500D01*
X455600D01*
Y299700D01*
X456400D01*
Y298900D01*
X457200D01*
Y298100D01*
X458000D01*
Y297300D01*
X459600D01*
Y296500D01*
X460400D01*
Y295700D01*
X461200D01*
Y294900D01*
X462000D01*
Y294100D01*
X462800D01*
Y293300D01*
X463600D01*
Y292500D01*
X464400D01*
Y291700D01*
X466000D01*
Y290900D01*
X466800D01*
Y290100D01*
X467600D01*
Y289300D01*
X468400D01*
Y288500D01*
X469200D01*
Y287700D01*
X470000D01*
Y286100D01*
X470800D01*
Y285300D01*
X471600D01*
Y284500D01*
X472400D01*
Y283700D01*
X473200D01*
Y282900D01*
X474000D01*
Y282100D01*
X474800D01*
Y280500D01*
X475600D01*
Y279700D01*
X476400D01*
Y278900D01*
X477200D01*
Y277300D01*
X478000D01*
Y276500D01*
X478800D01*
Y274900D01*
X479600D01*
Y273300D01*
X480400D01*
Y272500D01*
X481200D01*
Y270900D01*
X482000D01*
Y269300D01*
X482800D01*
Y267700D01*
X483600D01*
Y265300D01*
X484400D01*
Y262900D01*
X485200D01*
Y259700D01*
X486000D01*
Y256500D01*
X486800D01*
Y252500D01*
X487600D01*
Y246900D01*
X488400D01*
Y241300D01*
X489200D01*
Y230900D01*
X488400D01*
Y229300D01*
X456400D01*
Y227700D01*
X455600D01*
Y229300D01*
X421200D01*
Y204500D01*
X416400D01*
Y206100D01*
X415600D01*
Y206900D01*
X414800D01*
Y207700D01*
X414000D01*
Y209300D01*
X413200D01*
Y210900D01*
X412400D01*
Y212500D01*
X411600D01*
Y214900D01*
X410800D01*
Y217300D01*
X410000D01*
Y221300D01*
X409200D01*
Y226100D01*
X408400D01*
Y228500D01*
X385200D01*
Y227700D01*
X384400D01*
Y226900D01*
X383600D01*
Y226100D01*
X382800D01*
Y225300D01*
X382000D01*
Y224500D01*
X381200D01*
Y222900D01*
X378000D01*
Y223700D01*
X375600D01*
Y224500D01*
X374800D01*
Y226100D01*
X375600D01*
Y225300D01*
X380400D01*
Y226100D01*
X382000D01*
Y226900D01*
X382800D01*
Y227700D01*
X383600D01*
Y228500D01*
X374000D01*
Y229300D01*
X372400D01*
Y228500D01*
X371600D01*
Y229300D01*
X364400D01*
Y230100D01*
X358800D01*
Y230900D01*
X353200D01*
Y231700D01*
X323600D01*
Y230900D01*
X290000D01*
Y230100D01*
X261200D01*
Y222900D01*
X262000D01*
Y217300D01*
X262800D01*
Y213300D01*
X263600D01*
Y209300D01*
X264400D01*
Y206900D01*
X265200D01*
Y203700D01*
X266000D01*
Y201300D01*
X266800D01*
Y199700D01*
X267600D01*
Y197300D01*
X268400D01*
Y195700D01*
X269200D01*
Y193300D01*
X270000D01*
Y191700D01*
X270800D01*
Y190100D01*
X271600D01*
Y188500D01*
X272400D01*
Y186900D01*
X273200D01*
Y185300D01*
X274000D01*
Y184500D01*
X274800D01*
Y182900D01*
X275600D01*
Y181300D01*
X276400D01*
Y180500D01*
X277200D01*
Y178900D01*
X278000D01*
Y178100D01*
X278800D01*
Y177300D01*
X279600D01*
Y176500D01*
X280400D01*
Y174900D01*
X281200D01*
Y174100D01*
X282000D01*
Y173300D01*
X282800D01*
Y172500D01*
X283600D01*
Y171700D01*
X284400D01*
Y170900D01*
X285200D01*
Y169300D01*
X286000D01*
Y168500D01*
X286800D01*
Y167700D01*
X287600D01*
Y166900D01*
X288400D01*
Y166100D01*
X289200D01*
Y165300D01*
X290000D01*
Y164500D01*
X290800D01*
Y163700D01*
X291600D01*
Y162900D01*
X292400D01*
Y162100D01*
X293200D01*
Y161300D01*
X294000D01*
Y160500D01*
X294800D01*
Y159700D01*
X296400D01*
Y158900D01*
X297200D01*
Y158100D01*
X298800D01*
Y157300D01*
X300400D01*
Y156500D01*
X301200D01*
Y155700D01*
X302800D01*
Y154900D01*
X304400D01*
Y154100D01*
X306000D01*
Y153300D01*
X307600D01*
Y152500D01*
X310000D01*
Y151700D01*
X311600D01*
Y150900D01*
X313200D01*
Y150100D01*
X314800D01*
Y149300D01*
X316400D01*
Y148500D01*
X318000D01*
Y147700D01*
X320400D01*
Y146900D01*
X323600D01*
Y146100D01*
X326800D01*
Y145300D01*
X329200D01*
Y144500D01*
X332400D01*
Y143700D01*
X336400D01*
Y142900D01*
X340400D01*
Y142100D01*
X352400D01*
Y141300D01*
X358000D01*
Y140500D01*
X368400D01*
Y141300D01*
X374800D01*
Y142100D01*
X382000D01*
Y142900D01*
X386800D01*
Y143700D01*
X391600D01*
Y144500D01*
X394800D01*
Y145300D01*
X398000D01*
Y146100D01*
X400400D01*
Y146900D01*
X402800D01*
Y147700D01*
X404400D01*
Y148500D01*
X406000D01*
Y149300D01*
X407600D01*
Y150100D01*
X409200D01*
Y150900D01*
X410000D01*
Y151700D01*
X411600D01*
Y152500D01*
X412400D01*
Y153300D01*
X413200D01*
Y154100D01*
X414800D01*
Y154900D01*
X415600D01*
Y155700D01*
X416400D01*
Y156500D01*
X418000D01*
Y157300D01*
X418800D01*
Y158100D01*
X420400D01*
Y158900D01*
X421200D01*
Y159700D01*
X422000D01*
Y160500D01*
X423600D01*
Y161300D01*
X424400D01*
Y162100D01*
X425200D01*
Y162900D01*
X426000D01*
Y163700D01*
X426800D01*
Y164500D01*
X427600D01*
Y165300D01*
X428400D01*
Y166100D01*
X429200D01*
Y166900D01*
X430000D01*
Y167700D01*
X430800D01*
Y168500D01*
X431600D01*
Y169300D01*
X432400D01*
Y170100D01*
X433200D01*
Y170900D01*
X434000D01*
Y171700D01*
X434800D01*
Y172500D01*
X435600D01*
Y174100D01*
X436400D01*
Y174900D01*
X437200D01*
Y175700D01*
X438000D01*
Y177300D01*
X438800D01*
Y178100D01*
X439600D01*
Y178900D01*
X440400D01*
Y180500D01*
X441200D01*
Y182100D01*
X442000D01*
Y182900D01*
X442800D01*
Y184500D01*
X443600D01*
Y186100D01*
X444400D01*
Y186900D01*
X445200D01*
Y188500D01*
X446000D01*
Y190100D01*
X446800D01*
Y191700D01*
X447600D01*
Y193300D01*
X448400D01*
Y195700D01*
X449200D01*
Y197300D01*
X450000D01*
Y199700D01*
X450800D01*
Y202100D01*
X451600D01*
Y204500D01*
X452400D01*
Y207700D01*
X453200D01*
Y211700D01*
X454000D01*
Y218100D01*
X454800D01*
Y221300D01*
X455600D01*
Y226100D01*
X456400D01*
Y210900D01*
X455600D01*
Y207700D01*
X454800D01*
Y205300D01*
X454000D01*
Y202900D01*
X453200D01*
Y200500D01*
X452400D01*
Y197300D01*
X451600D01*
Y194900D01*
X450800D01*
Y193300D01*
X450000D01*
Y191700D01*
X449200D01*
Y190100D01*
X448400D01*
Y188500D01*
X447600D01*
Y186900D01*
X446800D01*
Y185300D01*
X446000D01*
Y183700D01*
X445200D01*
Y182900D01*
X444400D01*
Y182100D01*
X443600D01*
Y180500D01*
X442800D01*
Y178900D01*
X442000D01*
Y178100D01*
X441200D01*
Y177300D01*
X440400D01*
Y176500D01*
X439600D01*
Y175700D01*
X438800D01*
Y174100D01*
X438000D01*
Y173300D01*
X437200D01*
Y172500D01*
X436400D01*
Y171700D01*
X435600D01*
Y170100D01*
X434800D01*
Y169300D01*
X434000D01*
Y168500D01*
X433200D01*
Y167700D01*
X432400D01*
Y166100D01*
X431600D01*
Y165300D01*
X430800D01*
Y164500D01*
X430000D01*
Y163700D01*
X429200D01*
Y162900D01*
X428400D01*
Y161300D01*
X426000D01*
Y160500D01*
X425200D01*
Y159700D01*
X423600D01*
Y158900D01*
X422000D01*
Y158100D01*
X421200D01*
Y157300D01*
X420400D01*
Y156500D01*
X419600D01*
Y155700D01*
X418800D01*
Y154900D01*
X418000D01*
Y154100D01*
X417200D01*
Y153300D01*
X415600D01*
Y152500D01*
X414800D01*
Y151700D01*
X414000D01*
Y150900D01*
X412400D01*
Y150100D01*
X410800D01*
Y149300D01*
X410000D01*
Y148500D01*
X409200D01*
Y147700D01*
X408400D01*
Y146900D01*
X407600D01*
Y146100D01*
X406800D01*
Y144500D01*
X406000D01*
Y142100D01*
X405200D01*
Y139700D01*
X404400D01*
Y138100D01*
X403600D01*
Y136500D01*
X402800D01*
Y135700D01*
X402000D01*
Y134100D01*
X401200D01*
Y133300D01*
X400400D01*
Y132500D01*
X399600D01*
Y131700D01*
X398800D01*
Y130900D01*
X398000D01*
Y130100D01*
X396400D01*
Y129300D01*
X395600D01*
Y128500D01*
X394000D01*
Y127700D01*
X392400D01*
Y126900D01*
X390800D01*
Y126100D01*
X377200D01*
Y126900D01*
X376400D01*
Y127700D01*
X375600D01*
Y128500D01*
X374800D01*
Y129300D01*
X374000D01*
Y130100D01*
X372400D01*
Y130900D01*
X370800D01*
Y131700D01*
X366000D01*
Y130900D01*
X363600D01*
Y130100D01*
X356400D01*
Y129300D01*
X353200D01*
Y128500D01*
X350800D01*
Y127700D01*
X347600D01*
Y126900D01*
X339600D01*
Y127700D01*
X335600D01*
Y128500D01*
X330800D01*
Y129300D01*
X324400D01*
Y130100D01*
X313200D01*
Y130900D01*
X310000D01*
Y131700D01*
X301200D01*
Y132500D01*
X298800D01*
Y133300D01*
X296400D01*
Y134100D01*
X293200D01*
Y134900D01*
X291600D01*
Y135700D01*
X289200D01*
Y136500D01*
X287600D01*
Y137300D01*
X286000D01*
Y138100D01*
X284400D01*
Y138900D01*
X282000D01*
Y139700D01*
X280400D01*
Y140500D01*
X278800D01*
Y141300D01*
X277200D01*
Y142100D01*
X275600D01*
Y142900D01*
X274800D01*
Y143700D01*
X273200D01*
Y144500D01*
X272400D01*
Y145300D01*
X270800D01*
Y146100D01*
X270000D01*
Y146900D01*
X268400D01*
Y147700D01*
X267600D01*
Y148500D01*
X266000D01*
Y149300D01*
X264400D01*
Y150100D01*
X262800D01*
Y150900D01*
X262000D01*
Y151700D01*
X260400D01*
Y152500D01*
X259600D01*
Y153300D01*
X258800D01*
Y154100D01*
X258000D01*
Y154900D01*
X257200D01*
Y155700D01*
X256400D01*
Y156500D01*
X255600D01*
Y157300D01*
X254000D01*
Y158100D01*
X253200D01*
Y158900D01*
X252400D01*
Y159700D01*
X251600D01*
Y160500D01*
X250800D01*
Y162100D01*
X250000D01*
Y162900D01*
X249200D01*
Y163700D01*
X248400D01*
Y164500D01*
X247600D01*
Y165300D01*
X246800D01*
Y166100D01*
X246000D01*
Y166900D01*
X245200D01*
Y167700D01*
X244400D01*
Y168500D01*
X243600D01*
Y170100D01*
X242800D01*
Y170900D01*
X242000D01*
Y172500D01*
X241200D01*
Y174100D01*
X240400D01*
Y176500D01*
X239600D01*
Y179700D01*
X238800D01*
Y181300D01*
X238000D01*
Y182900D01*
X237200D01*
Y183700D01*
X236400D01*
Y185300D01*
X235600D01*
Y186100D01*
X234800D01*
Y186900D01*
X234000D01*
Y187700D01*
X233200D01*
Y189300D01*
X232400D01*
Y190900D01*
X231600D01*
Y191700D01*
X230800D01*
Y193300D01*
X230000D01*
Y195700D01*
X229200D01*
Y197300D01*
X228400D01*
Y199700D01*
X227600D01*
Y202900D01*
X226800D01*
Y206100D01*
X226000D01*
Y209300D01*
X225200D01*
Y211700D01*
X224400D01*
Y214900D01*
X223600D01*
Y221300D01*
X222800D01*
Y223700D01*
X223600D01*
Y229300D01*
X193200D01*
Y228500D01*
X187600D01*
Y227700D01*
X183600D01*
Y226900D01*
X180400D01*
Y226100D01*
X177200D01*
Y225300D01*
X170000D01*
Y226100D01*
X166000D01*
Y226900D01*
X162800D01*
Y227700D01*
X159600D01*
Y228500D01*
X155600D01*
Y229300D01*
X148400D01*
Y228500D01*
X147600D01*
Y229300D01*
X146800D01*
Y230900D01*
X147600D01*
Y232500D01*
X149200D01*
Y233300D01*
X150000D01*
Y234100D01*
X150800D01*
Y234900D01*
X152400D01*
Y235700D01*
X153200D01*
Y236500D01*
X154800D01*
Y237300D01*
X155600D01*
Y238100D01*
X156400D01*
Y238900D01*
X158000D01*
Y239700D01*
X158800D01*
Y240500D01*
X160400D01*
Y241300D01*
X161200D01*
Y242100D01*
X162800D01*
Y242900D01*
X164400D01*
Y243700D01*
X165200D01*
Y244500D01*
X166800D01*
Y245300D01*
X167600D01*
Y246100D01*
X168400D01*
Y246900D01*
X170000D01*
Y247700D01*
X171600D01*
Y248500D01*
X173200D01*
Y249300D01*
X174800D01*
Y250100D01*
X176400D01*
Y250900D01*
X178800D01*
Y252500D01*
X178000D01*
Y253300D01*
X177200D01*
Y254100D01*
X176400D01*
Y254900D01*
X175600D01*
Y255700D01*
X174800D01*
Y256500D01*
X174000D01*
Y257300D01*
X172400D01*
Y258100D01*
X171600D01*
Y258900D01*
X170800D01*
Y259700D01*
X170000D01*
Y260500D01*
X169200D01*
Y261300D01*
X168400D01*
Y262100D01*
X166800D01*
Y262900D01*
X166000D01*
Y263700D01*
X165200D01*
Y264500D01*
X164400D01*
Y265300D01*
X163600D01*
Y266100D01*
X162800D01*
Y267700D01*
X161200D01*
Y268500D01*
X160400D01*
Y269300D01*
X159600D01*
Y270900D01*
X158800D01*
Y271700D01*
X158000D01*
Y272500D01*
X157200D01*
Y273300D01*
X156400D01*
Y274100D01*
X155600D01*
Y274900D01*
X154800D01*
Y275700D01*
X154000D01*
Y276500D01*
X153200D01*
Y277300D01*
X152400D01*
Y278100D01*
X151600D01*
Y279700D01*
X150800D01*
Y280500D01*
X150000D01*
Y281300D01*
X149200D01*
Y282100D01*
X148400D01*
Y282900D01*
X147600D01*
Y283700D01*
X146800D01*
Y285300D01*
X146000D01*
Y286100D01*
X145200D01*
Y286900D01*
X144400D01*
Y287700D01*
X143600D01*
Y288500D01*
X142800D01*
Y290100D01*
X142000D01*
Y290900D01*
X141200D01*
Y291700D01*
X140400D01*
Y292500D01*
X139600D01*
Y294100D01*
X138800D01*
Y294900D01*
X138000D01*
Y295700D01*
X137200D01*
Y296500D01*
X136400D01*
Y298100D01*
X135600D01*
Y298900D01*
X134800D01*
Y299700D01*
X134000D01*
Y301300D01*
X133200D01*
Y302100D01*
X132400D01*
Y302900D01*
X131600D01*
Y303700D01*
X130800D01*
Y305300D01*
X130000D01*
Y306100D01*
X129200D01*
Y306900D01*
X128400D01*
Y307700D01*
X127600D01*
Y309300D01*
X126800D01*
Y310100D01*
X126000D01*
Y310900D01*
X125200D01*
Y311700D01*
X124400D01*
Y312500D01*
X123600D01*
Y313300D01*
X122800D01*
Y314100D01*
X122000D01*
Y314900D01*
X121200D01*
Y315700D01*
X120400D01*
Y316500D01*
X119600D01*
Y317300D01*
X118800D01*
Y318100D01*
X118000D01*
Y318900D01*
X117200D01*
Y319700D01*
X115600D01*
Y320500D01*
X114800D01*
Y321300D01*
X114000D01*
Y322100D01*
X112400D01*
Y322900D01*
X111600D01*
Y323700D01*
X110800D01*
Y324500D01*
X109200D01*
Y325300D01*
X108400D01*
Y326100D01*
X107600D01*
Y326900D01*
X106000D01*
Y330100D01*
X142000D01*
Y329300D01*
X153200D01*
Y328500D01*
X157200D01*
Y327700D01*
X162000D01*
Y326900D01*
X166000D01*
Y326100D01*
X170000D01*
Y325300D01*
X174000D01*
Y324500D01*
X178000D01*
Y323700D01*
X181200D01*
Y322900D01*
X183600D01*
Y322100D01*
X186800D01*
Y321300D01*
X189200D01*
Y320500D01*
X191600D01*
Y319700D01*
X197200D01*
Y318900D01*
X199600D01*
Y318100D01*
X202800D01*
Y317300D01*
X206800D01*
Y316500D01*
X213200D01*
Y315700D01*
X214800D01*
Y317300D01*
X214000D01*
Y322100D01*
X213200D01*
Y326100D01*
X212400D01*
Y330100D01*
X211600D01*
Y334100D01*
X210800D01*
Y337300D01*
X211600D01*
Y339700D01*
X212400D01*
Y340500D01*
X211600D01*
Y343700D01*
X210800D01*
Y358100D01*
X210000D01*
Y362900D01*
X209200D01*
Y367700D01*
X208400D01*
Y370900D01*
X207600D01*
Y372500D01*
X206800D01*
Y374100D01*
X206000D01*
Y375700D01*
X205200D01*
Y378100D01*
X204400D01*
Y382100D01*
X203600D01*
Y386100D01*
X202800D01*
Y389300D01*
X202000D01*
Y393300D01*
X201200D01*
Y398100D01*
X200400D01*
Y411700D01*
X201200D01*
Y410900D01*
D02*
G37*
G36*
X434000Y347700D02*
X431600D01*
Y346900D01*
X429200D01*
Y346100D01*
X426800D01*
Y345300D01*
X423600D01*
Y344500D01*
X421200D01*
Y343700D01*
X418000D01*
Y342900D01*
X414800D01*
Y342100D01*
X411600D01*
Y341300D01*
X407600D01*
Y340500D01*
X403600D01*
Y341300D01*
X406000D01*
Y342100D01*
X407600D01*
Y342900D01*
X409200D01*
Y343700D01*
X410800D01*
Y344500D01*
X413200D01*
Y345300D01*
X417200D01*
Y346100D01*
X422000D01*
Y346900D01*
X426000D01*
Y347700D01*
X430000D01*
Y348500D01*
X434000D01*
Y347700D01*
D02*
G37*
G36*
X298800Y404500D02*
X299600D01*
Y403700D01*
X300400D01*
Y402900D01*
X302000D01*
Y402100D01*
X302800D01*
Y401300D01*
X303600D01*
Y400500D01*
X304400D01*
Y398900D01*
X305200D01*
Y398100D01*
X306000D01*
Y397300D01*
X306800D01*
Y395700D01*
X307600D01*
Y394900D01*
X308400D01*
Y394100D01*
X309200D01*
Y392500D01*
X310000D01*
Y391700D01*
X310800D01*
Y390900D01*
X311600D01*
Y389300D01*
X312400D01*
Y388500D01*
X313200D01*
Y386900D01*
X314000D01*
Y386100D01*
X314800D01*
Y385300D01*
X315600D01*
Y383700D01*
X316400D01*
Y382900D01*
X317200D01*
Y381300D01*
X318000D01*
Y380500D01*
X318800D01*
Y379700D01*
X319600D01*
Y378100D01*
X320400D01*
Y377300D01*
X321200D01*
Y375700D01*
X322000D01*
Y374900D01*
X322800D01*
Y374100D01*
X323600D01*
Y372500D01*
X324400D01*
Y371700D01*
X325200D01*
Y370100D01*
X326000D01*
Y369300D01*
X326800D01*
Y368500D01*
X327600D01*
Y366900D01*
X328400D01*
Y366100D01*
X329200D01*
Y365300D01*
X330000D01*
Y363700D01*
X330800D01*
Y362900D01*
X331600D01*
Y362100D01*
X332400D01*
Y360500D01*
X333200D01*
Y359700D01*
X334000D01*
Y358900D01*
X334800D01*
Y357300D01*
X335600D01*
Y356500D01*
X336400D01*
Y355700D01*
X337200D01*
Y354900D01*
X338000D01*
Y354100D01*
X338800D01*
Y353300D01*
X339600D01*
Y352500D01*
X340400D01*
Y351700D01*
X342000D01*
Y350900D01*
X342800D01*
Y350100D01*
X343600D01*
Y349300D01*
X344400D01*
Y348500D01*
X346000D01*
Y347700D01*
X346800D01*
Y346900D01*
X347600D01*
Y346100D01*
X349200D01*
Y345300D01*
X350800D01*
Y344500D01*
X352400D01*
Y343700D01*
X354000D01*
Y342900D01*
X354800D01*
Y342100D01*
X350800D01*
Y342900D01*
X349200D01*
Y343700D01*
X348400D01*
Y344500D01*
X346800D01*
Y345300D01*
X345200D01*
Y346100D01*
X344400D01*
Y346900D01*
X343600D01*
Y347700D01*
X342000D01*
Y348500D01*
X341200D01*
Y349300D01*
X340400D01*
Y350100D01*
X339600D01*
Y350900D01*
X338800D01*
Y351700D01*
X338000D01*
Y352500D01*
X337200D01*
Y353300D01*
X336400D01*
Y354100D01*
X335600D01*
Y354900D01*
X334800D01*
Y355700D01*
X334000D01*
Y356500D01*
X333200D01*
Y357300D01*
X332400D01*
Y358100D01*
X331600D01*
Y358900D01*
X330800D01*
Y360500D01*
X330000D01*
Y361300D01*
X329200D01*
Y362100D01*
X328400D01*
Y362900D01*
X327600D01*
Y363700D01*
X326800D01*
Y364500D01*
X326000D01*
Y365300D01*
X325200D01*
Y366900D01*
X324400D01*
Y369300D01*
X323600D01*
Y370900D01*
X322800D01*
Y372500D01*
X322000D01*
Y373300D01*
X321200D01*
Y374100D01*
X320400D01*
Y375700D01*
X319600D01*
Y376500D01*
X318800D01*
Y377300D01*
X318000D01*
Y378100D01*
X317200D01*
Y379700D01*
X316400D01*
Y380500D01*
X315600D01*
Y382900D01*
X314800D01*
Y384500D01*
X314000D01*
Y385300D01*
X313200D01*
Y386900D01*
X312400D01*
Y387700D01*
X311600D01*
Y388500D01*
X310800D01*
Y389300D01*
X310000D01*
Y390900D01*
X309200D01*
Y391700D01*
X308400D01*
Y392500D01*
X307600D01*
Y393300D01*
X306800D01*
Y394100D01*
X306000D01*
Y394900D01*
X305200D01*
Y395700D01*
X304400D01*
Y397300D01*
X302800D01*
Y398100D01*
X302000D01*
Y398900D01*
X300400D01*
Y387700D01*
X299600D01*
Y380500D01*
X298800D01*
Y375700D01*
X298000D01*
Y370900D01*
X297200D01*
Y367700D01*
X296400D01*
Y364500D01*
X295600D01*
Y362100D01*
X294800D01*
Y359700D01*
X294000D01*
Y357300D01*
X293200D01*
Y355700D01*
X292400D01*
Y354100D01*
X291600D01*
Y351700D01*
X290800D01*
Y350100D01*
X290000D01*
Y348500D01*
X289200D01*
Y347700D01*
X288400D01*
Y346100D01*
X287600D01*
Y348500D01*
X288400D01*
Y350100D01*
X289200D01*
Y350900D01*
X290000D01*
Y352500D01*
X290800D01*
Y354900D01*
X291600D01*
Y357300D01*
X292400D01*
Y360500D01*
X293200D01*
Y362900D01*
X294000D01*
Y366900D01*
X294800D01*
Y370900D01*
X295600D01*
Y374100D01*
X296400D01*
Y377300D01*
X297200D01*
Y381300D01*
X298000D01*
Y387700D01*
X298800D01*
Y404500D01*
X298000D01*
Y405300D01*
X298800D01*
Y404500D01*
D02*
G37*
G36*
X215700Y198300D02*
X213300D01*
Y199100D01*
X215700D01*
Y198300D01*
D02*
G37*
G36*
X315600Y312500D02*
X320400D01*
Y311700D01*
X323600D01*
Y310900D01*
X326000D01*
Y310100D01*
X327600D01*
Y309300D01*
X329200D01*
Y308500D01*
X330800D01*
Y307700D01*
X332400D01*
Y306900D01*
X333200D01*
Y306100D01*
X334800D01*
Y305300D01*
X335600D01*
Y304500D01*
X336400D01*
Y303700D01*
X337200D01*
Y302900D01*
X338000D01*
Y302100D01*
X338800D01*
Y301300D01*
X339600D01*
Y300500D01*
X340400D01*
Y299700D01*
X341200D01*
Y298900D01*
X342000D01*
Y297300D01*
X342800D01*
Y296500D01*
X343600D01*
Y294900D01*
X344400D01*
Y293300D01*
X345200D01*
Y291700D01*
X346000D01*
Y290100D01*
X346800D01*
Y287700D01*
X347600D01*
Y285300D01*
X348400D01*
Y279700D01*
X349200D01*
Y274900D01*
X348400D01*
Y268500D01*
X347600D01*
Y265300D01*
X346800D01*
Y262900D01*
X346000D01*
Y261300D01*
X345200D01*
Y259700D01*
X344400D01*
Y258100D01*
X343600D01*
Y256500D01*
X342800D01*
Y254900D01*
X342000D01*
Y254100D01*
X341200D01*
Y252500D01*
X340400D01*
Y251700D01*
X339600D01*
Y250900D01*
X338800D01*
Y250100D01*
X338000D01*
Y249300D01*
X337200D01*
Y248500D01*
X336400D01*
Y247700D01*
X335600D01*
Y246900D01*
X334800D01*
Y246100D01*
X334000D01*
Y245300D01*
X333200D01*
Y244500D01*
X331600D01*
Y243700D01*
X330000D01*
Y242900D01*
X329200D01*
Y242100D01*
X327600D01*
Y241300D01*
X325200D01*
Y240500D01*
X322800D01*
Y239700D01*
X319600D01*
Y238900D01*
X314000D01*
Y238100D01*
X308400D01*
Y238900D01*
X302800D01*
Y239700D01*
X299600D01*
Y240500D01*
X297200D01*
Y241300D01*
X295600D01*
Y242100D01*
X294000D01*
Y242900D01*
X292400D01*
Y243700D01*
X290800D01*
Y244500D01*
X290000D01*
Y245300D01*
X289200D01*
Y246100D01*
X287600D01*
Y246900D01*
X286800D01*
Y247700D01*
X286000D01*
Y248500D01*
X285200D01*
Y249300D01*
X284400D01*
Y250900D01*
X283600D01*
Y251700D01*
X282800D01*
Y252500D01*
X282000D01*
Y254100D01*
X281200D01*
Y254900D01*
X280400D01*
Y256500D01*
X279600D01*
Y258100D01*
X278800D01*
Y260500D01*
X281200D01*
Y258900D01*
X282000D01*
Y257300D01*
X282800D01*
Y255700D01*
X283600D01*
Y254100D01*
X284400D01*
Y252500D01*
X285200D01*
Y250900D01*
X286000D01*
Y250100D01*
X286800D01*
Y249300D01*
X288400D01*
Y248500D01*
X289200D01*
Y247700D01*
X290800D01*
Y246900D01*
X291600D01*
Y246100D01*
X292400D01*
Y245300D01*
X294000D01*
Y244500D01*
X294800D01*
Y243700D01*
X296400D01*
Y242900D01*
X298000D01*
Y242100D01*
X300400D01*
Y241300D01*
X306000D01*
Y242100D01*
X306800D01*
Y244500D01*
X307600D01*
Y253300D01*
X306800D01*
Y258900D01*
X307600D01*
Y269300D01*
X308400D01*
Y282100D01*
X309200D01*
Y288500D01*
X310000D01*
Y293300D01*
X310800D01*
Y297300D01*
X311600D01*
Y302100D01*
X312400D01*
Y306100D01*
X313200D01*
Y310100D01*
X314000D01*
Y310900D01*
X311600D01*
Y310100D01*
X308400D01*
Y310900D01*
X301200D01*
Y310100D01*
X300400D01*
Y309300D01*
X299600D01*
Y308500D01*
X296400D01*
Y307700D01*
X294800D01*
Y306900D01*
X294000D01*
Y306100D01*
X292400D01*
Y305300D01*
X291600D01*
Y304500D01*
X290800D01*
Y303700D01*
X289200D01*
Y305300D01*
X290000D01*
Y306100D01*
X290800D01*
Y307700D01*
X291600D01*
Y308500D01*
X293200D01*
Y309300D01*
X294800D01*
Y310100D01*
X297200D01*
Y310900D01*
X299600D01*
Y311700D01*
X302800D01*
Y312500D01*
X307600D01*
Y313300D01*
X315600D01*
Y312500D01*
D02*
G37*
G36*
X218100Y197500D02*
X219700D01*
Y196700D01*
X221300D01*
Y195900D01*
X222100D01*
Y195100D01*
X222900D01*
Y194300D01*
X223700D01*
Y191900D01*
X222900D01*
Y191100D01*
X222100D01*
Y190300D01*
X221300D01*
Y189500D01*
X220500D01*
Y188700D01*
X219700D01*
Y187900D01*
X218900D01*
Y189500D01*
X219700D01*
Y190300D01*
X220500D01*
Y191100D01*
X221300D01*
Y192700D01*
X222100D01*
Y195100D01*
X221300D01*
Y195900D01*
X219700D01*
Y196700D01*
X218100D01*
Y197500D01*
X216500D01*
Y198300D01*
X218100D01*
Y197500D01*
D02*
G37*
G36*
X339600Y193300D02*
X340400D01*
Y192500D01*
X341200D01*
Y190900D01*
X342000D01*
Y190100D01*
X341200D01*
Y189300D01*
X340400D01*
Y188500D01*
X338000D01*
Y189300D01*
X336400D01*
Y190100D01*
X338000D01*
Y192500D01*
X338800D01*
Y194100D01*
X339600D01*
Y193300D01*
D02*
G37*
G36*
X422800Y300500D02*
X425200D01*
Y299700D01*
X426800D01*
Y298900D01*
X428400D01*
Y298100D01*
X429200D01*
Y297300D01*
X430800D01*
Y296500D01*
X431600D01*
Y295700D01*
X433200D01*
Y294100D01*
X434000D01*
Y292500D01*
X434800D01*
Y290900D01*
X435600D01*
Y289300D01*
X434000D01*
Y290100D01*
X433200D01*
Y291700D01*
X432400D01*
Y292500D01*
X431600D01*
Y293300D01*
X430800D01*
Y294100D01*
X430000D01*
Y294900D01*
X429200D01*
Y295700D01*
X428400D01*
Y296500D01*
X427600D01*
Y297300D01*
X426800D01*
Y298100D01*
X426000D01*
Y298900D01*
X421200D01*
Y298100D01*
X418000D01*
Y297300D01*
X415600D01*
Y296500D01*
X414000D01*
Y295700D01*
X413200D01*
Y294900D01*
X411600D01*
Y295700D01*
X412400D01*
Y296500D01*
X413200D01*
Y297300D01*
X414000D01*
Y298100D01*
X414800D01*
Y298900D01*
X416400D01*
Y299700D01*
X417200D01*
Y300500D01*
X419600D01*
Y301300D01*
X422800D01*
Y300500D01*
D02*
G37*
G36*
X187700Y119900D02*
X186900D01*
Y119100D01*
X186100D01*
Y118300D01*
X184500D01*
Y119100D01*
X185300D01*
Y119900D01*
X186100D01*
Y120700D01*
X187700D01*
Y119900D01*
D02*
G37*
G36*
X358000Y303700D02*
X359600D01*
Y302900D01*
X360400D01*
Y301300D01*
X361200D01*
Y300500D01*
X362000D01*
Y298900D01*
X362800D01*
Y298100D01*
X364400D01*
Y294900D01*
X365200D01*
Y290100D01*
X366000D01*
Y283700D01*
X366800D01*
Y279700D01*
X366000D01*
Y272500D01*
X365200D01*
Y269300D01*
X364400D01*
Y266100D01*
X363600D01*
Y263700D01*
X362800D01*
Y262100D01*
X362000D01*
Y260500D01*
X361200D01*
Y258900D01*
X360400D01*
Y257300D01*
X359600D01*
Y256500D01*
X358800D01*
Y255700D01*
X358000D01*
Y254900D01*
X356400D01*
Y255700D01*
X357200D01*
Y257300D01*
X358000D01*
Y258100D01*
X358800D01*
Y259700D01*
X359600D01*
Y261300D01*
X360400D01*
Y262900D01*
X361200D01*
Y264500D01*
X362000D01*
Y266100D01*
X362800D01*
Y268500D01*
X363600D01*
Y271700D01*
X364400D01*
Y286900D01*
X363600D01*
Y292500D01*
X362800D01*
Y294900D01*
X362000D01*
Y296500D01*
X361200D01*
Y298100D01*
X360400D01*
Y299700D01*
X359600D01*
Y300500D01*
X358800D01*
Y302100D01*
X358000D01*
Y302900D01*
X357200D01*
Y303700D01*
X356400D01*
Y304500D01*
X358000D01*
Y303700D01*
D02*
G37*
G36*
X196500Y127900D02*
X197300D01*
Y124700D01*
X198100D01*
Y123100D01*
X198900D01*
Y122300D01*
X201300D01*
Y121500D01*
X200500D01*
Y120700D01*
X198900D01*
Y121500D01*
X198100D01*
Y123100D01*
X197300D01*
Y124700D01*
X196500D01*
Y126300D01*
X194900D01*
Y125500D01*
X194100D01*
Y124700D01*
X193300D01*
Y123900D01*
X192500D01*
Y123100D01*
X190900D01*
Y122300D01*
X190100D01*
Y121500D01*
X189300D01*
Y120700D01*
X187700D01*
Y121500D01*
X188500D01*
Y122300D01*
X189300D01*
Y123100D01*
X190100D01*
Y124700D01*
X190900D01*
Y125500D01*
X191700D01*
Y126300D01*
X192500D01*
Y127100D01*
X193300D01*
Y127900D01*
X194100D01*
Y128700D01*
X194900D01*
Y129500D01*
X196500D01*
Y127900D01*
D02*
G37*
%LPC*%
G36*
X154100Y179900D02*
X152500D01*
Y178300D01*
X151700D01*
Y177500D01*
X150900D01*
Y176700D01*
X150100D01*
Y175900D01*
X146900D01*
Y174300D01*
X148500D01*
Y173500D01*
X153300D01*
Y174300D01*
X154100D01*
Y179900D01*
D02*
G37*
G36*
X403600Y144500D02*
X402000D01*
Y143700D01*
X398800D01*
Y142900D01*
X395600D01*
Y142100D01*
X392400D01*
Y141300D01*
X387600D01*
Y140500D01*
X381200D01*
Y139700D01*
X368400D01*
Y138900D01*
X369200D01*
Y137300D01*
X370000D01*
Y135700D01*
X370800D01*
Y134900D01*
X371600D01*
Y134100D01*
X372400D01*
Y133300D01*
X373200D01*
Y132500D01*
X374000D01*
Y131700D01*
X374800D01*
Y130900D01*
X375600D01*
Y130100D01*
X376400D01*
Y129300D01*
X378000D01*
Y128500D01*
X381200D01*
Y127700D01*
X382800D01*
Y126900D01*
X386800D01*
Y127700D01*
X388400D01*
Y128500D01*
X390800D01*
Y129300D01*
X393200D01*
Y130100D01*
X395600D01*
Y130900D01*
X396400D01*
Y131700D01*
X397200D01*
Y132500D01*
X398000D01*
Y134100D01*
X398800D01*
Y134900D01*
X399600D01*
Y136500D01*
X400400D01*
Y138100D01*
X401200D01*
Y138900D01*
X402000D01*
Y140500D01*
X402800D01*
Y142900D01*
X403600D01*
Y144500D01*
D02*
G37*
G36*
X454800Y312500D02*
X454000D01*
Y311700D01*
X450800D01*
Y312500D01*
X431600D01*
Y311700D01*
X432400D01*
Y310900D01*
X434000D01*
Y310100D01*
X435600D01*
Y309300D01*
X437200D01*
Y308500D01*
X438800D01*
Y307700D01*
X440400D01*
Y306900D01*
X442800D01*
Y306100D01*
X444400D01*
Y305300D01*
X446000D01*
Y304500D01*
X447600D01*
Y303700D01*
X449200D01*
Y302900D01*
X450800D01*
Y303700D01*
X451600D01*
Y305300D01*
X452400D01*
Y306900D01*
X453200D01*
Y309300D01*
X454000D01*
Y310900D01*
X454800D01*
Y312500D01*
D02*
G37*
G36*
X387600Y335700D02*
X379600D01*
Y334900D01*
X377200D01*
Y334100D01*
X374800D01*
Y333300D01*
X373200D01*
Y332500D01*
X371600D01*
Y331700D01*
X370000D01*
Y330100D01*
X369200D01*
Y328500D01*
X368400D01*
Y327700D01*
X367600D01*
Y326100D01*
X366800D01*
Y325300D01*
X366000D01*
Y323700D01*
X365200D01*
Y322900D01*
X364400D01*
Y321300D01*
X370000D01*
Y320500D01*
X377200D01*
Y319700D01*
X385200D01*
Y318900D01*
X391600D01*
Y318100D01*
X399600D01*
Y317300D01*
X402800D01*
Y318900D01*
X402000D01*
Y321300D01*
X401200D01*
Y323700D01*
X400400D01*
Y325300D01*
X399600D01*
Y326100D01*
X398800D01*
Y327700D01*
X398000D01*
Y328500D01*
X397200D01*
Y329300D01*
X396400D01*
Y330100D01*
X395600D01*
Y330900D01*
X394000D01*
Y331700D01*
X393200D01*
Y332500D01*
X391600D01*
Y333300D01*
X390800D01*
Y334100D01*
X389200D01*
Y334900D01*
X387600D01*
Y335700D01*
D02*
G37*
G36*
X417200Y256500D02*
X415600D01*
Y255700D01*
X414800D01*
Y254900D01*
X414000D01*
Y254100D01*
X413200D01*
Y252500D01*
X412400D01*
Y239700D01*
X411600D01*
Y234900D01*
X435600D01*
Y234100D01*
X448400D01*
Y234900D01*
X447600D01*
Y235700D01*
X446800D01*
Y236500D01*
X445200D01*
Y237300D01*
X444400D01*
Y238100D01*
X443600D01*
Y238900D01*
X442000D01*
Y239700D01*
X441200D01*
Y240500D01*
X440400D01*
Y241300D01*
X438800D01*
Y240500D01*
X434800D01*
Y241300D01*
X431600D01*
Y242100D01*
X430000D01*
Y242900D01*
X428400D01*
Y243700D01*
X427600D01*
Y244500D01*
X426800D01*
Y245300D01*
X426000D01*
Y246100D01*
X425200D01*
Y247700D01*
X424400D01*
Y249300D01*
X423600D01*
Y250900D01*
X422800D01*
Y251700D01*
X422000D01*
Y252500D01*
X421200D01*
Y253300D01*
X420400D01*
Y254100D01*
X419600D01*
Y254900D01*
X418000D01*
Y255700D01*
X417200D01*
Y256500D01*
D02*
G37*
G36*
X318000Y310900D02*
X314800D01*
Y306100D01*
X314000D01*
Y302100D01*
X313200D01*
Y297300D01*
X312400D01*
Y293300D01*
X311600D01*
Y288500D01*
X310800D01*
Y284500D01*
X310000D01*
Y283700D01*
X310800D01*
Y282900D01*
X312400D01*
Y282100D01*
X314000D01*
Y281300D01*
X315600D01*
Y280500D01*
X317200D01*
Y279700D01*
X318800D01*
Y278900D01*
X319600D01*
Y277300D01*
X318800D01*
Y276500D01*
X318000D01*
Y274900D01*
X317200D01*
Y274100D01*
X314000D01*
Y273300D01*
X310000D01*
Y272500D01*
X309200D01*
Y247700D01*
X310000D01*
Y241300D01*
X314000D01*
Y242100D01*
X318000D01*
Y242900D01*
X322800D01*
Y243700D01*
X326800D01*
Y244500D01*
X329200D01*
Y245300D01*
X330800D01*
Y246100D01*
X331600D01*
Y246900D01*
X332400D01*
Y247700D01*
X333200D01*
Y248500D01*
X334000D01*
Y249300D01*
X334800D01*
Y250100D01*
X335600D01*
Y250900D01*
X336400D01*
Y251700D01*
X337200D01*
Y252500D01*
X338000D01*
Y253300D01*
X338800D01*
Y254100D01*
X339600D01*
Y254900D01*
X340400D01*
Y256500D01*
X341200D01*
Y257300D01*
X342000D01*
Y258900D01*
X342800D01*
Y260500D01*
X343600D01*
Y262100D01*
X344400D01*
Y264500D01*
X345200D01*
Y267700D01*
X346000D01*
Y278100D01*
X345200D01*
Y282900D01*
X344400D01*
Y286900D01*
X343600D01*
Y290900D01*
X342800D01*
Y294100D01*
X342000D01*
Y295700D01*
X341200D01*
Y296500D01*
X340400D01*
Y297300D01*
X339600D01*
Y298900D01*
X338800D01*
Y299700D01*
X338000D01*
Y300500D01*
X337200D01*
Y301300D01*
X336400D01*
Y302100D01*
X334800D01*
Y302900D01*
X334000D01*
Y303700D01*
X333200D01*
Y304500D01*
X331600D01*
Y305300D01*
X330800D01*
Y306100D01*
X329200D01*
Y306900D01*
X327600D01*
Y307700D01*
X326000D01*
Y308500D01*
X323600D01*
Y309300D01*
X321200D01*
Y310100D01*
X318000D01*
Y310900D01*
D02*
G37*
%LPD*%
M02*
