G04 Layer_Physical_Order=4*
G04 Layer_Color=16711680*
%FSLAX25Y25*%
%MOIN*%
G70*
G01*
G75*
%ADD22C,0.01000*%
%ADD23C,0.02000*%
%ADD24R,0.04724X0.04724*%
%ADD25C,0.04724*%
%ADD26R,0.05906X0.05906*%
%ADD27C,0.05906*%
%ADD28C,0.12992*%
%ADD29R,0.04724X0.04724*%
%ADD30R,0.05906X0.05906*%
%ADD31C,0.05000*%
%ADD32C,0.19685*%
G36*
X482221Y409012D02*
X481343Y408474D01*
X480093Y407407D01*
X479026Y406157D01*
X478167Y404755D01*
X477538Y403237D01*
X477154Y401639D01*
X477025Y400000D01*
X477154Y398361D01*
X477538Y396763D01*
X478167Y395245D01*
X479026Y393843D01*
X480093Y392593D01*
X481343Y391526D01*
X482745Y390667D01*
X484263Y390038D01*
X485861Y389654D01*
X487500Y389525D01*
X489139Y389654D01*
X490737Y390038D01*
X492255Y390667D01*
X493657Y391526D01*
X494907Y392593D01*
X495974Y393843D01*
X496512Y394721D01*
X497012Y394580D01*
Y211000D01*
X438500D01*
Y239839D01*
X439000Y239938D01*
X439043Y239835D01*
X439604Y239104D01*
X440335Y238543D01*
X441186Y238190D01*
X441600Y238136D01*
Y241600D01*
Y245064D01*
X441186Y245010D01*
X440335Y244657D01*
X439604Y244096D01*
X439043Y243365D01*
X439000Y243262D01*
X438500Y243361D01*
Y284323D01*
X438678Y284749D01*
X439000Y284771D01*
X439004Y284743D01*
X439090Y284086D01*
X439443Y283235D01*
X440004Y282504D01*
X440735Y281943D01*
X441586Y281590D01*
X442000Y281536D01*
Y285000D01*
Y288464D01*
X441586Y288410D01*
X440735Y288057D01*
X440004Y287496D01*
X439443Y286765D01*
X439090Y285914D01*
X439004Y285257D01*
X439000Y285229D01*
X438678Y285251D01*
X438500Y285677D01*
Y400567D01*
X438547Y401047D01*
X439000Y401047D01*
X442000D01*
Y405000D01*
Y408953D01*
X439155Y408953D01*
X438929Y409453D01*
X438981Y409512D01*
X482080D01*
X482221Y409012D01*
D02*
G37*
G36*
X436500Y405666D02*
X436000Y405634D01*
X435961Y405927D01*
X435603Y406792D01*
X435034Y407534D01*
X434292Y408103D01*
X433427Y408461D01*
X432500Y408583D01*
X431572Y408461D01*
X430708Y408103D01*
X429966Y407534D01*
X429397Y406792D01*
X429039Y405927D01*
X428917Y405000D01*
X429039Y404073D01*
X429397Y403208D01*
X429966Y402466D01*
X430708Y401897D01*
X431572Y401539D01*
X432500Y401417D01*
X433427Y401539D01*
X434292Y401897D01*
X435034Y402466D01*
X435603Y403208D01*
X435961Y404073D01*
X436000Y404366D01*
X436500Y404334D01*
X436500Y284740D01*
X436000Y284641D01*
X435908Y284863D01*
X435411Y285511D01*
X434763Y286008D01*
X434009Y286320D01*
X433200Y286427D01*
X432391Y286320D01*
X431637Y286008D01*
X430989Y285511D01*
X430492Y284863D01*
X430180Y284109D01*
X430073Y283300D01*
X430180Y282491D01*
X430492Y281737D01*
X430989Y281089D01*
X431637Y280592D01*
X432391Y280280D01*
X433200Y280173D01*
X434009Y280280D01*
X434763Y280592D01*
X435411Y281089D01*
X435908Y281737D01*
X436000Y281959D01*
X436500Y281860D01*
Y209000D01*
X497012Y209000D01*
Y117920D01*
X496512Y117779D01*
X495974Y118657D01*
X494907Y119907D01*
X493657Y120974D01*
X492255Y121833D01*
X490737Y122462D01*
X489139Y122846D01*
X487500Y122975D01*
X485861Y122846D01*
X484263Y122462D01*
X482745Y121833D01*
X481343Y120974D01*
X480093Y119907D01*
X479026Y118657D01*
X478167Y117255D01*
X477538Y115737D01*
X477154Y114139D01*
X477025Y112500D01*
X477154Y110861D01*
X477538Y109263D01*
X478167Y107745D01*
X479026Y106343D01*
X480093Y105093D01*
X481343Y104026D01*
X482201Y103500D01*
X482060Y103000D01*
X131403D01*
X131282Y103485D01*
X131606Y103658D01*
X132747Y104595D01*
X133684Y105736D01*
X134380Y107039D01*
X134809Y108452D01*
X134904Y109421D01*
X119938D01*
X120034Y108452D01*
X120462Y107039D01*
X121158Y105736D01*
X122095Y104595D01*
X123237Y103658D01*
X123561Y103485D01*
X123439Y103000D01*
X102988D01*
Y409512D01*
X436500D01*
Y405666D01*
D02*
G37*
%LPC*%
G36*
X490000Y231083D02*
X489073Y230961D01*
X488208Y230603D01*
X487466Y230034D01*
X486897Y229292D01*
X486539Y228427D01*
X486417Y227500D01*
X486539Y226573D01*
X486897Y225708D01*
X487466Y224966D01*
X488208Y224397D01*
X489073Y224039D01*
X490000Y223917D01*
X490928Y224039D01*
X491792Y224397D01*
X492534Y224966D01*
X493103Y225708D01*
X493461Y226573D01*
X493583Y227500D01*
X493461Y228427D01*
X493103Y229292D01*
X492534Y230034D01*
X491792Y230603D01*
X490928Y230961D01*
X490000Y231083D01*
D02*
G37*
G36*
X445564Y241100D02*
X442600D01*
Y238136D01*
X443014Y238190D01*
X443865Y238543D01*
X444596Y239104D01*
X445157Y239835D01*
X445510Y240686D01*
X445564Y241100D01*
D02*
G37*
G36*
X490000Y241083D02*
X489073Y240961D01*
X488208Y240603D01*
X487466Y240034D01*
X486897Y239292D01*
X486539Y238427D01*
X486417Y237500D01*
X486539Y236573D01*
X486897Y235708D01*
X487466Y234966D01*
X488208Y234397D01*
X489073Y234039D01*
X490000Y233917D01*
X490928Y234039D01*
X491792Y234397D01*
X492534Y234966D01*
X493103Y235708D01*
X493461Y236573D01*
X493583Y237500D01*
X493461Y238427D01*
X493103Y239292D01*
X492534Y240034D01*
X491792Y240603D01*
X490928Y240961D01*
X490000Y241083D01*
D02*
G37*
G36*
X493553Y221053D02*
X486447D01*
Y213947D01*
X493553D01*
Y221053D01*
D02*
G37*
G36*
X442500Y393127D02*
X441691Y393020D01*
X440937Y392708D01*
X440289Y392211D01*
X439792Y391563D01*
X439480Y390809D01*
X439373Y390000D01*
X439480Y389191D01*
X439792Y388437D01*
X440289Y387789D01*
X440937Y387292D01*
X441691Y386980D01*
X442500Y386873D01*
X443309Y386980D01*
X444063Y387292D01*
X444711Y387789D01*
X445208Y388437D01*
X445520Y389191D01*
X445627Y390000D01*
X445520Y390809D01*
X445208Y391563D01*
X444711Y392211D01*
X444063Y392708D01*
X443309Y393020D01*
X442500Y393127D01*
D02*
G37*
G36*
X446453Y404500D02*
X443000D01*
Y401047D01*
X446453D01*
Y404500D01*
D02*
G37*
G36*
X443000Y408953D02*
Y405500D01*
X446453D01*
Y408953D01*
X443000D01*
D02*
G37*
G36*
X490000Y281083D02*
X489073Y280961D01*
X488208Y280603D01*
X487466Y280034D01*
X486897Y279292D01*
X486539Y278427D01*
X486417Y277500D01*
X486539Y276573D01*
X486897Y275708D01*
X487466Y274966D01*
X488208Y274397D01*
X489073Y274039D01*
X490000Y273917D01*
X490928Y274039D01*
X491792Y274397D01*
X492534Y274966D01*
X493103Y275708D01*
X493461Y276573D01*
X493583Y277500D01*
X493461Y278427D01*
X493103Y279292D01*
X492534Y280034D01*
X491792Y280603D01*
X490928Y280961D01*
X490000Y281083D01*
D02*
G37*
G36*
Y251083D02*
X489073Y250961D01*
X488208Y250603D01*
X487466Y250034D01*
X486897Y249292D01*
X486539Y248427D01*
X486417Y247500D01*
X486539Y246573D01*
X486897Y245708D01*
X487466Y244966D01*
X488208Y244397D01*
X489073Y244039D01*
X490000Y243917D01*
X490928Y244039D01*
X491792Y244397D01*
X492534Y244966D01*
X493103Y245708D01*
X493461Y246573D01*
X493583Y247500D01*
X493461Y248427D01*
X493103Y249292D01*
X492534Y250034D01*
X491792Y250603D01*
X490928Y250961D01*
X490000Y251083D01*
D02*
G37*
G36*
Y261083D02*
X489073Y260961D01*
X488208Y260603D01*
X487466Y260034D01*
X486897Y259292D01*
X486539Y258427D01*
X486417Y257500D01*
X486539Y256573D01*
X486897Y255708D01*
X487466Y254966D01*
X488208Y254397D01*
X489073Y254039D01*
X490000Y253917D01*
X490928Y254039D01*
X491792Y254397D01*
X492534Y254966D01*
X493103Y255708D01*
X493461Y256573D01*
X493583Y257500D01*
X493461Y258427D01*
X493103Y259292D01*
X492534Y260034D01*
X491792Y260603D01*
X490928Y260961D01*
X490000Y261083D01*
D02*
G37*
G36*
X455800Y246427D02*
X454991Y246320D01*
X454237Y246008D01*
X453589Y245511D01*
X453092Y244863D01*
X452780Y244109D01*
X452673Y243300D01*
X452780Y242491D01*
X453092Y241737D01*
X453589Y241089D01*
X454237Y240592D01*
X454991Y240280D01*
X455800Y240173D01*
X456609Y240280D01*
X457363Y240592D01*
X458011Y241089D01*
X458508Y241737D01*
X458820Y242491D01*
X458927Y243300D01*
X458820Y244109D01*
X458508Y244863D01*
X458011Y245511D01*
X457363Y246008D01*
X456609Y246320D01*
X455800Y246427D01*
D02*
G37*
G36*
X442600Y245064D02*
Y242100D01*
X445564D01*
X445510Y242514D01*
X445157Y243365D01*
X444596Y244096D01*
X443865Y244657D01*
X443014Y245010D01*
X442600Y245064D01*
D02*
G37*
G36*
X490000Y271083D02*
X489073Y270961D01*
X488208Y270603D01*
X487466Y270034D01*
X486897Y269292D01*
X486539Y268427D01*
X486417Y267500D01*
X486539Y266573D01*
X486897Y265708D01*
X487466Y264966D01*
X488208Y264397D01*
X489073Y264039D01*
X490000Y263917D01*
X490928Y264039D01*
X491792Y264397D01*
X492534Y264966D01*
X493103Y265708D01*
X493461Y266573D01*
X493583Y267500D01*
X493461Y268427D01*
X493103Y269292D01*
X492534Y270034D01*
X491792Y270603D01*
X490928Y270961D01*
X490000Y271083D01*
D02*
G37*
G36*
Y301083D02*
X489073Y300961D01*
X488208Y300603D01*
X487466Y300034D01*
X486897Y299292D01*
X486539Y298427D01*
X486417Y297500D01*
X486539Y296573D01*
X486897Y295708D01*
X487466Y294966D01*
X488208Y294397D01*
X489073Y294039D01*
X490000Y293917D01*
X490928Y294039D01*
X491792Y294397D01*
X492534Y294966D01*
X493103Y295708D01*
X493461Y296573D01*
X493583Y297500D01*
X493461Y298427D01*
X493103Y299292D01*
X492534Y300034D01*
X491792Y300603D01*
X490928Y300961D01*
X490000Y301083D01*
D02*
G37*
G36*
X445964Y284500D02*
X443000D01*
Y281536D01*
X443414Y281590D01*
X444265Y281943D01*
X444996Y282504D01*
X445557Y283235D01*
X445910Y284086D01*
X445964Y284500D01*
D02*
G37*
G36*
X443000Y288464D02*
Y285500D01*
X445964D01*
X445910Y285914D01*
X445557Y286765D01*
X444996Y287496D01*
X444265Y288057D01*
X443414Y288410D01*
X443000Y288464D01*
D02*
G37*
G36*
X454244Y295371D02*
X453435Y295264D01*
X452681Y294952D01*
X452033Y294455D01*
X451536Y293808D01*
X451224Y293053D01*
X451117Y292244D01*
X451224Y291435D01*
X451536Y290681D01*
X452033Y290033D01*
X452681Y289536D01*
X453435Y289224D01*
X454244Y289117D01*
X455053Y289224D01*
X455807Y289536D01*
X456455Y290033D01*
X456952Y290681D01*
X457264Y291435D01*
X457371Y292244D01*
X457264Y293053D01*
X456952Y293808D01*
X456455Y294455D01*
X455807Y294952D01*
X455053Y295264D01*
X454244Y295371D01*
D02*
G37*
G36*
X490000Y291083D02*
X489073Y290961D01*
X488208Y290603D01*
X487466Y290034D01*
X486897Y289292D01*
X486539Y288427D01*
X486417Y287500D01*
X486539Y286573D01*
X486897Y285708D01*
X487466Y284966D01*
X488208Y284397D01*
X489073Y284039D01*
X490000Y283917D01*
X490928Y284039D01*
X491792Y284397D01*
X492534Y284966D01*
X493103Y285708D01*
X493461Y286573D01*
X493583Y287500D01*
X493461Y288427D01*
X493103Y289292D01*
X492534Y290034D01*
X491792Y290603D01*
X490928Y290961D01*
X490000Y291083D01*
D02*
G37*
G36*
X299500Y198464D02*
X299086Y198410D01*
X298235Y198057D01*
X297504Y197496D01*
X296943Y196765D01*
X296590Y195914D01*
X296536Y195500D01*
X299500D01*
Y198464D01*
D02*
G37*
G36*
X300500D02*
Y195500D01*
X303464D01*
X303410Y195914D01*
X303057Y196765D01*
X302496Y197496D01*
X301765Y198057D01*
X300914Y198410D01*
X300500Y198464D01*
D02*
G37*
G36*
X200500Y198464D02*
Y195500D01*
X203464D01*
X203410Y195914D01*
X203057Y196765D01*
X202496Y197496D01*
X201765Y198057D01*
X200914Y198410D01*
X200500Y198464D01*
D02*
G37*
G36*
X272008Y197000D02*
X269043D01*
Y194036D01*
X269457Y194090D01*
X270308Y194443D01*
X271040Y195004D01*
X271601Y195735D01*
X271953Y196586D01*
X272008Y197000D01*
D02*
G37*
G36*
X199500Y198464D02*
X199086Y198410D01*
X198235Y198057D01*
X197504Y197496D01*
X196943Y196765D01*
X196590Y195914D01*
X196536Y195500D01*
X199500D01*
Y198464D01*
D02*
G37*
G36*
X147000Y199657D02*
X143579D01*
X143649Y199126D01*
X144047Y198164D01*
X144681Y197338D01*
X145507Y196705D01*
X146468Y196307D01*
X147000Y196236D01*
Y199657D01*
D02*
G37*
G36*
X269043Y200964D02*
Y198000D01*
X272008D01*
X271953Y198414D01*
X271601Y199265D01*
X271040Y199996D01*
X270308Y200557D01*
X269457Y200910D01*
X269043Y200964D01*
D02*
G37*
G36*
X310000Y206083D02*
X309073Y205961D01*
X308208Y205603D01*
X307466Y205034D01*
X306897Y204292D01*
X306539Y203427D01*
X306417Y202500D01*
X306539Y201573D01*
X306897Y200708D01*
X307466Y199966D01*
X308208Y199397D01*
X309073Y199039D01*
X310000Y198917D01*
X310927Y199039D01*
X311792Y199397D01*
X312534Y199966D01*
X313103Y200708D01*
X313461Y201573D01*
X313583Y202500D01*
X313461Y203427D01*
X313103Y204292D01*
X312534Y205034D01*
X311792Y205603D01*
X310927Y205961D01*
X310000Y206083D01*
D02*
G37*
G36*
X268043Y200964D02*
X267630Y200910D01*
X266778Y200557D01*
X266047Y199996D01*
X265486Y199265D01*
X265133Y198414D01*
X265079Y198000D01*
X268043D01*
Y200964D01*
D02*
G37*
G36*
X330462Y205462D02*
X324538D01*
Y199538D01*
X330462D01*
Y205462D01*
D02*
G37*
G36*
X151421Y199657D02*
X148000D01*
Y196236D01*
X148532Y196307D01*
X149493Y196705D01*
X150319Y197338D01*
X150953Y198164D01*
X151351Y199126D01*
X151421Y199657D01*
D02*
G37*
G36*
X268043Y197000D02*
X265079D01*
X265133Y196586D01*
X265486Y195735D01*
X266047Y195004D01*
X266778Y194443D01*
X267630Y194090D01*
X268043Y194036D01*
Y197000D01*
D02*
G37*
G36*
X126921Y189421D02*
X119938D01*
X120034Y188452D01*
X120462Y187039D01*
X121158Y185737D01*
X122095Y184595D01*
X123237Y183658D01*
X124539Y182962D01*
X125952Y182534D01*
X126921Y182438D01*
Y189421D01*
D02*
G37*
G36*
X134904D02*
X127921D01*
Y182438D01*
X128891Y182534D01*
X130304Y182962D01*
X131606Y183658D01*
X132747Y184595D01*
X133684Y185737D01*
X134380Y187039D01*
X134809Y188452D01*
X134904Y189421D01*
D02*
G37*
G36*
X372500Y190627D02*
X371691Y190520D01*
X370937Y190208D01*
X370289Y189711D01*
X369792Y189063D01*
X369480Y188309D01*
X369373Y187500D01*
X369480Y186691D01*
X369792Y185937D01*
X370289Y185289D01*
X370937Y184792D01*
X371691Y184480D01*
X372500Y184373D01*
X373309Y184480D01*
X374063Y184792D01*
X374711Y185289D01*
X375208Y185937D01*
X375520Y186691D01*
X375627Y187500D01*
X375520Y188309D01*
X375208Y189063D01*
X374711Y189711D01*
X374063Y190208D01*
X373309Y190520D01*
X372500Y190627D01*
D02*
G37*
G36*
X125000Y180475D02*
X123361Y180346D01*
X121763Y179962D01*
X120245Y179333D01*
X118843Y178474D01*
X117593Y177407D01*
X116526Y176157D01*
X115667Y174756D01*
X115038Y173237D01*
X114654Y171639D01*
X114525Y170000D01*
X114654Y168361D01*
X115038Y166763D01*
X115667Y165244D01*
X116526Y163843D01*
X117593Y162593D01*
X118843Y161526D01*
X120245Y160667D01*
X121763Y160038D01*
X123361Y159654D01*
X125000Y159525D01*
X126639Y159654D01*
X128237Y160038D01*
X129755Y160667D01*
X131157Y161526D01*
X132407Y162593D01*
X133474Y163843D01*
X134333Y165244D01*
X134962Y166763D01*
X135346Y168361D01*
X135475Y170000D01*
X135346Y171639D01*
X134962Y173237D01*
X134333Y174756D01*
X133474Y176157D01*
X132407Y177407D01*
X131157Y178474D01*
X129755Y179333D01*
X128237Y179962D01*
X126639Y180346D01*
X125000Y180475D01*
D02*
G37*
G36*
X492500Y173583D02*
X491573Y173461D01*
X490708Y173103D01*
X489966Y172534D01*
X489397Y171792D01*
X489039Y170927D01*
X488917Y170000D01*
X489039Y169073D01*
X489397Y168208D01*
X489966Y167466D01*
X490708Y166897D01*
X491573Y166539D01*
X492500Y166417D01*
X493428Y166539D01*
X494292Y166897D01*
X495034Y167466D01*
X495603Y168208D01*
X495961Y169073D01*
X496083Y170000D01*
X495961Y170927D01*
X495603Y171792D01*
X495034Y172534D01*
X494292Y173103D01*
X493428Y173461D01*
X492500Y173583D01*
D02*
G37*
G36*
X332756Y183383D02*
X331947Y183276D01*
X331192Y182964D01*
X330545Y182467D01*
X330048Y181819D01*
X329736Y181065D01*
X329629Y180256D01*
X329736Y179447D01*
X330048Y178692D01*
X330545Y178045D01*
X331192Y177548D01*
X331947Y177236D01*
X332756Y177129D01*
X333565Y177236D01*
X334319Y177548D01*
X334967Y178045D01*
X335464Y178692D01*
X335776Y179447D01*
X335883Y180256D01*
X335776Y181065D01*
X335464Y181819D01*
X334967Y182467D01*
X334319Y182964D01*
X333565Y183276D01*
X332756Y183383D01*
D02*
G37*
G36*
X203464Y194500D02*
X200500D01*
Y191536D01*
X200914Y191590D01*
X201765Y191943D01*
X202496Y192504D01*
X203057Y193235D01*
X203410Y194086D01*
X203464Y194500D01*
D02*
G37*
G36*
X299500Y194500D02*
X296536D01*
X296590Y194086D01*
X296943Y193235D01*
X297504Y192504D01*
X298235Y191943D01*
X299086Y191590D01*
X299500Y191536D01*
Y194500D01*
D02*
G37*
G36*
X303464D02*
X300500D01*
Y191536D01*
X300914Y191590D01*
X301765Y191943D01*
X302496Y192504D01*
X303057Y193235D01*
X303410Y194086D01*
X303464Y194500D01*
D02*
G37*
G36*
X126921Y197404D02*
X125952Y197309D01*
X124539Y196880D01*
X123237Y196184D01*
X122095Y195247D01*
X121158Y194106D01*
X120462Y192804D01*
X120034Y191391D01*
X119938Y190421D01*
X126921D01*
Y197404D01*
D02*
G37*
G36*
X127921D02*
Y190421D01*
X134904D01*
X134809Y191391D01*
X134380Y192804D01*
X133684Y194106D01*
X132747Y195247D01*
X131606Y196184D01*
X130304Y196880D01*
X128891Y197309D01*
X127921Y197404D01*
D02*
G37*
G36*
X199500Y194500D02*
X196536D01*
X196590Y194086D01*
X196943Y193235D01*
X197504Y192504D01*
X198235Y191943D01*
X199086Y191590D01*
X199500Y191536D01*
Y194500D01*
D02*
G37*
G36*
X207000Y228464D02*
X206586Y228410D01*
X205735Y228057D01*
X205004Y227496D01*
X204443Y226765D01*
X204090Y225914D01*
X204036Y225500D01*
X207000D01*
Y228464D01*
D02*
G37*
G36*
X208000D02*
Y225500D01*
X210964D01*
X210910Y225914D01*
X210557Y226765D01*
X209996Y227496D01*
X209265Y228057D01*
X208414Y228410D01*
X208000Y228464D01*
D02*
G37*
G36*
X220256Y235371D02*
X219447Y235264D01*
X218692Y234952D01*
X218045Y234455D01*
X217548Y233807D01*
X217236Y233053D01*
X217129Y232244D01*
X217236Y231435D01*
X217548Y230681D01*
X218045Y230033D01*
X218692Y229536D01*
X219447Y229224D01*
X220256Y229117D01*
X221065Y229224D01*
X221819Y229536D01*
X222467Y230033D01*
X222964Y230681D01*
X223276Y231435D01*
X223383Y232244D01*
X223276Y233053D01*
X222964Y233807D01*
X222467Y234455D01*
X221819Y234952D01*
X221065Y235264D01*
X220256Y235371D01*
D02*
G37*
G36*
X134904Y229579D02*
X127921D01*
Y222596D01*
X128891Y222691D01*
X130304Y223120D01*
X131606Y223816D01*
X132747Y224753D01*
X133684Y225894D01*
X134380Y227196D01*
X134809Y228609D01*
X134904Y229579D01*
D02*
G37*
G36*
X427500Y230627D02*
X426691Y230520D01*
X425937Y230208D01*
X425289Y229711D01*
X424792Y229063D01*
X424480Y228309D01*
X424373Y227500D01*
X424480Y226691D01*
X424792Y225937D01*
X425289Y225289D01*
X425937Y224792D01*
X426691Y224480D01*
X427500Y224373D01*
X428309Y224480D01*
X429063Y224792D01*
X429711Y225289D01*
X430208Y225937D01*
X430520Y226691D01*
X430627Y227500D01*
X430520Y228309D01*
X430208Y229063D01*
X429711Y229711D01*
X429063Y230208D01*
X428309Y230520D01*
X427500Y230627D01*
D02*
G37*
G36*
X269272Y240488D02*
X268498Y240386D01*
X267778Y240088D01*
X267159Y239613D01*
X266684Y238994D01*
X266386Y238273D01*
X266284Y237500D01*
X266386Y236727D01*
X266684Y236006D01*
X267159Y235387D01*
X267778Y234912D01*
X268498Y234614D01*
X269272Y234512D01*
X270045Y234614D01*
X270765Y234912D01*
X271384Y235387D01*
X271859Y236006D01*
X272158Y236727D01*
X272259Y237500D01*
X272158Y238273D01*
X271859Y238994D01*
X271384Y239613D01*
X270765Y240088D01*
X270045Y240386D01*
X269272Y240488D01*
D02*
G37*
G36*
X252234Y240462D02*
X246309D01*
Y234538D01*
X252234D01*
Y240462D01*
D02*
G37*
G36*
X126921Y237562D02*
X125952Y237466D01*
X124539Y237038D01*
X123237Y236342D01*
X122095Y235405D01*
X121158Y234263D01*
X120462Y232961D01*
X120034Y231548D01*
X119938Y230579D01*
X126921D01*
Y237562D01*
D02*
G37*
G36*
X127921D02*
Y230579D01*
X134904D01*
X134809Y231548D01*
X134380Y232961D01*
X133684Y234263D01*
X132747Y235405D01*
X131606Y236342D01*
X130304Y237038D01*
X128891Y237466D01*
X127921Y237562D01*
D02*
G37*
G36*
X126921Y229579D02*
X119938D01*
X120034Y228609D01*
X120462Y227196D01*
X121158Y225894D01*
X122095Y224753D01*
X123237Y223816D01*
X124539Y223120D01*
X125952Y222691D01*
X126921Y222596D01*
Y229579D01*
D02*
G37*
G36*
X151053Y213553D02*
X143947D01*
Y206447D01*
X151053D01*
Y213553D01*
D02*
G37*
G36*
X327500Y215488D02*
X326727Y215386D01*
X326006Y215088D01*
X325387Y214613D01*
X324913Y213994D01*
X324614Y213273D01*
X324512Y212500D01*
X324614Y211727D01*
X324913Y211006D01*
X325387Y210387D01*
X326006Y209912D01*
X326727Y209614D01*
X327500Y209512D01*
X328273Y209614D01*
X328994Y209912D01*
X329613Y210387D01*
X330087Y211006D01*
X330386Y211727D01*
X330488Y212500D01*
X330386Y213273D01*
X330087Y213994D01*
X329613Y214613D01*
X328994Y215088D01*
X328273Y215386D01*
X327500Y215488D01*
D02*
G37*
G36*
X147000Y204079D02*
X146468Y204009D01*
X145507Y203610D01*
X144681Y202977D01*
X144047Y202151D01*
X143649Y201189D01*
X143579Y200658D01*
X147000D01*
Y204079D01*
D02*
G37*
G36*
X148000D02*
Y200658D01*
X151421D01*
X151351Y201189D01*
X150953Y202151D01*
X150319Y202977D01*
X149493Y203610D01*
X148532Y204009D01*
X148000Y204079D01*
D02*
G37*
G36*
X230000Y223127D02*
X229191Y223020D01*
X228437Y222708D01*
X227789Y222211D01*
X227292Y221563D01*
X226980Y220809D01*
X226873Y220000D01*
X226980Y219191D01*
X227292Y218437D01*
X227789Y217789D01*
X228437Y217292D01*
X229191Y216980D01*
X230000Y216873D01*
X230809Y216980D01*
X231563Y217292D01*
X232211Y217789D01*
X232656Y218369D01*
X249324D01*
X259469Y208224D01*
X259373Y207500D01*
X259480Y206691D01*
X259792Y205937D01*
X260289Y205289D01*
X260937Y204792D01*
X261691Y204480D01*
X262500Y204373D01*
X263309Y204480D01*
X264063Y204792D01*
X264711Y205289D01*
X265208Y205937D01*
X265520Y206691D01*
X265627Y207500D01*
X265520Y208309D01*
X265208Y209063D01*
X264711Y209711D01*
X264063Y210208D01*
X263309Y210520D01*
X262500Y210627D01*
X261776Y210531D01*
X251153Y221153D01*
X250624Y221507D01*
X250000Y221631D01*
X232656D01*
X232211Y222211D01*
X231563Y222708D01*
X230809Y223020D01*
X230000Y223127D01*
D02*
G37*
G36*
X207000Y224500D02*
X204036D01*
X204090Y224086D01*
X204443Y223235D01*
X205004Y222504D01*
X205735Y221943D01*
X206586Y221590D01*
X207000Y221536D01*
Y224500D01*
D02*
G37*
G36*
X210964D02*
X208000D01*
Y221536D01*
X208414Y221590D01*
X209265Y221943D01*
X209996Y222504D01*
X210557Y223235D01*
X210910Y224086D01*
X210964Y224500D01*
D02*
G37*
G36*
X297244Y227871D02*
X296435Y227764D01*
X295681Y227452D01*
X295033Y226955D01*
X294536Y226308D01*
X294224Y225553D01*
X294117Y224744D01*
X294224Y223935D01*
X294536Y223181D01*
X295033Y222533D01*
X295681Y222036D01*
X296435Y221724D01*
X297244Y221617D01*
X298053Y221724D01*
X298808Y222036D01*
X299455Y222533D01*
X299952Y223181D01*
X300264Y223935D01*
X300371Y224744D01*
X300264Y225553D01*
X299952Y226308D01*
X299455Y226955D01*
X298808Y227452D01*
X298053Y227764D01*
X297244Y227871D01*
D02*
G37*
G36*
X315000Y248127D02*
X314191Y248020D01*
X313437Y247708D01*
X312789Y247211D01*
X312292Y246563D01*
X311980Y245809D01*
X311873Y245000D01*
X311980Y244191D01*
X312292Y243437D01*
X312789Y242789D01*
X313369Y242344D01*
Y226053D01*
X306447D01*
Y218947D01*
X313369D01*
Y218176D01*
X311088Y215895D01*
X310927Y215961D01*
X310000Y216083D01*
X309073Y215961D01*
X308208Y215603D01*
X307466Y215034D01*
X306897Y214292D01*
X306539Y213427D01*
X306417Y212500D01*
X306539Y211573D01*
X306897Y210708D01*
X307466Y209966D01*
X308208Y209397D01*
X309073Y209039D01*
X310000Y208917D01*
X310927Y209039D01*
X311792Y209397D01*
X312534Y209966D01*
X313103Y210708D01*
X313461Y211573D01*
X313583Y212500D01*
X313461Y213427D01*
X313395Y213588D01*
X316154Y216347D01*
X316507Y216876D01*
X316631Y217500D01*
Y242344D01*
X317211Y242789D01*
X317708Y243437D01*
X318020Y244191D01*
X318127Y245000D01*
X318020Y245809D01*
X317708Y246563D01*
X317211Y247211D01*
X316563Y247708D01*
X315809Y248020D01*
X315000Y248127D01*
D02*
G37*
G36*
X259272Y240488D02*
X258498Y240386D01*
X257778Y240088D01*
X257159Y239613D01*
X256684Y238994D01*
X256386Y238273D01*
X256284Y237500D01*
X256386Y236727D01*
X256684Y236006D01*
X257159Y235387D01*
X257640Y235018D01*
Y222656D01*
X257061Y222211D01*
X256564Y221563D01*
X256251Y220809D01*
X256145Y220000D01*
X256251Y219191D01*
X256564Y218437D01*
X257061Y217789D01*
X257708Y217292D01*
X258462Y216980D01*
X259272Y216873D01*
X260081Y216980D01*
X260835Y217292D01*
X261483Y217789D01*
X261979Y218437D01*
X262292Y219191D01*
X262398Y220000D01*
X262292Y220809D01*
X261979Y221563D01*
X261483Y222211D01*
X260903Y222656D01*
Y235018D01*
X261384Y235387D01*
X261859Y236006D01*
X262158Y236727D01*
X262259Y237500D01*
X262158Y238273D01*
X261859Y238994D01*
X261384Y239613D01*
X260766Y240088D01*
X260045Y240386D01*
X259272Y240488D01*
D02*
G37*
G36*
X327500Y225488D02*
X326727Y225386D01*
X326006Y225087D01*
X325387Y224613D01*
X324913Y223994D01*
X324614Y223273D01*
X324512Y222500D01*
X324614Y221727D01*
X324913Y221006D01*
X325387Y220387D01*
X326006Y219913D01*
X326727Y219614D01*
X327500Y219512D01*
X328273Y219614D01*
X328994Y219913D01*
X329613Y220387D01*
X330087Y221006D01*
X330386Y221727D01*
X330488Y222500D01*
X330386Y223273D01*
X330087Y223994D01*
X329613Y224613D01*
X328994Y225087D01*
X328273Y225386D01*
X327500Y225488D01*
D02*
G37*
G36*
X268000Y119508D02*
Y116543D01*
X270964D01*
X270910Y116957D01*
X270557Y117808D01*
X269996Y118540D01*
X269265Y119100D01*
X268414Y119453D01*
X268000Y119508D01*
D02*
G37*
G36*
X310000Y126083D02*
X309073Y125961D01*
X308208Y125603D01*
X307466Y125034D01*
X306897Y124292D01*
X306539Y123427D01*
X306417Y122500D01*
X306539Y121573D01*
X306897Y120708D01*
X307466Y119966D01*
X308208Y119397D01*
X309073Y119039D01*
X310000Y118917D01*
X310927Y119039D01*
X311792Y119397D01*
X312534Y119966D01*
X313103Y120708D01*
X313461Y121573D01*
X313583Y122500D01*
X313461Y123427D01*
X313103Y124292D01*
X312534Y125034D01*
X311792Y125603D01*
X310927Y125961D01*
X310000Y126083D01*
D02*
G37*
G36*
X458400Y122000D02*
X455436D01*
X455490Y121586D01*
X455843Y120735D01*
X456404Y120004D01*
X457135Y119443D01*
X457986Y119090D01*
X458400Y119036D01*
Y122000D01*
D02*
G37*
G36*
X147000Y119658D02*
X143579D01*
X143649Y119126D01*
X144047Y118164D01*
X144681Y117338D01*
X145507Y116705D01*
X146468Y116306D01*
X147000Y116236D01*
Y119658D01*
D02*
G37*
G36*
X151421D02*
X148000D01*
Y116236D01*
X148532Y116306D01*
X149493Y116705D01*
X150319Y117338D01*
X150953Y118164D01*
X151351Y119126D01*
X151421Y119658D01*
D02*
G37*
G36*
X267000Y119508D02*
X266586Y119453D01*
X265735Y119100D01*
X265004Y118540D01*
X264443Y117808D01*
X264090Y116957D01*
X264036Y116543D01*
X267000D01*
Y119508D01*
D02*
G37*
G36*
X148000Y124079D02*
Y120658D01*
X151421D01*
X151351Y121189D01*
X150953Y122151D01*
X150319Y122977D01*
X149493Y123610D01*
X148532Y124009D01*
X148000Y124079D01*
D02*
G37*
G36*
X458400Y125964D02*
X457986Y125910D01*
X457135Y125557D01*
X456404Y124996D01*
X455843Y124265D01*
X455490Y123414D01*
X455436Y123000D01*
X458400D01*
Y125964D01*
D02*
G37*
G36*
X459400D02*
Y123000D01*
X462364D01*
X462310Y123414D01*
X461957Y124265D01*
X461396Y124996D01*
X460665Y125557D01*
X459814Y125910D01*
X459400Y125964D01*
D02*
G37*
G36*
X462364Y122000D02*
X459400D01*
Y119036D01*
X459814Y119090D01*
X460665Y119443D01*
X461396Y120004D01*
X461957Y120735D01*
X462310Y121586D01*
X462364Y122000D01*
D02*
G37*
G36*
X330462Y125462D02*
X324538D01*
Y119538D01*
X330462D01*
Y125462D01*
D02*
G37*
G36*
X147000Y124079D02*
X146468Y124009D01*
X145507Y123610D01*
X144681Y122977D01*
X144047Y122151D01*
X143649Y121189D01*
X143579Y120658D01*
X147000D01*
Y124079D01*
D02*
G37*
G36*
X300500Y118464D02*
Y115500D01*
X303464D01*
X303410Y115914D01*
X303057Y116765D01*
X302496Y117496D01*
X301765Y118057D01*
X300914Y118410D01*
X300500Y118464D01*
D02*
G37*
G36*
X199500Y114500D02*
X196536D01*
X196590Y114086D01*
X196943Y113235D01*
X197504Y112504D01*
X198235Y111943D01*
X199086Y111590D01*
X199500Y111536D01*
Y114500D01*
D02*
G37*
G36*
X203464D02*
X200500D01*
Y111536D01*
X200914Y111590D01*
X201765Y111943D01*
X202496Y112504D01*
X203057Y113235D01*
X203410Y114086D01*
X203464Y114500D01*
D02*
G37*
G36*
X299500Y114500D02*
X296536D01*
X296590Y114086D01*
X296943Y113235D01*
X297504Y112504D01*
X298235Y111943D01*
X299086Y111590D01*
X299500Y111536D01*
Y114500D01*
D02*
G37*
G36*
X350000Y145627D02*
X349191Y145520D01*
X348437Y145208D01*
X347789Y144711D01*
X347292Y144063D01*
X346980Y143309D01*
X346873Y142500D01*
X346980Y141691D01*
X347292Y140937D01*
X347789Y140289D01*
X348369Y139844D01*
Y115156D01*
X347789Y114711D01*
X347292Y114063D01*
X346980Y113309D01*
X346873Y112500D01*
X346980Y111691D01*
X347292Y110937D01*
X347789Y110289D01*
X348437Y109792D01*
X349191Y109480D01*
X350000Y109373D01*
X350809Y109480D01*
X351563Y109792D01*
X352211Y110289D01*
X352708Y110937D01*
X353020Y111691D01*
X353127Y112500D01*
X353020Y113309D01*
X352708Y114063D01*
X352211Y114711D01*
X351631Y115156D01*
Y139844D01*
X352211Y140289D01*
X352708Y140937D01*
X353020Y141691D01*
X353127Y142500D01*
X353020Y143309D01*
X352708Y144063D01*
X352211Y144711D01*
X351563Y145208D01*
X350809Y145520D01*
X350000Y145627D01*
D02*
G37*
G36*
X126921Y117404D02*
X125952Y117309D01*
X124539Y116880D01*
X123237Y116184D01*
X122095Y115247D01*
X121158Y114106D01*
X120462Y112804D01*
X120034Y111391D01*
X119938Y110421D01*
X126921D01*
Y117404D01*
D02*
G37*
G36*
X127921D02*
Y110421D01*
X134904D01*
X134809Y111391D01*
X134380Y112804D01*
X133684Y114106D01*
X132747Y115247D01*
X131606Y116184D01*
X130304Y116880D01*
X128891Y117309D01*
X127921Y117404D01*
D02*
G37*
G36*
X199500Y118464D02*
X199086Y118410D01*
X198235Y118057D01*
X197504Y117496D01*
X196943Y116765D01*
X196590Y115914D01*
X196536Y115500D01*
X199500D01*
Y118464D01*
D02*
G37*
G36*
X200500D02*
Y115500D01*
X203464D01*
X203410Y115914D01*
X203057Y116765D01*
X202496Y117496D01*
X201765Y118057D01*
X200914Y118410D01*
X200500Y118464D01*
D02*
G37*
G36*
X299500Y118464D02*
X299086Y118410D01*
X298235Y118057D01*
X297504Y117496D01*
X296943Y116765D01*
X296590Y115914D01*
X296536Y115500D01*
X299500D01*
Y118464D01*
D02*
G37*
G36*
X303464Y114500D02*
X300500D01*
Y111536D01*
X300914Y111590D01*
X301765Y111943D01*
X302496Y112504D01*
X303057Y113235D01*
X303410Y114086D01*
X303464Y114500D01*
D02*
G37*
G36*
X267000Y115543D02*
X264036D01*
X264090Y115130D01*
X264443Y114278D01*
X265004Y113547D01*
X265735Y112986D01*
X266586Y112633D01*
X267000Y112579D01*
Y115543D01*
D02*
G37*
G36*
X270964D02*
X268000D01*
Y112579D01*
X268414Y112633D01*
X269265Y112986D01*
X269996Y113547D01*
X270557Y114278D01*
X270910Y115130D01*
X270964Y115543D01*
D02*
G37*
G36*
X207000Y148464D02*
X206586Y148410D01*
X205735Y148057D01*
X205004Y147496D01*
X204443Y146765D01*
X204090Y145914D01*
X204036Y145500D01*
X207000D01*
Y148464D01*
D02*
G37*
G36*
X208000D02*
Y145500D01*
X210964D01*
X210910Y145914D01*
X210557Y146765D01*
X209996Y147496D01*
X209265Y148057D01*
X208414Y148410D01*
X208000Y148464D01*
D02*
G37*
G36*
X492500Y153583D02*
X491573Y153461D01*
X490708Y153103D01*
X489966Y152534D01*
X489397Y151792D01*
X489039Y150927D01*
X488917Y150000D01*
X489039Y149073D01*
X489397Y148208D01*
X489966Y147466D01*
X490708Y146897D01*
X491573Y146539D01*
X492500Y146417D01*
X493428Y146539D01*
X494292Y146897D01*
X495034Y147466D01*
X495603Y148208D01*
X495961Y149073D01*
X496083Y150000D01*
X495961Y150927D01*
X495603Y151792D01*
X495034Y152534D01*
X494292Y153103D01*
X493428Y153461D01*
X492500Y153583D01*
D02*
G37*
G36*
X297500Y148127D02*
X296691Y148020D01*
X295937Y147708D01*
X295289Y147211D01*
X294792Y146563D01*
X294480Y145809D01*
X294373Y145000D01*
X294480Y144191D01*
X294792Y143437D01*
X295289Y142789D01*
X295937Y142292D01*
X296691Y141980D01*
X297500Y141873D01*
X298309Y141980D01*
X299063Y142292D01*
X299711Y142789D01*
X300208Y143437D01*
X300520Y144191D01*
X300627Y145000D01*
X300520Y145809D01*
X300208Y146563D01*
X299711Y147211D01*
X299063Y147708D01*
X298309Y148020D01*
X297500Y148127D01*
D02*
G37*
G36*
X126921Y149579D02*
X119938D01*
X120034Y148609D01*
X120462Y147196D01*
X121158Y145894D01*
X122095Y144753D01*
X123237Y143816D01*
X124539Y143120D01*
X125952Y142691D01*
X126921Y142596D01*
Y149579D01*
D02*
G37*
G36*
X134904D02*
X127921D01*
Y142596D01*
X128891Y142691D01*
X130304Y143120D01*
X131606Y143816D01*
X132747Y144753D01*
X133684Y145894D01*
X134380Y147196D01*
X134809Y148609D01*
X134904Y149579D01*
D02*
G37*
G36*
X269272Y160488D02*
X268498Y160386D01*
X267778Y160088D01*
X267159Y159613D01*
X266684Y158994D01*
X266386Y158273D01*
X266284Y157500D01*
X266386Y156727D01*
X266684Y156006D01*
X267159Y155387D01*
X267778Y154912D01*
X268498Y154614D01*
X269272Y154512D01*
X270045Y154614D01*
X270765Y154912D01*
X271384Y155387D01*
X271859Y156006D01*
X272158Y156727D01*
X272259Y157500D01*
X272158Y158273D01*
X271859Y158994D01*
X271384Y159613D01*
X270765Y160088D01*
X270045Y160386D01*
X269272Y160488D01*
D02*
G37*
G36*
X252234Y160462D02*
X246309D01*
Y154538D01*
X252234D01*
Y160462D01*
D02*
G37*
G36*
X492500Y163583D02*
X491573Y163461D01*
X490708Y163103D01*
X489966Y162534D01*
X489397Y161792D01*
X489039Y160927D01*
X488917Y160000D01*
X489039Y159073D01*
X489397Y158208D01*
X489966Y157466D01*
X490708Y156897D01*
X491573Y156539D01*
X492500Y156417D01*
X493428Y156539D01*
X494292Y156897D01*
X495034Y157466D01*
X495603Y158208D01*
X495961Y159073D01*
X496083Y160000D01*
X495961Y160927D01*
X495603Y161792D01*
X495034Y162534D01*
X494292Y163103D01*
X493428Y163461D01*
X492500Y163583D01*
D02*
G37*
G36*
X220256Y155371D02*
X219447Y155264D01*
X218692Y154952D01*
X218045Y154455D01*
X217548Y153807D01*
X217236Y153053D01*
X217129Y152244D01*
X217236Y151435D01*
X217548Y150681D01*
X218045Y150033D01*
X218692Y149536D01*
X219447Y149224D01*
X220256Y149117D01*
X221065Y149224D01*
X221819Y149536D01*
X222467Y150033D01*
X222964Y150681D01*
X223276Y151435D01*
X223383Y152244D01*
X223276Y153053D01*
X222964Y153807D01*
X222467Y154455D01*
X221819Y154952D01*
X221065Y155264D01*
X220256Y155371D01*
D02*
G37*
G36*
X126921Y157562D02*
X125952Y157466D01*
X124539Y157038D01*
X123237Y156342D01*
X122095Y155405D01*
X121158Y154263D01*
X120462Y152961D01*
X120034Y151548D01*
X119938Y150579D01*
X126921D01*
Y157562D01*
D02*
G37*
G36*
X127921D02*
Y150579D01*
X134904D01*
X134809Y151548D01*
X134380Y152961D01*
X133684Y154263D01*
X132747Y155405D01*
X131606Y156342D01*
X130304Y157038D01*
X128891Y157466D01*
X127921Y157562D01*
D02*
G37*
G36*
X210964Y144500D02*
X208000D01*
Y141536D01*
X208414Y141590D01*
X209265Y141943D01*
X209996Y142504D01*
X210557Y143235D01*
X210910Y144086D01*
X210964Y144500D01*
D02*
G37*
G36*
X496053Y133553D02*
X488947D01*
Y126447D01*
X496053D01*
Y133553D01*
D02*
G37*
G36*
X310000Y136083D02*
X309073Y135961D01*
X308208Y135603D01*
X307466Y135034D01*
X306897Y134292D01*
X306539Y133427D01*
X306417Y132500D01*
X306539Y131573D01*
X306897Y130708D01*
X307466Y129966D01*
X308208Y129397D01*
X309073Y129039D01*
X310000Y128917D01*
X310927Y129039D01*
X311792Y129397D01*
X312534Y129966D01*
X313103Y130708D01*
X313461Y131573D01*
X313583Y132500D01*
X313461Y133427D01*
X313103Y134292D01*
X312534Y135034D01*
X311792Y135603D01*
X310927Y135961D01*
X310000Y136083D01*
D02*
G37*
G36*
X327500Y135488D02*
X326727Y135386D01*
X326006Y135088D01*
X325387Y134613D01*
X324913Y133994D01*
X324614Y133273D01*
X324512Y132500D01*
X324614Y131727D01*
X324913Y131006D01*
X325387Y130387D01*
X326006Y129912D01*
X326727Y129614D01*
X327500Y129512D01*
X328273Y129614D01*
X328994Y129912D01*
X329613Y130387D01*
X330087Y131006D01*
X330386Y131727D01*
X330488Y132500D01*
X330386Y133273D01*
X330087Y133994D01*
X329613Y134613D01*
X328994Y135088D01*
X328273Y135386D01*
X327500Y135488D01*
D02*
G37*
G36*
X230000Y143127D02*
X229191Y143020D01*
X228437Y142708D01*
X227789Y142211D01*
X227292Y141563D01*
X226980Y140809D01*
X226873Y140000D01*
X226980Y139191D01*
X227292Y138437D01*
X227789Y137789D01*
X228437Y137292D01*
X229191Y136980D01*
X230000Y136873D01*
X230809Y136980D01*
X231563Y137292D01*
X232211Y137789D01*
X232656Y138369D01*
X249324D01*
X259469Y128224D01*
X259373Y127500D01*
X259480Y126691D01*
X259792Y125937D01*
X260289Y125289D01*
X260937Y124792D01*
X261691Y124480D01*
X262500Y124373D01*
X263309Y124480D01*
X264063Y124792D01*
X264711Y125289D01*
X265208Y125937D01*
X265520Y126691D01*
X265627Y127500D01*
X265520Y128309D01*
X265208Y129063D01*
X264711Y129711D01*
X264063Y130208D01*
X263309Y130520D01*
X262500Y130627D01*
X261776Y130531D01*
X251153Y141154D01*
X250624Y141507D01*
X250000Y141631D01*
X232656D01*
X232211Y142211D01*
X231563Y142708D01*
X230809Y143020D01*
X230000Y143127D01*
D02*
G37*
G36*
X397500Y223127D02*
X396691Y223020D01*
X395937Y222708D01*
X395289Y222211D01*
X394792Y221563D01*
X394480Y220809D01*
X394373Y220000D01*
X394480Y219191D01*
X394792Y218437D01*
X395289Y217789D01*
X395869Y217344D01*
Y130156D01*
X395289Y129711D01*
X394792Y129063D01*
X394480Y128309D01*
X394373Y127500D01*
X394480Y126691D01*
X394792Y125937D01*
X395289Y125289D01*
X395937Y124792D01*
X396691Y124480D01*
X397500Y124373D01*
X398309Y124480D01*
X399063Y124792D01*
X399711Y125289D01*
X400208Y125937D01*
X400520Y126691D01*
X400627Y127500D01*
X400520Y128309D01*
X400208Y129063D01*
X399711Y129711D01*
X399131Y130156D01*
Y217344D01*
X399711Y217789D01*
X400208Y218437D01*
X400520Y219191D01*
X400627Y220000D01*
X400520Y220809D01*
X400208Y221563D01*
X399711Y222211D01*
X399063Y222708D01*
X398309Y223020D01*
X397500Y223127D01*
D02*
G37*
G36*
X151053Y133553D02*
X143947D01*
Y126447D01*
X151053D01*
Y133553D01*
D02*
G37*
G36*
X313553Y146053D02*
X306447D01*
Y138947D01*
X313553D01*
Y146053D01*
D02*
G37*
G36*
X327500Y145488D02*
X326727Y145386D01*
X326006Y145088D01*
X325387Y144613D01*
X324913Y143994D01*
X324614Y143273D01*
X324512Y142500D01*
X324614Y141727D01*
X324913Y141006D01*
X325387Y140387D01*
X326006Y139912D01*
X326727Y139614D01*
X327500Y139512D01*
X328273Y139614D01*
X328994Y139912D01*
X329613Y140387D01*
X330087Y141006D01*
X330386Y141727D01*
X330488Y142500D01*
X330386Y143273D01*
X330087Y143994D01*
X329613Y144613D01*
X328994Y145088D01*
X328273Y145386D01*
X327500Y145488D01*
D02*
G37*
G36*
X207000Y144500D02*
X204036D01*
X204090Y144086D01*
X204443Y143235D01*
X205004Y142504D01*
X205735Y141943D01*
X206586Y141590D01*
X207000Y141536D01*
Y144500D01*
D02*
G37*
G36*
X458700Y140627D02*
X457891Y140520D01*
X457137Y140208D01*
X456489Y139711D01*
X455992Y139063D01*
X455680Y138309D01*
X455573Y137500D01*
X455680Y136691D01*
X455992Y135937D01*
X456489Y135289D01*
X457137Y134792D01*
X457891Y134480D01*
X458700Y134373D01*
X459509Y134480D01*
X460263Y134792D01*
X460911Y135289D01*
X461408Y135937D01*
X461720Y136691D01*
X461827Y137500D01*
X461720Y138309D01*
X461408Y139063D01*
X460911Y139711D01*
X460263Y140208D01*
X459509Y140520D01*
X458700Y140627D01*
D02*
G37*
G36*
X492500Y143583D02*
X491573Y143461D01*
X490708Y143103D01*
X489966Y142534D01*
X489397Y141792D01*
X489039Y140927D01*
X488917Y140000D01*
X489039Y139073D01*
X489397Y138208D01*
X489966Y137466D01*
X490708Y136897D01*
X491573Y136539D01*
X492500Y136417D01*
X493428Y136539D01*
X494292Y136897D01*
X495034Y137466D01*
X495603Y138208D01*
X495961Y139073D01*
X496083Y140000D01*
X495961Y140927D01*
X495603Y141792D01*
X495034Y142534D01*
X494292Y143103D01*
X493428Y143461D01*
X492500Y143583D01*
D02*
G37*
G36*
X259272Y160488D02*
X258498Y160386D01*
X257778Y160088D01*
X257159Y159613D01*
X256684Y158994D01*
X256386Y158273D01*
X256284Y157500D01*
X256386Y156727D01*
X256684Y156006D01*
X257159Y155387D01*
X257640Y155018D01*
Y142656D01*
X257061Y142211D01*
X256564Y141563D01*
X256251Y140809D01*
X256145Y140000D01*
X256251Y139191D01*
X256564Y138437D01*
X257061Y137789D01*
X257708Y137292D01*
X258462Y136980D01*
X259272Y136873D01*
X260081Y136980D01*
X260835Y137292D01*
X261483Y137789D01*
X261979Y138437D01*
X262292Y139191D01*
X262398Y140000D01*
X262292Y140809D01*
X261979Y141563D01*
X261483Y142211D01*
X260903Y142656D01*
Y155018D01*
X261384Y155387D01*
X261859Y156006D01*
X262158Y156727D01*
X262259Y157500D01*
X262158Y158273D01*
X261859Y158994D01*
X261384Y159613D01*
X260766Y160088D01*
X260045Y160386D01*
X259272Y160488D01*
D02*
G37*
G36*
X199835Y358386D02*
X199421Y358331D01*
X198570Y357979D01*
X197838Y357417D01*
X197277Y356686D01*
X196925Y355835D01*
X196870Y355421D01*
X199835D01*
Y358386D01*
D02*
G37*
G36*
X200835D02*
Y355421D01*
X203799D01*
X203745Y355835D01*
X203392Y356686D01*
X202831Y357417D01*
X202100Y357979D01*
X201248Y358331D01*
X200835Y358386D01*
D02*
G37*
G36*
X147000Y359658D02*
X143579D01*
X143649Y359126D01*
X144047Y358164D01*
X144681Y357338D01*
X145507Y356705D01*
X146468Y356307D01*
X147000Y356237D01*
Y359658D01*
D02*
G37*
G36*
X203799Y354421D02*
X200835D01*
Y351457D01*
X201248Y351511D01*
X202100Y351864D01*
X202831Y352425D01*
X203392Y353156D01*
X203745Y354008D01*
X203799Y354421D01*
D02*
G37*
G36*
X269835Y356193D02*
X266870D01*
X266925Y355779D01*
X267277Y354928D01*
X267838Y354197D01*
X268570Y353636D01*
X269421Y353283D01*
X269835Y353228D01*
Y356193D01*
D02*
G37*
G36*
X273799D02*
X270835D01*
Y353228D01*
X271248Y353283D01*
X272100Y353636D01*
X272831Y354197D01*
X273392Y354928D01*
X273745Y355779D01*
X273799Y356193D01*
D02*
G37*
G36*
X377500Y375627D02*
X376691Y375520D01*
X375937Y375208D01*
X375289Y374711D01*
X374792Y374063D01*
X374480Y373309D01*
X374373Y372500D01*
X374480Y371691D01*
X374792Y370937D01*
X375289Y370289D01*
X375937Y369792D01*
X376691Y369480D01*
X377500Y369373D01*
X378309Y369480D01*
X378751Y369663D01*
X384391Y364023D01*
Y357848D01*
X383929Y357657D01*
X380337Y361249D01*
X380520Y361691D01*
X380627Y362500D01*
X380520Y363309D01*
X380208Y364063D01*
X379711Y364711D01*
X379063Y365208D01*
X378309Y365520D01*
X377500Y365627D01*
X376691Y365520D01*
X375937Y365208D01*
X375289Y364711D01*
X374792Y364063D01*
X374480Y363309D01*
X374373Y362500D01*
X374480Y361691D01*
X374792Y360937D01*
X375289Y360289D01*
X375937Y359792D01*
X376691Y359480D01*
X377500Y359373D01*
X378309Y359480D01*
X378751Y359663D01*
X382779Y355635D01*
Y342293D01*
X382278Y342123D01*
X382211Y342211D01*
X381563Y342708D01*
X380809Y343020D01*
X380000Y343127D01*
X379191Y343020D01*
X378437Y342708D01*
X377789Y342211D01*
X377292Y341563D01*
X376980Y340809D01*
X376873Y340000D01*
X376980Y339191D01*
X377292Y338437D01*
X377789Y337789D01*
X378437Y337292D01*
X379191Y336980D01*
X380000Y336873D01*
X380809Y336980D01*
X381563Y337292D01*
X382211Y337789D01*
X382278Y337877D01*
X382779Y337707D01*
Y281961D01*
X382316Y281770D01*
X372837Y291249D01*
X373020Y291691D01*
X373127Y292500D01*
X373020Y293309D01*
X372708Y294063D01*
X372211Y294711D01*
X371563Y295208D01*
X370809Y295520D01*
X370000Y295627D01*
X369191Y295520D01*
X368437Y295208D01*
X367789Y294711D01*
X367292Y294063D01*
X366980Y293309D01*
X366873Y292500D01*
X366980Y291691D01*
X367292Y290937D01*
X367789Y290289D01*
X368437Y289792D01*
X369191Y289480D01*
X370000Y289373D01*
X370809Y289480D01*
X371251Y289663D01*
X381178Y279735D01*
Y276061D01*
X380716Y275870D01*
X372837Y283749D01*
X373020Y284191D01*
X373127Y285000D01*
X373020Y285809D01*
X372708Y286563D01*
X372211Y287211D01*
X371563Y287708D01*
X370809Y288020D01*
X370000Y288127D01*
X369191Y288020D01*
X368437Y287708D01*
X367789Y287211D01*
X367292Y286563D01*
X366980Y285809D01*
X366873Y285000D01*
X366980Y284191D01*
X367292Y283437D01*
X367789Y282789D01*
X368437Y282292D01*
X369191Y281980D01*
X370000Y281873D01*
X370809Y281980D01*
X371251Y282163D01*
X379578Y273835D01*
Y210161D01*
X379117Y209970D01*
X377837Y211249D01*
X378020Y211691D01*
X378127Y212500D01*
X378020Y213309D01*
X377708Y214063D01*
X377211Y214711D01*
X376563Y215208D01*
X375809Y215520D01*
X375000Y215627D01*
X374191Y215520D01*
X373437Y215208D01*
X372789Y214711D01*
X372292Y214063D01*
X371980Y213309D01*
X371873Y212500D01*
X371980Y211691D01*
X372292Y210937D01*
X372789Y210289D01*
X373437Y209792D01*
X374191Y209480D01*
X375000Y209373D01*
X375809Y209480D01*
X376251Y209663D01*
X377978Y207935D01*
Y207032D01*
X377479Y206862D01*
X377211Y207211D01*
X376563Y207708D01*
X375809Y208020D01*
X375000Y208127D01*
X374191Y208020D01*
X373437Y207708D01*
X372789Y207211D01*
X372292Y206563D01*
X371980Y205809D01*
X371873Y205000D01*
X371980Y204191D01*
X372292Y203437D01*
X372789Y202789D01*
X373437Y202292D01*
X374191Y201980D01*
X375000Y201873D01*
X375809Y201980D01*
X375878Y202008D01*
X376378Y201674D01*
Y141200D01*
X376378Y141200D01*
X376464Y140771D01*
X376707Y140407D01*
X384401Y132713D01*
X384373Y132500D01*
X384480Y131691D01*
X384792Y130937D01*
X385289Y130289D01*
X385937Y129792D01*
X386691Y129480D01*
X387500Y129373D01*
X388309Y129480D01*
X389063Y129792D01*
X389711Y130289D01*
X390208Y130937D01*
X390520Y131691D01*
X390627Y132500D01*
X390520Y133309D01*
X390208Y134063D01*
X389711Y134711D01*
X389063Y135208D01*
X388309Y135520D01*
X387500Y135627D01*
X386691Y135520D01*
X385937Y135208D01*
X385451Y134835D01*
X378622Y141665D01*
Y146639D01*
X379083Y146830D01*
X384663Y141251D01*
X384480Y140809D01*
X384373Y140000D01*
X384480Y139191D01*
X384792Y138437D01*
X385289Y137789D01*
X385937Y137292D01*
X386691Y136980D01*
X387500Y136873D01*
X388309Y136980D01*
X389063Y137292D01*
X389711Y137789D01*
X390208Y138437D01*
X390520Y139191D01*
X390627Y140000D01*
X390520Y140809D01*
X390208Y141563D01*
X389711Y142211D01*
X389063Y142708D01*
X388309Y143020D01*
X387500Y143127D01*
X386691Y143020D01*
X386249Y142837D01*
X380222Y148865D01*
Y152539D01*
X380683Y152730D01*
X384663Y148751D01*
X384480Y148309D01*
X384373Y147500D01*
X384480Y146691D01*
X384792Y145937D01*
X385289Y145289D01*
X385937Y144792D01*
X386691Y144480D01*
X387500Y144373D01*
X388309Y144480D01*
X389063Y144792D01*
X389711Y145289D01*
X390208Y145937D01*
X390520Y146691D01*
X390627Y147500D01*
X390520Y148309D01*
X390208Y149063D01*
X389711Y149711D01*
X389063Y150208D01*
X388309Y150520D01*
X387500Y150627D01*
X386691Y150520D01*
X386249Y150337D01*
X381821Y154765D01*
Y158439D01*
X382283Y158630D01*
X384663Y156251D01*
X384480Y155809D01*
X384373Y155000D01*
X384480Y154191D01*
X384792Y153437D01*
X385289Y152789D01*
X385937Y152292D01*
X386691Y151980D01*
X387500Y151873D01*
X388309Y151980D01*
X389063Y152292D01*
X389711Y152789D01*
X390208Y153437D01*
X390520Y154191D01*
X390627Y155000D01*
X390520Y155809D01*
X390208Y156563D01*
X389711Y157211D01*
X389063Y157708D01*
X388309Y158020D01*
X387500Y158127D01*
X386691Y158020D01*
X386249Y157837D01*
X383421Y160665D01*
Y164339D01*
X383884Y164530D01*
X384663Y163751D01*
X384480Y163309D01*
X384373Y162500D01*
X384480Y161691D01*
X384792Y160937D01*
X385289Y160289D01*
X385937Y159792D01*
X386691Y159480D01*
X387500Y159373D01*
X388309Y159480D01*
X389063Y159792D01*
X389711Y160289D01*
X390208Y160937D01*
X390520Y161691D01*
X390627Y162500D01*
X390520Y163309D01*
X390208Y164063D01*
X389711Y164711D01*
X389063Y165208D01*
X388309Y165520D01*
X387500Y165627D01*
X386691Y165520D01*
X386249Y165337D01*
X385021Y166565D01*
Y167364D01*
X385522Y167611D01*
X385937Y167292D01*
X386691Y166980D01*
X387500Y166873D01*
X388309Y166980D01*
X389063Y167292D01*
X389711Y167789D01*
X390208Y168437D01*
X390520Y169191D01*
X390627Y170000D01*
X390520Y170809D01*
X390208Y171563D01*
X389711Y172211D01*
X389063Y172708D01*
X388309Y173020D01*
X387500Y173127D01*
X387134Y173079D01*
X386634Y173517D01*
Y364487D01*
X386634Y364487D01*
X386549Y364916D01*
X386306Y365280D01*
X386306Y365280D01*
X380337Y371249D01*
X380520Y371691D01*
X380627Y372500D01*
X380520Y373309D01*
X380208Y374063D01*
X379711Y374711D01*
X379063Y375208D01*
X378309Y375520D01*
X377500Y375627D01*
D02*
G37*
G36*
X310000Y366083D02*
X309073Y365961D01*
X308208Y365603D01*
X307466Y365034D01*
X306897Y364292D01*
X306539Y363427D01*
X306417Y362500D01*
X306539Y361573D01*
X306897Y360708D01*
X307466Y359966D01*
X308208Y359397D01*
X309073Y359039D01*
X310000Y358917D01*
X310927Y359039D01*
X311792Y359397D01*
X312534Y359966D01*
X313103Y360708D01*
X313461Y361573D01*
X313583Y362500D01*
X313461Y363427D01*
X313103Y364292D01*
X312534Y365034D01*
X311792Y365603D01*
X310927Y365961D01*
X310000Y366083D01*
D02*
G37*
G36*
X330462Y365462D02*
X324538D01*
Y359538D01*
X330462D01*
Y365462D01*
D02*
G37*
G36*
X151421Y359658D02*
X148000D01*
Y356237D01*
X148532Y356307D01*
X149493Y356705D01*
X150319Y357338D01*
X150953Y358164D01*
X151351Y359126D01*
X151421Y359658D01*
D02*
G37*
G36*
X269835Y360157D02*
X269421Y360103D01*
X268570Y359750D01*
X267838Y359189D01*
X267277Y358458D01*
X266925Y357607D01*
X266870Y357193D01*
X269835D01*
Y360157D01*
D02*
G37*
G36*
X270835D02*
Y357193D01*
X273799D01*
X273745Y357607D01*
X273392Y358458D01*
X272831Y359189D01*
X272100Y359750D01*
X271248Y360103D01*
X270835Y360157D01*
D02*
G37*
G36*
X269272Y320488D02*
X268498Y320386D01*
X267778Y320088D01*
X267159Y319613D01*
X266684Y318994D01*
X266386Y318273D01*
X266284Y317500D01*
X266386Y316727D01*
X266684Y316006D01*
X267159Y315387D01*
X267778Y314913D01*
X268498Y314614D01*
X269272Y314512D01*
X270045Y314614D01*
X270765Y314913D01*
X271384Y315387D01*
X271859Y316006D01*
X272158Y316727D01*
X272259Y317500D01*
X272158Y318273D01*
X271859Y318994D01*
X271384Y319613D01*
X270765Y320088D01*
X270045Y320386D01*
X269272Y320488D01*
D02*
G37*
G36*
X252234Y320462D02*
X246309D01*
Y314538D01*
X252234D01*
Y320462D01*
D02*
G37*
G36*
X125000Y340475D02*
X123361Y340346D01*
X121763Y339962D01*
X120245Y339333D01*
X118843Y338474D01*
X117593Y337407D01*
X116526Y336157D01*
X115667Y334755D01*
X115038Y333237D01*
X114654Y331639D01*
X114525Y330000D01*
X114654Y328361D01*
X115038Y326763D01*
X115667Y325244D01*
X116526Y323843D01*
X117593Y322593D01*
X118843Y321526D01*
X120245Y320667D01*
X121763Y320038D01*
X123361Y319654D01*
X125000Y319525D01*
X126639Y319654D01*
X128237Y320038D01*
X129755Y320667D01*
X131157Y321526D01*
X132407Y322593D01*
X133474Y323843D01*
X134333Y325244D01*
X134962Y326763D01*
X135346Y328361D01*
X135475Y330000D01*
X135346Y331639D01*
X134962Y333237D01*
X134333Y334755D01*
X133474Y336157D01*
X132407Y337407D01*
X131157Y338474D01*
X129755Y339333D01*
X128237Y339962D01*
X126639Y340346D01*
X125000Y340475D01*
D02*
G37*
G36*
X220000Y315627D02*
X219191Y315520D01*
X218437Y315208D01*
X217789Y314711D01*
X217292Y314063D01*
X216980Y313309D01*
X216873Y312500D01*
X216980Y311691D01*
X217292Y310937D01*
X217789Y310289D01*
X218437Y309792D01*
X219191Y309480D01*
X220000Y309373D01*
X220809Y309480D01*
X221563Y309792D01*
X222211Y310289D01*
X222708Y310937D01*
X223020Y311691D01*
X223127Y312500D01*
X223020Y313309D01*
X222708Y314063D01*
X222211Y314711D01*
X221563Y315208D01*
X220809Y315520D01*
X220000Y315627D01*
D02*
G37*
G36*
X126921Y317562D02*
X125952Y317466D01*
X124539Y317038D01*
X123237Y316342D01*
X122095Y315405D01*
X121158Y314264D01*
X120462Y312961D01*
X120034Y311548D01*
X119938Y310579D01*
X126921D01*
Y317562D01*
D02*
G37*
G36*
X127921D02*
Y310579D01*
X134904D01*
X134809Y311548D01*
X134380Y312961D01*
X133684Y314264D01*
X132747Y315405D01*
X131606Y316342D01*
X130304Y317038D01*
X128891Y317466D01*
X127921Y317562D01*
D02*
G37*
G36*
X126921Y357404D02*
X125952Y357309D01*
X124539Y356880D01*
X123237Y356184D01*
X122095Y355247D01*
X121158Y354106D01*
X120462Y352804D01*
X120034Y351391D01*
X119938Y350421D01*
X126921D01*
Y357404D01*
D02*
G37*
G36*
X127921D02*
Y350421D01*
X134904D01*
X134809Y351391D01*
X134380Y352804D01*
X133684Y354106D01*
X132747Y355247D01*
X131606Y356184D01*
X130304Y356880D01*
X128891Y357309D01*
X127921Y357404D01*
D02*
G37*
G36*
X199835Y354421D02*
X196870D01*
X196925Y354008D01*
X197277Y353156D01*
X197838Y352425D01*
X198570Y351864D01*
X199421Y351511D01*
X199835Y351457D01*
Y354421D01*
D02*
G37*
G36*
X336244Y338383D02*
X335435Y338276D01*
X334681Y337964D01*
X334033Y337467D01*
X333536Y336819D01*
X333224Y336065D01*
X333117Y335256D01*
X333224Y334447D01*
X333536Y333693D01*
X334033Y333045D01*
X334681Y332548D01*
X335435Y332236D01*
X336244Y332129D01*
X337053Y332236D01*
X337807Y332548D01*
X338455Y333045D01*
X338952Y333693D01*
X339264Y334447D01*
X339371Y335256D01*
X339264Y336065D01*
X338952Y336819D01*
X338455Y337467D01*
X337807Y337964D01*
X337053Y338276D01*
X336244Y338383D01*
D02*
G37*
G36*
X126921Y349421D02*
X119938D01*
X120034Y348452D01*
X120462Y347039D01*
X121158Y345737D01*
X122095Y344595D01*
X123237Y343658D01*
X124539Y342962D01*
X125952Y342534D01*
X126921Y342438D01*
Y349421D01*
D02*
G37*
G36*
X134904D02*
X127921D01*
Y342438D01*
X128891Y342534D01*
X130304Y342962D01*
X131606Y343658D01*
X132747Y344595D01*
X133684Y345737D01*
X134380Y347039D01*
X134809Y348452D01*
X134904Y349421D01*
D02*
G37*
G36*
X147000Y364078D02*
X146468Y364008D01*
X145507Y363610D01*
X144681Y362977D01*
X144047Y362151D01*
X143649Y361189D01*
X143579Y360658D01*
X147000D01*
Y364078D01*
D02*
G37*
G36*
X220000Y395627D02*
X219191Y395520D01*
X218437Y395208D01*
X217789Y394711D01*
X217292Y394063D01*
X216980Y393309D01*
X216873Y392500D01*
X216980Y391691D01*
X217292Y390937D01*
X217789Y390289D01*
X218437Y389792D01*
X219191Y389480D01*
X220000Y389373D01*
X220809Y389480D01*
X221563Y389792D01*
X222211Y390289D01*
X222708Y390937D01*
X223020Y391691D01*
X223127Y392500D01*
X223020Y393309D01*
X222708Y394063D01*
X222211Y394711D01*
X221563Y395208D01*
X220809Y395520D01*
X220000Y395627D01*
D02*
G37*
G36*
X126921Y397562D02*
X125952Y397466D01*
X124539Y397038D01*
X123237Y396342D01*
X122095Y395405D01*
X121158Y394264D01*
X120462Y392961D01*
X120034Y391548D01*
X119938Y390579D01*
X126921D01*
Y397562D01*
D02*
G37*
G36*
X134904Y389579D02*
X127921D01*
Y382596D01*
X128891Y382691D01*
X130304Y383120D01*
X131606Y383816D01*
X132747Y384753D01*
X133684Y385894D01*
X134380Y387196D01*
X134809Y388609D01*
X134904Y389579D01*
D02*
G37*
G36*
X207000Y388464D02*
X206586Y388410D01*
X205735Y388057D01*
X205004Y387496D01*
X204443Y386765D01*
X204090Y385914D01*
X204036Y385500D01*
X207000D01*
Y388464D01*
D02*
G37*
G36*
X208000D02*
Y385500D01*
X210964D01*
X210910Y385914D01*
X210557Y386765D01*
X209996Y387496D01*
X209265Y388057D01*
X208414Y388410D01*
X208000Y388464D01*
D02*
G37*
G36*
X252234Y400462D02*
X246309D01*
Y394538D01*
X252234D01*
Y400462D01*
D02*
G37*
G36*
X127921Y397562D02*
Y390579D01*
X134904D01*
X134809Y391548D01*
X134380Y392961D01*
X133684Y394264D01*
X132747Y395405D01*
X131606Y396342D01*
X130304Y397038D01*
X128891Y397466D01*
X127921Y397562D01*
D02*
G37*
G36*
X405000Y400627D02*
X404191Y400520D01*
X403437Y400208D01*
X402789Y399711D01*
X402292Y399063D01*
X401980Y398309D01*
X401873Y397500D01*
X401980Y396691D01*
X402292Y395937D01*
X402789Y395289D01*
X403437Y394792D01*
X404191Y394480D01*
X405000Y394373D01*
X405809Y394480D01*
X406563Y394792D01*
X407211Y395289D01*
X407708Y395937D01*
X408020Y396691D01*
X408127Y397500D01*
X408020Y398309D01*
X407708Y399063D01*
X407211Y399711D01*
X406563Y400208D01*
X405809Y400520D01*
X405000Y400627D01*
D02*
G37*
G36*
X269272Y400488D02*
X268498Y400386D01*
X267778Y400087D01*
X267159Y399613D01*
X266684Y398994D01*
X266386Y398273D01*
X266284Y397500D01*
X266386Y396727D01*
X266684Y396006D01*
X267159Y395387D01*
X267778Y394913D01*
X268498Y394614D01*
X269272Y394512D01*
X270045Y394614D01*
X270765Y394913D01*
X271384Y395387D01*
X271859Y396006D01*
X272158Y396727D01*
X272259Y397500D01*
X272158Y398273D01*
X271859Y398994D01*
X271384Y399613D01*
X270765Y400087D01*
X270045Y400386D01*
X269272Y400488D01*
D02*
G37*
G36*
X310000Y376083D02*
X309073Y375961D01*
X308208Y375603D01*
X307466Y375034D01*
X306897Y374292D01*
X306539Y373427D01*
X306417Y372500D01*
X306539Y371573D01*
X306897Y370708D01*
X307466Y369966D01*
X308208Y369397D01*
X309073Y369039D01*
X310000Y368917D01*
X310927Y369039D01*
X311792Y369397D01*
X312534Y369966D01*
X313103Y370708D01*
X313461Y371573D01*
X313583Y372500D01*
X313461Y373427D01*
X313103Y374292D01*
X312534Y375034D01*
X311792Y375603D01*
X310927Y375961D01*
X310000Y376083D01*
D02*
G37*
G36*
X327500Y375488D02*
X326727Y375386D01*
X326006Y375087D01*
X325387Y374613D01*
X324913Y373994D01*
X324614Y373273D01*
X324512Y372500D01*
X324614Y371727D01*
X324913Y371006D01*
X325387Y370387D01*
X326006Y369913D01*
X326727Y369614D01*
X327500Y369512D01*
X328273Y369614D01*
X328994Y369913D01*
X329613Y370387D01*
X330087Y371006D01*
X330386Y371727D01*
X330488Y372500D01*
X330386Y373273D01*
X330087Y373994D01*
X329613Y374613D01*
X328994Y375087D01*
X328273Y375386D01*
X327500Y375488D01*
D02*
G37*
G36*
X259272Y400488D02*
X258498Y400386D01*
X257778Y400087D01*
X257159Y399613D01*
X256684Y398994D01*
X256386Y398273D01*
X256284Y397500D01*
X256386Y396727D01*
X256684Y396006D01*
X257159Y395387D01*
X257778Y394913D01*
X257975Y394831D01*
Y382577D01*
X257395Y382132D01*
X256898Y381485D01*
X256586Y380731D01*
X256480Y379921D01*
X256586Y379112D01*
X256898Y378358D01*
X257395Y377710D01*
X258043Y377213D01*
X258797Y376901D01*
X259606Y376795D01*
X260416Y376901D01*
X261170Y377213D01*
X261817Y377710D01*
X262314Y378358D01*
X262627Y379112D01*
X262733Y379921D01*
X262627Y380731D01*
X262314Y381485D01*
X261817Y382132D01*
X261238Y382577D01*
Y395275D01*
X261384Y395387D01*
X261859Y396006D01*
X262158Y396727D01*
X262259Y397500D01*
X262158Y398273D01*
X261859Y398994D01*
X261384Y399613D01*
X260766Y400087D01*
X260045Y400386D01*
X259272Y400488D01*
D02*
G37*
G36*
X148000Y364078D02*
Y360658D01*
X151421D01*
X151351Y361189D01*
X150953Y362151D01*
X150319Y362977D01*
X149493Y363610D01*
X148532Y364008D01*
X148000Y364078D01*
D02*
G37*
G36*
X230335Y383048D02*
X229525Y382942D01*
X228771Y382629D01*
X228124Y382132D01*
X227627Y381485D01*
X227314Y380731D01*
X227208Y379921D01*
X227314Y379112D01*
X227627Y378358D01*
X228124Y377710D01*
X228771Y377213D01*
X229525Y376901D01*
X230335Y376795D01*
X231144Y376901D01*
X231898Y377213D01*
X232546Y377710D01*
X232990Y378290D01*
X249659D01*
X259803Y368146D01*
X259708Y367421D01*
X259814Y366612D01*
X260127Y365858D01*
X260624Y365210D01*
X261271Y364713D01*
X262025Y364401D01*
X262835Y364295D01*
X263644Y364401D01*
X264398Y364713D01*
X265046Y365210D01*
X265543Y365858D01*
X265855Y366612D01*
X265961Y367421D01*
X265855Y368231D01*
X265543Y368985D01*
X265046Y369632D01*
X264398Y370129D01*
X263644Y370442D01*
X262835Y370548D01*
X262110Y370453D01*
X251488Y381075D01*
X250959Y381428D01*
X250335Y381553D01*
X232990D01*
X232546Y382132D01*
X231898Y382629D01*
X231144Y382942D01*
X230335Y383048D01*
D02*
G37*
G36*
X151053Y373553D02*
X143947D01*
Y366447D01*
X151053D01*
Y373553D01*
D02*
G37*
G36*
X210964Y384500D02*
X208000D01*
Y381536D01*
X208414Y381590D01*
X209265Y381943D01*
X209996Y382504D01*
X210557Y383235D01*
X210910Y384086D01*
X210964Y384500D01*
D02*
G37*
G36*
X297500Y388127D02*
X296691Y388020D01*
X295937Y387708D01*
X295289Y387211D01*
X294792Y386563D01*
X294480Y385809D01*
X294373Y385000D01*
X294480Y384191D01*
X294792Y383437D01*
X295289Y382789D01*
X295937Y382292D01*
X296691Y381980D01*
X297500Y381873D01*
X298309Y381980D01*
X299063Y382292D01*
X299711Y382789D01*
X300208Y383437D01*
X300520Y384191D01*
X300627Y385000D01*
X300520Y385809D01*
X300208Y386563D01*
X299711Y387211D01*
X299063Y387708D01*
X298309Y388020D01*
X297500Y388127D01*
D02*
G37*
G36*
X126921Y389579D02*
X119938D01*
X120034Y388609D01*
X120462Y387196D01*
X121158Y385894D01*
X122095Y384753D01*
X123237Y383816D01*
X124539Y383120D01*
X125952Y382691D01*
X126921Y382596D01*
Y389579D01*
D02*
G37*
G36*
X313553Y386053D02*
X306447D01*
Y378947D01*
X313553D01*
Y386053D01*
D02*
G37*
G36*
X327500Y385488D02*
X326727Y385386D01*
X326006Y385087D01*
X325387Y384613D01*
X324913Y383994D01*
X324614Y383273D01*
X324512Y382500D01*
X324614Y381727D01*
X324913Y381006D01*
X325387Y380387D01*
X326006Y379912D01*
X326727Y379614D01*
X327500Y379512D01*
X328273Y379614D01*
X328994Y379912D01*
X329613Y380387D01*
X330087Y381006D01*
X330386Y381727D01*
X330488Y382500D01*
X330386Y383273D01*
X330087Y383994D01*
X329613Y384613D01*
X328994Y385087D01*
X328273Y385386D01*
X327500Y385488D01*
D02*
G37*
G36*
X207000Y384500D02*
X204036D01*
X204090Y384086D01*
X204443Y383235D01*
X205004Y382504D01*
X205735Y381943D01*
X206586Y381590D01*
X207000Y381536D01*
Y384500D01*
D02*
G37*
G36*
X400256Y312871D02*
X399447Y312764D01*
X398692Y312452D01*
X398045Y311955D01*
X397548Y311308D01*
X397236Y310553D01*
X397129Y309744D01*
X397236Y308935D01*
X397548Y308181D01*
X398045Y307533D01*
X398692Y307036D01*
X399447Y306724D01*
X400256Y306617D01*
X401065Y306724D01*
X401819Y307036D01*
X402467Y307533D01*
X402964Y308181D01*
X403276Y308935D01*
X403383Y309744D01*
X403276Y310553D01*
X402964Y311308D01*
X402467Y311955D01*
X401819Y312452D01*
X401065Y312764D01*
X400256Y312871D01*
D02*
G37*
G36*
X268614Y275386D02*
X265650D01*
X265704Y274972D01*
X266057Y274121D01*
X266618Y273390D01*
X267349Y272829D01*
X268200Y272476D01*
X268614Y272422D01*
Y275386D01*
D02*
G37*
G36*
X272579D02*
X269614D01*
Y272422D01*
X270028Y272476D01*
X270879Y272829D01*
X271610Y273390D01*
X272171Y274121D01*
X272524Y274972D01*
X272579Y275386D01*
D02*
G37*
G36*
X299500Y274500D02*
X296536D01*
X296590Y274086D01*
X296943Y273235D01*
X297504Y272504D01*
X298235Y271943D01*
X299086Y271590D01*
X299500Y271536D01*
Y274500D01*
D02*
G37*
G36*
X303464D02*
X300500D01*
Y271536D01*
X300914Y271590D01*
X301765Y271943D01*
X302496Y272504D01*
X303057Y273235D01*
X303410Y274086D01*
X303464Y274500D01*
D02*
G37*
G36*
X385000Y380627D02*
X384191Y380520D01*
X383437Y380208D01*
X382789Y379711D01*
X382292Y379063D01*
X381980Y378309D01*
X381873Y377500D01*
X381980Y376691D01*
X382292Y375937D01*
X382789Y375289D01*
X383437Y374792D01*
X384191Y374480D01*
X385000Y374373D01*
X385724Y374469D01*
X390869Y369324D01*
Y330000D01*
X390993Y329376D01*
X391347Y328847D01*
X414569Y305624D01*
Y277621D01*
X414537Y277608D01*
X413889Y277111D01*
X413392Y276463D01*
X413080Y275709D01*
X412973Y274900D01*
X413080Y274091D01*
X413392Y273337D01*
X413889Y272689D01*
X414537Y272192D01*
X415291Y271880D01*
X416100Y271773D01*
X416909Y271880D01*
X417663Y272192D01*
X418311Y272689D01*
X418808Y273337D01*
X419120Y274091D01*
X419227Y274900D01*
X419120Y275709D01*
X418808Y276463D01*
X418311Y277111D01*
X417831Y277479D01*
Y306300D01*
X417707Y306924D01*
X417353Y307453D01*
X394131Y330676D01*
Y370000D01*
X394007Y370624D01*
X393653Y371153D01*
X388031Y376776D01*
X388127Y377500D01*
X388020Y378309D01*
X387708Y379063D01*
X387211Y379711D01*
X386563Y380208D01*
X385809Y380520D01*
X385000Y380627D01*
D02*
G37*
G36*
X300500Y278464D02*
Y275500D01*
X303464D01*
X303410Y275914D01*
X303057Y276765D01*
X302496Y277496D01*
X301765Y278057D01*
X300914Y278410D01*
X300500Y278464D01*
D02*
G37*
G36*
X354095Y299032D02*
X353285Y298926D01*
X352531Y298613D01*
X351884Y298116D01*
X351387Y297469D01*
X351074Y296715D01*
X350968Y295905D01*
X351074Y295096D01*
X351387Y294342D01*
X351884Y293695D01*
X352463Y293250D01*
Y282270D01*
X345724Y275531D01*
X345000Y275627D01*
X344191Y275520D01*
X343437Y275208D01*
X342789Y274711D01*
X342292Y274063D01*
X341980Y273309D01*
X341873Y272500D01*
X341980Y271691D01*
X342292Y270937D01*
X342789Y270289D01*
X343437Y269792D01*
X344191Y269480D01*
X345000Y269373D01*
X345809Y269480D01*
X346563Y269792D01*
X347211Y270289D01*
X347708Y270937D01*
X348020Y271691D01*
X348127Y272500D01*
X348031Y273224D01*
X355248Y280441D01*
X355602Y280970D01*
X355726Y281594D01*
Y293250D01*
X356305Y293695D01*
X356802Y294342D01*
X357115Y295096D01*
X357221Y295905D01*
X357115Y296715D01*
X356802Y297469D01*
X356305Y298116D01*
X355658Y298613D01*
X354904Y298926D01*
X354095Y299032D01*
D02*
G37*
G36*
X147000Y279658D02*
X143579D01*
X143649Y279126D01*
X144047Y278164D01*
X144681Y277338D01*
X145507Y276705D01*
X146468Y276307D01*
X147000Y276237D01*
Y279658D01*
D02*
G37*
G36*
X199500Y278464D02*
X199086Y278410D01*
X198235Y278057D01*
X197504Y277496D01*
X196943Y276765D01*
X196590Y275914D01*
X196536Y275500D01*
X199500D01*
Y278464D01*
D02*
G37*
G36*
X200500D02*
Y275500D01*
X203464D01*
X203410Y275914D01*
X203057Y276765D01*
X202496Y277496D01*
X201765Y278057D01*
X200914Y278410D01*
X200500Y278464D01*
D02*
G37*
G36*
X299500Y278464D02*
X299086Y278410D01*
X298235Y278057D01*
X297504Y277496D01*
X296943Y276765D01*
X296590Y275914D01*
X296536Y275500D01*
X299500D01*
Y278464D01*
D02*
G37*
G36*
X126921Y269421D02*
X119938D01*
X120034Y268452D01*
X120462Y267039D01*
X121158Y265737D01*
X122095Y264595D01*
X123237Y263658D01*
X124539Y262962D01*
X125952Y262534D01*
X126921Y262438D01*
Y269421D01*
D02*
G37*
G36*
X125000Y260475D02*
X123361Y260346D01*
X121763Y259962D01*
X120245Y259333D01*
X118843Y258474D01*
X117593Y257407D01*
X116526Y256157D01*
X115667Y254755D01*
X115038Y253237D01*
X114654Y251639D01*
X114525Y250000D01*
X114654Y248361D01*
X115038Y246763D01*
X115667Y245245D01*
X116526Y243843D01*
X117593Y242593D01*
X118843Y241526D01*
X120245Y240667D01*
X121763Y240038D01*
X123361Y239654D01*
X125000Y239525D01*
X126639Y239654D01*
X128237Y240038D01*
X129755Y240667D01*
X131157Y241526D01*
X132407Y242593D01*
X133474Y243843D01*
X134333Y245245D01*
X134962Y246763D01*
X135346Y248361D01*
X135475Y250000D01*
X135346Y251639D01*
X134962Y253237D01*
X134333Y254755D01*
X133474Y256157D01*
X132407Y257407D01*
X131157Y258474D01*
X129755Y259333D01*
X128237Y259962D01*
X126639Y260346D01*
X125000Y260475D01*
D02*
G37*
G36*
X127921Y277404D02*
Y270421D01*
X134904D01*
X134809Y271391D01*
X134380Y272804D01*
X133684Y274106D01*
X132747Y275247D01*
X131606Y276184D01*
X130304Y276880D01*
X128891Y277309D01*
X127921Y277404D01*
D02*
G37*
G36*
X199500Y274500D02*
X196536D01*
X196590Y274086D01*
X196943Y273235D01*
X197504Y272504D01*
X198235Y271943D01*
X199086Y271590D01*
X199500Y271536D01*
Y274500D01*
D02*
G37*
G36*
X203464D02*
X200500D01*
Y271536D01*
X200914Y271590D01*
X201765Y271943D01*
X202496Y272504D01*
X203057Y273235D01*
X203410Y274086D01*
X203464Y274500D01*
D02*
G37*
G36*
X134904Y269421D02*
X127921D01*
Y262438D01*
X128891Y262534D01*
X130304Y262962D01*
X131606Y263658D01*
X132747Y264595D01*
X133684Y265737D01*
X134380Y267039D01*
X134809Y268452D01*
X134904Y269421D01*
D02*
G37*
G36*
X126921Y277404D02*
X125952Y277309D01*
X124539Y276880D01*
X123237Y276184D01*
X122095Y275247D01*
X121158Y274106D01*
X120462Y272804D01*
X120034Y271391D01*
X119938Y270421D01*
X126921D01*
Y277404D01*
D02*
G37*
G36*
X151421Y279658D02*
X148000D01*
Y276237D01*
X148532Y276307D01*
X149493Y276705D01*
X150319Y277338D01*
X150953Y278164D01*
X151351Y279126D01*
X151421Y279658D01*
D02*
G37*
G36*
X313553Y306053D02*
X306447D01*
Y298947D01*
X313553D01*
Y306053D01*
D02*
G37*
G36*
X327500Y305488D02*
X326727Y305386D01*
X326006Y305087D01*
X325387Y304613D01*
X324913Y303994D01*
X324614Y303273D01*
X324512Y302500D01*
X324614Y301727D01*
X324913Y301006D01*
X325387Y300387D01*
X326006Y299913D01*
X326727Y299614D01*
X327500Y299512D01*
X328273Y299614D01*
X328994Y299913D01*
X329613Y300387D01*
X330087Y301006D01*
X330386Y301727D01*
X330488Y302500D01*
X330386Y303273D01*
X330087Y303994D01*
X329613Y304613D01*
X328994Y305087D01*
X328273Y305386D01*
X327500Y305488D01*
D02*
G37*
G36*
X207079Y304421D02*
X204114D01*
X204169Y304008D01*
X204521Y303156D01*
X205083Y302425D01*
X205814Y301864D01*
X206665Y301511D01*
X207079Y301457D01*
Y304421D01*
D02*
G37*
G36*
X327500Y295488D02*
X326727Y295386D01*
X326006Y295088D01*
X325387Y294613D01*
X324913Y293994D01*
X324614Y293273D01*
X324512Y292500D01*
X324614Y291727D01*
X324913Y291006D01*
X325387Y290387D01*
X326006Y289913D01*
X326727Y289614D01*
X327500Y289512D01*
X328273Y289614D01*
X328994Y289913D01*
X329613Y290387D01*
X330087Y291006D01*
X330386Y291727D01*
X330488Y292500D01*
X330386Y293273D01*
X330087Y293994D01*
X329613Y294613D01*
X328994Y295088D01*
X328273Y295386D01*
X327500Y295488D01*
D02*
G37*
G36*
X259272Y320488D02*
X258498Y320386D01*
X257778Y320088D01*
X257159Y319613D01*
X256684Y318994D01*
X256386Y318273D01*
X256284Y317500D01*
X256386Y316727D01*
X256684Y316006D01*
X257159Y315387D01*
X257719Y314957D01*
Y302577D01*
X257139Y302132D01*
X256643Y301485D01*
X256330Y300730D01*
X256224Y299921D01*
X256330Y299112D01*
X256643Y298358D01*
X257139Y297710D01*
X257787Y297213D01*
X258541Y296901D01*
X259350Y296795D01*
X260160Y296901D01*
X260914Y297213D01*
X261561Y297710D01*
X262058Y298358D01*
X262371Y299112D01*
X262477Y299921D01*
X262371Y300730D01*
X262058Y301485D01*
X261561Y302132D01*
X260982Y302577D01*
Y315078D01*
X261384Y315387D01*
X261859Y316006D01*
X262158Y316727D01*
X262259Y317500D01*
X262158Y318273D01*
X261859Y318994D01*
X261384Y319613D01*
X260766Y320088D01*
X260045Y320386D01*
X259272Y320488D01*
D02*
G37*
G36*
X134904Y309579D02*
X127921D01*
Y302596D01*
X128891Y302691D01*
X130304Y303120D01*
X131606Y303816D01*
X132747Y304753D01*
X133684Y305894D01*
X134380Y307196D01*
X134809Y308609D01*
X134904Y309579D01*
D02*
G37*
G36*
X207079Y308386D02*
X206665Y308331D01*
X205814Y307979D01*
X205083Y307417D01*
X204521Y306686D01*
X204169Y305835D01*
X204114Y305421D01*
X207079D01*
Y308386D01*
D02*
G37*
G36*
X208079D02*
Y305421D01*
X211043D01*
X210989Y305835D01*
X210636Y306686D01*
X210075Y307417D01*
X209344Y307979D01*
X208492Y308331D01*
X208079Y308386D01*
D02*
G37*
G36*
X211043Y304421D02*
X208079D01*
Y301457D01*
X208492Y301511D01*
X209344Y301864D01*
X210075Y302425D01*
X210636Y303156D01*
X210989Y304008D01*
X211043Y304421D01*
D02*
G37*
G36*
X297244Y307871D02*
X296435Y307764D01*
X295681Y307452D01*
X295033Y306955D01*
X294536Y306308D01*
X294224Y305553D01*
X294117Y304744D01*
X294224Y303935D01*
X294536Y303181D01*
X295033Y302533D01*
X295681Y302036D01*
X296435Y301724D01*
X297244Y301617D01*
X298053Y301724D01*
X298808Y302036D01*
X299455Y302533D01*
X299952Y303181D01*
X300264Y303935D01*
X300371Y304744D01*
X300264Y305553D01*
X299952Y306308D01*
X299455Y306955D01*
X298808Y307452D01*
X298053Y307764D01*
X297244Y307871D01*
D02*
G37*
G36*
X126921Y309579D02*
X119938D01*
X120034Y308609D01*
X120462Y307196D01*
X121158Y305894D01*
X122095Y304753D01*
X123237Y303816D01*
X124539Y303120D01*
X125952Y302691D01*
X126921Y302596D01*
Y309579D01*
D02*
G37*
G36*
X147000Y284079D02*
X146468Y284009D01*
X145507Y283610D01*
X144681Y282977D01*
X144047Y282151D01*
X143649Y281189D01*
X143579Y280658D01*
X147000D01*
Y284079D01*
D02*
G37*
G36*
X148000D02*
Y280658D01*
X151421D01*
X151351Y281189D01*
X150953Y282151D01*
X150319Y282977D01*
X149493Y283610D01*
X148532Y284009D01*
X148000Y284079D01*
D02*
G37*
G36*
X268614Y279350D02*
X268200Y279296D01*
X267349Y278943D01*
X266618Y278382D01*
X266057Y277651D01*
X265704Y276800D01*
X265650Y276386D01*
X268614D01*
Y279350D01*
D02*
G37*
G36*
X269614D02*
Y276386D01*
X272579D01*
X272524Y276800D01*
X272171Y277651D01*
X271610Y278382D01*
X270879Y278943D01*
X270028Y279296D01*
X269614Y279350D01*
D02*
G37*
G36*
X330462Y285462D02*
X324538D01*
Y279538D01*
X330462D01*
Y285462D01*
D02*
G37*
G36*
X151053Y293553D02*
X143947D01*
Y286447D01*
X151053D01*
Y293553D01*
D02*
G37*
G36*
X230079Y303048D02*
X229270Y302941D01*
X228515Y302629D01*
X227868Y302132D01*
X227371Y301485D01*
X227059Y300730D01*
X226952Y299921D01*
X227059Y299112D01*
X227371Y298358D01*
X227868Y297710D01*
X228515Y297213D01*
X229270Y296901D01*
X230079Y296795D01*
X230888Y296901D01*
X231642Y297213D01*
X232290Y297710D01*
X232734Y298290D01*
X249403D01*
X259547Y288146D01*
X259452Y287421D01*
X259559Y286612D01*
X259871Y285858D01*
X260368Y285210D01*
X261015Y284713D01*
X261770Y284401D01*
X262579Y284295D01*
X263388Y284401D01*
X264142Y284713D01*
X264790Y285210D01*
X265287Y285858D01*
X265599Y286612D01*
X265705Y287421D01*
X265599Y288230D01*
X265287Y288985D01*
X264790Y289632D01*
X264142Y290129D01*
X263388Y290441D01*
X262579Y290548D01*
X261854Y290453D01*
X251232Y301075D01*
X250703Y301428D01*
X250079Y301553D01*
X232734D01*
X232290Y302132D01*
X231642Y302629D01*
X230888Y302941D01*
X230079Y303048D01*
D02*
G37*
G36*
X310000Y296083D02*
X309073Y295961D01*
X308208Y295603D01*
X307466Y295034D01*
X306897Y294292D01*
X306539Y293427D01*
X306417Y292500D01*
X306539Y291573D01*
X306897Y290708D01*
X307466Y289966D01*
X308208Y289397D01*
X309073Y289039D01*
X310000Y288917D01*
X310927Y289039D01*
X311088Y289105D01*
X313369Y286824D01*
Y284767D01*
X312869Y284597D01*
X312534Y285034D01*
X311792Y285603D01*
X310927Y285961D01*
X310000Y286083D01*
X309073Y285961D01*
X308208Y285603D01*
X307466Y285034D01*
X306897Y284292D01*
X306539Y283427D01*
X306417Y282500D01*
X306539Y281573D01*
X306897Y280708D01*
X307466Y279966D01*
X308208Y279397D01*
X309073Y279039D01*
X310000Y278917D01*
X310927Y279039D01*
X311792Y279397D01*
X312534Y279966D01*
X312869Y280402D01*
X313369Y280233D01*
Y267656D01*
X312789Y267211D01*
X312292Y266563D01*
X311980Y265809D01*
X311873Y265000D01*
X311980Y264191D01*
X312292Y263437D01*
X312789Y262789D01*
X313437Y262292D01*
X314191Y261980D01*
X315000Y261873D01*
X315809Y261980D01*
X316563Y262292D01*
X317211Y262789D01*
X317708Y263437D01*
X318020Y264191D01*
X318127Y265000D01*
X318020Y265809D01*
X317708Y266563D01*
X317211Y267211D01*
X316631Y267656D01*
Y287500D01*
X316507Y288124D01*
X316154Y288653D01*
X313395Y291412D01*
X313461Y291573D01*
X313583Y292500D01*
X313461Y293427D01*
X313103Y294292D01*
X312534Y295034D01*
X311792Y295603D01*
X310927Y295961D01*
X310000Y296083D01*
D02*
G37*
%LPD*%
D22*
X383900Y166100D02*
Y356100D01*
Y166100D02*
X387500Y162500D01*
X377500Y362500D02*
X383900Y356100D01*
X259272Y140728D02*
X260000Y140000D01*
X230500Y139500D02*
X231000Y140000D01*
X230000D02*
X230500Y139500D01*
X375000Y212500D02*
X379100Y208400D01*
X386200Y132500D02*
X387500D01*
X377500Y141200D02*
X386200Y132500D01*
X382300Y160200D02*
X387500Y155000D01*
X379100Y148400D02*
Y208400D01*
Y148400D02*
X387500Y140000D01*
X375000Y205000D02*
X377500Y202500D01*
Y141200D02*
Y202500D01*
X380700Y154300D02*
X387500Y147500D01*
X380700Y154300D02*
Y274300D01*
X382300Y160200D02*
Y280200D01*
X370000Y292500D02*
X382300Y280200D01*
X370000Y285000D02*
X380700Y274300D01*
X385513Y171987D02*
X387500Y170000D01*
X385513Y171987D02*
Y364487D01*
X377500Y372500D02*
X385513Y364487D01*
D23*
X350000Y112500D02*
Y142500D01*
X259272Y220000D02*
Y237500D01*
X231335Y379921D02*
X250335D01*
X262835Y367421D01*
X259606Y380650D02*
Y397421D01*
X231079Y299921D02*
X250079D01*
X262579Y287421D01*
X259350Y300650D02*
Y317421D01*
X231000Y220000D02*
X250000D01*
X262500Y207500D01*
X259272Y140728D02*
Y157500D01*
X250000Y140000D02*
X262500Y127500D01*
X231000Y140000D02*
X250000D01*
X310000Y292500D02*
X315000Y287500D01*
X345000Y272500D02*
X354095Y281594D01*
Y295905D01*
X315000Y265000D02*
Y287500D01*
X397500Y127500D02*
Y220000D01*
X310000Y212500D02*
X315000Y217500D01*
Y245000D01*
X385000Y377500D02*
X392500Y370000D01*
Y330000D02*
Y370000D01*
Y330000D02*
X416200Y306300D01*
Y274900D02*
Y306300D01*
D24*
X249272Y317500D02*
D03*
Y397500D02*
D03*
Y237500D02*
D03*
X249272Y157500D02*
D03*
D25*
X259272Y317500D02*
D03*
X269272D02*
D03*
X259272Y397500D02*
D03*
X269272D02*
D03*
X259272Y237500D02*
D03*
X269272D02*
D03*
X269272Y157500D02*
D03*
X259272D02*
D03*
X327500Y142500D02*
D03*
Y132500D02*
D03*
Y212500D02*
D03*
Y222500D02*
D03*
Y292500D02*
D03*
Y302500D02*
D03*
Y372500D02*
D03*
Y382500D02*
D03*
D26*
X147500Y130000D02*
D03*
Y210000D02*
D03*
Y290000D02*
D03*
Y370000D02*
D03*
X442500Y405000D02*
D03*
D27*
X147500Y120158D02*
D03*
Y200157D02*
D03*
Y280157D02*
D03*
Y360157D02*
D03*
X310000Y212500D02*
D03*
Y202500D02*
D03*
Y122500D02*
D03*
Y132500D02*
D03*
Y372500D02*
D03*
Y362500D02*
D03*
Y292500D02*
D03*
Y282500D02*
D03*
X490000Y237500D02*
D03*
Y247500D02*
D03*
Y257500D02*
D03*
Y267500D02*
D03*
Y277500D02*
D03*
Y287500D02*
D03*
Y297500D02*
D03*
Y227500D02*
D03*
X492500Y170000D02*
D03*
Y160000D02*
D03*
Y150000D02*
D03*
Y140000D02*
D03*
X432500Y405000D02*
D03*
D28*
X127421Y109921D02*
D03*
Y150079D02*
D03*
Y189921D02*
D03*
Y230079D02*
D03*
Y269921D02*
D03*
Y310079D02*
D03*
Y349921D02*
D03*
Y390079D02*
D03*
D29*
X327500Y122500D02*
D03*
Y202500D02*
D03*
Y282500D02*
D03*
Y362500D02*
D03*
D30*
X310000Y222500D02*
D03*
Y142500D02*
D03*
Y382500D02*
D03*
Y302500D02*
D03*
X490000Y217500D02*
D03*
X492500Y130000D02*
D03*
D31*
X427500Y227500D02*
D03*
X220256Y152244D02*
D03*
Y232244D02*
D03*
X220000Y312500D02*
D03*
X200335Y354921D02*
D03*
X220000Y392500D02*
D03*
X350000Y112500D02*
D03*
X259272Y220000D02*
D03*
X262835Y367421D02*
D03*
X230335Y379921D02*
D03*
X259606D02*
D03*
X270335Y356693D02*
D03*
X262579Y287421D02*
D03*
X207579Y304921D02*
D03*
X230079Y299921D02*
D03*
X259350D02*
D03*
X230000Y220000D02*
D03*
X262500Y207500D02*
D03*
X350000Y142500D02*
D03*
X259272Y140000D02*
D03*
X230000D02*
D03*
X207500Y385000D02*
D03*
X200000Y275000D02*
D03*
Y115000D02*
D03*
X262500Y127500D02*
D03*
X375000Y212500D02*
D03*
X387500Y162500D02*
D03*
Y170000D02*
D03*
Y155000D02*
D03*
Y147500D02*
D03*
Y140000D02*
D03*
Y132500D02*
D03*
X300000Y115000D02*
D03*
X332756Y180256D02*
D03*
X372500Y187500D02*
D03*
X405000Y397500D02*
D03*
X442500Y390000D02*
D03*
X397500Y127500D02*
D03*
X297244Y224744D02*
D03*
X315000Y245000D02*
D03*
X297500Y145000D02*
D03*
X297244Y304744D02*
D03*
X297500Y385000D02*
D03*
X375000Y205000D02*
D03*
X269114Y275886D02*
D03*
X442500Y285000D02*
D03*
X354095Y295905D02*
D03*
X300000Y275000D02*
D03*
X397500Y220000D02*
D03*
X370000Y292500D02*
D03*
Y285000D02*
D03*
X345000Y272500D02*
D03*
X315000Y265000D02*
D03*
X300000Y195000D02*
D03*
X400256Y309744D02*
D03*
X380000Y340000D02*
D03*
X377500Y372500D02*
D03*
Y362500D02*
D03*
X268543Y197500D02*
D03*
X267500Y116043D02*
D03*
X385000Y377500D02*
D03*
X454244Y292244D02*
D03*
X336244Y335256D02*
D03*
X455800Y243300D02*
D03*
X442100Y241600D02*
D03*
X433200Y283300D02*
D03*
X416100Y274900D02*
D03*
X458700Y137500D02*
D03*
X458900Y122500D02*
D03*
X207500Y225000D02*
D03*
Y145000D02*
D03*
X200000Y195000D02*
D03*
D32*
X487500Y112500D02*
D03*
Y400000D02*
D03*
X125000Y170000D02*
D03*
Y250000D02*
D03*
Y330000D02*
D03*
M02*
