G04 Layer_Physical_Order=1*
G04 Layer_Color=255*
%FSLAX25Y25*%
%MOIN*%
G70*
G01*
G75*
%ADD10R,0.02795X0.05402*%
%ADD11R,0.17795X0.17480*%
%ADD12R,0.04331X0.06693*%
%ADD13R,0.06693X0.04331*%
%ADD14R,0.06575X0.06516*%
%ADD15R,0.02756X0.03543*%
%ADD16R,0.03543X0.02756*%
%ADD17R,0.14000X0.38200*%
%ADD18R,0.11024X0.03150*%
%ADD19R,0.22047X0.09606*%
%ADD20R,0.03504X0.09606*%
%ADD21O,0.06299X0.01772*%
%ADD22O,0.05512X0.01772*%
%ADD23C,0.01000*%
%ADD24C,0.02000*%
%ADD25C,0.04000*%
%ADD26R,0.14567X0.38189*%
%ADD27R,0.05512X0.39764*%
%ADD28R,0.03150X0.31496*%
%ADD29C,0.03543*%
%ADD30R,0.03543X0.03543*%
%ADD31C,0.09842*%
%ADD32C,0.16000*%
%ADD33C,0.05905*%
%ADD34R,0.05905X0.05905*%
%ADD35C,0.20000*%
%ADD36C,0.08661*%
%ADD37C,0.11811*%
%ADD38C,0.02600*%
G36*
X917451Y290000D02*
X900041D01*
X899862Y290500D01*
X901038Y291465D01*
X902288Y292988D01*
X903217Y294725D01*
X903788Y296610D01*
X903981Y298571D01*
X903788Y300531D01*
X903217Y302416D01*
X902288Y304153D01*
X901038Y305676D01*
X899516Y306926D01*
X897778Y307854D01*
X895893Y308426D01*
X893933Y308619D01*
X891973Y308426D01*
X890088Y307854D01*
X888350Y306926D01*
X886828Y305676D01*
X885578Y304153D01*
X884650Y302416D01*
X884078Y300531D01*
X883885Y298571D01*
X884078Y296610D01*
X884650Y294725D01*
X885578Y292988D01*
X886828Y291465D01*
X888004Y290500D01*
X887825Y290000D01*
X805000D01*
Y472451D01*
X917451D01*
Y290000D01*
D02*
G37*
G36*
X800000Y404764D02*
X799500Y404497D01*
X798815Y404634D01*
X784248D01*
X784079Y404600D01*
X780539D01*
Y383500D01*
Y362400D01*
X784079D01*
X784248Y362366D01*
X798815D01*
X799500Y362503D01*
X800000Y362236D01*
Y354425D01*
X799799Y354249D01*
X795272D01*
X794518Y354150D01*
X793816Y353859D01*
X793661Y353740D01*
X793124D01*
X792148Y353546D01*
X791770Y353293D01*
X791500Y353328D01*
X791151Y353282D01*
X791043Y353355D01*
X790067Y353549D01*
X778504D01*
X777528Y353355D01*
X776701Y352802D01*
X775746Y351847D01*
X771020D01*
Y341154D01*
X779350D01*
Y348242D01*
X779560Y348451D01*
X781650D01*
Y341154D01*
X783498D01*
Y339772D01*
X782669D01*
Y332228D01*
X789953D01*
Y336000D01*
X791953D01*
Y338000D01*
X796153D01*
X798904Y340751D01*
X799799D01*
X800000Y340575D01*
Y220264D01*
X799500Y219997D01*
X798815Y220134D01*
X784248D01*
X784079Y220100D01*
X780539D01*
Y199000D01*
Y177900D01*
X784079D01*
X784248Y177866D01*
X798815D01*
X799500Y178003D01*
X800000Y177736D01*
Y169036D01*
X799624Y168707D01*
X799299Y168749D01*
X794772D01*
X794018Y168650D01*
X793316Y168359D01*
X793161Y168240D01*
X792624D01*
X791648Y168046D01*
X791270Y167793D01*
X791000Y167829D01*
X790651Y167782D01*
X790543Y167855D01*
X789567Y168049D01*
X778504D01*
X777528Y167855D01*
X776701Y167302D01*
X775246Y165847D01*
X770520D01*
Y155154D01*
X778850D01*
Y162242D01*
X779560Y162951D01*
X781150D01*
Y155154D01*
X781884D01*
X782169Y154772D01*
Y147228D01*
X789453D01*
Y151000D01*
X791453D01*
Y153000D01*
X796153D01*
X798404Y155251D01*
X799299D01*
X799624Y155294D01*
X800000Y154964D01*
Y102549D01*
X227549D01*
Y472451D01*
X800000D01*
Y404764D01*
D02*
G37*
G36*
X917451Y102549D02*
X805000D01*
Y287500D01*
X890889D01*
X890963Y287000D01*
X889588Y286583D01*
X887850Y285654D01*
X886328Y284404D01*
X885078Y282882D01*
X884150Y281144D01*
X883578Y279259D01*
X883385Y277299D01*
X883578Y275339D01*
X884150Y273454D01*
X885078Y271717D01*
X886328Y270194D01*
X887850Y268944D01*
X889588Y268016D01*
X891473Y267444D01*
X893433Y267251D01*
X895393Y267444D01*
X897278Y268016D01*
X899016Y268944D01*
X900538Y270194D01*
X901788Y271717D01*
X902717Y273454D01*
X903288Y275339D01*
X903481Y277299D01*
X903288Y279259D01*
X902717Y281144D01*
X901788Y282882D01*
X900538Y284404D01*
X899016Y285654D01*
X897278Y286583D01*
X895903Y287000D01*
X895977Y287500D01*
X917451D01*
Y102549D01*
D02*
G37*
%LPC*%
G36*
X812167Y403610D02*
X806656D01*
Y402035D01*
X812167D01*
Y403610D01*
D02*
G37*
G36*
X821679D02*
X816167D01*
Y402035D01*
X821679D01*
Y403610D01*
D02*
G37*
G36*
X836815Y409713D02*
X834970Y409154D01*
X833232Y408225D01*
X831710Y406975D01*
X830460Y405453D01*
X829531Y403716D01*
X828972Y401870D01*
X836815D01*
Y409713D01*
D02*
G37*
G36*
X860500D02*
Y401870D01*
X868343D01*
X867784Y403716D01*
X866855Y405453D01*
X865605Y406975D01*
X864083Y408225D01*
X862345Y409154D01*
X860500Y409713D01*
D02*
G37*
G36*
X868343Y397870D02*
X860500D01*
Y390027D01*
X862345Y390587D01*
X864083Y391515D01*
X865605Y392765D01*
X866855Y394287D01*
X867784Y396025D01*
X868343Y397870D01*
D02*
G37*
G36*
X840815Y409713D02*
Y399870D01*
Y390027D01*
X842660Y390587D01*
X844398Y391515D01*
X845920Y392765D01*
X847170Y394287D01*
X848098Y396025D01*
X848407Y397043D01*
X848907D01*
X849216Y396025D01*
X850145Y394287D01*
X851395Y392765D01*
X852917Y391515D01*
X854655Y390587D01*
X856500Y390027D01*
Y399870D01*
Y409713D01*
X854655Y409154D01*
X852917Y408225D01*
X851395Y406975D01*
X850145Y405453D01*
X849216Y403716D01*
X848907Y402697D01*
X848407D01*
X848098Y403716D01*
X847170Y405453D01*
X845920Y406975D01*
X844398Y408225D01*
X842660Y409154D01*
X840815Y409713D01*
D02*
G37*
G36*
X821679Y393311D02*
X814167D01*
X806656D01*
Y392587D01*
X814167D01*
X821679D01*
Y393311D01*
D02*
G37*
G36*
X814167Y400035D02*
D01*
Y398035D01*
X806656D01*
Y397311D01*
X814167D01*
X821679D01*
Y398035D01*
X814167D01*
Y400035D01*
D02*
G37*
G36*
X860500Y449083D02*
Y441240D01*
X868343D01*
X867784Y443085D01*
X866855Y444823D01*
X865605Y446345D01*
X864083Y447595D01*
X862345Y448524D01*
X860500Y449083D01*
D02*
G37*
G36*
X836815D02*
X834970Y448524D01*
X833232Y447595D01*
X831710Y446345D01*
X830460Y444823D01*
X829531Y443085D01*
X828972Y441240D01*
X836815D01*
Y449083D01*
D02*
G37*
G36*
X893933Y471848D02*
X891973Y471655D01*
X890088Y471083D01*
X888350Y470154D01*
X886828Y468904D01*
X885578Y467382D01*
X884650Y465645D01*
X884078Y463760D01*
X883885Y461799D01*
X884078Y459839D01*
X884650Y457954D01*
X885578Y456217D01*
X886828Y454694D01*
X888350Y453444D01*
X890088Y452516D01*
X891973Y451944D01*
X893933Y451751D01*
X895893Y451944D01*
X897778Y452516D01*
X899516Y453444D01*
X901038Y454694D01*
X902288Y456217D01*
X903217Y457954D01*
X903788Y459839D01*
X903981Y461799D01*
X903788Y463760D01*
X903217Y465645D01*
X902288Y467382D01*
X901038Y468904D01*
X899516Y470154D01*
X897778Y471083D01*
X895893Y471655D01*
X893933Y471848D01*
D02*
G37*
G36*
X868343Y437240D02*
X860500D01*
Y429397D01*
X862345Y429957D01*
X864083Y430885D01*
X865605Y432135D01*
X866855Y433658D01*
X867784Y435395D01*
X868343Y437240D01*
D02*
G37*
G36*
X840815Y449083D02*
Y439240D01*
Y429397D01*
X842660Y429957D01*
X844398Y430885D01*
X845920Y432135D01*
X847170Y433658D01*
X848098Y435395D01*
X848407Y436413D01*
X848907D01*
X849216Y435395D01*
X850145Y433658D01*
X851395Y432135D01*
X852917Y430885D01*
X854655Y429957D01*
X856500Y429397D01*
Y439240D01*
Y449083D01*
X854655Y448524D01*
X852917Y447595D01*
X851395Y446345D01*
X850145Y444823D01*
X849216Y443085D01*
X848907Y442067D01*
X848407D01*
X848098Y443085D01*
X847170Y444823D01*
X845920Y446345D01*
X844398Y447595D01*
X842660Y448524D01*
X840815Y449083D01*
D02*
G37*
G36*
X836815Y437240D02*
X828972D01*
X829531Y435395D01*
X830460Y433658D01*
X831710Y432135D01*
X833232Y430885D01*
X834970Y429957D01*
X836815Y429397D01*
Y437240D01*
D02*
G37*
G36*
X821679Y374413D02*
X814167D01*
X806656D01*
Y372839D01*
Y368114D01*
Y363390D01*
X811916D01*
Y354212D01*
X811447Y354150D01*
X810745Y353859D01*
X810143Y353397D01*
X809680Y352794D01*
X809389Y352092D01*
X809290Y351339D01*
X809389Y350585D01*
X809607Y350059D01*
X809389Y349533D01*
X809290Y348780D01*
X809389Y348026D01*
X809607Y347500D01*
X809389Y346974D01*
X809290Y346220D01*
X809389Y345467D01*
X809607Y344941D01*
X809389Y344415D01*
X809290Y343661D01*
X809389Y342908D01*
X809680Y342206D01*
X810143Y341603D01*
X810745Y341141D01*
X811447Y340850D01*
X812201Y340751D01*
X816728D01*
X817482Y340850D01*
X818184Y341141D01*
X818787Y341603D01*
X819249Y342206D01*
X819540Y342908D01*
X819639Y343661D01*
X819601Y343952D01*
X819911Y344013D01*
X820206Y344210D01*
X820500Y344172D01*
X821362Y344285D01*
X822164Y344618D01*
X822854Y345146D01*
X823383Y345836D01*
X823715Y346638D01*
X823829Y347500D01*
X823715Y348361D01*
X823383Y349164D01*
X822854Y349854D01*
X822164Y350382D01*
X821362Y350715D01*
X820500Y350829D01*
X820206Y350790D01*
X819911Y350987D01*
X819601Y351048D01*
X819639Y351339D01*
X819540Y352092D01*
X819249Y352794D01*
X818787Y353397D01*
X818184Y353859D01*
X817482Y354150D01*
X817014Y354212D01*
Y363390D01*
X821679D01*
Y368114D01*
Y370540D01*
X814167D01*
Y373689D01*
X821679D01*
Y374413D01*
D02*
G37*
G36*
X858500Y331178D02*
X856540Y330985D01*
X854655Y330413D01*
X852917Y329485D01*
X851395Y328235D01*
X850145Y326712D01*
X849216Y324975D01*
X848907Y323957D01*
X848407D01*
X848098Y324975D01*
X847170Y326712D01*
X845920Y328235D01*
X844398Y329485D01*
X842660Y330413D01*
X840775Y330985D01*
X838815Y331178D01*
X836855Y330985D01*
X834970Y330413D01*
X833232Y329485D01*
X831710Y328235D01*
X830460Y326712D01*
X829531Y324975D01*
X828960Y323090D01*
X828767Y321130D01*
X828960Y319170D01*
X829531Y317284D01*
X830460Y315547D01*
X831710Y314025D01*
X833232Y312775D01*
X834970Y311846D01*
X836855Y311275D01*
X838815Y311082D01*
X840775Y311275D01*
X842660Y311846D01*
X844398Y312775D01*
X845920Y314025D01*
X847170Y315547D01*
X848098Y317284D01*
X848407Y318303D01*
X848907D01*
X849216Y317284D01*
X850145Y315547D01*
X851395Y314025D01*
X852917Y312775D01*
X854655Y311846D01*
X856540Y311275D01*
X858500Y311082D01*
X860460Y311275D01*
X862345Y311846D01*
X864083Y312775D01*
X865605Y314025D01*
X866855Y315547D01*
X867784Y317284D01*
X868355Y319170D01*
X868548Y321130D01*
X868355Y323090D01*
X867784Y324975D01*
X866855Y326712D01*
X865605Y328235D01*
X864083Y329485D01*
X862345Y330413D01*
X860460Y330985D01*
X858500Y331178D01*
D02*
G37*
G36*
X821679Y383862D02*
X814167D01*
X806656D01*
Y383138D01*
X814167D01*
X821679D01*
Y383862D01*
D02*
G37*
G36*
X858500Y370548D02*
X856540Y370355D01*
X854655Y369783D01*
X852917Y368855D01*
X851395Y367605D01*
X850145Y366083D01*
X849216Y364345D01*
X848907Y363327D01*
X848407D01*
X848098Y364345D01*
X847170Y366083D01*
X845920Y367605D01*
X844398Y368855D01*
X842660Y369783D01*
X840775Y370355D01*
X838815Y370548D01*
X836855Y370355D01*
X834970Y369783D01*
X833232Y368855D01*
X831710Y367605D01*
X830460Y366083D01*
X829531Y364345D01*
X828960Y362460D01*
X828767Y360500D01*
X828960Y358540D01*
X829531Y356655D01*
X830460Y354917D01*
X831710Y353395D01*
X833232Y352145D01*
X834970Y351217D01*
X836855Y350645D01*
X838815Y350452D01*
X840775Y350645D01*
X842660Y351217D01*
X844398Y352145D01*
X845920Y353395D01*
X847170Y354917D01*
X848098Y356655D01*
X848407Y357673D01*
X848907D01*
X849216Y356655D01*
X850145Y354917D01*
X851395Y353395D01*
X852917Y352145D01*
X854655Y351217D01*
X856540Y350645D01*
X858500Y350452D01*
X860460Y350645D01*
X862345Y351217D01*
X864083Y352145D01*
X865605Y353395D01*
X866855Y354917D01*
X867784Y356655D01*
X868355Y358540D01*
X868548Y360500D01*
X868355Y362460D01*
X867784Y364345D01*
X866855Y366083D01*
X865605Y367605D01*
X864083Y368855D01*
X862345Y369783D01*
X860460Y370355D01*
X858500Y370548D01*
D02*
G37*
G36*
X821679Y379138D02*
X814167D01*
X806656D01*
Y378413D01*
X814167D01*
X821679D01*
Y379138D01*
D02*
G37*
G36*
Y388587D02*
X814167D01*
X806656D01*
Y387862D01*
X814167D01*
X821679D01*
Y388587D01*
D02*
G37*
G36*
X836815Y397870D02*
X828972D01*
X829531Y396025D01*
X830460Y394287D01*
X831710Y392765D01*
X833232Y391515D01*
X834970Y390587D01*
X836815Y390027D01*
Y397870D01*
D02*
G37*
G36*
X271063Y229173D02*
X269291D01*
Y227795D01*
X271063D01*
Y229173D01*
D02*
G37*
G36*
X399063D02*
X397291D01*
Y227795D01*
X399063D01*
Y229173D01*
D02*
G37*
G36*
X527063D02*
X525291D01*
Y227795D01*
X527063D01*
Y229173D01*
D02*
G37*
G36*
X368500Y235528D02*
X357476D01*
Y230724D01*
X368500D01*
Y235528D01*
D02*
G37*
G36*
X240500D02*
X229476D01*
Y230724D01*
X240500D01*
Y235528D01*
D02*
G37*
G36*
X655063Y229173D02*
X653291D01*
Y227795D01*
X655063D01*
Y229173D01*
D02*
G37*
G36*
X496500Y235528D02*
X485476D01*
Y230724D01*
X496500D01*
Y235528D01*
D02*
G37*
G36*
X769000Y269788D02*
Y265779D01*
X773009D01*
X772877Y266214D01*
X772289Y267314D01*
X771498Y268278D01*
X770534Y269069D01*
X769434Y269657D01*
X769000Y269788D01*
D02*
G37*
G36*
X258780Y295147D02*
X257795Y295017D01*
X256877Y294637D01*
X256090Y294033D01*
X255485Y293245D01*
X255105Y292327D01*
X254975Y291342D01*
X255105Y290358D01*
X255485Y289440D01*
X255914Y288882D01*
X255485Y288323D01*
X255105Y287406D01*
X254975Y286421D01*
X255105Y285437D01*
X255485Y284519D01*
X255914Y283961D01*
X255485Y283402D01*
X255105Y282485D01*
X254975Y281500D01*
X255061Y280850D01*
X255008Y280350D01*
X255008Y280350D01*
X255008Y280350D01*
Y272807D01*
X262551D01*
Y280350D01*
X262551Y280350D01*
X262498Y280850D01*
X262584Y281500D01*
X262454Y282485D01*
X262074Y283402D01*
X261646Y283961D01*
X262074Y284519D01*
X262454Y285437D01*
X262584Y286421D01*
X262454Y287406D01*
X262074Y288323D01*
X261646Y288882D01*
X262074Y289440D01*
X262454Y290358D01*
X262584Y291342D01*
X262454Y292327D01*
X262074Y293245D01*
X261470Y294033D01*
X260682Y294637D01*
X259764Y295017D01*
X258780Y295147D01*
D02*
G37*
G36*
X765000Y269788D02*
X764566Y269657D01*
X763466Y269069D01*
X762502Y268278D01*
X761711Y267314D01*
X761123Y266214D01*
X760991Y265779D01*
X765000D01*
Y269788D01*
D02*
G37*
G36*
X773009Y239339D02*
X769000D01*
Y235330D01*
X769434Y235461D01*
X770534Y236049D01*
X771498Y236840D01*
X772289Y237804D01*
X772877Y238904D01*
X773009Y239339D01*
D02*
G37*
G36*
X240500Y244331D02*
X229476D01*
Y239528D01*
X240500D01*
Y244331D01*
D02*
G37*
G36*
X624500Y235528D02*
X613476D01*
Y230724D01*
X624500D01*
Y235528D01*
D02*
G37*
G36*
X765000Y239339D02*
X760991D01*
X761123Y238904D01*
X761711Y237804D01*
X762502Y236840D01*
X763466Y236049D01*
X764566Y235461D01*
X765000Y235330D01*
Y239339D01*
D02*
G37*
G36*
X624500Y244331D02*
X613476D01*
Y239528D01*
X624500D01*
Y244331D01*
D02*
G37*
G36*
X773009Y261779D02*
X767000D01*
X760991D01*
X761123Y261345D01*
X761369Y260886D01*
X761133Y260445D01*
X760175Y260350D01*
X758684Y259898D01*
X757311Y259164D01*
X756107Y258176D01*
X755119Y256972D01*
X754385Y255599D01*
X753933Y254109D01*
X753781Y252559D01*
X753933Y251009D01*
X754385Y249519D01*
X755119Y248146D01*
X756107Y246942D01*
X757311Y245954D01*
X758684Y245220D01*
X760175Y244768D01*
X761133Y244674D01*
X761369Y244233D01*
X761123Y243773D01*
X760991Y243339D01*
X767000D01*
X773009D01*
X772877Y243773D01*
X772289Y244873D01*
X771498Y245837D01*
X770534Y246628D01*
X769434Y247216D01*
X768456Y247512D01*
X768244Y248042D01*
X768329Y248146D01*
X769064Y249519D01*
X769516Y251009D01*
X769668Y252559D01*
X769516Y254109D01*
X769064Y255599D01*
X768329Y256972D01*
X768244Y257076D01*
X768456Y257606D01*
X769434Y257902D01*
X770534Y258490D01*
X771498Y259281D01*
X772289Y260245D01*
X772877Y261345D01*
X773009Y261779D01*
D02*
G37*
G36*
X368500Y244331D02*
X357476D01*
Y239528D01*
X368500D01*
Y244331D01*
D02*
G37*
G36*
X496500D02*
X485476D01*
Y239528D01*
X496500D01*
Y244331D01*
D02*
G37*
G36*
X794831Y149000D02*
X793453D01*
Y147228D01*
X794831D01*
Y149000D01*
D02*
G37*
G36*
X502287Y142258D02*
X491713D01*
Y131742D01*
X502287D01*
Y132966D01*
X516311D01*
X516337Y132937D01*
X516470Y131580D01*
X516866Y130275D01*
X517509Y129073D01*
X518374Y128019D01*
X519427Y127154D01*
X520630Y126512D01*
X521935Y126116D01*
X523291Y125982D01*
X524648Y126116D01*
X525953Y126512D01*
X527155Y127154D01*
X528209Y128019D01*
X529074Y129073D01*
X529717Y130275D01*
X530112Y131580D01*
X530246Y132937D01*
X530112Y134294D01*
X529717Y135599D01*
X529074Y136801D01*
X528209Y137855D01*
X527155Y138720D01*
X525953Y139362D01*
X524648Y139758D01*
X523291Y139892D01*
X522154Y139780D01*
X522081Y139853D01*
X521246Y140494D01*
X520272Y140897D01*
X519228Y141034D01*
X519228Y141034D01*
X502287D01*
Y142258D01*
D02*
G37*
G36*
X630287D02*
X619713D01*
Y131742D01*
X630287D01*
Y132966D01*
X644311D01*
X644337Y132937D01*
X644470Y131580D01*
X644866Y130275D01*
X645509Y129073D01*
X646374Y128019D01*
X647428Y127154D01*
X648630Y126512D01*
X649934Y126116D01*
X651291Y125982D01*
X652648Y126116D01*
X653953Y126512D01*
X655155Y127154D01*
X656209Y128019D01*
X657074Y129073D01*
X657717Y130275D01*
X658112Y131580D01*
X658246Y132937D01*
X658112Y134294D01*
X657717Y135599D01*
X657074Y136801D01*
X656209Y137855D01*
X655155Y138720D01*
X653953Y139362D01*
X652648Y139758D01*
X651291Y139892D01*
X650154Y139780D01*
X650081Y139853D01*
X649246Y140494D01*
X648273Y140897D01*
X647228Y141034D01*
X647228Y141034D01*
X630287D01*
Y142258D01*
D02*
G37*
G36*
X267291Y183528D02*
X263945D01*
Y181362D01*
X267291D01*
Y183528D01*
D02*
G37*
G36*
X772831Y220921D02*
X767319D01*
X766538Y220766D01*
X765877Y220324D01*
X765435Y219662D01*
X765280Y218882D01*
Y179118D01*
X765435Y178338D01*
X765877Y177676D01*
X766538Y177234D01*
X767319Y177079D01*
X772831D01*
X773611Y177234D01*
X774273Y177676D01*
X774422Y177900D01*
X776539D01*
Y199000D01*
Y220100D01*
X774422D01*
X774273Y220324D01*
X773611Y220766D01*
X772831Y220921D01*
D02*
G37*
G36*
X374287Y142258D02*
X363713D01*
Y131742D01*
X374287D01*
Y132966D01*
X388311D01*
X388337Y132937D01*
X388470Y131580D01*
X388866Y130275D01*
X389509Y129073D01*
X390374Y128019D01*
X391427Y127154D01*
X392630Y126512D01*
X393934Y126116D01*
X395291Y125982D01*
X396648Y126116D01*
X397953Y126512D01*
X399155Y127154D01*
X400209Y128019D01*
X401074Y129073D01*
X401717Y130275D01*
X402112Y131580D01*
X402246Y132937D01*
X402112Y134294D01*
X401717Y135599D01*
X401074Y136801D01*
X400209Y137855D01*
X399155Y138720D01*
X397953Y139362D01*
X396648Y139758D01*
X395291Y139892D01*
X394154Y139780D01*
X394081Y139853D01*
X393246Y140494D01*
X392272Y140897D01*
X391228Y141034D01*
X391228Y141034D01*
X374287D01*
Y142258D01*
D02*
G37*
G36*
X408992Y127623D02*
X407545Y127432D01*
X406197Y126874D01*
X405039Y125985D01*
X404150Y124827D01*
X403591Y123479D01*
X403401Y122031D01*
X403591Y120584D01*
X404150Y119236D01*
X405039Y118078D01*
X406197Y117189D01*
X407545Y116631D01*
X408992Y116440D01*
X410439Y116631D01*
X411788Y117189D01*
X412946Y118078D01*
X413834Y119236D01*
X414393Y120584D01*
X414583Y122031D01*
X414393Y123479D01*
X413834Y124827D01*
X412946Y125985D01*
X411788Y126874D01*
X410439Y127432D01*
X408992Y127623D01*
D02*
G37*
G36*
X536992D02*
X535545Y127432D01*
X534197Y126874D01*
X533039Y125985D01*
X532150Y124827D01*
X531592Y123479D01*
X531401Y122031D01*
X531592Y120584D01*
X532150Y119236D01*
X533039Y118078D01*
X534197Y117189D01*
X535545Y116631D01*
X536992Y116440D01*
X538439Y116631D01*
X539788Y117189D01*
X540946Y118078D01*
X541834Y119236D01*
X542393Y120584D01*
X542583Y122031D01*
X542393Y123479D01*
X541834Y124827D01*
X540946Y125985D01*
X539788Y126874D01*
X538439Y127432D01*
X536992Y127623D01*
D02*
G37*
G36*
X280992D02*
X279545Y127432D01*
X278197Y126874D01*
X277039Y125985D01*
X276150Y124827D01*
X275591Y123479D01*
X275401Y122031D01*
X275591Y120584D01*
X276150Y119236D01*
X277039Y118078D01*
X278197Y117189D01*
X279545Y116631D01*
X280992Y116440D01*
X282439Y116631D01*
X283788Y117189D01*
X284946Y118078D01*
X285834Y119236D01*
X286393Y120584D01*
X286583Y122031D01*
X286393Y123479D01*
X285834Y124827D01*
X284946Y125985D01*
X283788Y126874D01*
X282439Y127432D01*
X280992Y127623D01*
D02*
G37*
G36*
X767500Y147037D02*
X765617Y146889D01*
X763780Y146448D01*
X762035Y145725D01*
X760425Y144738D01*
X758989Y143511D01*
X757762Y142075D01*
X756775Y140465D01*
X756052Y138720D01*
X755611Y136883D01*
X755463Y135000D01*
X755611Y133117D01*
X756052Y131280D01*
X756775Y129535D01*
X757762Y127925D01*
X758989Y126488D01*
X760425Y125262D01*
X762035Y124275D01*
X763780Y123552D01*
X765617Y123111D01*
X767500Y122963D01*
X769383Y123111D01*
X771220Y123552D01*
X772965Y124275D01*
X774575Y125262D01*
X776012Y126488D01*
X777238Y127925D01*
X778225Y129535D01*
X778948Y131280D01*
X779389Y133117D01*
X779537Y135000D01*
X779389Y136883D01*
X778948Y138720D01*
X778225Y140465D01*
X777238Y142075D01*
X776012Y143511D01*
X774575Y144738D01*
X772965Y145725D01*
X771220Y146448D01*
X769383Y146889D01*
X767500Y147037D01*
D02*
G37*
G36*
X246287Y142258D02*
X235713D01*
Y131742D01*
X246287D01*
Y132966D01*
X260311D01*
X260337Y132937D01*
X260470Y131580D01*
X260866Y130275D01*
X261509Y129073D01*
X262374Y128019D01*
X263427Y127154D01*
X264630Y126512D01*
X265934Y126116D01*
X267291Y125982D01*
X268648Y126116D01*
X269953Y126512D01*
X271155Y127154D01*
X272209Y128019D01*
X273074Y129073D01*
X273717Y130275D01*
X274112Y131580D01*
X274246Y132937D01*
X274112Y134294D01*
X273717Y135599D01*
X273074Y136801D01*
X272209Y137855D01*
X271155Y138720D01*
X269953Y139362D01*
X268648Y139758D01*
X267291Y139892D01*
X266154Y139780D01*
X266081Y139853D01*
X265246Y140494D01*
X264272Y140897D01*
X263228Y141034D01*
X263228Y141034D01*
X246287D01*
Y142258D01*
D02*
G37*
G36*
X664992Y127623D02*
X663545Y127432D01*
X662197Y126874D01*
X661039Y125985D01*
X660150Y124827D01*
X659591Y123479D01*
X659401Y122031D01*
X659591Y120584D01*
X660150Y119236D01*
X661039Y118078D01*
X662197Y117189D01*
X663545Y116631D01*
X664992Y116440D01*
X666439Y116631D01*
X667788Y117189D01*
X668946Y118078D01*
X669834Y119236D01*
X670393Y120584D01*
X670583Y122031D01*
X670393Y123479D01*
X669834Y124827D01*
X668946Y125985D01*
X667788Y126874D01*
X666439Y127432D01*
X664992Y127623D01*
D02*
G37*
G36*
X335000Y147037D02*
X333117Y146889D01*
X331280Y146448D01*
X329535Y145725D01*
X327925Y144738D01*
X326488Y143511D01*
X325262Y142075D01*
X324275Y140465D01*
X323552Y138720D01*
X323111Y136883D01*
X322963Y135000D01*
X323111Y133117D01*
X323552Y131280D01*
X324275Y129535D01*
X325262Y127925D01*
X326488Y126488D01*
X327925Y125262D01*
X329535Y124275D01*
X331280Y123552D01*
X333117Y123111D01*
X335000Y122963D01*
X336883Y123111D01*
X338720Y123552D01*
X340465Y124275D01*
X342075Y125262D01*
X343512Y126488D01*
X344738Y127925D01*
X345725Y129535D01*
X346448Y131280D01*
X346889Y133117D01*
X347037Y135000D01*
X346889Y136883D01*
X346448Y138720D01*
X345725Y140465D01*
X344738Y142075D01*
X343512Y143511D01*
X342075Y144738D01*
X340465Y145725D01*
X338720Y146448D01*
X336883Y146889D01*
X335000Y147037D01*
D02*
G37*
G36*
X267291Y189693D02*
X263945D01*
Y187528D01*
X267291D01*
Y189693D01*
D02*
G37*
G36*
X395291D02*
X391945D01*
Y187528D01*
X395291D01*
Y189693D01*
D02*
G37*
G36*
X646531Y244331D02*
X628500D01*
Y237528D01*
Y230724D01*
X643951D01*
Y224803D01*
X613476D01*
Y211197D01*
X627598D01*
X627965Y210829D01*
Y207240D01*
X621102D01*
Y185929D01*
X621102Y185429D01*
X621102Y185260D01*
Y182871D01*
X621006Y182746D01*
X620603Y181773D01*
X620466Y180728D01*
X620603Y179684D01*
X621006Y178711D01*
X621102Y178586D01*
Y176028D01*
X630466D01*
Y172169D01*
X630466Y172169D01*
X630603Y171125D01*
X631006Y170152D01*
X631647Y169316D01*
X644350Y156613D01*
X644211Y156113D01*
X630287D01*
Y157337D01*
X619713D01*
Y146821D01*
X630287D01*
Y148044D01*
X647992D01*
X647992Y148044D01*
X649036Y148182D01*
X649940Y148556D01*
X651291Y148423D01*
X652648Y148557D01*
X653953Y148953D01*
X655155Y149595D01*
X656209Y150460D01*
X657074Y151514D01*
X657717Y152717D01*
X658112Y154021D01*
X658246Y155378D01*
X658112Y156735D01*
X657717Y158039D01*
X657074Y159242D01*
X656209Y160296D01*
X655155Y161161D01*
X653953Y161803D01*
X652648Y162199D01*
X651291Y162333D01*
X650154Y162221D01*
X638534Y173840D01*
Y176028D01*
X642898D01*
Y176891D01*
X643398Y177251D01*
X644000Y177172D01*
X644862Y177285D01*
X645664Y177618D01*
X646354Y178146D01*
X646882Y178836D01*
X647215Y179639D01*
X647329Y180500D01*
X647215Y181361D01*
X646882Y182164D01*
X646354Y182854D01*
X645664Y183382D01*
X644862Y183715D01*
X644000Y183828D01*
X643398Y183749D01*
X642898Y184109D01*
X642898Y185760D01*
X642898Y185929D01*
Y189891D01*
X643398Y190251D01*
X644000Y190172D01*
X644862Y190285D01*
X645664Y190618D01*
X646354Y191146D01*
X646882Y191836D01*
X647215Y192639D01*
X647329Y193500D01*
X647215Y194361D01*
X646882Y195164D01*
X646354Y195854D01*
X645664Y196382D01*
X644862Y196715D01*
X644000Y196828D01*
X643398Y196749D01*
X642898Y197109D01*
Y203266D01*
X643360Y203457D01*
X646229Y200587D01*
X647056Y200035D01*
X647520Y199943D01*
Y199012D01*
X647945D01*
Y191992D01*
X656087D01*
X656323Y191551D01*
X656133Y191268D01*
X656015Y190675D01*
X655291Y189951D01*
Y185528D01*
Y181362D01*
X658638D01*
Y186088D01*
X659189Y186639D01*
X659836Y186143D01*
X659969Y186088D01*
X659951Y186000D01*
Y179362D01*
X660145Y178387D01*
X660698Y177560D01*
X670669Y167588D01*
Y163650D01*
Y158150D01*
X677953D01*
Y161921D01*
X681622D01*
Y158150D01*
X681622D01*
Y158150D01*
X687463D01*
X687767Y157650D01*
X687672Y156921D01*
X687785Y156060D01*
X688118Y155257D01*
X688646Y154568D01*
X689336Y154039D01*
X690138Y153706D01*
X691000Y153593D01*
X691861Y153706D01*
X692664Y154039D01*
X693354Y154568D01*
X693883Y155257D01*
X694215Y156060D01*
X694328Y156921D01*
X694233Y157650D01*
X694283Y158150D01*
X694283Y158150D01*
X694283Y158150D01*
Y163650D01*
Y165693D01*
X690906D01*
Y169149D01*
X694283D01*
Y169150D01*
Y170372D01*
X696712D01*
X697044Y170117D01*
X697847Y169785D01*
X698709Y169671D01*
X699570Y169785D01*
X700373Y170117D01*
X701062Y170646D01*
X701591Y171336D01*
X701924Y172139D01*
X702037Y173000D01*
X701924Y173862D01*
X701591Y174664D01*
X701258Y175099D01*
Y184713D01*
X701064Y185688D01*
X700511Y186515D01*
X697243Y189783D01*
X697109Y189872D01*
X697261Y190372D01*
X699504D01*
X699836Y190118D01*
X700638Y189785D01*
X701500Y189672D01*
X702126Y189754D01*
X702626Y189404D01*
Y186591D01*
X710957D01*
Y197283D01*
X710063D01*
Y201512D01*
Y206591D01*
X710642D01*
Y217283D01*
X702311D01*
Y214464D01*
X701446Y214292D01*
X700619Y213739D01*
X700515Y213636D01*
X699926Y213753D01*
X699788Y214086D01*
X699259Y214775D01*
X698570Y215304D01*
X697767Y215636D01*
X696906Y215750D01*
X696044Y215636D01*
X695241Y215304D01*
X694552Y214775D01*
X694023Y214086D01*
X693690Y213283D01*
X693631Y212832D01*
X692162Y211364D01*
X689035D01*
X688282Y211264D01*
X687580Y210974D01*
X686977Y210511D01*
X686515Y209908D01*
X686224Y209206D01*
X686125Y208453D01*
X686224Y207699D01*
X686442Y207173D01*
X686224Y206647D01*
X686125Y205894D01*
X686224Y205140D01*
X686442Y204614D01*
X686224Y204088D01*
X686125Y203335D01*
X686224Y202581D01*
X686442Y202055D01*
X686224Y201529D01*
X686125Y200776D01*
X686224Y200022D01*
X686442Y199496D01*
X686224Y198970D01*
X686125Y198216D01*
X686224Y197463D01*
X686442Y196937D01*
X686224Y196411D01*
X686125Y195658D01*
X686224Y194904D01*
X686442Y194378D01*
X686224Y193852D01*
X686125Y193098D01*
X686224Y192345D01*
X686442Y191819D01*
X686224Y191293D01*
X686125Y190539D01*
X686224Y189786D01*
X686442Y189260D01*
X686224Y188734D01*
X686125Y187980D01*
X686224Y187227D01*
X686442Y186701D01*
X686224Y186175D01*
X686125Y185421D01*
X686224Y184668D01*
X686515Y183966D01*
X686977Y183363D01*
X687580Y182901D01*
X688081Y182693D01*
X687982Y182193D01*
X681622D01*
Y180970D01*
X674056D01*
X671630Y183396D01*
X672068Y183966D01*
X672359Y184668D01*
X672458Y185421D01*
X672359Y186175D01*
X672141Y186701D01*
X672359Y187227D01*
X672458Y187980D01*
X672359Y188734D01*
X672141Y189260D01*
X672359Y189786D01*
X672458Y190539D01*
X672359Y191293D01*
X672141Y191819D01*
X672359Y192345D01*
X672458Y193098D01*
X672359Y193852D01*
X672141Y194378D01*
X672359Y194904D01*
X672458Y195658D01*
X672359Y196411D01*
X672141Y196937D01*
X672359Y197463D01*
X672458Y198216D01*
X672359Y198970D01*
X672141Y199496D01*
X672359Y200022D01*
X672458Y200776D01*
X672359Y201529D01*
X672141Y202055D01*
X672359Y202581D01*
X672458Y203335D01*
X672359Y204088D01*
X672141Y204614D01*
X672359Y205140D01*
X672458Y205894D01*
X672359Y206647D01*
X672141Y207173D01*
X672359Y207699D01*
X672458Y208453D01*
X672359Y209206D01*
X672068Y209908D01*
X671605Y210511D01*
X671003Y210974D01*
X670301Y211264D01*
X669547Y211364D01*
X665807D01*
X665054Y211264D01*
X664597Y211075D01*
X664383Y211164D01*
X663854Y211854D01*
X663164Y212383D01*
X662361Y212715D01*
X661500Y212828D01*
X660639Y212715D01*
X659836Y212383D01*
X659174Y211875D01*
X659164Y211882D01*
X658361Y212215D01*
X657500Y212329D01*
X656638Y212215D01*
X655836Y211882D01*
X655563Y211673D01*
X655063D01*
X655063Y211673D01*
X655063Y211673D01*
X653840D01*
Y216512D01*
X655063D01*
Y222417D01*
Y223795D01*
X651291D01*
Y225795D01*
X649291D01*
Y229173D01*
X649049D01*
Y233807D01*
X648855Y234783D01*
X648302Y235610D01*
X646531Y237380D01*
Y244331D01*
D02*
G37*
G36*
X721272Y217283D02*
X712941D01*
Y206591D01*
X713786D01*
X714116Y206215D01*
X714077Y205921D01*
X714190Y205060D01*
X714523Y204257D01*
X714856Y203822D01*
Y197283D01*
X713256D01*
Y186591D01*
X721587D01*
Y197283D01*
X719954D01*
Y203822D01*
X720288Y204257D01*
X720621Y205060D01*
X720734Y205921D01*
X720695Y206215D01*
X721025Y206591D01*
X721272D01*
Y217283D01*
D02*
G37*
G36*
X523291Y189693D02*
X519945D01*
Y187528D01*
X523291D01*
Y189693D01*
D02*
G37*
G36*
X651291D02*
X647945D01*
Y187528D01*
X651291D01*
Y189693D01*
D02*
G37*
G36*
X593272Y217283D02*
X584941D01*
Y206591D01*
X585786D01*
X586116Y206215D01*
X586077Y205921D01*
X586190Y205060D01*
X586523Y204257D01*
X586857Y203822D01*
Y197283D01*
X585256D01*
Y186591D01*
X593587D01*
Y197283D01*
X591955D01*
Y203822D01*
X592288Y204257D01*
X592621Y205060D01*
X592734Y205921D01*
X592695Y206215D01*
X593025Y206591D01*
X593272D01*
Y217283D01*
D02*
G37*
G36*
X651291Y183528D02*
X647945D01*
Y181362D01*
X651291D01*
Y183528D01*
D02*
G37*
G36*
X262531Y244331D02*
X244500D01*
Y237528D01*
Y230724D01*
X259951D01*
Y224803D01*
X229476D01*
Y211197D01*
X243598D01*
X243966Y210829D01*
Y207240D01*
X237102D01*
Y185929D01*
X237102Y185429D01*
X237102Y185260D01*
Y182871D01*
X237006Y182746D01*
X236603Y181773D01*
X236466Y180728D01*
X236603Y179684D01*
X237006Y178711D01*
X237102Y178586D01*
Y176028D01*
X246465D01*
Y172169D01*
X246465Y172169D01*
X246603Y171125D01*
X247006Y170152D01*
X247647Y169316D01*
X260350Y156613D01*
X260211Y156113D01*
X246287D01*
Y157337D01*
X235713D01*
Y146821D01*
X246287D01*
Y148044D01*
X263992D01*
X263992Y148044D01*
X265036Y148182D01*
X265940Y148556D01*
X267291Y148423D01*
X268648Y148557D01*
X269953Y148953D01*
X271155Y149595D01*
X272209Y150460D01*
X273074Y151514D01*
X273717Y152717D01*
X274112Y154021D01*
X274246Y155378D01*
X274112Y156735D01*
X273717Y158039D01*
X273074Y159242D01*
X272209Y160296D01*
X271155Y161161D01*
X269953Y161803D01*
X268648Y162199D01*
X267291Y162333D01*
X266154Y162221D01*
X254535Y173840D01*
Y176028D01*
X258898D01*
Y176891D01*
X259398Y177251D01*
X260000Y177172D01*
X260861Y177285D01*
X261664Y177618D01*
X262354Y178146D01*
X262882Y178836D01*
X263215Y179639D01*
X263329Y180500D01*
X263215Y181361D01*
X262882Y182164D01*
X262354Y182854D01*
X261664Y183382D01*
X260861Y183715D01*
X260000Y183828D01*
X259398Y183749D01*
X258898Y184109D01*
X258898Y185760D01*
X258898Y185929D01*
Y189891D01*
X259398Y190251D01*
X260000Y190172D01*
X260861Y190285D01*
X261664Y190618D01*
X262354Y191146D01*
X262882Y191836D01*
X263215Y192639D01*
X263329Y193500D01*
X263215Y194361D01*
X262882Y195164D01*
X262354Y195854D01*
X261664Y196382D01*
X260861Y196715D01*
X260000Y196828D01*
X259398Y196749D01*
X258898Y197109D01*
Y203266D01*
X259360Y203457D01*
X262229Y200587D01*
X263056Y200035D01*
X263520Y199943D01*
Y199012D01*
X263945D01*
Y191992D01*
X272087D01*
X272323Y191551D01*
X272133Y191268D01*
X272016Y190675D01*
X271291Y189951D01*
Y185528D01*
Y181362D01*
X274638D01*
Y186088D01*
X275189Y186639D01*
X275836Y186143D01*
X275969Y186088D01*
X275951Y186000D01*
Y179362D01*
X276145Y178387D01*
X276698Y177560D01*
X286669Y167588D01*
Y163650D01*
Y158150D01*
X293953D01*
Y161921D01*
X297622D01*
Y158150D01*
X297622D01*
Y158150D01*
X303463D01*
X303767Y157650D01*
X303672Y156921D01*
X303785Y156060D01*
X304117Y155257D01*
X304646Y154568D01*
X305336Y154039D01*
X306138Y153706D01*
X307000Y153593D01*
X307861Y153706D01*
X308664Y154039D01*
X309354Y154568D01*
X309882Y155257D01*
X310215Y156060D01*
X310329Y156921D01*
X310233Y157650D01*
X310283Y158150D01*
X310283Y158150D01*
X310283Y158150D01*
Y163650D01*
Y165693D01*
X306906D01*
Y169149D01*
X310283D01*
Y169150D01*
Y170372D01*
X312712D01*
X313044Y170117D01*
X313847Y169785D01*
X314709Y169671D01*
X315570Y169785D01*
X316373Y170117D01*
X317062Y170646D01*
X317591Y171336D01*
X317924Y172139D01*
X318037Y173000D01*
X317924Y173862D01*
X317591Y174664D01*
X317258Y175099D01*
Y184713D01*
X317064Y185688D01*
X316511Y186515D01*
X313243Y189783D01*
X313109Y189872D01*
X313261Y190372D01*
X315004D01*
X315336Y190118D01*
X316139Y189785D01*
X317000Y189672D01*
X317862Y189785D01*
X318210Y189929D01*
X318626Y189652D01*
Y186591D01*
X326957D01*
Y197283D01*
X326063D01*
Y201512D01*
Y206591D01*
X326642D01*
Y217283D01*
X318311D01*
Y214464D01*
X317446Y214292D01*
X316619Y213739D01*
X316515Y213636D01*
X315926Y213753D01*
X315788Y214086D01*
X315259Y214775D01*
X314570Y215304D01*
X313767Y215636D01*
X312906Y215750D01*
X312044Y215636D01*
X311241Y215304D01*
X310552Y214775D01*
X310023Y214086D01*
X309690Y213283D01*
X309631Y212832D01*
X308162Y211364D01*
X305035D01*
X304282Y211264D01*
X303580Y210974D01*
X302977Y210511D01*
X302515Y209908D01*
X302224Y209206D01*
X302125Y208453D01*
X302224Y207699D01*
X302442Y207173D01*
X302224Y206647D01*
X302125Y205894D01*
X302224Y205140D01*
X302442Y204614D01*
X302224Y204088D01*
X302125Y203335D01*
X302224Y202581D01*
X302442Y202055D01*
X302224Y201529D01*
X302125Y200776D01*
X302224Y200022D01*
X302442Y199496D01*
X302224Y198970D01*
X302125Y198216D01*
X302224Y197463D01*
X302442Y196937D01*
X302224Y196411D01*
X302125Y195658D01*
X302224Y194904D01*
X302442Y194378D01*
X302224Y193852D01*
X302125Y193098D01*
X302224Y192345D01*
X302442Y191819D01*
X302224Y191293D01*
X302125Y190539D01*
X302224Y189786D01*
X302442Y189260D01*
X302224Y188734D01*
X302125Y187980D01*
X302224Y187227D01*
X302442Y186701D01*
X302224Y186175D01*
X302125Y185421D01*
X302224Y184668D01*
X302515Y183966D01*
X302977Y183363D01*
X303580Y182901D01*
X304081Y182693D01*
X303982Y182193D01*
X297622D01*
Y180970D01*
X290056D01*
X287630Y183396D01*
X288068Y183966D01*
X288359Y184668D01*
X288458Y185421D01*
X288359Y186175D01*
X288141Y186701D01*
X288359Y187227D01*
X288458Y187980D01*
X288359Y188734D01*
X288141Y189260D01*
X288359Y189786D01*
X288458Y190539D01*
X288359Y191293D01*
X288141Y191819D01*
X288359Y192345D01*
X288458Y193098D01*
X288359Y193852D01*
X288141Y194378D01*
X288359Y194904D01*
X288458Y195658D01*
X288359Y196411D01*
X288141Y196937D01*
X288359Y197463D01*
X288458Y198216D01*
X288359Y198970D01*
X288141Y199496D01*
X288359Y200022D01*
X288458Y200776D01*
X288359Y201529D01*
X288141Y202055D01*
X288359Y202581D01*
X288458Y203335D01*
X288359Y204088D01*
X288141Y204614D01*
X288359Y205140D01*
X288458Y205894D01*
X288359Y206647D01*
X288141Y207173D01*
X288359Y207699D01*
X288458Y208453D01*
X288359Y209206D01*
X288068Y209908D01*
X287605Y210511D01*
X287003Y210974D01*
X286301Y211264D01*
X285547Y211364D01*
X281807D01*
X281054Y211264D01*
X280597Y211075D01*
X280382Y211164D01*
X279854Y211854D01*
X279164Y212383D01*
X278362Y212715D01*
X277500Y212828D01*
X276639Y212715D01*
X275836Y212383D01*
X275174Y211875D01*
X275164Y211882D01*
X274361Y212215D01*
X273500Y212329D01*
X272639Y212215D01*
X271836Y211882D01*
X271563Y211673D01*
X271063D01*
X271063Y211673D01*
X271063Y211673D01*
X269840D01*
Y216512D01*
X271063D01*
Y222417D01*
Y223795D01*
X267291D01*
Y225795D01*
X265291D01*
Y229173D01*
X265049D01*
Y233807D01*
X264855Y234783D01*
X264302Y235610D01*
X262531Y237380D01*
Y244331D01*
D02*
G37*
G36*
X395291Y183528D02*
X391945D01*
Y181362D01*
X395291D01*
Y183528D01*
D02*
G37*
G36*
X523291D02*
X519945D01*
Y181362D01*
X523291D01*
Y183528D01*
D02*
G37*
G36*
X465272Y217283D02*
X456941D01*
Y206591D01*
X457786D01*
X458116Y206215D01*
X458077Y205921D01*
X458190Y205060D01*
X458523Y204257D01*
X458856Y203822D01*
Y197283D01*
X457256D01*
Y186591D01*
X465587D01*
Y197283D01*
X463954D01*
Y203822D01*
X464288Y204257D01*
X464621Y205060D01*
X464734Y205921D01*
X464695Y206215D01*
X465025Y206591D01*
X465272D01*
Y217283D01*
D02*
G37*
G36*
X518532Y244331D02*
X500500D01*
Y237528D01*
Y230724D01*
X515951D01*
Y224803D01*
X485476D01*
Y211197D01*
X499598D01*
X499965Y210829D01*
Y207240D01*
X493102D01*
Y185929D01*
X493102Y185429D01*
X493102Y185260D01*
Y182871D01*
X493006Y182746D01*
X492603Y181773D01*
X492465Y180728D01*
X492603Y179684D01*
X493006Y178711D01*
X493102Y178586D01*
Y176028D01*
X502465D01*
Y172169D01*
X502465Y172169D01*
X502603Y171125D01*
X503006Y170152D01*
X503647Y169316D01*
X516350Y156613D01*
X516211Y156113D01*
X502287D01*
Y157337D01*
X491713D01*
Y146821D01*
X502287D01*
Y148044D01*
X519992D01*
X519992Y148044D01*
X521036Y148182D01*
X521941Y148556D01*
X523291Y148423D01*
X524648Y148557D01*
X525953Y148953D01*
X527155Y149595D01*
X528209Y150460D01*
X529074Y151514D01*
X529717Y152717D01*
X530112Y154021D01*
X530246Y155378D01*
X530112Y156735D01*
X529717Y158039D01*
X529074Y159242D01*
X528209Y160296D01*
X527155Y161161D01*
X525953Y161803D01*
X524648Y162199D01*
X523291Y162333D01*
X522154Y162221D01*
X510534Y173840D01*
Y176028D01*
X514898D01*
Y176891D01*
X515398Y177251D01*
X516000Y177172D01*
X516861Y177285D01*
X517664Y177618D01*
X518354Y178146D01*
X518883Y178836D01*
X519215Y179639D01*
X519328Y180500D01*
X519215Y181361D01*
X518883Y182164D01*
X518354Y182854D01*
X517664Y183382D01*
X516861Y183715D01*
X516000Y183828D01*
X515398Y183749D01*
X514898Y184109D01*
X514898Y185760D01*
X514898Y185929D01*
Y189891D01*
X515398Y190251D01*
X516000Y190172D01*
X516861Y190285D01*
X517664Y190618D01*
X518354Y191146D01*
X518883Y191836D01*
X519215Y192639D01*
X519328Y193500D01*
X519215Y194361D01*
X518883Y195164D01*
X518354Y195854D01*
X517664Y196382D01*
X516861Y196715D01*
X516000Y196828D01*
X515398Y196749D01*
X514898Y197109D01*
Y203266D01*
X515360Y203457D01*
X518229Y200587D01*
X519056Y200035D01*
X519520Y199943D01*
Y199012D01*
X519945D01*
Y191992D01*
X528087D01*
X528323Y191551D01*
X528133Y191268D01*
X528016Y190675D01*
X527291Y189951D01*
Y185528D01*
Y181362D01*
X530638D01*
Y186088D01*
X531189Y186639D01*
X531836Y186143D01*
X531968Y186088D01*
X531951Y186000D01*
Y179362D01*
X532145Y178387D01*
X532698Y177560D01*
X542669Y167588D01*
Y163650D01*
Y158150D01*
X549953D01*
Y161921D01*
X553622D01*
Y158150D01*
X553622D01*
Y158150D01*
X559463D01*
X559767Y157650D01*
X559671Y156921D01*
X559785Y156060D01*
X560117Y155257D01*
X560646Y154568D01*
X561336Y154039D01*
X562139Y153706D01*
X563000Y153593D01*
X563862Y153706D01*
X564664Y154039D01*
X565354Y154568D01*
X565882Y155257D01*
X566215Y156060D01*
X566328Y156921D01*
X566233Y157650D01*
X566284Y158150D01*
X566284Y158150D01*
X566284Y158150D01*
Y163650D01*
Y165693D01*
X562906D01*
Y169149D01*
X566284D01*
Y169150D01*
Y170372D01*
X568712D01*
X569044Y170117D01*
X569847Y169785D01*
X570709Y169671D01*
X571570Y169785D01*
X572373Y170117D01*
X573062Y170646D01*
X573591Y171336D01*
X573924Y172139D01*
X574037Y173000D01*
X573924Y173862D01*
X573591Y174664D01*
X573258Y175099D01*
Y184713D01*
X573064Y185688D01*
X572511Y186515D01*
X569243Y189783D01*
X569109Y189872D01*
X569261Y190372D01*
X571504D01*
X571836Y190118D01*
X572639Y189785D01*
X573500Y189672D01*
X574126Y189754D01*
X574626Y189404D01*
Y186591D01*
X582957D01*
Y197283D01*
X582063D01*
Y201512D01*
Y206591D01*
X582642D01*
Y217283D01*
X574311D01*
Y214464D01*
X573446Y214292D01*
X572619Y213739D01*
X572515Y213636D01*
X571926Y213753D01*
X571788Y214086D01*
X571259Y214775D01*
X570570Y215304D01*
X569767Y215636D01*
X568905Y215750D01*
X568044Y215636D01*
X567241Y215304D01*
X566552Y214775D01*
X566023Y214086D01*
X565690Y213283D01*
X565631Y212832D01*
X564162Y211364D01*
X561035D01*
X560282Y211264D01*
X559580Y210974D01*
X558977Y210511D01*
X558515Y209908D01*
X558224Y209206D01*
X558125Y208453D01*
X558224Y207699D01*
X558442Y207173D01*
X558224Y206647D01*
X558125Y205894D01*
X558224Y205140D01*
X558442Y204614D01*
X558224Y204088D01*
X558125Y203335D01*
X558224Y202581D01*
X558442Y202055D01*
X558224Y201529D01*
X558125Y200776D01*
X558224Y200022D01*
X558442Y199496D01*
X558224Y198970D01*
X558125Y198216D01*
X558224Y197463D01*
X558442Y196937D01*
X558224Y196411D01*
X558125Y195658D01*
X558224Y194904D01*
X558442Y194378D01*
X558224Y193852D01*
X558125Y193098D01*
X558224Y192345D01*
X558442Y191819D01*
X558224Y191293D01*
X558125Y190539D01*
X558224Y189786D01*
X558442Y189260D01*
X558224Y188734D01*
X558125Y187980D01*
X558224Y187227D01*
X558442Y186701D01*
X558224Y186175D01*
X558125Y185421D01*
X558224Y184668D01*
X558515Y183966D01*
X558977Y183363D01*
X559580Y182901D01*
X560081Y182693D01*
X559982Y182193D01*
X553622D01*
Y180970D01*
X546056D01*
X543630Y183396D01*
X544068Y183966D01*
X544359Y184668D01*
X544458Y185421D01*
X544359Y186175D01*
X544141Y186701D01*
X544359Y187227D01*
X544458Y187980D01*
X544359Y188734D01*
X544141Y189260D01*
X544359Y189786D01*
X544458Y190539D01*
X544359Y191293D01*
X544141Y191819D01*
X544359Y192345D01*
X544458Y193098D01*
X544359Y193852D01*
X544141Y194378D01*
X544359Y194904D01*
X544458Y195658D01*
X544359Y196411D01*
X544141Y196937D01*
X544359Y197463D01*
X544458Y198216D01*
X544359Y198970D01*
X544141Y199496D01*
X544359Y200022D01*
X544458Y200776D01*
X544359Y201529D01*
X544141Y202055D01*
X544359Y202581D01*
X544458Y203335D01*
X544359Y204088D01*
X544141Y204614D01*
X544359Y205140D01*
X544458Y205894D01*
X544359Y206647D01*
X544141Y207173D01*
X544359Y207699D01*
X544458Y208453D01*
X544359Y209206D01*
X544068Y209908D01*
X543605Y210511D01*
X543003Y210974D01*
X542301Y211264D01*
X541547Y211364D01*
X537807D01*
X537054Y211264D01*
X536597Y211075D01*
X536382Y211164D01*
X535854Y211854D01*
X535164Y212383D01*
X534362Y212715D01*
X533500Y212828D01*
X532639Y212715D01*
X531836Y212383D01*
X531174Y211875D01*
X531164Y211882D01*
X530362Y212215D01*
X529500Y212329D01*
X528639Y212215D01*
X527836Y211882D01*
X527563Y211673D01*
X527063D01*
X527063Y211673D01*
X527063Y211673D01*
X525840D01*
Y216512D01*
X527063D01*
Y222417D01*
Y223795D01*
X523291D01*
Y225795D01*
X521291D01*
Y229173D01*
X521049D01*
Y233807D01*
X520855Y234783D01*
X520302Y235610D01*
X518532Y237380D01*
Y244331D01*
D02*
G37*
G36*
X337272Y217283D02*
X328941D01*
Y206591D01*
X329786D01*
X330116Y206215D01*
X330077Y205921D01*
X330190Y205060D01*
X330523Y204257D01*
X330856Y203822D01*
Y197283D01*
X329256D01*
Y186591D01*
X337587D01*
Y197283D01*
X335954D01*
Y203822D01*
X336288Y204257D01*
X336621Y205060D01*
X336734Y205921D01*
X336695Y206215D01*
X337025Y206591D01*
X337272D01*
Y217283D01*
D02*
G37*
G36*
X390531Y244331D02*
X372500D01*
Y237528D01*
Y230724D01*
X387951D01*
Y224803D01*
X357476D01*
Y211197D01*
X371598D01*
X371966Y210829D01*
Y207240D01*
X365102D01*
Y185929D01*
X365102Y185429D01*
X365102Y185260D01*
Y182871D01*
X365006Y182746D01*
X364603Y181773D01*
X364465Y180728D01*
X364603Y179684D01*
X365006Y178711D01*
X365102Y178586D01*
Y176028D01*
X374465D01*
Y172169D01*
X374465Y172169D01*
X374603Y171125D01*
X375006Y170152D01*
X375647Y169316D01*
X388350Y156613D01*
X388211Y156113D01*
X374287D01*
Y157337D01*
X363713D01*
Y146821D01*
X374287D01*
Y148044D01*
X391992D01*
X391992Y148044D01*
X393036Y148182D01*
X393940Y148556D01*
X395291Y148423D01*
X396648Y148557D01*
X397953Y148953D01*
X399155Y149595D01*
X400209Y150460D01*
X401074Y151514D01*
X401717Y152717D01*
X402112Y154021D01*
X402246Y155378D01*
X402112Y156735D01*
X401717Y158039D01*
X401074Y159242D01*
X400209Y160296D01*
X399155Y161161D01*
X397953Y161803D01*
X396648Y162199D01*
X395291Y162333D01*
X394154Y162221D01*
X382535Y173840D01*
Y176028D01*
X386898D01*
Y176891D01*
X387398Y177251D01*
X388000Y177172D01*
X388861Y177285D01*
X389664Y177618D01*
X390354Y178146D01*
X390882Y178836D01*
X391215Y179639D01*
X391329Y180500D01*
X391215Y181361D01*
X390882Y182164D01*
X390354Y182854D01*
X389664Y183382D01*
X388861Y183715D01*
X388000Y183828D01*
X387398Y183749D01*
X386898Y184109D01*
X386898Y185760D01*
X386898Y185929D01*
Y189891D01*
X387398Y190251D01*
X388000Y190172D01*
X388861Y190285D01*
X389664Y190618D01*
X390354Y191146D01*
X390882Y191836D01*
X391215Y192639D01*
X391329Y193500D01*
X391215Y194361D01*
X390882Y195164D01*
X390354Y195854D01*
X389664Y196382D01*
X388861Y196715D01*
X388000Y196828D01*
X387398Y196749D01*
X386898Y197109D01*
Y203266D01*
X387360Y203457D01*
X390229Y200587D01*
X391056Y200035D01*
X391520Y199943D01*
Y199012D01*
X391945D01*
Y191992D01*
X400087D01*
X400323Y191551D01*
X400133Y191268D01*
X400015Y190675D01*
X399291Y189951D01*
Y185528D01*
Y181362D01*
X402638D01*
Y186088D01*
X403189Y186639D01*
X403836Y186143D01*
X403968Y186088D01*
X403951Y186000D01*
Y179362D01*
X404145Y178387D01*
X404698Y177560D01*
X414669Y167588D01*
Y163650D01*
Y158150D01*
X421953D01*
Y161921D01*
X425622D01*
Y158150D01*
X425622D01*
Y158150D01*
X431463D01*
X431767Y157650D01*
X431671Y156921D01*
X431785Y156060D01*
X432118Y155257D01*
X432646Y154568D01*
X433336Y154039D01*
X434138Y153706D01*
X435000Y153593D01*
X435861Y153706D01*
X436664Y154039D01*
X437354Y154568D01*
X437883Y155257D01*
X438215Y156060D01*
X438329Y156921D01*
X438233Y157650D01*
X438283Y158150D01*
X438283Y158150D01*
X438283Y158150D01*
Y163650D01*
Y165693D01*
X434905D01*
Y169149D01*
X438283D01*
Y169150D01*
Y170372D01*
X440712D01*
X441044Y170117D01*
X441847Y169785D01*
X442709Y169671D01*
X443570Y169785D01*
X444373Y170117D01*
X445062Y170646D01*
X445591Y171336D01*
X445924Y172139D01*
X446037Y173000D01*
X445924Y173862D01*
X445591Y174664D01*
X445258Y175099D01*
Y184713D01*
X445064Y185688D01*
X444511Y186515D01*
X441243Y189783D01*
X441109Y189872D01*
X441261Y190372D01*
X443504D01*
X443836Y190118D01*
X444638Y189785D01*
X445500Y189672D01*
X446126Y189754D01*
X446626Y189404D01*
Y186591D01*
X454957D01*
Y197283D01*
X454063D01*
Y201512D01*
Y206591D01*
X454642D01*
Y217283D01*
X446311D01*
Y214464D01*
X445446Y214292D01*
X444619Y213739D01*
X444515Y213636D01*
X443926Y213753D01*
X443788Y214086D01*
X443259Y214775D01*
X442570Y215304D01*
X441767Y215636D01*
X440906Y215750D01*
X440044Y215636D01*
X439241Y215304D01*
X438552Y214775D01*
X438023Y214086D01*
X437690Y213283D01*
X437631Y212832D01*
X436162Y211364D01*
X433035D01*
X432282Y211264D01*
X431580Y210974D01*
X430977Y210511D01*
X430515Y209908D01*
X430224Y209206D01*
X430125Y208453D01*
X430224Y207699D01*
X430442Y207173D01*
X430224Y206647D01*
X430125Y205894D01*
X430224Y205140D01*
X430442Y204614D01*
X430224Y204088D01*
X430125Y203335D01*
X430224Y202581D01*
X430442Y202055D01*
X430224Y201529D01*
X430125Y200776D01*
X430224Y200022D01*
X430442Y199496D01*
X430224Y198970D01*
X430125Y198216D01*
X430224Y197463D01*
X430442Y196937D01*
X430224Y196411D01*
X430125Y195658D01*
X430224Y194904D01*
X430442Y194378D01*
X430224Y193852D01*
X430125Y193098D01*
X430224Y192345D01*
X430442Y191819D01*
X430224Y191293D01*
X430125Y190539D01*
X430224Y189786D01*
X430442Y189260D01*
X430224Y188734D01*
X430125Y187980D01*
X430224Y187227D01*
X430442Y186701D01*
X430224Y186175D01*
X430125Y185421D01*
X430224Y184668D01*
X430515Y183966D01*
X430977Y183363D01*
X431580Y182901D01*
X432081Y182693D01*
X431982Y182193D01*
X425622D01*
Y180970D01*
X418056D01*
X415630Y183396D01*
X416068Y183966D01*
X416359Y184668D01*
X416458Y185421D01*
X416359Y186175D01*
X416141Y186701D01*
X416359Y187227D01*
X416458Y187980D01*
X416359Y188734D01*
X416141Y189260D01*
X416359Y189786D01*
X416458Y190539D01*
X416359Y191293D01*
X416141Y191819D01*
X416359Y192345D01*
X416458Y193098D01*
X416359Y193852D01*
X416141Y194378D01*
X416359Y194904D01*
X416458Y195658D01*
X416359Y196411D01*
X416141Y196937D01*
X416359Y197463D01*
X416458Y198216D01*
X416359Y198970D01*
X416141Y199496D01*
X416359Y200022D01*
X416458Y200776D01*
X416359Y201529D01*
X416141Y202055D01*
X416359Y202581D01*
X416458Y203335D01*
X416359Y204088D01*
X416141Y204614D01*
X416359Y205140D01*
X416458Y205894D01*
X416359Y206647D01*
X416141Y207173D01*
X416359Y207699D01*
X416458Y208453D01*
X416359Y209206D01*
X416068Y209908D01*
X415605Y210511D01*
X415003Y210974D01*
X414301Y211264D01*
X413547Y211364D01*
X409807D01*
X409054Y211264D01*
X408597Y211075D01*
X408383Y211164D01*
X407854Y211854D01*
X407164Y212383D01*
X406361Y212715D01*
X405500Y212828D01*
X404638Y212715D01*
X403836Y212383D01*
X403174Y211875D01*
X403164Y211882D01*
X402361Y212215D01*
X401500Y212329D01*
X400638Y212215D01*
X399836Y211882D01*
X399563Y211673D01*
X399063D01*
X399063Y211673D01*
X399063Y211673D01*
X397840D01*
Y216512D01*
X399063D01*
Y222417D01*
Y223795D01*
X395291D01*
Y225795D01*
X393291D01*
Y229173D01*
X393049D01*
Y233807D01*
X392855Y234783D01*
X392302Y235610D01*
X390531Y237380D01*
Y244331D01*
D02*
G37*
G36*
X730000Y280000D02*
X727047D01*
Y277047D01*
X730000D01*
Y280000D01*
D02*
G37*
G36*
X605287Y428179D02*
X594713D01*
Y426956D01*
X577008D01*
X575964Y426818D01*
X575060Y426444D01*
X573709Y426577D01*
X572352Y426443D01*
X571047Y426047D01*
X569845Y425405D01*
X568791Y424540D01*
X567926Y423486D01*
X567283Y422284D01*
X566888Y420979D01*
X566754Y419622D01*
X566888Y418265D01*
X567283Y416961D01*
X567926Y415758D01*
X568791Y414704D01*
X569845Y413839D01*
X571047Y413197D01*
X572352Y412801D01*
X573709Y412667D01*
X574846Y412779D01*
X586466Y401160D01*
Y398972D01*
X582102D01*
Y398109D01*
X581602Y397749D01*
X581000Y397829D01*
X580138Y397715D01*
X579336Y397382D01*
X578646Y396854D01*
X578118Y396164D01*
X577785Y395361D01*
X577671Y394500D01*
X577785Y393638D01*
X578118Y392836D01*
X578646Y392146D01*
X579336Y391617D01*
X580138Y391285D01*
X581000Y391172D01*
X581602Y391251D01*
X582102Y390891D01*
X582102Y389240D01*
X582102Y389071D01*
Y385109D01*
X581602Y384749D01*
X581000Y384828D01*
X580138Y384715D01*
X579336Y384383D01*
X578646Y383854D01*
X578118Y383164D01*
X577785Y382362D01*
X577671Y381500D01*
X577785Y380639D01*
X578118Y379836D01*
X578646Y379146D01*
X579336Y378618D01*
X580138Y378285D01*
X581000Y378171D01*
X581602Y378251D01*
X582102Y377891D01*
Y371734D01*
X581640Y371543D01*
X578771Y374413D01*
X577944Y374965D01*
X577480Y375057D01*
Y375988D01*
X577055D01*
Y383008D01*
X568913D01*
X568677Y383449D01*
X568867Y383733D01*
X568985Y384325D01*
X569709Y385049D01*
Y389472D01*
Y393638D01*
X566362D01*
Y388912D01*
X565811Y388361D01*
X565164Y388857D01*
X565031Y388912D01*
X565049Y389000D01*
Y395638D01*
X564855Y396613D01*
X564302Y397440D01*
X554331Y407412D01*
Y409307D01*
Y416850D01*
X547047D01*
Y413079D01*
X543378D01*
Y416850D01*
X543378D01*
Y416850D01*
X537537D01*
X537233Y417350D01*
X537328Y418079D01*
X537215Y418940D01*
X536882Y419743D01*
X536354Y420432D01*
X535664Y420961D01*
X534862Y421294D01*
X534000Y421407D01*
X533139Y421294D01*
X532336Y420961D01*
X531646Y420432D01*
X531117Y419743D01*
X530785Y418940D01*
X530672Y418079D01*
X530767Y417350D01*
X530717Y416850D01*
X530717Y416850D01*
X530717Y416850D01*
Y409307D01*
Y409307D01*
X534094D01*
Y405851D01*
X530717D01*
Y404628D01*
X528288D01*
X527956Y404882D01*
X527153Y405215D01*
X526291Y405329D01*
X525430Y405215D01*
X524627Y404882D01*
X523938Y404354D01*
X523409Y403664D01*
X523076Y402861D01*
X522963Y402000D01*
X523076Y401138D01*
X523409Y400336D01*
X523742Y399901D01*
Y390287D01*
X523936Y389312D01*
X524489Y388485D01*
X527757Y385217D01*
X527891Y385128D01*
X527739Y384628D01*
X525996D01*
X525664Y384882D01*
X524861Y385215D01*
X524000Y385329D01*
X523139Y385215D01*
X522790Y385071D01*
X522374Y385348D01*
Y388409D01*
X514043D01*
Y377717D01*
X514937D01*
Y372638D01*
Y368409D01*
X514358D01*
Y357717D01*
X522689D01*
Y360536D01*
X523554Y360708D01*
X524381Y361261D01*
X524485Y361364D01*
X525074Y361247D01*
X525212Y360914D01*
X525741Y360225D01*
X526430Y359696D01*
X527233Y359364D01*
X528094Y359250D01*
X528956Y359364D01*
X529759Y359696D01*
X530448Y360225D01*
X530977Y360914D01*
X531310Y361717D01*
X531369Y362168D01*
X532838Y363636D01*
X535965D01*
X536718Y363736D01*
X537420Y364026D01*
X538023Y364489D01*
X538485Y365092D01*
X538776Y365794D01*
X538875Y366547D01*
X538776Y367301D01*
X538558Y367827D01*
X538776Y368353D01*
X538875Y369106D01*
X538776Y369860D01*
X538558Y370386D01*
X538776Y370912D01*
X538875Y371665D01*
X538776Y372419D01*
X538558Y372945D01*
X538776Y373471D01*
X538875Y374224D01*
X538776Y374978D01*
X538558Y375504D01*
X538776Y376030D01*
X538875Y376783D01*
X538776Y377537D01*
X538558Y378063D01*
X538776Y378589D01*
X538875Y379343D01*
X538776Y380096D01*
X538558Y380622D01*
X538776Y381148D01*
X538875Y381902D01*
X538776Y382655D01*
X538558Y383181D01*
X538776Y383707D01*
X538875Y384461D01*
X538776Y385214D01*
X538558Y385740D01*
X538776Y386266D01*
X538875Y387020D01*
X538776Y387773D01*
X538558Y388299D01*
X538776Y388825D01*
X538875Y389579D01*
X538776Y390332D01*
X538485Y391034D01*
X538023Y391637D01*
X537420Y392099D01*
X536919Y392307D01*
X537018Y392807D01*
X543378D01*
Y394030D01*
X550944D01*
X553370Y391604D01*
X552932Y391034D01*
X552641Y390332D01*
X552542Y389579D01*
X552641Y388825D01*
X552859Y388299D01*
X552641Y387773D01*
X552542Y387020D01*
X552641Y386266D01*
X552859Y385740D01*
X552641Y385214D01*
X552542Y384461D01*
X552641Y383707D01*
X552859Y383181D01*
X552641Y382655D01*
X552542Y381902D01*
X552641Y381148D01*
X552859Y380622D01*
X552641Y380096D01*
X552542Y379343D01*
X552641Y378589D01*
X552859Y378063D01*
X552641Y377537D01*
X552542Y376783D01*
X552641Y376030D01*
X552859Y375504D01*
X552641Y374978D01*
X552542Y374224D01*
X552641Y373471D01*
X552859Y372945D01*
X552641Y372419D01*
X552542Y371665D01*
X552641Y370912D01*
X552859Y370386D01*
X552641Y369860D01*
X552542Y369106D01*
X552641Y368353D01*
X552859Y367827D01*
X552641Y367301D01*
X552542Y366547D01*
X552641Y365794D01*
X552932Y365092D01*
X553395Y364489D01*
X553997Y364026D01*
X554699Y363736D01*
X555453Y363636D01*
X559193D01*
X559946Y363736D01*
X560403Y363925D01*
X560617Y363836D01*
X561146Y363146D01*
X561836Y362617D01*
X562639Y362285D01*
X563500Y362172D01*
X564361Y362285D01*
X565164Y362617D01*
X565826Y363125D01*
X565836Y363118D01*
X566639Y362785D01*
X567500Y362671D01*
X568362Y362785D01*
X569164Y363118D01*
X569437Y363327D01*
X569937D01*
X569937Y363327D01*
X569937Y363327D01*
X571160D01*
Y358488D01*
X569937D01*
Y351732D01*
Y351205D01*
X573709D01*
Y349205D01*
X575709D01*
Y345827D01*
X575951D01*
Y341193D01*
X576145Y340217D01*
X576698Y339390D01*
X578469Y337620D01*
Y330669D01*
X596500D01*
Y337472D01*
Y344276D01*
X581049D01*
Y350197D01*
X611524D01*
Y363803D01*
X597402D01*
X597035Y364171D01*
Y367760D01*
X603898D01*
Y389071D01*
X603898Y389571D01*
X603898Y389740D01*
Y392129D01*
X603994Y392254D01*
X604397Y393227D01*
X604534Y394272D01*
X604397Y395316D01*
X603994Y396289D01*
X603898Y396414D01*
Y398972D01*
X594534D01*
Y402831D01*
X594534Y402831D01*
X594397Y403875D01*
X593994Y404848D01*
X593353Y405684D01*
X593353Y405684D01*
X580650Y418387D01*
X580789Y418887D01*
X594713D01*
Y417663D01*
X605287D01*
Y428179D01*
D02*
G37*
G36*
X733287D02*
X722713D01*
Y426956D01*
X705008D01*
X703964Y426818D01*
X703059Y426444D01*
X701709Y426577D01*
X700352Y426443D01*
X699047Y426047D01*
X697845Y425405D01*
X696791Y424540D01*
X695926Y423486D01*
X695283Y422284D01*
X694888Y420979D01*
X694754Y419622D01*
X694888Y418265D01*
X695283Y416961D01*
X695926Y415758D01*
X696791Y414704D01*
X697845Y413839D01*
X699047Y413197D01*
X700352Y412801D01*
X701709Y412667D01*
X702846Y412779D01*
X714466Y401160D01*
Y398972D01*
X710102D01*
Y398109D01*
X709602Y397749D01*
X709000Y397829D01*
X708139Y397715D01*
X707336Y397382D01*
X706646Y396854D01*
X706117Y396164D01*
X705785Y395361D01*
X705672Y394500D01*
X705785Y393638D01*
X706117Y392836D01*
X706646Y392146D01*
X707336Y391617D01*
X708139Y391285D01*
X709000Y391172D01*
X709602Y391251D01*
X710102Y390891D01*
X710102Y389240D01*
X710102Y389071D01*
Y385109D01*
X709602Y384749D01*
X709000Y384828D01*
X708139Y384715D01*
X707336Y384383D01*
X706646Y383854D01*
X706117Y383164D01*
X705785Y382362D01*
X705672Y381500D01*
X705785Y380639D01*
X706117Y379836D01*
X706646Y379146D01*
X707336Y378618D01*
X708139Y378285D01*
X709000Y378171D01*
X709602Y378251D01*
X710102Y377891D01*
Y371734D01*
X709640Y371543D01*
X706771Y374413D01*
X705944Y374965D01*
X705480Y375057D01*
Y375988D01*
X705055D01*
Y383008D01*
X696913D01*
X696677Y383449D01*
X696867Y383733D01*
X696984Y384325D01*
X697709Y385049D01*
Y389472D01*
Y393638D01*
X694362D01*
Y388912D01*
X693811Y388361D01*
X693164Y388857D01*
X693032Y388912D01*
X693049Y389000D01*
Y395638D01*
X692855Y396613D01*
X692302Y397440D01*
X682331Y407412D01*
Y409307D01*
Y416850D01*
X675047D01*
Y413079D01*
X671378D01*
Y416850D01*
X671378D01*
Y416850D01*
X665537D01*
X665233Y417350D01*
X665329Y418079D01*
X665215Y418940D01*
X664883Y419743D01*
X664354Y420432D01*
X663664Y420961D01*
X662861Y421294D01*
X662000Y421407D01*
X661138Y421294D01*
X660336Y420961D01*
X659646Y420432D01*
X659118Y419743D01*
X658785Y418940D01*
X658672Y418079D01*
X658767Y417350D01*
X658716Y416850D01*
X658716Y416850D01*
X658716Y416850D01*
Y409307D01*
Y409307D01*
X662094D01*
Y405851D01*
X658716D01*
Y404628D01*
X656288D01*
X655956Y404882D01*
X655153Y405215D01*
X654291Y405329D01*
X653430Y405215D01*
X652627Y404882D01*
X651938Y404354D01*
X651409Y403664D01*
X651076Y402861D01*
X650963Y402000D01*
X651076Y401138D01*
X651409Y400336D01*
X651742Y399901D01*
Y390287D01*
X651936Y389312D01*
X652489Y388485D01*
X655757Y385217D01*
X655891Y385128D01*
X655739Y384628D01*
X653496D01*
X653164Y384882D01*
X652361Y385215D01*
X651500Y385329D01*
X650874Y385246D01*
X650374Y385596D01*
Y388409D01*
X642043D01*
Y377717D01*
X642937D01*
Y372638D01*
Y368409D01*
X642358D01*
Y357717D01*
X650689D01*
Y360536D01*
X651554Y360708D01*
X652381Y361261D01*
X652485Y361364D01*
X653074Y361247D01*
X653212Y360914D01*
X653741Y360225D01*
X654430Y359696D01*
X655233Y359364D01*
X656095Y359250D01*
X656956Y359364D01*
X657759Y359696D01*
X658448Y360225D01*
X658977Y360914D01*
X659310Y361717D01*
X659369Y362168D01*
X660838Y363636D01*
X663965D01*
X664718Y363736D01*
X665420Y364026D01*
X666023Y364489D01*
X666485Y365092D01*
X666776Y365794D01*
X666875Y366547D01*
X666776Y367301D01*
X666558Y367827D01*
X666776Y368353D01*
X666875Y369106D01*
X666776Y369860D01*
X666558Y370386D01*
X666776Y370912D01*
X666875Y371665D01*
X666776Y372419D01*
X666558Y372945D01*
X666776Y373471D01*
X666875Y374224D01*
X666776Y374978D01*
X666558Y375504D01*
X666776Y376030D01*
X666875Y376783D01*
X666776Y377537D01*
X666558Y378063D01*
X666776Y378589D01*
X666875Y379343D01*
X666776Y380096D01*
X666558Y380622D01*
X666776Y381148D01*
X666875Y381902D01*
X666776Y382655D01*
X666558Y383181D01*
X666776Y383707D01*
X666875Y384461D01*
X666776Y385214D01*
X666558Y385740D01*
X666776Y386266D01*
X666875Y387020D01*
X666776Y387773D01*
X666558Y388299D01*
X666776Y388825D01*
X666875Y389579D01*
X666776Y390332D01*
X666485Y391034D01*
X666023Y391637D01*
X665420Y392099D01*
X664919Y392307D01*
X665018Y392807D01*
X671378D01*
Y394030D01*
X678944D01*
X681370Y391604D01*
X680932Y391034D01*
X680641Y390332D01*
X680542Y389579D01*
X680641Y388825D01*
X680859Y388299D01*
X680641Y387773D01*
X680542Y387020D01*
X680641Y386266D01*
X680859Y385740D01*
X680641Y385214D01*
X680542Y384461D01*
X680641Y383707D01*
X680859Y383181D01*
X680641Y382655D01*
X680542Y381902D01*
X680641Y381148D01*
X680859Y380622D01*
X680641Y380096D01*
X680542Y379343D01*
X680641Y378589D01*
X680859Y378063D01*
X680641Y377537D01*
X680542Y376783D01*
X680641Y376030D01*
X680859Y375504D01*
X680641Y374978D01*
X680542Y374224D01*
X680641Y373471D01*
X680859Y372945D01*
X680641Y372419D01*
X680542Y371665D01*
X680641Y370912D01*
X680859Y370386D01*
X680641Y369860D01*
X680542Y369106D01*
X680641Y368353D01*
X680859Y367827D01*
X680641Y367301D01*
X680542Y366547D01*
X680641Y365794D01*
X680932Y365092D01*
X681395Y364489D01*
X681997Y364026D01*
X682699Y363736D01*
X683453Y363636D01*
X687193D01*
X687946Y363736D01*
X688403Y363925D01*
X688618Y363836D01*
X689146Y363146D01*
X689836Y362617D01*
X690638Y362285D01*
X691500Y362172D01*
X692361Y362285D01*
X693164Y362617D01*
X693826Y363125D01*
X693836Y363118D01*
X694638Y362785D01*
X695500Y362671D01*
X696361Y362785D01*
X697164Y363118D01*
X697437Y363327D01*
X697937D01*
X697937Y363327D01*
X697937Y363327D01*
X699160D01*
Y358488D01*
X697937D01*
Y351732D01*
Y351205D01*
X701709D01*
Y349205D01*
X703709D01*
Y345827D01*
X703951D01*
Y341193D01*
X704145Y340217D01*
X704698Y339390D01*
X706468Y337620D01*
Y330669D01*
X724500D01*
Y337472D01*
Y344276D01*
X709049D01*
Y350197D01*
X739524D01*
Y363803D01*
X725402D01*
X725035Y364171D01*
Y367760D01*
X731898D01*
Y389071D01*
X731898Y389571D01*
X731898Y389740D01*
Y392129D01*
X731994Y392254D01*
X732397Y393227D01*
X732535Y394272D01*
X732397Y395316D01*
X731994Y396289D01*
X731898Y396414D01*
Y398972D01*
X722535D01*
Y402831D01*
X722535Y402831D01*
X722397Y403875D01*
X721994Y404848D01*
X721353Y405684D01*
X721353Y405684D01*
X708650Y418387D01*
X708789Y418887D01*
X722713D01*
Y417663D01*
X733287D01*
Y428179D01*
D02*
G37*
G36*
X349287D02*
X338713D01*
Y426956D01*
X321008D01*
X319964Y426818D01*
X319059Y426444D01*
X317709Y426577D01*
X316352Y426443D01*
X315047Y426047D01*
X313845Y425405D01*
X312791Y424540D01*
X311926Y423486D01*
X311283Y422284D01*
X310888Y420979D01*
X310754Y419622D01*
X310888Y418265D01*
X311283Y416961D01*
X311926Y415758D01*
X312791Y414704D01*
X313845Y413839D01*
X315047Y413197D01*
X316352Y412801D01*
X317709Y412667D01*
X318846Y412779D01*
X330466Y401160D01*
Y398972D01*
X326102D01*
Y398109D01*
X325602Y397749D01*
X325000Y397829D01*
X324138Y397715D01*
X323336Y397382D01*
X322646Y396854D01*
X322117Y396164D01*
X321785Y395361D01*
X321672Y394500D01*
X321785Y393638D01*
X322117Y392836D01*
X322646Y392146D01*
X323336Y391617D01*
X324138Y391285D01*
X325000Y391172D01*
X325602Y391251D01*
X326102Y390891D01*
X326102Y389240D01*
X326102Y389071D01*
Y385109D01*
X325602Y384749D01*
X325000Y384828D01*
X324138Y384715D01*
X323336Y384383D01*
X322646Y383854D01*
X322117Y383164D01*
X321785Y382362D01*
X321672Y381500D01*
X321785Y380639D01*
X322117Y379836D01*
X322646Y379146D01*
X323336Y378618D01*
X324138Y378285D01*
X325000Y378171D01*
X325602Y378251D01*
X326102Y377891D01*
Y371734D01*
X325640Y371543D01*
X322771Y374413D01*
X321944Y374965D01*
X321480Y375057D01*
Y375988D01*
X321055D01*
Y383008D01*
X312913D01*
X312677Y383449D01*
X312867Y383733D01*
X312984Y384325D01*
X313709Y385049D01*
Y389472D01*
Y393638D01*
X310362D01*
Y388912D01*
X309811Y388361D01*
X309164Y388857D01*
X309032Y388912D01*
X309049Y389000D01*
Y395638D01*
X308855Y396613D01*
X308302Y397440D01*
X298331Y407412D01*
Y409307D01*
Y416850D01*
X291047D01*
Y413079D01*
X287378D01*
Y416850D01*
X287378D01*
Y416850D01*
X281537D01*
X281233Y417350D01*
X281329Y418079D01*
X281215Y418940D01*
X280883Y419743D01*
X280354Y420432D01*
X279664Y420961D01*
X278861Y421294D01*
X278000Y421407D01*
X277138Y421294D01*
X276336Y420961D01*
X275646Y420432D01*
X275117Y419743D01*
X274785Y418940D01*
X274672Y418079D01*
X274767Y417350D01*
X274716Y416850D01*
X274716Y416850D01*
X274716Y416850D01*
Y409307D01*
Y409307D01*
X278095D01*
Y405851D01*
X274716D01*
Y404628D01*
X272288D01*
X271956Y404882D01*
X271153Y405215D01*
X270291Y405329D01*
X269430Y405215D01*
X268627Y404882D01*
X267938Y404354D01*
X267409Y403664D01*
X267076Y402861D01*
X266963Y402000D01*
X267076Y401138D01*
X267409Y400336D01*
X267742Y399901D01*
Y390287D01*
X267936Y389312D01*
X268489Y388485D01*
X271757Y385217D01*
X271891Y385128D01*
X271739Y384628D01*
X269496D01*
X269164Y384882D01*
X268361Y385215D01*
X267500Y385329D01*
X266874Y385246D01*
X266374Y385596D01*
Y388409D01*
X258043D01*
Y377717D01*
X258937D01*
Y372638D01*
Y368409D01*
X258358D01*
Y357717D01*
X266689D01*
Y360536D01*
X267554Y360708D01*
X268381Y361261D01*
X268485Y361364D01*
X269074Y361247D01*
X269212Y360914D01*
X269741Y360225D01*
X270430Y359696D01*
X271233Y359364D01*
X272094Y359250D01*
X272956Y359364D01*
X273759Y359696D01*
X274448Y360225D01*
X274977Y360914D01*
X275310Y361717D01*
X275369Y362168D01*
X276838Y363636D01*
X279965D01*
X280718Y363736D01*
X281420Y364026D01*
X282023Y364489D01*
X282485Y365092D01*
X282776Y365794D01*
X282875Y366547D01*
X282776Y367301D01*
X282558Y367827D01*
X282776Y368353D01*
X282875Y369106D01*
X282776Y369860D01*
X282558Y370386D01*
X282776Y370912D01*
X282875Y371665D01*
X282776Y372419D01*
X282558Y372945D01*
X282776Y373471D01*
X282875Y374224D01*
X282776Y374978D01*
X282558Y375504D01*
X282776Y376030D01*
X282875Y376783D01*
X282776Y377537D01*
X282558Y378063D01*
X282776Y378589D01*
X282875Y379343D01*
X282776Y380096D01*
X282558Y380622D01*
X282776Y381148D01*
X282875Y381902D01*
X282776Y382655D01*
X282558Y383181D01*
X282776Y383707D01*
X282875Y384461D01*
X282776Y385214D01*
X282558Y385740D01*
X282776Y386266D01*
X282875Y387020D01*
X282776Y387773D01*
X282558Y388299D01*
X282776Y388825D01*
X282875Y389579D01*
X282776Y390332D01*
X282485Y391034D01*
X282023Y391637D01*
X281420Y392099D01*
X280919Y392307D01*
X281018Y392807D01*
X287378D01*
Y394030D01*
X294944D01*
X297370Y391604D01*
X296932Y391034D01*
X296641Y390332D01*
X296542Y389579D01*
X296641Y388825D01*
X296859Y388299D01*
X296641Y387773D01*
X296542Y387020D01*
X296641Y386266D01*
X296859Y385740D01*
X296641Y385214D01*
X296542Y384461D01*
X296641Y383707D01*
X296859Y383181D01*
X296641Y382655D01*
X296542Y381902D01*
X296641Y381148D01*
X296859Y380622D01*
X296641Y380096D01*
X296542Y379343D01*
X296641Y378589D01*
X296859Y378063D01*
X296641Y377537D01*
X296542Y376783D01*
X296641Y376030D01*
X296859Y375504D01*
X296641Y374978D01*
X296542Y374224D01*
X296641Y373471D01*
X296859Y372945D01*
X296641Y372419D01*
X296542Y371665D01*
X296641Y370912D01*
X296859Y370386D01*
X296641Y369860D01*
X296542Y369106D01*
X296641Y368353D01*
X296859Y367827D01*
X296641Y367301D01*
X296542Y366547D01*
X296641Y365794D01*
X296932Y365092D01*
X297395Y364489D01*
X297997Y364026D01*
X298699Y363736D01*
X299453Y363636D01*
X303193D01*
X303946Y363736D01*
X304403Y363925D01*
X304618Y363836D01*
X305146Y363146D01*
X305836Y362617D01*
X306639Y362285D01*
X307500Y362172D01*
X308362Y362285D01*
X309164Y362617D01*
X309826Y363125D01*
X309836Y363118D01*
X310638Y362785D01*
X311500Y362671D01*
X312362Y362785D01*
X313164Y363118D01*
X313437Y363327D01*
X313937D01*
X313937Y363327D01*
X313937Y363327D01*
X315160D01*
Y358488D01*
X313937D01*
Y351732D01*
Y351205D01*
X317709D01*
Y349205D01*
X319709D01*
Y345827D01*
X319951D01*
Y341193D01*
X320145Y340217D01*
X320698Y339390D01*
X322468Y337620D01*
Y330669D01*
X340500D01*
Y337472D01*
Y344276D01*
X325049D01*
Y350197D01*
X355524D01*
Y363803D01*
X341403D01*
X341035Y364171D01*
Y367760D01*
X347898D01*
Y389071D01*
X347898Y389571D01*
X347898Y389740D01*
Y392129D01*
X347994Y392254D01*
X348397Y393227D01*
X348534Y394272D01*
X348397Y395316D01*
X347994Y396289D01*
X347898Y396414D01*
Y398972D01*
X338534D01*
Y402831D01*
X338534Y402831D01*
X338397Y403875D01*
X337994Y404848D01*
X337353Y405684D01*
X337353Y405684D01*
X324650Y418387D01*
X324789Y418887D01*
X338713D01*
Y417663D01*
X349287D01*
Y428179D01*
D02*
G37*
G36*
X477287D02*
X466713D01*
Y426956D01*
X449008D01*
X447964Y426818D01*
X447059Y426444D01*
X445709Y426577D01*
X444352Y426443D01*
X443047Y426047D01*
X441845Y425405D01*
X440791Y424540D01*
X439926Y423486D01*
X439283Y422284D01*
X438888Y420979D01*
X438754Y419622D01*
X438888Y418265D01*
X439283Y416961D01*
X439926Y415758D01*
X440791Y414704D01*
X441845Y413839D01*
X443047Y413197D01*
X444352Y412801D01*
X445709Y412667D01*
X446846Y412779D01*
X458465Y401160D01*
Y398972D01*
X454102D01*
Y398109D01*
X453602Y397749D01*
X453000Y397829D01*
X452139Y397715D01*
X451336Y397382D01*
X450646Y396854D01*
X450117Y396164D01*
X449785Y395361D01*
X449672Y394500D01*
X449785Y393638D01*
X450117Y392836D01*
X450646Y392146D01*
X451336Y391617D01*
X452139Y391285D01*
X453000Y391172D01*
X453602Y391251D01*
X454102Y390891D01*
X454102Y389240D01*
X454102Y389071D01*
Y385109D01*
X453602Y384749D01*
X453000Y384828D01*
X452139Y384715D01*
X451336Y384383D01*
X450646Y383854D01*
X450117Y383164D01*
X449785Y382362D01*
X449672Y381500D01*
X449785Y380639D01*
X450117Y379836D01*
X450646Y379146D01*
X451336Y378618D01*
X452139Y378285D01*
X453000Y378171D01*
X453602Y378251D01*
X454102Y377891D01*
Y371734D01*
X453640Y371543D01*
X450771Y374413D01*
X449944Y374965D01*
X449480Y375057D01*
Y375988D01*
X449055D01*
Y383008D01*
X440913D01*
X440677Y383449D01*
X440867Y383733D01*
X440984Y384325D01*
X441709Y385049D01*
Y389472D01*
Y393638D01*
X438362D01*
Y388912D01*
X437811Y388361D01*
X437164Y388857D01*
X437032Y388912D01*
X437049Y389000D01*
Y395638D01*
X436855Y396613D01*
X436302Y397440D01*
X426331Y407412D01*
Y409307D01*
Y416850D01*
X419047D01*
Y413079D01*
X415378D01*
Y416850D01*
X415378D01*
Y416850D01*
X409537D01*
X409233Y417350D01*
X409329Y418079D01*
X409215Y418940D01*
X408883Y419743D01*
X408354Y420432D01*
X407664Y420961D01*
X406861Y421294D01*
X406000Y421407D01*
X405138Y421294D01*
X404336Y420961D01*
X403646Y420432D01*
X403118Y419743D01*
X402785Y418940D01*
X402671Y418079D01*
X402767Y417350D01*
X402716Y416850D01*
X402716Y416850D01*
X402716Y416850D01*
Y409307D01*
Y409307D01*
X406095D01*
Y405851D01*
X402716D01*
Y404628D01*
X400288D01*
X399956Y404882D01*
X399153Y405215D01*
X398291Y405329D01*
X397430Y405215D01*
X396627Y404882D01*
X395938Y404354D01*
X395409Y403664D01*
X395076Y402861D01*
X394963Y402000D01*
X395076Y401138D01*
X395409Y400336D01*
X395742Y399901D01*
Y390287D01*
X395936Y389312D01*
X396489Y388485D01*
X399757Y385217D01*
X399891Y385128D01*
X399739Y384628D01*
X396996D01*
X396664Y384882D01*
X395862Y385215D01*
X395000Y385329D01*
X394750Y385296D01*
X394374Y385625D01*
Y388409D01*
X386043D01*
Y377717D01*
X386937D01*
Y372638D01*
Y368409D01*
X386358D01*
Y357717D01*
X394689D01*
Y360536D01*
X395554Y360708D01*
X396381Y361261D01*
X396485Y361364D01*
X397074Y361247D01*
X397212Y360914D01*
X397741Y360225D01*
X398430Y359696D01*
X399233Y359364D01*
X400095Y359250D01*
X400956Y359364D01*
X401759Y359696D01*
X402448Y360225D01*
X402977Y360914D01*
X403310Y361717D01*
X403369Y362168D01*
X404838Y363636D01*
X407965D01*
X408718Y363736D01*
X409420Y364026D01*
X410023Y364489D01*
X410485Y365092D01*
X410776Y365794D01*
X410875Y366547D01*
X410776Y367301D01*
X410558Y367827D01*
X410776Y368353D01*
X410875Y369106D01*
X410776Y369860D01*
X410558Y370386D01*
X410776Y370912D01*
X410875Y371665D01*
X410776Y372419D01*
X410558Y372945D01*
X410776Y373471D01*
X410875Y374224D01*
X410776Y374978D01*
X410558Y375504D01*
X410776Y376030D01*
X410875Y376783D01*
X410776Y377537D01*
X410558Y378063D01*
X410776Y378589D01*
X410875Y379343D01*
X410776Y380096D01*
X410558Y380622D01*
X410776Y381148D01*
X410875Y381902D01*
X410776Y382655D01*
X410558Y383181D01*
X410776Y383707D01*
X410875Y384461D01*
X410776Y385214D01*
X410558Y385740D01*
X410776Y386266D01*
X410875Y387020D01*
X410776Y387773D01*
X410558Y388299D01*
X410776Y388825D01*
X410875Y389579D01*
X410776Y390332D01*
X410485Y391034D01*
X410023Y391637D01*
X409420Y392099D01*
X408919Y392307D01*
X409018Y392807D01*
X415378D01*
Y394030D01*
X422944D01*
X425370Y391604D01*
X424932Y391034D01*
X424641Y390332D01*
X424542Y389579D01*
X424641Y388825D01*
X424859Y388299D01*
X424641Y387773D01*
X424542Y387020D01*
X424641Y386266D01*
X424859Y385740D01*
X424641Y385214D01*
X424542Y384461D01*
X424641Y383707D01*
X424859Y383181D01*
X424641Y382655D01*
X424542Y381902D01*
X424641Y381148D01*
X424859Y380622D01*
X424641Y380096D01*
X424542Y379343D01*
X424641Y378589D01*
X424859Y378063D01*
X424641Y377537D01*
X424542Y376783D01*
X424641Y376030D01*
X424859Y375504D01*
X424641Y374978D01*
X424542Y374224D01*
X424641Y373471D01*
X424859Y372945D01*
X424641Y372419D01*
X424542Y371665D01*
X424641Y370912D01*
X424859Y370386D01*
X424641Y369860D01*
X424542Y369106D01*
X424641Y368353D01*
X424859Y367827D01*
X424641Y367301D01*
X424542Y366547D01*
X424641Y365794D01*
X424932Y365092D01*
X425395Y364489D01*
X425997Y364026D01*
X426699Y363736D01*
X427453Y363636D01*
X431193D01*
X431946Y363736D01*
X432403Y363925D01*
X432618Y363836D01*
X433146Y363146D01*
X433836Y362617D01*
X434639Y362285D01*
X435500Y362172D01*
X436362Y362285D01*
X437164Y362617D01*
X437826Y363125D01*
X437836Y363118D01*
X438638Y362785D01*
X439500Y362671D01*
X440361Y362785D01*
X441164Y363118D01*
X441437Y363327D01*
X441937D01*
X441937Y363327D01*
X441937Y363327D01*
X443160D01*
Y358488D01*
X441937D01*
Y351732D01*
Y351205D01*
X445709D01*
Y349205D01*
X447709D01*
Y345827D01*
X447951D01*
Y341193D01*
X448145Y340217D01*
X448698Y339390D01*
X450468Y337620D01*
Y330669D01*
X468500D01*
Y337472D01*
Y344276D01*
X453049D01*
Y350197D01*
X483524D01*
Y363803D01*
X469403D01*
X469034Y364171D01*
Y367760D01*
X475898D01*
Y389071D01*
X475898Y389571D01*
X475898Y389740D01*
Y392129D01*
X475994Y392254D01*
X476397Y393227D01*
X476535Y394272D01*
X476397Y395316D01*
X475994Y396289D01*
X475898Y396414D01*
Y398972D01*
X466535D01*
Y402831D01*
X466535Y402831D01*
X466397Y403875D01*
X465994Y404848D01*
X465353Y405684D01*
X465353Y405684D01*
X452650Y418387D01*
X452789Y418887D01*
X466713D01*
Y417663D01*
X477287D01*
Y428179D01*
D02*
G37*
G36*
X705055Y393638D02*
X701709D01*
Y391472D01*
X705055D01*
Y393638D01*
D02*
G37*
G36*
X449055D02*
X445709D01*
Y391472D01*
X449055D01*
Y393638D01*
D02*
G37*
G36*
X321055D02*
X317709D01*
Y391472D01*
X321055D01*
Y393638D01*
D02*
G37*
G36*
X577055D02*
X573709D01*
Y391472D01*
X577055D01*
Y393638D01*
D02*
G37*
G36*
X304008Y458560D02*
X302561Y458369D01*
X301212Y457811D01*
X300054Y456922D01*
X299166Y455764D01*
X298607Y454416D01*
X298417Y452969D01*
X298607Y451521D01*
X299166Y450173D01*
X300054Y449015D01*
X301212Y448127D01*
X302561Y447568D01*
X304008Y447377D01*
X305455Y447568D01*
X306803Y448127D01*
X307961Y449015D01*
X308850Y450173D01*
X309408Y451521D01*
X309599Y452969D01*
X309408Y454416D01*
X308850Y455764D01*
X307961Y456922D01*
X306803Y457811D01*
X305455Y458369D01*
X304008Y458560D01*
D02*
G37*
G36*
X767500Y462037D02*
X765617Y461889D01*
X763780Y461448D01*
X762035Y460725D01*
X760425Y459738D01*
X758989Y458511D01*
X757762Y457075D01*
X756775Y455465D01*
X756052Y453720D01*
X755611Y451883D01*
X755463Y450000D01*
X755611Y448117D01*
X756052Y446280D01*
X756775Y444535D01*
X757762Y442925D01*
X758989Y441489D01*
X760425Y440262D01*
X762035Y439275D01*
X763780Y438552D01*
X765617Y438111D01*
X767500Y437963D01*
X769383Y438111D01*
X771220Y438552D01*
X772965Y439275D01*
X774575Y440262D01*
X776012Y441489D01*
X777238Y442925D01*
X778225Y444535D01*
X778948Y446280D01*
X779389Y448117D01*
X779537Y450000D01*
X779389Y451883D01*
X778948Y453720D01*
X778225Y455465D01*
X777238Y457075D01*
X776012Y458511D01*
X774575Y459738D01*
X772965Y460725D01*
X771220Y461448D01*
X769383Y461889D01*
X767500Y462037D01*
D02*
G37*
G36*
X688008Y458560D02*
X686561Y458369D01*
X685212Y457811D01*
X684054Y456922D01*
X683166Y455764D01*
X682607Y454416D01*
X682417Y452969D01*
X682607Y451521D01*
X683166Y450173D01*
X684054Y449015D01*
X685212Y448127D01*
X686561Y447568D01*
X688008Y447377D01*
X689455Y447568D01*
X690803Y448127D01*
X691961Y449015D01*
X692850Y450173D01*
X693408Y451521D01*
X693599Y452969D01*
X693408Y454416D01*
X692850Y455764D01*
X691961Y456922D01*
X690803Y457811D01*
X689455Y458369D01*
X688008Y458560D01*
D02*
G37*
G36*
X432008D02*
X430561Y458369D01*
X429212Y457811D01*
X428054Y456922D01*
X427166Y455764D01*
X426607Y454416D01*
X426417Y452969D01*
X426607Y451521D01*
X427166Y450173D01*
X428054Y449015D01*
X429212Y448127D01*
X430561Y447568D01*
X432008Y447377D01*
X433455Y447568D01*
X434803Y448127D01*
X435961Y449015D01*
X436850Y450173D01*
X437408Y451521D01*
X437599Y452969D01*
X437408Y454416D01*
X436850Y455764D01*
X435961Y456922D01*
X434803Y457811D01*
X433455Y458369D01*
X432008Y458560D01*
D02*
G37*
G36*
X560008D02*
X558561Y458369D01*
X557212Y457811D01*
X556054Y456922D01*
X555166Y455764D01*
X554607Y454416D01*
X554417Y452969D01*
X554607Y451521D01*
X555166Y450173D01*
X556054Y449015D01*
X557212Y448127D01*
X558561Y447568D01*
X560008Y447377D01*
X561455Y447568D01*
X562803Y448127D01*
X563961Y449015D01*
X564850Y450173D01*
X565409Y451521D01*
X565599Y452969D01*
X565409Y454416D01*
X564850Y455764D01*
X563961Y456922D01*
X562803Y457811D01*
X561455Y458369D01*
X560008Y458560D01*
D02*
G37*
G36*
X255000Y452037D02*
X253117Y451889D01*
X251280Y451448D01*
X249535Y450725D01*
X247925Y449738D01*
X246488Y448512D01*
X245262Y447075D01*
X244275Y445465D01*
X243552Y443720D01*
X243111Y441883D01*
X242963Y440000D01*
X243111Y438117D01*
X243552Y436280D01*
X244275Y434535D01*
X245262Y432925D01*
X246488Y431489D01*
X247925Y430262D01*
X249535Y429275D01*
X251280Y428552D01*
X253117Y428111D01*
X255000Y427963D01*
X256883Y428111D01*
X258720Y428552D01*
X260465Y429275D01*
X262075Y430262D01*
X263511Y431489D01*
X264738Y432925D01*
X265725Y434535D01*
X266448Y436280D01*
X266889Y438117D01*
X267037Y440000D01*
X266889Y441883D01*
X266448Y443720D01*
X265725Y445465D01*
X264738Y447075D01*
X263511Y448512D01*
X262075Y449738D01*
X260465Y450725D01*
X258720Y451448D01*
X256883Y451889D01*
X255000Y452037D01*
D02*
G37*
G36*
X573709Y449018D02*
X572352Y448884D01*
X571047Y448488D01*
X569845Y447846D01*
X568791Y446981D01*
X567926Y445927D01*
X567283Y444725D01*
X566888Y443420D01*
X566754Y442063D01*
X566888Y440706D01*
X567283Y439401D01*
X567926Y438199D01*
X568791Y437145D01*
X569845Y436280D01*
X571047Y435638D01*
X572352Y435242D01*
X573709Y435108D01*
X574846Y435220D01*
X574919Y435147D01*
X575754Y434506D01*
X576727Y434103D01*
X577772Y433965D01*
X577772Y433965D01*
X594713D01*
Y432742D01*
X605287D01*
Y443258D01*
X594713D01*
Y442034D01*
X580689D01*
X580663Y442063D01*
X580530Y443420D01*
X580134Y444725D01*
X579491Y445927D01*
X578626Y446981D01*
X577572Y447846D01*
X576370Y448488D01*
X575066Y448884D01*
X573709Y449018D01*
D02*
G37*
G36*
X701709D02*
X700352Y448884D01*
X699047Y448488D01*
X697845Y447846D01*
X696791Y446981D01*
X695926Y445927D01*
X695283Y444725D01*
X694888Y443420D01*
X694754Y442063D01*
X694888Y440706D01*
X695283Y439401D01*
X695926Y438199D01*
X696791Y437145D01*
X697845Y436280D01*
X699047Y435638D01*
X700352Y435242D01*
X701709Y435108D01*
X702846Y435220D01*
X702919Y435147D01*
X703754Y434506D01*
X704728Y434103D01*
X705772Y433965D01*
X705772Y433965D01*
X722713D01*
Y432742D01*
X733287D01*
Y443258D01*
X722713D01*
Y442034D01*
X708689D01*
X708663Y442063D01*
X708530Y443420D01*
X708134Y444725D01*
X707491Y445927D01*
X706626Y446981D01*
X705573Y447846D01*
X704370Y448488D01*
X703065Y448884D01*
X701709Y449018D01*
D02*
G37*
G36*
X317709D02*
X316352Y448884D01*
X315047Y448488D01*
X313845Y447846D01*
X312791Y446981D01*
X311926Y445927D01*
X311283Y444725D01*
X310888Y443420D01*
X310754Y442063D01*
X310888Y440706D01*
X311283Y439401D01*
X311926Y438199D01*
X312791Y437145D01*
X313845Y436280D01*
X315047Y435638D01*
X316352Y435242D01*
X317709Y435108D01*
X318846Y435220D01*
X318919Y435147D01*
X319754Y434506D01*
X320727Y434103D01*
X321772Y433965D01*
X321772Y433965D01*
X338713D01*
Y432742D01*
X349287D01*
Y443258D01*
X338713D01*
Y442034D01*
X324689D01*
X324663Y442063D01*
X324530Y443420D01*
X324134Y444725D01*
X323491Y445927D01*
X322626Y446981D01*
X321572Y447846D01*
X320370Y448488D01*
X319065Y448884D01*
X317709Y449018D01*
D02*
G37*
G36*
X445709D02*
X444352Y448884D01*
X443047Y448488D01*
X441845Y447846D01*
X440791Y446981D01*
X439926Y445927D01*
X439283Y444725D01*
X438888Y443420D01*
X438754Y442063D01*
X438888Y440706D01*
X439283Y439401D01*
X439926Y438199D01*
X440791Y437145D01*
X441845Y436280D01*
X443047Y435638D01*
X444352Y435242D01*
X445709Y435108D01*
X446846Y435220D01*
X446919Y435147D01*
X447754Y434506D01*
X448728Y434103D01*
X449772Y433965D01*
X449772Y433965D01*
X466713D01*
Y432742D01*
X477287D01*
Y443258D01*
X466713D01*
Y442034D01*
X452689D01*
X452663Y442063D01*
X452530Y443420D01*
X452134Y444725D01*
X451491Y445927D01*
X450626Y446981D01*
X449573Y447846D01*
X448370Y448488D01*
X447065Y448884D01*
X445709Y449018D01*
D02*
G37*
G36*
X611524Y344276D02*
X600500D01*
Y339472D01*
X611524D01*
Y344276D01*
D02*
G37*
G36*
X739524D02*
X728500D01*
Y339472D01*
X739524D01*
Y344276D01*
D02*
G37*
G36*
X355524D02*
X344500D01*
Y339472D01*
X355524D01*
Y344276D01*
D02*
G37*
G36*
X483524D02*
X472500D01*
Y339472D01*
X483524D01*
Y344276D01*
D02*
G37*
G36*
X571709Y347205D02*
X569937D01*
Y345827D01*
X571709D01*
Y347205D01*
D02*
G37*
G36*
X699709D02*
X697937D01*
Y345827D01*
X699709D01*
Y347205D01*
D02*
G37*
G36*
X315709D02*
X313937D01*
Y345827D01*
X315709D01*
Y347205D01*
D02*
G37*
G36*
X443709D02*
X441937D01*
Y345827D01*
X443709D01*
Y347205D01*
D02*
G37*
G36*
X732000Y296995D02*
X730707Y296825D01*
X729502Y296326D01*
X728468Y295532D01*
X727713Y294549D01*
X721331D01*
Y295772D01*
X708669D01*
Y288228D01*
X708669Y288228D01*
X708767Y287728D01*
X708672Y287000D01*
X708767Y286272D01*
X708669Y285772D01*
X708669D01*
Y278228D01*
X721331D01*
Y285772D01*
X721331Y285772D01*
X721233Y286272D01*
X721328Y287000D01*
X721233Y287728D01*
X721331Y288228D01*
X721331D01*
Y289451D01*
X727713D01*
X728468Y288468D01*
X729502Y287674D01*
X730036Y287453D01*
X729936Y286953D01*
X727047D01*
Y284000D01*
X732000D01*
X736953D01*
Y286953D01*
X734064D01*
X733964Y287453D01*
X734498Y287674D01*
X735532Y288468D01*
X736326Y289502D01*
X736825Y290707D01*
X736996Y292000D01*
X736825Y293293D01*
X736326Y294498D01*
X735532Y295532D01*
X734498Y296326D01*
X733293Y296825D01*
X732000Y296995D01*
D02*
G37*
G36*
X736953Y280000D02*
X734000D01*
Y277047D01*
X736953D01*
Y280000D01*
D02*
G37*
G36*
X767000Y315023D02*
X765759Y314900D01*
X764566Y314539D01*
X763466Y313951D01*
X762502Y313160D01*
X761711Y312196D01*
X761123Y311096D01*
X760761Y309903D01*
X760639Y308661D01*
X760761Y307420D01*
X761123Y306227D01*
X761369Y305767D01*
X761133Y305326D01*
X760175Y305232D01*
X758684Y304780D01*
X757311Y304046D01*
X756107Y303058D01*
X755119Y301854D01*
X754385Y300481D01*
X753933Y298991D01*
X753781Y297441D01*
X753933Y295891D01*
X754385Y294401D01*
X755119Y293028D01*
X756107Y291824D01*
X757311Y290836D01*
X758684Y290102D01*
X760175Y289650D01*
X761133Y289555D01*
X761369Y289114D01*
X761123Y288655D01*
X760761Y287461D01*
X760639Y286221D01*
X760761Y284979D01*
X761123Y283786D01*
X761711Y282686D01*
X762502Y281722D01*
X763466Y280931D01*
X764566Y280343D01*
X765759Y279981D01*
X767000Y279859D01*
X768241Y279981D01*
X769434Y280343D01*
X770534Y280931D01*
X771498Y281722D01*
X772289Y282686D01*
X772877Y283786D01*
X773239Y284979D01*
X773361Y286221D01*
X773239Y287461D01*
X772877Y288655D01*
X772289Y289755D01*
X771498Y290719D01*
X770534Y291510D01*
X769434Y292098D01*
X768456Y292394D01*
X768244Y292924D01*
X768329Y293028D01*
X769064Y294401D01*
X769516Y295891D01*
X769668Y297441D01*
X769516Y298991D01*
X769064Y300481D01*
X768329Y301854D01*
X768244Y301958D01*
X768456Y302488D01*
X769434Y302784D01*
X770534Y303372D01*
X771498Y304163D01*
X772289Y305127D01*
X772877Y306227D01*
X773239Y307420D01*
X773361Y308661D01*
X773239Y309903D01*
X772877Y311096D01*
X772289Y312196D01*
X771498Y313160D01*
X770534Y313951D01*
X769434Y314539D01*
X768241Y314900D01*
X767000Y315023D01*
D02*
G37*
G36*
X355524Y335472D02*
X344500D01*
Y330669D01*
X355524D01*
Y335472D01*
D02*
G37*
G36*
X739524D02*
X728500D01*
Y330669D01*
X739524D01*
Y335472D01*
D02*
G37*
G36*
X795331Y334000D02*
X793953D01*
Y332228D01*
X795331D01*
Y334000D01*
D02*
G37*
G36*
X483524Y335472D02*
X472500D01*
Y330669D01*
X483524D01*
Y335472D01*
D02*
G37*
G36*
X611524D02*
X600500D01*
Y330669D01*
X611524D01*
Y335472D01*
D02*
G37*
G36*
X321055Y387472D02*
X317709D01*
Y385307D01*
X321055D01*
Y387472D01*
D02*
G37*
G36*
X449055D02*
X445709D01*
Y385307D01*
X449055D01*
Y387472D01*
D02*
G37*
G36*
X577055D02*
X573709D01*
Y385307D01*
X577055D01*
Y387472D01*
D02*
G37*
G36*
X705055D02*
X701709D01*
Y385307D01*
X705055D01*
Y387472D01*
D02*
G37*
G36*
X511744Y388409D02*
X503413D01*
Y377717D01*
X505046D01*
Y371178D01*
X504712Y370743D01*
X504379Y369940D01*
X504266Y369079D01*
X504305Y368785D01*
X503975Y368409D01*
X503728D01*
Y357717D01*
X512059D01*
Y368409D01*
X511214D01*
X510884Y368785D01*
X510923Y369079D01*
X510810Y369940D01*
X510477Y370743D01*
X510144Y371178D01*
Y377717D01*
X511744D01*
Y388409D01*
D02*
G37*
G36*
X639744D02*
X631413D01*
Y377717D01*
X633045D01*
Y371178D01*
X632712Y370743D01*
X632379Y369940D01*
X632266Y369079D01*
X632305Y368785D01*
X631975Y368409D01*
X631728D01*
Y357717D01*
X640059D01*
Y368409D01*
X639214D01*
X638884Y368785D01*
X638923Y369079D01*
X638810Y369940D01*
X638477Y370743D01*
X638143Y371178D01*
Y377717D01*
X639744D01*
Y388409D01*
D02*
G37*
G36*
X383744D02*
X375413D01*
Y377717D01*
X377045D01*
Y371178D01*
X376712Y370743D01*
X376379Y369940D01*
X376266Y369079D01*
X376305Y368785D01*
X375975Y368409D01*
X375728D01*
Y357717D01*
X384059D01*
Y368409D01*
X383214D01*
X382884Y368785D01*
X382923Y369079D01*
X382810Y369940D01*
X382477Y370743D01*
X382143Y371178D01*
Y377717D01*
X383744D01*
Y388409D01*
D02*
G37*
G36*
X772831Y405421D02*
X767319D01*
X766538Y405266D01*
X765877Y404824D01*
X765435Y404162D01*
X765280Y403382D01*
Y363618D01*
X765435Y362838D01*
X765877Y362176D01*
X766538Y361734D01*
X767319Y361579D01*
X772831D01*
X773611Y361734D01*
X774273Y362176D01*
X774422Y362400D01*
X776539D01*
Y383500D01*
Y404600D01*
X774422D01*
X774273Y404824D01*
X773611Y405266D01*
X772831Y405421D01*
D02*
G37*
G36*
X255744Y388409D02*
X247413D01*
Y377717D01*
X249045D01*
Y371178D01*
X248712Y370743D01*
X248379Y369940D01*
X248266Y369079D01*
X248305Y368785D01*
X247975Y368409D01*
X247728D01*
Y357717D01*
X256059D01*
Y368409D01*
X255214D01*
X254884Y368785D01*
X254923Y369079D01*
X254810Y369940D01*
X254477Y370743D01*
X254144Y371178D01*
Y377717D01*
X255744D01*
Y388409D01*
D02*
G37*
%LPD*%
G36*
X665848Y182142D02*
X666198Y181619D01*
X671198Y176619D01*
X672024Y176066D01*
X673000Y175872D01*
X677604D01*
X677773Y175372D01*
X677646Y175275D01*
X677117Y174585D01*
X676785Y173783D01*
X676672Y172921D01*
X676785Y172060D01*
X676937Y171693D01*
X676603Y171193D01*
X674274D01*
X665049Y180418D01*
Y181807D01*
X665510Y182199D01*
X665848Y182142D01*
D02*
G37*
G36*
X281848D02*
X282198Y181619D01*
X287198Y176619D01*
X288024Y176066D01*
X289000Y175872D01*
X293604D01*
X293773Y175372D01*
X293646Y175275D01*
X293117Y174585D01*
X292785Y173783D01*
X292671Y172921D01*
X292785Y172060D01*
X292937Y171693D01*
X292603Y171193D01*
X290274D01*
X281049Y180418D01*
Y181807D01*
X281510Y182199D01*
X281848Y182142D01*
D02*
G37*
G36*
X537848D02*
X538198Y181619D01*
X543198Y176619D01*
X544025Y176066D01*
X545000Y175872D01*
X549604D01*
X549773Y175372D01*
X549646Y175275D01*
X549118Y174585D01*
X548785Y173783D01*
X548671Y172921D01*
X548785Y172060D01*
X548937Y171693D01*
X548603Y171193D01*
X546274D01*
X537049Y180418D01*
Y181807D01*
X537510Y182199D01*
X537848Y182142D01*
D02*
G37*
G36*
X409848D02*
X410198Y181619D01*
X415198Y176619D01*
X416024Y176066D01*
X417000Y175872D01*
X421604D01*
X421773Y175372D01*
X421646Y175275D01*
X421117Y174585D01*
X420785Y173783D01*
X420672Y172921D01*
X420785Y172060D01*
X420937Y171693D01*
X420603Y171193D01*
X418274D01*
X409049Y180418D01*
Y181807D01*
X409510Y182199D01*
X409848Y182142D01*
D02*
G37*
G36*
X559951Y394582D02*
Y393193D01*
X559490Y392801D01*
X559152Y392858D01*
X558802Y393381D01*
X553802Y398381D01*
X552976Y398934D01*
X552000Y399128D01*
X547396D01*
X547227Y399628D01*
X547354Y399725D01*
X547883Y400415D01*
X548215Y401217D01*
X548328Y402079D01*
X548215Y402940D01*
X548063Y403307D01*
X548397Y403807D01*
X550726D01*
X559951Y394582D01*
D02*
G37*
G36*
X687951D02*
Y393193D01*
X687490Y392801D01*
X687152Y392858D01*
X686802Y393381D01*
X681802Y398381D01*
X680975Y398934D01*
X680000Y399128D01*
X675396D01*
X675227Y399628D01*
X675354Y399725D01*
X675882Y400415D01*
X676215Y401217D01*
X676329Y402079D01*
X676215Y402940D01*
X676063Y403307D01*
X676397Y403807D01*
X678726D01*
X687951Y394582D01*
D02*
G37*
G36*
X303951D02*
Y393193D01*
X303490Y392801D01*
X303152Y392858D01*
X302802Y393381D01*
X297802Y398381D01*
X296975Y398934D01*
X296000Y399128D01*
X291396D01*
X291227Y399628D01*
X291354Y399725D01*
X291882Y400415D01*
X292215Y401217D01*
X292329Y402079D01*
X292215Y402940D01*
X292063Y403307D01*
X292397Y403807D01*
X294726D01*
X303951Y394582D01*
D02*
G37*
G36*
X431951D02*
Y393193D01*
X431490Y392801D01*
X431152Y392858D01*
X430802Y393381D01*
X425802Y398381D01*
X424975Y398934D01*
X424000Y399128D01*
X419396D01*
X419227Y399628D01*
X419354Y399725D01*
X419882Y400415D01*
X420215Y401217D01*
X420329Y402079D01*
X420215Y402940D01*
X420063Y403307D01*
X420397Y403807D01*
X422726D01*
X431951Y394582D01*
D02*
G37*
%LPC*%
G36*
X856000Y225213D02*
X854155Y224654D01*
X852417Y223725D01*
X850895Y222475D01*
X849645Y220953D01*
X848717Y219215D01*
X848407Y218197D01*
X847908D01*
X847598Y219215D01*
X846670Y220953D01*
X845420Y222475D01*
X843898Y223725D01*
X842160Y224654D01*
X840315Y225213D01*
Y215370D01*
Y205527D01*
X842160Y206087D01*
X843898Y207015D01*
X845420Y208265D01*
X846670Y209788D01*
X847598Y211525D01*
X847908Y212543D01*
X848407D01*
X848717Y211525D01*
X849645Y209788D01*
X850895Y208265D01*
X852417Y207015D01*
X854155Y206087D01*
X856000Y205527D01*
Y215370D01*
Y225213D01*
D02*
G37*
G36*
X821679Y208811D02*
X814167D01*
X806656D01*
Y208087D01*
X814167D01*
X821679D01*
Y208811D01*
D02*
G37*
G36*
X814167Y215535D02*
D01*
Y213535D01*
X806656D01*
Y212811D01*
X814167D01*
X821679D01*
Y213535D01*
X814167D01*
Y215535D01*
D02*
G37*
G36*
X836315Y213370D02*
X828472D01*
X829031Y211525D01*
X829960Y209788D01*
X831210Y208265D01*
X832732Y207015D01*
X834470Y206087D01*
X836315Y205527D01*
Y213370D01*
D02*
G37*
G36*
X867843Y213370D02*
X860000D01*
Y205527D01*
X861845Y206087D01*
X863583Y207015D01*
X865105Y208265D01*
X866355Y209788D01*
X867284Y211525D01*
X867843Y213370D01*
D02*
G37*
G36*
X812167Y219110D02*
X806656D01*
Y217535D01*
X812167D01*
Y219110D01*
D02*
G37*
G36*
X821679D02*
X816167D01*
Y217535D01*
X821679D01*
Y219110D01*
D02*
G37*
G36*
X836315Y225213D02*
X834470Y224654D01*
X832732Y223725D01*
X831210Y222475D01*
X829960Y220953D01*
X829031Y219215D01*
X828472Y217370D01*
X836315D01*
Y225213D01*
D02*
G37*
G36*
X860000Y225213D02*
Y217370D01*
X867843D01*
X867284Y219215D01*
X866355Y220953D01*
X865105Y222475D01*
X863583Y223725D01*
X861845Y224654D01*
X860000Y225213D01*
D02*
G37*
G36*
X836315Y264583D02*
X834470Y264024D01*
X832732Y263095D01*
X831210Y261845D01*
X829960Y260323D01*
X829031Y258585D01*
X828472Y256740D01*
X836315D01*
Y264583D01*
D02*
G37*
G36*
X860000Y264583D02*
Y256740D01*
X867843D01*
X867284Y258585D01*
X866355Y260323D01*
X865105Y261845D01*
X863583Y263095D01*
X861845Y264024D01*
X860000Y264583D01*
D02*
G37*
G36*
X836315Y252740D02*
X828472D01*
X829031Y250895D01*
X829960Y249158D01*
X831210Y247635D01*
X832732Y246385D01*
X834470Y245457D01*
X836315Y244897D01*
Y252740D01*
D02*
G37*
G36*
X867843Y252740D02*
X860000D01*
Y244897D01*
X861845Y245457D01*
X863583Y246385D01*
X865105Y247635D01*
X866355Y249158D01*
X867284Y250895D01*
X867843Y252740D01*
D02*
G37*
G36*
X856000Y264583D02*
X854155Y264024D01*
X852417Y263095D01*
X850895Y261845D01*
X849645Y260323D01*
X848717Y258585D01*
X848407Y257567D01*
X847908D01*
X847598Y258585D01*
X846670Y260323D01*
X845420Y261845D01*
X843898Y263095D01*
X842160Y264024D01*
X840315Y264583D01*
Y254740D01*
Y244897D01*
X842160Y245457D01*
X843898Y246385D01*
X845420Y247635D01*
X846670Y249158D01*
X847598Y250895D01*
X847908Y251913D01*
X848407D01*
X848717Y250895D01*
X849645Y249158D01*
X850895Y247635D01*
X852417Y246385D01*
X854155Y245457D01*
X856000Y244897D01*
Y254740D01*
Y264583D01*
D02*
G37*
G36*
X821679Y204087D02*
X814167D01*
X806656D01*
Y203362D01*
X814167D01*
X821679D01*
Y204087D01*
D02*
G37*
G36*
X858000Y146678D02*
X856040Y146485D01*
X854155Y145913D01*
X852417Y144985D01*
X850895Y143735D01*
X849645Y142212D01*
X848717Y140475D01*
X848407Y139457D01*
X847908D01*
X847598Y140475D01*
X846670Y142212D01*
X845420Y143735D01*
X843898Y144985D01*
X842160Y145913D01*
X840275Y146485D01*
X838315Y146678D01*
X836355Y146485D01*
X834470Y145913D01*
X832732Y144985D01*
X831210Y143735D01*
X829960Y142212D01*
X829031Y140475D01*
X828460Y138590D01*
X828267Y136630D01*
X828460Y134670D01*
X829031Y132784D01*
X829960Y131047D01*
X831210Y129525D01*
X832732Y128275D01*
X834470Y127346D01*
X836355Y126775D01*
X838315Y126582D01*
X840275Y126775D01*
X842160Y127346D01*
X843898Y128275D01*
X845420Y129525D01*
X846670Y131047D01*
X847598Y132784D01*
X847908Y133803D01*
X848407D01*
X848717Y132784D01*
X849645Y131047D01*
X850895Y129525D01*
X852417Y128275D01*
X854155Y127346D01*
X856040Y126775D01*
X858000Y126582D01*
X859960Y126775D01*
X861845Y127346D01*
X863583Y128275D01*
X865105Y129525D01*
X866355Y131047D01*
X867284Y132784D01*
X867855Y134670D01*
X868048Y136630D01*
X867855Y138590D01*
X867284Y140475D01*
X866355Y142212D01*
X865105Y143735D01*
X863583Y144985D01*
X861845Y145913D01*
X859960Y146485D01*
X858000Y146678D01*
D02*
G37*
G36*
Y186048D02*
X856040Y185855D01*
X854155Y185284D01*
X852417Y184355D01*
X850895Y183105D01*
X849645Y181583D01*
X848717Y179845D01*
X848407Y178827D01*
X847908D01*
X847598Y179845D01*
X846670Y181583D01*
X845420Y183105D01*
X843898Y184355D01*
X842160Y185284D01*
X840275Y185855D01*
X838315Y186048D01*
X836355Y185855D01*
X834470Y185284D01*
X832732Y184355D01*
X831210Y183105D01*
X829960Y181583D01*
X829031Y179845D01*
X828460Y177960D01*
X828267Y176000D01*
X828460Y174040D01*
X829031Y172155D01*
X829960Y170417D01*
X831210Y168895D01*
X832732Y167645D01*
X834470Y166717D01*
X836355Y166145D01*
X838315Y165952D01*
X840275Y166145D01*
X842160Y166717D01*
X843898Y167645D01*
X845420Y168895D01*
X846670Y170417D01*
X847598Y172155D01*
X847908Y173173D01*
X848407D01*
X848717Y172155D01*
X849645Y170417D01*
X850895Y168895D01*
X852417Y167645D01*
X854155Y166717D01*
X856040Y166145D01*
X858000Y165952D01*
X859960Y166145D01*
X861845Y166717D01*
X863583Y167645D01*
X865105Y168895D01*
X866355Y170417D01*
X867284Y172155D01*
X867855Y174040D01*
X868048Y176000D01*
X867855Y177960D01*
X867284Y179845D01*
X866355Y181583D01*
X865105Y183105D01*
X863583Y184355D01*
X861845Y185284D01*
X859960Y185855D01*
X858000Y186048D01*
D02*
G37*
G36*
X821679Y189913D02*
X814167D01*
X806656D01*
Y188339D01*
Y183614D01*
Y178890D01*
X811416D01*
Y168712D01*
X810947Y168650D01*
X810245Y168359D01*
X809643Y167897D01*
X809180Y167294D01*
X808889Y166592D01*
X808790Y165839D01*
X808889Y165085D01*
X809107Y164559D01*
X808889Y164033D01*
X808790Y163279D01*
X808889Y162526D01*
X809107Y162000D01*
X808889Y161474D01*
X808790Y160721D01*
X808889Y159967D01*
X809107Y159441D01*
X808889Y158915D01*
X808790Y158161D01*
X808889Y157408D01*
X809180Y156706D01*
X809643Y156103D01*
X810245Y155641D01*
X810947Y155350D01*
X811701Y155251D01*
X816228D01*
X816982Y155350D01*
X817684Y155641D01*
X818287Y156103D01*
X818749Y156706D01*
X819040Y157408D01*
X819139Y158161D01*
X819101Y158452D01*
X819411Y158513D01*
X819706Y158710D01*
X820000Y158671D01*
X820862Y158785D01*
X821664Y159117D01*
X822354Y159646D01*
X822883Y160336D01*
X823215Y161138D01*
X823328Y162000D01*
X823215Y162862D01*
X822883Y163664D01*
X822354Y164354D01*
X821664Y164883D01*
X820862Y165215D01*
X820000Y165329D01*
X819706Y165290D01*
X819411Y165487D01*
X819101Y165548D01*
X819139Y165839D01*
X819040Y166592D01*
X818749Y167294D01*
X818287Y167897D01*
X817684Y168359D01*
X816982Y168650D01*
X816514Y168712D01*
Y178890D01*
X821679D01*
Y183614D01*
Y186040D01*
X814167D01*
Y189189D01*
X821679D01*
Y189913D01*
D02*
G37*
G36*
X893433Y124119D02*
X891473Y123926D01*
X889588Y123354D01*
X887850Y122426D01*
X886328Y121176D01*
X885078Y119653D01*
X884150Y117916D01*
X883578Y116031D01*
X883385Y114071D01*
X883578Y112110D01*
X884150Y110225D01*
X885078Y108488D01*
X886328Y106965D01*
X887850Y105716D01*
X889588Y104787D01*
X891473Y104216D01*
X893433Y104022D01*
X895393Y104216D01*
X897278Y104787D01*
X899016Y105716D01*
X900538Y106965D01*
X901788Y108488D01*
X902717Y110225D01*
X903288Y112110D01*
X903481Y114071D01*
X903288Y116031D01*
X902717Y117916D01*
X901788Y119653D01*
X900538Y121176D01*
X899016Y122426D01*
X897278Y123354D01*
X895393Y123926D01*
X893433Y124119D01*
D02*
G37*
G36*
X821679Y194638D02*
X814167D01*
X806656D01*
Y193913D01*
X814167D01*
X821679D01*
Y194638D01*
D02*
G37*
G36*
Y199362D02*
X814167D01*
X806656D01*
Y198638D01*
X814167D01*
X821679D01*
Y199362D01*
D02*
G37*
%LPD*%
D10*
X472500Y394272D02*
D03*
X467500D02*
D03*
X462500D02*
D03*
X457500D02*
D03*
X600500D02*
D03*
X595500D02*
D03*
X590500D02*
D03*
X585500D02*
D03*
X728500D02*
D03*
X723500D02*
D03*
X718500D02*
D03*
X713500D02*
D03*
X240500Y180728D02*
D03*
X245500D02*
D03*
X250500D02*
D03*
X255500D02*
D03*
X624500D02*
D03*
X629500D02*
D03*
X634500D02*
D03*
X639500D02*
D03*
X496500D02*
D03*
X501500D02*
D03*
X506500D02*
D03*
X511500D02*
D03*
X368500D02*
D03*
X373500D02*
D03*
X378500D02*
D03*
X383500D02*
D03*
X344500Y394272D02*
D03*
X339500D02*
D03*
X334500D02*
D03*
X329500D02*
D03*
D11*
X465000Y378500D02*
D03*
X593000D02*
D03*
X721000D02*
D03*
X248000Y196500D02*
D03*
X632000D02*
D03*
X504000D02*
D03*
X376000D02*
D03*
X337000Y378500D02*
D03*
D12*
X775185Y346500D02*
D03*
X785815D02*
D03*
X774685Y160500D02*
D03*
X785315D02*
D03*
X717106Y211937D02*
D03*
X706476D02*
D03*
X589106D02*
D03*
X578476D02*
D03*
X461106D02*
D03*
X450476D02*
D03*
X333106D02*
D03*
X322476D02*
D03*
X251894Y363063D02*
D03*
X262524D02*
D03*
X379894D02*
D03*
X390524D02*
D03*
X507894D02*
D03*
X518524D02*
D03*
X635894D02*
D03*
X646524D02*
D03*
X717421Y191937D02*
D03*
X706791D02*
D03*
X589421D02*
D03*
X578791D02*
D03*
X461421D02*
D03*
X450791D02*
D03*
X333421D02*
D03*
X322791D02*
D03*
X251579Y383063D02*
D03*
X262209D02*
D03*
X379579D02*
D03*
X390209D02*
D03*
X507579D02*
D03*
X518209D02*
D03*
X635579D02*
D03*
X646209D02*
D03*
D13*
X653291Y196158D02*
D03*
Y185528D02*
D03*
X525291Y196158D02*
D03*
Y185528D02*
D03*
X397291Y196158D02*
D03*
Y185528D02*
D03*
X269291Y196158D02*
D03*
Y185528D02*
D03*
X315709Y378842D02*
D03*
Y389472D02*
D03*
X443709Y378842D02*
D03*
Y389472D02*
D03*
X571709Y378842D02*
D03*
Y389472D02*
D03*
X699709Y378842D02*
D03*
Y389472D02*
D03*
D14*
X625000Y137000D02*
D03*
Y152079D02*
D03*
X497000Y137000D02*
D03*
Y152079D02*
D03*
X369000Y137000D02*
D03*
Y152079D02*
D03*
X241000Y137000D02*
D03*
Y152079D02*
D03*
X344000Y438000D02*
D03*
Y422921D02*
D03*
X472000Y438000D02*
D03*
Y422921D02*
D03*
X600000Y438000D02*
D03*
Y422921D02*
D03*
X728000Y438000D02*
D03*
Y422921D02*
D03*
D15*
X679953Y167421D02*
D03*
X674047D02*
D03*
X551953D02*
D03*
X546047D02*
D03*
X423953D02*
D03*
X418047D02*
D03*
X295953D02*
D03*
X290047D02*
D03*
X289047Y407579D02*
D03*
X294953D02*
D03*
X417047D02*
D03*
X422953D02*
D03*
X545047D02*
D03*
X550953D02*
D03*
X673047D02*
D03*
X678953D02*
D03*
X679953Y161921D02*
D03*
X674047D02*
D03*
X551953D02*
D03*
X546047D02*
D03*
X423953D02*
D03*
X418047D02*
D03*
X295953D02*
D03*
X290047D02*
D03*
X289047Y413079D02*
D03*
X294953D02*
D03*
X417047D02*
D03*
X422953D02*
D03*
X545047D02*
D03*
X550953D02*
D03*
X673047D02*
D03*
X678953D02*
D03*
X690906Y161921D02*
D03*
X685000D02*
D03*
X562906D02*
D03*
X557000D02*
D03*
X434905D02*
D03*
X429000D02*
D03*
X306906D02*
D03*
X301000D02*
D03*
X278095Y413079D02*
D03*
X284000D02*
D03*
X406095D02*
D03*
X412000D02*
D03*
X534094D02*
D03*
X540000D02*
D03*
X662094D02*
D03*
X668000D02*
D03*
X690906Y167421D02*
D03*
X685000D02*
D03*
X562906D02*
D03*
X557000D02*
D03*
X434905D02*
D03*
X429000D02*
D03*
X306906D02*
D03*
X301000D02*
D03*
X278095Y407579D02*
D03*
X284000D02*
D03*
X406095D02*
D03*
X412000D02*
D03*
X534094D02*
D03*
X540000D02*
D03*
X662094D02*
D03*
X668000D02*
D03*
X690906Y178421D02*
D03*
X685000D02*
D03*
X562906D02*
D03*
X557000D02*
D03*
X434905D02*
D03*
X429000D02*
D03*
X306906D02*
D03*
X301000D02*
D03*
X278095Y396579D02*
D03*
X284000D02*
D03*
X406095D02*
D03*
X412000D02*
D03*
X534094D02*
D03*
X540000D02*
D03*
X662094D02*
D03*
X668000D02*
D03*
X690906Y172921D02*
D03*
X685000D02*
D03*
X562906D02*
D03*
X557000D02*
D03*
X434905D02*
D03*
X429000D02*
D03*
X306906D02*
D03*
X301000D02*
D03*
X278095Y402079D02*
D03*
X284000D02*
D03*
X406095D02*
D03*
X412000D02*
D03*
X534094D02*
D03*
X540000D02*
D03*
X662094D02*
D03*
X668000D02*
D03*
X791953Y336000D02*
D03*
X786047D02*
D03*
X791453Y151000D02*
D03*
X785547D02*
D03*
X717953Y292000D02*
D03*
X712047D02*
D03*
X712047Y282000D02*
D03*
X717953D02*
D03*
D16*
X651291Y208295D02*
D03*
Y202390D02*
D03*
X523291Y208295D02*
D03*
Y202390D02*
D03*
X395291Y208295D02*
D03*
Y202390D02*
D03*
X267291Y208295D02*
D03*
Y202390D02*
D03*
X317709Y366705D02*
D03*
Y372610D02*
D03*
X445709Y366705D02*
D03*
Y372610D02*
D03*
X573709Y366705D02*
D03*
Y372610D02*
D03*
X701709Y366705D02*
D03*
Y372610D02*
D03*
X651291Y225795D02*
D03*
Y219890D02*
D03*
X523291Y225795D02*
D03*
Y219890D02*
D03*
X395291Y225795D02*
D03*
Y219890D02*
D03*
X267291Y225795D02*
D03*
Y219890D02*
D03*
X317709Y349205D02*
D03*
Y355110D02*
D03*
X445709Y349205D02*
D03*
Y355110D02*
D03*
X573709Y349205D02*
D03*
Y355110D02*
D03*
X701709Y349205D02*
D03*
Y355110D02*
D03*
X706291Y198984D02*
D03*
Y204890D02*
D03*
X578291Y198984D02*
D03*
Y204890D02*
D03*
X450291Y198984D02*
D03*
Y204890D02*
D03*
X322291Y198984D02*
D03*
Y204890D02*
D03*
X262709Y376016D02*
D03*
Y370110D02*
D03*
X390709Y376016D02*
D03*
Y370110D02*
D03*
X518709Y376016D02*
D03*
Y370110D02*
D03*
X646709Y376016D02*
D03*
Y370110D02*
D03*
D17*
X778539Y383500D02*
D03*
Y199000D02*
D03*
D18*
X814167Y381138D02*
D03*
Y385862D02*
D03*
Y390587D02*
D03*
Y395311D02*
D03*
Y400035D02*
D03*
Y376413D02*
D03*
Y371689D02*
D03*
Y366965D02*
D03*
Y182465D02*
D03*
Y187189D02*
D03*
Y191913D02*
D03*
Y215535D02*
D03*
Y210811D02*
D03*
Y206087D02*
D03*
Y201362D02*
D03*
Y196638D02*
D03*
D19*
X626500Y237528D02*
D03*
Y218000D02*
D03*
X498500Y237528D02*
D03*
Y218000D02*
D03*
X370500Y237528D02*
D03*
Y218000D02*
D03*
X242500Y237528D02*
D03*
Y218000D02*
D03*
X342500Y337472D02*
D03*
Y357000D02*
D03*
X470500Y337472D02*
D03*
Y357000D02*
D03*
X598500Y337472D02*
D03*
Y357000D02*
D03*
X726500Y337472D02*
D03*
Y357000D02*
D03*
D20*
X642779Y237528D02*
D03*
Y218000D02*
D03*
X514780Y237528D02*
D03*
Y218000D02*
D03*
X386779Y237528D02*
D03*
Y218000D02*
D03*
X258780Y237528D02*
D03*
Y218000D02*
D03*
X326220Y337472D02*
D03*
Y357000D02*
D03*
X454220Y337472D02*
D03*
Y357000D02*
D03*
X582221Y337472D02*
D03*
Y357000D02*
D03*
X710220Y337472D02*
D03*
Y357000D02*
D03*
D21*
X797535Y351339D02*
D03*
Y348780D02*
D03*
Y346220D02*
D03*
Y343661D02*
D03*
X814465Y351339D02*
D03*
Y348780D02*
D03*
Y346220D02*
D03*
Y343661D02*
D03*
X797035Y165839D02*
D03*
Y163279D02*
D03*
Y160721D02*
D03*
Y158161D02*
D03*
X813965Y165839D02*
D03*
Y163279D02*
D03*
Y160721D02*
D03*
Y158161D02*
D03*
D22*
X667677Y208453D02*
D03*
Y205894D02*
D03*
Y203335D02*
D03*
Y200776D02*
D03*
Y198216D02*
D03*
Y195658D02*
D03*
Y193098D02*
D03*
Y190539D02*
D03*
Y187980D02*
D03*
Y185421D02*
D03*
X690906Y208453D02*
D03*
Y205894D02*
D03*
Y203335D02*
D03*
Y200776D02*
D03*
Y198216D02*
D03*
Y195658D02*
D03*
Y193098D02*
D03*
Y190539D02*
D03*
Y187980D02*
D03*
Y185421D02*
D03*
X539677Y208453D02*
D03*
Y205894D02*
D03*
Y203335D02*
D03*
Y200776D02*
D03*
Y198216D02*
D03*
Y195658D02*
D03*
Y193098D02*
D03*
Y190539D02*
D03*
Y187980D02*
D03*
Y185421D02*
D03*
X562906Y208453D02*
D03*
Y205894D02*
D03*
Y203335D02*
D03*
Y200776D02*
D03*
Y198216D02*
D03*
Y195658D02*
D03*
Y193098D02*
D03*
Y190539D02*
D03*
Y187980D02*
D03*
Y185421D02*
D03*
X411677Y208453D02*
D03*
Y205894D02*
D03*
Y203335D02*
D03*
Y200776D02*
D03*
Y198216D02*
D03*
Y195658D02*
D03*
Y193098D02*
D03*
Y190539D02*
D03*
Y187980D02*
D03*
Y185421D02*
D03*
X434905Y208453D02*
D03*
Y205894D02*
D03*
Y203335D02*
D03*
Y200776D02*
D03*
Y198216D02*
D03*
Y195658D02*
D03*
Y193098D02*
D03*
Y190539D02*
D03*
Y187980D02*
D03*
Y185421D02*
D03*
X283677Y208453D02*
D03*
Y205894D02*
D03*
Y203335D02*
D03*
Y200776D02*
D03*
Y198216D02*
D03*
Y195658D02*
D03*
Y193098D02*
D03*
Y190539D02*
D03*
Y187980D02*
D03*
Y185421D02*
D03*
X306906Y208453D02*
D03*
Y205894D02*
D03*
Y203335D02*
D03*
Y200776D02*
D03*
Y198216D02*
D03*
Y195658D02*
D03*
Y193098D02*
D03*
Y190539D02*
D03*
Y187980D02*
D03*
Y185421D02*
D03*
X301323Y366547D02*
D03*
Y369106D02*
D03*
Y371665D02*
D03*
Y374224D02*
D03*
Y376783D02*
D03*
Y379343D02*
D03*
Y381902D02*
D03*
Y384461D02*
D03*
Y387020D02*
D03*
Y389579D02*
D03*
X278095Y366547D02*
D03*
Y369106D02*
D03*
Y371665D02*
D03*
Y374224D02*
D03*
Y376783D02*
D03*
Y379343D02*
D03*
Y381902D02*
D03*
Y384461D02*
D03*
Y387020D02*
D03*
Y389579D02*
D03*
X429323Y366547D02*
D03*
Y369106D02*
D03*
Y371665D02*
D03*
Y374224D02*
D03*
Y376783D02*
D03*
Y379343D02*
D03*
Y381902D02*
D03*
Y384461D02*
D03*
Y387020D02*
D03*
Y389579D02*
D03*
X406095Y366547D02*
D03*
Y369106D02*
D03*
Y371665D02*
D03*
Y374224D02*
D03*
Y376783D02*
D03*
Y379343D02*
D03*
Y381902D02*
D03*
Y384461D02*
D03*
Y387020D02*
D03*
Y389579D02*
D03*
X557323Y366547D02*
D03*
Y369106D02*
D03*
Y371665D02*
D03*
Y374224D02*
D03*
Y376783D02*
D03*
Y379343D02*
D03*
Y381902D02*
D03*
Y384461D02*
D03*
Y387020D02*
D03*
Y389579D02*
D03*
X534094Y366547D02*
D03*
Y369106D02*
D03*
Y371665D02*
D03*
Y374224D02*
D03*
Y376783D02*
D03*
Y379343D02*
D03*
Y381902D02*
D03*
Y384461D02*
D03*
Y387020D02*
D03*
Y389579D02*
D03*
X685323Y366547D02*
D03*
Y369106D02*
D03*
Y371665D02*
D03*
Y374224D02*
D03*
Y376783D02*
D03*
Y379343D02*
D03*
Y381902D02*
D03*
Y384461D02*
D03*
Y387020D02*
D03*
Y389579D02*
D03*
X662094Y366547D02*
D03*
Y369106D02*
D03*
Y371665D02*
D03*
Y374224D02*
D03*
Y376783D02*
D03*
Y379343D02*
D03*
Y381902D02*
D03*
Y384461D02*
D03*
Y387020D02*
D03*
Y389579D02*
D03*
D23*
X647193Y382079D02*
X657895D01*
X519193D02*
X529894D01*
X695106Y192921D02*
X705807D01*
X567105D02*
X577807D01*
X391193Y382079D02*
X401895D01*
X263193D02*
X273895D01*
X439106Y192921D02*
X449807D01*
X311105D02*
X321807D01*
X694827Y181500D02*
X695500D01*
X690906Y178421D02*
Y185421D01*
X694827Y181500D01*
X696825Y212421D02*
X696906D01*
X692856Y208453D02*
X696825Y212421D01*
X712000Y291953D02*
X712047Y292000D01*
X712000Y287000D02*
Y291953D01*
Y287000D02*
X712047Y286953D01*
Y282000D02*
Y286953D01*
X276144Y366547D02*
X278095D01*
X272175Y362579D02*
X276144Y366547D01*
X272094Y362579D02*
X272175D01*
X277947Y376931D02*
X278095Y376783D01*
X271094Y377079D02*
X271242Y376931D01*
X277947D01*
X273806Y391997D02*
Y393194D01*
X273500Y393500D02*
X273806Y393194D01*
X278095Y389579D02*
X278095Y389579D01*
X276224D02*
X278095D01*
X273806Y391997D02*
X276224Y389579D01*
X320449Y369657D02*
X322500Y367606D01*
Y341193D02*
Y367606D01*
X315342Y369657D02*
X320449D01*
X322500Y341193D02*
X326220Y337472D01*
X301449Y376658D02*
X308343D01*
X301323Y376783D02*
X301449Y376658D01*
X308343D02*
X315342Y369657D01*
X264595Y374579D02*
X264949Y374224D01*
X264539Y374579D02*
X264595D01*
X264949Y374224D02*
X278095D01*
X262709Y376016D02*
X263102D01*
X264539Y374579D01*
X278008Y371579D02*
X278095Y371665D01*
X264571Y371579D02*
X278008D01*
X263102Y370110D02*
X264571Y371579D01*
X262709Y370110D02*
X263102D01*
X329272Y394500D02*
X329500Y394272D01*
X325000Y394500D02*
X329272D01*
X301391Y371597D02*
X305903D01*
X301323Y371665D02*
X301391Y371597D01*
X305903D02*
X311500Y366000D01*
X325000Y381500D02*
X334000D01*
X337000Y378500D01*
X307500Y385449D02*
Y385974D01*
X306512Y384461D02*
X307500Y385449D01*
X301323Y384461D02*
X306512D01*
X301323Y369106D02*
X303894D01*
X307500Y365500D01*
X315295Y366705D02*
X317709D01*
Y355610D02*
Y366705D01*
X301470Y374077D02*
X307923D01*
X301323Y374224D02*
X301470Y374077D01*
X307923D02*
X315295Y366705D01*
X326220Y357000D02*
Y367358D01*
X320969Y372610D02*
X326220Y367358D01*
X317709Y372610D02*
X320969D01*
X270370Y402079D02*
X278095D01*
X270291Y390287D02*
Y402000D01*
X270370Y402079D01*
X273559Y387020D02*
X278095D01*
X270291Y390287D02*
X273559Y387020D01*
X278095Y389579D02*
Y396579D01*
X284000D02*
X296000D01*
X301000Y391579D01*
X284000Y396579D02*
Y402079D01*
X301000Y389902D02*
X301323Y389579D01*
X301000Y389902D02*
Y391579D01*
X278095Y407579D02*
Y407972D01*
X284000Y402079D02*
Y407579D01*
X278047Y413126D02*
Y418032D01*
X278000Y418079D02*
X278047Y418032D01*
Y413126D02*
X278095Y413079D01*
X284000Y407579D02*
Y413079D01*
X289024Y407555D02*
X289047Y407579D01*
X289024Y402102D02*
Y407555D01*
X289000Y402079D02*
X289024Y402102D01*
X306500Y389000D02*
Y395638D01*
X304658Y387158D02*
X306500Y389000D01*
X301461Y387158D02*
X304658D01*
X301323Y387020D02*
X301461Y387158D01*
X294953Y407579D02*
Y413079D01*
Y407185D02*
Y407579D01*
Y407185D02*
X306500Y395638D01*
X307866Y380000D02*
X309500D01*
X307116Y379250D02*
X307866Y380000D01*
X314551D02*
X315709Y378842D01*
X309500Y380000D02*
X314551D01*
X301323Y379343D02*
X301415Y379250D01*
X307116D01*
X314528Y389472D02*
X315709D01*
X310512Y385457D02*
X314528Y389472D01*
X310512Y384708D02*
Y385457D01*
X307705Y381902D02*
X310512Y384708D01*
X301323Y381902D02*
X307705D01*
X262209Y383063D02*
X263193Y382079D01*
X262000Y383272D02*
X262209Y383063D01*
X277947Y382049D02*
X278095Y381902D01*
X273895Y382079D02*
X273924Y382049D01*
X277947D01*
X251579Y383063D02*
X251594Y383047D01*
Y369079D02*
Y383047D01*
Y363362D02*
X251894Y363063D01*
X251594Y363362D02*
Y369079D01*
X272622Y369106D02*
X278095D01*
X266579Y363063D02*
X272622Y369106D01*
X262524Y363063D02*
X266579D01*
X404144Y366547D02*
X406095D01*
X400175Y362579D02*
X404144Y366547D01*
X400095Y362579D02*
X400175D01*
X405947Y376931D02*
X406095Y376783D01*
X399095Y377079D02*
X399242Y376931D01*
X405947D01*
X401806Y391997D02*
Y393194D01*
X401500Y393500D02*
X401806Y393194D01*
X406095Y389579D02*
X406095Y389579D01*
X404224D02*
X406095D01*
X401806Y391997D02*
X404224Y389579D01*
X448449Y369657D02*
X450500Y367606D01*
Y341193D02*
Y367606D01*
X443342Y369657D02*
X448449D01*
X450500Y341193D02*
X454220Y337472D01*
X429449Y376658D02*
X436342D01*
X429323Y376783D02*
X429449Y376658D01*
X436342D02*
X443342Y369657D01*
X392595Y374579D02*
X392949Y374224D01*
X392539Y374579D02*
X392595D01*
X392949Y374224D02*
X406095D01*
X390709Y376016D02*
X391102D01*
X392539Y374579D01*
X406008Y371579D02*
X406095Y371665D01*
X392571Y371579D02*
X406008D01*
X391102Y370110D02*
X392571Y371579D01*
X390709Y370110D02*
X391102D01*
X457272Y394500D02*
X457500Y394272D01*
X453000Y394500D02*
X457272D01*
X429391Y371597D02*
X433903D01*
X429323Y371665D02*
X429391Y371597D01*
X433903D02*
X439500Y366000D01*
X453000Y381500D02*
X462000D01*
X465000Y378500D01*
X435500Y385449D02*
Y385974D01*
X434512Y384461D02*
X435500Y385449D01*
X429323Y384461D02*
X434512D01*
X429323Y369106D02*
X431894D01*
X435500Y365500D01*
X443295Y366705D02*
X445709D01*
Y355610D02*
Y366705D01*
X429470Y374077D02*
X435923D01*
X429323Y374224D02*
X429470Y374077D01*
X435923D02*
X443295Y366705D01*
X454220Y357000D02*
Y367358D01*
X448969Y372610D02*
X454220Y367358D01*
X445709Y372610D02*
X448969D01*
X398370Y402079D02*
X406095D01*
X398291Y390287D02*
Y402000D01*
X398370Y402079D01*
X401559Y387020D02*
X406095D01*
X398291Y390287D02*
X401559Y387020D01*
X406095Y389579D02*
Y396579D01*
X412000D02*
X424000D01*
X429000Y391579D01*
Y389902D02*
X429323Y389579D01*
X429000Y389902D02*
Y391579D01*
X412000Y396579D02*
Y402079D01*
X406095Y407579D02*
Y407972D01*
X412000Y402079D02*
Y407579D01*
X406047Y413126D02*
Y418032D01*
X406000Y418079D02*
X406047Y418032D01*
Y413126D02*
X406095Y413079D01*
X412000Y407579D02*
Y413079D01*
X417024Y407555D02*
X417047Y407579D01*
X417024Y402102D02*
Y407555D01*
X417000Y402079D02*
X417024Y402102D01*
X434500Y389000D02*
Y395638D01*
X432657Y387158D02*
X434500Y389000D01*
X429461Y387158D02*
X432657D01*
X429323Y387020D02*
X429461Y387158D01*
X422953Y407579D02*
Y413079D01*
Y407185D02*
Y407579D01*
Y407185D02*
X434500Y395638D01*
X435866Y380000D02*
X437500D01*
X435116Y379250D02*
X435866Y380000D01*
X442551D02*
X443709Y378842D01*
X437500Y380000D02*
X442551D01*
X429323Y379343D02*
X429415Y379250D01*
X435116D01*
X442528Y389472D02*
X443709D01*
X438512Y385457D02*
X442528Y389472D01*
X438512Y384708D02*
Y385457D01*
X435705Y381902D02*
X438512Y384708D01*
X429323Y381902D02*
X435705D01*
X390209Y383063D02*
X391193Y382079D01*
X390000Y383272D02*
X390209Y383063D01*
X405947Y382049D02*
X406095Y381902D01*
X401895Y382079D02*
X401924Y382049D01*
X405947D01*
X379579Y383063D02*
X379594Y383047D01*
Y369079D02*
Y383047D01*
Y363362D02*
X379894Y363063D01*
X379594Y363362D02*
Y369079D01*
X400622Y369106D02*
X406095D01*
X394579Y363063D02*
X400622Y369106D01*
X390524Y363063D02*
X394579D01*
X532144Y366547D02*
X534094D01*
X528175Y362579D02*
X532144Y366547D01*
X528094Y362579D02*
X528175D01*
X527095Y377079D02*
X527242Y376931D01*
X533947D02*
X534094Y376783D01*
X527242Y376931D02*
X533947D01*
X529806Y391997D02*
Y393194D01*
X529500Y393500D02*
X529806Y393194D01*
X534094Y389579D02*
X534094Y389579D01*
X532224D02*
X534094D01*
X529806Y391997D02*
X532224Y389579D01*
X576449Y369657D02*
X578500Y367606D01*
Y341193D02*
Y367606D01*
X571343Y369657D02*
X576449D01*
X578500Y341193D02*
X582221Y337472D01*
X557449Y376658D02*
X564342D01*
X557323Y376783D02*
X557449Y376658D01*
X564342D02*
X571343Y369657D01*
X520595Y374579D02*
X520949Y374224D01*
X520539Y374579D02*
X520595D01*
X520949Y374224D02*
X534094D01*
X518709Y376016D02*
X519102D01*
X520539Y374579D01*
X534008Y371579D02*
X534094Y371665D01*
X520571Y371579D02*
X534008D01*
X519102Y370110D02*
X520571Y371579D01*
X518709Y370110D02*
X519102D01*
X585272Y394500D02*
X585500Y394272D01*
X581000Y394500D02*
X585272D01*
X557391Y371597D02*
X561903D01*
X557323Y371665D02*
X557391Y371597D01*
X561903D02*
X567500Y366000D01*
X581000Y381500D02*
X590000D01*
X593000Y378500D01*
X563500Y385449D02*
Y385974D01*
X562512Y384461D02*
X563500Y385449D01*
X557323Y384461D02*
X562512D01*
X557323Y369106D02*
X559894D01*
X563500Y365500D01*
X571295Y366705D02*
X573709D01*
Y355610D02*
Y366705D01*
X557471Y374077D02*
X563923D01*
X557323Y374224D02*
X557471Y374077D01*
X563923D02*
X571295Y366705D01*
X582221Y357000D02*
Y367358D01*
X576968Y372610D02*
X582221Y367358D01*
X573709Y372610D02*
X576968D01*
X526370Y402079D02*
X534094D01*
X526291Y390287D02*
Y402000D01*
X526370Y402079D01*
X529559Y387020D02*
X534094D01*
X526291Y390287D02*
X529559Y387020D01*
X534094Y389579D02*
Y396579D01*
X540000D02*
X552000D01*
X557000Y391579D01*
Y389902D02*
X557323Y389579D01*
X557000Y389902D02*
Y391579D01*
X540000Y396579D02*
Y402079D01*
X534094Y407579D02*
Y407972D01*
X540000Y402079D02*
Y407579D01*
X534047Y413126D02*
Y418032D01*
Y413126D02*
X534094Y413079D01*
X534000Y418079D02*
X534047Y418032D01*
X540000Y407579D02*
Y413079D01*
X545024Y402102D02*
Y407555D01*
X545047Y407579D01*
X545000Y402079D02*
X545024Y402102D01*
X562500Y389000D02*
Y395638D01*
X560658Y387158D02*
X562500Y389000D01*
X557461Y387158D02*
X560658D01*
X557323Y387020D02*
X557461Y387158D01*
X550953Y407579D02*
Y413079D01*
Y407185D02*
Y407579D01*
Y407185D02*
X562500Y395638D01*
X563866Y380000D02*
X565500D01*
X563116Y379250D02*
X563866Y380000D01*
X570551D02*
X571709Y378842D01*
X565500Y380000D02*
X570551D01*
X557415Y379250D02*
X563116D01*
X557323Y379343D02*
X557415Y379250D01*
X570528Y389472D02*
X571709D01*
X566512Y385457D02*
X570528Y389472D01*
X566512Y384708D02*
Y385457D01*
X563705Y381902D02*
X566512Y384708D01*
X557323Y381902D02*
X563705D01*
X518000Y383272D02*
X518209Y383063D01*
X519193Y382079D01*
X533947Y382049D02*
X534094Y381902D01*
X529894Y382079D02*
X529924Y382049D01*
X533947D01*
X507579Y383063D02*
X507594Y383047D01*
Y369079D02*
Y383047D01*
Y363362D02*
Y369079D01*
Y363362D02*
X507894Y363063D01*
X528622Y369106D02*
X534094D01*
X522579Y363063D02*
X528622Y369106D01*
X518524Y363063D02*
X522579D01*
X717953Y292000D02*
X732000D01*
X656095Y362579D02*
X656175D01*
X660144Y366547D01*
X662094D01*
X661947Y376931D02*
X662094Y376783D01*
X655242Y376931D02*
X661947D01*
X655094Y377079D02*
X655242Y376931D01*
X660224Y389579D02*
X662094D01*
X657806Y391997D02*
Y393194D01*
Y391997D02*
X660224Y389579D01*
X657500Y393500D02*
X657806Y393194D01*
X692343Y376658D02*
X699342Y369657D01*
X685449Y376658D02*
X692343D01*
X699342Y369657D02*
X704449D01*
X685323Y376783D02*
X685449Y376658D01*
X706500Y341193D02*
X710220Y337472D01*
X704449Y369657D02*
X706500Y367606D01*
Y341193D02*
Y367606D01*
X646709Y376016D02*
X647102D01*
X648539Y374579D02*
X648595D01*
X647102Y376016D02*
X648539Y374579D01*
X648595D02*
X648949Y374224D01*
X662094D01*
X646709Y370110D02*
X647102D01*
X648571Y371579D01*
X662008D01*
X662094Y371665D01*
X685391Y371597D02*
X689903D01*
X685323Y371665D02*
X685391Y371597D01*
X689903D02*
X695500Y366000D01*
X713272Y394500D02*
X713500Y394272D01*
X709000Y394500D02*
X713272D01*
X685323Y384461D02*
X690512D01*
X691500Y385449D01*
Y385974D01*
X709000Y381500D02*
X718000D01*
X721000Y378500D01*
X687894Y369106D02*
X691500Y365500D01*
X685323Y369106D02*
X687894D01*
X685470Y374077D02*
X691923D01*
X699295Y366705D01*
X685323Y374224D02*
X685470Y374077D01*
X701709Y355610D02*
Y366705D01*
X699295D02*
X701709D01*
Y372610D02*
X704969D01*
X710220Y357000D02*
Y367358D01*
X704969Y372610D02*
X710220Y367358D01*
X654291Y390287D02*
Y402000D01*
X657559Y387020D02*
X662094D01*
X654291Y390287D02*
X657559Y387020D01*
X654291Y402000D02*
X654370Y402079D01*
X662094D01*
Y389579D02*
Y396579D01*
Y389579D02*
X662094Y389579D01*
X668000Y396579D02*
Y402079D01*
X685000Y389902D02*
X685323Y389579D01*
X685000Y389902D02*
Y391579D01*
X668000Y396579D02*
X680000D01*
X685000Y391579D01*
X662094Y407579D02*
Y407972D01*
X668000Y402079D02*
Y407579D01*
X662047Y413126D02*
X662094Y413079D01*
X662047Y413126D02*
Y418032D01*
X662000Y418079D02*
X662047Y418032D01*
X668000Y407579D02*
Y413079D01*
X673024Y402102D02*
Y407555D01*
X673000Y402079D02*
X673024Y402102D01*
Y407555D02*
X673047Y407579D01*
X678953Y407185D02*
Y407579D01*
X685323Y387020D02*
X685461Y387158D01*
X678953Y407579D02*
Y413079D01*
X685461Y387158D02*
X688658D01*
X690500Y389000D01*
X678953Y407185D02*
X690500Y395638D01*
Y389000D02*
Y395638D01*
X685323Y379343D02*
X685415Y379250D01*
X691116D01*
X691866Y380000D02*
X693500D01*
X691116Y379250D02*
X691866Y380000D01*
X693500D02*
X698551D01*
X699709Y378842D01*
X685323Y381902D02*
X691705D01*
X694512Y384708D01*
Y385457D01*
X698528Y389472D01*
X699709D01*
X661947Y382049D02*
X662094Y381902D01*
X657895Y382079D02*
X657924Y382049D01*
X646209Y383063D02*
X647193Y382079D01*
X657924Y382049D02*
X661947D01*
X646000Y383272D02*
X646209Y383063D01*
X635595Y363362D02*
X635894Y363063D01*
X635595Y363362D02*
Y369079D01*
Y383047D01*
X635579Y383063D02*
X635595Y383047D01*
X646524Y363063D02*
X650579D01*
X656622Y369106D01*
X662094D01*
X312825Y212421D02*
X312906D01*
X308856Y208453D02*
X312825Y212421D01*
X306906Y208453D02*
X308856D01*
X307053Y198069D02*
X313758D01*
X313906Y197921D01*
X306906Y198216D02*
X307053Y198069D01*
X306906Y185421D02*
X308776D01*
X311194Y181806D02*
Y183003D01*
X308776Y185421D02*
X311194Y183003D01*
Y181806D02*
X311500Y181500D01*
X269657Y205343D02*
X276658Y198343D01*
X283551D01*
X264551Y205343D02*
X269657D01*
X283551Y198343D02*
X283677Y198216D01*
X258780Y237528D02*
X262500Y233807D01*
Y207394D02*
X264551Y205343D01*
X262500Y207394D02*
Y233807D01*
X321898Y198984D02*
X322291D01*
X320406Y200421D02*
X320461D01*
X321898Y198984D01*
X320051Y200776D02*
X320406Y200421D01*
X306906Y200776D02*
X320051D01*
X321898Y204890D02*
X322291D01*
X320429Y203421D02*
X321898Y204890D01*
X306992Y203421D02*
X320429D01*
X306906Y203335D02*
X306992Y203421D01*
X279097Y203403D02*
X283609D01*
X283677Y203335D01*
X273500Y209000D02*
X279097Y203403D01*
X255500Y180728D02*
X255728Y180500D01*
X260000D01*
X278488Y190539D02*
X283677D01*
X277500Y189551D02*
X278488Y190539D01*
X277500Y189026D02*
Y189551D01*
X251000Y193500D02*
X260000D01*
X248000Y196500D02*
X251000Y193500D01*
X277500Y209500D02*
X281106Y205894D01*
X283677D01*
X277077Y200923D02*
X283529D01*
X269705Y208295D02*
X277077Y200923D01*
X283529D02*
X283677Y200776D01*
X267291Y208295D02*
Y219390D01*
Y208295D02*
X269705D01*
X264032Y202390D02*
X267291D01*
X258780Y207642D02*
Y218000D01*
Y207642D02*
X264032Y202390D01*
X314709Y173000D02*
Y184713D01*
X311441Y187980D02*
X314709Y184713D01*
X306906Y187980D02*
X311441D01*
X306906Y172921D02*
X314630D01*
X314709Y173000D01*
X306906Y178421D02*
Y185421D01*
X306906Y185421D02*
X306906Y185421D01*
X301000Y172921D02*
Y178421D01*
X283677Y185421D02*
X284000Y185098D01*
Y183421D02*
Y185098D01*
X289000Y178421D02*
X301000D01*
X284000Y183421D02*
X289000Y178421D01*
X306906Y167028D02*
Y167421D01*
X301000D02*
Y172921D01*
X306953Y156968D02*
X307000Y156921D01*
X306906Y161921D02*
X306953Y161874D01*
Y156968D02*
Y161874D01*
X301000Y161921D02*
Y167421D01*
X295976Y172898D02*
X296000Y172921D01*
X295976Y167445D02*
Y172898D01*
X295953Y167421D02*
X295976Y167445D01*
X290047Y167421D02*
Y167815D01*
X283539Y187843D02*
X283677Y187980D01*
X290047Y161921D02*
Y167421D01*
X280343Y187843D02*
X283539D01*
X278500Y186000D02*
X280343Y187843D01*
X278500Y179362D02*
X290047Y167815D01*
X278500Y179362D02*
Y186000D01*
X283585Y195750D02*
X283677Y195658D01*
X277884Y195750D02*
X283585D01*
X269291Y196158D02*
X270449Y195000D01*
X275500D02*
X277134D01*
X277884Y195750D01*
X270449Y195000D02*
X275500D01*
X277295Y193098D02*
X283677D01*
X274488Y190292D02*
X277295Y193098D01*
X274488Y189543D02*
Y190292D01*
X270472Y185528D02*
X274488Y189543D01*
X269291Y185528D02*
X270472D01*
X307053Y192951D02*
X311076D01*
X311105Y192921D01*
X321807D02*
X322791Y191937D01*
X306906Y193098D02*
X307053Y192951D01*
X322791Y191937D02*
X323000Y191728D01*
X333106Y211937D02*
X333405Y211638D01*
Y205921D02*
Y211638D01*
Y191953D02*
Y205921D01*
Y191953D02*
X333421Y191937D01*
X318421Y211937D02*
X322476D01*
X312378Y205894D02*
X318421Y211937D01*
X306906Y205894D02*
X312378D01*
X440825Y212421D02*
X440906D01*
X436856Y208453D02*
X440825Y212421D01*
X434905Y208453D02*
X436856D01*
X441758Y198069D02*
X441905Y197921D01*
X435053Y198069D02*
X441758D01*
X434905Y198216D02*
X435053Y198069D01*
X434905Y185421D02*
X436776D01*
X439194Y181806D02*
Y183003D01*
X436776Y185421D02*
X439194Y183003D01*
Y181806D02*
X439500Y181500D01*
X397657Y205343D02*
X404658Y198343D01*
X411551D01*
X392551Y205343D02*
X397657D01*
X411551Y198343D02*
X411677Y198216D01*
X386779Y237528D02*
X390500Y233807D01*
Y207394D02*
X392551Y205343D01*
X390500Y207394D02*
Y233807D01*
X449898Y198984D02*
X450291D01*
X448406Y200421D02*
X448461D01*
X449898Y198984D01*
X448051Y200776D02*
X448406Y200421D01*
X434905Y200776D02*
X448051D01*
X449898Y204890D02*
X450291D01*
X448429Y203421D02*
X449898Y204890D01*
X434992Y203421D02*
X448429D01*
X434905Y203335D02*
X434992Y203421D01*
X407097Y203403D02*
X411609D01*
X411677Y203335D01*
X401500Y209000D02*
X407097Y203403D01*
X383500Y180728D02*
X383728Y180500D01*
X388000D01*
X406488Y190539D02*
X411677D01*
X405500Y189551D02*
X406488Y190539D01*
X405500Y189026D02*
Y189551D01*
X379000Y193500D02*
X388000D01*
X376000Y196500D02*
X379000Y193500D01*
X405500Y209500D02*
X409106Y205894D01*
X411677D01*
X405077Y200923D02*
X411529D01*
X397705Y208295D02*
X405077Y200923D01*
X411529D02*
X411677Y200776D01*
X395291Y208295D02*
X397705D01*
X395291D02*
Y219390D01*
X392032Y202390D02*
X395291D01*
X386779Y207642D02*
Y218000D01*
Y207642D02*
X392032Y202390D01*
X434905Y187980D02*
X439441D01*
X442709Y173000D02*
Y184713D01*
X439441Y187980D02*
X442709Y184713D01*
X434905Y172921D02*
X442630D01*
X442709Y173000D01*
X434905Y178421D02*
Y185421D01*
X434905Y185421D02*
X434905Y185421D01*
X429000Y172921D02*
Y178421D01*
X411677Y185421D02*
X412000Y185098D01*
Y183421D02*
Y185098D01*
X417000Y178421D02*
X429000D01*
X412000Y183421D02*
X417000Y178421D01*
X434905Y167028D02*
Y167421D01*
X429000D02*
Y172921D01*
X434953Y156968D02*
X435000Y156921D01*
X434905Y161921D02*
X434953Y161874D01*
Y156968D02*
Y161874D01*
X429000Y161921D02*
Y167421D01*
X423976Y172898D02*
X424000Y172921D01*
X423976Y167445D02*
Y172898D01*
X423953Y167421D02*
X423976Y167445D01*
X418047Y167421D02*
Y167815D01*
X411539Y187843D02*
X411677Y187980D01*
X418047Y161921D02*
Y167421D01*
X408343Y187843D02*
X411539D01*
X406500Y186000D02*
X408343Y187843D01*
X406500Y179362D02*
X418047Y167815D01*
X406500Y179362D02*
Y186000D01*
X405884Y195750D02*
X411585D01*
X405134Y195000D02*
X405884Y195750D01*
X411585D02*
X411677Y195658D01*
X397291Y196158D02*
X398449Y195000D01*
X403500D01*
X405134D01*
X405295Y193098D02*
X411677D01*
X402488Y190292D02*
X405295Y193098D01*
X402488Y189543D02*
Y190292D01*
X398472Y185528D02*
X402488Y189543D01*
X397291Y185528D02*
X398472D01*
X435053Y192951D02*
X439076D01*
X439106Y192921D01*
X449807D02*
X450791Y191937D01*
X434905Y193098D02*
X435053Y192951D01*
X450791Y191937D02*
X451000Y191728D01*
X461106Y211937D02*
X461406Y211638D01*
Y205921D02*
Y211638D01*
Y191953D02*
Y205921D01*
Y191953D02*
X461421Y191937D01*
X446421Y211937D02*
X450476D01*
X440378Y205894D02*
X446421Y211937D01*
X434905Y205894D02*
X440378D01*
X690906Y208453D02*
X692856D01*
X697758Y198069D02*
X697905Y197921D01*
X690906Y198216D02*
X691053Y198069D01*
X697758D01*
X653657Y205343D02*
X660658Y198343D01*
X667551D01*
X648551Y205343D02*
X653657D01*
X667551Y198343D02*
X667677Y198216D01*
X642779Y237528D02*
X646500Y233807D01*
Y207394D02*
X648551Y205343D01*
X646500Y207394D02*
Y233807D01*
X705898Y198984D02*
X706291D01*
X704405Y200421D02*
X704461D01*
X705898Y198984D01*
X704051Y200776D02*
X704405Y200421D01*
X690906Y200776D02*
X704051D01*
X705898Y204890D02*
X706291D01*
X704429Y203421D02*
X705898Y204890D01*
X690992Y203421D02*
X704429D01*
X690906Y203335D02*
X690992Y203421D01*
X663097Y203403D02*
X667609D01*
X667677Y203335D01*
X657500Y209000D02*
X663097Y203403D01*
X639500Y180728D02*
X639728Y180500D01*
X644000D01*
X662488Y190539D02*
X667677D01*
X661500Y189551D02*
X662488Y190539D01*
X661500Y189026D02*
Y189551D01*
X635000Y193500D02*
X644000D01*
X632000Y196500D02*
X635000Y193500D01*
X661500Y209500D02*
X665106Y205894D01*
X667677D01*
X661077Y200923D02*
X667529D01*
X653705Y208295D02*
X661077Y200923D01*
X667529D02*
X667677Y200776D01*
X651291Y208295D02*
Y219390D01*
Y208295D02*
X653705D01*
X648032Y202390D02*
X651291D01*
X642779Y207642D02*
Y218000D01*
Y207642D02*
X648032Y202390D01*
X698709Y173000D02*
Y184713D01*
X695441Y187980D02*
X698709Y184713D01*
X698630Y172921D02*
X698709Y173000D01*
X690906Y172921D02*
X698630D01*
X690906Y187980D02*
X695441D01*
X690906Y185421D02*
X690906Y185421D01*
X685000Y172921D02*
Y178421D01*
X667677Y185421D02*
X668000Y185098D01*
Y183421D02*
Y185098D01*
X673000Y178421D02*
X685000D01*
X668000Y183421D02*
X673000Y178421D01*
X690906Y167028D02*
Y167421D01*
X685000D02*
Y172921D01*
X690906Y161921D02*
X690953Y161874D01*
Y156968D02*
Y161874D01*
Y156968D02*
X691000Y156921D01*
X685000Y161921D02*
Y167421D01*
X679976Y167445D02*
Y172898D01*
X680000Y172921D01*
X679953Y167421D02*
X679976Y167445D01*
X674047Y167421D02*
Y167815D01*
X667539Y187843D02*
X667677Y187980D01*
X674047Y161921D02*
Y167421D01*
X664342Y187843D02*
X667539D01*
X662500Y186000D02*
X664342Y187843D01*
X662500Y179362D02*
X674047Y167815D01*
X662500Y179362D02*
Y186000D01*
X667585Y195750D02*
X667677Y195658D01*
X661884Y195750D02*
X667585D01*
X661134Y195000D02*
X661884Y195750D01*
X653291Y196158D02*
X654449Y195000D01*
X659500D01*
X661134D01*
X661295Y193098D02*
X667677D01*
X658488Y190292D02*
X661295Y193098D01*
X658488Y189543D02*
Y190292D01*
X654472Y185528D02*
X658488Y189543D01*
X653291Y185528D02*
X654472D01*
X706791Y191937D02*
X707000Y191728D01*
X695076Y192951D02*
X695106Y192921D01*
X691053Y192951D02*
X695076D01*
X705807Y192921D02*
X706791Y191937D01*
X690906Y193098D02*
X691053Y192951D01*
X717406Y205921D02*
Y211638D01*
Y191953D02*
Y205921D01*
X717106Y211937D02*
X717406Y211638D01*
Y191953D02*
X717421Y191937D01*
X702421Y211937D02*
X706476D01*
X696378Y205894D02*
X702421Y211937D01*
X690906Y205894D02*
X696378D01*
X562906Y178421D02*
Y185421D01*
X576461Y200421D02*
X577898Y198984D01*
X545000Y178421D02*
X557000D01*
X589405Y191953D02*
Y205921D01*
X577807Y192921D02*
X578791Y191937D01*
X518500Y207394D02*
X520551Y205343D01*
X533500Y209500D02*
X537106Y205894D01*
X539677D01*
X568825Y212421D02*
X568905D01*
X564856Y208453D02*
X568825Y212421D01*
X562906Y208453D02*
X564856D01*
X569758Y198069D02*
X569906Y197921D01*
X563053Y198069D02*
X569758D01*
X562906Y198216D02*
X563053Y198069D01*
X562906Y185421D02*
X564776D01*
X567194Y181806D02*
Y183003D01*
X564776Y185421D02*
X567194Y183003D01*
Y181806D02*
X567500Y181500D01*
X562906Y185421D02*
X562906Y185421D01*
X525658Y205343D02*
X532657Y198343D01*
X539551D01*
X520551Y205343D02*
X525658D01*
X539551Y198343D02*
X539677Y198216D01*
X514780Y237528D02*
X518500Y233807D01*
Y207394D02*
Y233807D01*
X577898Y198984D02*
X578291D01*
X576405Y200421D02*
X576461D01*
X576051Y200776D02*
X576405Y200421D01*
X562906Y200776D02*
X576051D01*
X577898Y204890D02*
X578291D01*
X576429Y203421D02*
X577898Y204890D01*
X562992Y203421D02*
X576429D01*
X562906Y203335D02*
X562992Y203421D01*
X535097Y203403D02*
X539609D01*
X539677Y203335D01*
X529500Y209000D02*
X535097Y203403D01*
X511500Y180728D02*
X511728Y180500D01*
X516000D01*
X534488Y190539D02*
X539677D01*
X533500Y189551D02*
X534488Y190539D01*
X533500Y189026D02*
Y189551D01*
X507000Y193500D02*
X516000D01*
X504000Y196500D02*
X507000Y193500D01*
X533077Y200923D02*
X539530D01*
X525705Y208295D02*
X533077Y200923D01*
X539530D02*
X539677Y200776D01*
X523291Y208295D02*
X525705D01*
X523291D02*
Y219390D01*
X520031Y202390D02*
X523291D01*
X514780Y207642D02*
Y218000D01*
Y207642D02*
X520031Y202390D01*
X570709Y173000D02*
Y184713D01*
X570630Y172921D02*
X570709Y173000D01*
X567441Y187980D02*
X570709Y184713D01*
X562906Y172921D02*
X570630D01*
X562906Y187980D02*
X567441D01*
X557000Y172921D02*
Y178421D01*
X539677Y185421D02*
X540000Y185098D01*
Y183421D02*
Y185098D01*
Y183421D02*
X545000Y178421D01*
X562906Y167028D02*
Y167421D01*
X557000D02*
Y172921D01*
X562906Y161921D02*
X562953Y161874D01*
Y156968D02*
Y161874D01*
Y156968D02*
X563000Y156921D01*
X557000Y161921D02*
Y167421D01*
X551976Y172898D02*
X552000Y172921D01*
X551976Y167445D02*
Y172898D01*
X551953Y167421D02*
X551976Y167445D01*
X546047Y167421D02*
Y167815D01*
X539539Y187843D02*
X539677Y187980D01*
X546047Y161921D02*
Y167421D01*
X536342Y187843D02*
X539539D01*
X534500Y186000D02*
X536342Y187843D01*
X534500Y179362D02*
X546047Y167815D01*
X534500Y179362D02*
Y186000D01*
X525291Y196158D02*
X526449Y195000D01*
X539585Y195750D02*
X539677Y195658D01*
X533884Y195750D02*
X539585D01*
X533134Y195000D02*
X533884Y195750D01*
X531500Y195000D02*
X533134D01*
X526449D02*
X531500D01*
X533295Y193098D02*
X539677D01*
X530488Y190292D02*
X533295Y193098D01*
X530488Y189543D02*
Y190292D01*
X526472Y185528D02*
X530488Y189543D01*
X525291Y185528D02*
X526472D01*
X578791Y191937D02*
X579000Y191728D01*
X563053Y192951D02*
X567076D01*
X562906Y193098D02*
X563053Y192951D01*
X567076D02*
X567105Y192921D01*
X589405Y205921D02*
Y211638D01*
X589106Y211937D02*
X589405Y211638D01*
Y191953D02*
X589421Y191937D01*
X574421Y211937D02*
X578476D01*
X568378Y205894D02*
X574421Y211937D01*
X562906Y205894D02*
X568378D01*
X813965Y163279D02*
X814112Y163132D01*
X818435D01*
X819567Y162000D01*
X813965Y160721D02*
X814112Y160868D01*
X818435D01*
X819567Y162000D01*
X820000D01*
X796888Y165691D02*
X797035Y165839D01*
X792624Y165691D02*
X796888D01*
X791433Y164500D02*
X792624Y165691D01*
X796888Y163427D02*
X797035Y163279D01*
X792506Y163427D02*
X796888D01*
X791433Y164500D02*
X792506Y163427D01*
X791000Y164500D02*
X791433D01*
X785535Y160721D02*
X797035D01*
X785315Y160500D02*
X785535Y160721D01*
X785315Y160500D02*
X785547Y160268D01*
Y151000D02*
Y160268D01*
X790567Y164500D02*
X791000D01*
X789567Y165500D02*
X790567Y164500D01*
X778504Y165500D02*
X789567D01*
X774685Y160500D02*
Y161681D01*
X778504Y165500D01*
X814465Y348780D02*
X814612Y348632D01*
X818935D01*
X820067Y347500D01*
X814465Y346220D02*
X814612Y346368D01*
X818935D01*
X820067Y347500D01*
X820500D01*
X797388Y348927D02*
X797535Y348780D01*
X793006Y348927D02*
X797388D01*
X791933Y350000D02*
X793006Y348927D01*
X797388Y351191D02*
X797535Y351339D01*
X793124Y351191D02*
X797388D01*
X791933Y350000D02*
X793124Y351191D01*
X791500Y350000D02*
X791933D01*
X791067D02*
X791500D01*
X790067Y351000D02*
X791067Y350000D01*
X778504Y351000D02*
X790067D01*
X775185Y346500D02*
Y347681D01*
X778504Y351000D01*
X786095Y346220D02*
X797535D01*
X785815Y346500D02*
X786047Y346268D01*
Y336000D02*
Y346268D01*
X786095Y346220D01*
X814465Y351339D02*
Y366667D01*
X814167Y366965D02*
X814465Y366667D01*
X813965Y165839D02*
Y182262D01*
X814167Y182465D01*
X717953Y292000D02*
X717953Y292000D01*
X717953Y282000D02*
X717976Y282024D01*
Y286976D01*
X718000Y287000D01*
X813965Y152535D02*
X814000Y152500D01*
X814465Y337535D02*
X814500Y337500D01*
D24*
X791953Y338079D02*
X797535Y343661D01*
X791953Y336000D02*
Y338079D01*
X791453Y152579D02*
X797035Y158161D01*
X791453Y151000D02*
Y152579D01*
X813965Y152535D02*
Y158161D01*
X814465Y337535D02*
Y343661D01*
D25*
X339500Y394272D02*
X344500D01*
X334500D02*
X339500D01*
X337000Y362500D02*
Y378500D01*
Y362500D02*
X342500Y357000D01*
X317709Y419622D02*
X334500Y402831D01*
Y394272D02*
Y402831D01*
X321772Y438000D02*
X344000D01*
X317709Y442063D02*
X321772Y438000D01*
X321008Y422921D02*
X344000D01*
X317709Y419622D02*
X321008Y422921D01*
X467500Y394272D02*
X472500D01*
X462500D02*
X467500D01*
X465000Y362500D02*
Y378500D01*
Y362500D02*
X470500Y357000D01*
X445709Y419622D02*
X462500Y402831D01*
Y394272D02*
Y402831D01*
X449772Y438000D02*
X472000D01*
X445709Y442063D02*
X449772Y438000D01*
X449008Y422921D02*
X472000D01*
X445709Y419622D02*
X449008Y422921D01*
X595500Y394272D02*
X600500D01*
X590500D02*
X595500D01*
X593000Y362500D02*
Y378500D01*
Y362500D02*
X598500Y357000D01*
X573709Y419622D02*
X590500Y402831D01*
Y394272D02*
Y402831D01*
X573709Y442063D02*
X577772Y438000D01*
X600000D01*
X577008Y422921D02*
X600000D01*
X573709Y419622D02*
X577008Y422921D01*
X391228Y137000D02*
X395291Y132937D01*
X391992Y152079D02*
X395291Y155378D01*
X378500Y172169D02*
X395291Y155378D01*
X723500Y394272D02*
X728500D01*
X718500D02*
X723500D01*
X721000Y362500D02*
X726500Y357000D01*
X721000Y362500D02*
Y378500D01*
X701709Y419622D02*
X718500Y402831D01*
Y394272D02*
Y402831D01*
X701709Y442063D02*
X705772Y438000D01*
X728000D01*
X701709Y419622D02*
X705008Y422921D01*
X728000D01*
X240500Y180728D02*
X245500D01*
X250500D01*
X242500Y218000D02*
X248000Y212500D01*
Y196500D02*
Y212500D01*
X250500Y172169D02*
X267291Y155378D01*
X250500Y172169D02*
Y180728D01*
X263228Y137000D02*
X267291Y132937D01*
X241000Y137000D02*
X263228D01*
X263992Y152079D02*
X267291Y155378D01*
X241000Y152079D02*
X263992D01*
X368500Y180728D02*
X373500D01*
X378500D01*
X370500Y218000D02*
X376000Y212500D01*
Y196500D02*
Y212500D01*
X378500Y172169D02*
Y180728D01*
X369000Y137000D02*
X391228D01*
X369000Y152079D02*
X391992D01*
X624500Y180728D02*
X629500D01*
X634500D01*
X626500Y218000D02*
X632000Y212500D01*
Y196500D02*
Y212500D01*
X634500Y172169D02*
X651291Y155378D01*
X634500Y172169D02*
Y180728D01*
X647228Y137000D02*
X651291Y132937D01*
X625000Y137000D02*
X647228D01*
X647992Y152079D02*
X651291Y155378D01*
X625000Y152079D02*
X647992D01*
X496500Y180728D02*
X501500D01*
X506500D01*
Y172169D02*
X523291Y155378D01*
X506500Y172169D02*
Y180728D01*
X498500Y218000D02*
X504000Y212500D01*
Y196500D02*
Y212500D01*
X497000Y137000D02*
X519228D01*
X523291Y132937D01*
X519992Y152079D02*
X523291Y155378D01*
X497000Y152079D02*
X519992D01*
D26*
X791532Y383500D02*
D03*
Y199000D02*
D03*
D27*
X770075Y383500D02*
D03*
Y199000D02*
D03*
D28*
X810232Y385862D02*
D03*
Y201362D02*
D03*
D29*
X258780Y291342D02*
D03*
Y286421D02*
D03*
Y281500D02*
D03*
D30*
Y276579D02*
D03*
D31*
X395291Y155378D02*
D03*
Y132937D02*
D03*
X651291Y155378D02*
D03*
Y132937D02*
D03*
X523291Y155378D02*
D03*
Y132937D02*
D03*
X267291Y155378D02*
D03*
Y132937D02*
D03*
X317709Y419622D02*
D03*
Y442063D02*
D03*
X445709Y419622D02*
D03*
Y442063D02*
D03*
X573709Y419622D02*
D03*
Y442063D02*
D03*
X701709Y419622D02*
D03*
Y442063D02*
D03*
D32*
X893933Y461799D02*
D03*
Y298571D02*
D03*
X858500Y439240D02*
D03*
X838815D02*
D03*
Y399870D02*
D03*
X858500D02*
D03*
Y360500D02*
D03*
X838815D02*
D03*
Y321130D02*
D03*
X858500D02*
D03*
X893433Y277299D02*
D03*
Y114071D02*
D03*
X858000Y254740D02*
D03*
X838315D02*
D03*
Y215370D02*
D03*
X858000D02*
D03*
Y176000D02*
D03*
X838315D02*
D03*
Y136630D02*
D03*
X858000D02*
D03*
D33*
X732000Y292000D02*
D03*
D34*
Y282000D02*
D03*
D35*
X255000Y440000D02*
D03*
X335000Y135000D02*
D03*
X767500D02*
D03*
Y450000D02*
D03*
D36*
X767000Y263779D02*
D03*
Y241339D02*
D03*
Y308661D02*
D03*
Y286221D02*
D03*
D37*
X761724Y252559D02*
D03*
Y297441D02*
D03*
D38*
X696906Y212421D02*
D03*
X267500Y382000D02*
D03*
X395000D02*
D03*
X317000Y193000D02*
D03*
X712000Y287000D02*
D03*
X272094Y362579D02*
D03*
X271094Y377079D02*
D03*
X273500Y393500D02*
D03*
X325000Y394500D02*
D03*
X311500Y366000D02*
D03*
X325000Y381500D02*
D03*
X307500Y385974D02*
D03*
Y365500D02*
D03*
X270291Y402000D02*
D03*
X278000Y418079D02*
D03*
X289000Y402079D02*
D03*
X309500Y380000D02*
D03*
X251594Y369079D02*
D03*
X400095Y362579D02*
D03*
X399095Y377079D02*
D03*
X401500Y393500D02*
D03*
X453000Y394500D02*
D03*
X439500Y366000D02*
D03*
X453000Y381500D02*
D03*
X435500Y385974D02*
D03*
Y365500D02*
D03*
X398291Y402000D02*
D03*
X406000Y418079D02*
D03*
X417000Y402079D02*
D03*
X437500Y380000D02*
D03*
X379594Y369079D02*
D03*
X528094Y362579D02*
D03*
X527095Y377079D02*
D03*
X529500Y393500D02*
D03*
X581000Y394500D02*
D03*
X567500Y366000D02*
D03*
X581000Y381500D02*
D03*
X563500Y385974D02*
D03*
Y365500D02*
D03*
X526291Y402000D02*
D03*
X534000Y418079D02*
D03*
X545000Y402079D02*
D03*
X565500Y380000D02*
D03*
X524000Y382000D02*
D03*
X507594Y369079D02*
D03*
X656095Y362579D02*
D03*
X655094Y377079D02*
D03*
X657500Y393500D02*
D03*
X695500Y366000D02*
D03*
X709000Y394500D02*
D03*
X691500Y385974D02*
D03*
X709000Y381500D02*
D03*
X691500Y365500D02*
D03*
X654291Y402000D02*
D03*
X662000Y418079D02*
D03*
X673000Y402079D02*
D03*
X693500Y380000D02*
D03*
X651500Y382000D02*
D03*
X635595Y369079D02*
D03*
X312906Y212421D02*
D03*
X313906Y197921D02*
D03*
X311500Y181500D02*
D03*
X273500Y209000D02*
D03*
X260000Y180500D02*
D03*
X277500Y189026D02*
D03*
X260000Y193500D02*
D03*
X277500Y209500D02*
D03*
X314709Y173000D02*
D03*
X307000Y156921D02*
D03*
X296000Y172921D02*
D03*
X275500Y195000D02*
D03*
X333405Y205921D02*
D03*
X440906Y212421D02*
D03*
X441905Y197921D02*
D03*
X439500Y181500D02*
D03*
X401500Y209000D02*
D03*
X388000Y180500D02*
D03*
X405500Y189026D02*
D03*
X388000Y193500D02*
D03*
X405500Y209500D02*
D03*
X442709Y173000D02*
D03*
X435000Y156921D02*
D03*
X424000Y172921D02*
D03*
X403500Y195000D02*
D03*
X445500Y193000D02*
D03*
X461406Y205921D02*
D03*
X697905Y197921D02*
D03*
X695500Y181500D02*
D03*
X657500Y209000D02*
D03*
X644000Y180500D02*
D03*
X661500Y189026D02*
D03*
X644000Y193500D02*
D03*
X661500Y209500D02*
D03*
X698709Y173000D02*
D03*
X691000Y156921D02*
D03*
X680000Y172921D02*
D03*
X659500Y195000D02*
D03*
X701500Y193000D02*
D03*
X717406Y205921D02*
D03*
X533500Y209500D02*
D03*
X568905Y212421D02*
D03*
X569906Y197921D02*
D03*
X567500Y181500D02*
D03*
X529500Y209000D02*
D03*
X516000Y180500D02*
D03*
X533500Y189026D02*
D03*
X516000Y193500D02*
D03*
X570709Y173000D02*
D03*
X563000Y156921D02*
D03*
X552000Y172921D02*
D03*
X531500Y195000D02*
D03*
X573500Y193000D02*
D03*
X589405Y205921D02*
D03*
X820000Y162000D02*
D03*
X791000Y164500D02*
D03*
X791500Y350000D02*
D03*
X820500Y347500D02*
D03*
X718000Y287000D02*
D03*
M02*
