G04 Layer_Color=65535*
%FSLAX25Y25*%
%MOIN*%
G70*
G01*
G75*
%ADD23C,0.01000*%
%ADD39C,0.00984*%
%ADD40C,0.01575*%
%ADD41C,0.02362*%
%ADD42C,0.00787*%
%ADD43C,0.00600*%
%ADD44C,0.00394*%
D23*
X413677Y102346D02*
Y170378D01*
X376905Y102346D02*
X413677D01*
X376905D02*
Y170378D01*
X413677D01*
X629291Y135484D02*
X630709D01*
X629291Y153595D02*
X630709D01*
X619291D02*
X620709D01*
X619291Y135484D02*
X620709D01*
X630709D02*
Y153595D01*
X619291Y135484D02*
Y153595D01*
X501291Y135484D02*
X502709D01*
X501291Y153595D02*
X502709D01*
X491291D02*
X492709D01*
X491291Y135484D02*
X492709D01*
X502709D02*
Y153595D01*
X491291Y135484D02*
Y153595D01*
X373291Y135484D02*
X374709D01*
X373291Y153595D02*
X374709D01*
X363291D02*
X364709D01*
X363291Y135484D02*
X364709D01*
X374709D02*
Y153595D01*
X363291Y135484D02*
Y153595D01*
X245291Y135484D02*
X246709D01*
X245291Y153595D02*
X246709D01*
X235291D02*
X236709D01*
X235291Y135484D02*
X236709D01*
X246709D02*
Y153595D01*
X235291Y135484D02*
Y153595D01*
X338291Y439516D02*
X339709D01*
X338291Y421406D02*
X339709D01*
X348291D02*
X349709D01*
X348291Y439516D02*
X349709D01*
X338291Y421406D02*
Y439516D01*
X349709Y421406D02*
Y439516D01*
X466291D02*
X467709D01*
X466291Y421406D02*
X467709D01*
X476291D02*
X477709D01*
X476291Y439516D02*
X477709D01*
X466291Y421406D02*
Y439516D01*
X477709Y421406D02*
Y439516D01*
X594291D02*
X595709D01*
X594291Y421406D02*
X595709D01*
X604291D02*
X605709D01*
X604291Y439516D02*
X605709D01*
X594291Y421406D02*
Y439516D01*
X605709Y421406D02*
Y439516D01*
X722291D02*
X723709D01*
X722291Y421406D02*
X723709D01*
X732291D02*
X733709D01*
X732291Y439516D02*
X733709D01*
X722291Y421406D02*
Y439516D01*
X733709Y421406D02*
Y439516D01*
X669677Y102346D02*
Y170378D01*
X632905Y102346D02*
X669677D01*
X632905D02*
Y170378D01*
X669677D01*
X541677Y102346D02*
Y170378D01*
X504906Y102346D02*
X541677D01*
X504906D02*
Y170378D01*
X541677D01*
X285677Y102346D02*
Y170378D01*
X248905Y102346D02*
X285677D01*
X248905D02*
Y170378D01*
X285677D01*
X299323Y404622D02*
Y472654D01*
X336094D01*
Y404622D02*
Y472654D01*
X299323Y404622D02*
X336094D01*
X427323D02*
Y472654D01*
X464094D01*
Y404622D02*
Y472654D01*
X427323Y404622D02*
X464094D01*
X555323D02*
Y472654D01*
X592095D01*
Y404622D02*
Y472654D01*
X555323Y404622D02*
X592095D01*
X683323D02*
Y472654D01*
X720094D01*
Y404622D02*
Y472654D01*
X683323Y404622D02*
X720094D01*
X750327Y223012D02*
X800815D01*
X800976Y223173D01*
Y327287D01*
X750189Y223224D02*
Y327287D01*
X800976D01*
X257629Y296529D02*
Y302527D01*
X260629D01*
X261628Y301527D01*
Y299528D01*
X260629Y298528D01*
X257629D01*
X267626Y302527D02*
X263628D01*
Y299528D01*
X265627Y300527D01*
X266627D01*
X267626Y299528D01*
Y297528D01*
X266627Y296529D01*
X264627D01*
X263628Y297528D01*
D39*
X822335Y366965D02*
G03*
X822335Y366965I-492J0D01*
G01*
X814957Y340610D02*
G03*
X814957Y340610I-492J0D01*
G01*
X814457Y155110D02*
G03*
X814457Y155110I-492J0D01*
G01*
X691398Y182370D02*
G03*
X691398Y182370I-492J0D01*
G01*
X563398Y182370D02*
G03*
X563398Y182370I-492J0D01*
G01*
X435398D02*
G03*
X435398Y182370I-492J0D01*
G01*
X307398D02*
G03*
X307398Y182370I-492J0D01*
G01*
X278587Y392630D02*
G03*
X278587Y392630I-492J0D01*
G01*
X406587D02*
G03*
X406587Y392630I-492J0D01*
G01*
X534587D02*
G03*
X534587Y392630I-492J0D01*
G01*
X662587D02*
G03*
X662587Y392630I-492J0D01*
G01*
X822335Y182465D02*
G03*
X822335Y182465I-492J0D01*
G01*
D40*
X807378Y344547D02*
G03*
X807378Y344547I-787J0D01*
G01*
X806878Y159047D02*
G03*
X806878Y159047I-787J0D01*
G01*
D41*
X683819Y187882D02*
G03*
X683819Y187882I-1181J0D01*
G01*
X555819Y187882D02*
G03*
X555819Y187882I-1181J0D01*
G01*
X427819D02*
G03*
X427819Y187882I-1181J0D01*
G01*
X299819D02*
G03*
X299819Y187882I-1181J0D01*
G01*
X287543Y387118D02*
G03*
X287543Y387118I-1181J0D01*
G01*
X415543D02*
G03*
X415543Y387118I-1181J0D01*
G01*
X543543D02*
G03*
X543543Y387118I-1181J0D01*
G01*
X671543D02*
G03*
X671543Y387118I-1181J0D01*
G01*
D42*
X778925Y349453D02*
X782075D01*
X778925Y343547D02*
X782075D01*
X778425Y163453D02*
X781575D01*
X778425Y157547D02*
X781575D01*
X710217Y208984D02*
X713366D01*
X710217Y214890D02*
X713366D01*
X582217Y208984D02*
X585366D01*
X582217Y214890D02*
X585366D01*
X454216Y208984D02*
X457366D01*
X454216Y214890D02*
X457366D01*
X326217Y208984D02*
X329366D01*
X326217Y214890D02*
X329366D01*
X255634Y366016D02*
X258784D01*
X255634Y360110D02*
X258784D01*
X383634Y366016D02*
X386784D01*
X383634Y360110D02*
X386784D01*
X511634Y366016D02*
X514783D01*
X511634Y360110D02*
X514783D01*
X639634Y366016D02*
X642783D01*
X639634Y360110D02*
X642783D01*
X710532Y188984D02*
X713681D01*
X710532Y194890D02*
X713681D01*
X582531Y188984D02*
X585681D01*
X582531Y194890D02*
X585681D01*
X454531Y188984D02*
X457681D01*
X454531Y194890D02*
X457681D01*
X326532Y188984D02*
X329681D01*
X326532Y194890D02*
X329681D01*
X255319Y386016D02*
X258469D01*
X255319Y380110D02*
X258469D01*
X383319Y386016D02*
X386469D01*
X383319Y380110D02*
X386469D01*
X511319Y386016D02*
X514468D01*
X511319Y380110D02*
X514468D01*
X639319Y386016D02*
X642469D01*
X639319Y380110D02*
X642469D01*
X656244Y189268D02*
Y192417D01*
X650339Y189268D02*
Y192417D01*
X528244Y189268D02*
Y192417D01*
X522339Y189268D02*
Y192417D01*
X400244Y189268D02*
Y192417D01*
X394339Y189268D02*
Y192417D01*
X272244Y189268D02*
Y192417D01*
X266339Y189268D02*
Y192417D01*
X312756Y382583D02*
Y385732D01*
X318661Y382583D02*
Y385732D01*
X440756Y382583D02*
Y385732D01*
X446661Y382583D02*
Y385732D01*
X568756Y382583D02*
Y385732D01*
X574661Y382583D02*
Y385732D01*
X696756Y382583D02*
Y385732D01*
X702661Y382583D02*
Y385732D01*
X676213Y166043D02*
X677787D01*
X676213Y168799D02*
X677787D01*
X548213Y166043D02*
X549787D01*
X548213Y168799D02*
X549787D01*
X420213Y166043D02*
X421787D01*
X420213Y168799D02*
X421787D01*
X292213Y166043D02*
X293787D01*
X292213Y168799D02*
X293787D01*
X291213Y408957D02*
X292787D01*
X291213Y406201D02*
X292787D01*
X419213Y408957D02*
X420787D01*
X419213Y406201D02*
X420787D01*
X547213Y408957D02*
X548787D01*
X547213Y406201D02*
X548787D01*
X675213Y408957D02*
X676787D01*
X675213Y406201D02*
X676787D01*
X676213Y160543D02*
X677787D01*
X676213Y163299D02*
X677787D01*
X548213Y160543D02*
X549787D01*
X548213Y163299D02*
X549787D01*
X420213Y160543D02*
X421787D01*
X420213Y163299D02*
X421787D01*
X292213Y160543D02*
X293787D01*
X292213Y163299D02*
X293787D01*
X291213Y414457D02*
X292787D01*
X291213Y411701D02*
X292787D01*
X419213Y414457D02*
X420787D01*
X419213Y411701D02*
X420787D01*
X547213Y414457D02*
X548787D01*
X547213Y411701D02*
X548787D01*
X675213Y414457D02*
X676787D01*
X675213Y411701D02*
X676787D01*
X687165Y160543D02*
X688740D01*
X687165Y163299D02*
X688740D01*
X559165Y160543D02*
X560740D01*
X559165Y163299D02*
X560740D01*
X431165Y160543D02*
X432740D01*
X431165Y163299D02*
X432740D01*
X303165Y160543D02*
X304740D01*
X303165Y163299D02*
X304740D01*
X280260Y414457D02*
X281835D01*
X280260Y411701D02*
X281835D01*
X408260Y414457D02*
X409835D01*
X408260Y411701D02*
X409835D01*
X536260Y414457D02*
X537835D01*
X536260Y411701D02*
X537835D01*
X664260Y414457D02*
X665835D01*
X664260Y411701D02*
X665835D01*
X687165Y166043D02*
X688740D01*
X687165Y168799D02*
X688740D01*
X559165Y166043D02*
X560740D01*
X559165Y168799D02*
X560740D01*
X431165Y166043D02*
X432740D01*
X431165Y168799D02*
X432740D01*
X303165Y166043D02*
X304740D01*
X303165Y168799D02*
X304740D01*
X280260Y408957D02*
X281835D01*
X280260Y406201D02*
X281835D01*
X408260Y408957D02*
X409835D01*
X408260Y406201D02*
X409835D01*
X536260Y408957D02*
X537835D01*
X536260Y406201D02*
X537835D01*
X664260Y408957D02*
X665835D01*
X664260Y406201D02*
X665835D01*
X687165Y177043D02*
X688740D01*
X687165Y179799D02*
X688740D01*
X559165Y177043D02*
X560740D01*
X559165Y179799D02*
X560740D01*
X431165Y177043D02*
X432740D01*
X431165Y179799D02*
X432740D01*
X303165Y177043D02*
X304740D01*
X303165Y179799D02*
X304740D01*
X280260Y397957D02*
X281835D01*
X280260Y395201D02*
X281835D01*
X408260Y397957D02*
X409835D01*
X408260Y395201D02*
X409835D01*
X536260Y397957D02*
X537835D01*
X536260Y395201D02*
X537835D01*
X664260Y397957D02*
X665835D01*
X664260Y395201D02*
X665835D01*
X687165Y171543D02*
X688740D01*
X687165Y174299D02*
X688740D01*
X559165Y171543D02*
X560740D01*
X559165Y174299D02*
X560740D01*
X431165Y171543D02*
X432740D01*
X431165Y174299D02*
X432740D01*
X303165Y171543D02*
X304740D01*
X303165Y174299D02*
X304740D01*
X280260Y403457D02*
X281835D01*
X280260Y400701D02*
X281835D01*
X408260Y403457D02*
X409835D01*
X408260Y400701D02*
X409835D01*
X536260Y403457D02*
X537835D01*
X536260Y400701D02*
X537835D01*
X664260Y403457D02*
X665835D01*
X664260Y400701D02*
X665835D01*
X652669Y204555D02*
Y206130D01*
X649913Y204555D02*
Y206130D01*
X524669Y204555D02*
Y206130D01*
X521913Y204555D02*
Y206130D01*
X396669Y204555D02*
Y206130D01*
X393913Y204555D02*
Y206130D01*
X268669Y204555D02*
Y206130D01*
X265913Y204555D02*
Y206130D01*
X316331Y368870D02*
Y370445D01*
X319087Y368870D02*
Y370445D01*
X444331Y368870D02*
Y370445D01*
X447087Y368870D02*
Y370445D01*
X572331Y368870D02*
Y370445D01*
X575087Y368870D02*
Y370445D01*
X700331Y368870D02*
Y370445D01*
X703087Y368870D02*
Y370445D01*
X652669Y222055D02*
Y223630D01*
X649913Y222055D02*
Y223630D01*
X524669Y222055D02*
Y223630D01*
X521913Y222055D02*
Y223630D01*
X396669Y222055D02*
Y223630D01*
X393913Y222055D02*
Y223630D01*
X268669Y222055D02*
Y223630D01*
X265913Y222055D02*
Y223630D01*
X316331Y351370D02*
Y352945D01*
X319087Y351370D02*
Y352945D01*
X444331Y351370D02*
Y352945D01*
X447087Y351370D02*
Y352945D01*
X572331Y351370D02*
Y352945D01*
X575087Y351370D02*
Y352945D01*
X700331Y351370D02*
Y352945D01*
X703087Y351370D02*
Y352945D01*
X727000Y277000D02*
Y297000D01*
Y277000D02*
X737000D01*
Y297000D01*
X727000D02*
X737000D01*
X774405Y404169D02*
X816482D01*
X774405Y402201D02*
Y404169D01*
X816482Y403185D02*
Y404169D01*
Y362831D02*
Y363815D01*
X774405Y362831D02*
Y364799D01*
Y362831D02*
X816482D01*
X788213Y334622D02*
X789787D01*
X788213Y337378D02*
X789787D01*
X787713Y149622D02*
X789287D01*
X787713Y152378D02*
X789287D01*
X714213Y290622D02*
X715787D01*
X714213Y293378D02*
X715787D01*
X714213Y283378D02*
X715787D01*
X714213Y280622D02*
X715787D01*
X704913Y201150D02*
Y202724D01*
X707669Y201150D02*
Y202724D01*
X576913Y201150D02*
Y202724D01*
X579669Y201150D02*
Y202724D01*
X448913Y201150D02*
Y202724D01*
X451669Y201150D02*
Y202724D01*
X320913Y201150D02*
Y202724D01*
X323669Y201150D02*
Y202724D01*
X264087Y372276D02*
Y373850D01*
X261331Y372276D02*
Y373850D01*
X392087Y372276D02*
Y373850D01*
X389331Y372276D02*
Y373850D01*
X520087Y372276D02*
Y373850D01*
X517331Y372276D02*
Y373850D01*
X648087Y372276D02*
Y373850D01*
X645331Y372276D02*
Y373850D01*
X802260Y353602D02*
X809740D01*
X802260Y341398D02*
X809740D01*
X802260D02*
Y353602D01*
X809740Y341398D02*
Y353602D01*
X801760Y168102D02*
X809240D01*
X801760Y155898D02*
X809240D01*
X801760D02*
Y168102D01*
X809240Y155898D02*
Y168102D01*
X672008Y209929D02*
X686575D01*
X672008Y183945D02*
X686575D01*
X672008D02*
Y209929D01*
X686575Y183945D02*
Y209929D01*
X544008Y209929D02*
X558575D01*
X544008Y183945D02*
X558575D01*
X544008D02*
Y209929D01*
X558575Y183945D02*
Y209929D01*
X416008D02*
X430575D01*
X416008Y183945D02*
X430575D01*
X416008D02*
Y209929D01*
X430575Y183945D02*
Y209929D01*
X288008D02*
X302575D01*
X288008Y183945D02*
X302575D01*
X288008D02*
Y209929D01*
X302575Y183945D02*
Y209929D01*
X282425Y365071D02*
X296992D01*
X282425Y391055D02*
X296992D01*
Y365071D02*
Y391055D01*
X282425Y365071D02*
Y391055D01*
X410425Y365071D02*
X424992D01*
X410425Y391055D02*
X424992D01*
Y365071D02*
Y391055D01*
X410425Y365071D02*
Y391055D01*
X538425Y365071D02*
X552992D01*
X538425Y391055D02*
X552992D01*
Y365071D02*
Y391055D01*
X538425Y365071D02*
Y391055D01*
X666425Y365071D02*
X680992D01*
X666425Y391055D02*
X680992D01*
Y365071D02*
Y391055D01*
X666425Y365071D02*
Y391055D01*
X774405Y178331D02*
X816482D01*
X774405D02*
Y180299D01*
X816482Y178331D02*
Y179315D01*
Y218685D02*
Y219669D01*
X774405Y217701D02*
Y219669D01*
X816482D01*
D43*
X477367Y367467D02*
Y365334D01*
X477901Y364801D01*
X478967D01*
X479500Y365334D01*
Y367467D01*
X478967Y368000D01*
X477901D01*
X478434Y366934D02*
X477367Y368000D01*
X477901D02*
X477367Y367467D01*
X476301Y365334D02*
X475768Y364801D01*
X474702D01*
X474168Y365334D01*
Y365867D01*
X474702Y366401D01*
X475235D01*
X474702D01*
X474168Y366934D01*
Y367467D01*
X474702Y368000D01*
X475768D01*
X476301Y367467D01*
X473102Y368533D02*
X470969D01*
X467770Y364801D02*
X469903D01*
Y368000D01*
X467770D01*
X469903Y366401D02*
X468837D01*
X464572Y365334D02*
X465105Y364801D01*
X466171D01*
X466704Y365334D01*
Y365867D01*
X466171Y366401D01*
X465105D01*
X464572Y366934D01*
Y367467D01*
X465105Y368000D01*
X466171D01*
X466704Y367467D01*
X461373Y365334D02*
X461906Y364801D01*
X462972D01*
X463505Y365334D01*
Y367467D01*
X462972Y368000D01*
X461906D01*
X461373Y367467D01*
X458174Y364801D02*
X459240Y365334D01*
X460306Y366401D01*
Y367467D01*
X459773Y368000D01*
X458707D01*
X458174Y367467D01*
Y366934D01*
X458707Y366401D01*
X460306D01*
X605367Y367467D02*
Y365334D01*
X605900Y364801D01*
X606967D01*
X607500Y365334D01*
Y367467D01*
X606967Y368000D01*
X605900D01*
X606434Y366934D02*
X605367Y368000D01*
X605900D02*
X605367Y367467D01*
X604301Y365334D02*
X603768Y364801D01*
X602702D01*
X602168Y365334D01*
Y365867D01*
X602702Y366401D01*
X603235D01*
X602702D01*
X602168Y366934D01*
Y367467D01*
X602702Y368000D01*
X603768D01*
X604301Y367467D01*
X601102Y368533D02*
X598969D01*
X595770Y364801D02*
X597903D01*
Y368000D01*
X595770D01*
X597903Y366401D02*
X596837D01*
X592571Y365334D02*
X593105Y364801D01*
X594171D01*
X594704Y365334D01*
Y365867D01*
X594171Y366401D01*
X593105D01*
X592571Y366934D01*
Y367467D01*
X593105Y368000D01*
X594171D01*
X594704Y367467D01*
X589372Y365334D02*
X589906Y364801D01*
X590972D01*
X591505Y365334D01*
Y367467D01*
X590972Y368000D01*
X589906D01*
X589372Y367467D01*
X588306Y364801D02*
X586173D01*
Y365334D01*
X588306Y367467D01*
Y368000D01*
X733367Y367467D02*
Y365334D01*
X733900Y364801D01*
X734967D01*
X735500Y365334D01*
Y367467D01*
X734967Y368000D01*
X733900D01*
X734434Y366934D02*
X733367Y368000D01*
X733900D02*
X733367Y367467D01*
X732301Y365334D02*
X731768Y364801D01*
X730702D01*
X730168Y365334D01*
Y365867D01*
X730702Y366401D01*
X731235D01*
X730702D01*
X730168Y366934D01*
Y367467D01*
X730702Y368000D01*
X731768D01*
X732301Y367467D01*
X729102Y368533D02*
X726969D01*
X723770Y364801D02*
X725903D01*
Y368000D01*
X723770D01*
X725903Y366401D02*
X724837D01*
X720572Y365334D02*
X721105Y364801D01*
X722171D01*
X722704Y365334D01*
Y365867D01*
X722171Y366401D01*
X721105D01*
X720572Y366934D01*
Y367467D01*
X721105Y368000D01*
X722171D01*
X722704Y367467D01*
X717373Y365334D02*
X717906Y364801D01*
X718972D01*
X719505Y365334D01*
Y367467D01*
X718972Y368000D01*
X717906D01*
X717373Y367467D01*
X716306Y365334D02*
X715773Y364801D01*
X714707D01*
X714174Y365334D01*
Y365867D01*
X714707Y366401D01*
X714174Y366934D01*
Y367467D01*
X714707Y368000D01*
X715773D01*
X716306Y367467D01*
Y366934D01*
X715773Y366401D01*
X716306Y365867D01*
Y365334D01*
X715773Y366401D02*
X714707D01*
X235633Y207533D02*
Y209666D01*
X235100Y210199D01*
X234033D01*
X233500Y209666D01*
Y207533D01*
X234033Y207000D01*
X235100D01*
X234566Y208066D02*
X235633Y207000D01*
X235100D02*
X235633Y207533D01*
X236699Y209666D02*
X237232Y210199D01*
X238299D01*
X238832Y209666D01*
Y209133D01*
X238299Y208599D01*
X237765D01*
X238299D01*
X238832Y208066D01*
Y207533D01*
X238299Y207000D01*
X237232D01*
X236699Y207533D01*
X239898Y206467D02*
X242031D01*
X245230Y210199D02*
X243097D01*
Y207000D01*
X245230D01*
X243097Y208599D02*
X244163D01*
X248429Y209666D02*
X247895Y210199D01*
X246829D01*
X246296Y209666D01*
Y209133D01*
X246829Y208599D01*
X247895D01*
X248429Y208066D01*
Y207533D01*
X247895Y207000D01*
X246829D01*
X246296Y207533D01*
X251627Y209666D02*
X251094Y210199D01*
X250028D01*
X249495Y209666D01*
Y207533D01*
X250028Y207000D01*
X251094D01*
X251627Y207533D01*
X254293Y207000D02*
Y210199D01*
X252694Y208599D01*
X254826D01*
X619633Y207533D02*
Y209666D01*
X619100Y210199D01*
X618033D01*
X617500Y209666D01*
Y207533D01*
X618033Y207000D01*
X619100D01*
X618566Y208066D02*
X619633Y207000D01*
X619100D02*
X619633Y207533D01*
X620699Y209666D02*
X621232Y210199D01*
X622298D01*
X622832Y209666D01*
Y209133D01*
X622298Y208599D01*
X621765D01*
X622298D01*
X622832Y208066D01*
Y207533D01*
X622298Y207000D01*
X621232D01*
X620699Y207533D01*
X623898Y206467D02*
X626031D01*
X629230Y210199D02*
X627097D01*
Y207000D01*
X629230D01*
X627097Y208599D02*
X628163D01*
X632429Y209666D02*
X631895Y210199D01*
X630829D01*
X630296Y209666D01*
Y209133D01*
X630829Y208599D01*
X631895D01*
X632429Y208066D01*
Y207533D01*
X631895Y207000D01*
X630829D01*
X630296Y207533D01*
X635628Y209666D02*
X635094Y210199D01*
X634028D01*
X633495Y209666D01*
Y207533D01*
X634028Y207000D01*
X635094D01*
X635628Y207533D01*
X636694Y207000D02*
X637760D01*
X637227D01*
Y210199D01*
X636694Y209666D01*
X491633Y207533D02*
Y209666D01*
X491100Y210199D01*
X490033D01*
X489500Y209666D01*
Y207533D01*
X490033Y207000D01*
X491100D01*
X490566Y208066D02*
X491633Y207000D01*
X491100D02*
X491633Y207533D01*
X492699Y209666D02*
X493232Y210199D01*
X494298D01*
X494832Y209666D01*
Y209133D01*
X494298Y208599D01*
X493765D01*
X494298D01*
X494832Y208066D01*
Y207533D01*
X494298Y207000D01*
X493232D01*
X492699Y207533D01*
X495898Y206467D02*
X498031D01*
X501230Y210199D02*
X499097D01*
Y207000D01*
X501230D01*
X499097Y208599D02*
X500163D01*
X504428Y209666D02*
X503895Y210199D01*
X502829D01*
X502296Y209666D01*
Y209133D01*
X502829Y208599D01*
X503895D01*
X504428Y208066D01*
Y207533D01*
X503895Y207000D01*
X502829D01*
X502296Y207533D01*
X507627Y209666D02*
X507094Y210199D01*
X506028D01*
X505495Y209666D01*
Y207533D01*
X506028Y207000D01*
X507094D01*
X507627Y207533D01*
X510826Y207000D02*
X508694D01*
X510826Y209133D01*
Y209666D01*
X510293Y210199D01*
X509227D01*
X508694Y209666D01*
X376905Y171921D02*
Y175120D01*
X378505D01*
X379038Y174587D01*
Y173521D01*
X378505Y172988D01*
X376905D01*
X382237Y175120D02*
X381171Y174587D01*
X380104Y173521D01*
Y172454D01*
X380638Y171921D01*
X381704D01*
X382237Y172454D01*
Y172988D01*
X381704Y173521D01*
X380104D01*
X383303Y171388D02*
X385436D01*
X388635Y175120D02*
X386502D01*
Y171921D01*
X388635D01*
X386502Y173521D02*
X387569D01*
X391834Y174587D02*
X391301Y175120D01*
X390234D01*
X389701Y174587D01*
Y174054D01*
X390234Y173521D01*
X391301D01*
X391834Y172988D01*
Y172454D01*
X391301Y171921D01*
X390234D01*
X389701Y172454D01*
X395033Y174587D02*
X394500Y175120D01*
X393433D01*
X392900Y174587D01*
Y172454D01*
X393433Y171921D01*
X394500D01*
X395033Y172454D01*
X396099Y174587D02*
X396633Y175120D01*
X397699D01*
X398232Y174587D01*
Y174054D01*
X397699Y173521D01*
X397166D01*
X397699D01*
X398232Y172988D01*
Y172454D01*
X397699Y171921D01*
X396633D01*
X396099Y172454D01*
X363633Y207533D02*
Y209666D01*
X363100Y210199D01*
X362033D01*
X361500Y209666D01*
Y207533D01*
X362033Y207000D01*
X363100D01*
X362566Y208066D02*
X363633Y207000D01*
X363100D02*
X363633Y207533D01*
X364699Y209666D02*
X365232Y210199D01*
X366299D01*
X366832Y209666D01*
Y209133D01*
X366299Y208599D01*
X365765D01*
X366299D01*
X366832Y208066D01*
Y207533D01*
X366299Y207000D01*
X365232D01*
X364699Y207533D01*
X367898Y206467D02*
X370031D01*
X373230Y210199D02*
X371097D01*
Y207000D01*
X373230D01*
X371097Y208599D02*
X372163D01*
X376429Y209666D02*
X375895Y210199D01*
X374829D01*
X374296Y209666D01*
Y209133D01*
X374829Y208599D01*
X375895D01*
X376429Y208066D01*
Y207533D01*
X375895Y207000D01*
X374829D01*
X374296Y207533D01*
X379627Y209666D02*
X379094Y210199D01*
X378028D01*
X377495Y209666D01*
Y207533D01*
X378028Y207000D01*
X379094D01*
X379627Y207533D01*
X380694Y209666D02*
X381227Y210199D01*
X382293D01*
X382826Y209666D01*
Y209133D01*
X382293Y208599D01*
X381760D01*
X382293D01*
X382826Y208066D01*
Y207533D01*
X382293Y207000D01*
X381227D01*
X380694Y207533D01*
X775133Y355666D02*
X774600Y356199D01*
X773533D01*
X773000Y355666D01*
Y353533D01*
X773533Y353000D01*
X774600D01*
X775133Y353533D01*
X776199Y353000D02*
X777265D01*
X776732D01*
Y356199D01*
X776199Y355666D01*
X774633Y169666D02*
X774099Y170199D01*
X773033D01*
X772500Y169666D01*
Y167533D01*
X773033Y167000D01*
X774099D01*
X774633Y167533D01*
X777832Y167000D02*
X775699D01*
X777832Y169133D01*
Y169666D01*
X777298Y170199D01*
X776232D01*
X775699Y169666D01*
X706424Y220103D02*
X705891Y220636D01*
X704824D01*
X704291Y220103D01*
Y217970D01*
X704824Y217437D01*
X705891D01*
X706424Y217970D01*
X707490Y220103D02*
X708024Y220636D01*
X709090D01*
X709623Y220103D01*
Y219570D01*
X709090Y219037D01*
X708557D01*
X709090D01*
X709623Y218503D01*
Y217970D01*
X709090Y217437D01*
X708024D01*
X707490Y217970D01*
X710689Y216904D02*
X712822D01*
X716021Y220636D02*
X713888D01*
Y217437D01*
X716021D01*
X713888Y219037D02*
X714955D01*
X719220Y220103D02*
X718687Y220636D01*
X717620D01*
X717087Y220103D01*
Y219570D01*
X717620Y219037D01*
X718687D01*
X719220Y218503D01*
Y217970D01*
X718687Y217437D01*
X717620D01*
X717087Y217970D01*
X722419Y220103D02*
X721886Y220636D01*
X720819D01*
X720286Y220103D01*
Y217970D01*
X720819Y217437D01*
X721886D01*
X722419Y217970D01*
X723485Y217437D02*
X724551D01*
X724018D01*
Y220636D01*
X723485Y220103D01*
X578424D02*
X577891Y220636D01*
X576825D01*
X576291Y220103D01*
Y217970D01*
X576825Y217437D01*
X577891D01*
X578424Y217970D01*
X579490Y220103D02*
X580023Y220636D01*
X581090D01*
X581623Y220103D01*
Y219570D01*
X581090Y219037D01*
X580557D01*
X581090D01*
X581623Y218503D01*
Y217970D01*
X581090Y217437D01*
X580023D01*
X579490Y217970D01*
X582689Y216904D02*
X584822D01*
X588021Y220636D02*
X585888D01*
Y217437D01*
X588021D01*
X585888Y219037D02*
X586955D01*
X591220Y220103D02*
X590687Y220636D01*
X589620D01*
X589087Y220103D01*
Y219570D01*
X589620Y219037D01*
X590687D01*
X591220Y218503D01*
Y217970D01*
X590687Y217437D01*
X589620D01*
X589087Y217970D01*
X594419Y220103D02*
X593886Y220636D01*
X592819D01*
X592286Y220103D01*
Y217970D01*
X592819Y217437D01*
X593886D01*
X594419Y217970D01*
X597618Y217437D02*
X595485D01*
X597618Y219570D01*
Y220103D01*
X597085Y220636D01*
X596018D01*
X595485Y220103D01*
X450424D02*
X449891Y220636D01*
X448825D01*
X448291Y220103D01*
Y217970D01*
X448825Y217437D01*
X449891D01*
X450424Y217970D01*
X451490Y220103D02*
X452024Y220636D01*
X453090D01*
X453623Y220103D01*
Y219570D01*
X453090Y219037D01*
X452557D01*
X453090D01*
X453623Y218503D01*
Y217970D01*
X453090Y217437D01*
X452024D01*
X451490Y217970D01*
X454689Y216904D02*
X456822D01*
X460021Y220636D02*
X457888D01*
Y217437D01*
X460021D01*
X457888Y219037D02*
X458955D01*
X463220Y220103D02*
X462687Y220636D01*
X461620D01*
X461087Y220103D01*
Y219570D01*
X461620Y219037D01*
X462687D01*
X463220Y218503D01*
Y217970D01*
X462687Y217437D01*
X461620D01*
X461087Y217970D01*
X466419Y220103D02*
X465886Y220636D01*
X464819D01*
X464286Y220103D01*
Y217970D01*
X464819Y217437D01*
X465886D01*
X466419Y217970D01*
X467485Y220103D02*
X468018Y220636D01*
X469085D01*
X469618Y220103D01*
Y219570D01*
X469085Y219037D01*
X468551D01*
X469085D01*
X469618Y218503D01*
Y217970D01*
X469085Y217437D01*
X468018D01*
X467485Y217970D01*
X322424Y220103D02*
X321891Y220636D01*
X320825D01*
X320291Y220103D01*
Y217970D01*
X320825Y217437D01*
X321891D01*
X322424Y217970D01*
X323490Y220103D02*
X324024Y220636D01*
X325090D01*
X325623Y220103D01*
Y219570D01*
X325090Y219037D01*
X324557D01*
X325090D01*
X325623Y218503D01*
Y217970D01*
X325090Y217437D01*
X324024D01*
X323490Y217970D01*
X326689Y216904D02*
X328822D01*
X332021Y220636D02*
X329888D01*
Y217437D01*
X332021D01*
X329888Y219037D02*
X330955D01*
X335220Y220103D02*
X334687Y220636D01*
X333620D01*
X333087Y220103D01*
Y219570D01*
X333620Y219037D01*
X334687D01*
X335220Y218503D01*
Y217970D01*
X334687Y217437D01*
X333620D01*
X333087Y217970D01*
X338419Y220103D02*
X337886Y220636D01*
X336819D01*
X336286Y220103D01*
Y217970D01*
X336819Y217437D01*
X337886D01*
X338419Y217970D01*
X341085Y217437D02*
Y220636D01*
X339485Y219037D01*
X341618D01*
X262576Y354897D02*
X263109Y354364D01*
X264176D01*
X264709Y354897D01*
Y357030D01*
X264176Y357563D01*
X263109D01*
X262576Y357030D01*
X261510Y354897D02*
X260977Y354364D01*
X259910D01*
X259377Y354897D01*
Y355430D01*
X259910Y355963D01*
X260443D01*
X259910D01*
X259377Y356497D01*
Y357030D01*
X259910Y357563D01*
X260977D01*
X261510Y357030D01*
X258311Y358096D02*
X256178D01*
X252979Y354364D02*
X255112D01*
Y357563D01*
X252979D01*
X255112Y355963D02*
X254045D01*
X249780Y354897D02*
X250313Y354364D01*
X251380D01*
X251913Y354897D01*
Y355430D01*
X251380Y355963D01*
X250313D01*
X249780Y356497D01*
Y357030D01*
X250313Y357563D01*
X251380D01*
X251913Y357030D01*
X246581Y354897D02*
X247114Y354364D01*
X248181D01*
X248714Y354897D01*
Y357030D01*
X248181Y357563D01*
X247114D01*
X246581Y357030D01*
X243382Y354364D02*
X245515D01*
Y355963D01*
X244448Y355430D01*
X243915D01*
X243382Y355963D01*
Y357030D01*
X243915Y357563D01*
X244982D01*
X245515Y357030D01*
X390576Y354897D02*
X391109Y354364D01*
X392176D01*
X392709Y354897D01*
Y357030D01*
X392176Y357563D01*
X391109D01*
X390576Y357030D01*
X389510Y354897D02*
X388977Y354364D01*
X387910D01*
X387377Y354897D01*
Y355430D01*
X387910Y355963D01*
X388443D01*
X387910D01*
X387377Y356497D01*
Y357030D01*
X387910Y357563D01*
X388977D01*
X389510Y357030D01*
X386311Y358096D02*
X384178D01*
X380979Y354364D02*
X383112D01*
Y357563D01*
X380979D01*
X383112Y355963D02*
X382045D01*
X377780Y354897D02*
X378313Y354364D01*
X379380D01*
X379913Y354897D01*
Y355430D01*
X379380Y355963D01*
X378313D01*
X377780Y356497D01*
Y357030D01*
X378313Y357563D01*
X379380D01*
X379913Y357030D01*
X374581Y354897D02*
X375114Y354364D01*
X376181D01*
X376714Y354897D01*
Y357030D01*
X376181Y357563D01*
X375114D01*
X374581Y357030D01*
X371382Y354364D02*
X372448Y354897D01*
X373515Y355963D01*
Y357030D01*
X372982Y357563D01*
X371915D01*
X371382Y357030D01*
Y356497D01*
X371915Y355963D01*
X373515D01*
X518576Y354897D02*
X519109Y354364D01*
X520176D01*
X520709Y354897D01*
Y357030D01*
X520176Y357563D01*
X519109D01*
X518576Y357030D01*
X517510Y354897D02*
X516976Y354364D01*
X515910D01*
X515377Y354897D01*
Y355430D01*
X515910Y355963D01*
X516443D01*
X515910D01*
X515377Y356497D01*
Y357030D01*
X515910Y357563D01*
X516976D01*
X517510Y357030D01*
X514311Y358096D02*
X512178D01*
X508979Y354364D02*
X511112D01*
Y357563D01*
X508979D01*
X511112Y355963D02*
X510045D01*
X505780Y354897D02*
X506313Y354364D01*
X507380D01*
X507913Y354897D01*
Y355430D01*
X507380Y355963D01*
X506313D01*
X505780Y356497D01*
Y357030D01*
X506313Y357563D01*
X507380D01*
X507913Y357030D01*
X502581Y354897D02*
X503114Y354364D01*
X504181D01*
X504714Y354897D01*
Y357030D01*
X504181Y357563D01*
X503114D01*
X502581Y357030D01*
X501515Y354364D02*
X499382D01*
Y354897D01*
X501515Y357030D01*
Y357563D01*
X646576Y354897D02*
X647109Y354364D01*
X648175D01*
X648709Y354897D01*
Y357030D01*
X648175Y357563D01*
X647109D01*
X646576Y357030D01*
X645510Y354897D02*
X644977Y354364D01*
X643910D01*
X643377Y354897D01*
Y355430D01*
X643910Y355963D01*
X644443D01*
X643910D01*
X643377Y356497D01*
Y357030D01*
X643910Y357563D01*
X644977D01*
X645510Y357030D01*
X642311Y358096D02*
X640178D01*
X636979Y354364D02*
X639112D01*
Y357563D01*
X636979D01*
X639112Y355963D02*
X638045D01*
X633780Y354897D02*
X634313Y354364D01*
X635380D01*
X635913Y354897D01*
Y355430D01*
X635380Y355963D01*
X634313D01*
X633780Y356497D01*
Y357030D01*
X634313Y357563D01*
X635380D01*
X635913Y357030D01*
X630581Y354897D02*
X631114Y354364D01*
X632181D01*
X632714Y354897D01*
Y357030D01*
X632181Y357563D01*
X631114D01*
X630581Y357030D01*
X629515Y354897D02*
X628982Y354364D01*
X627915D01*
X627382Y354897D01*
Y355430D01*
X627915Y355963D01*
X627382Y356497D01*
Y357030D01*
X627915Y357563D01*
X628982D01*
X629515Y357030D01*
Y356497D01*
X628982Y355963D01*
X629515Y355430D01*
Y354897D01*
X628982Y355963D02*
X627915D01*
X706739Y186103D02*
X706206Y186636D01*
X705139D01*
X704606Y186103D01*
Y183970D01*
X705139Y183437D01*
X706206D01*
X706739Y183970D01*
X709405Y183437D02*
Y186636D01*
X707805Y185037D01*
X709938D01*
X711004Y182904D02*
X713137D01*
X716336Y186636D02*
X714203D01*
Y183437D01*
X716336D01*
X714203Y185037D02*
X715270D01*
X719535Y186103D02*
X719002Y186636D01*
X717935D01*
X717402Y186103D01*
Y185570D01*
X717935Y185037D01*
X719002D01*
X719535Y184503D01*
Y183970D01*
X719002Y183437D01*
X717935D01*
X717402Y183970D01*
X722734Y186103D02*
X722201Y186636D01*
X721134D01*
X720601Y186103D01*
Y183970D01*
X721134Y183437D01*
X722201D01*
X722734Y183970D01*
X723800Y183437D02*
X724866D01*
X724333D01*
Y186636D01*
X723800Y186103D01*
X578739D02*
X578206Y186636D01*
X577140D01*
X576606Y186103D01*
Y183970D01*
X577140Y183437D01*
X578206D01*
X578739Y183970D01*
X581405Y183437D02*
Y186636D01*
X579805Y185037D01*
X581938D01*
X583004Y182904D02*
X585137D01*
X588336Y186636D02*
X586203D01*
Y183437D01*
X588336D01*
X586203Y185037D02*
X587269D01*
X591535Y186103D02*
X591002Y186636D01*
X589935D01*
X589402Y186103D01*
Y185570D01*
X589935Y185037D01*
X591002D01*
X591535Y184503D01*
Y183970D01*
X591002Y183437D01*
X589935D01*
X589402Y183970D01*
X594734Y186103D02*
X594201Y186636D01*
X593134D01*
X592601Y186103D01*
Y183970D01*
X593134Y183437D01*
X594201D01*
X594734Y183970D01*
X597933Y183437D02*
X595800D01*
X597933Y185570D01*
Y186103D01*
X597400Y186636D01*
X596333D01*
X595800Y186103D01*
X450739D02*
X450206Y186636D01*
X449139D01*
X448606Y186103D01*
Y183970D01*
X449139Y183437D01*
X450206D01*
X450739Y183970D01*
X453405Y183437D02*
Y186636D01*
X451805Y185037D01*
X453938D01*
X455004Y182904D02*
X457137D01*
X460336Y186636D02*
X458203D01*
Y183437D01*
X460336D01*
X458203Y185037D02*
X459270D01*
X463535Y186103D02*
X463002Y186636D01*
X461935D01*
X461402Y186103D01*
Y185570D01*
X461935Y185037D01*
X463002D01*
X463535Y184503D01*
Y183970D01*
X463002Y183437D01*
X461935D01*
X461402Y183970D01*
X466734Y186103D02*
X466201Y186636D01*
X465134D01*
X464601Y186103D01*
Y183970D01*
X465134Y183437D01*
X466201D01*
X466734Y183970D01*
X467800Y186103D02*
X468333Y186636D01*
X469400D01*
X469933Y186103D01*
Y185570D01*
X469400Y185037D01*
X468866D01*
X469400D01*
X469933Y184503D01*
Y183970D01*
X469400Y183437D01*
X468333D01*
X467800Y183970D01*
X322739Y186103D02*
X322206Y186636D01*
X321139D01*
X320606Y186103D01*
Y183970D01*
X321139Y183437D01*
X322206D01*
X322739Y183970D01*
X325405Y183437D02*
Y186636D01*
X323805Y185037D01*
X325938D01*
X327004Y182904D02*
X329137D01*
X332336Y186636D02*
X330203D01*
Y183437D01*
X332336D01*
X330203Y185037D02*
X331270D01*
X335535Y186103D02*
X335002Y186636D01*
X333935D01*
X333402Y186103D01*
Y185570D01*
X333935Y185037D01*
X335002D01*
X335535Y184503D01*
Y183970D01*
X335002Y183437D01*
X333935D01*
X333402Y183970D01*
X338734Y186103D02*
X338201Y186636D01*
X337134D01*
X336601Y186103D01*
Y183970D01*
X337134Y183437D01*
X338201D01*
X338734Y183970D01*
X341400Y183437D02*
Y186636D01*
X339800Y185037D01*
X341933D01*
X262261Y388897D02*
X262794Y388364D01*
X263861D01*
X264394Y388897D01*
Y391030D01*
X263861Y391563D01*
X262794D01*
X262261Y391030D01*
X259595Y391563D02*
Y388364D01*
X261195Y389964D01*
X259062D01*
X257996Y392096D02*
X255863D01*
X252664Y388364D02*
X254797D01*
Y391563D01*
X252664D01*
X254797Y389964D02*
X253731D01*
X249465Y388897D02*
X249998Y388364D01*
X251065D01*
X251598Y388897D01*
Y389430D01*
X251065Y389964D01*
X249998D01*
X249465Y390497D01*
Y391030D01*
X249998Y391563D01*
X251065D01*
X251598Y391030D01*
X246266Y388897D02*
X246799Y388364D01*
X247866D01*
X248399Y388897D01*
Y391030D01*
X247866Y391563D01*
X246799D01*
X246266Y391030D01*
X243067Y388364D02*
X245200D01*
Y389964D01*
X244134Y389430D01*
X243600D01*
X243067Y389964D01*
Y391030D01*
X243600Y391563D01*
X244667D01*
X245200Y391030D01*
X390261Y388897D02*
X390794Y388364D01*
X391861D01*
X392394Y388897D01*
Y391030D01*
X391861Y391563D01*
X390794D01*
X390261Y391030D01*
X387595Y391563D02*
Y388364D01*
X389195Y389964D01*
X387062D01*
X385996Y392096D02*
X383863D01*
X380664Y388364D02*
X382797D01*
Y391563D01*
X380664D01*
X382797Y389964D02*
X381731D01*
X377465Y388897D02*
X377998Y388364D01*
X379065D01*
X379598Y388897D01*
Y389430D01*
X379065Y389964D01*
X377998D01*
X377465Y390497D01*
Y391030D01*
X377998Y391563D01*
X379065D01*
X379598Y391030D01*
X374266Y388897D02*
X374799Y388364D01*
X375866D01*
X376399Y388897D01*
Y391030D01*
X375866Y391563D01*
X374799D01*
X374266Y391030D01*
X371067Y388364D02*
X372134Y388897D01*
X373200Y389964D01*
Y391030D01*
X372667Y391563D01*
X371600D01*
X371067Y391030D01*
Y390497D01*
X371600Y389964D01*
X373200D01*
X518261Y388897D02*
X518794Y388364D01*
X519861D01*
X520394Y388897D01*
Y391030D01*
X519861Y391563D01*
X518794D01*
X518261Y391030D01*
X515595Y391563D02*
Y388364D01*
X517195Y389964D01*
X515062D01*
X513996Y392096D02*
X511863D01*
X508664Y388364D02*
X510797D01*
Y391563D01*
X508664D01*
X510797Y389964D02*
X509730D01*
X505465Y388897D02*
X505998Y388364D01*
X507065D01*
X507598Y388897D01*
Y389430D01*
X507065Y389964D01*
X505998D01*
X505465Y390497D01*
Y391030D01*
X505998Y391563D01*
X507065D01*
X507598Y391030D01*
X502266Y388897D02*
X502799Y388364D01*
X503866D01*
X504399Y388897D01*
Y391030D01*
X503866Y391563D01*
X502799D01*
X502266Y391030D01*
X501200Y388364D02*
X499067D01*
Y388897D01*
X501200Y391030D01*
Y391563D01*
X646261Y388897D02*
X646794Y388364D01*
X647860D01*
X648394Y388897D01*
Y391030D01*
X647860Y391563D01*
X646794D01*
X646261Y391030D01*
X643595Y391563D02*
Y388364D01*
X645195Y389964D01*
X643062D01*
X641996Y392096D02*
X639863D01*
X636664Y388364D02*
X638797D01*
Y391563D01*
X636664D01*
X638797Y389964D02*
X637731D01*
X633465Y388897D02*
X633998Y388364D01*
X635065D01*
X635598Y388897D01*
Y389430D01*
X635065Y389964D01*
X633998D01*
X633465Y390497D01*
Y391030D01*
X633998Y391563D01*
X635065D01*
X635598Y391030D01*
X630266Y388897D02*
X630799Y388364D01*
X631866D01*
X632399Y388897D01*
Y391030D01*
X631866Y391563D01*
X630799D01*
X630266Y391030D01*
X629200Y388897D02*
X628667Y388364D01*
X627600D01*
X627067Y388897D01*
Y389430D01*
X627600Y389964D01*
X627067Y390497D01*
Y391030D01*
X627600Y391563D01*
X628667D01*
X629200Y391030D01*
Y390497D01*
X628667Y389964D01*
X629200Y389430D01*
Y388897D01*
X628667Y389964D02*
X627600D01*
X650633Y180666D02*
X650100Y181199D01*
X649033D01*
X648500Y180666D01*
Y178533D01*
X649033Y178000D01*
X650100D01*
X650633Y178533D01*
X653832Y181199D02*
X651699D01*
Y179599D01*
X652765Y180133D01*
X653298D01*
X653832Y179599D01*
Y178533D01*
X653298Y178000D01*
X652232D01*
X651699Y178533D01*
X654898Y177467D02*
X657031D01*
X660230Y181199D02*
X658097D01*
Y178000D01*
X660230D01*
X658097Y179599D02*
X659163D01*
X663428Y180666D02*
X662895Y181199D01*
X661829D01*
X661296Y180666D01*
Y180133D01*
X661829Y179599D01*
X662895D01*
X663428Y179066D01*
Y178533D01*
X662895Y178000D01*
X661829D01*
X661296Y178533D01*
X666628Y180666D02*
X666094Y181199D01*
X665028D01*
X664495Y180666D01*
Y178533D01*
X665028Y178000D01*
X666094D01*
X666628Y178533D01*
X667694Y178000D02*
X668760D01*
X668227D01*
Y181199D01*
X667694Y180666D01*
X522633D02*
X522099Y181199D01*
X521033D01*
X520500Y180666D01*
Y178533D01*
X521033Y178000D01*
X522099D01*
X522633Y178533D01*
X525832Y181199D02*
X523699D01*
Y179599D01*
X524765Y180133D01*
X525298D01*
X525832Y179599D01*
Y178533D01*
X525298Y178000D01*
X524232D01*
X523699Y178533D01*
X526898Y177467D02*
X529031D01*
X532230Y181199D02*
X530097D01*
Y178000D01*
X532230D01*
X530097Y179599D02*
X531163D01*
X535428Y180666D02*
X534895Y181199D01*
X533829D01*
X533296Y180666D01*
Y180133D01*
X533829Y179599D01*
X534895D01*
X535428Y179066D01*
Y178533D01*
X534895Y178000D01*
X533829D01*
X533296Y178533D01*
X538627Y180666D02*
X538094Y181199D01*
X537028D01*
X536495Y180666D01*
Y178533D01*
X537028Y178000D01*
X538094D01*
X538627Y178533D01*
X541826Y178000D02*
X539694D01*
X541826Y180133D01*
Y180666D01*
X541293Y181199D01*
X540227D01*
X539694Y180666D01*
X394633D02*
X394099Y181199D01*
X393033D01*
X392500Y180666D01*
Y178533D01*
X393033Y178000D01*
X394099D01*
X394633Y178533D01*
X397832Y181199D02*
X395699D01*
Y179599D01*
X396765Y180133D01*
X397299D01*
X397832Y179599D01*
Y178533D01*
X397299Y178000D01*
X396232D01*
X395699Y178533D01*
X398898Y177467D02*
X401031D01*
X404230Y181199D02*
X402097D01*
Y178000D01*
X404230D01*
X402097Y179599D02*
X403163D01*
X407429Y180666D02*
X406895Y181199D01*
X405829D01*
X405296Y180666D01*
Y180133D01*
X405829Y179599D01*
X406895D01*
X407429Y179066D01*
Y178533D01*
X406895Y178000D01*
X405829D01*
X405296Y178533D01*
X410628Y180666D02*
X410094Y181199D01*
X409028D01*
X408495Y180666D01*
Y178533D01*
X409028Y178000D01*
X410094D01*
X410628Y178533D01*
X411694Y180666D02*
X412227Y181199D01*
X413293D01*
X413827Y180666D01*
Y180133D01*
X413293Y179599D01*
X412760D01*
X413293D01*
X413827Y179066D01*
Y178533D01*
X413293Y178000D01*
X412227D01*
X411694Y178533D01*
X266633Y180666D02*
X266100Y181199D01*
X265033D01*
X264500Y180666D01*
Y178533D01*
X265033Y178000D01*
X266100D01*
X266633Y178533D01*
X269832Y181199D02*
X267699D01*
Y179599D01*
X268765Y180133D01*
X269299D01*
X269832Y179599D01*
Y178533D01*
X269299Y178000D01*
X268232D01*
X267699Y178533D01*
X270898Y177467D02*
X273031D01*
X276230Y181199D02*
X274097D01*
Y178000D01*
X276230D01*
X274097Y179599D02*
X275163D01*
X279429Y180666D02*
X278895Y181199D01*
X277829D01*
X277296Y180666D01*
Y180133D01*
X277829Y179599D01*
X278895D01*
X279429Y179066D01*
Y178533D01*
X278895Y178000D01*
X277829D01*
X277296Y178533D01*
X282628Y180666D02*
X282094Y181199D01*
X281028D01*
X280495Y180666D01*
Y178533D01*
X281028Y178000D01*
X282094D01*
X282628Y178533D01*
X285293Y178000D02*
Y181199D01*
X283694Y179599D01*
X285826D01*
X318367Y394334D02*
X318900Y393801D01*
X319967D01*
X320500Y394334D01*
Y396467D01*
X319967Y397000D01*
X318900D01*
X318367Y396467D01*
X315168Y393801D02*
X317301D01*
Y395401D01*
X316235Y394867D01*
X315702D01*
X315168Y395401D01*
Y396467D01*
X315702Y397000D01*
X316768D01*
X317301Y396467D01*
X314102Y397533D02*
X311969D01*
X308770Y393801D02*
X310903D01*
Y397000D01*
X308770D01*
X310903Y395401D02*
X309837D01*
X305572Y394334D02*
X306105Y393801D01*
X307171D01*
X307704Y394334D01*
Y394867D01*
X307171Y395401D01*
X306105D01*
X305572Y395934D01*
Y396467D01*
X306105Y397000D01*
X307171D01*
X307704Y396467D01*
X302373Y394334D02*
X302906Y393801D01*
X303972D01*
X304505Y394334D01*
Y396467D01*
X303972Y397000D01*
X302906D01*
X302373Y396467D01*
X299173Y393801D02*
X301306D01*
Y395401D01*
X300240Y394867D01*
X299707D01*
X299173Y395401D01*
Y396467D01*
X299707Y397000D01*
X300773D01*
X301306Y396467D01*
X446367Y394334D02*
X446901Y393801D01*
X447967D01*
X448500Y394334D01*
Y396467D01*
X447967Y397000D01*
X446901D01*
X446367Y396467D01*
X443168Y393801D02*
X445301D01*
Y395401D01*
X444235Y394867D01*
X443702D01*
X443168Y395401D01*
Y396467D01*
X443702Y397000D01*
X444768D01*
X445301Y396467D01*
X442102Y397533D02*
X439969D01*
X436770Y393801D02*
X438903D01*
Y397000D01*
X436770D01*
X438903Y395401D02*
X437837D01*
X433571Y394334D02*
X434105Y393801D01*
X435171D01*
X435704Y394334D01*
Y394867D01*
X435171Y395401D01*
X434105D01*
X433571Y395934D01*
Y396467D01*
X434105Y397000D01*
X435171D01*
X435704Y396467D01*
X430372Y394334D02*
X430906Y393801D01*
X431972D01*
X432505Y394334D01*
Y396467D01*
X431972Y397000D01*
X430906D01*
X430372Y396467D01*
X427174Y393801D02*
X428240Y394334D01*
X429306Y395401D01*
Y396467D01*
X428773Y397000D01*
X427707D01*
X427174Y396467D01*
Y395934D01*
X427707Y395401D01*
X429306D01*
X574367Y394334D02*
X574900Y393801D01*
X575967D01*
X576500Y394334D01*
Y396467D01*
X575967Y397000D01*
X574900D01*
X574367Y396467D01*
X571168Y393801D02*
X573301D01*
Y395401D01*
X572235Y394867D01*
X571701D01*
X571168Y395401D01*
Y396467D01*
X571701Y397000D01*
X572768D01*
X573301Y396467D01*
X570102Y397533D02*
X567969D01*
X564770Y393801D02*
X566903D01*
Y397000D01*
X564770D01*
X566903Y395401D02*
X565837D01*
X561572Y394334D02*
X562105Y393801D01*
X563171D01*
X563704Y394334D01*
Y394867D01*
X563171Y395401D01*
X562105D01*
X561572Y395934D01*
Y396467D01*
X562105Y397000D01*
X563171D01*
X563704Y396467D01*
X558372Y394334D02*
X558906Y393801D01*
X559972D01*
X560505Y394334D01*
Y396467D01*
X559972Y397000D01*
X558906D01*
X558372Y396467D01*
X557306Y393801D02*
X555173D01*
Y394334D01*
X557306Y396467D01*
Y397000D01*
X702367Y394334D02*
X702901Y393801D01*
X703967D01*
X704500Y394334D01*
Y396467D01*
X703967Y397000D01*
X702901D01*
X702367Y396467D01*
X699168Y393801D02*
X701301D01*
Y395401D01*
X700235Y394867D01*
X699702D01*
X699168Y395401D01*
Y396467D01*
X699702Y397000D01*
X700768D01*
X701301Y396467D01*
X698102Y397533D02*
X695969D01*
X692770Y393801D02*
X694903D01*
Y397000D01*
X692770D01*
X694903Y395401D02*
X693837D01*
X689572Y394334D02*
X690105Y393801D01*
X691171D01*
X691704Y394334D01*
Y394867D01*
X691171Y395401D01*
X690105D01*
X689572Y395934D01*
Y396467D01*
X690105Y397000D01*
X691171D01*
X691704Y396467D01*
X686373Y394334D02*
X686906Y393801D01*
X687972D01*
X688505Y394334D01*
Y396467D01*
X687972Y397000D01*
X686906D01*
X686373Y396467D01*
X685306Y394334D02*
X684773Y393801D01*
X683707D01*
X683174Y394334D01*
Y394867D01*
X683707Y395401D01*
X683174Y395934D01*
Y396467D01*
X683707Y397000D01*
X684773D01*
X685306Y396467D01*
Y395934D01*
X684773Y395401D01*
X685306Y394867D01*
Y394334D01*
X684773Y395401D02*
X683707D01*
X623801Y110500D02*
X627000D01*
Y112100D01*
X626467Y112633D01*
X624334D01*
X623801Y112100D01*
Y110500D01*
X627000Y113699D02*
Y114765D01*
Y114232D01*
X623801D01*
X624334Y113699D01*
X627533Y116365D02*
Y118497D01*
X623801Y121696D02*
Y119564D01*
X627000D01*
Y121696D01*
X625400Y119564D02*
Y120630D01*
X624334Y124895D02*
X623801Y124362D01*
Y123296D01*
X624334Y122763D01*
X624867D01*
X625400Y123296D01*
Y124362D01*
X625934Y124895D01*
X626467D01*
X627000Y124362D01*
Y123296D01*
X626467Y122763D01*
X624334Y128094D02*
X623801Y127561D01*
Y126495D01*
X624334Y125962D01*
X626467D01*
X627000Y126495D01*
Y127561D01*
X626467Y128094D01*
X627000Y129161D02*
Y130227D01*
Y129694D01*
X623801D01*
X624334Y129161D01*
X495801Y110500D02*
X499000D01*
Y112100D01*
X498467Y112633D01*
X496334D01*
X495801Y112100D01*
Y110500D01*
X499000Y113699D02*
Y114765D01*
Y114232D01*
X495801D01*
X496334Y113699D01*
X499533Y116365D02*
Y118497D01*
X495801Y121696D02*
Y119564D01*
X499000D01*
Y121696D01*
X497401Y119564D02*
Y120630D01*
X496334Y124895D02*
X495801Y124362D01*
Y123296D01*
X496334Y122763D01*
X496867D01*
X497401Y123296D01*
Y124362D01*
X497934Y124895D01*
X498467D01*
X499000Y124362D01*
Y123296D01*
X498467Y122763D01*
X496334Y128094D02*
X495801Y127561D01*
Y126495D01*
X496334Y125962D01*
X498467D01*
X499000Y126495D01*
Y127561D01*
X498467Y128094D01*
X499000Y131293D02*
Y129161D01*
X496867Y131293D01*
X496334D01*
X495801Y130760D01*
Y129694D01*
X496334Y129161D01*
X367801Y110500D02*
X371000D01*
Y112100D01*
X370467Y112633D01*
X368334D01*
X367801Y112100D01*
Y110500D01*
X371000Y113699D02*
Y114765D01*
Y114232D01*
X367801D01*
X368334Y113699D01*
X371533Y116365D02*
Y118497D01*
X367801Y121696D02*
Y119564D01*
X371000D01*
Y121696D01*
X369401Y119564D02*
Y120630D01*
X368334Y124895D02*
X367801Y124362D01*
Y123296D01*
X368334Y122763D01*
X368867D01*
X369401Y123296D01*
Y124362D01*
X369934Y124895D01*
X370467D01*
X371000Y124362D01*
Y123296D01*
X370467Y122763D01*
X368334Y128094D02*
X367801Y127561D01*
Y126495D01*
X368334Y125962D01*
X370467D01*
X371000Y126495D01*
Y127561D01*
X370467Y128094D01*
X368334Y129161D02*
X367801Y129694D01*
Y130760D01*
X368334Y131293D01*
X368867D01*
X369401Y130760D01*
Y130227D01*
Y130760D01*
X369934Y131293D01*
X370467D01*
X371000Y130760D01*
Y129694D01*
X370467Y129161D01*
X239801Y110500D02*
X243000D01*
Y112100D01*
X242467Y112633D01*
X240334D01*
X239801Y112100D01*
Y110500D01*
X243000Y113699D02*
Y114765D01*
Y114232D01*
X239801D01*
X240334Y113699D01*
X243533Y116365D02*
Y118497D01*
X239801Y121696D02*
Y119564D01*
X243000D01*
Y121696D01*
X241401Y119564D02*
Y120630D01*
X240334Y124895D02*
X239801Y124362D01*
Y123296D01*
X240334Y122763D01*
X240867D01*
X241401Y123296D01*
Y124362D01*
X241934Y124895D01*
X242467D01*
X243000Y124362D01*
Y123296D01*
X242467Y122763D01*
X240334Y128094D02*
X239801Y127561D01*
Y126495D01*
X240334Y125962D01*
X242467D01*
X243000Y126495D01*
Y127561D01*
X242467Y128094D01*
X243000Y130760D02*
X239801D01*
X241401Y129161D01*
Y131293D01*
X345199Y464500D02*
X342000D01*
Y462900D01*
X342533Y462367D01*
X344666D01*
X345199Y462900D01*
Y464500D01*
X342000Y461301D02*
Y460235D01*
Y460768D01*
X345199D01*
X344666Y461301D01*
X341467Y458635D02*
Y456503D01*
X345199Y453304D02*
Y455436D01*
X342000D01*
Y453304D01*
X343600Y455436D02*
Y454370D01*
X344666Y450105D02*
X345199Y450638D01*
Y451704D01*
X344666Y452237D01*
X344133D01*
X343600Y451704D01*
Y450638D01*
X343066Y450105D01*
X342533D01*
X342000Y450638D01*
Y451704D01*
X342533Y452237D01*
X344666Y446906D02*
X345199Y447439D01*
Y448505D01*
X344666Y449038D01*
X342533D01*
X342000Y448505D01*
Y447439D01*
X342533Y446906D01*
X345199Y443707D02*
Y445839D01*
X343600D01*
X344133Y444773D01*
Y444240D01*
X343600Y443707D01*
X342533D01*
X342000Y444240D01*
Y445306D01*
X342533Y445839D01*
X473199Y464500D02*
X470000D01*
Y462900D01*
X470533Y462367D01*
X472666D01*
X473199Y462900D01*
Y464500D01*
X470000Y461301D02*
Y460235D01*
Y460768D01*
X473199D01*
X472666Y461301D01*
X469467Y458635D02*
Y456503D01*
X473199Y453304D02*
Y455436D01*
X470000D01*
Y453304D01*
X471599Y455436D02*
Y454370D01*
X472666Y450105D02*
X473199Y450638D01*
Y451704D01*
X472666Y452237D01*
X472133D01*
X471599Y451704D01*
Y450638D01*
X471066Y450105D01*
X470533D01*
X470000Y450638D01*
Y451704D01*
X470533Y452237D01*
X472666Y446906D02*
X473199Y447439D01*
Y448505D01*
X472666Y449038D01*
X470533D01*
X470000Y448505D01*
Y447439D01*
X470533Y446906D01*
X473199Y443707D02*
X472666Y444773D01*
X471599Y445839D01*
X470533D01*
X470000Y445306D01*
Y444240D01*
X470533Y443707D01*
X471066D01*
X471599Y444240D01*
Y445839D01*
X601199Y464500D02*
X598000D01*
Y462900D01*
X598533Y462367D01*
X600666D01*
X601199Y462900D01*
Y464500D01*
X598000Y461301D02*
Y460235D01*
Y460768D01*
X601199D01*
X600666Y461301D01*
X597467Y458635D02*
Y456503D01*
X601199Y453304D02*
Y455436D01*
X598000D01*
Y453304D01*
X599600Y455436D02*
Y454370D01*
X600666Y450105D02*
X601199Y450638D01*
Y451704D01*
X600666Y452237D01*
X600133D01*
X599600Y451704D01*
Y450638D01*
X599066Y450105D01*
X598533D01*
X598000Y450638D01*
Y451704D01*
X598533Y452237D01*
X600666Y446906D02*
X601199Y447439D01*
Y448505D01*
X600666Y449038D01*
X598533D01*
X598000Y448505D01*
Y447439D01*
X598533Y446906D01*
X601199Y445839D02*
Y443707D01*
X600666D01*
X598533Y445839D01*
X598000D01*
X729199Y464500D02*
X726000D01*
Y462900D01*
X726533Y462367D01*
X728666D01*
X729199Y462900D01*
Y464500D01*
X726000Y461301D02*
Y460235D01*
Y460768D01*
X729199D01*
X728666Y461301D01*
X725467Y458635D02*
Y456503D01*
X729199Y453304D02*
Y455436D01*
X726000D01*
Y453304D01*
X727599Y455436D02*
Y454370D01*
X728666Y450105D02*
X729199Y450638D01*
Y451704D01*
X728666Y452237D01*
X728133D01*
X727599Y451704D01*
Y450638D01*
X727066Y450105D01*
X726533D01*
X726000Y450638D01*
Y451704D01*
X726533Y452237D01*
X728666Y446906D02*
X729199Y447439D01*
Y448505D01*
X728666Y449038D01*
X726533D01*
X726000Y448505D01*
Y447439D01*
X726533Y446906D01*
X728666Y445839D02*
X729199Y445306D01*
Y444240D01*
X728666Y443707D01*
X728133D01*
X727599Y444240D01*
X727066Y443707D01*
X726533D01*
X726000Y444240D01*
Y445306D01*
X726533Y445839D01*
X727066D01*
X727599Y445306D01*
X728133Y445839D01*
X728666D01*
X727599Y445306D02*
Y444240D01*
X696633Y169120D02*
X695566D01*
X696100D01*
Y166454D01*
X695566Y165921D01*
X695033D01*
X694500Y166454D01*
X697699Y165921D02*
X698765D01*
X698232D01*
Y169120D01*
X697699Y168587D01*
X700365Y165388D02*
X702497D01*
X705696Y169120D02*
X703564D01*
Y165921D01*
X705696D01*
X703564Y167521D02*
X704630D01*
X708895Y168587D02*
X708362Y169120D01*
X707296D01*
X706763Y168587D01*
Y168054D01*
X707296Y167521D01*
X708362D01*
X708895Y166988D01*
Y166454D01*
X708362Y165921D01*
X707296D01*
X706763Y166454D01*
X712094Y168587D02*
X711561Y169120D01*
X710495D01*
X709962Y168587D01*
Y166454D01*
X710495Y165921D01*
X711561D01*
X712094Y166454D01*
X713161Y165921D02*
X714227D01*
X713694D01*
Y169120D01*
X713161Y168587D01*
X568633Y169120D02*
X567566D01*
X568099D01*
Y166454D01*
X567566Y165921D01*
X567033D01*
X566500Y166454D01*
X569699Y165921D02*
X570765D01*
X570232D01*
Y169120D01*
X569699Y168587D01*
X572365Y165388D02*
X574497D01*
X577696Y169120D02*
X575564D01*
Y165921D01*
X577696D01*
X575564Y167521D02*
X576630D01*
X580895Y168587D02*
X580362Y169120D01*
X579296D01*
X578763Y168587D01*
Y168054D01*
X579296Y167521D01*
X580362D01*
X580895Y166988D01*
Y166454D01*
X580362Y165921D01*
X579296D01*
X578763Y166454D01*
X584094Y168587D02*
X583561Y169120D01*
X582495D01*
X581962Y168587D01*
Y166454D01*
X582495Y165921D01*
X583561D01*
X584094Y166454D01*
X587293Y165921D02*
X585161D01*
X587293Y168054D01*
Y168587D01*
X586760Y169120D01*
X585694D01*
X585161Y168587D01*
X440633Y169120D02*
X439566D01*
X440099D01*
Y166454D01*
X439566Y165921D01*
X439033D01*
X438500Y166454D01*
X441699Y165921D02*
X442765D01*
X442232D01*
Y169120D01*
X441699Y168587D01*
X444365Y165388D02*
X446497D01*
X449696Y169120D02*
X447564D01*
Y165921D01*
X449696D01*
X447564Y167521D02*
X448630D01*
X452895Y168587D02*
X452362Y169120D01*
X451296D01*
X450763Y168587D01*
Y168054D01*
X451296Y167521D01*
X452362D01*
X452895Y166988D01*
Y166454D01*
X452362Y165921D01*
X451296D01*
X450763Y166454D01*
X456094Y168587D02*
X455561Y169120D01*
X454495D01*
X453962Y168587D01*
Y166454D01*
X454495Y165921D01*
X455561D01*
X456094Y166454D01*
X457161Y168587D02*
X457694Y169120D01*
X458760D01*
X459293Y168587D01*
Y168054D01*
X458760Y167521D01*
X458227D01*
X458760D01*
X459293Y166988D01*
Y166454D01*
X458760Y165921D01*
X457694D01*
X457161Y166454D01*
X312633Y169120D02*
X311566D01*
X312100D01*
Y166454D01*
X311566Y165921D01*
X311033D01*
X310500Y166454D01*
X313699Y165921D02*
X314765D01*
X314232D01*
Y169120D01*
X313699Y168587D01*
X316365Y165388D02*
X318497D01*
X321696Y169120D02*
X319564D01*
Y165921D01*
X321696D01*
X319564Y167521D02*
X320630D01*
X324895Y168587D02*
X324362Y169120D01*
X323296D01*
X322763Y168587D01*
Y168054D01*
X323296Y167521D01*
X324362D01*
X324895Y166988D01*
Y166454D01*
X324362Y165921D01*
X323296D01*
X322763Y166454D01*
X328094Y168587D02*
X327561Y169120D01*
X326495D01*
X325962Y168587D01*
Y166454D01*
X326495Y165921D01*
X327561D01*
X328094Y166454D01*
X330760Y165921D02*
Y169120D01*
X329161Y167521D01*
X331293D01*
X272367Y405880D02*
X273434D01*
X272901D01*
Y408546D01*
X273434Y409079D01*
X273967D01*
X274500Y408546D01*
X271301Y409079D02*
X270235D01*
X270768D01*
Y405880D01*
X271301Y406413D01*
X268635Y409612D02*
X266503D01*
X263304Y405880D02*
X265436D01*
Y409079D01*
X263304D01*
X265436Y407479D02*
X264370D01*
X260105Y406413D02*
X260638Y405880D01*
X261704D01*
X262237Y406413D01*
Y406946D01*
X261704Y407479D01*
X260638D01*
X260105Y408012D01*
Y408546D01*
X260638Y409079D01*
X261704D01*
X262237Y408546D01*
X256906Y406413D02*
X257439Y405880D01*
X258505D01*
X259038Y406413D01*
Y408546D01*
X258505Y409079D01*
X257439D01*
X256906Y408546D01*
X253707Y405880D02*
X255839D01*
Y407479D01*
X254773Y406946D01*
X254240D01*
X253707Y407479D01*
Y408546D01*
X254240Y409079D01*
X255306D01*
X255839Y408546D01*
X400367Y405880D02*
X401434D01*
X400901D01*
Y408546D01*
X401434Y409079D01*
X401967D01*
X402500Y408546D01*
X399301Y409079D02*
X398235D01*
X398768D01*
Y405880D01*
X399301Y406413D01*
X396635Y409612D02*
X394503D01*
X391304Y405880D02*
X393436D01*
Y409079D01*
X391304D01*
X393436Y407479D02*
X392370D01*
X388105Y406413D02*
X388638Y405880D01*
X389704D01*
X390237Y406413D01*
Y406946D01*
X389704Y407479D01*
X388638D01*
X388105Y408012D01*
Y408546D01*
X388638Y409079D01*
X389704D01*
X390237Y408546D01*
X384906Y406413D02*
X385439Y405880D01*
X386505D01*
X387038Y406413D01*
Y408546D01*
X386505Y409079D01*
X385439D01*
X384906Y408546D01*
X381707Y405880D02*
X382773Y406413D01*
X383839Y407479D01*
Y408546D01*
X383306Y409079D01*
X382240D01*
X381707Y408546D01*
Y408012D01*
X382240Y407479D01*
X383839D01*
X528367Y405880D02*
X529434D01*
X528900D01*
Y408546D01*
X529434Y409079D01*
X529967D01*
X530500Y408546D01*
X527301Y409079D02*
X526235D01*
X526768D01*
Y405880D01*
X527301Y406413D01*
X524635Y409612D02*
X522503D01*
X519304Y405880D02*
X521436D01*
Y409079D01*
X519304D01*
X521436Y407479D02*
X520370D01*
X516105Y406413D02*
X516638Y405880D01*
X517704D01*
X518237Y406413D01*
Y406946D01*
X517704Y407479D01*
X516638D01*
X516105Y408012D01*
Y408546D01*
X516638Y409079D01*
X517704D01*
X518237Y408546D01*
X512906Y406413D02*
X513439Y405880D01*
X514505D01*
X515038Y406413D01*
Y408546D01*
X514505Y409079D01*
X513439D01*
X512906Y408546D01*
X511839Y405880D02*
X509707D01*
Y406413D01*
X511839Y408546D01*
Y409079D01*
X656367Y405880D02*
X657434D01*
X656901D01*
Y408546D01*
X657434Y409079D01*
X657967D01*
X658500Y408546D01*
X655301Y409079D02*
X654235D01*
X654768D01*
Y405880D01*
X655301Y406413D01*
X652635Y409612D02*
X650503D01*
X647304Y405880D02*
X649436D01*
Y409079D01*
X647304D01*
X649436Y407479D02*
X648370D01*
X644105Y406413D02*
X644638Y405880D01*
X645704D01*
X646237Y406413D01*
Y406946D01*
X645704Y407479D01*
X644638D01*
X644105Y408012D01*
Y408546D01*
X644638Y409079D01*
X645704D01*
X646237Y408546D01*
X640906Y406413D02*
X641439Y405880D01*
X642505D01*
X643038Y406413D01*
Y408546D01*
X642505Y409079D01*
X641439D01*
X640906Y408546D01*
X639839Y406413D02*
X639306Y405880D01*
X638240D01*
X637707Y406413D01*
Y406946D01*
X638240Y407479D01*
X637707Y408012D01*
Y408546D01*
X638240Y409079D01*
X639306D01*
X639839Y408546D01*
Y408012D01*
X639306Y407479D01*
X639839Y406946D01*
Y406413D01*
X639306Y407479D02*
X638240D01*
X696133Y163620D02*
X695066D01*
X695600D01*
Y160954D01*
X695066Y160421D01*
X694533D01*
X694000Y160954D01*
X699332Y160421D02*
X697199D01*
X699332Y162554D01*
Y163087D01*
X698798Y163620D01*
X697732D01*
X697199Y163087D01*
X700398Y159888D02*
X702531D01*
X705730Y163620D02*
X703597D01*
Y160421D01*
X705730D01*
X703597Y162021D02*
X704663D01*
X708928Y163087D02*
X708395Y163620D01*
X707329D01*
X706796Y163087D01*
Y162554D01*
X707329Y162021D01*
X708395D01*
X708928Y161488D01*
Y160954D01*
X708395Y160421D01*
X707329D01*
X706796Y160954D01*
X712127Y163087D02*
X711594Y163620D01*
X710528D01*
X709995Y163087D01*
Y160954D01*
X710528Y160421D01*
X711594D01*
X712127Y160954D01*
X713194Y160421D02*
X714260D01*
X713727D01*
Y163620D01*
X713194Y163087D01*
X568133Y163620D02*
X567066D01*
X567599D01*
Y160954D01*
X567066Y160421D01*
X566533D01*
X566000Y160954D01*
X571332Y160421D02*
X569199D01*
X571332Y162554D01*
Y163087D01*
X570798Y163620D01*
X569732D01*
X569199Y163087D01*
X572398Y159888D02*
X574531D01*
X577730Y163620D02*
X575597D01*
Y160421D01*
X577730D01*
X575597Y162021D02*
X576663D01*
X580929Y163087D02*
X580395Y163620D01*
X579329D01*
X578796Y163087D01*
Y162554D01*
X579329Y162021D01*
X580395D01*
X580929Y161488D01*
Y160954D01*
X580395Y160421D01*
X579329D01*
X578796Y160954D01*
X584128Y163087D02*
X583594Y163620D01*
X582528D01*
X581995Y163087D01*
Y160954D01*
X582528Y160421D01*
X583594D01*
X584128Y160954D01*
X587326Y160421D02*
X585194D01*
X587326Y162554D01*
Y163087D01*
X586793Y163620D01*
X585727D01*
X585194Y163087D01*
X440133Y163620D02*
X439066D01*
X439600D01*
Y160954D01*
X439066Y160421D01*
X438533D01*
X438000Y160954D01*
X443332Y160421D02*
X441199D01*
X443332Y162554D01*
Y163087D01*
X442798Y163620D01*
X441732D01*
X441199Y163087D01*
X444398Y159888D02*
X446531D01*
X449730Y163620D02*
X447597D01*
Y160421D01*
X449730D01*
X447597Y162021D02*
X448663D01*
X452928Y163087D02*
X452395Y163620D01*
X451329D01*
X450796Y163087D01*
Y162554D01*
X451329Y162021D01*
X452395D01*
X452928Y161488D01*
Y160954D01*
X452395Y160421D01*
X451329D01*
X450796Y160954D01*
X456128Y163087D02*
X455594Y163620D01*
X454528D01*
X453995Y163087D01*
Y160954D01*
X454528Y160421D01*
X455594D01*
X456128Y160954D01*
X457194Y163087D02*
X457727Y163620D01*
X458793D01*
X459327Y163087D01*
Y162554D01*
X458793Y162021D01*
X458260D01*
X458793D01*
X459327Y161488D01*
Y160954D01*
X458793Y160421D01*
X457727D01*
X457194Y160954D01*
X312133Y163620D02*
X311066D01*
X311599D01*
Y160954D01*
X311066Y160421D01*
X310533D01*
X310000Y160954D01*
X315332Y160421D02*
X313199D01*
X315332Y162554D01*
Y163087D01*
X314798Y163620D01*
X313732D01*
X313199Y163087D01*
X316398Y159888D02*
X318531D01*
X321730Y163620D02*
X319597D01*
Y160421D01*
X321730D01*
X319597Y162021D02*
X320663D01*
X324928Y163087D02*
X324395Y163620D01*
X323329D01*
X322796Y163087D01*
Y162554D01*
X323329Y162021D01*
X324395D01*
X324928Y161488D01*
Y160954D01*
X324395Y160421D01*
X323329D01*
X322796Y160954D01*
X328128Y163087D02*
X327594Y163620D01*
X326528D01*
X325995Y163087D01*
Y160954D01*
X326528Y160421D01*
X327594D01*
X328128Y160954D01*
X330793Y160421D02*
Y163620D01*
X329194Y162021D01*
X331327D01*
X272867Y411380D02*
X273934D01*
X273400D01*
Y414046D01*
X273934Y414579D01*
X274467D01*
X275000Y414046D01*
X269668Y414579D02*
X271801D01*
X269668Y412446D01*
Y411913D01*
X270201Y411380D01*
X271268D01*
X271801Y411913D01*
X268602Y415112D02*
X266469D01*
X263270Y411380D02*
X265403D01*
Y414579D01*
X263270D01*
X265403Y412979D02*
X264337D01*
X260071Y411913D02*
X260605Y411380D01*
X261671D01*
X262204Y411913D01*
Y412446D01*
X261671Y412979D01*
X260605D01*
X260071Y413512D01*
Y414046D01*
X260605Y414579D01*
X261671D01*
X262204Y414046D01*
X256873Y411913D02*
X257406Y411380D01*
X258472D01*
X259005Y411913D01*
Y414046D01*
X258472Y414579D01*
X257406D01*
X256873Y414046D01*
X253674Y411380D02*
X255806D01*
Y412979D01*
X254740Y412446D01*
X254207D01*
X253674Y412979D01*
Y414046D01*
X254207Y414579D01*
X255273D01*
X255806Y414046D01*
X400867Y411380D02*
X401934D01*
X401401D01*
Y414046D01*
X401934Y414579D01*
X402467D01*
X403000Y414046D01*
X397668Y414579D02*
X399801D01*
X397668Y412446D01*
Y411913D01*
X398201Y411380D01*
X399268D01*
X399801Y411913D01*
X396602Y415112D02*
X394469D01*
X391270Y411380D02*
X393403D01*
Y414579D01*
X391270D01*
X393403Y412979D02*
X392337D01*
X388071Y411913D02*
X388605Y411380D01*
X389671D01*
X390204Y411913D01*
Y412446D01*
X389671Y412979D01*
X388605D01*
X388071Y413512D01*
Y414046D01*
X388605Y414579D01*
X389671D01*
X390204Y414046D01*
X384873Y411913D02*
X385406Y411380D01*
X386472D01*
X387005Y411913D01*
Y414046D01*
X386472Y414579D01*
X385406D01*
X384873Y414046D01*
X381674Y411380D02*
X382740Y411913D01*
X383806Y412979D01*
Y414046D01*
X383273Y414579D01*
X382207D01*
X381674Y414046D01*
Y413512D01*
X382207Y412979D01*
X383806D01*
X528867Y411380D02*
X529934D01*
X529400D01*
Y414046D01*
X529934Y414579D01*
X530467D01*
X531000Y414046D01*
X525668Y414579D02*
X527801D01*
X525668Y412446D01*
Y411913D01*
X526202Y411380D01*
X527268D01*
X527801Y411913D01*
X524602Y415112D02*
X522469D01*
X519270Y411380D02*
X521403D01*
Y414579D01*
X519270D01*
X521403Y412979D02*
X520337D01*
X516072Y411913D02*
X516605Y411380D01*
X517671D01*
X518204Y411913D01*
Y412446D01*
X517671Y412979D01*
X516605D01*
X516072Y413512D01*
Y414046D01*
X516605Y414579D01*
X517671D01*
X518204Y414046D01*
X512873Y411913D02*
X513406Y411380D01*
X514472D01*
X515005Y411913D01*
Y414046D01*
X514472Y414579D01*
X513406D01*
X512873Y414046D01*
X511806Y411380D02*
X509674D01*
Y411913D01*
X511806Y414046D01*
Y414579D01*
X656867Y411380D02*
X657934D01*
X657401D01*
Y414046D01*
X657934Y414579D01*
X658467D01*
X659000Y414046D01*
X653668Y414579D02*
X655801D01*
X653668Y412446D01*
Y411913D01*
X654202Y411380D01*
X655268D01*
X655801Y411913D01*
X652602Y415112D02*
X650469D01*
X647270Y411380D02*
X649403D01*
Y414579D01*
X647270D01*
X649403Y412979D02*
X648337D01*
X644071Y411913D02*
X644605Y411380D01*
X645671D01*
X646204Y411913D01*
Y412446D01*
X645671Y412979D01*
X644605D01*
X644071Y413512D01*
Y414046D01*
X644605Y414579D01*
X645671D01*
X646204Y414046D01*
X640872Y411913D02*
X641406Y411380D01*
X642472D01*
X643005Y411913D01*
Y414046D01*
X642472Y414579D01*
X641406D01*
X640872Y414046D01*
X639806Y411913D02*
X639273Y411380D01*
X638207D01*
X637674Y411913D01*
Y412446D01*
X638207Y412979D01*
X637674Y413512D01*
Y414046D01*
X638207Y414579D01*
X639273D01*
X639806Y414046D01*
Y413512D01*
X639273Y412979D01*
X639806Y412446D01*
Y411913D01*
X639273Y412979D02*
X638207D01*
X718633Y163620D02*
X717566D01*
X718099D01*
Y160954D01*
X717566Y160421D01*
X717033D01*
X716500Y160954D01*
X719699Y163087D02*
X720232Y163620D01*
X721298D01*
X721832Y163087D01*
Y162554D01*
X721298Y162021D01*
X720765D01*
X721298D01*
X721832Y161488D01*
Y160954D01*
X721298Y160421D01*
X720232D01*
X719699Y160954D01*
X722898Y159888D02*
X725031D01*
X728230Y163620D02*
X726097D01*
Y160421D01*
X728230D01*
X726097Y162021D02*
X727163D01*
X731428Y163087D02*
X730895Y163620D01*
X729829D01*
X729296Y163087D01*
Y162554D01*
X729829Y162021D01*
X730895D01*
X731428Y161488D01*
Y160954D01*
X730895Y160421D01*
X729829D01*
X729296Y160954D01*
X734627Y163087D02*
X734094Y163620D01*
X733028D01*
X732495Y163087D01*
Y160954D01*
X733028Y160421D01*
X734094D01*
X734627Y160954D01*
X735694Y160421D02*
X736760D01*
X736227D01*
Y163620D01*
X735694Y163087D01*
X590633Y163620D02*
X589566D01*
X590099D01*
Y160954D01*
X589566Y160421D01*
X589033D01*
X588500Y160954D01*
X591699Y163087D02*
X592232Y163620D01*
X593298D01*
X593832Y163087D01*
Y162554D01*
X593298Y162021D01*
X592765D01*
X593298D01*
X593832Y161488D01*
Y160954D01*
X593298Y160421D01*
X592232D01*
X591699Y160954D01*
X594898Y159888D02*
X597031D01*
X600230Y163620D02*
X598097D01*
Y160421D01*
X600230D01*
X598097Y162021D02*
X599163D01*
X603429Y163087D02*
X602895Y163620D01*
X601829D01*
X601296Y163087D01*
Y162554D01*
X601829Y162021D01*
X602895D01*
X603429Y161488D01*
Y160954D01*
X602895Y160421D01*
X601829D01*
X601296Y160954D01*
X606628Y163087D02*
X606094Y163620D01*
X605028D01*
X604495Y163087D01*
Y160954D01*
X605028Y160421D01*
X606094D01*
X606628Y160954D01*
X609827Y160421D02*
X607694D01*
X609827Y162554D01*
Y163087D01*
X609293Y163620D01*
X608227D01*
X607694Y163087D01*
X462633Y163620D02*
X461566D01*
X462100D01*
Y160954D01*
X461566Y160421D01*
X461033D01*
X460500Y160954D01*
X463699Y163087D02*
X464232Y163620D01*
X465298D01*
X465832Y163087D01*
Y162554D01*
X465298Y162021D01*
X464765D01*
X465298D01*
X465832Y161488D01*
Y160954D01*
X465298Y160421D01*
X464232D01*
X463699Y160954D01*
X466898Y159888D02*
X469031D01*
X472230Y163620D02*
X470097D01*
Y160421D01*
X472230D01*
X470097Y162021D02*
X471163D01*
X475428Y163087D02*
X474895Y163620D01*
X473829D01*
X473296Y163087D01*
Y162554D01*
X473829Y162021D01*
X474895D01*
X475428Y161488D01*
Y160954D01*
X474895Y160421D01*
X473829D01*
X473296Y160954D01*
X478627Y163087D02*
X478094Y163620D01*
X477028D01*
X476495Y163087D01*
Y160954D01*
X477028Y160421D01*
X478094D01*
X478627Y160954D01*
X479694Y163087D02*
X480227Y163620D01*
X481293D01*
X481826Y163087D01*
Y162554D01*
X481293Y162021D01*
X480760D01*
X481293D01*
X481826Y161488D01*
Y160954D01*
X481293Y160421D01*
X480227D01*
X479694Y160954D01*
X334633Y163620D02*
X333566D01*
X334100D01*
Y160954D01*
X333566Y160421D01*
X333033D01*
X332500Y160954D01*
X335699Y163087D02*
X336232Y163620D01*
X337298D01*
X337832Y163087D01*
Y162554D01*
X337298Y162021D01*
X336765D01*
X337298D01*
X337832Y161488D01*
Y160954D01*
X337298Y160421D01*
X336232D01*
X335699Y160954D01*
X338898Y159888D02*
X341031D01*
X344230Y163620D02*
X342097D01*
Y160421D01*
X344230D01*
X342097Y162021D02*
X343163D01*
X347428Y163087D02*
X346895Y163620D01*
X345829D01*
X345296Y163087D01*
Y162554D01*
X345829Y162021D01*
X346895D01*
X347428Y161488D01*
Y160954D01*
X346895Y160421D01*
X345829D01*
X345296Y160954D01*
X350627Y163087D02*
X350094Y163620D01*
X349028D01*
X348495Y163087D01*
Y160954D01*
X349028Y160421D01*
X350094D01*
X350627Y160954D01*
X353293Y160421D02*
Y163620D01*
X351694Y162021D01*
X353826D01*
X250367Y411380D02*
X251434D01*
X250901D01*
Y414046D01*
X251434Y414579D01*
X251967D01*
X252500Y414046D01*
X249301Y411913D02*
X248768Y411380D01*
X247702D01*
X247168Y411913D01*
Y412446D01*
X247702Y412979D01*
X248235D01*
X247702D01*
X247168Y413512D01*
Y414046D01*
X247702Y414579D01*
X248768D01*
X249301Y414046D01*
X246102Y415112D02*
X243969D01*
X240770Y411380D02*
X242903D01*
Y414579D01*
X240770D01*
X242903Y412979D02*
X241837D01*
X237572Y411913D02*
X238105Y411380D01*
X239171D01*
X239704Y411913D01*
Y412446D01*
X239171Y412979D01*
X238105D01*
X237572Y413512D01*
Y414046D01*
X238105Y414579D01*
X239171D01*
X239704Y414046D01*
X234372Y411913D02*
X234906Y411380D01*
X235972D01*
X236505Y411913D01*
Y414046D01*
X235972Y414579D01*
X234906D01*
X234372Y414046D01*
X231173Y411380D02*
X233306D01*
Y412979D01*
X232240Y412446D01*
X231707D01*
X231173Y412979D01*
Y414046D01*
X231707Y414579D01*
X232773D01*
X233306Y414046D01*
X378367Y411380D02*
X379434D01*
X378901D01*
Y414046D01*
X379434Y414579D01*
X379967D01*
X380500Y414046D01*
X377301Y411913D02*
X376768Y411380D01*
X375701D01*
X375168Y411913D01*
Y412446D01*
X375701Y412979D01*
X376235D01*
X375701D01*
X375168Y413512D01*
Y414046D01*
X375701Y414579D01*
X376768D01*
X377301Y414046D01*
X374102Y415112D02*
X371969D01*
X368770Y411380D02*
X370903D01*
Y414579D01*
X368770D01*
X370903Y412979D02*
X369837D01*
X365571Y411913D02*
X366105Y411380D01*
X367171D01*
X367704Y411913D01*
Y412446D01*
X367171Y412979D01*
X366105D01*
X365571Y413512D01*
Y414046D01*
X366105Y414579D01*
X367171D01*
X367704Y414046D01*
X362372Y411913D02*
X362906Y411380D01*
X363972D01*
X364505Y411913D01*
Y414046D01*
X363972Y414579D01*
X362906D01*
X362372Y414046D01*
X359173Y411380D02*
X360240Y411913D01*
X361306Y412979D01*
Y414046D01*
X360773Y414579D01*
X359707D01*
X359173Y414046D01*
Y413512D01*
X359707Y412979D01*
X361306D01*
X506367Y411380D02*
X507434D01*
X506901D01*
Y414046D01*
X507434Y414579D01*
X507967D01*
X508500Y414046D01*
X505301Y411913D02*
X504768Y411380D01*
X503702D01*
X503168Y411913D01*
Y412446D01*
X503702Y412979D01*
X504235D01*
X503702D01*
X503168Y413512D01*
Y414046D01*
X503702Y414579D01*
X504768D01*
X505301Y414046D01*
X502102Y415112D02*
X499969D01*
X496770Y411380D02*
X498903D01*
Y414579D01*
X496770D01*
X498903Y412979D02*
X497837D01*
X493572Y411913D02*
X494105Y411380D01*
X495171D01*
X495704Y411913D01*
Y412446D01*
X495171Y412979D01*
X494105D01*
X493572Y413512D01*
Y414046D01*
X494105Y414579D01*
X495171D01*
X495704Y414046D01*
X490373Y411913D02*
X490906Y411380D01*
X491972D01*
X492505Y411913D01*
Y414046D01*
X491972Y414579D01*
X490906D01*
X490373Y414046D01*
X489306Y411380D02*
X487174D01*
Y411913D01*
X489306Y414046D01*
Y414579D01*
X634367Y411380D02*
X635434D01*
X634901D01*
Y414046D01*
X635434Y414579D01*
X635967D01*
X636500Y414046D01*
X633301Y411913D02*
X632768Y411380D01*
X631702D01*
X631168Y411913D01*
Y412446D01*
X631702Y412979D01*
X632235D01*
X631702D01*
X631168Y413512D01*
Y414046D01*
X631702Y414579D01*
X632768D01*
X633301Y414046D01*
X630102Y415112D02*
X627969D01*
X624770Y411380D02*
X626903D01*
Y414579D01*
X624770D01*
X626903Y412979D02*
X625837D01*
X621571Y411913D02*
X622105Y411380D01*
X623171D01*
X623704Y411913D01*
Y412446D01*
X623171Y412979D01*
X622105D01*
X621571Y413512D01*
Y414046D01*
X622105Y414579D01*
X623171D01*
X623704Y414046D01*
X618372Y411913D02*
X618906Y411380D01*
X619972D01*
X620505Y411913D01*
Y414046D01*
X619972Y414579D01*
X618906D01*
X618372Y414046D01*
X617306Y411913D02*
X616773Y411380D01*
X615707D01*
X615173Y411913D01*
Y412446D01*
X615707Y412979D01*
X615173Y413512D01*
Y414046D01*
X615707Y414579D01*
X616773D01*
X617306Y414046D01*
Y413512D01*
X616773Y412979D01*
X617306Y412446D01*
Y411913D01*
X616773Y412979D02*
X615707D01*
X718633Y169120D02*
X717566D01*
X718099D01*
Y166454D01*
X717566Y165921D01*
X717033D01*
X716500Y166454D01*
X721298Y165921D02*
Y169120D01*
X719699Y167521D01*
X721832D01*
X722898Y165388D02*
X725031D01*
X728230Y169120D02*
X726097D01*
Y165921D01*
X728230D01*
X726097Y167521D02*
X727163D01*
X731428Y168587D02*
X730895Y169120D01*
X729829D01*
X729296Y168587D01*
Y168054D01*
X729829Y167521D01*
X730895D01*
X731428Y166988D01*
Y166454D01*
X730895Y165921D01*
X729829D01*
X729296Y166454D01*
X734627Y168587D02*
X734094Y169120D01*
X733028D01*
X732495Y168587D01*
Y166454D01*
X733028Y165921D01*
X734094D01*
X734627Y166454D01*
X735694Y165921D02*
X736760D01*
X736227D01*
Y169120D01*
X735694Y168587D01*
X590633Y169120D02*
X589566D01*
X590099D01*
Y166454D01*
X589566Y165921D01*
X589033D01*
X588500Y166454D01*
X593298Y165921D02*
Y169120D01*
X591699Y167521D01*
X593832D01*
X594898Y165388D02*
X597031D01*
X600230Y169120D02*
X598097D01*
Y165921D01*
X600230D01*
X598097Y167521D02*
X599163D01*
X603429Y168587D02*
X602895Y169120D01*
X601829D01*
X601296Y168587D01*
Y168054D01*
X601829Y167521D01*
X602895D01*
X603429Y166988D01*
Y166454D01*
X602895Y165921D01*
X601829D01*
X601296Y166454D01*
X606628Y168587D02*
X606094Y169120D01*
X605028D01*
X604495Y168587D01*
Y166454D01*
X605028Y165921D01*
X606094D01*
X606628Y166454D01*
X609827Y165921D02*
X607694D01*
X609827Y168054D01*
Y168587D01*
X609293Y169120D01*
X608227D01*
X607694Y168587D01*
X462633Y169120D02*
X461566D01*
X462100D01*
Y166454D01*
X461566Y165921D01*
X461033D01*
X460500Y166454D01*
X465298Y165921D02*
Y169120D01*
X463699Y167521D01*
X465832D01*
X466898Y165388D02*
X469031D01*
X472230Y169120D02*
X470097D01*
Y165921D01*
X472230D01*
X470097Y167521D02*
X471163D01*
X475428Y168587D02*
X474895Y169120D01*
X473829D01*
X473296Y168587D01*
Y168054D01*
X473829Y167521D01*
X474895D01*
X475428Y166988D01*
Y166454D01*
X474895Y165921D01*
X473829D01*
X473296Y166454D01*
X478627Y168587D02*
X478094Y169120D01*
X477028D01*
X476495Y168587D01*
Y166454D01*
X477028Y165921D01*
X478094D01*
X478627Y166454D01*
X479694Y168587D02*
X480227Y169120D01*
X481293D01*
X481826Y168587D01*
Y168054D01*
X481293Y167521D01*
X480760D01*
X481293D01*
X481826Y166988D01*
Y166454D01*
X481293Y165921D01*
X480227D01*
X479694Y166454D01*
X334633Y169120D02*
X333566D01*
X334100D01*
Y166454D01*
X333566Y165921D01*
X333033D01*
X332500Y166454D01*
X337298Y165921D02*
Y169120D01*
X335699Y167521D01*
X337832D01*
X338898Y165388D02*
X341031D01*
X344230Y169120D02*
X342097D01*
Y165921D01*
X344230D01*
X342097Y167521D02*
X343163D01*
X347428Y168587D02*
X346895Y169120D01*
X345829D01*
X345296Y168587D01*
Y168054D01*
X345829Y167521D01*
X346895D01*
X347428Y166988D01*
Y166454D01*
X346895Y165921D01*
X345829D01*
X345296Y166454D01*
X350627Y168587D02*
X350094Y169120D01*
X349028D01*
X348495Y168587D01*
Y166454D01*
X349028Y165921D01*
X350094D01*
X350627Y166454D01*
X353293Y165921D02*
Y169120D01*
X351694Y167521D01*
X353826D01*
X250367Y405880D02*
X251434D01*
X250901D01*
Y408546D01*
X251434Y409079D01*
X251967D01*
X252500Y408546D01*
X247702Y409079D02*
Y405880D01*
X249301Y407479D01*
X247168D01*
X246102Y409612D02*
X243969D01*
X240770Y405880D02*
X242903D01*
Y409079D01*
X240770D01*
X242903Y407479D02*
X241837D01*
X237572Y406413D02*
X238105Y405880D01*
X239171D01*
X239704Y406413D01*
Y406946D01*
X239171Y407479D01*
X238105D01*
X237572Y408012D01*
Y408546D01*
X238105Y409079D01*
X239171D01*
X239704Y408546D01*
X234372Y406413D02*
X234906Y405880D01*
X235972D01*
X236505Y406413D01*
Y408546D01*
X235972Y409079D01*
X234906D01*
X234372Y408546D01*
X231173Y405880D02*
X233306D01*
Y407479D01*
X232240Y406946D01*
X231707D01*
X231173Y407479D01*
Y408546D01*
X231707Y409079D01*
X232773D01*
X233306Y408546D01*
X378367Y405880D02*
X379434D01*
X378901D01*
Y408546D01*
X379434Y409079D01*
X379967D01*
X380500Y408546D01*
X375701Y409079D02*
Y405880D01*
X377301Y407479D01*
X375168D01*
X374102Y409612D02*
X371969D01*
X368770Y405880D02*
X370903D01*
Y409079D01*
X368770D01*
X370903Y407479D02*
X369837D01*
X365571Y406413D02*
X366105Y405880D01*
X367171D01*
X367704Y406413D01*
Y406946D01*
X367171Y407479D01*
X366105D01*
X365571Y408012D01*
Y408546D01*
X366105Y409079D01*
X367171D01*
X367704Y408546D01*
X362372Y406413D02*
X362906Y405880D01*
X363972D01*
X364505Y406413D01*
Y408546D01*
X363972Y409079D01*
X362906D01*
X362372Y408546D01*
X359173Y405880D02*
X360240Y406413D01*
X361306Y407479D01*
Y408546D01*
X360773Y409079D01*
X359707D01*
X359173Y408546D01*
Y408012D01*
X359707Y407479D01*
X361306D01*
X506367Y405880D02*
X507434D01*
X506901D01*
Y408546D01*
X507434Y409079D01*
X507967D01*
X508500Y408546D01*
X503702Y409079D02*
Y405880D01*
X505301Y407479D01*
X503168D01*
X502102Y409612D02*
X499969D01*
X496770Y405880D02*
X498903D01*
Y409079D01*
X496770D01*
X498903Y407479D02*
X497837D01*
X493572Y406413D02*
X494105Y405880D01*
X495171D01*
X495704Y406413D01*
Y406946D01*
X495171Y407479D01*
X494105D01*
X493572Y408012D01*
Y408546D01*
X494105Y409079D01*
X495171D01*
X495704Y408546D01*
X490373Y406413D02*
X490906Y405880D01*
X491972D01*
X492505Y406413D01*
Y408546D01*
X491972Y409079D01*
X490906D01*
X490373Y408546D01*
X489306Y405880D02*
X487174D01*
Y406413D01*
X489306Y408546D01*
Y409079D01*
X634367Y405880D02*
X635434D01*
X634901D01*
Y408546D01*
X635434Y409079D01*
X635967D01*
X636500Y408546D01*
X631702Y409079D02*
Y405880D01*
X633301Y407479D01*
X631168D01*
X630102Y409612D02*
X627969D01*
X624770Y405880D02*
X626903D01*
Y409079D01*
X624770D01*
X626903Y407479D02*
X625837D01*
X621571Y406413D02*
X622105Y405880D01*
X623171D01*
X623704Y406413D01*
Y406946D01*
X623171Y407479D01*
X622105D01*
X621571Y408012D01*
Y408546D01*
X622105Y409079D01*
X623171D01*
X623704Y408546D01*
X618372Y406413D02*
X618906Y405880D01*
X619972D01*
X620505Y406413D01*
Y408546D01*
X619972Y409079D01*
X618906D01*
X618372Y408546D01*
X617306Y406413D02*
X616773Y405880D01*
X615707D01*
X615173Y406413D01*
Y406946D01*
X615707Y407479D01*
X615173Y408012D01*
Y408546D01*
X615707Y409079D01*
X616773D01*
X617306Y408546D01*
Y408012D01*
X616773Y407479D01*
X617306Y406946D01*
Y406413D01*
X616773Y407479D02*
X615707D01*
X718633Y180120D02*
X717566D01*
X718099D01*
Y177454D01*
X717566Y176921D01*
X717033D01*
X716500Y177454D01*
X721832Y180120D02*
X719699D01*
Y178521D01*
X720765Y179054D01*
X721298D01*
X721832Y178521D01*
Y177454D01*
X721298Y176921D01*
X720232D01*
X719699Y177454D01*
X722898Y176388D02*
X725031D01*
X728230Y180120D02*
X726097D01*
Y176921D01*
X728230D01*
X726097Y178521D02*
X727163D01*
X731428Y179587D02*
X730895Y180120D01*
X729829D01*
X729296Y179587D01*
Y179054D01*
X729829Y178521D01*
X730895D01*
X731428Y177988D01*
Y177454D01*
X730895Y176921D01*
X729829D01*
X729296Y177454D01*
X734627Y179587D02*
X734094Y180120D01*
X733028D01*
X732495Y179587D01*
Y177454D01*
X733028Y176921D01*
X734094D01*
X734627Y177454D01*
X735694Y176921D02*
X736760D01*
X736227D01*
Y180120D01*
X735694Y179587D01*
X590633Y180120D02*
X589566D01*
X590099D01*
Y177454D01*
X589566Y176921D01*
X589033D01*
X588500Y177454D01*
X593832Y180120D02*
X591699D01*
Y178521D01*
X592765Y179054D01*
X593298D01*
X593832Y178521D01*
Y177454D01*
X593298Y176921D01*
X592232D01*
X591699Y177454D01*
X594898Y176388D02*
X597031D01*
X600230Y180120D02*
X598097D01*
Y176921D01*
X600230D01*
X598097Y178521D02*
X599163D01*
X603429Y179587D02*
X602895Y180120D01*
X601829D01*
X601296Y179587D01*
Y179054D01*
X601829Y178521D01*
X602895D01*
X603429Y177988D01*
Y177454D01*
X602895Y176921D01*
X601829D01*
X601296Y177454D01*
X606628Y179587D02*
X606094Y180120D01*
X605028D01*
X604495Y179587D01*
Y177454D01*
X605028Y176921D01*
X606094D01*
X606628Y177454D01*
X609827Y176921D02*
X607694D01*
X609827Y179054D01*
Y179587D01*
X609293Y180120D01*
X608227D01*
X607694Y179587D01*
X462633Y180120D02*
X461566D01*
X462100D01*
Y177454D01*
X461566Y176921D01*
X461033D01*
X460500Y177454D01*
X465832Y180120D02*
X463699D01*
Y178521D01*
X464765Y179054D01*
X465298D01*
X465832Y178521D01*
Y177454D01*
X465298Y176921D01*
X464232D01*
X463699Y177454D01*
X466898Y176388D02*
X469031D01*
X472230Y180120D02*
X470097D01*
Y176921D01*
X472230D01*
X470097Y178521D02*
X471163D01*
X475428Y179587D02*
X474895Y180120D01*
X473829D01*
X473296Y179587D01*
Y179054D01*
X473829Y178521D01*
X474895D01*
X475428Y177988D01*
Y177454D01*
X474895Y176921D01*
X473829D01*
X473296Y177454D01*
X478627Y179587D02*
X478094Y180120D01*
X477028D01*
X476495Y179587D01*
Y177454D01*
X477028Y176921D01*
X478094D01*
X478627Y177454D01*
X479694Y179587D02*
X480227Y180120D01*
X481293D01*
X481826Y179587D01*
Y179054D01*
X481293Y178521D01*
X480760D01*
X481293D01*
X481826Y177988D01*
Y177454D01*
X481293Y176921D01*
X480227D01*
X479694Y177454D01*
X334633Y180120D02*
X333566D01*
X334100D01*
Y177454D01*
X333566Y176921D01*
X333033D01*
X332500Y177454D01*
X337832Y180120D02*
X335699D01*
Y178521D01*
X336765Y179054D01*
X337298D01*
X337832Y178521D01*
Y177454D01*
X337298Y176921D01*
X336232D01*
X335699Y177454D01*
X338898Y176388D02*
X341031D01*
X344230Y180120D02*
X342097D01*
Y176921D01*
X344230D01*
X342097Y178521D02*
X343163D01*
X347428Y179587D02*
X346895Y180120D01*
X345829D01*
X345296Y179587D01*
Y179054D01*
X345829Y178521D01*
X346895D01*
X347428Y177988D01*
Y177454D01*
X346895Y176921D01*
X345829D01*
X345296Y177454D01*
X350627Y179587D02*
X350094Y180120D01*
X349028D01*
X348495Y179587D01*
Y177454D01*
X349028Y176921D01*
X350094D01*
X350627Y177454D01*
X353293Y176921D02*
Y180120D01*
X351694Y178521D01*
X353826D01*
X250367Y394880D02*
X251434D01*
X250901D01*
Y397546D01*
X251434Y398079D01*
X251967D01*
X252500Y397546D01*
X247168Y394880D02*
X249301D01*
Y396479D01*
X248235Y395946D01*
X247702D01*
X247168Y396479D01*
Y397546D01*
X247702Y398079D01*
X248768D01*
X249301Y397546D01*
X246102Y398612D02*
X243969D01*
X240770Y394880D02*
X242903D01*
Y398079D01*
X240770D01*
X242903Y396479D02*
X241837D01*
X237572Y395413D02*
X238105Y394880D01*
X239171D01*
X239704Y395413D01*
Y395946D01*
X239171Y396479D01*
X238105D01*
X237572Y397012D01*
Y397546D01*
X238105Y398079D01*
X239171D01*
X239704Y397546D01*
X234372Y395413D02*
X234906Y394880D01*
X235972D01*
X236505Y395413D01*
Y397546D01*
X235972Y398079D01*
X234906D01*
X234372Y397546D01*
X231173Y394880D02*
X233306D01*
Y396479D01*
X232240Y395946D01*
X231707D01*
X231173Y396479D01*
Y397546D01*
X231707Y398079D01*
X232773D01*
X233306Y397546D01*
X378367Y394880D02*
X379434D01*
X378901D01*
Y397546D01*
X379434Y398079D01*
X379967D01*
X380500Y397546D01*
X375168Y394880D02*
X377301D01*
Y396479D01*
X376235Y395946D01*
X375701D01*
X375168Y396479D01*
Y397546D01*
X375701Y398079D01*
X376768D01*
X377301Y397546D01*
X374102Y398612D02*
X371969D01*
X368770Y394880D02*
X370903D01*
Y398079D01*
X368770D01*
X370903Y396479D02*
X369837D01*
X365571Y395413D02*
X366105Y394880D01*
X367171D01*
X367704Y395413D01*
Y395946D01*
X367171Y396479D01*
X366105D01*
X365571Y397012D01*
Y397546D01*
X366105Y398079D01*
X367171D01*
X367704Y397546D01*
X362372Y395413D02*
X362906Y394880D01*
X363972D01*
X364505Y395413D01*
Y397546D01*
X363972Y398079D01*
X362906D01*
X362372Y397546D01*
X359173Y394880D02*
X360240Y395413D01*
X361306Y396479D01*
Y397546D01*
X360773Y398079D01*
X359707D01*
X359173Y397546D01*
Y397012D01*
X359707Y396479D01*
X361306D01*
X506367Y394880D02*
X507434D01*
X506901D01*
Y397546D01*
X507434Y398079D01*
X507967D01*
X508500Y397546D01*
X503168Y394880D02*
X505301D01*
Y396479D01*
X504235Y395946D01*
X503702D01*
X503168Y396479D01*
Y397546D01*
X503702Y398079D01*
X504768D01*
X505301Y397546D01*
X502102Y398612D02*
X499969D01*
X496770Y394880D02*
X498903D01*
Y398079D01*
X496770D01*
X498903Y396479D02*
X497837D01*
X493572Y395413D02*
X494105Y394880D01*
X495171D01*
X495704Y395413D01*
Y395946D01*
X495171Y396479D01*
X494105D01*
X493572Y397012D01*
Y397546D01*
X494105Y398079D01*
X495171D01*
X495704Y397546D01*
X490373Y395413D02*
X490906Y394880D01*
X491972D01*
X492505Y395413D01*
Y397546D01*
X491972Y398079D01*
X490906D01*
X490373Y397546D01*
X489306Y394880D02*
X487174D01*
Y395413D01*
X489306Y397546D01*
Y398079D01*
X634367Y394880D02*
X635434D01*
X634901D01*
Y397546D01*
X635434Y398079D01*
X635967D01*
X636500Y397546D01*
X631168Y394880D02*
X633301D01*
Y396479D01*
X632235Y395946D01*
X631702D01*
X631168Y396479D01*
Y397546D01*
X631702Y398079D01*
X632768D01*
X633301Y397546D01*
X630102Y398612D02*
X627969D01*
X624770Y394880D02*
X626903D01*
Y398079D01*
X624770D01*
X626903Y396479D02*
X625837D01*
X621571Y395413D02*
X622105Y394880D01*
X623171D01*
X623704Y395413D01*
Y395946D01*
X623171Y396479D01*
X622105D01*
X621571Y397012D01*
Y397546D01*
X622105Y398079D01*
X623171D01*
X623704Y397546D01*
X618372Y395413D02*
X618906Y394880D01*
X619972D01*
X620505Y395413D01*
Y397546D01*
X619972Y398079D01*
X618906D01*
X618372Y397546D01*
X617306Y395413D02*
X616773Y394880D01*
X615707D01*
X615173Y395413D01*
Y395946D01*
X615707Y396479D01*
X615173Y397012D01*
Y397546D01*
X615707Y398079D01*
X616773D01*
X617306Y397546D01*
Y397012D01*
X616773Y396479D01*
X617306Y395946D01*
Y395413D01*
X616773Y396479D02*
X615707D01*
X718633Y174620D02*
X717566D01*
X718099D01*
Y171954D01*
X717566Y171421D01*
X717033D01*
X716500Y171954D01*
X721832Y174620D02*
X720765Y174087D01*
X719699Y173021D01*
Y171954D01*
X720232Y171421D01*
X721298D01*
X721832Y171954D01*
Y172488D01*
X721298Y173021D01*
X719699D01*
X722898Y170888D02*
X725031D01*
X728230Y174620D02*
X726097D01*
Y171421D01*
X728230D01*
X726097Y173021D02*
X727163D01*
X731428Y174087D02*
X730895Y174620D01*
X729829D01*
X729296Y174087D01*
Y173554D01*
X729829Y173021D01*
X730895D01*
X731428Y172488D01*
Y171954D01*
X730895Y171421D01*
X729829D01*
X729296Y171954D01*
X734627Y174087D02*
X734094Y174620D01*
X733028D01*
X732495Y174087D01*
Y171954D01*
X733028Y171421D01*
X734094D01*
X734627Y171954D01*
X735694Y171421D02*
X736760D01*
X736227D01*
Y174620D01*
X735694Y174087D01*
X590633Y174620D02*
X589566D01*
X590099D01*
Y171954D01*
X589566Y171421D01*
X589033D01*
X588500Y171954D01*
X593832Y174620D02*
X592765Y174087D01*
X591699Y173021D01*
Y171954D01*
X592232Y171421D01*
X593298D01*
X593832Y171954D01*
Y172488D01*
X593298Y173021D01*
X591699D01*
X594898Y170888D02*
X597031D01*
X600230Y174620D02*
X598097D01*
Y171421D01*
X600230D01*
X598097Y173021D02*
X599163D01*
X603429Y174087D02*
X602895Y174620D01*
X601829D01*
X601296Y174087D01*
Y173554D01*
X601829Y173021D01*
X602895D01*
X603429Y172488D01*
Y171954D01*
X602895Y171421D01*
X601829D01*
X601296Y171954D01*
X606628Y174087D02*
X606094Y174620D01*
X605028D01*
X604495Y174087D01*
Y171954D01*
X605028Y171421D01*
X606094D01*
X606628Y171954D01*
X609827Y171421D02*
X607694D01*
X609827Y173554D01*
Y174087D01*
X609293Y174620D01*
X608227D01*
X607694Y174087D01*
X462633Y174620D02*
X461566D01*
X462100D01*
Y171954D01*
X461566Y171421D01*
X461033D01*
X460500Y171954D01*
X465832Y174620D02*
X464765Y174087D01*
X463699Y173021D01*
Y171954D01*
X464232Y171421D01*
X465298D01*
X465832Y171954D01*
Y172488D01*
X465298Y173021D01*
X463699D01*
X466898Y170888D02*
X469031D01*
X472230Y174620D02*
X470097D01*
Y171421D01*
X472230D01*
X470097Y173021D02*
X471163D01*
X475428Y174087D02*
X474895Y174620D01*
X473829D01*
X473296Y174087D01*
Y173554D01*
X473829Y173021D01*
X474895D01*
X475428Y172488D01*
Y171954D01*
X474895Y171421D01*
X473829D01*
X473296Y171954D01*
X478627Y174087D02*
X478094Y174620D01*
X477028D01*
X476495Y174087D01*
Y171954D01*
X477028Y171421D01*
X478094D01*
X478627Y171954D01*
X479694Y174087D02*
X480227Y174620D01*
X481293D01*
X481826Y174087D01*
Y173554D01*
X481293Y173021D01*
X480760D01*
X481293D01*
X481826Y172488D01*
Y171954D01*
X481293Y171421D01*
X480227D01*
X479694Y171954D01*
X334633Y174620D02*
X333566D01*
X334100D01*
Y171954D01*
X333566Y171421D01*
X333033D01*
X332500Y171954D01*
X337832Y174620D02*
X336765Y174087D01*
X335699Y173021D01*
Y171954D01*
X336232Y171421D01*
X337298D01*
X337832Y171954D01*
Y172488D01*
X337298Y173021D01*
X335699D01*
X338898Y170888D02*
X341031D01*
X344230Y174620D02*
X342097D01*
Y171421D01*
X344230D01*
X342097Y173021D02*
X343163D01*
X347428Y174087D02*
X346895Y174620D01*
X345829D01*
X345296Y174087D01*
Y173554D01*
X345829Y173021D01*
X346895D01*
X347428Y172488D01*
Y171954D01*
X346895Y171421D01*
X345829D01*
X345296Y171954D01*
X350627Y174087D02*
X350094Y174620D01*
X349028D01*
X348495Y174087D01*
Y171954D01*
X349028Y171421D01*
X350094D01*
X350627Y171954D01*
X353293Y171421D02*
Y174620D01*
X351694Y173021D01*
X353826D01*
X250367Y400380D02*
X251434D01*
X250901D01*
Y403046D01*
X251434Y403579D01*
X251967D01*
X252500Y403046D01*
X247168Y400380D02*
X248235Y400913D01*
X249301Y401979D01*
Y403046D01*
X248768Y403579D01*
X247702D01*
X247168Y403046D01*
Y402512D01*
X247702Y401979D01*
X249301D01*
X246102Y404112D02*
X243969D01*
X240770Y400380D02*
X242903D01*
Y403579D01*
X240770D01*
X242903Y401979D02*
X241837D01*
X237572Y400913D02*
X238105Y400380D01*
X239171D01*
X239704Y400913D01*
Y401446D01*
X239171Y401979D01*
X238105D01*
X237572Y402512D01*
Y403046D01*
X238105Y403579D01*
X239171D01*
X239704Y403046D01*
X234372Y400913D02*
X234906Y400380D01*
X235972D01*
X236505Y400913D01*
Y403046D01*
X235972Y403579D01*
X234906D01*
X234372Y403046D01*
X231173Y400380D02*
X233306D01*
Y401979D01*
X232240Y401446D01*
X231707D01*
X231173Y401979D01*
Y403046D01*
X231707Y403579D01*
X232773D01*
X233306Y403046D01*
X378367Y400380D02*
X379434D01*
X378901D01*
Y403046D01*
X379434Y403579D01*
X379967D01*
X380500Y403046D01*
X375168Y400380D02*
X376235Y400913D01*
X377301Y401979D01*
Y403046D01*
X376768Y403579D01*
X375701D01*
X375168Y403046D01*
Y402512D01*
X375701Y401979D01*
X377301D01*
X374102Y404112D02*
X371969D01*
X368770Y400380D02*
X370903D01*
Y403579D01*
X368770D01*
X370903Y401979D02*
X369837D01*
X365571Y400913D02*
X366105Y400380D01*
X367171D01*
X367704Y400913D01*
Y401446D01*
X367171Y401979D01*
X366105D01*
X365571Y402512D01*
Y403046D01*
X366105Y403579D01*
X367171D01*
X367704Y403046D01*
X362372Y400913D02*
X362906Y400380D01*
X363972D01*
X364505Y400913D01*
Y403046D01*
X363972Y403579D01*
X362906D01*
X362372Y403046D01*
X359173Y400380D02*
X360240Y400913D01*
X361306Y401979D01*
Y403046D01*
X360773Y403579D01*
X359707D01*
X359173Y403046D01*
Y402512D01*
X359707Y401979D01*
X361306D01*
X506367Y400380D02*
X507434D01*
X506901D01*
Y403046D01*
X507434Y403579D01*
X507967D01*
X508500Y403046D01*
X503168Y400380D02*
X504235Y400913D01*
X505301Y401979D01*
Y403046D01*
X504768Y403579D01*
X503702D01*
X503168Y403046D01*
Y402512D01*
X503702Y401979D01*
X505301D01*
X502102Y404112D02*
X499969D01*
X496770Y400380D02*
X498903D01*
Y403579D01*
X496770D01*
X498903Y401979D02*
X497837D01*
X493572Y400913D02*
X494105Y400380D01*
X495171D01*
X495704Y400913D01*
Y401446D01*
X495171Y401979D01*
X494105D01*
X493572Y402512D01*
Y403046D01*
X494105Y403579D01*
X495171D01*
X495704Y403046D01*
X490373Y400913D02*
X490906Y400380D01*
X491972D01*
X492505Y400913D01*
Y403046D01*
X491972Y403579D01*
X490906D01*
X490373Y403046D01*
X489306Y400380D02*
X487174D01*
Y400913D01*
X489306Y403046D01*
Y403579D01*
X634367Y400380D02*
X635434D01*
X634901D01*
Y403046D01*
X635434Y403579D01*
X635967D01*
X636500Y403046D01*
X631168Y400380D02*
X632235Y400913D01*
X633301Y401979D01*
Y403046D01*
X632768Y403579D01*
X631702D01*
X631168Y403046D01*
Y402512D01*
X631702Y401979D01*
X633301D01*
X630102Y404112D02*
X627969D01*
X624770Y400380D02*
X626903D01*
Y403579D01*
X624770D01*
X626903Y401979D02*
X625837D01*
X621571Y400913D02*
X622105Y400380D01*
X623171D01*
X623704Y400913D01*
Y401446D01*
X623171Y401979D01*
X622105D01*
X621571Y402512D01*
Y403046D01*
X622105Y403579D01*
X623171D01*
X623704Y403046D01*
X618372Y400913D02*
X618906Y400380D01*
X619972D01*
X620505Y400913D01*
Y403046D01*
X619972Y403579D01*
X618906D01*
X618372Y403046D01*
X617306Y400913D02*
X616773Y400380D01*
X615707D01*
X615173Y400913D01*
Y401446D01*
X615707Y401979D01*
X615173Y402512D01*
Y403046D01*
X615707Y403579D01*
X616773D01*
X617306Y403046D01*
Y402512D01*
X616773Y401979D01*
X617306Y401446D01*
Y400913D01*
X616773Y401979D02*
X615707D01*
X651038Y215620D02*
X649972D01*
X650505D01*
Y212954D01*
X649972Y212421D01*
X649439D01*
X648906Y212954D01*
X652105Y215620D02*
X654237D01*
Y215087D01*
X652105Y212954D01*
Y212421D01*
X655303Y211888D02*
X657436D01*
X660635Y215620D02*
X658502D01*
Y212421D01*
X660635D01*
X658502Y214021D02*
X659569D01*
X663834Y215087D02*
X663301Y215620D01*
X662234D01*
X661701Y215087D01*
Y214554D01*
X662234Y214021D01*
X663301D01*
X663834Y213488D01*
Y212954D01*
X663301Y212421D01*
X662234D01*
X661701Y212954D01*
X667033Y215087D02*
X666500Y215620D01*
X665434D01*
X664900Y215087D01*
Y212954D01*
X665434Y212421D01*
X666500D01*
X667033Y212954D01*
X668099Y212421D02*
X669166D01*
X668633D01*
Y215620D01*
X668099Y215087D01*
X523038Y215620D02*
X521972D01*
X522505D01*
Y212954D01*
X521972Y212421D01*
X521439D01*
X520905Y212954D01*
X524104Y215620D02*
X526237D01*
Y215087D01*
X524104Y212954D01*
Y212421D01*
X527303Y211888D02*
X529436D01*
X532635Y215620D02*
X530502D01*
Y212421D01*
X532635D01*
X530502Y214021D02*
X531569D01*
X535834Y215087D02*
X535301Y215620D01*
X534235D01*
X533701Y215087D01*
Y214554D01*
X534235Y214021D01*
X535301D01*
X535834Y213488D01*
Y212954D01*
X535301Y212421D01*
X534235D01*
X533701Y212954D01*
X539033Y215087D02*
X538500Y215620D01*
X537433D01*
X536900Y215087D01*
Y212954D01*
X537433Y212421D01*
X538500D01*
X539033Y212954D01*
X542232Y212421D02*
X540099D01*
X542232Y214554D01*
Y215087D01*
X541699Y215620D01*
X540632D01*
X540099Y215087D01*
X395038Y215620D02*
X393972D01*
X394505D01*
Y212954D01*
X393972Y212421D01*
X393439D01*
X392905Y212954D01*
X396105Y215620D02*
X398237D01*
Y215087D01*
X396105Y212954D01*
Y212421D01*
X399303Y211888D02*
X401436D01*
X404635Y215620D02*
X402502D01*
Y212421D01*
X404635D01*
X402502Y214021D02*
X403569D01*
X407834Y215087D02*
X407301Y215620D01*
X406235D01*
X405701Y215087D01*
Y214554D01*
X406235Y214021D01*
X407301D01*
X407834Y213488D01*
Y212954D01*
X407301Y212421D01*
X406235D01*
X405701Y212954D01*
X411033Y215087D02*
X410500Y215620D01*
X409434D01*
X408900Y215087D01*
Y212954D01*
X409434Y212421D01*
X410500D01*
X411033Y212954D01*
X412099Y215087D02*
X412633Y215620D01*
X413699D01*
X414232Y215087D01*
Y214554D01*
X413699Y214021D01*
X413166D01*
X413699D01*
X414232Y213488D01*
Y212954D01*
X413699Y212421D01*
X412633D01*
X412099Y212954D01*
X267038Y215620D02*
X265972D01*
X266505D01*
Y212954D01*
X265972Y212421D01*
X265439D01*
X264906Y212954D01*
X268105Y215620D02*
X270237D01*
Y215087D01*
X268105Y212954D01*
Y212421D01*
X271303Y211888D02*
X273436D01*
X276635Y215620D02*
X274502D01*
Y212421D01*
X276635D01*
X274502Y214021D02*
X275569D01*
X279834Y215087D02*
X279301Y215620D01*
X278235D01*
X277701Y215087D01*
Y214554D01*
X278235Y214021D01*
X279301D01*
X279834Y213488D01*
Y212954D01*
X279301Y212421D01*
X278235D01*
X277701Y212954D01*
X283033Y215087D02*
X282500Y215620D01*
X281434D01*
X280900Y215087D01*
Y212954D01*
X281434Y212421D01*
X282500D01*
X283033Y212954D01*
X285699Y212421D02*
Y215620D01*
X284099Y214021D01*
X286232D01*
X317962Y359380D02*
X319028D01*
X318495D01*
Y362046D01*
X319028Y362579D01*
X319561D01*
X320094Y362046D01*
X316896Y359380D02*
X314763D01*
Y359913D01*
X316896Y362046D01*
Y362579D01*
X313697Y363112D02*
X311564D01*
X308365Y359380D02*
X310498D01*
Y362579D01*
X308365D01*
X310498Y360979D02*
X309431D01*
X305166Y359913D02*
X305699Y359380D01*
X306766D01*
X307299Y359913D01*
Y360446D01*
X306766Y360979D01*
X305699D01*
X305166Y361512D01*
Y362046D01*
X305699Y362579D01*
X306766D01*
X307299Y362046D01*
X301967Y359913D02*
X302500Y359380D01*
X303567D01*
X304100Y359913D01*
Y362046D01*
X303567Y362579D01*
X302500D01*
X301967Y362046D01*
X298768Y359380D02*
X300901D01*
Y360979D01*
X299834Y360446D01*
X299301D01*
X298768Y360979D01*
Y362046D01*
X299301Y362579D01*
X300367D01*
X300901Y362046D01*
X445962Y359380D02*
X447028D01*
X446495D01*
Y362046D01*
X447028Y362579D01*
X447561D01*
X448095Y362046D01*
X444896Y359380D02*
X442763D01*
Y359913D01*
X444896Y362046D01*
Y362579D01*
X441697Y363112D02*
X439564D01*
X436365Y359380D02*
X438498D01*
Y362579D01*
X436365D01*
X438498Y360979D02*
X437431D01*
X433166Y359913D02*
X433699Y359380D01*
X434765D01*
X435299Y359913D01*
Y360446D01*
X434765Y360979D01*
X433699D01*
X433166Y361512D01*
Y362046D01*
X433699Y362579D01*
X434765D01*
X435299Y362046D01*
X429967Y359913D02*
X430500Y359380D01*
X431566D01*
X432100Y359913D01*
Y362046D01*
X431566Y362579D01*
X430500D01*
X429967Y362046D01*
X426768Y359380D02*
X427834Y359913D01*
X428901Y360979D01*
Y362046D01*
X428368Y362579D01*
X427301D01*
X426768Y362046D01*
Y361512D01*
X427301Y360979D01*
X428901D01*
X573962Y359380D02*
X575028D01*
X574495D01*
Y362046D01*
X575028Y362579D01*
X575561D01*
X576094Y362046D01*
X572895Y359380D02*
X570763D01*
Y359913D01*
X572895Y362046D01*
Y362579D01*
X569697Y363112D02*
X567564D01*
X564365Y359380D02*
X566498D01*
Y362579D01*
X564365D01*
X566498Y360979D02*
X565431D01*
X561166Y359913D02*
X561699Y359380D01*
X562766D01*
X563299Y359913D01*
Y360446D01*
X562766Y360979D01*
X561699D01*
X561166Y361512D01*
Y362046D01*
X561699Y362579D01*
X562766D01*
X563299Y362046D01*
X557967Y359913D02*
X558500Y359380D01*
X559566D01*
X560100Y359913D01*
Y362046D01*
X559566Y362579D01*
X558500D01*
X557967Y362046D01*
X556901Y359380D02*
X554768D01*
Y359913D01*
X556901Y362046D01*
Y362579D01*
X701962Y359380D02*
X703028D01*
X702495D01*
Y362046D01*
X703028Y362579D01*
X703561D01*
X704095Y362046D01*
X700896Y359380D02*
X698763D01*
Y359913D01*
X700896Y362046D01*
Y362579D01*
X697697Y363112D02*
X695564D01*
X692365Y359380D02*
X694498D01*
Y362579D01*
X692365D01*
X694498Y360979D02*
X693431D01*
X689166Y359913D02*
X689699Y359380D01*
X690765D01*
X691299Y359913D01*
Y360446D01*
X690765Y360979D01*
X689699D01*
X689166Y361512D01*
Y362046D01*
X689699Y362579D01*
X690765D01*
X691299Y362046D01*
X685967Y359913D02*
X686500Y359380D01*
X687567D01*
X688100Y359913D01*
Y362046D01*
X687567Y362579D01*
X686500D01*
X685967Y362046D01*
X684901Y359913D02*
X684368Y359380D01*
X683301D01*
X682768Y359913D01*
Y360446D01*
X683301Y360979D01*
X682768Y361512D01*
Y362046D01*
X683301Y362579D01*
X684368D01*
X684901Y362046D01*
Y361512D01*
X684368Y360979D01*
X684901Y360446D01*
Y359913D01*
X684368Y360979D02*
X683301D01*
X651538Y232620D02*
X650472D01*
X651005D01*
Y229954D01*
X650472Y229421D01*
X649939D01*
X649405Y229954D01*
X652604Y232087D02*
X653138Y232620D01*
X654204D01*
X654737Y232087D01*
Y231554D01*
X654204Y231021D01*
X654737Y230488D01*
Y229954D01*
X654204Y229421D01*
X653138D01*
X652604Y229954D01*
Y230488D01*
X653138Y231021D01*
X652604Y231554D01*
Y232087D01*
X653138Y231021D02*
X654204D01*
X655803Y228888D02*
X657936D01*
X661135Y232620D02*
X659002D01*
Y229421D01*
X661135D01*
X659002Y231021D02*
X660069D01*
X664334Y232087D02*
X663801Y232620D01*
X662735D01*
X662201Y232087D01*
Y231554D01*
X662735Y231021D01*
X663801D01*
X664334Y230488D01*
Y229954D01*
X663801Y229421D01*
X662735D01*
X662201Y229954D01*
X667533Y232087D02*
X667000Y232620D01*
X665934D01*
X665400Y232087D01*
Y229954D01*
X665934Y229421D01*
X667000D01*
X667533Y229954D01*
X668599Y229421D02*
X669666D01*
X669133D01*
Y232620D01*
X668599Y232087D01*
X523538Y232620D02*
X522472D01*
X523005D01*
Y229954D01*
X522472Y229421D01*
X521939D01*
X521406Y229954D01*
X524605Y232087D02*
X525138Y232620D01*
X526204D01*
X526737Y232087D01*
Y231554D01*
X526204Y231021D01*
X526737Y230488D01*
Y229954D01*
X526204Y229421D01*
X525138D01*
X524605Y229954D01*
Y230488D01*
X525138Y231021D01*
X524605Y231554D01*
Y232087D01*
X525138Y231021D02*
X526204D01*
X527803Y228888D02*
X529936D01*
X533135Y232620D02*
X531002D01*
Y229421D01*
X533135D01*
X531002Y231021D02*
X532069D01*
X536334Y232087D02*
X535801Y232620D01*
X534734D01*
X534201Y232087D01*
Y231554D01*
X534734Y231021D01*
X535801D01*
X536334Y230488D01*
Y229954D01*
X535801Y229421D01*
X534734D01*
X534201Y229954D01*
X539533Y232087D02*
X539000Y232620D01*
X537933D01*
X537400Y232087D01*
Y229954D01*
X537933Y229421D01*
X539000D01*
X539533Y229954D01*
X542732Y229421D02*
X540599D01*
X542732Y231554D01*
Y232087D01*
X542199Y232620D01*
X541132D01*
X540599Y232087D01*
X395538Y232620D02*
X394472D01*
X395005D01*
Y229954D01*
X394472Y229421D01*
X393939D01*
X393406Y229954D01*
X396604Y232087D02*
X397138Y232620D01*
X398204D01*
X398737Y232087D01*
Y231554D01*
X398204Y231021D01*
X398737Y230488D01*
Y229954D01*
X398204Y229421D01*
X397138D01*
X396604Y229954D01*
Y230488D01*
X397138Y231021D01*
X396604Y231554D01*
Y232087D01*
X397138Y231021D02*
X398204D01*
X399803Y228888D02*
X401936D01*
X405135Y232620D02*
X403002D01*
Y229421D01*
X405135D01*
X403002Y231021D02*
X404069D01*
X408334Y232087D02*
X407801Y232620D01*
X406735D01*
X406201Y232087D01*
Y231554D01*
X406735Y231021D01*
X407801D01*
X408334Y230488D01*
Y229954D01*
X407801Y229421D01*
X406735D01*
X406201Y229954D01*
X411533Y232087D02*
X411000Y232620D01*
X409934D01*
X409400Y232087D01*
Y229954D01*
X409934Y229421D01*
X411000D01*
X411533Y229954D01*
X412599Y232087D02*
X413132Y232620D01*
X414199D01*
X414732Y232087D01*
Y231554D01*
X414199Y231021D01*
X413666D01*
X414199D01*
X414732Y230488D01*
Y229954D01*
X414199Y229421D01*
X413132D01*
X412599Y229954D01*
X267538Y232620D02*
X266472D01*
X267005D01*
Y229954D01*
X266472Y229421D01*
X265939D01*
X265406Y229954D01*
X268604Y232087D02*
X269138Y232620D01*
X270204D01*
X270737Y232087D01*
Y231554D01*
X270204Y231021D01*
X270737Y230488D01*
Y229954D01*
X270204Y229421D01*
X269138D01*
X268604Y229954D01*
Y230488D01*
X269138Y231021D01*
X268604Y231554D01*
Y232087D01*
X269138Y231021D02*
X270204D01*
X271803Y228888D02*
X273936D01*
X277135Y232620D02*
X275002D01*
Y229421D01*
X277135D01*
X275002Y231021D02*
X276069D01*
X280334Y232087D02*
X279801Y232620D01*
X278734D01*
X278201Y232087D01*
Y231554D01*
X278734Y231021D01*
X279801D01*
X280334Y230488D01*
Y229954D01*
X279801Y229421D01*
X278734D01*
X278201Y229954D01*
X283533Y232087D02*
X283000Y232620D01*
X281933D01*
X281400Y232087D01*
Y229954D01*
X281933Y229421D01*
X283000D01*
X283533Y229954D01*
X286199Y229421D02*
Y232620D01*
X284599Y231021D01*
X286732D01*
X317462Y342380D02*
X318528D01*
X317995D01*
Y345046D01*
X318528Y345579D01*
X319061D01*
X319595Y345046D01*
X316395Y342913D02*
X315862Y342380D01*
X314796D01*
X314263Y342913D01*
Y343446D01*
X314796Y343979D01*
X314263Y344512D01*
Y345046D01*
X314796Y345579D01*
X315862D01*
X316395Y345046D01*
Y344512D01*
X315862Y343979D01*
X316395Y343446D01*
Y342913D01*
X315862Y343979D02*
X314796D01*
X313197Y346112D02*
X311064D01*
X307865Y342380D02*
X309998D01*
Y345579D01*
X307865D01*
X309998Y343979D02*
X308931D01*
X304666Y342913D02*
X305199Y342380D01*
X306265D01*
X306799Y342913D01*
Y343446D01*
X306265Y343979D01*
X305199D01*
X304666Y344512D01*
Y345046D01*
X305199Y345579D01*
X306265D01*
X306799Y345046D01*
X301467Y342913D02*
X302000Y342380D01*
X303066D01*
X303600Y342913D01*
Y345046D01*
X303066Y345579D01*
X302000D01*
X301467Y345046D01*
X298268Y342380D02*
X300401D01*
Y343979D01*
X299334Y343446D01*
X298801D01*
X298268Y343979D01*
Y345046D01*
X298801Y345579D01*
X299868D01*
X300401Y345046D01*
X445462Y342380D02*
X446528D01*
X445995D01*
Y345046D01*
X446528Y345579D01*
X447061D01*
X447594Y345046D01*
X444395Y342913D02*
X443862Y342380D01*
X442796D01*
X442263Y342913D01*
Y343446D01*
X442796Y343979D01*
X442263Y344512D01*
Y345046D01*
X442796Y345579D01*
X443862D01*
X444395Y345046D01*
Y344512D01*
X443862Y343979D01*
X444395Y343446D01*
Y342913D01*
X443862Y343979D02*
X442796D01*
X441197Y346112D02*
X439064D01*
X435865Y342380D02*
X437998D01*
Y345579D01*
X435865D01*
X437998Y343979D02*
X436931D01*
X432666Y342913D02*
X433199Y342380D01*
X434266D01*
X434799Y342913D01*
Y343446D01*
X434266Y343979D01*
X433199D01*
X432666Y344512D01*
Y345046D01*
X433199Y345579D01*
X434266D01*
X434799Y345046D01*
X429467Y342913D02*
X430000Y342380D01*
X431067D01*
X431600Y342913D01*
Y345046D01*
X431067Y345579D01*
X430000D01*
X429467Y345046D01*
X426268Y342380D02*
X427334Y342913D01*
X428401Y343979D01*
Y345046D01*
X427868Y345579D01*
X426801D01*
X426268Y345046D01*
Y344512D01*
X426801Y343979D01*
X428401D01*
X573462Y342380D02*
X574528D01*
X573995D01*
Y345046D01*
X574528Y345579D01*
X575061D01*
X575595Y345046D01*
X572396Y342913D02*
X571862Y342380D01*
X570796D01*
X570263Y342913D01*
Y343446D01*
X570796Y343979D01*
X570263Y344512D01*
Y345046D01*
X570796Y345579D01*
X571862D01*
X572396Y345046D01*
Y344512D01*
X571862Y343979D01*
X572396Y343446D01*
Y342913D01*
X571862Y343979D02*
X570796D01*
X569197Y346112D02*
X567064D01*
X563865Y342380D02*
X565998D01*
Y345579D01*
X563865D01*
X565998Y343979D02*
X564931D01*
X560666Y342913D02*
X561199Y342380D01*
X562265D01*
X562799Y342913D01*
Y343446D01*
X562265Y343979D01*
X561199D01*
X560666Y344512D01*
Y345046D01*
X561199Y345579D01*
X562265D01*
X562799Y345046D01*
X557467Y342913D02*
X558000Y342380D01*
X559066D01*
X559600Y342913D01*
Y345046D01*
X559066Y345579D01*
X558000D01*
X557467Y345046D01*
X556401Y342380D02*
X554268D01*
Y342913D01*
X556401Y345046D01*
Y345579D01*
X701462Y342380D02*
X702528D01*
X701995D01*
Y345046D01*
X702528Y345579D01*
X703061D01*
X703594Y345046D01*
X700395Y342913D02*
X699862Y342380D01*
X698796D01*
X698263Y342913D01*
Y343446D01*
X698796Y343979D01*
X698263Y344512D01*
Y345046D01*
X698796Y345579D01*
X699862D01*
X700395Y345046D01*
Y344512D01*
X699862Y343979D01*
X700395Y343446D01*
Y342913D01*
X699862Y343979D02*
X698796D01*
X697197Y346112D02*
X695064D01*
X691865Y342380D02*
X693998D01*
Y345579D01*
X691865D01*
X693998Y343979D02*
X692931D01*
X688666Y342913D02*
X689199Y342380D01*
X690266D01*
X690799Y342913D01*
Y343446D01*
X690266Y343979D01*
X689199D01*
X688666Y344512D01*
Y345046D01*
X689199Y345579D01*
X690266D01*
X690799Y345046D01*
X685467Y342913D02*
X686000Y342380D01*
X687067D01*
X687600Y342913D01*
Y345046D01*
X687067Y345579D01*
X686000D01*
X685467Y345046D01*
X684401Y342913D02*
X683868Y342380D01*
X682801D01*
X682268Y342913D01*
Y343446D01*
X682801Y343979D01*
X682268Y344512D01*
Y345046D01*
X682801Y345579D01*
X683868D01*
X684401Y345046D01*
Y344512D01*
X683868Y343979D01*
X684401Y343446D01*
Y342913D01*
X683868Y343979D02*
X682801D01*
X825000Y462500D02*
Y465699D01*
X826600D01*
X827133Y465166D01*
Y464100D01*
X826600Y463566D01*
X825000D01*
X828199Y462500D02*
X829265D01*
X828732D01*
Y465699D01*
X828199Y465166D01*
X823500Y277500D02*
Y280699D01*
X825099D01*
X825633Y280166D01*
Y279099D01*
X825099Y278566D01*
X823500D01*
X828832Y277500D02*
X826699D01*
X828832Y279633D01*
Y280166D01*
X828298Y280699D01*
X827232D01*
X826699Y280166D01*
X727200Y300000D02*
Y303199D01*
X728799D01*
X729333Y302666D01*
Y301600D01*
X728799Y301066D01*
X727200D01*
X730399Y302666D02*
X730932Y303199D01*
X731998D01*
X732532Y302666D01*
Y302133D01*
X731998Y301600D01*
X731465D01*
X731998D01*
X732532Y301066D01*
Y300533D01*
X731998Y300000D01*
X730932D01*
X730399Y300533D01*
X793500Y321000D02*
Y324199D01*
X795099D01*
X795633Y323666D01*
Y322600D01*
X795099Y322066D01*
X793500D01*
X798298Y321000D02*
Y324199D01*
X796699Y322600D01*
X798832D01*
X632905Y171921D02*
Y175120D01*
X634505D01*
X635038Y174587D01*
Y173521D01*
X634505Y172988D01*
X632905D01*
X638237Y175120D02*
X637171Y174587D01*
X636104Y173521D01*
Y172454D01*
X636638Y171921D01*
X637704D01*
X638237Y172454D01*
Y172988D01*
X637704Y173521D01*
X636104D01*
X639303Y171388D02*
X641436D01*
X644635Y175120D02*
X642502D01*
Y171921D01*
X644635D01*
X642502Y173521D02*
X643569D01*
X647834Y174587D02*
X647301Y175120D01*
X646235D01*
X645701Y174587D01*
Y174054D01*
X646235Y173521D01*
X647301D01*
X647834Y172988D01*
Y172454D01*
X647301Y171921D01*
X646235D01*
X645701Y172454D01*
X651033Y174587D02*
X650500Y175120D01*
X649434D01*
X648900Y174587D01*
Y172454D01*
X649434Y171921D01*
X650500D01*
X651033Y172454D01*
X652099Y171921D02*
X653166D01*
X652633D01*
Y175120D01*
X652099Y174587D01*
X504906Y171921D02*
Y175120D01*
X506505D01*
X507038Y174587D01*
Y173521D01*
X506505Y172988D01*
X504906D01*
X510237Y175120D02*
X509171Y174587D01*
X508105Y173521D01*
Y172454D01*
X508638Y171921D01*
X509704D01*
X510237Y172454D01*
Y172988D01*
X509704Y173521D01*
X508105D01*
X511303Y171388D02*
X513436D01*
X516635Y175120D02*
X514502D01*
Y171921D01*
X516635D01*
X514502Y173521D02*
X515569D01*
X519834Y174587D02*
X519301Y175120D01*
X518234D01*
X517701Y174587D01*
Y174054D01*
X518234Y173521D01*
X519301D01*
X519834Y172988D01*
Y172454D01*
X519301Y171921D01*
X518234D01*
X517701Y172454D01*
X523033Y174587D02*
X522500Y175120D01*
X521433D01*
X520900Y174587D01*
Y172454D01*
X521433Y171921D01*
X522500D01*
X523033Y172454D01*
X526232Y171921D02*
X524099D01*
X526232Y174054D01*
Y174587D01*
X525699Y175120D01*
X524633D01*
X524099Y174587D01*
X248905Y171921D02*
Y175120D01*
X250505D01*
X251038Y174587D01*
Y173521D01*
X250505Y172988D01*
X248905D01*
X254237Y175120D02*
X253171Y174587D01*
X252104Y173521D01*
Y172454D01*
X252638Y171921D01*
X253704D01*
X254237Y172454D01*
Y172988D01*
X253704Y173521D01*
X252104D01*
X255303Y171388D02*
X257436D01*
X260635Y175120D02*
X258502D01*
Y171921D01*
X260635D01*
X258502Y173521D02*
X259569D01*
X263834Y174587D02*
X263301Y175120D01*
X262234D01*
X261701Y174587D01*
Y174054D01*
X262234Y173521D01*
X263301D01*
X263834Y172988D01*
Y172454D01*
X263301Y171921D01*
X262234D01*
X261701Y172454D01*
X267033Y174587D02*
X266500Y175120D01*
X265434D01*
X264900Y174587D01*
Y172454D01*
X265434Y171921D01*
X266500D01*
X267033Y172454D01*
X269699Y171921D02*
Y175120D01*
X268099Y173521D01*
X270232D01*
X336094Y403079D02*
Y399880D01*
X334495D01*
X333962Y400413D01*
Y401479D01*
X334495Y402012D01*
X336094D01*
X330763Y399880D02*
X331829Y400413D01*
X332895Y401479D01*
Y402546D01*
X332362Y403079D01*
X331296D01*
X330763Y402546D01*
Y402012D01*
X331296Y401479D01*
X332895D01*
X329697Y403612D02*
X327564D01*
X324365Y399880D02*
X326498D01*
Y403079D01*
X324365D01*
X326498Y401479D02*
X325431D01*
X321166Y400413D02*
X321699Y399880D01*
X322765D01*
X323299Y400413D01*
Y400946D01*
X322765Y401479D01*
X321699D01*
X321166Y402012D01*
Y402546D01*
X321699Y403079D01*
X322765D01*
X323299Y402546D01*
X317967Y400413D02*
X318500Y399880D01*
X319566D01*
X320100Y400413D01*
Y402546D01*
X319566Y403079D01*
X318500D01*
X317967Y402546D01*
X314768Y399880D02*
X316901D01*
Y401479D01*
X315834Y400946D01*
X315301D01*
X314768Y401479D01*
Y402546D01*
X315301Y403079D01*
X316368D01*
X316901Y402546D01*
X464094Y403079D02*
Y399880D01*
X462495D01*
X461962Y400413D01*
Y401479D01*
X462495Y402012D01*
X464094D01*
X458763Y399880D02*
X459829Y400413D01*
X460895Y401479D01*
Y402546D01*
X460362Y403079D01*
X459296D01*
X458763Y402546D01*
Y402012D01*
X459296Y401479D01*
X460895D01*
X457697Y403612D02*
X455564D01*
X452365Y399880D02*
X454498D01*
Y403079D01*
X452365D01*
X454498Y401479D02*
X453431D01*
X449166Y400413D02*
X449699Y399880D01*
X450766D01*
X451299Y400413D01*
Y400946D01*
X450766Y401479D01*
X449699D01*
X449166Y402012D01*
Y402546D01*
X449699Y403079D01*
X450766D01*
X451299Y402546D01*
X445967Y400413D02*
X446500Y399880D01*
X447567D01*
X448100Y400413D01*
Y402546D01*
X447567Y403079D01*
X446500D01*
X445967Y402546D01*
X442768Y399880D02*
X443834Y400413D01*
X444901Y401479D01*
Y402546D01*
X444368Y403079D01*
X443301D01*
X442768Y402546D01*
Y402012D01*
X443301Y401479D01*
X444901D01*
X592095Y403079D02*
Y399880D01*
X590495D01*
X589962Y400413D01*
Y401479D01*
X590495Y402012D01*
X592095D01*
X586763Y399880D02*
X587829Y400413D01*
X588896Y401479D01*
Y402546D01*
X588362Y403079D01*
X587296D01*
X586763Y402546D01*
Y402012D01*
X587296Y401479D01*
X588896D01*
X585697Y403612D02*
X583564D01*
X580365Y399880D02*
X582498D01*
Y403079D01*
X580365D01*
X582498Y401479D02*
X581431D01*
X577166Y400413D02*
X577699Y399880D01*
X578765D01*
X579299Y400413D01*
Y400946D01*
X578765Y401479D01*
X577699D01*
X577166Y402012D01*
Y402546D01*
X577699Y403079D01*
X578765D01*
X579299Y402546D01*
X573967Y400413D02*
X574500Y399880D01*
X575566D01*
X576100Y400413D01*
Y402546D01*
X575566Y403079D01*
X574500D01*
X573967Y402546D01*
X572901Y399880D02*
X570768D01*
Y400413D01*
X572901Y402546D01*
Y403079D01*
X720094D02*
Y399880D01*
X718495D01*
X717962Y400413D01*
Y401479D01*
X718495Y402012D01*
X720094D01*
X714763Y399880D02*
X715829Y400413D01*
X716895Y401479D01*
Y402546D01*
X716362Y403079D01*
X715296D01*
X714763Y402546D01*
Y402012D01*
X715296Y401479D01*
X716895D01*
X713697Y403612D02*
X711564D01*
X708365Y399880D02*
X710498D01*
Y403079D01*
X708365D01*
X710498Y401479D02*
X709431D01*
X705166Y400413D02*
X705699Y399880D01*
X706766D01*
X707299Y400413D01*
Y400946D01*
X706766Y401479D01*
X705699D01*
X705166Y402012D01*
Y402546D01*
X705699Y403079D01*
X706766D01*
X707299Y402546D01*
X701967Y400413D02*
X702500Y399880D01*
X703567D01*
X704100Y400413D01*
Y402546D01*
X703567Y403079D01*
X702500D01*
X701967Y402546D01*
X700901Y400413D02*
X700367Y399880D01*
X699301D01*
X698768Y400413D01*
Y400946D01*
X699301Y401479D01*
X698768Y402012D01*
Y402546D01*
X699301Y403079D01*
X700367D01*
X700901Y402546D01*
Y402012D01*
X700367Y401479D01*
X700901Y400946D01*
Y400413D01*
X700367Y401479D02*
X699301D01*
X769533Y407833D02*
Y409966D01*
X768999Y410499D01*
X767933D01*
X767400Y409966D01*
Y407833D01*
X767933Y407300D01*
X768999D01*
X768466Y408366D02*
X769533Y407300D01*
X768999D02*
X769533Y407833D01*
X770599Y407300D02*
X771665D01*
X771132D01*
Y410499D01*
X770599Y409966D01*
X761633Y215533D02*
Y217666D01*
X761099Y218199D01*
X760033D01*
X759500Y217666D01*
Y215533D01*
X760033Y215000D01*
X761099D01*
X760566Y216066D02*
X761633Y215000D01*
X761099D02*
X761633Y215533D01*
X764832Y215000D02*
X762699D01*
X764832Y217133D01*
Y217666D01*
X764298Y218199D01*
X763232D01*
X762699Y217666D01*
X349367Y367467D02*
Y365334D01*
X349901Y364801D01*
X350967D01*
X351500Y365334D01*
Y367467D01*
X350967Y368000D01*
X349901D01*
X350434Y366934D02*
X349367Y368000D01*
X349901D02*
X349367Y367467D01*
X348301Y365334D02*
X347768Y364801D01*
X346702D01*
X346168Y365334D01*
Y365867D01*
X346702Y366401D01*
X347235D01*
X346702D01*
X346168Y366934D01*
Y367467D01*
X346702Y368000D01*
X347768D01*
X348301Y367467D01*
X345102Y368533D02*
X342969D01*
X339770Y364801D02*
X341903D01*
Y368000D01*
X339770D01*
X341903Y366401D02*
X340837D01*
X336572Y365334D02*
X337105Y364801D01*
X338171D01*
X338704Y365334D01*
Y365867D01*
X338171Y366401D01*
X337105D01*
X336572Y366934D01*
Y367467D01*
X337105Y368000D01*
X338171D01*
X338704Y367467D01*
X333372Y365334D02*
X333906Y364801D01*
X334972D01*
X335505Y365334D01*
Y367467D01*
X334972Y368000D01*
X333906D01*
X333372Y367467D01*
X330173Y364801D02*
X332306D01*
Y366401D01*
X331240Y365867D01*
X330707D01*
X330173Y366401D01*
Y367467D01*
X330707Y368000D01*
X331773D01*
X332306Y367467D01*
X787000Y329500D02*
Y332699D01*
X788599D01*
X789133Y332166D01*
Y331100D01*
X788599Y330566D01*
X787000D01*
X788066D02*
X789133Y329500D01*
X790199D02*
X791265D01*
X790732D01*
Y332699D01*
X790199Y332166D01*
X786000Y144500D02*
Y147699D01*
X787600D01*
X788133Y147166D01*
Y146099D01*
X787600Y145566D01*
X786000D01*
X787066D02*
X788133Y144500D01*
X791332D02*
X789199D01*
X791332Y146633D01*
Y147166D01*
X790798Y147699D01*
X789732D01*
X789199Y147166D01*
X710700Y297000D02*
Y300199D01*
X712299D01*
X712833Y299666D01*
Y298600D01*
X712299Y298066D01*
X710700D01*
X711766D02*
X712833Y297000D01*
X713899Y299666D02*
X714432Y300199D01*
X715498D01*
X716032Y299666D01*
Y299133D01*
X715498Y298600D01*
X714965D01*
X715498D01*
X716032Y298066D01*
Y297533D01*
X715498Y297000D01*
X714432D01*
X713899Y297533D01*
X711000Y274500D02*
Y277699D01*
X712600D01*
X713133Y277166D01*
Y276099D01*
X712600Y275566D01*
X711000D01*
X712066D02*
X713133Y274500D01*
X715798D02*
Y277699D01*
X714199Y276099D01*
X716332D01*
X709791Y200937D02*
Y204136D01*
X711391D01*
X711924Y203603D01*
Y202537D01*
X711391Y202003D01*
X709791D01*
X710858D02*
X711924Y200937D01*
X715123Y204136D02*
X712990D01*
Y202537D01*
X714057Y203070D01*
X714590D01*
X715123Y202537D01*
Y201470D01*
X714590Y200937D01*
X713523D01*
X712990Y201470D01*
X716189Y200404D02*
X718322D01*
X721521Y204136D02*
X719388D01*
Y200937D01*
X721521D01*
X719388Y202537D02*
X720455D01*
X724720Y203603D02*
X724187Y204136D01*
X723120D01*
X722587Y203603D01*
Y203070D01*
X723120Y202537D01*
X724187D01*
X724720Y202003D01*
Y201470D01*
X724187Y200937D01*
X723120D01*
X722587Y201470D01*
X727919Y203603D02*
X727386Y204136D01*
X726319D01*
X725786Y203603D01*
Y201470D01*
X726319Y200937D01*
X727386D01*
X727919Y201470D01*
X728985Y200937D02*
X730052D01*
X729518D01*
Y204136D01*
X728985Y203603D01*
X581791Y200937D02*
Y204136D01*
X583391D01*
X583924Y203603D01*
Y202537D01*
X583391Y202003D01*
X581791D01*
X582858D02*
X583924Y200937D01*
X587123Y204136D02*
X584990D01*
Y202537D01*
X586057Y203070D01*
X586590D01*
X587123Y202537D01*
Y201470D01*
X586590Y200937D01*
X585524D01*
X584990Y201470D01*
X588189Y200404D02*
X590322D01*
X593521Y204136D02*
X591388D01*
Y200937D01*
X593521D01*
X591388Y202537D02*
X592455D01*
X596720Y203603D02*
X596187Y204136D01*
X595120D01*
X594587Y203603D01*
Y203070D01*
X595120Y202537D01*
X596187D01*
X596720Y202003D01*
Y201470D01*
X596187Y200937D01*
X595120D01*
X594587Y201470D01*
X599919Y203603D02*
X599386Y204136D01*
X598319D01*
X597786Y203603D01*
Y201470D01*
X598319Y200937D01*
X599386D01*
X599919Y201470D01*
X603118Y200937D02*
X600985D01*
X603118Y203070D01*
Y203603D01*
X602585Y204136D01*
X601518D01*
X600985Y203603D01*
X453791Y200937D02*
Y204136D01*
X455391D01*
X455924Y203603D01*
Y202537D01*
X455391Y202003D01*
X453791D01*
X454858D02*
X455924Y200937D01*
X459123Y204136D02*
X456990D01*
Y202537D01*
X458057Y203070D01*
X458590D01*
X459123Y202537D01*
Y201470D01*
X458590Y200937D01*
X457523D01*
X456990Y201470D01*
X460189Y200404D02*
X462322D01*
X465521Y204136D02*
X463388D01*
Y200937D01*
X465521D01*
X463388Y202537D02*
X464455D01*
X468720Y203603D02*
X468187Y204136D01*
X467120D01*
X466587Y203603D01*
Y203070D01*
X467120Y202537D01*
X468187D01*
X468720Y202003D01*
Y201470D01*
X468187Y200937D01*
X467120D01*
X466587Y201470D01*
X471919Y203603D02*
X471386Y204136D01*
X470319D01*
X469786Y203603D01*
Y201470D01*
X470319Y200937D01*
X471386D01*
X471919Y201470D01*
X472985Y203603D02*
X473518Y204136D01*
X474585D01*
X475118Y203603D01*
Y203070D01*
X474585Y202537D01*
X474052D01*
X474585D01*
X475118Y202003D01*
Y201470D01*
X474585Y200937D01*
X473518D01*
X472985Y201470D01*
X325791Y200937D02*
Y204136D01*
X327391D01*
X327924Y203603D01*
Y202537D01*
X327391Y202003D01*
X325791D01*
X326858D02*
X327924Y200937D01*
X331123Y204136D02*
X328990D01*
Y202537D01*
X330057Y203070D01*
X330590D01*
X331123Y202537D01*
Y201470D01*
X330590Y200937D01*
X329523D01*
X328990Y201470D01*
X332189Y200404D02*
X334322D01*
X337521Y204136D02*
X335388D01*
Y200937D01*
X337521D01*
X335388Y202537D02*
X336455D01*
X340720Y203603D02*
X340187Y204136D01*
X339120D01*
X338587Y203603D01*
Y203070D01*
X339120Y202537D01*
X340187D01*
X340720Y202003D01*
Y201470D01*
X340187Y200937D01*
X339120D01*
X338587Y201470D01*
X343919Y203603D02*
X343386Y204136D01*
X342319D01*
X341786Y203603D01*
Y201470D01*
X342319Y200937D01*
X343386D01*
X343919Y201470D01*
X346585Y200937D02*
Y204136D01*
X344985Y202537D01*
X347118D01*
X259209Y374063D02*
Y370864D01*
X257609D01*
X257076Y371397D01*
Y372463D01*
X257609Y372997D01*
X259209D01*
X258142D02*
X257076Y374063D01*
X253877Y370864D02*
X256010D01*
Y372463D01*
X254943Y371930D01*
X254410D01*
X253877Y372463D01*
Y373530D01*
X254410Y374063D01*
X255476D01*
X256010Y373530D01*
X252811Y374596D02*
X250678D01*
X247479Y370864D02*
X249612D01*
Y374063D01*
X247479D01*
X249612Y372463D02*
X248545D01*
X244280Y371397D02*
X244813Y370864D01*
X245880D01*
X246413Y371397D01*
Y371930D01*
X245880Y372463D01*
X244813D01*
X244280Y372997D01*
Y373530D01*
X244813Y374063D01*
X245880D01*
X246413Y373530D01*
X241081Y371397D02*
X241614Y370864D01*
X242681D01*
X243214Y371397D01*
Y373530D01*
X242681Y374063D01*
X241614D01*
X241081Y373530D01*
X237882Y370864D02*
X240015D01*
Y372463D01*
X238948Y371930D01*
X238415D01*
X237882Y372463D01*
Y373530D01*
X238415Y374063D01*
X239482D01*
X240015Y373530D01*
X387209Y374063D02*
Y370864D01*
X385609D01*
X385076Y371397D01*
Y372463D01*
X385609Y372997D01*
X387209D01*
X386142D02*
X385076Y374063D01*
X381877Y370864D02*
X384010D01*
Y372463D01*
X382943Y371930D01*
X382410D01*
X381877Y372463D01*
Y373530D01*
X382410Y374063D01*
X383476D01*
X384010Y373530D01*
X380811Y374596D02*
X378678D01*
X375479Y370864D02*
X377612D01*
Y374063D01*
X375479D01*
X377612Y372463D02*
X376545D01*
X372280Y371397D02*
X372813Y370864D01*
X373880D01*
X374413Y371397D01*
Y371930D01*
X373880Y372463D01*
X372813D01*
X372280Y372997D01*
Y373530D01*
X372813Y374063D01*
X373880D01*
X374413Y373530D01*
X369081Y371397D02*
X369614Y370864D01*
X370681D01*
X371214Y371397D01*
Y373530D01*
X370681Y374063D01*
X369614D01*
X369081Y373530D01*
X365882Y370864D02*
X366949Y371397D01*
X368015Y372463D01*
Y373530D01*
X367482Y374063D01*
X366415D01*
X365882Y373530D01*
Y372997D01*
X366415Y372463D01*
X368015D01*
X515209Y374063D02*
Y370864D01*
X513609D01*
X513076Y371397D01*
Y372463D01*
X513609Y372997D01*
X515209D01*
X514142D02*
X513076Y374063D01*
X509877Y370864D02*
X512010D01*
Y372463D01*
X510943Y371930D01*
X510410D01*
X509877Y372463D01*
Y373530D01*
X510410Y374063D01*
X511477D01*
X512010Y373530D01*
X508811Y374596D02*
X506678D01*
X503479Y370864D02*
X505612D01*
Y374063D01*
X503479D01*
X505612Y372463D02*
X504545D01*
X500280Y371397D02*
X500813Y370864D01*
X501880D01*
X502413Y371397D01*
Y371930D01*
X501880Y372463D01*
X500813D01*
X500280Y372997D01*
Y373530D01*
X500813Y374063D01*
X501880D01*
X502413Y373530D01*
X497081Y371397D02*
X497614Y370864D01*
X498681D01*
X499214Y371397D01*
Y373530D01*
X498681Y374063D01*
X497614D01*
X497081Y373530D01*
X496015Y370864D02*
X493882D01*
Y371397D01*
X496015Y373530D01*
Y374063D01*
X643209D02*
Y370864D01*
X641609D01*
X641076Y371397D01*
Y372463D01*
X641609Y372997D01*
X643209D01*
X642142D02*
X641076Y374063D01*
X637877Y370864D02*
X640010D01*
Y372463D01*
X638943Y371930D01*
X638410D01*
X637877Y372463D01*
Y373530D01*
X638410Y374063D01*
X639476D01*
X640010Y373530D01*
X636811Y374596D02*
X634678D01*
X631479Y370864D02*
X633612D01*
Y374063D01*
X631479D01*
X633612Y372463D02*
X632545D01*
X628280Y371397D02*
X628813Y370864D01*
X629880D01*
X630413Y371397D01*
Y371930D01*
X629880Y372463D01*
X628813D01*
X628280Y372997D01*
Y373530D01*
X628813Y374063D01*
X629880D01*
X630413Y373530D01*
X625081Y371397D02*
X625614Y370864D01*
X626681D01*
X627214Y371397D01*
Y373530D01*
X626681Y374063D01*
X625614D01*
X625081Y373530D01*
X624015Y371397D02*
X623482Y370864D01*
X622415D01*
X621882Y371397D01*
Y371930D01*
X622415Y372463D01*
X621882Y372997D01*
Y373530D01*
X622415Y374063D01*
X623482D01*
X624015Y373530D01*
Y372997D01*
X623482Y372463D01*
X624015Y371930D01*
Y371397D01*
X623482Y372463D02*
X622415D01*
X615661Y244606D02*
Y247805D01*
X617261D01*
X617794Y247272D01*
Y246206D01*
X617261Y245673D01*
X615661D01*
X616728D02*
X617794Y244606D01*
X620993Y247805D02*
X619927Y247272D01*
X618860Y246206D01*
Y245140D01*
X619393Y244606D01*
X620460D01*
X620993Y245140D01*
Y245673D01*
X620460Y246206D01*
X618860D01*
X622059Y244073D02*
X624192D01*
X627391Y247805D02*
X625258D01*
Y244606D01*
X627391D01*
X625258Y246206D02*
X626325D01*
X630590Y247272D02*
X630057Y247805D01*
X628991D01*
X628457Y247272D01*
Y246739D01*
X628991Y246206D01*
X630057D01*
X630590Y245673D01*
Y245140D01*
X630057Y244606D01*
X628991D01*
X628457Y245140D01*
X633789Y247272D02*
X633256Y247805D01*
X632189D01*
X631656Y247272D01*
Y245140D01*
X632189Y244606D01*
X633256D01*
X633789Y245140D01*
X634855Y244606D02*
X635922D01*
X635388D01*
Y247805D01*
X634855Y247272D01*
X487661Y244606D02*
Y247805D01*
X489261D01*
X489794Y247272D01*
Y246206D01*
X489261Y245673D01*
X487661D01*
X488728D02*
X489794Y244606D01*
X492993Y247805D02*
X491927Y247272D01*
X490860Y246206D01*
Y245140D01*
X491394Y244606D01*
X492460D01*
X492993Y245140D01*
Y245673D01*
X492460Y246206D01*
X490860D01*
X494059Y244073D02*
X496192D01*
X499391Y247805D02*
X497258D01*
Y244606D01*
X499391D01*
X497258Y246206D02*
X498325D01*
X502590Y247272D02*
X502057Y247805D01*
X500990D01*
X500457Y247272D01*
Y246739D01*
X500990Y246206D01*
X502057D01*
X502590Y245673D01*
Y245140D01*
X502057Y244606D01*
X500990D01*
X500457Y245140D01*
X505789Y247272D02*
X505256Y247805D01*
X504189D01*
X503656Y247272D01*
Y245140D01*
X504189Y244606D01*
X505256D01*
X505789Y245140D01*
X508988Y244606D02*
X506855D01*
X508988Y246739D01*
Y247272D01*
X508455Y247805D01*
X507388D01*
X506855Y247272D01*
X359661Y244606D02*
Y247805D01*
X361261D01*
X361794Y247272D01*
Y246206D01*
X361261Y245673D01*
X359661D01*
X360728D02*
X361794Y244606D01*
X364993Y247805D02*
X363927Y247272D01*
X362860Y246206D01*
Y245140D01*
X363394Y244606D01*
X364460D01*
X364993Y245140D01*
Y245673D01*
X364460Y246206D01*
X362860D01*
X366059Y244073D02*
X368192D01*
X371391Y247805D02*
X369258D01*
Y244606D01*
X371391D01*
X369258Y246206D02*
X370325D01*
X374590Y247272D02*
X374057Y247805D01*
X372990D01*
X372457Y247272D01*
Y246739D01*
X372990Y246206D01*
X374057D01*
X374590Y245673D01*
Y245140D01*
X374057Y244606D01*
X372990D01*
X372457Y245140D01*
X377789Y247272D02*
X377256Y247805D01*
X376189D01*
X375656Y247272D01*
Y245140D01*
X376189Y244606D01*
X377256D01*
X377789Y245140D01*
X378855Y247272D02*
X379388Y247805D01*
X380455D01*
X380988Y247272D01*
Y246739D01*
X380455Y246206D01*
X379922D01*
X380455D01*
X380988Y245673D01*
Y245140D01*
X380455Y244606D01*
X379388D01*
X378855Y245140D01*
X231661Y244606D02*
Y247805D01*
X233261D01*
X233794Y247272D01*
Y246206D01*
X233261Y245673D01*
X231661D01*
X232728D02*
X233794Y244606D01*
X236993Y247805D02*
X235927Y247272D01*
X234860Y246206D01*
Y245140D01*
X235394Y244606D01*
X236460D01*
X236993Y245140D01*
Y245673D01*
X236460Y246206D01*
X234860D01*
X238059Y244073D02*
X240192D01*
X243391Y247805D02*
X241258D01*
Y244606D01*
X243391D01*
X241258Y246206D02*
X242325D01*
X246590Y247272D02*
X246057Y247805D01*
X244990D01*
X244457Y247272D01*
Y246739D01*
X244990Y246206D01*
X246057D01*
X246590Y245673D01*
Y245140D01*
X246057Y244606D01*
X244990D01*
X244457Y245140D01*
X249789Y247272D02*
X249256Y247805D01*
X248189D01*
X247656Y247272D01*
Y245140D01*
X248189Y244606D01*
X249256D01*
X249789Y245140D01*
X252455Y244606D02*
Y247805D01*
X250855Y246206D01*
X252988D01*
X353339Y330394D02*
Y327195D01*
X351739D01*
X351206Y327728D01*
Y328794D01*
X351739Y329327D01*
X353339D01*
X352272D02*
X351206Y330394D01*
X348007Y327195D02*
X349073Y327728D01*
X350140Y328794D01*
Y329860D01*
X349606Y330394D01*
X348540D01*
X348007Y329860D01*
Y329327D01*
X348540Y328794D01*
X350140D01*
X346941Y330927D02*
X344808D01*
X341609Y327195D02*
X343742D01*
Y330394D01*
X341609D01*
X343742Y328794D02*
X342675D01*
X338410Y327728D02*
X338943Y327195D01*
X340009D01*
X340543Y327728D01*
Y328261D01*
X340009Y328794D01*
X338943D01*
X338410Y329327D01*
Y329860D01*
X338943Y330394D01*
X340009D01*
X340543Y329860D01*
X335211Y327728D02*
X335744Y327195D01*
X336811D01*
X337344Y327728D01*
Y329860D01*
X336811Y330394D01*
X335744D01*
X335211Y329860D01*
X332012Y327195D02*
X334145D01*
Y328794D01*
X333078Y328261D01*
X332545D01*
X332012Y328794D01*
Y329860D01*
X332545Y330394D01*
X333612D01*
X334145Y329860D01*
X481339Y330394D02*
Y327195D01*
X479739D01*
X479206Y327728D01*
Y328794D01*
X479739Y329327D01*
X481339D01*
X480272D02*
X479206Y330394D01*
X476007Y327195D02*
X477073Y327728D01*
X478140Y328794D01*
Y329860D01*
X477606Y330394D01*
X476540D01*
X476007Y329860D01*
Y329327D01*
X476540Y328794D01*
X478140D01*
X474941Y330927D02*
X472808D01*
X469609Y327195D02*
X471742D01*
Y330394D01*
X469609D01*
X471742Y328794D02*
X470675D01*
X466410Y327728D02*
X466943Y327195D01*
X468010D01*
X468543Y327728D01*
Y328261D01*
X468010Y328794D01*
X466943D01*
X466410Y329327D01*
Y329860D01*
X466943Y330394D01*
X468010D01*
X468543Y329860D01*
X463211Y327728D02*
X463744Y327195D01*
X464811D01*
X465344Y327728D01*
Y329860D01*
X464811Y330394D01*
X463744D01*
X463211Y329860D01*
X460012Y327195D02*
X461078Y327728D01*
X462145Y328794D01*
Y329860D01*
X461612Y330394D01*
X460545D01*
X460012Y329860D01*
Y329327D01*
X460545Y328794D01*
X462145D01*
X609339Y330394D02*
Y327195D01*
X607739D01*
X607206Y327728D01*
Y328794D01*
X607739Y329327D01*
X609339D01*
X608272D02*
X607206Y330394D01*
X604007Y327195D02*
X605073Y327728D01*
X606140Y328794D01*
Y329860D01*
X605607Y330394D01*
X604540D01*
X604007Y329860D01*
Y329327D01*
X604540Y328794D01*
X606140D01*
X602941Y330927D02*
X600808D01*
X597609Y327195D02*
X599742D01*
Y330394D01*
X597609D01*
X599742Y328794D02*
X598675D01*
X594410Y327728D02*
X594943Y327195D01*
X596009D01*
X596543Y327728D01*
Y328261D01*
X596009Y328794D01*
X594943D01*
X594410Y329327D01*
Y329860D01*
X594943Y330394D01*
X596009D01*
X596543Y329860D01*
X591211Y327728D02*
X591744Y327195D01*
X592811D01*
X593344Y327728D01*
Y329860D01*
X592811Y330394D01*
X591744D01*
X591211Y329860D01*
X590145Y327195D02*
X588012D01*
Y327728D01*
X590145Y329860D01*
Y330394D01*
X737339D02*
Y327195D01*
X735739D01*
X735206Y327728D01*
Y328794D01*
X735739Y329327D01*
X737339D01*
X736272D02*
X735206Y330394D01*
X732007Y327195D02*
X733073Y327728D01*
X734140Y328794D01*
Y329860D01*
X733606Y330394D01*
X732540D01*
X732007Y329860D01*
Y329327D01*
X732540Y328794D01*
X734140D01*
X730941Y330927D02*
X728808D01*
X725609Y327195D02*
X727742D01*
Y330394D01*
X725609D01*
X727742Y328794D02*
X726675D01*
X722410Y327728D02*
X722943Y327195D01*
X724010D01*
X724543Y327728D01*
Y328261D01*
X724010Y328794D01*
X722943D01*
X722410Y329327D01*
Y329860D01*
X722943Y330394D01*
X724010D01*
X724543Y329860D01*
X719211Y327728D02*
X719744Y327195D01*
X720811D01*
X721344Y327728D01*
Y329860D01*
X720811Y330394D01*
X719744D01*
X719211Y329860D01*
X718145Y327728D02*
X717612Y327195D01*
X716545D01*
X716012Y327728D01*
Y328261D01*
X716545Y328794D01*
X716012Y329327D01*
Y329860D01*
X716545Y330394D01*
X717612D01*
X718145Y329860D01*
Y329327D01*
X717612Y328794D01*
X718145Y328261D01*
Y327728D01*
X717612Y328794D02*
X716545D01*
X794000Y360699D02*
Y358033D01*
X794533Y357500D01*
X795600D01*
X796133Y358033D01*
Y360699D01*
X797199Y357500D02*
X798265D01*
X797732D01*
Y360699D01*
X797199Y360166D01*
X793500Y175199D02*
Y172533D01*
X794033Y172000D01*
X795099D01*
X795633Y172533D01*
Y175199D01*
X798832Y172000D02*
X796699D01*
X798832Y174133D01*
Y174666D01*
X798298Y175199D01*
X797232D01*
X796699Y174666D01*
X673906Y215620D02*
Y212954D01*
X674439Y212421D01*
X675505D01*
X676038Y212954D01*
Y215620D01*
X677105Y215087D02*
X677638Y215620D01*
X678704D01*
X679237Y215087D01*
Y214554D01*
X678704Y214021D01*
X678171D01*
X678704D01*
X679237Y213488D01*
Y212954D01*
X678704Y212421D01*
X677638D01*
X677105Y212954D01*
X680303Y211888D02*
X682436D01*
X685635Y215620D02*
X683502D01*
Y212421D01*
X685635D01*
X683502Y214021D02*
X684569D01*
X688834Y215087D02*
X688301Y215620D01*
X687234D01*
X686701Y215087D01*
Y214554D01*
X687234Y214021D01*
X688301D01*
X688834Y213488D01*
Y212954D01*
X688301Y212421D01*
X687234D01*
X686701Y212954D01*
X692033Y215087D02*
X691500Y215620D01*
X690434D01*
X689900Y215087D01*
Y212954D01*
X690434Y212421D01*
X691500D01*
X692033Y212954D01*
X693099Y212421D02*
X694166D01*
X693633D01*
Y215620D01*
X693099Y215087D01*
X545905Y215620D02*
Y212954D01*
X546439Y212421D01*
X547505D01*
X548038Y212954D01*
Y215620D01*
X549104Y215087D02*
X549638Y215620D01*
X550704D01*
X551237Y215087D01*
Y214554D01*
X550704Y214021D01*
X550171D01*
X550704D01*
X551237Y213488D01*
Y212954D01*
X550704Y212421D01*
X549638D01*
X549104Y212954D01*
X552303Y211888D02*
X554436D01*
X557635Y215620D02*
X555502D01*
Y212421D01*
X557635D01*
X555502Y214021D02*
X556569D01*
X560834Y215087D02*
X560301Y215620D01*
X559235D01*
X558701Y215087D01*
Y214554D01*
X559235Y214021D01*
X560301D01*
X560834Y213488D01*
Y212954D01*
X560301Y212421D01*
X559235D01*
X558701Y212954D01*
X564033Y215087D02*
X563500Y215620D01*
X562433D01*
X561900Y215087D01*
Y212954D01*
X562433Y212421D01*
X563500D01*
X564033Y212954D01*
X567232Y212421D02*
X565099D01*
X567232Y214554D01*
Y215087D01*
X566699Y215620D01*
X565632D01*
X565099Y215087D01*
X417906Y215620D02*
Y212954D01*
X418439Y212421D01*
X419505D01*
X420038Y212954D01*
Y215620D01*
X421104Y215087D02*
X421638Y215620D01*
X422704D01*
X423237Y215087D01*
Y214554D01*
X422704Y214021D01*
X422171D01*
X422704D01*
X423237Y213488D01*
Y212954D01*
X422704Y212421D01*
X421638D01*
X421104Y212954D01*
X424303Y211888D02*
X426436D01*
X429635Y215620D02*
X427502D01*
Y212421D01*
X429635D01*
X427502Y214021D02*
X428569D01*
X432834Y215087D02*
X432301Y215620D01*
X431235D01*
X430701Y215087D01*
Y214554D01*
X431235Y214021D01*
X432301D01*
X432834Y213488D01*
Y212954D01*
X432301Y212421D01*
X431235D01*
X430701Y212954D01*
X436033Y215087D02*
X435500Y215620D01*
X434434D01*
X433900Y215087D01*
Y212954D01*
X434434Y212421D01*
X435500D01*
X436033Y212954D01*
X437099Y215087D02*
X437633Y215620D01*
X438699D01*
X439232Y215087D01*
Y214554D01*
X438699Y214021D01*
X438166D01*
X438699D01*
X439232Y213488D01*
Y212954D01*
X438699Y212421D01*
X437633D01*
X437099Y212954D01*
X289906Y215620D02*
Y212954D01*
X290439Y212421D01*
X291505D01*
X292038Y212954D01*
Y215620D01*
X293105Y215087D02*
X293638Y215620D01*
X294704D01*
X295237Y215087D01*
Y214554D01*
X294704Y214021D01*
X294171D01*
X294704D01*
X295237Y213488D01*
Y212954D01*
X294704Y212421D01*
X293638D01*
X293105Y212954D01*
X296303Y211888D02*
X298436D01*
X301635Y215620D02*
X299502D01*
Y212421D01*
X301635D01*
X299502Y214021D02*
X300569D01*
X304834Y215087D02*
X304301Y215620D01*
X303235D01*
X302701Y215087D01*
Y214554D01*
X303235Y214021D01*
X304301D01*
X304834Y213488D01*
Y212954D01*
X304301Y212421D01*
X303235D01*
X302701Y212954D01*
X308033Y215087D02*
X307500Y215620D01*
X306434D01*
X305900Y215087D01*
Y212954D01*
X306434Y212421D01*
X307500D01*
X308033Y212954D01*
X310699Y212421D02*
Y215620D01*
X309099Y214021D01*
X311232D01*
X295094Y359380D02*
Y362046D01*
X294561Y362579D01*
X293495D01*
X292962Y362046D01*
Y359380D01*
X291896Y359913D02*
X291362Y359380D01*
X290296D01*
X289763Y359913D01*
Y360446D01*
X290296Y360979D01*
X290829D01*
X290296D01*
X289763Y361512D01*
Y362046D01*
X290296Y362579D01*
X291362D01*
X291896Y362046D01*
X288697Y363112D02*
X286564D01*
X283365Y359380D02*
X285498D01*
Y362579D01*
X283365D01*
X285498Y360979D02*
X284431D01*
X280166Y359913D02*
X280699Y359380D01*
X281766D01*
X282299Y359913D01*
Y360446D01*
X281766Y360979D01*
X280699D01*
X280166Y361512D01*
Y362046D01*
X280699Y362579D01*
X281766D01*
X282299Y362046D01*
X276967Y359913D02*
X277500Y359380D01*
X278567D01*
X279100Y359913D01*
Y362046D01*
X278567Y362579D01*
X277500D01*
X276967Y362046D01*
X273768Y359380D02*
X275901D01*
Y360979D01*
X274834Y360446D01*
X274301D01*
X273768Y360979D01*
Y362046D01*
X274301Y362579D01*
X275367D01*
X275901Y362046D01*
X423095Y359380D02*
Y362046D01*
X422561Y362579D01*
X421495D01*
X420962Y362046D01*
Y359380D01*
X419896Y359913D02*
X419362Y359380D01*
X418296D01*
X417763Y359913D01*
Y360446D01*
X418296Y360979D01*
X418829D01*
X418296D01*
X417763Y361512D01*
Y362046D01*
X418296Y362579D01*
X419362D01*
X419896Y362046D01*
X416697Y363112D02*
X414564D01*
X411365Y359380D02*
X413498D01*
Y362579D01*
X411365D01*
X413498Y360979D02*
X412431D01*
X408166Y359913D02*
X408699Y359380D01*
X409765D01*
X410299Y359913D01*
Y360446D01*
X409765Y360979D01*
X408699D01*
X408166Y361512D01*
Y362046D01*
X408699Y362579D01*
X409765D01*
X410299Y362046D01*
X404967Y359913D02*
X405500Y359380D01*
X406566D01*
X407100Y359913D01*
Y362046D01*
X406566Y362579D01*
X405500D01*
X404967Y362046D01*
X401768Y359380D02*
X402834Y359913D01*
X403901Y360979D01*
Y362046D01*
X403368Y362579D01*
X402301D01*
X401768Y362046D01*
Y361512D01*
X402301Y360979D01*
X403901D01*
X551094Y359380D02*
Y362046D01*
X550561Y362579D01*
X549495D01*
X548962Y362046D01*
Y359380D01*
X547895Y359913D02*
X547362Y359380D01*
X546296D01*
X545763Y359913D01*
Y360446D01*
X546296Y360979D01*
X546829D01*
X546296D01*
X545763Y361512D01*
Y362046D01*
X546296Y362579D01*
X547362D01*
X547895Y362046D01*
X544697Y363112D02*
X542564D01*
X539365Y359380D02*
X541498D01*
Y362579D01*
X539365D01*
X541498Y360979D02*
X540431D01*
X536166Y359913D02*
X536699Y359380D01*
X537766D01*
X538299Y359913D01*
Y360446D01*
X537766Y360979D01*
X536699D01*
X536166Y361512D01*
Y362046D01*
X536699Y362579D01*
X537766D01*
X538299Y362046D01*
X532967Y359913D02*
X533500Y359380D01*
X534566D01*
X535100Y359913D01*
Y362046D01*
X534566Y362579D01*
X533500D01*
X532967Y362046D01*
X531901Y359380D02*
X529768D01*
Y359913D01*
X531901Y362046D01*
Y362579D01*
X679095Y359380D02*
Y362046D01*
X678561Y362579D01*
X677495D01*
X676962Y362046D01*
Y359380D01*
X675896Y359913D02*
X675362Y359380D01*
X674296D01*
X673763Y359913D01*
Y360446D01*
X674296Y360979D01*
X674829D01*
X674296D01*
X673763Y361512D01*
Y362046D01*
X674296Y362579D01*
X675362D01*
X675896Y362046D01*
X672697Y363112D02*
X670564D01*
X667365Y359380D02*
X669498D01*
Y362579D01*
X667365D01*
X669498Y360979D02*
X668431D01*
X664166Y359913D02*
X664699Y359380D01*
X665765D01*
X666299Y359913D01*
Y360446D01*
X665765Y360979D01*
X664699D01*
X664166Y361512D01*
Y362046D01*
X664699Y362579D01*
X665765D01*
X666299Y362046D01*
X660967Y359913D02*
X661500Y359380D01*
X662567D01*
X663100Y359913D01*
Y362046D01*
X662567Y362579D01*
X661500D01*
X660967Y362046D01*
X659901Y359913D02*
X659368Y359380D01*
X658301D01*
X657768Y359913D01*
Y360446D01*
X658301Y360979D01*
X657768Y361512D01*
Y362046D01*
X658301Y362579D01*
X659368D01*
X659901Y362046D01*
Y361512D01*
X659368Y360979D01*
X659901Y360446D01*
Y359913D01*
X659368Y360979D02*
X658301D01*
D44*
X623131Y145858D02*
X626279D01*
X625230D01*
X623131Y147957D01*
X624705Y146383D01*
X626279Y147957D01*
Y141134D02*
X624181D01*
X623131Y142183D01*
X624181Y143233D01*
X626279D01*
X624705D01*
Y141134D01*
X495131Y145858D02*
X498279D01*
X497230D01*
X495131Y147957D01*
X496705Y146383D01*
X498279Y147957D01*
Y141134D02*
X496180D01*
X495131Y142183D01*
X496180Y143233D01*
X498279D01*
X496705D01*
Y141134D01*
X367131Y145858D02*
X370280D01*
X369230D01*
X367131Y147957D01*
X368705Y146383D01*
X370280Y147957D01*
Y141134D02*
X368180D01*
X367131Y142183D01*
X368180Y143233D01*
X370280D01*
X368705D01*
Y141134D01*
X239131Y145858D02*
X242280D01*
X241230D01*
X239131Y147957D01*
X240705Y146383D01*
X242280Y147957D01*
Y141134D02*
X240180D01*
X239131Y142183D01*
X240180Y143233D01*
X242280D01*
X240705D01*
Y141134D01*
X345869Y429142D02*
X342721D01*
X343770D01*
X345869Y427043D01*
X344295Y428617D01*
X342721Y427043D01*
Y433866D02*
X344819D01*
X345869Y432817D01*
X344819Y431767D01*
X342721D01*
X344295D01*
Y433866D01*
X473869Y429142D02*
X470720D01*
X471770D01*
X473869Y427043D01*
X472295Y428617D01*
X470720Y427043D01*
Y433866D02*
X472820D01*
X473869Y432817D01*
X472820Y431767D01*
X470720D01*
X472295D01*
Y433866D01*
X601869Y429142D02*
X598721D01*
X599770D01*
X601869Y427043D01*
X600295Y428617D01*
X598721Y427043D01*
Y433866D02*
X600819D01*
X601869Y432817D01*
X600819Y431767D01*
X598721D01*
X600295D01*
Y433866D01*
X729869Y429142D02*
X726721D01*
X727770D01*
X729869Y427043D01*
X728295Y428617D01*
X726721Y427043D01*
Y433866D02*
X728820D01*
X729869Y432817D01*
X728820Y431767D01*
X726721D01*
X728295D01*
Y433866D01*
M02*
