G04 Layer_Color=8388736*
%FSLAX23Y23*%
%MOIN*%
G70*
G01*
G75*
%ADD72C,0.035*%
%ADD74C,0.075*%
%ADD83R,0.053X0.041*%
%ADD84R,0.033X0.015*%
%ADD85R,0.015X0.033*%
%ADD86R,0.123X0.079*%
%ADD87R,0.123X0.065*%
%ADD88R,0.025X0.155*%
%ADD89O,0.025X0.155*%
%ADD90R,0.058X0.072*%
%ADD91R,0.109X0.078*%
%ADD92R,0.098X0.180*%
%ADD93R,0.156X0.490*%
%ADD94R,0.082X0.046*%
%ADD95R,0.285X0.225*%
%ADD96R,0.046X0.082*%
%ADD97R,0.225X0.285*%
%ADD98R,0.036X0.044*%
%ADD99O,0.085X0.016*%
%ADD100O,0.016X0.085*%
%ADD101R,0.080X0.076*%
%ADD102R,0.080X0.064*%
%ADD103R,0.058X0.021*%
%ADD104O,0.076X0.023*%
%ADD105R,0.210X0.151*%
%ADD106R,0.151X0.210*%
%ADD107R,0.129X0.103*%
%ADD108R,0.107X0.131*%
%ADD109R,0.131X0.107*%
%ADD110R,0.020X0.075*%
%ADD111O,0.020X0.075*%
%ADD112O,0.021X0.068*%
%ADD113R,0.021X0.068*%
%ADD114R,0.071X0.070*%
%ADD115R,0.070X0.071*%
%ADD116R,0.072X0.046*%
%ADD117R,0.080X0.056*%
%ADD118R,0.225X0.088*%
%ADD119R,0.048X0.072*%
%ADD120R,0.033X0.040*%
%ADD121R,0.040X0.033*%
%ADD122R,0.072X0.048*%
%ADD123R,0.107X0.048*%
%ADD124C,0.162*%
%ADD125C,0.072*%
%ADD126C,0.065*%
%ADD127C,0.080*%
%ADD128C,0.103*%
%ADD129C,0.068*%
%ADD130C,0.076*%
%ADD131C,0.065*%
%ADD132R,0.065X0.065*%
%ADD133R,0.065X0.065*%
%ADD134C,0.062*%
%ADD135C,0.005*%
%ADD136C,0.040*%
%ADD137C,0.055*%
%ADD138C,0.080*%
%ADD139C,0.039*%
D72*
X9795Y4450D02*
D03*
X9630Y3585D02*
D03*
X9190Y4125D02*
D03*
X9605Y4420D02*
D03*
X9620Y4460D02*
D03*
X9750Y4420D02*
D03*
X10275Y3885D02*
D03*
X5223Y4728D02*
D03*
X7115Y4765D02*
D03*
X10275Y4015D02*
D03*
X10030Y3895D02*
D03*
X10415Y3770D02*
D03*
X9685Y3545D02*
D03*
X9725Y3560D02*
D03*
X9770Y3570D02*
D03*
X10230Y3525D02*
D03*
X9580Y3535D02*
D03*
X9605Y3615D02*
D03*
X9237Y3862D02*
D03*
X9205Y3884D02*
D03*
X7125Y4875D02*
D03*
X9730Y4460D02*
D03*
X9200Y3845D02*
D03*
X9500Y4550D02*
D03*
X10035Y3935D02*
D03*
X10010Y3965D02*
D03*
X9635Y3545D02*
D03*
X10330Y3525D02*
D03*
D74*
X8245Y2500D02*
D03*
X6620Y4545D02*
D03*
X6505D02*
D03*
D83*
X7010Y4449D02*
D03*
Y4578D02*
D03*
X5145Y4411D02*
D03*
Y4539D02*
D03*
D84*
X3706Y3604D02*
D03*
Y3584D02*
D03*
Y3564D02*
D03*
Y3545D02*
D03*
Y3505D02*
D03*
Y3466D02*
D03*
Y3446D02*
D03*
Y3426D02*
D03*
X3894Y3446D02*
D03*
Y3466D02*
D03*
Y3505D02*
D03*
Y3525D02*
D03*
Y3545D02*
D03*
Y3584D02*
D03*
Y3604D02*
D03*
X3761Y4724D02*
D03*
Y4704D02*
D03*
Y4684D02*
D03*
Y4665D02*
D03*
Y4625D02*
D03*
Y4586D02*
D03*
Y4566D02*
D03*
Y4546D02*
D03*
X3949Y4566D02*
D03*
Y4586D02*
D03*
Y4625D02*
D03*
Y4645D02*
D03*
Y4665D02*
D03*
Y4704D02*
D03*
Y4724D02*
D03*
D85*
X3751Y3401D02*
D03*
X3770D02*
D03*
X3790D02*
D03*
X3810D02*
D03*
X3830D02*
D03*
X3849D02*
D03*
Y3629D02*
D03*
X3830D02*
D03*
X3810D02*
D03*
X3790D02*
D03*
X3770D02*
D03*
X3751D02*
D03*
X3731D02*
D03*
X3806Y4521D02*
D03*
X3825D02*
D03*
X3845D02*
D03*
X3865D02*
D03*
X3885D02*
D03*
X3904D02*
D03*
Y4749D02*
D03*
X3885D02*
D03*
X3865D02*
D03*
X3845D02*
D03*
X3825D02*
D03*
X3806D02*
D03*
X3786D02*
D03*
D86*
X3800Y3557D02*
D03*
X3855Y4677D02*
D03*
D87*
X3800Y3466D02*
D03*
X3855Y4586D02*
D03*
D88*
X10155Y3235D02*
D03*
D89*
X10205D02*
D03*
X10255D02*
D03*
X10305D02*
D03*
X10355D02*
D03*
X10155Y3435D02*
D03*
X10205D02*
D03*
X10255D02*
D03*
X10305D02*
D03*
X10355D02*
D03*
D90*
X10196Y4105D02*
D03*
X10124D02*
D03*
D91*
X8974Y3815D02*
D03*
X9090D02*
D03*
D92*
X6185Y4268D02*
D03*
Y3922D02*
D03*
X4580Y4225D02*
D03*
Y3879D02*
D03*
D93*
X6530Y3390D02*
D03*
X7170D02*
D03*
D94*
X6369Y3430D02*
D03*
Y3610D02*
D03*
X4769Y3385D02*
D03*
Y3565D02*
D03*
D95*
X6089Y3520D02*
D03*
X4489Y3475D02*
D03*
D96*
X6700Y4254D02*
D03*
X6520D02*
D03*
X7030Y4255D02*
D03*
X6850D02*
D03*
X7515Y3679D02*
D03*
X7335D02*
D03*
X5085Y4105D02*
D03*
X4905D02*
D03*
X5400D02*
D03*
X5220D02*
D03*
X5790Y3570D02*
D03*
X5610D02*
D03*
D97*
X6610Y3974D02*
D03*
X6940Y3975D02*
D03*
X7425Y3399D02*
D03*
X4995Y3825D02*
D03*
X5310D02*
D03*
X5700Y3290D02*
D03*
D98*
X10397Y4994D02*
D03*
X10435Y4900D02*
D03*
X10360D02*
D03*
X10545Y4995D02*
D03*
X10582Y4901D02*
D03*
X10508D02*
D03*
X10697Y4999D02*
D03*
X10735Y4905D02*
D03*
X10660D02*
D03*
D99*
X9920Y3794D02*
D03*
Y3813D02*
D03*
Y3833D02*
D03*
Y3853D02*
D03*
Y3873D02*
D03*
Y3892D02*
D03*
Y3912D02*
D03*
Y3932D02*
D03*
Y3951D02*
D03*
Y3971D02*
D03*
Y3991D02*
D03*
Y4010D02*
D03*
Y4030D02*
D03*
Y4050D02*
D03*
Y4069D02*
D03*
Y4089D02*
D03*
Y4109D02*
D03*
Y4128D02*
D03*
Y4148D02*
D03*
Y4168D02*
D03*
Y4187D02*
D03*
Y4207D02*
D03*
Y4227D02*
D03*
Y4247D02*
D03*
Y4266D02*
D03*
X9320D02*
D03*
Y4247D02*
D03*
Y4227D02*
D03*
Y4207D02*
D03*
Y4187D02*
D03*
Y4168D02*
D03*
Y4148D02*
D03*
Y4128D02*
D03*
Y4109D02*
D03*
Y4089D02*
D03*
Y4069D02*
D03*
Y4050D02*
D03*
Y4030D02*
D03*
Y4010D02*
D03*
Y3991D02*
D03*
Y3971D02*
D03*
Y3951D02*
D03*
Y3932D02*
D03*
Y3912D02*
D03*
Y3892D02*
D03*
Y3873D02*
D03*
Y3853D02*
D03*
Y3833D02*
D03*
Y3813D02*
D03*
Y3794D02*
D03*
D100*
X9856Y4330D02*
D03*
X9837D02*
D03*
X9817D02*
D03*
X9797D02*
D03*
X9777D02*
D03*
X9758D02*
D03*
X9738D02*
D03*
X9718D02*
D03*
X9699D02*
D03*
X9679D02*
D03*
X9659D02*
D03*
X9640D02*
D03*
X9620D02*
D03*
X9600D02*
D03*
X9581D02*
D03*
X9561D02*
D03*
X9541D02*
D03*
X9522D02*
D03*
X9502D02*
D03*
X9482D02*
D03*
X9463D02*
D03*
X9443D02*
D03*
X9423D02*
D03*
X9403D02*
D03*
X9384D02*
D03*
Y3730D02*
D03*
X9403D02*
D03*
X9423D02*
D03*
X9443D02*
D03*
X9463D02*
D03*
X9482D02*
D03*
X9502D02*
D03*
X9522D02*
D03*
X9541D02*
D03*
X9561D02*
D03*
X9581D02*
D03*
X9600D02*
D03*
X9620D02*
D03*
X9640D02*
D03*
X9659D02*
D03*
X9679D02*
D03*
X9699D02*
D03*
X9718D02*
D03*
X9738D02*
D03*
X9758D02*
D03*
X9777D02*
D03*
X9797D02*
D03*
X9817D02*
D03*
X9837D02*
D03*
X9856D02*
D03*
D101*
X11061Y4071D02*
D03*
Y3819D02*
D03*
D102*
Y3906D02*
D03*
Y3984D02*
D03*
D103*
X10955Y3894D02*
D03*
Y3919D02*
D03*
Y3945D02*
D03*
Y3971D02*
D03*
Y3996D02*
D03*
D104*
X7044Y4667D02*
D03*
Y4693D02*
D03*
Y4719D02*
D03*
Y4744D02*
D03*
Y4770D02*
D03*
Y4795D02*
D03*
Y4821D02*
D03*
Y4847D02*
D03*
Y4872D02*
D03*
Y4898D02*
D03*
Y4923D02*
D03*
Y4949D02*
D03*
X6776Y4667D02*
D03*
Y4693D02*
D03*
Y4719D02*
D03*
Y4744D02*
D03*
Y4770D02*
D03*
Y4795D02*
D03*
Y4821D02*
D03*
Y4847D02*
D03*
Y4872D02*
D03*
Y4898D02*
D03*
Y4923D02*
D03*
Y4949D02*
D03*
X5155Y4626D02*
D03*
Y4651D02*
D03*
Y4677D02*
D03*
Y4703D02*
D03*
Y4728D02*
D03*
Y4754D02*
D03*
Y4779D02*
D03*
Y4805D02*
D03*
Y4831D02*
D03*
Y4856D02*
D03*
Y4882D02*
D03*
Y4907D02*
D03*
X4887Y4626D02*
D03*
Y4651D02*
D03*
Y4677D02*
D03*
Y4703D02*
D03*
Y4728D02*
D03*
Y4754D02*
D03*
Y4779D02*
D03*
Y4805D02*
D03*
Y4831D02*
D03*
Y4856D02*
D03*
Y4882D02*
D03*
Y4907D02*
D03*
D105*
X3385Y3041D02*
D03*
Y3439D02*
D03*
X3445Y4156D02*
D03*
Y4554D02*
D03*
D106*
X5359Y3335D02*
D03*
X4961D02*
D03*
D107*
X4060Y3410D02*
D03*
Y3190D02*
D03*
X4110Y4530D02*
D03*
Y4310D02*
D03*
D108*
X6087Y3220D02*
D03*
X6370D02*
D03*
X4510Y3165D02*
D03*
X4793D02*
D03*
D109*
X7235Y3977D02*
D03*
Y4260D02*
D03*
X5620Y3820D02*
D03*
Y4103D02*
D03*
D110*
X10555Y4040D02*
D03*
D111*
X10530D02*
D03*
X10505D02*
D03*
X10480D02*
D03*
X10455D02*
D03*
X10430D02*
D03*
X10405D02*
D03*
X10380D02*
D03*
X10555Y3835D02*
D03*
X10530D02*
D03*
X10505D02*
D03*
X10480D02*
D03*
X10455D02*
D03*
X10430D02*
D03*
X10405D02*
D03*
X10380D02*
D03*
D112*
X4319Y2720D02*
D03*
X4344D02*
D03*
X4370D02*
D03*
X4396D02*
D03*
X4319Y2913D02*
D03*
X4344D02*
D03*
X4370D02*
D03*
X4589Y2727D02*
D03*
X4615D02*
D03*
X4641D02*
D03*
X4666D02*
D03*
X4589Y2920D02*
D03*
X4615D02*
D03*
X4641D02*
D03*
X5899Y2715D02*
D03*
X5924D02*
D03*
X5950D02*
D03*
X5976D02*
D03*
X5899Y2908D02*
D03*
X5924D02*
D03*
X5950D02*
D03*
X5009Y2727D02*
D03*
X5034D02*
D03*
X5060D02*
D03*
X5086D02*
D03*
X5009Y2920D02*
D03*
X5034D02*
D03*
X5060D02*
D03*
D113*
X4396Y2913D02*
D03*
X4666Y2920D02*
D03*
X5976Y2908D02*
D03*
X5086Y2920D02*
D03*
D114*
X7425Y4739D02*
D03*
Y4588D02*
D03*
X5535Y4701D02*
D03*
Y4550D02*
D03*
D115*
X7270Y5013D02*
D03*
X7421D02*
D03*
X5380Y4975D02*
D03*
X5531D02*
D03*
D116*
X6620Y4467D02*
D03*
Y4355D02*
D03*
X6510Y4467D02*
D03*
Y4355D02*
D03*
X4990Y4341D02*
D03*
Y4229D02*
D03*
X4890Y4341D02*
D03*
Y4229D02*
D03*
D117*
X9745Y4600D02*
D03*
Y4817D02*
D03*
X9619Y4600D02*
D03*
Y4817D02*
D03*
D118*
X9585Y3330D02*
D03*
X9959D02*
D03*
D119*
X4088Y3795D02*
D03*
X3982D02*
D03*
X10873Y3555D02*
D03*
X10767D02*
D03*
X9041Y3680D02*
D03*
X8935D02*
D03*
X10117Y4015D02*
D03*
X10223D02*
D03*
X9855Y3180D02*
D03*
X9961D02*
D03*
X9708D02*
D03*
X9602D02*
D03*
X9622Y3485D02*
D03*
X9728D02*
D03*
X9437Y4645D02*
D03*
X9543D02*
D03*
X4987Y5010D02*
D03*
X5093D02*
D03*
X4991Y4535D02*
D03*
X4885D02*
D03*
X4515Y3685D02*
D03*
X4409D02*
D03*
X4056Y4825D02*
D03*
X3950D02*
D03*
X4148Y4920D02*
D03*
X4042D02*
D03*
X3672Y4925D02*
D03*
X3778D02*
D03*
X3998Y3700D02*
D03*
X3892D02*
D03*
X3622Y3810D02*
D03*
X3728D02*
D03*
X4707Y5040D02*
D03*
X4813D02*
D03*
X8676Y3160D02*
D03*
X8570D02*
D03*
X8822D02*
D03*
X8928D02*
D03*
X6856Y4573D02*
D03*
X6750D02*
D03*
X6597Y5078D02*
D03*
X6703D02*
D03*
X6877Y5048D02*
D03*
X6983D02*
D03*
X6133Y3735D02*
D03*
X6027D02*
D03*
X10578Y3725D02*
D03*
X10472D02*
D03*
X10644Y3835D02*
D03*
X10750D02*
D03*
X10644Y4030D02*
D03*
X10750D02*
D03*
D120*
X3865Y3785D02*
D03*
X3925D02*
D03*
X9070Y4200D02*
D03*
X9130D02*
D03*
X9130Y4255D02*
D03*
X9070D02*
D03*
X10795Y4795D02*
D03*
X10855D02*
D03*
X10615Y3555D02*
D03*
X10675D02*
D03*
X9980Y3465D02*
D03*
X9921D02*
D03*
X4885Y5090D02*
D03*
X4945D02*
D03*
X4605Y4955D02*
D03*
X4665D02*
D03*
X4605Y4845D02*
D03*
X4665D02*
D03*
X3920Y4905D02*
D03*
X3980D02*
D03*
X3739Y4855D02*
D03*
X3680D02*
D03*
X3739Y5000D02*
D03*
X3680D02*
D03*
X3945Y5000D02*
D03*
X3885D02*
D03*
X3690Y3735D02*
D03*
X3630D02*
D03*
X3690Y3880D02*
D03*
X3630D02*
D03*
X3885Y3880D02*
D03*
X3826D02*
D03*
X6495Y4993D02*
D03*
X6555D02*
D03*
X6495Y4883D02*
D03*
X6555D02*
D03*
X6775Y5128D02*
D03*
X6835D02*
D03*
X7870Y3815D02*
D03*
X7930D02*
D03*
X10691Y3905D02*
D03*
Y3960D02*
D03*
X10750D02*
D03*
Y3905D02*
D03*
X10795Y4895D02*
D03*
X10855D02*
D03*
D121*
X9510Y4515D02*
D03*
Y4455D02*
D03*
X6360Y4654D02*
D03*
Y4713D02*
D03*
X4740Y2800D02*
D03*
Y2860D02*
D03*
X5020Y4470D02*
D03*
Y4410D02*
D03*
X4625Y4775D02*
D03*
Y4715D02*
D03*
X4010Y4684D02*
D03*
Y4625D02*
D03*
X4075Y4744D02*
D03*
Y4685D02*
D03*
X4010Y3625D02*
D03*
Y3565D02*
D03*
X4474Y2790D02*
D03*
Y2849D02*
D03*
X3955Y3565D02*
D03*
Y3505D02*
D03*
X4470Y4615D02*
D03*
Y4675D02*
D03*
X4470Y4765D02*
D03*
Y4824D02*
D03*
X6885Y4508D02*
D03*
Y4449D02*
D03*
X6545Y4810D02*
D03*
Y4750D02*
D03*
X6360Y4804D02*
D03*
Y4863D02*
D03*
X10805Y3780D02*
D03*
Y3839D02*
D03*
X10090Y5010D02*
D03*
Y4950D02*
D03*
X10190Y5010D02*
D03*
Y4951D02*
D03*
D122*
X10220Y3834D02*
D03*
Y3940D02*
D03*
X10125Y3832D02*
D03*
Y3938D02*
D03*
X9445Y4465D02*
D03*
Y4571D02*
D03*
X9835Y4708D02*
D03*
Y4602D02*
D03*
X4730Y4847D02*
D03*
Y4953D02*
D03*
X4700Y4672D02*
D03*
Y4778D02*
D03*
X4550Y4612D02*
D03*
Y4718D02*
D03*
X3905Y4463D02*
D03*
Y4357D02*
D03*
X3855Y3333D02*
D03*
Y3227D02*
D03*
X5295Y4882D02*
D03*
Y4988D02*
D03*
X5425Y4677D02*
D03*
Y4783D02*
D03*
X5295Y4651D02*
D03*
Y4545D02*
D03*
X5845Y4003D02*
D03*
Y3897D02*
D03*
X7425Y4153D02*
D03*
Y4047D02*
D03*
X7185Y4690D02*
D03*
Y4583D02*
D03*
X6620Y4885D02*
D03*
Y4991D02*
D03*
X7185Y4920D02*
D03*
Y5026D02*
D03*
X7315Y4715D02*
D03*
Y4821D02*
D03*
X6620Y4710D02*
D03*
Y4816D02*
D03*
X6460Y4648D02*
D03*
Y4755D02*
D03*
X10875Y3734D02*
D03*
Y3840D02*
D03*
D123*
X5175Y2727D02*
D03*
Y2833D02*
D03*
X6085Y2712D02*
D03*
Y2818D02*
D03*
D124*
X7610Y2345D02*
D03*
X4541Y2350D02*
D03*
X6089Y2347D02*
D03*
X5180Y2350D02*
D03*
D125*
X7551Y2633D02*
D03*
X7669D02*
D03*
Y2515D02*
D03*
X7551D02*
D03*
X4482Y2638D02*
D03*
X4600D02*
D03*
Y2520D02*
D03*
X4482D02*
D03*
X6030Y2635D02*
D03*
X6148D02*
D03*
Y2517D02*
D03*
X6030D02*
D03*
X5121Y2638D02*
D03*
X5239D02*
D03*
Y2520D02*
D03*
X5121D02*
D03*
D126*
X8160Y2700D02*
D03*
Y2600D02*
D03*
Y2500D02*
D03*
Y2400D02*
D03*
D127*
X7660Y4110D02*
D03*
Y4260D02*
D03*
X8164Y3961D02*
D03*
X8014D02*
D03*
X7865D02*
D03*
X7715Y5059D02*
D03*
X8014D02*
D03*
X8164D02*
D03*
X8314D02*
D03*
D128*
Y3961D02*
D03*
X7715D02*
D03*
D129*
X8855Y3295D02*
D03*
X8755D02*
D03*
X8655D02*
D03*
D130*
X10678Y3455D02*
D03*
Y2963D02*
D03*
X10875Y3455D02*
D03*
Y2963D02*
D03*
D131*
X8670Y3745D02*
D03*
X8570D02*
D03*
X8670Y3845D02*
D03*
X8570D02*
D03*
X8670Y3945D02*
D03*
X8570D02*
D03*
X8670Y4045D02*
D03*
X8570D02*
D03*
X8670Y4145D02*
D03*
X8570D02*
D03*
X8670Y4245D02*
D03*
X8570D02*
D03*
X8670Y4345D02*
D03*
X8570D02*
D03*
X8670Y4445D02*
D03*
X8570D02*
D03*
X8670Y4545D02*
D03*
X8570D02*
D03*
X8670Y4645D02*
D03*
X8570D02*
D03*
X8670Y4745D02*
D03*
X8570D02*
D03*
X8670Y4845D02*
D03*
X8570D02*
D03*
X8670Y4945D02*
D03*
X8570D02*
D03*
X8670Y5045D02*
D03*
X9990Y2965D02*
D03*
Y2865D02*
D03*
X9890Y2965D02*
D03*
Y2865D02*
D03*
X9790Y2965D02*
D03*
Y2865D02*
D03*
X9690Y2965D02*
D03*
Y2865D02*
D03*
X9590Y2965D02*
D03*
Y2865D02*
D03*
X9490Y2965D02*
D03*
Y2865D02*
D03*
X9390Y2965D02*
D03*
Y2865D02*
D03*
X9290Y2965D02*
D03*
Y2865D02*
D03*
X9190Y2965D02*
D03*
Y2865D02*
D03*
X9090Y2965D02*
D03*
X10030Y4460D02*
D03*
Y4560D02*
D03*
Y4660D02*
D03*
X10130Y4460D02*
D03*
Y4560D02*
D03*
Y4660D02*
D03*
X10230Y4460D02*
D03*
Y4560D02*
D03*
Y4660D02*
D03*
X10330Y4460D02*
D03*
Y4560D02*
D03*
Y4660D02*
D03*
X10430Y4460D02*
D03*
Y4560D02*
D03*
Y4660D02*
D03*
X10530Y4460D02*
D03*
Y4560D02*
D03*
Y4660D02*
D03*
X10630Y4460D02*
D03*
Y4560D02*
D03*
Y4660D02*
D03*
X10730D02*
D03*
Y4560D02*
D03*
Y4460D02*
D03*
X9795Y5010D02*
D03*
X9695Y5110D02*
D03*
Y5010D02*
D03*
X9595Y5110D02*
D03*
Y5010D02*
D03*
X9495Y5110D02*
D03*
Y5010D02*
D03*
X9395Y5110D02*
D03*
Y5010D02*
D03*
X9295Y5110D02*
D03*
Y5010D02*
D03*
X9195Y5110D02*
D03*
Y5010D02*
D03*
X9095Y5110D02*
D03*
Y5010D02*
D03*
X8995Y5110D02*
D03*
Y5010D02*
D03*
X10940Y4335D02*
D03*
Y4435D02*
D03*
Y4535D02*
D03*
Y4895D02*
D03*
Y4795D02*
D03*
Y4695D02*
D03*
X10190Y5110D02*
D03*
X10090D02*
D03*
X9990D02*
D03*
X10570D02*
D03*
X10670D02*
D03*
X10770D02*
D03*
D132*
X8570Y5045D02*
D03*
X10940Y4235D02*
D03*
Y4995D02*
D03*
D133*
X9090Y2865D02*
D03*
X9795Y5110D02*
D03*
X10290D02*
D03*
X10470D02*
D03*
D134*
X10955Y4043D02*
D03*
Y3847D02*
D03*
D135*
X11061Y4083D02*
D03*
Y3807D02*
D03*
X3380Y2480D02*
D03*
X3345Y4990D02*
D03*
X10755Y2480D02*
D03*
D136*
X9440Y3550D02*
D03*
X9015Y4005D02*
D03*
X8965D02*
D03*
X9060D02*
D03*
X9105D02*
D03*
X5080Y4465D02*
D03*
X4470Y4720D02*
D03*
X6945Y4503D02*
D03*
X7120Y4943D02*
D03*
X6360Y4758D02*
D03*
X7165Y4743D02*
D03*
X7185Y4533D02*
D03*
X7065Y4613D02*
D03*
X7115Y4493D02*
D03*
X10595Y3830D02*
D03*
X10590Y4040D02*
D03*
X10505Y4105D02*
D03*
X10455D02*
D03*
X9945Y4455D02*
D03*
X10220Y3760D02*
D03*
X9150Y4155D02*
D03*
X5220Y4640D02*
D03*
X7115Y4680D02*
D03*
X9530Y4580D02*
D03*
X9795Y4760D02*
D03*
X5305Y4815D02*
D03*
X5220Y4580D02*
D03*
X5320Y4740D02*
D03*
X5270Y4710D02*
D03*
X6700Y4810D02*
D03*
X7070Y4455D02*
D03*
X7195Y4785D02*
D03*
Y4855D02*
D03*
X9200Y3795D02*
D03*
X9380Y4515D02*
D03*
X9600Y4520D02*
D03*
X10055Y4005D02*
D03*
X10115Y3760D02*
D03*
X10275Y3755D02*
D03*
X10320Y3760D02*
D03*
X10370D02*
D03*
X10395Y3365D02*
D03*
X9490Y3425D02*
D03*
X9180Y4190D02*
D03*
X9215Y4085D02*
D03*
D137*
X4270Y2880D02*
D03*
X4213Y4028D02*
D03*
X4255Y2995D02*
D03*
X8795Y3615D02*
D03*
X5845Y2715D02*
D03*
X4540Y2920D02*
D03*
X4955Y2725D02*
D03*
X4960Y2920D02*
D03*
X4770Y3450D02*
D03*
X4470Y4390D02*
D03*
X4585Y3685D02*
D03*
X4580Y4380D02*
D03*
X10615Y3615D02*
D03*
X10090Y3225D02*
D03*
X9780Y3180D02*
D03*
X5840Y3830D02*
D03*
Y4065D02*
D03*
X5225Y3630D02*
D03*
X5260Y4445D02*
D03*
X5100Y3630D02*
D03*
X6365Y4598D02*
D03*
X3815Y4455D02*
D03*
X3670Y4795D02*
D03*
X3955Y4280D02*
D03*
X4135Y4825D02*
D03*
X3415Y4035D02*
D03*
X3515D02*
D03*
X4007Y5025D02*
D03*
X3952Y3905D02*
D03*
X3615Y3675D02*
D03*
X3360Y2915D02*
D03*
X3460D02*
D03*
X3895Y3160D02*
D03*
X3760Y3335D02*
D03*
X4080Y3705D02*
D03*
X5375Y4870D02*
D03*
X5425Y4605D02*
D03*
X4640Y5040D02*
D03*
X8755Y3160D02*
D03*
X5155Y5010D02*
D03*
X4925D02*
D03*
X5065Y4535D02*
D03*
X4475Y4560D02*
D03*
X4540Y4820D02*
D03*
X6430Y4858D02*
D03*
X6930Y4573D02*
D03*
X7265Y4908D02*
D03*
X6530Y5078D02*
D03*
X7315Y4643D02*
D03*
X6555D02*
D03*
X7045Y5048D02*
D03*
X5400Y4210D02*
D03*
X5085Y4205D02*
D03*
X4810Y4680D02*
D03*
X4630Y4607D02*
D03*
X4805Y4340D02*
D03*
X5075D02*
D03*
X6705Y4725D02*
D03*
X6030Y4425D02*
D03*
X6365Y3495D02*
D03*
X6200Y3735D02*
D03*
X7030Y4340D02*
D03*
X6710Y3770D02*
D03*
X6845D02*
D03*
X6710Y4350D02*
D03*
X7425Y3975D02*
D03*
Y4230D02*
D03*
X10725Y3715D02*
D03*
X10870Y4000D02*
D03*
X9140Y3550D02*
D03*
X10765Y4995D02*
D03*
X10620Y4990D02*
D03*
X10470D02*
D03*
X8870Y3675D02*
D03*
X4535Y2725D02*
D03*
X5650Y3095D02*
D03*
X5740Y3090D02*
D03*
X5840Y2890D02*
D03*
X8505Y3615D02*
D03*
X10025Y3175D02*
D03*
X9810Y3500D02*
D03*
X6815Y5048D02*
D03*
X10025Y4090D02*
D03*
X9855Y4780D02*
D03*
X5225Y4920D02*
D03*
X4795Y4765D02*
D03*
X9237Y3650D02*
D03*
X10235Y2790D02*
D03*
X10335Y2805D02*
D03*
D138*
X6180Y4425D02*
D03*
X7420Y3205D02*
D03*
X7340Y3210D02*
D03*
X7505Y3205D02*
D03*
X8885Y4855D02*
D03*
D139*
X5235Y4835D02*
D03*
M02*
