M48
;Layer_Color=9474304
;FILE_FORMAT=2:3
INCH,LZ
;TYPE=PLATED
T1F00S00C0.010
T2F00S00C0.014
T3F00S00C0.015
T4F00S00C0.028
T5F00S00C0.033
T6F00S00C0.040
T7F00S00C0.040
T8F00S00C0.043
T9F00S00C0.049
T10F00S00C0.050
T11F00S00C0.051
T12F00S00C0.055
T13F00S00C0.075
%
T01
X092Y03845
X09205Y03884
X09237Y03862
X0919Y04125
X09605Y0442
X0962Y0446
X0973
X0975Y0442
X09795Y0445
X095Y0455
X09605Y03615
X0963Y03585
X09635Y03545
X09685
X09725Y0356
X0977Y0357
X0958Y03535
X1023Y03525
X1033
X10415Y0377
X1003Y03895
X10035Y03935
X1001Y03965
X07115Y04765
X07125Y04875
X05223Y04728
T02
X05235Y04835
T03
X0508Y04465
X0522Y0458
Y0464
X06945Y04503
X0707Y04455
X07115Y04493
X07185Y04533
X07065Y04613
X07115Y0468
X08965Y04005
X09015
X0906
X09105
X09215Y04085
X0915Y04155
X0918Y0419
X092Y03795
X0944Y0355
X0949Y03425
X10115Y0376
X1022
X10275Y03755
X1032Y0376
X1037
X10275Y03885
Y04015
X10055Y04005
X10455Y04105
X10505
X1059Y0404
X10595Y0383
X10395Y03365
X09945Y04455
X096Y0452
X0953Y0458
X0938Y04515
X09795Y0476
X07195Y04785
Y04855
X07165Y04743
X0712Y04943
X067Y0481
X0636Y04758
X0532Y0474
X0527Y0471
X05305Y04815
X0447Y0472
T04
X10235Y0279
X10335Y02805
X05845Y02715
X0584Y0289
X0574Y0309
X0565Y03095
X0496Y0292
X04955Y02725
X04535
X0454Y0292
X0427Y0288
X04255Y02995
X0346Y02915
X0336
X03895Y0316
X0376Y03335
X03615Y03675
X03515Y04035
X03415
X03952Y03905
X0408Y03705
X04213Y04028
X03955Y0428
X03815Y04455
X0447Y0439
X0458Y0438
X0463Y04607
X04475Y0456
X04585Y03685
X0477Y0345
X051Y0363
X05225
X05085Y04205
X05075Y0434
X05065Y04535
X0526Y04445
X05425Y04605
X054Y0421
X0584Y04065
Y0383
X062Y03735
X0603Y04425
X04805Y0434
X0481Y0468
X06365Y04598
X06555Y04643
X0693Y04573
X0703Y0434
X0671Y0435
Y0377
X06845
X06365Y03495
X07425Y03975
Y0423
X07315Y04643
X08505Y03615
X08795
X0887Y03675
X09237Y0365
X0914Y0355
X08755Y0316
X0978Y0318
X10025Y03175
X1009Y03225
X0981Y035
X10025Y0409
X1087Y04
X10725Y03715
X10615Y03615
X1062Y0499
X10765Y04995
X1047Y0499
X09855Y0478
X07265Y04908
X07045Y05048
X06815
X0653Y05078
X0643Y04858
X06705Y04725
X05375Y0487
X05225Y0492
X05155Y0501
X04925
X04795Y04765
X0454Y0482
X0464Y0504
X04007Y05025
X04135Y04825
X0367Y04795
T05
X10955Y03847
Y04043
T06
X07551Y02515
Y02633
X07669
Y02515
X06148Y02517
Y02635
X0603
Y02517
X05239Y0252
Y02638
X05121
Y0252
X046Y0252
Y02638
X04482
Y0252
T07
X0939Y02865
X0949
X0959
X0969
X0979
X0989
X0999
Y02965
X0989
X0979
X0969
X0959
X0949
X0939
X0929
Y02865
X0919
Y02965
X0909
Y02865
X0816Y027
Y026
Y025
Y024
X0857Y03745
X0867
Y03845
X0857
Y03945
X0867
Y04045
X0857
Y04145
X0867
Y04245
X0857
Y04345
X0867
Y04445
X0857
Y04545
X0867
Y04645
X0857
X1003Y0466
Y0456
Y0446
X1013
Y0456
Y0466
X1023
Y0456
Y0446
X1033
Y0456
Y0466
X1043
Y0456
Y0446
X1053
Y0456
Y0466
X1063
Y0456
Y0446
X1073
Y0456
Y0466
X1094Y04535
Y04435
Y04335
Y04235
Y04695
Y04795
Y04895
Y04995
X1077Y0511
X1067
X1057
X1047
X1029
X1019
X1009
X0999
X09795
Y0501
X09695
Y0511
X09595
Y0501
X09495
Y0511
X09395
Y0501
X09295
Y0511
X09195
Y0501
X09095
Y0511
X08995
Y0501
X0867Y05045
Y04945
Y04845
Y04745
X0857
Y04845
Y04945
Y05045
T08
X08655Y03295
X08755
X08855
T09
X08245Y025
T10
X06505Y04545
X0662
T11
X10678Y02963
X10875
Y03455
X10678
T12
X0618Y04425
X0766Y0426
Y0411
X07505Y03205
X0742
X0734Y0321
X07865Y03961
X08014
X08164
Y05059
X08014
X08314
X08885Y04855
X07715Y05059
T13
X07715Y03961
X08314
M30
