G04 Layer_Physical_Order=1*
G04 Layer_Color=255*
%FSLAX23Y23*%
%MOIN*%
G70*
G01*
G75*
%ADD10R,0.048X0.036*%
%ADD11R,0.028X0.010*%
%ADD12R,0.010X0.028*%
%ADD13R,0.118X0.074*%
%ADD14R,0.118X0.060*%
%ADD15R,0.020X0.150*%
%ADD16O,0.020X0.150*%
%ADD17R,0.053X0.067*%
%ADD18R,0.104X0.073*%
%ADD19R,0.093X0.175*%
%ADD20R,0.151X0.485*%
%ADD21R,0.077X0.041*%
%ADD22R,0.280X0.220*%
%ADD23R,0.041X0.077*%
%ADD24R,0.220X0.280*%
%ADD25R,0.031X0.039*%
%ADD26O,0.081X0.012*%
%ADD27O,0.012X0.081*%
%ADD28R,0.075X0.071*%
%ADD29R,0.075X0.059*%
%ADD30R,0.053X0.016*%
%ADD31O,0.071X0.018*%
%ADD32R,0.205X0.146*%
%ADD33R,0.146X0.205*%
%ADD34R,0.124X0.098*%
%ADD35R,0.102X0.126*%
%ADD36R,0.126X0.102*%
%ADD37R,0.015X0.070*%
%ADD38O,0.015X0.070*%
%ADD39O,0.016X0.063*%
%ADD40R,0.016X0.063*%
%ADD41R,0.066X0.065*%
%ADD42R,0.065X0.066*%
%ADD43R,0.067X0.041*%
%ADD44R,0.075X0.051*%
%ADD45R,0.220X0.083*%
%ADD46R,0.043X0.067*%
%ADD47R,0.028X0.035*%
%ADD48R,0.035X0.028*%
%ADD49R,0.067X0.043*%
%ADD50R,0.102X0.043*%
%ADD51C,0.020*%
%ADD52C,0.010*%
%ADD53C,0.030*%
%ADD54C,0.125*%
%ADD55C,0.050*%
%ADD56C,0.015*%
%ADD57C,0.040*%
%ADD58C,0.100*%
%ADD59C,0.157*%
%ADD60C,0.067*%
%ADD61C,0.070*%
%ADD62C,0.060*%
%ADD63C,0.075*%
%ADD64C,0.098*%
%ADD65C,0.063*%
%ADD66C,0.071*%
%ADD67C,0.060*%
%ADD68R,0.060X0.060*%
%ADD69R,0.060X0.060*%
%ADD70C,0.057*%
%ADD71C,0.030*%
%ADD72C,0.035*%
%ADD73C,0.050*%
%ADD74C,0.075*%
%ADD75C,0.034*%
G36*
X7220Y4160D02*
X7335Y4045D01*
Y3785D01*
X7380Y3740D01*
Y3630D01*
X7270Y3560D01*
Y3140D01*
X7240Y3110D01*
X6895Y3110D01*
X6795Y3229D01*
Y4111D01*
X6840Y4160D01*
X7220Y4160D01*
D02*
G37*
G36*
X6265Y4435D02*
X6265Y3160D01*
X6215Y3110D01*
X5965Y3110D01*
X5915Y3160D01*
Y4410D01*
X6015Y4485D01*
X6227D01*
X6265Y4435D01*
D02*
G37*
G36*
X3790Y4540D02*
X3945D01*
X3965Y4520D01*
Y4425D01*
X3950Y4410D01*
X3765D01*
X3740Y4435D01*
X3740Y4545D01*
X3745Y4550D01*
X3780Y4550D01*
X3790Y4540D01*
D02*
G37*
G36*
X3620Y4605D02*
X3775D01*
X3795Y4625D01*
X3910Y4625D01*
X3935Y4600D01*
X4180Y4600D01*
X4200Y4580D01*
X4200Y4460D01*
X4175Y4435D01*
X4070Y4435D01*
X3955Y4550D01*
X3800Y4550D01*
X3790Y4560D01*
X3700Y4560D01*
X3555Y4415D01*
X3315Y4415D01*
X3265Y4465D01*
Y4610D01*
X3315Y4660D01*
X3565D01*
X3620Y4605D01*
D02*
G37*
G36*
X4925Y4645D02*
X4832D01*
X4815Y4655D01*
X4795Y4665D01*
Y4695D01*
X4829Y4710D01*
X4925D01*
Y4645D01*
D02*
G37*
G36*
X3695Y5030D02*
X3705Y5020D01*
X3705Y4835D01*
X3715Y4825D01*
X3820D01*
X3835Y4810D01*
Y4749D01*
X3835Y4749D01*
Y4725D01*
X3840Y4720D01*
X3915D01*
X3920Y4715D01*
Y4658D01*
X3928Y4650D01*
X3970D01*
X3975Y4645D01*
X4030D01*
X4035Y4640D01*
Y4615D01*
X4030Y4610D01*
X3980D01*
X3975Y4615D01*
X3935D01*
X3915Y4635D01*
X3795D01*
X3780Y4650D01*
X3745D01*
X3740Y4655D01*
Y4665D01*
X3745Y4670D01*
X3780D01*
X3785Y4675D01*
Y4690D01*
X3780Y4695D01*
X3744D01*
X3740Y4699D01*
X3740Y4745D01*
X3735Y4750D01*
X3645Y4750D01*
X3625Y4770D01*
Y5020D01*
X3635Y5030D01*
X3695Y5030D01*
D02*
G37*
G36*
X7340Y4381D02*
Y4210D01*
X7315Y4185D01*
X6490D01*
X6440Y4235D01*
Y4360D01*
X6476Y4410D01*
X7305D01*
X7340Y4381D01*
D02*
G37*
G36*
X6755Y4120D02*
Y3216D01*
X6666Y3110D01*
X6330Y3110D01*
X6290Y3150D01*
Y3655D01*
Y4060D01*
X6395Y4160D01*
X6715D01*
X6755Y4120D01*
D02*
G37*
G36*
X4135Y3835D02*
Y3665D01*
X4125Y3655D01*
X3985D01*
X3970Y3670D01*
Y3735D01*
X3985Y3750D01*
X4050D01*
X4060Y3760D01*
Y3835D01*
X4070Y3845D01*
X4125D01*
X4135Y3835D01*
D02*
G37*
G36*
X4190Y4360D02*
Y4260D01*
X4165Y4235D01*
X3765D01*
X3740Y4260D01*
Y4360D01*
X3765Y4385D01*
X4165D01*
X4190Y4360D01*
D02*
G37*
G36*
X3720Y3430D02*
X3735Y3420D01*
X3890D01*
X3910Y3400D01*
Y3305D01*
X3895Y3290D01*
X3710D01*
X3685Y3315D01*
Y3425D01*
X3690Y3430D01*
X3720Y3430D01*
D02*
G37*
G36*
X3970Y3950D02*
X3997Y3923D01*
X3997Y3877D01*
X3975Y3855D01*
X3872D01*
X3867Y3860D01*
X3867Y3900D01*
X3924Y3950D01*
X3970Y3950D01*
D02*
G37*
G36*
X4135Y3240D02*
Y3140D01*
X4110Y3115D01*
X3710D01*
X3685Y3140D01*
Y3240D01*
X3710Y3265D01*
X4110D01*
X4135Y3240D01*
D02*
G37*
G36*
X5715Y4235D02*
Y4035D01*
X5690Y4010D01*
X4765D01*
X4715Y4060D01*
Y4235D01*
X4765Y4285D01*
X5665D01*
X5715Y4235D01*
D02*
G37*
G36*
X3565Y3485D02*
X3720D01*
X3740Y3505D01*
X3860Y3505D01*
X3885Y3480D01*
X4125Y3480D01*
X4145Y3460D01*
X4145Y3340D01*
X4120Y3315D01*
X4015Y3315D01*
X3900Y3430D01*
X3740Y3430D01*
X3730Y3440D01*
X3645D01*
X3500Y3295D01*
X3260Y3295D01*
X3210Y3345D01*
Y3490D01*
X3260Y3540D01*
X3510D01*
X3565Y3485D01*
D02*
G37*
G36*
X4235Y3620D02*
Y3085D01*
X4015Y2865D01*
X3235Y2865D01*
X3210Y2890D01*
X3210Y3115D01*
X3235Y3140D01*
X3535D01*
X3655Y3020D01*
X4090D01*
X4210Y3140D01*
Y3565D01*
X4175Y3600D01*
X3949D01*
X3917Y3575D01*
X3875Y3575D01*
Y3590D01*
X3915D01*
X3970Y3645D01*
X4210D01*
X4235Y3620D01*
D02*
G37*
G36*
X4675Y4370D02*
Y3080D01*
X4637Y3055D01*
X4425Y3055D01*
X4315Y3147D01*
X4315Y4405D01*
X4375Y4455D01*
X4590Y4455D01*
X4675Y4370D01*
D02*
G37*
G36*
X4190Y4955D02*
Y4785D01*
X4180Y4775D01*
X4040D01*
X4025Y4790D01*
Y4855D01*
X4040Y4870D01*
X4105D01*
X4115Y4880D01*
Y4955D01*
X4125Y4965D01*
X4180D01*
X4190Y4955D01*
D02*
G37*
G36*
X4025Y5070D02*
X4052Y5043D01*
X4052Y4997D01*
X4030Y4975D01*
X3927D01*
X3922Y4980D01*
X3922Y5020D01*
X3979Y5070D01*
X4025Y5070D01*
D02*
G37*
G36*
X3640Y3910D02*
X3650Y3900D01*
X3650Y3715D01*
X3660Y3705D01*
X3765D01*
X3780Y3690D01*
Y3629D01*
X3780Y3629D01*
Y3605D01*
X3785Y3600D01*
X3860D01*
X3865Y3595D01*
Y3538D01*
X3868Y3535D01*
X3891Y3535D01*
X3894Y3534D01*
X3906D01*
X3915Y3525D01*
X3975D01*
X3980Y3520D01*
Y3495D01*
X3975Y3490D01*
X3925D01*
X3920Y3495D01*
X3885Y3495D01*
X3865Y3515D01*
X3740D01*
X3725Y3530D01*
X3690D01*
X3685Y3535D01*
Y3545D01*
X3690Y3550D01*
X3725D01*
X3730Y3555D01*
Y3570D01*
X3725Y3575D01*
X3689D01*
X3685Y3579D01*
X3685Y3625D01*
X3680Y3630D01*
X3590Y3630D01*
X3570Y3650D01*
Y3900D01*
X3580Y3910D01*
X3640Y3910D01*
D02*
G37*
G36*
X4290Y4740D02*
Y4205D01*
X4070Y3985D01*
X3290Y3985D01*
X3265Y4010D01*
X3265Y4235D01*
X3290Y4260D01*
X3590D01*
X3710Y4140D01*
X4145D01*
X4265Y4260D01*
Y4685D01*
X4230Y4720D01*
X4004D01*
X3972Y4695D01*
X3930Y4695D01*
Y4710D01*
X3970D01*
X4025Y4765D01*
X4265D01*
X4290Y4740D01*
D02*
G37*
G36*
X5102Y3995D02*
X5150Y3952D01*
Y3090D01*
X5110Y3055D01*
X5077D01*
X5075Y3055D01*
X4739D01*
X4700Y3080D01*
Y3900D01*
X4795Y3995D01*
X5102Y3995D01*
D02*
G37*
G36*
X5700Y3965D02*
X5700Y3565D01*
X5550Y3415D01*
X5550Y3120D01*
X5485Y3055D01*
X5205D01*
X5175Y3090D01*
X5170Y3970D01*
X5200Y3995D01*
X5670D01*
X5700Y3965D01*
D02*
G37*
G36*
X6818Y4682D02*
X6733D01*
X6707Y4698D01*
X6688Y4707D01*
Y4738D01*
X6727Y4755D01*
X6818D01*
X6818Y4682D01*
D02*
G37*
%LPC*%
G36*
X7366Y3664D02*
X7350D01*
Y3631D01*
X7366D01*
Y3664D01*
D02*
G37*
G36*
X7320D02*
X7304D01*
Y3631D01*
X7320D01*
Y3664D01*
D02*
G37*
G36*
X7366Y3727D02*
X7350D01*
Y3694D01*
X7366D01*
Y3727D01*
D02*
G37*
G36*
X7320D02*
X7304D01*
Y3694D01*
X7320D01*
Y3727D01*
D02*
G37*
G36*
X6830Y3755D02*
X6813D01*
X6814Y3752D01*
X6820Y3745D01*
X6827Y3739D01*
X6830Y3738D01*
Y3755D01*
D02*
G37*
G36*
X6877D02*
X6860D01*
Y3738D01*
X6863Y3739D01*
X6870Y3745D01*
X6876Y3752D01*
X6877Y3755D01*
D02*
G37*
G36*
X7255Y3375D02*
X7185D01*
Y3137D01*
X7255D01*
Y3375D01*
D02*
G37*
G36*
X7155D02*
X7084D01*
Y3137D01*
X7155D01*
Y3375D01*
D02*
G37*
G36*
Y3643D02*
X7084D01*
Y3405D01*
X7155D01*
Y3643D01*
D02*
G37*
G36*
X7255D02*
X7185D01*
Y3405D01*
X7255D01*
Y3643D01*
D02*
G37*
G36*
X7308Y3962D02*
X7250D01*
Y3915D01*
X7308D01*
Y3962D01*
D02*
G37*
G36*
X7220D02*
X7162D01*
Y3915D01*
X7220D01*
Y3962D01*
D02*
G37*
G36*
X7060Y3960D02*
X6955D01*
Y3825D01*
X7060D01*
Y3960D01*
D02*
G37*
G36*
X6925D02*
X6820D01*
Y3825D01*
X6925D01*
Y3960D01*
D02*
G37*
G36*
X6830Y3802D02*
X6827Y3801D01*
X6820Y3795D01*
X6814Y3788D01*
X6813Y3785D01*
X6830D01*
Y3802D01*
D02*
G37*
G36*
X6860D02*
Y3785D01*
X6877D01*
X6876Y3788D01*
X6870Y3795D01*
X6863Y3801D01*
X6860Y3802D01*
D02*
G37*
G36*
X7308Y4038D02*
X7250D01*
Y3992D01*
X7308D01*
Y4038D01*
D02*
G37*
G36*
X7220D02*
X7162D01*
Y3992D01*
X7220D01*
Y4038D01*
D02*
G37*
G36*
X6925Y4125D02*
X6820D01*
Y3990D01*
X6925D01*
Y4125D01*
D02*
G37*
G36*
X7060D02*
X6955D01*
Y3990D01*
X7060D01*
Y4125D01*
D02*
G37*
G36*
X6074Y3640D02*
X5940D01*
Y3535D01*
X6074D01*
Y3640D01*
D02*
G37*
G36*
X6239D02*
X6104D01*
Y3535D01*
X6239D01*
Y3640D01*
D02*
G37*
G36*
X6165Y3778D02*
X6101D01*
Y3692D01*
X6165D01*
Y3715D01*
X6172D01*
X6175Y3710D01*
X6182Y3704D01*
X6191Y3701D01*
X6200Y3700D01*
X6209Y3701D01*
X6218Y3704D01*
X6225Y3710D01*
X6231Y3717D01*
X6234Y3726D01*
X6235Y3735D01*
X6234Y3744D01*
X6231Y3753D01*
X6225Y3760D01*
X6218Y3766D01*
X6209Y3769D01*
X6200Y3770D01*
X6191Y3769D01*
X6182Y3766D01*
X6175Y3760D01*
X6172Y3755D01*
X6165D01*
Y3778D01*
D02*
G37*
G36*
X6012Y3720D02*
X5995D01*
Y3692D01*
X6012D01*
Y3720D01*
D02*
G37*
G36*
X6059D02*
X6042D01*
Y3692D01*
X6059D01*
Y3720D01*
D02*
G37*
G36*
X6012Y3778D02*
X5995D01*
Y3750D01*
X6012D01*
Y3778D01*
D02*
G37*
G36*
X6072Y3205D02*
X6025D01*
Y3147D01*
X6072D01*
Y3205D01*
D02*
G37*
G36*
X6148D02*
X6102D01*
Y3147D01*
X6148D01*
Y3205D01*
D02*
G37*
G36*
X6074Y3505D02*
X5940D01*
Y3400D01*
X6074D01*
Y3505D01*
D02*
G37*
G36*
X6239D02*
X6104D01*
Y3400D01*
X6239D01*
Y3505D01*
D02*
G37*
G36*
X6072Y3293D02*
X6025D01*
Y3235D01*
X6072D01*
Y3293D01*
D02*
G37*
G36*
X6148D02*
X6102D01*
Y3235D01*
X6148D01*
Y3293D01*
D02*
G37*
G36*
X6180Y4473D02*
X6168Y4471D01*
X6156Y4466D01*
X6146Y4459D01*
X6139Y4449D01*
X6134Y4437D01*
X6132Y4425D01*
X6134Y4413D01*
X6139Y4401D01*
X6145Y4393D01*
Y4366D01*
X6129D01*
Y4171D01*
X6241D01*
Y4366D01*
X6215D01*
Y4393D01*
X6221Y4401D01*
X6226Y4413D01*
X6228Y4425D01*
X6226Y4437D01*
X6221Y4449D01*
X6214Y4459D01*
X6204Y4466D01*
X6192Y4471D01*
X6180Y4473D01*
D02*
G37*
G36*
X6045Y4457D02*
Y4440D01*
X6062D01*
X6061Y4443D01*
X6055Y4450D01*
X6048Y4456D01*
X6045Y4457D01*
D02*
G37*
G36*
X6015D02*
X6012Y4456D01*
X6005Y4450D01*
X5999Y4443D01*
X5998Y4440D01*
X6015D01*
Y4457D01*
D02*
G37*
G36*
Y4410D02*
X5998D01*
X5999Y4407D01*
X6005Y4400D01*
X6012Y4394D01*
X6015Y4393D01*
Y4410D01*
D02*
G37*
G36*
X6062D02*
X6045D01*
Y4393D01*
X6048Y4394D01*
X6055Y4400D01*
X6061Y4407D01*
X6062Y4410D01*
D02*
G37*
G36*
X6059Y3778D02*
X6042D01*
Y3750D01*
X6059D01*
Y3778D01*
D02*
G37*
G36*
X6241Y3907D02*
X6200D01*
Y3824D01*
X6241D01*
Y3907D01*
D02*
G37*
G36*
X6170D02*
X6129D01*
Y3824D01*
X6170D01*
Y3907D01*
D02*
G37*
G36*
Y4019D02*
X6129D01*
Y3937D01*
X6170D01*
Y4019D01*
D02*
G37*
G36*
X6241D02*
X6200D01*
Y3937D01*
X6241D01*
Y4019D01*
D02*
G37*
G36*
X3803Y4488D02*
X3797Y4486D01*
X3790Y4480D01*
X3784Y4473D01*
X3782Y4468D01*
X3803D01*
Y4488D01*
D02*
G37*
G36*
X3828D02*
Y4468D01*
X3848D01*
X3846Y4473D01*
X3840Y4480D01*
X3833Y4486D01*
X3828Y4488D01*
D02*
G37*
G36*
X3803Y4443D02*
X3782D01*
X3784Y4437D01*
X3790Y4430D01*
X3797Y4424D01*
X3803Y4422D01*
Y4443D01*
D02*
G37*
G36*
X3848D02*
X3828D01*
Y4422D01*
X3833Y4424D01*
X3840Y4430D01*
X3846Y4437D01*
X3848Y4443D01*
D02*
G37*
G36*
X3658Y4828D02*
X3652Y4826D01*
X3645Y4820D01*
X3639Y4813D01*
X3637Y4807D01*
X3658D01*
Y4828D01*
D02*
G37*
G36*
X3703Y4782D02*
X3682D01*
Y4762D01*
X3688Y4764D01*
X3695Y4770D01*
X3701Y4777D01*
X3703Y4782D01*
D02*
G37*
G36*
X3658D02*
X3637D01*
X3639Y4777D01*
X3645Y4770D01*
X3652Y4764D01*
X3658Y4762D01*
Y4782D01*
D02*
G37*
G36*
X3682Y4828D02*
Y4807D01*
X3703D01*
X3701Y4813D01*
X3695Y4820D01*
X3688Y4826D01*
X3682Y4828D01*
D02*
G37*
G36*
X6505Y4302D02*
X6489D01*
Y4269D01*
X6505D01*
Y4302D01*
D02*
G37*
G36*
X6551D02*
X6535D01*
Y4269D01*
X6551D01*
Y4302D01*
D02*
G37*
G36*
X6835Y4303D02*
X6819D01*
Y4270D01*
X6835D01*
Y4303D01*
D02*
G37*
G36*
X6495Y4340D02*
X6467D01*
Y4324D01*
X6495D01*
Y4340D01*
D02*
G37*
G36*
X6553D02*
X6525D01*
Y4324D01*
X6553D01*
Y4340D01*
D02*
G37*
G36*
X6881Y4303D02*
X6865D01*
Y4270D01*
X6881D01*
Y4303D01*
D02*
G37*
G36*
X7220Y4321D02*
X7162D01*
Y4275D01*
X7220D01*
Y4321D01*
D02*
G37*
G36*
X7308D02*
X7250D01*
Y4275D01*
X7308D01*
Y4321D01*
D02*
G37*
G36*
X7220Y4245D02*
X7162D01*
Y4199D01*
X7220D01*
Y4245D01*
D02*
G37*
G36*
X7308D02*
X7250D01*
Y4199D01*
X7308D01*
Y4245D01*
D02*
G37*
G36*
X6881Y4240D02*
X6865D01*
Y4206D01*
X6881D01*
Y4240D01*
D02*
G37*
G36*
X7030Y4375D02*
X7021Y4374D01*
X7012Y4371D01*
X7005Y4365D01*
X6999Y4358D01*
X6996Y4349D01*
X6995Y4340D01*
X6996Y4331D01*
X6999Y4322D01*
X7005Y4315D01*
X7010Y4312D01*
Y4303D01*
X6999D01*
Y4206D01*
X7061D01*
Y4303D01*
X7050D01*
Y4312D01*
X7055Y4315D01*
X7061Y4322D01*
X7064Y4331D01*
X7065Y4340D01*
X7064Y4349D01*
X7061Y4358D01*
X7055Y4365D01*
X7048Y4371D01*
X7039Y4374D01*
X7030Y4375D01*
D02*
G37*
G36*
X6835Y4240D02*
X6819D01*
Y4206D01*
X6835D01*
Y4240D01*
D02*
G37*
G36*
X6505Y4239D02*
X6489D01*
Y4206D01*
X6505D01*
Y4239D01*
D02*
G37*
G36*
X6551D02*
X6535D01*
Y4206D01*
X6551D01*
Y4239D01*
D02*
G37*
G36*
X6710Y4385D02*
X6701Y4384D01*
X6692Y4381D01*
X6685Y4375D01*
X6679Y4368D01*
X6676Y4359D01*
X6675Y4350D01*
X6676Y4341D01*
X6679Y4332D01*
X6685Y4325D01*
X6690Y4322D01*
Y4302D01*
X6669D01*
Y4206D01*
X6731D01*
Y4302D01*
X6730D01*
Y4322D01*
X6735Y4325D01*
X6741Y4332D01*
X6744Y4341D01*
X6745Y4350D01*
X6744Y4359D01*
X6741Y4368D01*
X6735Y4375D01*
X6728Y4381D01*
X6719Y4384D01*
X6710Y4385D01*
D02*
G37*
G36*
X6605Y4340D02*
X6577D01*
Y4324D01*
X6605D01*
Y4340D01*
D02*
G37*
G36*
X6553Y4386D02*
X6525D01*
Y4370D01*
X6553D01*
Y4386D01*
D02*
G37*
G36*
X6605D02*
X6577D01*
Y4370D01*
X6605D01*
Y4386D01*
D02*
G37*
G36*
X6663D02*
X6635D01*
Y4370D01*
X6663D01*
Y4386D01*
D02*
G37*
G36*
X6495D02*
X6467D01*
Y4370D01*
X6495D01*
Y4386D01*
D02*
G37*
G36*
X6663Y4340D02*
X6635D01*
Y4324D01*
X6663D01*
Y4340D01*
D02*
G37*
G36*
X6349Y3641D02*
X6321D01*
Y3630D01*
X6349D01*
Y3641D01*
D02*
G37*
G36*
X6417D02*
X6389D01*
Y3630D01*
X6417D01*
Y3641D01*
D02*
G37*
G36*
X6349Y3590D02*
X6321D01*
Y3579D01*
X6349D01*
Y3590D01*
D02*
G37*
G36*
X6417D02*
X6389D01*
Y3579D01*
X6417D01*
Y3590D01*
D02*
G37*
G36*
X6745Y3765D02*
X6715D01*
Y3735D01*
X6719Y3736D01*
X6728Y3739D01*
X6735Y3745D01*
X6741Y3752D01*
X6744Y3761D01*
X6745Y3765D01*
D02*
G37*
G36*
X6705D02*
X6675D01*
X6676Y3761D01*
X6679Y3752D01*
X6685Y3745D01*
X6692Y3739D01*
X6701Y3736D01*
X6705Y3735D01*
Y3765D01*
D02*
G37*
G36*
X6510Y3370D02*
X6445D01*
Y3137D01*
X6510D01*
Y3370D01*
D02*
G37*
G36*
X6615D02*
X6550D01*
Y3137D01*
X6615D01*
Y3370D01*
D02*
G37*
G36*
X6350Y3200D02*
X6309D01*
Y3147D01*
X6350D01*
Y3200D01*
D02*
G37*
G36*
X6431D02*
X6390D01*
Y3147D01*
X6431D01*
Y3200D01*
D02*
G37*
G36*
X6365Y3530D02*
X6356Y3529D01*
X6347Y3526D01*
X6340Y3520D01*
X6334Y3513D01*
X6331Y3504D01*
X6330Y3495D01*
X6331Y3486D01*
X6334Y3477D01*
X6340Y3470D01*
X6345Y3467D01*
Y3461D01*
X6321D01*
Y3399D01*
X6417D01*
Y3461D01*
X6385D01*
Y3467D01*
X6390Y3470D01*
X6396Y3477D01*
X6399Y3486D01*
X6400Y3495D01*
X6399Y3504D01*
X6396Y3513D01*
X6390Y3520D01*
X6383Y3526D01*
X6374Y3529D01*
X6365Y3530D01*
D02*
G37*
G36*
X6510Y3643D02*
X6445D01*
Y3410D01*
X6510D01*
Y3643D01*
D02*
G37*
G36*
X6615D02*
X6550D01*
Y3410D01*
X6615D01*
Y3643D01*
D02*
G37*
G36*
X6350Y3293D02*
X6309D01*
Y3240D01*
X6350D01*
Y3293D01*
D02*
G37*
G36*
X6431D02*
X6390D01*
Y3240D01*
X6431D01*
Y3293D01*
D02*
G37*
G36*
X6715Y3805D02*
Y3775D01*
X6745D01*
X6744Y3779D01*
X6741Y3788D01*
X6735Y3795D01*
X6728Y3801D01*
X6719Y3804D01*
X6715Y3805D01*
D02*
G37*
G36*
X6705D02*
X6701Y3804D01*
X6692Y3801D01*
X6685Y3795D01*
X6679Y3788D01*
X6676Y3779D01*
X6675Y3775D01*
X6705D01*
Y3805D01*
D02*
G37*
G36*
X6590Y3954D02*
X6490D01*
Y3825D01*
X6590D01*
Y3954D01*
D02*
G37*
G36*
X6730D02*
X6630D01*
Y3825D01*
X6730D01*
Y3954D01*
D02*
G37*
G36*
X6590Y4124D02*
X6490D01*
Y3994D01*
X6590D01*
Y4124D01*
D02*
G37*
G36*
X6730D02*
X6630D01*
Y3994D01*
X6730D01*
Y4124D01*
D02*
G37*
G36*
X4068Y3738D02*
X4062Y3736D01*
X4055Y3730D01*
X4049Y3723D01*
X4047Y3717D01*
X4068D01*
Y3738D01*
D02*
G37*
G36*
X4093D02*
Y3717D01*
X4113D01*
X4111Y3723D01*
X4105Y3730D01*
X4098Y3736D01*
X4093Y3738D01*
D02*
G37*
G36*
X4068Y3693D02*
X4047D01*
X4049Y3687D01*
X4055Y3680D01*
X4062Y3674D01*
X4068Y3672D01*
Y3693D01*
D02*
G37*
G36*
X4113D02*
X4093D01*
Y3672D01*
X4098Y3674D01*
X4105Y3680D01*
X4111Y3687D01*
X4113Y3693D01*
D02*
G37*
G36*
X3970Y4312D02*
Y4295D01*
X3987D01*
X3986Y4298D01*
X3980Y4305D01*
X3973Y4311D01*
X3970Y4312D01*
D02*
G37*
G36*
X3940D02*
X3937Y4311D01*
X3930Y4305D01*
X3924Y4298D01*
X3923Y4295D01*
X3940D01*
Y4312D01*
D02*
G37*
G36*
X3987Y4265D02*
X3970D01*
Y4248D01*
X3973Y4249D01*
X3980Y4255D01*
X3986Y4262D01*
X3987Y4265D01*
D02*
G37*
G36*
X3940D02*
X3923D01*
X3924Y4262D01*
X3930Y4255D01*
X3937Y4249D01*
X3940Y4248D01*
Y4265D01*
D02*
G37*
G36*
X3747Y3368D02*
X3742Y3366D01*
X3735Y3360D01*
X3729Y3353D01*
X3727Y3348D01*
X3747D01*
Y3368D01*
D02*
G37*
G36*
X3773D02*
Y3348D01*
X3793D01*
X3791Y3353D01*
X3785Y3360D01*
X3778Y3366D01*
X3773Y3368D01*
D02*
G37*
G36*
X3747Y3322D02*
X3727D01*
X3729Y3317D01*
X3735Y3310D01*
X3742Y3304D01*
X3747Y3302D01*
Y3322D01*
D02*
G37*
G36*
X3793D02*
X3773D01*
Y3302D01*
X3778Y3304D01*
X3785Y3310D01*
X3791Y3317D01*
X3793Y3322D01*
D02*
G37*
G36*
X3939Y3892D02*
X3919D01*
X3921Y3887D01*
X3927Y3880D01*
X3934Y3874D01*
X3939Y3872D01*
Y3892D01*
D02*
G37*
G36*
Y3938D02*
X3934Y3936D01*
X3927Y3930D01*
X3921Y3923D01*
X3919Y3918D01*
X3939D01*
Y3938D01*
D02*
G37*
G36*
X3964D02*
Y3918D01*
X3985D01*
X3982Y3923D01*
X3977Y3930D01*
X3970Y3936D01*
X3964Y3938D01*
D02*
G37*
G36*
X3985Y3892D02*
X3964D01*
Y3872D01*
X3970Y3874D01*
X3977Y3880D01*
X3982Y3887D01*
X3985Y3892D01*
D02*
G37*
G36*
X3880Y3192D02*
X3877Y3191D01*
X3870Y3185D01*
X3864Y3178D01*
X3863Y3175D01*
X3880D01*
Y3192D01*
D02*
G37*
G36*
X3910D02*
Y3175D01*
X3927D01*
X3926Y3178D01*
X3920Y3185D01*
X3913Y3191D01*
X3910Y3192D01*
D02*
G37*
G36*
X3927Y3145D02*
X3910D01*
Y3128D01*
X3913Y3129D01*
X3920Y3135D01*
X3926Y3142D01*
X3927Y3145D01*
D02*
G37*
G36*
X3880D02*
X3863D01*
X3864Y3142D01*
X3870Y3135D01*
X3877Y3129D01*
X3880Y3128D01*
Y3145D01*
D02*
G37*
G36*
X5033Y4260D02*
X5010D01*
Y4249D01*
X5033D01*
Y4260D01*
D02*
G37*
G36*
X4870D02*
X4847D01*
Y4249D01*
X4870D01*
Y4260D01*
D02*
G37*
G36*
X4933D02*
X4910D01*
Y4249D01*
X4933D01*
Y4260D01*
D02*
G37*
G36*
X4970D02*
X4947D01*
Y4249D01*
X4970D01*
Y4260D01*
D02*
G37*
G36*
X5033Y4209D02*
X5010D01*
Y4198D01*
X5033D01*
Y4209D01*
D02*
G37*
G36*
X4970D02*
X4947D01*
Y4198D01*
X4970D01*
Y4209D01*
D02*
G37*
G36*
X4870D02*
X4847D01*
Y4198D01*
X4870D01*
Y4209D01*
D02*
G37*
G36*
X4933D02*
X4910D01*
Y4198D01*
X4933D01*
Y4209D01*
D02*
G37*
G36*
X5085Y4240D02*
X5076Y4239D01*
X5067Y4236D01*
X5060Y4230D01*
X5054Y4223D01*
X5051Y4214D01*
X5050Y4205D01*
X5051Y4196D01*
X5054Y4187D01*
X5060Y4180D01*
X5065Y4177D01*
Y4153D01*
X5054D01*
Y4056D01*
X5116D01*
Y4153D01*
X5105D01*
Y4177D01*
X5110Y4180D01*
X5116Y4187D01*
X5119Y4196D01*
X5120Y4205D01*
X5119Y4214D01*
X5116Y4223D01*
X5110Y4230D01*
X5103Y4236D01*
X5094Y4239D01*
X5085Y4240D01*
D02*
G37*
G36*
X5200Y4085D02*
X5189D01*
Y4056D01*
X5200D01*
Y4085D01*
D02*
G37*
G36*
X5251D02*
X5240D01*
Y4056D01*
X5251D01*
Y4085D01*
D02*
G37*
G36*
X4936D02*
X4925D01*
Y4056D01*
X4936D01*
Y4085D01*
D02*
G37*
G36*
X4885D02*
X4874D01*
Y4056D01*
X4885D01*
Y4085D01*
D02*
G37*
G36*
X4936Y4153D02*
X4925D01*
Y4125D01*
X4936D01*
Y4153D01*
D02*
G37*
G36*
X5200D02*
X5189D01*
Y4125D01*
X5200D01*
Y4153D01*
D02*
G37*
G36*
X5251D02*
X5240D01*
Y4125D01*
X5251D01*
Y4153D01*
D02*
G37*
G36*
X4885D02*
X4874D01*
Y4125D01*
X4885D01*
Y4153D01*
D02*
G37*
G36*
X5400Y4245D02*
X5391Y4244D01*
X5382Y4241D01*
X5375Y4235D01*
X5369Y4228D01*
X5366Y4219D01*
X5365Y4210D01*
X5366Y4201D01*
X5369Y4192D01*
X5375Y4185D01*
X5380Y4182D01*
Y4153D01*
X5369D01*
Y4056D01*
X5431D01*
Y4153D01*
X5420D01*
Y4182D01*
X5425Y4185D01*
X5431Y4192D01*
X5434Y4201D01*
X5435Y4210D01*
X5434Y4219D01*
X5431Y4228D01*
X5425Y4235D01*
X5418Y4241D01*
X5409Y4244D01*
X5400Y4245D01*
D02*
G37*
G36*
X5600Y4165D02*
X5547D01*
Y4123D01*
X5600D01*
Y4165D01*
D02*
G37*
G36*
X5693D02*
X5640D01*
Y4123D01*
X5693D01*
Y4165D01*
D02*
G37*
G36*
X5600Y4083D02*
X5547D01*
Y4042D01*
X5600D01*
Y4083D01*
D02*
G37*
G36*
X5693D02*
X5640D01*
Y4042D01*
X5693D01*
Y4083D01*
D02*
G37*
G36*
X3493Y2902D02*
X3473D01*
Y2882D01*
X3478Y2884D01*
X3485Y2890D01*
X3491Y2897D01*
X3493Y2902D01*
D02*
G37*
G36*
X3348Y2948D02*
X3342Y2946D01*
X3335Y2940D01*
X3329Y2933D01*
X3327Y2928D01*
X3348D01*
Y2948D01*
D02*
G37*
G36*
X3372D02*
Y2928D01*
X3393D01*
X3391Y2933D01*
X3385Y2940D01*
X3378Y2946D01*
X3372Y2948D01*
D02*
G37*
G36*
X3348Y2902D02*
X3327D01*
X3329Y2897D01*
X3335Y2890D01*
X3342Y2884D01*
X3348Y2882D01*
Y2902D01*
D02*
G37*
G36*
X3393D02*
X3372D01*
Y2882D01*
X3378Y2884D01*
X3385Y2890D01*
X3391Y2897D01*
X3393Y2902D01*
D02*
G37*
G36*
X3447D02*
X3427D01*
X3429Y2897D01*
X3435Y2890D01*
X3442Y2884D01*
X3447Y2882D01*
Y2902D01*
D02*
G37*
G36*
Y2948D02*
X3442Y2946D01*
X3435Y2940D01*
X3429Y2933D01*
X3427Y2928D01*
X3447D01*
Y2948D01*
D02*
G37*
G36*
X3473D02*
Y2928D01*
X3493D01*
X3491Y2933D01*
X3485Y2940D01*
X3478Y2946D01*
X3473Y2948D01*
D02*
G37*
G36*
X4639Y3595D02*
X4504D01*
Y3490D01*
X4639D01*
Y3595D01*
D02*
G37*
G36*
X4394Y3670D02*
X4377D01*
Y3642D01*
X4394D01*
Y3670D01*
D02*
G37*
G36*
X4440D02*
X4424D01*
Y3642D01*
X4440D01*
Y3670D01*
D02*
G37*
G36*
X4394Y3728D02*
X4377D01*
Y3700D01*
X4394D01*
Y3728D01*
D02*
G37*
G36*
X4440D02*
X4424D01*
Y3700D01*
X4440D01*
Y3728D01*
D02*
G37*
G36*
X4547D02*
X4483D01*
Y3642D01*
X4547D01*
Y3665D01*
X4557D01*
X4560Y3660D01*
X4567Y3654D01*
X4576Y3651D01*
X4585Y3650D01*
X4594Y3651D01*
X4603Y3654D01*
X4610Y3660D01*
X4616Y3667D01*
X4619Y3676D01*
X4620Y3685D01*
X4619Y3694D01*
X4616Y3703D01*
X4610Y3710D01*
X4603Y3716D01*
X4594Y3719D01*
X4585Y3720D01*
X4576Y3719D01*
X4567Y3716D01*
X4560Y3710D01*
X4557Y3705D01*
X4547D01*
Y3728D01*
D02*
G37*
G36*
X4495Y3238D02*
X4449D01*
Y3180D01*
X4495D01*
Y3238D01*
D02*
G37*
G36*
X4571D02*
X4525D01*
Y3180D01*
X4571D01*
Y3238D01*
D02*
G37*
G36*
X4495Y3150D02*
X4449D01*
Y3092D01*
X4495D01*
Y3150D01*
D02*
G37*
G36*
X4571D02*
X4525D01*
Y3092D01*
X4571D01*
Y3150D01*
D02*
G37*
G36*
X4474Y3460D02*
X4340D01*
Y3355D01*
X4474D01*
Y3460D01*
D02*
G37*
G36*
X4639D02*
X4504D01*
Y3355D01*
X4639D01*
Y3460D01*
D02*
G37*
G36*
X4474Y3595D02*
X4340D01*
Y3490D01*
X4474D01*
Y3595D01*
D02*
G37*
G36*
X4455Y4375D02*
X4438D01*
X4439Y4372D01*
X4445Y4365D01*
X4452Y4359D01*
X4455Y4358D01*
Y4375D01*
D02*
G37*
G36*
X4502D02*
X4485D01*
Y4358D01*
X4488Y4359D01*
X4495Y4365D01*
X4501Y4372D01*
X4502Y4375D01*
D02*
G37*
G36*
X4485Y4422D02*
Y4405D01*
X4502D01*
X4501Y4408D01*
X4495Y4415D01*
X4488Y4421D01*
X4485Y4422D01*
D02*
G37*
G36*
X4455D02*
X4452Y4421D01*
X4445Y4415D01*
X4439Y4408D01*
X4438Y4405D01*
X4455D01*
Y4422D01*
D02*
G37*
G36*
X4580Y4415D02*
X4571Y4414D01*
X4562Y4411D01*
X4555Y4405D01*
X4549Y4398D01*
X4546Y4389D01*
X4545Y4380D01*
X4546Y4371D01*
X4549Y4362D01*
X4555Y4355D01*
X4560Y4352D01*
Y4323D01*
X4524D01*
Y4127D01*
X4636D01*
Y4323D01*
X4600D01*
Y4352D01*
X4605Y4355D01*
X4611Y4362D01*
X4614Y4371D01*
X4615Y4380D01*
X4614Y4389D01*
X4611Y4398D01*
X4605Y4405D01*
X4598Y4411D01*
X4589Y4414D01*
X4580Y4415D01*
D02*
G37*
G36*
X4565Y3976D02*
X4524D01*
Y3894D01*
X4565D01*
Y3976D01*
D02*
G37*
G36*
X4636D02*
X4595D01*
Y3894D01*
X4636D01*
Y3976D01*
D02*
G37*
G36*
X4565Y3864D02*
X4524D01*
Y3781D01*
X4565D01*
Y3864D01*
D02*
G37*
G36*
X4636D02*
X4595D01*
Y3781D01*
X4636D01*
Y3864D01*
D02*
G37*
G36*
X4122Y4812D02*
X4102D01*
X4104Y4807D01*
X4110Y4800D01*
X4117Y4794D01*
X4122Y4792D01*
Y4812D01*
D02*
G37*
G36*
X4168D02*
X4148D01*
Y4792D01*
X4153Y4794D01*
X4160Y4800D01*
X4166Y4807D01*
X4168Y4812D01*
D02*
G37*
G36*
X4122Y4858D02*
X4117Y4856D01*
X4110Y4850D01*
X4104Y4843D01*
X4102Y4838D01*
X4122D01*
Y4858D01*
D02*
G37*
G36*
X4148D02*
Y4838D01*
X4168D01*
X4166Y4843D01*
X4160Y4850D01*
X4153Y4856D01*
X4148Y4858D01*
D02*
G37*
G36*
X4040Y5012D02*
X4019D01*
Y4992D01*
X4025Y4994D01*
X4032Y5000D01*
X4037Y5007D01*
X4040Y5012D01*
D02*
G37*
G36*
X3994Y5058D02*
X3989Y5056D01*
X3982Y5050D01*
X3976Y5043D01*
X3974Y5037D01*
X3994D01*
Y5058D01*
D02*
G37*
G36*
X4019D02*
Y5037D01*
X4040D01*
X4037Y5043D01*
X4032Y5050D01*
X4025Y5056D01*
X4019Y5058D01*
D02*
G37*
G36*
X3994Y5012D02*
X3974D01*
X3976Y5007D01*
X3982Y5000D01*
X3989Y4994D01*
X3994Y4992D01*
Y5012D01*
D02*
G37*
G36*
X3628Y3708D02*
Y3688D01*
X3648D01*
X3646Y3693D01*
X3640Y3700D01*
X3633Y3706D01*
X3628Y3708D01*
D02*
G37*
G36*
X3602Y3662D02*
X3582D01*
X3584Y3657D01*
X3590Y3650D01*
X3597Y3644D01*
X3602Y3642D01*
Y3662D01*
D02*
G37*
G36*
X3648D02*
X3628D01*
Y3642D01*
X3633Y3644D01*
X3640Y3650D01*
X3646Y3657D01*
X3648Y3662D01*
D02*
G37*
G36*
X3602Y3708D02*
X3597Y3706D01*
X3590Y3700D01*
X3584Y3693D01*
X3582Y3688D01*
X3602D01*
Y3708D01*
D02*
G37*
G36*
X3503Y4068D02*
X3497Y4066D01*
X3490Y4060D01*
X3484Y4053D01*
X3482Y4048D01*
X3503D01*
Y4068D01*
D02*
G37*
G36*
X3527D02*
Y4048D01*
X3548D01*
X3546Y4053D01*
X3540Y4060D01*
X3533Y4066D01*
X3527Y4068D01*
D02*
G37*
G36*
X3428D02*
Y4048D01*
X3448D01*
X3446Y4053D01*
X3440Y4060D01*
X3433Y4066D01*
X3428Y4068D01*
D02*
G37*
G36*
X3402D02*
X3397Y4066D01*
X3390Y4060D01*
X3384Y4053D01*
X3382Y4048D01*
X3402D01*
Y4068D01*
D02*
G37*
G36*
X3548Y4023D02*
X3527D01*
Y4002D01*
X3533Y4004D01*
X3540Y4010D01*
X3546Y4017D01*
X3548Y4023D01*
D02*
G37*
G36*
X3402D02*
X3382D01*
X3384Y4017D01*
X3390Y4010D01*
X3397Y4004D01*
X3402Y4002D01*
Y4023D01*
D02*
G37*
G36*
X3448D02*
X3428D01*
Y4002D01*
X3433Y4004D01*
X3440Y4010D01*
X3446Y4017D01*
X3448Y4023D01*
D02*
G37*
G36*
X3503D02*
X3482D01*
X3484Y4017D01*
X3490Y4010D01*
X3497Y4004D01*
X3503Y4002D01*
Y4023D01*
D02*
G37*
G36*
X4817Y3550D02*
X4784D01*
Y3534D01*
X4817D01*
Y3550D01*
D02*
G37*
G36*
X4754Y3596D02*
X4721D01*
Y3580D01*
X4754D01*
Y3596D01*
D02*
G37*
G36*
X5085Y3615D02*
X5068D01*
X5069Y3612D01*
X5075Y3605D01*
X5082Y3599D01*
X5085Y3598D01*
Y3615D01*
D02*
G37*
G36*
X5132D02*
X5115D01*
Y3598D01*
X5118Y3599D01*
X5125Y3605D01*
X5131Y3612D01*
X5132Y3615D01*
D02*
G37*
G36*
X4817Y3596D02*
X4784D01*
Y3580D01*
X4817D01*
Y3596D01*
D02*
G37*
G36*
X4754Y3550D02*
X4721D01*
Y3534D01*
X4754D01*
Y3550D01*
D02*
G37*
G36*
X5115Y3662D02*
Y3645D01*
X5132D01*
X5131Y3648D01*
X5125Y3655D01*
X5118Y3661D01*
X5115Y3662D01*
D02*
G37*
G36*
X5085D02*
X5082Y3661D01*
X5075Y3655D01*
X5069Y3648D01*
X5068Y3645D01*
X5085D01*
Y3662D01*
D02*
G37*
G36*
X5115Y3810D02*
X5010D01*
Y3675D01*
X5115D01*
Y3810D01*
D02*
G37*
G36*
X4980D02*
X4875D01*
Y3675D01*
X4980D01*
Y3810D01*
D02*
G37*
G36*
X4778Y3238D02*
X4732D01*
Y3180D01*
X4778D01*
Y3238D01*
D02*
G37*
G36*
Y3150D02*
X4732D01*
Y3092D01*
X4778D01*
Y3150D01*
D02*
G37*
G36*
X4855D02*
X4808D01*
Y3092D01*
X4855D01*
Y3150D01*
D02*
G37*
G36*
Y3238D02*
X4808D01*
Y3180D01*
X4855D01*
Y3238D01*
D02*
G37*
G36*
X4946Y3447D02*
X4878D01*
Y3350D01*
X4946D01*
Y3447D01*
D02*
G37*
G36*
X5044D02*
X4976D01*
Y3350D01*
X5044D01*
Y3447D01*
D02*
G37*
G36*
X4770Y3485D02*
X4761Y3484D01*
X4752Y3481D01*
X4745Y3475D01*
X4739Y3468D01*
X4736Y3459D01*
X4735Y3450D01*
X4736Y3441D01*
X4739Y3432D01*
X4745Y3425D01*
X4751Y3421D01*
X4749Y3416D01*
X4721D01*
Y3354D01*
X4817D01*
Y3416D01*
X4791D01*
X4789Y3421D01*
X4795Y3425D01*
X4801Y3432D01*
X4804Y3441D01*
X4805Y3450D01*
X4804Y3459D01*
X4801Y3468D01*
X4795Y3475D01*
X4788Y3481D01*
X4779Y3484D01*
X4770Y3485D01*
D02*
G37*
G36*
X4946Y3320D02*
X4878D01*
Y3223D01*
X4946D01*
Y3320D01*
D02*
G37*
G36*
X5044D02*
X4976D01*
Y3223D01*
X5044D01*
Y3320D01*
D02*
G37*
G36*
X5115Y3975D02*
X5010D01*
Y3840D01*
X5115D01*
Y3975D01*
D02*
G37*
G36*
X4980D02*
X4875D01*
Y3840D01*
X4980D01*
Y3975D01*
D02*
G37*
G36*
X5595Y3555D02*
X5579D01*
Y3521D01*
X5595D01*
Y3555D01*
D02*
G37*
G36*
X5257Y3615D02*
X5240D01*
Y3598D01*
X5243Y3599D01*
X5250Y3605D01*
X5256Y3612D01*
X5257Y3615D01*
D02*
G37*
G36*
X5210D02*
X5193D01*
X5194Y3612D01*
X5200Y3605D01*
X5207Y3599D01*
X5210Y3598D01*
Y3615D01*
D02*
G37*
G36*
X5641Y3555D02*
X5625D01*
Y3521D01*
X5641D01*
Y3555D01*
D02*
G37*
G36*
Y3618D02*
X5625D01*
Y3585D01*
X5641D01*
Y3618D01*
D02*
G37*
G36*
X5595D02*
X5579D01*
Y3585D01*
X5595D01*
Y3618D01*
D02*
G37*
G36*
X5210Y3662D02*
X5207Y3661D01*
X5200Y3655D01*
X5194Y3648D01*
X5193Y3645D01*
X5210D01*
Y3662D01*
D02*
G37*
G36*
X5240D02*
Y3645D01*
X5257D01*
X5256Y3648D01*
X5250Y3655D01*
X5243Y3661D01*
X5240Y3662D01*
D02*
G37*
G36*
X5295Y3810D02*
X5190D01*
Y3675D01*
X5295D01*
Y3810D01*
D02*
G37*
G36*
X5430D02*
X5325D01*
Y3675D01*
X5430D01*
Y3810D01*
D02*
G37*
G36*
X5442Y3447D02*
X5374D01*
Y3350D01*
X5442D01*
Y3447D01*
D02*
G37*
G36*
Y3320D02*
X5374D01*
Y3223D01*
X5442D01*
Y3320D01*
D02*
G37*
G36*
X5344D02*
X5276D01*
Y3223D01*
X5344D01*
Y3320D01*
D02*
G37*
G36*
Y3447D02*
X5276D01*
Y3350D01*
X5344D01*
Y3447D01*
D02*
G37*
G36*
X5295Y3975D02*
X5190D01*
Y3840D01*
X5295D01*
Y3975D01*
D02*
G37*
G36*
X5430D02*
X5325D01*
Y3840D01*
X5430D01*
Y3975D01*
D02*
G37*
G36*
X5605Y3881D02*
X5547D01*
Y3835D01*
X5605D01*
Y3881D01*
D02*
G37*
G36*
X5693D02*
X5635D01*
Y3835D01*
X5693D01*
Y3881D01*
D02*
G37*
G36*
X5605Y3805D02*
X5547D01*
Y3759D01*
X5605D01*
Y3805D01*
D02*
G37*
G36*
X5693D02*
X5635D01*
Y3759D01*
X5693D01*
Y3805D01*
D02*
G37*
%LPD*%
D10*
X7010Y4449D02*
D03*
Y4578D02*
D03*
X5145Y4411D02*
D03*
Y4539D02*
D03*
D11*
X3706Y3604D02*
D03*
Y3584D02*
D03*
Y3564D02*
D03*
Y3545D02*
D03*
Y3505D02*
D03*
Y3466D02*
D03*
Y3446D02*
D03*
Y3426D02*
D03*
X3894Y3446D02*
D03*
Y3466D02*
D03*
Y3505D02*
D03*
Y3525D02*
D03*
Y3545D02*
D03*
Y3584D02*
D03*
Y3604D02*
D03*
X3761Y4724D02*
D03*
Y4704D02*
D03*
Y4684D02*
D03*
Y4665D02*
D03*
Y4625D02*
D03*
Y4586D02*
D03*
Y4566D02*
D03*
Y4546D02*
D03*
X3949Y4566D02*
D03*
Y4586D02*
D03*
Y4625D02*
D03*
Y4645D02*
D03*
Y4665D02*
D03*
Y4704D02*
D03*
Y4724D02*
D03*
D12*
X3751Y3401D02*
D03*
X3770D02*
D03*
X3790D02*
D03*
X3810D02*
D03*
X3830D02*
D03*
X3849D02*
D03*
Y3629D02*
D03*
X3830D02*
D03*
X3810D02*
D03*
X3790D02*
D03*
X3770D02*
D03*
X3751D02*
D03*
X3731D02*
D03*
X3806Y4521D02*
D03*
X3825D02*
D03*
X3845D02*
D03*
X3865D02*
D03*
X3885D02*
D03*
X3904D02*
D03*
Y4749D02*
D03*
X3885D02*
D03*
X3865D02*
D03*
X3845D02*
D03*
X3825D02*
D03*
X3806D02*
D03*
X3786D02*
D03*
D13*
X3800Y3557D02*
D03*
X3855Y4677D02*
D03*
D14*
X3800Y3466D02*
D03*
X3855Y4586D02*
D03*
D15*
X10155Y3235D02*
D03*
D16*
X10205D02*
D03*
X10255D02*
D03*
X10305D02*
D03*
X10355D02*
D03*
X10155Y3435D02*
D03*
X10205D02*
D03*
X10255D02*
D03*
X10305D02*
D03*
X10355D02*
D03*
D17*
X10196Y4105D02*
D03*
X10124D02*
D03*
D18*
X8974Y3815D02*
D03*
X9090D02*
D03*
D19*
X6185Y4268D02*
D03*
Y3922D02*
D03*
X4580Y4225D02*
D03*
Y3879D02*
D03*
D20*
X6530Y3390D02*
D03*
X7170D02*
D03*
D21*
X6369Y3430D02*
D03*
Y3610D02*
D03*
X4769Y3385D02*
D03*
Y3565D02*
D03*
D22*
X6089Y3520D02*
D03*
X4489Y3475D02*
D03*
D23*
X6700Y4254D02*
D03*
X6520D02*
D03*
X7030Y4255D02*
D03*
X6850D02*
D03*
X7515Y3679D02*
D03*
X7335D02*
D03*
X5085Y4105D02*
D03*
X4905D02*
D03*
X5400D02*
D03*
X5220D02*
D03*
X5790Y3570D02*
D03*
X5610D02*
D03*
D24*
X6610Y3974D02*
D03*
X6940Y3975D02*
D03*
X7425Y3399D02*
D03*
X4995Y3825D02*
D03*
X5310D02*
D03*
X5700Y3290D02*
D03*
D25*
X10397Y4994D02*
D03*
X10435Y4900D02*
D03*
X10360D02*
D03*
X10545Y4995D02*
D03*
X10582Y4901D02*
D03*
X10508D02*
D03*
X10697Y4999D02*
D03*
X10735Y4905D02*
D03*
X10660D02*
D03*
D26*
X9920Y3794D02*
D03*
Y3813D02*
D03*
Y3833D02*
D03*
Y3853D02*
D03*
Y3873D02*
D03*
Y3892D02*
D03*
Y3912D02*
D03*
Y3932D02*
D03*
Y3951D02*
D03*
Y3971D02*
D03*
Y3991D02*
D03*
Y4010D02*
D03*
Y4030D02*
D03*
Y4050D02*
D03*
Y4069D02*
D03*
Y4089D02*
D03*
Y4109D02*
D03*
Y4128D02*
D03*
Y4148D02*
D03*
Y4168D02*
D03*
Y4187D02*
D03*
Y4207D02*
D03*
Y4227D02*
D03*
Y4247D02*
D03*
Y4266D02*
D03*
X9320D02*
D03*
Y4247D02*
D03*
Y4227D02*
D03*
Y4207D02*
D03*
Y4187D02*
D03*
Y4168D02*
D03*
Y4148D02*
D03*
Y4128D02*
D03*
Y4109D02*
D03*
Y4089D02*
D03*
Y4069D02*
D03*
Y4050D02*
D03*
Y4030D02*
D03*
Y4010D02*
D03*
Y3991D02*
D03*
Y3971D02*
D03*
Y3951D02*
D03*
Y3932D02*
D03*
Y3912D02*
D03*
Y3892D02*
D03*
Y3873D02*
D03*
Y3853D02*
D03*
Y3833D02*
D03*
Y3813D02*
D03*
Y3794D02*
D03*
D27*
X9856Y4330D02*
D03*
X9837D02*
D03*
X9817D02*
D03*
X9797D02*
D03*
X9777D02*
D03*
X9758D02*
D03*
X9738D02*
D03*
X9718D02*
D03*
X9699D02*
D03*
X9679D02*
D03*
X9659D02*
D03*
X9640D02*
D03*
X9620D02*
D03*
X9600D02*
D03*
X9581D02*
D03*
X9561D02*
D03*
X9541D02*
D03*
X9522D02*
D03*
X9502D02*
D03*
X9482D02*
D03*
X9463D02*
D03*
X9443D02*
D03*
X9423D02*
D03*
X9403D02*
D03*
X9384D02*
D03*
Y3730D02*
D03*
X9403D02*
D03*
X9423D02*
D03*
X9443D02*
D03*
X9463D02*
D03*
X9482D02*
D03*
X9502D02*
D03*
X9522D02*
D03*
X9541D02*
D03*
X9561D02*
D03*
X9581D02*
D03*
X9600D02*
D03*
X9620D02*
D03*
X9640D02*
D03*
X9659D02*
D03*
X9679D02*
D03*
X9699D02*
D03*
X9718D02*
D03*
X9738D02*
D03*
X9758D02*
D03*
X9777D02*
D03*
X9797D02*
D03*
X9817D02*
D03*
X9837D02*
D03*
X9856D02*
D03*
D28*
X11061Y4071D02*
D03*
Y3819D02*
D03*
D29*
Y3906D02*
D03*
Y3984D02*
D03*
D30*
X10955Y3894D02*
D03*
Y3919D02*
D03*
Y3945D02*
D03*
Y3971D02*
D03*
Y3996D02*
D03*
D31*
X7044Y4667D02*
D03*
Y4693D02*
D03*
Y4719D02*
D03*
Y4744D02*
D03*
Y4770D02*
D03*
Y4795D02*
D03*
Y4821D02*
D03*
Y4847D02*
D03*
Y4872D02*
D03*
Y4898D02*
D03*
Y4923D02*
D03*
Y4949D02*
D03*
X6776Y4667D02*
D03*
Y4693D02*
D03*
Y4719D02*
D03*
Y4744D02*
D03*
Y4770D02*
D03*
Y4795D02*
D03*
Y4821D02*
D03*
Y4847D02*
D03*
Y4872D02*
D03*
Y4898D02*
D03*
Y4923D02*
D03*
Y4949D02*
D03*
X5155Y4626D02*
D03*
Y4651D02*
D03*
Y4677D02*
D03*
Y4703D02*
D03*
Y4728D02*
D03*
Y4754D02*
D03*
Y4779D02*
D03*
Y4805D02*
D03*
Y4831D02*
D03*
Y4856D02*
D03*
Y4882D02*
D03*
Y4907D02*
D03*
X4887Y4626D02*
D03*
Y4651D02*
D03*
Y4677D02*
D03*
Y4703D02*
D03*
Y4728D02*
D03*
Y4754D02*
D03*
Y4779D02*
D03*
Y4805D02*
D03*
Y4831D02*
D03*
Y4856D02*
D03*
Y4882D02*
D03*
Y4907D02*
D03*
D32*
X3385Y3041D02*
D03*
Y3439D02*
D03*
X3445Y4156D02*
D03*
Y4554D02*
D03*
D33*
X5359Y3335D02*
D03*
X4961D02*
D03*
D34*
X4060Y3410D02*
D03*
Y3190D02*
D03*
X4110Y4530D02*
D03*
Y4310D02*
D03*
D35*
X6087Y3220D02*
D03*
X6370D02*
D03*
X4510Y3165D02*
D03*
X4793D02*
D03*
D36*
X7235Y3977D02*
D03*
Y4260D02*
D03*
X5620Y3820D02*
D03*
Y4103D02*
D03*
D37*
X10555Y4040D02*
D03*
D38*
X10530D02*
D03*
X10505D02*
D03*
X10480D02*
D03*
X10455D02*
D03*
X10430D02*
D03*
X10405D02*
D03*
X10380D02*
D03*
X10555Y3835D02*
D03*
X10530D02*
D03*
X10505D02*
D03*
X10480D02*
D03*
X10455D02*
D03*
X10430D02*
D03*
X10405D02*
D03*
X10380D02*
D03*
D39*
X4319Y2720D02*
D03*
X4344D02*
D03*
X4370D02*
D03*
X4396D02*
D03*
X4319Y2913D02*
D03*
X4344D02*
D03*
X4370D02*
D03*
X4589Y2727D02*
D03*
X4615D02*
D03*
X4641D02*
D03*
X4666D02*
D03*
X4589Y2920D02*
D03*
X4615D02*
D03*
X4641D02*
D03*
X5899Y2715D02*
D03*
X5924D02*
D03*
X5950D02*
D03*
X5976D02*
D03*
X5899Y2908D02*
D03*
X5924D02*
D03*
X5950D02*
D03*
X5009Y2727D02*
D03*
X5034D02*
D03*
X5060D02*
D03*
X5086D02*
D03*
X5009Y2920D02*
D03*
X5034D02*
D03*
X5060D02*
D03*
D40*
X4396Y2913D02*
D03*
X4666Y2920D02*
D03*
X5976Y2908D02*
D03*
X5086Y2920D02*
D03*
D41*
X7425Y4739D02*
D03*
Y4588D02*
D03*
X5535Y4701D02*
D03*
Y4550D02*
D03*
D42*
X7270Y5013D02*
D03*
X7421D02*
D03*
X5380Y4975D02*
D03*
X5531D02*
D03*
D43*
X6620Y4467D02*
D03*
Y4355D02*
D03*
X6510Y4467D02*
D03*
Y4355D02*
D03*
X4990Y4341D02*
D03*
Y4229D02*
D03*
X4890Y4341D02*
D03*
Y4229D02*
D03*
D44*
X9745Y4600D02*
D03*
Y4817D02*
D03*
X9619Y4600D02*
D03*
Y4817D02*
D03*
D45*
X9585Y3330D02*
D03*
X9959D02*
D03*
D46*
X4088Y3795D02*
D03*
X3982D02*
D03*
X10873Y3555D02*
D03*
X10767D02*
D03*
X9041Y3680D02*
D03*
X8935D02*
D03*
X10117Y4015D02*
D03*
X10223D02*
D03*
X9855Y3180D02*
D03*
X9961D02*
D03*
X9708D02*
D03*
X9602D02*
D03*
X9622Y3485D02*
D03*
X9728D02*
D03*
X9437Y4645D02*
D03*
X9543D02*
D03*
X4987Y5010D02*
D03*
X5093D02*
D03*
X4991Y4535D02*
D03*
X4885D02*
D03*
X4515Y3685D02*
D03*
X4409D02*
D03*
X4056Y4825D02*
D03*
X3950D02*
D03*
X4148Y4920D02*
D03*
X4042D02*
D03*
X3672Y4925D02*
D03*
X3778D02*
D03*
X3998Y3700D02*
D03*
X3892D02*
D03*
X3622Y3810D02*
D03*
X3728D02*
D03*
X4707Y5040D02*
D03*
X4813D02*
D03*
X8676Y3160D02*
D03*
X8570D02*
D03*
X8822D02*
D03*
X8928D02*
D03*
X6856Y4573D02*
D03*
X6750D02*
D03*
X6597Y5078D02*
D03*
X6703D02*
D03*
X6877Y5048D02*
D03*
X6983D02*
D03*
X6133Y3735D02*
D03*
X6027D02*
D03*
X10578Y3725D02*
D03*
X10472D02*
D03*
X10644Y3835D02*
D03*
X10750D02*
D03*
X10644Y4030D02*
D03*
X10750D02*
D03*
D47*
X3865Y3785D02*
D03*
X3925D02*
D03*
X9070Y4200D02*
D03*
X9130D02*
D03*
X9130Y4255D02*
D03*
X9070D02*
D03*
X10795Y4795D02*
D03*
X10855D02*
D03*
X10615Y3555D02*
D03*
X10675D02*
D03*
X9980Y3465D02*
D03*
X9921D02*
D03*
X4885Y5090D02*
D03*
X4945D02*
D03*
X4605Y4955D02*
D03*
X4665D02*
D03*
X4605Y4845D02*
D03*
X4665D02*
D03*
X3920Y4905D02*
D03*
X3980D02*
D03*
X3739Y4855D02*
D03*
X3680D02*
D03*
X3739Y5000D02*
D03*
X3680D02*
D03*
X3945Y5000D02*
D03*
X3885D02*
D03*
X3690Y3735D02*
D03*
X3630D02*
D03*
X3690Y3880D02*
D03*
X3630D02*
D03*
X3885Y3880D02*
D03*
X3826D02*
D03*
X6495Y4993D02*
D03*
X6555D02*
D03*
X6495Y4883D02*
D03*
X6555D02*
D03*
X6775Y5128D02*
D03*
X6835D02*
D03*
X7870Y3815D02*
D03*
X7930D02*
D03*
X10691Y3905D02*
D03*
Y3960D02*
D03*
X10750D02*
D03*
Y3905D02*
D03*
X10795Y4895D02*
D03*
X10855D02*
D03*
D48*
X9510Y4515D02*
D03*
Y4455D02*
D03*
X6360Y4654D02*
D03*
Y4713D02*
D03*
X4740Y2800D02*
D03*
Y2860D02*
D03*
X5020Y4470D02*
D03*
Y4410D02*
D03*
X4625Y4775D02*
D03*
Y4715D02*
D03*
X4010Y4684D02*
D03*
Y4625D02*
D03*
X4075Y4744D02*
D03*
Y4685D02*
D03*
X4010Y3625D02*
D03*
Y3565D02*
D03*
X4474Y2790D02*
D03*
Y2849D02*
D03*
X3955Y3565D02*
D03*
Y3505D02*
D03*
X4470Y4615D02*
D03*
Y4675D02*
D03*
X4470Y4765D02*
D03*
Y4824D02*
D03*
X6885Y4508D02*
D03*
Y4449D02*
D03*
X6545Y4810D02*
D03*
Y4750D02*
D03*
X6360Y4804D02*
D03*
Y4863D02*
D03*
X10805Y3780D02*
D03*
Y3839D02*
D03*
X10090Y5010D02*
D03*
Y4950D02*
D03*
X10190Y5010D02*
D03*
Y4951D02*
D03*
D49*
X10220Y3834D02*
D03*
Y3940D02*
D03*
X10125Y3832D02*
D03*
Y3938D02*
D03*
X9445Y4465D02*
D03*
Y4571D02*
D03*
X9835Y4708D02*
D03*
Y4602D02*
D03*
X4730Y4847D02*
D03*
Y4953D02*
D03*
X4700Y4672D02*
D03*
Y4778D02*
D03*
X4550Y4612D02*
D03*
Y4718D02*
D03*
X3905Y4463D02*
D03*
Y4357D02*
D03*
X3855Y3333D02*
D03*
Y3227D02*
D03*
X5295Y4882D02*
D03*
Y4988D02*
D03*
X5425Y4677D02*
D03*
Y4783D02*
D03*
X5295Y4651D02*
D03*
Y4545D02*
D03*
X5845Y4003D02*
D03*
Y3897D02*
D03*
X7425Y4153D02*
D03*
Y4047D02*
D03*
X7185Y4690D02*
D03*
Y4583D02*
D03*
X6620Y4885D02*
D03*
Y4991D02*
D03*
X7185Y4920D02*
D03*
Y5026D02*
D03*
X7315Y4715D02*
D03*
Y4821D02*
D03*
X6620Y4710D02*
D03*
Y4816D02*
D03*
X6460Y4648D02*
D03*
Y4755D02*
D03*
X10875Y3734D02*
D03*
Y3840D02*
D03*
D50*
X5175Y2727D02*
D03*
Y2833D02*
D03*
X6085Y2712D02*
D03*
Y2818D02*
D03*
D51*
X4400Y2716D02*
X4474Y2790D01*
X8785Y3615D02*
X8790Y3610D01*
X8505Y3615D02*
X8785D01*
X4270Y2870D02*
Y2880D01*
X8790Y3610D02*
X8795Y3615D01*
X4960Y2920D02*
X5009D01*
X4957Y2727D02*
X5009D01*
X5852Y2908D02*
X5899D01*
X5845Y2715D02*
X5899D01*
X5730Y3195D02*
Y3260D01*
X5660Y3185D02*
Y3250D01*
X4515Y3685D02*
X4585D01*
X4580Y4225D02*
Y4380D01*
X5976Y2908D02*
X6065Y2818D01*
X5976Y2715D02*
X6082D01*
X5840Y3830D02*
Y3882D01*
Y4008D02*
Y4065D01*
Y4008D02*
X5845Y4003D01*
X5085Y4105D02*
Y4205D01*
X5400Y4105D02*
Y4210D01*
X4889Y4340D02*
X4890Y4341D01*
X4805Y4340D02*
X4889D01*
X4991D02*
X5075D01*
X4990Y4341D02*
X4991Y4340D01*
X6133Y3735D02*
X6200D01*
X6365Y3434D02*
Y3495D01*
X6710Y4264D02*
Y4350D01*
X7030Y4255D02*
Y4340D01*
X7425Y3975D02*
Y4047D01*
Y4153D02*
Y4230D01*
X7745Y3940D02*
X7870Y3815D01*
X4540Y2920D02*
X4589D01*
X4537Y2727D02*
X4589D01*
X4667D02*
X4740Y2800D01*
X4666Y2920D02*
X4727Y2860D01*
X5086Y2920D02*
X5172Y2833D01*
X5086Y2727D02*
X5175D01*
X7930Y3815D02*
Y3825D01*
X8015Y3910D01*
Y3931D01*
X5650Y3175D02*
X5660Y3185D01*
X5650Y3095D02*
Y3175D01*
X5730Y3195D02*
X5740Y3185D01*
Y3090D02*
Y3185D01*
X5840Y3882D02*
X5850Y3892D01*
X4270Y2870D02*
X4315Y2915D01*
D52*
X10355Y3365D02*
X10395D01*
X10080Y3500D02*
X10155Y3425D01*
X4625Y4778D02*
X4700D01*
X7045Y4946D02*
X7126Y5026D01*
X5450Y4783D02*
Y4894D01*
X5155Y4779D02*
X5425D01*
X5285Y4549D02*
X5534D01*
X9130Y4200D02*
Y4255D01*
Y4195D02*
Y4200D01*
X6636Y4869D02*
X6777D01*
X10514Y4891D02*
Y4907D01*
X9699Y3596D02*
X9730Y3565D01*
X6717Y4894D02*
X6777D01*
X8015Y3931D02*
X8044Y3961D01*
X6775Y4947D02*
Y5128D01*
X6775Y4846D02*
X6777Y4843D01*
X6360Y4708D02*
Y4758D01*
X9610Y4460D02*
X9633Y4437D01*
X9775Y4600D02*
Y4740D01*
X7340Y4821D02*
Y4932D01*
X7312Y4820D02*
X7315Y4818D01*
X7045D02*
X7048Y4820D01*
X9619Y3729D02*
X9620Y3728D01*
X6728Y4920D02*
X6777D01*
X9580Y3509D02*
X9622Y3467D01*
X8665Y3740D02*
Y3760D01*
X9795Y4425D02*
Y4450D01*
X9758Y4388D02*
X9795Y4425D01*
X9758Y4330D02*
Y4388D01*
X9784Y4390D02*
X9835Y4441D01*
X9854Y4385D02*
X10155D01*
X9838Y4369D02*
X9854Y4385D01*
X9838Y4332D02*
Y4369D01*
X10155Y4385D02*
X10230Y4460D01*
X10075Y4405D02*
X10130Y4460D01*
X9850Y4405D02*
X10075D01*
X9820Y4375D02*
X9850Y4405D01*
X9738Y4330D02*
Y4408D01*
X9720Y4332D02*
Y4445D01*
X9738Y4408D02*
X9741Y4411D01*
X10350Y3580D02*
X10450Y3480D01*
X10360Y3600D02*
X10470Y3490D01*
X10365Y3620D02*
X10490Y3495D01*
X9817Y3680D02*
Y3730D01*
X9777Y3668D02*
Y3730D01*
X9758Y3657D02*
Y3730D01*
X9738Y3647D02*
Y3730D01*
X9640Y3595D02*
Y3730D01*
X9581Y3676D02*
Y3730D01*
X9561Y3681D02*
Y3730D01*
X9440Y3560D02*
X9502Y3622D01*
X9440Y3550D02*
Y3560D01*
X9463Y3658D02*
Y3730D01*
X9340Y3535D02*
X9463Y3658D01*
X9340Y2830D02*
Y3535D01*
X9403Y3683D02*
Y3730D01*
X9190Y3470D02*
X9403Y3683D01*
X9190Y2965D02*
Y3470D01*
X9423Y3673D02*
Y3730D01*
X9260Y3510D02*
X9423Y3673D01*
X9260Y3475D02*
Y3510D01*
X9443Y3668D02*
Y3730D01*
X9290Y3515D02*
X9443Y3668D01*
X9290Y2965D02*
Y3515D01*
X9482Y3647D02*
Y3730D01*
X9405Y3570D02*
X9482Y3647D01*
X9405Y3190D02*
Y3570D01*
X9502Y3622D02*
Y3730D01*
X9530Y3785D02*
X9541Y3774D01*
X9510Y3785D02*
X9530D01*
X9502Y3777D02*
X9510Y3785D01*
X9541Y3730D02*
Y3774D01*
X9502Y3730D02*
Y3777D01*
X8670Y4245D02*
X8675Y4250D01*
X8665Y4240D02*
X8670Y4245D01*
X9280Y4250D02*
X9283Y4247D01*
X9320D01*
X9273Y4227D02*
X9320D01*
X9190Y4310D02*
X9273Y4227D01*
X9155Y4320D02*
Y4815D01*
Y4320D02*
X9268Y4207D01*
X9320D01*
X9285Y4455D02*
X9359Y4381D01*
X9394D02*
X9403Y4372D01*
X9359Y4381D02*
X9394D01*
X9403Y4330D02*
Y4372D01*
X9423Y4330D02*
Y4382D01*
X9406Y4399D02*
X9423Y4382D01*
X9371Y4399D02*
X9406D01*
X9443Y4330D02*
Y4387D01*
X9413Y4417D02*
X9443Y4387D01*
X9388Y4417D02*
X9413D01*
X9427Y4433D02*
X9463Y4397D01*
Y4330D02*
Y4397D01*
X9600Y4330D02*
Y4415D01*
X9605Y4420D01*
X9610Y4460D02*
X9620D01*
X9565Y4275D02*
X9581Y4291D01*
X9535Y4275D02*
X9565D01*
X9522Y4288D02*
X9535Y4275D01*
X9702Y4472D02*
X9715Y4485D01*
X9702Y4365D02*
Y4472D01*
X9666Y4380D02*
Y4491D01*
X9648Y4388D02*
Y4503D01*
X9920Y4128D02*
X10053D01*
X9920Y4148D02*
X10033D01*
X9920Y4168D02*
X10018D01*
X9920Y4187D02*
X10002D01*
X9920Y4207D02*
X9977D01*
X10850Y4410D02*
Y4690D01*
X10760Y4780D02*
X10850Y4690D01*
X10760Y4780D02*
Y4860D01*
X10825Y4420D02*
Y4685D01*
X10660Y4850D02*
X10825Y4685D01*
X10660Y4850D02*
Y4905D01*
X10800Y4425D02*
Y4680D01*
X10650Y4830D02*
X10800Y4680D01*
X10575Y4830D02*
X10650D01*
X10775Y4430D02*
Y4675D01*
X10640Y4810D02*
X10775Y4675D01*
X10450Y4810D02*
X10640D01*
X10855Y4795D02*
X10940D01*
X10795D02*
X10875Y4715D01*
X10678Y2963D02*
Y3455D01*
Y3551D01*
X10873Y3457D02*
Y3555D01*
X6786Y4449D02*
X6885D01*
X6690Y4770D02*
X6776D01*
X10259Y3834D02*
X10275Y3850D01*
Y3885D01*
X8164Y3810D02*
Y3811D01*
X8160Y2700D02*
X8164Y2704D01*
X9140Y3550D02*
X9150D01*
X9581Y4600D02*
X9619D01*
X9345Y4990D02*
Y5065D01*
X9300Y5110D02*
X9345Y5065D01*
X8995Y4925D02*
X9120Y4800D01*
X10875Y4405D02*
Y4715D01*
X4955Y2725D02*
X4957Y2727D01*
X5785Y3575D02*
X5790Y3570D01*
X5785Y3575D02*
Y4195D01*
X4769Y3385D02*
X4770Y3386D01*
Y3450D01*
X4825Y4229D02*
Y4250D01*
X4565Y4510D02*
X4825Y4250D01*
X4470Y4510D02*
X4565D01*
X4425Y4555D02*
X4470Y4510D01*
X4425Y4555D02*
Y4870D01*
X6065Y2818D02*
X6085D01*
X6082Y2715D02*
X6085Y2712D01*
X10615Y3555D02*
Y3615D01*
X9920Y3873D02*
X9977D01*
X9840Y2915D02*
X9890Y2865D01*
X9740Y2915D02*
X9790Y2865D01*
X9540Y2915D02*
X9590Y2865D01*
X10355Y3375D02*
Y3425D01*
X10095Y3285D02*
Y3380D01*
X10010Y3465D02*
X10095Y3380D01*
X9980Y3465D02*
X10010D01*
X9708Y3180D02*
X9780D01*
X9855D01*
X9959Y3330D02*
X9961Y3328D01*
Y3180D02*
Y3328D01*
X9585Y3330D02*
X9602Y3313D01*
Y3180D02*
Y3313D01*
X9140Y2915D02*
X9190Y2865D01*
X9140Y2915D02*
Y3486D01*
X9090Y2965D02*
Y3564D01*
X9320Y3794D01*
X10125Y3938D02*
X10127Y3940D01*
X10220D01*
X10218Y3832D02*
X10220Y3834D01*
X10125Y3832D02*
X10218D01*
X9920Y3991D02*
X9989D01*
X9510Y4515D02*
X9510Y4515D01*
X9437Y4579D02*
X9445Y4571D01*
X9437Y4579D02*
Y4645D01*
X9522Y4288D02*
Y4330D01*
X9581Y4291D02*
Y4330D01*
X4425Y4870D02*
X4510Y4955D01*
X4605D01*
X5700Y3225D02*
X5730Y3195D01*
X5660Y3185D02*
X5700Y3225D01*
X5660Y4320D02*
X5785Y4195D01*
X5845Y4003D02*
X5850Y3998D01*
X5385Y4320D02*
X5660D01*
X5260Y4445D02*
X5385Y4320D01*
X5278Y4645D02*
X5288D01*
X5416Y5090D02*
X5531Y4975D01*
X4945Y5090D02*
X5416D01*
X4885Y4909D02*
X4887Y4907D01*
X4885Y4909D02*
Y5090D01*
X6360Y4654D02*
X6365Y4649D01*
Y4598D02*
Y4649D01*
X6360Y4708D02*
X6360Y4708D01*
X6360Y4758D02*
X6360Y4758D01*
Y4804D01*
X7100Y4923D02*
X7120Y4943D01*
X7044Y4923D02*
X7100D01*
X3885Y4750D02*
Y5000D01*
X3885Y4749D02*
X3885Y4750D01*
X3904Y4749D02*
Y4889D01*
X3920Y4905D01*
X3950Y4724D02*
Y4825D01*
X3949Y4724D02*
X3950Y4724D01*
X3980Y4905D02*
X4027D01*
X4042Y4920D01*
X3739Y5000D02*
X3885D01*
X3885Y5000D01*
X3949Y4665D02*
X3969Y4684D01*
X4010D02*
X4074D01*
X4075Y4685D01*
X3865Y4749D02*
Y4838D01*
X3778Y4925D02*
X3865Y4838D01*
X3845Y4749D02*
Y4834D01*
X3824Y4855D02*
X3845Y4834D01*
X3739Y4855D02*
X3824D01*
X3735Y4625D02*
X3761D01*
X3720Y4640D02*
X3735Y4625D01*
X3720Y4640D02*
Y4675D01*
X3729Y4684D01*
X3761D01*
X3969Y4684D02*
X4010D01*
X3670Y3555D02*
X3679Y3564D01*
X3670Y3525D02*
Y3555D01*
Y3525D02*
X3690Y3505D01*
X3894Y3545D02*
X3935D01*
X3955Y3565D02*
X4009D01*
X4010Y3565D01*
X3892Y3606D02*
Y3700D01*
Y3606D02*
X3894Y3604D01*
X3790Y3629D02*
Y3710D01*
X3765Y3735D02*
X3790Y3710D01*
X3690Y3735D02*
X3765D01*
X3830Y3629D02*
Y3876D01*
X3826Y3880D02*
X3830Y3876D01*
X3690Y3880D02*
X3826D01*
X3826Y3880D01*
X3810Y3629D02*
Y3728D01*
X3728Y3810D02*
X3810Y3728D01*
X3849Y3629D02*
Y3769D01*
X3865Y3785D01*
X3925D02*
X3972D01*
X3982Y3795D01*
X5295Y4973D02*
X5297Y4975D01*
X5372Y4867D02*
X5375Y4870D01*
X5295Y4988D02*
X5308Y4975D01*
X5380D01*
X5450Y4894D02*
X5531Y4975D01*
X5453Y4783D02*
X5535Y4701D01*
X5425Y4783D02*
X5450D01*
X5453D01*
X5425Y4605D02*
Y4677D01*
X5020Y4470D02*
X5075D01*
X5080Y4465D01*
X4640Y5040D02*
X4707D01*
X5093Y5010D02*
X5155D01*
X4925D02*
X4987D01*
X5534Y4549D02*
X5535Y4550D01*
X5065Y4535D02*
X5069Y4539D01*
X5145D01*
X4991Y4535D02*
X5065D01*
X4666Y4847D02*
X4730D01*
X4665Y4845D02*
X4666Y4847D01*
X4666Y4953D02*
X4730D01*
X4665Y4955D02*
X4666Y4953D01*
X4470Y4565D02*
Y4615D01*
Y4565D02*
X4475Y4560D01*
X4555Y4845D02*
X4605D01*
X4540Y4830D02*
X4555Y4845D01*
X4470Y4824D02*
X4474Y4820D01*
X4540D02*
Y4830D01*
X4474Y4820D02*
X4540D01*
X5155Y4728D02*
X5223D01*
X5155Y4882D02*
X5207D01*
X5236Y4988D02*
X5295D01*
X4941Y4754D02*
X4967Y4728D01*
X4887Y4754D02*
X4941D01*
X4967Y4728D02*
X5155D01*
X4470Y4675D02*
Y4720D01*
X4470Y4720D02*
X4470Y4720D01*
X4470Y4720D02*
Y4765D01*
X4746Y4831D02*
X4887D01*
X4730Y4847D02*
X4746Y4831D01*
X4730Y4953D02*
X4827Y4856D01*
X4887D01*
X4838Y4882D02*
X4887D01*
X4813Y4907D02*
Y5040D01*
Y4907D02*
X4838Y4882D01*
X6555Y4993D02*
X6556Y4991D01*
X6620D01*
X6360Y4862D02*
X6364Y4858D01*
X6430D01*
Y4868D01*
X6445Y4883D02*
X6495D01*
X6430Y4868D02*
X6445Y4883D01*
X6555D02*
X6556Y4885D01*
X6620D01*
X6885Y4508D02*
X6940D01*
X6945Y4503D01*
X6885Y4449D02*
X6885Y4449D01*
X7010D01*
X6550Y4813D02*
X6554Y4816D01*
X6620D01*
X6475Y4751D02*
X6477Y4754D01*
X6856Y4573D02*
X6930D01*
X6934Y4578D01*
X7010D01*
X7343Y4821D02*
X7425Y4739D01*
X7185Y5026D02*
X7198Y5013D01*
X7270D01*
X7340Y4932D02*
X7421Y5013D01*
X6620Y4885D02*
X6636Y4869D01*
X6620Y4991D02*
X6717Y4894D01*
X7262Y4905D02*
X7265Y4908D01*
X7185Y5011D02*
X7187Y5013D01*
X6530Y5078D02*
X6597D01*
X6703Y4945D02*
Y5078D01*
Y4945D02*
X6728Y4920D01*
X7315Y4643D02*
Y4715D01*
X7340Y4821D02*
X7343D01*
X7315D02*
X7340D01*
X6553Y4645D02*
X6555Y4643D01*
X6620Y4708D01*
X6475Y4645D02*
X6553D01*
X6620Y4708D02*
Y4710D01*
X6777Y4792D02*
X6831D01*
X7306Y5128D02*
X7421Y5013D01*
X6835Y5128D02*
X7306D01*
X6983Y5048D02*
X7045D01*
X6704Y4821D02*
X6776D01*
X7045Y4715D02*
X7146D01*
X7044Y4693D02*
X7105D01*
X6831Y4792D02*
X6857Y4766D01*
X7044Y4770D02*
X7110D01*
X7155Y4734D02*
X7165Y4743D01*
X7096Y4734D02*
X7155D01*
X7085Y4744D02*
X7096Y4734D01*
X7044Y4744D02*
X7085D01*
X7110Y4770D02*
X7115Y4765D01*
X6857Y4766D02*
X7040D01*
X7044Y4770D01*
X5288Y4645D02*
X5295Y4651D01*
X5085Y4105D02*
X5085Y4105D01*
X5400Y4105D02*
X5400Y4105D01*
X4885Y4535D02*
Y4624D01*
X4887Y4626D01*
X4630Y4607D02*
X4667D01*
X4700Y4778D02*
X4730D01*
X4700Y4640D02*
Y4672D01*
X4667Y4607D02*
X4700Y4640D01*
X4765Y4570D02*
Y4700D01*
X5020Y4411D02*
X5145D01*
X5020Y4410D02*
X5020Y4411D01*
X4765Y4570D02*
X4925Y4410D01*
X5020D01*
X7185Y4583D02*
X7190Y4588D01*
X7425D01*
X7044Y4667D02*
X7065Y4646D01*
Y4613D02*
Y4646D01*
X7185Y4533D02*
Y4583D01*
X7178Y4683D02*
X7185Y4690D01*
X7126Y5026D02*
X7185D01*
X6505Y4472D02*
X6510Y4467D01*
X6750Y4573D02*
Y4641D01*
X6776Y4667D01*
X6180Y4273D02*
X6185Y4268D01*
X6365Y3434D02*
X6369Y3430D01*
X6403Y4993D02*
X6495D01*
X6315Y4905D02*
X6403Y4993D01*
X6315Y4529D02*
Y4905D01*
X6700Y4254D02*
X6710Y4264D01*
X7030Y4255D02*
X7030Y4255D01*
X7115Y4493D02*
X7327D01*
X7515Y4305D01*
Y3679D02*
Y4305D01*
X7750Y3965D02*
Y3986D01*
X6489Y4355D02*
X6510D01*
X6315Y4529D02*
X6489Y4355D01*
X10929Y3894D02*
X10955D01*
X10875Y3840D02*
X10929Y3894D01*
X10806Y3840D02*
X10875D01*
X10805Y3839D02*
X10806Y3840D01*
X10455Y3785D02*
Y3835D01*
X10639Y3830D02*
X10644Y3835D01*
X10604Y3990D02*
X10644Y4030D01*
X10595Y3830D02*
X10639D01*
X10590Y4040D02*
X10634D01*
X10644Y4030D01*
X10460Y3780D02*
X10805D01*
X10455Y3785D02*
X10460Y3780D01*
X10578Y3725D02*
X10715D01*
X10725Y3715D01*
X10744Y3734D02*
X10875D01*
X10725Y3715D02*
X10744Y3734D01*
X10460Y3725D02*
X10472D01*
X10405Y3780D02*
Y3835D01*
X10430Y3785D02*
Y3835D01*
X10505Y4040D02*
Y4105D01*
X10874Y3996D02*
X10955D01*
X10870Y4000D02*
X10874Y3996D01*
X8570Y3160D02*
Y3210D01*
X8676Y3160D02*
X8755D01*
X8822D01*
X8928D02*
Y3222D01*
X9959Y3330D02*
Y3371D01*
X10102Y4030D02*
X10117Y4015D01*
X10223D02*
X10275D01*
X10196Y4105D02*
X10245D01*
X10305Y4045D01*
Y3995D02*
Y4045D01*
X10250Y3940D02*
X10305Y3995D01*
X10220Y3940D02*
X10250D01*
X10325Y3830D02*
Y4065D01*
X10555Y4040D02*
Y4110D01*
X10480Y4040D02*
Y4080D01*
X10455Y4105D02*
X10480Y4080D01*
X10855Y4895D02*
X10940D01*
X10855Y4895D02*
X10855Y4895D01*
X10940Y4795D02*
X10940Y4795D01*
X10068Y4050D02*
X10124Y4105D01*
X9920Y4050D02*
X10068D01*
X10090Y5010D02*
Y5110D01*
X10090Y5010D02*
X10090Y5010D01*
X10190Y5010D02*
Y5110D01*
X9482Y4330D02*
Y4428D01*
X9445Y4465D02*
X9482Y4428D01*
X9502Y4330D02*
Y4447D01*
X9510Y4455D01*
X10760Y4860D02*
X10795Y4895D01*
X9856Y4330D02*
X10200D01*
X10330Y4460D01*
X9445Y4965D02*
Y5060D01*
X9395Y5110D02*
X9445Y5060D01*
X9295Y5110D02*
X9300D01*
X9365Y4330D02*
X9384D01*
X9195Y5110D02*
X9245Y5060D01*
Y4955D02*
Y5060D01*
X9320Y4266D02*
Y4335D01*
X9195Y4950D02*
Y5010D01*
X9145Y4940D02*
Y5060D01*
X9095Y5110D02*
X9145Y5060D01*
X9095Y4940D02*
Y5010D01*
X9045Y4925D02*
Y5060D01*
X8995Y5110D02*
X9045Y5060D01*
X8995Y4925D02*
Y5010D01*
X9543Y4645D02*
X9561Y4627D01*
Y4580D02*
X9581Y4600D01*
X9561Y4580D02*
Y4627D01*
X9833Y4600D02*
X9835Y4602D01*
Y4708D02*
Y4770D01*
X9595Y4910D02*
Y5010D01*
Y4910D02*
X9625Y4880D01*
X9595Y5110D02*
X9645Y5060D01*
X10375Y4885D02*
X10450Y4810D01*
X10514Y4891D02*
X10575Y4830D01*
X9945Y4450D02*
Y4455D01*
X10675Y3555D02*
X10678Y3551D01*
X10675Y3555D02*
X10767D01*
X10767Y3555D01*
X10873Y3457D02*
X10875Y3455D01*
X10350Y3370D02*
X10355Y3375D01*
X9045Y2910D02*
X9090Y2865D01*
X9690Y2965D02*
Y3015D01*
X9890Y2965D02*
X9940Y2915D01*
X9740D02*
Y3010D01*
X9590Y2965D02*
Y3010D01*
X9840Y2915D02*
Y2985D01*
X9640Y2915D02*
X9690Y2865D01*
X9640Y2915D02*
Y3015D01*
X9540Y2915D02*
Y3060D01*
X9340Y2830D02*
X9380Y2790D01*
X10435Y4900D02*
Y4955D01*
X10470Y4990D01*
X10582Y4901D02*
Y4952D01*
X10620Y4990D01*
X10735Y4905D02*
Y4965D01*
X10765Y4995D01*
X10697Y4999D02*
Y5037D01*
X10770Y5110D01*
X10545Y4995D02*
X10555D01*
X10670Y5110D01*
X10397Y4994D02*
X10443Y5040D01*
X10500D01*
X10570Y5110D01*
X9920Y4030D02*
X10055D01*
X10102D01*
X9425Y4465D02*
X9445D01*
X8870Y3675D02*
X8875Y3680D01*
X8922D01*
X8935D01*
X4535Y2725D02*
X4537Y2727D01*
X4666D02*
X4667D01*
X4727Y2860D02*
X4740D01*
X5175Y2727D02*
X5175Y2727D01*
X5229Y2638D02*
X5239D01*
X6085Y2698D02*
Y2712D01*
Y2690D02*
Y2698D01*
X8855Y3295D02*
X8928Y3222D01*
X8570Y3210D02*
X8655Y3295D01*
X4482Y2638D02*
Y2643D01*
X5840Y2896D02*
X5852Y2908D01*
X5840Y2890D02*
Y2896D01*
X4474Y2646D02*
X4482Y2638D01*
X8665Y3840D02*
X8670Y3845D01*
X8890Y4065D01*
X8665Y4040D02*
X8670Y4045D01*
X8735Y4110D01*
X8665Y3940D02*
X8670Y3945D01*
X8815Y4090D01*
X10220Y3834D02*
X10259D01*
X4550Y4715D02*
X4625D01*
X6477Y4754D02*
X6550D01*
X9462Y2808D02*
X10183D01*
X9440Y2830D02*
X9462Y2808D01*
X9440Y2830D02*
Y3155D01*
X9405Y3190D02*
X9440Y3155D01*
X9114Y3951D02*
X9320D01*
X9620Y4330D02*
Y4385D01*
X9045Y4925D02*
X9155Y4815D01*
X9190Y4310D02*
Y4845D01*
X9095Y4940D02*
X9190Y4845D01*
X9145Y4940D02*
X9215Y4870D01*
X9240Y4415D02*
X9320Y4335D01*
X9240Y4415D02*
Y4905D01*
X9195Y4950D02*
X9240Y4905D01*
X9265Y4430D02*
X9365Y4330D01*
X9265Y4430D02*
Y4935D01*
X9245Y4955D02*
X9265Y4935D01*
X9285Y5000D02*
X9295Y5010D01*
X9285Y4455D02*
Y5000D01*
X9699Y4330D02*
X9700Y4332D01*
X9659Y4373D02*
X9666Y4380D01*
X9679Y4368D02*
X9684Y4373D01*
X9659Y4330D02*
Y4373D01*
X9640Y4379D02*
X9648Y4388D01*
X9640Y4330D02*
Y4379D01*
X9541Y4330D02*
Y4574D01*
X9936Y4441D02*
X9945Y4450D01*
X9802Y4381D02*
Y4382D01*
X9841Y4421D01*
X9837Y4330D02*
X9838Y4332D01*
X9817Y4330D02*
X9819Y4332D01*
X9841Y4421D02*
X9991D01*
X10030Y4460D01*
X9835Y4441D02*
X9936D01*
X9820Y4374D02*
Y4375D01*
X9819Y4332D02*
Y4372D01*
X9820Y4374D01*
X9797Y4330D02*
Y4377D01*
X9802Y4381D01*
X9777Y4330D02*
Y4382D01*
X9700Y4332D02*
Y4364D01*
X9718Y4330D02*
X9720Y4332D01*
X9679Y4330D02*
Y4368D01*
X9700Y4364D02*
X9702Y4365D01*
X10594Y3885D02*
X10644Y3835D01*
X10480D02*
Y3865D01*
X10500Y3885D01*
X10594D01*
X10455Y4010D02*
Y4040D01*
Y4010D02*
X10475Y3990D01*
X10604D01*
X9977Y3873D02*
X9979Y3871D01*
X9920Y3813D02*
X9967D01*
X9975Y3805D01*
X9990Y2865D02*
X10470D01*
X9940Y2915D02*
X10460D01*
X10470Y2865D02*
X10605Y3000D01*
X10460Y2915D02*
X10580Y3035D01*
Y3510D01*
X10555Y3080D02*
Y3505D01*
X10530Y3090D02*
Y3505D01*
X10510Y3105D02*
Y3500D01*
X10490Y3120D02*
Y3495D01*
X10450Y3155D02*
Y3480D01*
X9840Y2985D02*
X9860Y3005D01*
X10480D01*
X10555Y3080D01*
X10025Y3175D02*
X10035D01*
X10205Y3425D02*
Y3435D01*
Y3495D01*
X10255Y3425D02*
Y3435D01*
X10205Y3150D02*
Y3225D01*
Y3150D02*
X10255D01*
Y3225D01*
Y3150D02*
X10305D01*
Y3225D01*
X10355Y3200D02*
Y3225D01*
X10035Y3175D02*
X10060Y3150D01*
X10205D01*
X9540Y3060D02*
X9610Y3130D01*
X10390D01*
X9590Y3010D02*
X9690Y3110D01*
X10405D01*
X10450Y3155D01*
X9640Y3015D02*
X9715Y3090D01*
X10425D01*
X10470Y3135D01*
X9690Y3015D02*
X9745Y3070D01*
X10440D01*
X10490Y3120D01*
X9740Y3010D02*
X9775Y3045D01*
X10450D01*
X10510Y3105D01*
X9790Y2965D02*
X9850Y3025D01*
X10465D01*
X10530Y3090D01*
X10175Y3525D02*
X10205Y3495D01*
X10255Y3435D02*
Y3515D01*
X10305Y3425D02*
Y3435D01*
X9986Y3871D02*
X10035Y3821D01*
X9978Y3853D02*
X10015Y3816D01*
X9920Y3833D02*
X9972D01*
X9995Y3810D01*
X9920Y3853D02*
X9978D01*
X9979Y3871D02*
X9986D01*
X9920Y3892D02*
X9990D01*
X9920Y3912D02*
X10003D01*
X10020Y3895D01*
X10030D01*
X10035Y3815D02*
Y3821D01*
X10415Y3770D02*
X10460Y3725D01*
X10405Y3780D02*
X10415Y3770D01*
X10430Y3785D01*
X10385Y3705D02*
X10580Y3510D01*
X9995Y3780D02*
Y3810D01*
Y3780D02*
X10070Y3705D01*
X10385D01*
X9975Y3765D02*
Y3805D01*
Y3765D02*
X10060Y3680D01*
X10548Y3512D02*
X10555Y3505D01*
X10528Y3507D02*
X10530Y3505D01*
X9920Y3775D02*
Y3794D01*
Y3775D02*
X10035Y3660D01*
X9856Y3730D02*
X9946Y3640D01*
X10508Y3502D02*
Y3502D01*
Y3502D02*
X10510Y3500D01*
X9946Y3640D02*
X10370D01*
X10035Y3660D02*
X10376D01*
X10528Y3507D02*
Y3508D01*
X10060Y3680D02*
X10381D01*
X10548Y3512D02*
Y3513D01*
X9619Y3729D02*
X9620Y3730D01*
X9240Y2915D02*
X9290Y2865D01*
X10395Y3725D02*
X10605Y3515D01*
Y3000D02*
Y3515D01*
X10305Y3435D02*
Y3500D01*
X10470Y3135D02*
Y3490D01*
X10381Y3680D02*
X10548Y3513D01*
X10376Y3660D02*
X10528Y3508D01*
X10370Y3640D02*
X10508Y3502D01*
X9240Y2915D02*
Y3455D01*
X9260Y3475D01*
X9600Y3729D02*
X9600Y3730D01*
X9777Y4382D02*
X9784Y4389D01*
Y4390D01*
X3935Y3545D02*
X3955Y3565D01*
X3679Y3564D02*
X3706D01*
X3690Y3505D02*
X3706D01*
X9485Y3570D02*
X9522Y3607D01*
Y3730D01*
X9622Y3467D02*
Y3485D01*
X9728D02*
X9748Y3505D01*
X9659Y3569D02*
Y3730D01*
X9679Y3551D02*
Y3730D01*
Y3551D02*
X9685Y3545D01*
X9699Y3596D02*
Y3730D01*
X9718Y3622D02*
Y3730D01*
X9738Y3647D02*
X9885Y3500D01*
X10080D01*
X9725Y3560D02*
X9730Y3565D01*
X9718Y3622D02*
X9770Y3570D01*
X9758Y3657D02*
X9890Y3525D01*
X10175D01*
X9777Y3668D02*
X9885Y3560D01*
X10340D01*
X9797Y3678D02*
Y3730D01*
Y3678D02*
X9895Y3580D01*
X10350D01*
X9817Y3680D02*
X9897Y3600D01*
X10360D01*
X9837Y3688D02*
Y3730D01*
Y3688D02*
X9905Y3620D01*
X10365D01*
X10245Y3525D02*
X10255Y3515D01*
X10230Y3525D02*
X10245D01*
X9580Y3535D02*
Y3600D01*
Y3509D02*
Y3535D01*
X9630Y3585D02*
X9640Y3595D01*
X9605Y3615D02*
X9620Y3630D01*
Y3728D01*
X9279Y4250D02*
X9280D01*
X9215Y4314D02*
Y4870D01*
Y4314D02*
X9279Y4250D01*
X9253Y4128D02*
X9320D01*
X9226Y4155D02*
X9253Y4128D01*
X9254Y4148D02*
X9320D01*
X9212Y4190D02*
X9254Y4148D01*
X9120Y4330D02*
Y4800D01*
X9256Y4168D02*
X9320D01*
X9169Y4255D02*
X9256Y4168D01*
X9120Y4330D02*
X9263Y4187D01*
X9320D01*
X9130Y4255D02*
X9169D01*
X9190Y4125D02*
X9230D01*
X9246Y4109D01*
X9320D01*
X9045Y2910D02*
Y3584D01*
X9105Y3757D02*
Y3810D01*
X9150D01*
X9165Y3795D01*
X9215Y3830D02*
X9245D01*
X8965Y4005D02*
X9058Y3912D01*
X9015Y4005D02*
X9088Y3932D01*
X9060Y4005D02*
X9114Y3951D01*
X9105Y4005D02*
X9139Y3971D01*
X9320D01*
X9164Y3991D02*
X9320D01*
X9525Y3390D02*
X9585Y3330D01*
X9552Y3483D02*
Y3555D01*
X9525Y3565D02*
X9540Y3580D01*
Y3660D01*
X9561Y3681D01*
X9552Y3555D02*
X9560Y3563D01*
Y3655D01*
X9581Y3676D01*
X9577Y3603D02*
X9580Y3600D01*
X9577Y3603D02*
Y3632D01*
X9600Y3655D01*
Y3729D01*
X9753Y3500D02*
X9810D01*
X9918Y3462D02*
X9921Y3465D01*
X9205Y3890D02*
X9207Y3892D01*
X9320D01*
X9045Y3584D02*
X9275Y3813D01*
X9320D01*
X9235Y3795D02*
X9273Y3833D01*
X9320D01*
X9245Y3830D02*
X9268Y3853D01*
X9320D01*
X9237Y3862D02*
Y3867D01*
X9242Y3873D02*
X9320D01*
X9237Y3867D02*
X9242Y3873D01*
X9088Y3932D02*
X9320D01*
X9205Y3884D02*
Y3890D01*
X9058Y3912D02*
X9193D01*
X9193Y3912D01*
X9319D02*
X9320Y3912D01*
X9193Y3912D02*
X9319D01*
X5155Y4677D02*
X5256D01*
X4885Y4807D02*
X4887Y4805D01*
X4759Y4807D02*
X4885D01*
X4730Y4778D02*
X4759Y4807D01*
X6665Y4570D02*
X6786Y4449D01*
X6665Y4570D02*
Y4745D01*
X6690Y4770D01*
X6649Y4846D02*
X6775D01*
X6620Y4816D02*
X6649Y4846D01*
X6815Y5048D02*
X6877D01*
X6775Y4947D02*
X6777Y4946D01*
X7045Y4894D02*
X7099D01*
X7110Y4905D01*
X7125Y4869D02*
Y4875D01*
X7049Y4847D02*
X7137D01*
X7105Y4693D02*
X7115Y4683D01*
Y4680D02*
Y4683D01*
X10001Y4069D02*
X10021Y4090D01*
X10025D01*
X9920Y4069D02*
X10001D01*
X9633Y4398D02*
Y4437D01*
X9620Y4385D02*
X9633Y4398D01*
X9510Y4515D02*
Y4540D01*
X9535Y4580D02*
X9541Y4574D01*
X9530Y4580D02*
X9535D01*
X9645Y4980D02*
Y5060D01*
Y4980D02*
X9685Y4940D01*
X9980Y4555D02*
Y4741D01*
X10190Y4951D01*
X9955Y4565D02*
Y4815D01*
X10090Y4950D01*
X9685Y4940D02*
X9815D01*
X9930Y4825D01*
Y4575D02*
Y4825D01*
X9625Y4880D02*
X9835D01*
X9905Y4810D01*
Y4595D02*
Y4810D01*
X9835Y4770D02*
X9845Y4780D01*
X9855D01*
X9775Y4740D02*
X9795Y4760D01*
X9745Y4600D02*
X9775D01*
X9833D01*
X9720Y4445D02*
X9732Y4457D01*
X9730Y4459D02*
X9732Y4457D01*
X9730Y4459D02*
Y4460D01*
X9715Y4485D02*
X9715D01*
X9648Y4503D02*
X9690Y4545D01*
X9855D01*
X9905Y4595D01*
X9666Y4491D02*
X9705Y4530D01*
X9885D01*
X9930Y4575D01*
X9684Y4373D02*
Y4484D01*
X9710Y4510D01*
X9900D01*
X9955Y4565D01*
X9715Y4485D02*
X9725Y4495D01*
X9920D01*
X9980Y4555D01*
X9552Y3483D02*
X9615Y3420D01*
X9910D01*
X9959Y3371D01*
X9622Y3485D02*
X9672Y3435D01*
X9760D01*
X9787Y3462D01*
X9918D01*
X5155Y4754D02*
X5157Y4756D01*
X9445Y4571D02*
X9479D01*
X5207Y4882D02*
X5230Y4905D01*
X5155Y4907D02*
X5236Y4988D01*
X5225Y4910D02*
X5230Y4905D01*
X5225Y4910D02*
Y4920D01*
X5235Y4831D02*
X5236Y4831D01*
X5155Y4856D02*
X5214D01*
X5224Y4867D01*
X4811Y4779D02*
X4887D01*
X4796Y4765D02*
X4811Y4779D01*
X4795Y4765D02*
X4796D01*
X4765Y4700D02*
X4792Y4727D01*
X4886D02*
X4887Y4728D01*
X4792Y4727D02*
X4886D01*
X5199Y4651D02*
X5210Y4640D01*
X5155Y4651D02*
X5199D01*
X5210Y4640D02*
X5220D01*
X5205Y4545D02*
X5295D01*
X5155Y4595D02*
Y4626D01*
Y4595D02*
X5205Y4545D01*
X5220Y4580D02*
Y4586D01*
X5278Y4645D01*
X5298Y4740D02*
X5320D01*
X5282Y4756D02*
X5298Y4740D01*
X5157Y4756D02*
X5282D01*
X5270Y4710D02*
X5275D01*
X5155Y4703D02*
X5157Y4700D01*
X5260D01*
X5270Y4710D01*
X5305Y4805D02*
Y4815D01*
X6700Y4817D02*
X6704Y4821D01*
X6700Y4810D02*
Y4817D01*
X7070Y4455D02*
Y4565D01*
X7178Y4673D01*
Y4683D01*
X7207Y4820D02*
X7312D01*
X7048Y4820D02*
X7207D01*
X7207Y4820D01*
X7044Y4795D02*
X7145D01*
X7156Y4785D01*
X7195D01*
X7137Y4847D02*
X7145Y4855D01*
X7195D01*
X9140Y3486D02*
X9384Y3730D01*
X9150Y3550D02*
X9237Y3637D01*
X9200Y3795D02*
X9235D01*
X9165D02*
X9200D01*
Y3845D02*
X9215Y3830D01*
X9237Y3637D02*
Y3650D01*
X8665Y3760D02*
X8945Y4040D01*
X9115D01*
X9164Y3991D01*
X9305Y4465D02*
X9371Y4399D01*
X9305Y4465D02*
Y4950D01*
X9345Y4990D01*
X9325Y4480D02*
X9388Y4417D01*
X9325Y4480D02*
Y4940D01*
X9395Y5010D01*
X9407Y4433D02*
X9427D01*
X9345Y4865D02*
X9445Y4965D01*
X9345Y4495D02*
Y4865D01*
Y4495D02*
X9407Y4433D01*
X9380Y4510D02*
X9425Y4465D01*
X9380Y4510D02*
Y4515D01*
X9479Y4571D02*
X9500Y4550D01*
X9510Y4540D01*
X9581Y4476D02*
X9600Y4495D01*
X9581Y4330D02*
Y4405D01*
X9577Y4408D02*
X9581Y4405D01*
X9577Y4408D02*
Y4432D01*
X9581Y4435D01*
Y4476D01*
X9561Y4330D02*
Y4580D01*
X9600Y4495D02*
Y4520D01*
X9977Y4207D02*
X10020Y4250D01*
X10595D01*
X10775Y4430D01*
X10002Y4187D02*
X10040Y4225D01*
X10600D01*
X10800Y4425D01*
X10018Y4168D02*
X10050Y4200D01*
X10605D01*
X10825Y4420D01*
X10033Y4148D02*
X10065Y4180D01*
X10620D01*
X10850Y4410D01*
X10053Y4128D02*
X10085Y4160D01*
X10630D01*
X10875Y4405D01*
X10325Y4065D02*
X10405Y4145D01*
X10520D01*
X10555Y4110D01*
X9920Y3971D02*
X9964D01*
X10000Y3935D02*
X10035D01*
X9964Y3971D02*
X10000Y3935D01*
X9989Y3991D02*
X10010Y3970D01*
Y3965D02*
Y3970D01*
X10055Y4005D02*
Y4030D01*
X10079Y3938D02*
X10125D01*
X9920Y4010D02*
X10007D01*
X10079Y3938D01*
X10015Y3795D02*
Y3816D01*
X10035Y3815D02*
X10090Y3760D01*
X10115D01*
X10295Y3800D02*
X10325Y3830D01*
X10082Y3800D02*
X10295D01*
X9990Y3892D02*
X10082Y3800D01*
X10348Y3724D02*
X10348Y3725D01*
X10395D01*
X10085Y3724D02*
X10348D01*
X10015Y3795D02*
X10085Y3724D01*
X9380Y2790D02*
X10235D01*
X10183Y2808D02*
X10210Y2835D01*
X10305D01*
X10335Y2805D01*
X10431Y3171D02*
Y3470D01*
X10390Y3130D02*
X10431Y3171D01*
X10340Y3560D02*
X10431Y3470D01*
X10350Y3370D02*
X10355Y3365D01*
X9525Y3390D02*
Y3565D01*
X9485Y3430D02*
X9490Y3425D01*
X9485Y3430D02*
Y3570D01*
X9635Y3545D02*
X9659Y3569D01*
X10305Y3500D02*
X10330Y3525D01*
X9150Y4155D02*
X9226D01*
X9180Y4190D02*
X9212D01*
X9215Y4085D02*
X9219Y4089D01*
X9320D01*
X8890Y4065D02*
X9120D01*
X9175Y4010D01*
X9320D01*
X8815Y4090D02*
X9125D01*
X9185Y4030D01*
X9320D01*
X9200Y4050D02*
X9320D01*
X9140Y4110D02*
X9200Y4050D01*
X8735Y4110D02*
X9140D01*
X5224Y4867D02*
X5372D01*
X7146Y4715D02*
X7178Y4683D01*
X5172Y2833D02*
X5175Y2836D01*
X7110Y4905D02*
X7262D01*
X5256Y4677D02*
X5288Y4645D01*
X5155Y4831D02*
X5236D01*
X7045Y4869D02*
X7125D01*
X8675Y4250D02*
X9071D01*
X4550Y4607D02*
X4630D01*
X5155Y4805D02*
X5305D01*
X7045Y4843D02*
X7049Y4847D01*
X9748Y3505D02*
X9753Y3500D01*
X8922Y3680D02*
X8989Y3747D01*
Y3835D01*
X10305Y3150D02*
X10355Y3200D01*
X8610Y4195D02*
X9070D01*
X8565Y4240D02*
X8610Y4195D01*
X9028Y3680D02*
X9105Y3757D01*
X10090Y3225D02*
X10155D01*
X10095Y3285D02*
X10155Y3225D01*
D53*
X4618Y2638D02*
X4740Y2760D01*
X4600Y2638D02*
X4618D01*
X4740Y2760D02*
Y2800D01*
X4213Y4028D02*
X4275Y3965D01*
X4740Y2860D02*
Y2935D01*
X4474Y2646D02*
Y2790D01*
Y2849D02*
Y2876D01*
X4275Y3140D02*
Y3965D01*
X4255Y2995D02*
X4270Y2980D01*
X4370D01*
X4695D02*
X4740Y2935D01*
X4275Y3140D02*
X4435Y2980D01*
X4695D01*
X4370D02*
X4474Y2876D01*
D54*
X8164Y3811D02*
Y3961D01*
Y2704D02*
Y3810D01*
Y3811D02*
X8314Y3961D01*
X7736Y2700D02*
X8160D01*
X7669Y2633D02*
X7736Y2700D01*
X7551Y2633D02*
X7669D01*
D55*
X6620Y4467D02*
Y4545D01*
X6180Y4273D02*
Y4425D01*
X7505Y3205D02*
Y3350D01*
X7420Y3205D02*
Y3350D01*
X7340Y3210D02*
Y3355D01*
X6505Y4472D02*
Y4545D01*
D56*
X10750Y3960D02*
Y4030D01*
Y3835D02*
Y3905D01*
Y3960D02*
X10771D01*
X10786Y3945D02*
X10955D01*
X10771Y3960D02*
X10786Y3945D01*
X10750Y3905D02*
X10771D01*
X10786Y3919D01*
X10955D01*
X10380Y3997D02*
X10417Y3960D01*
X10380Y3997D02*
Y4040D01*
Y3878D02*
X10408Y3905D01*
X10380Y3835D02*
Y3878D01*
X10417Y3960D02*
X10691D01*
X10408Y3905D02*
X10691D01*
D57*
X5175Y2692D02*
Y2727D01*
X5121Y2638D02*
X5175Y2692D01*
X5229Y2638D01*
X5175Y2836D02*
Y2925D01*
X5075Y3025D02*
X5175Y2925D01*
X4680Y3025D02*
X5075D01*
X4508Y3182D02*
X4523D01*
X4680Y3025D01*
D58*
X6030Y2635D02*
X6085Y2690D01*
Y2698D02*
X6148Y2635D01*
X6087Y2825D02*
Y3220D01*
D59*
X7610Y2345D02*
D03*
X4541Y2350D02*
D03*
X6089Y2347D02*
D03*
X5180Y2350D02*
D03*
D60*
X7551Y2633D02*
D03*
X7669D02*
D03*
Y2515D02*
D03*
X7551D02*
D03*
X4482Y2638D02*
D03*
X4600D02*
D03*
Y2520D02*
D03*
X4482D02*
D03*
X6030Y2635D02*
D03*
X6148D02*
D03*
Y2517D02*
D03*
X6030D02*
D03*
X5121Y2638D02*
D03*
X5239D02*
D03*
Y2520D02*
D03*
X5121D02*
D03*
D61*
X8245Y2500D02*
D03*
X6620Y4545D02*
D03*
X6505D02*
D03*
D62*
X8160Y2700D02*
D03*
Y2600D02*
D03*
Y2500D02*
D03*
Y2400D02*
D03*
D63*
X7660Y4110D02*
D03*
Y4260D02*
D03*
X8164Y3961D02*
D03*
X8014D02*
D03*
X7865D02*
D03*
X7715Y5059D02*
D03*
X8014D02*
D03*
X8164D02*
D03*
X8314D02*
D03*
D64*
Y3961D02*
D03*
X7715D02*
D03*
D65*
X8855Y3295D02*
D03*
X8755D02*
D03*
X8655D02*
D03*
D66*
X10678Y3455D02*
D03*
Y2963D02*
D03*
X10875Y3455D02*
D03*
Y2963D02*
D03*
D67*
X8670Y3745D02*
D03*
X8570D02*
D03*
X8670Y3845D02*
D03*
X8570D02*
D03*
X8670Y3945D02*
D03*
X8570D02*
D03*
X8670Y4045D02*
D03*
X8570D02*
D03*
X8670Y4145D02*
D03*
X8570D02*
D03*
X8670Y4245D02*
D03*
X8570D02*
D03*
X8670Y4345D02*
D03*
X8570D02*
D03*
X8670Y4445D02*
D03*
X8570D02*
D03*
X8670Y4545D02*
D03*
X8570D02*
D03*
X8670Y4645D02*
D03*
X8570D02*
D03*
X8670Y4745D02*
D03*
X8570D02*
D03*
X8670Y4845D02*
D03*
X8570D02*
D03*
X8670Y4945D02*
D03*
X8570D02*
D03*
X8670Y5045D02*
D03*
X9990Y2965D02*
D03*
Y2865D02*
D03*
X9890Y2965D02*
D03*
Y2865D02*
D03*
X9790Y2965D02*
D03*
Y2865D02*
D03*
X9690Y2965D02*
D03*
Y2865D02*
D03*
X9590Y2965D02*
D03*
Y2865D02*
D03*
X9490Y2965D02*
D03*
Y2865D02*
D03*
X9390Y2965D02*
D03*
Y2865D02*
D03*
X9290Y2965D02*
D03*
Y2865D02*
D03*
X9190Y2965D02*
D03*
Y2865D02*
D03*
X9090Y2965D02*
D03*
X10030Y4460D02*
D03*
Y4560D02*
D03*
Y4660D02*
D03*
X10130Y4460D02*
D03*
Y4560D02*
D03*
Y4660D02*
D03*
X10230Y4460D02*
D03*
Y4560D02*
D03*
Y4660D02*
D03*
X10330Y4460D02*
D03*
Y4560D02*
D03*
Y4660D02*
D03*
X10430Y4460D02*
D03*
Y4560D02*
D03*
Y4660D02*
D03*
X10530Y4460D02*
D03*
Y4560D02*
D03*
Y4660D02*
D03*
X10630Y4460D02*
D03*
Y4560D02*
D03*
Y4660D02*
D03*
X10730D02*
D03*
Y4560D02*
D03*
Y4460D02*
D03*
X9795Y5010D02*
D03*
X9695Y5110D02*
D03*
Y5010D02*
D03*
X9595Y5110D02*
D03*
Y5010D02*
D03*
X9495Y5110D02*
D03*
Y5010D02*
D03*
X9395Y5110D02*
D03*
Y5010D02*
D03*
X9295Y5110D02*
D03*
Y5010D02*
D03*
X9195Y5110D02*
D03*
Y5010D02*
D03*
X9095Y5110D02*
D03*
Y5010D02*
D03*
X8995Y5110D02*
D03*
Y5010D02*
D03*
X10940Y4335D02*
D03*
Y4435D02*
D03*
Y4535D02*
D03*
Y4895D02*
D03*
Y4795D02*
D03*
Y4695D02*
D03*
X10190Y5110D02*
D03*
X10090D02*
D03*
X9990D02*
D03*
X10570D02*
D03*
X10670D02*
D03*
X10770D02*
D03*
D68*
X8570Y5045D02*
D03*
X10940Y4235D02*
D03*
Y4995D02*
D03*
D69*
X9090Y2865D02*
D03*
X9795Y5110D02*
D03*
X10290D02*
D03*
X10470D02*
D03*
D70*
X10955Y4043D02*
D03*
Y3847D02*
D03*
D71*
X9795Y4450D02*
D03*
X9630Y3585D02*
D03*
X9190Y4125D02*
D03*
X9605Y4420D02*
D03*
X9620Y4460D02*
D03*
X9750Y4420D02*
D03*
X10275Y3885D02*
D03*
X5223Y4728D02*
D03*
X7115Y4765D02*
D03*
X10275Y4015D02*
D03*
X10030Y3895D02*
D03*
X10415Y3770D02*
D03*
X9685Y3545D02*
D03*
X9725Y3560D02*
D03*
X9770Y3570D02*
D03*
X10230Y3525D02*
D03*
X9580Y3535D02*
D03*
X9605Y3615D02*
D03*
X9237Y3862D02*
D03*
X9205Y3884D02*
D03*
X7125Y4875D02*
D03*
X9730Y4460D02*
D03*
X9200Y3845D02*
D03*
X9500Y4550D02*
D03*
X10035Y3935D02*
D03*
X10010Y3965D02*
D03*
X9635Y3545D02*
D03*
X10330Y3525D02*
D03*
D72*
X9440Y3550D02*
D03*
X9015Y4005D02*
D03*
X8965D02*
D03*
X9060D02*
D03*
X9105D02*
D03*
X5080Y4465D02*
D03*
X4470Y4720D02*
D03*
X6945Y4503D02*
D03*
X7120Y4943D02*
D03*
X6360Y4758D02*
D03*
X7165Y4743D02*
D03*
X7185Y4533D02*
D03*
X7065Y4613D02*
D03*
X7115Y4493D02*
D03*
X10595Y3830D02*
D03*
X10590Y4040D02*
D03*
X10505Y4105D02*
D03*
X10455D02*
D03*
X9945Y4455D02*
D03*
X10220Y3760D02*
D03*
X9150Y4155D02*
D03*
X5220Y4640D02*
D03*
X7115Y4680D02*
D03*
X9530Y4580D02*
D03*
X9795Y4760D02*
D03*
X5305Y4815D02*
D03*
X5220Y4580D02*
D03*
X5320Y4740D02*
D03*
X5270Y4710D02*
D03*
X6700Y4810D02*
D03*
X7070Y4455D02*
D03*
X7195Y4785D02*
D03*
Y4855D02*
D03*
X9200Y3795D02*
D03*
X9380Y4515D02*
D03*
X9600Y4520D02*
D03*
X10055Y4005D02*
D03*
X10115Y3760D02*
D03*
X10275Y3755D02*
D03*
X10320Y3760D02*
D03*
X10370D02*
D03*
X10395Y3365D02*
D03*
X9490Y3425D02*
D03*
X9180Y4190D02*
D03*
X9215Y4085D02*
D03*
D73*
X4270Y2880D02*
D03*
X4213Y4028D02*
D03*
X4255Y2995D02*
D03*
X8795Y3615D02*
D03*
X5845Y2715D02*
D03*
X4540Y2920D02*
D03*
X4955Y2725D02*
D03*
X4960Y2920D02*
D03*
X4770Y3450D02*
D03*
X4470Y4390D02*
D03*
X4585Y3685D02*
D03*
X4580Y4380D02*
D03*
X10615Y3615D02*
D03*
X10090Y3225D02*
D03*
X9780Y3180D02*
D03*
X5840Y3830D02*
D03*
Y4065D02*
D03*
X5225Y3630D02*
D03*
X5260Y4445D02*
D03*
X5100Y3630D02*
D03*
X6365Y4598D02*
D03*
X3815Y4455D02*
D03*
X3670Y4795D02*
D03*
X3955Y4280D02*
D03*
X4135Y4825D02*
D03*
X3415Y4035D02*
D03*
X3515D02*
D03*
X4007Y5025D02*
D03*
X3952Y3905D02*
D03*
X3615Y3675D02*
D03*
X3360Y2915D02*
D03*
X3460D02*
D03*
X3895Y3160D02*
D03*
X3760Y3335D02*
D03*
X4080Y3705D02*
D03*
X5375Y4870D02*
D03*
X5425Y4605D02*
D03*
X4640Y5040D02*
D03*
X8755Y3160D02*
D03*
X5155Y5010D02*
D03*
X4925D02*
D03*
X5065Y4535D02*
D03*
X4475Y4560D02*
D03*
X4540Y4820D02*
D03*
X6430Y4858D02*
D03*
X6930Y4573D02*
D03*
X7265Y4908D02*
D03*
X6530Y5078D02*
D03*
X7315Y4643D02*
D03*
X6555D02*
D03*
X7045Y5048D02*
D03*
X5400Y4210D02*
D03*
X5085Y4205D02*
D03*
X4810Y4680D02*
D03*
X4630Y4607D02*
D03*
X4805Y4340D02*
D03*
X5075D02*
D03*
X6705Y4725D02*
D03*
X6030Y4425D02*
D03*
X6365Y3495D02*
D03*
X6200Y3735D02*
D03*
X7030Y4340D02*
D03*
X6710Y3770D02*
D03*
X6845D02*
D03*
X6710Y4350D02*
D03*
X7425Y3975D02*
D03*
Y4230D02*
D03*
X10725Y3715D02*
D03*
X10870Y4000D02*
D03*
X9140Y3550D02*
D03*
X10765Y4995D02*
D03*
X10620Y4990D02*
D03*
X10470D02*
D03*
X8870Y3675D02*
D03*
X4535Y2725D02*
D03*
X5650Y3095D02*
D03*
X5740Y3090D02*
D03*
X5840Y2890D02*
D03*
X8505Y3615D02*
D03*
X10025Y3175D02*
D03*
X9810Y3500D02*
D03*
X6815Y5048D02*
D03*
X10025Y4090D02*
D03*
X9855Y4780D02*
D03*
X5225Y4920D02*
D03*
X4795Y4765D02*
D03*
X9237Y3650D02*
D03*
X10235Y2790D02*
D03*
X10335Y2805D02*
D03*
D74*
X6180Y4425D02*
D03*
X7420Y3205D02*
D03*
X7340Y3210D02*
D03*
X7505Y3205D02*
D03*
X8885Y4855D02*
D03*
D75*
X5235Y4835D02*
D03*
M02*
