G04 Layer_Color=16711935*
%FSLAX25Y25*%
%MOIN*%
G70*
G01*
G75*
%ADD61R,0.06706X0.06706*%
%ADD62C,0.06706*%
%ADD63C,0.03702*%
%ADD64C,0.06800*%
%ADD65C,0.16548*%
%ADD66C,0.07493*%
%ADD67R,0.06706X0.06706*%
%ADD68C,0.16800*%
%ADD69C,0.12800*%
G36*
X47244Y98D02*
X7874D01*
Y39469D01*
X47244D01*
Y98D01*
D02*
G37*
G36*
X98032D02*
X58661D01*
Y39469D01*
X98032D01*
Y98D01*
D02*
G37*
D61*
X139764Y261417D02*
D03*
X364173Y434646D02*
D03*
X363779Y68504D02*
D03*
D62*
X149764Y261417D02*
D03*
X354173Y434646D02*
D03*
X353780Y68504D02*
D03*
X125984Y226220D02*
D03*
D63*
X148819Y224803D02*
D03*
X140157Y219685D02*
D03*
X166142Y163976D02*
D03*
X161024Y164173D02*
D03*
X108268Y89370D02*
D03*
Y78740D02*
D03*
X245079Y342520D02*
D03*
X322835Y340551D02*
D03*
X429134D02*
D03*
X508858D02*
D03*
X480315Y169291D02*
D03*
X391732D02*
D03*
X303150Y163386D02*
D03*
X221457D02*
D03*
X4921Y51181D02*
D03*
X54134D02*
D03*
X68110Y75197D02*
D03*
X7382Y69095D02*
D03*
X123031Y147638D02*
D03*
Y336614D02*
D03*
X319146Y322587D02*
D03*
X426772Y323228D02*
D03*
X505315Y322244D02*
D03*
X305878Y180878D02*
D03*
X224410Y179724D02*
D03*
X481299Y187043D02*
D03*
X393701D02*
D03*
X242126Y323819D02*
D03*
X120472Y305709D02*
D03*
Y301378D02*
D03*
Y297047D02*
D03*
X124803D02*
D03*
X129134D02*
D03*
X133465D02*
D03*
X137795D02*
D03*
X142126D02*
D03*
X124803Y301378D02*
D03*
X129134D02*
D03*
X133465D02*
D03*
X137795D02*
D03*
X142126D02*
D03*
X124803Y305709D02*
D03*
X129134D02*
D03*
X133465D02*
D03*
X137795D02*
D03*
X142126D02*
D03*
X124803Y310039D02*
D03*
X129134D02*
D03*
X133465D02*
D03*
X137795D02*
D03*
X142126D02*
D03*
X120472Y314370D02*
D03*
Y318701D02*
D03*
Y323031D02*
D03*
X124803Y314370D02*
D03*
X129134D02*
D03*
X133465D02*
D03*
X137795D02*
D03*
X142126D02*
D03*
X124803Y318701D02*
D03*
X129134D02*
D03*
X133465D02*
D03*
X137795D02*
D03*
X142126D02*
D03*
X124803Y323031D02*
D03*
X129134D02*
D03*
X133465D02*
D03*
X137795D02*
D03*
X142126D02*
D03*
X120472Y310039D02*
D03*
X120669Y116732D02*
D03*
X125000D02*
D03*
X129331D02*
D03*
X133661D02*
D03*
X137992D02*
D03*
X142323D02*
D03*
X120669Y112402D02*
D03*
Y108071D02*
D03*
X125000D02*
D03*
X129331D02*
D03*
X133661D02*
D03*
X137992D02*
D03*
X142323D02*
D03*
X125000Y112402D02*
D03*
X129331D02*
D03*
X133661D02*
D03*
X137992D02*
D03*
X142323D02*
D03*
X125000Y121063D02*
D03*
X129331D02*
D03*
X133661D02*
D03*
X137992D02*
D03*
X142323D02*
D03*
X120669Y125394D02*
D03*
Y129724D02*
D03*
Y134055D02*
D03*
X125000Y125394D02*
D03*
X129331D02*
D03*
X133661D02*
D03*
X137992D02*
D03*
X142323D02*
D03*
X125000Y129724D02*
D03*
X129331D02*
D03*
X133661D02*
D03*
X137992D02*
D03*
X142323D02*
D03*
X125000Y134055D02*
D03*
X129331D02*
D03*
X133661D02*
D03*
X137992D02*
D03*
X142323D02*
D03*
X120669Y121063D02*
D03*
D64*
X96850Y206693D02*
D03*
X224173Y278543D02*
D03*
X234173D02*
D03*
X244173D02*
D03*
X254173D02*
D03*
X264173D02*
D03*
X274173D02*
D03*
X284173D02*
D03*
X294173D02*
D03*
X304173D02*
D03*
X314173D02*
D03*
X324173D02*
D03*
X334173D02*
D03*
X344173D02*
D03*
X354173D02*
D03*
X364173D02*
D03*
X374173D02*
D03*
X384173D02*
D03*
Y218543D02*
D03*
X374173D02*
D03*
X364173D02*
D03*
X354173D02*
D03*
X344173D02*
D03*
X334173D02*
D03*
X324173D02*
D03*
X314173D02*
D03*
X304173D02*
D03*
X294173D02*
D03*
X284173D02*
D03*
X274173D02*
D03*
X264173D02*
D03*
X254173D02*
D03*
X244173D02*
D03*
X234173D02*
D03*
X224173D02*
D03*
D65*
X529528Y89602D02*
D03*
X440945D02*
D03*
X344488Y91535D02*
D03*
X265748Y90551D02*
D03*
X466535Y414370D02*
D03*
X386811D02*
D03*
X201772Y414370D02*
D03*
X280512D02*
D03*
D66*
X105630Y236221D02*
D03*
X95630D02*
D03*
X85630D02*
D03*
D67*
X125984D02*
D03*
D68*
X399554Y386963D02*
D03*
X438554D02*
D03*
X517754D02*
D03*
X478354D02*
D03*
Y369663D02*
D03*
X517754D02*
D03*
X438954D02*
D03*
X399554D02*
D03*
X515786Y123899D02*
D03*
X476786D02*
D03*
X397586D02*
D03*
X436986D02*
D03*
Y141199D02*
D03*
X397586D02*
D03*
X476386D02*
D03*
X515786D02*
D03*
X214537Y387379D02*
D03*
X253537D02*
D03*
X332737D02*
D03*
X293337D02*
D03*
Y370079D02*
D03*
X332737D02*
D03*
X253937D02*
D03*
X214537D02*
D03*
X332729Y117958D02*
D03*
X293729D02*
D03*
X214529D02*
D03*
X253929D02*
D03*
Y135258D02*
D03*
X214529D02*
D03*
X293329D02*
D03*
X332729D02*
D03*
X19094Y107063D02*
D03*
Y146063D02*
D03*
Y225263D02*
D03*
Y185863D02*
D03*
X36395D02*
D03*
Y225263D02*
D03*
Y146463D02*
D03*
Y107063D02*
D03*
X19094Y293087D02*
D03*
Y332087D02*
D03*
Y411287D02*
D03*
Y371887D02*
D03*
X36395D02*
D03*
Y411287D02*
D03*
Y332487D02*
D03*
Y293087D02*
D03*
D69*
X376954Y371063D02*
D03*
X540354D02*
D03*
X538386Y139799D02*
D03*
X374986D02*
D03*
X191937Y371479D02*
D03*
X355337D02*
D03*
X355329Y133858D02*
D03*
X191929D02*
D03*
X34995Y84463D02*
D03*
Y247863D02*
D03*
Y270487D02*
D03*
Y433887D02*
D03*
M02*
