G04 Layer_Color=32768*
%FSLAX25Y25*%
%MOIN*%
G70*
G01*
G75*
%ADD70C,0.00394*%
%ADD71C,0.00197*%
D70*
X144882Y233465D02*
Y237402D01*
X142913Y235433D02*
X146850D01*
X108071Y216535D02*
Y220472D01*
X106102Y218504D02*
X110039D01*
X100197Y214764D02*
X115945D01*
X100197Y222244D02*
X115945D01*
Y214764D02*
Y222244D01*
X100197Y214764D02*
Y222244D01*
X83268Y217323D02*
Y221260D01*
X81299Y219291D02*
X85236D01*
X75394Y223031D02*
X91142D01*
X75394Y215551D02*
X91142D01*
X75394D02*
Y223031D01*
X91142Y215551D02*
Y223031D01*
X497638Y422287D02*
X501575D01*
X499606Y420319D02*
Y424256D01*
X472441Y429232D02*
Y432972D01*
X470571Y431102D02*
X474311D01*
X467717Y433268D02*
X477165D01*
X467717Y428937D02*
X477165D01*
X467717D02*
Y433268D01*
X477165Y428937D02*
Y433268D01*
X417913Y421850D02*
X421850D01*
X419882Y419882D02*
Y423819D01*
X392717Y429232D02*
Y432972D01*
X390846Y431102D02*
X394587D01*
X387992Y433268D02*
X397441D01*
X387992Y428937D02*
X397441D01*
X387992D02*
Y433268D01*
X397441Y428937D02*
Y433268D01*
X233268Y423228D02*
X237205D01*
X235236Y421260D02*
Y425197D01*
X207677Y430217D02*
Y433957D01*
X205807Y432087D02*
X209547D01*
X202953Y434252D02*
X212402D01*
X202953Y429921D02*
X212402D01*
X202953D02*
Y434252D01*
X212402Y429921D02*
Y434252D01*
X118898Y310039D02*
X122835D01*
X120866Y308071D02*
Y312008D01*
X286417Y430217D02*
Y433957D01*
X284547Y432087D02*
X288287D01*
X281693Y434252D02*
X291142D01*
X281693Y429921D02*
X291142D01*
X281693D02*
Y434252D01*
X291142Y429921D02*
Y434252D01*
X312008Y423228D02*
X315945D01*
X313976Y421260D02*
Y425197D01*
X132972Y222441D02*
X136713D01*
X134843Y220571D02*
Y224311D01*
X137008Y217717D02*
Y227165D01*
X132677Y217717D02*
Y227165D01*
X137008D01*
X132677Y217717D02*
X137008D01*
X230315Y81693D02*
X234252D01*
X232283Y79724D02*
Y83661D01*
X434055Y69031D02*
Y72772D01*
X432185Y70902D02*
X435925D01*
X429331Y68736D02*
X438780D01*
X429331Y73067D02*
X438780D01*
Y68736D02*
Y73067D01*
X429331Y68736D02*
Y73067D01*
X404528Y79760D02*
X408465D01*
X406496Y77791D02*
Y81728D01*
X521654Y67063D02*
Y70803D01*
X519783Y68933D02*
X523524D01*
X516929Y66768D02*
X526378D01*
X516929Y71098D02*
X526378D01*
Y66768D02*
Y71098D01*
X516929Y66768D02*
Y71098D01*
X492531Y78154D02*
X496468D01*
X494500Y76185D02*
Y80122D01*
X260827Y70965D02*
Y74705D01*
X258957Y72835D02*
X262697D01*
X256102Y70669D02*
X265551D01*
X256102Y75000D02*
X265551D01*
Y70669D02*
Y75000D01*
X256102Y70669D02*
Y75000D01*
X338583Y70965D02*
Y74705D01*
X336713Y72835D02*
X340453D01*
X333858Y70669D02*
X343307D01*
X333858Y75000D02*
X343307D01*
Y70669D02*
Y75000D01*
X333858Y70669D02*
Y75000D01*
X308870Y81638D02*
X312807D01*
X310839Y79669D02*
Y83606D01*
X105315Y151575D02*
X109252D01*
X107283Y149606D02*
Y153543D01*
X105315Y340551D02*
X109252D01*
X107283Y338583D02*
Y342520D01*
X15059Y60138D02*
X18996D01*
X17028Y58169D02*
Y62106D01*
X62894Y60138D02*
X66831D01*
X64862Y58169D02*
Y62106D01*
X119095Y121063D02*
X123031D01*
X121063Y119095D02*
Y123031D01*
X489173Y178185D02*
X493110D01*
X491142Y176216D02*
Y180153D01*
X401528Y177862D02*
X405465D01*
X403496Y175894D02*
Y179831D01*
X416386Y331405D02*
X420323D01*
X418354Y329437D02*
Y333374D01*
X232236Y172059D02*
X236173D01*
X234205Y170090D02*
Y174028D01*
X309102Y331543D02*
X313039D01*
X311071Y329575D02*
Y333512D01*
X311961Y171921D02*
X315898D01*
X313929Y169953D02*
Y173890D01*
X231347Y333181D02*
X235283D01*
X233315Y331213D02*
Y335150D01*
X495126Y331201D02*
X499063D01*
X497094Y329232D02*
Y333169D01*
D71*
X137992Y227165D02*
X151772D01*
X137992Y243701D02*
X151772D01*
X137992Y227165D02*
Y243701D01*
X151772Y227165D02*
Y243701D01*
X478150Y408606D02*
Y435968D01*
X521063Y408606D02*
Y435968D01*
X478150D02*
X521063D01*
X478150Y408606D02*
X521063D01*
X398425Y408169D02*
Y435532D01*
X441339Y408169D02*
Y435532D01*
X398425D02*
X441339D01*
X398425Y408169D02*
X441339D01*
X213779Y409547D02*
Y436909D01*
X256693Y409547D02*
Y436909D01*
X213779D02*
X256693D01*
X213779Y409547D02*
X256693D01*
X94291Y331102D02*
X147441D01*
Y288976D02*
Y331102D01*
X94291Y288976D02*
Y331102D01*
Y288976D02*
X147441D01*
X292520Y409547D02*
Y436909D01*
X335433Y409547D02*
Y436909D01*
X292520D02*
X335433D01*
X292520Y409547D02*
X335433D01*
X253740Y68012D02*
Y95374D01*
X210827Y68012D02*
Y95374D01*
Y68012D02*
X253740D01*
X210827Y95374D02*
X253740D01*
X427953Y66079D02*
Y93441D01*
X385039Y66079D02*
Y93441D01*
Y66079D02*
X427953D01*
X385039Y93441D02*
X427953D01*
X515957Y64472D02*
Y91835D01*
X473043Y64472D02*
Y91835D01*
Y64472D02*
X515957D01*
X473043Y91835D02*
X515957D01*
X332295Y67957D02*
Y95319D01*
X289382Y67957D02*
Y95319D01*
Y67957D02*
X332295D01*
X289382Y95319D02*
X332295D01*
X94784Y144291D02*
Y158858D01*
X119783Y144291D02*
Y158858D01*
X94784D02*
X119783D01*
X94784Y144291D02*
X119783D01*
X94784Y333268D02*
Y347835D01*
X119783Y333268D02*
Y347835D01*
X94784D02*
X119783D01*
X94784Y333268D02*
X119783D01*
X9744Y47638D02*
Y72638D01*
X24311Y47638D02*
Y72638D01*
X9744Y47638D02*
X24311D01*
X9744Y72638D02*
X24311D01*
X57579Y47638D02*
Y72638D01*
X72146Y47638D02*
Y72638D01*
X57579Y47638D02*
X72146D01*
X57579Y72638D02*
X72146D01*
X94488Y142126D02*
X147638D01*
Y100000D02*
Y142126D01*
X94488Y100000D02*
Y142126D01*
Y100000D02*
X147638D01*
X483858Y165685D02*
Y190685D01*
X498425Y165685D02*
Y190685D01*
X483858Y165685D02*
X498425D01*
X483858Y190685D02*
X498425D01*
X396213Y165362D02*
Y190362D01*
X410779Y165362D02*
Y190362D01*
X396213Y165362D02*
X410779D01*
X396213Y190362D02*
X410779D01*
X425638Y318905D02*
Y343905D01*
X411071Y318905D02*
Y343905D01*
X425638D01*
X411071Y318905D02*
X425638D01*
X226921Y159559D02*
Y184559D01*
X241488Y159559D02*
Y184559D01*
X226921Y159559D02*
X241488D01*
X226921Y184559D02*
X241488D01*
X318354Y319043D02*
Y344043D01*
X303787Y319043D02*
Y344043D01*
X318354D01*
X303787Y319043D02*
X318354D01*
X306646Y159421D02*
Y184421D01*
X321213Y159421D02*
Y184421D01*
X306646Y159421D02*
X321213D01*
X306646Y184421D02*
X321213D01*
X240599Y320681D02*
Y345681D01*
X226031Y320681D02*
Y345681D01*
X240599D01*
X226031Y320681D02*
X240599D01*
X504378Y318701D02*
Y343701D01*
X489811Y318701D02*
Y343701D01*
X504378D01*
X489811Y318701D02*
X504378D01*
M02*
