M48
;Layer_Color=9474304
;FILE_FORMAT=2:3
INCH,LZ
;TYPE=PLATED
T1F00S00C0.028
T2F00S00C0.035
T3F00S00C0.043
;TYPE=NON_PLATED
T4F00S00C0.194
%
T01
X011Y0135
X0135
X0149Y01512
X016Y0135
X0185
X021
X02085Y015
X0235Y0135
X026
X0285
X02735Y0147
X03145Y0129
X03285Y016
X03265Y0203
X0303Y0202
X02833Y02022
X02715Y02065
X02635Y02235
X0251Y02255
X02455Y0222
X0239Y02355
X0216Y02185
X0219Y0181
X02399Y01806
X02115Y01635
X01845Y01705
X0176Y01785
X01725Y02125
X01605Y021
X01912Y02442
X0288Y02455
X02845Y0251
Y02305
X02945Y02205
X0299Y0185
X0268Y01625
X01355Y02265
T02
X01085Y0116
X01185
X01335
X01435
X01585
X01685
X01835
X01935
X02085
X02185
X02335
X02435
X02585
X02685
X02835
X02935
X0111Y0167
Y0177
Y0187
Y0197
T03
X01585Y0176
X01485
X01385
T04
X0324Y0115
Y0241
X0118
M30
