G04 Layer_Color=16711935*
%FSLAX25Y25*%
%MOIN*%
G70*
G01*
G75*
%ADD105C,0.00800*%
%ADD106C,0.06509*%
%ADD107C,0.07493*%
%ADD108C,0.16548*%
%ADD109C,0.09461*%
%ADD110C,0.12611*%
%ADD111R,0.04343X0.04343*%
%ADD112C,0.04343*%
%ADD113C,0.07131*%
%ADD114C,0.07918*%
%ADD115C,0.09300*%
%ADD116C,0.06800*%
%ADD117R,0.06800X0.06800*%
%ADD118R,0.06800X0.06800*%
%ADD119C,0.06706*%
%ADD120R,0.06706X0.06706*%
%ADD121C,0.04300*%
%ADD122C,0.05800*%
%ADD123C,0.08300*%
D105*
X671779Y180870D02*
D03*
X699339D02*
D03*
X635500Y185039D02*
D03*
X393500Y185000D02*
D03*
X353500Y433000D02*
D03*
D106*
X675716Y191500D02*
D03*
X695402D02*
D03*
D107*
X299095Y189508D02*
D03*
X310906D02*
D03*
Y201319D02*
D03*
X299095D02*
D03*
X341595Y189508D02*
D03*
X353405D02*
D03*
Y201319D02*
D03*
X341595D02*
D03*
X255689Y189500D02*
D03*
X267500D02*
D03*
Y201311D02*
D03*
X255689D02*
D03*
D108*
X305000Y172500D02*
D03*
X347500D02*
D03*
X261595Y172492D02*
D03*
D109*
X528000Y325559D02*
D03*
Y303118D02*
D03*
Y370441D02*
D03*
Y348000D02*
D03*
D110*
X522724Y314339D02*
D03*
Y359221D02*
D03*
D111*
X630500Y230736D02*
D03*
X642500Y231157D02*
D03*
D112*
X630500Y235658D02*
D03*
Y240579D02*
D03*
Y245500D02*
D03*
X642500Y236079D02*
D03*
Y241000D02*
D03*
Y245921D02*
D03*
D113*
X582500Y238000D02*
D03*
Y248000D02*
D03*
Y258000D02*
D03*
D114*
X603500Y205500D02*
D03*
X554287D02*
D03*
X603500Y185815D02*
D03*
X554287D02*
D03*
D115*
X320000Y427500D02*
D03*
X245000D02*
D03*
Y377500D02*
D03*
Y365000D02*
D03*
Y352500D02*
D03*
Y290000D02*
D03*
X320000D02*
D03*
X319750Y254250D02*
D03*
D116*
X701500Y309500D02*
D03*
X691500D02*
D03*
X681500D02*
D03*
X701500Y319500D02*
D03*
X691500D02*
D03*
X681500D02*
D03*
X701500Y329500D02*
D03*
X691500D02*
D03*
X681500D02*
D03*
X701500Y339500D02*
D03*
X691500D02*
D03*
X681500D02*
D03*
X701500Y349500D02*
D03*
X691500D02*
D03*
X681500D02*
D03*
X701500Y359500D02*
D03*
X691500D02*
D03*
X681500D02*
D03*
X701500Y369500D02*
D03*
X691500D02*
D03*
X681500D02*
D03*
Y379500D02*
D03*
X691500D02*
D03*
X701500D02*
D03*
X617000Y425000D02*
D03*
Y415000D02*
D03*
Y405000D02*
D03*
X607000Y425000D02*
D03*
Y415000D02*
D03*
Y405000D02*
D03*
X597000Y425000D02*
D03*
Y415000D02*
D03*
Y405000D02*
D03*
X587000Y425000D02*
D03*
Y415000D02*
D03*
Y405000D02*
D03*
X577000Y425000D02*
D03*
Y415000D02*
D03*
Y405000D02*
D03*
X567000Y425000D02*
D03*
Y415000D02*
D03*
Y405000D02*
D03*
X557000Y425000D02*
D03*
Y415000D02*
D03*
Y405000D02*
D03*
X547000D02*
D03*
Y415000D02*
D03*
Y425000D02*
D03*
X652500Y306500D02*
D03*
X642500D02*
D03*
X632500D02*
D03*
X571000Y344500D02*
D03*
Y334500D02*
D03*
Y324500D02*
D03*
X666500Y428000D02*
D03*
X676500D02*
D03*
X686500D02*
D03*
D117*
X662500Y306500D02*
D03*
X656500Y428000D02*
D03*
D118*
X571000Y354500D02*
D03*
D119*
X520000Y176000D02*
D03*
D120*
X530000D02*
D03*
D121*
X663000Y361500D02*
D03*
X589500Y394000D02*
D03*
X638000Y331500D02*
D03*
X643000Y332000D02*
D03*
X687500Y400500D02*
D03*
X614500Y261000D02*
D03*
X637000Y394500D02*
D03*
X690500Y199000D02*
D03*
X678500Y244000D02*
D03*
X464500Y415965D02*
D03*
Y409465D02*
D03*
X469500Y406965D02*
D03*
X468000Y400965D02*
D03*
X418500Y403465D02*
D03*
X458000Y382465D02*
D03*
X462984Y368980D02*
D03*
X469500Y372965D02*
D03*
X459000Y363965D02*
D03*
X468000Y395965D02*
D03*
X463000Y399134D02*
D03*
X462500Y390965D02*
D03*
X597000Y345000D02*
D03*
X579500Y390500D02*
D03*
X577000Y383000D02*
D03*
X578500Y369500D02*
D03*
X621000Y382500D02*
D03*
X628500D02*
D03*
X663500Y415500D02*
D03*
X674000Y400500D02*
D03*
X669500Y378500D02*
D03*
X646000Y422000D02*
D03*
X704500Y248000D02*
D03*
Y237500D02*
D03*
X659500Y244500D02*
D03*
X702500Y262500D02*
D03*
X642500Y259500D02*
D03*
X624000Y321000D02*
D03*
X659500Y278500D02*
D03*
X636500D02*
D03*
X624500Y345500D02*
D03*
X664000Y389500D02*
D03*
X648000Y376500D02*
D03*
X653000Y375000D02*
D03*
X651500Y245500D02*
D03*
D122*
X459500Y428965D02*
D03*
X434500D02*
D03*
X487000Y385965D02*
D03*
X400000Y434965D02*
D03*
X419000Y393965D02*
D03*
X399500Y386650D02*
D03*
X388500Y409465D02*
D03*
X379000Y399965D02*
D03*
X443000Y378965D02*
D03*
Y371965D02*
D03*
X499500Y302965D02*
D03*
Y329465D02*
D03*
X371685Y289965D02*
D03*
X379000Y381465D02*
D03*
X354000Y362965D02*
D03*
X422000Y291965D02*
D03*
X435500D02*
D03*
X486500Y411465D02*
D03*
X456000Y350465D02*
D03*
X422500Y351465D02*
D03*
X398000Y258965D02*
D03*
X227000Y409500D02*
D03*
X226953Y353453D02*
D03*
X274000Y219000D02*
D03*
D123*
X402000Y371465D02*
D03*
X412500D02*
D03*
X368000Y359465D02*
D03*
X489000Y234000D02*
D03*
X480000Y234500D02*
D03*
X498000Y234000D02*
D03*
X521000Y210500D02*
D03*
M02*
