G04 Layer_Physical_Order=3*
G04 Layer_Color=16440176*
%FSLAX25Y25*%
%MOIN*%
G70*
G01*
G75*
%ADD40C,0.01000*%
%ADD44C,0.02000*%
%ADD52C,0.06000*%
%ADD55C,0.08500*%
%ADD57C,0.06331*%
%ADD58C,0.03543*%
%ADD61C,0.08661*%
%ADD63C,0.06693*%
%ADD65C,0.03500*%
%ADD66C,0.05000*%
%ADD67C,0.07500*%
G36*
X537500Y226000D02*
X526500Y215000D01*
X455087Y215000D01*
X454757Y215376D01*
X454774Y215500D01*
X454679Y216218D01*
X454402Y216887D01*
X453961Y217461D01*
X453387Y217902D01*
X452718Y218179D01*
X452000Y218274D01*
X451282Y218179D01*
X450613Y217902D01*
X450039Y217461D01*
X449598Y216887D01*
X449321Y216218D01*
X449226Y215500D01*
X449243Y215376D01*
X448913Y215000D01*
X441050D01*
X440708Y215500D01*
X440774Y216000D01*
X440679Y216718D01*
X440402Y217387D01*
X439961Y217961D01*
X439387Y218402D01*
X438718Y218679D01*
X438000Y218774D01*
X437282Y218679D01*
X436613Y218402D01*
X436039Y217961D01*
X435598Y217387D01*
X435321Y216718D01*
X435226Y216000D01*
X435292Y215500D01*
X434950Y215000D01*
X393500Y215000D01*
X368500Y190000D01*
X368500Y169500D01*
X361549Y162549D01*
X220049D01*
Y449951D01*
X330530D01*
X330530Y421530D01*
X345530Y406530D01*
X365530Y406530D01*
X382030Y423030D01*
Y449951D01*
X537500D01*
Y226000D01*
D02*
G37*
G36*
X715500Y241500D02*
X680581D01*
X680411Y242000D01*
X680461Y242039D01*
X680902Y242613D01*
X681179Y243282D01*
X681274Y244000D01*
X681179Y244718D01*
X680902Y245387D01*
X680461Y245961D01*
X679887Y246402D01*
X679218Y246679D01*
X678500Y246774D01*
X677782Y246679D01*
X677113Y246402D01*
X676539Y245961D01*
X676098Y245387D01*
X675821Y244718D01*
X675726Y244000D01*
X675821Y243282D01*
X676098Y242613D01*
X676539Y242039D01*
X676589Y242000D01*
X676419Y241500D01*
X660750D01*
X660651Y242000D01*
X660887Y242098D01*
X661461Y242539D01*
X661902Y243113D01*
X662062Y243500D01*
X656938D01*
X657098Y243113D01*
X657539Y242539D01*
X658113Y242098D01*
X658349Y242000D01*
X658250Y241500D01*
X645238D01*
X645208Y241726D01*
X644928Y242402D01*
X644482Y242982D01*
X644263Y243150D01*
X644263Y243781D01*
X644477Y243945D01*
X644921Y244524D01*
X645086Y244921D01*
X642500D01*
X639914D01*
X640079Y244524D01*
X640523Y243945D01*
X640737Y243781D01*
X640737Y243150D01*
X640518Y242982D01*
X640072Y242402D01*
X639792Y241726D01*
X639762Y241500D01*
X633127D01*
X632928Y241981D01*
X632482Y242561D01*
X632263Y242729D01*
X632263Y243359D01*
X632477Y243523D01*
X632921Y244102D01*
X633086Y244500D01*
X630500D01*
X627914D01*
X628079Y244102D01*
X628523Y243523D01*
X628737Y243359D01*
X628737Y242729D01*
X628518Y242561D01*
X628072Y241981D01*
X627873Y241500D01*
X584781D01*
X584601Y241638D01*
X583587Y242058D01*
X582500Y242201D01*
X581413Y242058D01*
X580399Y241638D01*
X580219Y241500D01*
X542500D01*
Y404705D01*
X543000Y404738D01*
X543103Y403956D01*
X543506Y402983D01*
X544147Y402147D01*
X544983Y401506D01*
X545956Y401103D01*
X547000Y400965D01*
X548044Y401103D01*
X549017Y401506D01*
X549853Y402147D01*
X550494Y402983D01*
X550897Y403956D01*
X551034Y405000D01*
X550897Y406044D01*
X550494Y407017D01*
X549853Y407853D01*
X549017Y408494D01*
X548044Y408897D01*
X547000Y409034D01*
X545956Y408897D01*
X544983Y408494D01*
X544147Y407853D01*
X543506Y407017D01*
X543103Y406044D01*
X543000Y405262D01*
X542500Y405295D01*
Y414705D01*
X543000Y414738D01*
X543103Y413956D01*
X543506Y412983D01*
X544147Y412147D01*
X544983Y411506D01*
X545956Y411103D01*
X546000Y411097D01*
Y415000D01*
Y418903D01*
X545956Y418897D01*
X544983Y418494D01*
X544147Y417853D01*
X543506Y417017D01*
X543103Y416044D01*
X543000Y415262D01*
X542500Y415295D01*
Y424705D01*
X543000Y424738D01*
X543103Y423956D01*
X543506Y422983D01*
X544147Y422147D01*
X544983Y421506D01*
X545956Y421103D01*
X547000Y420965D01*
X548044Y421103D01*
X549017Y421506D01*
X549853Y422147D01*
X550494Y422983D01*
X550897Y423956D01*
X551034Y425000D01*
X550897Y426044D01*
X550494Y427017D01*
X549853Y427853D01*
X549017Y428494D01*
X548044Y428897D01*
X547000Y429035D01*
X545956Y428897D01*
X544983Y428494D01*
X544147Y427853D01*
X543506Y427017D01*
X543103Y426044D01*
X543000Y425262D01*
X542500Y425295D01*
Y449951D01*
X715500D01*
Y241500D01*
D02*
G37*
%LPC*%
G36*
X532941Y323559D02*
X528000D01*
X523059D01*
X523344Y322871D01*
X523883Y322168D01*
X523618Y321692D01*
X522724Y321780D01*
X521273Y321637D01*
X519877Y321214D01*
X518590Y320526D01*
X517463Y319600D01*
X516537Y318473D01*
X515849Y317186D01*
X515426Y315790D01*
X515283Y314339D01*
X515426Y312887D01*
X515849Y311491D01*
X516537Y310204D01*
X517463Y309077D01*
X518590Y308151D01*
X519877Y307464D01*
X521273Y307040D01*
X522724Y306897D01*
X523618Y306985D01*
X523883Y306509D01*
X523344Y305806D01*
X523059Y305118D01*
X528000D01*
X532941D01*
X532656Y305806D01*
X531802Y306920D01*
X530688Y307774D01*
X529392Y308312D01*
X528056Y308487D01*
X527876Y308780D01*
X527810Y308932D01*
X527986Y309077D01*
X528912Y310204D01*
X529599Y311491D01*
X530023Y312887D01*
X530166Y314339D01*
X530023Y315790D01*
X529599Y317186D01*
X528912Y318473D01*
X527986Y319600D01*
X527810Y319745D01*
X527876Y319897D01*
X528056Y320190D01*
X529392Y320366D01*
X530688Y320903D01*
X531802Y321757D01*
X532656Y322871D01*
X532941Y323559D01*
D02*
G37*
G36*
X499500Y332995D02*
X498586Y332874D01*
X497735Y332522D01*
X497004Y331961D01*
X496443Y331230D01*
X496090Y330378D01*
X495970Y329465D01*
X496090Y328551D01*
X496443Y327699D01*
X497004Y326968D01*
X497735Y326407D01*
X498586Y326055D01*
X499500Y325934D01*
X500414Y326055D01*
X501265Y326407D01*
X501996Y326968D01*
X502557Y327699D01*
X502910Y328551D01*
X503030Y329465D01*
X502910Y330378D01*
X502557Y331230D01*
X501996Y331961D01*
X501265Y332522D01*
X500414Y332874D01*
X499500Y332995D01*
D02*
G37*
G36*
X526000Y330501D02*
X525312Y330215D01*
X524198Y329361D01*
X523344Y328247D01*
X523059Y327559D01*
X526000D01*
Y330501D01*
D02*
G37*
G36*
X530000D02*
Y327559D01*
X532941D01*
X532656Y328247D01*
X531802Y329361D01*
X530688Y330215D01*
X530000Y330501D01*
D02*
G37*
G36*
X501500Y305842D02*
Y304965D01*
X502377D01*
X501996Y305461D01*
X501500Y305842D01*
D02*
G37*
G36*
X226953Y356983D02*
X226039Y356863D01*
X225188Y356510D01*
X224457Y355949D01*
X223896Y355218D01*
X223543Y354366D01*
X223423Y353453D01*
X223543Y352539D01*
X223896Y351688D01*
X224457Y350957D01*
X225188Y350395D01*
X226039Y350043D01*
X226953Y349923D01*
X227866Y350043D01*
X228718Y350395D01*
X229449Y350957D01*
X230010Y351688D01*
X230363Y352539D01*
X230483Y353453D01*
X230363Y354366D01*
X230010Y355218D01*
X229449Y355949D01*
X228718Y356510D01*
X227866Y356863D01*
X226953Y356983D01*
D02*
G37*
G36*
X245000Y357795D02*
X243630Y357615D01*
X242352Y357086D01*
X241256Y356244D01*
X240414Y355148D01*
X239885Y353871D01*
X239705Y352500D01*
X239885Y351130D01*
X240414Y349852D01*
X241256Y348756D01*
X242352Y347914D01*
X243630Y347385D01*
X245000Y347205D01*
X246371Y347385D01*
X247648Y347914D01*
X248744Y348756D01*
X249586Y349852D01*
X250115Y351130D01*
X250295Y352500D01*
X250115Y353871D01*
X249586Y355148D01*
X248744Y356244D01*
X247648Y357086D01*
X246371Y357615D01*
X245000Y357795D01*
D02*
G37*
G36*
X422500Y354995D02*
X421586Y354874D01*
X420735Y354522D01*
X420004Y353961D01*
X419443Y353230D01*
X419090Y352378D01*
X418970Y351465D01*
X419090Y350551D01*
X419443Y349699D01*
X420004Y348968D01*
X420735Y348407D01*
X421586Y348055D01*
X422500Y347934D01*
X423414Y348055D01*
X424265Y348407D01*
X424996Y348968D01*
X425557Y349699D01*
X425910Y350551D01*
X426030Y351465D01*
X425910Y352378D01*
X425557Y353230D01*
X424996Y353961D01*
X424265Y354522D01*
X423414Y354874D01*
X422500Y354995D01*
D02*
G37*
G36*
X368000Y364256D02*
X366760Y364092D01*
X365604Y363614D01*
X364612Y362852D01*
X363851Y361860D01*
X363372Y360705D01*
X363209Y359465D01*
X363372Y358225D01*
X363851Y357069D01*
X364612Y356077D01*
X365604Y355315D01*
X366760Y354837D01*
X368000Y354674D01*
X369240Y354837D01*
X370395Y355315D01*
X371388Y356077D01*
X372149Y357069D01*
X372628Y358225D01*
X372791Y359465D01*
X372628Y360705D01*
X372149Y361860D01*
X371388Y362852D01*
X370395Y363614D01*
X369240Y364092D01*
X368000Y364256D01*
D02*
G37*
G36*
X354000Y366495D02*
X353086Y366374D01*
X352235Y366022D01*
X351504Y365461D01*
X350943Y364730D01*
X350590Y363878D01*
X350470Y362965D01*
X350590Y362051D01*
X350943Y361199D01*
X351504Y360468D01*
X352235Y359907D01*
X353086Y359555D01*
X354000Y359434D01*
X354914Y359555D01*
X355765Y359907D01*
X356496Y360468D01*
X357057Y361199D01*
X357410Y362051D01*
X357530Y362965D01*
X357410Y363878D01*
X357057Y364730D01*
X356496Y365461D01*
X355765Y366022D01*
X354914Y366374D01*
X354000Y366495D01*
D02*
G37*
G36*
X497500Y305842D02*
X497004Y305461D01*
X496623Y304965D01*
X497500D01*
Y305842D01*
D02*
G37*
G36*
X308906Y205195D02*
X308714Y205116D01*
X307806Y204419D01*
X307109Y203511D01*
X307029Y203319D01*
X308906D01*
Y205195D01*
D02*
G37*
G36*
X312906D02*
Y203319D01*
X314782D01*
X314702Y203511D01*
X314005Y204419D01*
X313098Y205116D01*
X312906Y205195D01*
D02*
G37*
G36*
X274000Y222530D02*
X273086Y222410D01*
X272235Y222057D01*
X271504Y221496D01*
X270943Y220765D01*
X270590Y219914D01*
X270470Y219000D01*
X270590Y218086D01*
X270943Y217235D01*
X271504Y216504D01*
X272235Y215943D01*
X273086Y215590D01*
X274000Y215470D01*
X274914Y215590D01*
X275765Y215943D01*
X276496Y216504D01*
X277057Y217235D01*
X277410Y218086D01*
X277530Y219000D01*
X277410Y219914D01*
X277057Y220765D01*
X276496Y221496D01*
X275765Y222057D01*
X274914Y222410D01*
X274000Y222530D01*
D02*
G37*
G36*
X301095Y205195D02*
Y203319D01*
X302971D01*
X302891Y203511D01*
X302194Y204419D01*
X301287Y205116D01*
X301095Y205195D01*
D02*
G37*
G36*
X308906Y199319D02*
X307029D01*
X307109Y199127D01*
X307806Y198219D01*
X308714Y197522D01*
X308906Y197443D01*
Y199319D01*
D02*
G37*
G36*
X314782D02*
X312906D01*
Y197443D01*
X313098Y197522D01*
X314005Y198219D01*
X314702Y199127D01*
X314782Y199319D01*
D02*
G37*
G36*
X297094Y205195D02*
X296902Y205116D01*
X295995Y204419D01*
X295298Y203511D01*
X295218Y203319D01*
X297094D01*
Y205195D01*
D02*
G37*
G36*
X482000Y238813D02*
Y234500D01*
Y230187D01*
X482396Y230351D01*
X483388Y231112D01*
X484119Y232065D01*
X484439Y232104D01*
X484644D01*
X484851Y231605D01*
X485612Y230612D01*
X486604Y229851D01*
X487000Y229687D01*
Y234000D01*
Y238313D01*
X486604Y238149D01*
X485612Y237388D01*
X484881Y236435D01*
X484561Y236396D01*
X484356D01*
X484149Y236895D01*
X483388Y237888D01*
X482396Y238649D01*
X482000Y238813D01*
D02*
G37*
G36*
X478000D02*
X477604Y238649D01*
X476612Y237888D01*
X475851Y236895D01*
X475687Y236500D01*
X478000D01*
Y238813D01*
D02*
G37*
G36*
X496000Y238313D02*
X495605Y238149D01*
X494612Y237388D01*
X493851Y236396D01*
X493750Y236152D01*
X493250D01*
X493149Y236396D01*
X492388Y237388D01*
X491396Y238149D01*
X491000Y238313D01*
Y234000D01*
Y229687D01*
X491396Y229851D01*
X492388Y230612D01*
X493149Y231605D01*
X493250Y231848D01*
X493750D01*
X493851Y231605D01*
X494612Y230612D01*
X495605Y229851D01*
X496000Y229687D01*
Y234000D01*
Y238313D01*
D02*
G37*
G36*
X502313Y232000D02*
X500000D01*
Y229687D01*
X500395Y229851D01*
X501388Y230612D01*
X502149Y231605D01*
X502313Y232000D01*
D02*
G37*
G36*
X478000Y232500D02*
X475687D01*
X475851Y232104D01*
X476612Y231112D01*
X477604Y230351D01*
X478000Y230187D01*
Y232500D01*
D02*
G37*
G36*
X500000Y238313D02*
Y236000D01*
X502313D01*
X502149Y236396D01*
X501388Y237388D01*
X500395Y238149D01*
X500000Y238313D01*
D02*
G37*
G36*
X267500Y193884D02*
X266365Y193735D01*
X265308Y193297D01*
X264400Y192600D01*
X263703Y191692D01*
X263265Y190635D01*
X263116Y189500D01*
X263265Y188365D01*
X263703Y187308D01*
X264400Y186400D01*
X265308Y185703D01*
X266365Y185265D01*
X267500Y185116D01*
X268635Y185265D01*
X269692Y185703D01*
X270600Y186400D01*
X271297Y187308D01*
X271735Y188365D01*
X271884Y189500D01*
X271735Y190635D01*
X271297Y191692D01*
X270600Y192600D01*
X269692Y193297D01*
X268635Y193735D01*
X267500Y193884D01*
D02*
G37*
G36*
X299095Y193892D02*
X297960Y193743D01*
X296902Y193305D01*
X295995Y192608D01*
X295298Y191700D01*
X294860Y190642D01*
X294710Y189508D01*
X294860Y188373D01*
X295298Y187316D01*
X295995Y186408D01*
X296902Y185711D01*
X297960Y185273D01*
X299095Y185124D01*
X300229Y185273D01*
X301287Y185711D01*
X302194Y186408D01*
X302891Y187316D01*
X303329Y188373D01*
X303479Y189508D01*
X303329Y190642D01*
X302891Y191700D01*
X302194Y192608D01*
X301287Y193305D01*
X300229Y193743D01*
X299095Y193892D01*
D02*
G37*
G36*
X310906D02*
X309771Y193743D01*
X308714Y193305D01*
X307806Y192608D01*
X307109Y191700D01*
X306671Y190642D01*
X306522Y189508D01*
X306671Y188373D01*
X307109Y187316D01*
X307806Y186408D01*
X308714Y185711D01*
X309771Y185273D01*
X310906Y185124D01*
X312040Y185273D01*
X313098Y185711D01*
X314005Y186408D01*
X314702Y187316D01*
X315140Y188373D01*
X315289Y189508D01*
X315140Y190642D01*
X314702Y191700D01*
X314005Y192608D01*
X313098Y193305D01*
X312040Y193743D01*
X310906Y193892D01*
D02*
G37*
G36*
X255689Y193884D02*
X254554Y193735D01*
X253497Y193297D01*
X252589Y192600D01*
X251892Y191692D01*
X251454Y190635D01*
X251305Y189500D01*
X251454Y188365D01*
X251892Y187308D01*
X252589Y186400D01*
X253497Y185703D01*
X254554Y185265D01*
X255689Y185116D01*
X256824Y185265D01*
X257881Y185703D01*
X258789Y186400D01*
X259486Y187308D01*
X259924Y188365D01*
X260073Y189500D01*
X259924Y190635D01*
X259486Y191692D01*
X258789Y192600D01*
X257881Y193297D01*
X256824Y193735D01*
X255689Y193884D01*
D02*
G37*
G36*
X261595Y181409D02*
X259855Y181238D01*
X258182Y180730D01*
X256641Y179906D01*
X255289Y178797D01*
X254180Y177446D01*
X253356Y175905D01*
X252849Y174232D01*
X252677Y172492D01*
X252849Y170753D01*
X253356Y169080D01*
X254180Y167538D01*
X255289Y166187D01*
X256641Y165078D01*
X258182Y164254D01*
X259855Y163747D01*
X261595Y163575D01*
X263334Y163747D01*
X265007Y164254D01*
X266548Y165078D01*
X267900Y166187D01*
X269009Y167538D01*
X269833Y169080D01*
X270340Y170753D01*
X270511Y172492D01*
X270340Y174232D01*
X269833Y175905D01*
X269009Y177446D01*
X267900Y178797D01*
X266548Y179906D01*
X265007Y180730D01*
X263334Y181238D01*
X261595Y181409D01*
D02*
G37*
G36*
X305000Y181417D02*
X303260Y181246D01*
X301588Y180738D01*
X300046Y179914D01*
X298695Y178805D01*
X297586Y177454D01*
X296762Y175912D01*
X296254Y174240D01*
X296083Y172500D01*
X296254Y170760D01*
X296762Y169088D01*
X297586Y167546D01*
X298695Y166195D01*
X300046Y165086D01*
X301588Y164262D01*
X303260Y163754D01*
X305000Y163583D01*
X306740Y163754D01*
X308412Y164262D01*
X309954Y165086D01*
X311305Y166195D01*
X312414Y167546D01*
X313238Y169088D01*
X313746Y170760D01*
X313917Y172500D01*
X313746Y174240D01*
X313238Y175912D01*
X312414Y177454D01*
X311305Y178805D01*
X309954Y179914D01*
X308412Y180738D01*
X306740Y181246D01*
X305000Y181417D01*
D02*
G37*
G36*
X347500D02*
X345760Y181246D01*
X344088Y180738D01*
X342546Y179914D01*
X341195Y178805D01*
X340086Y177454D01*
X339262Y175912D01*
X338754Y174240D01*
X338583Y172500D01*
X338754Y170760D01*
X339262Y169088D01*
X340086Y167546D01*
X341195Y166195D01*
X342546Y165086D01*
X344088Y164262D01*
X345760Y163754D01*
X347500Y163583D01*
X349240Y163754D01*
X350912Y164262D01*
X352454Y165086D01*
X353805Y166195D01*
X354914Y167546D01*
X355738Y169088D01*
X356246Y170760D01*
X356417Y172500D01*
X356246Y174240D01*
X355738Y175912D01*
X354914Y177454D01*
X353805Y178805D01*
X352454Y179914D01*
X350912Y180738D01*
X349240Y181246D01*
X347500Y181417D01*
D02*
G37*
G36*
X341595Y193892D02*
X340460Y193743D01*
X339403Y193305D01*
X338495Y192608D01*
X337798Y191700D01*
X337360Y190642D01*
X337210Y189508D01*
X337360Y188373D01*
X337798Y187316D01*
X338495Y186408D01*
X339403Y185711D01*
X340460Y185273D01*
X341595Y185124D01*
X342729Y185273D01*
X343787Y185711D01*
X344694Y186408D01*
X345391Y187316D01*
X345829Y188373D01*
X345978Y189508D01*
X345829Y190642D01*
X345391Y191700D01*
X344694Y192608D01*
X343787Y193305D01*
X342729Y193743D01*
X341595Y193892D01*
D02*
G37*
G36*
X353405Y205703D02*
X352271Y205554D01*
X351214Y205116D01*
X350306Y204419D01*
X349609Y203511D01*
X349171Y202453D01*
X349022Y201319D01*
X349171Y200184D01*
X349609Y199127D01*
X350306Y198219D01*
X351214Y197522D01*
X352271Y197084D01*
X353405Y196935D01*
X354540Y197084D01*
X355597Y197522D01*
X356505Y198219D01*
X357202Y199127D01*
X357640Y200184D01*
X357789Y201319D01*
X357640Y202453D01*
X357202Y203511D01*
X356505Y204419D01*
X355597Y205116D01*
X354540Y205554D01*
X353405Y205703D01*
D02*
G37*
G36*
X297094Y199319D02*
X295218D01*
X295298Y199127D01*
X295995Y198219D01*
X296902Y197522D01*
X297094Y197443D01*
Y199319D01*
D02*
G37*
G36*
X302971D02*
X301095D01*
Y197443D01*
X301287Y197522D01*
X302194Y198219D01*
X302891Y199127D01*
X302971Y199319D01*
D02*
G37*
G36*
X341595Y205703D02*
X340460Y205554D01*
X339403Y205116D01*
X338495Y204419D01*
X337798Y203511D01*
X337360Y202453D01*
X337210Y201319D01*
X337360Y200184D01*
X337798Y199127D01*
X338495Y198219D01*
X339403Y197522D01*
X340460Y197084D01*
X341595Y196935D01*
X342729Y197084D01*
X343787Y197522D01*
X344694Y198219D01*
X345391Y199127D01*
X345829Y200184D01*
X345978Y201319D01*
X345829Y202453D01*
X345391Y203511D01*
X344694Y204419D01*
X343787Y205116D01*
X342729Y205554D01*
X341595Y205703D01*
D02*
G37*
G36*
X353405Y193892D02*
X352271Y193743D01*
X351214Y193305D01*
X350306Y192608D01*
X349609Y191700D01*
X349171Y190642D01*
X349022Y189508D01*
X349171Y188373D01*
X349609Y187316D01*
X350306Y186408D01*
X351214Y185711D01*
X352271Y185273D01*
X353405Y185124D01*
X354540Y185273D01*
X355597Y185711D01*
X356505Y186408D01*
X357202Y187316D01*
X357640Y188373D01*
X357789Y189508D01*
X357640Y190642D01*
X357202Y191700D01*
X356505Y192608D01*
X355597Y193305D01*
X354540Y193743D01*
X353405Y193892D01*
D02*
G37*
G36*
X255689Y205695D02*
X254554Y205546D01*
X253497Y205108D01*
X252589Y204411D01*
X251892Y203503D01*
X251454Y202446D01*
X251305Y201311D01*
X251454Y200176D01*
X251892Y199119D01*
X252589Y198211D01*
X253497Y197514D01*
X254554Y197076D01*
X255689Y196927D01*
X256824Y197076D01*
X257881Y197514D01*
X258789Y198211D01*
X259486Y199119D01*
X259924Y200176D01*
X260073Y201311D01*
X259924Y202446D01*
X259486Y203503D01*
X258789Y204411D01*
X257881Y205108D01*
X256824Y205546D01*
X255689Y205695D01*
D02*
G37*
G36*
X267500D02*
X266365Y205546D01*
X265308Y205108D01*
X264400Y204411D01*
X263703Y203503D01*
X263265Y202446D01*
X263116Y201311D01*
X263265Y200176D01*
X263703Y199119D01*
X264400Y198211D01*
X265308Y197514D01*
X266365Y197076D01*
X267500Y196927D01*
X268635Y197076D01*
X269692Y197514D01*
X270600Y198211D01*
X271297Y199119D01*
X271735Y200176D01*
X271884Y201311D01*
X271735Y202446D01*
X271297Y203503D01*
X270600Y204411D01*
X269692Y205108D01*
X268635Y205546D01*
X267500Y205695D01*
D02*
G37*
G36*
X371685Y293495D02*
X370771Y293374D01*
X369920Y293022D01*
X369189Y292461D01*
X368628Y291730D01*
X368275Y290878D01*
X368155Y289965D01*
X368275Y289051D01*
X368628Y288199D01*
X369189Y287468D01*
X369920Y286907D01*
X370771Y286555D01*
X371685Y286434D01*
X372599Y286555D01*
X373450Y286907D01*
X374181Y287468D01*
X374742Y288199D01*
X375095Y289051D01*
X375215Y289965D01*
X375095Y290878D01*
X374742Y291730D01*
X374181Y292461D01*
X373450Y293022D01*
X372599Y293374D01*
X371685Y293495D01*
D02*
G37*
G36*
X422000Y295495D02*
X421086Y295374D01*
X420235Y295022D01*
X419504Y294461D01*
X418943Y293730D01*
X418590Y292878D01*
X418470Y291965D01*
X418590Y291051D01*
X418943Y290199D01*
X419504Y289468D01*
X420235Y288907D01*
X421086Y288555D01*
X422000Y288434D01*
X422914Y288555D01*
X423765Y288907D01*
X424496Y289468D01*
X425057Y290199D01*
X425410Y291051D01*
X425530Y291965D01*
X425410Y292878D01*
X425057Y293730D01*
X424496Y294461D01*
X423765Y295022D01*
X422914Y295374D01*
X422000Y295495D01*
D02*
G37*
G36*
X532941Y301118D02*
X530000D01*
Y298177D01*
X530688Y298462D01*
X531802Y299316D01*
X532656Y300430D01*
X532941Y301118D01*
D02*
G37*
G36*
X245000Y295295D02*
X243630Y295115D01*
X242352Y294586D01*
X241256Y293744D01*
X240414Y292648D01*
X239885Y291371D01*
X239705Y290000D01*
X239885Y288630D01*
X240414Y287352D01*
X241256Y286256D01*
X242352Y285414D01*
X243630Y284885D01*
X245000Y284705D01*
X246371Y284885D01*
X247648Y285414D01*
X248744Y286256D01*
X249586Y287352D01*
X250115Y288630D01*
X250295Y290000D01*
X250115Y291371D01*
X249586Y292648D01*
X248744Y293744D01*
X247648Y294586D01*
X246371Y295115D01*
X245000Y295295D01*
D02*
G37*
G36*
X320000D02*
X318630Y295115D01*
X317352Y294586D01*
X316256Y293744D01*
X315414Y292648D01*
X314885Y291371D01*
X314705Y290000D01*
X314885Y288630D01*
X315414Y287352D01*
X316256Y286256D01*
X317352Y285414D01*
X318630Y284885D01*
X320000Y284705D01*
X321371Y284885D01*
X322648Y285414D01*
X323744Y286256D01*
X324586Y287352D01*
X325115Y288630D01*
X325295Y290000D01*
X325115Y291371D01*
X324586Y292648D01*
X323744Y293744D01*
X322648Y294586D01*
X321371Y295115D01*
X320000Y295295D01*
D02*
G37*
G36*
X526000Y301118D02*
X523059D01*
X523344Y300430D01*
X524198Y299316D01*
X525312Y298462D01*
X526000Y298177D01*
Y301118D01*
D02*
G37*
G36*
X497500Y300965D02*
X496623D01*
X497004Y300468D01*
X497500Y300088D01*
Y300965D01*
D02*
G37*
G36*
X502377D02*
X501500D01*
Y300088D01*
X501996Y300468D01*
X502377Y300965D01*
D02*
G37*
G36*
X319750Y259545D02*
X318379Y259365D01*
X317102Y258836D01*
X316006Y257994D01*
X315164Y256898D01*
X314635Y255621D01*
X314455Y254250D01*
X314635Y252880D01*
X315164Y251602D01*
X316006Y250506D01*
X317102Y249664D01*
X318379Y249135D01*
X319750Y248955D01*
X321121Y249135D01*
X322398Y249664D01*
X323494Y250506D01*
X324336Y251602D01*
X324865Y252880D01*
X325045Y254250D01*
X324865Y255621D01*
X324336Y256898D01*
X323494Y257994D01*
X322398Y258836D01*
X321121Y259365D01*
X319750Y259545D01*
D02*
G37*
G36*
X398000Y262495D02*
X397086Y262374D01*
X396235Y262022D01*
X395504Y261461D01*
X394943Y260730D01*
X394590Y259878D01*
X394470Y258965D01*
X394590Y258051D01*
X394943Y257200D01*
X395504Y256468D01*
X396235Y255907D01*
X397086Y255555D01*
X398000Y255434D01*
X398914Y255555D01*
X399765Y255907D01*
X400496Y256468D01*
X401057Y257200D01*
X401410Y258051D01*
X401530Y258965D01*
X401410Y259878D01*
X401057Y260730D01*
X400496Y261461D01*
X399765Y262022D01*
X398914Y262374D01*
X398000Y262495D01*
D02*
G37*
G36*
X245000Y370295D02*
X243630Y370115D01*
X242352Y369586D01*
X241256Y368744D01*
X240414Y367648D01*
X239885Y366371D01*
X239705Y365000D01*
X239885Y363630D01*
X240414Y362352D01*
X241256Y361256D01*
X242352Y360414D01*
X243630Y359885D01*
X245000Y359705D01*
X246371Y359885D01*
X247648Y360414D01*
X248744Y361256D01*
X249586Y362352D01*
X250115Y363630D01*
X250295Y365000D01*
X250115Y366371D01*
X249586Y367648D01*
X248744Y368744D01*
X247648Y369586D01*
X246371Y370115D01*
X245000Y370295D01*
D02*
G37*
G36*
X464500Y418738D02*
X463782Y418644D01*
X463113Y418367D01*
X462539Y417926D01*
X462098Y417351D01*
X461821Y416682D01*
X461726Y415965D01*
X461821Y415247D01*
X462098Y414578D01*
X462539Y414003D01*
X463113Y413562D01*
X463782Y413285D01*
X464500Y413191D01*
X465218Y413285D01*
X465887Y413562D01*
X466461Y414003D01*
X466902Y414578D01*
X467179Y415247D01*
X467274Y415965D01*
X467179Y416682D01*
X466902Y417351D01*
X466461Y417926D01*
X465887Y418367D01*
X465218Y418644D01*
X464500Y418738D01*
D02*
G37*
G36*
X486500Y414995D02*
X485586Y414875D01*
X484735Y414522D01*
X484004Y413961D01*
X483443Y413230D01*
X483090Y412378D01*
X482970Y411465D01*
X483090Y410551D01*
X483443Y409699D01*
X484004Y408968D01*
X484735Y408407D01*
X485586Y408055D01*
X486500Y407934D01*
X487414Y408055D01*
X488265Y408407D01*
X488996Y408968D01*
X489557Y409699D01*
X489910Y410551D01*
X490030Y411465D01*
X489910Y412378D01*
X489557Y413230D01*
X488996Y413961D01*
X488265Y414522D01*
X487414Y414875D01*
X486500Y414995D01*
D02*
G37*
G36*
X227000Y413030D02*
X226086Y412910D01*
X225235Y412557D01*
X224504Y411996D01*
X223943Y411265D01*
X223590Y410414D01*
X223470Y409500D01*
X223590Y408586D01*
X223943Y407735D01*
X224504Y407004D01*
X225235Y406443D01*
X226086Y406090D01*
X227000Y405970D01*
X227914Y406090D01*
X228765Y406443D01*
X229496Y407004D01*
X230057Y407735D01*
X230410Y408586D01*
X230530Y409500D01*
X230410Y410414D01*
X230057Y411265D01*
X229496Y411996D01*
X228765Y412557D01*
X227914Y412910D01*
X227000Y413030D01*
D02*
G37*
G36*
X468000Y403738D02*
X467282Y403644D01*
X466613Y403367D01*
X466039Y402926D01*
X465598Y402351D01*
X465321Y401683D01*
X465290Y401450D01*
X464759Y401250D01*
X464387Y401536D01*
X463718Y401813D01*
X463000Y401908D01*
X462282Y401813D01*
X461613Y401536D01*
X461039Y401095D01*
X460598Y400521D01*
X460321Y399852D01*
X460226Y399134D01*
X460321Y398416D01*
X460598Y397747D01*
X461039Y397173D01*
X461613Y396732D01*
X462282Y396455D01*
X463000Y396360D01*
X463718Y396455D01*
X464387Y396732D01*
X464961Y397173D01*
X465007Y397233D01*
X465444Y396981D01*
X465321Y396683D01*
X465226Y395965D01*
X465321Y395247D01*
X465598Y394578D01*
X466039Y394003D01*
X466613Y393562D01*
X467282Y393285D01*
X468000Y393191D01*
X468718Y393285D01*
X469387Y393562D01*
X469869Y393933D01*
X472971Y390831D01*
Y368098D01*
X458121Y353249D01*
X457765Y353522D01*
X456914Y353874D01*
X456000Y353995D01*
X455086Y353874D01*
X454235Y353522D01*
X453504Y352961D01*
X452943Y352230D01*
X452590Y351378D01*
X452470Y350465D01*
X452590Y349551D01*
X452943Y348699D01*
X453504Y347968D01*
X454235Y347407D01*
X455086Y347055D01*
X456000Y346934D01*
X456914Y347055D01*
X457765Y347407D01*
X458496Y347968D01*
X459057Y348699D01*
X459410Y349551D01*
X459510Y350312D01*
X475581Y366383D01*
X475913Y366879D01*
X476029Y367465D01*
Y391465D01*
X475913Y392050D01*
X475581Y392546D01*
X470479Y397648D01*
X470479Y397648D01*
X469983Y397980D01*
X469859Y398005D01*
X469660Y398157D01*
Y398772D01*
X469961Y399003D01*
X470402Y399578D01*
X470679Y400247D01*
X470774Y400965D01*
X470679Y401683D01*
X470402Y402351D01*
X469961Y402926D01*
X469387Y403367D01*
X468718Y403644D01*
X468000Y403738D01*
D02*
G37*
G36*
X466500Y411376D02*
Y409465D01*
Y407229D01*
X466743Y407089D01*
X466726Y406965D01*
X466821Y406247D01*
X467098Y405578D01*
X467539Y405003D01*
X468113Y404562D01*
X468782Y404285D01*
X469500Y404191D01*
X470218Y404285D01*
X470887Y404562D01*
X471461Y405003D01*
X471902Y405578D01*
X472179Y406247D01*
X472274Y406965D01*
X472179Y407683D01*
X471902Y408351D01*
X471461Y408926D01*
X470887Y409367D01*
X470218Y409644D01*
X469500Y409738D01*
X468782Y409644D01*
X468113Y409367D01*
X467726Y409070D01*
X467257Y409340D01*
X467274Y409465D01*
X467179Y410183D01*
X466902Y410851D01*
X466500Y411376D01*
D02*
G37*
G36*
X388500Y412995D02*
X387586Y412875D01*
X386735Y412522D01*
X386004Y411961D01*
X385443Y411230D01*
X385090Y410378D01*
X384970Y409465D01*
X385090Y408551D01*
X385443Y407699D01*
X386004Y406968D01*
X386735Y406407D01*
X387586Y406055D01*
X388500Y405934D01*
X389414Y406055D01*
X390265Y406407D01*
X390996Y406968D01*
X391557Y407699D01*
X391910Y408551D01*
X392030Y409465D01*
X391910Y410378D01*
X391557Y411230D01*
X390996Y411961D01*
X390265Y412522D01*
X389414Y412875D01*
X388500Y412995D01*
D02*
G37*
G36*
X320000Y432795D02*
X318630Y432615D01*
X317352Y432086D01*
X316256Y431244D01*
X315414Y430148D01*
X314885Y428870D01*
X314705Y427500D01*
X314885Y426129D01*
X315414Y424852D01*
X316256Y423756D01*
X317352Y422914D01*
X318630Y422385D01*
X320000Y422205D01*
X321371Y422385D01*
X322648Y422914D01*
X323744Y423756D01*
X324586Y424852D01*
X325115Y426129D01*
X325295Y427500D01*
X325115Y428870D01*
X324586Y430148D01*
X323744Y431244D01*
X322648Y432086D01*
X321371Y432615D01*
X320000Y432795D01*
D02*
G37*
G36*
X243000Y425500D02*
X240146D01*
X240414Y424852D01*
X241256Y423756D01*
X242352Y422914D01*
X243000Y422646D01*
Y425500D01*
D02*
G37*
G36*
X249854D02*
X247000D01*
Y422646D01*
X247648Y422914D01*
X248744Y423756D01*
X249586Y424852D01*
X249854Y425500D01*
D02*
G37*
G36*
X434500Y432495D02*
X433586Y432374D01*
X432735Y432022D01*
X432004Y431461D01*
X431443Y430730D01*
X431090Y429878D01*
X430970Y428965D01*
X431090Y428051D01*
X431443Y427200D01*
X432004Y426468D01*
X432735Y425907D01*
X433586Y425555D01*
X434500Y425434D01*
X435414Y425555D01*
X436265Y425907D01*
X436996Y426468D01*
X437557Y427200D01*
X437910Y428051D01*
X438030Y428965D01*
X437910Y429878D01*
X437557Y430730D01*
X436996Y431461D01*
X436265Y432022D01*
X435414Y432374D01*
X434500Y432495D01*
D02*
G37*
G36*
X457500Y431842D02*
X457004Y431461D01*
X456623Y430965D01*
X457500D01*
Y431842D01*
D02*
G37*
G36*
X461500D02*
Y430965D01*
X462377D01*
X461996Y431461D01*
X461500Y431842D01*
D02*
G37*
G36*
X400000Y438495D02*
X399086Y438375D01*
X398235Y438022D01*
X397504Y437461D01*
X396943Y436730D01*
X396590Y435878D01*
X396470Y434965D01*
X396590Y434051D01*
X396943Y433200D01*
X397504Y432468D01*
X398235Y431907D01*
X399086Y431555D01*
X400000Y431434D01*
X400914Y431555D01*
X401765Y431907D01*
X402496Y432468D01*
X403057Y433200D01*
X403410Y434051D01*
X403530Y434965D01*
X403410Y435878D01*
X403057Y436730D01*
X402496Y437461D01*
X401765Y438022D01*
X400914Y438375D01*
X400000Y438495D01*
D02*
G37*
G36*
X247000Y432354D02*
Y429500D01*
X249854D01*
X249586Y430148D01*
X248744Y431244D01*
X247648Y432086D01*
X247000Y432354D01*
D02*
G37*
G36*
X457500Y426965D02*
X456623D01*
X457004Y426468D01*
X457500Y426088D01*
Y426965D01*
D02*
G37*
G36*
X462377D02*
X461500D01*
Y426088D01*
X461996Y426468D01*
X462377Y426965D01*
D02*
G37*
G36*
X243000Y432354D02*
X242352Y432086D01*
X241256Y431244D01*
X240414Y430148D01*
X240146Y429500D01*
X243000D01*
Y432354D01*
D02*
G37*
G36*
X245000Y382795D02*
X243630Y382615D01*
X242352Y382086D01*
X241256Y381244D01*
X240414Y380148D01*
X239885Y378871D01*
X239705Y377500D01*
X239885Y376130D01*
X240414Y374852D01*
X241256Y373756D01*
X242352Y372914D01*
X243630Y372385D01*
X245000Y372205D01*
X246371Y372385D01*
X247648Y372914D01*
X248744Y373756D01*
X249586Y374852D01*
X250115Y376130D01*
X250295Y377500D01*
X250115Y378871D01*
X249586Y380148D01*
X248744Y381244D01*
X247648Y382086D01*
X246371Y382615D01*
X245000Y382795D01*
D02*
G37*
G36*
X441000Y369965D02*
X440123D01*
X440504Y369468D01*
X441000Y369088D01*
Y369965D01*
D02*
G37*
G36*
X445877D02*
X445000D01*
Y369088D01*
X445496Y369468D01*
X445877Y369965D01*
D02*
G37*
G36*
X458000Y385238D02*
X457282Y385144D01*
X456613Y384867D01*
X456039Y384426D01*
X455598Y383851D01*
X455321Y383183D01*
X455226Y382465D01*
X455321Y381747D01*
X455598Y381078D01*
X456039Y380503D01*
X456613Y380062D01*
X457282Y379785D01*
X458000Y379691D01*
X458540Y379762D01*
X466419Y371883D01*
X466915Y371552D01*
X467155Y371504D01*
X467539Y371003D01*
X468113Y370562D01*
X468782Y370285D01*
X469500Y370191D01*
X470218Y370285D01*
X470887Y370562D01*
X471461Y371003D01*
X471902Y371578D01*
X472179Y372247D01*
X472274Y372965D01*
X472179Y373682D01*
X471902Y374351D01*
X471461Y374926D01*
X470887Y375367D01*
X470218Y375644D01*
X469500Y375738D01*
X468782Y375644D01*
X468113Y375367D01*
X467631Y374997D01*
X460703Y381925D01*
X460774Y382465D01*
X460679Y383183D01*
X460402Y383851D01*
X459961Y384426D01*
X459387Y384867D01*
X458718Y385144D01*
X458000Y385238D01*
D02*
G37*
G36*
X443000Y382495D02*
X442086Y382375D01*
X441235Y382022D01*
X440504Y381461D01*
X439943Y380730D01*
X439590Y379878D01*
X439470Y378965D01*
X439590Y378051D01*
X439943Y377200D01*
X440504Y376468D01*
X441235Y375907D01*
X441650Y375735D01*
Y375194D01*
X441235Y375022D01*
X440504Y374461D01*
X440123Y373965D01*
X445877D01*
X445496Y374461D01*
X444765Y375022D01*
X444349Y375194D01*
Y375735D01*
X444765Y375907D01*
X445496Y376468D01*
X446057Y377200D01*
X446410Y378051D01*
X446530Y378965D01*
X446410Y379878D01*
X446057Y380730D01*
X445496Y381461D01*
X444765Y382022D01*
X443914Y382375D01*
X443000Y382495D01*
D02*
G37*
G36*
X459000Y366738D02*
X458282Y366644D01*
X457613Y366367D01*
X457039Y365926D01*
X456598Y365351D01*
X456321Y364683D01*
X456226Y363965D01*
X456297Y363425D01*
X446867Y353994D01*
X436000D01*
X435415Y353877D01*
X434919Y353546D01*
X429919Y348546D01*
X429587Y348050D01*
X429471Y347465D01*
Y296465D01*
X429587Y295879D01*
X429919Y295383D01*
X432188Y293114D01*
X432090Y292878D01*
X431970Y291965D01*
X432090Y291051D01*
X432443Y290199D01*
X433004Y289468D01*
X433735Y288907D01*
X434586Y288555D01*
X435500Y288434D01*
X436414Y288555D01*
X437265Y288907D01*
X437996Y289468D01*
X438557Y290199D01*
X438910Y291051D01*
X439030Y291965D01*
X438910Y292878D01*
X438557Y293730D01*
X437996Y294461D01*
X437265Y295022D01*
X436414Y295374D01*
X435500Y295495D01*
X434586Y295374D01*
X434351Y295277D01*
X432529Y297098D01*
Y346831D01*
X436633Y350935D01*
X447500D01*
X448085Y351052D01*
X448581Y351383D01*
X458460Y361262D01*
X459000Y361191D01*
X459718Y361285D01*
X460387Y361562D01*
X460961Y362003D01*
X461402Y362578D01*
X461679Y363247D01*
X461774Y363965D01*
X461679Y364683D01*
X461402Y365351D01*
X460961Y365926D01*
X460387Y366367D01*
X459718Y366644D01*
X459000Y366738D01*
D02*
G37*
G36*
X402000Y376256D02*
X400760Y376092D01*
X399605Y375614D01*
X398612Y374852D01*
X397851Y373860D01*
X397372Y372705D01*
X397209Y371465D01*
X397372Y370225D01*
X397851Y369069D01*
X398612Y368077D01*
X399605Y367316D01*
X400760Y366837D01*
X402000Y366674D01*
X403240Y366837D01*
X404395Y367316D01*
X405388Y368077D01*
X406149Y369069D01*
X406628Y370225D01*
X406791Y371465D01*
X406628Y372705D01*
X406149Y373860D01*
X405388Y374852D01*
X404395Y375614D01*
X403240Y376092D01*
X402000Y376256D01*
D02*
G37*
G36*
X412500D02*
X411260Y376092D01*
X410105Y375614D01*
X409112Y374852D01*
X408351Y373860D01*
X407872Y372705D01*
X407709Y371465D01*
X407872Y370225D01*
X408351Y369069D01*
X409112Y368077D01*
X410105Y367316D01*
X411260Y366837D01*
X412500Y366674D01*
X413740Y366837D01*
X414895Y367316D01*
X415888Y368077D01*
X416649Y369069D01*
X417128Y370225D01*
X417291Y371465D01*
X417128Y372705D01*
X416649Y373860D01*
X415888Y374852D01*
X414895Y375614D01*
X413740Y376092D01*
X412500Y376256D01*
D02*
G37*
G36*
X528000Y375818D02*
X526608Y375635D01*
X525312Y375097D01*
X524198Y374243D01*
X523344Y373129D01*
X522807Y371832D01*
X522623Y370441D01*
X522807Y369049D01*
X523344Y367753D01*
X523883Y367050D01*
X523618Y366574D01*
X522724Y366662D01*
X521273Y366519D01*
X519877Y366095D01*
X518590Y365408D01*
X517463Y364482D01*
X516537Y363355D01*
X515849Y362068D01*
X515426Y360672D01*
X515283Y359221D01*
X515426Y357769D01*
X515849Y356373D01*
X516537Y355086D01*
X517463Y353959D01*
X518590Y353033D01*
X519877Y352346D01*
X521273Y351922D01*
X522724Y351779D01*
X523618Y351867D01*
X523883Y351391D01*
X523344Y350688D01*
X522807Y349392D01*
X522623Y348000D01*
X522807Y346608D01*
X523344Y345312D01*
X524198Y344198D01*
X525312Y343344D01*
X526608Y342807D01*
X528000Y342623D01*
X529392Y342807D01*
X530688Y343344D01*
X531802Y344198D01*
X532656Y345312D01*
X533193Y346608D01*
X533377Y348000D01*
X533193Y349392D01*
X532656Y350688D01*
X531802Y351802D01*
X530688Y352656D01*
X529392Y353193D01*
X528056Y353369D01*
X527876Y353662D01*
X527810Y353814D01*
X527986Y353959D01*
X528912Y355086D01*
X529599Y356373D01*
X530023Y357769D01*
X530166Y359221D01*
X530023Y360672D01*
X529599Y362068D01*
X528912Y363355D01*
X527986Y364482D01*
X527810Y364627D01*
X527876Y364779D01*
X528056Y365072D01*
X529392Y365247D01*
X530688Y365785D01*
X531802Y366639D01*
X532656Y367753D01*
X533193Y369049D01*
X533377Y370441D01*
X533193Y371832D01*
X532656Y373129D01*
X531802Y374243D01*
X530688Y375097D01*
X529392Y375635D01*
X528000Y375818D01*
D02*
G37*
G36*
X462984Y371754D02*
X462266Y371659D01*
X461597Y371382D01*
X461023Y370942D01*
X460582Y370367D01*
X460305Y369698D01*
X460211Y368980D01*
X460305Y368262D01*
X460582Y367594D01*
X461023Y367019D01*
X461597Y366578D01*
X462266Y366301D01*
X462984Y366207D01*
X463702Y366301D01*
X464371Y366578D01*
X464946Y367019D01*
X465386Y367594D01*
X465663Y368262D01*
X465758Y368980D01*
X465663Y369698D01*
X465386Y370367D01*
X464946Y370942D01*
X464371Y371382D01*
X463702Y371659D01*
X462984Y371754D01*
D02*
G37*
G36*
X379000Y403495D02*
X378086Y403374D01*
X377235Y403022D01*
X376504Y402461D01*
X375943Y401730D01*
X375590Y400878D01*
X375470Y399965D01*
X375590Y399051D01*
X375943Y398200D01*
X376504Y397468D01*
X377235Y396907D01*
X378086Y396555D01*
X379000Y396434D01*
X379914Y396555D01*
X380765Y396907D01*
X381496Y397468D01*
X382057Y398200D01*
X382410Y399051D01*
X382530Y399965D01*
X382410Y400878D01*
X382057Y401730D01*
X381496Y402461D01*
X380765Y403022D01*
X379914Y403374D01*
X379000Y403495D01*
D02*
G37*
G36*
X418500Y406238D02*
X417782Y406144D01*
X417113Y405867D01*
X416539Y405426D01*
X416098Y404851D01*
X415821Y404182D01*
X415726Y403465D01*
X415821Y402747D01*
X416098Y402078D01*
X416539Y401503D01*
X417113Y401062D01*
X417782Y400785D01*
X418500Y400691D01*
X419218Y400785D01*
X419887Y401062D01*
X420461Y401503D01*
X420902Y402078D01*
X421179Y402747D01*
X421274Y403465D01*
X421179Y404182D01*
X420902Y404851D01*
X420461Y405426D01*
X419887Y405867D01*
X419218Y406144D01*
X418500Y406238D01*
D02*
G37*
G36*
X487000Y389495D02*
X486086Y389374D01*
X485235Y389022D01*
X484504Y388461D01*
X483943Y387730D01*
X483590Y386878D01*
X483470Y385965D01*
X483590Y385051D01*
X483943Y384200D01*
X484504Y383468D01*
X485235Y382907D01*
X486086Y382555D01*
X487000Y382434D01*
X487914Y382555D01*
X488765Y382907D01*
X489496Y383468D01*
X490057Y384200D01*
X490410Y385051D01*
X490530Y385965D01*
X490410Y386878D01*
X490057Y387730D01*
X489496Y388461D01*
X488765Y389022D01*
X487914Y389374D01*
X487000Y389495D01*
D02*
G37*
G36*
X379000Y384995D02*
X378086Y384875D01*
X377235Y384522D01*
X376504Y383961D01*
X375943Y383230D01*
X375590Y382378D01*
X375470Y381465D01*
X375590Y380551D01*
X375943Y379699D01*
X376504Y378968D01*
X377235Y378407D01*
X378086Y378055D01*
X379000Y377934D01*
X379914Y378055D01*
X380765Y378407D01*
X381496Y378968D01*
X382057Y379699D01*
X382410Y380551D01*
X382530Y381465D01*
X382410Y382378D01*
X382057Y383230D01*
X381496Y383961D01*
X380765Y384522D01*
X379914Y384875D01*
X379000Y384995D01*
D02*
G37*
G36*
X399500Y390180D02*
X398586Y390059D01*
X397735Y389707D01*
X397004Y389146D01*
X396443Y388415D01*
X396090Y387563D01*
X395970Y386650D01*
X396090Y385736D01*
X396443Y384885D01*
X397004Y384153D01*
X397735Y383592D01*
X398586Y383240D01*
X399500Y383119D01*
X400414Y383240D01*
X401265Y383592D01*
X401996Y384153D01*
X402557Y384885D01*
X402910Y385736D01*
X403030Y386650D01*
X402910Y387563D01*
X402557Y388415D01*
X401996Y389146D01*
X401265Y389707D01*
X400414Y390059D01*
X399500Y390180D01*
D02*
G37*
G36*
X419000Y397495D02*
X418086Y397375D01*
X417235Y397022D01*
X416504Y396461D01*
X415943Y395730D01*
X415590Y394878D01*
X415470Y393965D01*
X415590Y393051D01*
X415943Y392199D01*
X416504Y391468D01*
X417235Y390907D01*
X418086Y390555D01*
X419000Y390434D01*
X419914Y390555D01*
X420765Y390907D01*
X421496Y391468D01*
X422057Y392199D01*
X422410Y393051D01*
X422530Y393965D01*
X422410Y394878D01*
X422057Y395730D01*
X421496Y396461D01*
X420765Y397022D01*
X419914Y397375D01*
X419000Y397495D01*
D02*
G37*
G36*
X462500Y393738D02*
X461782Y393644D01*
X461113Y393367D01*
X460539Y392926D01*
X460098Y392351D01*
X459821Y391683D01*
X459726Y390965D01*
X459821Y390247D01*
X460098Y389578D01*
X460539Y389003D01*
X461113Y388562D01*
X461782Y388285D01*
X462500Y388191D01*
X463218Y388285D01*
X463887Y388562D01*
X464461Y389003D01*
X464902Y389578D01*
X465179Y390247D01*
X465274Y390965D01*
X465179Y391683D01*
X464902Y392351D01*
X464461Y392926D01*
X463887Y393367D01*
X463218Y393644D01*
X462500Y393738D01*
D02*
G37*
G36*
X701500Y333535D02*
X700456Y333397D01*
X699483Y332994D01*
X698647Y332353D01*
X698006Y331517D01*
X697603Y330544D01*
X697466Y329500D01*
X697603Y328456D01*
X698006Y327483D01*
X698647Y326647D01*
X699483Y326006D01*
X700456Y325603D01*
X701500Y325465D01*
X702544Y325603D01*
X703517Y326006D01*
X704353Y326647D01*
X704994Y327483D01*
X705397Y328456D01*
X705535Y329500D01*
X705397Y330544D01*
X704994Y331517D01*
X704353Y332353D01*
X703517Y332994D01*
X702544Y333397D01*
X701500Y333535D01*
D02*
G37*
G36*
X690500Y328500D02*
X687597D01*
X687603Y328456D01*
X688006Y327483D01*
X688647Y326647D01*
X689483Y326006D01*
X690456Y325603D01*
X690500Y325597D01*
Y328500D01*
D02*
G37*
G36*
X692500Y323403D02*
Y320500D01*
X695403D01*
X695397Y320544D01*
X694994Y321517D01*
X694353Y322353D01*
X693517Y322994D01*
X692544Y323397D01*
X692500Y323403D01*
D02*
G37*
G36*
X690500D02*
X690456Y323397D01*
X689483Y322994D01*
X688647Y322353D01*
X688006Y321517D01*
X687603Y320544D01*
X687597Y320500D01*
X690500D01*
Y323403D01*
D02*
G37*
G36*
X681500Y333535D02*
X680456Y333397D01*
X679483Y332994D01*
X678647Y332353D01*
X678006Y331517D01*
X677603Y330544D01*
X677465Y329500D01*
X677603Y328456D01*
X678006Y327483D01*
X678647Y326647D01*
X679483Y326006D01*
X680456Y325603D01*
X681500Y325465D01*
X682544Y325603D01*
X683517Y326006D01*
X684353Y326647D01*
X684994Y327483D01*
X685397Y328456D01*
X685534Y329500D01*
X685397Y330544D01*
X684994Y331517D01*
X684353Y332353D01*
X683517Y332994D01*
X682544Y333397D01*
X681500Y333535D01*
D02*
G37*
G36*
X695403Y328500D02*
X692500D01*
Y325597D01*
X692544Y325603D01*
X693517Y326006D01*
X694353Y326647D01*
X694994Y327483D01*
X695397Y328456D01*
X695403Y328500D01*
D02*
G37*
G36*
X571000Y338534D02*
X569956Y338397D01*
X568983Y337994D01*
X568147Y337353D01*
X567506Y336517D01*
X567103Y335544D01*
X566965Y334500D01*
X567103Y333456D01*
X567506Y332483D01*
X568147Y331647D01*
X568983Y331006D01*
X569956Y330603D01*
X571000Y330466D01*
X572044Y330603D01*
X573017Y331006D01*
X573853Y331647D01*
X574494Y332483D01*
X574897Y333456D01*
X575035Y334500D01*
X574897Y335544D01*
X574494Y336517D01*
X573853Y337353D01*
X573017Y337994D01*
X572044Y338397D01*
X571000Y338534D01*
D02*
G37*
G36*
X690500Y333403D02*
X690456Y333397D01*
X689483Y332994D01*
X688647Y332353D01*
X688006Y331517D01*
X687603Y330544D01*
X687597Y330500D01*
X690500D01*
Y333403D01*
D02*
G37*
G36*
X692500D02*
Y330500D01*
X695403D01*
X695397Y330544D01*
X694994Y331517D01*
X694353Y332353D01*
X693517Y332994D01*
X692544Y333397D01*
X692500Y333403D01*
D02*
G37*
G36*
X593725Y335274D02*
X593007Y335179D01*
X592338Y334902D01*
X591763Y334461D01*
X591323Y333887D01*
X591046Y333218D01*
X590951Y332500D01*
X591046Y331782D01*
X591323Y331113D01*
X591763Y330539D01*
X592338Y330098D01*
X593007Y329821D01*
X593725Y329726D01*
X594443Y329821D01*
X595112Y330098D01*
X595686Y330539D01*
X596127Y331113D01*
X596404Y331782D01*
X596498Y332500D01*
X596404Y333218D01*
X596127Y333887D01*
X595686Y334461D01*
X595112Y334902D01*
X594443Y335179D01*
X593725Y335274D01*
D02*
G37*
G36*
X695403Y308500D02*
X692500D01*
Y305597D01*
X692544Y305603D01*
X693517Y306006D01*
X694353Y306647D01*
X694994Y307483D01*
X695397Y308456D01*
X695403Y308500D01*
D02*
G37*
G36*
X690500Y313403D02*
X690456Y313397D01*
X689483Y312994D01*
X688647Y312353D01*
X688006Y311517D01*
X687603Y310544D01*
X687597Y310500D01*
X690500D01*
Y313403D01*
D02*
G37*
G36*
X692500D02*
Y310500D01*
X695403D01*
X695397Y310544D01*
X694994Y311517D01*
X694353Y312353D01*
X693517Y312994D01*
X692544Y313397D01*
X692500Y313403D01*
D02*
G37*
G36*
X690500Y308500D02*
X687597D01*
X687603Y308456D01*
X688006Y307483D01*
X688647Y306647D01*
X689483Y306006D01*
X690456Y305603D01*
X690500Y305597D01*
Y308500D01*
D02*
G37*
G36*
X681500Y313534D02*
X680456Y313397D01*
X679483Y312994D01*
X678647Y312353D01*
X678006Y311517D01*
X677603Y310544D01*
X677465Y309500D01*
X677603Y308456D01*
X678006Y307483D01*
X678647Y306647D01*
X679483Y306006D01*
X680456Y305603D01*
X681500Y305466D01*
X682544Y305603D01*
X683517Y306006D01*
X684353Y306647D01*
X684994Y307483D01*
X685397Y308456D01*
X685534Y309500D01*
X685397Y310544D01*
X684994Y311517D01*
X684353Y312353D01*
X683517Y312994D01*
X682544Y313397D01*
X681500Y313534D01*
D02*
G37*
G36*
X701500D02*
X700456Y313397D01*
X699483Y312994D01*
X698647Y312353D01*
X698006Y311517D01*
X697603Y310544D01*
X697466Y309500D01*
X697603Y308456D01*
X698006Y307483D01*
X698647Y306647D01*
X699483Y306006D01*
X700456Y305603D01*
X701500Y305466D01*
X702544Y305603D01*
X703517Y306006D01*
X704353Y306647D01*
X704994Y307483D01*
X705397Y308456D01*
X705535Y309500D01*
X705397Y310544D01*
X704994Y311517D01*
X704353Y312353D01*
X703517Y312994D01*
X702544Y313397D01*
X701500Y313534D01*
D02*
G37*
G36*
X587500Y320774D02*
X586782Y320679D01*
X586113Y320402D01*
X585539Y319961D01*
X585098Y319387D01*
X584821Y318718D01*
X584726Y318000D01*
X584821Y317282D01*
X585098Y316613D01*
X585539Y316039D01*
X586113Y315598D01*
X586782Y315321D01*
X587500Y315226D01*
X588218Y315321D01*
X588887Y315598D01*
X589461Y316039D01*
X589902Y316613D01*
X590179Y317282D01*
X590274Y318000D01*
X590179Y318718D01*
X589902Y319387D01*
X589461Y319961D01*
X588887Y320402D01*
X588218Y320679D01*
X587500Y320774D01*
D02*
G37*
G36*
X581000Y321274D02*
X580282Y321179D01*
X579613Y320902D01*
X579039Y320461D01*
X578598Y319887D01*
X578321Y319218D01*
X578226Y318500D01*
X578321Y317782D01*
X578598Y317113D01*
X579039Y316539D01*
X579613Y316098D01*
X580282Y315821D01*
X581000Y315726D01*
X581718Y315821D01*
X582387Y316098D01*
X582961Y316539D01*
X583402Y317113D01*
X583679Y317782D01*
X583774Y318500D01*
X583679Y319218D01*
X583402Y319887D01*
X582961Y320461D01*
X582387Y320902D01*
X581718Y321179D01*
X581000Y321274D01*
D02*
G37*
G36*
X624000Y323774D02*
X623282Y323679D01*
X622613Y323402D01*
X622039Y322961D01*
X621598Y322387D01*
X621321Y321718D01*
X621226Y321000D01*
X621321Y320282D01*
X621598Y319613D01*
X622039Y319039D01*
X622613Y318598D01*
X623282Y318321D01*
X624000Y318226D01*
X624718Y318321D01*
X625387Y318598D01*
X625961Y319039D01*
X626402Y319613D01*
X626679Y320282D01*
X626774Y321000D01*
X626679Y321718D01*
X626402Y322387D01*
X625961Y322961D01*
X625387Y323402D01*
X624718Y323679D01*
X624000Y323774D01*
D02*
G37*
G36*
X571000Y328535D02*
X569956Y328397D01*
X568983Y327994D01*
X568147Y327353D01*
X567506Y326517D01*
X567103Y325544D01*
X566965Y324500D01*
X567103Y323456D01*
X567506Y322483D01*
X568147Y321647D01*
X568983Y321006D01*
X569956Y320603D01*
X571000Y320465D01*
X572044Y320603D01*
X573017Y321006D01*
X573853Y321647D01*
X574494Y322483D01*
X574897Y323456D01*
X575035Y324500D01*
X574897Y325544D01*
X574494Y326517D01*
X573853Y327353D01*
X573017Y327994D01*
X572044Y328397D01*
X571000Y328535D01*
D02*
G37*
G36*
X695403Y318500D02*
X692500D01*
Y315597D01*
X692544Y315603D01*
X693517Y316006D01*
X694353Y316647D01*
X694994Y317483D01*
X695397Y318456D01*
X695403Y318500D01*
D02*
G37*
G36*
X681500Y323534D02*
X680456Y323397D01*
X679483Y322994D01*
X678647Y322353D01*
X678006Y321517D01*
X677603Y320544D01*
X677465Y319500D01*
X677603Y318456D01*
X678006Y317483D01*
X678647Y316647D01*
X679483Y316006D01*
X680456Y315603D01*
X681500Y315465D01*
X682544Y315603D01*
X683517Y316006D01*
X684353Y316647D01*
X684994Y317483D01*
X685397Y318456D01*
X685534Y319500D01*
X685397Y320544D01*
X684994Y321517D01*
X684353Y322353D01*
X683517Y322994D01*
X682544Y323397D01*
X681500Y323534D01*
D02*
G37*
G36*
X701500D02*
X700456Y323397D01*
X699483Y322994D01*
X698647Y322353D01*
X698006Y321517D01*
X697603Y320544D01*
X697466Y319500D01*
X697603Y318456D01*
X698006Y317483D01*
X698647Y316647D01*
X699483Y316006D01*
X700456Y315603D01*
X701500Y315465D01*
X702544Y315603D01*
X703517Y316006D01*
X704353Y316647D01*
X704994Y317483D01*
X705397Y318456D01*
X705535Y319500D01*
X705397Y320544D01*
X704994Y321517D01*
X704353Y322353D01*
X703517Y322994D01*
X702544Y323397D01*
X701500Y323534D01*
D02*
G37*
G36*
X690500Y318500D02*
X687597D01*
X687603Y318456D01*
X688006Y317483D01*
X688647Y316647D01*
X689483Y316006D01*
X690456Y315603D01*
X690500Y315597D01*
Y318500D01*
D02*
G37*
G36*
X643000Y334774D02*
X642282Y334679D01*
X641613Y334402D01*
X641039Y333961D01*
X640623Y333420D01*
X640516Y333349D01*
X640090Y333293D01*
X639961Y333461D01*
X639387Y333902D01*
X638718Y334179D01*
X638000Y334274D01*
X637282Y334179D01*
X636613Y333902D01*
X636039Y333461D01*
X635598Y332887D01*
X635321Y332218D01*
X635226Y331500D01*
X635321Y330782D01*
X635598Y330113D01*
X636039Y329539D01*
X636613Y329098D01*
X637282Y328821D01*
X638000Y328726D01*
X638718Y328821D01*
X639387Y329098D01*
X639961Y329539D01*
X640377Y330080D01*
X640485Y330151D01*
X640910Y330207D01*
X641039Y330039D01*
X641613Y329598D01*
X642282Y329321D01*
X643000Y329226D01*
X643718Y329321D01*
X644387Y329598D01*
X644961Y330039D01*
X645402Y330613D01*
X645679Y331282D01*
X645774Y332000D01*
X645679Y332718D01*
X645402Y333387D01*
X644961Y333961D01*
X644387Y334402D01*
X643718Y334679D01*
X643000Y334774D01*
D02*
G37*
G36*
X690500Y353403D02*
X690456Y353397D01*
X689483Y352994D01*
X688647Y352353D01*
X688006Y351517D01*
X687603Y350544D01*
X687597Y350500D01*
X690500D01*
Y353403D01*
D02*
G37*
G36*
X575000Y358500D02*
X567000D01*
Y350500D01*
X575000D01*
Y358500D01*
D02*
G37*
G36*
X692500Y353403D02*
Y350500D01*
X695403D01*
X695397Y350544D01*
X694994Y351517D01*
X694353Y352353D01*
X693517Y352994D01*
X692544Y353397D01*
X692500Y353403D01*
D02*
G37*
G36*
X625500Y348062D02*
Y346500D01*
X627062D01*
X626902Y346887D01*
X626461Y347461D01*
X625887Y347902D01*
X625500Y348062D01*
D02*
G37*
G36*
X662000Y360500D02*
X660438D01*
X660598Y360113D01*
X661039Y359539D01*
X661613Y359098D01*
X662000Y358938D01*
Y360500D01*
D02*
G37*
G36*
X665562D02*
X664000D01*
Y358938D01*
X664387Y359098D01*
X664961Y359539D01*
X665402Y360113D01*
X665562Y360500D01*
D02*
G37*
G36*
X695403Y358500D02*
X692500D01*
Y355597D01*
X692544Y355603D01*
X693517Y356006D01*
X694353Y356647D01*
X694994Y357483D01*
X695397Y358456D01*
X695403Y358500D01*
D02*
G37*
G36*
X681500Y363534D02*
X680456Y363397D01*
X679483Y362994D01*
X678647Y362353D01*
X678006Y361517D01*
X677603Y360544D01*
X677465Y359500D01*
X677603Y358456D01*
X678006Y357483D01*
X678647Y356647D01*
X679483Y356006D01*
X680456Y355603D01*
X681500Y355466D01*
X682544Y355603D01*
X683517Y356006D01*
X684353Y356647D01*
X684994Y357483D01*
X685397Y358456D01*
X685534Y359500D01*
X685397Y360544D01*
X684994Y361517D01*
X684353Y362353D01*
X683517Y362994D01*
X682544Y363397D01*
X681500Y363534D01*
D02*
G37*
G36*
X701500D02*
X700456Y363397D01*
X699483Y362994D01*
X698647Y362353D01*
X698006Y361517D01*
X697603Y360544D01*
X697466Y359500D01*
X697603Y358456D01*
X698006Y357483D01*
X698647Y356647D01*
X699483Y356006D01*
X700456Y355603D01*
X701500Y355466D01*
X702544Y355603D01*
X703517Y356006D01*
X704353Y356647D01*
X704994Y357483D01*
X705397Y358456D01*
X705535Y359500D01*
X705397Y360544D01*
X704994Y361517D01*
X704353Y362353D01*
X703517Y362994D01*
X702544Y363397D01*
X701500Y363534D01*
D02*
G37*
G36*
X690500Y358500D02*
X687597D01*
X687603Y358456D01*
X688006Y357483D01*
X688647Y356647D01*
X689483Y356006D01*
X690456Y355603D01*
X690500Y355597D01*
Y358500D01*
D02*
G37*
G36*
X571000Y348534D02*
X569956Y348397D01*
X568983Y347994D01*
X568147Y347353D01*
X567506Y346517D01*
X567103Y345544D01*
X566965Y344500D01*
X567103Y343456D01*
X567506Y342483D01*
X568147Y341647D01*
X568983Y341006D01*
X569956Y340603D01*
X571000Y340465D01*
X572044Y340603D01*
X573017Y341006D01*
X573853Y341647D01*
X574494Y342483D01*
X574897Y343456D01*
X575035Y344500D01*
X574897Y345544D01*
X574494Y346517D01*
X573853Y347353D01*
X573017Y347994D01*
X572044Y348397D01*
X571000Y348534D01*
D02*
G37*
G36*
X690500Y343403D02*
X690456Y343397D01*
X689483Y342994D01*
X688647Y342353D01*
X688006Y341517D01*
X687603Y340544D01*
X687597Y340500D01*
X690500D01*
Y343403D01*
D02*
G37*
G36*
X692500D02*
Y340500D01*
X695403D01*
X695397Y340544D01*
X694994Y341517D01*
X694353Y342353D01*
X693517Y342994D01*
X692544Y343397D01*
X692500Y343403D01*
D02*
G37*
G36*
X695403Y338500D02*
X692500D01*
Y335597D01*
X692544Y335603D01*
X693517Y336006D01*
X694353Y336647D01*
X694994Y337483D01*
X695397Y338456D01*
X695403Y338500D01*
D02*
G37*
G36*
X681500Y343534D02*
X680456Y343397D01*
X679483Y342994D01*
X678647Y342353D01*
X678006Y341517D01*
X677603Y340544D01*
X677465Y339500D01*
X677603Y338456D01*
X678006Y337483D01*
X678647Y336647D01*
X679483Y336006D01*
X680456Y335603D01*
X681500Y335466D01*
X682544Y335603D01*
X683517Y336006D01*
X684353Y336647D01*
X684994Y337483D01*
X685397Y338456D01*
X685534Y339500D01*
X685397Y340544D01*
X684994Y341517D01*
X684353Y342353D01*
X683517Y342994D01*
X682544Y343397D01*
X681500Y343534D01*
D02*
G37*
G36*
X701500D02*
X700456Y343397D01*
X699483Y342994D01*
X698647Y342353D01*
X698006Y341517D01*
X697603Y340544D01*
X697466Y339500D01*
X697603Y338456D01*
X698006Y337483D01*
X698647Y336647D01*
X699483Y336006D01*
X700456Y335603D01*
X701500Y335466D01*
X702544Y335603D01*
X703517Y336006D01*
X704353Y336647D01*
X704994Y337483D01*
X705397Y338456D01*
X705535Y339500D01*
X705397Y340544D01*
X704994Y341517D01*
X704353Y342353D01*
X703517Y342994D01*
X702544Y343397D01*
X701500Y343534D01*
D02*
G37*
G36*
X690500Y338500D02*
X687597D01*
X687603Y338456D01*
X688006Y337483D01*
X688647Y336647D01*
X689483Y336006D01*
X690456Y335603D01*
X690500Y335597D01*
Y338500D01*
D02*
G37*
G36*
X603500Y347774D02*
X602782Y347679D01*
X602113Y347402D01*
X601539Y346961D01*
X601098Y346387D01*
X600821Y345718D01*
X600726Y345000D01*
X600821Y344282D01*
X601098Y343613D01*
X601539Y343039D01*
X602113Y342598D01*
X602782Y342321D01*
X603500Y342226D01*
X604218Y342321D01*
X604887Y342598D01*
X605461Y343039D01*
X605902Y343613D01*
X606179Y344282D01*
X606274Y345000D01*
X606179Y345718D01*
X605902Y346387D01*
X605461Y346961D01*
X604887Y347402D01*
X604218Y347679D01*
X603500Y347774D01*
D02*
G37*
G36*
X690500Y348500D02*
X687597D01*
X687603Y348456D01*
X688006Y347483D01*
X688647Y346647D01*
X689483Y346006D01*
X690456Y345603D01*
X690500Y345597D01*
Y348500D01*
D02*
G37*
G36*
X695403D02*
X692500D01*
Y345597D01*
X692544Y345603D01*
X693517Y346006D01*
X694353Y346647D01*
X694994Y347483D01*
X695397Y348456D01*
X695403Y348500D01*
D02*
G37*
G36*
X623500Y348062D02*
X623113Y347902D01*
X622539Y347461D01*
X622098Y346887D01*
X621938Y346500D01*
X623500D01*
Y348062D01*
D02*
G37*
G36*
X701500Y353535D02*
X700456Y353397D01*
X699483Y352994D01*
X698647Y352353D01*
X698006Y351517D01*
X697603Y350544D01*
X697466Y349500D01*
X697603Y348456D01*
X698006Y347483D01*
X698647Y346647D01*
X699483Y346006D01*
X700456Y345603D01*
X701500Y345465D01*
X702544Y345603D01*
X703517Y346006D01*
X704353Y346647D01*
X704994Y347483D01*
X705397Y348456D01*
X705535Y349500D01*
X705397Y350544D01*
X704994Y351517D01*
X704353Y352353D01*
X703517Y352994D01*
X702544Y353397D01*
X701500Y353535D01*
D02*
G37*
G36*
X623500Y344500D02*
X621938D01*
X622098Y344113D01*
X622539Y343539D01*
X623113Y343098D01*
X623500Y342938D01*
Y344500D01*
D02*
G37*
G36*
X627062D02*
X625500D01*
Y342938D01*
X625887Y343098D01*
X626461Y343539D01*
X626902Y344113D01*
X627062Y344500D01*
D02*
G37*
G36*
X681500Y353535D02*
X680456Y353397D01*
X679483Y352994D01*
X678647Y352353D01*
X678006Y351517D01*
X677603Y350544D01*
X677465Y349500D01*
X677603Y348456D01*
X678006Y347483D01*
X678647Y346647D01*
X679483Y346006D01*
X680456Y345603D01*
X681500Y345465D01*
X682544Y345603D01*
X683517Y346006D01*
X684353Y346647D01*
X684994Y347483D01*
X685397Y348456D01*
X685534Y349500D01*
X685397Y350544D01*
X684994Y351517D01*
X684353Y352353D01*
X683517Y352994D01*
X682544Y353397D01*
X681500Y353535D01*
D02*
G37*
G36*
X651500Y248274D02*
X650782Y248179D01*
X650113Y247902D01*
X649539Y247461D01*
X649098Y246887D01*
X648821Y246218D01*
X648726Y245500D01*
X648821Y244782D01*
X649098Y244113D01*
X649539Y243539D01*
X650113Y243098D01*
X650782Y242821D01*
X651500Y242726D01*
X652218Y242821D01*
X652887Y243098D01*
X653461Y243539D01*
X653902Y244113D01*
X654179Y244782D01*
X654274Y245500D01*
X654179Y246218D01*
X653902Y246887D01*
X653461Y247461D01*
X652887Y247902D01*
X652218Y248179D01*
X651500Y248274D01*
D02*
G37*
G36*
X582500Y252201D02*
X581413Y252058D01*
X580399Y251638D01*
X579529Y250971D01*
X578862Y250101D01*
X578442Y249087D01*
X578299Y248000D01*
X578442Y246913D01*
X578862Y245899D01*
X579529Y245029D01*
X580399Y244362D01*
X581413Y243942D01*
X582500Y243799D01*
X583587Y243942D01*
X584601Y244362D01*
X585471Y245029D01*
X586138Y245899D01*
X586558Y246913D01*
X586701Y248000D01*
X586558Y249087D01*
X586138Y250101D01*
X585471Y250971D01*
X584601Y251638D01*
X583587Y252058D01*
X582500Y252201D01*
D02*
G37*
G36*
X673500Y291274D02*
X672782Y291179D01*
X672113Y290902D01*
X671539Y290461D01*
X671098Y289887D01*
X670821Y289218D01*
X670726Y288500D01*
X670821Y287782D01*
X671098Y287113D01*
X671539Y286539D01*
X672113Y286098D01*
X672782Y285821D01*
X673500Y285726D01*
X674218Y285821D01*
X674887Y286098D01*
X675461Y286539D01*
X675902Y287113D01*
X676179Y287782D01*
X676274Y288500D01*
X676179Y289218D01*
X675902Y289887D01*
X675461Y290461D01*
X674887Y290902D01*
X674218Y291179D01*
X673500Y291274D01*
D02*
G37*
G36*
X636500Y279774D02*
X635782Y279679D01*
X635113Y279402D01*
X634539Y278961D01*
X634098Y278387D01*
X633821Y277718D01*
X633726Y277000D01*
X633821Y276282D01*
X634098Y275613D01*
X634539Y275039D01*
X635113Y274598D01*
X635782Y274321D01*
X636500Y274226D01*
X637218Y274321D01*
X637887Y274598D01*
X638461Y275039D01*
X638902Y275613D01*
X639179Y276282D01*
X639274Y277000D01*
X639179Y277718D01*
X638902Y278387D01*
X638461Y278961D01*
X637887Y279402D01*
X637218Y279679D01*
X636500Y279774D01*
D02*
G37*
G36*
X642500Y310535D02*
X641456Y310397D01*
X640483Y309994D01*
X639647Y309353D01*
X639006Y308517D01*
X638603Y307544D01*
X638465Y306500D01*
X638603Y305456D01*
X639006Y304483D01*
X639647Y303647D01*
X640483Y303006D01*
X641456Y302603D01*
X642500Y302466D01*
X643544Y302603D01*
X644517Y303006D01*
X645353Y303647D01*
X645994Y304483D01*
X646397Y305456D01*
X646534Y306500D01*
X646397Y307544D01*
X645994Y308517D01*
X645353Y309353D01*
X644517Y309994D01*
X643544Y310397D01*
X642500Y310535D01*
D02*
G37*
G36*
X652500D02*
X651456Y310397D01*
X650483Y309994D01*
X649647Y309353D01*
X649006Y308517D01*
X648603Y307544D01*
X648465Y306500D01*
X648603Y305456D01*
X649006Y304483D01*
X649647Y303647D01*
X650483Y303006D01*
X651456Y302603D01*
X652500Y302466D01*
X653544Y302603D01*
X654517Y303006D01*
X655353Y303647D01*
X655994Y304483D01*
X656397Y305456D01*
X656534Y306500D01*
X656397Y307544D01*
X655994Y308517D01*
X655353Y309353D01*
X654517Y309994D01*
X653544Y310397D01*
X652500Y310535D01*
D02*
G37*
G36*
X666500Y310500D02*
X658500D01*
Y302500D01*
X666500D01*
Y310500D01*
D02*
G37*
G36*
X632500Y310535D02*
X631456Y310397D01*
X630483Y309994D01*
X629647Y309353D01*
X629006Y308517D01*
X628603Y307544D01*
X628466Y306500D01*
X628603Y305456D01*
X629006Y304483D01*
X629647Y303647D01*
X630483Y303006D01*
X631456Y302603D01*
X632500Y302466D01*
X633544Y302603D01*
X634517Y303006D01*
X635353Y303647D01*
X635994Y304483D01*
X636397Y305456D01*
X636535Y306500D01*
X636397Y307544D01*
X635994Y308517D01*
X635353Y309353D01*
X634517Y309994D01*
X633544Y310397D01*
X632500Y310535D01*
D02*
G37*
G36*
X584000Y305774D02*
X583282Y305679D01*
X582613Y305402D01*
X582039Y304961D01*
X581598Y304387D01*
X581321Y303718D01*
X581226Y303000D01*
X581321Y302282D01*
X581598Y301613D01*
X582039Y301039D01*
X582613Y300598D01*
X583282Y300321D01*
X584000Y300226D01*
X584718Y300321D01*
X585387Y300598D01*
X585961Y301039D01*
X586402Y301613D01*
X586679Y302282D01*
X586774Y303000D01*
X586679Y303718D01*
X586402Y304387D01*
X585961Y304961D01*
X585387Y305402D01*
X584718Y305679D01*
X584000Y305774D01*
D02*
G37*
G36*
X631500Y248086D02*
Y246500D01*
X633086D01*
X632921Y246898D01*
X632477Y247477D01*
X631898Y247921D01*
X631500Y248086D01*
D02*
G37*
G36*
X641500Y248507D02*
X641102Y248342D01*
X640523Y247898D01*
X640079Y247319D01*
X639914Y246921D01*
X641500D01*
Y248507D01*
D02*
G37*
G36*
X643500D02*
Y246921D01*
X645086D01*
X644921Y247319D01*
X644477Y247898D01*
X643898Y248342D01*
X643500Y248507D01*
D02*
G37*
G36*
X629500Y248086D02*
X629102Y247921D01*
X628523Y247477D01*
X628079Y246898D01*
X627914Y246500D01*
X629500D01*
Y248086D01*
D02*
G37*
G36*
X704500Y250774D02*
X703782Y250679D01*
X703113Y250402D01*
X702539Y249961D01*
X702098Y249387D01*
X701821Y248718D01*
X701726Y248000D01*
X701821Y247282D01*
X702098Y246613D01*
X702539Y246039D01*
X703113Y245598D01*
X703782Y245321D01*
X704500Y245226D01*
X705218Y245321D01*
X705887Y245598D01*
X706461Y246039D01*
X706902Y246613D01*
X707179Y247282D01*
X707274Y248000D01*
X707179Y248718D01*
X706902Y249387D01*
X706461Y249961D01*
X705887Y250402D01*
X705218Y250679D01*
X704500Y250774D01*
D02*
G37*
G36*
X658500Y247062D02*
X658113Y246902D01*
X657539Y246461D01*
X657098Y245887D01*
X656938Y245500D01*
X658500D01*
Y247062D01*
D02*
G37*
G36*
X660500D02*
Y245500D01*
X662062D01*
X661902Y245887D01*
X661461Y246461D01*
X660887Y246902D01*
X660500Y247062D01*
D02*
G37*
G36*
X581500Y262070D02*
X581413Y262058D01*
X580399Y261638D01*
X579529Y260971D01*
X578862Y260101D01*
X578442Y259087D01*
X578430Y259000D01*
X581500D01*
Y262070D01*
D02*
G37*
G36*
X583500D02*
Y259000D01*
X586570D01*
X586558Y259087D01*
X586138Y260101D01*
X585471Y260971D01*
X584601Y261638D01*
X583587Y262058D01*
X583500Y262070D01*
D02*
G37*
G36*
X702500Y265274D02*
X701782Y265179D01*
X701113Y264902D01*
X700539Y264461D01*
X700098Y263887D01*
X699821Y263218D01*
X699726Y262500D01*
X699821Y261782D01*
X700098Y261113D01*
X700539Y260539D01*
X701113Y260098D01*
X701782Y259821D01*
X702500Y259726D01*
X703218Y259821D01*
X703887Y260098D01*
X704461Y260539D01*
X704902Y261113D01*
X705179Y261782D01*
X705274Y262500D01*
X705179Y263218D01*
X704902Y263887D01*
X704461Y264461D01*
X703887Y264902D01*
X703218Y265179D01*
X702500Y265274D01*
D02*
G37*
G36*
X642500Y262274D02*
X641782Y262179D01*
X641113Y261902D01*
X640539Y261461D01*
X640098Y260887D01*
X639821Y260218D01*
X639726Y259500D01*
X639821Y258782D01*
X640098Y258113D01*
X640539Y257539D01*
X641113Y257098D01*
X641782Y256821D01*
X642500Y256726D01*
X643218Y256821D01*
X643887Y257098D01*
X644461Y257539D01*
X644902Y258113D01*
X645179Y258782D01*
X645274Y259500D01*
X645179Y260218D01*
X644902Y260887D01*
X644461Y261461D01*
X643887Y261902D01*
X643218Y262179D01*
X642500Y262274D01*
D02*
G37*
G36*
X581500Y257000D02*
X578430D01*
X578442Y256913D01*
X578862Y255899D01*
X579529Y255029D01*
X580399Y254362D01*
X581413Y253942D01*
X581500Y253930D01*
Y257000D01*
D02*
G37*
G36*
X586570D02*
X583500D01*
Y253930D01*
X583587Y253942D01*
X584601Y254362D01*
X585471Y255029D01*
X586138Y255899D01*
X586558Y256913D01*
X586570Y257000D01*
D02*
G37*
G36*
X620903Y414000D02*
X618000D01*
Y411097D01*
X618044Y411103D01*
X619017Y411506D01*
X619853Y412147D01*
X620494Y412983D01*
X620897Y413956D01*
X620903Y414000D01*
D02*
G37*
G36*
X663500Y418274D02*
X662782Y418179D01*
X662113Y417902D01*
X661539Y417461D01*
X661098Y416887D01*
X660821Y416218D01*
X660726Y415500D01*
X660821Y414782D01*
X661098Y414113D01*
X661539Y413539D01*
X662113Y413098D01*
X662782Y412821D01*
X663500Y412726D01*
X664218Y412821D01*
X664887Y413098D01*
X665461Y413539D01*
X665902Y414113D01*
X666179Y414782D01*
X666274Y415500D01*
X666179Y416218D01*
X665902Y416887D01*
X665461Y417461D01*
X664887Y417902D01*
X664218Y418179D01*
X663500Y418274D01*
D02*
G37*
G36*
X610903Y414000D02*
X608000D01*
Y411097D01*
X608044Y411103D01*
X609017Y411506D01*
X609853Y412147D01*
X610494Y412983D01*
X610897Y413956D01*
X610903Y414000D01*
D02*
G37*
G36*
X580903D02*
X578000D01*
Y411097D01*
X578044Y411103D01*
X579017Y411506D01*
X579853Y412147D01*
X580494Y412983D01*
X580897Y413956D01*
X580903Y414000D01*
D02*
G37*
G36*
X590903D02*
X588000D01*
Y411097D01*
X588044Y411103D01*
X589017Y411506D01*
X589853Y412147D01*
X590494Y412983D01*
X590897Y413956D01*
X590903Y414000D01*
D02*
G37*
G36*
X600903D02*
X598000D01*
Y411097D01*
X598044Y411103D01*
X599017Y411506D01*
X599853Y412147D01*
X600494Y412983D01*
X600897Y413956D01*
X600903Y414000D01*
D02*
G37*
G36*
X556000Y418903D02*
X555956Y418897D01*
X554983Y418494D01*
X554147Y417853D01*
X553506Y417017D01*
X553103Y416044D01*
X553097Y416000D01*
X556000D01*
Y418903D01*
D02*
G37*
G36*
X606000D02*
X605956Y418897D01*
X604983Y418494D01*
X604147Y417853D01*
X603506Y417017D01*
X603103Y416044D01*
X603097Y416000D01*
X606000D01*
Y418903D01*
D02*
G37*
G36*
X616000D02*
X615956Y418897D01*
X614983Y418494D01*
X614147Y417853D01*
X613506Y417017D01*
X613103Y416044D01*
X613097Y416000D01*
X616000D01*
Y418903D01*
D02*
G37*
G36*
X548000D02*
Y416000D01*
X550903D01*
X550897Y416044D01*
X550494Y417017D01*
X549853Y417853D01*
X549017Y418494D01*
X548044Y418897D01*
X548000Y418903D01*
D02*
G37*
G36*
X596000D02*
X595956Y418897D01*
X594983Y418494D01*
X594147Y417853D01*
X593506Y417017D01*
X593103Y416044D01*
X593097Y416000D01*
X596000D01*
Y418903D01*
D02*
G37*
G36*
X566000D02*
X565956Y418897D01*
X564983Y418494D01*
X564147Y417853D01*
X563506Y417017D01*
X563103Y416044D01*
X563097Y416000D01*
X566000D01*
Y418903D01*
D02*
G37*
G36*
X576000D02*
X575956Y418897D01*
X574983Y418494D01*
X574147Y417853D01*
X573506Y417017D01*
X573103Y416044D01*
X573097Y416000D01*
X576000D01*
Y418903D01*
D02*
G37*
G36*
X586000D02*
X585956Y418897D01*
X584983Y418494D01*
X584147Y417853D01*
X583506Y417017D01*
X583103Y416044D01*
X583097Y416000D01*
X586000D01*
Y418903D01*
D02*
G37*
G36*
X556000Y414000D02*
X553097D01*
X553103Y413956D01*
X553506Y412983D01*
X554147Y412147D01*
X554983Y411506D01*
X555956Y411103D01*
X556000Y411097D01*
Y414000D01*
D02*
G37*
G36*
X566000D02*
X563097D01*
X563103Y413956D01*
X563506Y412983D01*
X564147Y412147D01*
X564983Y411506D01*
X565956Y411103D01*
X566000Y411097D01*
Y414000D01*
D02*
G37*
G36*
X576000D02*
X573097D01*
X573103Y413956D01*
X573506Y412983D01*
X574147Y412147D01*
X574983Y411506D01*
X575956Y411103D01*
X576000Y411097D01*
Y414000D01*
D02*
G37*
G36*
X550903D02*
X548000D01*
Y411097D01*
X548044Y411103D01*
X549017Y411506D01*
X549853Y412147D01*
X550494Y412983D01*
X550897Y413956D01*
X550903Y414000D01*
D02*
G37*
G36*
X560903D02*
X558000D01*
Y411097D01*
X558044Y411103D01*
X559017Y411506D01*
X559853Y412147D01*
X560494Y412983D01*
X560897Y413956D01*
X560903Y414000D01*
D02*
G37*
G36*
X570903D02*
X568000D01*
Y411097D01*
X568044Y411103D01*
X569017Y411506D01*
X569853Y412147D01*
X570494Y412983D01*
X570897Y413956D01*
X570903Y414000D01*
D02*
G37*
G36*
X616000D02*
X613097D01*
X613103Y413956D01*
X613506Y412983D01*
X614147Y412147D01*
X614983Y411506D01*
X615956Y411103D01*
X616000Y411097D01*
Y414000D01*
D02*
G37*
G36*
X586000D02*
X583097D01*
X583103Y413956D01*
X583506Y412983D01*
X584147Y412147D01*
X584983Y411506D01*
X585956Y411103D01*
X586000Y411097D01*
Y414000D01*
D02*
G37*
G36*
X596000D02*
X593097D01*
X593103Y413956D01*
X593506Y412983D01*
X594147Y412147D01*
X594983Y411506D01*
X595956Y411103D01*
X596000Y411097D01*
Y414000D01*
D02*
G37*
G36*
X606000D02*
X603097D01*
X603103Y413956D01*
X603506Y412983D01*
X604147Y412147D01*
X604983Y411506D01*
X605956Y411103D01*
X606000Y411097D01*
Y414000D01*
D02*
G37*
G36*
X676500Y432034D02*
X675456Y431897D01*
X674483Y431494D01*
X673647Y430853D01*
X673006Y430017D01*
X672603Y429044D01*
X672466Y428000D01*
X672603Y426956D01*
X673006Y425983D01*
X673647Y425147D01*
X674483Y424506D01*
X675456Y424103D01*
X676500Y423966D01*
X677544Y424103D01*
X678517Y424506D01*
X679353Y425147D01*
X679994Y425983D01*
X680397Y426956D01*
X680535Y428000D01*
X680397Y429044D01*
X679994Y430017D01*
X679353Y430853D01*
X678517Y431494D01*
X677544Y431897D01*
X676500Y432034D01*
D02*
G37*
G36*
X686500D02*
X685456Y431897D01*
X684483Y431494D01*
X683647Y430853D01*
X683006Y430017D01*
X682603Y429044D01*
X682466Y428000D01*
X682603Y426956D01*
X683006Y425983D01*
X683647Y425147D01*
X684483Y424506D01*
X685456Y424103D01*
X686500Y423966D01*
X687544Y424103D01*
X688517Y424506D01*
X689353Y425147D01*
X689994Y425983D01*
X690397Y426956D01*
X690534Y428000D01*
X690397Y429044D01*
X689994Y430017D01*
X689353Y430853D01*
X688517Y431494D01*
X687544Y431897D01*
X686500Y432034D01*
D02*
G37*
G36*
X660500Y432000D02*
X652500D01*
Y424000D01*
X660500D01*
Y432000D01*
D02*
G37*
G36*
X666500Y432034D02*
X665456Y431897D01*
X664483Y431494D01*
X663647Y430853D01*
X663006Y430017D01*
X662603Y429044D01*
X662465Y428000D01*
X662603Y426956D01*
X663006Y425983D01*
X663647Y425147D01*
X664483Y424506D01*
X665456Y424103D01*
X666500Y423966D01*
X667544Y424103D01*
X668517Y424506D01*
X669353Y425147D01*
X669994Y425983D01*
X670397Y426956D01*
X670535Y428000D01*
X670397Y429044D01*
X669994Y430017D01*
X669353Y430853D01*
X668517Y431494D01*
X667544Y431897D01*
X666500Y432034D01*
D02*
G37*
G36*
X598000Y418903D02*
Y416000D01*
X600903D01*
X600897Y416044D01*
X600494Y417017D01*
X599853Y417853D01*
X599017Y418494D01*
X598044Y418897D01*
X598000Y418903D01*
D02*
G37*
G36*
X608000D02*
Y416000D01*
X610903D01*
X610897Y416044D01*
X610494Y417017D01*
X609853Y417853D01*
X609017Y418494D01*
X608044Y418897D01*
X608000Y418903D01*
D02*
G37*
G36*
X618000D02*
Y416000D01*
X620903D01*
X620897Y416044D01*
X620494Y417017D01*
X619853Y417853D01*
X619017Y418494D01*
X618044Y418897D01*
X618000Y418903D01*
D02*
G37*
G36*
X588000D02*
Y416000D01*
X590903D01*
X590897Y416044D01*
X590494Y417017D01*
X589853Y417853D01*
X589017Y418494D01*
X588044Y418897D01*
X588000Y418903D01*
D02*
G37*
G36*
X558000D02*
Y416000D01*
X560903D01*
X560897Y416044D01*
X560494Y417017D01*
X559853Y417853D01*
X559017Y418494D01*
X558044Y418897D01*
X558000Y418903D01*
D02*
G37*
G36*
X568000D02*
Y416000D01*
X570903D01*
X570897Y416044D01*
X570494Y417017D01*
X569853Y417853D01*
X569017Y418494D01*
X568044Y418897D01*
X568000Y418903D01*
D02*
G37*
G36*
X578000D02*
Y416000D01*
X580903D01*
X580897Y416044D01*
X580494Y417017D01*
X579853Y417853D01*
X579017Y418494D01*
X578044Y418897D01*
X578000Y418903D01*
D02*
G37*
G36*
X646000Y424774D02*
X645282Y424679D01*
X644613Y424402D01*
X644039Y423961D01*
X643598Y423387D01*
X643321Y422718D01*
X643226Y422000D01*
X643321Y421282D01*
X643598Y420613D01*
X644039Y420039D01*
X644613Y419598D01*
X645282Y419321D01*
X646000Y419226D01*
X646718Y419321D01*
X647387Y419598D01*
X647961Y420039D01*
X648402Y420613D01*
X648679Y421282D01*
X648774Y422000D01*
X648679Y422718D01*
X648402Y423387D01*
X647961Y423961D01*
X647387Y424402D01*
X646718Y424679D01*
X646000Y424774D01*
D02*
G37*
G36*
X597000Y429035D02*
X595956Y428897D01*
X594983Y428494D01*
X594147Y427853D01*
X593506Y427017D01*
X593103Y426044D01*
X592966Y425000D01*
X593103Y423956D01*
X593506Y422983D01*
X594147Y422147D01*
X594983Y421506D01*
X595956Y421103D01*
X597000Y420965D01*
X598044Y421103D01*
X599017Y421506D01*
X599853Y422147D01*
X600494Y422983D01*
X600897Y423956D01*
X601034Y425000D01*
X600897Y426044D01*
X600494Y427017D01*
X599853Y427853D01*
X599017Y428494D01*
X598044Y428897D01*
X597000Y429035D01*
D02*
G37*
G36*
X607000D02*
X605956Y428897D01*
X604983Y428494D01*
X604147Y427853D01*
X603506Y427017D01*
X603103Y426044D01*
X602965Y425000D01*
X603103Y423956D01*
X603506Y422983D01*
X604147Y422147D01*
X604983Y421506D01*
X605956Y421103D01*
X607000Y420965D01*
X608044Y421103D01*
X609017Y421506D01*
X609853Y422147D01*
X610494Y422983D01*
X610897Y423956D01*
X611034Y425000D01*
X610897Y426044D01*
X610494Y427017D01*
X609853Y427853D01*
X609017Y428494D01*
X608044Y428897D01*
X607000Y429035D01*
D02*
G37*
G36*
X617000D02*
X615956Y428897D01*
X614983Y428494D01*
X614147Y427853D01*
X613506Y427017D01*
X613103Y426044D01*
X612965Y425000D01*
X613103Y423956D01*
X613506Y422983D01*
X614147Y422147D01*
X614983Y421506D01*
X615956Y421103D01*
X617000Y420965D01*
X618044Y421103D01*
X619017Y421506D01*
X619853Y422147D01*
X620494Y422983D01*
X620897Y423956D01*
X621034Y425000D01*
X620897Y426044D01*
X620494Y427017D01*
X619853Y427853D01*
X619017Y428494D01*
X618044Y428897D01*
X617000Y429035D01*
D02*
G37*
G36*
X587000D02*
X585956Y428897D01*
X584983Y428494D01*
X584147Y427853D01*
X583506Y427017D01*
X583103Y426044D01*
X582966Y425000D01*
X583103Y423956D01*
X583506Y422983D01*
X584147Y422147D01*
X584983Y421506D01*
X585956Y421103D01*
X587000Y420965D01*
X588044Y421103D01*
X589017Y421506D01*
X589853Y422147D01*
X590494Y422983D01*
X590897Y423956D01*
X591035Y425000D01*
X590897Y426044D01*
X590494Y427017D01*
X589853Y427853D01*
X589017Y428494D01*
X588044Y428897D01*
X587000Y429035D01*
D02*
G37*
G36*
X557000D02*
X555956Y428897D01*
X554983Y428494D01*
X554147Y427853D01*
X553506Y427017D01*
X553103Y426044D01*
X552965Y425000D01*
X553103Y423956D01*
X553506Y422983D01*
X554147Y422147D01*
X554983Y421506D01*
X555956Y421103D01*
X557000Y420965D01*
X558044Y421103D01*
X559017Y421506D01*
X559853Y422147D01*
X560494Y422983D01*
X560897Y423956D01*
X561034Y425000D01*
X560897Y426044D01*
X560494Y427017D01*
X559853Y427853D01*
X559017Y428494D01*
X558044Y428897D01*
X557000Y429035D01*
D02*
G37*
G36*
X567000D02*
X565956Y428897D01*
X564983Y428494D01*
X564147Y427853D01*
X563506Y427017D01*
X563103Y426044D01*
X562965Y425000D01*
X563103Y423956D01*
X563506Y422983D01*
X564147Y422147D01*
X564983Y421506D01*
X565956Y421103D01*
X567000Y420965D01*
X568044Y421103D01*
X569017Y421506D01*
X569853Y422147D01*
X570494Y422983D01*
X570897Y423956D01*
X571034Y425000D01*
X570897Y426044D01*
X570494Y427017D01*
X569853Y427853D01*
X569017Y428494D01*
X568044Y428897D01*
X567000Y429035D01*
D02*
G37*
G36*
X577000D02*
X575956Y428897D01*
X574983Y428494D01*
X574147Y427853D01*
X573506Y427017D01*
X573103Y426044D01*
X572965Y425000D01*
X573103Y423956D01*
X573506Y422983D01*
X574147Y422147D01*
X574983Y421506D01*
X575956Y421103D01*
X577000Y420965D01*
X578044Y421103D01*
X579017Y421506D01*
X579853Y422147D01*
X580494Y422983D01*
X580897Y423956D01*
X581035Y425000D01*
X580897Y426044D01*
X580494Y427017D01*
X579853Y427853D01*
X579017Y428494D01*
X578044Y428897D01*
X577000Y429035D01*
D02*
G37*
G36*
X617000Y409034D02*
X615956Y408897D01*
X614983Y408494D01*
X614147Y407853D01*
X613506Y407017D01*
X613103Y406044D01*
X612965Y405000D01*
X613103Y403956D01*
X613506Y402983D01*
X614147Y402147D01*
X614983Y401506D01*
X615956Y401103D01*
X617000Y400965D01*
X618044Y401103D01*
X619017Y401506D01*
X619853Y402147D01*
X620494Y402983D01*
X620897Y403956D01*
X621034Y405000D01*
X620897Y406044D01*
X620494Y407017D01*
X619853Y407853D01*
X619017Y408494D01*
X618044Y408897D01*
X617000Y409034D01*
D02*
G37*
G36*
X692500Y373403D02*
Y370500D01*
X695403D01*
X695397Y370544D01*
X694994Y371517D01*
X694353Y372353D01*
X693517Y372994D01*
X692544Y373397D01*
X692500Y373403D01*
D02*
G37*
G36*
X649000Y379062D02*
Y376500D01*
Y373938D01*
X649387Y374098D01*
X649799Y374414D01*
X650201Y374312D01*
X650280Y374278D01*
X650344Y374226D01*
X650598Y373613D01*
X651039Y373039D01*
X651613Y372598D01*
X652282Y372321D01*
X653000Y372226D01*
X653718Y372321D01*
X654387Y372598D01*
X654961Y373039D01*
X655402Y373613D01*
X655679Y374282D01*
X655774Y375000D01*
X655679Y375718D01*
X655402Y376387D01*
X654961Y376961D01*
X654387Y377402D01*
X653718Y377679D01*
X653000Y377774D01*
X652282Y377679D01*
X651613Y377402D01*
X651201Y377086D01*
X650799Y377187D01*
X650720Y377222D01*
X650656Y377274D01*
X650402Y377887D01*
X649961Y378461D01*
X649387Y378902D01*
X649000Y379062D01*
D02*
G37*
G36*
X690500Y373403D02*
X690456Y373397D01*
X689483Y372994D01*
X688647Y372353D01*
X688006Y371517D01*
X687603Y370544D01*
X687597Y370500D01*
X690500D01*
Y373403D01*
D02*
G37*
G36*
X647000Y375500D02*
X645438D01*
X645598Y375113D01*
X646039Y374539D01*
X646613Y374098D01*
X647000Y373938D01*
Y375500D01*
D02*
G37*
G36*
X695403Y378500D02*
X692500D01*
Y375597D01*
X692544Y375603D01*
X693517Y376006D01*
X694353Y376647D01*
X694994Y377483D01*
X695397Y378456D01*
X695403Y378500D01*
D02*
G37*
G36*
X669500Y381274D02*
X668782Y381179D01*
X668113Y380902D01*
X667539Y380461D01*
X667098Y379887D01*
X666821Y379218D01*
X666726Y378500D01*
X666821Y377782D01*
X667098Y377113D01*
X667539Y376539D01*
X668113Y376098D01*
X668782Y375821D01*
X669500Y375726D01*
X670218Y375821D01*
X670887Y376098D01*
X671461Y376539D01*
X671902Y377113D01*
X672179Y377782D01*
X672274Y378500D01*
X672179Y379218D01*
X671902Y379887D01*
X671461Y380461D01*
X670887Y380902D01*
X670218Y381179D01*
X669500Y381274D01*
D02*
G37*
G36*
X647000Y379062D02*
X646613Y378902D01*
X646039Y378461D01*
X645598Y377887D01*
X645438Y377500D01*
X647000D01*
Y379062D01*
D02*
G37*
G36*
X690500Y378500D02*
X687597D01*
X687603Y378456D01*
X688006Y377483D01*
X688647Y376647D01*
X689483Y376006D01*
X690456Y375603D01*
X690500Y375597D01*
Y378500D01*
D02*
G37*
G36*
X681500Y383535D02*
X680456Y383397D01*
X679483Y382994D01*
X678647Y382353D01*
X678006Y381517D01*
X677603Y380544D01*
X677465Y379500D01*
X677603Y378456D01*
X678006Y377483D01*
X678647Y376647D01*
X679483Y376006D01*
X680456Y375603D01*
X681500Y375465D01*
X682544Y375603D01*
X683517Y376006D01*
X684353Y376647D01*
X684994Y377483D01*
X685397Y378456D01*
X685534Y379500D01*
X685397Y380544D01*
X684994Y381517D01*
X684353Y382353D01*
X683517Y382994D01*
X682544Y383397D01*
X681500Y383535D01*
D02*
G37*
G36*
X701500D02*
X700456Y383397D01*
X699483Y382994D01*
X698647Y382353D01*
X698006Y381517D01*
X697603Y380544D01*
X697466Y379500D01*
X697603Y378456D01*
X698006Y377483D01*
X698647Y376647D01*
X699483Y376006D01*
X700456Y375603D01*
X701500Y375465D01*
X702544Y375603D01*
X703517Y376006D01*
X704353Y376647D01*
X704994Y377483D01*
X705397Y378456D01*
X705535Y379500D01*
X705397Y380544D01*
X704994Y381517D01*
X704353Y382353D01*
X703517Y382994D01*
X702544Y383397D01*
X701500Y383535D01*
D02*
G37*
G36*
X662000Y364062D02*
X661613Y363902D01*
X661039Y363461D01*
X660598Y362887D01*
X660438Y362500D01*
X662000D01*
Y364062D01*
D02*
G37*
G36*
X664000D02*
Y362500D01*
X665562D01*
X665402Y362887D01*
X664961Y363461D01*
X664387Y363902D01*
X664000Y364062D01*
D02*
G37*
G36*
X681500Y373534D02*
X680456Y373397D01*
X679483Y372994D01*
X678647Y372353D01*
X678006Y371517D01*
X677603Y370544D01*
X677465Y369500D01*
X677603Y368456D01*
X678006Y367483D01*
X678647Y366647D01*
X679483Y366006D01*
X680456Y365603D01*
X681500Y365465D01*
X682544Y365603D01*
X683517Y366006D01*
X684353Y366647D01*
X684994Y367483D01*
X685397Y368456D01*
X685534Y369500D01*
X685397Y370544D01*
X684994Y371517D01*
X684353Y372353D01*
X683517Y372994D01*
X682544Y373397D01*
X681500Y373534D01*
D02*
G37*
G36*
X690500Y363403D02*
X690456Y363397D01*
X689483Y362994D01*
X688647Y362353D01*
X688006Y361517D01*
X687603Y360544D01*
X687597Y360500D01*
X690500D01*
Y363403D01*
D02*
G37*
G36*
X692500D02*
Y360500D01*
X695403D01*
X695397Y360544D01*
X694994Y361517D01*
X694353Y362353D01*
X693517Y362994D01*
X692544Y363397D01*
X692500Y363403D01*
D02*
G37*
G36*
X607000Y366274D02*
X606282Y366179D01*
X605613Y365902D01*
X605039Y365461D01*
X604598Y364887D01*
X604321Y364218D01*
X604226Y363500D01*
X604321Y362782D01*
X604598Y362113D01*
X605039Y361539D01*
X605613Y361098D01*
X606282Y360821D01*
X607000Y360726D01*
X607718Y360821D01*
X608387Y361098D01*
X608961Y361539D01*
X609402Y362113D01*
X609679Y362782D01*
X609774Y363500D01*
X609679Y364218D01*
X609402Y364887D01*
X608961Y365461D01*
X608387Y365902D01*
X607718Y366179D01*
X607000Y366274D01*
D02*
G37*
G36*
X701500Y373534D02*
X700456Y373397D01*
X699483Y372994D01*
X698647Y372353D01*
X698006Y371517D01*
X697603Y370544D01*
X697466Y369500D01*
X697603Y368456D01*
X698006Y367483D01*
X698647Y366647D01*
X699483Y366006D01*
X700456Y365603D01*
X701500Y365465D01*
X702544Y365603D01*
X703517Y366006D01*
X704353Y366647D01*
X704994Y367483D01*
X705397Y368456D01*
X705535Y369500D01*
X705397Y370544D01*
X704994Y371517D01*
X704353Y372353D01*
X703517Y372994D01*
X702544Y373397D01*
X701500Y373534D01*
D02*
G37*
G36*
X578500Y372274D02*
X577782Y372179D01*
X577113Y371902D01*
X576539Y371461D01*
X576098Y370887D01*
X575821Y370218D01*
X575726Y369500D01*
X575821Y368782D01*
X576098Y368113D01*
X576539Y367539D01*
X577113Y367098D01*
X577782Y366821D01*
X578500Y366726D01*
X579218Y366821D01*
X579887Y367098D01*
X580461Y367539D01*
X580902Y368113D01*
X581179Y368782D01*
X581274Y369500D01*
X581179Y370218D01*
X580902Y370887D01*
X580461Y371461D01*
X579887Y371902D01*
X579218Y372179D01*
X578500Y372274D01*
D02*
G37*
G36*
X690500Y368500D02*
X687597D01*
X687603Y368456D01*
X688006Y367483D01*
X688647Y366647D01*
X689483Y366006D01*
X690456Y365603D01*
X690500Y365597D01*
Y368500D01*
D02*
G37*
G36*
X695403D02*
X692500D01*
Y365597D01*
X692544Y365603D01*
X693517Y366006D01*
X694353Y366647D01*
X694994Y367483D01*
X695397Y368456D01*
X695403Y368500D01*
D02*
G37*
G36*
X638000Y397062D02*
Y395500D01*
X639562D01*
X639402Y395887D01*
X638961Y396461D01*
X638387Y396902D01*
X638000Y397062D01*
D02*
G37*
G36*
X674000Y403274D02*
X673282Y403179D01*
X672613Y402902D01*
X672039Y402461D01*
X671598Y401887D01*
X671321Y401218D01*
X671226Y400500D01*
X671321Y399782D01*
X671598Y399113D01*
X672039Y398539D01*
X672613Y398098D01*
X673282Y397821D01*
X674000Y397726D01*
X674718Y397821D01*
X675387Y398098D01*
X675961Y398539D01*
X676402Y399113D01*
X676679Y399782D01*
X676774Y400500D01*
X676679Y401218D01*
X676402Y401887D01*
X675961Y402461D01*
X675387Y402902D01*
X674718Y403179D01*
X674000Y403274D01*
D02*
G37*
G36*
X636000Y397062D02*
X635613Y396902D01*
X635039Y396461D01*
X634598Y395887D01*
X634438Y395500D01*
X636000D01*
Y397062D01*
D02*
G37*
G36*
X639562Y393500D02*
X638000D01*
Y391938D01*
X638387Y392098D01*
X638961Y392539D01*
X639402Y393113D01*
X639562Y393500D01*
D02*
G37*
G36*
X588500Y396562D02*
X588113Y396402D01*
X587539Y395961D01*
X587098Y395387D01*
X586938Y395000D01*
X588500D01*
Y396562D01*
D02*
G37*
G36*
X590500D02*
Y395000D01*
X592062D01*
X591902Y395387D01*
X591461Y395961D01*
X590887Y396402D01*
X590500Y396562D01*
D02*
G37*
G36*
X687500Y403274D02*
X686782Y403179D01*
X686113Y402902D01*
X685539Y402461D01*
X685098Y401887D01*
X684821Y401218D01*
X684726Y400500D01*
X684821Y399782D01*
X685098Y399113D01*
X685539Y398539D01*
X686113Y398098D01*
X686782Y397821D01*
X687500Y397726D01*
X688218Y397821D01*
X688887Y398098D01*
X689461Y398539D01*
X689902Y399113D01*
X690179Y399782D01*
X690274Y400500D01*
X690179Y401218D01*
X689902Y401887D01*
X689461Y402461D01*
X688887Y402902D01*
X688218Y403179D01*
X687500Y403274D01*
D02*
G37*
G36*
X587000Y409034D02*
X585956Y408897D01*
X584983Y408494D01*
X584147Y407853D01*
X583506Y407017D01*
X583103Y406044D01*
X582966Y405000D01*
X583103Y403956D01*
X583506Y402983D01*
X584147Y402147D01*
X584983Y401506D01*
X585956Y401103D01*
X587000Y400965D01*
X588044Y401103D01*
X589017Y401506D01*
X589853Y402147D01*
X590494Y402983D01*
X590897Y403956D01*
X591035Y405000D01*
X590897Y406044D01*
X590494Y407017D01*
X589853Y407853D01*
X589017Y408494D01*
X588044Y408897D01*
X587000Y409034D01*
D02*
G37*
G36*
X597000D02*
X595956Y408897D01*
X594983Y408494D01*
X594147Y407853D01*
X593506Y407017D01*
X593103Y406044D01*
X592966Y405000D01*
X593103Y403956D01*
X593506Y402983D01*
X594147Y402147D01*
X594983Y401506D01*
X595956Y401103D01*
X597000Y400965D01*
X598044Y401103D01*
X599017Y401506D01*
X599853Y402147D01*
X600494Y402983D01*
X600897Y403956D01*
X601034Y405000D01*
X600897Y406044D01*
X600494Y407017D01*
X599853Y407853D01*
X599017Y408494D01*
X598044Y408897D01*
X597000Y409034D01*
D02*
G37*
G36*
X607000D02*
X605956Y408897D01*
X604983Y408494D01*
X604147Y407853D01*
X603506Y407017D01*
X603103Y406044D01*
X602965Y405000D01*
X603103Y403956D01*
X603506Y402983D01*
X604147Y402147D01*
X604983Y401506D01*
X605956Y401103D01*
X607000Y400965D01*
X608044Y401103D01*
X609017Y401506D01*
X609853Y402147D01*
X610494Y402983D01*
X610897Y403956D01*
X611034Y405000D01*
X610897Y406044D01*
X610494Y407017D01*
X609853Y407853D01*
X609017Y408494D01*
X608044Y408897D01*
X607000Y409034D01*
D02*
G37*
G36*
X577000D02*
X575956Y408897D01*
X574983Y408494D01*
X574147Y407853D01*
X573506Y407017D01*
X573103Y406044D01*
X572965Y405000D01*
X573103Y403956D01*
X573506Y402983D01*
X574147Y402147D01*
X574983Y401506D01*
X575956Y401103D01*
X577000Y400965D01*
X578044Y401103D01*
X579017Y401506D01*
X579853Y402147D01*
X580494Y402983D01*
X580897Y403956D01*
X581035Y405000D01*
X580897Y406044D01*
X580494Y407017D01*
X579853Y407853D01*
X579017Y408494D01*
X578044Y408897D01*
X577000Y409034D01*
D02*
G37*
G36*
X557000D02*
X555956Y408897D01*
X554983Y408494D01*
X554147Y407853D01*
X553506Y407017D01*
X553103Y406044D01*
X552965Y405000D01*
X553103Y403956D01*
X553506Y402983D01*
X554147Y402147D01*
X554983Y401506D01*
X555956Y401103D01*
X557000Y400965D01*
X558044Y401103D01*
X559017Y401506D01*
X559853Y402147D01*
X560494Y402983D01*
X560897Y403956D01*
X561034Y405000D01*
X560897Y406044D01*
X560494Y407017D01*
X559853Y407853D01*
X559017Y408494D01*
X558044Y408897D01*
X557000Y409034D01*
D02*
G37*
G36*
X567000D02*
X565956Y408897D01*
X564983Y408494D01*
X564147Y407853D01*
X563506Y407017D01*
X563103Y406044D01*
X562965Y405000D01*
X563103Y403956D01*
X563506Y402983D01*
X564147Y402147D01*
X564983Y401506D01*
X565956Y401103D01*
X567000Y400965D01*
X568044Y401103D01*
X569017Y401506D01*
X569853Y402147D01*
X570494Y402983D01*
X570897Y403956D01*
X571034Y405000D01*
X570897Y406044D01*
X570494Y407017D01*
X569853Y407853D01*
X569017Y408494D01*
X568044Y408897D01*
X567000Y409034D01*
D02*
G37*
G36*
X690500Y383403D02*
X690456Y383397D01*
X689483Y382994D01*
X688647Y382353D01*
X688006Y381517D01*
X687603Y380544D01*
X687597Y380500D01*
X690500D01*
Y383403D01*
D02*
G37*
G36*
X692500D02*
Y380500D01*
X695403D01*
X695397Y380544D01*
X694994Y381517D01*
X694353Y382353D01*
X693517Y382994D01*
X692544Y383397D01*
X692500Y383403D01*
D02*
G37*
G36*
X577000Y385774D02*
X576282Y385679D01*
X575613Y385402D01*
X575039Y384961D01*
X574598Y384387D01*
X574321Y383718D01*
X574226Y383000D01*
X574321Y382282D01*
X574598Y381613D01*
X575039Y381039D01*
X575613Y380598D01*
X576282Y380321D01*
X577000Y380226D01*
X577718Y380321D01*
X578387Y380598D01*
X578961Y381039D01*
X579402Y381613D01*
X579679Y382282D01*
X579774Y383000D01*
X579679Y383718D01*
X579402Y384387D01*
X578961Y384961D01*
X578387Y385402D01*
X577718Y385679D01*
X577000Y385774D01*
D02*
G37*
G36*
X621000Y385274D02*
X620282Y385179D01*
X619613Y384902D01*
X619039Y384461D01*
X618598Y383887D01*
X618321Y383218D01*
X618226Y382500D01*
X618321Y381782D01*
X618598Y381113D01*
X619039Y380539D01*
X619613Y380098D01*
X620282Y379821D01*
X621000Y379726D01*
X621718Y379821D01*
X622387Y380098D01*
X622961Y380539D01*
X623402Y381113D01*
X623679Y381782D01*
X623774Y382500D01*
X623679Y383218D01*
X623402Y383887D01*
X622961Y384461D01*
X622387Y384902D01*
X621718Y385179D01*
X621000Y385274D01*
D02*
G37*
G36*
X628500D02*
X627782Y385179D01*
X627113Y384902D01*
X626539Y384461D01*
X626098Y383887D01*
X625821Y383218D01*
X625726Y382500D01*
X625821Y381782D01*
X626098Y381113D01*
X626539Y380539D01*
X627113Y380098D01*
X627782Y379821D01*
X628500Y379726D01*
X629218Y379821D01*
X629887Y380098D01*
X630461Y380539D01*
X630902Y381113D01*
X631179Y381782D01*
X631274Y382500D01*
X631179Y383218D01*
X630902Y383887D01*
X630461Y384461D01*
X629887Y384902D01*
X629218Y385179D01*
X628500Y385274D01*
D02*
G37*
G36*
X588500Y393000D02*
X586938D01*
X587098Y392613D01*
X587539Y392039D01*
X588113Y391598D01*
X588500Y391438D01*
Y393000D01*
D02*
G37*
G36*
X592062D02*
X590500D01*
Y391438D01*
X590887Y391598D01*
X591461Y392039D01*
X591902Y392613D01*
X592062Y393000D01*
D02*
G37*
G36*
X636000Y393500D02*
X634438D01*
X634598Y393113D01*
X635039Y392539D01*
X635613Y392098D01*
X636000Y391938D01*
Y393500D01*
D02*
G37*
G36*
X664000Y392274D02*
X663282Y392179D01*
X662613Y391902D01*
X662039Y391461D01*
X661598Y390887D01*
X661321Y390218D01*
X661226Y389500D01*
X661321Y388782D01*
X661598Y388113D01*
X662039Y387539D01*
X662613Y387098D01*
X663282Y386821D01*
X664000Y386726D01*
X664718Y386821D01*
X665387Y387098D01*
X665961Y387539D01*
X666402Y388113D01*
X666679Y388782D01*
X666774Y389500D01*
X666679Y390218D01*
X666402Y390887D01*
X665961Y391461D01*
X665387Y391902D01*
X664718Y392179D01*
X664000Y392274D01*
D02*
G37*
G36*
X579500Y393274D02*
X578782Y393179D01*
X578113Y392902D01*
X577539Y392461D01*
X577098Y391887D01*
X576821Y391218D01*
X576726Y390500D01*
X576821Y389782D01*
X577098Y389113D01*
X577539Y388539D01*
X578113Y388098D01*
X578782Y387821D01*
X579500Y387726D01*
X580218Y387821D01*
X580887Y388098D01*
X581461Y388539D01*
X581902Y389113D01*
X582179Y389782D01*
X582274Y390500D01*
X582179Y391218D01*
X581902Y391887D01*
X581461Y392461D01*
X580887Y392902D01*
X580218Y393179D01*
X579500Y393274D01*
D02*
G37*
%LPD*%
D40*
X468000Y395965D02*
X468795D01*
X469398Y396567D01*
X474500Y367465D02*
Y391465D01*
X469398Y396567D02*
X474500Y391465D01*
X457500Y350465D02*
X474500Y367465D01*
X456000Y350465D02*
X457500D01*
X436000Y352465D02*
X447500D01*
X431000Y347465D02*
X436000Y352465D01*
X431000Y296465D02*
Y347465D01*
Y296465D02*
X435500Y291965D01*
X447500Y352465D02*
X459000Y363965D01*
X467500Y372965D02*
X469500D01*
X458000Y382465D02*
X467500Y372965D01*
D44*
X534000Y238000D02*
X582500D01*
D52*
X547000Y415000D02*
D03*
X557000D02*
D03*
X567000D02*
D03*
X577000D02*
D03*
X587000D02*
D03*
X597000D02*
D03*
X607000D02*
D03*
X617000D02*
D03*
X691500Y379500D02*
D03*
Y369500D02*
D03*
Y359500D02*
D03*
Y349500D02*
D03*
Y339500D02*
D03*
Y329500D02*
D03*
Y319500D02*
D03*
Y309500D02*
D03*
D55*
X245000Y427500D02*
D03*
D57*
X582500Y258000D02*
D03*
Y238000D02*
D03*
D58*
X642500Y245921D02*
D03*
X630500Y245500D02*
D03*
D61*
X528000Y303118D02*
D03*
Y325559D02*
D03*
D63*
X299095Y201319D02*
D03*
X310906D02*
D03*
D65*
X648000Y376500D02*
D03*
X624500Y345500D02*
D03*
X659500Y244500D02*
D03*
X468000Y395965D02*
D03*
X459000Y363965D02*
D03*
X469500Y372965D02*
D03*
X458000Y382465D02*
D03*
X464500Y409465D02*
D03*
X637000Y394500D02*
D03*
X589500Y394000D02*
D03*
X663000Y361500D02*
D03*
D66*
X456000Y350465D02*
D03*
X435500Y291965D02*
D03*
X499500Y302965D02*
D03*
X443000Y371965D02*
D03*
X459500Y428965D02*
D03*
D67*
X498000Y234000D02*
D03*
X480000Y234500D02*
D03*
X489000Y234000D02*
D03*
M02*
