G04 Layer_Physical_Order=2*
G04 Layer_Color=36540*
%FSLAX25Y25*%
%MOIN*%
G70*
G01*
G75*
%ADD50C,0.06693*%
%ADD52C,0.08661*%
%ADD54R,0.03543X0.03543*%
%ADD56C,0.06331*%
%ADD57C,0.07118*%
%ADD58C,0.08500*%
%ADD59C,0.06000*%
%ADD60R,0.06000X0.06000*%
%ADD64C,0.03500*%
%ADD65C,0.05000*%
%ADD66C,0.07500*%
G36*
X715500Y162549D02*
X661750D01*
X661750Y191000D01*
X646750Y206000D01*
X626750Y206000D01*
X610250Y189500D01*
Y162549D01*
X420417D01*
X420000Y162750D01*
X420000Y163049D01*
X420000Y191250D01*
X405000Y206250D01*
X385000Y206250D01*
X368500Y189750D01*
Y163049D01*
X368500Y162750D01*
X368083Y162549D01*
X220049D01*
Y449951D01*
X330250D01*
X330250Y421750D01*
X345250Y406750D01*
X365250Y406750D01*
X381750Y423250D01*
Y449951D01*
X715500D01*
X715500Y162549D01*
D02*
G37*
%LPC*%
G36*
X691500Y313534D02*
X690456Y313397D01*
X689483Y312994D01*
X688647Y312353D01*
X688006Y311517D01*
X687603Y310544D01*
X687465Y309500D01*
X687603Y308456D01*
X688006Y307483D01*
X688647Y306647D01*
X689483Y306006D01*
X690456Y305603D01*
X691500Y305466D01*
X692544Y305603D01*
X693517Y306006D01*
X694353Y306647D01*
X694994Y307483D01*
X695397Y308456D01*
X695535Y309500D01*
X695397Y310544D01*
X694994Y311517D01*
X694353Y312353D01*
X693517Y312994D01*
X692544Y313397D01*
X691500Y313534D01*
D02*
G37*
G36*
X666500Y304500D02*
X664500D01*
Y302500D01*
X666500D01*
Y304500D01*
D02*
G37*
G36*
X679500Y307500D02*
X677999D01*
X678006Y307483D01*
X678647Y306647D01*
X679483Y306006D01*
X679500Y305999D01*
Y307500D01*
D02*
G37*
G36*
X701500Y313534D02*
X700456Y313397D01*
X699483Y312994D01*
X698647Y312353D01*
X698006Y311517D01*
X697603Y310544D01*
X697466Y309500D01*
X697603Y308456D01*
X698006Y307483D01*
X698647Y306647D01*
X699483Y306006D01*
X700456Y305603D01*
X701500Y305466D01*
X702544Y305603D01*
X703517Y306006D01*
X704353Y306647D01*
X704994Y307483D01*
X705397Y308456D01*
X705535Y309500D01*
X705397Y310544D01*
X704994Y311517D01*
X704353Y312353D01*
X703517Y312994D01*
X702544Y313397D01*
X701500Y313534D01*
D02*
G37*
G36*
X660500Y304500D02*
X658500D01*
Y302500D01*
X660500D01*
Y304500D01*
D02*
G37*
G36*
X632500Y310535D02*
X631456Y310397D01*
X630483Y309994D01*
X629647Y309353D01*
X629006Y308517D01*
X628603Y307544D01*
X628466Y306500D01*
X628603Y305456D01*
X629006Y304483D01*
X629647Y303647D01*
X630483Y303006D01*
X631456Y302603D01*
X632500Y302466D01*
X633544Y302603D01*
X634517Y303006D01*
X635353Y303647D01*
X635994Y304483D01*
X636397Y305456D01*
X636535Y306500D01*
X636397Y307544D01*
X635994Y308517D01*
X635353Y309353D01*
X634517Y309994D01*
X633544Y310397D01*
X632500Y310535D01*
D02*
G37*
G36*
X499500Y306495D02*
X498586Y306375D01*
X497735Y306022D01*
X497004Y305461D01*
X496443Y304730D01*
X496090Y303878D01*
X495970Y302965D01*
X496090Y302051D01*
X496443Y301200D01*
X497004Y300468D01*
X497735Y299907D01*
X498586Y299555D01*
X499500Y299434D01*
X500414Y299555D01*
X501265Y299907D01*
X501996Y300468D01*
X502557Y301200D01*
X502910Y302051D01*
X503030Y302965D01*
X502910Y303878D01*
X502557Y304730D01*
X501996Y305461D01*
X501265Y306022D01*
X500414Y306375D01*
X499500Y306495D01*
D02*
G37*
G36*
X652500Y310535D02*
X651456Y310397D01*
X650483Y309994D01*
X649647Y309353D01*
X649006Y308517D01*
X648603Y307544D01*
X648465Y306500D01*
X648603Y305456D01*
X649006Y304483D01*
X649647Y303647D01*
X650483Y303006D01*
X651456Y302603D01*
X652500Y302466D01*
X653544Y302603D01*
X654517Y303006D01*
X655353Y303647D01*
X655994Y304483D01*
X656397Y305456D01*
X656534Y306500D01*
X656397Y307544D01*
X655994Y308517D01*
X655353Y309353D01*
X654517Y309994D01*
X653544Y310397D01*
X652500Y310535D01*
D02*
G37*
G36*
X642500D02*
X641456Y310397D01*
X640483Y309994D01*
X639647Y309353D01*
X639006Y308517D01*
X638603Y307544D01*
X638465Y306500D01*
X638603Y305456D01*
X639006Y304483D01*
X639647Y303647D01*
X640483Y303006D01*
X641456Y302603D01*
X642500Y302466D01*
X643544Y302603D01*
X644517Y303006D01*
X645353Y303647D01*
X645994Y304483D01*
X646397Y305456D01*
X646534Y306500D01*
X646397Y307544D01*
X645994Y308517D01*
X645353Y309353D01*
X644517Y309994D01*
X643544Y310397D01*
X642500Y310535D01*
D02*
G37*
G36*
X701500Y323534D02*
X700456Y323397D01*
X699483Y322994D01*
X698647Y322353D01*
X698006Y321517D01*
X697603Y320544D01*
X697466Y319500D01*
X697603Y318456D01*
X698006Y317483D01*
X698647Y316647D01*
X699483Y316006D01*
X700456Y315603D01*
X701500Y315465D01*
X702544Y315603D01*
X703517Y316006D01*
X704353Y316647D01*
X704994Y317483D01*
X705397Y318456D01*
X705535Y319500D01*
X705397Y320544D01*
X704994Y321517D01*
X704353Y322353D01*
X703517Y322994D01*
X702544Y323397D01*
X701500Y323534D01*
D02*
G37*
G36*
X691500D02*
X690456Y323397D01*
X689483Y322994D01*
X688647Y322353D01*
X688006Y321517D01*
X687603Y320544D01*
X687465Y319500D01*
X687603Y318456D01*
X688006Y317483D01*
X688647Y316647D01*
X689483Y316006D01*
X690456Y315603D01*
X691500Y315465D01*
X692544Y315603D01*
X693517Y316006D01*
X694353Y316647D01*
X694994Y317483D01*
X695397Y318456D01*
X695535Y319500D01*
X695397Y320544D01*
X694994Y321517D01*
X694353Y322353D01*
X693517Y322994D01*
X692544Y323397D01*
X691500Y323534D01*
D02*
G37*
G36*
X685001Y317500D02*
X683500D01*
Y315999D01*
X683517Y316006D01*
X684353Y316647D01*
X684994Y317483D01*
X685001Y317500D01*
D02*
G37*
G36*
X679500D02*
X677999D01*
X678006Y317483D01*
X678647Y316647D01*
X679483Y316006D01*
X679500Y315999D01*
Y317500D01*
D02*
G37*
G36*
X683500Y313001D02*
Y311500D01*
X685001D01*
X684994Y311517D01*
X684353Y312353D01*
X683517Y312994D01*
X683500Y313001D01*
D02*
G37*
G36*
X660500Y310500D02*
X658500D01*
Y308500D01*
X660500D01*
Y310500D01*
D02*
G37*
G36*
X685001Y307500D02*
X683500D01*
Y305999D01*
X683517Y306006D01*
X684353Y306647D01*
X684994Y307483D01*
X685001Y307500D01*
D02*
G37*
G36*
X679500Y313001D02*
X679483Y312994D01*
X678647Y312353D01*
X678006Y311517D01*
X677999Y311500D01*
X679500D01*
Y313001D01*
D02*
G37*
G36*
X666500Y310500D02*
X664500D01*
Y308500D01*
X666500D01*
Y310500D01*
D02*
G37*
G36*
X245000Y295295D02*
X243630Y295115D01*
X242352Y294586D01*
X241256Y293744D01*
X240414Y292648D01*
X239885Y291371D01*
X239705Y290000D01*
X239885Y288630D01*
X240414Y287352D01*
X241256Y286256D01*
X242352Y285414D01*
X243630Y284885D01*
X245000Y284705D01*
X246371Y284885D01*
X247648Y285414D01*
X248744Y286256D01*
X249586Y287352D01*
X250115Y288630D01*
X250295Y290000D01*
X250115Y291371D01*
X249586Y292648D01*
X248744Y293744D01*
X247648Y294586D01*
X246371Y295115D01*
X245000Y295295D01*
D02*
G37*
G36*
X659500Y281274D02*
X658782Y281179D01*
X658113Y280902D01*
X657539Y280461D01*
X657098Y279887D01*
X656821Y279218D01*
X656726Y278500D01*
X656821Y277782D01*
X657098Y277113D01*
X657539Y276539D01*
X658113Y276098D01*
X658782Y275821D01*
X659500Y275726D01*
X660218Y275821D01*
X660887Y276098D01*
X661461Y276539D01*
X661902Y277113D01*
X662179Y277782D01*
X662274Y278500D01*
X662179Y279218D01*
X661902Y279887D01*
X661461Y280461D01*
X660887Y280902D01*
X660218Y281179D01*
X659500Y281274D01*
D02*
G37*
G36*
X324854Y288000D02*
X322000D01*
Y285146D01*
X322648Y285414D01*
X323744Y286256D01*
X324586Y287352D01*
X324854Y288000D01*
D02*
G37*
G36*
X318000D02*
X315146D01*
X315414Y287352D01*
X316256Y286256D01*
X317352Y285414D01*
X318000Y285146D01*
Y288000D01*
D02*
G37*
G36*
X636500Y281274D02*
X635782Y281179D01*
X635113Y280902D01*
X634539Y280461D01*
X634098Y279887D01*
X633821Y279218D01*
X633726Y278500D01*
X633821Y277782D01*
X634098Y277113D01*
X634539Y276539D01*
X635113Y276098D01*
X635782Y275821D01*
X636500Y275726D01*
X637218Y275821D01*
X637887Y276098D01*
X638461Y276539D01*
X638902Y277113D01*
X639179Y277782D01*
X639274Y278500D01*
X639179Y279218D01*
X638902Y279887D01*
X638461Y280461D01*
X637887Y280902D01*
X637218Y281179D01*
X636500Y281274D01*
D02*
G37*
G36*
X642500Y262274D02*
X641782Y262179D01*
X641113Y261902D01*
X640539Y261461D01*
X640098Y260887D01*
X639821Y260218D01*
X639726Y259500D01*
X639821Y258782D01*
X640098Y258113D01*
X640539Y257539D01*
X641113Y257098D01*
X641782Y256821D01*
X642500Y256726D01*
X643218Y256821D01*
X643887Y257098D01*
X644461Y257539D01*
X644902Y258113D01*
X645179Y258782D01*
X645274Y259500D01*
X645179Y260218D01*
X644902Y260887D01*
X644461Y261461D01*
X643887Y261902D01*
X643218Y262179D01*
X642500Y262274D01*
D02*
G37*
G36*
X321750Y259104D02*
Y256250D01*
X324604D01*
X324336Y256898D01*
X323494Y257994D01*
X322398Y258836D01*
X321750Y259104D01*
D02*
G37*
G36*
X702500Y265274D02*
X701782Y265179D01*
X701113Y264902D01*
X700539Y264461D01*
X700098Y263887D01*
X699821Y263218D01*
X699726Y262500D01*
X699821Y261782D01*
X700098Y261113D01*
X700539Y260539D01*
X701113Y260098D01*
X701782Y259821D01*
X702500Y259726D01*
X703218Y259821D01*
X703887Y260098D01*
X704461Y260539D01*
X704902Y261113D01*
X705179Y261782D01*
X705274Y262500D01*
X705179Y263218D01*
X704902Y263887D01*
X704461Y264461D01*
X703887Y264902D01*
X703218Y265179D01*
X702500Y265274D01*
D02*
G37*
G36*
X614500Y263774D02*
X613782Y263679D01*
X613113Y263402D01*
X612539Y262961D01*
X612098Y262387D01*
X611821Y261718D01*
X611726Y261000D01*
X611821Y260282D01*
X612098Y259613D01*
X612539Y259039D01*
X613113Y258598D01*
X613782Y258321D01*
X614500Y258226D01*
X615218Y258321D01*
X615887Y258598D01*
X616461Y259039D01*
X616902Y259613D01*
X617179Y260282D01*
X617274Y261000D01*
X617179Y261718D01*
X616902Y262387D01*
X616461Y262961D01*
X615887Y263402D01*
X615218Y263679D01*
X614500Y263774D01*
D02*
G37*
G36*
X318000Y294854D02*
X317352Y294586D01*
X316256Y293744D01*
X315414Y292648D01*
X315146Y292000D01*
X318000D01*
Y294854D01*
D02*
G37*
G36*
X373685Y292842D02*
Y291965D01*
X374562D01*
X374181Y292461D01*
X373685Y292842D01*
D02*
G37*
G36*
X317750Y259104D02*
X317102Y258836D01*
X316006Y257994D01*
X315164Y256898D01*
X314896Y256250D01*
X317750D01*
Y259104D01*
D02*
G37*
G36*
X322000Y294854D02*
Y292000D01*
X324854D01*
X324586Y292648D01*
X323744Y293744D01*
X322648Y294586D01*
X322000Y294854D01*
D02*
G37*
G36*
X369685Y292842D02*
X369189Y292461D01*
X368808Y291965D01*
X369685D01*
Y292842D01*
D02*
G37*
G36*
X374562Y287965D02*
X373685D01*
Y287088D01*
X374181Y287468D01*
X374562Y287965D01*
D02*
G37*
G36*
X369685D02*
X368808D01*
X369189Y287468D01*
X369685Y287088D01*
Y287965D01*
D02*
G37*
G36*
X435500Y295495D02*
X434586Y295374D01*
X433735Y295022D01*
X433004Y294461D01*
X432443Y293730D01*
X432090Y292878D01*
X431970Y291965D01*
X432090Y291051D01*
X432443Y290199D01*
X433004Y289468D01*
X433735Y288907D01*
X434586Y288555D01*
X435500Y288434D01*
X436414Y288555D01*
X437265Y288907D01*
X437996Y289468D01*
X438557Y290199D01*
X438910Y291051D01*
X439030Y291965D01*
X438910Y292878D01*
X438557Y293730D01*
X437996Y294461D01*
X437265Y295022D01*
X436414Y295374D01*
X435500Y295495D01*
D02*
G37*
G36*
X422000D02*
X421086Y295374D01*
X420235Y295022D01*
X419504Y294461D01*
X418943Y293730D01*
X418590Y292878D01*
X418470Y291965D01*
X418590Y291051D01*
X418943Y290199D01*
X419504Y289468D01*
X420235Y288907D01*
X421086Y288555D01*
X422000Y288434D01*
X422914Y288555D01*
X423765Y288907D01*
X424496Y289468D01*
X425057Y290199D01*
X425410Y291051D01*
X425530Y291965D01*
X425410Y292878D01*
X425057Y293730D01*
X424496Y294461D01*
X423765Y295022D01*
X422914Y295374D01*
X422000Y295495D01*
D02*
G37*
G36*
X569000Y322500D02*
X567499D01*
X567506Y322483D01*
X568147Y321647D01*
X568983Y321006D01*
X569000Y320999D01*
Y322500D01*
D02*
G37*
G36*
X624500Y348274D02*
X623782Y348179D01*
X623113Y347902D01*
X622539Y347461D01*
X622098Y346887D01*
X621821Y346218D01*
X621726Y345500D01*
X621821Y344782D01*
X622098Y344113D01*
X622539Y343539D01*
X623113Y343098D01*
X623782Y342821D01*
X624500Y342726D01*
X625218Y342821D01*
X625887Y343098D01*
X626461Y343539D01*
X626902Y344113D01*
X627179Y344782D01*
X627274Y345500D01*
X627179Y346218D01*
X626902Y346887D01*
X626461Y347461D01*
X625887Y347902D01*
X625218Y348179D01*
X624500Y348274D01*
D02*
G37*
G36*
X683500Y343001D02*
Y341500D01*
X685001D01*
X684994Y341517D01*
X684353Y342353D01*
X683517Y342994D01*
X683500Y343001D01*
D02*
G37*
G36*
X532941Y346000D02*
X530000D01*
Y343058D01*
X530688Y343344D01*
X531802Y344198D01*
X532656Y345312D01*
X532941Y346000D01*
D02*
G37*
G36*
X526000D02*
X523059D01*
X523344Y345312D01*
X524198Y344198D01*
X525312Y343344D01*
X526000Y343058D01*
Y346000D01*
D02*
G37*
G36*
X679500Y343001D02*
X679483Y342994D01*
X678647Y342353D01*
X678006Y341517D01*
X677999Y341500D01*
X679500D01*
Y343001D01*
D02*
G37*
G36*
Y337500D02*
X677999D01*
X678006Y337483D01*
X678647Y336647D01*
X679483Y336006D01*
X679500Y335999D01*
Y337500D01*
D02*
G37*
G36*
X701500Y343534D02*
X700456Y343397D01*
X699483Y342994D01*
X698647Y342353D01*
X698006Y341517D01*
X697603Y340544D01*
X697466Y339500D01*
X697603Y338456D01*
X698006Y337483D01*
X698647Y336647D01*
X699483Y336006D01*
X700456Y335603D01*
X701500Y335466D01*
X702544Y335603D01*
X703517Y336006D01*
X704353Y336647D01*
X704994Y337483D01*
X705397Y338456D01*
X705535Y339500D01*
X705397Y340544D01*
X704994Y341517D01*
X704353Y342353D01*
X703517Y342994D01*
X702544Y343397D01*
X701500Y343534D01*
D02*
G37*
G36*
X571000Y348534D02*
X569956Y348397D01*
X568983Y347994D01*
X568147Y347353D01*
X567506Y346517D01*
X567103Y345544D01*
X566965Y344500D01*
X567103Y343456D01*
X567506Y342483D01*
X568147Y341647D01*
X568983Y341006D01*
X569956Y340603D01*
X571000Y340465D01*
X572044Y340603D01*
X573017Y341006D01*
X573853Y341647D01*
X574494Y342483D01*
X574897Y343456D01*
X575035Y344500D01*
X574897Y345544D01*
X574494Y346517D01*
X573853Y347353D01*
X573017Y347994D01*
X572044Y348397D01*
X571000Y348534D01*
D02*
G37*
G36*
X685001Y337500D02*
X683500D01*
Y335999D01*
X683517Y336006D01*
X684353Y336647D01*
X684994Y337483D01*
X685001Y337500D01*
D02*
G37*
G36*
X422500Y354995D02*
X421586Y354874D01*
X420735Y354522D01*
X420004Y353961D01*
X419443Y353230D01*
X419090Y352378D01*
X418970Y351465D01*
X419090Y350551D01*
X419443Y349699D01*
X420004Y348968D01*
X420735Y348407D01*
X421586Y348055D01*
X422500Y347934D01*
X423414Y348055D01*
X424265Y348407D01*
X424996Y348968D01*
X425557Y349699D01*
X425910Y350551D01*
X426030Y351465D01*
X425910Y352378D01*
X425557Y353230D01*
X424996Y353961D01*
X424265Y354522D01*
X423414Y354874D01*
X422500Y354995D01*
D02*
G37*
G36*
X245000Y357795D02*
X243630Y357615D01*
X242352Y357086D01*
X241256Y356244D01*
X240414Y355148D01*
X239885Y353871D01*
X239705Y352500D01*
X239885Y351130D01*
X240414Y349852D01*
X241256Y348756D01*
X242352Y347914D01*
X243630Y347385D01*
X245000Y347205D01*
X246371Y347385D01*
X247648Y347914D01*
X248744Y348756D01*
X249586Y349852D01*
X250115Y351130D01*
X250295Y352500D01*
X250115Y353871D01*
X249586Y355148D01*
X248744Y356244D01*
X247648Y357086D01*
X246371Y357615D01*
X245000Y357795D01*
D02*
G37*
G36*
X224953Y351453D02*
X224076D01*
X224457Y350957D01*
X224953Y350576D01*
Y351453D01*
D02*
G37*
G36*
X575000Y358500D02*
X567000D01*
Y350500D01*
X575000D01*
Y358500D01*
D02*
G37*
G36*
X456000Y353995D02*
X455086Y353874D01*
X454235Y353522D01*
X453504Y352961D01*
X452943Y352230D01*
X452590Y351378D01*
X452470Y350465D01*
X452590Y349551D01*
X452943Y348699D01*
X453504Y347968D01*
X454235Y347407D01*
X455086Y347055D01*
X456000Y346934D01*
X456914Y347055D01*
X457765Y347407D01*
X458496Y347968D01*
X459057Y348699D01*
X459410Y349551D01*
X459530Y350465D01*
X459410Y351378D01*
X459057Y352230D01*
X458496Y352961D01*
X457765Y353522D01*
X456914Y353874D01*
X456000Y353995D01*
D02*
G37*
G36*
X701500Y353535D02*
X700456Y353397D01*
X699483Y352994D01*
X698647Y352353D01*
X698006Y351517D01*
X697603Y350544D01*
X697466Y349500D01*
X697603Y348456D01*
X698006Y347483D01*
X698647Y346647D01*
X699483Y346006D01*
X700456Y345603D01*
X701500Y345465D01*
X702544Y345603D01*
X703517Y346006D01*
X704353Y346647D01*
X704994Y347483D01*
X705397Y348456D01*
X705535Y349500D01*
X705397Y350544D01*
X704994Y351517D01*
X704353Y352353D01*
X703517Y352994D01*
X702544Y353397D01*
X701500Y353535D01*
D02*
G37*
G36*
X691500D02*
X690456Y353397D01*
X689483Y352994D01*
X688647Y352353D01*
X688006Y351517D01*
X687603Y350544D01*
X687465Y349500D01*
X687603Y348456D01*
X688006Y347483D01*
X688647Y346647D01*
X689483Y346006D01*
X690456Y345603D01*
X691500Y345465D01*
X692544Y345603D01*
X693517Y346006D01*
X694353Y346647D01*
X694994Y347483D01*
X695397Y348456D01*
X695535Y349500D01*
X695397Y350544D01*
X694994Y351517D01*
X694353Y352353D01*
X693517Y352994D01*
X692544Y353397D01*
X691500Y353535D01*
D02*
G37*
G36*
X685001Y347500D02*
X683500D01*
Y345999D01*
X683517Y346006D01*
X684353Y346647D01*
X684994Y347483D01*
X685001Y347500D01*
D02*
G37*
G36*
X679500D02*
X677999D01*
X678006Y347483D01*
X678647Y346647D01*
X679483Y346006D01*
X679500Y345999D01*
Y347500D01*
D02*
G37*
G36*
X691500Y343534D02*
X690456Y343397D01*
X689483Y342994D01*
X688647Y342353D01*
X688006Y341517D01*
X687603Y340544D01*
X687465Y339500D01*
X687603Y338456D01*
X688006Y337483D01*
X688647Y336647D01*
X689483Y336006D01*
X690456Y335603D01*
X691500Y335466D01*
X692544Y335603D01*
X693517Y336006D01*
X694353Y336647D01*
X694994Y337483D01*
X695397Y338456D01*
X695535Y339500D01*
X695397Y340544D01*
X694994Y341517D01*
X694353Y342353D01*
X693517Y342994D01*
X692544Y343397D01*
X691500Y343534D01*
D02*
G37*
G36*
X679500Y327500D02*
X677999D01*
X678006Y327483D01*
X678647Y326647D01*
X679483Y326006D01*
X679500Y325999D01*
Y327500D01*
D02*
G37*
G36*
X701500Y333535D02*
X700456Y333397D01*
X699483Y332994D01*
X698647Y332353D01*
X698006Y331517D01*
X697603Y330544D01*
X697466Y329500D01*
X697603Y328456D01*
X698006Y327483D01*
X698647Y326647D01*
X699483Y326006D01*
X700456Y325603D01*
X701500Y325465D01*
X702544Y325603D01*
X703517Y326006D01*
X704353Y326647D01*
X704994Y327483D01*
X705397Y328456D01*
X705535Y329500D01*
X705397Y330544D01*
X704994Y331517D01*
X704353Y332353D01*
X703517Y332994D01*
X702544Y333397D01*
X701500Y333535D01*
D02*
G37*
G36*
X569000Y328001D02*
X568983Y327994D01*
X568147Y327353D01*
X567506Y326517D01*
X567499Y326500D01*
X569000D01*
Y328001D01*
D02*
G37*
G36*
X685001Y327500D02*
X683500D01*
Y325999D01*
X683517Y326006D01*
X684353Y326647D01*
X684994Y327483D01*
X685001Y327500D01*
D02*
G37*
G36*
X691500Y333535D02*
X690456Y333397D01*
X689483Y332994D01*
X688647Y332353D01*
X688006Y331517D01*
X687603Y330544D01*
X687465Y329500D01*
X687603Y328456D01*
X688006Y327483D01*
X688647Y326647D01*
X689483Y326006D01*
X690456Y325603D01*
X691500Y325465D01*
X692544Y325603D01*
X693517Y326006D01*
X694353Y326647D01*
X694994Y327483D01*
X695397Y328456D01*
X695535Y329500D01*
X695397Y330544D01*
X694994Y331517D01*
X694353Y332353D01*
X693517Y332994D01*
X692544Y333397D01*
X691500Y333535D01*
D02*
G37*
G36*
X679500Y323001D02*
X679483Y322994D01*
X678647Y322353D01*
X678006Y321517D01*
X677999Y321500D01*
X679500D01*
Y323001D01*
D02*
G37*
G36*
X574501Y322500D02*
X573000D01*
Y320999D01*
X573017Y321006D01*
X573853Y321647D01*
X574494Y322483D01*
X574501Y322500D01*
D02*
G37*
G36*
X528000Y330936D02*
X526608Y330753D01*
X525312Y330215D01*
X524198Y329361D01*
X523344Y328247D01*
X522807Y326951D01*
X522623Y325559D01*
X522807Y324167D01*
X523344Y322871D01*
X523883Y322168D01*
X523618Y321692D01*
X522724Y321780D01*
X521273Y321637D01*
X519877Y321214D01*
X518590Y320526D01*
X517463Y319600D01*
X516537Y318473D01*
X515849Y317186D01*
X515426Y315790D01*
X515283Y314339D01*
X515426Y312887D01*
X515849Y311491D01*
X516537Y310204D01*
X517463Y309077D01*
X518590Y308151D01*
X519877Y307464D01*
X521273Y307040D01*
X522724Y306897D01*
X523618Y306985D01*
X523883Y306509D01*
X523344Y305806D01*
X522807Y304510D01*
X522623Y303118D01*
X522807Y301727D01*
X523344Y300430D01*
X524198Y299316D01*
X525312Y298462D01*
X526608Y297925D01*
X528000Y297741D01*
X529392Y297925D01*
X530688Y298462D01*
X531802Y299316D01*
X532656Y300430D01*
X533193Y301727D01*
X533377Y303118D01*
X533193Y304510D01*
X532656Y305806D01*
X531802Y306920D01*
X530688Y307774D01*
X529392Y308312D01*
X528056Y308487D01*
X527876Y308780D01*
X527810Y308932D01*
X527986Y309077D01*
X528912Y310204D01*
X529599Y311491D01*
X530023Y312887D01*
X530166Y314339D01*
X530023Y315790D01*
X529599Y317186D01*
X528912Y318473D01*
X527986Y319600D01*
X527810Y319745D01*
X527876Y319897D01*
X528056Y320190D01*
X529392Y320366D01*
X530688Y320903D01*
X531802Y321757D01*
X532656Y322871D01*
X533193Y324167D01*
X533377Y325559D01*
X533193Y326951D01*
X532656Y328247D01*
X531802Y329361D01*
X530688Y330215D01*
X529392Y330753D01*
X528000Y330936D01*
D02*
G37*
G36*
X683500Y323001D02*
Y321500D01*
X685001D01*
X684994Y321517D01*
X684353Y322353D01*
X683517Y322994D01*
X683500Y323001D01*
D02*
G37*
G36*
X679500Y333001D02*
X679483Y332994D01*
X678647Y332353D01*
X678006Y331517D01*
X677999Y331500D01*
X679500D01*
Y333001D01*
D02*
G37*
G36*
X501500Y332342D02*
Y331465D01*
X502377D01*
X501996Y331961D01*
X501500Y332342D01*
D02*
G37*
G36*
X643000Y334774D02*
X642282Y334679D01*
X641613Y334402D01*
X641039Y333961D01*
X640623Y333420D01*
X640516Y333349D01*
X640090Y333293D01*
X639961Y333461D01*
X639387Y333902D01*
X638718Y334179D01*
X638000Y334274D01*
X637282Y334179D01*
X636613Y333902D01*
X636039Y333461D01*
X635598Y332887D01*
X635321Y332218D01*
X635226Y331500D01*
X635321Y330782D01*
X635598Y330113D01*
X636039Y329539D01*
X636613Y329098D01*
X637282Y328821D01*
X638000Y328726D01*
X638718Y328821D01*
X639387Y329098D01*
X639961Y329539D01*
X640377Y330080D01*
X640485Y330151D01*
X640910Y330207D01*
X641039Y330039D01*
X641613Y329598D01*
X642282Y329321D01*
X643000Y329226D01*
X643718Y329321D01*
X644387Y329598D01*
X644961Y330039D01*
X645402Y330613D01*
X645679Y331282D01*
X645774Y332000D01*
X645679Y332718D01*
X645402Y333387D01*
X644961Y333961D01*
X644387Y334402D01*
X643718Y334679D01*
X643000Y334774D01*
D02*
G37*
G36*
X683500Y333001D02*
Y331500D01*
X685001D01*
X684994Y331517D01*
X684353Y332353D01*
X683517Y332994D01*
X683500Y333001D01*
D02*
G37*
G36*
X497500Y332342D02*
X497004Y331961D01*
X496623Y331465D01*
X497500D01*
Y332342D01*
D02*
G37*
G36*
Y327465D02*
X496623D01*
X497004Y326968D01*
X497500Y326588D01*
Y327465D01*
D02*
G37*
G36*
X573000Y328001D02*
Y326500D01*
X574501D01*
X574494Y326517D01*
X573853Y327353D01*
X573017Y327994D01*
X573000Y328001D01*
D02*
G37*
G36*
X571000Y338534D02*
X569956Y338397D01*
X568983Y337994D01*
X568147Y337353D01*
X567506Y336517D01*
X567103Y335544D01*
X566965Y334500D01*
X567103Y333456D01*
X567506Y332483D01*
X568147Y331647D01*
X568983Y331006D01*
X569956Y330603D01*
X571000Y330466D01*
X572044Y330603D01*
X573017Y331006D01*
X573853Y331647D01*
X574494Y332483D01*
X574897Y333456D01*
X575035Y334500D01*
X574897Y335544D01*
X574494Y336517D01*
X573853Y337353D01*
X573017Y337994D01*
X572044Y338397D01*
X571000Y338534D01*
D02*
G37*
G36*
X502377Y327465D02*
X501500D01*
Y326588D01*
X501996Y326968D01*
X502377Y327465D01*
D02*
G37*
G36*
X398000Y262495D02*
X397086Y262374D01*
X396235Y262022D01*
X395504Y261461D01*
X394943Y260730D01*
X394590Y259878D01*
X394470Y258965D01*
X394590Y258051D01*
X394943Y257200D01*
X395504Y256468D01*
X396235Y255907D01*
X397086Y255555D01*
X398000Y255434D01*
X398914Y255555D01*
X399765Y255907D01*
X400496Y256468D01*
X401057Y257200D01*
X401410Y258051D01*
X401530Y258965D01*
X401410Y259878D01*
X401057Y260730D01*
X400496Y261461D01*
X399765Y262022D01*
X398914Y262374D01*
X398000Y262495D01*
D02*
G37*
G36*
X552287Y189921D02*
X551988Y189797D01*
X551036Y189067D01*
X550305Y188114D01*
X550181Y187815D01*
X552287D01*
Y189921D01*
D02*
G37*
G36*
X695402Y195388D02*
X694395Y195255D01*
X693458Y194867D01*
X692653Y194249D01*
X692035Y193444D01*
X691646Y192506D01*
X691514Y191500D01*
X691646Y190494D01*
X692035Y189556D01*
X692653Y188751D01*
X693458Y188133D01*
X694395Y187745D01*
X695402Y187612D01*
X696408Y187745D01*
X697345Y188133D01*
X698150Y188751D01*
X698768Y189556D01*
X699157Y190494D01*
X699289Y191500D01*
X699157Y192506D01*
X698768Y193444D01*
X698150Y194249D01*
X697345Y194867D01*
X696408Y195255D01*
X695402Y195388D01*
D02*
G37*
G36*
X601500Y189921D02*
X601201Y189797D01*
X600248Y189067D01*
X599518Y188114D01*
X599394Y187815D01*
X601500D01*
Y189921D01*
D02*
G37*
G36*
X556287D02*
Y187815D01*
X558394D01*
X558270Y188114D01*
X557539Y189067D01*
X556587Y189797D01*
X556287Y189921D01*
D02*
G37*
G36*
X675716Y195388D02*
X674710Y195255D01*
X673773Y194867D01*
X672968Y194249D01*
X672350Y193444D01*
X671961Y192506D01*
X671829Y191500D01*
X671961Y190494D01*
X672350Y189556D01*
X672968Y188751D01*
X673773Y188133D01*
X674710Y187745D01*
X675716Y187612D01*
X676723Y187745D01*
X677660Y188133D01*
X678466Y188751D01*
X679083Y189556D01*
X679472Y190494D01*
X679604Y191500D01*
X679472Y192506D01*
X679083Y193444D01*
X678466Y194249D01*
X677660Y194867D01*
X676723Y195255D01*
X675716Y195388D01*
D02*
G37*
G36*
X345471Y187508D02*
X343595D01*
Y185632D01*
X343787Y185711D01*
X344694Y186408D01*
X345391Y187316D01*
X345471Y187508D01*
D02*
G37*
G36*
X339595D02*
X337718D01*
X337798Y187316D01*
X338495Y186408D01*
X339403Y185711D01*
X339595Y185632D01*
Y187508D01*
D02*
G37*
G36*
X357282D02*
X355405D01*
Y185632D01*
X355597Y185711D01*
X356505Y186408D01*
X357202Y187316D01*
X357282Y187508D01*
D02*
G37*
G36*
X351406D02*
X349529D01*
X349609Y187316D01*
X350306Y186408D01*
X351214Y185711D01*
X351406Y185632D01*
Y187508D01*
D02*
G37*
G36*
X301095Y193384D02*
Y191508D01*
X302971D01*
X302891Y191700D01*
X302194Y192608D01*
X301287Y193305D01*
X301095Y193384D01*
D02*
G37*
G36*
X297094D02*
X296902Y193305D01*
X295995Y192608D01*
X295298Y191700D01*
X295218Y191508D01*
X297094D01*
Y193384D01*
D02*
G37*
G36*
X312906D02*
Y191508D01*
X314782D01*
X314702Y191700D01*
X314005Y192608D01*
X313098Y193305D01*
X312906Y193384D01*
D02*
G37*
G36*
X308906D02*
X308714Y193305D01*
X307806Y192608D01*
X307109Y191700D01*
X307029Y191508D01*
X308906D01*
Y193384D01*
D02*
G37*
G36*
X269500Y193376D02*
Y191500D01*
X271376D01*
X271297Y191692D01*
X270600Y192600D01*
X269692Y193297D01*
X269500Y193376D01*
D02*
G37*
G36*
X253689D02*
X253497Y193297D01*
X252589Y192600D01*
X251892Y191692D01*
X251813Y191500D01*
X253689D01*
Y193376D01*
D02*
G37*
G36*
X605500Y189921D02*
Y187815D01*
X607606D01*
X607482Y188114D01*
X606752Y189067D01*
X605799Y189797D01*
X605500Y189921D01*
D02*
G37*
G36*
X265500Y193376D02*
X265308Y193297D01*
X264400Y192600D01*
X263703Y191692D01*
X263624Y191500D01*
X265500D01*
Y193376D01*
D02*
G37*
G36*
X257689D02*
Y191500D01*
X259565D01*
X259486Y191692D01*
X258789Y192600D01*
X257881Y193297D01*
X257689Y193376D01*
D02*
G37*
G36*
X314782Y187508D02*
X312906D01*
Y185632D01*
X313098Y185711D01*
X314005Y186408D01*
X314702Y187316D01*
X314782Y187508D01*
D02*
G37*
G36*
X699339Y184952D02*
X698639Y184860D01*
X697987Y184590D01*
X697426Y184160D01*
X696997Y183600D01*
X696727Y182948D01*
X696634Y182248D01*
Y179492D01*
X696727Y178792D01*
X696997Y178140D01*
X697426Y177580D01*
X697987Y177150D01*
X698639Y176880D01*
X699339Y176788D01*
X700038Y176880D01*
X700691Y177150D01*
X701251Y177580D01*
X701681Y178140D01*
X701951Y178792D01*
X702043Y179492D01*
Y182248D01*
X701951Y182948D01*
X701681Y183600D01*
X701251Y184160D01*
X700691Y184590D01*
X700038Y184860D01*
X699339Y184952D01*
D02*
G37*
G36*
X671779D02*
X671080Y184860D01*
X670427Y184590D01*
X669867Y184160D01*
X669438Y183600D01*
X669167Y182948D01*
X669075Y182248D01*
Y179492D01*
X669167Y178792D01*
X669438Y178140D01*
X669867Y177580D01*
X670427Y177150D01*
X671080Y176880D01*
X671779Y176788D01*
X672479Y176880D01*
X673132Y177150D01*
X673692Y177580D01*
X674122Y178140D01*
X674392Y178792D01*
X674484Y179492D01*
Y182248D01*
X674392Y182948D01*
X674122Y183600D01*
X673692Y184160D01*
X673132Y184590D01*
X672479Y184860D01*
X671779Y184952D01*
D02*
G37*
G36*
X558394Y183815D02*
X556287D01*
Y181709D01*
X556587Y181833D01*
X557539Y182563D01*
X558270Y183516D01*
X558394Y183815D01*
D02*
G37*
G36*
X552287D02*
X550181D01*
X550305Y183516D01*
X551036Y182563D01*
X551988Y181833D01*
X552287Y181709D01*
Y183815D01*
D02*
G37*
G36*
X533953Y179953D02*
X526047D01*
Y172047D01*
X533953D01*
Y179953D01*
D02*
G37*
G36*
X305000Y181417D02*
X303260Y181246D01*
X301588Y180738D01*
X300046Y179914D01*
X298695Y178805D01*
X297586Y177454D01*
X296762Y175912D01*
X296254Y174240D01*
X296083Y172500D01*
X296254Y170760D01*
X296762Y169088D01*
X297586Y167546D01*
X298695Y166195D01*
X300046Y165086D01*
X301588Y164262D01*
X303260Y163754D01*
X305000Y163583D01*
X306740Y163754D01*
X308412Y164262D01*
X309954Y165086D01*
X311305Y166195D01*
X312414Y167546D01*
X313238Y169088D01*
X313746Y170760D01*
X313917Y172500D01*
X313746Y174240D01*
X313238Y175912D01*
X312414Y177454D01*
X311305Y178805D01*
X309954Y179914D01*
X308412Y180738D01*
X306740Y181246D01*
X305000Y181417D01*
D02*
G37*
G36*
X261595Y181409D02*
X259855Y181238D01*
X258182Y180730D01*
X256641Y179906D01*
X255289Y178797D01*
X254180Y177446D01*
X253356Y175905D01*
X252849Y174232D01*
X252677Y172492D01*
X252849Y170753D01*
X253356Y169080D01*
X254180Y167538D01*
X255289Y166187D01*
X256641Y165078D01*
X258182Y164254D01*
X259855Y163747D01*
X261595Y163575D01*
X263334Y163747D01*
X265007Y164254D01*
X266548Y165078D01*
X267900Y166187D01*
X269009Y167538D01*
X269833Y169080D01*
X270340Y170753D01*
X270511Y172492D01*
X270340Y174232D01*
X269833Y175905D01*
X269009Y177446D01*
X267900Y178797D01*
X266548Y179906D01*
X265007Y180730D01*
X263334Y181238D01*
X261595Y181409D01*
D02*
G37*
G36*
X520000Y179987D02*
X518968Y179851D01*
X518007Y179453D01*
X517181Y178819D01*
X516547Y177993D01*
X516149Y177032D01*
X516013Y176000D01*
X516149Y174968D01*
X516547Y174007D01*
X517181Y173181D01*
X518007Y172547D01*
X518968Y172149D01*
X520000Y172013D01*
X521032Y172149D01*
X521993Y172547D01*
X522819Y173181D01*
X523453Y174007D01*
X523851Y174968D01*
X523987Y176000D01*
X523851Y177032D01*
X523453Y177993D01*
X522819Y178819D01*
X521993Y179453D01*
X521032Y179851D01*
X520000Y179987D01*
D02*
G37*
G36*
X347500Y181417D02*
X345760Y181246D01*
X344088Y180738D01*
X342546Y179914D01*
X341195Y178805D01*
X340086Y177454D01*
X339262Y175912D01*
X338754Y174240D01*
X338583Y172500D01*
X338754Y170760D01*
X339262Y169088D01*
X340086Y167546D01*
X341195Y166195D01*
X342546Y165086D01*
X344088Y164262D01*
X345760Y163754D01*
X347500Y163583D01*
X349240Y163754D01*
X350912Y164262D01*
X352454Y165086D01*
X353805Y166195D01*
X354914Y167546D01*
X355738Y169088D01*
X356246Y170760D01*
X356417Y172500D01*
X356246Y174240D01*
X355738Y175912D01*
X354914Y177454D01*
X353805Y178805D01*
X352454Y179914D01*
X350912Y180738D01*
X349240Y181246D01*
X347500Y181417D01*
D02*
G37*
G36*
X297094Y187508D02*
X295218D01*
X295298Y187316D01*
X295995Y186408D01*
X296902Y185711D01*
X297094Y185632D01*
Y187508D01*
D02*
G37*
G36*
X271376Y187500D02*
X269500D01*
Y185624D01*
X269692Y185703D01*
X270600Y186400D01*
X271297Y187308D01*
X271376Y187500D01*
D02*
G37*
G36*
X308906Y187508D02*
X307029D01*
X307109Y187316D01*
X307806Y186408D01*
X308714Y185711D01*
X308906Y185632D01*
Y187508D01*
D02*
G37*
G36*
X302971D02*
X301095D01*
Y185632D01*
X301287Y185711D01*
X302194Y186408D01*
X302891Y187316D01*
X302971Y187508D01*
D02*
G37*
G36*
X265500Y187500D02*
X263624D01*
X263703Y187308D01*
X264400Y186400D01*
X265308Y185703D01*
X265500Y185624D01*
Y187500D01*
D02*
G37*
G36*
X607606Y183815D02*
X605500D01*
Y181709D01*
X605799Y181833D01*
X606752Y182563D01*
X607482Y183516D01*
X607606Y183815D01*
D02*
G37*
G36*
X601500D02*
X599394D01*
X599518Y183516D01*
X600248Y182563D01*
X601201Y181833D01*
X601500Y181709D01*
Y183815D01*
D02*
G37*
G36*
X259565Y187500D02*
X257689D01*
Y185624D01*
X257881Y185703D01*
X258789Y186400D01*
X259486Y187308D01*
X259565Y187500D01*
D02*
G37*
G36*
X253689D02*
X251813D01*
X251892Y187308D01*
X252589Y186400D01*
X253497Y185703D01*
X253689Y185624D01*
Y187500D01*
D02*
G37*
G36*
X630500Y248304D02*
X629774Y248208D01*
X629098Y247928D01*
X628518Y247482D01*
X628072Y246902D01*
X627792Y246226D01*
X627697Y245500D01*
X627792Y244774D01*
X628072Y244098D01*
X628518Y243518D01*
X628730Y243355D01*
Y242724D01*
X628518Y242561D01*
X628072Y241981D01*
X627792Y241304D01*
X627697Y240579D01*
X627792Y239853D01*
X628072Y239177D01*
X628518Y238596D01*
X628730Y238433D01*
Y237803D01*
X628518Y237640D01*
X628072Y237059D01*
X627792Y236383D01*
X627697Y235658D01*
X627792Y234932D01*
X628072Y234256D01*
X628262Y234008D01*
X628016Y233508D01*
X627728D01*
Y232736D01*
X630500D01*
X633272D01*
Y233508D01*
X632984D01*
X632738Y234008D01*
X632928Y234256D01*
X633208Y234932D01*
X633303Y235658D01*
X633208Y236383D01*
X632928Y237059D01*
X632482Y237640D01*
X632270Y237803D01*
Y238433D01*
X632482Y238596D01*
X632928Y239177D01*
X633208Y239853D01*
X633303Y240579D01*
X633208Y241304D01*
X632928Y241981D01*
X632482Y242561D01*
X632270Y242724D01*
Y243355D01*
X632482Y243518D01*
X632928Y244098D01*
X633208Y244774D01*
X633303Y245500D01*
X633208Y246226D01*
X632928Y246902D01*
X632482Y247482D01*
X631902Y247928D01*
X631226Y248208D01*
X630500Y248304D01*
D02*
G37*
G36*
X480000Y239291D02*
X478760Y239128D01*
X477604Y238649D01*
X476612Y237888D01*
X475851Y236895D01*
X475372Y235740D01*
X475209Y234500D01*
X475372Y233260D01*
X475851Y232104D01*
X476612Y231112D01*
X477604Y230351D01*
X478760Y229872D01*
X480000Y229709D01*
X481240Y229872D01*
X482396Y230351D01*
X483388Y231112D01*
X484119Y232065D01*
X484439Y232104D01*
X484644D01*
X484851Y231605D01*
X485612Y230612D01*
X486604Y229851D01*
X487760Y229372D01*
X489000Y229209D01*
X490240Y229372D01*
X491396Y229851D01*
X492388Y230612D01*
X493149Y231605D01*
X493250Y231848D01*
X493750D01*
X493851Y231605D01*
X494612Y230612D01*
X495605Y229851D01*
X496760Y229372D01*
X498000Y229209D01*
X499240Y229372D01*
X500395Y229851D01*
X501388Y230612D01*
X502149Y231605D01*
X502628Y232760D01*
X502791Y234000D01*
X502628Y235240D01*
X502149Y236396D01*
X501388Y237388D01*
X500395Y238149D01*
X499240Y238628D01*
X498000Y238791D01*
X496760Y238628D01*
X495605Y238149D01*
X494612Y237388D01*
X493851Y236396D01*
X493750Y236152D01*
X493250D01*
X493149Y236396D01*
X492388Y237388D01*
X491396Y238149D01*
X490240Y238628D01*
X489000Y238791D01*
X487760Y238628D01*
X486604Y238149D01*
X485612Y237388D01*
X484881Y236435D01*
X484561Y236396D01*
X484356D01*
X484149Y236895D01*
X483388Y237888D01*
X482396Y238649D01*
X481240Y239128D01*
X480000Y239291D01*
D02*
G37*
G36*
X582500Y242201D02*
X581413Y242058D01*
X580399Y241638D01*
X579529Y240971D01*
X578862Y240101D01*
X578442Y239087D01*
X578299Y238000D01*
X578442Y236913D01*
X578862Y235899D01*
X579529Y235029D01*
X580399Y234362D01*
X581413Y233942D01*
X582500Y233799D01*
X583587Y233942D01*
X584601Y234362D01*
X585471Y235029D01*
X586138Y235899D01*
X586558Y236913D01*
X586701Y238000D01*
X586558Y239087D01*
X586138Y240101D01*
X585471Y240971D01*
X584601Y241638D01*
X583587Y242058D01*
X582500Y242201D01*
D02*
G37*
G36*
X642500Y248725D02*
X641774Y248629D01*
X641098Y248349D01*
X640518Y247904D01*
X640072Y247323D01*
X639792Y246647D01*
X639697Y245921D01*
X639792Y245196D01*
X640072Y244519D01*
X640518Y243939D01*
X640730Y243776D01*
Y243145D01*
X640518Y242982D01*
X640072Y242402D01*
X639792Y241726D01*
X639697Y241000D01*
X639792Y240274D01*
X640072Y239598D01*
X640518Y239018D01*
X640730Y238855D01*
Y238224D01*
X640518Y238061D01*
X640072Y237480D01*
X639792Y236804D01*
X639697Y236079D01*
X639792Y235353D01*
X640072Y234677D01*
X640262Y234429D01*
X640016Y233929D01*
X639728D01*
Y233157D01*
X642500D01*
X645272D01*
Y233929D01*
X644984D01*
X644738Y234429D01*
X644928Y234677D01*
X645208Y235353D01*
X645303Y236079D01*
X645208Y236804D01*
X644928Y237480D01*
X644482Y238061D01*
X644270Y238224D01*
Y238855D01*
X644482Y239018D01*
X644928Y239598D01*
X645208Y240274D01*
X645303Y241000D01*
X645208Y241726D01*
X644928Y242402D01*
X644482Y242982D01*
X644270Y243145D01*
Y243776D01*
X644482Y243939D01*
X644928Y244519D01*
X645208Y245196D01*
X645303Y245921D01*
X645208Y246647D01*
X644928Y247323D01*
X644482Y247904D01*
X643902Y248349D01*
X643226Y248629D01*
X642500Y248725D01*
D02*
G37*
G36*
X645272Y229157D02*
X644500D01*
Y228386D01*
X645272D01*
Y229157D01*
D02*
G37*
G36*
X628500Y228736D02*
X627728D01*
Y227965D01*
X628500D01*
Y228736D01*
D02*
G37*
G36*
X276000Y221877D02*
Y221000D01*
X276877D01*
X276496Y221496D01*
X276000Y221877D01*
D02*
G37*
G36*
X640500Y229157D02*
X639728D01*
Y228386D01*
X640500D01*
Y229157D01*
D02*
G37*
G36*
X633272Y228736D02*
X632500D01*
Y227965D01*
X633272D01*
Y228736D01*
D02*
G37*
G36*
X580500Y251680D02*
X580399Y251638D01*
X579529Y250971D01*
X578862Y250101D01*
X578820Y250000D01*
X580500D01*
Y251680D01*
D02*
G37*
G36*
X324604Y252250D02*
X321750D01*
Y249396D01*
X322398Y249664D01*
X323494Y250506D01*
X324336Y251602D01*
X324604Y252250D01*
D02*
G37*
G36*
X582500Y262201D02*
X581413Y262058D01*
X580399Y261638D01*
X579529Y260971D01*
X578862Y260101D01*
X578442Y259087D01*
X578299Y258000D01*
X578442Y256913D01*
X578862Y255899D01*
X579529Y255029D01*
X580399Y254362D01*
X581413Y253942D01*
X582500Y253799D01*
X583587Y253942D01*
X584601Y254362D01*
X585471Y255029D01*
X586138Y255899D01*
X586558Y256913D01*
X586701Y258000D01*
X586558Y259087D01*
X586138Y260101D01*
X585471Y260971D01*
X584601Y261638D01*
X583587Y262058D01*
X582500Y262201D01*
D02*
G37*
G36*
X584500Y251680D02*
Y250000D01*
X586180D01*
X586138Y250101D01*
X585471Y250971D01*
X584601Y251638D01*
X584500Y251680D01*
D02*
G37*
G36*
X317750Y252250D02*
X314896D01*
X315164Y251602D01*
X316006Y250506D01*
X317102Y249664D01*
X317750Y249396D01*
Y252250D01*
D02*
G37*
G36*
X580500Y246000D02*
X578820D01*
X578862Y245899D01*
X579529Y245029D01*
X580399Y244362D01*
X580500Y244320D01*
Y246000D01*
D02*
G37*
G36*
X659500Y247274D02*
X658782Y247179D01*
X658113Y246902D01*
X657539Y246461D01*
X657098Y245887D01*
X656821Y245218D01*
X656726Y244500D01*
X656821Y243782D01*
X657098Y243113D01*
X657539Y242539D01*
X658113Y242098D01*
X658782Y241821D01*
X659500Y241726D01*
X660218Y241821D01*
X660887Y242098D01*
X661461Y242539D01*
X661902Y243113D01*
X662179Y243782D01*
X662274Y244500D01*
X662179Y245218D01*
X661902Y245887D01*
X661461Y246461D01*
X660887Y246902D01*
X660218Y247179D01*
X659500Y247274D01*
D02*
G37*
G36*
X704500Y250774D02*
X703782Y250679D01*
X703113Y250402D01*
X702539Y249961D01*
X702098Y249387D01*
X701821Y248718D01*
X701726Y248000D01*
X701821Y247282D01*
X702098Y246613D01*
X702539Y246039D01*
X703113Y245598D01*
X703782Y245321D01*
X704500Y245226D01*
X705218Y245321D01*
X705887Y245598D01*
X706461Y246039D01*
X706902Y246613D01*
X707179Y247282D01*
X707274Y248000D01*
X707179Y248718D01*
X706902Y249387D01*
X706461Y249961D01*
X705887Y250402D01*
X705218Y250679D01*
X704500Y250774D01*
D02*
G37*
G36*
X586180Y246000D02*
X584500D01*
Y244320D01*
X584601Y244362D01*
X585471Y245029D01*
X586138Y245899D01*
X586180Y246000D01*
D02*
G37*
G36*
X272000Y221877D02*
X271504Y221496D01*
X271123Y221000D01*
X272000D01*
Y221877D01*
D02*
G37*
G36*
X299095Y205703D02*
X297960Y205554D01*
X296902Y205116D01*
X295995Y204419D01*
X295298Y203511D01*
X294860Y202453D01*
X294710Y201319D01*
X294860Y200184D01*
X295298Y199127D01*
X295995Y198219D01*
X296902Y197522D01*
X297960Y197084D01*
X299095Y196935D01*
X300229Y197084D01*
X301287Y197522D01*
X302194Y198219D01*
X302891Y199127D01*
X303329Y200184D01*
X303479Y201319D01*
X303329Y202453D01*
X302891Y203511D01*
X302194Y204419D01*
X301287Y205116D01*
X300229Y205554D01*
X299095Y205703D01*
D02*
G37*
G36*
X267500Y205695D02*
X266365Y205546D01*
X265308Y205108D01*
X264400Y204411D01*
X263703Y203503D01*
X263265Y202446D01*
X263116Y201311D01*
X263265Y200176D01*
X263703Y199119D01*
X264400Y198211D01*
X265308Y197514D01*
X266365Y197076D01*
X267500Y196927D01*
X268635Y197076D01*
X269692Y197514D01*
X270600Y198211D01*
X271297Y199119D01*
X271735Y200176D01*
X271884Y201311D01*
X271735Y202446D01*
X271297Y203503D01*
X270600Y204411D01*
X269692Y205108D01*
X268635Y205546D01*
X267500Y205695D01*
D02*
G37*
G36*
X341595Y205703D02*
X340460Y205554D01*
X339403Y205116D01*
X338495Y204419D01*
X337798Y203511D01*
X337360Y202453D01*
X337210Y201319D01*
X337360Y200184D01*
X337798Y199127D01*
X338495Y198219D01*
X339403Y197522D01*
X340460Y197084D01*
X341595Y196935D01*
X342729Y197084D01*
X343787Y197522D01*
X344694Y198219D01*
X345391Y199127D01*
X345829Y200184D01*
X345978Y201319D01*
X345829Y202453D01*
X345391Y203511D01*
X344694Y204419D01*
X343787Y205116D01*
X342729Y205554D01*
X341595Y205703D01*
D02*
G37*
G36*
X310906D02*
X309771Y205554D01*
X308714Y205116D01*
X307806Y204419D01*
X307109Y203511D01*
X306671Y202453D01*
X306522Y201319D01*
X306671Y200184D01*
X307109Y199127D01*
X307806Y198219D01*
X308714Y197522D01*
X309771Y197084D01*
X310906Y196935D01*
X312040Y197084D01*
X313098Y197522D01*
X314005Y198219D01*
X314702Y199127D01*
X315140Y200184D01*
X315289Y201319D01*
X315140Y202453D01*
X314702Y203511D01*
X314005Y204419D01*
X313098Y205116D01*
X312040Y205554D01*
X310906Y205703D01*
D02*
G37*
G36*
X255689Y205695D02*
X254554Y205546D01*
X253497Y205108D01*
X252589Y204411D01*
X251892Y203503D01*
X251454Y202446D01*
X251305Y201311D01*
X251454Y200176D01*
X251892Y199119D01*
X252589Y198211D01*
X253497Y197514D01*
X254554Y197076D01*
X255689Y196927D01*
X256824Y197076D01*
X257881Y197514D01*
X258789Y198211D01*
X259486Y199119D01*
X259924Y200176D01*
X260073Y201311D01*
X259924Y202446D01*
X259486Y203503D01*
X258789Y204411D01*
X257881Y205108D01*
X256824Y205546D01*
X255689Y205695D01*
D02*
G37*
G36*
X343595Y193384D02*
Y191508D01*
X345471D01*
X345391Y191700D01*
X344694Y192608D01*
X343787Y193305D01*
X343595Y193384D01*
D02*
G37*
G36*
X339595D02*
X339403Y193305D01*
X338495Y192608D01*
X337798Y191700D01*
X337718Y191508D01*
X339595D01*
Y193384D01*
D02*
G37*
G36*
X355405D02*
Y191508D01*
X357282D01*
X357202Y191700D01*
X356505Y192608D01*
X355597Y193305D01*
X355405Y193384D01*
D02*
G37*
G36*
X351406D02*
X351214Y193305D01*
X350306Y192608D01*
X349609Y191700D01*
X349529Y191508D01*
X351406D01*
Y193384D01*
D02*
G37*
G36*
X523000Y214813D02*
Y212500D01*
X525313D01*
X525149Y212895D01*
X524388Y213888D01*
X523395Y214649D01*
X523000Y214813D01*
D02*
G37*
G36*
X519000D02*
X518605Y214649D01*
X517612Y213888D01*
X516851Y212895D01*
X516687Y212500D01*
X519000D01*
Y214813D01*
D02*
G37*
G36*
X276877Y217000D02*
X276000D01*
Y216123D01*
X276496Y216504D01*
X276877Y217000D01*
D02*
G37*
G36*
X272000D02*
X271123D01*
X271504Y216504D01*
X272000Y216123D01*
Y217000D01*
D02*
G37*
G36*
X525313Y208500D02*
X523000D01*
Y206187D01*
X523395Y206351D01*
X524388Y207112D01*
X525149Y208104D01*
X525313Y208500D01*
D02*
G37*
G36*
X554287Y210098D02*
X553097Y209942D01*
X551988Y209482D01*
X551036Y208752D01*
X550305Y207799D01*
X549846Y206690D01*
X549689Y205500D01*
X549846Y204310D01*
X550305Y203201D01*
X551036Y202249D01*
X551988Y201518D01*
X553097Y201058D01*
X554287Y200902D01*
X555478Y201058D01*
X556587Y201518D01*
X557539Y202249D01*
X558270Y203201D01*
X558729Y204310D01*
X558886Y205500D01*
X558729Y206690D01*
X558270Y207799D01*
X557539Y208752D01*
X556587Y209482D01*
X555478Y209942D01*
X554287Y210098D01*
D02*
G37*
G36*
X353405Y205703D02*
X352271Y205554D01*
X351214Y205116D01*
X350306Y204419D01*
X349609Y203511D01*
X349171Y202453D01*
X349022Y201319D01*
X349171Y200184D01*
X349609Y199127D01*
X350306Y198219D01*
X351214Y197522D01*
X352271Y197084D01*
X353405Y196935D01*
X354540Y197084D01*
X355597Y197522D01*
X356505Y198219D01*
X357202Y199127D01*
X357640Y200184D01*
X357789Y201319D01*
X357640Y202453D01*
X357202Y203511D01*
X356505Y204419D01*
X355597Y205116D01*
X354540Y205554D01*
X353405Y205703D01*
D02*
G37*
G36*
X519000Y208500D02*
X516687D01*
X516851Y208104D01*
X517612Y207112D01*
X518605Y206351D01*
X519000Y206187D01*
Y208500D01*
D02*
G37*
G36*
X603500Y210098D02*
X602310Y209942D01*
X601201Y209482D01*
X600248Y208752D01*
X599518Y207799D01*
X599058Y206690D01*
X598902Y205500D01*
X599058Y204310D01*
X599518Y203201D01*
X600248Y202249D01*
X601201Y201518D01*
X602310Y201058D01*
X603500Y200902D01*
X604690Y201058D01*
X605799Y201518D01*
X606752Y202249D01*
X607482Y203201D01*
X607942Y204310D01*
X608098Y205500D01*
X607942Y206690D01*
X607482Y207799D01*
X606752Y208752D01*
X605799Y209482D01*
X604690Y209942D01*
X603500Y210098D01*
D02*
G37*
G36*
X615000Y408501D02*
X614983Y408494D01*
X614147Y407853D01*
X613506Y407017D01*
X613499Y407000D01*
X615000D01*
Y408501D01*
D02*
G37*
G36*
X605000D02*
X604983Y408494D01*
X604147Y407853D01*
X603506Y407017D01*
X603499Y407000D01*
X605000D01*
Y408501D01*
D02*
G37*
G36*
X559000D02*
Y407000D01*
X560501D01*
X560494Y407017D01*
X559853Y407853D01*
X559017Y408494D01*
X559000Y408501D01*
D02*
G37*
G36*
X549000D02*
Y407000D01*
X550501D01*
X550494Y407017D01*
X549853Y407853D01*
X549017Y408494D01*
X549000Y408501D01*
D02*
G37*
G36*
X595000D02*
X594983Y408494D01*
X594147Y407853D01*
X593506Y407017D01*
X593499Y407000D01*
X595000D01*
Y408501D01*
D02*
G37*
G36*
X565000D02*
X564983Y408494D01*
X564147Y407853D01*
X563506Y407017D01*
X563499Y407000D01*
X565000D01*
Y408501D01*
D02*
G37*
G36*
X555000D02*
X554983Y408494D01*
X554147Y407853D01*
X553506Y407017D01*
X553499Y407000D01*
X555000D01*
Y408501D01*
D02*
G37*
G36*
X585000D02*
X584983Y408494D01*
X584147Y407853D01*
X583506Y407017D01*
X583499Y407000D01*
X585000D01*
Y408501D01*
D02*
G37*
G36*
X575000D02*
X574983Y408494D01*
X574147Y407853D01*
X573506Y407017D01*
X573499Y407000D01*
X575000D01*
Y408501D01*
D02*
G37*
G36*
X486500Y414995D02*
X485586Y414875D01*
X484735Y414522D01*
X484004Y413961D01*
X483443Y413230D01*
X483090Y412378D01*
X482970Y411465D01*
X483090Y410551D01*
X483443Y409699D01*
X484004Y408968D01*
X484735Y408407D01*
X485586Y408055D01*
X486500Y407934D01*
X487414Y408055D01*
X488265Y408407D01*
X488996Y408968D01*
X489557Y409699D01*
X489910Y410551D01*
X490030Y411465D01*
X489910Y412378D01*
X489557Y413230D01*
X488996Y413961D01*
X488265Y414522D01*
X487414Y414875D01*
X486500Y414995D01*
D02*
G37*
G36*
X619000Y408501D02*
Y407000D01*
X620501D01*
X620494Y407017D01*
X619853Y407853D01*
X619017Y408494D01*
X619000Y408501D01*
D02*
G37*
G36*
X557000Y419034D02*
X555956Y418897D01*
X554983Y418494D01*
X554147Y417853D01*
X553506Y417017D01*
X553103Y416044D01*
X552965Y415000D01*
X553103Y413956D01*
X553506Y412983D01*
X554147Y412147D01*
X554983Y411506D01*
X555956Y411103D01*
X557000Y410965D01*
X558044Y411103D01*
X559017Y411506D01*
X559853Y412147D01*
X560494Y412983D01*
X560897Y413956D01*
X561034Y415000D01*
X560897Y416044D01*
X560494Y417017D01*
X559853Y417853D01*
X559017Y418494D01*
X558044Y418897D01*
X557000Y419034D01*
D02*
G37*
G36*
X547000D02*
X545956Y418897D01*
X544983Y418494D01*
X544147Y417853D01*
X543506Y417017D01*
X543103Y416044D01*
X542966Y415000D01*
X543103Y413956D01*
X543506Y412983D01*
X544147Y412147D01*
X544983Y411506D01*
X545956Y411103D01*
X547000Y410965D01*
X548044Y411103D01*
X549017Y411506D01*
X549853Y412147D01*
X550494Y412983D01*
X550897Y413956D01*
X551034Y415000D01*
X550897Y416044D01*
X550494Y417017D01*
X549853Y417853D01*
X549017Y418494D01*
X548044Y418897D01*
X547000Y419034D01*
D02*
G37*
G36*
X609000Y408501D02*
Y407000D01*
X610501D01*
X610494Y407017D01*
X609853Y407853D01*
X609017Y408494D01*
X609000Y408501D01*
D02*
G37*
G36*
X579000D02*
Y407000D01*
X580501D01*
X580494Y407017D01*
X579853Y407853D01*
X579017Y408494D01*
X579000Y408501D01*
D02*
G37*
G36*
X569000D02*
Y407000D01*
X570501D01*
X570494Y407017D01*
X569853Y407853D01*
X569017Y408494D01*
X569000Y408501D01*
D02*
G37*
G36*
X599000D02*
Y407000D01*
X600501D01*
X600494Y407017D01*
X599853Y407853D01*
X599017Y408494D01*
X599000Y408501D01*
D02*
G37*
G36*
X589000D02*
Y407000D01*
X590501D01*
X590494Y407017D01*
X589853Y407853D01*
X589017Y408494D01*
X589000Y408501D01*
D02*
G37*
G36*
X545000D02*
X544983Y408494D01*
X544147Y407853D01*
X543506Y407017D01*
X543499Y407000D01*
X545000D01*
Y408501D01*
D02*
G37*
G36*
X550501Y403000D02*
X549000D01*
Y401499D01*
X549017Y401506D01*
X549853Y402147D01*
X550494Y402983D01*
X550501Y403000D01*
D02*
G37*
G36*
X590501D02*
X589000D01*
Y401499D01*
X589017Y401506D01*
X589853Y402147D01*
X590494Y402983D01*
X590501Y403000D01*
D02*
G37*
G36*
X570501D02*
X569000D01*
Y401499D01*
X569017Y401506D01*
X569853Y402147D01*
X570494Y402983D01*
X570501Y403000D01*
D02*
G37*
G36*
X560501D02*
X559000D01*
Y401499D01*
X559017Y401506D01*
X559853Y402147D01*
X560494Y402983D01*
X560501Y403000D01*
D02*
G37*
G36*
X585000D02*
X583499D01*
X583506Y402983D01*
X584147Y402147D01*
X584983Y401506D01*
X585000Y401499D01*
Y403000D01*
D02*
G37*
G36*
X595000D02*
X593499D01*
X593506Y402983D01*
X594147Y402147D01*
X594983Y401506D01*
X595000Y401499D01*
Y403000D01*
D02*
G37*
G36*
X575000D02*
X573499D01*
X573506Y402983D01*
X574147Y402147D01*
X574983Y401506D01*
X575000Y401499D01*
Y403000D01*
D02*
G37*
G36*
X615000D02*
X613499D01*
X613506Y402983D01*
X614147Y402147D01*
X614983Y401506D01*
X615000Y401499D01*
Y403000D01*
D02*
G37*
G36*
X605000D02*
X603499D01*
X603506Y402983D01*
X604147Y402147D01*
X604983Y401506D01*
X605000Y401499D01*
Y403000D01*
D02*
G37*
G36*
X391377Y407465D02*
X390500D01*
Y406588D01*
X390996Y406968D01*
X391377Y407465D01*
D02*
G37*
G36*
X386500D02*
X385623D01*
X386004Y406968D01*
X386500Y406588D01*
Y407465D01*
D02*
G37*
G36*
X229877Y407500D02*
X229000D01*
Y406623D01*
X229496Y407004D01*
X229877Y407500D01*
D02*
G37*
G36*
X225000D02*
X224123D01*
X224504Y407004D01*
X225000Y406623D01*
Y407500D01*
D02*
G37*
G36*
X464500Y412238D02*
X463782Y412144D01*
X463113Y411867D01*
X462539Y411426D01*
X462098Y410851D01*
X461821Y410183D01*
X461726Y409465D01*
X461821Y408747D01*
X462098Y408078D01*
X462539Y407503D01*
X463113Y407062D01*
X463782Y406785D01*
X464500Y406691D01*
X465218Y406785D01*
X465887Y407062D01*
X466274Y407360D01*
X466743Y407089D01*
X466726Y406965D01*
X466821Y406247D01*
X467098Y405578D01*
X467500Y405054D01*
Y406965D01*
Y409200D01*
X467257Y409340D01*
X467274Y409465D01*
X467179Y410183D01*
X466902Y410851D01*
X466461Y411426D01*
X465887Y411867D01*
X465218Y412144D01*
X464500Y412238D01*
D02*
G37*
G36*
X600501Y403000D02*
X599000D01*
Y401499D01*
X599017Y401506D01*
X599853Y402147D01*
X600494Y402983D01*
X600501Y403000D01*
D02*
G37*
G36*
X580501D02*
X579000D01*
Y401499D01*
X579017Y401506D01*
X579853Y402147D01*
X580494Y402983D01*
X580501Y403000D01*
D02*
G37*
G36*
X620501D02*
X619000D01*
Y401499D01*
X619017Y401506D01*
X619853Y402147D01*
X620494Y402983D01*
X620501Y403000D01*
D02*
G37*
G36*
X610501D02*
X609000D01*
Y401499D01*
X609017Y401506D01*
X609853Y402147D01*
X610494Y402983D01*
X610501Y403000D01*
D02*
G37*
G36*
X660500Y432000D02*
X652500D01*
Y424000D01*
X660500D01*
Y432000D01*
D02*
G37*
G36*
X686500Y432034D02*
X685456Y431897D01*
X684483Y431494D01*
X683647Y430853D01*
X683006Y430017D01*
X682603Y429044D01*
X682466Y428000D01*
X682603Y426956D01*
X683006Y425983D01*
X683647Y425147D01*
X684483Y424506D01*
X685456Y424103D01*
X686500Y423966D01*
X687544Y424103D01*
X688517Y424506D01*
X689353Y425147D01*
X689994Y425983D01*
X690397Y426956D01*
X690534Y428000D01*
X690397Y429044D01*
X689994Y430017D01*
X689353Y430853D01*
X688517Y431494D01*
X687544Y431897D01*
X686500Y432034D01*
D02*
G37*
G36*
X432500Y426965D02*
X431623D01*
X432004Y426468D01*
X432500Y426088D01*
Y426965D01*
D02*
G37*
G36*
X459500Y432495D02*
X458586Y432374D01*
X457735Y432022D01*
X457004Y431461D01*
X456443Y430730D01*
X456090Y429878D01*
X455970Y428965D01*
X456090Y428051D01*
X456443Y427200D01*
X457004Y426468D01*
X457735Y425907D01*
X458586Y425555D01*
X459500Y425434D01*
X460414Y425555D01*
X461265Y425907D01*
X461996Y426468D01*
X462557Y427200D01*
X462910Y428051D01*
X463030Y428965D01*
X462910Y429878D01*
X462557Y430730D01*
X461996Y431461D01*
X461265Y432022D01*
X460414Y432374D01*
X459500Y432495D01*
D02*
G37*
G36*
X676500Y432034D02*
X675456Y431897D01*
X674483Y431494D01*
X673647Y430853D01*
X673006Y430017D01*
X672603Y429044D01*
X672466Y428000D01*
X672603Y426956D01*
X673006Y425983D01*
X673647Y425147D01*
X674483Y424506D01*
X675456Y424103D01*
X676500Y423966D01*
X677544Y424103D01*
X678517Y424506D01*
X679353Y425147D01*
X679994Y425983D01*
X680397Y426956D01*
X680535Y428000D01*
X680397Y429044D01*
X679994Y430017D01*
X679353Y430853D01*
X678517Y431494D01*
X677544Y431897D01*
X676500Y432034D01*
D02*
G37*
G36*
X318000Y425500D02*
X315146D01*
X315414Y424852D01*
X316256Y423756D01*
X317352Y422914D01*
X318000Y422646D01*
Y425500D01*
D02*
G37*
G36*
X245000Y432795D02*
X243630Y432615D01*
X242352Y432086D01*
X241256Y431244D01*
X240414Y430148D01*
X239885Y428870D01*
X239705Y427500D01*
X239885Y426129D01*
X240414Y424852D01*
X241256Y423756D01*
X242352Y422914D01*
X243630Y422385D01*
X245000Y422205D01*
X246371Y422385D01*
X247648Y422914D01*
X248744Y423756D01*
X249586Y424852D01*
X250115Y426129D01*
X250295Y427500D01*
X250115Y428870D01*
X249586Y430148D01*
X248744Y431244D01*
X247648Y432086D01*
X246371Y432615D01*
X245000Y432795D01*
D02*
G37*
G36*
X666500Y432034D02*
X665456Y431897D01*
X664483Y431494D01*
X663647Y430853D01*
X663006Y430017D01*
X662603Y429044D01*
X662465Y428000D01*
X662603Y426956D01*
X663006Y425983D01*
X663647Y425147D01*
X664483Y424506D01*
X665456Y424103D01*
X666500Y423966D01*
X667544Y424103D01*
X668517Y424506D01*
X669353Y425147D01*
X669994Y425983D01*
X670397Y426956D01*
X670535Y428000D01*
X670397Y429044D01*
X669994Y430017D01*
X669353Y430853D01*
X668517Y431494D01*
X667544Y431897D01*
X666500Y432034D01*
D02*
G37*
G36*
X324854Y425500D02*
X322000D01*
Y422646D01*
X322648Y422914D01*
X323744Y423756D01*
X324586Y424852D01*
X324854Y425500D01*
D02*
G37*
G36*
X402877Y432965D02*
X402000D01*
Y432088D01*
X402496Y432468D01*
X402877Y432965D01*
D02*
G37*
G36*
X398000D02*
X397123D01*
X397504Y432468D01*
X398000Y432088D01*
Y432965D01*
D02*
G37*
G36*
X402000Y437842D02*
Y436965D01*
X402877D01*
X402496Y437461D01*
X402000Y437842D01*
D02*
G37*
G36*
X398000D02*
X397504Y437461D01*
X397123Y436965D01*
X398000D01*
Y437842D01*
D02*
G37*
G36*
X436500Y431842D02*
Y430965D01*
X437377D01*
X436996Y431461D01*
X436500Y431842D01*
D02*
G37*
G36*
X318000Y432354D02*
X317352Y432086D01*
X316256Y431244D01*
X315414Y430148D01*
X315146Y429500D01*
X318000D01*
Y432354D01*
D02*
G37*
G36*
X437377Y426965D02*
X436500D01*
Y426088D01*
X436996Y426468D01*
X437377Y426965D01*
D02*
G37*
G36*
X432500Y431842D02*
X432004Y431461D01*
X431623Y430965D01*
X432500D01*
Y431842D01*
D02*
G37*
G36*
X322000Y432354D02*
Y429500D01*
X324854D01*
X324586Y430148D01*
X323744Y431244D01*
X322648Y432086D01*
X322000Y432354D01*
D02*
G37*
G36*
X617000Y429035D02*
X615956Y428897D01*
X614983Y428494D01*
X614147Y427853D01*
X613506Y427017D01*
X613103Y426044D01*
X612965Y425000D01*
X613103Y423956D01*
X613506Y422983D01*
X614147Y422147D01*
X614983Y421506D01*
X615956Y421103D01*
X617000Y420965D01*
X618044Y421103D01*
X619017Y421506D01*
X619853Y422147D01*
X620494Y422983D01*
X620897Y423956D01*
X621034Y425000D01*
X620897Y426044D01*
X620494Y427017D01*
X619853Y427853D01*
X619017Y428494D01*
X618044Y428897D01*
X617000Y429035D01*
D02*
G37*
G36*
X386500Y412342D02*
X386004Y411961D01*
X385623Y411465D01*
X386500D01*
Y412342D01*
D02*
G37*
G36*
X617000Y419034D02*
X615956Y418897D01*
X614983Y418494D01*
X614147Y417853D01*
X613506Y417017D01*
X613103Y416044D01*
X612965Y415000D01*
X613103Y413956D01*
X613506Y412983D01*
X614147Y412147D01*
X614983Y411506D01*
X615956Y411103D01*
X617000Y410965D01*
X618044Y411103D01*
X619017Y411506D01*
X619853Y412147D01*
X620494Y412983D01*
X620897Y413956D01*
X621034Y415000D01*
X620897Y416044D01*
X620494Y417017D01*
X619853Y417853D01*
X619017Y418494D01*
X618044Y418897D01*
X617000Y419034D01*
D02*
G37*
G36*
X225000Y412377D02*
X224504Y411996D01*
X224123Y411500D01*
X225000D01*
Y412377D01*
D02*
G37*
G36*
X390500Y412342D02*
Y411465D01*
X391377D01*
X390996Y411961D01*
X390500Y412342D01*
D02*
G37*
G36*
X607000Y419034D02*
X605956Y418897D01*
X604983Y418494D01*
X604147Y417853D01*
X603506Y417017D01*
X603103Y416044D01*
X602965Y415000D01*
X603103Y413956D01*
X603506Y412983D01*
X604147Y412147D01*
X604983Y411506D01*
X605956Y411103D01*
X607000Y410965D01*
X608044Y411103D01*
X609017Y411506D01*
X609853Y412147D01*
X610494Y412983D01*
X610897Y413956D01*
X611034Y415000D01*
X610897Y416044D01*
X610494Y417017D01*
X609853Y417853D01*
X609017Y418494D01*
X608044Y418897D01*
X607000Y419034D01*
D02*
G37*
G36*
X577000D02*
X575956Y418897D01*
X574983Y418494D01*
X574147Y417853D01*
X573506Y417017D01*
X573103Y416044D01*
X572965Y415000D01*
X573103Y413956D01*
X573506Y412983D01*
X574147Y412147D01*
X574983Y411506D01*
X575956Y411103D01*
X577000Y410965D01*
X578044Y411103D01*
X579017Y411506D01*
X579853Y412147D01*
X580494Y412983D01*
X580897Y413956D01*
X581035Y415000D01*
X580897Y416044D01*
X580494Y417017D01*
X579853Y417853D01*
X579017Y418494D01*
X578044Y418897D01*
X577000Y419034D01*
D02*
G37*
G36*
X567000D02*
X565956Y418897D01*
X564983Y418494D01*
X564147Y417853D01*
X563506Y417017D01*
X563103Y416044D01*
X562965Y415000D01*
X563103Y413956D01*
X563506Y412983D01*
X564147Y412147D01*
X564983Y411506D01*
X565956Y411103D01*
X567000Y410965D01*
X568044Y411103D01*
X569017Y411506D01*
X569853Y412147D01*
X570494Y412983D01*
X570897Y413956D01*
X571034Y415000D01*
X570897Y416044D01*
X570494Y417017D01*
X569853Y417853D01*
X569017Y418494D01*
X568044Y418897D01*
X567000Y419034D01*
D02*
G37*
G36*
X597000D02*
X595956Y418897D01*
X594983Y418494D01*
X594147Y417853D01*
X593506Y417017D01*
X593103Y416044D01*
X592966Y415000D01*
X593103Y413956D01*
X593506Y412983D01*
X594147Y412147D01*
X594983Y411506D01*
X595956Y411103D01*
X597000Y410965D01*
X598044Y411103D01*
X599017Y411506D01*
X599853Y412147D01*
X600494Y412983D01*
X600897Y413956D01*
X601034Y415000D01*
X600897Y416044D01*
X600494Y417017D01*
X599853Y417853D01*
X599017Y418494D01*
X598044Y418897D01*
X597000Y419034D01*
D02*
G37*
G36*
X587000D02*
X585956Y418897D01*
X584983Y418494D01*
X584147Y417853D01*
X583506Y417017D01*
X583103Y416044D01*
X582966Y415000D01*
X583103Y413956D01*
X583506Y412983D01*
X584147Y412147D01*
X584983Y411506D01*
X585956Y411103D01*
X587000Y410965D01*
X588044Y411103D01*
X589017Y411506D01*
X589853Y412147D01*
X590494Y412983D01*
X590897Y413956D01*
X591035Y415000D01*
X590897Y416044D01*
X590494Y417017D01*
X589853Y417853D01*
X589017Y418494D01*
X588044Y418897D01*
X587000Y419034D01*
D02*
G37*
G36*
Y429035D02*
X585956Y428897D01*
X584983Y428494D01*
X584147Y427853D01*
X583506Y427017D01*
X583103Y426044D01*
X582966Y425000D01*
X583103Y423956D01*
X583506Y422983D01*
X584147Y422147D01*
X584983Y421506D01*
X585956Y421103D01*
X587000Y420965D01*
X588044Y421103D01*
X589017Y421506D01*
X589853Y422147D01*
X590494Y422983D01*
X590897Y423956D01*
X591035Y425000D01*
X590897Y426044D01*
X590494Y427017D01*
X589853Y427853D01*
X589017Y428494D01*
X588044Y428897D01*
X587000Y429035D01*
D02*
G37*
G36*
X577000D02*
X575956Y428897D01*
X574983Y428494D01*
X574147Y427853D01*
X573506Y427017D01*
X573103Y426044D01*
X572965Y425000D01*
X573103Y423956D01*
X573506Y422983D01*
X574147Y422147D01*
X574983Y421506D01*
X575956Y421103D01*
X577000Y420965D01*
X578044Y421103D01*
X579017Y421506D01*
X579853Y422147D01*
X580494Y422983D01*
X580897Y423956D01*
X581035Y425000D01*
X580897Y426044D01*
X580494Y427017D01*
X579853Y427853D01*
X579017Y428494D01*
X578044Y428897D01*
X577000Y429035D01*
D02*
G37*
G36*
X607000D02*
X605956Y428897D01*
X604983Y428494D01*
X604147Y427853D01*
X603506Y427017D01*
X603103Y426044D01*
X602965Y425000D01*
X603103Y423956D01*
X603506Y422983D01*
X604147Y422147D01*
X604983Y421506D01*
X605956Y421103D01*
X607000Y420965D01*
X608044Y421103D01*
X609017Y421506D01*
X609853Y422147D01*
X610494Y422983D01*
X610897Y423956D01*
X611034Y425000D01*
X610897Y426044D01*
X610494Y427017D01*
X609853Y427853D01*
X609017Y428494D01*
X608044Y428897D01*
X607000Y429035D01*
D02*
G37*
G36*
X597000D02*
X595956Y428897D01*
X594983Y428494D01*
X594147Y427853D01*
X593506Y427017D01*
X593103Y426044D01*
X592966Y425000D01*
X593103Y423956D01*
X593506Y422983D01*
X594147Y422147D01*
X594983Y421506D01*
X595956Y421103D01*
X597000Y420965D01*
X598044Y421103D01*
X599017Y421506D01*
X599853Y422147D01*
X600494Y422983D01*
X600897Y423956D01*
X601034Y425000D01*
X600897Y426044D01*
X600494Y427017D01*
X599853Y427853D01*
X599017Y428494D01*
X598044Y428897D01*
X597000Y429035D01*
D02*
G37*
G36*
X567000D02*
X565956Y428897D01*
X564983Y428494D01*
X564147Y427853D01*
X563506Y427017D01*
X563103Y426044D01*
X562965Y425000D01*
X563103Y423956D01*
X563506Y422983D01*
X564147Y422147D01*
X564983Y421506D01*
X565956Y421103D01*
X567000Y420965D01*
X568044Y421103D01*
X569017Y421506D01*
X569853Y422147D01*
X570494Y422983D01*
X570897Y423956D01*
X571034Y425000D01*
X570897Y426044D01*
X570494Y427017D01*
X569853Y427853D01*
X569017Y428494D01*
X568044Y428897D01*
X567000Y429035D01*
D02*
G37*
G36*
X464500Y418738D02*
X463782Y418644D01*
X463113Y418367D01*
X462539Y417926D01*
X462098Y417351D01*
X461821Y416682D01*
X461726Y415965D01*
X461821Y415247D01*
X462098Y414578D01*
X462539Y414003D01*
X463113Y413562D01*
X463782Y413285D01*
X464500Y413191D01*
X465218Y413285D01*
X465887Y413562D01*
X466461Y414003D01*
X466902Y414578D01*
X467179Y415247D01*
X467274Y415965D01*
X467179Y416682D01*
X466902Y417351D01*
X466461Y417926D01*
X465887Y418367D01*
X465218Y418644D01*
X464500Y418738D01*
D02*
G37*
G36*
X229000Y412377D02*
Y411500D01*
X229877D01*
X229496Y411996D01*
X229000Y412377D01*
D02*
G37*
G36*
X557000Y429035D02*
X555956Y428897D01*
X554983Y428494D01*
X554147Y427853D01*
X553506Y427017D01*
X553103Y426044D01*
X552965Y425000D01*
X553103Y423956D01*
X553506Y422983D01*
X554147Y422147D01*
X554983Y421506D01*
X555956Y421103D01*
X557000Y420965D01*
X558044Y421103D01*
X559017Y421506D01*
X559853Y422147D01*
X560494Y422983D01*
X560897Y423956D01*
X561034Y425000D01*
X560897Y426044D01*
X560494Y427017D01*
X559853Y427853D01*
X559017Y428494D01*
X558044Y428897D01*
X557000Y429035D01*
D02*
G37*
G36*
X547000D02*
X545956Y428897D01*
X544983Y428494D01*
X544147Y427853D01*
X543506Y427017D01*
X543103Y426044D01*
X542966Y425000D01*
X543103Y423956D01*
X543506Y422983D01*
X544147Y422147D01*
X544983Y421506D01*
X545956Y421103D01*
X547000Y420965D01*
X548044Y421103D01*
X549017Y421506D01*
X549853Y422147D01*
X550494Y422983D01*
X550897Y423956D01*
X551034Y425000D01*
X550897Y426044D01*
X550494Y427017D01*
X549853Y427853D01*
X549017Y428494D01*
X548044Y428897D01*
X547000Y429035D01*
D02*
G37*
G36*
X565000Y403000D02*
X563499D01*
X563506Y402983D01*
X564147Y402147D01*
X564983Y401506D01*
X565000Y401499D01*
Y403000D01*
D02*
G37*
G36*
X400000Y369465D02*
X397687D01*
X397851Y369069D01*
X398612Y368077D01*
X399605Y367316D01*
X400000Y367152D01*
Y369465D01*
D02*
G37*
G36*
X532941Y368441D02*
X528000D01*
X523059D01*
X523344Y367753D01*
X523883Y367050D01*
X523618Y366574D01*
X522724Y366662D01*
X521273Y366519D01*
X519877Y366095D01*
X518590Y365408D01*
X517463Y364482D01*
X516537Y363355D01*
X515849Y362068D01*
X515426Y360672D01*
X515283Y359221D01*
X515426Y357769D01*
X515849Y356373D01*
X516537Y355086D01*
X517463Y353959D01*
X518590Y353033D01*
X519877Y352346D01*
X521273Y351922D01*
X522724Y351779D01*
X523618Y351867D01*
X523883Y351391D01*
X523344Y350688D01*
X523059Y350000D01*
X528000D01*
X532941D01*
X532656Y350688D01*
X531802Y351802D01*
X530688Y352656D01*
X529392Y353193D01*
X528056Y353369D01*
X527876Y353662D01*
X527810Y353814D01*
X527986Y353959D01*
X528912Y355086D01*
X529599Y356373D01*
X530023Y357769D01*
X530166Y359221D01*
X530023Y360672D01*
X529599Y362068D01*
X528912Y363355D01*
X527986Y364482D01*
X527810Y364627D01*
X527876Y364779D01*
X528056Y365072D01*
X529392Y365247D01*
X530688Y365785D01*
X531802Y366639D01*
X532656Y367753D01*
X532941Y368441D01*
D02*
G37*
G36*
X410500Y369465D02*
X408187D01*
X408351Y369069D01*
X409112Y368077D01*
X410105Y367316D01*
X410500Y367152D01*
Y369465D01*
D02*
G37*
G36*
X406313D02*
X404000D01*
Y367152D01*
X404395Y367316D01*
X405388Y368077D01*
X406149Y369069D01*
X406313Y369465D01*
D02*
G37*
G36*
X462984Y371754D02*
X462266Y371659D01*
X461597Y371382D01*
X461023Y370942D01*
X460582Y370367D01*
X460305Y369698D01*
X460211Y368980D01*
X460305Y368262D01*
X460582Y367594D01*
X461023Y367019D01*
X461597Y366578D01*
X462266Y366301D01*
X462984Y366207D01*
X463702Y366301D01*
X464371Y366578D01*
X464946Y367019D01*
X465386Y367594D01*
X465663Y368262D01*
X465758Y368980D01*
X465663Y369698D01*
X465386Y370367D01*
X464946Y370942D01*
X464371Y371382D01*
X463702Y371659D01*
X462984Y371754D01*
D02*
G37*
G36*
X701500Y373534D02*
X700456Y373397D01*
X699483Y372994D01*
X698647Y372353D01*
X698006Y371517D01*
X697603Y370544D01*
X697466Y369500D01*
X697603Y368456D01*
X698006Y367483D01*
X698647Y366647D01*
X699483Y366006D01*
X700456Y365603D01*
X701500Y365465D01*
X702544Y365603D01*
X703517Y366006D01*
X704353Y366647D01*
X704994Y367483D01*
X705397Y368456D01*
X705535Y369500D01*
X705397Y370544D01*
X704994Y371517D01*
X704353Y372353D01*
X703517Y372994D01*
X702544Y373397D01*
X701500Y373534D01*
D02*
G37*
G36*
X691500D02*
X690456Y373397D01*
X689483Y372994D01*
X688647Y372353D01*
X688006Y371517D01*
X687603Y370544D01*
X687465Y369500D01*
X687603Y368456D01*
X688006Y367483D01*
X688647Y366647D01*
X689483Y366006D01*
X690456Y365603D01*
X691500Y365465D01*
X692544Y365603D01*
X693517Y366006D01*
X694353Y366647D01*
X694994Y367483D01*
X695397Y368456D01*
X695535Y369500D01*
X695397Y370544D01*
X694994Y371517D01*
X694353Y372353D01*
X693517Y372994D01*
X692544Y373397D01*
X691500Y373534D01*
D02*
G37*
G36*
X685001Y367500D02*
X683500D01*
Y365999D01*
X683517Y366006D01*
X684353Y366647D01*
X684994Y367483D01*
X685001Y367500D01*
D02*
G37*
G36*
X679500D02*
X677999D01*
X678006Y367483D01*
X678647Y366647D01*
X679483Y366006D01*
X679500Y365999D01*
Y367500D01*
D02*
G37*
G36*
X526000Y375382D02*
X525312Y375097D01*
X524198Y374243D01*
X523344Y373129D01*
X523059Y372441D01*
X526000D01*
Y375382D01*
D02*
G37*
G36*
X245000Y382795D02*
X243630Y382615D01*
X242352Y382086D01*
X241256Y381244D01*
X240414Y380148D01*
X239885Y378871D01*
X239705Y377500D01*
X239885Y376130D01*
X240414Y374852D01*
X241256Y373756D01*
X242352Y372914D01*
X243630Y372385D01*
X245000Y372205D01*
X246371Y372385D01*
X247648Y372914D01*
X248744Y373756D01*
X249586Y374852D01*
X250115Y376130D01*
X250295Y377500D01*
X250115Y378871D01*
X249586Y380148D01*
X248744Y381244D01*
X247648Y382086D01*
X246371Y382615D01*
X245000Y382795D01*
D02*
G37*
G36*
X648000Y379274D02*
X647282Y379179D01*
X646613Y378902D01*
X646039Y378461D01*
X645598Y377887D01*
X645321Y377218D01*
X645226Y376500D01*
X645321Y375782D01*
X645598Y375113D01*
X646039Y374539D01*
X646613Y374098D01*
X647282Y373821D01*
X648000Y373726D01*
X648718Y373821D01*
X649387Y374098D01*
X649799Y374414D01*
X650201Y374312D01*
X650280Y374278D01*
X650344Y374226D01*
X650598Y373613D01*
X651000Y373089D01*
Y375000D01*
Y377137D01*
X650799Y377187D01*
X650720Y377222D01*
X650656Y377274D01*
X650402Y377887D01*
X649961Y378461D01*
X649387Y378902D01*
X648718Y379179D01*
X648000Y379274D01*
D02*
G37*
G36*
X530000Y375382D02*
Y372441D01*
X532941D01*
X532656Y373129D01*
X531802Y374243D01*
X530688Y375097D01*
X530000Y375382D01*
D02*
G37*
G36*
X683500Y373001D02*
Y371500D01*
X685001D01*
X684994Y371517D01*
X684353Y372353D01*
X683517Y372994D01*
X683500Y373001D01*
D02*
G37*
G36*
X445877Y376965D02*
X440123D01*
X440504Y376468D01*
X441235Y375907D01*
X441650Y375735D01*
Y375194D01*
X441235Y375022D01*
X440504Y374461D01*
X439943Y373730D01*
X439590Y372878D01*
X439470Y371965D01*
X439590Y371051D01*
X439943Y370199D01*
X440504Y369468D01*
X441235Y368907D01*
X442086Y368555D01*
X443000Y368434D01*
X443914Y368555D01*
X444765Y368907D01*
X445496Y369468D01*
X446057Y370199D01*
X446410Y371051D01*
X446530Y371965D01*
X446410Y372878D01*
X446057Y373730D01*
X445496Y374461D01*
X444765Y375022D01*
X444349Y375194D01*
Y375735D01*
X444765Y375907D01*
X445496Y376468D01*
X445877Y376965D01*
D02*
G37*
G36*
X416813Y369465D02*
X414500D01*
Y367152D01*
X414895Y367316D01*
X415888Y368077D01*
X416649Y369069D01*
X416813Y369465D01*
D02*
G37*
G36*
X679500Y373001D02*
X679483Y372994D01*
X678647Y372353D01*
X678006Y371517D01*
X677999Y371500D01*
X679500D01*
Y373001D01*
D02*
G37*
G36*
X469500Y375738D02*
X468782Y375644D01*
X468113Y375367D01*
X467539Y374926D01*
X467098Y374351D01*
X466821Y373682D01*
X466726Y372965D01*
X466821Y372247D01*
X467098Y371578D01*
X467539Y371003D01*
X468113Y370562D01*
X468782Y370285D01*
X469500Y370191D01*
X470218Y370285D01*
X470887Y370562D01*
X471461Y371003D01*
X471902Y371578D01*
X472179Y372247D01*
X472274Y372965D01*
X472179Y373682D01*
X471902Y374351D01*
X471461Y374926D01*
X470887Y375367D01*
X470218Y375644D01*
X469500Y375738D01*
D02*
G37*
G36*
X683500Y363001D02*
Y361500D01*
X685001D01*
X684994Y361517D01*
X684353Y362353D01*
X683517Y362994D01*
X683500Y363001D01*
D02*
G37*
G36*
X228953Y356330D02*
Y355453D01*
X229830D01*
X229449Y355949D01*
X228953Y356330D01*
D02*
G37*
G36*
X224953D02*
X224457Y355949D01*
X224076Y355453D01*
X224953D01*
Y356330D01*
D02*
G37*
G36*
X701500Y363534D02*
X700456Y363397D01*
X699483Y362994D01*
X698647Y362353D01*
X698006Y361517D01*
X697603Y360544D01*
X697466Y359500D01*
X697603Y358456D01*
X698006Y357483D01*
X698647Y356647D01*
X699483Y356006D01*
X700456Y355603D01*
X701500Y355466D01*
X702544Y355603D01*
X703517Y356006D01*
X704353Y356647D01*
X704994Y357483D01*
X705397Y358456D01*
X705535Y359500D01*
X705397Y360544D01*
X704994Y361517D01*
X704353Y362353D01*
X703517Y362994D01*
X702544Y363397D01*
X701500Y363534D01*
D02*
G37*
G36*
X691500D02*
X690456Y363397D01*
X689483Y362994D01*
X688647Y362353D01*
X688006Y361517D01*
X687603Y360544D01*
X687465Y359500D01*
X687603Y358456D01*
X688006Y357483D01*
X688647Y356647D01*
X689483Y356006D01*
X690456Y355603D01*
X691500Y355466D01*
X692544Y355603D01*
X693517Y356006D01*
X694353Y356647D01*
X694994Y357483D01*
X695397Y358456D01*
X695535Y359500D01*
X695397Y360544D01*
X694994Y361517D01*
X694353Y362353D01*
X693517Y362994D01*
X692544Y363397D01*
X691500Y363534D01*
D02*
G37*
G36*
X372313Y357465D02*
X370000D01*
Y355152D01*
X370395Y355315D01*
X371388Y356077D01*
X372149Y357069D01*
X372313Y357465D01*
D02*
G37*
G36*
X679500Y353001D02*
X679483Y352994D01*
X678647Y352353D01*
X678006Y351517D01*
X677999Y351500D01*
X679500D01*
Y353001D01*
D02*
G37*
G36*
X229830Y351453D02*
X228953D01*
Y350576D01*
X229449Y350957D01*
X229830Y351453D01*
D02*
G37*
G36*
X366000Y357465D02*
X363687D01*
X363851Y357069D01*
X364612Y356077D01*
X365604Y355315D01*
X366000Y355152D01*
Y357465D01*
D02*
G37*
G36*
X683500Y353001D02*
Y351500D01*
X685001D01*
X684994Y351517D01*
X684353Y352353D01*
X683517Y352994D01*
X683500Y353001D01*
D02*
G37*
G36*
X366000Y363777D02*
X365604Y363614D01*
X364612Y362852D01*
X363851Y361860D01*
X363687Y361465D01*
X366000D01*
Y363777D01*
D02*
G37*
G36*
X459000Y366738D02*
X458282Y366644D01*
X457613Y366367D01*
X457039Y365926D01*
X456598Y365351D01*
X456321Y364683D01*
X456226Y363965D01*
X456321Y363247D01*
X456598Y362578D01*
X457039Y362003D01*
X457613Y361562D01*
X458282Y361285D01*
X459000Y361191D01*
X459718Y361285D01*
X460387Y361562D01*
X460961Y362003D01*
X461402Y362578D01*
X461679Y363247D01*
X461774Y363965D01*
X461679Y364683D01*
X461402Y365351D01*
X460961Y365926D01*
X460387Y366367D01*
X459718Y366644D01*
X459000Y366738D01*
D02*
G37*
G36*
X679500Y363001D02*
X679483Y362994D01*
X678647Y362353D01*
X678006Y361517D01*
X677999Y361500D01*
X679500D01*
Y363001D01*
D02*
G37*
G36*
X370000Y363777D02*
Y361465D01*
X372313D01*
X372149Y361860D01*
X371388Y362852D01*
X370395Y363614D01*
X370000Y363777D01*
D02*
G37*
G36*
X245000Y370295D02*
X243630Y370115D01*
X242352Y369586D01*
X241256Y368744D01*
X240414Y367648D01*
X239885Y366371D01*
X239705Y365000D01*
X239885Y363630D01*
X240414Y362352D01*
X241256Y361256D01*
X242352Y360414D01*
X243630Y359885D01*
X245000Y359705D01*
X246371Y359885D01*
X247648Y360414D01*
X248744Y361256D01*
X249586Y362352D01*
X250115Y363630D01*
X250295Y365000D01*
X250115Y366371D01*
X249586Y367648D01*
X248744Y368744D01*
X247648Y369586D01*
X246371Y370115D01*
X245000Y370295D01*
D02*
G37*
G36*
X685001Y357500D02*
X683500D01*
Y355999D01*
X683517Y356006D01*
X684353Y356647D01*
X684994Y357483D01*
X685001Y357500D01*
D02*
G37*
G36*
X679500D02*
X677999D01*
X678006Y357483D01*
X678647Y356647D01*
X679483Y356006D01*
X679500Y355999D01*
Y357500D01*
D02*
G37*
G36*
X354000Y366495D02*
X353086Y366374D01*
X352235Y366022D01*
X351504Y365461D01*
X350943Y364730D01*
X350590Y363878D01*
X350470Y362965D01*
X350590Y362051D01*
X350943Y361199D01*
X351504Y360468D01*
X352235Y359907D01*
X353086Y359555D01*
X354000Y359434D01*
X354914Y359555D01*
X355765Y359907D01*
X356496Y360468D01*
X357057Y361199D01*
X357410Y362051D01*
X357530Y362965D01*
X357410Y363878D01*
X357057Y364730D01*
X356496Y365461D01*
X355765Y366022D01*
X354914Y366374D01*
X354000Y366495D01*
D02*
G37*
G36*
X663000Y364274D02*
X662282Y364179D01*
X661613Y363902D01*
X661039Y363461D01*
X660598Y362887D01*
X660321Y362218D01*
X660226Y361500D01*
X660321Y360782D01*
X660598Y360113D01*
X661039Y359539D01*
X661613Y359098D01*
X662282Y358821D01*
X663000Y358726D01*
X663718Y358821D01*
X664387Y359098D01*
X664961Y359539D01*
X665402Y360113D01*
X665679Y360782D01*
X665774Y361500D01*
X665679Y362218D01*
X665402Y362887D01*
X664961Y363461D01*
X664387Y363902D01*
X663718Y364179D01*
X663000Y364274D01*
D02*
G37*
G36*
X401500Y389527D02*
Y388650D01*
X402377D01*
X401996Y389146D01*
X401500Y389527D01*
D02*
G37*
G36*
X397500D02*
X397004Y389146D01*
X396623Y388650D01*
X397500D01*
Y389527D01*
D02*
G37*
G36*
X421877Y391965D02*
X421000D01*
Y391088D01*
X421496Y391468D01*
X421877Y391965D01*
D02*
G37*
G36*
X417000D02*
X416123D01*
X416504Y391468D01*
X417000Y391088D01*
Y391965D01*
D02*
G37*
G36*
X462500Y393738D02*
X461782Y393644D01*
X461113Y393367D01*
X460539Y392926D01*
X460098Y392351D01*
X459821Y391683D01*
X459726Y390965D01*
X459821Y390247D01*
X460098Y389578D01*
X460539Y389003D01*
X461113Y388562D01*
X461782Y388285D01*
X462500Y388191D01*
X463218Y388285D01*
X463887Y388562D01*
X464461Y389003D01*
X464902Y389578D01*
X465179Y390247D01*
X465274Y390965D01*
X465179Y391683D01*
X464902Y392351D01*
X464461Y392926D01*
X463887Y393367D01*
X463218Y393644D01*
X462500Y393738D01*
D02*
G37*
G36*
X664000Y392274D02*
X663282Y392179D01*
X662613Y391902D01*
X662039Y391461D01*
X661598Y390887D01*
X661321Y390218D01*
X661226Y389500D01*
X661321Y388782D01*
X661598Y388113D01*
X662039Y387539D01*
X662613Y387098D01*
X663282Y386821D01*
X664000Y386726D01*
X664718Y386821D01*
X665387Y387098D01*
X665961Y387539D01*
X666402Y388113D01*
X666679Y388782D01*
X666774Y389500D01*
X666679Y390218D01*
X666402Y390887D01*
X665961Y391461D01*
X665387Y391902D01*
X664718Y392179D01*
X664000Y392274D01*
D02*
G37*
G36*
X402377Y384650D02*
X401500D01*
Y383773D01*
X401996Y384153D01*
X402377Y384650D01*
D02*
G37*
G36*
X489000Y388842D02*
Y387965D01*
X489877D01*
X489496Y388461D01*
X489000Y388842D01*
D02*
G37*
G36*
X485000D02*
X484504Y388461D01*
X484123Y387965D01*
X485000D01*
Y388842D01*
D02*
G37*
G36*
X418500Y406238D02*
X417782Y406144D01*
X417113Y405867D01*
X416539Y405426D01*
X416098Y404851D01*
X415821Y404182D01*
X415726Y403465D01*
X415821Y402747D01*
X416098Y402078D01*
X416539Y401503D01*
X417113Y401062D01*
X417782Y400785D01*
X418500Y400691D01*
X419218Y400785D01*
X419887Y401062D01*
X420461Y401503D01*
X420902Y402078D01*
X421179Y402747D01*
X421274Y403465D01*
X421179Y404182D01*
X420902Y404851D01*
X420461Y405426D01*
X419887Y405867D01*
X419218Y406144D01*
X418500Y406238D01*
D02*
G37*
G36*
X379000Y403495D02*
X378086Y403374D01*
X377235Y403022D01*
X376504Y402461D01*
X375943Y401730D01*
X375590Y400878D01*
X375470Y399965D01*
X375590Y399051D01*
X375943Y398200D01*
X376504Y397468D01*
X377235Y396907D01*
X378086Y396555D01*
X379000Y396434D01*
X379914Y396555D01*
X380765Y396907D01*
X381496Y397468D01*
X382057Y398200D01*
X382410Y399051D01*
X382530Y399965D01*
X382410Y400878D01*
X382057Y401730D01*
X381496Y402461D01*
X380765Y403022D01*
X379914Y403374D01*
X379000Y403495D01*
D02*
G37*
G36*
X555000Y403000D02*
X553499D01*
X553506Y402983D01*
X554147Y402147D01*
X554983Y401506D01*
X555000Y401499D01*
Y403000D01*
D02*
G37*
G36*
X545000D02*
X543499D01*
X543506Y402983D01*
X544147Y402147D01*
X544983Y401506D01*
X545000Y401499D01*
Y403000D01*
D02*
G37*
G36*
X421000Y396842D02*
Y395965D01*
X421877D01*
X421496Y396461D01*
X421000Y396842D01*
D02*
G37*
G36*
X637000Y397274D02*
X636282Y397179D01*
X635613Y396902D01*
X635039Y396461D01*
X634598Y395887D01*
X634321Y395218D01*
X634226Y394500D01*
X634321Y393782D01*
X634598Y393113D01*
X635039Y392539D01*
X635613Y392098D01*
X636282Y391821D01*
X637000Y391726D01*
X637718Y391821D01*
X638387Y392098D01*
X638961Y392539D01*
X639402Y393113D01*
X639679Y393782D01*
X639774Y394500D01*
X639679Y395218D01*
X639402Y395887D01*
X638961Y396461D01*
X638387Y396902D01*
X637718Y397179D01*
X637000Y397274D01*
D02*
G37*
G36*
X589500Y396774D02*
X588782Y396679D01*
X588113Y396402D01*
X587539Y395961D01*
X587098Y395387D01*
X586821Y394718D01*
X586726Y394000D01*
X586821Y393282D01*
X587098Y392613D01*
X587539Y392039D01*
X588113Y391598D01*
X588782Y391321D01*
X589500Y391226D01*
X590218Y391321D01*
X590887Y391598D01*
X591461Y392039D01*
X591902Y392613D01*
X592179Y393282D01*
X592274Y394000D01*
X592179Y394718D01*
X591902Y395387D01*
X591461Y395961D01*
X590887Y396402D01*
X590218Y396679D01*
X589500Y396774D01*
D02*
G37*
G36*
X417000Y396842D02*
X416504Y396461D01*
X416123Y395965D01*
X417000D01*
Y396842D01*
D02*
G37*
G36*
X468000Y403738D02*
X467282Y403644D01*
X466613Y403367D01*
X466039Y402926D01*
X465598Y402351D01*
X465321Y401683D01*
X465290Y401450D01*
X465000Y401340D01*
Y399134D01*
Y397223D01*
X465007Y397233D01*
X465444Y396981D01*
X465321Y396683D01*
X465226Y395965D01*
X465321Y395247D01*
X465598Y394578D01*
X466039Y394003D01*
X466613Y393562D01*
X467282Y393285D01*
X468000Y393191D01*
X468718Y393285D01*
X469387Y393562D01*
X469961Y394003D01*
X470402Y394578D01*
X470679Y395247D01*
X470774Y395965D01*
X470679Y396683D01*
X470402Y397351D01*
X469961Y397926D01*
X469660Y398157D01*
Y398772D01*
X469961Y399003D01*
X470402Y399578D01*
X470679Y400247D01*
X470774Y400965D01*
X470679Y401683D01*
X470402Y402351D01*
X469961Y402926D01*
X469387Y403367D01*
X468718Y403644D01*
X468000Y403738D01*
D02*
G37*
G36*
X397500Y384650D02*
X396623D01*
X397004Y384153D01*
X397500Y383773D01*
Y384650D01*
D02*
G37*
G36*
X679500Y377500D02*
X677999D01*
X678006Y377483D01*
X678647Y376647D01*
X679483Y376006D01*
X679500Y375999D01*
Y377500D01*
D02*
G37*
G36*
X701500Y383535D02*
X700456Y383397D01*
X699483Y382994D01*
X698647Y382353D01*
X698006Y381517D01*
X697603Y380544D01*
X697466Y379500D01*
X697603Y378456D01*
X698006Y377483D01*
X698647Y376647D01*
X699483Y376006D01*
X700456Y375603D01*
X701500Y375465D01*
X702544Y375603D01*
X703517Y376006D01*
X704353Y376647D01*
X704994Y377483D01*
X705397Y378456D01*
X705535Y379500D01*
X705397Y380544D01*
X704994Y381517D01*
X704353Y382353D01*
X703517Y382994D01*
X702544Y383397D01*
X701500Y383535D01*
D02*
G37*
G36*
X379000Y384995D02*
X378086Y384875D01*
X377235Y384522D01*
X376504Y383961D01*
X375943Y383230D01*
X375590Y382378D01*
X375470Y381465D01*
X375590Y380551D01*
X375943Y379699D01*
X376504Y378968D01*
X377235Y378407D01*
X378086Y378055D01*
X379000Y377934D01*
X379914Y378055D01*
X380765Y378407D01*
X381496Y378968D01*
X382057Y379699D01*
X382410Y380551D01*
X382530Y381465D01*
X382410Y382378D01*
X382057Y383230D01*
X381496Y383961D01*
X380765Y384522D01*
X379914Y384875D01*
X379000Y384995D01*
D02*
G37*
G36*
X685001Y377500D02*
X683500D01*
Y375999D01*
X683517Y376006D01*
X684353Y376647D01*
X684994Y377483D01*
X685001Y377500D01*
D02*
G37*
G36*
X691500Y383535D02*
X690456Y383397D01*
X689483Y382994D01*
X688647Y382353D01*
X688006Y381517D01*
X687603Y380544D01*
X687465Y379500D01*
X687603Y378456D01*
X688006Y377483D01*
X688647Y376647D01*
X689483Y376006D01*
X690456Y375603D01*
X691500Y375465D01*
X692544Y375603D01*
X693517Y376006D01*
X694353Y376647D01*
X694994Y377483D01*
X695397Y378456D01*
X695535Y379500D01*
X695397Y380544D01*
X694994Y381517D01*
X694353Y382353D01*
X693517Y382994D01*
X692544Y383397D01*
X691500Y383535D01*
D02*
G37*
G36*
X404000Y375778D02*
Y373465D01*
X406313D01*
X406149Y373860D01*
X405388Y374852D01*
X404395Y375614D01*
X404000Y375778D01*
D02*
G37*
G36*
X400000D02*
X399605Y375614D01*
X398612Y374852D01*
X397851Y373860D01*
X397687Y373465D01*
X400000D01*
Y375778D01*
D02*
G37*
G36*
X414500D02*
Y373465D01*
X416813D01*
X416649Y373860D01*
X415888Y374852D01*
X414895Y375614D01*
X414500Y375778D01*
D02*
G37*
G36*
X410500D02*
X410105Y375614D01*
X409112Y374852D01*
X408351Y373860D01*
X408187Y373465D01*
X410500D01*
Y375778D01*
D02*
G37*
G36*
X683500Y383001D02*
Y381500D01*
X685001D01*
X684994Y381517D01*
X684353Y382353D01*
X683517Y382994D01*
X683500Y383001D01*
D02*
G37*
G36*
X679500D02*
X679483Y382994D01*
X678647Y382353D01*
X678006Y381517D01*
X677999Y381500D01*
X679500D01*
Y383001D01*
D02*
G37*
G36*
X489877Y383965D02*
X489000D01*
Y383088D01*
X489496Y383468D01*
X489877Y383965D01*
D02*
G37*
G36*
X485000D02*
X484123D01*
X484504Y383468D01*
X485000Y383088D01*
Y383965D01*
D02*
G37*
G36*
X445000Y381842D02*
Y380965D01*
X445877D01*
X445496Y381461D01*
X445000Y381842D01*
D02*
G37*
G36*
X621000Y385274D02*
X620282Y385179D01*
X619613Y384902D01*
X619039Y384461D01*
X618598Y383887D01*
X618321Y383218D01*
X618226Y382500D01*
X618321Y381782D01*
X618598Y381113D01*
X619039Y380539D01*
X619613Y380098D01*
X620282Y379821D01*
X621000Y379726D01*
X621718Y379821D01*
X622387Y380098D01*
X622961Y380539D01*
X623402Y381113D01*
X623679Y381782D01*
X623774Y382500D01*
X623679Y383218D01*
X623402Y383887D01*
X622961Y384461D01*
X622387Y384902D01*
X621718Y385179D01*
X621000Y385274D01*
D02*
G37*
G36*
X458000Y385238D02*
X457282Y385144D01*
X456613Y384867D01*
X456039Y384426D01*
X455598Y383851D01*
X455321Y383183D01*
X455226Y382465D01*
X455321Y381747D01*
X455598Y381078D01*
X456039Y380503D01*
X456613Y380062D01*
X457282Y379785D01*
X458000Y379691D01*
X458718Y379785D01*
X459387Y380062D01*
X459961Y380503D01*
X460402Y381078D01*
X460679Y381747D01*
X460774Y382465D01*
X460679Y383183D01*
X460402Y383851D01*
X459961Y384426D01*
X459387Y384867D01*
X458718Y385144D01*
X458000Y385238D01*
D02*
G37*
G36*
X441000Y381842D02*
X440504Y381461D01*
X440123Y380965D01*
X441000D01*
Y381842D01*
D02*
G37*
G36*
X628500Y385274D02*
X627782Y385179D01*
X627113Y384902D01*
X626539Y384461D01*
X626098Y383887D01*
X625821Y383218D01*
X625726Y382500D01*
X625821Y381782D01*
X626098Y381113D01*
X626539Y380539D01*
X627113Y380098D01*
X627782Y379821D01*
X628500Y379726D01*
X629218Y379821D01*
X629887Y380098D01*
X630461Y380539D01*
X630902Y381113D01*
X631179Y381782D01*
X631274Y382500D01*
X631179Y383218D01*
X630902Y383887D01*
X630461Y384461D01*
X629887Y384902D01*
X629218Y385179D01*
X628500Y385274D01*
D02*
G37*
%LPD*%
D50*
X299095Y189508D02*
D03*
X310906D02*
D03*
X341595D02*
D03*
X353405D02*
D03*
X255689Y189500D02*
D03*
X267500D02*
D03*
D52*
X528000Y370441D02*
D03*
Y348000D02*
D03*
D54*
X630500Y230736D02*
D03*
X642500Y231157D02*
D03*
D56*
X582500Y248000D02*
D03*
D57*
X603500Y185815D02*
D03*
X554287D02*
D03*
D58*
X320000Y427500D02*
D03*
Y290000D02*
D03*
X319750Y254250D02*
D03*
D59*
X681500Y309500D02*
D03*
Y319500D02*
D03*
Y329500D02*
D03*
Y339500D02*
D03*
Y349500D02*
D03*
Y359500D02*
D03*
Y369500D02*
D03*
Y379500D02*
D03*
X617000Y405000D02*
D03*
X607000D02*
D03*
X597000D02*
D03*
X587000D02*
D03*
X577000D02*
D03*
X567000D02*
D03*
X557000D02*
D03*
X547000D02*
D03*
X571000Y324500D02*
D03*
D60*
X662500Y306500D02*
D03*
D64*
X687500Y400500D02*
D03*
X690500Y199000D02*
D03*
X678500Y244000D02*
D03*
X469500Y406965D02*
D03*
X463000Y399134D02*
D03*
X597000Y345000D02*
D03*
X579500Y390500D02*
D03*
X577000Y383000D02*
D03*
X578500Y369500D02*
D03*
X663500Y415500D02*
D03*
X674000Y400500D02*
D03*
X669500Y378500D02*
D03*
X646000Y422000D02*
D03*
X704500Y237500D02*
D03*
X624000Y321000D02*
D03*
X653000Y375000D02*
D03*
X651500Y245500D02*
D03*
D65*
X434500Y428965D02*
D03*
X487000Y385965D02*
D03*
X400000Y434965D02*
D03*
X419000Y393965D02*
D03*
X399500Y386650D02*
D03*
X388500Y409465D02*
D03*
X443000Y378965D02*
D03*
X499500Y329465D02*
D03*
X371685Y289965D02*
D03*
X227000Y409500D02*
D03*
X226953Y353453D02*
D03*
X274000Y219000D02*
D03*
D66*
X402000Y371465D02*
D03*
X412500D02*
D03*
X368000Y359465D02*
D03*
X521000Y210500D02*
D03*
M02*
