G04 Layer_Physical_Order=4*
G04 Layer_Color=16711680*
%FSLAX25Y25*%
%MOIN*%
G70*
G01*
G75*
%ADD40C,0.01000*%
%ADD49C,0.05709*%
%ADD50C,0.06693*%
%ADD51C,0.15748*%
%ADD52C,0.08661*%
%ADD53C,0.11811*%
%ADD54R,0.03543X0.03543*%
%ADD55C,0.03543*%
%ADD56C,0.06331*%
%ADD57C,0.07118*%
%ADD58C,0.08500*%
%ADD59C,0.06000*%
%ADD60R,0.06000X0.06000*%
%ADD61R,0.06000X0.06000*%
%ADD62C,0.05905*%
%ADD63R,0.05905X0.05905*%
%ADD64C,0.03500*%
%ADD65C,0.05000*%
%ADD66C,0.07500*%
D40*
X663000Y387500D02*
X664700Y389200D01*
X614500Y217000D02*
Y261000D01*
X415000Y399965D02*
X418500Y403465D01*
X379000Y399965D02*
X415000D01*
X354000Y362965D02*
X360500D01*
X379000Y381465D01*
X481500Y406465D02*
X486500Y411465D01*
X481500Y372965D02*
Y406465D01*
X463500Y354965D02*
X481500Y372965D01*
X422000Y291965D02*
X425000D01*
X429000Y295965D01*
X464500Y415965D02*
X466500D01*
X479000Y403465D01*
Y373465D02*
Y403465D01*
X463000Y357465D02*
X479000Y373465D01*
X423500Y295965D02*
X427000Y299465D01*
X398000Y258965D02*
Y279465D01*
X414500Y295965D01*
X423500D01*
X468000Y400965D02*
X476500Y392465D01*
X422500Y351465D02*
X431000Y359965D01*
X462000D01*
X476500Y374465D01*
Y392465D01*
X427000Y299465D02*
Y349965D01*
X434500Y357465D01*
X463000D01*
X429000Y295965D02*
Y348965D01*
X435000Y354965D01*
X463500D01*
X462500Y369465D02*
X462984Y368980D01*
X462500Y369465D02*
Y390965D01*
X624488Y382500D02*
X624988Y382000D01*
X621000Y382500D02*
X624488D01*
X624988Y382000D02*
X625488Y382500D01*
X628500D01*
X604000Y387500D02*
X663000D01*
X571000Y354500D02*
X604000Y387500D01*
X704500Y248000D02*
X707000Y250500D01*
Y263000D01*
X642500Y236079D02*
X647000Y240579D01*
Y255000D01*
X642500Y259500D02*
X647000Y255000D01*
X618000Y282500D02*
Y304677D01*
X638000Y324677D02*
Y331500D01*
X618000Y304677D02*
X638000Y324677D01*
X624500Y283000D02*
Y307000D01*
X643000Y325500D01*
Y332000D01*
X697000Y268000D02*
X702500Y262500D01*
X700100Y269900D02*
X707000Y263000D01*
X618000Y282500D02*
X632500Y268000D01*
X697000D01*
X624500Y283000D02*
X637600Y269900D01*
X700100D01*
X603500Y206000D02*
X614500Y217000D01*
X603500Y205500D02*
Y206000D01*
Y204500D02*
Y205500D01*
X636500Y278500D02*
X659500D01*
D49*
X675716Y191500D02*
D03*
X695402D02*
D03*
D50*
X299095Y189508D02*
D03*
X310906D02*
D03*
Y201319D02*
D03*
X299095D02*
D03*
X341595Y189508D02*
D03*
X353405D02*
D03*
Y201319D02*
D03*
X341595D02*
D03*
X255689Y189500D02*
D03*
X267500D02*
D03*
Y201311D02*
D03*
X255689D02*
D03*
D51*
X305000Y172500D02*
D03*
X347500D02*
D03*
X261595Y172492D02*
D03*
D52*
X528000Y325559D02*
D03*
Y303118D02*
D03*
Y370441D02*
D03*
Y348000D02*
D03*
D53*
X522724Y314339D02*
D03*
Y359221D02*
D03*
D54*
X630500Y230736D02*
D03*
X642500Y231157D02*
D03*
D55*
X630500Y235658D02*
D03*
Y240579D02*
D03*
Y245500D02*
D03*
X642500Y236079D02*
D03*
Y241000D02*
D03*
Y245921D02*
D03*
D56*
X582500Y238000D02*
D03*
Y248000D02*
D03*
Y258000D02*
D03*
D57*
X603500Y205500D02*
D03*
X554287D02*
D03*
X603500Y185815D02*
D03*
X554287D02*
D03*
D58*
X320000Y427500D02*
D03*
X245000D02*
D03*
Y377500D02*
D03*
Y365000D02*
D03*
Y352500D02*
D03*
Y290000D02*
D03*
X320000D02*
D03*
X319750Y254250D02*
D03*
D59*
X701500Y309500D02*
D03*
X691500D02*
D03*
X681500D02*
D03*
X701500Y319500D02*
D03*
X691500D02*
D03*
X681500D02*
D03*
X701500Y329500D02*
D03*
X691500D02*
D03*
X681500D02*
D03*
X701500Y339500D02*
D03*
X691500D02*
D03*
X681500D02*
D03*
X701500Y349500D02*
D03*
X691500D02*
D03*
X681500D02*
D03*
X701500Y359500D02*
D03*
X691500D02*
D03*
X681500D02*
D03*
X701500Y369500D02*
D03*
X691500D02*
D03*
X681500D02*
D03*
Y379500D02*
D03*
X691500D02*
D03*
X701500D02*
D03*
X617000Y425000D02*
D03*
Y415000D02*
D03*
Y405000D02*
D03*
X607000Y425000D02*
D03*
Y415000D02*
D03*
Y405000D02*
D03*
X597000Y425000D02*
D03*
Y415000D02*
D03*
Y405000D02*
D03*
X587000Y425000D02*
D03*
Y415000D02*
D03*
Y405000D02*
D03*
X577000Y425000D02*
D03*
Y415000D02*
D03*
Y405000D02*
D03*
X567000Y425000D02*
D03*
Y415000D02*
D03*
Y405000D02*
D03*
X557000Y425000D02*
D03*
Y415000D02*
D03*
Y405000D02*
D03*
X547000D02*
D03*
Y415000D02*
D03*
Y425000D02*
D03*
X652500Y306500D02*
D03*
X642500D02*
D03*
X632500D02*
D03*
X571000Y344500D02*
D03*
Y334500D02*
D03*
Y324500D02*
D03*
X666500Y428000D02*
D03*
X676500D02*
D03*
X686500D02*
D03*
D60*
X662500Y306500D02*
D03*
X656500Y428000D02*
D03*
D61*
X571000Y354500D02*
D03*
D62*
X520000Y176000D02*
D03*
D63*
X530000D02*
D03*
D64*
X663000Y361500D02*
D03*
X589500Y394000D02*
D03*
X638000Y331500D02*
D03*
X643000Y332000D02*
D03*
X687500Y400500D02*
D03*
X614500Y261000D02*
D03*
X637000Y394500D02*
D03*
X690500Y199000D02*
D03*
X678500Y244000D02*
D03*
X464500Y415965D02*
D03*
Y409465D02*
D03*
X469500Y406965D02*
D03*
X468000Y400965D02*
D03*
X418500Y403465D02*
D03*
X458000Y382465D02*
D03*
X462984Y368980D02*
D03*
X469500Y372965D02*
D03*
X459000Y363965D02*
D03*
X468000Y395965D02*
D03*
X463000Y399134D02*
D03*
X462500Y390965D02*
D03*
X597000Y345000D02*
D03*
X579500Y390500D02*
D03*
X577000Y383000D02*
D03*
X578500Y369500D02*
D03*
X621000Y382500D02*
D03*
X628500D02*
D03*
X663500Y415500D02*
D03*
X674000Y400500D02*
D03*
X669500Y378500D02*
D03*
X646000Y422000D02*
D03*
X704500Y248000D02*
D03*
Y237500D02*
D03*
X659500Y244500D02*
D03*
X702500Y262500D02*
D03*
X642500Y259500D02*
D03*
X624000Y321000D02*
D03*
X659500Y278500D02*
D03*
X636500D02*
D03*
X624500Y345500D02*
D03*
X664000Y389500D02*
D03*
X648000Y376500D02*
D03*
X653000Y375000D02*
D03*
X651500Y245500D02*
D03*
D65*
X459500Y428965D02*
D03*
X434500D02*
D03*
X487000Y385965D02*
D03*
X400000Y434965D02*
D03*
X419000Y393965D02*
D03*
X399500Y386650D02*
D03*
X388500Y409465D02*
D03*
X379000Y399965D02*
D03*
X443000Y378965D02*
D03*
Y371965D02*
D03*
X499500Y302965D02*
D03*
Y329465D02*
D03*
X371685Y289965D02*
D03*
X379000Y381465D02*
D03*
X354000Y362965D02*
D03*
X422000Y291965D02*
D03*
X435500D02*
D03*
X486500Y411465D02*
D03*
X456000Y350465D02*
D03*
X422500Y351465D02*
D03*
X398000Y258965D02*
D03*
X227000Y409500D02*
D03*
X226953Y353453D02*
D03*
X274000Y219000D02*
D03*
D66*
X402000Y371465D02*
D03*
X412500D02*
D03*
X368000Y359465D02*
D03*
X489000Y234000D02*
D03*
X480000Y234500D02*
D03*
X498000Y234000D02*
D03*
X521000Y210500D02*
D03*
M02*
