M48
;Layer_Color=9474304
;FILE_FORMAT=2:5
INCH,LZ
;TYPE=PLATED
T1F00S00C0.02000
T2F00S00C0.02559
T3F00S00C0.02800
T4F00S00C0.03346
T5F00S00C0.03543
T6F00S00C0.04000
T7F00S00C0.04016
T8F00S00C0.04331
T9F00S00C0.05118
T10F00S00C0.05500
T11F00S00C0.07087
;TYPE=NON_PLATED
T13F00S00C0.11811
T14F00S00C0.11811
T15F00S00C0.20000
%
T01
X06905Y0199
X07045Y02375
Y0248
X07025Y02625
X06785Y0244
X06595Y02445
X06515Y02455
X06425Y02595
X06365Y02785
X06595
X06145Y0261
X0459Y0363965
X0462984Y036898
X0458Y0382465
X04625Y0390965
X0463Y0399134
X0468Y0400965
Y0395965
X04645Y0409465
Y0415965
X04185Y0403465
X04695Y0406965
Y0372965
X05785Y03695
X0577Y0383
X05795Y03905
X05895Y0394
X0621Y03825
X06245Y03455
X0624Y0321
X0597Y0345
X0638Y03315
X0643Y0332
X0663Y03615
X06695Y03785
X0664Y03895
X0674Y04005
X06875
X06635Y04155
X0646Y0422
X0637Y03945
X06285Y03825
X0648Y03765
X0653Y0375
T02
X06305Y0230736
Y0235658
Y0240579
Y02455
X06425Y0245921
Y0241
Y0236079
Y0231157
T03
X04995Y0302965
X04355Y0291965
X0422
X0371685Y0289965
X0398Y0258965
X0274Y0219
X0226953Y0353453
X0227Y04095
X03885Y0409465
X0379Y0399965
Y0381465
X03995Y038665
X0419Y0393965
X0443Y0378965
Y0371965
X0456Y0350465
X04225Y0351465
X0354Y0362965
X04Y0434965
X04345Y0428965
X04595
X04865Y0411465
X0487Y0385965
X04995Y0329465
T04
X0675716Y01915
X0695402
T05
X052Y0176
X053
T06
X06325Y03065
X06425
X06525
X06625
X06815Y03095
X06915
X07015
X0571Y03245
Y03345
Y03445
Y03545
X0567Y0405
X0577
X0587
X0597
X0607
X0617
Y0415
Y0425
X0607
Y0415
X0597
Y0425
X0587
Y0415
X0577
Y0425
X0567
Y0415
X0557
Y0425
X0547
Y0415
Y0405
X0557
X06565Y0428
X06665
X06765
X06865
X06815Y03795
Y03695
Y03595
Y03495
Y03395
Y03295
Y03195
X06915
X07015
Y03295
X06915
Y03395
X07015
Y03495
X06915
Y03595
X07015
Y03695
X06915
Y03795
X07015
T07
X0341595Y0189508
X0353405
Y0201319
X0341595
X0310906
Y0189508
X0299095
Y0201319
X02675Y0201311
Y01895
X0255689
Y0201311
T08
X05825Y0238
Y0248
Y0258
T09
X0554287Y0185815
Y02055
X06035
Y0185815
T10
X048Y02345
X0489Y0234
X0498
X0521Y02105
X031975Y025425
X032Y029
X0245
Y03525
Y0365
Y03775
Y04275
X032
X0368Y0359465
X0402Y0371465
X04125
T11
X0528Y0303118
Y0325559
Y0348
Y0370441
T13
X0522724Y0314339
Y0359221
T14
X03475Y01725
X0305
X0261595Y0172492
T15
X06355Y0185039
X03935Y0185
X03535Y0433
M30
