G04 Layer_Physical_Order=1*
G04 Layer_Color=255*
%FSLAX25Y25*%
%MOIN*%
G70*
G01*
G75*
%ADD10R,0.03543X0.02756*%
%ADD11R,0.01575X0.05315*%
%ADD12R,0.03150X0.03937*%
%ADD13R,0.06575X0.06516*%
%ADD14R,0.04331X0.10236*%
%ADD15R,0.06693X0.04331*%
%ADD16R,0.02756X0.03543*%
%ADD17R,0.04331X0.06693*%
%ADD18R,0.06693X0.04134*%
%ADD19R,0.06516X0.06575*%
%ADD20R,0.10236X0.12598*%
%ADD21R,0.12598X0.10236*%
%ADD22R,0.14567X0.20472*%
%ADD23R,0.16339X0.09252*%
%ADD24O,0.07087X0.01772*%
%ADD25R,0.27953X0.22047*%
%ADD26R,0.07677X0.04134*%
%ADD27R,0.22047X0.27953*%
%ADD28R,0.04134X0.07677*%
%ADD29R,0.09252X0.17520*%
%ADD30O,0.15000X0.02000*%
%ADD31R,0.15000X0.02000*%
%ADD32R,0.04803X0.03583*%
%ADD33R,0.07000X0.01500*%
%ADD34O,0.07000X0.01500*%
%ADD35R,0.03386X0.01024*%
%ADD36R,0.01024X0.03386*%
%ADD37R,0.20866X0.20866*%
%ADD38R,0.07087X0.07480*%
%ADD39R,0.05905X0.07480*%
%ADD40C,0.01000*%
%ADD41C,0.03000*%
%ADD42C,0.01500*%
%ADD43C,0.05000*%
%ADD44C,0.02000*%
%ADD45C,0.07000*%
%ADD46C,0.04000*%
%ADD47C,0.08000*%
%ADD48R,0.00000X0.02000*%
%ADD49C,0.20000*%
%ADD50C,0.05905*%
%ADD51R,0.05905X0.05905*%
%ADD52C,0.06000*%
%ADD53R,0.06000X0.06000*%
%ADD54R,0.06000X0.06000*%
%ADD55C,0.08500*%
%ADD56C,0.07118*%
%ADD57C,0.06331*%
%ADD58C,0.03543*%
%ADD59R,0.03543X0.03543*%
%ADD60C,0.11811*%
%ADD61C,0.08661*%
%ADD62C,0.15748*%
%ADD63C,0.06693*%
%ADD64C,0.05709*%
%ADD65C,0.03500*%
%ADD66C,0.05000*%
%ADD67C,0.07500*%
G36*
X500000Y230500D02*
X478000D01*
Y246500D01*
X500000D01*
Y230500D01*
D02*
G37*
G36*
X486500Y323965D02*
X486500Y278965D01*
X481500Y273965D01*
X474000D01*
X470000Y269965D01*
Y249965D01*
X466500Y246465D01*
X446500D01*
X441500Y251465D01*
X441500Y278965D01*
X430000Y290465D01*
X430000Y327465D01*
X434000Y331465D01*
X479000D01*
X486500Y323965D01*
D02*
G37*
G36*
X486500Y351036D02*
Y338965D01*
X481500Y333965D01*
X399000D01*
X395500Y337464D01*
X395500Y354590D01*
X398200Y357964D01*
X481111Y357965D01*
X486500Y351036D01*
D02*
G37*
G36*
X426500Y328965D02*
Y251465D01*
X398000Y222965D01*
X382500Y222965D01*
X380000Y225465D01*
Y280465D01*
X394000Y294465D01*
Y326465D01*
X399000Y331465D01*
X424000D01*
X426500Y328965D01*
D02*
G37*
G36*
X377500Y362965D02*
Y230965D01*
X369500Y222965D01*
X349000D01*
X343000Y228965D01*
Y362965D01*
X349000Y368965D01*
X371500D01*
X377500Y362965D01*
D02*
G37*
G36*
X424221Y397350D02*
X424957Y397203D01*
X430272D01*
X430614Y397271D01*
X431000Y396954D01*
Y391062D01*
X430614Y390744D01*
X430272Y390812D01*
X424957D01*
X424221Y390666D01*
X423972Y390500D01*
X421000D01*
X417000Y392214D01*
Y395704D01*
X420035Y397500D01*
X423996D01*
X424221Y397350D01*
D02*
G37*
%LPC*%
G36*
X477984Y286256D02*
X476917D01*
Y283417D01*
X477984D01*
Y286256D01*
D02*
G37*
G36*
X483051D02*
X481984D01*
Y283417D01*
X483051D01*
Y286256D01*
D02*
G37*
G36*
X477984Y279417D02*
X476917D01*
Y276579D01*
X477984D01*
Y279417D01*
D02*
G37*
G36*
X483051D02*
X481984D01*
Y276579D01*
X483051D01*
Y279417D01*
D02*
G37*
G36*
X438377Y289965D02*
X437500D01*
Y289088D01*
X437996Y289468D01*
X438377Y289965D01*
D02*
G37*
G36*
X433500D02*
X432623D01*
X433004Y289468D01*
X433500Y289088D01*
Y289965D01*
D02*
G37*
G36*
X463665Y272701D02*
X457382D01*
Y263465D01*
X463665D01*
Y272701D01*
D02*
G37*
G36*
X453382D02*
X447098D01*
Y263465D01*
X453382D01*
Y272701D01*
D02*
G37*
G36*
X463665Y259465D02*
X457382D01*
Y250228D01*
X463665D01*
Y259465D01*
D02*
G37*
G36*
X453382D02*
X447098D01*
Y250228D01*
X453382D01*
Y259465D01*
D02*
G37*
G36*
X433500Y294842D02*
X433004Y294461D01*
X432623Y293965D01*
X433500D01*
Y294842D01*
D02*
G37*
G36*
X484799Y315618D02*
X479500D01*
Y311500D01*
X484799D01*
Y315618D01*
D02*
G37*
G36*
X475500D02*
X470201D01*
Y311500D01*
X475500D01*
Y315618D01*
D02*
G37*
G36*
X437500Y294842D02*
Y293965D01*
X438377D01*
X437996Y294461D01*
X437500Y294842D01*
D02*
G37*
G36*
X459039Y311012D02*
X449016D01*
Y298035D01*
X459039D01*
Y311012D01*
D02*
G37*
G36*
X445016D02*
X434992D01*
Y298035D01*
X445016D01*
Y311012D01*
D02*
G37*
G36*
X484799Y323736D02*
X479500D01*
Y319618D01*
X484799D01*
Y323736D01*
D02*
G37*
G36*
X445016Y327988D02*
X434992D01*
Y315012D01*
X445016D01*
Y327988D01*
D02*
G37*
G36*
X475500Y323736D02*
X470201D01*
Y319618D01*
X475500D01*
Y323736D01*
D02*
G37*
G36*
X459039Y327988D02*
X449016D01*
Y315012D01*
X459039D01*
Y327988D01*
D02*
G37*
G36*
X422500Y354995D02*
X421586Y354874D01*
X420735Y354522D01*
X420004Y353961D01*
X419443Y353230D01*
X419090Y352378D01*
X418970Y351465D01*
X419045Y350893D01*
X418558Y350407D01*
X418116Y349745D01*
X417961Y348965D01*
Y345803D01*
X416933D01*
Y336126D01*
X423067D01*
Y345803D01*
X422039D01*
Y347616D01*
X422415Y347946D01*
X422500Y347934D01*
X423414Y348055D01*
X424265Y348407D01*
X424996Y348968D01*
X425557Y349699D01*
X425910Y350551D01*
X426030Y351465D01*
X425910Y352378D01*
X425557Y353230D01*
X424996Y353961D01*
X424265Y354522D01*
X423414Y354874D01*
X422500Y354995D01*
D02*
G37*
G36*
X441067Y345803D02*
X440000D01*
Y342965D01*
X441067D01*
Y345803D01*
D02*
G37*
G36*
X475500Y352083D02*
X470201D01*
Y347965D01*
X475500D01*
Y352083D01*
D02*
G37*
G36*
X400000Y349354D02*
X397654D01*
Y348287D01*
X400000D01*
Y349354D01*
D02*
G37*
G36*
X484799Y352083D02*
X479500D01*
Y347965D01*
X484799D01*
Y352083D01*
D02*
G37*
G36*
X436000Y345803D02*
X434933D01*
Y342965D01*
X436000D01*
Y345803D01*
D02*
G37*
G36*
X475500Y343965D02*
X470201D01*
Y339846D01*
X475500D01*
Y343965D01*
D02*
G37*
G36*
X456000Y353995D02*
X455086Y353874D01*
X454235Y353522D01*
X453504Y352961D01*
X452943Y352230D01*
X452590Y351378D01*
X452470Y350465D01*
X452590Y349551D01*
X452943Y348699D01*
X453504Y347968D01*
X453961Y347618D01*
Y345803D01*
X452965D01*
Y336126D01*
X459098D01*
Y345803D01*
X458039D01*
Y347618D01*
X458496Y347968D01*
X459057Y348699D01*
X459410Y349551D01*
X459530Y350465D01*
X459410Y351378D01*
X459057Y352230D01*
X458496Y352961D01*
X457765Y353522D01*
X456914Y353874D01*
X456000Y353995D01*
D02*
G37*
G36*
X484799Y343965D02*
X479500D01*
Y339846D01*
X484799D01*
Y343965D01*
D02*
G37*
G36*
X405035Y345803D02*
X403968D01*
Y342965D01*
X405035D01*
Y345803D01*
D02*
G37*
G36*
X399969D02*
X398902D01*
Y342965D01*
X399969D01*
Y345803D01*
D02*
G37*
G36*
X416847Y354421D02*
X414500D01*
Y353354D01*
X416847D01*
Y354421D01*
D02*
G37*
G36*
X410500D02*
X408153D01*
Y353354D01*
X410500D01*
Y354421D01*
D02*
G37*
G36*
Y349354D02*
X408153D01*
Y348287D01*
X410500D01*
Y349354D01*
D02*
G37*
G36*
X406347D02*
X404000D01*
Y348287D01*
X406347D01*
Y349354D01*
D02*
G37*
G36*
X416847D02*
X414500D01*
Y348287D01*
X416847D01*
Y349354D01*
D02*
G37*
G36*
X406347Y354421D02*
X404000D01*
Y353354D01*
X406347D01*
Y354421D01*
D02*
G37*
G36*
X400000D02*
X397654D01*
Y353354D01*
X400000D01*
Y354421D01*
D02*
G37*
G36*
X399969Y338965D02*
X398902D01*
Y336126D01*
X399969D01*
Y338965D01*
D02*
G37*
G36*
X405035D02*
X403968D01*
Y336126D01*
X405035D01*
Y338965D01*
D02*
G37*
G36*
X441067D02*
X440000D01*
Y336126D01*
X441067D01*
Y338965D01*
D02*
G37*
G36*
X436000D02*
X434933D01*
Y336126D01*
X436000D01*
Y338965D01*
D02*
G37*
G36*
X392736Y280047D02*
X389898D01*
Y278980D01*
X392736D01*
Y280047D01*
D02*
G37*
G36*
Y274980D02*
X389898D01*
Y273913D01*
X392736D01*
Y274980D01*
D02*
G37*
G36*
X385898D02*
X383059D01*
Y273913D01*
X385898D01*
Y274980D01*
D02*
G37*
G36*
Y280047D02*
X383059D01*
Y278980D01*
X385898D01*
Y280047D01*
D02*
G37*
G36*
X424000Y294842D02*
Y293965D01*
X424877D01*
X424496Y294461D01*
X424000Y294842D01*
D02*
G37*
G36*
X420000D02*
X419504Y294461D01*
X419123Y293965D01*
X420000D01*
Y294842D01*
D02*
G37*
G36*
Y289965D02*
X419123D01*
X419504Y289468D01*
X420000Y289088D01*
Y289965D01*
D02*
G37*
G36*
X424877D02*
X424000D01*
Y289088D01*
X424496Y289468D01*
X424877Y289965D01*
D02*
G37*
G36*
X393965Y240264D02*
X389846D01*
Y234965D01*
X393965D01*
Y240264D01*
D02*
G37*
G36*
X423902Y259465D02*
X417618D01*
Y250228D01*
X423902D01*
Y259465D01*
D02*
G37*
G36*
X413618D02*
X407335D01*
Y250228D01*
X413618D01*
Y259465D01*
D02*
G37*
G36*
X385846Y230965D02*
X381728D01*
Y225665D01*
X385846D01*
Y230965D01*
D02*
G37*
G36*
Y240264D02*
X381728D01*
Y234965D01*
X385846D01*
Y240264D01*
D02*
G37*
G36*
X393965Y230965D02*
X389846D01*
Y225665D01*
X393965D01*
Y230965D01*
D02*
G37*
G36*
X413618Y272701D02*
X407335D01*
Y263465D01*
X413618D01*
Y272701D01*
D02*
G37*
G36*
X423902D02*
X417618D01*
Y263465D01*
X423902D01*
Y272701D01*
D02*
G37*
G36*
X398000Y262495D02*
X397086Y262374D01*
X396235Y262022D01*
X395504Y261461D01*
X395153Y261004D01*
X392736D01*
Y262016D01*
X383059D01*
Y255882D01*
X392736D01*
Y256925D01*
X395153D01*
X395504Y256468D01*
X396235Y255907D01*
X397086Y255555D01*
X398000Y255434D01*
X398914Y255555D01*
X399765Y255907D01*
X400496Y256468D01*
X401057Y257200D01*
X401410Y258051D01*
X401530Y258965D01*
X401410Y259878D01*
X401057Y260730D01*
X400496Y261461D01*
X399765Y262022D01*
X398914Y262374D01*
X398000Y262495D01*
D02*
G37*
G36*
X408984Y311012D02*
X398961D01*
Y298035D01*
X408984D01*
Y311012D01*
D02*
G37*
G36*
X423008D02*
X412984D01*
Y298035D01*
X423008D01*
Y311012D01*
D02*
G37*
G36*
Y327988D02*
X412984D01*
Y315012D01*
X423008D01*
Y327988D01*
D02*
G37*
G36*
X408984D02*
X398961D01*
Y315012D01*
X408984D01*
Y327988D01*
D02*
G37*
G36*
X351370Y287965D02*
X350205D01*
Y285618D01*
X351370D01*
Y287965D01*
D02*
G37*
G36*
Y294311D02*
X350205D01*
Y291965D01*
X351370D01*
Y294311D01*
D02*
G37*
G36*
X356535D02*
X355370D01*
Y291965D01*
X356535D01*
Y294311D01*
D02*
G37*
G36*
X367165D02*
X360835D01*
Y285618D01*
X367165D01*
Y287925D01*
X368838D01*
X369189Y287468D01*
X369920Y286907D01*
X370771Y286555D01*
X371685Y286434D01*
X372599Y286555D01*
X373450Y286907D01*
X374181Y287468D01*
X374742Y288199D01*
X375095Y289051D01*
X375215Y289965D01*
X375095Y290878D01*
X374742Y291730D01*
X374181Y292461D01*
X373450Y293022D01*
X372599Y293374D01*
X371685Y293495D01*
X370771Y293374D01*
X369920Y293022D01*
X369189Y292461D01*
X368838Y292004D01*
X367165D01*
Y294311D01*
D02*
G37*
G36*
X356535Y287965D02*
X355370D01*
Y285618D01*
X356535D01*
Y287965D01*
D02*
G37*
G36*
X374921Y279988D02*
X361945D01*
Y269965D01*
X374921D01*
Y279988D01*
D02*
G37*
G36*
X365618Y240264D02*
X361500D01*
Y234965D01*
X365618D01*
Y240264D01*
D02*
G37*
G36*
X357500D02*
X353382D01*
Y234965D01*
X357500D01*
Y240264D01*
D02*
G37*
G36*
X365618Y230965D02*
X361500D01*
Y225665D01*
X365618D01*
Y230965D01*
D02*
G37*
G36*
X357500D02*
X353382D01*
Y225665D01*
X357500D01*
Y230965D01*
D02*
G37*
G36*
X357945Y279988D02*
X344969D01*
Y269965D01*
X357945D01*
Y279988D01*
D02*
G37*
G36*
Y265965D02*
X344969D01*
Y255941D01*
X357945D01*
Y265965D01*
D02*
G37*
G36*
X374921D02*
X361945D01*
Y255941D01*
X374921D01*
Y265965D01*
D02*
G37*
G36*
X352000Y360965D02*
X351123D01*
X351504Y360468D01*
X352000Y360088D01*
Y360965D01*
D02*
G37*
G36*
X356877D02*
X356000D01*
Y360088D01*
X356496Y360468D01*
X356877Y360965D01*
D02*
G37*
G36*
X356000Y365842D02*
Y364965D01*
X356877D01*
X356496Y365461D01*
X356000Y365842D01*
D02*
G37*
G36*
X352000D02*
X351504Y365461D01*
X351123Y364965D01*
X352000D01*
Y365842D01*
D02*
G37*
G36*
X366000Y317902D02*
X362374D01*
Y310142D01*
X366000D01*
Y317902D01*
D02*
G37*
G36*
X373626Y306142D02*
X370000D01*
Y298382D01*
X373626D01*
Y306142D01*
D02*
G37*
G36*
Y317902D02*
X370000D01*
Y310142D01*
X373626D01*
Y317902D01*
D02*
G37*
G36*
X366000Y306142D02*
X362374D01*
Y298382D01*
X366000D01*
Y306142D01*
D02*
G37*
G36*
X368000Y364256D02*
X366760Y364092D01*
X365604Y363614D01*
X364612Y362852D01*
X363851Y361860D01*
X363372Y360705D01*
X363209Y359465D01*
X363372Y358225D01*
X363851Y357069D01*
X364470Y356262D01*
Y352547D01*
X362374D01*
Y333028D01*
X373626D01*
Y352547D01*
X371530D01*
Y356262D01*
X372149Y357069D01*
X372628Y358225D01*
X372791Y359465D01*
X372628Y360705D01*
X372149Y361860D01*
X371388Y362852D01*
X370395Y363614D01*
X369240Y364092D01*
X368000Y364256D01*
D02*
G37*
%LPD*%
D10*
X681000Y236500D02*
D03*
X687000D02*
D03*
X587500Y307095D02*
D03*
Y313000D02*
D03*
X581000Y307594D02*
D03*
Y313500D02*
D03*
X587500Y328953D02*
D03*
Y323047D02*
D03*
X581000Y329906D02*
D03*
Y324000D02*
D03*
X666000Y251047D02*
D03*
Y256953D02*
D03*
X679000Y299905D02*
D03*
Y294000D02*
D03*
X673500Y299905D02*
D03*
Y294000D02*
D03*
X664000Y379047D02*
D03*
Y384953D02*
D03*
X650106Y323953D02*
D03*
Y318047D02*
D03*
X649500Y230047D02*
D03*
Y235953D02*
D03*
X644500Y323953D02*
D03*
Y318047D02*
D03*
X379000Y411917D02*
D03*
Y406012D02*
D03*
Y393417D02*
D03*
Y387512D02*
D03*
X400500Y397512D02*
D03*
Y403417D02*
D03*
X226953Y359095D02*
D03*
Y365000D02*
D03*
X436500Y371917D02*
D03*
Y366012D02*
D03*
X687000Y230594D02*
D03*
X681000D02*
D03*
D11*
X683004Y178130D02*
D03*
X685563D02*
D03*
X680445D02*
D03*
X688122D02*
D03*
X690681D02*
D03*
D12*
X451740Y209949D02*
D03*
X444260D02*
D03*
X448000Y200500D02*
D03*
X437740Y209949D02*
D03*
X430260D02*
D03*
X434000Y200500D02*
D03*
X680000Y405500D02*
D03*
X687480D02*
D03*
X683740Y414949D02*
D03*
X666500Y405500D02*
D03*
X673980D02*
D03*
X670240Y414949D02*
D03*
X653020Y405500D02*
D03*
X660500D02*
D03*
X656760Y414949D02*
D03*
X465240Y209949D02*
D03*
X457760D02*
D03*
X461500Y200500D02*
D03*
D13*
X430000Y182000D02*
D03*
Y166921D02*
D03*
X444000Y182079D02*
D03*
Y167000D02*
D03*
X500000Y378386D02*
D03*
Y393465D02*
D03*
X457500Y166921D02*
D03*
Y182000D02*
D03*
D14*
X322315Y216000D02*
D03*
X311685D02*
D03*
D15*
X636500Y400685D02*
D03*
Y411315D02*
D03*
X646000D02*
D03*
Y400685D02*
D03*
X669500Y362370D02*
D03*
Y373000D02*
D03*
X654500Y261315D02*
D03*
Y250685D02*
D03*
X499500Y310650D02*
D03*
Y321280D02*
D03*
X390500Y396280D02*
D03*
Y385650D02*
D03*
X410500Y420280D02*
D03*
Y409650D02*
D03*
X469500Y378650D02*
D03*
Y389280D02*
D03*
X487000Y404280D02*
D03*
Y393650D02*
D03*
X226815Y427500D02*
D03*
Y416870D02*
D03*
X477000Y411650D02*
D03*
Y422280D02*
D03*
X410000Y392650D02*
D03*
Y403279D02*
D03*
X671000Y238000D02*
D03*
Y227370D02*
D03*
X697500Y238500D02*
D03*
Y227870D02*
D03*
X711500Y237185D02*
D03*
Y247815D02*
D03*
X631000Y321185D02*
D03*
Y331815D02*
D03*
D16*
X654953Y240500D02*
D03*
X649047D02*
D03*
X591094Y352000D02*
D03*
X597000D02*
D03*
X611547Y337500D02*
D03*
X617453D02*
D03*
X591094Y358000D02*
D03*
X597000D02*
D03*
X402953Y420465D02*
D03*
X397047D02*
D03*
X402953Y409465D02*
D03*
X397047D02*
D03*
X433453Y436465D02*
D03*
X427547D02*
D03*
X663406Y374500D02*
D03*
X657500D02*
D03*
D17*
X619000Y345000D02*
D03*
X608370D02*
D03*
X647870Y383000D02*
D03*
X658500D02*
D03*
X647685Y391500D02*
D03*
X658315D02*
D03*
X597685Y257000D02*
D03*
X608315D02*
D03*
X597185Y238500D02*
D03*
X607815D02*
D03*
X353370Y289965D02*
D03*
X364000D02*
D03*
X419315Y434965D02*
D03*
X408685D02*
D03*
X452315Y428965D02*
D03*
X441685D02*
D03*
X265815Y219000D02*
D03*
X255185D02*
D03*
X436315Y378965D02*
D03*
X425685D02*
D03*
D18*
X402000Y351354D02*
D03*
Y362575D02*
D03*
X412500Y351354D02*
D03*
Y362575D02*
D03*
D19*
X488421Y422465D02*
D03*
X503500D02*
D03*
D20*
X387846Y232965D02*
D03*
X359500D02*
D03*
D21*
X477500Y345965D02*
D03*
Y317618D02*
D03*
D22*
X455382Y261465D02*
D03*
X415618D02*
D03*
D23*
X294839Y254500D02*
D03*
X262161D02*
D03*
D24*
X454386Y388890D02*
D03*
Y391449D02*
D03*
Y394008D02*
D03*
Y396567D02*
D03*
Y399126D02*
D03*
Y401685D02*
D03*
Y404244D02*
D03*
Y406803D02*
D03*
Y409362D02*
D03*
Y411921D02*
D03*
Y414480D02*
D03*
Y417039D02*
D03*
X427614Y388890D02*
D03*
Y391449D02*
D03*
Y394008D02*
D03*
Y396567D02*
D03*
Y399126D02*
D03*
Y401685D02*
D03*
Y404244D02*
D03*
Y406803D02*
D03*
Y409362D02*
D03*
Y411921D02*
D03*
Y414480D02*
D03*
Y417039D02*
D03*
D25*
X359945Y267965D02*
D03*
D26*
X387898Y276980D02*
D03*
Y258949D02*
D03*
D27*
X410984Y313012D02*
D03*
X447016D02*
D03*
X489000Y253465D02*
D03*
D28*
X401968Y340965D02*
D03*
X420000D02*
D03*
X438000D02*
D03*
X456032D02*
D03*
X479984Y281417D02*
D03*
X498016D02*
D03*
D29*
X368000Y308142D02*
D03*
Y342787D02*
D03*
D30*
X610000Y369500D02*
D03*
Y374500D02*
D03*
Y379500D02*
D03*
Y384500D02*
D03*
Y389500D02*
D03*
X590000Y369500D02*
D03*
Y374500D02*
D03*
Y379500D02*
D03*
Y384500D02*
D03*
D31*
Y389500D02*
D03*
D32*
X450500Y378902D02*
D03*
Y366028D02*
D03*
D33*
X695500Y248000D02*
D03*
D34*
Y250500D02*
D03*
Y253000D02*
D03*
Y255500D02*
D03*
Y258000D02*
D03*
Y260500D02*
D03*
Y263000D02*
D03*
Y265500D02*
D03*
X675000Y248000D02*
D03*
Y250500D02*
D03*
Y253000D02*
D03*
Y255500D02*
D03*
Y258000D02*
D03*
Y260500D02*
D03*
Y263000D02*
D03*
Y265500D02*
D03*
D35*
X629929Y364303D02*
D03*
Y362335D02*
D03*
Y360366D02*
D03*
Y358398D02*
D03*
Y356429D02*
D03*
Y354461D02*
D03*
Y352492D02*
D03*
Y350524D02*
D03*
Y348555D02*
D03*
Y346587D02*
D03*
Y344618D02*
D03*
Y342650D02*
D03*
X656976D02*
D03*
Y344618D02*
D03*
Y346587D02*
D03*
Y348555D02*
D03*
Y350524D02*
D03*
Y352492D02*
D03*
Y354461D02*
D03*
Y356429D02*
D03*
Y358398D02*
D03*
Y360366D02*
D03*
Y362335D02*
D03*
Y364303D02*
D03*
D36*
X632626Y339953D02*
D03*
X634594D02*
D03*
X636563D02*
D03*
X638531D02*
D03*
X640500D02*
D03*
X642469D02*
D03*
X644437D02*
D03*
X646406D02*
D03*
X648374D02*
D03*
X650343D02*
D03*
X652311D02*
D03*
X654280D02*
D03*
Y367000D02*
D03*
X652311D02*
D03*
X650343D02*
D03*
X648374D02*
D03*
X646406D02*
D03*
X644437D02*
D03*
X642469D02*
D03*
X640500D02*
D03*
X638531D02*
D03*
X636563D02*
D03*
X634594D02*
D03*
X632626D02*
D03*
D37*
X643453Y353476D02*
D03*
D38*
X698161Y167500D02*
D03*
X672965D02*
D03*
D39*
X681626D02*
D03*
X689500D02*
D03*
D40*
X654500Y260500D02*
X656547D01*
X674000Y400500D02*
Y405500D01*
X660750Y405250D02*
X663500Y408000D01*
X654291Y374791D02*
X658500Y379000D01*
X624000Y321000D02*
X631685D01*
X704500Y237500D02*
X712685D01*
X654463Y249870D02*
X654500D01*
X580309Y379691D02*
X592809D01*
X390500Y386650D02*
X399500D01*
X225500Y353000D02*
X226500Y352000D01*
X706634Y253000D02*
X711819Y247815D01*
X703324Y248000D02*
X704323Y247000D01*
X647870Y377130D02*
X648500Y376500D01*
X649000Y372750D02*
Y376500D01*
X625000Y345000D02*
Y346000D01*
X624500Y345000D02*
X624936D01*
X624500Y344500D02*
X625000Y345000D01*
X624436Y344500D02*
X624500D01*
X619000Y345000D02*
X624500D01*
X664000Y384453D02*
Y389500D01*
X601500Y218500D02*
X620000Y237000D01*
X473791Y218500D02*
X601500D01*
X465240Y209949D02*
X473791Y218500D01*
X620000Y247500D02*
X636500Y264000D01*
X620000Y237000D02*
Y247500D01*
X607000Y363500D02*
X613000Y369500D01*
X629941Y333374D02*
X631500Y331815D01*
X611047Y337500D02*
X614047Y334500D01*
X582500Y258000D02*
X596685D01*
X582500Y238000D02*
X596685D01*
X606150Y241347D02*
X607815Y239681D01*
X602052Y241347D02*
X606150D01*
X595399Y248000D02*
X602052Y241347D01*
X666000Y207909D02*
Y251047D01*
Y207909D02*
X680539Y193370D01*
X693000Y244500D02*
X698500D01*
X691150Y246350D02*
X693000Y244500D01*
X691150Y246350D02*
Y256400D01*
X692750Y258000D01*
X695500D01*
X690681Y184181D02*
X691000Y184500D01*
X690681Y178130D02*
Y184181D01*
X680445Y178130D02*
X680539Y178224D01*
Y193370D01*
X451740Y209949D02*
X452000Y210209D01*
Y215500D01*
X437740Y209949D02*
X438000Y210209D01*
Y216000D01*
X636500Y264000D02*
Y277000D01*
X673500Y299905D02*
Y314500D01*
X671000Y317000D02*
X673500Y314500D01*
X671000Y317000D02*
Y323232D01*
X654280Y339953D02*
X671000Y323232D01*
X679000Y307000D02*
X681500Y309500D01*
X679000Y299905D02*
Y307000D01*
X673500Y294000D02*
X679000D01*
X673500Y288500D02*
Y294000D01*
X457500Y192000D02*
X458000Y192500D01*
X430000Y166921D02*
X430079Y167000D01*
X444000D02*
X444079Y166921D01*
X581000Y306000D02*
X584000Y303000D01*
X581000Y306000D02*
Y307594D01*
X584000Y303000D02*
X587500Y306500D01*
Y307095D01*
X581000Y313500D02*
Y318500D01*
Y324000D01*
X587500Y323047D02*
X587500Y323047D01*
X587500Y318000D02*
Y323047D01*
Y313000D02*
Y318000D01*
X587500Y328953D02*
Y333177D01*
X603500Y345000D02*
X608370D01*
X587500Y333177D02*
X604847Y350524D01*
X629929D01*
X581000Y330500D02*
X602992Y352492D01*
X629929D01*
X656547Y260500D02*
X666000Y251047D01*
X651500Y245500D02*
Y246000D01*
X652798Y247298D01*
X654583Y374500D02*
X657500D01*
X654291Y374791D02*
X654583Y374500D01*
X653000Y375000D02*
X653500D01*
X654000Y374500D01*
X649500Y372250D02*
X650343Y371408D01*
X649000Y372750D02*
X649500Y372250D01*
X648500Y376500D02*
X649000D01*
X648000D02*
X648500D01*
X644000Y375500D02*
X646406Y373095D01*
X644000Y375500D02*
Y398685D01*
X657500Y374500D02*
X658000D01*
X654000D02*
X654291Y374791D01*
X677000Y365000D02*
Y382500D01*
X654000Y405500D02*
X677000Y382500D01*
X653020Y405500D02*
X654000D01*
X624500Y344564D02*
X624936Y345000D01*
X624436Y344500D02*
X624500Y344564D01*
Y345000D02*
Y345500D01*
Y344564D02*
Y345000D01*
X627555Y348555D02*
X629929D01*
X625000Y346000D02*
X627555Y348555D01*
X625000Y344807D02*
Y345000D01*
X645000Y323953D02*
X646406Y325358D01*
X310906Y201319D02*
X311685Y202098D01*
X554287Y205500D02*
X603500D01*
X668500Y265500D02*
X673000Y270000D01*
X668500Y262000D02*
Y265500D01*
Y262000D02*
X670000Y260500D01*
X675000D01*
X702000Y270000D02*
X706500Y265500D01*
X673000Y270000D02*
X702000D01*
X706500Y261250D02*
Y265500D01*
X631500Y321185D02*
X631685Y321000D01*
X657500Y293000D02*
Y326837D01*
X642500Y278000D02*
X657500Y293000D01*
X642500Y259500D02*
Y278000D01*
X651272Y309081D02*
Y317169D01*
X698250Y255500D02*
X702500Y259750D01*
Y262500D01*
X657500Y244500D02*
X659500D01*
X654953Y241953D02*
X657500Y244500D01*
X654953Y240500D02*
Y241953D01*
X651047Y230047D02*
X654953Y233953D01*
Y240500D01*
X704500Y237500D02*
Y238500D01*
X698500Y244500D02*
X704500Y238500D01*
X698500Y237500D02*
X704500D01*
Y247177D02*
Y248000D01*
X704323Y247000D02*
X704500Y247177D01*
X711819Y247815D02*
X713000D01*
X646000Y411315D02*
Y422000D01*
X647870Y377130D02*
Y383000D01*
X647685Y383185D02*
X647870Y383000D01*
X647685Y383185D02*
Y391500D01*
X658315Y383185D02*
X658500Y383000D01*
X658315Y383185D02*
Y391500D01*
X658500Y379000D02*
Y383000D01*
X669500Y373000D02*
Y378500D01*
X664000Y384453D02*
X664000Y384453D01*
X668815Y361500D02*
X669500Y362185D01*
X674500Y362500D02*
X677000Y365000D01*
X674500Y360000D02*
Y362500D01*
X672898Y358398D02*
X674500Y360000D01*
X666500Y402000D02*
Y405500D01*
Y402000D02*
X685500Y383000D01*
X676500Y361000D02*
X680000Y364500D01*
X676500Y358500D02*
Y361000D01*
X674429Y356429D02*
X676500Y358500D01*
X685500Y366000D02*
Y383000D01*
X684000Y364500D02*
X685500Y366000D01*
X680000Y364500D02*
X684000D01*
X683000Y393500D02*
X687500Y389000D01*
Y359500D02*
Y389000D01*
X683500Y355500D02*
X687500Y359500D01*
X687480Y400520D02*
X687500Y400500D01*
X687480Y400520D02*
Y405500D01*
X683000Y393500D02*
Y402500D01*
X680000Y405500D02*
X683000Y402500D01*
X677500Y355500D02*
X683500D01*
X676461Y354461D02*
X677500Y355500D01*
X695500Y353500D02*
X701500Y359500D01*
X678500Y353500D02*
X695500D01*
X677492Y352492D02*
X678500Y353500D01*
X663500Y408000D02*
Y415500D01*
X683740Y425240D02*
X686500Y428000D01*
X683740Y414949D02*
Y425240D01*
X670240Y421740D02*
X676500Y428000D01*
X670240Y414949D02*
Y421740D01*
X666500Y427000D02*
Y428000D01*
X656760Y417260D02*
X666500Y427000D01*
X656760Y414949D02*
Y417260D01*
X668500Y296000D02*
Y320071D01*
X647243Y274743D02*
X668500Y296000D01*
X680000Y314500D02*
X696500D01*
X674000Y320500D02*
X680000Y314500D01*
X674000Y320500D02*
Y334000D01*
X677000Y345500D02*
X697500D01*
X671976Y350524D02*
X677000Y345500D01*
X697500Y343500D02*
X701500Y339500D01*
X675500Y343500D02*
X697500D01*
X670445Y348555D02*
X675500Y343500D01*
X697500Y345500D02*
X701500Y349500D01*
X680000Y334500D02*
X696500D01*
X667913Y346587D02*
X680000Y334500D01*
X696500D02*
X701500Y329500D01*
X676500Y328000D02*
Y335000D01*
X666882Y344618D02*
X676500Y335000D01*
X696500Y324500D02*
X701500Y319500D01*
X680000Y324500D02*
X696500D01*
X676500Y328000D02*
X680000Y324500D01*
X665350Y342650D02*
X674000Y334000D01*
X696500Y314500D02*
X701500Y309500D01*
X644000Y398685D02*
X646000Y400685D01*
X641500Y374500D02*
X644437Y371563D01*
X619000Y420000D02*
X625500Y413500D01*
X612000Y420000D02*
X619000D01*
X607000Y425000D02*
X612000Y420000D01*
X630000Y395500D02*
Y414000D01*
X619000Y425000D02*
X630000Y414000D01*
X617000Y425000D02*
X619000D01*
X630000Y395500D02*
X638531Y386968D01*
X625500Y397500D02*
Y413500D01*
Y397500D02*
X636563Y386437D01*
X619500Y400000D02*
X634594Y384906D01*
X615000Y400000D02*
X619500D01*
X605000Y410000D02*
X609500D01*
X602350Y412650D02*
X605000Y410000D01*
X602350Y412650D02*
Y419650D01*
X609500Y410000D02*
X612000Y407500D01*
Y403000D02*
X615000Y400000D01*
X612000Y403000D02*
Y407500D01*
X608500Y396500D02*
X619500D01*
X602000Y403000D02*
X608500Y396500D01*
X602000Y403000D02*
Y406500D01*
X598500Y410000D02*
X602000Y406500D01*
X619500Y396500D02*
X632626Y383374D01*
X595000Y410000D02*
X598500D01*
X592000Y413000D02*
X595000Y410000D01*
X587000Y425000D02*
X592000Y420000D01*
Y413000D02*
Y420000D01*
X585000Y399000D02*
X601000D01*
X582000Y402000D02*
X585000Y399000D01*
X582000Y402000D02*
Y420000D01*
X601000Y399000D02*
X607000Y393000D01*
X577000Y425000D02*
X582000Y420000D01*
X628500Y365303D02*
Y382500D01*
Y365303D02*
X629500Y364303D01*
X628500Y382500D02*
X629000D01*
X629500Y383000D01*
X607000Y393000D02*
X619500D01*
X618500Y389500D02*
X624500Y383500D01*
Y365500D02*
Y383500D01*
Y365500D02*
X627665Y362335D01*
X610000Y389500D02*
X618500D01*
X619000Y384500D02*
X621000Y382500D01*
X610000Y384500D02*
X619000D01*
X627665Y362335D02*
X629929D01*
X622500Y363500D02*
Y375000D01*
X618000Y379500D02*
X622500Y375000D01*
X610000Y379500D02*
X618000D01*
X622500Y363500D02*
X625634Y360366D01*
X629929D01*
X624102Y358398D02*
X629929D01*
X619500Y363000D02*
X624102Y358398D01*
X619500Y363000D02*
Y372500D01*
X617500Y374500D02*
X619500Y372500D01*
X610000Y374500D02*
X617500D01*
X590000Y369500D02*
X592000D01*
X578500D02*
X590000D01*
X592000D02*
X592500Y370000D01*
X577000Y383000D02*
X580309Y379691D01*
X576600Y377400D02*
X603600D01*
X553000Y401000D02*
X576600Y377400D01*
X553000Y401000D02*
Y419000D01*
X582350Y382650D02*
X603350D01*
X563000Y402000D02*
X582350Y382650D01*
X563000Y402000D02*
Y419000D01*
X606500Y374500D02*
X610000D01*
X590000Y384500D02*
X593000D01*
X586229D02*
X590000D01*
X606500Y379500D02*
X610000D01*
X606500Y389500D02*
X610000D01*
X579500Y390000D02*
Y390500D01*
Y390000D02*
X583478Y386022D01*
X590000Y389500D02*
X593000D01*
X592500Y370000D02*
X593000Y369500D01*
X637000Y394500D02*
X641500Y390000D01*
Y374500D02*
Y390000D01*
X597000Y352000D02*
X599461Y354461D01*
X597000Y358000D02*
X598571Y356429D01*
X584500Y358000D02*
X590594D01*
X588500Y352000D02*
X590594D01*
X599000Y337500D02*
X611047D01*
X594000Y332500D02*
X599000Y337500D01*
X611047D02*
X611547D01*
X614047Y334500D02*
X621779D01*
X629929Y342650D01*
X618000Y344000D02*
X619000Y345000D01*
X618000Y338547D02*
Y344000D01*
X628748Y364303D02*
X629500D01*
X650106Y318047D02*
X650394D01*
X650000D02*
X650106D01*
X642469Y337469D02*
Y339953D01*
X638000Y331500D02*
Y333000D01*
X649228Y324831D02*
X650106Y323953D01*
X650394Y318047D02*
X651272Y317169D01*
X650343Y333994D02*
X657500Y326837D01*
X649374Y236079D02*
X649500Y235953D01*
X642500Y236079D02*
X649374D01*
X648547Y241000D02*
X649047Y240500D01*
X642500Y241000D02*
X648547D01*
X649500Y230047D02*
X651047D01*
X647243Y245743D02*
Y274743D01*
X642500Y241000D02*
X647243Y245743D01*
X630711Y235868D02*
X642289D01*
X454870Y390965D02*
X462500D01*
X454386Y391449D02*
X454870Y390965D01*
X454394Y399134D02*
X463000D01*
X454386Y399126D02*
X454394Y399134D01*
X465250Y402715D02*
X467000Y400965D01*
X461361Y402715D02*
X465250D01*
X460861Y402215D02*
X461361Y402715D01*
X454915Y402215D02*
X460861D01*
X454988Y395965D02*
X468000D01*
X454386Y396567D02*
X454988Y395965D01*
X382000Y420465D02*
X397047D01*
X374000Y412465D02*
X382000Y420465D01*
X374000Y379354D02*
Y412465D01*
X226815Y416870D02*
X227000Y416685D01*
X459000Y363965D02*
Y378780D01*
X469500Y389280D01*
Y372965D02*
Y378650D01*
X387898Y258949D02*
X387913Y258965D01*
X455000Y340996D02*
X455031Y340965D01*
X486315Y411650D02*
X486500Y411465D01*
X477000Y411650D02*
X486315D01*
X493000Y286433D02*
X498016Y281417D01*
X493000Y286433D02*
Y352465D01*
X476484Y368980D02*
X493000Y352465D01*
X462984Y368980D02*
X476484D01*
X379000Y387512D02*
X379000Y387512D01*
X374000Y379354D02*
X402000Y351354D01*
X429953Y366012D02*
X436500D01*
X415000Y380965D02*
X429953Y366012D01*
X415000Y380965D02*
Y396465D01*
X436500Y366012D02*
X436516Y366028D01*
X450500D01*
X436500Y371917D02*
X436547Y371965D01*
X443000D01*
X454740Y385724D02*
X458000Y382465D01*
X454740Y385724D02*
Y388535D01*
X454386Y388890D02*
X454740Y388535D01*
X425685Y378965D02*
Y386961D01*
X427614Y388890D01*
X436315Y378965D02*
X443000D01*
X443063Y378902D01*
X450500D01*
X390732Y397512D02*
X400500D01*
X390500Y397280D02*
X390732Y397512D01*
X379000Y406012D02*
X379000Y406012D01*
X379000Y399965D02*
X379000Y399965D01*
X388500Y409465D02*
X388500Y409465D01*
X397047D01*
X400500Y403417D02*
X400638Y403279D01*
X410000D01*
X399500Y386650D02*
X404000D01*
X410000Y392650D01*
X415000Y396465D02*
X417661Y399126D01*
X427614D01*
X418500Y403465D02*
X419279Y404244D01*
X427614D01*
X417839Y406803D02*
X427614D01*
X414315Y403279D02*
X417839Y406803D01*
X410000Y403279D02*
X414315D01*
X402953Y409465D02*
X403138Y409650D01*
X410500D01*
X410787Y409362D01*
X427614D01*
X402953Y420465D02*
X403138Y420280D01*
X410500D01*
X414185D01*
X422543Y411921D01*
X427614D01*
X400000Y434965D02*
X408685D01*
X419315Y418181D02*
Y434965D01*
Y418181D02*
X423016Y414480D01*
X427614D01*
X467000Y400965D02*
X468000D01*
X454386Y401685D02*
X454915Y402215D01*
X499736Y378650D02*
X500000Y378386D01*
X469500Y378650D02*
X499736D01*
X464565Y394215D02*
X469500Y389280D01*
X454593Y394215D02*
X464565D01*
X454386Y394008D02*
X454593Y394215D01*
X489185Y404280D02*
X500000Y393465D01*
X487000Y404280D02*
X489185D01*
X487000D02*
X503500Y420780D01*
X486935Y404215D02*
X487000Y404280D01*
X503500Y420780D02*
Y422465D01*
X487000Y385965D02*
Y393650D01*
X454415Y404215D02*
X486935D01*
X454386Y404244D02*
X454415Y404215D01*
X489500Y436465D02*
X503500Y422465D01*
X433453Y436465D02*
X489500D01*
X427547D02*
X427614Y436398D01*
Y417039D02*
Y436398D01*
X476435Y412215D02*
X477000Y411650D01*
X454679Y412215D02*
X476435D01*
X454386Y411921D02*
X454679Y412215D01*
X459626Y422280D02*
X477000D01*
X454386Y417039D02*
X459626Y422280D01*
X488236D02*
X488421Y422465D01*
X477000Y422280D02*
X488236D01*
X469250Y406715D02*
X469500Y406965D01*
X454474Y406715D02*
X469250D01*
X454386Y406803D02*
X454474Y406715D01*
X464398Y409362D02*
X464500Y409465D01*
X454386Y409362D02*
X464398D01*
X463016Y414480D02*
X464500Y415965D01*
X454386Y414480D02*
X463016D01*
X427614Y401685D02*
X434279D01*
X436839Y399126D01*
X454386D01*
X319500Y254500D02*
X319750Y254250D01*
X235000Y290000D02*
X245000D01*
X230000Y295000D02*
X235000Y290000D01*
X230000Y295000D02*
Y347500D01*
X235000Y352500D02*
X245000D01*
X230000Y347500D02*
X235000Y352500D01*
X245000Y365000D02*
X245000Y365000D01*
Y217500D02*
X246500Y219000D01*
X666000Y256953D02*
X671067D01*
X672115Y258000D01*
X675000D01*
X686500Y426647D02*
Y428000D01*
X656976Y362335D02*
X656988Y362347D01*
X597000Y425000D02*
X602350Y419650D01*
X598571Y356429D02*
X629929D01*
X599461Y354461D02*
X629929D01*
X567000Y425000D02*
X573000Y419000D01*
Y403343D02*
Y419000D01*
X557000Y425000D02*
X563000Y419000D01*
X603350Y382650D02*
X606500Y379500D01*
X547000Y425000D02*
X553000Y419000D01*
X571000Y344500D02*
X584500Y358000D01*
X571000Y334500D02*
X588500Y352000D01*
X649228Y324831D02*
Y331374D01*
X648374Y332228D02*
X649228Y331374D01*
X650106Y323953D02*
X650500D01*
X695404Y253096D02*
X695500Y253000D01*
X698250D02*
X706500Y261250D01*
X698250Y253000D02*
X706634D01*
X596685Y258000D02*
X597685Y257000D01*
X596685Y238000D02*
X597185Y238500D01*
X697500D02*
X698500Y237500D01*
X712685D02*
X713000Y237185D01*
X671000Y238000D02*
X672181D01*
X678181Y244000D01*
X675916Y245908D02*
X677823Y244000D01*
X672079Y245908D02*
X675916D01*
X670000Y247987D02*
X672079Y245908D01*
X670000Y247987D02*
Y253500D01*
X672115Y255500D02*
X675000D01*
X670822Y254207D02*
X672115Y255500D01*
X670707Y254207D02*
X670822D01*
X670000Y253500D02*
X670707Y254207D01*
X677823Y244000D02*
X678181D01*
X678500D01*
X636500Y411315D02*
X646000D01*
X636500Y400685D02*
X637000Y400185D01*
Y394500D02*
Y400185D01*
X648374Y371124D02*
X649500Y372250D01*
X644606Y318047D02*
X645000D01*
X643728Y309081D02*
Y317169D01*
X642500Y307853D02*
X643728Y309081D01*
X642500Y306500D02*
Y307853D01*
X630500Y235658D02*
X630711Y235868D01*
X642289D02*
X642500Y236079D01*
X630500Y240579D02*
X630711Y240789D01*
X642289D01*
X642500Y241000D01*
X652311Y336260D02*
Y339953D01*
X652500Y306500D02*
Y307853D01*
X651272Y309081D02*
X652500Y307853D01*
X631110Y364303D02*
X631122Y364315D01*
X660690Y360366D02*
X661824Y361500D01*
X603600Y377400D02*
X606500Y374500D01*
X592809Y379691D02*
X593000Y379500D01*
X584708Y386022D02*
X586229Y384500D01*
X583478Y386022D02*
X584708D01*
X573000Y403343D02*
X579743Y396600D01*
X599400D01*
X589500Y390000D02*
X590000Y389500D01*
X589500Y390000D02*
Y394000D01*
X599400Y396600D02*
X606500Y389500D01*
X582500Y248000D02*
X595399D01*
X608315Y255819D02*
Y257000D01*
X606650Y254153D02*
X608315Y255819D01*
X601552Y254153D02*
X606650D01*
X595399Y248000D02*
X601552Y254153D01*
X607815Y238500D02*
Y239681D01*
X654268Y364291D02*
Y366988D01*
X361500Y364500D02*
X362500Y365500D01*
X361500Y359500D02*
Y364500D01*
X643000Y332677D02*
X644437Y334114D01*
X643000Y332000D02*
Y332677D01*
X652798Y248205D02*
X654463Y249870D01*
X652798Y247298D02*
Y248205D01*
X590594Y358000D02*
X591094Y358500D01*
X590594Y352000D02*
X591094Y352500D01*
X643728Y317169D02*
X644606Y318047D01*
X644437Y334114D02*
Y339953D01*
X652311Y336260D02*
X668500Y320071D01*
X646406Y325358D02*
Y339953D01*
X638000Y333000D02*
X642469Y337469D01*
X648374Y332228D02*
Y339953D01*
X650343Y333994D02*
Y339953D01*
X629941Y333374D02*
Y342638D01*
X656976Y346587D02*
X667913D01*
X643453Y353476D02*
X654268Y364291D01*
X654291Y367012D02*
Y374791D01*
X632626Y367000D02*
Y383374D01*
X656976Y344618D02*
X666882D01*
X656976Y352492D02*
X677492D01*
X656976Y356429D02*
X674429D01*
X646406Y367000D02*
Y373095D01*
X634594Y367000D02*
Y384906D01*
X656976Y354461D02*
X676461D01*
X656976Y350524D02*
X671976D01*
X638531Y367000D02*
Y386968D01*
X656976Y358398D02*
X672898D01*
X656976Y342650D02*
X665350D01*
X636563Y367000D02*
Y386437D01*
X656976Y360366D02*
X660690D01*
X644437Y367000D02*
Y371563D01*
X648374Y367000D02*
Y371124D01*
X650343Y367000D02*
Y371408D01*
X629929Y342650D02*
X629941Y342638D01*
X656976Y348555D02*
X670445D01*
X656988Y362347D02*
X659346D01*
X654268Y366988D02*
X654280Y367000D01*
X654291Y367012D01*
X629500Y364303D02*
X629929D01*
X631110D01*
X659346Y362347D02*
X663547Y366547D01*
X663000Y361500D02*
X668815D01*
X661824D02*
X663000D01*
X663547Y366547D02*
Y378153D01*
X619500Y393000D02*
X629500Y383000D01*
X695500Y248000D02*
X703324D01*
X695500Y255500D02*
X698250D01*
X675000Y260500D02*
Y263000D01*
X695500Y253000D02*
X698250D01*
D41*
X555500Y273500D02*
X599500D01*
X505000Y223000D02*
X555500Y273500D01*
X419000Y223000D02*
X505000D01*
X599500Y273500D02*
X632500Y306500D01*
X428000Y203000D02*
X430260Y205260D01*
Y209949D01*
X441500Y203000D02*
X444260Y205760D01*
Y209949D01*
X455000Y202500D02*
X457760Y205260D01*
Y209949D01*
X414500Y218500D02*
X419000Y223000D01*
X438000Y192500D02*
Y196500D01*
X434000Y200500D02*
X438000Y196500D01*
X448000Y192500D02*
Y200500D01*
X458000Y192500D02*
X461500Y196000D01*
Y200500D01*
X457500Y182000D02*
Y192000D01*
X444000Y188500D02*
X448000Y192500D01*
X444000Y182079D02*
Y188500D01*
X430000Y184500D02*
X438000Y192500D01*
X430000Y182000D02*
Y184500D01*
X310906Y189508D02*
X322315Y200917D01*
Y216000D01*
X311685Y202098D02*
Y216000D01*
X265815Y219000D02*
X274000D01*
X227000Y409500D02*
Y416685D01*
X226815Y427500D02*
X245000D01*
D42*
X682750Y237856D02*
Y251625D01*
X681394Y236500D02*
X682750Y237856D01*
X685250D02*
Y250589D01*
Y237856D02*
X686606Y236500D01*
X685250Y250589D02*
X686500Y251839D01*
Y264621D01*
X682750Y251625D02*
X684000Y252875D01*
Y264621D01*
X683121Y265500D02*
X684000Y264621D01*
X686500D02*
X687379Y265500D01*
X695500D01*
X675000D02*
X683121D01*
X686606Y236500D02*
X687000D01*
X681000D02*
X681394D01*
X687000Y230594D02*
X687394D01*
X690118Y227870D01*
X697500D01*
X680606Y230594D02*
X681000D01*
X677382Y227370D02*
X680606Y230594D01*
X671000Y227370D02*
X677382D01*
X687000Y228467D02*
Y230594D01*
X685563Y227029D02*
X687000Y228467D01*
X685563Y178130D02*
Y227029D01*
X681000Y228467D02*
Y230594D01*
Y228467D02*
X683004Y226463D01*
Y178130D02*
Y226463D01*
D43*
X421000Y199500D02*
Y212000D01*
Y175921D02*
Y199500D01*
X414500Y218500D02*
X421000Y212000D01*
Y175921D02*
X430000Y166921D01*
X421000Y199500D02*
X428000Y192500D01*
X370587Y218500D02*
X414500D01*
X430079Y167000D02*
X444000D01*
X444079Y166921D02*
X457500D01*
X359000Y230087D02*
X370587Y218500D01*
X368000Y342787D02*
Y359465D01*
X402000Y362575D02*
Y371465D01*
X412500Y362575D02*
Y371465D01*
X246500Y219000D02*
X255185D01*
D44*
X528000Y325559D02*
X556941Y354500D01*
X397500Y443500D02*
X641000D01*
X362500Y408500D02*
X397500Y443500D01*
X362500Y365500D02*
Y408500D01*
X245000Y365000D02*
X245000D01*
X226953D02*
X245000D01*
X226953Y353453D02*
Y359095D01*
X387913Y258965D02*
X398000D01*
X420000Y340965D02*
Y348965D01*
X422500Y351465D01*
X456000Y340996D02*
Y350465D01*
X379000Y381465D02*
Y387512D01*
X364000Y289965D02*
X371685D01*
X499500Y321280D02*
Y329465D01*
Y302965D02*
Y310650D01*
X379000Y399965D02*
Y406012D01*
X379000Y393417D02*
Y399965D01*
Y411917D02*
X386047D01*
X388500Y409465D01*
X434500Y428965D02*
X441685D01*
X452315D02*
X459500D01*
X556941Y354500D02*
X571000D01*
X641000Y443500D02*
X656500Y428000D01*
D45*
X262161Y254500D02*
X263500D01*
X245000D02*
X262161D01*
X298146D02*
X319500D01*
X255689Y201311D02*
X267500D01*
X245000Y212000D02*
X255689Y201311D01*
X245000Y212000D02*
Y217500D01*
Y254500D01*
Y290000D01*
X347185Y232965D02*
X359500D01*
D46*
X359000Y230087D02*
Y231000D01*
D47*
X341595Y201319D02*
X347185Y206909D01*
Y207539D01*
X353405Y201319D01*
X347185Y232965D02*
Y236000D01*
Y207539D02*
Y232965D01*
D48*
X417500Y393965D02*
D03*
D49*
X353500Y430000D02*
D03*
X635500Y185000D02*
D03*
X393500D02*
D03*
D50*
X458000Y192500D02*
D03*
X448000D02*
D03*
X438000D02*
D03*
D51*
X428000D02*
D03*
D52*
X686500Y428000D02*
D03*
X676500D02*
D03*
X666500D02*
D03*
X571000Y324500D02*
D03*
Y334500D02*
D03*
Y344500D02*
D03*
X632500Y306500D02*
D03*
X642500D02*
D03*
X652500D02*
D03*
X547000Y425000D02*
D03*
Y415000D02*
D03*
Y405000D02*
D03*
X557000D02*
D03*
Y415000D02*
D03*
Y425000D02*
D03*
X567000Y405000D02*
D03*
Y415000D02*
D03*
Y425000D02*
D03*
X577000Y405000D02*
D03*
Y415000D02*
D03*
Y425000D02*
D03*
X587000Y405000D02*
D03*
Y415000D02*
D03*
Y425000D02*
D03*
X597000Y405000D02*
D03*
Y415000D02*
D03*
Y425000D02*
D03*
X607000Y405000D02*
D03*
Y415000D02*
D03*
Y425000D02*
D03*
X617000Y405000D02*
D03*
Y415000D02*
D03*
Y425000D02*
D03*
X701500Y379500D02*
D03*
X691500D02*
D03*
X681500D02*
D03*
Y369500D02*
D03*
X691500D02*
D03*
X701500D02*
D03*
X681500Y359500D02*
D03*
X691500D02*
D03*
X701500D02*
D03*
X681500Y349500D02*
D03*
X691500D02*
D03*
X701500D02*
D03*
X681500Y339500D02*
D03*
X691500D02*
D03*
X701500D02*
D03*
X681500Y329500D02*
D03*
X691500D02*
D03*
X701500D02*
D03*
X681500Y319500D02*
D03*
X691500D02*
D03*
X701500D02*
D03*
X681500Y309500D02*
D03*
X691500D02*
D03*
X701500D02*
D03*
D53*
X656500Y428000D02*
D03*
X662500Y306500D02*
D03*
D54*
X571000Y354500D02*
D03*
D55*
X320000Y290000D02*
D03*
X245000D02*
D03*
Y352500D02*
D03*
Y365000D02*
D03*
Y377500D02*
D03*
Y427500D02*
D03*
X320000D02*
D03*
X319750Y254250D02*
D03*
D56*
X554287Y185815D02*
D03*
X603500D02*
D03*
X554287Y205500D02*
D03*
X603500D02*
D03*
D57*
X582500Y258000D02*
D03*
Y248000D02*
D03*
Y238000D02*
D03*
D58*
X642500Y245921D02*
D03*
Y241000D02*
D03*
Y236079D02*
D03*
X630500Y245500D02*
D03*
Y240579D02*
D03*
Y235658D02*
D03*
D59*
X642500Y231157D02*
D03*
X630500Y230736D02*
D03*
D60*
X522724Y359221D02*
D03*
Y314339D02*
D03*
D61*
X528000Y348000D02*
D03*
Y370441D02*
D03*
Y303118D02*
D03*
Y325559D02*
D03*
D62*
X261595Y172492D02*
D03*
X347500Y172500D02*
D03*
X305000D02*
D03*
D63*
X255689Y201311D02*
D03*
X267500D02*
D03*
Y189500D02*
D03*
X255689D02*
D03*
X341595Y201319D02*
D03*
X353405D02*
D03*
Y189508D02*
D03*
X341595D02*
D03*
X299095Y201319D02*
D03*
X310906D02*
D03*
Y189508D02*
D03*
X299095D02*
D03*
D64*
X695405Y178130D02*
D03*
X675721D02*
D03*
D65*
X691000Y184500D02*
D03*
X673500Y288500D02*
D03*
X636500Y277000D02*
D03*
X452000Y215500D02*
D03*
X438000Y216000D02*
D03*
X584000Y303000D02*
D03*
X581000Y318500D02*
D03*
X587500Y318000D02*
D03*
X607000Y363500D02*
D03*
X593725Y332500D02*
D03*
X603500Y345000D02*
D03*
X651500Y245500D02*
D03*
X653000Y375000D02*
D03*
X648000Y376500D02*
D03*
X664000Y389500D02*
D03*
X624500Y345500D02*
D03*
X624000Y321000D02*
D03*
X642500Y259500D02*
D03*
X702500Y262500D02*
D03*
X659500Y244500D02*
D03*
X704500Y237500D02*
D03*
Y248000D02*
D03*
X646000Y422000D02*
D03*
X669500Y378500D02*
D03*
X674000Y400500D02*
D03*
X663500Y415500D02*
D03*
X628500Y382500D02*
D03*
X621000D02*
D03*
X578500Y369500D02*
D03*
X577000Y383000D02*
D03*
X579500Y390500D02*
D03*
X462500Y390965D02*
D03*
X463000Y399134D02*
D03*
X468000Y395965D02*
D03*
X459000Y363965D02*
D03*
X469500Y372965D02*
D03*
X462984Y368980D02*
D03*
X458000Y382465D02*
D03*
X418500Y403465D02*
D03*
X468000Y400965D02*
D03*
X469500Y406965D02*
D03*
X464500Y409465D02*
D03*
Y415965D02*
D03*
X678500Y244000D02*
D03*
X637000Y394500D02*
D03*
X687500Y400500D02*
D03*
X643000Y332000D02*
D03*
X638000Y331500D02*
D03*
X589500Y394000D02*
D03*
X663000Y361500D02*
D03*
D66*
X455000Y202500D02*
D03*
X441500Y203000D02*
D03*
X428000D02*
D03*
X274000Y219000D02*
D03*
X226953Y353453D02*
D03*
X227000Y409500D02*
D03*
X398000Y258965D02*
D03*
X422500Y351465D02*
D03*
X456000Y350465D02*
D03*
X486500Y411465D02*
D03*
X435500Y291965D02*
D03*
X422000D02*
D03*
X354000Y362965D02*
D03*
X379000Y381465D02*
D03*
X371685Y289965D02*
D03*
X499500Y329465D02*
D03*
Y302965D02*
D03*
X443000Y371965D02*
D03*
Y378965D02*
D03*
X379000Y399965D02*
D03*
X388500Y409465D02*
D03*
X399500Y386650D02*
D03*
X419000Y393965D02*
D03*
X400000Y434965D02*
D03*
X487000Y385965D02*
D03*
X434500Y428965D02*
D03*
X459500D02*
D03*
D67*
X498000Y234000D02*
D03*
X480000Y234500D02*
D03*
X489000Y234000D02*
D03*
X368000Y359465D02*
D03*
X412500Y371465D02*
D03*
X402000D02*
D03*
M02*
