G04 Layer_Color=8388736*
%FSLAX25Y25*%
%MOIN*%
G70*
G01*
G75*
%ADD75R,0.02165X0.05905*%
%ADD76R,0.06706X0.08280*%
%ADD77R,0.07887X0.08280*%
%ADD78R,0.21666X0.21666*%
%ADD79R,0.01457X0.03819*%
%ADD80R,0.03819X0.01457*%
%ADD81O,0.07433X0.01933*%
%ADD82R,0.07433X0.01933*%
%ADD83R,0.05603X0.04383*%
%ADD84R,0.15800X0.02800*%
%ADD85O,0.15800X0.02800*%
%ADD86R,0.10052X0.18320*%
%ADD87R,0.04934X0.08477*%
%ADD88R,0.22847X0.28753*%
%ADD89R,0.08477X0.04934*%
%ADD90R,0.28753X0.22847*%
%ADD91R,0.03950X0.04737*%
%ADD92O,0.07520X0.02205*%
%ADD93R,0.17139X0.10052*%
%ADD94R,0.15367X0.21272*%
%ADD95R,0.13398X0.11036*%
%ADD96R,0.11036X0.13398*%
%ADD97R,0.07316X0.07375*%
%ADD98R,0.07375X0.07316*%
%ADD99R,0.07493X0.04934*%
%ADD100R,0.03556X0.04343*%
%ADD101R,0.07493X0.05131*%
%ADD102R,0.04343X0.03556*%
%ADD103R,0.05131X0.07493*%
%ADD104R,0.05131X0.11036*%
%ADD105C,0.00800*%
%ADD106C,0.06509*%
%ADD107C,0.07493*%
%ADD108C,0.16548*%
%ADD109C,0.09461*%
%ADD110C,0.12611*%
%ADD111R,0.04343X0.04343*%
%ADD112C,0.04343*%
%ADD113C,0.07131*%
%ADD114C,0.07918*%
%ADD115C,0.09300*%
%ADD116C,0.06800*%
%ADD117R,0.06800X0.06800*%
%ADD118R,0.06800X0.06800*%
%ADD119C,0.06706*%
%ADD120R,0.06706X0.06706*%
%ADD121C,0.04300*%
%ADD122C,0.05800*%
%ADD123C,0.08300*%
D75*
X690677Y191500D02*
D03*
X688118D02*
D03*
X685559D02*
D03*
X683000D02*
D03*
X680441D02*
D03*
D76*
X689496Y180870D02*
D03*
X681622D02*
D03*
D77*
X672961D02*
D03*
X698158D02*
D03*
D78*
X643453Y353476D02*
D03*
D79*
X632626Y367000D02*
D03*
X634594D02*
D03*
X636563D02*
D03*
X638531D02*
D03*
X640500D02*
D03*
X642469D02*
D03*
X644437D02*
D03*
X646406D02*
D03*
X648374D02*
D03*
X650343D02*
D03*
X652311D02*
D03*
X654280D02*
D03*
Y339953D02*
D03*
X652311D02*
D03*
X650343D02*
D03*
X648374D02*
D03*
X646406D02*
D03*
X644437D02*
D03*
X642469D02*
D03*
X640500D02*
D03*
X638531D02*
D03*
X636563D02*
D03*
X634594D02*
D03*
X632626D02*
D03*
D80*
X656976Y364303D02*
D03*
Y362335D02*
D03*
Y360366D02*
D03*
Y358398D02*
D03*
Y356429D02*
D03*
Y354461D02*
D03*
Y352492D02*
D03*
Y350524D02*
D03*
Y348555D02*
D03*
Y346587D02*
D03*
Y344618D02*
D03*
Y342650D02*
D03*
X629929D02*
D03*
Y344618D02*
D03*
Y346587D02*
D03*
Y348555D02*
D03*
Y350524D02*
D03*
Y352492D02*
D03*
Y354461D02*
D03*
Y356429D02*
D03*
Y358398D02*
D03*
Y360366D02*
D03*
Y362335D02*
D03*
Y364303D02*
D03*
D81*
X675000Y265500D02*
D03*
Y263000D02*
D03*
Y260500D02*
D03*
Y258000D02*
D03*
Y255500D02*
D03*
Y253000D02*
D03*
Y250500D02*
D03*
Y248000D02*
D03*
X695500Y265500D02*
D03*
Y263000D02*
D03*
Y260500D02*
D03*
Y258000D02*
D03*
Y255500D02*
D03*
Y253000D02*
D03*
Y250500D02*
D03*
D82*
Y248000D02*
D03*
D83*
X450500Y366028D02*
D03*
Y378902D02*
D03*
D84*
X590000Y389500D02*
D03*
D85*
Y384500D02*
D03*
Y379500D02*
D03*
Y374500D02*
D03*
Y369500D02*
D03*
X610000Y389500D02*
D03*
Y384500D02*
D03*
Y379500D02*
D03*
Y374500D02*
D03*
Y369500D02*
D03*
D86*
X368000Y342787D02*
D03*
Y308142D02*
D03*
D87*
X498016Y281417D02*
D03*
X479984D02*
D03*
X456032Y340965D02*
D03*
X438000D02*
D03*
X420000D02*
D03*
X401968D02*
D03*
D88*
X489000Y253465D02*
D03*
X447016Y313012D02*
D03*
X410984D02*
D03*
D89*
X387898Y258949D02*
D03*
Y276980D02*
D03*
D90*
X359945Y267965D02*
D03*
D91*
X531500Y198500D02*
D03*
X527760Y207949D02*
D03*
X535240D02*
D03*
X656760Y414949D02*
D03*
X660500Y405500D02*
D03*
X653020D02*
D03*
X670240Y414949D02*
D03*
X673980Y405500D02*
D03*
X666500D02*
D03*
X683740Y414949D02*
D03*
X687480Y405500D02*
D03*
X680000D02*
D03*
D92*
X427614Y417039D02*
D03*
Y414480D02*
D03*
Y411921D02*
D03*
Y409362D02*
D03*
Y406803D02*
D03*
Y404244D02*
D03*
Y401685D02*
D03*
Y399126D02*
D03*
Y396567D02*
D03*
Y394008D02*
D03*
Y391449D02*
D03*
Y388890D02*
D03*
X454386Y417039D02*
D03*
Y414480D02*
D03*
Y411921D02*
D03*
Y409362D02*
D03*
Y406803D02*
D03*
Y404244D02*
D03*
Y401685D02*
D03*
Y399126D02*
D03*
Y396567D02*
D03*
Y394008D02*
D03*
Y391449D02*
D03*
Y388890D02*
D03*
D93*
X262161Y254500D02*
D03*
X294839D02*
D03*
D94*
X415618Y261465D02*
D03*
X455382D02*
D03*
D95*
X477500Y317618D02*
D03*
Y345965D02*
D03*
D96*
X359500Y232965D02*
D03*
X387846D02*
D03*
D97*
X532500Y189000D02*
D03*
X517421D02*
D03*
X503500Y422465D02*
D03*
X488421D02*
D03*
D98*
X500000Y393465D02*
D03*
Y378386D02*
D03*
D99*
X412500Y362575D02*
D03*
Y351354D02*
D03*
X402000Y362575D02*
D03*
Y351354D02*
D03*
D100*
X657500Y374500D02*
D03*
X663406D02*
D03*
X427547Y436465D02*
D03*
X433453D02*
D03*
X397047Y409465D02*
D03*
X402953D02*
D03*
X397047Y420465D02*
D03*
X402953D02*
D03*
X597000Y358000D02*
D03*
X591094D02*
D03*
X617453Y337500D02*
D03*
X611547D02*
D03*
X597000Y352000D02*
D03*
X591094D02*
D03*
X649047Y240500D02*
D03*
X654953D02*
D03*
X540547Y213500D02*
D03*
X546453D02*
D03*
X528547D02*
D03*
X534453D02*
D03*
D101*
X631000Y331815D02*
D03*
Y321185D02*
D03*
X711500Y247815D02*
D03*
Y237185D02*
D03*
X697500Y227870D02*
D03*
Y238500D02*
D03*
X671000Y227370D02*
D03*
Y238000D02*
D03*
X410000Y403279D02*
D03*
Y392650D02*
D03*
X477000Y422280D02*
D03*
Y411650D02*
D03*
X226815Y416870D02*
D03*
Y427500D02*
D03*
X487000Y393650D02*
D03*
Y404280D02*
D03*
X469500Y389280D02*
D03*
Y378650D02*
D03*
X410500Y409650D02*
D03*
Y420280D02*
D03*
X390500Y385650D02*
D03*
Y396280D02*
D03*
X499500Y321280D02*
D03*
Y310650D02*
D03*
X654500Y250685D02*
D03*
Y261315D02*
D03*
X669500Y373000D02*
D03*
Y362370D02*
D03*
X646000Y400685D02*
D03*
Y411315D02*
D03*
X636500D02*
D03*
Y400685D02*
D03*
D102*
X681000Y230594D02*
D03*
X687000D02*
D03*
X681000Y236500D02*
D03*
X687000D02*
D03*
X436500Y366012D02*
D03*
Y371917D02*
D03*
X226953Y365000D02*
D03*
Y359095D02*
D03*
X400500Y403417D02*
D03*
Y397512D02*
D03*
X379000Y387512D02*
D03*
Y393417D02*
D03*
Y406012D02*
D03*
Y411917D02*
D03*
X644500Y318047D02*
D03*
Y323953D02*
D03*
X649500Y235953D02*
D03*
Y230047D02*
D03*
X650106Y318047D02*
D03*
Y323953D02*
D03*
X664000Y384953D02*
D03*
Y379047D02*
D03*
X666000Y256953D02*
D03*
Y251047D02*
D03*
D103*
X425685Y378965D02*
D03*
X436315D02*
D03*
X255185Y219000D02*
D03*
X265815D02*
D03*
X441685Y428965D02*
D03*
X452315D02*
D03*
X408685Y434965D02*
D03*
X419315D02*
D03*
X364000Y289965D02*
D03*
X353370D02*
D03*
X607815Y238500D02*
D03*
X597185D02*
D03*
X608315Y257000D02*
D03*
X597685D02*
D03*
X658315Y391500D02*
D03*
X647685D02*
D03*
X658500Y383000D02*
D03*
X647870D02*
D03*
X608370Y345000D02*
D03*
X619000D02*
D03*
D104*
X311685Y216000D02*
D03*
X322315D02*
D03*
D105*
X671779Y180870D02*
D03*
X699339D02*
D03*
X635500Y185039D02*
D03*
X393500Y185000D02*
D03*
X353500Y433000D02*
D03*
D106*
X675716Y191500D02*
D03*
X695402D02*
D03*
D107*
X299095Y189508D02*
D03*
X310906D02*
D03*
Y201319D02*
D03*
X299095D02*
D03*
X341595Y189508D02*
D03*
X353405D02*
D03*
Y201319D02*
D03*
X341595D02*
D03*
X255689Y189500D02*
D03*
X267500D02*
D03*
Y201311D02*
D03*
X255689D02*
D03*
D108*
X305000Y172500D02*
D03*
X347500D02*
D03*
X261595Y172492D02*
D03*
D109*
X528000Y325559D02*
D03*
Y303118D02*
D03*
Y370441D02*
D03*
Y348000D02*
D03*
D110*
X522724Y314339D02*
D03*
Y359221D02*
D03*
D111*
X630500Y230736D02*
D03*
X642500Y231157D02*
D03*
D112*
X630500Y235658D02*
D03*
Y240579D02*
D03*
Y245500D02*
D03*
X642500Y236079D02*
D03*
Y241000D02*
D03*
Y245921D02*
D03*
D113*
X582500Y238000D02*
D03*
Y248000D02*
D03*
Y258000D02*
D03*
D114*
X603500Y205500D02*
D03*
X554287D02*
D03*
X603500Y185815D02*
D03*
X554287D02*
D03*
D115*
X320000Y427500D02*
D03*
X245000D02*
D03*
Y377500D02*
D03*
Y365000D02*
D03*
Y352500D02*
D03*
Y290000D02*
D03*
X320000D02*
D03*
X319750Y254250D02*
D03*
D116*
X701500Y309500D02*
D03*
X691500D02*
D03*
X681500D02*
D03*
X701500Y319500D02*
D03*
X691500D02*
D03*
X681500D02*
D03*
X701500Y329500D02*
D03*
X691500D02*
D03*
X681500D02*
D03*
X701500Y339500D02*
D03*
X691500D02*
D03*
X681500D02*
D03*
X701500Y349500D02*
D03*
X691500D02*
D03*
X681500D02*
D03*
X701500Y359500D02*
D03*
X691500D02*
D03*
X681500D02*
D03*
X701500Y369500D02*
D03*
X691500D02*
D03*
X681500D02*
D03*
Y379500D02*
D03*
X691500D02*
D03*
X701500D02*
D03*
X617000Y425000D02*
D03*
Y415000D02*
D03*
Y405000D02*
D03*
X607000Y425000D02*
D03*
Y415000D02*
D03*
Y405000D02*
D03*
X597000Y425000D02*
D03*
Y415000D02*
D03*
Y405000D02*
D03*
X587000Y425000D02*
D03*
Y415000D02*
D03*
Y405000D02*
D03*
X577000Y425000D02*
D03*
Y415000D02*
D03*
Y405000D02*
D03*
X567000Y425000D02*
D03*
Y415000D02*
D03*
Y405000D02*
D03*
X557000Y425000D02*
D03*
Y415000D02*
D03*
Y405000D02*
D03*
X547000D02*
D03*
Y415000D02*
D03*
Y425000D02*
D03*
X652500Y306500D02*
D03*
X642500D02*
D03*
X632500D02*
D03*
X571000Y344500D02*
D03*
Y334500D02*
D03*
Y324500D02*
D03*
X666500Y428000D02*
D03*
X676500D02*
D03*
X686500D02*
D03*
D117*
X662500Y306500D02*
D03*
X656500Y428000D02*
D03*
D118*
X571000Y354500D02*
D03*
D119*
X520000Y176000D02*
D03*
D120*
X530000D02*
D03*
D121*
X663000Y361500D02*
D03*
X589500Y394000D02*
D03*
X638000Y331500D02*
D03*
X643000Y332000D02*
D03*
X687500Y400500D02*
D03*
X614500Y261000D02*
D03*
X637000Y394500D02*
D03*
X690500Y199000D02*
D03*
X678500Y244000D02*
D03*
X464500Y415965D02*
D03*
Y409465D02*
D03*
X469500Y406965D02*
D03*
X468000Y400965D02*
D03*
X418500Y403465D02*
D03*
X458000Y382465D02*
D03*
X462984Y368980D02*
D03*
X469500Y372965D02*
D03*
X459000Y363965D02*
D03*
X468000Y395965D02*
D03*
X463000Y399134D02*
D03*
X462500Y390965D02*
D03*
X597000Y345000D02*
D03*
X579500Y390500D02*
D03*
X577000Y383000D02*
D03*
X578500Y369500D02*
D03*
X621000Y382500D02*
D03*
X628500D02*
D03*
X663500Y415500D02*
D03*
X674000Y400500D02*
D03*
X669500Y378500D02*
D03*
X646000Y422000D02*
D03*
X704500Y248000D02*
D03*
Y237500D02*
D03*
X659500Y244500D02*
D03*
X702500Y262500D02*
D03*
X642500Y259500D02*
D03*
X624000Y321000D02*
D03*
X659500Y278500D02*
D03*
X636500D02*
D03*
X624500Y345500D02*
D03*
X664000Y389500D02*
D03*
X648000Y376500D02*
D03*
X653000Y375000D02*
D03*
X651500Y245500D02*
D03*
D122*
X459500Y428965D02*
D03*
X434500D02*
D03*
X487000Y385965D02*
D03*
X400000Y434965D02*
D03*
X419000Y393965D02*
D03*
X399500Y386650D02*
D03*
X388500Y409465D02*
D03*
X379000Y399965D02*
D03*
X443000Y378965D02*
D03*
Y371965D02*
D03*
X499500Y302965D02*
D03*
Y329465D02*
D03*
X371685Y289965D02*
D03*
X379000Y381465D02*
D03*
X354000Y362965D02*
D03*
X422000Y291965D02*
D03*
X435500D02*
D03*
X486500Y411465D02*
D03*
X456000Y350465D02*
D03*
X422500Y351465D02*
D03*
X398000Y258965D02*
D03*
X227000Y409500D02*
D03*
X226953Y353453D02*
D03*
X274000Y219000D02*
D03*
D123*
X402000Y371465D02*
D03*
X412500D02*
D03*
X368000Y359465D02*
D03*
X489000Y234000D02*
D03*
X480000Y234500D02*
D03*
X498000Y234000D02*
D03*
X521000Y210500D02*
D03*
M02*
