G04 Layer_Color=65535*
%FSLAX25Y25*%
%MOIN*%
G70*
G01*
G75*
%ADD40C,0.01000*%
%ADD67C,0.00197*%
%ADD68C,0.00984*%
%ADD69C,0.02362*%
%ADD70C,0.00500*%
%ADD71C,0.00787*%
%ADD72C,0.00600*%
%ADD73C,0.00492*%
%ADD74C,0.00394*%
D40*
X685875Y246750D02*
G03*
X684625Y246750I-625J0D01*
G01*
X598750Y392000D02*
G03*
X601250Y392000I1250J0D01*
G01*
X688500Y246750D02*
Y266750D01*
X682000D02*
X688500D01*
X682000Y246750D02*
Y266750D01*
Y246750D02*
X684625D01*
X685875D02*
X688500D01*
X598750Y392000D02*
X601000D01*
X599000D02*
X601250D01*
X599000Y367000D02*
Y392000D01*
Y367000D02*
X601000D01*
Y392000D01*
X556910Y225165D02*
X590374D01*
X556910D02*
Y270835D01*
X590374Y225165D02*
Y270835D01*
X556910D02*
X590374D01*
X555272Y219280D02*
X602516D01*
X555272Y172035D02*
X602516D01*
X555272D02*
Y181583D01*
X555272Y190047D02*
Y201268D01*
Y209732D02*
Y219280D01*
X602516Y209732D02*
Y219280D01*
Y172035D02*
Y181583D01*
Y190047D02*
Y201268D01*
X236000Y436500D02*
X329000D01*
Y281200D02*
Y436500D01*
X236000Y281200D02*
X329000D01*
X236000D02*
Y436500D01*
X489803Y317717D02*
Y345866D01*
X465197Y317717D02*
Y345866D01*
X470118D01*
X484882D02*
X489803D01*
X465197Y317717D02*
X470118D01*
X484882D02*
X489803D01*
X359598Y220661D02*
X387748D01*
X359598Y245268D02*
X387748D01*
Y240347D02*
Y245268D01*
Y220661D02*
Y225583D01*
X359598Y240347D02*
Y245268D01*
Y220661D02*
Y225583D01*
X534016Y193291D02*
Y194709D01*
X515906Y193291D02*
Y194709D01*
Y183291D02*
Y184709D01*
X534016Y183291D02*
Y184709D01*
X515906Y194709D02*
X534016D01*
X515906Y183291D02*
X534016D01*
X505016Y426756D02*
Y428173D01*
X486905Y426756D02*
Y428173D01*
Y416756D02*
Y418173D01*
X505016Y416756D02*
Y418173D01*
X486905Y428173D02*
X505016D01*
X486905Y416756D02*
X505016D01*
X494291Y394980D02*
X495709D01*
X494291Y376870D02*
X495709D01*
X504291D02*
X505709D01*
X504291Y394980D02*
X505709D01*
X494291Y376870D02*
Y394980D01*
X505709Y376870D02*
Y394980D01*
X670000Y203798D02*
Y198800D01*
X671000Y197800D01*
X672999D01*
X673999Y198800D01*
Y203798D01*
X679997D02*
X675998D01*
Y200799D01*
X677997Y201799D01*
X678997D01*
X679997Y200799D01*
Y198800D01*
X678997Y197800D01*
X676998D01*
X675998Y198800D01*
X672300Y276298D02*
Y271300D01*
X673300Y270300D01*
X675299D01*
X676299Y271300D01*
Y276298D01*
X681297Y270300D02*
Y276298D01*
X678298Y273299D01*
X682297D01*
X481037Y328248D02*
X475039D01*
X477039D01*
X481037Y324249D01*
X478038Y327248D01*
X475039Y324249D01*
Y339272D02*
X479038D01*
X481037Y337272D01*
X479038Y335273D01*
X475039D01*
X478038D01*
Y339272D01*
X370130Y229427D02*
Y235425D01*
Y233426D01*
X366131Y229427D01*
X369130Y232426D01*
X366131Y235425D01*
X381153D02*
Y231427D01*
X379154Y229427D01*
X377155Y231427D01*
Y235425D01*
Y232426D01*
X381153D01*
X232499Y199998D02*
X228500D01*
Y196999D01*
X230499Y197999D01*
X231499D01*
X232499Y196999D01*
Y195000D01*
X231499Y194000D01*
X229500D01*
X228500Y195000D01*
X234498Y199998D02*
Y195999D01*
X236497Y194000D01*
X238497Y195999D01*
Y199998D01*
X285000Y216498D02*
Y212499D01*
X286999Y210500D01*
X288999Y212499D01*
Y216498D01*
X290998D02*
Y210500D01*
X293997D01*
X294997Y211500D01*
Y212499D01*
X293997Y213499D01*
X290998D01*
X293997D01*
X294997Y214499D01*
Y215498D01*
X293997Y216498D01*
X290998D01*
X297996Y214499D02*
X299995D01*
X300995Y213499D01*
Y210500D01*
X297996D01*
X296996Y211500D01*
X297996Y212499D01*
X300995D01*
X303994Y215498D02*
Y214499D01*
X302994D01*
X304994D01*
X303994D01*
Y211500D01*
X304994Y210500D01*
X334500Y209500D02*
X336499D01*
X335500D01*
Y215498D01*
X334500Y214498D01*
X343497Y209500D02*
X339498D01*
X343497Y213499D01*
Y214498D01*
X342497Y215498D01*
X340498D01*
X339498Y214498D01*
X345496Y215498D02*
Y211499D01*
X347496Y209500D01*
X349495Y211499D01*
Y215498D01*
D67*
X628115Y366035D02*
G03*
X628115Y366035I-56J0D01*
G01*
X628314Y366075D02*
G03*
X628314Y366075I-176J0D01*
G01*
X628289D02*
G03*
X628289Y366075I-230J0D01*
G01*
X628492D02*
G03*
X628492Y366075I-394J0D01*
G01*
D68*
X446425Y366028D02*
G03*
X446425Y366028I-492J0D01*
G01*
X502740Y281417D02*
G03*
X502740Y281417I-492J0D01*
G01*
X460756Y340965D02*
G03*
X460756Y340965I-492J0D01*
G01*
X424724D02*
G03*
X424724Y340965I-492J0D01*
G01*
X388390Y254716D02*
G03*
X388390Y254716I-492J0D01*
G01*
X428106Y420090D02*
G03*
X428106Y420090I-492J0D01*
G01*
D69*
X437850Y415760D02*
G03*
X437850Y415760I-1181J0D01*
G01*
D70*
X657232Y339697D02*
Y340878D01*
X656051Y339697D02*
X657232D01*
X656051Y367256D02*
X657232D01*
Y366075D02*
Y367256D01*
X629673Y339697D02*
X630854D01*
X629673D02*
Y340878D01*
Y366075D02*
Y367256D01*
X630854D01*
X246099Y447500D02*
X244100D01*
X243100Y446500D01*
X244100Y445501D01*
X246099D01*
Y444501D02*
Y443501D01*
Y444001D01*
X243100D01*
Y444501D01*
Y443501D01*
Y442002D02*
X246099D01*
X243100Y440002D01*
X246099D01*
D71*
X447350Y369394D02*
X453650D01*
X447350D02*
Y375535D01*
X453650Y369394D02*
Y375535D01*
X447350D02*
X453650D01*
X388669Y312817D02*
Y346134D01*
X373807D02*
X388669D01*
X347331D02*
X362193D01*
X347331Y312817D02*
Y346134D01*
X373807Y304795D02*
X380648D01*
X388669Y312817D01*
X347331D02*
X355352Y304795D01*
X362193D01*
X502189Y269016D02*
Y269606D01*
X475811D02*
X502189D01*
X475811Y269016D02*
Y269606D01*
X460205Y328563D02*
Y329153D01*
X433827D02*
X460205D01*
X433827Y328563D02*
Y329153D01*
X424173Y328563D02*
Y329153D01*
X397795D02*
X424173D01*
X397795Y328563D02*
Y329153D01*
X375496Y254776D02*
X376087D01*
Y281153D01*
X375496D02*
X376087D01*
X627500Y301500D02*
Y311500D01*
X667500D01*
X627500Y301500D02*
X667500D01*
Y311500D01*
X566000Y319500D02*
X576000D01*
X566000D02*
Y359500D01*
X576000Y319500D02*
Y359500D01*
X566000D02*
X576000D01*
X691500Y423000D02*
Y433000D01*
X651500Y423000D02*
X691500D01*
X651500Y433000D02*
X691500D01*
X651500Y423000D02*
Y433000D01*
X432732Y386232D02*
Y419697D01*
X449268Y386232D02*
Y419697D01*
X432732D02*
X449268D01*
X432732Y386232D02*
X449268D01*
X259799Y260307D02*
Y266951D01*
X267624Y274776D01*
X259799Y242049D02*
X267624Y234224D01*
X259799Y242049D02*
Y248693D01*
X267624Y274776D02*
X297201D01*
Y260307D02*
Y274776D01*
Y234224D02*
Y248693D01*
X267624Y234224D02*
X297201D01*
X410106Y273276D02*
Y286858D01*
X460894Y273276D02*
Y286858D01*
X410106Y236071D02*
Y249654D01*
X460894Y236071D02*
Y249654D01*
X410106Y286858D02*
X460894D01*
X410106Y236071D02*
X460894D01*
X415453Y354996D02*
Y358933D01*
X409547Y354996D02*
Y358933D01*
X404953Y354996D02*
Y358933D01*
X399047Y354996D02*
Y358933D01*
X659665Y375878D02*
X661240D01*
X659665Y373122D02*
X661240D01*
X633953Y324925D02*
Y328075D01*
X628047Y324925D02*
Y328075D01*
X714453Y240925D02*
Y244075D01*
X708547Y240925D02*
Y244075D01*
X694547Y231610D02*
Y234760D01*
X700453Y231610D02*
Y234760D01*
X668047Y231110D02*
Y234260D01*
X673953Y231110D02*
Y234260D01*
X685622Y232760D02*
Y234335D01*
X688378Y232760D02*
Y234335D01*
X682378Y232760D02*
Y234335D01*
X679622Y232760D02*
Y234335D01*
X412953Y396390D02*
Y399539D01*
X407047Y396390D02*
Y399539D01*
X429425Y381917D02*
X432575D01*
X429425Y376012D02*
X432575D01*
X435122Y368177D02*
Y369752D01*
X437878Y368177D02*
Y369752D01*
X479953Y415390D02*
Y418539D01*
X474047Y415390D02*
Y418539D01*
X228331Y361260D02*
Y362835D01*
X225575Y361260D02*
Y362835D01*
X223862Y420610D02*
Y423760D01*
X229768Y420610D02*
Y423760D01*
X258925Y221953D02*
X262075D01*
X258925Y216047D02*
X262075D01*
X445425Y431917D02*
X448575D01*
X445425Y426012D02*
X448575D01*
X429713Y437843D02*
X431287D01*
X429713Y435087D02*
X431287D01*
X484047Y397390D02*
Y400539D01*
X489953Y397390D02*
Y400539D01*
X472453Y382390D02*
Y385539D01*
X466547Y382390D02*
Y385539D01*
X412425Y437917D02*
X415575D01*
X412425Y432012D02*
X415575D01*
X407547Y413390D02*
Y416539D01*
X413453Y413390D02*
Y416539D01*
X399213Y410843D02*
X400787D01*
X399213Y408087D02*
X400787D01*
X399213Y421842D02*
X400787D01*
X399213Y419087D02*
X400787D01*
X401878Y399677D02*
Y401252D01*
X399122Y399677D02*
Y401252D01*
X387547Y389390D02*
Y392539D01*
X393453Y389390D02*
Y392539D01*
X377622Y389677D02*
Y391252D01*
X380378Y389677D02*
Y391252D01*
X377622Y408177D02*
Y409752D01*
X380378Y408177D02*
Y409752D01*
X502453Y314390D02*
Y317539D01*
X496547Y314390D02*
Y317539D01*
X357110Y287012D02*
X360260D01*
X357110Y292917D02*
X360260D01*
X600925Y235547D02*
X604075D01*
X600925Y241453D02*
X604075D01*
X601425Y254047D02*
X604575D01*
X601425Y259953D02*
X604575D01*
X651547Y254425D02*
Y257575D01*
X657453Y254425D02*
Y257575D01*
X651425Y388547D02*
X654575D01*
X651425Y394453D02*
X654575D01*
X651610Y380047D02*
X654760D01*
X651610Y385953D02*
X654760D01*
X672453Y366110D02*
Y369260D01*
X666547Y366110D02*
Y369260D01*
X612110Y347953D02*
X615260D01*
X612110Y342047D02*
X615260D01*
X593260Y356622D02*
X594835D01*
X593260Y359378D02*
X594835D01*
X613713Y336122D02*
X615287D01*
X613713Y338878D02*
X615287D01*
X593260Y350622D02*
X594835D01*
X593260Y353378D02*
X594835D01*
X643122Y320213D02*
Y321787D01*
X645878Y320213D02*
Y321787D01*
X650878Y232213D02*
Y233787D01*
X648122Y232213D02*
Y233787D01*
X651213Y241878D02*
X652787D01*
X651213Y239122D02*
X652787D01*
X648728Y320213D02*
Y321787D01*
X651484Y320213D02*
Y321787D01*
X665378Y381213D02*
Y382787D01*
X662622Y381213D02*
Y382787D01*
X643047Y404425D02*
Y407575D01*
X648953Y404425D02*
Y407575D01*
X639453Y404425D02*
Y407575D01*
X633547Y404425D02*
Y407575D01*
X515000Y171000D02*
X535000D01*
Y181000D01*
X515000D02*
X535000D01*
X515000Y171000D02*
Y181000D01*
X542713Y214878D02*
X544287D01*
X542713Y212122D02*
X544287D01*
X530713Y214878D02*
X532287D01*
X530713Y212122D02*
X532287D01*
X315425Y220724D02*
X318575D01*
X315425Y211276D02*
X318575D01*
X667378Y253213D02*
Y254787D01*
X664622Y253213D02*
Y254787D01*
D72*
X630000Y374199D02*
Y371533D01*
X630533Y371000D01*
X631600D01*
X632133Y371533D01*
Y374199D01*
X633199Y371000D02*
X634265D01*
X633732D01*
Y374199D01*
X633199Y373666D01*
X544200Y431000D02*
Y434199D01*
X545799D01*
X546333Y433666D01*
Y432599D01*
X545799Y432066D01*
X544200D01*
X549532Y434199D02*
X548465Y433666D01*
X547399Y432599D01*
Y431533D01*
X547932Y431000D01*
X548998D01*
X549532Y431533D01*
Y432066D01*
X548998Y432599D01*
X547399D01*
X439500Y397663D02*
Y394998D01*
X440033Y394465D01*
X441100D01*
X441633Y394998D01*
Y397663D01*
X442699Y397130D02*
X443232Y397663D01*
X444298D01*
X444832Y397130D01*
Y396597D01*
X444298Y396064D01*
X443765D01*
X444298D01*
X444832Y395531D01*
Y394998D01*
X444298Y394465D01*
X443232D01*
X442699Y394998D01*
X368500Y407465D02*
Y410664D01*
X370099D01*
X370633Y410130D01*
Y409064D01*
X370099Y408531D01*
X368500D01*
X369566D02*
X370633Y407465D01*
X373832D02*
X371699D01*
X373832Y409597D01*
Y410130D01*
X373299Y410664D01*
X372232D01*
X371699Y410130D01*
X374898Y407465D02*
X375964D01*
X375431D01*
Y410664D01*
X374898Y410130D01*
X367000Y388465D02*
Y391664D01*
X368600D01*
X369133Y391130D01*
Y390064D01*
X368600Y389531D01*
X367000D01*
X368066D02*
X369133Y388465D01*
X372332D02*
X370199D01*
X372332Y390597D01*
Y391130D01*
X371798Y391664D01*
X370732D01*
X370199Y391130D01*
X373398D02*
X373931Y391664D01*
X374997D01*
X375531Y391130D01*
Y388998D01*
X374997Y388465D01*
X373931D01*
X373398Y388998D01*
Y391130D01*
X385500Y418965D02*
Y422163D01*
X387100D01*
X387633Y421630D01*
Y420564D01*
X387100Y420031D01*
X385500D01*
X386566D02*
X387633Y418965D01*
X388699D02*
X389765D01*
X389232D01*
Y422163D01*
X388699Y421630D01*
X391365D02*
X391898Y422163D01*
X392964D01*
X393497Y421630D01*
Y421097D01*
X392964Y420564D01*
X393497Y420031D01*
Y419498D01*
X392964Y418965D01*
X391898D01*
X391365Y419498D01*
Y420031D01*
X391898Y420564D01*
X391365Y421097D01*
Y421630D01*
X391898Y420564D02*
X392964D01*
X388000Y360465D02*
Y363664D01*
X389599D01*
X390133Y363130D01*
Y362064D01*
X389599Y361531D01*
X388000D01*
X389066D02*
X390133Y360465D01*
X391199D02*
X392265D01*
X391732D01*
Y363664D01*
X391199Y363130D01*
X393865Y363664D02*
X395997D01*
Y363130D01*
X393865Y360998D01*
Y360465D01*
X418500Y354965D02*
Y358163D01*
X420099D01*
X420633Y357630D01*
Y356564D01*
X420099Y356031D01*
X418500D01*
X419566D02*
X420633Y354965D01*
X421699D02*
X422765D01*
X422232D01*
Y358163D01*
X421699Y357630D01*
X426497Y358163D02*
X425431Y357630D01*
X424365Y356564D01*
Y355498D01*
X424898Y354965D01*
X425964D01*
X426497Y355498D01*
Y356031D01*
X425964Y356564D01*
X424365D01*
X396000Y413000D02*
Y416199D01*
X397600D01*
X398133Y415666D01*
Y414600D01*
X397600Y414066D01*
X396000D01*
X397066D02*
X398133Y413000D01*
X399199D02*
X400265D01*
X399732D01*
Y416199D01*
X399199Y415666D01*
X403997Y416199D02*
X401865D01*
Y414600D01*
X402931Y415133D01*
X403464D01*
X403997Y414600D01*
Y413533D01*
X403464Y413000D01*
X402398D01*
X401865Y413533D01*
X437000Y434965D02*
Y438164D01*
X438599D01*
X439133Y437630D01*
Y436564D01*
X438599Y436031D01*
X437000D01*
X438066D02*
X439133Y434965D01*
X440199D02*
X441265D01*
X440732D01*
Y438164D01*
X440199Y437630D01*
X444464Y434965D02*
Y438164D01*
X442865Y436564D01*
X444997D01*
X425000Y367465D02*
Y370663D01*
X426600D01*
X427133Y370130D01*
Y369064D01*
X426600Y368531D01*
X425000D01*
X426066D02*
X427133Y367465D01*
X428199D02*
X429265D01*
X428732D01*
Y370663D01*
X428199Y370130D01*
X430865D02*
X431398Y370663D01*
X432464D01*
X432997Y370130D01*
Y369597D01*
X432464Y369064D01*
X431931D01*
X432464D01*
X432997Y368531D01*
Y367998D01*
X432464Y367465D01*
X431398D01*
X430865Y367998D01*
X396500Y391465D02*
Y394664D01*
X398099D01*
X398633Y394130D01*
Y393064D01*
X398099Y392531D01*
X396500D01*
X397566D02*
X398633Y391465D01*
X399699D02*
X400765D01*
X400232D01*
Y394664D01*
X399699Y394130D01*
X404497Y391465D02*
X402365D01*
X404497Y393597D01*
Y394130D01*
X403964Y394664D01*
X402898D01*
X402365Y394130D01*
X344633Y282533D02*
Y284666D01*
X344099Y285199D01*
X343033D01*
X342500Y284666D01*
Y282533D01*
X343033Y282000D01*
X344099D01*
X343566Y283066D02*
X344633Y282000D01*
X344099D02*
X344633Y282533D01*
X345699Y284666D02*
X346232Y285199D01*
X347299D01*
X347832Y284666D01*
Y284133D01*
X347299Y283599D01*
X347832Y283066D01*
Y282533D01*
X347299Y282000D01*
X346232D01*
X345699Y282533D01*
Y283066D01*
X346232Y283599D01*
X345699Y284133D01*
Y284666D01*
X346232Y283599D02*
X347299D01*
X410633Y338498D02*
Y340630D01*
X410100Y341163D01*
X409033D01*
X408500Y340630D01*
Y338498D01*
X409033Y337965D01*
X410100D01*
X409566Y339031D02*
X410633Y337965D01*
X410100D02*
X410633Y338498D01*
X411699Y341163D02*
X413832D01*
Y340630D01*
X411699Y338498D01*
Y337965D01*
X446133Y348998D02*
Y351130D01*
X445600Y351663D01*
X444533D01*
X444000Y351130D01*
Y348998D01*
X444533Y348465D01*
X445600D01*
X445066Y349531D02*
X446133Y348465D01*
X445600D02*
X446133Y348998D01*
X449332Y351663D02*
X448265Y351130D01*
X447199Y350064D01*
Y348998D01*
X447732Y348465D01*
X448798D01*
X449332Y348998D01*
Y349531D01*
X448798Y350064D01*
X447199D01*
X476333Y290498D02*
Y292630D01*
X475800Y293163D01*
X474733D01*
X474200Y292630D01*
Y290498D01*
X474733Y289965D01*
X475800D01*
X475266Y291031D02*
X476333Y289965D01*
X475800D02*
X476333Y290498D01*
X479532Y293163D02*
X477399D01*
Y291564D01*
X478465Y292097D01*
X478998D01*
X479532Y291564D01*
Y290498D01*
X478998Y289965D01*
X477932D01*
X477399Y290498D01*
X346500Y246663D02*
Y243465D01*
X348099D01*
X348633Y243998D01*
Y246130D01*
X348099Y246663D01*
X346500D01*
X349699Y243465D02*
X350765D01*
X350232D01*
Y246663D01*
X349699Y246130D01*
X352365D02*
X352898Y246663D01*
X353964D01*
X354497Y246130D01*
Y243998D01*
X353964Y243465D01*
X352898D01*
X352365Y243998D01*
Y246130D01*
X465300Y357263D02*
Y354065D01*
X466899D01*
X467433Y354598D01*
Y356730D01*
X466899Y357263D01*
X465300D01*
X468499Y354598D02*
X469032Y354065D01*
X470098D01*
X470632Y354598D01*
Y356730D01*
X470098Y357263D01*
X469032D01*
X468499Y356730D01*
Y356197D01*
X469032Y355664D01*
X470632D01*
X448000Y362163D02*
Y358965D01*
X449600D01*
X450133Y359498D01*
Y361630D01*
X449600Y362163D01*
X448000D01*
X451199Y361630D02*
X451732Y362163D01*
X452798D01*
X453332Y361630D01*
Y361097D01*
X452798Y360564D01*
X453332Y360031D01*
Y359498D01*
X452798Y358965D01*
X451732D01*
X451199Y359498D01*
Y360031D01*
X451732Y360564D01*
X451199Y361097D01*
Y361630D01*
X451732Y360564D02*
X452798D01*
X487500Y381849D02*
Y378650D01*
X489100D01*
X489633Y379183D01*
Y381315D01*
X489100Y381849D01*
X487500D01*
X490699D02*
X492832D01*
Y381315D01*
X490699Y379183D01*
Y378650D01*
X485400Y434464D02*
Y431265D01*
X487000D01*
X487533Y431798D01*
Y433930D01*
X487000Y434464D01*
X485400D01*
X490732D02*
X489665Y433930D01*
X488599Y432864D01*
Y431798D01*
X489132Y431265D01*
X490198D01*
X490732Y431798D01*
Y432331D01*
X490198Y432864D01*
X488599D01*
X350633Y353630D02*
X350099Y354164D01*
X349033D01*
X348500Y353630D01*
Y351498D01*
X349033Y350965D01*
X350099D01*
X350633Y351498D01*
X353832Y350965D02*
X351699D01*
X353832Y353097D01*
Y353630D01*
X353298Y354164D01*
X352232D01*
X351699Y353630D01*
X356497Y350965D02*
Y354164D01*
X354898Y352564D01*
X357031D01*
X342633Y292630D02*
X342099Y293163D01*
X341033D01*
X340500Y292630D01*
Y290498D01*
X341033Y289965D01*
X342099D01*
X342633Y290498D01*
X345832Y289965D02*
X343699D01*
X345832Y292097D01*
Y292630D01*
X345299Y293163D01*
X344232D01*
X343699Y292630D01*
X346898D02*
X347431Y293163D01*
X348497D01*
X349031Y292630D01*
Y292097D01*
X348497Y291564D01*
X347964D01*
X348497D01*
X349031Y291031D01*
Y290498D01*
X348497Y289965D01*
X347431D01*
X346898Y290498D01*
X458633Y378630D02*
X458100Y379164D01*
X457033D01*
X456500Y378630D01*
Y376498D01*
X457033Y375965D01*
X458100D01*
X458633Y376498D01*
X461832Y375965D02*
X459699D01*
X461832Y378097D01*
Y378630D01*
X461298Y379164D01*
X460232D01*
X459699Y378630D01*
X465031Y375965D02*
X462898D01*
X465031Y378097D01*
Y378630D01*
X464497Y379164D01*
X463431D01*
X462898Y378630D01*
X408633Y426666D02*
X408100Y427199D01*
X407033D01*
X406500Y426666D01*
Y424533D01*
X407033Y424000D01*
X408100D01*
X408633Y424533D01*
X411832Y424000D02*
X409699D01*
X411832Y426133D01*
Y426666D01*
X411298Y427199D01*
X410232D01*
X409699Y426666D01*
X412898Y424000D02*
X413964D01*
X413431D01*
Y427199D01*
X412898Y426666D01*
X475833Y430330D02*
X475300Y430864D01*
X474233D01*
X473700Y430330D01*
Y428198D01*
X474233Y427665D01*
X475300D01*
X475833Y428198D01*
X479032Y427665D02*
X476899D01*
X479032Y429797D01*
Y430330D01*
X478498Y430864D01*
X477432D01*
X476899Y430330D01*
X480098D02*
X480631Y430864D01*
X481697D01*
X482231Y430330D01*
Y428198D01*
X481697Y427665D01*
X480631D01*
X480098Y428198D01*
Y430330D01*
X416133Y381130D02*
X415599Y381663D01*
X414533D01*
X414000Y381130D01*
Y378998D01*
X414533Y378465D01*
X415599D01*
X416133Y378998D01*
X417199Y378465D02*
X418265D01*
X417732D01*
Y381663D01*
X417199Y381130D01*
X419865Y378998D02*
X420398Y378465D01*
X421464D01*
X421997Y378998D01*
Y381130D01*
X421464Y381663D01*
X420398D01*
X419865Y381130D01*
Y380597D01*
X420398Y380064D01*
X421997D01*
X417133Y429666D02*
X416600Y430199D01*
X415533D01*
X415000Y429666D01*
Y427533D01*
X415533Y427000D01*
X416600D01*
X417133Y427533D01*
X418199Y427000D02*
X419265D01*
X418732D01*
Y430199D01*
X418199Y429666D01*
X420865D02*
X421398Y430199D01*
X422464D01*
X422997Y429666D01*
Y429133D01*
X422464Y428600D01*
X422997Y428066D01*
Y427533D01*
X422464Y427000D01*
X421398D01*
X420865Y427533D01*
Y428066D01*
X421398Y428600D01*
X420865Y429133D01*
Y429666D01*
X421398Y428600D02*
X422464D01*
X495133Y406130D02*
X494599Y406664D01*
X493533D01*
X493000Y406130D01*
Y403998D01*
X493533Y403465D01*
X494599D01*
X495133Y403998D01*
X496199Y403465D02*
X497265D01*
X496732D01*
Y406664D01*
X496199Y406130D01*
X498865Y406664D02*
X500997D01*
Y406130D01*
X498865Y403998D01*
Y403465D01*
X408133Y388130D02*
X407599Y388664D01*
X406533D01*
X406000Y388130D01*
Y385998D01*
X406533Y385465D01*
X407599D01*
X408133Y385998D01*
X409199Y385465D02*
X410265D01*
X409732D01*
Y388664D01*
X409199Y388130D01*
X413997Y388664D02*
X412931Y388130D01*
X411865Y387064D01*
Y385998D01*
X412398Y385465D01*
X413464D01*
X413997Y385998D01*
Y386531D01*
X413464Y387064D01*
X411865D01*
X388633Y403630D02*
X388100Y404164D01*
X387033D01*
X386500Y403630D01*
Y401498D01*
X387033Y400965D01*
X388100D01*
X388633Y401498D01*
X389699Y400965D02*
X390765D01*
X390232D01*
Y404164D01*
X389699Y403630D01*
X394497Y404164D02*
X392365D01*
Y402564D01*
X393431Y403097D01*
X393964D01*
X394497Y402564D01*
Y401498D01*
X393964Y400965D01*
X392898D01*
X392365Y401498D01*
X451133Y437130D02*
X450599Y437664D01*
X449533D01*
X449000Y437130D01*
Y434998D01*
X449533Y434465D01*
X450599D01*
X451133Y434998D01*
X452199Y434465D02*
X453265D01*
X452732D01*
Y437664D01*
X452199Y437130D01*
X456464Y434465D02*
Y437664D01*
X454865Y436064D01*
X456997D01*
X498133Y298130D02*
X497600Y298663D01*
X496533D01*
X496000Y298130D01*
Y295998D01*
X496533Y295465D01*
X497600D01*
X498133Y295998D01*
X499199Y295465D02*
X500265D01*
X499732D01*
Y298663D01*
X499199Y298130D01*
X501865D02*
X502398Y298663D01*
X503464D01*
X503997Y298130D01*
Y297597D01*
X503464Y297064D01*
X502931D01*
X503464D01*
X503997Y296531D01*
Y295998D01*
X503464Y295465D01*
X502398D01*
X501865Y295998D01*
X278133Y201699D02*
X277066D01*
X277600D01*
Y199033D01*
X277066Y198500D01*
X276533D01*
X276000Y199033D01*
X279199Y198500D02*
X280265D01*
X279732D01*
Y201699D01*
X279199Y201166D01*
X331133Y201199D02*
X330066D01*
X330599D01*
Y198533D01*
X330066Y198000D01*
X329533D01*
X329000Y198533D01*
X334332Y198000D02*
X332199D01*
X334332Y200133D01*
Y200666D01*
X333799Y201199D01*
X332732D01*
X332199Y200666D01*
X225200Y369600D02*
Y372799D01*
X226800D01*
X227333Y372266D01*
Y371199D01*
X226800Y370666D01*
X225200D01*
X226266D02*
X227333Y369600D01*
X228399D02*
X229465D01*
X228932D01*
Y372799D01*
X228399Y372266D01*
X255500Y444199D02*
Y441533D01*
X256033Y441000D01*
X257100D01*
X257633Y441533D01*
Y444199D01*
X260832Y441000D02*
X258699D01*
X260832Y443133D01*
Y443666D01*
X260298Y444199D01*
X259232D01*
X258699Y443666D01*
X225633Y435566D02*
X225099Y436099D01*
X224033D01*
X223500Y435566D01*
Y433433D01*
X224033Y432900D01*
X225099D01*
X225633Y433433D01*
X226699Y432900D02*
X227765D01*
X227232D01*
Y436099D01*
X226699Y435566D01*
X255133Y213166D02*
X254599Y213699D01*
X253533D01*
X253000Y213166D01*
Y211033D01*
X253533Y210500D01*
X254599D01*
X255133Y211033D01*
X258332Y210500D02*
X256199D01*
X258332Y212633D01*
Y213166D01*
X257799Y213699D01*
X256732D01*
X256199Y213166D01*
X407900Y293763D02*
Y290565D01*
X410033D01*
X411099D02*
X412165D01*
X411632D01*
Y293763D01*
X411099Y293230D01*
X307133Y267166D02*
X306599Y267699D01*
X305533D01*
X305000Y267166D01*
Y265033D01*
X305533Y264500D01*
X306599D01*
X307133Y265033D01*
X308199Y267166D02*
X308732Y267699D01*
X309799D01*
X310332Y267166D01*
Y266633D01*
X309799Y266100D01*
X309265D01*
X309799D01*
X310332Y265566D01*
Y265033D01*
X309799Y264500D01*
X308732D01*
X308199Y265033D01*
X550887Y225614D02*
Y222415D01*
X552487D01*
X553020Y222948D01*
Y223481D01*
X552487Y224014D01*
X550887D01*
X552487D01*
X553020Y224548D01*
Y225081D01*
X552487Y225614D01*
X550887D01*
X554086Y222415D02*
X555153D01*
X554620D01*
Y225614D01*
X554086Y225081D01*
X641633Y384166D02*
X641100Y384699D01*
X640033D01*
X639500Y384166D01*
Y382033D01*
X640033Y381500D01*
X641100D01*
X641633Y382033D01*
X644298Y381500D02*
Y384699D01*
X642699Y383100D01*
X644832D01*
X601633Y346166D02*
X601099Y346699D01*
X600033D01*
X599500Y346166D01*
Y344033D01*
X600033Y343500D01*
X601099D01*
X601633Y344033D01*
X604832Y346699D02*
X602699D01*
Y345099D01*
X603765Y345633D01*
X604298D01*
X604832Y345099D01*
Y344033D01*
X604298Y343500D01*
X603232D01*
X602699Y344033D01*
X668948Y358166D02*
X668414Y358699D01*
X667348D01*
X666815Y358166D01*
Y356033D01*
X667348Y355500D01*
X668414D01*
X668948Y356033D01*
X672147Y358699D02*
X671080Y358166D01*
X670014Y357100D01*
Y356033D01*
X670547Y355500D01*
X671613D01*
X672147Y356033D01*
Y356566D01*
X671613Y357100D01*
X670014D01*
X641633Y392166D02*
X641100Y392699D01*
X640033D01*
X639500Y392166D01*
Y390033D01*
X640033Y389500D01*
X641100D01*
X641633Y390033D01*
X642699Y392699D02*
X644832D01*
Y392166D01*
X642699Y390033D01*
Y389500D01*
X635633Y418666D02*
X635100Y419199D01*
X634033D01*
X633500Y418666D01*
Y416533D01*
X634033Y416000D01*
X635100D01*
X635633Y416533D01*
X636699Y418666D02*
X637232Y419199D01*
X638298D01*
X638832Y418666D01*
Y418133D01*
X638298Y417599D01*
X638832Y417066D01*
Y416533D01*
X638298Y416000D01*
X637232D01*
X636699Y416533D01*
Y417066D01*
X637232Y417599D01*
X636699Y418133D01*
Y418666D01*
X637232Y417599D02*
X638298D01*
X645133Y418666D02*
X644599Y419199D01*
X643533D01*
X643000Y418666D01*
Y416533D01*
X643533Y416000D01*
X644599D01*
X645133Y416533D01*
X646199D02*
X646732Y416000D01*
X647798D01*
X648332Y416533D01*
Y418666D01*
X647798Y419199D01*
X646732D01*
X646199Y418666D01*
Y418133D01*
X646732Y417599D01*
X648332D01*
X629133Y317666D02*
X628600Y318199D01*
X627533D01*
X627000Y317666D01*
Y315533D01*
X627533Y315000D01*
X628600D01*
X629133Y315533D01*
X630199Y315000D02*
X631265D01*
X630732D01*
Y318199D01*
X630199Y317666D01*
X632865D02*
X633398Y318199D01*
X634464D01*
X634997Y317666D01*
Y315533D01*
X634464Y315000D01*
X633398D01*
X632865Y315533D01*
Y317666D01*
X653333Y269366D02*
X652800Y269899D01*
X651733D01*
X651200Y269366D01*
Y267233D01*
X651733Y266700D01*
X652800D01*
X653333Y267233D01*
X654399Y266700D02*
X655465D01*
X654932D01*
Y269899D01*
X654399Y269366D01*
X657065Y266700D02*
X658131D01*
X657598D01*
Y269899D01*
X657065Y269366D01*
X695633Y224166D02*
X695099Y224699D01*
X694033D01*
X693500Y224166D01*
Y222033D01*
X694033Y221500D01*
X695099D01*
X695633Y222033D01*
X696699Y221500D02*
X697765D01*
X697232D01*
Y224699D01*
X696699Y224166D01*
X701497Y221500D02*
X699365D01*
X701497Y223633D01*
Y224166D01*
X700964Y224699D01*
X699898D01*
X699365Y224166D01*
X659633Y234166D02*
X659099Y234699D01*
X658033D01*
X657500Y234166D01*
Y232033D01*
X658033Y231500D01*
X659099D01*
X659633Y232033D01*
X662832Y231500D02*
X660699D01*
X662832Y233633D01*
Y234166D01*
X662298Y234699D01*
X661232D01*
X660699Y234166D01*
X666031Y234699D02*
X663898D01*
Y233100D01*
X664964Y233633D01*
X665497D01*
X666031Y233100D01*
Y232033D01*
X665497Y231500D01*
X664431D01*
X663898Y232033D01*
X708133Y232666D02*
X707599Y233199D01*
X706533D01*
X706000Y232666D01*
Y230533D01*
X706533Y230000D01*
X707599D01*
X708133Y230533D01*
X711332Y230000D02*
X709199D01*
X711332Y232133D01*
Y232666D01*
X710798Y233199D01*
X709732D01*
X709199Y232666D01*
X714531Y233199D02*
X713464Y232666D01*
X712398Y231599D01*
Y230533D01*
X712931Y230000D01*
X713997D01*
X714531Y230533D01*
Y231066D01*
X713997Y231599D01*
X712398D01*
X597133Y247666D02*
X596599Y248199D01*
X595533D01*
X595000Y247666D01*
Y245533D01*
X595533Y245000D01*
X596599D01*
X597133Y245533D01*
X600332Y245000D02*
X598199D01*
X600332Y247133D01*
Y247666D01*
X599798Y248199D01*
X598732D01*
X598199Y247666D01*
X601398Y248199D02*
X603531D01*
Y247666D01*
X601398Y245533D01*
Y245000D01*
X597633Y266166D02*
X597099Y266699D01*
X596033D01*
X595500Y266166D01*
Y264033D01*
X596033Y263500D01*
X597099D01*
X597633Y264033D01*
X600832Y263500D02*
X598699D01*
X600832Y265633D01*
Y266166D01*
X600298Y266699D01*
X599232D01*
X598699Y266166D01*
X601898D02*
X602431Y266699D01*
X603497D01*
X604031Y266166D01*
Y265633D01*
X603497Y265100D01*
X604031Y264566D01*
Y264033D01*
X603497Y263500D01*
X602431D01*
X601898Y264033D01*
Y264566D01*
X602431Y265100D01*
X601898Y265633D01*
Y266166D01*
X602431Y265100D02*
X603497D01*
X651700Y439199D02*
Y436000D01*
X653300D01*
X653833Y436533D01*
Y438666D01*
X653300Y439199D01*
X651700D01*
X654899Y436000D02*
X655965D01*
X655432D01*
Y439199D01*
X654899Y438666D01*
X511300Y392179D02*
Y395378D01*
X512899D01*
X513433Y394845D01*
Y393779D01*
X512899Y393246D01*
X511300D01*
X514499Y392179D02*
X515565D01*
X515032D01*
Y395378D01*
X514499Y394845D01*
X566200Y362500D02*
Y365699D01*
X567800D01*
X568333Y365166D01*
Y364100D01*
X567800Y363566D01*
X566200D01*
X571532Y362500D02*
X569399D01*
X571532Y364633D01*
Y365166D01*
X570998Y365699D01*
X569932D01*
X569399Y365166D01*
X639500Y251000D02*
Y254199D01*
X641100D01*
X641633Y253666D01*
Y252600D01*
X641100Y252066D01*
X639500D01*
X642699Y253666D02*
X643232Y254199D01*
X644298D01*
X644832Y253666D01*
Y253133D01*
X644298Y252600D01*
X643765D01*
X644298D01*
X644832Y252066D01*
Y251533D01*
X644298Y251000D01*
X643232D01*
X642699Y251533D01*
X699000Y383500D02*
Y386699D01*
X700599D01*
X701133Y386166D01*
Y385100D01*
X700599Y384566D01*
X699000D01*
X703798Y383500D02*
Y386699D01*
X702199Y385100D01*
X704332D01*
X627500Y251000D02*
Y254199D01*
X629100D01*
X629633Y253666D01*
Y252600D01*
X629100Y252066D01*
X627500D01*
X632832Y254199D02*
X630699D01*
Y252600D01*
X631765Y253133D01*
X632298D01*
X632832Y252600D01*
Y251533D01*
X632298Y251000D01*
X631232D01*
X630699Y251533D01*
X627500Y297000D02*
Y300199D01*
X629100D01*
X629633Y299666D01*
Y298600D01*
X629100Y298066D01*
X627500D01*
X630699Y300199D02*
X632832D01*
Y299666D01*
X630699Y297533D01*
Y297000D01*
X597000Y394000D02*
Y397199D01*
X598599D01*
X599133Y396666D01*
Y395600D01*
X598599Y395066D01*
X597000D01*
X600199Y396666D02*
X600732Y397199D01*
X601798D01*
X602332Y396666D01*
Y396133D01*
X601798Y395600D01*
X602332Y395066D01*
Y394533D01*
X601798Y394000D01*
X600732D01*
X600199Y394533D01*
Y395066D01*
X600732Y395600D01*
X600199Y396133D01*
Y396666D01*
X600732Y395600D02*
X601798D01*
X681373Y418482D02*
Y420615D01*
X680840Y421148D01*
X679773D01*
X679240Y420615D01*
Y418482D01*
X679773Y417949D01*
X680840D01*
X680306Y419015D02*
X681373Y417949D01*
X680840D02*
X681373Y418482D01*
X682439Y417949D02*
X683505D01*
X682972D01*
Y421148D01*
X682439Y420615D01*
X667633Y418533D02*
Y420666D01*
X667100Y421199D01*
X666033D01*
X665500Y420666D01*
Y418533D01*
X666033Y418000D01*
X667100D01*
X666566Y419066D02*
X667633Y418000D01*
X667100D02*
X667633Y418533D01*
X670832Y418000D02*
X668699D01*
X670832Y420133D01*
Y420666D01*
X670298Y421199D01*
X669232D01*
X668699Y420666D01*
X583000Y356500D02*
Y359699D01*
X584599D01*
X585133Y359166D01*
Y358100D01*
X584599Y357566D01*
X583000D01*
X584066D02*
X585133Y356500D01*
X588332D02*
X586199D01*
X588332Y358633D01*
Y359166D01*
X587798Y359699D01*
X586732D01*
X586199Y359166D01*
X583047Y350500D02*
Y353699D01*
X584647D01*
X585180Y353166D01*
Y352099D01*
X584647Y351566D01*
X583047D01*
X584114D02*
X585180Y350500D01*
X586246Y353166D02*
X586779Y353699D01*
X587846D01*
X588379Y353166D01*
Y352633D01*
X587846Y352099D01*
X587313D01*
X587846D01*
X588379Y351566D01*
Y351033D01*
X587846Y350500D01*
X586779D01*
X586246Y351033D01*
X636500Y322000D02*
Y325199D01*
X638099D01*
X638633Y324666D01*
Y323600D01*
X638099Y323066D01*
X636500D01*
X637566D02*
X638633Y322000D01*
X641298D02*
Y325199D01*
X639699Y323600D01*
X641832D01*
X648606Y327000D02*
Y330199D01*
X650206D01*
X650739Y329666D01*
Y328600D01*
X650206Y328066D01*
X648606D01*
X649673D02*
X650739Y327000D01*
X653938Y330199D02*
X651805D01*
Y328600D01*
X652872Y329133D01*
X653405D01*
X653938Y328600D01*
Y327533D01*
X653405Y327000D01*
X652338D01*
X651805Y327533D01*
X652500Y226500D02*
Y229699D01*
X654100D01*
X654633Y229166D01*
Y228099D01*
X654100Y227566D01*
X652500D01*
X653566D02*
X654633Y226500D01*
X657832Y229699D02*
X656765Y229166D01*
X655699Y228099D01*
Y227033D01*
X656232Y226500D01*
X657298D01*
X657832Y227033D01*
Y227566D01*
X657298Y228099D01*
X655699D01*
X657500Y238000D02*
Y241199D01*
X659099D01*
X659633Y240666D01*
Y239599D01*
X659099Y239066D01*
X657500D01*
X658566D02*
X659633Y238000D01*
X660699Y241199D02*
X662832D01*
Y240666D01*
X660699Y238533D01*
Y238000D01*
X667000Y383500D02*
Y386699D01*
X668600D01*
X669133Y386166D01*
Y385100D01*
X668600Y384566D01*
X667000D01*
X668066D02*
X669133Y383500D01*
X670199Y386166D02*
X670732Y386699D01*
X671798D01*
X672332Y386166D01*
Y385633D01*
X671798Y385100D01*
X672332Y384566D01*
Y384033D01*
X671798Y383500D01*
X670732D01*
X670199Y384033D01*
Y384566D01*
X670732Y385100D01*
X670199Y385633D01*
Y386166D01*
X670732Y385100D02*
X671798D01*
X659000Y368000D02*
Y371199D01*
X660600D01*
X661133Y370666D01*
Y369600D01*
X660600Y369066D01*
X659000D01*
X660066D02*
X661133Y368000D01*
X662199Y368533D02*
X662732Y368000D01*
X663798D01*
X664332Y368533D01*
Y370666D01*
X663798Y371199D01*
X662732D01*
X662199Y370666D01*
Y370133D01*
X662732Y369600D01*
X664332D01*
X600500Y336000D02*
Y339199D01*
X602100D01*
X602633Y338666D01*
Y337599D01*
X602100Y337066D01*
X600500D01*
X601566D02*
X602633Y336000D01*
X603699D02*
X604765D01*
X604232D01*
Y339199D01*
X603699Y338666D01*
X606365D02*
X606898Y339199D01*
X607964D01*
X608497Y338666D01*
Y336533D01*
X607964Y336000D01*
X606898D01*
X606365Y336533D01*
Y338666D01*
X662500Y260000D02*
Y263199D01*
X664100D01*
X664633Y262666D01*
Y261599D01*
X664100Y261066D01*
X662500D01*
X663566D02*
X664633Y260000D01*
X665699D02*
X666765D01*
X666232D01*
Y263199D01*
X665699Y262666D01*
X668365Y260000D02*
X669431D01*
X668898D01*
Y263199D01*
X668365Y262666D01*
X677500Y225000D02*
Y228199D01*
X679100D01*
X679633Y227666D01*
Y226600D01*
X679100Y226066D01*
X677500D01*
X678566D02*
X679633Y225000D01*
X680699D02*
X681765D01*
X681232D01*
Y228199D01*
X680699Y227666D01*
X683365Y225533D02*
X683898Y225000D01*
X684964D01*
X685497Y225533D01*
Y227666D01*
X684964Y228199D01*
X683898D01*
X683365Y227666D01*
Y227133D01*
X683898Y226600D01*
X685497D01*
X684500Y239500D02*
Y242699D01*
X686099D01*
X686633Y242166D01*
Y241100D01*
X686099Y240566D01*
X684500D01*
X685566D02*
X686633Y239500D01*
X689832D02*
X687699D01*
X689832Y241633D01*
Y242166D01*
X689298Y242699D01*
X688232D01*
X687699Y242166D01*
X693031Y239500D02*
X690898D01*
X693031Y241633D01*
Y242166D01*
X692497Y242699D01*
X691431D01*
X690898Y242166D01*
X557000Y277099D02*
Y274433D01*
X557533Y273900D01*
X558600D01*
X559133Y274433D01*
Y277099D01*
X562332D02*
X561265Y276566D01*
X560199Y275500D01*
Y274433D01*
X560732Y273900D01*
X561798D01*
X562332Y274433D01*
Y274966D01*
X561798Y275500D01*
X560199D01*
X654892Y418982D02*
Y421115D01*
X654359Y421648D01*
X653293D01*
X652760Y421115D01*
Y418982D01*
X653293Y418449D01*
X654359D01*
X653826Y419515D02*
X654892Y418449D01*
X654359D02*
X654892Y418982D01*
X655959Y421115D02*
X656492Y421648D01*
X657558D01*
X658091Y421115D01*
Y420581D01*
X657558Y420048D01*
X657025D01*
X657558D01*
X658091Y419515D01*
Y418982D01*
X657558Y418449D01*
X656492D01*
X655959Y418982D01*
X538000Y190699D02*
Y187500D01*
X539600D01*
X540133Y188033D01*
Y190166D01*
X539600Y190699D01*
X538000D01*
X543332Y187500D02*
X541199D01*
X543332Y189633D01*
Y190166D01*
X542798Y190699D01*
X541732D01*
X541199Y190166D01*
X290133Y201699D02*
X289066D01*
X289599D01*
Y199033D01*
X289066Y198500D01*
X288533D01*
X288000Y199033D01*
X291199Y201166D02*
X291732Y201699D01*
X292798D01*
X293332Y201166D01*
Y200633D01*
X292798Y200099D01*
X292265D01*
X292798D01*
X293332Y199566D01*
Y199033D01*
X292798Y198500D01*
X291732D01*
X291199Y199033D01*
X537500Y174500D02*
Y177699D01*
X539100D01*
X539633Y177166D01*
Y176100D01*
X539100Y175566D01*
X537500D01*
X540699Y175033D02*
X541232Y174500D01*
X542298D01*
X542832Y175033D01*
Y177166D01*
X542298Y177699D01*
X541232D01*
X540699Y177166D01*
Y176633D01*
X541232Y176100D01*
X542832D01*
X541133Y206533D02*
Y208666D01*
X540599Y209199D01*
X539533D01*
X539000Y208666D01*
Y206533D01*
X539533Y206000D01*
X540599D01*
X540066Y207066D02*
X541133Y206000D01*
X540599D02*
X541133Y206533D01*
X543798Y206000D02*
Y209199D01*
X542199Y207599D01*
X544332D01*
X539500Y217000D02*
Y220199D01*
X541100D01*
X541633Y219666D01*
Y218600D01*
X541100Y218066D01*
X539500D01*
X540566D02*
X541633Y217000D01*
X544832D02*
X542699D01*
X544832Y219133D01*
Y219666D01*
X544298Y220199D01*
X543232D01*
X542699Y219666D01*
X545898D02*
X546431Y220199D01*
X547497D01*
X548031Y219666D01*
Y219133D01*
X547497Y218600D01*
X546964D01*
X547497D01*
X548031Y218066D01*
Y217533D01*
X547497Y217000D01*
X546431D01*
X545898Y217533D01*
X527000Y217000D02*
Y220199D01*
X528600D01*
X529133Y219666D01*
Y218600D01*
X528600Y218066D01*
X527000D01*
X528066D02*
X529133Y217000D01*
X532332D02*
X530199D01*
X532332Y219133D01*
Y219666D01*
X531798Y220199D01*
X530732D01*
X530199Y219666D01*
X534997Y217000D02*
Y220199D01*
X533398Y218600D01*
X535531D01*
X311633Y225666D02*
X311100Y226199D01*
X310033D01*
X309500Y225666D01*
Y223533D01*
X310033Y223000D01*
X311100D01*
X311633Y223533D01*
X314832Y223000D02*
X312699D01*
X314832Y225133D01*
Y225666D01*
X314299Y226199D01*
X313232D01*
X312699Y225666D01*
X315898Y223533D02*
X316431Y223000D01*
X317497D01*
X318031Y223533D01*
Y225666D01*
X317497Y226199D01*
X316431D01*
X315898Y225666D01*
Y225133D01*
X316431Y224600D01*
X318031D01*
X424500Y199000D02*
Y202199D01*
X425566Y201133D01*
X426633Y202199D01*
Y199000D01*
X427699D02*
X428765D01*
X428232D01*
Y201133D01*
X427699D01*
X430365Y199000D02*
Y201133D01*
X431964D01*
X432497Y200600D01*
Y199000D01*
X433564D02*
X434630D01*
X434097D01*
Y201133D01*
X433564D01*
X438362Y201666D02*
X437829Y202199D01*
X436763D01*
X436230Y201666D01*
Y201133D01*
X436763Y200600D01*
X437829D01*
X438362Y200066D01*
Y199533D01*
X437829Y199000D01*
X436763D01*
X436230Y199533D01*
X439429Y201133D02*
Y199533D01*
X439962Y199000D01*
X441561D01*
Y201133D01*
X442627Y202199D02*
Y199000D01*
X444227D01*
X444760Y199533D01*
Y200066D01*
Y200600D01*
X444227Y201133D01*
X442627D01*
X449025Y199000D02*
Y202199D01*
X450625D01*
X451158Y201666D01*
Y200600D01*
X450625Y200066D01*
X449025D01*
X452758Y199000D02*
X453824D01*
X454357Y199533D01*
Y200600D01*
X453824Y201133D01*
X452758D01*
X452224Y200600D01*
Y199533D01*
X452758Y199000D01*
X455423Y201133D02*
Y199533D01*
X455957Y199000D01*
X456490Y199533D01*
X457023Y199000D01*
X457556Y199533D01*
Y201133D01*
X460222Y199000D02*
X459156D01*
X458622Y199533D01*
Y200600D01*
X459156Y201133D01*
X460222D01*
X460755Y200600D01*
Y200066D01*
X458622D01*
X461821Y201133D02*
Y199000D01*
Y200066D01*
X462355Y200600D01*
X462888Y201133D01*
X463421D01*
X468219Y202199D02*
Y199000D01*
X469819D01*
X470352Y199533D01*
Y200066D01*
X469819Y200600D01*
X468219D01*
X469819D01*
X470352Y201133D01*
Y201666D01*
X469819Y202199D01*
X468219D01*
X471951Y199000D02*
X473018D01*
X473551Y199533D01*
Y200600D01*
X473018Y201133D01*
X471951D01*
X471418Y200600D01*
Y199533D01*
X471951Y199000D01*
X475150Y201133D02*
X476217D01*
X476750Y200600D01*
Y199000D01*
X475150D01*
X474617Y199533D01*
X475150Y200066D01*
X476750D01*
X477816Y201133D02*
Y199000D01*
Y200066D01*
X478349Y200600D01*
X478883Y201133D01*
X479416D01*
X483148Y202199D02*
Y199000D01*
X481548D01*
X481015Y199533D01*
Y200600D01*
X481548Y201133D01*
X483148D01*
X487413Y199000D02*
Y202199D01*
X489012D01*
X489546Y201666D01*
Y200600D01*
X489012Y200066D01*
X487413D01*
X488479D02*
X489546Y199000D01*
X492211D02*
X491145D01*
X490612Y199533D01*
Y200600D01*
X491145Y201133D01*
X492211D01*
X492745Y200600D01*
Y200066D01*
X490612D01*
X493811Y201133D02*
X494877Y199000D01*
X495944Y201133D01*
X502342Y199000D02*
X500209D01*
X502342Y201133D01*
Y201666D01*
X501808Y202199D01*
X500742D01*
X500209Y201666D01*
X426633Y208666D02*
X426099Y209199D01*
X425033D01*
X424500Y208666D01*
Y206533D01*
X425033Y206000D01*
X426099D01*
X426633Y206533D01*
X427699Y209199D02*
Y206533D01*
X428232Y206000D01*
X429298D01*
X429832Y206533D01*
Y209199D01*
X434097D02*
Y206000D01*
X435696D01*
X436230Y206533D01*
Y207066D01*
X435696Y207599D01*
X434097D01*
X435696D01*
X436230Y208133D01*
Y208666D01*
X435696Y209199D01*
X434097D01*
X437829Y206000D02*
X438895D01*
X439429Y206533D01*
Y207599D01*
X438895Y208133D01*
X437829D01*
X437296Y207599D01*
Y206533D01*
X437829Y206000D01*
X440495Y208133D02*
Y206533D01*
X441028Y206000D01*
X442627D01*
Y208133D01*
X443694Y206000D02*
X444760D01*
X444227D01*
Y209199D01*
X443694D01*
X448492D02*
Y206000D01*
X446893D01*
X446360Y206533D01*
Y207599D01*
X446893Y208133D01*
X448492D01*
X451158Y206000D02*
X450092D01*
X449559Y206533D01*
Y207599D01*
X450092Y208133D01*
X451158D01*
X451691Y207599D01*
Y207066D01*
X449559D01*
X452758Y208133D02*
Y206000D01*
Y207066D01*
X453291Y207599D01*
X453824Y208133D01*
X454357D01*
X459156Y206000D02*
Y209199D01*
X460755D01*
X461288Y208666D01*
Y207599D01*
X460755Y207066D01*
X459156D01*
X460222D02*
X461288Y206000D01*
X462888D02*
X463954D01*
X464487Y206533D01*
Y207599D01*
X463954Y208133D01*
X462888D01*
X462355Y207599D01*
Y206533D01*
X462888Y206000D01*
X465553Y209199D02*
Y206000D01*
X467153D01*
X467686Y206533D01*
Y207066D01*
Y207599D01*
X467153Y208133D01*
X465553D01*
X469286Y206000D02*
X470352D01*
X470885Y206533D01*
Y207599D01*
X470352Y208133D01*
X469286D01*
X468752Y207599D01*
Y206533D01*
X469286Y206000D01*
X474084Y208666D02*
X473551Y209199D01*
X472484D01*
X471951Y208666D01*
Y208133D01*
X472484Y207599D01*
X473551D01*
X474084Y207066D01*
Y206533D01*
X473551Y206000D01*
X472484D01*
X471951Y206533D01*
X475150Y208133D02*
Y206533D01*
X475683Y206000D01*
X477283D01*
Y208133D01*
X478349Y209199D02*
Y206000D01*
X479949D01*
X480482Y206533D01*
Y207066D01*
Y207599D01*
X479949Y208133D01*
X478349D01*
X625500Y226699D02*
X626566D01*
X626033D01*
Y223500D01*
X625500D01*
X626566D01*
X630298D02*
X628166D01*
X630298Y225633D01*
Y226166D01*
X629765Y226699D01*
X628699D01*
X628166Y226166D01*
X633497D02*
X632964Y226699D01*
X631898D01*
X631365Y226166D01*
Y224033D01*
X631898Y223500D01*
X632964D01*
X633497Y224033D01*
X634564Y222967D02*
X636696D01*
X637763Y226699D02*
Y223500D01*
X639362D01*
X639895Y224033D01*
Y224566D01*
X639362Y225099D01*
X637763D01*
X639362D01*
X639895Y225633D01*
Y226166D01*
X639362Y226699D01*
X637763D01*
X640962D02*
Y224033D01*
X641495Y223500D01*
X642561D01*
X643094Y224033D01*
Y226699D01*
X646293Y226166D02*
X645760Y226699D01*
X644694D01*
X644161Y226166D01*
Y225633D01*
X644694Y225099D01*
X645760D01*
X646293Y224566D01*
Y224033D01*
X645760Y223500D01*
X644694D01*
X644161Y224033D01*
X619633Y241666D02*
X619100Y242199D01*
X618033D01*
X617500Y241666D01*
Y241133D01*
X618033Y240599D01*
X619100D01*
X619633Y240066D01*
Y239533D01*
X619100Y239000D01*
X618033D01*
X617500Y239533D01*
X622832Y241666D02*
X622298Y242199D01*
X621232D01*
X620699Y241666D01*
Y239533D01*
X621232Y239000D01*
X622298D01*
X622832Y239533D01*
X623898Y242199D02*
Y239000D01*
X626031D01*
X619633Y236666D02*
X619100Y237199D01*
X618033D01*
X617500Y236666D01*
Y236133D01*
X618033Y235599D01*
X619100D01*
X619633Y235066D01*
Y234533D01*
X619100Y234000D01*
X618033D01*
X617500Y234533D01*
X620699Y237199D02*
Y234000D01*
X622298D01*
X622832Y234533D01*
Y236666D01*
X622298Y237199D01*
X620699D01*
X623898Y234000D02*
Y236133D01*
X624964Y237199D01*
X626031Y236133D01*
Y234000D01*
Y235599D01*
X623898D01*
X637000Y297000D02*
Y300199D01*
X638599D01*
X639133Y299666D01*
Y298600D01*
X638599Y298066D01*
X637000D01*
X640199Y297000D02*
Y300199D01*
X642332Y297000D01*
Y300199D01*
X645531D02*
X643398D01*
Y297000D01*
X645531D01*
X643398Y298600D02*
X644464D01*
X646597Y300199D02*
Y297533D01*
X647130Y297000D01*
X648196D01*
X648730Y297533D01*
Y300199D01*
X649796Y297000D02*
Y300199D01*
X650862Y299133D01*
X651929Y300199D01*
Y297000D01*
X652995D02*
Y299133D01*
X654061Y300199D01*
X655127Y299133D01*
Y297000D01*
Y298600D01*
X652995D01*
X656194Y300199D02*
X658326D01*
X657260D01*
Y297000D01*
X659393Y300199D02*
X660459D01*
X659926D01*
Y297000D01*
X659393D01*
X660459D01*
X664191Y299666D02*
X663658Y300199D01*
X662592D01*
X662059Y299666D01*
Y297533D01*
X662592Y297000D01*
X663658D01*
X664191Y297533D01*
X667390Y299666D02*
X666857Y300199D01*
X665791D01*
X665258Y299666D01*
Y299133D01*
X665791Y298600D01*
X666857D01*
X667390Y298066D01*
Y297533D01*
X666857Y297000D01*
X665791D01*
X665258Y297533D01*
X640000Y315699D02*
X642133D01*
X641066D01*
Y312500D01*
X643199Y315699D02*
X645332Y312500D01*
Y315699D02*
X643199Y312500D01*
X650000D02*
Y315699D01*
X651600D01*
X652133Y315166D01*
Y314100D01*
X651600Y313566D01*
X650000D01*
X651066D02*
X652133Y312500D01*
X653199Y315699D02*
X655332Y312500D01*
Y315699D02*
X653199Y312500D01*
X569500Y430500D02*
Y433699D01*
X570566Y432633D01*
X571633Y433699D01*
Y430500D01*
X574298Y433699D02*
X573232D01*
X572699Y433166D01*
Y431033D01*
X573232Y430500D01*
X574298D01*
X574832Y431033D01*
Y433166D01*
X574298Y433699D01*
X575898D02*
X578031D01*
X576964D01*
Y430500D01*
X580696Y433699D02*
X579630D01*
X579097Y433166D01*
Y431033D01*
X579630Y430500D01*
X580696D01*
X581230Y431033D01*
Y433166D01*
X580696Y433699D01*
X582296Y430500D02*
Y433699D01*
X583895D01*
X584429Y433166D01*
Y432099D01*
X583895Y431566D01*
X582296D01*
X583362D02*
X584429Y430500D01*
X587628Y433166D02*
X587094Y433699D01*
X586028D01*
X585495Y433166D01*
Y432633D01*
X586028Y432099D01*
X587094D01*
X587628Y431566D01*
Y431033D01*
X587094Y430500D01*
X586028D01*
X585495Y431033D01*
X685133Y302666D02*
X684599Y303199D01*
X683533D01*
X683000Y302666D01*
Y302133D01*
X683533Y301600D01*
X684599D01*
X685133Y301066D01*
Y300533D01*
X684599Y300000D01*
X683533D01*
X683000Y300533D01*
X688332Y303199D02*
X686199D01*
Y300000D01*
X688332D01*
X686199Y301600D02*
X687265D01*
X689398Y300000D02*
Y303199D01*
X690997D01*
X691531Y302666D01*
Y301600D01*
X690997Y301066D01*
X689398D01*
X690464D02*
X691531Y300000D01*
X692597Y303199D02*
Y301066D01*
X693663Y300000D01*
X694730Y301066D01*
Y303199D01*
X697395D02*
X696329D01*
X695796Y302666D01*
Y300533D01*
X696329Y300000D01*
X697395D01*
X697928Y300533D01*
Y302666D01*
X697395Y303199D01*
X701127Y302666D02*
X700594Y303199D01*
X699528D01*
X698995Y302666D01*
Y302133D01*
X699528Y301600D01*
X700594D01*
X701127Y301066D01*
Y300533D01*
X700594Y300000D01*
X699528D01*
X698995Y300533D01*
D73*
X314843Y199022D02*
X315171Y199350D01*
X315827D01*
X316154Y199022D01*
Y198694D01*
X315827Y198366D01*
X315498D01*
X315827D01*
X316154Y198038D01*
Y197710D01*
X315827Y197382D01*
X315171D01*
X314843Y197710D01*
X304015Y197382D02*
Y199350D01*
X303031Y198366D01*
X304343D01*
Y185571D02*
X303031D01*
X304343Y186883D01*
Y187211D01*
X304015Y187539D01*
X303360D01*
X303031Y187211D01*
X314843Y185571D02*
X315498D01*
X315171D01*
Y187539D01*
X314843Y187211D01*
X357343Y199022D02*
X357670Y199350D01*
X358327D01*
X358654Y199022D01*
Y198694D01*
X358327Y198366D01*
X357998D01*
X358327D01*
X358654Y198038D01*
Y197710D01*
X358327Y197382D01*
X357670D01*
X357343Y197710D01*
X346515Y197382D02*
Y199350D01*
X345532Y198366D01*
X346843D01*
Y185571D02*
X345532D01*
X346843Y186883D01*
Y187211D01*
X346515Y187539D01*
X345860D01*
X345532Y187211D01*
X357343Y185571D02*
X357998D01*
X357670D01*
Y187539D01*
X357343Y187211D01*
X271437Y199014D02*
X271765Y199342D01*
X272421D01*
X272749Y199014D01*
Y198686D01*
X272421Y198358D01*
X272093D01*
X272421D01*
X272749Y198030D01*
Y197702D01*
X272421Y197374D01*
X271765D01*
X271437Y197702D01*
X260610Y197374D02*
Y199342D01*
X259626Y198358D01*
X260938D01*
Y185563D02*
X259626D01*
X260938Y186875D01*
Y187203D01*
X260610Y187531D01*
X259954D01*
X259626Y187203D01*
X271437Y185563D02*
X272093D01*
X271765D01*
Y187531D01*
X271437Y187203D01*
D74*
X523642Y187131D02*
Y190279D01*
Y189230D01*
X521543Y187131D01*
X523117Y188705D01*
X521543Y190279D01*
X528366D02*
Y188180D01*
X527317Y187131D01*
X526267Y188180D01*
Y190279D01*
Y188705D01*
X528366D01*
X494642Y420596D02*
Y423744D01*
Y422695D01*
X492543Y420596D01*
X494117Y422170D01*
X492543Y423744D01*
X499366D02*
Y421645D01*
X498317Y420596D01*
X497267Y421645D01*
Y423744D01*
Y422170D01*
X499366D01*
X501869Y384606D02*
X498721D01*
X499770D01*
X501869Y382507D01*
X500295Y384082D01*
X498721Y382507D01*
Y389331D02*
X500819D01*
X501869Y388281D01*
X500819Y387232D01*
X498721D01*
X500295D01*
Y389331D01*
M02*
