G04 Layer_Color=8421504*
%FSLAX23Y23*%
%MOIN*%
G70*
G01*
G75*
%ADD10R,0.031X0.039*%
%ADD11R,0.066X0.065*%
%ADD12R,0.028X0.035*%
%ADD13R,0.048X0.036*%
%ADD14R,0.150X0.020*%
%ADD15O,0.150X0.020*%
%ADD16R,0.209X0.209*%
%ADD17R,0.010X0.034*%
%ADD18R,0.034X0.010*%
%ADD19R,0.047X0.138*%
%ADD20R,0.220X0.210*%
%ADD21R,0.208X0.250*%
%ADD22R,0.093X0.175*%
%ADD23R,0.151X0.485*%
%ADD24R,0.077X0.041*%
%ADD25R,0.280X0.220*%
%ADD26R,0.041X0.077*%
%ADD27R,0.220X0.280*%
%ADD28R,0.031X0.035*%
%ADD29R,0.031X0.024*%
%ADD30R,0.189X0.177*%
%ADD31R,0.030X0.051*%
%ADD32R,0.024X0.031*%
%ADD33R,0.177X0.189*%
%ADD34R,0.051X0.030*%
%ADD35R,0.053X0.016*%
%ADD36R,0.075X0.059*%
%ADD37R,0.075X0.071*%
%ADD38O,0.071X0.018*%
%ADD39R,0.283X0.220*%
%ADD40R,0.118X0.051*%
%ADD41R,0.102X0.126*%
%ADD42R,0.126X0.102*%
%ADD43R,0.239X0.108*%
%ADD44R,0.020X0.045*%
%ADD45O,0.020X0.045*%
%ADD46R,0.031X0.024*%
%ADD47O,0.015X0.070*%
%ADD48R,0.015X0.070*%
%ADD49R,0.065X0.066*%
%ADD50R,0.067X0.041*%
%ADD51R,0.035X0.028*%
%ADD52R,0.043X0.067*%
%ADD53R,0.043X0.102*%
%ADD54R,0.067X0.043*%
%ADD55R,0.102X0.047*%
%ADD56R,0.102X0.043*%
G36*
X10219Y4044D02*
X10145D01*
Y4118D01*
X10219D01*
Y4044D01*
D02*
G37*
G36*
X10115Y4044D02*
X10041D01*
Y4118D01*
X10115D01*
Y4044D01*
D02*
G37*
G36*
Y4149D02*
X10041D01*
Y4222D01*
X10115D01*
Y4149D01*
D02*
G37*
G36*
X10219Y4149D02*
Y4149D01*
X10145D01*
Y4222D01*
X10219D01*
Y4149D01*
D02*
G37*
D10*
X10575Y4490D02*
D03*
X10650D02*
D03*
X10613Y4584D02*
D03*
X10710Y4490D02*
D03*
X10785D02*
D03*
X10747Y4584D02*
D03*
X10130Y4695D02*
D03*
X10205D02*
D03*
X10167Y4789D02*
D03*
X10275Y4695D02*
D03*
X10350D02*
D03*
X10312Y4789D02*
D03*
X10420Y4695D02*
D03*
X10495D02*
D03*
X10458Y4789D02*
D03*
X10848Y4491D02*
D03*
X10922D02*
D03*
X10885Y4585D02*
D03*
D11*
X10750Y4965D02*
D03*
Y4814D02*
D03*
X10610Y4965D02*
D03*
Y4814D02*
D03*
X7000Y4536D02*
D03*
Y4385D02*
D03*
X8887Y4616D02*
D03*
Y4465D02*
D03*
X10885Y4815D02*
D03*
Y4966D02*
D03*
D12*
X9611Y4175D02*
D03*
X9670D02*
D03*
X9825Y4175D02*
D03*
X9765D02*
D03*
X9611Y4125D02*
D03*
X9670D02*
D03*
X9825D02*
D03*
X9766D02*
D03*
X9850Y3368D02*
D03*
X9909D02*
D03*
X4975Y4030D02*
D03*
X4916D02*
D03*
X4975Y4095D02*
D03*
X4916D02*
D03*
X10475Y3246D02*
D03*
X10416D02*
D03*
X10415Y3296D02*
D03*
X10474D02*
D03*
X9460Y4358D02*
D03*
X9400D02*
D03*
X9455Y4258D02*
D03*
X9395D02*
D03*
X8350Y4895D02*
D03*
X8410D02*
D03*
X8087Y4596D02*
D03*
X8028D02*
D03*
X7918Y4766D02*
D03*
X7977D02*
D03*
X7918Y4876D02*
D03*
X7977D02*
D03*
X6435Y4815D02*
D03*
X6495D02*
D03*
X6071Y4825D02*
D03*
X6130D02*
D03*
X6071Y4715D02*
D03*
X6130D02*
D03*
X5990Y4525D02*
D03*
X6050D02*
D03*
X5255Y3655D02*
D03*
X5315D02*
D03*
D13*
X6020Y4341D02*
D03*
Y4470D02*
D03*
X7777Y4466D02*
D03*
Y4595D02*
D03*
D14*
X9475Y4618D02*
D03*
D15*
Y4568D02*
D03*
Y4518D02*
D03*
Y4468D02*
D03*
Y4418D02*
D03*
X9675Y4618D02*
D03*
Y4568D02*
D03*
Y4518D02*
D03*
Y4468D02*
D03*
Y4418D02*
D03*
D16*
X10130Y4133D02*
D03*
D17*
X10022Y4268D02*
D03*
X10041D02*
D03*
X10061D02*
D03*
X10081D02*
D03*
X10100D02*
D03*
X10120D02*
D03*
X10140D02*
D03*
X10160D02*
D03*
X10179D02*
D03*
X10199D02*
D03*
X10219D02*
D03*
X10238D02*
D03*
Y3998D02*
D03*
X10219D02*
D03*
X10199D02*
D03*
X10179D02*
D03*
X10160D02*
D03*
X10140D02*
D03*
X10120D02*
D03*
X10100D02*
D03*
X10081D02*
D03*
X10061D02*
D03*
X10041D02*
D03*
X10022D02*
D03*
D18*
X10265Y4241D02*
D03*
Y4222D02*
D03*
Y4202D02*
D03*
Y4182D02*
D03*
Y4163D02*
D03*
Y4143D02*
D03*
Y4123D02*
D03*
Y4104D02*
D03*
Y4084D02*
D03*
Y4064D02*
D03*
Y4045D02*
D03*
Y4025D02*
D03*
X9995D02*
D03*
Y4045D02*
D03*
Y4064D02*
D03*
Y4084D02*
D03*
Y4104D02*
D03*
Y4123D02*
D03*
Y4143D02*
D03*
Y4163D02*
D03*
Y4182D02*
D03*
Y4202D02*
D03*
Y4222D02*
D03*
Y4241D02*
D03*
D19*
X4280Y2611D02*
D03*
Y2879D02*
D03*
X3880Y2611D02*
D03*
Y2879D02*
D03*
D20*
X4670Y3760D02*
D03*
Y4160D02*
D03*
D21*
X3801Y3960D02*
D03*
D22*
X6005Y3817D02*
D03*
Y4163D02*
D03*
X7776Y3822D02*
D03*
Y4169D02*
D03*
D23*
X6370Y3200D02*
D03*
X7010D02*
D03*
X8117Y3316D02*
D03*
X8757D02*
D03*
D24*
X6214Y3340D02*
D03*
Y3520D02*
D03*
X7946Y3320D02*
D03*
Y3501D02*
D03*
D25*
X5934Y3430D02*
D03*
X7667Y3411D02*
D03*
D26*
X6560Y4050D02*
D03*
X6380D02*
D03*
X6950Y4055D02*
D03*
X6770D02*
D03*
X7390Y3639D02*
D03*
X7210D02*
D03*
X8283Y4155D02*
D03*
X8102D02*
D03*
X8618D02*
D03*
X8437D02*
D03*
X9113Y3475D02*
D03*
X8932D02*
D03*
D27*
X6470Y3770D02*
D03*
X6860Y3775D02*
D03*
X7300Y3359D02*
D03*
X8192Y3876D02*
D03*
X8527D02*
D03*
X9022Y3196D02*
D03*
D28*
X10285Y2810D02*
D03*
X10210D02*
D03*
X10248Y2731D02*
D03*
D29*
X4609Y3062D02*
D03*
X4556D02*
D03*
X4504D02*
D03*
X4451D02*
D03*
D30*
X4530Y3160D02*
D03*
D31*
X4455Y3298D02*
D03*
X4505D02*
D03*
X4555D02*
D03*
X4605D02*
D03*
D32*
X4912Y3296D02*
D03*
Y3349D02*
D03*
Y3401D02*
D03*
Y3454D02*
D03*
D33*
X5010Y3375D02*
D03*
D34*
X5148Y3450D02*
D03*
Y3400D02*
D03*
Y3350D02*
D03*
Y3300D02*
D03*
D35*
X10799Y3331D02*
D03*
Y3305D02*
D03*
Y3279D02*
D03*
Y3254D02*
D03*
Y3228D02*
D03*
D36*
X10905Y3319D02*
D03*
Y3240D02*
D03*
D37*
Y3153D02*
D03*
Y3405D02*
D03*
D38*
X6624Y4459D02*
D03*
Y4485D02*
D03*
Y4510D02*
D03*
Y4536D02*
D03*
Y4562D02*
D03*
Y4587D02*
D03*
Y4613D02*
D03*
Y4638D02*
D03*
Y4664D02*
D03*
Y4690D02*
D03*
Y4715D02*
D03*
Y4741D02*
D03*
X6356Y4459D02*
D03*
Y4485D02*
D03*
Y4510D02*
D03*
Y4536D02*
D03*
Y4562D02*
D03*
Y4587D02*
D03*
Y4613D02*
D03*
Y4638D02*
D03*
Y4664D02*
D03*
Y4690D02*
D03*
Y4715D02*
D03*
Y4741D02*
D03*
X8528Y4545D02*
D03*
Y4571D02*
D03*
Y4596D02*
D03*
Y4622D02*
D03*
Y4648D02*
D03*
Y4673D02*
D03*
Y4699D02*
D03*
Y4724D02*
D03*
Y4750D02*
D03*
Y4776D02*
D03*
Y4801D02*
D03*
Y4827D02*
D03*
X8261Y4545D02*
D03*
Y4571D02*
D03*
Y4596D02*
D03*
Y4622D02*
D03*
Y4648D02*
D03*
Y4673D02*
D03*
Y4699D02*
D03*
Y4724D02*
D03*
Y4750D02*
D03*
Y4776D02*
D03*
Y4801D02*
D03*
Y4827D02*
D03*
D39*
X9832Y2870D02*
D03*
D40*
X10110Y2960D02*
D03*
Y2780D02*
D03*
D41*
X5932Y3130D02*
D03*
X6215D02*
D03*
X7657D02*
D03*
X7940D02*
D03*
D42*
X7180Y3775D02*
D03*
Y4058D02*
D03*
X8827Y3846D02*
D03*
Y4129D02*
D03*
D43*
X5210Y3930D02*
D03*
D44*
X5325Y4041D02*
D03*
D45*
X5299D02*
D03*
X5274D02*
D03*
X5248D02*
D03*
X5223D02*
D03*
X5197D02*
D03*
X5171D02*
D03*
X5146D02*
D03*
X5120D02*
D03*
X5095D02*
D03*
X5325Y3823D02*
D03*
X5299D02*
D03*
X5274D02*
D03*
X5248D02*
D03*
X5223D02*
D03*
X5197D02*
D03*
X5171D02*
D03*
X5146D02*
D03*
X5120D02*
D03*
X5095D02*
D03*
D46*
X5155Y3590D02*
D03*
X5253D02*
D03*
D47*
X10100Y3171D02*
D03*
X10125D02*
D03*
X10150D02*
D03*
X10175D02*
D03*
X10200D02*
D03*
X10225D02*
D03*
X10250D02*
D03*
X10275D02*
D03*
X10100Y3376D02*
D03*
X10125D02*
D03*
X10150D02*
D03*
X10175D02*
D03*
X10200D02*
D03*
X10225D02*
D03*
X10250D02*
D03*
D48*
X10275D02*
D03*
D49*
X7016Y4795D02*
D03*
X6865D02*
D03*
X8938Y4886D02*
D03*
X8787D02*
D03*
D50*
X7120Y4159D02*
D03*
Y4271D02*
D03*
X6470Y4154D02*
D03*
Y4266D02*
D03*
X8502Y4259D02*
D03*
Y4372D02*
D03*
X8402Y4259D02*
D03*
Y4372D02*
D03*
D51*
X10555Y4285D02*
D03*
Y4345D02*
D03*
X10605Y4285D02*
D03*
Y4345D02*
D03*
X5325Y4269D02*
D03*
Y4210D02*
D03*
X5005Y3875D02*
D03*
Y3815D02*
D03*
X10445Y4408D02*
D03*
Y4349D02*
D03*
X10250Y3888D02*
D03*
Y3829D02*
D03*
X10200Y3888D02*
D03*
Y3829D02*
D03*
X10395Y4408D02*
D03*
Y4349D02*
D03*
X10540Y3127D02*
D03*
Y3186D02*
D03*
X10050Y3715D02*
D03*
Y3774D02*
D03*
X10150Y3715D02*
D03*
Y3774D02*
D03*
X10215Y2910D02*
D03*
Y2970D02*
D03*
X7702Y4571D02*
D03*
Y4630D02*
D03*
X7822Y4795D02*
D03*
Y4736D02*
D03*
X7702Y4681D02*
D03*
Y4740D02*
D03*
X6215Y4580D02*
D03*
Y4520D02*
D03*
X5940Y4655D02*
D03*
Y4714D02*
D03*
Y4481D02*
D03*
Y4540D02*
D03*
D52*
X6515Y4895D02*
D03*
X6621D02*
D03*
X9817Y4058D02*
D03*
X9923D02*
D03*
X5028Y3525D02*
D03*
X4922D02*
D03*
X4897Y3945D02*
D03*
X5003D02*
D03*
X4897Y3745D02*
D03*
X5003D02*
D03*
X10443Y4228D02*
D03*
X10337D02*
D03*
X10372Y3176D02*
D03*
X10478D02*
D03*
X10306Y3071D02*
D03*
X10200D02*
D03*
X10372Y3366D02*
D03*
X10478D02*
D03*
X7751Y3636D02*
D03*
X7644D02*
D03*
X8144Y4471D02*
D03*
X8251D02*
D03*
X7974Y4691D02*
D03*
X8081D02*
D03*
X8362Y4960D02*
D03*
X8468D02*
D03*
X7864Y4581D02*
D03*
X7971D02*
D03*
X8781Y4696D02*
D03*
X8674D02*
D03*
X6104Y4645D02*
D03*
X6210D02*
D03*
X6888Y4605D02*
D03*
X6782D02*
D03*
X6109Y4455D02*
D03*
X6215D02*
D03*
X6398Y4895D02*
D03*
X6292D02*
D03*
X5947Y3635D02*
D03*
X6053D02*
D03*
X7267Y3075D02*
D03*
X7373D02*
D03*
D53*
X5563Y4065D02*
D03*
X5457D02*
D03*
X5563Y3940D02*
D03*
X5457D02*
D03*
X5563Y3815D02*
D03*
X5457D02*
D03*
D54*
X8166Y4949D02*
D03*
Y4842D02*
D03*
X10325Y4521D02*
D03*
Y4415D02*
D03*
X10240Y4521D02*
D03*
Y4415D02*
D03*
X10155D02*
D03*
Y4521D02*
D03*
X10070D02*
D03*
Y4415D02*
D03*
X5220Y4182D02*
D03*
Y4288D02*
D03*
X5410D02*
D03*
Y4182D02*
D03*
X9660Y3779D02*
D03*
Y3673D02*
D03*
Y3838D02*
D03*
Y3944D02*
D03*
X10610Y3071D02*
D03*
Y3178D02*
D03*
X9880Y3185D02*
D03*
Y3291D02*
D03*
X10365Y2803D02*
D03*
Y2697D02*
D03*
X10360Y2981D02*
D03*
Y2875D02*
D03*
X9037Y3859D02*
D03*
Y3752D02*
D03*
X8052Y4766D02*
D03*
Y4872D02*
D03*
X8662Y4574D02*
D03*
Y4467D02*
D03*
X8687Y4777D02*
D03*
Y4884D02*
D03*
X6355Y4269D02*
D03*
Y4375D02*
D03*
X6785Y4488D02*
D03*
Y4382D02*
D03*
X6770Y4692D02*
D03*
Y4798D02*
D03*
X6200Y4720D02*
D03*
Y4826D02*
D03*
D55*
X5080Y4228D02*
D03*
Y4402D02*
D03*
D56*
X3835Y3173D02*
D03*
Y3067D02*
D03*
X3960Y3173D02*
D03*
Y3067D02*
D03*
X4085Y3173D02*
D03*
Y3067D02*
D03*
X4210Y3173D02*
D03*
Y3067D02*
D03*
X4335Y3173D02*
D03*
Y3067D02*
D03*
X6995Y2715D02*
D03*
Y2821D02*
D03*
X5380Y3037D02*
D03*
Y3143D02*
D03*
M02*
