G04 Layer_Color=8421504*
%FSLAX23Y23*%
%MOIN*%
G70*
G01*
G75*
%ADD10R,0.028X0.035*%
%ADD11R,0.102X0.043*%
%ADD12R,0.043X0.067*%
%ADD13R,0.067X0.043*%
%ADD14R,0.035X0.028*%
%ADD15R,0.102X0.047*%
%ADD16R,0.043X0.102*%
%ADD17R,0.067X0.041*%
%ADD18R,0.066X0.065*%
%ADD19R,0.065X0.066*%
%ADD20R,0.015X0.070*%
%ADD21O,0.015X0.070*%
%ADD22R,0.039X0.031*%
%ADD23R,0.031X0.039*%
%ADD24R,0.031X0.024*%
%ADD25O,0.020X0.045*%
%ADD26R,0.020X0.045*%
%ADD27R,0.239X0.108*%
%ADD28R,0.126X0.102*%
%ADD29R,0.102X0.126*%
%ADD30R,0.118X0.051*%
%ADD31R,0.283X0.220*%
%ADD32O,0.071X0.018*%
%ADD33R,0.075X0.071*%
%ADD34R,0.075X0.059*%
%ADD35R,0.053X0.016*%
%ADD36R,0.051X0.030*%
%ADD37R,0.024X0.031*%
%ADD38R,0.177X0.189*%
%ADD39R,0.030X0.051*%
%ADD40R,0.031X0.024*%
%ADD41R,0.189X0.177*%
%ADD42R,0.031X0.035*%
%ADD43R,0.220X0.280*%
%ADD44R,0.041X0.077*%
%ADD45R,0.280X0.220*%
%ADD46R,0.077X0.041*%
%ADD47R,0.151X0.485*%
%ADD48R,0.093X0.175*%
%ADD49R,0.220X0.210*%
%ADD50R,0.208X0.250*%
%ADD51R,0.047X0.138*%
%ADD52R,0.034X0.010*%
%ADD53R,0.010X0.034*%
%ADD54R,0.209X0.209*%
%ADD55O,0.150X0.020*%
%ADD56R,0.150X0.020*%
%ADD57R,0.048X0.036*%
G36*
X10219Y4044D02*
X10145D01*
Y4118D01*
X10219D01*
Y4044D01*
D02*
G37*
G36*
X10115Y4044D02*
X10041D01*
Y4118D01*
X10115D01*
Y4044D01*
D02*
G37*
G36*
Y4149D02*
X10041D01*
Y4222D01*
X10115D01*
Y4149D01*
D02*
G37*
G36*
X10219Y4149D02*
Y4149D01*
X10145D01*
Y4222D01*
X10219D01*
Y4149D01*
D02*
G37*
D10*
X5315Y3655D02*
D03*
X5255D02*
D03*
X6050Y4525D02*
D03*
X5990D02*
D03*
X6130Y4715D02*
D03*
X6071D02*
D03*
X6130Y4825D02*
D03*
X6071D02*
D03*
X6495Y4815D02*
D03*
X6435D02*
D03*
X7977Y4876D02*
D03*
X7918D02*
D03*
X7977Y4766D02*
D03*
X7918D02*
D03*
X8028Y4596D02*
D03*
X8087D02*
D03*
X8410Y4895D02*
D03*
X8350D02*
D03*
X9395Y4258D02*
D03*
X9455D02*
D03*
X9400Y4358D02*
D03*
X9460D02*
D03*
X10474Y3296D02*
D03*
X10415D02*
D03*
X10416Y3246D02*
D03*
X10475D02*
D03*
X4916Y4095D02*
D03*
X4975D02*
D03*
X4916Y4030D02*
D03*
X4975D02*
D03*
X9909Y3368D02*
D03*
X9850D02*
D03*
D11*
X5380Y3143D02*
D03*
Y3037D02*
D03*
X6995Y2821D02*
D03*
Y2715D02*
D03*
X4335Y3067D02*
D03*
Y3173D02*
D03*
X4210Y3067D02*
D03*
Y3173D02*
D03*
X4085Y3067D02*
D03*
Y3173D02*
D03*
X3960Y3067D02*
D03*
Y3173D02*
D03*
X3835Y3067D02*
D03*
Y3173D02*
D03*
D12*
X7373Y3075D02*
D03*
X7267D02*
D03*
X6053Y3635D02*
D03*
X5947D02*
D03*
X6292Y4895D02*
D03*
X6398D02*
D03*
X6215Y4455D02*
D03*
X6109D02*
D03*
X6782Y4605D02*
D03*
X6888D02*
D03*
X6210Y4645D02*
D03*
X6104D02*
D03*
X8674Y4696D02*
D03*
X8781D02*
D03*
X7971Y4581D02*
D03*
X7864D02*
D03*
X8468Y4960D02*
D03*
X8362D02*
D03*
X8081Y4691D02*
D03*
X7974D02*
D03*
X8251Y4471D02*
D03*
X8144D02*
D03*
X7644Y3636D02*
D03*
X7751D02*
D03*
X10478Y3366D02*
D03*
X10372D02*
D03*
X10200Y3071D02*
D03*
X10306D02*
D03*
X10478Y3176D02*
D03*
X10372D02*
D03*
X10337Y4228D02*
D03*
X10443D02*
D03*
X5003Y3745D02*
D03*
X4897D02*
D03*
X5003Y3945D02*
D03*
X4897D02*
D03*
X4922Y3525D02*
D03*
X5028D02*
D03*
X9923Y4058D02*
D03*
X9817D02*
D03*
X6621Y4895D02*
D03*
X6515D02*
D03*
D13*
X6200Y4826D02*
D03*
Y4720D02*
D03*
X6770Y4798D02*
D03*
Y4692D02*
D03*
X6785Y4382D02*
D03*
Y4488D02*
D03*
X6355Y4375D02*
D03*
Y4269D02*
D03*
X8687Y4884D02*
D03*
Y4777D02*
D03*
X8662Y4467D02*
D03*
Y4574D02*
D03*
X8052Y4872D02*
D03*
Y4766D02*
D03*
X9037Y3752D02*
D03*
Y3859D02*
D03*
X10360Y2875D02*
D03*
Y2981D02*
D03*
X10365Y2697D02*
D03*
Y2803D02*
D03*
X9880Y3291D02*
D03*
Y3185D02*
D03*
X10610Y3178D02*
D03*
Y3071D02*
D03*
X9660Y3944D02*
D03*
Y3838D02*
D03*
Y3673D02*
D03*
Y3779D02*
D03*
X5410Y4182D02*
D03*
Y4288D02*
D03*
X5220D02*
D03*
Y4182D02*
D03*
X10070Y4415D02*
D03*
Y4521D02*
D03*
X10155D02*
D03*
Y4415D02*
D03*
X10240D02*
D03*
Y4521D02*
D03*
X10325Y4415D02*
D03*
Y4521D02*
D03*
X8166Y4842D02*
D03*
Y4949D02*
D03*
D14*
X5940Y4540D02*
D03*
Y4481D02*
D03*
Y4714D02*
D03*
Y4655D02*
D03*
X6215Y4520D02*
D03*
Y4580D02*
D03*
X7702Y4740D02*
D03*
Y4681D02*
D03*
X7822Y4736D02*
D03*
Y4795D02*
D03*
X7702Y4630D02*
D03*
Y4571D02*
D03*
X10215Y2970D02*
D03*
Y2910D02*
D03*
X10150Y3774D02*
D03*
Y3715D02*
D03*
X10050Y3774D02*
D03*
Y3715D02*
D03*
X10540Y3186D02*
D03*
Y3127D02*
D03*
X10395Y4349D02*
D03*
Y4408D02*
D03*
X10200Y3829D02*
D03*
Y3888D02*
D03*
X10250Y3829D02*
D03*
Y3888D02*
D03*
X10445Y4349D02*
D03*
Y4408D02*
D03*
X5005Y3815D02*
D03*
Y3875D02*
D03*
X5325Y4210D02*
D03*
Y4269D02*
D03*
X10605Y4350D02*
D03*
Y4409D02*
D03*
X10555Y4410D02*
D03*
Y4350D02*
D03*
D15*
X5080Y4402D02*
D03*
Y4228D02*
D03*
D16*
X5457Y3815D02*
D03*
X5563D02*
D03*
X5457Y3940D02*
D03*
X5563D02*
D03*
X5457Y4065D02*
D03*
X5563D02*
D03*
D17*
X8402Y4372D02*
D03*
Y4259D02*
D03*
X8502Y4372D02*
D03*
Y4259D02*
D03*
X6470Y4266D02*
D03*
Y4154D02*
D03*
X7120Y4271D02*
D03*
Y4159D02*
D03*
D18*
X10615Y4656D02*
D03*
Y4505D02*
D03*
X8887Y4465D02*
D03*
Y4616D02*
D03*
X7000Y4385D02*
D03*
Y4536D02*
D03*
D19*
X8787Y4886D02*
D03*
X8938D02*
D03*
X6865Y4795D02*
D03*
X7016D02*
D03*
D20*
X10275Y3376D02*
D03*
D21*
X10250D02*
D03*
X10225D02*
D03*
X10200D02*
D03*
X10175D02*
D03*
X10150D02*
D03*
X10125D02*
D03*
X10100D02*
D03*
X10275Y3171D02*
D03*
X10250D02*
D03*
X10225D02*
D03*
X10200D02*
D03*
X10175D02*
D03*
X10150D02*
D03*
X10125D02*
D03*
X10100D02*
D03*
D22*
X10754Y4388D02*
D03*
X10660Y4350D02*
D03*
Y4425D02*
D03*
D23*
X10458Y4789D02*
D03*
X10495Y4695D02*
D03*
X10420D02*
D03*
X10312Y4789D02*
D03*
X10350Y4695D02*
D03*
X10275D02*
D03*
X10167Y4789D02*
D03*
X10205Y4695D02*
D03*
X10130D02*
D03*
D24*
X5253Y3590D02*
D03*
X5155D02*
D03*
D25*
X5095Y3823D02*
D03*
X5120D02*
D03*
X5146D02*
D03*
X5171D02*
D03*
X5197D02*
D03*
X5223D02*
D03*
X5248D02*
D03*
X5274D02*
D03*
X5299D02*
D03*
X5325D02*
D03*
X5095Y4041D02*
D03*
X5120D02*
D03*
X5146D02*
D03*
X5171D02*
D03*
X5197D02*
D03*
X5223D02*
D03*
X5248D02*
D03*
X5274D02*
D03*
X5299D02*
D03*
D26*
X5325D02*
D03*
D27*
X5210Y3930D02*
D03*
D28*
X8827Y4129D02*
D03*
Y3846D02*
D03*
X7180Y4058D02*
D03*
Y3775D02*
D03*
D29*
X7940Y3130D02*
D03*
X7657D02*
D03*
X6215D02*
D03*
X5932D02*
D03*
D30*
X10110Y2780D02*
D03*
Y2960D02*
D03*
D31*
X9832Y2870D02*
D03*
D32*
X8261Y4827D02*
D03*
Y4801D02*
D03*
Y4776D02*
D03*
Y4750D02*
D03*
Y4724D02*
D03*
Y4699D02*
D03*
Y4673D02*
D03*
Y4648D02*
D03*
Y4622D02*
D03*
Y4596D02*
D03*
Y4571D02*
D03*
Y4545D02*
D03*
X8528Y4827D02*
D03*
Y4801D02*
D03*
Y4776D02*
D03*
Y4750D02*
D03*
Y4724D02*
D03*
Y4699D02*
D03*
Y4673D02*
D03*
Y4648D02*
D03*
Y4622D02*
D03*
Y4596D02*
D03*
Y4571D02*
D03*
Y4545D02*
D03*
X6356Y4741D02*
D03*
Y4715D02*
D03*
Y4690D02*
D03*
Y4664D02*
D03*
Y4638D02*
D03*
Y4613D02*
D03*
Y4587D02*
D03*
Y4562D02*
D03*
Y4536D02*
D03*
Y4510D02*
D03*
Y4485D02*
D03*
Y4459D02*
D03*
X6624Y4741D02*
D03*
Y4715D02*
D03*
Y4690D02*
D03*
Y4664D02*
D03*
Y4638D02*
D03*
Y4613D02*
D03*
Y4587D02*
D03*
Y4562D02*
D03*
Y4536D02*
D03*
Y4510D02*
D03*
Y4485D02*
D03*
Y4459D02*
D03*
D33*
X10796Y3402D02*
D03*
Y3150D02*
D03*
D34*
Y3237D02*
D03*
Y3316D02*
D03*
D35*
X10690Y3225D02*
D03*
Y3251D02*
D03*
Y3276D02*
D03*
Y3302D02*
D03*
Y3327D02*
D03*
D36*
X5148Y3300D02*
D03*
Y3350D02*
D03*
Y3400D02*
D03*
Y3450D02*
D03*
D37*
X4912Y3454D02*
D03*
Y3401D02*
D03*
Y3349D02*
D03*
Y3296D02*
D03*
D38*
X5010Y3375D02*
D03*
D39*
X4605Y3298D02*
D03*
X4555D02*
D03*
X4505D02*
D03*
X4455D02*
D03*
D40*
X4451Y3062D02*
D03*
X4504D02*
D03*
X4556D02*
D03*
X4609D02*
D03*
D41*
X4530Y3160D02*
D03*
D42*
X10248Y2731D02*
D03*
X10210Y2810D02*
D03*
X10285D02*
D03*
D43*
X9022Y3196D02*
D03*
X8527Y3876D02*
D03*
X8192D02*
D03*
X7300Y3359D02*
D03*
X6860Y3775D02*
D03*
X6470Y3770D02*
D03*
D44*
X8932Y3475D02*
D03*
X9113D02*
D03*
X8437Y4155D02*
D03*
X8618D02*
D03*
X8102D02*
D03*
X8283D02*
D03*
X7210Y3639D02*
D03*
X7390D02*
D03*
X6770Y4055D02*
D03*
X6950D02*
D03*
X6380Y4050D02*
D03*
X6560D02*
D03*
D45*
X7667Y3411D02*
D03*
X5934Y3430D02*
D03*
D46*
X7946Y3501D02*
D03*
Y3320D02*
D03*
X6214Y3520D02*
D03*
Y3340D02*
D03*
D47*
X8757Y3316D02*
D03*
X8117D02*
D03*
X7010Y3200D02*
D03*
X6370D02*
D03*
D48*
X7776Y4169D02*
D03*
Y3822D02*
D03*
X6005Y4163D02*
D03*
Y3817D02*
D03*
D49*
X4670Y4160D02*
D03*
Y3760D02*
D03*
D50*
X3801Y3960D02*
D03*
D51*
X3880Y2879D02*
D03*
Y2611D02*
D03*
X4280Y2879D02*
D03*
Y2611D02*
D03*
D52*
X9995Y4241D02*
D03*
Y4222D02*
D03*
Y4202D02*
D03*
Y4182D02*
D03*
Y4163D02*
D03*
Y4143D02*
D03*
Y4123D02*
D03*
Y4104D02*
D03*
Y4084D02*
D03*
Y4064D02*
D03*
Y4045D02*
D03*
Y4025D02*
D03*
X10265D02*
D03*
Y4045D02*
D03*
Y4064D02*
D03*
Y4084D02*
D03*
Y4104D02*
D03*
Y4123D02*
D03*
Y4143D02*
D03*
Y4163D02*
D03*
Y4182D02*
D03*
Y4202D02*
D03*
Y4222D02*
D03*
Y4241D02*
D03*
D53*
X10022Y3998D02*
D03*
X10041D02*
D03*
X10061D02*
D03*
X10081D02*
D03*
X10100D02*
D03*
X10120D02*
D03*
X10140D02*
D03*
X10160D02*
D03*
X10179D02*
D03*
X10199D02*
D03*
X10219D02*
D03*
X10238D02*
D03*
Y4268D02*
D03*
X10219D02*
D03*
X10199D02*
D03*
X10179D02*
D03*
X10160D02*
D03*
X10140D02*
D03*
X10120D02*
D03*
X10100D02*
D03*
X10081D02*
D03*
X10061D02*
D03*
X10041D02*
D03*
X10022D02*
D03*
D54*
X10130Y4133D02*
D03*
D55*
X9675Y4418D02*
D03*
Y4468D02*
D03*
Y4518D02*
D03*
Y4568D02*
D03*
Y4618D02*
D03*
X9475Y4418D02*
D03*
Y4468D02*
D03*
Y4518D02*
D03*
Y4568D02*
D03*
D56*
Y4618D02*
D03*
D57*
X7777Y4595D02*
D03*
Y4466D02*
D03*
X6020Y4470D02*
D03*
Y4341D02*
D03*
M02*
