G04 Layer_Physical_Order=2*
G04 Layer_Color=16711680*
%FSLAX23Y23*%
%MOIN*%
G70*
G01*
G75*
%ADD25C,0.010*%
%ADD26C,0.063*%
%ADD27R,0.059X0.059*%
%ADD28C,0.059*%
%ADD29R,0.059X0.059*%
%ADD30C,0.060*%
%ADD31C,0.050*%
G36*
X2895Y2260D02*
X2895Y2255D01*
X2899Y2247D01*
X2904Y2241D01*
X2910Y2236D01*
X2918Y2232D01*
X2926Y2231D01*
X2935Y2232D01*
X2943Y2236D01*
X2949Y2241D01*
X2954Y2247D01*
X2956Y2251D01*
X3061D01*
X3090Y2222D01*
X3088Y2217D01*
X2851D01*
X2849Y2222D01*
X2889Y2262D01*
X2895Y2260D01*
D02*
G37*
G36*
X3272Y2034D02*
X3277Y2027D01*
X3284Y2022D01*
X3292Y2019D01*
X3300Y2018D01*
X3308Y2019D01*
X3316Y2022D01*
X3320Y2025D01*
X3325Y2022D01*
Y1787D01*
X3319Y1781D01*
X3314Y1781D01*
X3313Y1783D01*
X3306Y1788D01*
X3302Y1790D01*
Y1988D01*
X3301Y1992D01*
X3299Y1996D01*
X3295Y1999D01*
X3294Y1999D01*
X3260Y2033D01*
X3262Y2038D01*
X3270D01*
X3272Y2034D01*
D02*
G37*
G36*
X3108Y2535D02*
X3110Y2530D01*
X3107Y2526D01*
X3105Y2522D01*
X3050D01*
X3045Y2521D01*
X3041Y2519D01*
X2807Y2284D01*
X2801Y2288D01*
X2793Y2291D01*
X2785Y2292D01*
X2777Y2291D01*
X2769Y2288D01*
X2762Y2283D01*
X2757Y2276D01*
X2754Y2268D01*
X2753Y2260D01*
X2754Y2252D01*
X2757Y2244D01*
X2760Y2240D01*
X2757Y2235D01*
X2752D01*
X2741Y2246D01*
X2743Y2249D01*
X2746Y2257D01*
X2747Y2265D01*
X2746Y2273D01*
X2743Y2281D01*
X2738Y2288D01*
X2731Y2293D01*
X2723Y2296D01*
X2715Y2297D01*
X2707Y2296D01*
X2699Y2293D01*
X2692Y2288D01*
X2690Y2288D01*
X2687Y2289D01*
Y2420D01*
X2691Y2422D01*
X2698Y2427D01*
X2703Y2434D01*
X2706Y2442D01*
X2707Y2450D01*
X2706Y2458D01*
X2703Y2466D01*
X2698Y2473D01*
X2691Y2478D01*
X2683Y2481D01*
X2675Y2482D01*
X2667Y2481D01*
X2663Y2480D01*
X2634Y2509D01*
X2630Y2511D01*
X2625Y2512D01*
X1870D01*
X1865Y2511D01*
X1861Y2509D01*
X1771Y2419D01*
X1769Y2415D01*
X1768Y2410D01*
Y1960D01*
X1602Y1795D01*
X1595Y1798D01*
X1585Y1799D01*
X1575Y1798D01*
X1566Y1794D01*
X1558Y1787D01*
X1551Y1779D01*
X1547Y1770D01*
X1546Y1760D01*
X1547Y1750D01*
X1551Y1741D01*
X1558Y1733D01*
X1566Y1726D01*
X1575Y1722D01*
X1585Y1721D01*
X1595Y1722D01*
X1604Y1726D01*
X1612Y1733D01*
X1619Y1741D01*
X1622Y1748D01*
X2370D01*
X2375Y1749D01*
X2379Y1751D01*
X2483Y1855D01*
X2487Y1854D01*
X2495Y1853D01*
X2503Y1854D01*
X2511Y1857D01*
X2518Y1862D01*
X2523Y1869D01*
X2526Y1877D01*
X2527Y1885D01*
X2526Y1893D01*
X2523Y1901D01*
X2518Y1908D01*
X2511Y1913D01*
X2503Y1916D01*
X2495Y1917D01*
X2487Y1916D01*
X2479Y1913D01*
X2472Y1908D01*
X2467Y1901D01*
X2464Y1893D01*
X2463Y1885D01*
X2464Y1877D01*
X2465Y1873D01*
X2365Y1772D01*
X1622D01*
X1620Y1777D01*
X1789Y1946D01*
X1791Y1950D01*
X1792Y1955D01*
Y2405D01*
X1875Y2488D01*
X2620D01*
X2645Y2462D01*
X2644Y2458D01*
X2643Y2450D01*
X2644Y2442D01*
X2647Y2434D01*
X2652Y2427D01*
X2659Y2422D01*
X2663Y2420D01*
Y2253D01*
X2664Y2248D01*
X2666Y2244D01*
X2706Y2205D01*
X2704Y2200D01*
X2188D01*
X2188Y2201D01*
X2183Y2208D01*
X2176Y2213D01*
X2168Y2216D01*
X2160Y2217D01*
X2152Y2216D01*
X2144Y2213D01*
X2137Y2208D01*
X2132Y2201D01*
X2129Y2193D01*
X2128Y2185D01*
X2129Y2177D01*
X2132Y2169D01*
X2137Y2162D01*
X2144Y2157D01*
X2152Y2154D01*
X2160Y2153D01*
X2168Y2154D01*
X2176Y2157D01*
X2183Y2162D01*
X2188Y2169D01*
X2191Y2176D01*
X3083D01*
X3278Y1981D01*
Y1790D01*
X3274Y1788D01*
X3267Y1783D01*
X3262Y1776D01*
X3259Y1768D01*
X3258Y1760D01*
X3259Y1752D01*
X3262Y1744D01*
X3267Y1737D01*
X3274Y1732D01*
X3282Y1729D01*
X3290Y1728D01*
X3298Y1729D01*
X3306Y1732D01*
X3313Y1737D01*
X3318Y1744D01*
X3320Y1749D01*
X3324Y1751D01*
X3346Y1773D01*
X3348Y1777D01*
X3349Y1782D01*
Y2065D01*
X3348Y2070D01*
X3346Y2074D01*
X3324Y2096D01*
X3320Y2098D01*
X3315Y2099D01*
X3248D01*
X3222Y2125D01*
X3225Y2130D01*
X3227Y2129D01*
X3235Y2128D01*
X3243Y2129D01*
X3251Y2132D01*
X3258Y2137D01*
X3263Y2144D01*
X3266Y2152D01*
X3267Y2160D01*
X3266Y2168D01*
X3263Y2176D01*
X3258Y2183D01*
X3251Y2188D01*
X3243Y2191D01*
X3235Y2192D01*
X3227Y2191D01*
X3223Y2190D01*
X3147Y2265D01*
Y2280D01*
X3151Y2282D01*
X3158Y2287D01*
X3163Y2294D01*
X3166Y2302D01*
X3167Y2310D01*
X3166Y2318D01*
X3163Y2326D01*
X3158Y2333D01*
X3151Y2338D01*
X3143Y2341D01*
X3135Y2342D01*
X3127Y2341D01*
X3119Y2338D01*
X3112Y2333D01*
X3107Y2326D01*
X3104Y2318D01*
X3103Y2310D01*
X3104Y2302D01*
X3107Y2294D01*
X3112Y2287D01*
X3119Y2282D01*
X3123Y2280D01*
Y2260D01*
X3124Y2255D01*
X3126Y2251D01*
X3205Y2172D01*
X3204Y2168D01*
X3203Y2160D01*
X3204Y2152D01*
X3205Y2150D01*
X3200Y2147D01*
X3075Y2272D01*
X3071Y2275D01*
X3066Y2276D01*
X2956D01*
X2954Y2280D01*
X2949Y2286D01*
X2943Y2291D01*
X2935Y2295D01*
X2930Y2295D01*
X2928Y2301D01*
X3075Y2448D01*
X3145D01*
X3147Y2444D01*
X3152Y2437D01*
X3159Y2432D01*
X3167Y2429D01*
X3175Y2428D01*
X3183Y2429D01*
X3191Y2432D01*
X3198Y2437D01*
X3203Y2444D01*
X3206Y2452D01*
X3207Y2460D01*
X3206Y2468D01*
X3203Y2476D01*
X3198Y2483D01*
X3191Y2488D01*
X3183Y2491D01*
X3175Y2492D01*
X3167Y2491D01*
X3166Y2492D01*
X3166Y2492D01*
X3164Y2495D01*
X3166Y2502D01*
X3167Y2510D01*
X3166Y2518D01*
X3163Y2526D01*
X3160Y2530D01*
X3162Y2535D01*
X3770D01*
X3770Y1020D01*
X2991D01*
X2990Y1025D01*
X2990Y1025D01*
X2996Y1032D01*
X2999Y1041D01*
X3000Y1045D01*
X2930D01*
X2931Y1041D01*
X2934Y1032D01*
X2940Y1025D01*
X2940Y1025D01*
X2939Y1020D01*
X1025D01*
X1025Y2535D01*
X3108Y2535D01*
D02*
G37*
G36*
X3107Y2494D02*
X3112Y2487D01*
X3119Y2482D01*
X3127Y2479D01*
X3135Y2478D01*
X3139Y2478D01*
X3143Y2474D01*
X3142Y2472D01*
X3070D01*
X3065Y2471D01*
X3061Y2469D01*
X2828Y2235D01*
X2813D01*
X2810Y2240D01*
X2813Y2244D01*
X2816Y2252D01*
X2817Y2260D01*
X3055Y2498D01*
X3105D01*
X3107Y2494D01*
D02*
G37*
%LPC*%
G36*
X1845Y1385D02*
X1841Y1384D01*
X1832Y1381D01*
X1825Y1375D01*
X1819Y1368D01*
X1816Y1359D01*
X1815Y1355D01*
X1845D01*
Y1385D01*
D02*
G37*
G36*
X1605D02*
Y1355D01*
X1635D01*
X1634Y1359D01*
X1631Y1368D01*
X1625Y1375D01*
X1618Y1381D01*
X1609Y1384D01*
X1605Y1385D01*
D02*
G37*
G36*
X2340D02*
X2336Y1384D01*
X2327Y1381D01*
X2320Y1375D01*
X2314Y1368D01*
X2311Y1359D01*
X2310Y1355D01*
X2340D01*
Y1385D01*
D02*
G37*
G36*
X2350D02*
Y1355D01*
X2380D01*
X2379Y1359D01*
X2376Y1368D01*
X2370Y1375D01*
X2363Y1381D01*
X2354Y1384D01*
X2350Y1385D01*
D02*
G37*
G36*
X2100D02*
Y1355D01*
X2130D01*
X2129Y1359D01*
X2126Y1368D01*
X2120Y1375D01*
X2113Y1381D01*
X2104Y1384D01*
X2100Y1385D01*
D02*
G37*
G36*
X1855D02*
Y1355D01*
X1885D01*
X1884Y1359D01*
X1881Y1368D01*
X1875Y1375D01*
X1868Y1381D01*
X1859Y1384D01*
X1855Y1385D01*
D02*
G37*
G36*
X2090D02*
X2086Y1384D01*
X2077Y1381D01*
X2070Y1375D01*
X2064Y1368D01*
X2061Y1359D01*
X2060Y1355D01*
X2090D01*
Y1385D01*
D02*
G37*
G36*
X2880Y1345D02*
X2850D01*
Y1315D01*
X2854Y1316D01*
X2863Y1319D01*
X2870Y1325D01*
X2876Y1332D01*
X2879Y1341D01*
X2880Y1345D01*
D02*
G37*
G36*
X1095Y1385D02*
X1091Y1384D01*
X1082Y1381D01*
X1075Y1375D01*
X1069Y1368D01*
X1066Y1359D01*
X1065Y1355D01*
X1095D01*
Y1385D01*
D02*
G37*
G36*
X2630Y1345D02*
X2600D01*
Y1315D01*
X2604Y1316D01*
X2613Y1319D01*
X2620Y1325D01*
X2626Y1332D01*
X2629Y1341D01*
X2630Y1345D01*
D02*
G37*
G36*
X2840D02*
X2810D01*
X2811Y1341D01*
X2814Y1332D01*
X2820Y1325D01*
X2827Y1319D01*
X2836Y1316D01*
X2840Y1315D01*
Y1345D01*
D02*
G37*
G36*
X1355Y1385D02*
Y1355D01*
X1385D01*
X1384Y1359D01*
X1381Y1368D01*
X1375Y1375D01*
X1368Y1381D01*
X1359Y1384D01*
X1355Y1385D01*
D02*
G37*
G36*
X1595D02*
X1591Y1384D01*
X1582Y1381D01*
X1575Y1375D01*
X1569Y1368D01*
X1566Y1359D01*
X1565Y1355D01*
X1595D01*
Y1385D01*
D02*
G37*
G36*
X1105D02*
Y1355D01*
X1135D01*
X1134Y1359D01*
X1131Y1368D01*
X1125Y1375D01*
X1118Y1381D01*
X1109Y1384D01*
X1105Y1385D01*
D02*
G37*
G36*
X1345D02*
X1341Y1384D01*
X1332Y1381D01*
X1325Y1375D01*
X1319Y1368D01*
X1316Y1359D01*
X1315Y1355D01*
X1345D01*
Y1385D01*
D02*
G37*
G36*
X1860Y1595D02*
X1826D01*
X1826Y1590D01*
X1830Y1580D01*
X1837Y1572D01*
X1845Y1565D01*
X1855Y1561D01*
X1860Y1561D01*
Y1595D01*
D02*
G37*
G36*
X2090D02*
X2056D01*
X2056Y1590D01*
X2060Y1580D01*
X2067Y1572D01*
X2075Y1565D01*
X2085Y1561D01*
X2090Y1561D01*
Y1595D01*
D02*
G37*
G36*
X3375Y1565D02*
X3345D01*
X3346Y1561D01*
X3349Y1552D01*
X3355Y1545D01*
X3362Y1539D01*
X3371Y1536D01*
X3375Y1535D01*
Y1565D01*
D02*
G37*
G36*
X3415D02*
X3385D01*
Y1535D01*
X3389Y1536D01*
X3398Y1539D01*
X3405Y1545D01*
X3411Y1552D01*
X3414Y1561D01*
X3415Y1565D01*
D02*
G37*
G36*
X2134Y1595D02*
X2100D01*
Y1561D01*
X2105Y1561D01*
X2115Y1565D01*
X2123Y1572D01*
X2130Y1580D01*
X2134Y1590D01*
X2134Y1595D01*
D02*
G37*
G36*
X2369D02*
X2335D01*
Y1561D01*
X2340Y1561D01*
X2350Y1565D01*
X2358Y1572D01*
X2365Y1580D01*
X2369Y1590D01*
X2369Y1595D01*
D02*
G37*
G36*
X2325D02*
X2291D01*
X2291Y1590D01*
X2295Y1580D01*
X2302Y1572D01*
X2310Y1565D01*
X2320Y1561D01*
X2325Y1561D01*
Y1595D01*
D02*
G37*
G36*
X1904D02*
X1870D01*
Y1561D01*
X1875Y1561D01*
X1885Y1565D01*
X1893Y1572D01*
X1900Y1580D01*
X1904Y1590D01*
X1904Y1595D01*
D02*
G37*
G36*
X2840Y1385D02*
X2836Y1384D01*
X2827Y1381D01*
X2820Y1375D01*
X2814Y1368D01*
X2811Y1359D01*
X2810Y1355D01*
X2840D01*
Y1385D01*
D02*
G37*
G36*
X2850D02*
Y1355D01*
X2880D01*
X2879Y1359D01*
X2876Y1368D01*
X2870Y1375D01*
X2863Y1381D01*
X2854Y1384D01*
X2850Y1385D01*
D02*
G37*
G36*
X2590D02*
X2586Y1384D01*
X2577Y1381D01*
X2570Y1375D01*
X2564Y1368D01*
X2561Y1359D01*
X2560Y1355D01*
X2590D01*
Y1385D01*
D02*
G37*
G36*
X2600D02*
Y1355D01*
X2630D01*
X2629Y1359D01*
X2626Y1368D01*
X2620Y1375D01*
X2613Y1381D01*
X2604Y1384D01*
X2600Y1385D01*
D02*
G37*
G36*
X3260Y1455D02*
X3256Y1454D01*
X3247Y1451D01*
X3240Y1445D01*
X3234Y1438D01*
X3231Y1429D01*
X3230Y1425D01*
X3260D01*
Y1455D01*
D02*
G37*
G36*
X3270D02*
Y1425D01*
X3300D01*
X3299Y1429D01*
X3296Y1438D01*
X3290Y1445D01*
X3283Y1451D01*
X3274Y1454D01*
X3270Y1455D01*
D02*
G37*
G36*
X3260Y1415D02*
X3230D01*
X3231Y1411D01*
X3234Y1402D01*
X3240Y1395D01*
X3247Y1389D01*
X3256Y1386D01*
X3260Y1385D01*
Y1415D01*
D02*
G37*
G36*
X3300D02*
X3270D01*
Y1385D01*
X3274Y1386D01*
X3283Y1389D01*
X3290Y1395D01*
X3296Y1402D01*
X3299Y1411D01*
X3300Y1415D01*
D02*
G37*
G36*
X2830Y1197D02*
X2820Y1196D01*
X2812Y1192D01*
X2804Y1186D01*
X2798Y1178D01*
X2794Y1170D01*
X2793Y1160D01*
X2794Y1150D01*
X2798Y1142D01*
X2804Y1134D01*
X2812Y1128D01*
X2820Y1124D01*
X2830Y1123D01*
X2840Y1124D01*
X2848Y1128D01*
X2856Y1134D01*
X2862Y1142D01*
X2866Y1150D01*
X2867Y1160D01*
X2866Y1170D01*
X2862Y1178D01*
X2856Y1186D01*
X2848Y1192D01*
X2840Y1196D01*
X2830Y1197D01*
D02*
G37*
G36*
X1222Y1197D02*
X1148D01*
Y1123D01*
X1222D01*
Y1197D01*
D02*
G37*
G36*
X2330Y1197D02*
X2320Y1196D01*
X2312Y1192D01*
X2304Y1186D01*
X2298Y1178D01*
X2294Y1170D01*
X2293Y1160D01*
X2294Y1150D01*
X2298Y1142D01*
X2304Y1134D01*
X2312Y1128D01*
X2320Y1124D01*
X2330Y1123D01*
X2340Y1124D01*
X2348Y1128D01*
X2356Y1134D01*
X2362Y1142D01*
X2366Y1150D01*
X2367Y1160D01*
X2366Y1170D01*
X2362Y1178D01*
X2356Y1186D01*
X2348Y1192D01*
X2340Y1196D01*
X2330Y1197D01*
D02*
G37*
G36*
X2580D02*
X2570Y1196D01*
X2562Y1192D01*
X2554Y1186D01*
X2548Y1178D01*
X2544Y1170D01*
X2543Y1160D01*
X2544Y1150D01*
X2548Y1142D01*
X2554Y1134D01*
X2562Y1128D01*
X2570Y1124D01*
X2580Y1123D01*
X2590Y1124D01*
X2598Y1128D01*
X2606Y1134D01*
X2612Y1142D01*
X2616Y1150D01*
X2617Y1160D01*
X2616Y1170D01*
X2612Y1178D01*
X2606Y1186D01*
X2598Y1192D01*
X2590Y1196D01*
X2580Y1197D01*
D02*
G37*
G36*
X1972Y1197D02*
X1898D01*
Y1123D01*
X1972D01*
Y1197D01*
D02*
G37*
G36*
X2217D02*
X2143D01*
Y1123D01*
X2217D01*
Y1197D01*
D02*
G37*
G36*
X1472D02*
X1398D01*
Y1123D01*
X1472D01*
Y1197D01*
D02*
G37*
G36*
X1722D02*
X1648D01*
Y1123D01*
X1722D01*
Y1197D01*
D02*
G37*
G36*
X2970Y1085D02*
Y1055D01*
X3000D01*
X2999Y1059D01*
X2996Y1068D01*
X2990Y1075D01*
X2983Y1081D01*
X2974Y1084D01*
X2970Y1085D01*
D02*
G37*
G36*
X1085Y1197D02*
X1075Y1196D01*
X1067Y1192D01*
X1059Y1186D01*
X1053Y1178D01*
X1049Y1170D01*
X1048Y1160D01*
X1049Y1150D01*
X1053Y1142D01*
X1059Y1134D01*
X1067Y1128D01*
X1075Y1124D01*
X1085Y1123D01*
X1095Y1124D01*
X1103Y1128D01*
X1111Y1134D01*
X1117Y1142D01*
X1121Y1150D01*
X1122Y1160D01*
X1121Y1170D01*
X1117Y1178D01*
X1111Y1186D01*
X1103Y1192D01*
X1095Y1196D01*
X1085Y1197D01*
D02*
G37*
G36*
X3635Y1259D02*
X3619Y1258D01*
X3603Y1254D01*
X3588Y1248D01*
X3574Y1239D01*
X3561Y1229D01*
X3551Y1216D01*
X3542Y1202D01*
X3536Y1187D01*
X3532Y1171D01*
X3531Y1155D01*
X3532Y1139D01*
X3536Y1123D01*
X3542Y1108D01*
X3551Y1094D01*
X3561Y1081D01*
X3574Y1071D01*
X3588Y1062D01*
X3603Y1056D01*
X3619Y1052D01*
X3635Y1051D01*
X3651Y1052D01*
X3667Y1056D01*
X3682Y1062D01*
X3696Y1071D01*
X3709Y1081D01*
X3719Y1094D01*
X3728Y1108D01*
X3734Y1123D01*
X3738Y1139D01*
X3739Y1155D01*
X3738Y1171D01*
X3734Y1187D01*
X3728Y1202D01*
X3719Y1216D01*
X3709Y1229D01*
X3696Y1239D01*
X3682Y1248D01*
X3667Y1254D01*
X3651Y1258D01*
X3635Y1259D01*
D02*
G37*
G36*
X2960Y1085D02*
X2956Y1084D01*
X2947Y1081D01*
X2940Y1075D01*
X2934Y1068D01*
X2931Y1059D01*
X2930Y1055D01*
X2960D01*
Y1085D01*
D02*
G37*
G36*
X1835Y1197D02*
X1825Y1196D01*
X1817Y1192D01*
X1809Y1186D01*
X1803Y1178D01*
X1799Y1170D01*
X1798Y1160D01*
X1799Y1150D01*
X1803Y1142D01*
X1809Y1134D01*
X1817Y1128D01*
X1825Y1124D01*
X1835Y1123D01*
X1845Y1124D01*
X1853Y1128D01*
X1861Y1134D01*
X1867Y1142D01*
X1871Y1150D01*
X1872Y1160D01*
X1871Y1170D01*
X1867Y1178D01*
X1861Y1186D01*
X1853Y1192D01*
X1845Y1196D01*
X1835Y1197D01*
D02*
G37*
G36*
X2080D02*
X2070Y1196D01*
X2062Y1192D01*
X2054Y1186D01*
X2048Y1178D01*
X2044Y1170D01*
X2043Y1160D01*
X2044Y1150D01*
X2048Y1142D01*
X2054Y1134D01*
X2062Y1128D01*
X2070Y1124D01*
X2080Y1123D01*
X2090Y1124D01*
X2098Y1128D01*
X2106Y1134D01*
X2112Y1142D01*
X2116Y1150D01*
X2117Y1160D01*
X2116Y1170D01*
X2112Y1178D01*
X2106Y1186D01*
X2098Y1192D01*
X2090Y1196D01*
X2080Y1197D01*
D02*
G37*
G36*
X1335D02*
X1325Y1196D01*
X1317Y1192D01*
X1309Y1186D01*
X1303Y1178D01*
X1299Y1170D01*
X1298Y1160D01*
X1299Y1150D01*
X1303Y1142D01*
X1309Y1134D01*
X1317Y1128D01*
X1325Y1124D01*
X1335Y1123D01*
X1345Y1124D01*
X1353Y1128D01*
X1361Y1134D01*
X1367Y1142D01*
X1371Y1150D01*
X1372Y1160D01*
X1371Y1170D01*
X1367Y1178D01*
X1361Y1186D01*
X1353Y1192D01*
X1345Y1196D01*
X1335Y1197D01*
D02*
G37*
G36*
X1585D02*
X1575Y1196D01*
X1567Y1192D01*
X1559Y1186D01*
X1553Y1178D01*
X1549Y1170D01*
X1548Y1160D01*
X1549Y1150D01*
X1553Y1142D01*
X1559Y1134D01*
X1567Y1128D01*
X1575Y1124D01*
X1585Y1123D01*
X1595Y1124D01*
X1603Y1128D01*
X1611Y1134D01*
X1617Y1142D01*
X1621Y1150D01*
X1622Y1160D01*
X1621Y1170D01*
X1617Y1178D01*
X1611Y1186D01*
X1603Y1192D01*
X1595Y1196D01*
X1585Y1197D01*
D02*
G37*
G36*
X1885Y1345D02*
X1855D01*
Y1315D01*
X1859Y1316D01*
X1868Y1319D01*
X1875Y1325D01*
X1881Y1332D01*
X1884Y1341D01*
X1885Y1345D01*
D02*
G37*
G36*
X2090D02*
X2060D01*
X2061Y1341D01*
X2064Y1332D01*
X2070Y1325D01*
X2077Y1319D01*
X2086Y1316D01*
X2090Y1315D01*
Y1345D01*
D02*
G37*
G36*
X1635D02*
X1605D01*
Y1315D01*
X1609Y1316D01*
X1618Y1319D01*
X1625Y1325D01*
X1631Y1332D01*
X1634Y1341D01*
X1635Y1345D01*
D02*
G37*
G36*
X1845D02*
X1815D01*
X1816Y1341D01*
X1819Y1332D01*
X1825Y1325D01*
X1832Y1319D01*
X1841Y1316D01*
X1845Y1315D01*
Y1345D01*
D02*
G37*
G36*
X2380D02*
X2350D01*
Y1315D01*
X2354Y1316D01*
X2363Y1319D01*
X2370Y1325D01*
X2376Y1332D01*
X2379Y1341D01*
X2380Y1345D01*
D02*
G37*
G36*
X2590D02*
X2560D01*
X2561Y1341D01*
X2564Y1332D01*
X2570Y1325D01*
X2577Y1319D01*
X2586Y1316D01*
X2590Y1315D01*
Y1345D01*
D02*
G37*
G36*
X2130D02*
X2100D01*
Y1315D01*
X2104Y1316D01*
X2113Y1319D01*
X2120Y1325D01*
X2126Y1332D01*
X2129Y1341D01*
X2130Y1345D01*
D02*
G37*
G36*
X2340D02*
X2310D01*
X2311Y1341D01*
X2314Y1332D01*
X2320Y1325D01*
X2327Y1319D01*
X2336Y1316D01*
X2340Y1315D01*
Y1345D01*
D02*
G37*
G36*
X2967Y1197D02*
X2893D01*
Y1123D01*
X2967D01*
Y1197D01*
D02*
G37*
G36*
X1095Y1345D02*
X1065D01*
X1066Y1341D01*
X1069Y1332D01*
X1075Y1325D01*
X1082Y1319D01*
X1091Y1316D01*
X1095Y1315D01*
Y1345D01*
D02*
G37*
G36*
X2467Y1197D02*
X2393D01*
Y1123D01*
X2467D01*
Y1197D01*
D02*
G37*
G36*
X2717D02*
X2643D01*
Y1123D01*
X2717D01*
Y1197D01*
D02*
G37*
G36*
X1385Y1345D02*
X1355D01*
Y1315D01*
X1359Y1316D01*
X1368Y1319D01*
X1375Y1325D01*
X1381Y1332D01*
X1384Y1341D01*
X1385Y1345D01*
D02*
G37*
G36*
X1595D02*
X1565D01*
X1566Y1341D01*
X1569Y1332D01*
X1575Y1325D01*
X1582Y1319D01*
X1591Y1316D01*
X1595Y1315D01*
Y1345D01*
D02*
G37*
G36*
X1135D02*
X1105D01*
Y1315D01*
X1109Y1316D01*
X1118Y1319D01*
X1125Y1325D01*
X1131Y1332D01*
X1134Y1341D01*
X1135Y1345D01*
D02*
G37*
G36*
X1345D02*
X1315D01*
X1316Y1341D01*
X1319Y1332D01*
X1325Y1325D01*
X1332Y1319D01*
X1341Y1316D01*
X1345Y1315D01*
Y1345D01*
D02*
G37*
G36*
X2002Y1637D02*
X1928D01*
Y1563D01*
X2002D01*
Y1637D01*
D02*
G37*
G36*
X2205Y2105D02*
X2201Y2104D01*
X2192Y2101D01*
X2185Y2095D01*
X2179Y2088D01*
X2176Y2079D01*
X2175Y2075D01*
X2205D01*
Y2105D01*
D02*
G37*
G36*
X2215D02*
Y2075D01*
X2245D01*
X2244Y2079D01*
X2241Y2088D01*
X2235Y2095D01*
X2228Y2101D01*
X2219Y2104D01*
X2215Y2105D01*
D02*
G37*
G36*
X3000Y2065D02*
X2970D01*
X2971Y2061D01*
X2974Y2052D01*
X2980Y2045D01*
X2987Y2039D01*
X2996Y2036D01*
X3000Y2035D01*
Y2065D01*
D02*
G37*
G36*
X3040D02*
X3010D01*
Y2035D01*
X3014Y2036D01*
X3023Y2039D01*
X3030Y2045D01*
X3036Y2052D01*
X3039Y2061D01*
X3040Y2065D01*
D02*
G37*
G36*
X1720Y2120D02*
X1690D01*
X1691Y2116D01*
X1694Y2107D01*
X1700Y2100D01*
X1707Y2094D01*
X1716Y2091D01*
X1720Y2090D01*
Y2120D01*
D02*
G37*
G36*
X1760D02*
X1730D01*
Y2090D01*
X1734Y2091D01*
X1743Y2094D01*
X1750Y2100D01*
X1756Y2107D01*
X1759Y2116D01*
X1760Y2120D01*
D02*
G37*
G36*
X3000Y2105D02*
X2996Y2104D01*
X2987Y2101D01*
X2980Y2095D01*
X2974Y2088D01*
X2971Y2079D01*
X2970Y2075D01*
X3000D01*
Y2105D01*
D02*
G37*
G36*
X3010D02*
Y2075D01*
X3040D01*
X3039Y2079D01*
X3036Y2088D01*
X3030Y2095D01*
X3023Y2101D01*
X3014Y2104D01*
X3010Y2105D01*
D02*
G37*
G36*
X3118Y2022D02*
X3088D01*
X3089Y2018D01*
X3092Y2010D01*
X3098Y2002D01*
X3105Y1997D01*
X3114Y1993D01*
X3118Y1993D01*
Y2022D01*
D02*
G37*
G36*
X3157D02*
X3128D01*
Y1993D01*
X3132Y1993D01*
X3140Y1997D01*
X3148Y2002D01*
X3153Y2010D01*
X3157Y2018D01*
X3157Y2022D01*
D02*
G37*
G36*
X3715Y1875D02*
Y1845D01*
X3745D01*
X3744Y1849D01*
X3741Y1858D01*
X3735Y1865D01*
X3728Y1871D01*
X3719Y1874D01*
X3715Y1875D01*
D02*
G37*
G36*
X1110Y2007D02*
X1100Y2006D01*
X1092Y2002D01*
X1084Y1996D01*
X1078Y1988D01*
X1074Y1980D01*
X1073Y1970D01*
X1074Y1960D01*
X1078Y1952D01*
X1084Y1944D01*
X1092Y1938D01*
X1100Y1934D01*
X1110Y1933D01*
X1120Y1934D01*
X1128Y1938D01*
X1136Y1944D01*
X1142Y1952D01*
X1146Y1960D01*
X1147Y1970D01*
X1146Y1980D01*
X1142Y1988D01*
X1136Y1996D01*
X1128Y2002D01*
X1120Y2006D01*
X1110Y2007D01*
D02*
G37*
G36*
X2205Y2065D02*
X2175D01*
X2176Y2061D01*
X2179Y2052D01*
X2185Y2045D01*
X2192Y2039D01*
X2201Y2036D01*
X2205Y2035D01*
Y2065D01*
D02*
G37*
G36*
X2245D02*
X2215D01*
Y2035D01*
X2219Y2036D01*
X2228Y2039D01*
X2235Y2045D01*
X2241Y2052D01*
X2244Y2061D01*
X2245Y2065D01*
D02*
G37*
G36*
X3118Y2062D02*
X3114Y2061D01*
X3105Y2058D01*
X3098Y2052D01*
X3092Y2045D01*
X3089Y2036D01*
X3088Y2032D01*
X3118D01*
Y2062D01*
D02*
G37*
G36*
X3128D02*
Y2032D01*
X3157D01*
X3157Y2036D01*
X3153Y2045D01*
X3148Y2052D01*
X3140Y2058D01*
X3132Y2061D01*
X3128Y2062D01*
D02*
G37*
G36*
X2575Y2390D02*
X2571Y2389D01*
X2562Y2386D01*
X2555Y2380D01*
X2549Y2373D01*
X2546Y2364D01*
X2545Y2360D01*
X2575D01*
Y2390D01*
D02*
G37*
G36*
X2585D02*
Y2360D01*
X2615D01*
X2614Y2364D01*
X2611Y2373D01*
X2605Y2380D01*
X2598Y2386D01*
X2589Y2389D01*
X2585Y2390D01*
D02*
G37*
G36*
X2575Y2350D02*
X2545D01*
X2546Y2346D01*
X2549Y2337D01*
X2555Y2330D01*
X2562Y2324D01*
X2571Y2321D01*
X2575Y2320D01*
Y2350D01*
D02*
G37*
G36*
X2615D02*
X2585D01*
Y2320D01*
X2589Y2321D01*
X2598Y2324D01*
X2605Y2330D01*
X2611Y2337D01*
X2614Y2346D01*
X2615Y2350D01*
D02*
G37*
G36*
X1907Y2476D02*
X1903Y2476D01*
X1894Y2472D01*
X1887Y2467D01*
X1881Y2460D01*
X1878Y2451D01*
X1877Y2447D01*
X1907D01*
Y2476D01*
D02*
G37*
G36*
X1917D02*
Y2447D01*
X1946D01*
X1946Y2451D01*
X1942Y2460D01*
X1937Y2467D01*
X1930Y2472D01*
X1921Y2476D01*
X1917Y2476D01*
D02*
G37*
G36*
X1907Y2437D02*
X1877D01*
X1878Y2433D01*
X1881Y2424D01*
X1887Y2417D01*
X1894Y2411D01*
X1903Y2408D01*
X1907Y2407D01*
Y2437D01*
D02*
G37*
G36*
X1946D02*
X1917D01*
Y2407D01*
X1921Y2408D01*
X1930Y2411D01*
X1937Y2417D01*
X1942Y2424D01*
X1946Y2433D01*
X1946Y2437D01*
D02*
G37*
G36*
X1325Y2170D02*
X1295D01*
X1296Y2166D01*
X1299Y2157D01*
X1305Y2150D01*
X1312Y2144D01*
X1321Y2141D01*
X1325Y2140D01*
Y2170D01*
D02*
G37*
G36*
X1365D02*
X1335D01*
Y2140D01*
X1339Y2141D01*
X1348Y2144D01*
X1355Y2150D01*
X1361Y2157D01*
X1364Y2166D01*
X1365Y2170D01*
D02*
G37*
G36*
X1720Y2160D02*
X1716Y2159D01*
X1707Y2156D01*
X1700Y2150D01*
X1694Y2143D01*
X1691Y2134D01*
X1690Y2130D01*
X1720D01*
Y2160D01*
D02*
G37*
G36*
X1730D02*
Y2130D01*
X1760D01*
X1759Y2134D01*
X1756Y2143D01*
X1750Y2150D01*
X1743Y2156D01*
X1734Y2159D01*
X1730Y2160D01*
D02*
G37*
G36*
X1180Y2514D02*
X1164Y2513D01*
X1148Y2509D01*
X1133Y2503D01*
X1119Y2494D01*
X1106Y2484D01*
X1096Y2471D01*
X1087Y2457D01*
X1081Y2442D01*
X1077Y2426D01*
X1076Y2410D01*
X1077Y2394D01*
X1081Y2378D01*
X1087Y2363D01*
X1096Y2349D01*
X1106Y2336D01*
X1119Y2326D01*
X1133Y2317D01*
X1148Y2311D01*
X1164Y2307D01*
X1180Y2306D01*
X1196Y2307D01*
X1212Y2311D01*
X1227Y2317D01*
X1241Y2326D01*
X1254Y2336D01*
X1264Y2349D01*
X1273Y2363D01*
X1279Y2378D01*
X1283Y2394D01*
X1284Y2410D01*
X1283Y2426D01*
X1279Y2442D01*
X1273Y2457D01*
X1264Y2471D01*
X1254Y2484D01*
X1241Y2494D01*
X1227Y2503D01*
X1212Y2509D01*
X1196Y2513D01*
X1180Y2514D01*
D02*
G37*
G36*
X3635Y2519D02*
X3619Y2518D01*
X3603Y2514D01*
X3588Y2508D01*
X3574Y2499D01*
X3561Y2489D01*
X3551Y2476D01*
X3542Y2462D01*
X3536Y2447D01*
X3532Y2431D01*
X3531Y2415D01*
X3532Y2399D01*
X3536Y2383D01*
X3542Y2368D01*
X3551Y2354D01*
X3561Y2341D01*
X3574Y2331D01*
X3588Y2322D01*
X3603Y2316D01*
X3619Y2312D01*
X3635Y2311D01*
X3651Y2312D01*
X3667Y2316D01*
X3682Y2322D01*
X3696Y2331D01*
X3709Y2341D01*
X3719Y2354D01*
X3728Y2368D01*
X3734Y2383D01*
X3738Y2399D01*
X3739Y2415D01*
X3738Y2431D01*
X3734Y2447D01*
X3728Y2462D01*
X3719Y2476D01*
X3709Y2489D01*
X3696Y2499D01*
X3682Y2508D01*
X3667Y2514D01*
X3651Y2518D01*
X3635Y2519D01*
D02*
G37*
G36*
X1325Y2210D02*
X1321Y2209D01*
X1312Y2206D01*
X1305Y2200D01*
X1299Y2193D01*
X1296Y2184D01*
X1295Y2180D01*
X1325D01*
Y2210D01*
D02*
G37*
G36*
X1335D02*
Y2180D01*
X1365D01*
X1364Y2184D01*
X1361Y2193D01*
X1355Y2200D01*
X1348Y2206D01*
X1339Y2209D01*
X1335Y2210D01*
D02*
G37*
G36*
X2335Y1639D02*
Y1605D01*
X2369D01*
X2369Y1610D01*
X2365Y1620D01*
X2358Y1628D01*
X2350Y1635D01*
X2340Y1639D01*
X2335Y1639D01*
D02*
G37*
G36*
X2100D02*
Y1605D01*
X2134D01*
X2134Y1610D01*
X2130Y1620D01*
X2123Y1628D01*
X2115Y1635D01*
X2105Y1639D01*
X2100Y1639D01*
D02*
G37*
G36*
X2090D02*
X2085Y1639D01*
X2075Y1635D01*
X2067Y1628D01*
X2060Y1620D01*
X2056Y1610D01*
X2056Y1605D01*
X2090D01*
Y1639D01*
D02*
G37*
G36*
X1870D02*
Y1605D01*
X1904D01*
X1904Y1610D01*
X1900Y1620D01*
X1893Y1628D01*
X1885Y1635D01*
X1875Y1639D01*
X1870Y1639D01*
D02*
G37*
G36*
X2965Y1665D02*
X2961Y1664D01*
X2952Y1661D01*
X2945Y1655D01*
X2939Y1648D01*
X2936Y1639D01*
X2935Y1635D01*
X2965D01*
Y1665D01*
D02*
G37*
G36*
X2975D02*
Y1635D01*
X3005D01*
X3004Y1639D01*
X3001Y1648D01*
X2995Y1655D01*
X2988Y1661D01*
X2979Y1664D01*
X2975Y1665D01*
D02*
G37*
G36*
X1105Y1665D02*
X1070D01*
Y1630D01*
X1105D01*
Y1665D01*
D02*
G37*
G36*
X1150D02*
X1115D01*
Y1630D01*
X1150D01*
Y1665D01*
D02*
G37*
G36*
X3375Y1605D02*
X3371Y1604D01*
X3362Y1601D01*
X3355Y1595D01*
X3349Y1588D01*
X3346Y1579D01*
X3345Y1575D01*
X3375D01*
Y1605D01*
D02*
G37*
G36*
X3385D02*
Y1575D01*
X3415D01*
X3414Y1579D01*
X3411Y1588D01*
X3405Y1595D01*
X3398Y1601D01*
X3389Y1604D01*
X3385Y1605D01*
D02*
G37*
G36*
X2232Y1637D02*
X2158D01*
Y1563D01*
X2232D01*
Y1637D01*
D02*
G37*
G36*
X2467D02*
X2393D01*
Y1563D01*
X2467D01*
Y1637D01*
D02*
G37*
G36*
X1860Y1639D02*
X1855Y1639D01*
X1845Y1635D01*
X1837Y1628D01*
X1830Y1620D01*
X1826Y1610D01*
X1826Y1605D01*
X1860D01*
Y1639D01*
D02*
G37*
G36*
X2325D02*
X2320Y1639D01*
X2310Y1635D01*
X2302Y1628D01*
X2295Y1620D01*
X2291Y1610D01*
X2291Y1605D01*
X2325D01*
Y1639D01*
D02*
G37*
G36*
X2965Y1625D02*
X2935D01*
X2936Y1621D01*
X2939Y1612D01*
X2945Y1605D01*
X2952Y1599D01*
X2961Y1596D01*
X2965Y1595D01*
Y1625D01*
D02*
G37*
G36*
X3005D02*
X2975D01*
Y1595D01*
X2979Y1596D01*
X2988Y1599D01*
X2995Y1605D01*
X3001Y1612D01*
X3004Y1621D01*
X3005Y1625D01*
D02*
G37*
G36*
X3705Y1835D02*
X3675D01*
X3676Y1831D01*
X3679Y1822D01*
X3685Y1815D01*
X3692Y1809D01*
X3701Y1806D01*
X3705Y1805D01*
Y1835D01*
D02*
G37*
G36*
X3745D02*
X3715D01*
Y1805D01*
X3719Y1806D01*
X3728Y1809D01*
X3735Y1815D01*
X3741Y1822D01*
X3744Y1831D01*
X3745Y1835D01*
D02*
G37*
G36*
X2684Y1806D02*
X2655D01*
X2655Y1801D01*
X2659Y1793D01*
X2664Y1786D01*
X2672Y1780D01*
X2680Y1777D01*
X2684Y1776D01*
Y1806D01*
D02*
G37*
G36*
X2724D02*
X2694D01*
Y1776D01*
X2699Y1777D01*
X2707Y1780D01*
X2714Y1786D01*
X2720Y1793D01*
X2723Y1801D01*
X2724Y1806D01*
D02*
G37*
G36*
X1110Y1907D02*
X1100Y1906D01*
X1092Y1902D01*
X1084Y1896D01*
X1078Y1888D01*
X1074Y1880D01*
X1073Y1870D01*
X1074Y1860D01*
X1078Y1852D01*
X1084Y1844D01*
X1092Y1838D01*
X1100Y1834D01*
X1110Y1833D01*
X1120Y1834D01*
X1128Y1838D01*
X1136Y1844D01*
X1142Y1852D01*
X1146Y1860D01*
X1147Y1870D01*
X1146Y1880D01*
X1142Y1888D01*
X1136Y1896D01*
X1128Y1902D01*
X1120Y1906D01*
X1110Y1907D01*
D02*
G37*
G36*
X3705Y1875D02*
X3701Y1874D01*
X3692Y1871D01*
X3685Y1865D01*
X3679Y1858D01*
X3676Y1849D01*
X3675Y1845D01*
X3705D01*
Y1875D01*
D02*
G37*
G36*
X2684Y1845D02*
X2680Y1845D01*
X2672Y1841D01*
X2664Y1836D01*
X2659Y1828D01*
X2655Y1820D01*
X2655Y1816D01*
X2684D01*
Y1845D01*
D02*
G37*
G36*
X2694D02*
Y1816D01*
X2724D01*
X2723Y1820D01*
X2720Y1828D01*
X2714Y1836D01*
X2707Y1841D01*
X2699Y1845D01*
X2694Y1845D01*
D02*
G37*
G36*
X1480Y1755D02*
X1444D01*
X1445Y1749D01*
X1449Y1739D01*
X1455Y1730D01*
X1464Y1724D01*
X1474Y1720D01*
X1480Y1719D01*
Y1755D01*
D02*
G37*
G36*
X1526D02*
X1490D01*
Y1719D01*
X1496Y1720D01*
X1506Y1724D01*
X1515Y1730D01*
X1521Y1739D01*
X1525Y1749D01*
X1526Y1755D01*
D02*
G37*
G36*
X1105Y1710D02*
X1070D01*
Y1675D01*
X1105D01*
Y1710D01*
D02*
G37*
G36*
X1150D02*
X1115D01*
Y1675D01*
X1150D01*
Y1710D01*
D02*
G37*
G36*
X1480Y1801D02*
X1474Y1800D01*
X1464Y1796D01*
X1455Y1790D01*
X1449Y1781D01*
X1445Y1771D01*
X1444Y1765D01*
X1480D01*
Y1801D01*
D02*
G37*
G36*
X1490D02*
Y1765D01*
X1526D01*
X1525Y1771D01*
X1521Y1781D01*
X1515Y1790D01*
X1506Y1796D01*
X1496Y1800D01*
X1490Y1801D01*
D02*
G37*
G36*
X1385Y1799D02*
X1375Y1798D01*
X1366Y1794D01*
X1358Y1787D01*
X1351Y1779D01*
X1347Y1770D01*
X1346Y1760D01*
X1347Y1750D01*
X1351Y1741D01*
X1358Y1733D01*
X1366Y1726D01*
X1375Y1722D01*
X1385Y1721D01*
X1395Y1722D01*
X1404Y1726D01*
X1412Y1733D01*
X1419Y1741D01*
X1423Y1750D01*
X1424Y1760D01*
X1423Y1770D01*
X1419Y1779D01*
X1412Y1787D01*
X1404Y1794D01*
X1395Y1798D01*
X1385Y1799D01*
D02*
G37*
G36*
X1110Y1807D02*
X1100Y1806D01*
X1092Y1802D01*
X1084Y1796D01*
X1078Y1788D01*
X1074Y1780D01*
X1073Y1770D01*
X1074Y1760D01*
X1078Y1752D01*
X1084Y1744D01*
X1092Y1738D01*
X1100Y1734D01*
X1110Y1733D01*
X1120Y1734D01*
X1128Y1738D01*
X1136Y1744D01*
X1142Y1752D01*
X1146Y1760D01*
X1147Y1770D01*
X1146Y1780D01*
X1142Y1788D01*
X1136Y1796D01*
X1128Y1802D01*
X1120Y1806D01*
X1110Y1807D01*
D02*
G37*
%LPD*%
D25*
X3135Y2260D02*
Y2310D01*
X3050Y2510D02*
X3135D01*
X3243Y2087D02*
X3315D01*
X3337Y2065D01*
X3290Y1760D02*
Y1988D01*
X3135Y2260D02*
X3235Y2160D01*
X2800Y2260D02*
X3050Y2510D01*
X2785Y2260D02*
X2800D01*
X3250Y2050D02*
X3300D01*
X3337Y1782D02*
Y2065D01*
X3288Y1988D02*
X3290D01*
Y1760D02*
X3315D01*
X3337Y1782D01*
X2715Y2255D02*
Y2265D01*
Y2255D02*
X2747Y2223D01*
X2833D01*
X2675Y2253D02*
Y2450D01*
X3088Y2188D02*
X3288Y1988D01*
X3095Y2205D02*
X3250Y2050D01*
X2675Y2253D02*
X2723Y2205D01*
X3095D01*
X3070Y2460D02*
X3175D01*
X2833Y2223D02*
X3070Y2460D01*
X2926Y2264D02*
X3066D01*
X3243Y2087D01*
X2370Y1760D02*
X2495Y1885D01*
X1585Y1760D02*
X2370D01*
X2160Y2185D02*
Y2190D01*
Y2185D02*
X2163Y2188D01*
X3088D01*
X2625Y2500D02*
X2675Y2450D01*
X1870Y2500D02*
X2625D01*
X1780Y2410D02*
X1870Y2500D01*
X1780Y1955D02*
Y2410D01*
X1585Y1760D02*
X1780Y1955D01*
D26*
X1585Y1760D02*
D03*
X1485D02*
D03*
X1385D02*
D03*
D27*
X2430Y1600D02*
D03*
X2195D02*
D03*
X1965D02*
D03*
X2930Y1160D02*
D03*
X2680D02*
D03*
X2430D02*
D03*
X2180D02*
D03*
X1935D02*
D03*
X1685D02*
D03*
X1435D02*
D03*
X1185D02*
D03*
D28*
X2330Y1600D02*
D03*
X2095D02*
D03*
X1865D02*
D03*
X1110Y1970D02*
D03*
Y1870D02*
D03*
Y1770D02*
D03*
X2830Y1160D02*
D03*
X2580D02*
D03*
X2330D02*
D03*
X2080D02*
D03*
X1835D02*
D03*
X1585D02*
D03*
X1335D02*
D03*
X1085D02*
D03*
D29*
X1110Y1670D02*
D03*
D30*
X3635Y1155D02*
D03*
Y2415D02*
D03*
X1180Y2410D02*
D03*
D31*
X3300Y2050D02*
D03*
X2095Y1350D02*
D03*
X1350D02*
D03*
X2689Y1811D02*
D03*
X2965Y1050D02*
D03*
X3123Y2027D02*
D03*
X3710Y1840D02*
D03*
X3005Y2070D02*
D03*
X1912Y2442D02*
D03*
X1725Y2125D02*
D03*
X2210Y2070D02*
D03*
X2595Y1350D02*
D03*
X2345D02*
D03*
X1850D02*
D03*
X1600D02*
D03*
X1100D02*
D03*
X2970Y1630D02*
D03*
X3135Y2510D02*
D03*
Y2310D02*
D03*
X2845Y1350D02*
D03*
X3290Y1760D02*
D03*
X3175Y2460D02*
D03*
X3265Y1420D02*
D03*
X3380Y1570D02*
D03*
X2675Y2450D02*
D03*
X3235Y2160D02*
D03*
X2785Y2260D02*
D03*
X1330Y2175D02*
D03*
X2495Y1885D02*
D03*
X2580Y2355D02*
D03*
X2715Y2265D02*
D03*
X2926Y2264D02*
D03*
X2160Y2185D02*
D03*
M02*
