G04 Layer_Color=8421504*
%FSLAX25Y25*%
%MOIN*%
G70*
G01*
G75*
%ADD10R,0.02756X0.03937*%
%ADD11R,0.04331X0.06693*%
%ADD12R,0.10630X0.03740*%
%ADD13R,0.05512X0.22244*%
%ADD14R,0.02756X0.03543*%
%ADD15R,0.11024X0.03150*%
%ADD16R,0.11417X0.34252*%
%ADD17R,0.12598X0.03543*%
%ADD18R,0.03543X0.02756*%
%ADD19R,0.12795X0.03543*%
%ADD20R,0.09055X0.03937*%
%ADD21R,0.03150X0.03937*%
%ADD22O,0.06299X0.01772*%
%ADD23O,0.01969X0.05315*%
%ADD27R,0.03150X0.31496*%
%ADD28R,0.05512X0.39764*%
%ADD29R,0.14567X0.38189*%
D10*
X141142Y230315D02*
D03*
X144882D02*
D03*
X148622D02*
D03*
Y240551D02*
D03*
X141142D02*
D03*
D11*
X113386Y218504D02*
D03*
X102756D02*
D03*
X77953Y219291D02*
D03*
X88583D02*
D03*
D12*
X483661Y431303D02*
D03*
Y413272D02*
D03*
X403937Y430866D02*
D03*
Y412835D02*
D03*
X219291Y432244D02*
D03*
Y414213D02*
D03*
X298031Y432244D02*
D03*
Y414213D02*
D03*
X248228Y72677D02*
D03*
Y90709D02*
D03*
X422441Y70744D02*
D03*
Y88775D02*
D03*
X510445Y69138D02*
D03*
Y87169D02*
D03*
X326783Y72622D02*
D03*
Y90654D02*
D03*
D13*
X517913Y422287D02*
D03*
X438189Y421850D02*
D03*
X253543Y423228D02*
D03*
X332283D02*
D03*
X213976Y81693D02*
D03*
X388189Y79760D02*
D03*
X476193Y78154D02*
D03*
X292531Y81638D02*
D03*
D14*
X469488Y431102D02*
D03*
X475394D02*
D03*
X389764Y431102D02*
D03*
X395669D02*
D03*
X204724Y432087D02*
D03*
X210630D02*
D03*
X283465D02*
D03*
X289370D02*
D03*
X437008Y70902D02*
D03*
X431102D02*
D03*
X524606Y68933D02*
D03*
X518701D02*
D03*
X263779Y72835D02*
D03*
X257874D02*
D03*
X341535Y72835D02*
D03*
X335630D02*
D03*
D15*
X100199Y326575D02*
D03*
Y321850D02*
D03*
Y317126D02*
D03*
Y293504D02*
D03*
Y298228D02*
D03*
Y302953D02*
D03*
Y307677D02*
D03*
Y312402D02*
D03*
X100396Y137598D02*
D03*
Y132874D02*
D03*
Y128150D02*
D03*
Y104527D02*
D03*
Y109252D02*
D03*
Y113976D02*
D03*
Y118701D02*
D03*
Y123425D02*
D03*
D16*
X135827Y310039D02*
D03*
X136024Y121063D02*
D03*
D17*
X35433Y72835D02*
D03*
Y51181D02*
D03*
X82677Y72835D02*
D03*
Y51181D02*
D03*
D18*
X134843Y225394D02*
D03*
Y219488D02*
D03*
D19*
X424213Y188421D02*
D03*
Y166374D02*
D03*
X510827Y189012D02*
D03*
Y166964D02*
D03*
D20*
X478346Y334646D02*
D03*
Y327953D02*
D03*
X399606Y334646D02*
D03*
Y327953D02*
D03*
X293307Y334449D02*
D03*
Y327756D02*
D03*
X214567Y336417D02*
D03*
Y329724D02*
D03*
X252953Y168504D02*
D03*
Y175197D02*
D03*
X332677Y168504D02*
D03*
Y175197D02*
D03*
D21*
X486024Y334646D02*
D03*
Y327953D02*
D03*
X407283Y334646D02*
D03*
Y327953D02*
D03*
X300984Y334449D02*
D03*
Y327756D02*
D03*
X222244Y336417D02*
D03*
Y329724D02*
D03*
X245276Y168504D02*
D03*
Y175197D02*
D03*
X325000Y168504D02*
D03*
Y175197D02*
D03*
D22*
X98819Y155413D02*
D03*
Y152854D02*
D03*
Y150295D02*
D03*
Y147736D02*
D03*
X115748Y155413D02*
D03*
Y152854D02*
D03*
Y150295D02*
D03*
Y147736D02*
D03*
X98819Y344390D02*
D03*
Y341831D02*
D03*
Y339272D02*
D03*
Y336713D02*
D03*
X115748Y344390D02*
D03*
Y341831D02*
D03*
Y339272D02*
D03*
Y336713D02*
D03*
D23*
X13189Y51181D02*
D03*
X15748D02*
D03*
X18307D02*
D03*
X20866D02*
D03*
X13189Y69095D02*
D03*
X15748D02*
D03*
X18307D02*
D03*
X20866D02*
D03*
X61024Y51181D02*
D03*
X63583D02*
D03*
X66142D02*
D03*
X68701D02*
D03*
X61024Y69095D02*
D03*
X63583D02*
D03*
X66142D02*
D03*
X68701D02*
D03*
X487303Y169228D02*
D03*
X489862D02*
D03*
X492421D02*
D03*
X494980D02*
D03*
X487303Y187142D02*
D03*
X489862D02*
D03*
X492421D02*
D03*
X494980D02*
D03*
X399658Y168905D02*
D03*
X402216D02*
D03*
X404776D02*
D03*
X407335D02*
D03*
X399658Y186819D02*
D03*
X402216D02*
D03*
X404776D02*
D03*
X407335D02*
D03*
X422193Y340362D02*
D03*
X419634D02*
D03*
X417075D02*
D03*
X414516D02*
D03*
X422193Y322449D02*
D03*
X419634D02*
D03*
X417075D02*
D03*
X414516D02*
D03*
X230366Y163102D02*
D03*
X232925D02*
D03*
X235484D02*
D03*
X238043D02*
D03*
X230366Y181016D02*
D03*
X232925D02*
D03*
X235484D02*
D03*
X238043D02*
D03*
X314910Y340500D02*
D03*
X312350D02*
D03*
X309791D02*
D03*
X307232D02*
D03*
X314910Y322587D02*
D03*
X312350D02*
D03*
X309791D02*
D03*
X307232D02*
D03*
X310090Y162965D02*
D03*
X312650D02*
D03*
X315209D02*
D03*
X317768D02*
D03*
X310090Y180878D02*
D03*
X312650D02*
D03*
X315209D02*
D03*
X317768D02*
D03*
X237154Y342138D02*
D03*
X234594D02*
D03*
X232035D02*
D03*
X229476D02*
D03*
X237154Y324224D02*
D03*
X234594D02*
D03*
X232035D02*
D03*
X229476D02*
D03*
X500933Y340158D02*
D03*
X498374D02*
D03*
X495815D02*
D03*
X493256D02*
D03*
X500933Y322244D02*
D03*
X498374D02*
D03*
X495815D02*
D03*
X493256D02*
D03*
D27*
X104134Y307677D02*
D03*
X104331Y118701D02*
D03*
D28*
X144291Y310039D02*
D03*
X144488Y121063D02*
D03*
D29*
X122835Y310039D02*
D03*
X123031Y121063D02*
D03*
M02*
