M48
;Layer_Color=9474304
;FILE_FORMAT=2:5
INCH,LZ
;TYPE=PLATED
T1F00S00C0.01500
T2F00S00C0.03000
T3F00S00C0.03543
T4F00S00C0.03937
T5F00S00C0.07874
T6F00S00C0.11000
%
T01
X0004921Y0051181
X0054134
X0391732Y0169291
X0393701Y0187043
X0481299
X0480315Y0169291
X030315Y0163386
X0305878Y0180878
X022441Y0179724
X0221457Y0163386
X0166142Y0163976
X0161024Y0164173
X0142323Y0134055
Y0129724
Y0125394
Y0121063
Y0116732
X0137992
X0133661
X0129331
X0125
X0120669
Y0112402
Y0108071
X0125
X0129331
X0133661
X0137992
X0142323
Y0112402
X0137992
X0133661
X0129331
X0125
Y0121063
X0129331
X0133661
X0137992
Y0125394
X0133661
X0129331
X0125
X0120669
Y0129724
Y0134055
X0125
Y0129724
X0129331
X0133661
X0137992
Y0134055
X0133661
X0129331
X0123031Y0147638
X0120669Y0121063
X0108268Y008937
Y007874
X006811Y0075197
X0007382Y0069095
X0140157Y0219685
X0148819Y0224803
X0142126Y0297047
X0137795
X0133465
X0129134
X0124803
X0120472
Y0301378
Y0305709
X0124803
Y0301378
X0129134
X0133465
X0137795
X0142126
Y0305709
X0137795
X0133465
X0129134
Y0310039
X0124803
Y031437
X0120472
Y0318701
Y0323031
X0124803
Y0318701
X0129134
Y031437
X0133465
Y0310039
X0137795
X0142126
Y031437
X0137795
Y0318701
X0133465
Y0323031
X0129134
X0137795
X0142126
Y0318701
X0120472Y0310039
X0123031Y0336614
X0245079Y034252
X0242126Y0323819
X0319146Y0322587
X0322835Y0340551
X0429134
X0426772Y0323228
X0505315Y0322244
X0508858Y0340551
T02
X009685Y0206693
X0224173Y0218543
X0234173
X0244173
X0254173
X0264173
X0274173
X0284173
X0294173
X0304173
X0314173
X0324173
X0334173
X0344173
X0354173
X0364173
Y0278543
X0354173
X0344173
X0334173
X0324173
X0314173
X0304173
X0294173
X0284173
X0274173
X0264173
X0254173
X0244173
X0234173
X0224173
X0374173
X0384173
Y0218543
X0374173
T03
X035378Y0068504
X0363779
X0125984Y022622
Y0236221
X0139764Y0261417
X0149764
X0354173Y0434646
X0364173
T04
X008563Y0236221
X009563
X010563
T05
X0529528Y0089602
X0440945
X0344488Y0091535
X0265748Y0090551
X0386811Y041437
X0466535
X0280512Y041437
X0201772
T06
X0538386Y0139799
X0515786Y0141199
Y0123899
X0476786
X0476386Y0141199
X0436986
Y0123899
X0397586
Y0141199
X0374986Y0139799
X0355329Y0133858
X0332729Y0135258
Y0117958
X0293729
X0293329Y0135258
X0253929
Y0117958
X0214529
Y0135258
X0191929Y0133858
X0036395Y0146463
X0019094Y0146063
Y0107063
X0036395
X0034995Y0084463
X0036395Y0185863
X0019094
Y0225263
X0036395
X0034995Y0247863
Y0270487
X0036395Y0293087
X0019094
Y0332087
X0036395Y0332487
X0540354Y0371063
X0517754Y0369663
Y0386963
X0478354
Y0369663
X0438954
X0438554Y0386963
X0399554
Y0369663
X0376954Y0371063
X0355337Y0371479
X0332737Y0370079
Y0387379
X0293337
Y0370079
X0253937
X0253537Y0387379
X0214537
Y0370079
X0191937Y0371479
X0036395Y0371887
X0019094
Y0411287
X0036395
X0034995Y0433887
M30
