G04 Layer_Color=8421504*
%FSLAX25Y25*%
%MOIN*%
G70*
G01*
G75*
%ADD10R,0.02756X0.03543*%
%ADD11R,0.03543X0.02756*%
%ADD12R,0.05906X0.06299*%
%ADD13R,0.06299X0.05906*%
%ADD14R,0.06693X0.04331*%
%ADD15R,0.04331X0.06693*%
%ADD16R,0.03937X0.09449*%
%ADD17R,0.12992X0.09449*%
%ADD18O,0.08268X0.01378*%
%ADD19R,0.05315X0.00866*%
%ADD20R,0.00866X0.05315*%
D10*
X377756Y467717D02*
D03*
X383661D02*
D03*
X232087Y455905D02*
D03*
X237992D02*
D03*
X470866Y367717D02*
D03*
X464961D02*
D03*
D11*
X467323Y430905D02*
D03*
Y425000D02*
D03*
X269685Y480905D02*
D03*
Y475000D02*
D03*
X233071Y480905D02*
D03*
Y475000D02*
D03*
X190551Y480905D02*
D03*
Y475000D02*
D03*
X174409Y436417D02*
D03*
Y430512D02*
D03*
X362205Y482480D02*
D03*
Y476575D02*
D03*
X330709Y481693D02*
D03*
Y475787D02*
D03*
X479134Y402362D02*
D03*
Y408268D02*
D03*
X139764Y433268D02*
D03*
Y427362D02*
D03*
X402000Y437094D02*
D03*
Y443000D02*
D03*
Y451594D02*
D03*
Y457500D02*
D03*
X483500Y474594D02*
D03*
Y480500D02*
D03*
D12*
X277858Y477953D02*
D03*
X289858D02*
D03*
X240850D02*
D03*
X252850D02*
D03*
X201780D02*
D03*
X213779D02*
D03*
X370772Y479134D02*
D03*
X382772D02*
D03*
X340457D02*
D03*
X352457D02*
D03*
D13*
X166142Y472535D02*
D03*
Y460535D02*
D03*
X146850Y472441D02*
D03*
Y460441D02*
D03*
D14*
X463779Y452165D02*
D03*
Y441535D02*
D03*
X415748Y320079D02*
D03*
Y330709D02*
D03*
X418898Y353937D02*
D03*
Y364567D02*
D03*
X309055Y348622D02*
D03*
Y337992D02*
D03*
X192000Y293500D02*
D03*
Y282870D02*
D03*
X135000Y294130D02*
D03*
Y283500D02*
D03*
X307500Y371500D02*
D03*
Y382130D02*
D03*
D15*
X374803Y387008D02*
D03*
X364173D02*
D03*
X344882Y277165D02*
D03*
X355512D02*
D03*
X293307Y325984D02*
D03*
X303937D02*
D03*
X354134Y387008D02*
D03*
X343504D02*
D03*
X405315Y387402D02*
D03*
X394685D02*
D03*
X305512Y291339D02*
D03*
X316142D02*
D03*
X283870Y303000D02*
D03*
X294500D02*
D03*
X431496Y343307D02*
D03*
X442126D02*
D03*
D16*
X155945Y292083D02*
D03*
X165000D02*
D03*
X174055D02*
D03*
D17*
X165000Y314917D02*
D03*
D18*
X419917Y432134D02*
D03*
Y429575D02*
D03*
Y427016D02*
D03*
Y424457D02*
D03*
Y421898D02*
D03*
Y419339D02*
D03*
Y416780D02*
D03*
Y414220D02*
D03*
Y411661D02*
D03*
Y409102D02*
D03*
Y406543D02*
D03*
Y403984D02*
D03*
Y401425D02*
D03*
Y398866D02*
D03*
X447083Y432134D02*
D03*
Y429575D02*
D03*
Y427016D02*
D03*
Y424457D02*
D03*
Y421898D02*
D03*
Y419339D02*
D03*
Y416780D02*
D03*
Y414220D02*
D03*
Y411661D02*
D03*
Y409102D02*
D03*
Y406543D02*
D03*
Y403984D02*
D03*
Y401425D02*
D03*
Y398866D02*
D03*
D19*
X407331Y296051D02*
D03*
Y298020D02*
D03*
Y299988D02*
D03*
Y301957D02*
D03*
Y303925D02*
D03*
Y305894D02*
D03*
Y307862D02*
D03*
Y309831D02*
D03*
Y311799D02*
D03*
Y313768D02*
D03*
Y315736D02*
D03*
Y317705D02*
D03*
Y319673D02*
D03*
Y321642D02*
D03*
Y323610D02*
D03*
Y325579D02*
D03*
Y327547D02*
D03*
Y329516D02*
D03*
Y331484D02*
D03*
Y333453D02*
D03*
Y335421D02*
D03*
Y337390D02*
D03*
Y339358D02*
D03*
Y341327D02*
D03*
Y343295D02*
D03*
Y345264D02*
D03*
Y347232D02*
D03*
Y349201D02*
D03*
Y351169D02*
D03*
Y353138D02*
D03*
Y355106D02*
D03*
Y357075D02*
D03*
Y359043D02*
D03*
Y361012D02*
D03*
Y362980D02*
D03*
Y364949D02*
D03*
X323669D02*
D03*
Y362980D02*
D03*
Y361012D02*
D03*
Y359043D02*
D03*
Y357075D02*
D03*
Y355106D02*
D03*
Y353138D02*
D03*
Y351169D02*
D03*
Y349201D02*
D03*
Y347232D02*
D03*
Y345264D02*
D03*
Y343295D02*
D03*
Y341327D02*
D03*
Y339358D02*
D03*
Y337390D02*
D03*
Y335421D02*
D03*
Y333453D02*
D03*
Y331484D02*
D03*
Y329516D02*
D03*
Y327547D02*
D03*
Y325579D02*
D03*
Y323610D02*
D03*
Y321642D02*
D03*
Y319673D02*
D03*
Y317705D02*
D03*
Y315736D02*
D03*
Y313768D02*
D03*
Y311799D02*
D03*
Y309831D02*
D03*
Y307862D02*
D03*
Y305894D02*
D03*
Y303925D02*
D03*
Y301957D02*
D03*
Y299988D02*
D03*
Y298020D02*
D03*
Y296051D02*
D03*
D20*
X399949Y372331D02*
D03*
X397980D02*
D03*
X396012D02*
D03*
X394043D02*
D03*
X392075D02*
D03*
X390106D02*
D03*
X388138D02*
D03*
X386169D02*
D03*
X384201D02*
D03*
X382232D02*
D03*
X380264D02*
D03*
X378295D02*
D03*
X376327D02*
D03*
X374358D02*
D03*
X372390D02*
D03*
X370421D02*
D03*
X368453D02*
D03*
X366484D02*
D03*
X364516D02*
D03*
X362547D02*
D03*
X360579D02*
D03*
X358610D02*
D03*
X356642D02*
D03*
X354673D02*
D03*
X352705D02*
D03*
X350736D02*
D03*
X348768D02*
D03*
X346799D02*
D03*
X344831D02*
D03*
X342862D02*
D03*
X340894D02*
D03*
X338925D02*
D03*
X336957D02*
D03*
X334988D02*
D03*
X333020D02*
D03*
X331051D02*
D03*
Y288669D02*
D03*
X333020D02*
D03*
X334988D02*
D03*
X336957D02*
D03*
X338925D02*
D03*
X340894D02*
D03*
X342862D02*
D03*
X344831D02*
D03*
X346799D02*
D03*
X348768D02*
D03*
X350736D02*
D03*
X352705D02*
D03*
X354673D02*
D03*
X356642D02*
D03*
X358610D02*
D03*
X360579D02*
D03*
X362547D02*
D03*
X364516D02*
D03*
X366484D02*
D03*
X368453D02*
D03*
X370421D02*
D03*
X372390D02*
D03*
X374358D02*
D03*
X376327D02*
D03*
X378295D02*
D03*
X380264D02*
D03*
X382232D02*
D03*
X384201D02*
D03*
X386169D02*
D03*
X388138D02*
D03*
X390106D02*
D03*
X392075D02*
D03*
X394043D02*
D03*
X396012D02*
D03*
X397980D02*
D03*
X399949D02*
D03*
M02*
