G04 Layer_Color=8388736*
%FSLAX23Y23*%
%MOIN*%
G70*
G01*
G75*
%ADD36O,0.085X0.016*%
%ADD37O,0.016X0.085*%
%ADD38R,0.091X0.228*%
%ADD39R,0.158X0.028*%
%ADD40O,0.158X0.028*%
%ADD41R,0.036X0.043*%
%ADD42R,0.051X0.075*%
%ADD43R,0.075X0.061*%
%ADD44R,0.043X0.036*%
%ADD45R,0.128X0.079*%
%ADD46R,0.075X0.051*%
%ADD47R,0.024X0.043*%
%ADD48R,0.083X0.059*%
%ADD49C,0.071*%
%ADD50C,0.068*%
%ADD51C,0.067*%
%ADD52R,0.067X0.067*%
%ADD53R,0.067X0.067*%
%ADD54C,0.058*%
D36*
X2315Y2081D02*
D03*
Y2062D02*
D03*
Y2042D02*
D03*
Y2022D02*
D03*
Y2002D02*
D03*
Y1983D02*
D03*
Y1963D02*
D03*
Y1943D02*
D03*
Y1924D02*
D03*
Y1904D02*
D03*
Y1884D02*
D03*
Y1865D02*
D03*
Y1845D02*
D03*
Y1825D02*
D03*
Y1806D02*
D03*
Y1786D02*
D03*
Y1766D02*
D03*
Y1747D02*
D03*
Y1727D02*
D03*
Y1707D02*
D03*
Y1688D02*
D03*
Y1668D02*
D03*
Y1648D02*
D03*
Y1628D02*
D03*
Y1609D02*
D03*
X2915D02*
D03*
Y1628D02*
D03*
Y1648D02*
D03*
Y1668D02*
D03*
Y1688D02*
D03*
Y1707D02*
D03*
Y1727D02*
D03*
Y1747D02*
D03*
Y1766D02*
D03*
Y1786D02*
D03*
Y1806D02*
D03*
Y1825D02*
D03*
Y1845D02*
D03*
Y1865D02*
D03*
Y1884D02*
D03*
Y1904D02*
D03*
Y1924D02*
D03*
Y1943D02*
D03*
Y1963D02*
D03*
Y1983D02*
D03*
Y2002D02*
D03*
Y2022D02*
D03*
Y2042D02*
D03*
Y2062D02*
D03*
Y2081D02*
D03*
D37*
X2379Y1545D02*
D03*
X2398D02*
D03*
X2418D02*
D03*
X2438D02*
D03*
X2458D02*
D03*
X2477D02*
D03*
X2497D02*
D03*
X2517D02*
D03*
X2536D02*
D03*
X2556D02*
D03*
X2576D02*
D03*
X2595D02*
D03*
X2615D02*
D03*
X2635D02*
D03*
X2654D02*
D03*
X2674D02*
D03*
X2694D02*
D03*
X2713D02*
D03*
X2733D02*
D03*
X2753D02*
D03*
X2772D02*
D03*
X2792D02*
D03*
X2812D02*
D03*
X2832D02*
D03*
X2851D02*
D03*
Y2145D02*
D03*
X2832D02*
D03*
X2812D02*
D03*
X2792D02*
D03*
X2772D02*
D03*
X2753D02*
D03*
X2733D02*
D03*
X2713D02*
D03*
X2694D02*
D03*
X2674D02*
D03*
X2654D02*
D03*
X2635D02*
D03*
X2615D02*
D03*
X2595D02*
D03*
X2576D02*
D03*
X2556D02*
D03*
X2536D02*
D03*
X2517D02*
D03*
X2497D02*
D03*
X2477D02*
D03*
X2458D02*
D03*
X2438D02*
D03*
X2418D02*
D03*
X2398D02*
D03*
X2379D02*
D03*
D38*
X3100Y2194D02*
D03*
Y1820D02*
D03*
D39*
X2515Y2505D02*
D03*
D40*
Y2455D02*
D03*
Y2405D02*
D03*
Y2355D02*
D03*
Y2305D02*
D03*
X2715Y2505D02*
D03*
Y2455D02*
D03*
Y2405D02*
D03*
Y2355D02*
D03*
Y2305D02*
D03*
D41*
X2146Y1500D02*
D03*
X2205D02*
D03*
X2905Y1350D02*
D03*
X2965D02*
D03*
X2655D02*
D03*
X2715D02*
D03*
X2405D02*
D03*
X2465D02*
D03*
X2155D02*
D03*
X2215D02*
D03*
X1906Y1350D02*
D03*
X1965D02*
D03*
X1655Y1350D02*
D03*
X1715D02*
D03*
X1406Y1350D02*
D03*
X1465D02*
D03*
X1156D02*
D03*
X1215D02*
D03*
D42*
X2015Y1770D02*
D03*
X1909D02*
D03*
X2015Y1640D02*
D03*
X1909D02*
D03*
X1912Y2005D02*
D03*
X2018D02*
D03*
X1912Y2125D02*
D03*
X2018D02*
D03*
X1912Y2360D02*
D03*
X2018D02*
D03*
X1912Y2240D02*
D03*
X2018D02*
D03*
D43*
X2120Y1771D02*
D03*
Y1699D02*
D03*
D44*
X2090Y2151D02*
D03*
Y2210D02*
D03*
D45*
X1604Y2265D02*
D03*
X1460D02*
D03*
D46*
X1590Y1618D02*
D03*
Y1512D02*
D03*
X1385Y1618D02*
D03*
Y1512D02*
D03*
X3060Y1321D02*
D03*
Y1215D02*
D03*
X3285Y1427D02*
D03*
Y1533D02*
D03*
X3265Y1855D02*
D03*
Y1961D02*
D03*
Y2201D02*
D03*
Y2095D02*
D03*
D47*
X2935Y1244D02*
D03*
X2915Y1296D02*
D03*
X2955D02*
D03*
X2685Y1244D02*
D03*
X2665Y1296D02*
D03*
X2705D02*
D03*
X2435Y1244D02*
D03*
X2415Y1296D02*
D03*
X2455D02*
D03*
X2185Y1245D02*
D03*
X2165Y1296D02*
D03*
X2205D02*
D03*
X1935Y1245D02*
D03*
X1915Y1296D02*
D03*
X1955D02*
D03*
X1685Y1244D02*
D03*
X1665Y1296D02*
D03*
X1705D02*
D03*
X1435Y1245D02*
D03*
X1415Y1296D02*
D03*
X1455D02*
D03*
X1185Y1244D02*
D03*
X1166Y1295D02*
D03*
X1205D02*
D03*
D48*
X3180Y1425D02*
D03*
Y1642D02*
D03*
X3054Y1425D02*
D03*
Y1642D02*
D03*
D49*
X1585Y1760D02*
D03*
X1485D02*
D03*
X1385D02*
D03*
D50*
X3240Y1150D02*
D03*
Y2410D02*
D03*
X1180D02*
D03*
D51*
X1110Y1970D02*
D03*
Y1870D02*
D03*
Y1770D02*
D03*
X2835Y1160D02*
D03*
X2585D02*
D03*
X2335D02*
D03*
X2085D02*
D03*
X1835D02*
D03*
X1585D02*
D03*
X1335D02*
D03*
X1085D02*
D03*
D52*
X1110Y1670D02*
D03*
D53*
X2935Y1160D02*
D03*
X2685D02*
D03*
X2435D02*
D03*
X2185D02*
D03*
X1935D02*
D03*
X1685D02*
D03*
X1435D02*
D03*
X1185D02*
D03*
D54*
X3030Y2020D02*
D03*
X2510Y2255D02*
D03*
X2635Y2235D02*
D03*
X2190Y1810D02*
D03*
X2735Y1470D02*
D03*
X2850Y1350D02*
D03*
X2100D02*
D03*
X1350D02*
D03*
X2115Y1635D02*
D03*
X2399Y1806D02*
D03*
X3285Y1600D02*
D03*
X3145Y1290D02*
D03*
X2833Y2022D02*
D03*
X3265Y2030D02*
D03*
X2715Y2065D02*
D03*
X2390Y2355D02*
D03*
X1912Y2442D02*
D03*
X1725Y2125D02*
D03*
X1845Y1705D02*
D03*
X1355Y2265D02*
D03*
X1490Y1512D02*
D03*
X2600Y1350D02*
D03*
X2350D02*
D03*
X1850D02*
D03*
X1600D02*
D03*
X1100D02*
D03*
X2990Y1850D02*
D03*
X1605Y2100D02*
D03*
X1760Y1785D02*
D03*
X2085Y1500D02*
D03*
X2680Y1625D02*
D03*
X2160Y2185D02*
D03*
X2455Y2220D02*
D03*
X2880Y2455D02*
D03*
X2845Y2510D02*
D03*
X2945Y2205D02*
D03*
X2845Y2305D02*
D03*
M02*
