G04 Layer_Physical_Order=2*
G04 Layer_Color=16711680*
%FSLAX26Y26*%
%MOIN*%
%TF.FileFunction,Copper,L2,Bot,Signal*%
%TF.Part,Single*%
G01*
G75*
%TA.AperFunction,Conductor*%
%ADD10C,0.012000*%
%TA.AperFunction,ComponentPad*%
%ADD11C,0.055118*%
%ADD12C,0.059055*%
%ADD13R,0.059055X0.059055*%
%ADD14R,0.059055X0.059055*%
G36*
X3450000Y1750000D02*
X2935000D01*
Y2270000D01*
X3450000D01*
Y1750000D01*
D02*
G37*
%LPC*%
G36*
X3390000Y2054912D02*
X3378376Y2053381D01*
X3367544Y2048895D01*
X3358243Y2041757D01*
X3351105Y2032456D01*
X3346619Y2021624D01*
X3345088Y2010000D01*
X3346619Y1998376D01*
X3351105Y1987544D01*
X3358243Y1978243D01*
X3367544Y1971105D01*
X3378376Y1966619D01*
X3390000Y1965088D01*
X3401624Y1966619D01*
X3412456Y1971105D01*
X3421757Y1978243D01*
X3428895Y1987544D01*
X3433381Y1998376D01*
X3434912Y2010000D01*
X3433381Y2021624D01*
X3428895Y2032456D01*
X3421757Y2041757D01*
X3412456Y2048895D01*
X3401624Y2053381D01*
X3390000Y2054912D01*
D02*
G37*
G36*
X3000000Y1949210D02*
Y1915000D01*
X3034210D01*
X3033510Y1920319D01*
X3029527Y1929934D01*
X3023191Y1938191D01*
X3014934Y1944527D01*
X3005319Y1948510D01*
X3000000Y1949210D01*
D02*
G37*
G36*
X3385000Y2105000D02*
X3350472D01*
Y2070472D01*
X3385000D01*
Y2105000D01*
D02*
G37*
G36*
X3039528Y2254528D02*
X2950472D01*
Y2165472D01*
X2973589D01*
Y2054528D01*
X2950472D01*
Y1965473D01*
X3039528D01*
Y2054528D01*
X3016411D01*
Y2165472D01*
X3039528D01*
Y2254528D01*
D02*
G37*
G36*
X2990000Y1949210D02*
X2984681Y1948510D01*
X2975066Y1944527D01*
X2966809Y1938191D01*
X2960473Y1929934D01*
X2956490Y1920319D01*
X2955790Y1915000D01*
X2990000D01*
Y1949210D01*
D02*
G37*
G36*
X3390000Y1954912D02*
X3378376Y1953381D01*
X3367544Y1948895D01*
X3358243Y1941757D01*
X3351105Y1932456D01*
X3346619Y1921624D01*
X3345088Y1910000D01*
X3346619Y1898376D01*
X3351105Y1887544D01*
X3358243Y1878243D01*
X3367544Y1871105D01*
X3378376Y1866619D01*
X3390000Y1865088D01*
X3401624Y1866619D01*
X3412456Y1871105D01*
X3421757Y1878243D01*
X3428895Y1887544D01*
X3433381Y1898376D01*
X3434912Y1910000D01*
X3433381Y1921624D01*
X3428895Y1932456D01*
X3421757Y1941757D01*
X3412456Y1948895D01*
X3401624Y1953381D01*
X3390000Y1954912D01*
D02*
G37*
G36*
Y1854912D02*
X3378376Y1853381D01*
X3367544Y1848895D01*
X3358243Y1841757D01*
X3351105Y1832456D01*
X3350673Y1831411D01*
X3262197D01*
X3262175Y1831463D01*
X3255353Y1840353D01*
X3246463Y1847175D01*
X3236110Y1851464D01*
X3225000Y1852926D01*
X3213890Y1851464D01*
X3203537Y1847175D01*
X3194647Y1840353D01*
X3187825Y1831463D01*
X3187803Y1831411D01*
X3034327D01*
X3033895Y1832456D01*
X3026757Y1841757D01*
X3017456Y1848895D01*
X3006624Y1853381D01*
X2995000Y1854912D01*
X2983376Y1853381D01*
X2972544Y1848895D01*
X2963243Y1841757D01*
X2956105Y1832456D01*
X2951619Y1821624D01*
X2950088Y1810000D01*
X2951619Y1798376D01*
X2956105Y1787544D01*
X2963243Y1778243D01*
X2972544Y1771105D01*
X2983376Y1766619D01*
X2995000Y1765088D01*
X3006624Y1766619D01*
X3017456Y1771105D01*
X3026757Y1778243D01*
X3033895Y1787544D01*
X3034327Y1788589D01*
X3187803D01*
X3187825Y1788537D01*
X3194647Y1779647D01*
X3203537Y1772825D01*
X3213890Y1768536D01*
X3225000Y1767074D01*
X3236110Y1768536D01*
X3246463Y1772825D01*
X3255353Y1779647D01*
X3262175Y1788537D01*
X3262197Y1788589D01*
X3350673D01*
X3351105Y1787544D01*
X3358243Y1778243D01*
X3367544Y1771105D01*
X3378376Y1766619D01*
X3390000Y1765088D01*
X3401624Y1766619D01*
X3412456Y1771105D01*
X3421757Y1778243D01*
X3428895Y1787544D01*
X3433381Y1798376D01*
X3434912Y1810000D01*
X3433381Y1821624D01*
X3428895Y1832456D01*
X3421757Y1841757D01*
X3412456Y1848895D01*
X3401624Y1853381D01*
X3390000Y1854912D01*
D02*
G37*
G36*
X3034210Y1905000D02*
X3000000D01*
Y1870790D01*
X3005319Y1871490D01*
X3014934Y1875473D01*
X3023191Y1881809D01*
X3029527Y1890066D01*
X3033510Y1899681D01*
X3034210Y1905000D01*
D02*
G37*
G36*
X2990000D02*
X2955790D01*
X2956490Y1899681D01*
X2960473Y1890066D01*
X2966809Y1881809D01*
X2975066Y1875473D01*
X2984681Y1871490D01*
X2990000Y1870790D01*
Y1905000D01*
D02*
G37*
G36*
X3429528Y2105000D02*
X3395000D01*
Y2070472D01*
X3429528D01*
Y2105000D01*
D02*
G37*
G36*
X3220000Y2247225D02*
X3215195Y2246592D01*
X3206058Y2242808D01*
X3198213Y2236787D01*
X3192192Y2228942D01*
X3188408Y2219805D01*
X3187775Y2215000D01*
X3220000D01*
Y2247225D01*
D02*
G37*
G36*
X3262225Y2205000D02*
X3230000D01*
Y2172775D01*
X3234805Y2173408D01*
X3243942Y2177192D01*
X3251787Y2183213D01*
X3257808Y2191058D01*
X3261592Y2200195D01*
X3262225Y2205000D01*
D02*
G37*
G36*
X3090000Y2249210D02*
X3084681Y2248510D01*
X3075066Y2244527D01*
X3066809Y2238191D01*
X3060473Y2229934D01*
X3056490Y2220319D01*
X3055790Y2215000D01*
X3090000D01*
Y2249210D01*
D02*
G37*
G36*
X3230000Y2247225D02*
Y2215000D01*
X3262225D01*
X3261592Y2219805D01*
X3257808Y2228942D01*
X3251787Y2236787D01*
X3243942Y2242808D01*
X3234805Y2246592D01*
X3230000Y2247225D01*
D02*
G37*
G36*
X3100000Y2249210D02*
Y2215000D01*
X3134210D01*
X3133510Y2220319D01*
X3129527Y2229934D01*
X3123191Y2238191D01*
X3114934Y2244527D01*
X3105319Y2248510D01*
X3100000Y2249210D01*
D02*
G37*
G36*
X3429528Y2149528D02*
X3395000D01*
Y2115000D01*
X3429528D01*
Y2149528D01*
D02*
G37*
G36*
X3385000D02*
X3350472D01*
Y2115000D01*
X3385000D01*
Y2149528D01*
D02*
G37*
G36*
X3090000Y2205000D02*
X3055790D01*
X3056490Y2199681D01*
X3060473Y2190066D01*
X3066809Y2181809D01*
X3075066Y2175473D01*
X3084681Y2171490D01*
X3090000Y2170790D01*
Y2205000D01*
D02*
G37*
G36*
X3220000D02*
X3187775D01*
X3188408Y2200195D01*
X3192192Y2191058D01*
X3198213Y2183213D01*
X3206058Y2177192D01*
X3215195Y2173408D01*
X3220000Y2172775D01*
Y2205000D01*
D02*
G37*
G36*
X3134210D02*
X3100000D01*
Y2170790D01*
X3105319Y2171490D01*
X3114934Y2175473D01*
X3123191Y2181809D01*
X3129527Y2190066D01*
X3133510Y2199681D01*
X3134210Y2205000D01*
D02*
G37*
%LPD*%
D10*
X2995000Y2010000D02*
Y2210000D01*
X3225000Y1810000D02*
X3390000D01*
X2995000D02*
X3225000D01*
D11*
Y2210000D02*
D03*
Y1810000D02*
D03*
D12*
X2995000D02*
D03*
Y1910000D02*
D03*
X3095000Y2210000D02*
D03*
X3390000Y2010000D02*
D03*
Y1910000D02*
D03*
Y1810000D02*
D03*
D13*
X2995000Y2010000D02*
D03*
X3390000Y2110000D02*
D03*
D14*
X2995000Y2210000D02*
D03*
%TF.MD5,898178a0cfdf7b702e8f4f5bc9adba84*%
M02*
