G04*
G04 #@! TF.GenerationSoftware,Altium Limited,Altium Designer,18.1.7 (191)*
G04*
G04 Layer_Color=8388736*
%FSLAX23Y23*%
%MOIN*%
G70*
G01*
G75*
%ADD10O,0.049X0.032*%
%ADD11R,0.045X0.032*%
%ADD12R,0.178X0.219*%
%ADD13R,0.062X0.036*%
%ADD14R,0.183X0.186*%
%ADD15R,0.067X0.067*%
%ADD16C,0.067*%
%ADD17R,0.067X0.067*%
D10*
X2057Y1322D02*
D03*
Y1285D02*
D03*
Y1248D02*
D03*
X1953Y1322D02*
D03*
Y1285D02*
D03*
Y1248D02*
D03*
D11*
X1325Y1450D02*
D03*
Y1399D02*
D03*
Y1349D02*
D03*
Y1300D02*
D03*
D12*
X1181Y1376D02*
D03*
D13*
X1338Y1080D02*
D03*
Y1130D02*
D03*
Y1180D02*
D03*
Y1230D02*
D03*
D14*
X1180Y1155D02*
D03*
D15*
X1830Y1110D02*
D03*
X1480Y1285D02*
D03*
X2055Y1430D02*
D03*
X1445Y1145D02*
D03*
D16*
X1730Y1110D02*
D03*
X1710Y1230D02*
D03*
X1580Y1285D02*
D03*
X2185Y1360D02*
D03*
X2305D02*
D03*
X2425D02*
D03*
X1955Y1430D02*
D03*
X1440Y1550D02*
D03*
X1545Y1145D02*
D03*
X1830Y1230D02*
D03*
D17*
X1710Y1330D02*
D03*
X2185Y1260D02*
D03*
X2305D02*
D03*
X2425D02*
D03*
X1440Y1450D02*
D03*
X1830Y1330D02*
D03*
M02*
