G04 Layer_Physical_Order=4*
G04 Layer_Color=16711680*
%FSLAX23Y23*%
%MOIN*%
G70*
G01*
G75*
%ADD51C,0.020*%
%ADD52C,0.010*%
%ADD53C,0.030*%
%ADD59C,0.157*%
%ADD60C,0.067*%
%ADD61C,0.070*%
%ADD62C,0.060*%
%ADD63C,0.075*%
%ADD64C,0.098*%
%ADD65C,0.063*%
%ADD66C,0.071*%
%ADD67C,0.060*%
%ADD68R,0.060X0.060*%
%ADD69R,0.060X0.060*%
%ADD70C,0.057*%
%ADD71C,0.030*%
%ADD72C,0.035*%
%ADD73C,0.050*%
%ADD74C,0.075*%
%ADD75C,0.034*%
G36*
X4055Y5040D02*
Y4460D01*
X4295Y4220D01*
X4295Y4035D01*
X4235Y3975D01*
X4175D01*
X3890Y4260D01*
Y4980D01*
X3980Y5070D01*
X4025D01*
X4055Y5040D01*
D02*
G37*
G36*
X4000Y3920D02*
Y3340D01*
X4305Y3035D01*
X4305Y2970D01*
X4280Y2945D01*
X4030Y2945D01*
X3835Y3140D01*
Y3860D01*
X3925Y3950D01*
X3970D01*
X4000Y3920D01*
D02*
G37*
%LPC*%
G36*
X4019Y5058D02*
Y5037D01*
X4040D01*
X4037Y5043D01*
X4032Y5050D01*
X4025Y5056D01*
X4019Y5058D01*
D02*
G37*
G36*
X3943Y4313D02*
X3937Y4311D01*
X3930Y4305D01*
X3924Y4298D01*
X3922Y4293D01*
X3943D01*
Y4313D01*
D02*
G37*
G36*
X3988Y4267D02*
X3967D01*
Y4247D01*
X3973Y4249D01*
X3980Y4255D01*
X3986Y4262D01*
X3988Y4267D01*
D02*
G37*
G36*
X3943D02*
X3922D01*
X3924Y4262D01*
X3930Y4255D01*
X3937Y4249D01*
X3943Y4247D01*
Y4267D01*
D02*
G37*
G36*
X4040Y5012D02*
X4019D01*
Y4992D01*
X4025Y4994D01*
X4032Y5000D01*
X4037Y5007D01*
X4040Y5012D01*
D02*
G37*
G36*
X3994D02*
X3974D01*
X3976Y5007D01*
X3982Y5000D01*
X3989Y4994D01*
X3994Y4992D01*
Y5012D01*
D02*
G37*
G36*
X3967Y4313D02*
Y4293D01*
X3988D01*
X3986Y4298D01*
X3980Y4305D01*
X3973Y4311D01*
X3967Y4313D01*
D02*
G37*
G36*
X4200Y4015D02*
X4180D01*
X4182Y4010D01*
X4188Y4003D01*
X4195Y3997D01*
X4200Y3995D01*
Y4015D01*
D02*
G37*
G36*
X3994Y5058D02*
X3989Y5056D01*
X3982Y5050D01*
X3976Y5043D01*
X3974Y5037D01*
X3994D01*
Y5058D01*
D02*
G37*
G36*
X4225Y4060D02*
Y4040D01*
X4245D01*
X4243Y4045D01*
X4237Y4052D01*
X4230Y4058D01*
X4225Y4060D01*
D02*
G37*
G36*
X4200D02*
X4195Y4058D01*
X4188Y4052D01*
X4182Y4045D01*
X4180Y4040D01*
X4200D01*
Y4060D01*
D02*
G37*
G36*
X4245Y4015D02*
X4225D01*
Y3995D01*
X4230Y3997D01*
X4237Y4003D01*
X4243Y4010D01*
X4245Y4015D01*
D02*
G37*
G36*
X3908Y3193D02*
Y3172D01*
X3928D01*
X3926Y3178D01*
X3920Y3185D01*
X3913Y3191D01*
X3908Y3193D01*
D02*
G37*
G36*
X3882D02*
X3877Y3191D01*
X3870Y3185D01*
X3864Y3178D01*
X3862Y3172D01*
X3882D01*
Y3193D01*
D02*
G37*
G36*
X3928Y3148D02*
X3908D01*
Y3127D01*
X3913Y3129D01*
X3920Y3135D01*
X3926Y3142D01*
X3928Y3148D01*
D02*
G37*
G36*
X3939Y3938D02*
X3934Y3936D01*
X3927Y3930D01*
X3921Y3923D01*
X3919Y3918D01*
X3939D01*
Y3938D01*
D02*
G37*
G36*
X3985Y3892D02*
X3964D01*
Y3872D01*
X3970Y3874D01*
X3977Y3880D01*
X3982Y3887D01*
X3985Y3892D01*
D02*
G37*
G36*
X3939D02*
X3919D01*
X3921Y3887D01*
X3927Y3880D01*
X3934Y3874D01*
X3939Y3872D01*
Y3892D01*
D02*
G37*
G36*
X4288Y2983D02*
X4267D01*
Y2962D01*
X4273Y2964D01*
X4280Y2970D01*
X4286Y2977D01*
X4288Y2983D01*
D02*
G37*
G36*
X4242D02*
X4222D01*
X4224Y2977D01*
X4230Y2970D01*
X4237Y2964D01*
X4242Y2962D01*
Y2983D01*
D02*
G37*
G36*
X3882Y3148D02*
X3862D01*
X3864Y3142D01*
X3870Y3135D01*
X3877Y3129D01*
X3882Y3127D01*
Y3148D01*
D02*
G37*
G36*
X4267Y3028D02*
Y3007D01*
X4288D01*
X4286Y3013D01*
X4280Y3020D01*
X4273Y3026D01*
X4267Y3028D01*
D02*
G37*
G36*
X4242D02*
X4237Y3026D01*
X4230Y3020D01*
X4224Y3013D01*
X4222Y3007D01*
X4242D01*
Y3028D01*
D02*
G37*
G36*
X3964Y3938D02*
Y3918D01*
X3985D01*
X3982Y3923D01*
X3977Y3930D01*
X3970Y3936D01*
X3964Y3938D01*
D02*
G37*
%LPD*%
D51*
X8775Y3995D02*
X8935Y4155D01*
X8490Y3560D02*
X8620D01*
X8775Y3715D01*
X7870Y2940D02*
X8490Y3560D01*
X8775Y3715D02*
Y3995D01*
X8680Y3685D02*
X8740Y3745D01*
X4920Y2985D02*
X7815D01*
X8420Y3685D02*
X8680D01*
X7760Y3025D02*
X8420Y3685D01*
X4490Y2770D02*
X4535Y2725D01*
X4490Y2770D02*
Y2950D01*
X4870Y2805D02*
X4950Y2725D01*
X4870Y2805D02*
Y2935D01*
X8795Y3615D02*
Y3630D01*
X5780Y2780D02*
X5845Y2715D01*
X5780Y2780D02*
Y2910D01*
X5810Y2940D01*
X4490Y2950D02*
X4565Y3025D01*
X4870Y2935D02*
X4920Y2985D01*
X4565Y3025D02*
X7760D01*
X5810Y2940D02*
X7870D01*
X8445Y3615D02*
X8505D01*
X7815Y2985D02*
X8445Y3615D01*
X8795Y3630D02*
X8810Y3645D01*
Y3950D01*
X8935Y4155D02*
X9150D01*
X8740Y3745D02*
Y4025D01*
X8915Y4200D01*
X9170D01*
X9180Y4190D01*
X8810Y3950D02*
X8930Y4070D01*
X9200D02*
X9215Y4085D01*
X8930Y4070D02*
X9200D01*
D52*
X9607Y3563D02*
X9630Y3540D01*
X10365Y3325D02*
X10400Y3360D01*
X7200Y4790D02*
X7230Y4760D01*
X4770Y3440D02*
X4825Y3495D01*
X9795Y4450D02*
X9865D01*
X9945Y4530D01*
X9765Y4450D02*
Y4465D01*
X9750Y4435D02*
X9765Y4450D01*
X9750Y4420D02*
Y4435D01*
X9765Y4465D02*
X9785Y4485D01*
X9850D01*
X9380Y4420D02*
X9605D01*
X9600Y4460D02*
X9620D01*
X9575Y4435D02*
X9600Y4460D01*
X9395Y4435D02*
X9575D01*
X9790Y4515D02*
X9830D01*
X9850Y4485D02*
X9915Y4550D01*
X4825Y3495D02*
Y3995D01*
X4770Y3440D02*
Y3450D01*
X4475Y4395D02*
Y4560D01*
X4470Y4390D02*
X4475Y4395D01*
X9990Y2965D02*
X10275D01*
X9340Y2915D02*
X9390Y2865D01*
X5100Y3630D02*
Y3645D01*
X5150Y3695D01*
X4520Y4680D02*
X4640D01*
X4480Y4720D02*
X4520Y4680D01*
X4470Y4720D02*
X4480D01*
X4640Y4680D02*
X4685Y4725D01*
X4756D01*
X5090Y4035D02*
X5360Y4305D01*
X4865Y4035D02*
X5090D01*
X4825Y3995D02*
X4865Y4035D01*
X5150Y4070D02*
X5375Y4295D01*
X5150Y3695D02*
Y4070D01*
X5375Y4295D02*
Y4870D01*
X5085Y4205D02*
X5345Y4465D01*
X6555Y4713D02*
X6605Y4763D01*
X6646D01*
X6360Y4758D02*
X6370D01*
X6415Y4713D01*
X6555D01*
X6365Y3495D02*
Y3505D01*
Y3495D02*
X6430Y3560D01*
Y3685D01*
X6790Y4400D02*
X7155D01*
X6203Y4598D02*
X6365D01*
X6030Y4425D02*
X6203Y4598D01*
X6430Y3685D02*
X6560Y3815D01*
X6720D01*
X6820Y4380D02*
X7165D01*
X7230Y4515D02*
Y4760D01*
X6720Y3815D02*
X6760Y3855D01*
Y4370D01*
X6790Y4400D01*
X6780Y4340D02*
X6820Y4380D01*
X6710Y3770D02*
X6720D01*
X6780Y3830D01*
Y4340D01*
X10330Y3835D02*
Y4055D01*
X10380Y4105D01*
X10455D01*
X10765Y4160D02*
X10940Y4335D01*
X10685Y4180D02*
X10940Y4435D01*
X9745Y4990D02*
Y5060D01*
X9695Y5110D02*
X9745Y5060D01*
X9795Y5110D02*
X9815D01*
X10145Y3325D02*
X10365D01*
X9385Y2970D02*
X9390Y2965D01*
X9140Y2825D02*
Y3550D01*
Y2825D02*
X9175Y2790D01*
X4950Y2725D02*
X4955D01*
X10070Y4065D02*
X10250D01*
X10365Y4180D01*
X10685D01*
X10065Y3970D02*
X10280D01*
X10310Y4000D01*
Y4075D01*
X10395Y4160D01*
X10765D01*
X9175Y2790D02*
X10160D01*
X10220Y3755D02*
Y3760D01*
X9945Y4455D02*
X9975Y4485D01*
Y4950D01*
X9815Y5110D02*
X9975Y4950D01*
X9795Y5010D02*
X9945Y4860D01*
Y4530D02*
Y4860D01*
X9915Y4550D02*
Y4820D01*
X9745Y4990D02*
X9915Y4820D01*
X9545Y4950D02*
Y5060D01*
X9495Y5110D02*
X9545Y5060D01*
X10415Y3770D02*
X10490D01*
X10585Y3865D01*
X7265Y4908D02*
X7266Y4907D01*
Y4481D02*
Y4907D01*
X7165Y4380D02*
X7266Y4481D01*
X7155Y4400D02*
X7248Y4493D01*
X6710Y4350D02*
X6780Y4420D01*
X9260Y2825D02*
X10164D01*
X9240Y2845D02*
X9260Y2825D01*
X9240Y2845D02*
Y3535D01*
X9440Y2915D02*
X9490Y2865D01*
X9415Y3010D02*
X9440Y2985D01*
Y2915D02*
Y2985D01*
X9490Y2965D02*
Y2985D01*
X9445Y3030D02*
X9490Y2985D01*
Y3425D02*
X10045D01*
X10145Y3325D01*
X9530Y3475D02*
X9565Y3440D01*
X9750D01*
X9760Y3450D01*
Y3510D01*
X9685Y3545D02*
X9705Y3525D01*
X9745D01*
X9760Y3510D01*
X9725Y3560D02*
X9745Y3540D01*
X9850D01*
X9860Y3570D02*
X9905Y3525D01*
X9770Y3570D02*
X9860D01*
X9850Y3540D02*
X9895Y3495D01*
X10270D01*
X10300Y3525D01*
X9905D02*
X10230D01*
X9340Y2915D02*
Y3495D01*
X9385Y2970D02*
Y3445D01*
X9415Y3010D02*
Y3435D01*
X9445Y3030D02*
Y3435D01*
X9485Y3475D01*
X9530D01*
X9385Y3445D02*
X9525Y3585D01*
X9630D01*
X9460Y3615D02*
X9605D01*
X9340Y3495D02*
X9460Y3615D01*
X9543Y3563D02*
X9607D01*
X9189Y3884D02*
X9205D01*
X5345Y4465D02*
Y4700D01*
X5220Y4640D02*
X5230D01*
X7115Y4493D02*
Y4680D01*
X9530Y4580D02*
X9535D01*
X9893Y4578D02*
Y4812D01*
X9830Y4515D02*
X9893Y4578D01*
X9695Y5010D02*
X9893Y4812D01*
X9535Y4580D02*
X9565Y4550D01*
X9770D02*
X9795Y4575D01*
Y4760D01*
X9733Y4458D02*
X9790Y4515D01*
X9732Y4460D02*
X9733Y4458D01*
X9730Y4460D02*
X9732D01*
X5225Y4895D02*
Y4920D01*
Y4895D02*
X5270Y4850D01*
X5325D01*
X5360Y4815D01*
Y4305D02*
Y4815D01*
X4756Y4725D02*
X4795Y4764D01*
Y4765D01*
X5250Y4455D02*
X5260Y4445D01*
X5250Y4455D02*
Y4567D01*
X5251Y4567D01*
Y4620D01*
X5230Y4640D02*
X5251Y4620D01*
X5320Y4725D02*
X5345Y4700D01*
X5320Y4725D02*
Y4740D01*
X6646Y4763D02*
X6693Y4810D01*
X6700D01*
X7135Y4420D02*
X7230Y4515D01*
X6780Y4420D02*
X7135D01*
X7195Y4785D02*
X7200Y4790D01*
X7208Y4885D02*
X7248Y4845D01*
Y4493D02*
Y4845D01*
X7120Y4943D02*
X7178Y4885D01*
X7208D01*
X9237Y3650D02*
Y3862D01*
X9325Y4475D02*
X9380Y4420D01*
X9325Y4475D02*
Y4840D01*
X9495Y5010D01*
X9345Y4485D02*
X9395Y4435D01*
X9345Y4485D02*
Y4750D01*
X9545Y4950D01*
X9565Y4550D02*
X9587D01*
X9587Y4550D01*
X9613D01*
X9613Y4550D01*
X9770D01*
X10505Y4080D02*
Y4105D01*
Y4080D02*
X10585Y4000D01*
Y3865D02*
Y4000D01*
X10005D02*
X10070Y4065D01*
X10035Y3940D02*
X10065Y3970D01*
X10035Y3935D02*
Y3940D01*
X10005Y4000D02*
X10010Y3995D01*
Y3965D02*
Y3995D01*
X10115Y3760D02*
X10170D01*
X10295Y3800D02*
X10330Y3835D01*
X10030Y3850D02*
Y3895D01*
Y3850D02*
X10080Y3800D01*
X10295D01*
X10275Y3735D02*
Y3755D01*
X10375Y3750D02*
X10375Y3750D01*
X10320Y3745D02*
Y3760D01*
X10370Y3756D02*
X10375Y3750D01*
X10370Y3756D02*
Y3760D01*
X10235Y2790D02*
Y2810D01*
X10335Y2805D02*
Y2815D01*
X10545Y3025D01*
Y3580D01*
X10375Y3750D02*
X10545Y3580D01*
X10235Y2810D02*
X10520Y3095D01*
Y3545D01*
X10320Y3745D02*
X10520Y3545D01*
X10160Y2790D02*
X10495Y3125D01*
Y3515D01*
X10275Y3735D02*
X10495Y3515D01*
X10164Y2825D02*
X10470Y3131D01*
Y3505D01*
X10220Y3755D02*
X10470Y3505D01*
X10275Y2965D02*
X10440Y3130D01*
Y3490D01*
X10170Y3760D02*
X10440Y3490D01*
X10395Y3365D02*
X10400Y3360D01*
X9415Y3435D02*
X9543Y3563D01*
X9165Y3610D02*
X9240Y3535D01*
X9165Y3610D02*
Y3860D01*
X9189Y3884D01*
X9630Y3540D02*
X9635Y3545D01*
X10300Y3525D02*
X10330D01*
D53*
X8545Y4895D02*
X8850D01*
X8495Y4845D02*
X8545Y4895D01*
X8495Y4142D02*
Y4845D01*
X8314Y3961D02*
X8495Y4142D01*
X8850Y4895D02*
X8885Y4860D01*
Y4855D02*
Y4860D01*
D59*
X7610Y2345D02*
D03*
X4541Y2350D02*
D03*
X6089Y2347D02*
D03*
X5180Y2350D02*
D03*
D60*
X7551Y2633D02*
D03*
X7669D02*
D03*
Y2515D02*
D03*
X7551D02*
D03*
X4482Y2638D02*
D03*
X4600D02*
D03*
Y2520D02*
D03*
X4482D02*
D03*
X6030Y2635D02*
D03*
X6148D02*
D03*
Y2517D02*
D03*
X6030D02*
D03*
X5121Y2638D02*
D03*
X5239D02*
D03*
Y2520D02*
D03*
X5121D02*
D03*
D61*
X8245Y2500D02*
D03*
X6620Y4545D02*
D03*
X6505D02*
D03*
D62*
X8160Y2700D02*
D03*
Y2600D02*
D03*
Y2500D02*
D03*
Y2400D02*
D03*
D63*
X7660Y4110D02*
D03*
Y4260D02*
D03*
X8164Y3961D02*
D03*
X8014D02*
D03*
X7865D02*
D03*
X7715Y5059D02*
D03*
X8014D02*
D03*
X8164D02*
D03*
X8314D02*
D03*
D64*
Y3961D02*
D03*
X7715D02*
D03*
D65*
X8855Y3295D02*
D03*
X8755D02*
D03*
X8655D02*
D03*
D66*
X10678Y3455D02*
D03*
Y2963D02*
D03*
X10875Y3455D02*
D03*
Y2963D02*
D03*
D67*
X8670Y3745D02*
D03*
X8570D02*
D03*
X8670Y3845D02*
D03*
X8570D02*
D03*
X8670Y3945D02*
D03*
X8570D02*
D03*
X8670Y4045D02*
D03*
X8570D02*
D03*
X8670Y4145D02*
D03*
X8570D02*
D03*
X8670Y4245D02*
D03*
X8570D02*
D03*
X8670Y4345D02*
D03*
X8570D02*
D03*
X8670Y4445D02*
D03*
X8570D02*
D03*
X8670Y4545D02*
D03*
X8570D02*
D03*
X8670Y4645D02*
D03*
X8570D02*
D03*
X8670Y4745D02*
D03*
X8570D02*
D03*
X8670Y4845D02*
D03*
X8570D02*
D03*
X8670Y4945D02*
D03*
X8570D02*
D03*
X8670Y5045D02*
D03*
X9990Y2965D02*
D03*
Y2865D02*
D03*
X9890Y2965D02*
D03*
Y2865D02*
D03*
X9790Y2965D02*
D03*
Y2865D02*
D03*
X9690Y2965D02*
D03*
Y2865D02*
D03*
X9590Y2965D02*
D03*
Y2865D02*
D03*
X9490Y2965D02*
D03*
Y2865D02*
D03*
X9390Y2965D02*
D03*
Y2865D02*
D03*
X9290Y2965D02*
D03*
Y2865D02*
D03*
X9190Y2965D02*
D03*
Y2865D02*
D03*
X9090Y2965D02*
D03*
X10030Y4460D02*
D03*
Y4560D02*
D03*
Y4660D02*
D03*
X10130Y4460D02*
D03*
Y4560D02*
D03*
Y4660D02*
D03*
X10230Y4460D02*
D03*
Y4560D02*
D03*
Y4660D02*
D03*
X10330Y4460D02*
D03*
Y4560D02*
D03*
Y4660D02*
D03*
X10430Y4460D02*
D03*
Y4560D02*
D03*
Y4660D02*
D03*
X10530Y4460D02*
D03*
Y4560D02*
D03*
Y4660D02*
D03*
X10630Y4460D02*
D03*
Y4560D02*
D03*
Y4660D02*
D03*
X10730D02*
D03*
Y4560D02*
D03*
Y4460D02*
D03*
X9795Y5010D02*
D03*
X9695Y5110D02*
D03*
Y5010D02*
D03*
X9595Y5110D02*
D03*
Y5010D02*
D03*
X9495Y5110D02*
D03*
Y5010D02*
D03*
X9395Y5110D02*
D03*
Y5010D02*
D03*
X9295Y5110D02*
D03*
Y5010D02*
D03*
X9195Y5110D02*
D03*
Y5010D02*
D03*
X9095Y5110D02*
D03*
Y5010D02*
D03*
X8995Y5110D02*
D03*
Y5010D02*
D03*
X10940Y4335D02*
D03*
Y4435D02*
D03*
Y4535D02*
D03*
Y4895D02*
D03*
Y4795D02*
D03*
Y4695D02*
D03*
X10190Y5110D02*
D03*
X10090D02*
D03*
X9990D02*
D03*
X10570D02*
D03*
X10670D02*
D03*
X10770D02*
D03*
D68*
X8570Y5045D02*
D03*
X10940Y4235D02*
D03*
Y4995D02*
D03*
D69*
X9090Y2865D02*
D03*
X9795Y5110D02*
D03*
X10290D02*
D03*
X10470D02*
D03*
D70*
X10955Y4043D02*
D03*
Y3847D02*
D03*
D71*
X9795Y4450D02*
D03*
X9630Y3585D02*
D03*
X9190Y4125D02*
D03*
X9605Y4420D02*
D03*
X9620Y4460D02*
D03*
X9750Y4420D02*
D03*
X10275Y3885D02*
D03*
X5223Y4728D02*
D03*
X7115Y4765D02*
D03*
X10275Y4015D02*
D03*
X10030Y3895D02*
D03*
X10415Y3770D02*
D03*
X9685Y3545D02*
D03*
X9725Y3560D02*
D03*
X9770Y3570D02*
D03*
X10230Y3525D02*
D03*
X9580Y3535D02*
D03*
X9605Y3615D02*
D03*
X9237Y3862D02*
D03*
X9205Y3884D02*
D03*
X7125Y4875D02*
D03*
X9730Y4460D02*
D03*
X9200Y3845D02*
D03*
X9500Y4550D02*
D03*
X10035Y3935D02*
D03*
X10010Y3965D02*
D03*
X9635Y3545D02*
D03*
X10330Y3525D02*
D03*
D72*
X9440Y3550D02*
D03*
X9015Y4005D02*
D03*
X8965D02*
D03*
X9060D02*
D03*
X9105D02*
D03*
X5080Y4465D02*
D03*
X4470Y4720D02*
D03*
X6945Y4503D02*
D03*
X7120Y4943D02*
D03*
X6360Y4758D02*
D03*
X7165Y4743D02*
D03*
X7185Y4533D02*
D03*
X7065Y4613D02*
D03*
X7115Y4493D02*
D03*
X10595Y3830D02*
D03*
X10590Y4040D02*
D03*
X10505Y4105D02*
D03*
X10455D02*
D03*
X9945Y4455D02*
D03*
X10220Y3760D02*
D03*
X9150Y4155D02*
D03*
X5220Y4640D02*
D03*
X7115Y4680D02*
D03*
X9530Y4580D02*
D03*
X9795Y4760D02*
D03*
X5305Y4815D02*
D03*
X5220Y4580D02*
D03*
X5320Y4740D02*
D03*
X5270Y4710D02*
D03*
X6700Y4810D02*
D03*
X7070Y4455D02*
D03*
X7195Y4785D02*
D03*
Y4855D02*
D03*
X9200Y3795D02*
D03*
X9380Y4515D02*
D03*
X9600Y4520D02*
D03*
X10055Y4005D02*
D03*
X10115Y3760D02*
D03*
X10275Y3755D02*
D03*
X10320Y3760D02*
D03*
X10370D02*
D03*
X10395Y3365D02*
D03*
X9490Y3425D02*
D03*
X9180Y4190D02*
D03*
X9215Y4085D02*
D03*
D73*
X4270Y2880D02*
D03*
X4213Y4028D02*
D03*
X4255Y2995D02*
D03*
X8795Y3615D02*
D03*
X5845Y2715D02*
D03*
X4540Y2920D02*
D03*
X4955Y2725D02*
D03*
X4960Y2920D02*
D03*
X4770Y3450D02*
D03*
X4470Y4390D02*
D03*
X4585Y3685D02*
D03*
X4580Y4380D02*
D03*
X10615Y3615D02*
D03*
X10090Y3225D02*
D03*
X9780Y3180D02*
D03*
X5840Y3830D02*
D03*
Y4065D02*
D03*
X5225Y3630D02*
D03*
X5260Y4445D02*
D03*
X5100Y3630D02*
D03*
X6365Y4598D02*
D03*
X3815Y4455D02*
D03*
X3670Y4795D02*
D03*
X3955Y4280D02*
D03*
X4135Y4825D02*
D03*
X3415Y4035D02*
D03*
X3515D02*
D03*
X4007Y5025D02*
D03*
X3952Y3905D02*
D03*
X3615Y3675D02*
D03*
X3360Y2915D02*
D03*
X3460D02*
D03*
X3895Y3160D02*
D03*
X3760Y3335D02*
D03*
X4080Y3705D02*
D03*
X5375Y4870D02*
D03*
X5425Y4605D02*
D03*
X4640Y5040D02*
D03*
X8755Y3160D02*
D03*
X5155Y5010D02*
D03*
X4925D02*
D03*
X5065Y4535D02*
D03*
X4475Y4560D02*
D03*
X4540Y4820D02*
D03*
X6430Y4858D02*
D03*
X6930Y4573D02*
D03*
X7265Y4908D02*
D03*
X6530Y5078D02*
D03*
X7315Y4643D02*
D03*
X6555D02*
D03*
X7045Y5048D02*
D03*
X5400Y4210D02*
D03*
X5085Y4205D02*
D03*
X4810Y4680D02*
D03*
X4630Y4607D02*
D03*
X4805Y4340D02*
D03*
X5075D02*
D03*
X6705Y4725D02*
D03*
X6030Y4425D02*
D03*
X6365Y3495D02*
D03*
X6200Y3735D02*
D03*
X7030Y4340D02*
D03*
X6710Y3770D02*
D03*
X6845D02*
D03*
X6710Y4350D02*
D03*
X7425Y3975D02*
D03*
Y4230D02*
D03*
X10725Y3715D02*
D03*
X10870Y4000D02*
D03*
X9140Y3550D02*
D03*
X10765Y4995D02*
D03*
X10620Y4990D02*
D03*
X10470D02*
D03*
X8870Y3675D02*
D03*
X4535Y2725D02*
D03*
X5650Y3095D02*
D03*
X5740Y3090D02*
D03*
X5840Y2890D02*
D03*
X8505Y3615D02*
D03*
X10025Y3175D02*
D03*
X9810Y3500D02*
D03*
X6815Y5048D02*
D03*
X10025Y4090D02*
D03*
X9855Y4780D02*
D03*
X5225Y4920D02*
D03*
X4795Y4765D02*
D03*
X9237Y3650D02*
D03*
X10235Y2790D02*
D03*
X10335Y2805D02*
D03*
D74*
X6180Y4425D02*
D03*
X7420Y3205D02*
D03*
X7340Y3210D02*
D03*
X7505Y3205D02*
D03*
X8885Y4855D02*
D03*
D75*
X5235Y4835D02*
D03*
M02*
