G04 Layer_Physical_Order=2*
G04 Layer_Color=36540*
%FSLAX23Y23*%
%MOIN*%
G70*
G01*
G75*
%ADD60C,0.067*%
%ADD61C,0.070*%
%ADD62C,0.060*%
%ADD63C,0.075*%
%ADD64C,0.098*%
%ADD65C,0.063*%
%ADD66C,0.071*%
%ADD67C,0.060*%
%ADD68R,0.060X0.060*%
%ADD69R,0.060X0.060*%
%ADD71C,0.030*%
%ADD72C,0.035*%
%ADD73C,0.050*%
%ADD74C,0.075*%
G36*
X11105Y2250D02*
X3120D01*
X3120Y5165D01*
X11105D01*
X11105Y2250D01*
D02*
G37*
%LPC*%
G36*
X6215Y3767D02*
Y3750D01*
X6232D01*
X6231Y3753D01*
X6225Y3760D01*
X6218Y3766D01*
X6215Y3767D01*
D02*
G37*
G36*
X10415Y3795D02*
X10405Y3794D01*
X10397Y3788D01*
X10393Y3783D01*
X10393Y3782D01*
X10387Y3782D01*
X10387Y3782D01*
X10384Y3784D01*
X10377Y3787D01*
X10370Y3788D01*
X10363Y3787D01*
X10356Y3784D01*
X10350Y3780D01*
X10348Y3777D01*
X10342D01*
X10340Y3780D01*
X10334Y3784D01*
X10327Y3787D01*
X10320Y3788D01*
X10313Y3787D01*
X10306Y3784D01*
X10300Y3780D01*
X10299Y3777D01*
X10295Y3775D01*
X10292Y3777D01*
X10289Y3779D01*
X10282Y3782D01*
X10275Y3783D01*
X10268Y3782D01*
X10261Y3779D01*
X10255Y3775D01*
X10251Y3769D01*
X10251Y3769D01*
X10246Y3769D01*
X10244Y3774D01*
X10239Y3780D01*
X10233Y3784D01*
X10227Y3787D01*
X10220Y3788D01*
X10212Y3787D01*
X10206Y3784D01*
X10200Y3780D01*
X10195Y3774D01*
X10193Y3767D01*
X10192Y3760D01*
X10193Y3753D01*
X10195Y3746D01*
X10200Y3740D01*
X10206Y3736D01*
X10212Y3733D01*
X10220Y3732D01*
X10227Y3733D01*
X10233Y3736D01*
X10239Y3740D01*
X10244Y3746D01*
X10244Y3746D01*
X10249Y3746D01*
X10251Y3741D01*
X10255Y3735D01*
X10261Y3731D01*
X10268Y3728D01*
X10275Y3727D01*
X10282Y3728D01*
X10289Y3731D01*
X10295Y3735D01*
X10296Y3738D01*
X10300Y3740D01*
X10303Y3738D01*
X10306Y3736D01*
X10313Y3733D01*
X10320Y3732D01*
X10327Y3733D01*
X10334Y3736D01*
X10340Y3740D01*
X10342Y3743D01*
X10348D01*
X10350Y3740D01*
X10356Y3736D01*
X10363Y3733D01*
X10370Y3732D01*
X10377Y3733D01*
X10384Y3736D01*
X10390Y3740D01*
X10394Y3746D01*
X10395Y3748D01*
X10401Y3749D01*
X10405Y3746D01*
X10415Y3745D01*
X10425Y3746D01*
X10433Y3752D01*
X10439Y3760D01*
X10440Y3770D01*
X10439Y3780D01*
X10433Y3788D01*
X10425Y3794D01*
X10415Y3795D01*
D02*
G37*
G36*
X6845Y3805D02*
X6836Y3804D01*
X6827Y3801D01*
X6820Y3795D01*
X6814Y3788D01*
X6811Y3779D01*
X6810Y3770D01*
X6811Y3761D01*
X6814Y3752D01*
X6820Y3745D01*
X6827Y3739D01*
X6836Y3736D01*
X6845Y3735D01*
X6854Y3736D01*
X6863Y3739D01*
X6870Y3745D01*
X6876Y3752D01*
X6879Y3761D01*
X6880Y3770D01*
X6879Y3779D01*
X6876Y3788D01*
X6870Y3795D01*
X6863Y3801D01*
X6854Y3804D01*
X6845Y3805D01*
D02*
G37*
G36*
X6185Y3767D02*
X6182Y3766D01*
X6175Y3760D01*
X6169Y3753D01*
X6168Y3750D01*
X6185D01*
Y3767D01*
D02*
G37*
G36*
X8570Y3885D02*
X8560Y3884D01*
X8550Y3880D01*
X8541Y3874D01*
X8535Y3865D01*
X8531Y3855D01*
X8530Y3845D01*
X8531Y3835D01*
X8535Y3825D01*
X8541Y3816D01*
X8550Y3810D01*
X8560Y3806D01*
X8570Y3805D01*
X8580Y3806D01*
X8590Y3810D01*
X8599Y3816D01*
X8605Y3825D01*
X8609Y3835D01*
X8610Y3845D01*
X8609Y3855D01*
X8605Y3865D01*
X8599Y3874D01*
X8590Y3880D01*
X8580Y3884D01*
X8570Y3885D01*
D02*
G37*
G36*
X8670D02*
X8660Y3884D01*
X8650Y3880D01*
X8641Y3874D01*
X8635Y3865D01*
X8631Y3855D01*
X8630Y3845D01*
X8631Y3835D01*
X8635Y3825D01*
X8641Y3816D01*
X8650Y3810D01*
X8660Y3806D01*
X8670Y3805D01*
X8680Y3806D01*
X8690Y3810D01*
X8699Y3816D01*
X8705Y3825D01*
X8709Y3835D01*
X8710Y3845D01*
X8709Y3855D01*
X8705Y3865D01*
X8699Y3874D01*
X8690Y3880D01*
X8680Y3884D01*
X8670Y3885D01*
D02*
G37*
G36*
X11075Y3829D02*
X11048D01*
X11039Y3828D01*
X11032Y3823D01*
X11027Y3816D01*
X11025Y3807D01*
X11027Y3799D01*
X11032Y3791D01*
X11039Y3787D01*
X11048Y3785D01*
X11075D01*
X11084Y3787D01*
X11091Y3791D01*
X11096Y3799D01*
X11097Y3807D01*
X11096Y3816D01*
X11091Y3823D01*
X11084Y3828D01*
X11075Y3829D01*
D02*
G37*
G36*
X5840Y3865D02*
X5831Y3864D01*
X5822Y3861D01*
X5815Y3855D01*
X5809Y3848D01*
X5806Y3839D01*
X5805Y3830D01*
X5806Y3821D01*
X5809Y3812D01*
X5815Y3805D01*
X5822Y3799D01*
X5831Y3796D01*
X5840Y3795D01*
X5849Y3796D01*
X5858Y3799D01*
X5865Y3805D01*
X5871Y3812D01*
X5874Y3821D01*
X5875Y3830D01*
X5874Y3839D01*
X5871Y3848D01*
X5865Y3855D01*
X5858Y3861D01*
X5849Y3864D01*
X5840Y3865D01*
D02*
G37*
G36*
X6710Y3805D02*
X6701Y3804D01*
X6692Y3801D01*
X6685Y3795D01*
X6679Y3788D01*
X6676Y3779D01*
X6675Y3770D01*
X6676Y3761D01*
X6679Y3752D01*
X6685Y3745D01*
X6692Y3739D01*
X6701Y3736D01*
X6710Y3735D01*
X6719Y3736D01*
X6728Y3739D01*
X6735Y3745D01*
X6741Y3752D01*
X6744Y3761D01*
X6745Y3770D01*
X6744Y3779D01*
X6741Y3788D01*
X6735Y3795D01*
X6728Y3801D01*
X6719Y3804D01*
X6710Y3805D01*
D02*
G37*
G36*
X8670Y3785D02*
X8660Y3784D01*
X8650Y3780D01*
X8641Y3774D01*
X8635Y3765D01*
X8631Y3755D01*
X8630Y3745D01*
X8631Y3735D01*
X8635Y3725D01*
X8641Y3716D01*
X8650Y3710D01*
X8660Y3706D01*
X8670Y3705D01*
X8680Y3706D01*
X8690Y3710D01*
X8699Y3716D01*
X8705Y3725D01*
X8709Y3735D01*
X8710Y3745D01*
X8709Y3755D01*
X8705Y3765D01*
X8699Y3774D01*
X8690Y3780D01*
X8680Y3784D01*
X8670Y3785D01*
D02*
G37*
G36*
X4065Y3737D02*
X4062Y3736D01*
X4055Y3730D01*
X4049Y3723D01*
X4048Y3720D01*
X4065D01*
Y3737D01*
D02*
G37*
G36*
X6232Y3720D02*
X6215D01*
Y3703D01*
X6218Y3704D01*
X6225Y3710D01*
X6231Y3717D01*
X6232Y3720D01*
D02*
G37*
G36*
X8570Y3785D02*
X8560Y3784D01*
X8550Y3780D01*
X8541Y3774D01*
X8535Y3765D01*
X8531Y3755D01*
X8530Y3745D01*
X8531Y3735D01*
X8535Y3725D01*
X8541Y3716D01*
X8550Y3710D01*
X8560Y3706D01*
X8570Y3705D01*
X8580Y3706D01*
X8590Y3710D01*
X8599Y3716D01*
X8605Y3725D01*
X8609Y3735D01*
X8610Y3745D01*
X8609Y3755D01*
X8605Y3765D01*
X8599Y3774D01*
X8590Y3780D01*
X8580Y3784D01*
X8570Y3785D01*
D02*
G37*
G36*
X10740Y3747D02*
Y3730D01*
X10757D01*
X10756Y3733D01*
X10750Y3740D01*
X10743Y3746D01*
X10740Y3747D01*
D02*
G37*
G36*
X10115Y3788D02*
X10108Y3787D01*
X10101Y3784D01*
X10095Y3780D01*
X10091Y3774D01*
X10088Y3767D01*
X10087Y3760D01*
X10088Y3753D01*
X10091Y3746D01*
X10095Y3740D01*
X10101Y3736D01*
X10108Y3733D01*
X10115Y3732D01*
X10122Y3733D01*
X10129Y3736D01*
X10135Y3740D01*
X10139Y3746D01*
X10142Y3753D01*
X10143Y3760D01*
X10142Y3767D01*
X10139Y3774D01*
X10135Y3780D01*
X10129Y3784D01*
X10122Y3787D01*
X10115Y3788D01*
D02*
G37*
G36*
X4095Y3737D02*
Y3720D01*
X4112D01*
X4111Y3723D01*
X4105Y3730D01*
X4098Y3736D01*
X4095Y3737D01*
D02*
G37*
G36*
X10710Y3747D02*
X10707Y3746D01*
X10700Y3740D01*
X10694Y3733D01*
X10693Y3730D01*
X10710D01*
Y3747D01*
D02*
G37*
G36*
X10580Y3815D02*
X10572D01*
X10575Y3810D01*
X10580Y3807D01*
Y3815D01*
D02*
G37*
G36*
X8314Y4020D02*
X8302Y4019D01*
X8291Y4016D01*
X8280Y4010D01*
X8271Y4003D01*
X8264Y3994D01*
X8259Y3984D01*
X8255Y3972D01*
X8254Y3961D01*
X8255Y3949D01*
X8259Y3938D01*
X8264Y3928D01*
X8271Y3919D01*
X8280Y3911D01*
X8291Y3906D01*
X8302Y3902D01*
X8314Y3901D01*
X8325Y3902D01*
X8336Y3906D01*
X8347Y3911D01*
X8356Y3919D01*
X8363Y3928D01*
X8369Y3938D01*
X8372Y3949D01*
X8373Y3961D01*
X8372Y3972D01*
X8369Y3984D01*
X8363Y3994D01*
X8356Y4003D01*
X8347Y4010D01*
X8336Y4016D01*
X8325Y4019D01*
X8314Y4020D01*
D02*
G37*
G36*
X7700Y3946D02*
X7658D01*
X7660Y3938D01*
X7666Y3928D01*
X7673Y3919D01*
X7682Y3911D01*
X7692Y3906D01*
X7700Y3903D01*
Y3946D01*
D02*
G37*
G36*
X10260Y3905D02*
X10257Y3903D01*
X10255Y3900D01*
X10260D01*
Y3905D01*
D02*
G37*
G36*
X10290D02*
Y3900D01*
X10295D01*
X10293Y3903D01*
X10290Y3905D01*
D02*
G37*
G36*
X8670Y3985D02*
X8660Y3984D01*
X8650Y3980D01*
X8641Y3974D01*
X8635Y3965D01*
X8631Y3955D01*
X8630Y3945D01*
X8631Y3935D01*
X8635Y3925D01*
X8641Y3916D01*
X8650Y3910D01*
X8660Y3906D01*
X8670Y3905D01*
X8680Y3906D01*
X8690Y3910D01*
X8699Y3916D01*
X8705Y3925D01*
X8709Y3935D01*
X8710Y3945D01*
X8709Y3955D01*
X8705Y3965D01*
X8699Y3974D01*
X8690Y3980D01*
X8680Y3984D01*
X8670Y3985D01*
D02*
G37*
G36*
X7865Y4009D02*
X7852Y4007D01*
X7841Y4002D01*
X7831Y3995D01*
X7823Y3985D01*
X7818Y3973D01*
X7817Y3961D01*
X7818Y3948D01*
X7823Y3937D01*
X7831Y3927D01*
X7841Y3919D01*
X7852Y3914D01*
X7865Y3913D01*
X7877Y3914D01*
X7889Y3919D01*
X7899Y3927D01*
X7906Y3937D01*
X7911Y3948D01*
X7913Y3961D01*
X7911Y3973D01*
X7906Y3985D01*
X7899Y3995D01*
X7889Y4002D01*
X7877Y4007D01*
X7865Y4009D01*
D02*
G37*
G36*
X7772Y3946D02*
X7730D01*
Y3903D01*
X7738Y3906D01*
X7748Y3911D01*
X7757Y3919D01*
X7765Y3928D01*
X7770Y3938D01*
X7772Y3946D01*
D02*
G37*
G36*
X8570Y3985D02*
X8560Y3984D01*
X8550Y3980D01*
X8541Y3974D01*
X8535Y3965D01*
X8531Y3955D01*
X8530Y3945D01*
X8531Y3935D01*
X8535Y3925D01*
X8541Y3916D01*
X8550Y3910D01*
X8560Y3906D01*
X8570Y3905D01*
X8580Y3906D01*
X8590Y3910D01*
X8599Y3916D01*
X8605Y3925D01*
X8609Y3935D01*
X8610Y3945D01*
X8609Y3955D01*
X8605Y3965D01*
X8599Y3974D01*
X8590Y3980D01*
X8580Y3984D01*
X8570Y3985D01*
D02*
G37*
G36*
X3952Y3940D02*
X3943Y3939D01*
X3934Y3936D01*
X3927Y3930D01*
X3921Y3923D01*
X3918Y3914D01*
X3917Y3905D01*
X3918Y3896D01*
X3921Y3887D01*
X3927Y3880D01*
X3934Y3874D01*
X3943Y3871D01*
X3952Y3870D01*
X3961Y3871D01*
X3970Y3874D01*
X3977Y3880D01*
X3982Y3887D01*
X3986Y3896D01*
X3987Y3905D01*
X3986Y3914D01*
X3982Y3923D01*
X3977Y3930D01*
X3970Y3936D01*
X3961Y3939D01*
X3952Y3940D01*
D02*
G37*
G36*
X9205Y3910D02*
X9195Y3908D01*
X9187Y3902D01*
X9181Y3894D01*
X9180Y3884D01*
X9181Y3875D01*
X9187Y3866D01*
Y3866D01*
X9182Y3863D01*
X9180Y3860D01*
X9200D01*
X9200Y3860D01*
Y3830D01*
X9180D01*
X9182Y3827D01*
X9186Y3824D01*
X9186Y3821D01*
X9186Y3819D01*
X9180Y3815D01*
X9176Y3809D01*
X9173Y3802D01*
X9172Y3795D01*
X9173Y3788D01*
X9176Y3781D01*
X9180Y3775D01*
X9186Y3771D01*
X9193Y3768D01*
X9200Y3767D01*
X9207Y3768D01*
X9214Y3771D01*
X9220Y3775D01*
X9224Y3781D01*
X9227Y3788D01*
X9228Y3795D01*
X9227Y3802D01*
X9224Y3809D01*
X9220Y3815D01*
X9214Y3819D01*
X9214Y3821D01*
X9214Y3824D01*
X9218Y3827D01*
X9223Y3835D01*
X9227Y3838D01*
X9227Y3838D01*
X9237Y3836D01*
X9247Y3838D01*
X9255Y3844D01*
X9261Y3852D01*
X9263Y3862D01*
X9261Y3871D01*
X9255Y3880D01*
X9247Y3885D01*
X9237Y3887D01*
X9230Y3886D01*
X9229Y3894D01*
X9223Y3902D01*
X9215Y3908D01*
X9205Y3910D01*
D02*
G37*
G36*
X10580Y3853D02*
X10575Y3850D01*
X10572Y3845D01*
X10580D01*
Y3853D01*
D02*
G37*
G36*
X10618Y3815D02*
X10610D01*
Y3807D01*
X10615Y3810D01*
X10618Y3815D01*
D02*
G37*
G36*
X10955Y3885D02*
X10945Y3884D01*
X10936Y3880D01*
X10928Y3874D01*
X10921Y3866D01*
X10917Y3857D01*
X10916Y3847D01*
X10917Y3837D01*
X10921Y3827D01*
X10928Y3819D01*
X10936Y3813D01*
X10945Y3809D01*
X10955Y3808D01*
X10965Y3809D01*
X10974Y3813D01*
X10982Y3819D01*
X10989Y3827D01*
X10993Y3837D01*
X10994Y3847D01*
X10993Y3857D01*
X10989Y3866D01*
X10982Y3874D01*
X10974Y3880D01*
X10965Y3884D01*
X10955Y3885D01*
D02*
G37*
G36*
X10295Y3870D02*
X10290D01*
Y3865D01*
X10293Y3867D01*
X10295Y3870D01*
D02*
G37*
G36*
X10010Y3990D02*
X10000Y3989D01*
X9992Y3983D01*
X9986Y3975D01*
X9985Y3965D01*
X9986Y3955D01*
X9992Y3947D01*
X10000Y3941D01*
X10010Y3940D01*
X10010Y3936D01*
X10010Y3935D01*
X10010Y3935D01*
X10011Y3925D01*
X10017Y3917D01*
Y3916D01*
X10012Y3913D01*
X10006Y3905D01*
X10005Y3895D01*
X10006Y3885D01*
X10012Y3877D01*
X10020Y3871D01*
X10030Y3870D01*
X10040Y3871D01*
X10048Y3877D01*
X10054Y3885D01*
X10055Y3895D01*
X10054Y3905D01*
X10048Y3913D01*
Y3914D01*
X10053Y3917D01*
X10059Y3925D01*
X10060Y3935D01*
X10059Y3945D01*
X10053Y3953D01*
X10045Y3959D01*
X10040Y3960D01*
X10037Y3960D01*
X10035Y3964D01*
X10035Y3965D01*
X10035Y3969D01*
X10034Y3975D01*
X10028Y3983D01*
X10020Y3989D01*
X10010Y3990D01*
D02*
G37*
G36*
X10610Y3853D02*
Y3845D01*
X10618D01*
X10615Y3850D01*
X10610Y3853D01*
D02*
G37*
G36*
X10260Y3870D02*
X10255D01*
X10257Y3867D01*
X10260Y3865D01*
Y3870D01*
D02*
G37*
G36*
X9455Y3573D02*
Y3565D01*
X9463D01*
X9460Y3570D01*
X9455Y3573D01*
D02*
G37*
G36*
X8505Y3650D02*
X8496Y3649D01*
X8487Y3646D01*
X8480Y3640D01*
X8474Y3633D01*
X8471Y3624D01*
X8470Y3615D01*
X8471Y3606D01*
X8474Y3597D01*
X8480Y3590D01*
X8487Y3584D01*
X8496Y3581D01*
X8505Y3580D01*
X8514Y3581D01*
X8523Y3584D01*
X8530Y3590D01*
X8536Y3597D01*
X8539Y3606D01*
X8540Y3615D01*
X8539Y3624D01*
X8536Y3633D01*
X8530Y3640D01*
X8523Y3646D01*
X8514Y3649D01*
X8505Y3650D01*
D02*
G37*
G36*
X9605Y3640D02*
X9595Y3639D01*
X9587Y3633D01*
X9581Y3625D01*
X9580Y3615D01*
X9581Y3605D01*
X9587Y3597D01*
X9595Y3591D01*
X9605Y3590D01*
X9605Y3586D01*
X9605Y3585D01*
X9605Y3585D01*
X9606Y3575D01*
X9612Y3567D01*
X9617Y3564D01*
Y3563D01*
X9611Y3555D01*
X9610Y3545D01*
X9611Y3535D01*
X9617Y3527D01*
X9625Y3521D01*
X9635Y3520D01*
X9645Y3521D01*
X9653Y3527D01*
X9657Y3533D01*
X9663D01*
X9667Y3527D01*
X9675Y3521D01*
X9685Y3520D01*
X9695Y3521D01*
X9703Y3527D01*
X9709Y3535D01*
X9709Y3536D01*
X9713Y3538D01*
X9715Y3536D01*
X9725Y3535D01*
X9735Y3536D01*
X9743Y3542D01*
X9748Y3549D01*
X9750Y3550D01*
X9754Y3551D01*
X9760Y3546D01*
X9770Y3545D01*
X9780Y3546D01*
X9788Y3552D01*
X9794Y3560D01*
X9795Y3570D01*
X9794Y3580D01*
X9788Y3588D01*
X9780Y3594D01*
X9770Y3595D01*
X9760Y3594D01*
X9752Y3588D01*
X9747Y3581D01*
X9745Y3580D01*
X9741Y3579D01*
X9735Y3584D01*
X9725Y3585D01*
X9715Y3584D01*
X9707Y3578D01*
X9701Y3570D01*
X9701Y3569D01*
X9697Y3567D01*
X9695Y3569D01*
X9685Y3570D01*
X9675Y3569D01*
X9667Y3563D01*
X9663Y3557D01*
X9657D01*
X9653Y3563D01*
X9648Y3566D01*
Y3567D01*
X9654Y3575D01*
X9655Y3585D01*
X9654Y3595D01*
X9648Y3603D01*
X9640Y3609D01*
X9635Y3610D01*
X9632Y3610D01*
X9630Y3614D01*
X9630Y3615D01*
X9630Y3619D01*
X9629Y3625D01*
X9623Y3633D01*
X9615Y3639D01*
X9605Y3640D01*
D02*
G37*
G36*
X9425Y3573D02*
X9420Y3570D01*
X9417Y3565D01*
X9425D01*
Y3573D01*
D02*
G37*
G36*
X5100Y3665D02*
X5091Y3664D01*
X5082Y3661D01*
X5075Y3655D01*
X5069Y3648D01*
X5066Y3639D01*
X5065Y3630D01*
X5066Y3621D01*
X5069Y3612D01*
X5075Y3605D01*
X5082Y3599D01*
X5091Y3596D01*
X5100Y3595D01*
X5109Y3596D01*
X5118Y3599D01*
X5125Y3605D01*
X5131Y3612D01*
X5134Y3621D01*
X5135Y3630D01*
X5134Y3639D01*
X5131Y3648D01*
X5125Y3655D01*
X5118Y3661D01*
X5109Y3664D01*
X5100Y3665D01*
D02*
G37*
G36*
X5225D02*
X5216Y3664D01*
X5207Y3661D01*
X5200Y3655D01*
X5194Y3648D01*
X5191Y3639D01*
X5190Y3630D01*
X5191Y3621D01*
X5194Y3612D01*
X5200Y3605D01*
X5207Y3599D01*
X5216Y3596D01*
X5225Y3595D01*
X5234Y3596D01*
X5243Y3599D01*
X5250Y3605D01*
X5256Y3612D01*
X5259Y3621D01*
X5260Y3630D01*
X5259Y3639D01*
X5256Y3648D01*
X5250Y3655D01*
X5243Y3661D01*
X5234Y3664D01*
X5225Y3665D01*
D02*
G37*
G36*
X8795Y3650D02*
X8786Y3649D01*
X8777Y3646D01*
X8770Y3640D01*
X8764Y3633D01*
X8761Y3624D01*
X8760Y3615D01*
X8761Y3606D01*
X8764Y3597D01*
X8770Y3590D01*
X8777Y3584D01*
X8786Y3581D01*
X8795Y3580D01*
X8804Y3581D01*
X8813Y3584D01*
X8820Y3590D01*
X8826Y3597D01*
X8829Y3606D01*
X8830Y3615D01*
X8829Y3624D01*
X8826Y3633D01*
X8820Y3640D01*
X8813Y3646D01*
X8804Y3649D01*
X8795Y3650D01*
D02*
G37*
G36*
X10615D02*
X10606Y3649D01*
X10598Y3646D01*
X10591Y3640D01*
X10585Y3633D01*
X10581Y3624D01*
X10580Y3615D01*
X10581Y3606D01*
X10585Y3597D01*
X10591Y3590D01*
X10598Y3584D01*
X10606Y3581D01*
X10615Y3580D01*
X10625Y3581D01*
X10633Y3584D01*
X10640Y3590D01*
X10646Y3597D01*
X10650Y3606D01*
X10651Y3615D01*
X10650Y3624D01*
X10646Y3633D01*
X10640Y3640D01*
X10633Y3646D01*
X10625Y3649D01*
X10615Y3650D01*
D02*
G37*
G36*
X9463Y3535D02*
X9455D01*
Y3527D01*
X9460Y3530D01*
X9463Y3535D01*
D02*
G37*
G36*
X10330Y3550D02*
X10320Y3549D01*
X10312Y3543D01*
X10306Y3535D01*
X10305Y3525D01*
X10306Y3515D01*
X10312Y3507D01*
X10320Y3501D01*
X10330Y3500D01*
X10340Y3501D01*
X10348Y3507D01*
X10354Y3515D01*
X10355Y3525D01*
X10354Y3535D01*
X10348Y3543D01*
X10340Y3549D01*
X10330Y3550D01*
D02*
G37*
G36*
X9580Y3560D02*
X9570Y3559D01*
X9562Y3553D01*
X9556Y3545D01*
X9555Y3535D01*
X9556Y3525D01*
X9562Y3517D01*
X9570Y3511D01*
X9580Y3510D01*
X9590Y3511D01*
X9598Y3517D01*
X9604Y3525D01*
X9605Y3535D01*
X9604Y3545D01*
X9598Y3553D01*
X9590Y3559D01*
X9580Y3560D01*
D02*
G37*
G36*
X10890Y3498D02*
Y3470D01*
X10918D01*
X10915Y3478D01*
X10908Y3488D01*
X10898Y3495D01*
X10890Y3498D01*
D02*
G37*
G36*
X10230Y3550D02*
X10220Y3549D01*
X10212Y3543D01*
X10206Y3535D01*
X10205Y3525D01*
X10206Y3515D01*
X10212Y3507D01*
X10220Y3501D01*
X10230Y3500D01*
X10240Y3501D01*
X10248Y3507D01*
X10254Y3515D01*
X10255Y3525D01*
X10254Y3535D01*
X10248Y3543D01*
X10240Y3549D01*
X10230Y3550D01*
D02*
G37*
G36*
X9825Y3532D02*
Y3515D01*
X9842D01*
X9841Y3518D01*
X9835Y3525D01*
X9828Y3531D01*
X9825Y3532D01*
D02*
G37*
G36*
X9425Y3535D02*
X9417D01*
X9420Y3530D01*
X9425Y3527D01*
Y3535D01*
D02*
G37*
G36*
X9140Y3585D02*
X9131Y3584D01*
X9122Y3581D01*
X9115Y3575D01*
X9109Y3568D01*
X9106Y3559D01*
X9105Y3550D01*
X9106Y3541D01*
X9109Y3532D01*
X9115Y3525D01*
X9122Y3519D01*
X9131Y3516D01*
X9140Y3515D01*
X9149Y3516D01*
X9158Y3519D01*
X9165Y3525D01*
X9171Y3532D01*
X9174Y3541D01*
X9175Y3550D01*
X9174Y3559D01*
X9171Y3568D01*
X9165Y3575D01*
X9158Y3581D01*
X9149Y3584D01*
X9140Y3585D01*
D02*
G37*
G36*
X9795Y3532D02*
X9792Y3531D01*
X9785Y3525D01*
X9779Y3518D01*
X9778Y3515D01*
X9795D01*
Y3532D01*
D02*
G37*
G36*
X9237Y3685D02*
X9228Y3684D01*
X9219Y3681D01*
X9212Y3675D01*
X9206Y3668D01*
X9203Y3659D01*
X9202Y3650D01*
X9203Y3641D01*
X9206Y3632D01*
X9212Y3625D01*
X9219Y3619D01*
X9228Y3616D01*
X9237Y3615D01*
X9246Y3616D01*
X9255Y3619D01*
X9262Y3625D01*
X9268Y3632D01*
X9271Y3641D01*
X9272Y3650D01*
X9271Y3659D01*
X9268Y3668D01*
X9262Y3675D01*
X9255Y3681D01*
X9246Y3684D01*
X9237Y3685D01*
D02*
G37*
G36*
X3630Y3707D02*
Y3690D01*
X3647D01*
X3646Y3693D01*
X3640Y3700D01*
X3633Y3706D01*
X3630Y3707D01*
D02*
G37*
G36*
X8855D02*
X8852Y3706D01*
X8845Y3700D01*
X8839Y3693D01*
X8838Y3690D01*
X8855D01*
Y3707D01*
D02*
G37*
G36*
X10757Y3700D02*
X10740D01*
Y3683D01*
X10743Y3684D01*
X10750Y3690D01*
X10756Y3697D01*
X10757Y3700D01*
D02*
G37*
G36*
X3600Y3707D02*
X3597Y3706D01*
X3590Y3700D01*
X3584Y3693D01*
X3583Y3690D01*
X3600D01*
Y3707D01*
D02*
G37*
G36*
X4600Y3717D02*
Y3700D01*
X4617D01*
X4616Y3703D01*
X4610Y3710D01*
X4603Y3716D01*
X4600Y3717D01*
D02*
G37*
G36*
X6185Y3720D02*
X6168D01*
X6169Y3717D01*
X6175Y3710D01*
X6182Y3704D01*
X6185Y3703D01*
Y3720D01*
D02*
G37*
G36*
X8885Y3707D02*
Y3690D01*
X8902D01*
X8901Y3693D01*
X8895Y3700D01*
X8888Y3706D01*
X8885Y3707D01*
D02*
G37*
G36*
X4570Y3717D02*
X4567Y3716D01*
X4560Y3710D01*
X4554Y3703D01*
X4553Y3700D01*
X4570D01*
Y3717D01*
D02*
G37*
G36*
X10710Y3700D02*
X10693D01*
X10694Y3697D01*
X10700Y3690D01*
X10707Y3684D01*
X10710Y3683D01*
Y3700D01*
D02*
G37*
G36*
X8855Y3660D02*
X8838D01*
X8839Y3657D01*
X8845Y3650D01*
X8852Y3644D01*
X8855Y3643D01*
Y3660D01*
D02*
G37*
G36*
X8902D02*
X8885D01*
Y3643D01*
X8888Y3644D01*
X8895Y3650D01*
X8901Y3657D01*
X8902Y3660D01*
D02*
G37*
G36*
X3600D02*
X3583D01*
X3584Y3657D01*
X3590Y3650D01*
X3597Y3644D01*
X3600Y3643D01*
Y3660D01*
D02*
G37*
G36*
X3647D02*
X3630D01*
Y3643D01*
X3633Y3644D01*
X3640Y3650D01*
X3646Y3657D01*
X3647Y3660D01*
D02*
G37*
G36*
X4065Y3690D02*
X4048D01*
X4049Y3687D01*
X4055Y3680D01*
X4062Y3674D01*
X4065Y3673D01*
Y3690D01*
D02*
G37*
G36*
X4112D02*
X4095D01*
Y3673D01*
X4098Y3674D01*
X4105Y3680D01*
X4111Y3687D01*
X4112Y3690D01*
D02*
G37*
G36*
X4570Y3670D02*
X4553D01*
X4554Y3667D01*
X4560Y3660D01*
X4567Y3654D01*
X4570Y3653D01*
Y3670D01*
D02*
G37*
G36*
X4617D02*
X4600D01*
Y3653D01*
X4603Y3654D01*
X4610Y3660D01*
X4616Y3667D01*
X4617Y3670D01*
D02*
G37*
G36*
X7457Y4215D02*
X7440D01*
Y4198D01*
X7443Y4199D01*
X7450Y4205D01*
X7456Y4212D01*
X7457Y4215D01*
D02*
G37*
G36*
X8670Y4285D02*
X8660Y4284D01*
X8650Y4280D01*
X8641Y4274D01*
X8635Y4265D01*
X8631Y4255D01*
X8630Y4245D01*
X8631Y4235D01*
X8635Y4225D01*
X8641Y4216D01*
X8650Y4210D01*
X8660Y4206D01*
X8670Y4205D01*
X8680Y4206D01*
X8690Y4210D01*
X8699Y4216D01*
X8705Y4225D01*
X8709Y4235D01*
X8710Y4245D01*
X8709Y4255D01*
X8705Y4265D01*
X8699Y4274D01*
X8690Y4280D01*
X8680Y4284D01*
X8670Y4285D01*
D02*
G37*
G36*
X10980Y4275D02*
X10900D01*
Y4195D01*
X10980D01*
Y4275D01*
D02*
G37*
G36*
X7410Y4215D02*
X7393D01*
X7394Y4212D01*
X7400Y4205D01*
X7407Y4199D01*
X7410Y4198D01*
Y4215D01*
D02*
G37*
G36*
X7660Y4308D02*
X7648Y4306D01*
X7636Y4302D01*
X7626Y4294D01*
X7618Y4284D01*
X7614Y4272D01*
X7612Y4260D01*
X7614Y4248D01*
X7618Y4236D01*
X7626Y4226D01*
X7636Y4218D01*
X7648Y4214D01*
X7660Y4212D01*
X7672Y4214D01*
X7684Y4218D01*
X7694Y4226D01*
X7702Y4236D01*
X7706Y4248D01*
X7708Y4260D01*
X7706Y4272D01*
X7702Y4284D01*
X7694Y4294D01*
X7684Y4302D01*
X7672Y4306D01*
X7660Y4308D01*
D02*
G37*
G36*
X3955Y4315D02*
X3946Y4314D01*
X3937Y4311D01*
X3930Y4305D01*
X3924Y4298D01*
X3921Y4289D01*
X3920Y4280D01*
X3921Y4271D01*
X3924Y4262D01*
X3930Y4255D01*
X3937Y4249D01*
X3946Y4246D01*
X3955Y4245D01*
X3964Y4246D01*
X3973Y4249D01*
X3980Y4255D01*
X3986Y4262D01*
X3989Y4271D01*
X3990Y4280D01*
X3989Y4289D01*
X3986Y4298D01*
X3980Y4305D01*
X3973Y4311D01*
X3964Y4314D01*
X3955Y4315D01*
D02*
G37*
G36*
X8555Y4230D02*
X8533D01*
X8535Y4225D01*
X8541Y4216D01*
X8550Y4210D01*
X8555Y4208D01*
Y4230D01*
D02*
G37*
G36*
X8607D02*
X8585D01*
Y4208D01*
X8590Y4210D01*
X8599Y4216D01*
X8605Y4225D01*
X8607Y4230D01*
D02*
G37*
G36*
X5400Y4245D02*
X5391Y4244D01*
X5382Y4241D01*
X5375Y4235D01*
X5369Y4228D01*
X5366Y4219D01*
X5365Y4210D01*
X5366Y4201D01*
X5369Y4192D01*
X5375Y4185D01*
X5382Y4179D01*
X5391Y4176D01*
X5400Y4175D01*
X5409Y4176D01*
X5418Y4179D01*
X5425Y4185D01*
X5431Y4192D01*
X5434Y4201D01*
X5435Y4210D01*
X5434Y4219D01*
X5431Y4228D01*
X5425Y4235D01*
X5418Y4241D01*
X5409Y4244D01*
X5400Y4245D01*
D02*
G37*
G36*
X8555Y4130D02*
X8533D01*
X8535Y4125D01*
X8541Y4116D01*
X8550Y4110D01*
X8555Y4108D01*
Y4130D01*
D02*
G37*
G36*
X8607D02*
X8585D01*
Y4108D01*
X8590Y4110D01*
X8599Y4116D01*
X8605Y4125D01*
X8607Y4130D01*
D02*
G37*
G36*
X10010Y4122D02*
X10007Y4121D01*
X10000Y4115D01*
X9994Y4108D01*
X9993Y4105D01*
X10010D01*
Y4122D01*
D02*
G37*
G36*
X10040D02*
Y4105D01*
X10057D01*
X10056Y4108D01*
X10050Y4115D01*
X10043Y4121D01*
X10040Y4122D01*
D02*
G37*
G36*
X8585Y4182D02*
Y4160D01*
X8607D01*
X8605Y4165D01*
X8599Y4174D01*
X8590Y4180D01*
X8585Y4182D01*
D02*
G37*
G36*
X5085Y4240D02*
X5076Y4239D01*
X5067Y4236D01*
X5060Y4230D01*
X5054Y4223D01*
X5051Y4214D01*
X5050Y4205D01*
X5051Y4196D01*
X5054Y4187D01*
X5060Y4180D01*
X5067Y4174D01*
X5076Y4171D01*
X5085Y4170D01*
X5094Y4171D01*
X5103Y4174D01*
X5110Y4180D01*
X5116Y4187D01*
X5119Y4196D01*
X5120Y4205D01*
X5119Y4214D01*
X5116Y4223D01*
X5110Y4230D01*
X5103Y4236D01*
X5094Y4239D01*
X5085Y4240D01*
D02*
G37*
G36*
X10505Y4133D02*
X10498Y4132D01*
X10491Y4129D01*
X10485Y4125D01*
X10483Y4122D01*
X10477D01*
X10475Y4125D01*
X10469Y4129D01*
X10462Y4132D01*
X10455Y4133D01*
X10448Y4132D01*
X10441Y4129D01*
X10435Y4125D01*
X10431Y4119D01*
X10428Y4112D01*
X10427Y4105D01*
X10428Y4098D01*
X10431Y4091D01*
X10435Y4085D01*
X10441Y4081D01*
X10448Y4078D01*
X10455Y4077D01*
X10462Y4078D01*
X10469Y4081D01*
X10475Y4085D01*
X10477Y4088D01*
X10483D01*
X10485Y4085D01*
X10491Y4081D01*
X10498Y4078D01*
X10505Y4077D01*
X10512Y4078D01*
X10519Y4081D01*
X10525Y4085D01*
X10529Y4091D01*
X10532Y4098D01*
X10533Y4105D01*
X10532Y4112D01*
X10529Y4119D01*
X10525Y4125D01*
X10519Y4129D01*
X10512Y4132D01*
X10505Y4133D01*
D02*
G37*
G36*
X8555Y4182D02*
X8550Y4180D01*
X8541Y4174D01*
X8535Y4165D01*
X8533Y4160D01*
X8555D01*
Y4182D01*
D02*
G37*
G36*
X7410Y4262D02*
X7407Y4261D01*
X7400Y4255D01*
X7394Y4248D01*
X7393Y4245D01*
X7410D01*
Y4262D01*
D02*
G37*
G36*
X5107Y4325D02*
X5090D01*
Y4308D01*
X5093Y4309D01*
X5100Y4315D01*
X5106Y4322D01*
X5107Y4325D01*
D02*
G37*
G36*
X6710Y4385D02*
X6701Y4384D01*
X6692Y4381D01*
X6685Y4375D01*
X6679Y4368D01*
X6676Y4359D01*
X6675Y4350D01*
X6676Y4341D01*
X6679Y4332D01*
X6685Y4325D01*
X6692Y4319D01*
X6701Y4316D01*
X6710Y4315D01*
X6719Y4316D01*
X6728Y4319D01*
X6735Y4325D01*
X6741Y4332D01*
X6744Y4341D01*
X6745Y4350D01*
X6744Y4359D01*
X6741Y4368D01*
X6735Y4375D01*
X6728Y4381D01*
X6719Y4384D01*
X6710Y4385D01*
D02*
G37*
G36*
X4837Y4325D02*
X4820D01*
Y4308D01*
X4823Y4309D01*
X4830Y4315D01*
X4836Y4322D01*
X4837Y4325D01*
D02*
G37*
G36*
X5060D02*
X5043D01*
X5044Y4322D01*
X5050Y4315D01*
X5057Y4309D01*
X5060Y4308D01*
Y4325D01*
D02*
G37*
G36*
X4470Y4425D02*
X4461Y4424D01*
X4452Y4421D01*
X4445Y4415D01*
X4439Y4408D01*
X4436Y4399D01*
X4435Y4390D01*
X4436Y4381D01*
X4439Y4372D01*
X4445Y4365D01*
X4452Y4359D01*
X4461Y4356D01*
X4470Y4355D01*
X4479Y4356D01*
X4488Y4359D01*
X4495Y4365D01*
X4501Y4372D01*
X4504Y4381D01*
X4505Y4390D01*
X4504Y4399D01*
X4501Y4408D01*
X4495Y4415D01*
X4488Y4421D01*
X4479Y4424D01*
X4470Y4425D01*
D02*
G37*
G36*
X4790Y4372D02*
X4787Y4371D01*
X4780Y4365D01*
X4774Y4358D01*
X4773Y4355D01*
X4790D01*
Y4372D01*
D02*
G37*
G36*
X4565Y4365D02*
X4548D01*
X4549Y4362D01*
X4555Y4355D01*
X4562Y4349D01*
X4565Y4348D01*
Y4365D01*
D02*
G37*
G36*
X4612D02*
X4595D01*
Y4348D01*
X4598Y4349D01*
X4605Y4355D01*
X4611Y4362D01*
X4612Y4365D01*
D02*
G37*
G36*
X4790Y4325D02*
X4773D01*
X4774Y4322D01*
X4780Y4315D01*
X4787Y4309D01*
X4790Y4308D01*
Y4325D01*
D02*
G37*
G36*
X8585Y4282D02*
Y4260D01*
X8607D01*
X8605Y4265D01*
X8599Y4274D01*
X8590Y4280D01*
X8585Y4282D01*
D02*
G37*
G36*
X10940Y4375D02*
X10930Y4374D01*
X10920Y4370D01*
X10911Y4364D01*
X10905Y4355D01*
X10901Y4345D01*
X10900Y4335D01*
X10901Y4325D01*
X10905Y4315D01*
X10911Y4306D01*
X10920Y4300D01*
X10930Y4296D01*
X10940Y4295D01*
X10950Y4296D01*
X10960Y4300D01*
X10969Y4306D01*
X10975Y4315D01*
X10979Y4325D01*
X10980Y4335D01*
X10979Y4345D01*
X10975Y4355D01*
X10969Y4364D01*
X10960Y4370D01*
X10950Y4374D01*
X10940Y4375D01*
D02*
G37*
G36*
X7440Y4262D02*
Y4245D01*
X7457D01*
X7456Y4248D01*
X7450Y4255D01*
X7443Y4261D01*
X7440Y4262D01*
D02*
G37*
G36*
X8555Y4282D02*
X8550Y4280D01*
X8541Y4274D01*
X8535Y4265D01*
X8533Y4260D01*
X8555D01*
Y4282D01*
D02*
G37*
G36*
Y4330D02*
X8533D01*
X8535Y4325D01*
X8541Y4316D01*
X8550Y4310D01*
X8555Y4308D01*
Y4330D01*
D02*
G37*
G36*
X8607D02*
X8585D01*
Y4308D01*
X8590Y4310D01*
X8599Y4316D01*
X8605Y4325D01*
X8607Y4330D01*
D02*
G37*
G36*
X8670Y4385D02*
X8660Y4384D01*
X8650Y4380D01*
X8641Y4374D01*
X8635Y4365D01*
X8631Y4355D01*
X8630Y4345D01*
X8631Y4335D01*
X8635Y4325D01*
X8641Y4316D01*
X8650Y4310D01*
X8660Y4306D01*
X8670Y4305D01*
X8680Y4306D01*
X8690Y4310D01*
X8699Y4316D01*
X8705Y4325D01*
X8709Y4335D01*
X8710Y4345D01*
X8709Y4355D01*
X8705Y4365D01*
X8699Y4374D01*
X8690Y4380D01*
X8680Y4384D01*
X8670Y4385D01*
D02*
G37*
G36*
X7030Y4375D02*
X7021Y4374D01*
X7012Y4371D01*
X7005Y4365D01*
X6999Y4358D01*
X6996Y4349D01*
X6995Y4340D01*
X6996Y4331D01*
X6999Y4322D01*
X7005Y4315D01*
X7012Y4309D01*
X7021Y4306D01*
X7030Y4305D01*
X7039Y4306D01*
X7048Y4309D01*
X7055Y4315D01*
X7061Y4322D01*
X7064Y4331D01*
X7065Y4340D01*
X7064Y4349D01*
X7061Y4358D01*
X7055Y4365D01*
X7048Y4371D01*
X7039Y4374D01*
X7030Y4375D01*
D02*
G37*
G36*
X3415Y4070D02*
X3406Y4069D01*
X3397Y4066D01*
X3390Y4060D01*
X3384Y4053D01*
X3381Y4044D01*
X3380Y4035D01*
X3381Y4026D01*
X3384Y4017D01*
X3390Y4010D01*
X3397Y4004D01*
X3406Y4001D01*
X3415Y4000D01*
X3424Y4001D01*
X3433Y4004D01*
X3440Y4010D01*
X3446Y4017D01*
X3449Y4026D01*
X3450Y4035D01*
X3449Y4044D01*
X3446Y4053D01*
X3440Y4060D01*
X3433Y4066D01*
X3424Y4069D01*
X3415Y4070D01*
D02*
G37*
G36*
X3515D02*
X3506Y4069D01*
X3497Y4066D01*
X3490Y4060D01*
X3484Y4053D01*
X3481Y4044D01*
X3480Y4035D01*
X3481Y4026D01*
X3484Y4017D01*
X3490Y4010D01*
X3497Y4004D01*
X3506Y4001D01*
X3515Y4000D01*
X3524Y4001D01*
X3533Y4004D01*
X3540Y4010D01*
X3546Y4017D01*
X3549Y4026D01*
X3550Y4035D01*
X3549Y4044D01*
X3546Y4053D01*
X3540Y4060D01*
X3533Y4066D01*
X3524Y4069D01*
X3515Y4070D01*
D02*
G37*
G36*
X10260Y4000D02*
X10255D01*
X10257Y3997D01*
X10260Y3995D01*
Y4000D01*
D02*
G37*
G36*
X10295D02*
X10290D01*
Y3995D01*
X10293Y3997D01*
X10295Y4000D01*
D02*
G37*
G36*
X8670Y4085D02*
X8660Y4084D01*
X8650Y4080D01*
X8641Y4074D01*
X8635Y4065D01*
X8631Y4055D01*
X8630Y4045D01*
X8631Y4035D01*
X8635Y4025D01*
X8641Y4016D01*
X8650Y4010D01*
X8660Y4006D01*
X8670Y4005D01*
X8680Y4006D01*
X8690Y4010D01*
X8699Y4016D01*
X8705Y4025D01*
X8709Y4035D01*
X8710Y4045D01*
X8709Y4055D01*
X8705Y4065D01*
X8699Y4074D01*
X8690Y4080D01*
X8680Y4084D01*
X8670Y4085D01*
D02*
G37*
G36*
X10855Y4032D02*
X10852Y4031D01*
X10845Y4025D01*
X10839Y4018D01*
X10838Y4015D01*
X10855D01*
Y4032D01*
D02*
G37*
G36*
X10955Y4082D02*
X10945Y4081D01*
X10936Y4077D01*
X10928Y4071D01*
X10921Y4063D01*
X10917Y4053D01*
X10916Y4043D01*
X10917Y4033D01*
X10921Y4024D01*
X10928Y4016D01*
X10936Y4010D01*
X10945Y4006D01*
X10955Y4005D01*
X10965Y4006D01*
X10974Y4010D01*
X10982Y4016D01*
X10989Y4024D01*
X10993Y4033D01*
X10994Y4043D01*
X10993Y4053D01*
X10989Y4063D01*
X10982Y4071D01*
X10974Y4077D01*
X10965Y4081D01*
X10955Y4082D01*
D02*
G37*
G36*
X8570Y4085D02*
X8560Y4084D01*
X8550Y4080D01*
X8541Y4074D01*
X8535Y4065D01*
X8531Y4055D01*
X8530Y4045D01*
X8531Y4035D01*
X8535Y4025D01*
X8541Y4016D01*
X8550Y4010D01*
X8560Y4006D01*
X8570Y4005D01*
X8580Y4006D01*
X8590Y4010D01*
X8599Y4016D01*
X8605Y4025D01*
X8609Y4035D01*
X8610Y4045D01*
X8609Y4055D01*
X8605Y4065D01*
X8599Y4074D01*
X8590Y4080D01*
X8580Y4084D01*
X8570Y4085D01*
D02*
G37*
G36*
X4213Y4063D02*
X4203Y4062D01*
X4195Y4058D01*
X4188Y4052D01*
X4182Y4045D01*
X4178Y4037D01*
X4177Y4028D01*
X4178Y4018D01*
X4182Y4010D01*
X4188Y4003D01*
X4195Y3997D01*
X4203Y3993D01*
X4213Y3992D01*
X4222Y3993D01*
X4230Y3997D01*
X4237Y4003D01*
X4243Y4010D01*
X4247Y4018D01*
X4248Y4028D01*
X4247Y4037D01*
X4243Y4045D01*
X4237Y4052D01*
X4230Y4058D01*
X4222Y4062D01*
X4213Y4063D01*
D02*
G37*
G36*
X7425Y4010D02*
X7416Y4009D01*
X7407Y4006D01*
X7400Y4000D01*
X7394Y3993D01*
X7391Y3984D01*
X7390Y3975D01*
X7391Y3966D01*
X7394Y3957D01*
X7400Y3950D01*
X7407Y3944D01*
X7416Y3941D01*
X7425Y3940D01*
X7434Y3941D01*
X7443Y3944D01*
X7450Y3950D01*
X7456Y3957D01*
X7459Y3966D01*
X7460Y3975D01*
X7459Y3984D01*
X7456Y3993D01*
X7450Y4000D01*
X7443Y4006D01*
X7434Y4009D01*
X7425Y4010D01*
D02*
G37*
G36*
X10855Y3985D02*
X10838D01*
X10839Y3982D01*
X10845Y3975D01*
X10852Y3969D01*
X10855Y3968D01*
Y3985D01*
D02*
G37*
G36*
X8014Y4009D02*
X8002Y4007D01*
X7990Y4002D01*
X7980Y3995D01*
X7973Y3985D01*
X7968Y3973D01*
X7966Y3961D01*
X7968Y3948D01*
X7973Y3937D01*
X7980Y3927D01*
X7990Y3919D01*
X8002Y3914D01*
X8014Y3913D01*
X8027Y3914D01*
X8038Y3919D01*
X8048Y3927D01*
X8056Y3937D01*
X8061Y3948D01*
X8062Y3961D01*
X8061Y3973D01*
X8056Y3985D01*
X8048Y3995D01*
X8038Y4002D01*
X8027Y4007D01*
X8014Y4009D01*
D02*
G37*
G36*
X8164D02*
X8152Y4007D01*
X8140Y4002D01*
X8130Y3995D01*
X8122Y3985D01*
X8118Y3973D01*
X8116Y3961D01*
X8118Y3948D01*
X8122Y3937D01*
X8130Y3927D01*
X8140Y3919D01*
X8152Y3914D01*
X8164Y3913D01*
X8176Y3914D01*
X8188Y3919D01*
X8198Y3927D01*
X8205Y3937D01*
X8210Y3948D01*
X8212Y3961D01*
X8210Y3973D01*
X8205Y3985D01*
X8198Y3995D01*
X8188Y4002D01*
X8176Y4007D01*
X8164Y4009D01*
D02*
G37*
G36*
X7730Y4018D02*
Y3976D01*
X7772D01*
X7770Y3984D01*
X7765Y3994D01*
X7757Y4003D01*
X7748Y4010D01*
X7738Y4016D01*
X7730Y4018D01*
D02*
G37*
G36*
X10055Y4033D02*
X10048Y4032D01*
X10041Y4029D01*
X10035Y4025D01*
X10031Y4019D01*
X10028Y4012D01*
X10027Y4005D01*
X10028Y3998D01*
X10031Y3991D01*
X10035Y3985D01*
X10041Y3981D01*
X10048Y3978D01*
X10055Y3977D01*
X10062Y3978D01*
X10069Y3981D01*
X10075Y3985D01*
X10079Y3991D01*
X10082Y3998D01*
X10083Y4005D01*
X10082Y4012D01*
X10079Y4019D01*
X10075Y4025D01*
X10069Y4029D01*
X10062Y4032D01*
X10055Y4033D01*
D02*
G37*
G36*
X10902Y3985D02*
X10885D01*
Y3968D01*
X10888Y3969D01*
X10895Y3975D01*
X10901Y3982D01*
X10902Y3985D01*
D02*
G37*
G36*
X7700Y4018D02*
X7692Y4016D01*
X7682Y4010D01*
X7673Y4003D01*
X7666Y3994D01*
X7660Y3984D01*
X7658Y3976D01*
X7700D01*
Y4018D01*
D02*
G37*
G36*
X10885Y4032D02*
Y4015D01*
X10902D01*
X10901Y4018D01*
X10895Y4025D01*
X10888Y4031D01*
X10885Y4032D01*
D02*
G37*
G36*
X10057Y4075D02*
X10040D01*
Y4058D01*
X10043Y4059D01*
X10050Y4065D01*
X10056Y4072D01*
X10057Y4075D01*
D02*
G37*
G36*
X11075Y4105D02*
X11048D01*
X11039Y4103D01*
X11032Y4099D01*
X11027Y4091D01*
X11025Y4083D01*
X11027Y4074D01*
X11032Y4067D01*
X11039Y4062D01*
X11048Y4061D01*
X11075D01*
X11084Y4062D01*
X11091Y4067D01*
X11096Y4074D01*
X11097Y4083D01*
X11096Y4091D01*
X11091Y4099D01*
X11084Y4103D01*
X11075Y4105D01*
D02*
G37*
G36*
X9180Y4218D02*
X9173Y4217D01*
X9166Y4214D01*
X9160Y4210D01*
X9156Y4204D01*
X9153Y4197D01*
X9152Y4190D01*
X9153Y4187D01*
X9150Y4183D01*
X9143Y4182D01*
X9136Y4179D01*
X9130Y4175D01*
X9126Y4169D01*
X9123Y4162D01*
X9122Y4155D01*
X9123Y4148D01*
X9126Y4141D01*
X9130Y4135D01*
X9136Y4131D01*
X9143Y4128D01*
X9150Y4127D01*
X9157Y4128D01*
X9160Y4130D01*
X9165Y4126D01*
X9165Y4125D01*
X9166Y4115D01*
X9172Y4107D01*
X9180Y4101D01*
X9186Y4100D01*
X9189Y4095D01*
X9188Y4092D01*
X9187Y4085D01*
X9188Y4078D01*
X9191Y4071D01*
X9195Y4065D01*
X9201Y4061D01*
X9208Y4058D01*
X9215Y4057D01*
X9222Y4058D01*
X9229Y4061D01*
X9235Y4065D01*
X9239Y4071D01*
X9242Y4078D01*
X9243Y4085D01*
X9242Y4092D01*
X9239Y4099D01*
X9235Y4105D01*
X9229Y4109D01*
X9222Y4112D01*
X9218Y4112D01*
X9217Y4113D01*
X9214Y4117D01*
X9214Y4118D01*
X9215Y4125D01*
X9214Y4135D01*
X9208Y4143D01*
X9200Y4149D01*
X9190Y4150D01*
X9182Y4149D01*
X9178Y4152D01*
X9177Y4153D01*
X9178Y4155D01*
X9177Y4158D01*
X9180Y4162D01*
X9187Y4163D01*
X9194Y4166D01*
X9200Y4170D01*
X9204Y4176D01*
X9207Y4183D01*
X9208Y4190D01*
X9207Y4197D01*
X9204Y4204D01*
X9200Y4210D01*
X9194Y4214D01*
X9187Y4217D01*
X9180Y4218D01*
D02*
G37*
G36*
X10010Y4075D02*
X9993D01*
X9994Y4072D01*
X10000Y4065D01*
X10007Y4059D01*
X10010Y4058D01*
Y4075D01*
D02*
G37*
G36*
X5855Y4097D02*
Y4080D01*
X5872D01*
X5871Y4083D01*
X5865Y4090D01*
X5858Y4096D01*
X5855Y4097D01*
D02*
G37*
G36*
X8670Y4185D02*
X8660Y4184D01*
X8650Y4180D01*
X8641Y4174D01*
X8635Y4165D01*
X8631Y4155D01*
X8630Y4145D01*
X8631Y4135D01*
X8635Y4125D01*
X8641Y4116D01*
X8650Y4110D01*
X8660Y4106D01*
X8670Y4105D01*
X8680Y4106D01*
X8690Y4110D01*
X8699Y4116D01*
X8705Y4125D01*
X8709Y4135D01*
X8710Y4145D01*
X8709Y4155D01*
X8705Y4165D01*
X8699Y4174D01*
X8690Y4180D01*
X8680Y4184D01*
X8670Y4185D01*
D02*
G37*
G36*
X7660Y4158D02*
X7648Y4157D01*
X7636Y4152D01*
X7626Y4144D01*
X7618Y4134D01*
X7614Y4123D01*
X7612Y4110D01*
X7614Y4098D01*
X7618Y4086D01*
X7626Y4076D01*
X7636Y4069D01*
X7648Y4064D01*
X7660Y4062D01*
X7672Y4064D01*
X7684Y4069D01*
X7694Y4076D01*
X7702Y4086D01*
X7706Y4098D01*
X7708Y4110D01*
X7706Y4123D01*
X7702Y4134D01*
X7694Y4144D01*
X7684Y4152D01*
X7672Y4157D01*
X7660Y4158D01*
D02*
G37*
G36*
X5825Y4097D02*
X5822Y4096D01*
X5815Y4090D01*
X5809Y4083D01*
X5808Y4080D01*
X5825D01*
Y4097D01*
D02*
G37*
G36*
X10605Y4063D02*
Y4055D01*
X10613D01*
X10610Y4060D01*
X10605Y4063D01*
D02*
G37*
G36*
X9105Y4033D02*
X9098Y4032D01*
X9091Y4029D01*
X9086Y4025D01*
X9084Y4024D01*
X9081D01*
X9079Y4025D01*
X9074Y4029D01*
X9067Y4032D01*
X9060Y4033D01*
X9053Y4032D01*
X9046Y4029D01*
X9041Y4025D01*
X9039Y4024D01*
X9036D01*
X9034Y4025D01*
X9029Y4029D01*
X9022Y4032D01*
X9015Y4033D01*
X9008Y4032D01*
X9001Y4029D01*
X8995Y4025D01*
X8993Y4022D01*
X8987D01*
X8985Y4025D01*
X8979Y4029D01*
X8972Y4032D01*
X8965Y4033D01*
X8958Y4032D01*
X8951Y4029D01*
X8945Y4025D01*
X8941Y4019D01*
X8938Y4012D01*
X8937Y4005D01*
X8938Y3998D01*
X8941Y3991D01*
X8945Y3985D01*
X8951Y3981D01*
X8958Y3978D01*
X8965Y3977D01*
X8972Y3978D01*
X8979Y3981D01*
X8985Y3985D01*
X8987Y3988D01*
X8993D01*
X8995Y3985D01*
X9001Y3981D01*
X9008Y3978D01*
X9015Y3977D01*
X9022Y3978D01*
X9029Y3981D01*
X9034Y3985D01*
X9036Y3986D01*
X9039D01*
X9041Y3985D01*
X9046Y3981D01*
X9053Y3978D01*
X9060Y3977D01*
X9067Y3978D01*
X9074Y3981D01*
X9079Y3985D01*
X9081Y3986D01*
X9084D01*
X9086Y3985D01*
X9091Y3981D01*
X9098Y3978D01*
X9105Y3977D01*
X9112Y3978D01*
X9119Y3981D01*
X9125Y3985D01*
X9129Y3991D01*
X9132Y3998D01*
X9133Y4005D01*
X9132Y4012D01*
X9129Y4019D01*
X9125Y4025D01*
X9119Y4029D01*
X9112Y4032D01*
X9105Y4033D01*
D02*
G37*
G36*
X10260Y4035D02*
X10257Y4033D01*
X10255Y4030D01*
X10260D01*
Y4035D01*
D02*
G37*
G36*
X10575Y4025D02*
X10567D01*
X10570Y4020D01*
X10575Y4017D01*
Y4025D01*
D02*
G37*
G36*
X10613D02*
X10605D01*
Y4017D01*
X10610Y4020D01*
X10613Y4025D01*
D02*
G37*
G36*
X5872Y4050D02*
X5855D01*
Y4033D01*
X5858Y4034D01*
X5865Y4040D01*
X5871Y4047D01*
X5872Y4050D01*
D02*
G37*
G36*
X10575Y4063D02*
X10570Y4060D01*
X10567Y4055D01*
X10575D01*
Y4063D01*
D02*
G37*
G36*
X10290Y4035D02*
Y4030D01*
X10295D01*
X10293Y4033D01*
X10290Y4035D01*
D02*
G37*
G36*
X5825Y4050D02*
X5808D01*
X5809Y4047D01*
X5815Y4040D01*
X5822Y4034D01*
X5825Y4033D01*
Y4050D01*
D02*
G37*
G36*
X10860Y3498D02*
X10852Y3495D01*
X10842Y3488D01*
X10835Y3478D01*
X10832Y3470D01*
X10860D01*
Y3498D01*
D02*
G37*
G36*
X6030Y2679D02*
X6019Y2677D01*
X6008Y2673D01*
X5999Y2666D01*
X5992Y2657D01*
X5988Y2646D01*
X5986Y2635D01*
X5988Y2624D01*
X5992Y2613D01*
X5999Y2604D01*
X6008Y2597D01*
X6019Y2593D01*
X6030Y2591D01*
X6041Y2593D01*
X6052Y2597D01*
X6061Y2604D01*
X6068Y2613D01*
X6072Y2624D01*
X6074Y2635D01*
X6072Y2646D01*
X6068Y2657D01*
X6061Y2666D01*
X6052Y2673D01*
X6041Y2677D01*
X6030Y2679D01*
D02*
G37*
G36*
X6148D02*
X6137Y2677D01*
X6126Y2673D01*
X6117Y2666D01*
X6110Y2657D01*
X6106Y2646D01*
X6104Y2635D01*
X6106Y2624D01*
X6110Y2613D01*
X6117Y2604D01*
X6126Y2597D01*
X6137Y2593D01*
X6148Y2591D01*
X6159Y2593D01*
X6170Y2597D01*
X6179Y2604D01*
X6186Y2613D01*
X6190Y2624D01*
X6192Y2635D01*
X6190Y2646D01*
X6186Y2657D01*
X6179Y2666D01*
X6170Y2673D01*
X6159Y2677D01*
X6148Y2679D01*
D02*
G37*
G36*
X7551Y2677D02*
X7540Y2676D01*
X7529Y2671D01*
X7520Y2664D01*
X7513Y2655D01*
X7509Y2645D01*
X7507Y2633D01*
X7509Y2622D01*
X7513Y2611D01*
X7520Y2602D01*
X7529Y2595D01*
X7540Y2591D01*
X7551Y2589D01*
X7562Y2591D01*
X7573Y2595D01*
X7582Y2602D01*
X7589Y2611D01*
X7593Y2622D01*
X7595Y2633D01*
X7593Y2645D01*
X7589Y2655D01*
X7582Y2664D01*
X7573Y2671D01*
X7562Y2676D01*
X7551Y2677D01*
D02*
G37*
G36*
X7669D02*
X7658Y2676D01*
X7647Y2671D01*
X7638Y2664D01*
X7631Y2655D01*
X7627Y2645D01*
X7625Y2633D01*
X7627Y2622D01*
X7631Y2611D01*
X7638Y2602D01*
X7647Y2595D01*
X7658Y2591D01*
X7669Y2589D01*
X7680Y2591D01*
X7691Y2595D01*
X7700Y2602D01*
X7707Y2611D01*
X7711Y2622D01*
X7713Y2633D01*
X7711Y2645D01*
X7707Y2655D01*
X7700Y2664D01*
X7691Y2671D01*
X7680Y2676D01*
X7669Y2677D01*
D02*
G37*
G36*
X5121Y2682D02*
X5110Y2681D01*
X5099Y2676D01*
X5090Y2669D01*
X5083Y2660D01*
X5079Y2650D01*
X5077Y2638D01*
X5079Y2627D01*
X5083Y2616D01*
X5090Y2607D01*
X5099Y2600D01*
X5110Y2596D01*
X5121Y2594D01*
X5132Y2596D01*
X5143Y2600D01*
X5152Y2607D01*
X5159Y2616D01*
X5163Y2627D01*
X5165Y2638D01*
X5163Y2650D01*
X5159Y2660D01*
X5152Y2669D01*
X5143Y2676D01*
X5132Y2681D01*
X5121Y2682D01*
D02*
G37*
G36*
X5239D02*
X5228Y2681D01*
X5217Y2676D01*
X5208Y2669D01*
X5201Y2660D01*
X5197Y2650D01*
X5195Y2638D01*
X5197Y2627D01*
X5201Y2616D01*
X5208Y2607D01*
X5217Y2600D01*
X5228Y2596D01*
X5239Y2594D01*
X5250Y2596D01*
X5261Y2600D01*
X5270Y2607D01*
X5277Y2616D01*
X5281Y2627D01*
X5283Y2638D01*
X5281Y2650D01*
X5277Y2660D01*
X5270Y2669D01*
X5261Y2676D01*
X5250Y2681D01*
X5239Y2682D01*
D02*
G37*
G36*
X4482Y2682D02*
X4471Y2680D01*
X4460Y2676D01*
X4451Y2669D01*
X4444Y2660D01*
X4440Y2649D01*
X4438Y2638D01*
X4440Y2627D01*
X4444Y2616D01*
X4451Y2607D01*
X4460Y2600D01*
X4471Y2596D01*
X4482Y2594D01*
X4493Y2596D01*
X4504Y2600D01*
X4513Y2607D01*
X4520Y2616D01*
X4524Y2627D01*
X4526Y2638D01*
X4524Y2649D01*
X4520Y2660D01*
X4513Y2669D01*
X4504Y2676D01*
X4493Y2680D01*
X4482Y2682D01*
D02*
G37*
G36*
X4600D02*
X4589Y2680D01*
X4578Y2676D01*
X4569Y2669D01*
X4562Y2660D01*
X4558Y2649D01*
X4556Y2638D01*
X4558Y2627D01*
X4562Y2616D01*
X4569Y2607D01*
X4578Y2600D01*
X4589Y2596D01*
X4600Y2594D01*
X4611Y2596D01*
X4622Y2600D01*
X4631Y2607D01*
X4638Y2616D01*
X4642Y2627D01*
X4644Y2638D01*
X4642Y2649D01*
X4638Y2660D01*
X4631Y2669D01*
X4622Y2676D01*
X4611Y2680D01*
X4600Y2682D01*
D02*
G37*
G36*
X8197Y2585D02*
X8175D01*
Y2563D01*
X8180Y2565D01*
X8189Y2571D01*
X8195Y2580D01*
X8197Y2585D01*
D02*
G37*
G36*
X4615Y2561D02*
Y2535D01*
X4641D01*
X4638Y2542D01*
X4631Y2551D01*
X4622Y2558D01*
X4615Y2561D01*
D02*
G37*
G36*
X5106Y2561D02*
X5099Y2558D01*
X5090Y2551D01*
X5083Y2542D01*
X5080Y2535D01*
X5106D01*
Y2561D01*
D02*
G37*
G36*
X4497Y2561D02*
Y2535D01*
X4523D01*
X4520Y2542D01*
X4513Y2551D01*
X4504Y2558D01*
X4497Y2561D01*
D02*
G37*
G36*
X4585D02*
X4578Y2558D01*
X4569Y2551D01*
X4562Y2542D01*
X4559Y2535D01*
X4585D01*
Y2561D01*
D02*
G37*
G36*
X5254Y2561D02*
Y2535D01*
X5280D01*
X5277Y2542D01*
X5270Y2551D01*
X5261Y2558D01*
X5254Y2561D01*
D02*
G37*
G36*
X8145Y2585D02*
X8123D01*
X8125Y2580D01*
X8131Y2571D01*
X8140Y2565D01*
X8145Y2563D01*
Y2585D01*
D02*
G37*
G36*
X5136Y2561D02*
Y2535D01*
X5162D01*
X5159Y2542D01*
X5152Y2551D01*
X5143Y2558D01*
X5136Y2561D01*
D02*
G37*
G36*
X5224D02*
X5217Y2558D01*
X5208Y2551D01*
X5201Y2542D01*
X5198Y2535D01*
X5224D01*
Y2561D01*
D02*
G37*
G36*
X8145Y2637D02*
X8140Y2635D01*
X8131Y2629D01*
X8125Y2620D01*
X8123Y2615D01*
X8145D01*
Y2637D01*
D02*
G37*
G36*
X9590Y2905D02*
X9580Y2904D01*
X9570Y2900D01*
X9561Y2894D01*
X9555Y2885D01*
X9551Y2875D01*
X9550Y2865D01*
X9551Y2855D01*
X9555Y2845D01*
X9561Y2836D01*
X9570Y2830D01*
X9580Y2826D01*
X9590Y2825D01*
X9600Y2826D01*
X9610Y2830D01*
X9619Y2836D01*
X9625Y2845D01*
X9629Y2855D01*
X9630Y2865D01*
X9629Y2875D01*
X9625Y2885D01*
X9619Y2894D01*
X9610Y2900D01*
X9600Y2904D01*
X9590Y2905D01*
D02*
G37*
G36*
X9690D02*
X9680Y2904D01*
X9670Y2900D01*
X9661Y2894D01*
X9655Y2885D01*
X9651Y2875D01*
X9650Y2865D01*
X9651Y2855D01*
X9655Y2845D01*
X9661Y2836D01*
X9670Y2830D01*
X9680Y2826D01*
X9690Y2825D01*
X9700Y2826D01*
X9710Y2830D01*
X9719Y2836D01*
X9725Y2845D01*
X9729Y2855D01*
X9730Y2865D01*
X9729Y2875D01*
X9725Y2885D01*
X9719Y2894D01*
X9710Y2900D01*
X9700Y2904D01*
X9690Y2905D01*
D02*
G37*
G36*
X9390D02*
X9380Y2904D01*
X9370Y2900D01*
X9361Y2894D01*
X9355Y2885D01*
X9351Y2875D01*
X9350Y2865D01*
X9351Y2855D01*
X9355Y2845D01*
X9361Y2836D01*
X9370Y2830D01*
X9380Y2826D01*
X9390Y2825D01*
X9400Y2826D01*
X9410Y2830D01*
X9419Y2836D01*
X9425Y2845D01*
X9429Y2855D01*
X9430Y2865D01*
X9429Y2875D01*
X9425Y2885D01*
X9419Y2894D01*
X9410Y2900D01*
X9400Y2904D01*
X9390Y2905D01*
D02*
G37*
G36*
X9490D02*
X9480Y2904D01*
X9470Y2900D01*
X9461Y2894D01*
X9455Y2885D01*
X9451Y2875D01*
X9450Y2865D01*
X9451Y2855D01*
X9455Y2845D01*
X9461Y2836D01*
X9470Y2830D01*
X9480Y2826D01*
X9490Y2825D01*
X9500Y2826D01*
X9510Y2830D01*
X9519Y2836D01*
X9525Y2845D01*
X9529Y2855D01*
X9530Y2865D01*
X9529Y2875D01*
X9525Y2885D01*
X9519Y2894D01*
X9510Y2900D01*
X9500Y2904D01*
X9490Y2905D01*
D02*
G37*
G36*
X9990D02*
X9980Y2904D01*
X9970Y2900D01*
X9961Y2894D01*
X9955Y2885D01*
X9951Y2875D01*
X9950Y2865D01*
X9951Y2855D01*
X9955Y2845D01*
X9961Y2836D01*
X9970Y2830D01*
X9980Y2826D01*
X9990Y2825D01*
X10000Y2826D01*
X10010Y2830D01*
X10019Y2836D01*
X10025Y2845D01*
X10029Y2855D01*
X10030Y2865D01*
X10029Y2875D01*
X10025Y2885D01*
X10019Y2894D01*
X10010Y2900D01*
X10000Y2904D01*
X9990Y2905D01*
D02*
G37*
G36*
X9130Y2905D02*
X9050D01*
Y2825D01*
X9130D01*
Y2905D01*
D02*
G37*
G36*
X9790Y2905D02*
X9780Y2904D01*
X9770Y2900D01*
X9761Y2894D01*
X9755Y2885D01*
X9751Y2875D01*
X9750Y2865D01*
X9751Y2855D01*
X9755Y2845D01*
X9761Y2836D01*
X9770Y2830D01*
X9780Y2826D01*
X9790Y2825D01*
X9800Y2826D01*
X9810Y2830D01*
X9819Y2836D01*
X9825Y2845D01*
X9829Y2855D01*
X9830Y2865D01*
X9829Y2875D01*
X9825Y2885D01*
X9819Y2894D01*
X9810Y2900D01*
X9800Y2904D01*
X9790Y2905D01*
D02*
G37*
G36*
X9890D02*
X9880Y2904D01*
X9870Y2900D01*
X9861Y2894D01*
X9855Y2885D01*
X9851Y2875D01*
X9850Y2865D01*
X9851Y2855D01*
X9855Y2845D01*
X9861Y2836D01*
X9870Y2830D01*
X9880Y2826D01*
X9890Y2825D01*
X9900Y2826D01*
X9910Y2830D01*
X9919Y2836D01*
X9925Y2845D01*
X9929Y2855D01*
X9930Y2865D01*
X9929Y2875D01*
X9925Y2885D01*
X9919Y2894D01*
X9910Y2900D01*
X9900Y2904D01*
X9890Y2905D01*
D02*
G37*
G36*
X9290D02*
X9280Y2904D01*
X9270Y2900D01*
X9261Y2894D01*
X9255Y2885D01*
X9251Y2875D01*
X9250Y2865D01*
X9251Y2855D01*
X9255Y2845D01*
X9261Y2836D01*
X9270Y2830D01*
X9280Y2826D01*
X9290Y2825D01*
X9300Y2826D01*
X9310Y2830D01*
X9319Y2836D01*
X9325Y2845D01*
X9329Y2855D01*
X9330Y2865D01*
X9329Y2875D01*
X9325Y2885D01*
X9319Y2894D01*
X9310Y2900D01*
X9300Y2904D01*
X9290Y2905D01*
D02*
G37*
G36*
X5845Y2750D02*
X5836Y2749D01*
X5827Y2746D01*
X5820Y2740D01*
X5814Y2733D01*
X5811Y2724D01*
X5810Y2715D01*
X5811Y2706D01*
X5814Y2697D01*
X5820Y2690D01*
X5827Y2684D01*
X5836Y2681D01*
X5845Y2680D01*
X5854Y2681D01*
X5863Y2684D01*
X5870Y2690D01*
X5876Y2697D01*
X5879Y2706D01*
X5880Y2715D01*
X5879Y2724D01*
X5876Y2733D01*
X5870Y2740D01*
X5863Y2746D01*
X5854Y2749D01*
X5845Y2750D01*
D02*
G37*
G36*
X4535Y2760D02*
X4526Y2759D01*
X4517Y2756D01*
X4510Y2750D01*
X4504Y2743D01*
X4501Y2734D01*
X4500Y2725D01*
X4501Y2716D01*
X4504Y2707D01*
X4510Y2700D01*
X4517Y2694D01*
X4526Y2691D01*
X4535Y2690D01*
X4544Y2691D01*
X4553Y2694D01*
X4560Y2700D01*
X4566Y2707D01*
X4569Y2716D01*
X4570Y2725D01*
X4569Y2734D01*
X4566Y2743D01*
X4560Y2750D01*
X4553Y2756D01*
X4544Y2759D01*
X4535Y2760D01*
D02*
G37*
G36*
X8175Y2637D02*
Y2615D01*
X8197D01*
X8195Y2620D01*
X8189Y2629D01*
X8180Y2635D01*
X8175Y2637D01*
D02*
G37*
G36*
X8160Y2740D02*
X8149Y2739D01*
X8140Y2735D01*
X8131Y2729D01*
X8125Y2720D01*
X8121Y2710D01*
X8120Y2700D01*
X8121Y2690D01*
X8125Y2680D01*
X8131Y2671D01*
X8140Y2665D01*
X8149Y2661D01*
X8160Y2660D01*
X8170Y2661D01*
X8180Y2665D01*
X8189Y2671D01*
X8195Y2680D01*
X8199Y2690D01*
X8200Y2700D01*
X8199Y2710D01*
X8195Y2720D01*
X8189Y2729D01*
X8180Y2735D01*
X8170Y2739D01*
X8160Y2740D01*
D02*
G37*
G36*
X10335Y2840D02*
X10326Y2839D01*
X10317Y2836D01*
X10310Y2830D01*
X10304Y2823D01*
X10301Y2814D01*
X10300Y2805D01*
X10301Y2796D01*
X10304Y2787D01*
X10310Y2780D01*
X10317Y2774D01*
X10326Y2771D01*
X10335Y2770D01*
X10344Y2771D01*
X10353Y2774D01*
X10360Y2780D01*
X10366Y2787D01*
X10369Y2796D01*
X10370Y2805D01*
X10369Y2814D01*
X10366Y2823D01*
X10360Y2830D01*
X10353Y2836D01*
X10344Y2839D01*
X10335Y2840D01*
D02*
G37*
G36*
X9190Y2905D02*
X9180Y2904D01*
X9170Y2900D01*
X9161Y2894D01*
X9155Y2885D01*
X9151Y2875D01*
X9150Y2865D01*
X9151Y2855D01*
X9155Y2845D01*
X9161Y2836D01*
X9170Y2830D01*
X9180Y2826D01*
X9190Y2825D01*
X9200Y2826D01*
X9210Y2830D01*
X9219Y2836D01*
X9225Y2845D01*
X9229Y2855D01*
X9230Y2865D01*
X9229Y2875D01*
X9225Y2885D01*
X9219Y2894D01*
X9210Y2900D01*
X9200Y2904D01*
X9190Y2905D01*
D02*
G37*
G36*
X4955Y2760D02*
X4946Y2759D01*
X4937Y2756D01*
X4930Y2750D01*
X4924Y2743D01*
X4921Y2734D01*
X4920Y2725D01*
X4921Y2716D01*
X4924Y2707D01*
X4930Y2700D01*
X4937Y2694D01*
X4946Y2691D01*
X4955Y2690D01*
X4964Y2691D01*
X4973Y2694D01*
X4980Y2700D01*
X4986Y2707D01*
X4989Y2716D01*
X4990Y2725D01*
X4989Y2734D01*
X4986Y2743D01*
X4980Y2750D01*
X4973Y2756D01*
X4964Y2759D01*
X4955Y2760D01*
D02*
G37*
G36*
X10235Y2825D02*
X10226Y2824D01*
X10217Y2821D01*
X10210Y2815D01*
X10204Y2808D01*
X10201Y2799D01*
X10200Y2790D01*
X10201Y2781D01*
X10204Y2772D01*
X10210Y2765D01*
X10217Y2759D01*
X10226Y2756D01*
X10235Y2755D01*
X10244Y2756D01*
X10253Y2759D01*
X10260Y2765D01*
X10266Y2772D01*
X10269Y2781D01*
X10270Y2790D01*
X10269Y2799D01*
X10266Y2808D01*
X10260Y2815D01*
X10253Y2821D01*
X10244Y2824D01*
X10235Y2825D01*
D02*
G37*
G36*
X7710Y2500D02*
X7684D01*
Y2474D01*
X7691Y2477D01*
X7700Y2484D01*
X7707Y2493D01*
X7710Y2500D01*
D02*
G37*
G36*
X6015Y2502D02*
X5989D01*
X5992Y2495D01*
X5999Y2486D01*
X6008Y2479D01*
X6015Y2476D01*
Y2502D01*
D02*
G37*
G36*
X7592Y2500D02*
X7566D01*
Y2474D01*
X7573Y2477D01*
X7582Y2484D01*
X7589Y2493D01*
X7592Y2500D01*
D02*
G37*
G36*
X7654D02*
X7628D01*
X7631Y2493D01*
X7638Y2484D01*
X7647Y2477D01*
X7654Y2474D01*
Y2500D01*
D02*
G37*
G36*
X6189Y2502D02*
X6163D01*
Y2476D01*
X6170Y2479D01*
X6179Y2486D01*
X6186Y2495D01*
X6189Y2502D01*
D02*
G37*
G36*
X4467Y2505D02*
X4441D01*
X4444Y2498D01*
X4451Y2489D01*
X4460Y2482D01*
X4467Y2479D01*
Y2505D01*
D02*
G37*
G36*
X6071Y2502D02*
X6045D01*
Y2476D01*
X6052Y2479D01*
X6061Y2486D01*
X6068Y2495D01*
X6071Y2502D01*
D02*
G37*
G36*
X6133D02*
X6107D01*
X6110Y2495D01*
X6117Y2486D01*
X6126Y2479D01*
X6133Y2476D01*
Y2502D01*
D02*
G37*
G36*
X7536Y2500D02*
X7510D01*
X7513Y2493D01*
X7520Y2484D01*
X7529Y2477D01*
X7536Y2474D01*
Y2500D01*
D02*
G37*
G36*
X4541Y2439D02*
X4524Y2437D01*
X4507Y2432D01*
X4491Y2424D01*
X4478Y2413D01*
X4467Y2399D01*
X4459Y2384D01*
X4453Y2367D01*
X4452Y2350D01*
X4453Y2333D01*
X4459Y2316D01*
X4467Y2300D01*
X4478Y2287D01*
X4491Y2276D01*
X4507Y2268D01*
X4524Y2262D01*
X4541Y2261D01*
X4558Y2262D01*
X4575Y2268D01*
X4590Y2276D01*
X4604Y2287D01*
X4615Y2300D01*
X4623Y2316D01*
X4628Y2333D01*
X4630Y2350D01*
X4628Y2367D01*
X4623Y2384D01*
X4615Y2399D01*
X4604Y2413D01*
X4590Y2424D01*
X4575Y2432D01*
X4558Y2437D01*
X4541Y2439D01*
D02*
G37*
G36*
X5180Y2439D02*
X5163Y2437D01*
X5146Y2432D01*
X5130Y2424D01*
X5117Y2413D01*
X5106Y2400D01*
X5098Y2384D01*
X5093Y2367D01*
X5091Y2350D01*
X5093Y2333D01*
X5098Y2316D01*
X5106Y2300D01*
X5117Y2287D01*
X5130Y2276D01*
X5146Y2268D01*
X5163Y2263D01*
X5180Y2261D01*
X5197Y2263D01*
X5214Y2268D01*
X5230Y2276D01*
X5243Y2287D01*
X5254Y2300D01*
X5262Y2316D01*
X5267Y2333D01*
X5269Y2350D01*
X5267Y2367D01*
X5262Y2384D01*
X5254Y2400D01*
X5243Y2413D01*
X5230Y2424D01*
X5214Y2432D01*
X5197Y2437D01*
X5180Y2439D01*
D02*
G37*
G36*
X7610Y2434D02*
X7593Y2432D01*
X7576Y2427D01*
X7560Y2419D01*
X7547Y2408D01*
X7536Y2395D01*
X7528Y2379D01*
X7523Y2362D01*
X7521Y2345D01*
X7523Y2328D01*
X7528Y2311D01*
X7536Y2295D01*
X7547Y2282D01*
X7560Y2271D01*
X7576Y2263D01*
X7593Y2258D01*
X7610Y2256D01*
X7627Y2258D01*
X7644Y2263D01*
X7660Y2271D01*
X7673Y2282D01*
X7684Y2295D01*
X7692Y2311D01*
X7697Y2328D01*
X7699Y2345D01*
X7697Y2362D01*
X7692Y2379D01*
X7684Y2395D01*
X7673Y2408D01*
X7660Y2419D01*
X7644Y2427D01*
X7627Y2432D01*
X7610Y2434D01*
D02*
G37*
G36*
X6089Y2436D02*
X6072Y2434D01*
X6055Y2429D01*
X6040Y2421D01*
X6026Y2410D01*
X6015Y2396D01*
X6007Y2381D01*
X6002Y2364D01*
X6000Y2347D01*
X6002Y2329D01*
X6007Y2313D01*
X6015Y2297D01*
X6026Y2284D01*
X6040Y2273D01*
X6055Y2264D01*
X6072Y2259D01*
X6089Y2258D01*
X6106Y2259D01*
X6123Y2264D01*
X6139Y2273D01*
X6152Y2284D01*
X6163Y2297D01*
X6171Y2313D01*
X6177Y2329D01*
X6178Y2347D01*
X6177Y2364D01*
X6171Y2381D01*
X6163Y2396D01*
X6152Y2410D01*
X6139Y2421D01*
X6123Y2429D01*
X6106Y2434D01*
X6089Y2436D01*
D02*
G37*
G36*
X10755Y2590D02*
X10738Y2589D01*
X10721Y2585D01*
X10705Y2578D01*
X10690Y2569D01*
X10677Y2558D01*
X10666Y2545D01*
X10657Y2530D01*
X10650Y2514D01*
X10646Y2497D01*
X10645Y2480D01*
X10646Y2463D01*
X10650Y2446D01*
X10657Y2430D01*
X10666Y2415D01*
X10677Y2402D01*
X10690Y2391D01*
X10705Y2382D01*
X10721Y2375D01*
X10738Y2371D01*
X10755Y2370D01*
X10772Y2371D01*
X10789Y2375D01*
X10805Y2382D01*
X10820Y2391D01*
X10833Y2402D01*
X10844Y2415D01*
X10853Y2430D01*
X10860Y2446D01*
X10864Y2463D01*
X10865Y2480D01*
X10864Y2497D01*
X10860Y2514D01*
X10853Y2530D01*
X10844Y2545D01*
X10833Y2558D01*
X10820Y2569D01*
X10805Y2578D01*
X10789Y2585D01*
X10772Y2589D01*
X10755Y2590D01*
D02*
G37*
G36*
X8145Y2485D02*
X8123D01*
X8125Y2480D01*
X8131Y2471D01*
X8140Y2465D01*
X8145Y2463D01*
Y2485D01*
D02*
G37*
G36*
X8160Y2440D02*
X8149Y2439D01*
X8140Y2435D01*
X8131Y2429D01*
X8125Y2420D01*
X8121Y2410D01*
X8120Y2400D01*
X8121Y2390D01*
X8125Y2380D01*
X8131Y2371D01*
X8140Y2365D01*
X8149Y2361D01*
X8160Y2360D01*
X8170Y2361D01*
X8180Y2365D01*
X8189Y2371D01*
X8195Y2380D01*
X8199Y2390D01*
X8200Y2400D01*
X8199Y2410D01*
X8195Y2420D01*
X8189Y2429D01*
X8180Y2435D01*
X8170Y2439D01*
X8160Y2440D01*
D02*
G37*
G36*
X3380Y2590D02*
X3363Y2589D01*
X3346Y2585D01*
X3330Y2578D01*
X3315Y2569D01*
X3302Y2558D01*
X3291Y2545D01*
X3282Y2530D01*
X3275Y2514D01*
X3271Y2497D01*
X3270Y2480D01*
X3271Y2463D01*
X3275Y2446D01*
X3282Y2430D01*
X3291Y2415D01*
X3302Y2402D01*
X3315Y2391D01*
X3330Y2382D01*
X3346Y2375D01*
X3363Y2371D01*
X3380Y2370D01*
X3397Y2371D01*
X3414Y2375D01*
X3430Y2382D01*
X3445Y2391D01*
X3458Y2402D01*
X3469Y2415D01*
X3478Y2430D01*
X3485Y2446D01*
X3489Y2463D01*
X3490Y2480D01*
X3489Y2497D01*
X3485Y2514D01*
X3478Y2530D01*
X3469Y2545D01*
X3458Y2558D01*
X3445Y2569D01*
X3430Y2578D01*
X3414Y2585D01*
X3397Y2589D01*
X3380Y2590D01*
D02*
G37*
G36*
X4523Y2505D02*
X4497D01*
Y2479D01*
X4504Y2482D01*
X4513Y2489D01*
X4520Y2498D01*
X4523Y2505D01*
D02*
G37*
G36*
X7684Y2556D02*
Y2530D01*
X7710D01*
X7707Y2537D01*
X7700Y2546D01*
X7691Y2553D01*
X7684Y2556D01*
D02*
G37*
G36*
X6015Y2558D02*
X6008Y2555D01*
X5999Y2548D01*
X5992Y2539D01*
X5989Y2532D01*
X6015D01*
Y2558D01*
D02*
G37*
G36*
X7566Y2556D02*
Y2530D01*
X7592D01*
X7589Y2537D01*
X7582Y2546D01*
X7573Y2553D01*
X7566Y2556D01*
D02*
G37*
G36*
X7654D02*
X7647Y2553D01*
X7638Y2546D01*
X7631Y2537D01*
X7628Y2530D01*
X7654D01*
Y2556D01*
D02*
G37*
G36*
X6163Y2558D02*
Y2532D01*
X6189D01*
X6186Y2539D01*
X6179Y2548D01*
X6170Y2555D01*
X6163Y2558D01*
D02*
G37*
G36*
X4467Y2561D02*
X4460Y2558D01*
X4451Y2551D01*
X4444Y2542D01*
X4441Y2535D01*
X4467D01*
Y2561D01*
D02*
G37*
G36*
X6045Y2558D02*
Y2532D01*
X6071D01*
X6068Y2539D01*
X6061Y2548D01*
X6052Y2555D01*
X6045Y2558D01*
D02*
G37*
G36*
X6133D02*
X6126Y2555D01*
X6117Y2548D01*
X6110Y2539D01*
X6107Y2532D01*
X6133D01*
Y2558D01*
D02*
G37*
G36*
X7536Y2556D02*
X7529Y2553D01*
X7520Y2546D01*
X7513Y2537D01*
X7510Y2530D01*
X7536D01*
Y2556D01*
D02*
G37*
G36*
X5106Y2505D02*
X5080D01*
X5083Y2498D01*
X5090Y2489D01*
X5099Y2482D01*
X5106Y2479D01*
Y2505D01*
D02*
G37*
G36*
X5162D02*
X5136D01*
Y2479D01*
X5143Y2482D01*
X5152Y2489D01*
X5159Y2498D01*
X5162Y2505D01*
D02*
G37*
G36*
X4585Y2505D02*
X4559D01*
X4562Y2498D01*
X4569Y2489D01*
X4578Y2482D01*
X4585Y2479D01*
Y2505D01*
D02*
G37*
G36*
X4641D02*
X4615D01*
Y2479D01*
X4622Y2482D01*
X4631Y2489D01*
X4638Y2498D01*
X4641Y2505D01*
D02*
G37*
G36*
X8145Y2537D02*
X8140Y2535D01*
X8131Y2529D01*
X8125Y2520D01*
X8123Y2515D01*
X8145D01*
Y2537D01*
D02*
G37*
G36*
X8245Y2545D02*
X8233Y2544D01*
X8222Y2539D01*
X8213Y2532D01*
X8206Y2523D01*
X8203Y2515D01*
X8197D01*
X8195Y2520D01*
X8189Y2529D01*
X8180Y2535D01*
X8175Y2537D01*
Y2500D01*
Y2463D01*
X8180Y2465D01*
X8189Y2471D01*
X8195Y2480D01*
X8197Y2485D01*
X8203D01*
X8206Y2477D01*
X8213Y2468D01*
X8222Y2461D01*
X8233Y2456D01*
X8245Y2455D01*
X8257Y2456D01*
X8268Y2461D01*
X8277Y2468D01*
X8284Y2477D01*
X8289Y2488D01*
X8290Y2500D01*
X8289Y2512D01*
X8284Y2523D01*
X8277Y2532D01*
X8268Y2539D01*
X8257Y2544D01*
X8245Y2545D01*
D02*
G37*
G36*
X5224Y2505D02*
X5198D01*
X5201Y2498D01*
X5208Y2489D01*
X5217Y2482D01*
X5224Y2479D01*
Y2505D01*
D02*
G37*
G36*
X5280D02*
X5254D01*
Y2479D01*
X5261Y2482D01*
X5270Y2489D01*
X5277Y2498D01*
X5280Y2505D01*
D02*
G37*
G36*
X10090Y3260D02*
X10081Y3259D01*
X10072Y3256D01*
X10065Y3250D01*
X10059Y3243D01*
X10056Y3234D01*
X10055Y3225D01*
X10056Y3216D01*
X10059Y3207D01*
X10065Y3200D01*
X10072Y3194D01*
X10081Y3191D01*
X10090Y3190D01*
X10099Y3191D01*
X10108Y3194D01*
X10115Y3200D01*
X10121Y3207D01*
X10124Y3216D01*
X10125Y3225D01*
X10124Y3234D01*
X10121Y3243D01*
X10115Y3250D01*
X10108Y3256D01*
X10099Y3259D01*
X10090Y3260D01*
D02*
G37*
G36*
X10010Y3207D02*
X10007Y3206D01*
X10000Y3200D01*
X9994Y3193D01*
X9993Y3190D01*
X10010D01*
Y3207D01*
D02*
G37*
G36*
X8740Y3192D02*
X8737Y3191D01*
X8730Y3185D01*
X8724Y3178D01*
X8723Y3175D01*
X8740D01*
Y3192D01*
D02*
G37*
G36*
X8770D02*
Y3175D01*
X8787D01*
X8786Y3178D01*
X8780Y3185D01*
X8773Y3191D01*
X8770Y3192D01*
D02*
G37*
G36*
X9795Y3212D02*
Y3195D01*
X9812D01*
X9811Y3198D01*
X9805Y3205D01*
X9798Y3211D01*
X9795Y3212D01*
D02*
G37*
G36*
X8655Y3337D02*
X8644Y3336D01*
X8634Y3331D01*
X8625Y3325D01*
X8619Y3316D01*
X8614Y3306D01*
X8613Y3295D01*
X8614Y3284D01*
X8619Y3274D01*
X8625Y3265D01*
X8634Y3259D01*
X8644Y3254D01*
X8655Y3253D01*
X8666Y3254D01*
X8676Y3259D01*
X8685Y3265D01*
X8691Y3274D01*
X8696Y3284D01*
X8697Y3295D01*
X8696Y3306D01*
X8691Y3316D01*
X8685Y3325D01*
X8676Y3331D01*
X8666Y3336D01*
X8655Y3337D01*
D02*
G37*
G36*
X10040Y3207D02*
Y3190D01*
X10057D01*
X10056Y3193D01*
X10050Y3200D01*
X10043Y3206D01*
X10040Y3207D01*
D02*
G37*
G36*
X9765Y3212D02*
X9762Y3211D01*
X9755Y3205D01*
X9749Y3198D01*
X9748Y3195D01*
X9765D01*
Y3212D01*
D02*
G37*
G36*
X7340Y3258D02*
X7328Y3256D01*
X7316Y3251D01*
X7306Y3244D01*
X7299Y3234D01*
X7294Y3222D01*
X7292Y3210D01*
X7294Y3198D01*
X7299Y3186D01*
X7306Y3176D01*
X7316Y3169D01*
X7328Y3164D01*
X7340Y3162D01*
X7352Y3164D01*
X7364Y3169D01*
X7374Y3176D01*
X7375Y3177D01*
X7381D01*
X7386Y3171D01*
X7396Y3164D01*
X7408Y3159D01*
X7420Y3157D01*
X7432Y3159D01*
X7444Y3164D01*
X7454Y3171D01*
X7459Y3178D01*
X7466D01*
X7471Y3171D01*
X7481Y3164D01*
X7493Y3159D01*
X7505Y3157D01*
X7517Y3159D01*
X7529Y3164D01*
X7539Y3171D01*
X7546Y3181D01*
X7551Y3193D01*
X7553Y3205D01*
X7551Y3217D01*
X7546Y3229D01*
X7539Y3239D01*
X7529Y3246D01*
X7517Y3251D01*
X7505Y3253D01*
X7493Y3251D01*
X7481Y3246D01*
X7471Y3239D01*
X7466Y3232D01*
X7459D01*
X7454Y3239D01*
X7444Y3246D01*
X7432Y3251D01*
X7420Y3253D01*
X7408Y3251D01*
X7396Y3246D01*
X7386Y3239D01*
X7385Y3238D01*
X7379D01*
X7374Y3244D01*
X7364Y3251D01*
X7352Y3256D01*
X7340Y3258D01*
D02*
G37*
G36*
X8740Y3145D02*
X8723D01*
X8724Y3142D01*
X8730Y3135D01*
X8737Y3129D01*
X8740Y3128D01*
Y3145D01*
D02*
G37*
G36*
X8787D02*
X8770D01*
Y3128D01*
X8773Y3129D01*
X8780Y3135D01*
X8786Y3142D01*
X8787Y3145D01*
D02*
G37*
G36*
X5650Y3130D02*
X5641Y3129D01*
X5632Y3126D01*
X5625Y3120D01*
X5619Y3113D01*
X5616Y3104D01*
X5615Y3095D01*
X5616Y3086D01*
X5619Y3077D01*
X5625Y3070D01*
X5632Y3064D01*
X5641Y3061D01*
X5650Y3060D01*
X5659Y3061D01*
X5668Y3064D01*
X5675Y3070D01*
X5681Y3077D01*
X5684Y3086D01*
X5685Y3095D01*
X5684Y3104D01*
X5681Y3113D01*
X5675Y3120D01*
X5668Y3126D01*
X5659Y3129D01*
X5650Y3130D01*
D02*
G37*
G36*
X3895Y3195D02*
X3886Y3194D01*
X3877Y3191D01*
X3870Y3185D01*
X3864Y3178D01*
X3861Y3169D01*
X3860Y3160D01*
X3861Y3151D01*
X3864Y3142D01*
X3870Y3135D01*
X3877Y3129D01*
X3886Y3126D01*
X3895Y3125D01*
X3904Y3126D01*
X3913Y3129D01*
X3920Y3135D01*
X3926Y3142D01*
X3929Y3151D01*
X3930Y3160D01*
X3929Y3169D01*
X3926Y3178D01*
X3920Y3185D01*
X3913Y3191D01*
X3904Y3194D01*
X3895Y3195D01*
D02*
G37*
G36*
X9765Y3165D02*
X9748D01*
X9749Y3162D01*
X9755Y3155D01*
X9762Y3149D01*
X9765Y3148D01*
Y3165D01*
D02*
G37*
G36*
X9812D02*
X9795D01*
Y3148D01*
X9798Y3149D01*
X9805Y3155D01*
X9811Y3162D01*
X9812Y3165D01*
D02*
G37*
G36*
X10010Y3160D02*
X9993D01*
X9994Y3157D01*
X10000Y3150D01*
X10007Y3144D01*
X10010Y3143D01*
Y3160D01*
D02*
G37*
G36*
X10057D02*
X10040D01*
Y3143D01*
X10043Y3144D01*
X10050Y3150D01*
X10056Y3157D01*
X10057Y3160D01*
D02*
G37*
G36*
X8855Y3337D02*
X8844Y3336D01*
X8834Y3331D01*
X8825Y3325D01*
X8819Y3316D01*
X8814Y3306D01*
X8813Y3295D01*
X8814Y3284D01*
X8819Y3274D01*
X8825Y3265D01*
X8834Y3259D01*
X8844Y3254D01*
X8855Y3253D01*
X8866Y3254D01*
X8876Y3259D01*
X8885Y3265D01*
X8891Y3274D01*
X8896Y3284D01*
X8897Y3295D01*
X8896Y3306D01*
X8891Y3316D01*
X8885Y3325D01*
X8876Y3331D01*
X8866Y3336D01*
X8855Y3337D01*
D02*
G37*
G36*
X10860Y3440D02*
X10832D01*
X10835Y3432D01*
X10842Y3422D01*
X10852Y3415D01*
X10860Y3412D01*
Y3440D01*
D02*
G37*
G36*
X10918D02*
X10890D01*
Y3412D01*
X10898Y3415D01*
X10908Y3422D01*
X10915Y3432D01*
X10918Y3440D01*
D02*
G37*
G36*
X9490Y3453D02*
X9483Y3452D01*
X9476Y3449D01*
X9470Y3445D01*
X9466Y3439D01*
X9463Y3432D01*
X9462Y3425D01*
X9463Y3418D01*
X9466Y3411D01*
X9470Y3405D01*
X9476Y3401D01*
X9483Y3398D01*
X9490Y3397D01*
X9497Y3398D01*
X9504Y3401D01*
X9510Y3405D01*
X9514Y3411D01*
X9517Y3418D01*
X9518Y3425D01*
X9517Y3432D01*
X9514Y3439D01*
X9510Y3445D01*
X9504Y3449D01*
X9497Y3452D01*
X9490Y3453D01*
D02*
G37*
G36*
X10678Y3501D02*
X10666Y3499D01*
X10655Y3495D01*
X10646Y3488D01*
X10638Y3478D01*
X10634Y3467D01*
X10632Y3455D01*
X10634Y3443D01*
X10638Y3432D01*
X10646Y3422D01*
X10655Y3415D01*
X10666Y3411D01*
X10678Y3409D01*
X10690Y3411D01*
X10701Y3415D01*
X10711Y3422D01*
X10718Y3432D01*
X10723Y3443D01*
X10724Y3455D01*
X10723Y3467D01*
X10718Y3478D01*
X10711Y3488D01*
X10701Y3495D01*
X10690Y3499D01*
X10678Y3501D01*
D02*
G37*
G36*
X9795Y3485D02*
X9778D01*
X9779Y3482D01*
X9785Y3475D01*
X9792Y3469D01*
X9795Y3468D01*
Y3485D01*
D02*
G37*
G36*
X9842D02*
X9825D01*
Y3468D01*
X9828Y3469D01*
X9835Y3475D01*
X9841Y3482D01*
X9842Y3485D01*
D02*
G37*
G36*
X4770Y3485D02*
X4761Y3484D01*
X4752Y3481D01*
X4745Y3475D01*
X4739Y3468D01*
X4736Y3459D01*
X4735Y3450D01*
X4736Y3441D01*
X4739Y3432D01*
X4745Y3425D01*
X4752Y3419D01*
X4761Y3416D01*
X4770Y3415D01*
X4779Y3416D01*
X4788Y3419D01*
X4795Y3425D01*
X4801Y3432D01*
X4804Y3441D01*
X4805Y3450D01*
X4804Y3459D01*
X4801Y3468D01*
X4795Y3475D01*
X4788Y3481D01*
X4779Y3484D01*
X4770Y3485D01*
D02*
G37*
G36*
X6365Y3530D02*
X6356Y3529D01*
X6347Y3526D01*
X6340Y3520D01*
X6334Y3513D01*
X6331Y3504D01*
X6330Y3495D01*
X6331Y3486D01*
X6334Y3477D01*
X6340Y3470D01*
X6347Y3464D01*
X6356Y3461D01*
X6365Y3460D01*
X6374Y3461D01*
X6383Y3464D01*
X6390Y3470D01*
X6396Y3477D01*
X6399Y3486D01*
X6400Y3495D01*
X6399Y3504D01*
X6396Y3513D01*
X6390Y3520D01*
X6383Y3526D01*
X6374Y3529D01*
X6365Y3530D01*
D02*
G37*
G36*
X3775Y3367D02*
Y3350D01*
X3792D01*
X3791Y3353D01*
X3785Y3360D01*
X3778Y3366D01*
X3775Y3367D01*
D02*
G37*
G36*
X3745Y3320D02*
X3728D01*
X3729Y3317D01*
X3735Y3310D01*
X3742Y3304D01*
X3745Y3303D01*
Y3320D01*
D02*
G37*
G36*
X3792D02*
X3775D01*
Y3303D01*
X3778Y3304D01*
X3785Y3310D01*
X3791Y3317D01*
X3792Y3320D01*
D02*
G37*
G36*
X8740Y3280D02*
X8716D01*
X8719Y3274D01*
X8725Y3265D01*
X8734Y3259D01*
X8740Y3256D01*
Y3280D01*
D02*
G37*
G36*
X8794D02*
X8770D01*
Y3256D01*
X8776Y3259D01*
X8785Y3265D01*
X8791Y3274D01*
X8794Y3280D01*
D02*
G37*
G36*
X10395Y3393D02*
X10388Y3392D01*
X10381Y3389D01*
X10375Y3385D01*
X10371Y3379D01*
X10368Y3372D01*
X10367Y3365D01*
X10368Y3358D01*
X10371Y3351D01*
X10375Y3345D01*
X10381Y3341D01*
X10388Y3338D01*
X10395Y3337D01*
X10402Y3338D01*
X10409Y3341D01*
X10415Y3345D01*
X10419Y3351D01*
X10422Y3358D01*
X10423Y3365D01*
X10422Y3372D01*
X10419Y3379D01*
X10415Y3385D01*
X10409Y3389D01*
X10402Y3392D01*
X10395Y3393D01*
D02*
G37*
G36*
X3745Y3367D02*
X3742Y3366D01*
X3735Y3360D01*
X3729Y3353D01*
X3728Y3350D01*
X3745D01*
Y3367D01*
D02*
G37*
G36*
X8740Y3334D02*
X8734Y3331D01*
X8725Y3325D01*
X8719Y3316D01*
X8716Y3310D01*
X8740D01*
Y3334D01*
D02*
G37*
G36*
X8770D02*
Y3310D01*
X8794D01*
X8791Y3316D01*
X8785Y3325D01*
X8776Y3331D01*
X8770Y3334D01*
D02*
G37*
G36*
X4285Y2912D02*
Y2895D01*
X4302D01*
X4301Y2898D01*
X4295Y2905D01*
X4288Y2911D01*
X4285Y2912D01*
D02*
G37*
G36*
X5825Y2922D02*
X5822Y2921D01*
X5815Y2915D01*
X5809Y2908D01*
X5808Y2905D01*
X5825D01*
Y2922D01*
D02*
G37*
G36*
X4992Y2905D02*
X4975D01*
Y2888D01*
X4978Y2889D01*
X4985Y2895D01*
X4991Y2902D01*
X4992Y2905D01*
D02*
G37*
G36*
X4255Y2912D02*
X4252Y2911D01*
X4245Y2905D01*
X4239Y2898D01*
X4238Y2895D01*
X4255D01*
Y2912D01*
D02*
G37*
G36*
X10860Y2948D02*
X10832D01*
X10835Y2940D01*
X10842Y2930D01*
X10852Y2923D01*
X10860Y2920D01*
Y2948D01*
D02*
G37*
G36*
X10918D02*
X10890D01*
Y2920D01*
X10898Y2923D01*
X10908Y2930D01*
X10915Y2940D01*
X10918Y2948D01*
D02*
G37*
G36*
X5855Y2922D02*
Y2905D01*
X5872D01*
X5871Y2908D01*
X5865Y2915D01*
X5858Y2921D01*
X5855Y2922D01*
D02*
G37*
G36*
X10678Y3009D02*
X10666Y3007D01*
X10655Y3003D01*
X10646Y2995D01*
X10638Y2986D01*
X10634Y2975D01*
X10632Y2963D01*
X10634Y2951D01*
X10638Y2940D01*
X10646Y2930D01*
X10655Y2923D01*
X10666Y2918D01*
X10678Y2917D01*
X10690Y2918D01*
X10701Y2923D01*
X10711Y2930D01*
X10718Y2940D01*
X10723Y2951D01*
X10724Y2963D01*
X10723Y2975D01*
X10718Y2986D01*
X10711Y2995D01*
X10701Y3003D01*
X10690Y3007D01*
X10678Y3009D01*
D02*
G37*
G36*
X4945Y2905D02*
X4928D01*
X4929Y2902D01*
X4935Y2895D01*
X4942Y2889D01*
X4945Y2888D01*
Y2905D01*
D02*
G37*
G36*
X5825Y2875D02*
X5808D01*
X5809Y2872D01*
X5815Y2865D01*
X5822Y2859D01*
X5825Y2858D01*
Y2875D01*
D02*
G37*
G36*
X5872D02*
X5855D01*
Y2858D01*
X5858Y2859D01*
X5865Y2865D01*
X5871Y2872D01*
X5872Y2875D01*
D02*
G37*
G36*
X4255Y2865D02*
X4238D01*
X4239Y2862D01*
X4245Y2855D01*
X4252Y2849D01*
X4255Y2848D01*
Y2865D01*
D02*
G37*
G36*
X4302D02*
X4285D01*
Y2848D01*
X4288Y2849D01*
X4295Y2855D01*
X4301Y2862D01*
X4302Y2865D01*
D02*
G37*
G36*
X4525Y2905D02*
X4508D01*
X4509Y2902D01*
X4515Y2895D01*
X4522Y2889D01*
X4525Y2888D01*
Y2905D01*
D02*
G37*
G36*
X4572D02*
X4555D01*
Y2888D01*
X4558Y2889D01*
X4565Y2895D01*
X4571Y2902D01*
X4572Y2905D01*
D02*
G37*
G36*
X3360Y2950D02*
X3351Y2949D01*
X3342Y2946D01*
X3335Y2940D01*
X3329Y2933D01*
X3326Y2924D01*
X3325Y2915D01*
X3326Y2906D01*
X3329Y2897D01*
X3335Y2890D01*
X3342Y2884D01*
X3351Y2881D01*
X3360Y2880D01*
X3369Y2881D01*
X3378Y2884D01*
X3385Y2890D01*
X3391Y2897D01*
X3394Y2906D01*
X3395Y2915D01*
X3394Y2924D01*
X3391Y2933D01*
X3385Y2940D01*
X3378Y2946D01*
X3369Y2949D01*
X3360Y2950D01*
D02*
G37*
G36*
X3460D02*
X3451Y2949D01*
X3442Y2946D01*
X3435Y2940D01*
X3429Y2933D01*
X3426Y2924D01*
X3425Y2915D01*
X3426Y2906D01*
X3429Y2897D01*
X3435Y2890D01*
X3442Y2884D01*
X3451Y2881D01*
X3460Y2880D01*
X3469Y2881D01*
X3478Y2884D01*
X3485Y2890D01*
X3491Y2897D01*
X3494Y2906D01*
X3495Y2915D01*
X3494Y2924D01*
X3491Y2933D01*
X3485Y2940D01*
X3478Y2946D01*
X3469Y2949D01*
X3460Y2950D01*
D02*
G37*
G36*
X9090Y3005D02*
X9080Y3004D01*
X9070Y3000D01*
X9061Y2994D01*
X9055Y2985D01*
X9051Y2975D01*
X9050Y2965D01*
X9051Y2955D01*
X9055Y2945D01*
X9061Y2936D01*
X9070Y2930D01*
X9080Y2926D01*
X9090Y2925D01*
X9100Y2926D01*
X9110Y2930D01*
X9119Y2936D01*
X9125Y2945D01*
X9129Y2955D01*
X9130Y2965D01*
X9129Y2975D01*
X9125Y2985D01*
X9119Y2994D01*
X9110Y3000D01*
X9100Y3004D01*
X9090Y3005D01*
D02*
G37*
G36*
X4945Y2952D02*
X4942Y2951D01*
X4935Y2945D01*
X4929Y2938D01*
X4928Y2935D01*
X4945D01*
Y2952D01*
D02*
G37*
G36*
X4975D02*
Y2935D01*
X4992D01*
X4991Y2938D01*
X4985Y2945D01*
X4978Y2951D01*
X4975Y2952D01*
D02*
G37*
G36*
X4525D02*
X4522Y2951D01*
X4515Y2945D01*
X4509Y2938D01*
X4508Y2935D01*
X4525D01*
Y2952D01*
D02*
G37*
G36*
X4555D02*
Y2935D01*
X4572D01*
X4571Y2938D01*
X4565Y2945D01*
X4558Y2951D01*
X4555Y2952D01*
D02*
G37*
G36*
X10890Y3006D02*
Y2978D01*
X10918D01*
X10915Y2986D01*
X10908Y2995D01*
X10898Y3003D01*
X10890Y3006D01*
D02*
G37*
G36*
X5740Y3125D02*
X5731Y3124D01*
X5722Y3121D01*
X5715Y3115D01*
X5709Y3108D01*
X5706Y3099D01*
X5705Y3090D01*
X5706Y3081D01*
X5709Y3072D01*
X5715Y3065D01*
X5722Y3059D01*
X5731Y3056D01*
X5740Y3055D01*
X5749Y3056D01*
X5758Y3059D01*
X5765Y3065D01*
X5771Y3072D01*
X5774Y3081D01*
X5775Y3090D01*
X5774Y3099D01*
X5771Y3108D01*
X5765Y3115D01*
X5758Y3121D01*
X5749Y3124D01*
X5740Y3125D01*
D02*
G37*
G36*
X4255Y3030D02*
X4246Y3029D01*
X4237Y3026D01*
X4230Y3020D01*
X4224Y3013D01*
X4221Y3004D01*
X4220Y2995D01*
X4221Y2986D01*
X4224Y2977D01*
X4230Y2970D01*
X4237Y2964D01*
X4246Y2961D01*
X4255Y2960D01*
X4264Y2961D01*
X4273Y2964D01*
X4280Y2970D01*
X4286Y2977D01*
X4289Y2986D01*
X4290Y2995D01*
X4289Y3004D01*
X4286Y3013D01*
X4280Y3020D01*
X4273Y3026D01*
X4264Y3029D01*
X4255Y3030D01*
D02*
G37*
G36*
X10860Y3006D02*
X10852Y3003D01*
X10842Y2995D01*
X10835Y2986D01*
X10832Y2978D01*
X10860D01*
Y3006D01*
D02*
G37*
G36*
X9990Y3005D02*
X9980Y3004D01*
X9970Y3000D01*
X9961Y2994D01*
X9955Y2985D01*
X9951Y2975D01*
X9950Y2965D01*
X9951Y2955D01*
X9955Y2945D01*
X9961Y2936D01*
X9970Y2930D01*
X9980Y2926D01*
X9990Y2925D01*
X10000Y2926D01*
X10010Y2930D01*
X10019Y2936D01*
X10025Y2945D01*
X10029Y2955D01*
X10030Y2965D01*
X10029Y2975D01*
X10025Y2985D01*
X10019Y2994D01*
X10010Y3000D01*
X10000Y3004D01*
X9990Y3005D01*
D02*
G37*
G36*
X9390D02*
X9380Y3004D01*
X9370Y3000D01*
X9361Y2994D01*
X9355Y2985D01*
X9351Y2975D01*
X9350Y2965D01*
X9351Y2955D01*
X9355Y2945D01*
X9361Y2936D01*
X9370Y2930D01*
X9380Y2926D01*
X9390Y2925D01*
X9400Y2926D01*
X9410Y2930D01*
X9419Y2936D01*
X9425Y2945D01*
X9429Y2955D01*
X9430Y2965D01*
X9429Y2975D01*
X9425Y2985D01*
X9419Y2994D01*
X9410Y3000D01*
X9400Y3004D01*
X9390Y3005D01*
D02*
G37*
G36*
X9490D02*
X9480Y3004D01*
X9470Y3000D01*
X9461Y2994D01*
X9455Y2985D01*
X9451Y2975D01*
X9450Y2965D01*
X9451Y2955D01*
X9455Y2945D01*
X9461Y2936D01*
X9470Y2930D01*
X9480Y2926D01*
X9490Y2925D01*
X9500Y2926D01*
X9510Y2930D01*
X9519Y2936D01*
X9525Y2945D01*
X9529Y2955D01*
X9530Y2965D01*
X9529Y2975D01*
X9525Y2985D01*
X9519Y2994D01*
X9510Y3000D01*
X9500Y3004D01*
X9490Y3005D01*
D02*
G37*
G36*
X9190D02*
X9180Y3004D01*
X9170Y3000D01*
X9161Y2994D01*
X9155Y2985D01*
X9151Y2975D01*
X9150Y2965D01*
X9151Y2955D01*
X9155Y2945D01*
X9161Y2936D01*
X9170Y2930D01*
X9180Y2926D01*
X9190Y2925D01*
X9200Y2926D01*
X9210Y2930D01*
X9219Y2936D01*
X9225Y2945D01*
X9229Y2955D01*
X9230Y2965D01*
X9229Y2975D01*
X9225Y2985D01*
X9219Y2994D01*
X9210Y3000D01*
X9200Y3004D01*
X9190Y3005D01*
D02*
G37*
G36*
X9290D02*
X9280Y3004D01*
X9270Y3000D01*
X9261Y2994D01*
X9255Y2985D01*
X9251Y2975D01*
X9250Y2965D01*
X9251Y2955D01*
X9255Y2945D01*
X9261Y2936D01*
X9270Y2930D01*
X9280Y2926D01*
X9290Y2925D01*
X9300Y2926D01*
X9310Y2930D01*
X9319Y2936D01*
X9325Y2945D01*
X9329Y2955D01*
X9330Y2965D01*
X9329Y2975D01*
X9325Y2985D01*
X9319Y2994D01*
X9310Y3000D01*
X9300Y3004D01*
X9290Y3005D01*
D02*
G37*
G36*
X9790D02*
X9780Y3004D01*
X9770Y3000D01*
X9761Y2994D01*
X9755Y2985D01*
X9751Y2975D01*
X9750Y2965D01*
X9751Y2955D01*
X9755Y2945D01*
X9761Y2936D01*
X9770Y2930D01*
X9780Y2926D01*
X9790Y2925D01*
X9800Y2926D01*
X9810Y2930D01*
X9819Y2936D01*
X9825Y2945D01*
X9829Y2955D01*
X9830Y2965D01*
X9829Y2975D01*
X9825Y2985D01*
X9819Y2994D01*
X9810Y3000D01*
X9800Y3004D01*
X9790Y3005D01*
D02*
G37*
G36*
X9890D02*
X9880Y3004D01*
X9870Y3000D01*
X9861Y2994D01*
X9855Y2985D01*
X9851Y2975D01*
X9850Y2965D01*
X9851Y2955D01*
X9855Y2945D01*
X9861Y2936D01*
X9870Y2930D01*
X9880Y2926D01*
X9890Y2925D01*
X9900Y2926D01*
X9910Y2930D01*
X9919Y2936D01*
X9925Y2945D01*
X9929Y2955D01*
X9930Y2965D01*
X9929Y2975D01*
X9925Y2985D01*
X9919Y2994D01*
X9910Y3000D01*
X9900Y3004D01*
X9890Y3005D01*
D02*
G37*
G36*
X9590D02*
X9580Y3004D01*
X9570Y3000D01*
X9561Y2994D01*
X9555Y2985D01*
X9551Y2975D01*
X9550Y2965D01*
X9551Y2955D01*
X9555Y2945D01*
X9561Y2936D01*
X9570Y2930D01*
X9580Y2926D01*
X9590Y2925D01*
X9600Y2926D01*
X9610Y2930D01*
X9619Y2936D01*
X9625Y2945D01*
X9629Y2955D01*
X9630Y2965D01*
X9629Y2975D01*
X9625Y2985D01*
X9619Y2994D01*
X9610Y3000D01*
X9600Y3004D01*
X9590Y3005D01*
D02*
G37*
G36*
X9690D02*
X9680Y3004D01*
X9670Y3000D01*
X9661Y2994D01*
X9655Y2985D01*
X9651Y2975D01*
X9650Y2965D01*
X9651Y2955D01*
X9655Y2945D01*
X9661Y2936D01*
X9670Y2930D01*
X9680Y2926D01*
X9690Y2925D01*
X9700Y2926D01*
X9710Y2930D01*
X9719Y2936D01*
X9725Y2945D01*
X9729Y2955D01*
X9730Y2965D01*
X9729Y2975D01*
X9725Y2985D01*
X9719Y2994D01*
X9710Y3000D01*
X9700Y3004D01*
X9690Y3005D01*
D02*
G37*
G36*
X4820Y4372D02*
Y4355D01*
X4837D01*
X4836Y4358D01*
X4830Y4365D01*
X4823Y4371D01*
X4820Y4372D01*
D02*
G37*
G36*
X5375Y4905D02*
X5366Y4904D01*
X5357Y4901D01*
X5350Y4895D01*
X5344Y4888D01*
X5341Y4879D01*
X5340Y4870D01*
X5341Y4861D01*
X5344Y4852D01*
X5350Y4845D01*
X5357Y4839D01*
X5366Y4836D01*
X5375Y4835D01*
X5384Y4836D01*
X5393Y4839D01*
X5400Y4845D01*
X5406Y4852D01*
X5409Y4861D01*
X5410Y4870D01*
X5409Y4879D01*
X5406Y4888D01*
X5400Y4895D01*
X5393Y4901D01*
X5384Y4904D01*
X5375Y4905D01*
D02*
G37*
G36*
X4525Y4852D02*
X4522Y4851D01*
X4515Y4845D01*
X4509Y4838D01*
X4508Y4835D01*
X4525D01*
Y4852D01*
D02*
G37*
G36*
X7180Y4840D02*
X7172D01*
X7175Y4835D01*
X7180Y4832D01*
Y4840D01*
D02*
G37*
G36*
X7218D02*
X7210D01*
Y4832D01*
X7215Y4835D01*
X7218Y4840D01*
D02*
G37*
G36*
X4150Y4857D02*
Y4840D01*
X4167D01*
X4166Y4843D01*
X4160Y4850D01*
X4153Y4856D01*
X4150Y4857D01*
D02*
G37*
G36*
X7125Y4900D02*
X7115Y4899D01*
X7107Y4893D01*
X7101Y4885D01*
X7100Y4875D01*
X7101Y4865D01*
X7107Y4857D01*
X7115Y4851D01*
X7125Y4850D01*
X7135Y4851D01*
X7143Y4857D01*
X7149Y4865D01*
X7150Y4875D01*
X7149Y4885D01*
X7143Y4893D01*
X7135Y4899D01*
X7125Y4900D01*
D02*
G37*
G36*
X4555Y4852D02*
Y4835D01*
X4572D01*
X4571Y4838D01*
X4565Y4845D01*
X4558Y4851D01*
X4555Y4852D01*
D02*
G37*
G36*
X4120Y4857D02*
X4117Y4856D01*
X4110Y4850D01*
X4104Y4843D01*
X4103Y4840D01*
X4120D01*
Y4857D01*
D02*
G37*
G36*
X5320Y4838D02*
Y4830D01*
X5328D01*
X5325Y4835D01*
X5320Y4838D01*
D02*
G37*
G36*
X8607Y4830D02*
X8585D01*
Y4808D01*
X8590Y4810D01*
X8599Y4816D01*
X8605Y4825D01*
X8607Y4830D01*
D02*
G37*
G36*
X3655Y4827D02*
X3652Y4826D01*
X3645Y4820D01*
X3639Y4813D01*
X3638Y4810D01*
X3655D01*
Y4827D01*
D02*
G37*
G36*
X5235Y4862D02*
X5228Y4861D01*
X5221Y4859D01*
X5216Y4854D01*
X5211Y4849D01*
X5209Y4842D01*
X5208Y4835D01*
X5209Y4828D01*
X5211Y4821D01*
X5216Y4816D01*
X5221Y4811D01*
X5228Y4809D01*
X5235Y4808D01*
X5242Y4809D01*
X5249Y4811D01*
X5254Y4816D01*
X5259Y4821D01*
X5261Y4828D01*
X5262Y4835D01*
X5261Y4842D01*
X5259Y4849D01*
X5254Y4854D01*
X5249Y4859D01*
X5242Y4861D01*
X5235Y4862D01*
D02*
G37*
G36*
X8555Y4830D02*
X8533D01*
X8535Y4825D01*
X8541Y4816D01*
X8550Y4810D01*
X8555Y4808D01*
Y4830D01*
D02*
G37*
G36*
X6462Y4843D02*
X6445D01*
Y4827D01*
X6448Y4828D01*
X6455Y4833D01*
X6461Y4841D01*
X6462Y4843D01*
D02*
G37*
G36*
X5290Y4838D02*
X5285Y4835D01*
X5282Y4830D01*
X5290D01*
Y4838D01*
D02*
G37*
G36*
X3685Y4827D02*
Y4810D01*
X3702D01*
X3701Y4813D01*
X3695Y4820D01*
X3688Y4826D01*
X3685Y4827D01*
D02*
G37*
G36*
X6415Y4843D02*
X6398D01*
X6399Y4841D01*
X6405Y4833D01*
X6412Y4828D01*
X6415Y4827D01*
Y4843D01*
D02*
G37*
G36*
X10940Y4935D02*
X10930Y4934D01*
X10920Y4930D01*
X10911Y4924D01*
X10905Y4915D01*
X10901Y4905D01*
X10900Y4895D01*
X10901Y4885D01*
X10905Y4875D01*
X10911Y4866D01*
X10920Y4860D01*
X10930Y4856D01*
X10940Y4855D01*
X10950Y4856D01*
X10960Y4860D01*
X10969Y4866D01*
X10975Y4875D01*
X10979Y4885D01*
X10980Y4895D01*
X10979Y4905D01*
X10975Y4915D01*
X10969Y4924D01*
X10960Y4930D01*
X10950Y4934D01*
X10940Y4935D01*
D02*
G37*
G36*
X8607Y4930D02*
X8585D01*
Y4908D01*
X8590Y4910D01*
X8599Y4916D01*
X8605Y4925D01*
X8607Y4930D01*
D02*
G37*
G36*
X7120Y4971D02*
X7113Y4970D01*
X7106Y4967D01*
X7100Y4963D01*
X7096Y4957D01*
X7093Y4950D01*
X7092Y4943D01*
X7093Y4936D01*
X7096Y4929D01*
X7100Y4924D01*
X7106Y4919D01*
X7113Y4916D01*
X7120Y4915D01*
X7127Y4916D01*
X7134Y4919D01*
X7140Y4924D01*
X7144Y4929D01*
X7147Y4936D01*
X7148Y4943D01*
X7147Y4950D01*
X7144Y4957D01*
X7140Y4963D01*
X7134Y4967D01*
X7127Y4970D01*
X7120Y4971D01*
D02*
G37*
G36*
X8670Y4985D02*
X8660Y4984D01*
X8650Y4980D01*
X8641Y4974D01*
X8635Y4965D01*
X8631Y4955D01*
X8630Y4945D01*
X8631Y4935D01*
X8635Y4925D01*
X8641Y4916D01*
X8650Y4910D01*
X8660Y4906D01*
X8670Y4905D01*
X8680Y4906D01*
X8690Y4910D01*
X8699Y4916D01*
X8705Y4925D01*
X8709Y4935D01*
X8710Y4945D01*
X8709Y4955D01*
X8705Y4965D01*
X8699Y4974D01*
X8690Y4980D01*
X8680Y4984D01*
X8670Y4985D01*
D02*
G37*
G36*
X8555Y4930D02*
X8533D01*
X8535Y4925D01*
X8541Y4916D01*
X8550Y4910D01*
X8555Y4908D01*
Y4930D01*
D02*
G37*
G36*
X10502Y4975D02*
X10485D01*
Y4958D01*
X10488Y4959D01*
X10495Y4965D01*
X10501Y4972D01*
X10502Y4975D01*
D02*
G37*
G36*
X10605D02*
X10588D01*
X10589Y4972D01*
X10595Y4965D01*
X10602Y4959D01*
X10605Y4958D01*
Y4975D01*
D02*
G37*
G36*
X10980Y5035D02*
X10900D01*
Y4955D01*
X10980D01*
Y5035D01*
D02*
G37*
G36*
X10455Y4975D02*
X10438D01*
X10439Y4972D01*
X10445Y4965D01*
X10452Y4959D01*
X10455Y4958D01*
Y4975D01*
D02*
G37*
G36*
X5225Y4955D02*
X5216Y4954D01*
X5207Y4951D01*
X5200Y4945D01*
X5194Y4938D01*
X5191Y4929D01*
X5190Y4920D01*
X5191Y4911D01*
X5194Y4902D01*
X5200Y4895D01*
X5207Y4889D01*
X5216Y4886D01*
X5225Y4885D01*
X5234Y4886D01*
X5243Y4889D01*
X5250Y4895D01*
X5256Y4902D01*
X5259Y4911D01*
X5260Y4920D01*
X5259Y4929D01*
X5256Y4938D01*
X5250Y4945D01*
X5243Y4951D01*
X5234Y4954D01*
X5225Y4955D01*
D02*
G37*
G36*
X7180Y4878D02*
X7175Y4875D01*
X7172Y4870D01*
X7180D01*
Y4878D01*
D02*
G37*
G36*
X7210D02*
Y4870D01*
X7218D01*
X7215Y4875D01*
X7210Y4878D01*
D02*
G37*
G36*
X8555Y4882D02*
X8550Y4880D01*
X8541Y4874D01*
X8535Y4865D01*
X8533Y4860D01*
X8555D01*
Y4882D01*
D02*
G37*
G36*
X8585D02*
Y4860D01*
X8607D01*
X8605Y4865D01*
X8599Y4874D01*
X8590Y4880D01*
X8585Y4882D01*
D02*
G37*
G36*
X6445Y4890D02*
Y4873D01*
X6462D01*
X6461Y4876D01*
X6455Y4883D01*
X6448Y4889D01*
X6445Y4890D01*
D02*
G37*
G36*
X3345Y5100D02*
X3328Y5099D01*
X3311Y5095D01*
X3295Y5088D01*
X3280Y5079D01*
X3267Y5068D01*
X3256Y5055D01*
X3247Y5040D01*
X3240Y5024D01*
X3236Y5007D01*
X3235Y4990D01*
X3236Y4973D01*
X3240Y4956D01*
X3247Y4940D01*
X3256Y4925D01*
X3267Y4912D01*
X3280Y4901D01*
X3295Y4892D01*
X3311Y4885D01*
X3328Y4881D01*
X3345Y4880D01*
X3362Y4881D01*
X3379Y4885D01*
X3395Y4892D01*
X3410Y4901D01*
X3423Y4912D01*
X3434Y4925D01*
X3443Y4940D01*
X3450Y4956D01*
X3454Y4973D01*
X3455Y4990D01*
X3454Y5007D01*
X3450Y5024D01*
X3443Y5040D01*
X3434Y5055D01*
X3423Y5068D01*
X3410Y5079D01*
X3395Y5088D01*
X3379Y5095D01*
X3362Y5099D01*
X3345Y5100D01*
D02*
G37*
G36*
X7265Y4944D02*
X7256Y4942D01*
X7247Y4939D01*
X7240Y4933D01*
X7234Y4926D01*
X7231Y4917D01*
X7230Y4908D01*
X7231Y4899D01*
X7234Y4891D01*
X7240Y4883D01*
X7247Y4878D01*
X7256Y4874D01*
X7265Y4873D01*
X7274Y4874D01*
X7283Y4878D01*
X7290Y4883D01*
X7296Y4891D01*
X7299Y4899D01*
X7300Y4908D01*
X7299Y4917D01*
X7296Y4926D01*
X7290Y4933D01*
X7283Y4939D01*
X7274Y4942D01*
X7265Y4944D01*
D02*
G37*
G36*
X6415Y4890D02*
X6412Y4889D01*
X6405Y4883D01*
X6399Y4876D01*
X6398Y4873D01*
X6415D01*
Y4890D01*
D02*
G37*
G36*
X6360Y4786D02*
X6353Y4785D01*
X6346Y4782D01*
X6340Y4778D01*
X6336Y4772D01*
X6333Y4765D01*
X6332Y4758D01*
X6333Y4751D01*
X6336Y4744D01*
X6340Y4739D01*
X6346Y4734D01*
X6353Y4731D01*
X6360Y4730D01*
X6367Y4731D01*
X6374Y4734D01*
X6380Y4739D01*
X6384Y4744D01*
X6387Y4751D01*
X6388Y4758D01*
X6387Y4765D01*
X6384Y4772D01*
X6380Y4778D01*
X6374Y4782D01*
X6367Y4785D01*
X6360Y4786D01*
D02*
G37*
G36*
X6690Y4757D02*
X6687Y4756D01*
X6680Y4750D01*
X6674Y4743D01*
X6673Y4740D01*
X6690D01*
Y4757D01*
D02*
G37*
G36*
X4795Y4800D02*
X4786Y4799D01*
X4777Y4796D01*
X4770Y4790D01*
X4764Y4783D01*
X4761Y4774D01*
X4760Y4765D01*
X4761Y4756D01*
X4764Y4747D01*
X4770Y4740D01*
X4777Y4734D01*
X4786Y4731D01*
X4795Y4730D01*
X4804Y4731D01*
X4813Y4734D01*
X4820Y4740D01*
X4826Y4747D01*
X4829Y4756D01*
X4830Y4765D01*
X4829Y4774D01*
X4826Y4783D01*
X4820Y4790D01*
X4813Y4796D01*
X4804Y4799D01*
X4795Y4800D01*
D02*
G37*
G36*
X5320Y4768D02*
X5313Y4767D01*
X5306Y4764D01*
X5300Y4760D01*
X5296Y4754D01*
X5293Y4747D01*
X5292Y4740D01*
X5293Y4733D01*
X5293Y4733D01*
X5291Y4731D01*
X5289Y4730D01*
X5284Y4734D01*
X5277Y4737D01*
X5270Y4738D01*
X5263Y4737D01*
X5256Y4734D01*
X5253Y4732D01*
X5248Y4734D01*
X5247Y4738D01*
X5241Y4746D01*
X5238Y4748D01*
Y4728D01*
Y4707D01*
X5243Y4705D01*
X5243Y4703D01*
X5246Y4696D01*
X5250Y4690D01*
X5256Y4686D01*
X5263Y4683D01*
X5270Y4682D01*
X5277Y4683D01*
X5284Y4686D01*
X5290Y4690D01*
X5294Y4696D01*
X5297Y4703D01*
X5298Y4710D01*
X5297Y4717D01*
X5297Y4717D01*
X5299Y4719D01*
X5301Y4720D01*
X5306Y4716D01*
X5313Y4713D01*
X5320Y4712D01*
X5327Y4713D01*
X5334Y4716D01*
X5340Y4720D01*
X5344Y4726D01*
X5347Y4733D01*
X5348Y4740D01*
X5347Y4747D01*
X5344Y4754D01*
X5340Y4760D01*
X5334Y4764D01*
X5327Y4767D01*
X5320Y4768D01*
D02*
G37*
G36*
X7100Y4750D02*
X7095D01*
X7097Y4747D01*
X7100Y4745D01*
Y4750D01*
D02*
G37*
G36*
X9887Y4765D02*
X9870D01*
Y4748D01*
X9873Y4749D01*
X9880Y4755D01*
X9886Y4762D01*
X9887Y4765D01*
D02*
G37*
G36*
X6720Y4757D02*
Y4740D01*
X6737D01*
X6736Y4743D01*
X6730Y4750D01*
X6723Y4756D01*
X6720Y4757D01*
D02*
G37*
G36*
X5208Y4748D02*
X5205Y4746D01*
X5203Y4743D01*
X5208D01*
Y4748D01*
D02*
G37*
G36*
X10955Y4732D02*
Y4710D01*
X10977D01*
X10975Y4715D01*
X10969Y4724D01*
X10960Y4730D01*
X10955Y4732D01*
D02*
G37*
G36*
X4825Y4712D02*
Y4695D01*
X4842D01*
X4841Y4698D01*
X4835Y4705D01*
X4828Y4711D01*
X4825Y4712D01*
D02*
G37*
G36*
X8670Y4785D02*
X8660Y4784D01*
X8650Y4780D01*
X8641Y4774D01*
X8635Y4765D01*
X8631Y4755D01*
X8630Y4745D01*
X8631Y4735D01*
X8635Y4725D01*
X8641Y4716D01*
X8650Y4710D01*
X8660Y4706D01*
X8670Y4705D01*
X8680Y4706D01*
X8690Y4710D01*
X8699Y4716D01*
X8705Y4725D01*
X8709Y4735D01*
X8710Y4745D01*
X8709Y4755D01*
X8705Y4765D01*
X8699Y4774D01*
X8690Y4780D01*
X8680Y4784D01*
X8670Y4785D01*
D02*
G37*
G36*
X6737Y4710D02*
X6720D01*
Y4693D01*
X6723Y4694D01*
X6730Y4700D01*
X6736Y4707D01*
X6737Y4710D01*
D02*
G37*
G36*
X4795Y4712D02*
X4792Y4711D01*
X4785Y4705D01*
X4779Y4698D01*
X4778Y4695D01*
X4795D01*
Y4712D01*
D02*
G37*
G36*
X5208Y4713D02*
X5203D01*
X5205Y4710D01*
X5208Y4708D01*
Y4713D01*
D02*
G37*
G36*
X10925Y4732D02*
X10920Y4730D01*
X10911Y4724D01*
X10905Y4715D01*
X10903Y4710D01*
X10925D01*
Y4732D01*
D02*
G37*
G36*
X8555Y4730D02*
X8533D01*
X8535Y4725D01*
X8541Y4716D01*
X8550Y4710D01*
X8555Y4708D01*
Y4730D01*
D02*
G37*
G36*
X8607D02*
X8585D01*
Y4708D01*
X8590Y4710D01*
X8599Y4716D01*
X8605Y4725D01*
X8607Y4730D01*
D02*
G37*
G36*
X10940Y4835D02*
X10930Y4834D01*
X10920Y4830D01*
X10911Y4824D01*
X10905Y4815D01*
X10901Y4805D01*
X10900Y4795D01*
X10901Y4785D01*
X10905Y4775D01*
X10911Y4766D01*
X10920Y4760D01*
X10930Y4756D01*
X10940Y4755D01*
X10950Y4756D01*
X10960Y4760D01*
X10969Y4766D01*
X10975Y4775D01*
X10979Y4785D01*
X10980Y4795D01*
X10979Y4805D01*
X10975Y4815D01*
X10969Y4824D01*
X10960Y4830D01*
X10950Y4834D01*
X10940Y4835D01*
D02*
G37*
G36*
X5328Y4800D02*
X5320D01*
Y4792D01*
X5325Y4795D01*
X5328Y4800D01*
D02*
G37*
G36*
X4120Y4810D02*
X4103D01*
X4104Y4807D01*
X4110Y4800D01*
X4117Y4794D01*
X4120Y4793D01*
Y4810D01*
D02*
G37*
G36*
X4572Y4805D02*
X4555D01*
Y4788D01*
X4558Y4789D01*
X4565Y4795D01*
X4571Y4802D01*
X4572Y4805D01*
D02*
G37*
G36*
X5290Y4800D02*
X5282D01*
X5285Y4795D01*
X5290Y4792D01*
Y4800D01*
D02*
G37*
G36*
X8670Y4885D02*
X8660Y4884D01*
X8650Y4880D01*
X8641Y4874D01*
X8635Y4865D01*
X8631Y4855D01*
X8630Y4845D01*
X8631Y4835D01*
X8635Y4825D01*
X8641Y4816D01*
X8650Y4810D01*
X8660Y4806D01*
X8670Y4805D01*
X8680Y4806D01*
X8690Y4810D01*
X8699Y4816D01*
X8705Y4825D01*
X8709Y4835D01*
X8710Y4845D01*
X8709Y4855D01*
X8705Y4865D01*
X8699Y4874D01*
X8690Y4880D01*
X8680Y4884D01*
X8670Y4885D01*
D02*
G37*
G36*
X8885Y4903D02*
X8873Y4901D01*
X8861Y4896D01*
X8851Y4889D01*
X8844Y4879D01*
X8839Y4867D01*
X8837Y4855D01*
X8839Y4843D01*
X8844Y4831D01*
X8851Y4821D01*
X8861Y4814D01*
X8873Y4809D01*
X8885Y4807D01*
X8897Y4809D01*
X8909Y4814D01*
X8919Y4821D01*
X8926Y4831D01*
X8931Y4843D01*
X8933Y4855D01*
X8931Y4867D01*
X8926Y4879D01*
X8919Y4889D01*
X8909Y4896D01*
X8897Y4901D01*
X8885Y4903D01*
D02*
G37*
G36*
X4167Y4810D02*
X4150D01*
Y4793D01*
X4153Y4794D01*
X4160Y4800D01*
X4166Y4807D01*
X4167Y4810D01*
D02*
G37*
G36*
X9870Y4812D02*
Y4795D01*
X9887D01*
X9886Y4798D01*
X9880Y4805D01*
X9873Y4811D01*
X9870Y4812D01*
D02*
G37*
G36*
X4525Y4805D02*
X4508D01*
X4509Y4802D01*
X4515Y4795D01*
X4522Y4789D01*
X4525Y4788D01*
Y4805D01*
D02*
G37*
G36*
X3655Y4780D02*
X3638D01*
X3639Y4777D01*
X3645Y4770D01*
X3652Y4764D01*
X3655Y4763D01*
Y4780D01*
D02*
G37*
G36*
X3702D02*
X3685D01*
Y4763D01*
X3688Y4764D01*
X3695Y4770D01*
X3701Y4777D01*
X3702Y4780D01*
D02*
G37*
G36*
X8555Y4782D02*
X8550Y4780D01*
X8541Y4774D01*
X8535Y4765D01*
X8533Y4760D01*
X8555D01*
Y4782D01*
D02*
G37*
G36*
X8585D02*
Y4760D01*
X8607D01*
X8605Y4765D01*
X8599Y4774D01*
X8590Y4780D01*
X8585Y4782D01*
D02*
G37*
G36*
X7100Y4785D02*
X7097Y4783D01*
X7095Y4780D01*
X7100D01*
Y4785D01*
D02*
G37*
G36*
X6700Y4838D02*
X6693Y4837D01*
X6686Y4834D01*
X6680Y4830D01*
X6676Y4824D01*
X6673Y4817D01*
X6672Y4810D01*
X6673Y4803D01*
X6676Y4796D01*
X6680Y4790D01*
X6686Y4786D01*
X6693Y4783D01*
X6700Y4782D01*
X6707Y4783D01*
X6714Y4786D01*
X6720Y4790D01*
X6724Y4796D01*
X6727Y4803D01*
X6728Y4810D01*
X6727Y4817D01*
X6724Y4824D01*
X6720Y4830D01*
X6714Y4834D01*
X6707Y4837D01*
X6700Y4838D01*
D02*
G37*
G36*
X7195Y4813D02*
X7188Y4812D01*
X7181Y4809D01*
X7175Y4805D01*
X7171Y4799D01*
X7168Y4792D01*
X7167Y4785D01*
X7168Y4778D01*
X7169Y4775D01*
X7166Y4771D01*
X7165Y4771D01*
X7158Y4770D01*
X7151Y4767D01*
X7145Y4763D01*
X7145Y4763D01*
X7140Y4765D01*
X7140Y4765D01*
X7139Y4774D01*
X7133Y4783D01*
X7130Y4785D01*
Y4765D01*
Y4745D01*
X7133Y4746D01*
X7134Y4746D01*
X7137Y4744D01*
X7137Y4743D01*
X7138Y4736D01*
X7141Y4729D01*
X7145Y4724D01*
X7151Y4719D01*
X7158Y4716D01*
X7165Y4715D01*
X7172Y4716D01*
X7179Y4719D01*
X7185Y4724D01*
X7189Y4729D01*
X7192Y4736D01*
X7193Y4743D01*
X7192Y4750D01*
X7191Y4753D01*
X7194Y4757D01*
X7195Y4757D01*
X7202Y4758D01*
X7209Y4761D01*
X7215Y4765D01*
X7219Y4771D01*
X7222Y4778D01*
X7223Y4785D01*
X7222Y4792D01*
X7219Y4799D01*
X7215Y4805D01*
X7209Y4809D01*
X7202Y4812D01*
X7195Y4813D01*
D02*
G37*
G36*
X9840Y4812D02*
X9837Y4811D01*
X9830Y4805D01*
X9824Y4798D01*
X9821Y4789D01*
X9820Y4781D01*
X9817Y4780D01*
X9815Y4779D01*
X9815Y4780D01*
X9809Y4784D01*
X9802Y4787D01*
X9795Y4788D01*
X9788Y4787D01*
X9781Y4784D01*
X9775Y4780D01*
X9771Y4774D01*
X9768Y4767D01*
X9767Y4760D01*
X9768Y4753D01*
X9771Y4746D01*
X9775Y4740D01*
X9781Y4736D01*
X9788Y4733D01*
X9795Y4732D01*
X9802Y4733D01*
X9809Y4736D01*
X9815Y4740D01*
X9819Y4746D01*
X9822Y4753D01*
X9822Y4757D01*
X9828Y4758D01*
X9830Y4755D01*
X9837Y4749D01*
X9840Y4748D01*
Y4780D01*
Y4812D01*
D02*
G37*
G36*
X10652Y4975D02*
X10635D01*
Y4958D01*
X10638Y4959D01*
X10645Y4965D01*
X10651Y4972D01*
X10652Y4975D01*
D02*
G37*
G36*
X8995Y5150D02*
X8985Y5149D01*
X8975Y5145D01*
X8966Y5139D01*
X8960Y5130D01*
X8956Y5120D01*
X8955Y5110D01*
X8956Y5100D01*
X8960Y5090D01*
X8966Y5081D01*
X8975Y5075D01*
X8985Y5071D01*
X8995Y5070D01*
X9005Y5071D01*
X9015Y5075D01*
X9024Y5081D01*
X9030Y5090D01*
X9034Y5100D01*
X9035Y5110D01*
X9034Y5120D01*
X9030Y5130D01*
X9024Y5139D01*
X9015Y5145D01*
X9005Y5149D01*
X8995Y5150D01*
D02*
G37*
G36*
X9095D02*
X9085Y5149D01*
X9075Y5145D01*
X9066Y5139D01*
X9060Y5130D01*
X9056Y5120D01*
X9055Y5110D01*
X9056Y5100D01*
X9060Y5090D01*
X9066Y5081D01*
X9075Y5075D01*
X9085Y5071D01*
X9095Y5070D01*
X9105Y5071D01*
X9115Y5075D01*
X9124Y5081D01*
X9130Y5090D01*
X9134Y5100D01*
X9135Y5110D01*
X9134Y5120D01*
X9130Y5130D01*
X9124Y5139D01*
X9115Y5145D01*
X9105Y5149D01*
X9095Y5150D01*
D02*
G37*
G36*
X6800Y5080D02*
X6797Y5079D01*
X6790Y5073D01*
X6784Y5066D01*
X6783Y5063D01*
X6800D01*
Y5080D01*
D02*
G37*
G36*
X6830D02*
Y5063D01*
X6847D01*
X6846Y5066D01*
X6840Y5073D01*
X6833Y5079D01*
X6830Y5080D01*
D02*
G37*
G36*
X9395Y5150D02*
X9385Y5149D01*
X9375Y5145D01*
X9366Y5139D01*
X9360Y5130D01*
X9356Y5120D01*
X9355Y5110D01*
X9356Y5100D01*
X9360Y5090D01*
X9366Y5081D01*
X9375Y5075D01*
X9385Y5071D01*
X9395Y5070D01*
X9405Y5071D01*
X9415Y5075D01*
X9424Y5081D01*
X9430Y5090D01*
X9434Y5100D01*
X9435Y5110D01*
X9434Y5120D01*
X9430Y5130D01*
X9424Y5139D01*
X9415Y5145D01*
X9405Y5149D01*
X9395Y5150D01*
D02*
G37*
G36*
X9495D02*
X9485Y5149D01*
X9475Y5145D01*
X9466Y5139D01*
X9460Y5130D01*
X9456Y5120D01*
X9455Y5110D01*
X9456Y5100D01*
X9460Y5090D01*
X9466Y5081D01*
X9475Y5075D01*
X9485Y5071D01*
X9495Y5070D01*
X9505Y5071D01*
X9515Y5075D01*
X9524Y5081D01*
X9530Y5090D01*
X9534Y5100D01*
X9535Y5110D01*
X9534Y5120D01*
X9530Y5130D01*
X9524Y5139D01*
X9515Y5145D01*
X9505Y5149D01*
X9495Y5150D01*
D02*
G37*
G36*
X9195D02*
X9185Y5149D01*
X9175Y5145D01*
X9166Y5139D01*
X9160Y5130D01*
X9156Y5120D01*
X9155Y5110D01*
X9156Y5100D01*
X9160Y5090D01*
X9166Y5081D01*
X9175Y5075D01*
X9185Y5071D01*
X9195Y5070D01*
X9205Y5071D01*
X9215Y5075D01*
X9224Y5081D01*
X9230Y5090D01*
X9234Y5100D01*
X9235Y5110D01*
X9234Y5120D01*
X9230Y5130D01*
X9224Y5139D01*
X9215Y5145D01*
X9205Y5149D01*
X9195Y5150D01*
D02*
G37*
G36*
X9295D02*
X9285Y5149D01*
X9275Y5145D01*
X9266Y5139D01*
X9260Y5130D01*
X9256Y5120D01*
X9255Y5110D01*
X9256Y5100D01*
X9260Y5090D01*
X9266Y5081D01*
X9275Y5075D01*
X9285Y5071D01*
X9295Y5070D01*
X9305Y5071D01*
X9315Y5075D01*
X9324Y5081D01*
X9330Y5090D01*
X9334Y5100D01*
X9335Y5110D01*
X9334Y5120D01*
X9330Y5130D01*
X9324Y5139D01*
X9315Y5145D01*
X9305Y5149D01*
X9295Y5150D01*
D02*
G37*
G36*
X8610Y5085D02*
X8585D01*
Y5060D01*
X8610D01*
Y5085D01*
D02*
G37*
G36*
X4940Y5042D02*
Y5025D01*
X4957D01*
X4956Y5028D01*
X4950Y5035D01*
X4943Y5041D01*
X4940Y5042D01*
D02*
G37*
G36*
X6515Y5063D02*
X6498D01*
X6499Y5061D01*
X6505Y5053D01*
X6512Y5048D01*
X6515Y5047D01*
Y5063D01*
D02*
G37*
G36*
X6847Y5033D02*
X6830D01*
Y5017D01*
X6833Y5018D01*
X6840Y5023D01*
X6846Y5031D01*
X6847Y5033D01*
D02*
G37*
G36*
X4910Y5042D02*
X4907Y5041D01*
X4900Y5035D01*
X4894Y5028D01*
X4893Y5025D01*
X4910D01*
Y5042D01*
D02*
G37*
G36*
X4655Y5072D02*
Y5055D01*
X4672D01*
X4671Y5058D01*
X4665Y5065D01*
X4658Y5071D01*
X4655Y5072D01*
D02*
G37*
G36*
X8555Y5085D02*
X8530D01*
Y5060D01*
X8555D01*
Y5085D01*
D02*
G37*
G36*
X6562Y5063D02*
X6545D01*
Y5047D01*
X6548Y5048D01*
X6555Y5053D01*
X6561Y5061D01*
X6562Y5063D01*
D02*
G37*
G36*
X4625Y5072D02*
X4622Y5071D01*
X4615Y5065D01*
X4609Y5058D01*
X4608Y5055D01*
X4625D01*
Y5072D01*
D02*
G37*
G36*
X9595Y5150D02*
X9585Y5149D01*
X9575Y5145D01*
X9566Y5139D01*
X9560Y5130D01*
X9556Y5120D01*
X9555Y5110D01*
X9556Y5100D01*
X9560Y5090D01*
X9566Y5081D01*
X9575Y5075D01*
X9585Y5071D01*
X9595Y5070D01*
X9605Y5071D01*
X9615Y5075D01*
X9624Y5081D01*
X9630Y5090D01*
X9634Y5100D01*
X9635Y5110D01*
X9634Y5120D01*
X9630Y5130D01*
X9624Y5139D01*
X9615Y5145D01*
X9605Y5149D01*
X9595Y5150D01*
D02*
G37*
G36*
X7700Y5104D02*
X7691Y5101D01*
X7681Y5093D01*
X7674Y5083D01*
X7670Y5074D01*
X7700D01*
Y5104D01*
D02*
G37*
G36*
X7730Y5104D02*
Y5074D01*
X7760D01*
X7757Y5083D01*
X7749Y5093D01*
X7739Y5101D01*
X7730Y5104D01*
D02*
G37*
G36*
X10330Y5095D02*
X10305D01*
Y5070D01*
X10330D01*
Y5095D01*
D02*
G37*
G36*
X10510Y5150D02*
X10430D01*
Y5070D01*
X10510D01*
Y5150D01*
D02*
G37*
G36*
X10275D02*
X10250D01*
Y5125D01*
X10275D01*
Y5150D01*
D02*
G37*
G36*
X10330D02*
X10305D01*
Y5125D01*
X10330D01*
Y5150D01*
D02*
G37*
G36*
X6515Y5110D02*
X6512Y5109D01*
X6505Y5103D01*
X6499Y5096D01*
X6498Y5093D01*
X6515D01*
Y5110D01*
D02*
G37*
G36*
X6545D02*
Y5093D01*
X6562D01*
X6561Y5096D01*
X6555Y5103D01*
X6548Y5109D01*
X6545Y5110D01*
D02*
G37*
G36*
X10275Y5095D02*
X10250D01*
Y5070D01*
X10275D01*
Y5095D01*
D02*
G37*
G36*
X10090Y5150D02*
X10080Y5149D01*
X10070Y5145D01*
X10061Y5139D01*
X10055Y5130D01*
X10051Y5120D01*
X10050Y5110D01*
X10051Y5100D01*
X10055Y5090D01*
X10061Y5081D01*
X10070Y5075D01*
X10080Y5071D01*
X10090Y5070D01*
X10100Y5071D01*
X10110Y5075D01*
X10119Y5081D01*
X10125Y5090D01*
X10129Y5100D01*
X10130Y5110D01*
X10129Y5120D01*
X10125Y5130D01*
X10119Y5139D01*
X10110Y5145D01*
X10100Y5149D01*
X10090Y5150D01*
D02*
G37*
G36*
X10190D02*
X10180Y5149D01*
X10170Y5145D01*
X10161Y5139D01*
X10155Y5130D01*
X10151Y5120D01*
X10150Y5110D01*
X10151Y5100D01*
X10155Y5090D01*
X10161Y5081D01*
X10170Y5075D01*
X10180Y5071D01*
X10190Y5070D01*
X10200Y5071D01*
X10210Y5075D01*
X10219Y5081D01*
X10225Y5090D01*
X10229Y5100D01*
X10230Y5110D01*
X10229Y5120D01*
X10225Y5130D01*
X10219Y5139D01*
X10210Y5145D01*
X10200Y5149D01*
X10190Y5150D01*
D02*
G37*
G36*
X9695D02*
X9685Y5149D01*
X9675Y5145D01*
X9666Y5139D01*
X9660Y5130D01*
X9656Y5120D01*
X9655Y5110D01*
X9656Y5100D01*
X9660Y5090D01*
X9666Y5081D01*
X9675Y5075D01*
X9685Y5071D01*
X9695Y5070D01*
X9705Y5071D01*
X9715Y5075D01*
X9724Y5081D01*
X9730Y5090D01*
X9734Y5100D01*
X9735Y5110D01*
X9734Y5120D01*
X9730Y5130D01*
X9724Y5139D01*
X9715Y5145D01*
X9705Y5149D01*
X9695Y5150D01*
D02*
G37*
G36*
X9990D02*
X9980Y5149D01*
X9970Y5145D01*
X9961Y5139D01*
X9955Y5130D01*
X9951Y5120D01*
X9950Y5110D01*
X9951Y5100D01*
X9955Y5090D01*
X9961Y5081D01*
X9970Y5075D01*
X9980Y5071D01*
X9990Y5070D01*
X10000Y5071D01*
X10010Y5075D01*
X10019Y5081D01*
X10025Y5090D01*
X10029Y5100D01*
X10030Y5110D01*
X10029Y5120D01*
X10025Y5130D01*
X10019Y5139D01*
X10010Y5145D01*
X10000Y5149D01*
X9990Y5150D01*
D02*
G37*
G36*
X10770D02*
X10760Y5149D01*
X10750Y5145D01*
X10741Y5139D01*
X10735Y5130D01*
X10731Y5120D01*
X10730Y5110D01*
X10731Y5100D01*
X10735Y5090D01*
X10741Y5081D01*
X10750Y5075D01*
X10760Y5071D01*
X10770Y5070D01*
X10780Y5071D01*
X10790Y5075D01*
X10799Y5081D01*
X10805Y5090D01*
X10809Y5100D01*
X10810Y5110D01*
X10809Y5120D01*
X10805Y5130D01*
X10799Y5139D01*
X10790Y5145D01*
X10780Y5149D01*
X10770Y5150D01*
D02*
G37*
G36*
X9835Y5150D02*
X9755D01*
Y5070D01*
X9835D01*
Y5150D01*
D02*
G37*
G36*
X10570Y5150D02*
X10560Y5149D01*
X10550Y5145D01*
X10541Y5139D01*
X10535Y5130D01*
X10531Y5120D01*
X10530Y5110D01*
X10531Y5100D01*
X10535Y5090D01*
X10541Y5081D01*
X10550Y5075D01*
X10560Y5071D01*
X10570Y5070D01*
X10580Y5071D01*
X10590Y5075D01*
X10599Y5081D01*
X10605Y5090D01*
X10609Y5100D01*
X10610Y5110D01*
X10609Y5120D01*
X10605Y5130D01*
X10599Y5139D01*
X10590Y5145D01*
X10580Y5149D01*
X10570Y5150D01*
D02*
G37*
G36*
X10670D02*
X10660Y5149D01*
X10650Y5145D01*
X10641Y5139D01*
X10635Y5130D01*
X10631Y5120D01*
X10630Y5110D01*
X10631Y5100D01*
X10635Y5090D01*
X10641Y5081D01*
X10650Y5075D01*
X10660Y5071D01*
X10670Y5070D01*
X10680Y5071D01*
X10690Y5075D01*
X10699Y5081D01*
X10705Y5090D01*
X10709Y5100D01*
X10710Y5110D01*
X10709Y5120D01*
X10705Y5130D01*
X10699Y5139D01*
X10690Y5145D01*
X10680Y5149D01*
X10670Y5150D01*
D02*
G37*
G36*
X9695Y5050D02*
X9685Y5049D01*
X9675Y5045D01*
X9666Y5039D01*
X9660Y5030D01*
X9656Y5020D01*
X9655Y5010D01*
X9656Y5000D01*
X9660Y4990D01*
X9666Y4981D01*
X9675Y4975D01*
X9685Y4971D01*
X9695Y4970D01*
X9705Y4971D01*
X9715Y4975D01*
X9724Y4981D01*
X9730Y4990D01*
X9734Y5000D01*
X9735Y5010D01*
X9734Y5020D01*
X9730Y5030D01*
X9724Y5039D01*
X9715Y5045D01*
X9705Y5049D01*
X9695Y5050D01*
D02*
G37*
G36*
X9795D02*
X9785Y5049D01*
X9775Y5045D01*
X9766Y5039D01*
X9760Y5030D01*
X9756Y5020D01*
X9755Y5010D01*
X9756Y5000D01*
X9760Y4990D01*
X9766Y4981D01*
X9775Y4975D01*
X9785Y4971D01*
X9795Y4970D01*
X9805Y4971D01*
X9815Y4975D01*
X9824Y4981D01*
X9830Y4990D01*
X9834Y5000D01*
X9835Y5010D01*
X9834Y5020D01*
X9830Y5030D01*
X9824Y5039D01*
X9815Y5045D01*
X9805Y5049D01*
X9795Y5050D01*
D02*
G37*
G36*
X9495D02*
X9485Y5049D01*
X9475Y5045D01*
X9466Y5039D01*
X9460Y5030D01*
X9456Y5020D01*
X9455Y5010D01*
X9456Y5000D01*
X9460Y4990D01*
X9466Y4981D01*
X9475Y4975D01*
X9485Y4971D01*
X9495Y4970D01*
X9505Y4971D01*
X9515Y4975D01*
X9524Y4981D01*
X9530Y4990D01*
X9534Y5000D01*
X9535Y5010D01*
X9534Y5020D01*
X9530Y5030D01*
X9524Y5039D01*
X9515Y5045D01*
X9505Y5049D01*
X9495Y5050D01*
D02*
G37*
G36*
X9595D02*
X9585Y5049D01*
X9575Y5045D01*
X9566Y5039D01*
X9560Y5030D01*
X9556Y5020D01*
X9555Y5010D01*
X9556Y5000D01*
X9560Y4990D01*
X9566Y4981D01*
X9575Y4975D01*
X9585Y4971D01*
X9595Y4970D01*
X9605Y4971D01*
X9615Y4975D01*
X9624Y4981D01*
X9630Y4990D01*
X9634Y5000D01*
X9635Y5010D01*
X9634Y5020D01*
X9630Y5030D01*
X9624Y5039D01*
X9615Y5045D01*
X9605Y5049D01*
X9595Y5050D01*
D02*
G37*
G36*
X4957Y4995D02*
X4940D01*
Y4978D01*
X4943Y4979D01*
X4950Y4985D01*
X4956Y4992D01*
X4957Y4995D01*
D02*
G37*
G36*
X4007Y5060D02*
X3998Y5059D01*
X3989Y5056D01*
X3982Y5050D01*
X3976Y5043D01*
X3973Y5034D01*
X3972Y5025D01*
X3973Y5016D01*
X3976Y5007D01*
X3982Y5000D01*
X3989Y4994D01*
X3998Y4991D01*
X4007Y4990D01*
X4016Y4991D01*
X4025Y4994D01*
X4032Y5000D01*
X4037Y5007D01*
X4041Y5016D01*
X4042Y5025D01*
X4041Y5034D01*
X4037Y5043D01*
X4032Y5050D01*
X4025Y5056D01*
X4016Y5059D01*
X4007Y5060D01*
D02*
G37*
G36*
X5155Y5045D02*
X5146Y5044D01*
X5137Y5041D01*
X5130Y5035D01*
X5124Y5028D01*
X5121Y5019D01*
X5120Y5010D01*
X5121Y5001D01*
X5124Y4992D01*
X5130Y4985D01*
X5137Y4979D01*
X5146Y4976D01*
X5155Y4975D01*
X5164Y4976D01*
X5173Y4979D01*
X5180Y4985D01*
X5186Y4992D01*
X5189Y5001D01*
X5190Y5010D01*
X5189Y5019D01*
X5186Y5028D01*
X5180Y5035D01*
X5173Y5041D01*
X5164Y5044D01*
X5155Y5045D01*
D02*
G37*
G36*
X4910Y4995D02*
X4893D01*
X4894Y4992D01*
X4900Y4985D01*
X4907Y4979D01*
X4910Y4978D01*
Y4995D01*
D02*
G37*
G36*
X9395Y5050D02*
X9385Y5049D01*
X9375Y5045D01*
X9366Y5039D01*
X9360Y5030D01*
X9356Y5020D01*
X9355Y5010D01*
X9356Y5000D01*
X9360Y4990D01*
X9366Y4981D01*
X9375Y4975D01*
X9385Y4971D01*
X9395Y4970D01*
X9405Y4971D01*
X9415Y4975D01*
X9424Y4981D01*
X9430Y4990D01*
X9434Y5000D01*
X9435Y5010D01*
X9434Y5020D01*
X9430Y5030D01*
X9424Y5039D01*
X9415Y5045D01*
X9405Y5049D01*
X9395Y5050D01*
D02*
G37*
G36*
X10750Y4980D02*
X10733D01*
X10734Y4977D01*
X10740Y4970D01*
X10747Y4964D01*
X10750Y4963D01*
Y4980D01*
D02*
G37*
G36*
X10797D02*
X10780D01*
Y4963D01*
X10783Y4964D01*
X10790Y4970D01*
X10796Y4977D01*
X10797Y4980D01*
D02*
G37*
G36*
X8555Y4982D02*
X8550Y4980D01*
X8541Y4974D01*
X8535Y4965D01*
X8533Y4960D01*
X8555D01*
Y4982D01*
D02*
G37*
G36*
X8585D02*
Y4960D01*
X8607D01*
X8605Y4965D01*
X8599Y4974D01*
X8590Y4980D01*
X8585Y4982D01*
D02*
G37*
G36*
X9195Y5050D02*
X9185Y5049D01*
X9175Y5045D01*
X9166Y5039D01*
X9160Y5030D01*
X9156Y5020D01*
X9155Y5010D01*
X9156Y5000D01*
X9160Y4990D01*
X9166Y4981D01*
X9175Y4975D01*
X9185Y4971D01*
X9195Y4970D01*
X9205Y4971D01*
X9215Y4975D01*
X9224Y4981D01*
X9230Y4990D01*
X9234Y5000D01*
X9235Y5010D01*
X9234Y5020D01*
X9230Y5030D01*
X9224Y5039D01*
X9215Y5045D01*
X9205Y5049D01*
X9195Y5050D01*
D02*
G37*
G36*
X9295D02*
X9285Y5049D01*
X9275Y5045D01*
X9266Y5039D01*
X9260Y5030D01*
X9256Y5020D01*
X9255Y5010D01*
X9256Y5000D01*
X9260Y4990D01*
X9266Y4981D01*
X9275Y4975D01*
X9285Y4971D01*
X9295Y4970D01*
X9305Y4971D01*
X9315Y4975D01*
X9324Y4981D01*
X9330Y4990D01*
X9334Y5000D01*
X9335Y5010D01*
X9334Y5020D01*
X9330Y5030D01*
X9324Y5039D01*
X9315Y5045D01*
X9305Y5049D01*
X9295Y5050D01*
D02*
G37*
G36*
X8995D02*
X8985Y5049D01*
X8975Y5045D01*
X8966Y5039D01*
X8960Y5030D01*
X8956Y5020D01*
X8955Y5010D01*
X8956Y5000D01*
X8960Y4990D01*
X8966Y4981D01*
X8975Y4975D01*
X8985Y4971D01*
X8995Y4970D01*
X9005Y4971D01*
X9015Y4975D01*
X9024Y4981D01*
X9030Y4990D01*
X9034Y5000D01*
X9035Y5010D01*
X9034Y5020D01*
X9030Y5030D01*
X9024Y5039D01*
X9015Y5045D01*
X9005Y5049D01*
X8995Y5050D01*
D02*
G37*
G36*
X9095D02*
X9085Y5049D01*
X9075Y5045D01*
X9066Y5039D01*
X9060Y5030D01*
X9056Y5020D01*
X9055Y5010D01*
X9056Y5000D01*
X9060Y4990D01*
X9066Y4981D01*
X9075Y4975D01*
X9085Y4971D01*
X9095Y4970D01*
X9105Y4971D01*
X9115Y4975D01*
X9124Y4981D01*
X9130Y4990D01*
X9134Y5000D01*
X9135Y5010D01*
X9134Y5020D01*
X9130Y5030D01*
X9124Y5039D01*
X9115Y5045D01*
X9105Y5049D01*
X9095Y5050D01*
D02*
G37*
G36*
X8670Y5085D02*
X8660Y5084D01*
X8650Y5080D01*
X8641Y5074D01*
X8635Y5065D01*
X8631Y5055D01*
X8630Y5045D01*
X8631Y5035D01*
X8635Y5025D01*
X8641Y5016D01*
X8650Y5010D01*
X8660Y5006D01*
X8670Y5005D01*
X8680Y5006D01*
X8690Y5010D01*
X8699Y5016D01*
X8705Y5025D01*
X8709Y5035D01*
X8710Y5045D01*
X8709Y5055D01*
X8705Y5065D01*
X8699Y5074D01*
X8690Y5080D01*
X8680Y5084D01*
X8670Y5085D01*
D02*
G37*
G36*
X8164Y5107D02*
X8152Y5106D01*
X8140Y5101D01*
X8130Y5093D01*
X8122Y5083D01*
X8118Y5072D01*
X8116Y5059D01*
X8118Y5047D01*
X8122Y5035D01*
X8130Y5025D01*
X8140Y5018D01*
X8152Y5013D01*
X8164Y5011D01*
X8176Y5013D01*
X8188Y5018D01*
X8198Y5025D01*
X8205Y5035D01*
X8210Y5047D01*
X8212Y5059D01*
X8210Y5072D01*
X8205Y5083D01*
X8198Y5093D01*
X8188Y5101D01*
X8176Y5106D01*
X8164Y5107D01*
D02*
G37*
G36*
X8314D02*
X8301Y5106D01*
X8290Y5101D01*
X8280Y5093D01*
X8272Y5083D01*
X8267Y5072D01*
X8266Y5059D01*
X8267Y5047D01*
X8272Y5035D01*
X8280Y5025D01*
X8290Y5018D01*
X8301Y5013D01*
X8314Y5011D01*
X8326Y5013D01*
X8338Y5018D01*
X8347Y5025D01*
X8355Y5035D01*
X8360Y5047D01*
X8362Y5059D01*
X8360Y5072D01*
X8355Y5083D01*
X8347Y5093D01*
X8338Y5101D01*
X8326Y5106D01*
X8314Y5107D01*
D02*
G37*
G36*
X10780Y5027D02*
Y5010D01*
X10797D01*
X10796Y5013D01*
X10790Y5020D01*
X10783Y5026D01*
X10780Y5027D01*
D02*
G37*
G36*
X8014Y5107D02*
X8002Y5106D01*
X7990Y5101D01*
X7980Y5093D01*
X7973Y5083D01*
X7968Y5072D01*
X7966Y5059D01*
X7968Y5047D01*
X7973Y5035D01*
X7980Y5025D01*
X7990Y5018D01*
X8002Y5013D01*
X8014Y5011D01*
X8027Y5013D01*
X8038Y5018D01*
X8048Y5025D01*
X8056Y5035D01*
X8061Y5047D01*
X8062Y5059D01*
X8061Y5072D01*
X8056Y5083D01*
X8048Y5093D01*
X8038Y5101D01*
X8027Y5106D01*
X8014Y5107D01*
D02*
G37*
G36*
X7760Y5044D02*
X7730D01*
Y5014D01*
X7739Y5018D01*
X7749Y5025D01*
X7757Y5035D01*
X7760Y5044D01*
D02*
G37*
G36*
X6800Y5033D02*
X6783D01*
X6784Y5031D01*
X6790Y5023D01*
X6797Y5018D01*
X6800Y5017D01*
Y5033D01*
D02*
G37*
G36*
X7045Y5084D02*
X7036Y5082D01*
X7027Y5079D01*
X7020Y5073D01*
X7014Y5066D01*
X7011Y5057D01*
X7010Y5048D01*
X7011Y5039D01*
X7014Y5031D01*
X7020Y5023D01*
X7027Y5018D01*
X7036Y5014D01*
X7045Y5013D01*
X7054Y5014D01*
X7063Y5018D01*
X7070Y5023D01*
X7076Y5031D01*
X7079Y5039D01*
X7080Y5048D01*
X7079Y5057D01*
X7076Y5066D01*
X7070Y5073D01*
X7063Y5079D01*
X7054Y5082D01*
X7045Y5084D01*
D02*
G37*
G36*
X7700Y5044D02*
X7670D01*
X7674Y5035D01*
X7681Y5025D01*
X7691Y5018D01*
X7700Y5014D01*
Y5044D01*
D02*
G37*
G36*
X10750Y5027D02*
X10747Y5026D01*
X10740Y5020D01*
X10734Y5013D01*
X10733Y5010D01*
X10750D01*
Y5027D01*
D02*
G37*
G36*
X10455Y5022D02*
X10452Y5021D01*
X10445Y5015D01*
X10439Y5008D01*
X10438Y5005D01*
X10455D01*
Y5022D01*
D02*
G37*
G36*
X10485D02*
Y5005D01*
X10502D01*
X10501Y5008D01*
X10495Y5015D01*
X10488Y5021D01*
X10485Y5022D01*
D02*
G37*
G36*
X8555Y5030D02*
X8530D01*
Y5005D01*
X8555D01*
Y5030D01*
D02*
G37*
G36*
X8610D02*
X8585D01*
Y5005D01*
X8610D01*
Y5030D01*
D02*
G37*
G36*
X4625Y5025D02*
X4608D01*
X4609Y5022D01*
X4615Y5015D01*
X4622Y5009D01*
X4625Y5008D01*
Y5025D01*
D02*
G37*
G36*
X4672D02*
X4655D01*
Y5008D01*
X4658Y5009D01*
X4665Y5015D01*
X4671Y5022D01*
X4672Y5025D01*
D02*
G37*
G36*
X10605Y5022D02*
X10602Y5021D01*
X10595Y5015D01*
X10589Y5008D01*
X10588Y5005D01*
X10605D01*
Y5022D01*
D02*
G37*
G36*
X10635D02*
Y5005D01*
X10652D01*
X10651Y5008D01*
X10645Y5015D01*
X10638Y5021D01*
X10635Y5022D01*
D02*
G37*
G36*
X5097Y4520D02*
X5080D01*
Y4503D01*
X5083Y4504D01*
X5090Y4510D01*
X5096Y4517D01*
X5097Y4520D01*
D02*
G37*
G36*
X8670Y4585D02*
X8660Y4584D01*
X8650Y4580D01*
X8641Y4574D01*
X8635Y4565D01*
X8631Y4555D01*
X8630Y4545D01*
X8631Y4535D01*
X8635Y4525D01*
X8641Y4516D01*
X8650Y4510D01*
X8660Y4506D01*
X8670Y4505D01*
X8680Y4506D01*
X8690Y4510D01*
X8699Y4516D01*
X8705Y4525D01*
X8709Y4535D01*
X8710Y4545D01*
X8709Y4555D01*
X8705Y4565D01*
X8699Y4574D01*
X8690Y4580D01*
X8680Y4584D01*
X8670Y4585D01*
D02*
G37*
G36*
X6662Y4530D02*
X6635D01*
Y4503D01*
X6643Y4506D01*
X6652Y4513D01*
X6659Y4522D01*
X6662Y4530D01*
D02*
G37*
G36*
X5050Y4520D02*
X5033D01*
X5034Y4517D01*
X5040Y4510D01*
X5047Y4504D01*
X5050Y4503D01*
Y4520D01*
D02*
G37*
G36*
X8607Y4530D02*
X8585D01*
Y4508D01*
X8590Y4510D01*
X8599Y4516D01*
X8605Y4525D01*
X8607Y4530D01*
D02*
G37*
G36*
X10030Y4600D02*
X10020Y4599D01*
X10010Y4595D01*
X10001Y4589D01*
X9995Y4580D01*
X9991Y4570D01*
X9990Y4560D01*
X9991Y4550D01*
X9995Y4540D01*
X10001Y4531D01*
X10010Y4525D01*
X10020Y4521D01*
X10030Y4520D01*
X10040Y4521D01*
X10050Y4525D01*
X10059Y4531D01*
X10065Y4540D01*
X10069Y4550D01*
X10070Y4560D01*
X10069Y4570D01*
X10065Y4580D01*
X10059Y4589D01*
X10050Y4595D01*
X10040Y4599D01*
X10030Y4600D01*
D02*
G37*
G36*
X7185Y4561D02*
X7178Y4560D01*
X7171Y4557D01*
X7165Y4553D01*
X7161Y4547D01*
X7158Y4540D01*
X7157Y4533D01*
X7158Y4526D01*
X7161Y4519D01*
X7165Y4514D01*
X7171Y4509D01*
X7178Y4506D01*
X7185Y4505D01*
X7192Y4506D01*
X7199Y4509D01*
X7205Y4514D01*
X7209Y4519D01*
X7212Y4526D01*
X7213Y4533D01*
X7212Y4540D01*
X7209Y4547D01*
X7205Y4553D01*
X7199Y4557D01*
X7192Y4560D01*
X7185Y4561D01*
D02*
G37*
G36*
X8555Y4530D02*
X8533D01*
X8535Y4525D01*
X8541Y4516D01*
X8550Y4510D01*
X8555Y4508D01*
Y4530D01*
D02*
G37*
G36*
X6605D02*
X6578D01*
X6581Y4522D01*
X6588Y4513D01*
X6597Y4506D01*
X6605Y4503D01*
Y4530D01*
D02*
G37*
G36*
X9585Y4505D02*
X9577D01*
X9580Y4500D01*
X9585Y4497D01*
Y4505D01*
D02*
G37*
G36*
X9623D02*
X9615D01*
Y4497D01*
X9620Y4500D01*
X9623Y4505D01*
D02*
G37*
G36*
X7115Y4521D02*
X7108Y4520D01*
X7101Y4517D01*
X7095Y4513D01*
X7091Y4507D01*
X7088Y4500D01*
X7087Y4493D01*
X7088Y4486D01*
X7089Y4485D01*
X7086Y4479D01*
X7085Y4478D01*
X7084Y4479D01*
X7077Y4482D01*
X7070Y4483D01*
X7063Y4482D01*
X7056Y4479D01*
X7050Y4475D01*
X7046Y4469D01*
X7043Y4462D01*
X7042Y4455D01*
X7043Y4448D01*
X7046Y4441D01*
X7050Y4435D01*
X7056Y4431D01*
X7063Y4428D01*
X7070Y4427D01*
X7077Y4428D01*
X7084Y4431D01*
X7090Y4435D01*
X7094Y4441D01*
X7097Y4448D01*
X7098Y4455D01*
X7097Y4462D01*
X7096Y4464D01*
X7099Y4470D01*
X7100Y4470D01*
X7101Y4469D01*
X7108Y4466D01*
X7115Y4465D01*
X7122Y4466D01*
X7129Y4469D01*
X7135Y4474D01*
X7139Y4479D01*
X7142Y4486D01*
X7143Y4493D01*
X7142Y4500D01*
X7139Y4507D01*
X7135Y4513D01*
X7129Y4517D01*
X7122Y4520D01*
X7115Y4521D01*
D02*
G37*
G36*
X9380Y4543D02*
X9373Y4542D01*
X9366Y4539D01*
X9360Y4535D01*
X9356Y4529D01*
X9353Y4522D01*
X9352Y4515D01*
X9353Y4508D01*
X9356Y4501D01*
X9360Y4495D01*
X9366Y4491D01*
X9373Y4488D01*
X9380Y4487D01*
X9387Y4488D01*
X9394Y4491D01*
X9400Y4495D01*
X9404Y4501D01*
X9407Y4508D01*
X9408Y4515D01*
X9407Y4522D01*
X9404Y4529D01*
X9400Y4535D01*
X9394Y4539D01*
X9387Y4542D01*
X9380Y4543D01*
D02*
G37*
G36*
X6490Y4530D02*
X6463D01*
X6466Y4522D01*
X6473Y4513D01*
X6482Y4506D01*
X6490Y4503D01*
Y4530D01*
D02*
G37*
G36*
X6547D02*
X6520D01*
Y4503D01*
X6528Y4506D01*
X6537Y4513D01*
X6544Y4522D01*
X6547Y4530D01*
D02*
G37*
G36*
X10925Y4520D02*
X10903D01*
X10905Y4515D01*
X10911Y4506D01*
X10920Y4500D01*
X10925Y4498D01*
Y4520D01*
D02*
G37*
G36*
X10977D02*
X10955D01*
Y4498D01*
X10960Y4500D01*
X10969Y4506D01*
X10975Y4515D01*
X10977Y4520D01*
D02*
G37*
G36*
X10130Y4600D02*
X10120Y4599D01*
X10110Y4595D01*
X10101Y4589D01*
X10095Y4580D01*
X10091Y4570D01*
X10090Y4560D01*
X10091Y4550D01*
X10095Y4540D01*
X10101Y4531D01*
X10110Y4525D01*
X10120Y4521D01*
X10130Y4520D01*
X10140Y4521D01*
X10150Y4525D01*
X10159Y4531D01*
X10165Y4540D01*
X10169Y4550D01*
X10170Y4560D01*
X10169Y4570D01*
X10165Y4580D01*
X10159Y4589D01*
X10150Y4595D01*
X10140Y4599D01*
X10130Y4600D01*
D02*
G37*
G36*
X6915Y4558D02*
X6898D01*
X6899Y4556D01*
X6905Y4548D01*
X6912Y4543D01*
X6915Y4542D01*
Y4558D01*
D02*
G37*
G36*
X6962D02*
X6945D01*
Y4542D01*
X6948Y4543D01*
X6955Y4548D01*
X6961Y4556D01*
X6962Y4558D01*
D02*
G37*
G36*
X9585Y4543D02*
X9580Y4540D01*
X9577Y4535D01*
X9585D01*
Y4543D01*
D02*
G37*
G36*
X9615D02*
Y4535D01*
X9623D01*
X9620Y4540D01*
X9615Y4543D01*
D02*
G37*
G36*
X5080Y4567D02*
Y4550D01*
X5097D01*
X5096Y4553D01*
X5090Y4560D01*
X5083Y4566D01*
X5080Y4567D01*
D02*
G37*
G36*
X10955Y4572D02*
Y4550D01*
X10977D01*
X10975Y4555D01*
X10969Y4564D01*
X10960Y4570D01*
X10955Y4572D01*
D02*
G37*
G36*
X10925D02*
X10920Y4570D01*
X10911Y4564D01*
X10905Y4555D01*
X10903Y4550D01*
X10925D01*
Y4572D01*
D02*
G37*
G36*
X5050Y4567D02*
X5047Y4566D01*
X5040Y4560D01*
X5034Y4553D01*
X5033Y4550D01*
X5050D01*
Y4567D01*
D02*
G37*
G36*
X9530Y4608D02*
X9523Y4607D01*
X9516Y4604D01*
X9510Y4600D01*
X9506Y4594D01*
X9503Y4587D01*
X9502Y4580D01*
X9502Y4577D01*
X9500Y4575D01*
X9490Y4574D01*
X9482Y4568D01*
X9480Y4565D01*
X9500D01*
Y4550D01*
X9515D01*
Y4530D01*
X9518Y4532D01*
X9524Y4540D01*
X9525Y4550D01*
X9527Y4552D01*
X9530Y4552D01*
X9537Y4553D01*
X9544Y4556D01*
X9550Y4560D01*
X9554Y4566D01*
X9557Y4573D01*
X9558Y4580D01*
X9557Y4587D01*
X9554Y4594D01*
X9550Y4600D01*
X9544Y4604D01*
X9537Y4607D01*
X9530Y4608D01*
D02*
G37*
G36*
X10430Y4600D02*
X10420Y4599D01*
X10410Y4595D01*
X10401Y4589D01*
X10395Y4580D01*
X10391Y4570D01*
X10390Y4560D01*
X10391Y4550D01*
X10395Y4540D01*
X10401Y4531D01*
X10410Y4525D01*
X10420Y4521D01*
X10430Y4520D01*
X10440Y4521D01*
X10450Y4525D01*
X10459Y4531D01*
X10465Y4540D01*
X10469Y4550D01*
X10470Y4560D01*
X10469Y4570D01*
X10465Y4580D01*
X10459Y4589D01*
X10450Y4595D01*
X10440Y4599D01*
X10430Y4600D01*
D02*
G37*
G36*
X10530D02*
X10520Y4599D01*
X10510Y4595D01*
X10501Y4589D01*
X10495Y4580D01*
X10491Y4570D01*
X10490Y4560D01*
X10491Y4550D01*
X10495Y4540D01*
X10501Y4531D01*
X10510Y4525D01*
X10520Y4521D01*
X10530Y4520D01*
X10540Y4521D01*
X10550Y4525D01*
X10559Y4531D01*
X10565Y4540D01*
X10569Y4550D01*
X10570Y4560D01*
X10569Y4570D01*
X10565Y4580D01*
X10559Y4589D01*
X10550Y4595D01*
X10540Y4599D01*
X10530Y4600D01*
D02*
G37*
G36*
X10230D02*
X10220Y4599D01*
X10210Y4595D01*
X10201Y4589D01*
X10195Y4580D01*
X10191Y4570D01*
X10190Y4560D01*
X10191Y4550D01*
X10195Y4540D01*
X10201Y4531D01*
X10210Y4525D01*
X10220Y4521D01*
X10230Y4520D01*
X10240Y4521D01*
X10250Y4525D01*
X10259Y4531D01*
X10265Y4540D01*
X10269Y4550D01*
X10270Y4560D01*
X10269Y4570D01*
X10265Y4580D01*
X10259Y4589D01*
X10250Y4595D01*
X10240Y4599D01*
X10230Y4600D01*
D02*
G37*
G36*
X10330D02*
X10320Y4599D01*
X10310Y4595D01*
X10301Y4589D01*
X10295Y4580D01*
X10291Y4570D01*
X10290Y4560D01*
X10291Y4550D01*
X10295Y4540D01*
X10301Y4531D01*
X10310Y4525D01*
X10320Y4521D01*
X10330Y4520D01*
X10340Y4521D01*
X10350Y4525D01*
X10359Y4531D01*
X10365Y4540D01*
X10369Y4550D01*
X10370Y4560D01*
X10369Y4570D01*
X10365Y4580D01*
X10359Y4589D01*
X10350Y4595D01*
X10340Y4599D01*
X10330Y4600D01*
D02*
G37*
G36*
X4475Y4595D02*
X4466Y4594D01*
X4457Y4591D01*
X4450Y4585D01*
X4444Y4578D01*
X4441Y4569D01*
X4440Y4560D01*
X4441Y4551D01*
X4444Y4542D01*
X4450Y4535D01*
X4457Y4529D01*
X4466Y4526D01*
X4475Y4525D01*
X4484Y4526D01*
X4493Y4529D01*
X4500Y4535D01*
X4506Y4542D01*
X4509Y4551D01*
X4510Y4560D01*
X4509Y4569D01*
X4506Y4578D01*
X4500Y4585D01*
X4493Y4591D01*
X4484Y4594D01*
X4475Y4595D01*
D02*
G37*
G36*
X9485Y4535D02*
X9480D01*
X9482Y4532D01*
X9485Y4530D01*
Y4535D01*
D02*
G37*
G36*
X10630Y4600D02*
X10620Y4599D01*
X10610Y4595D01*
X10601Y4589D01*
X10595Y4580D01*
X10591Y4570D01*
X10590Y4560D01*
X10591Y4550D01*
X10595Y4540D01*
X10601Y4531D01*
X10610Y4525D01*
X10620Y4521D01*
X10630Y4520D01*
X10640Y4521D01*
X10650Y4525D01*
X10659Y4531D01*
X10665Y4540D01*
X10669Y4550D01*
X10670Y4560D01*
X10669Y4570D01*
X10665Y4580D01*
X10659Y4589D01*
X10650Y4595D01*
X10640Y4599D01*
X10630Y4600D01*
D02*
G37*
G36*
X10730D02*
X10720Y4599D01*
X10710Y4595D01*
X10701Y4589D01*
X10695Y4580D01*
X10691Y4570D01*
X10690Y4560D01*
X10691Y4550D01*
X10695Y4540D01*
X10701Y4531D01*
X10710Y4525D01*
X10720Y4521D01*
X10730Y4520D01*
X10740Y4521D01*
X10750Y4525D01*
X10759Y4531D01*
X10765Y4540D01*
X10769Y4550D01*
X10770Y4560D01*
X10769Y4570D01*
X10765Y4580D01*
X10759Y4589D01*
X10750Y4595D01*
X10740Y4599D01*
X10730Y4600D01*
D02*
G37*
G36*
X8670Y4485D02*
X8660Y4484D01*
X8650Y4480D01*
X8641Y4474D01*
X8635Y4465D01*
X8631Y4455D01*
X8630Y4445D01*
X8631Y4435D01*
X8635Y4425D01*
X8641Y4416D01*
X8650Y4410D01*
X8660Y4406D01*
X8670Y4405D01*
X8680Y4406D01*
X8690Y4410D01*
X8699Y4416D01*
X8705Y4425D01*
X8709Y4435D01*
X8710Y4445D01*
X8709Y4455D01*
X8705Y4465D01*
X8699Y4474D01*
X8690Y4480D01*
X8680Y4484D01*
X8670Y4485D01*
D02*
G37*
G36*
X8555Y4430D02*
X8533D01*
X8535Y4425D01*
X8541Y4416D01*
X8550Y4410D01*
X8555Y4408D01*
Y4430D01*
D02*
G37*
G36*
X4565Y4412D02*
X4562Y4411D01*
X4555Y4405D01*
X4549Y4398D01*
X4548Y4395D01*
X4565D01*
Y4412D01*
D02*
G37*
G36*
X4595D02*
Y4395D01*
X4612D01*
X4611Y4398D01*
X4605Y4405D01*
X4598Y4411D01*
X4595Y4412D01*
D02*
G37*
G36*
X10030Y4500D02*
X10020Y4499D01*
X10010Y4495D01*
X10001Y4489D01*
X9995Y4480D01*
X9991Y4470D01*
X9990Y4460D01*
X9991Y4450D01*
X9995Y4440D01*
X10001Y4431D01*
X10010Y4425D01*
X10020Y4421D01*
X10030Y4420D01*
X10040Y4421D01*
X10050Y4425D01*
X10059Y4431D01*
X10065Y4440D01*
X10069Y4450D01*
X10070Y4460D01*
X10069Y4470D01*
X10065Y4480D01*
X10059Y4489D01*
X10050Y4495D01*
X10040Y4499D01*
X10030Y4500D01*
D02*
G37*
G36*
X10130D02*
X10120Y4499D01*
X10110Y4495D01*
X10101Y4489D01*
X10095Y4480D01*
X10091Y4470D01*
X10090Y4460D01*
X10091Y4450D01*
X10095Y4440D01*
X10101Y4431D01*
X10110Y4425D01*
X10120Y4421D01*
X10130Y4420D01*
X10140Y4421D01*
X10150Y4425D01*
X10159Y4431D01*
X10165Y4440D01*
X10169Y4450D01*
X10170Y4460D01*
X10169Y4470D01*
X10165Y4480D01*
X10159Y4489D01*
X10150Y4495D01*
X10140Y4499D01*
X10130Y4500D01*
D02*
G37*
G36*
X8607Y4430D02*
X8585D01*
Y4408D01*
X8590Y4410D01*
X8599Y4416D01*
X8605Y4425D01*
X8607Y4430D01*
D02*
G37*
G36*
X5260Y4480D02*
X5251Y4479D01*
X5242Y4476D01*
X5235Y4470D01*
X5229Y4463D01*
X5226Y4454D01*
X5225Y4445D01*
X5226Y4436D01*
X5229Y4427D01*
X5235Y4420D01*
X5242Y4414D01*
X5251Y4411D01*
X5260Y4410D01*
X5269Y4411D01*
X5278Y4414D01*
X5285Y4420D01*
X5291Y4427D01*
X5294Y4436D01*
X5295Y4445D01*
X5294Y4454D01*
X5291Y4463D01*
X5285Y4470D01*
X5278Y4476D01*
X5269Y4479D01*
X5260Y4480D01*
D02*
G37*
G36*
X10940Y4475D02*
X10930Y4474D01*
X10920Y4470D01*
X10911Y4464D01*
X10905Y4455D01*
X10901Y4445D01*
X10900Y4435D01*
X10901Y4425D01*
X10905Y4415D01*
X10911Y4406D01*
X10920Y4400D01*
X10930Y4396D01*
X10940Y4395D01*
X10950Y4396D01*
X10960Y4400D01*
X10969Y4406D01*
X10975Y4415D01*
X10979Y4425D01*
X10980Y4435D01*
X10979Y4445D01*
X10975Y4455D01*
X10969Y4464D01*
X10960Y4470D01*
X10950Y4474D01*
X10940Y4475D01*
D02*
G37*
G36*
X8555Y4382D02*
X8550Y4380D01*
X8541Y4374D01*
X8535Y4365D01*
X8533Y4360D01*
X8555D01*
Y4382D01*
D02*
G37*
G36*
X8585D02*
Y4360D01*
X8607D01*
X8605Y4365D01*
X8599Y4374D01*
X8590Y4380D01*
X8585Y4382D01*
D02*
G37*
G36*
X5060Y4372D02*
X5057Y4371D01*
X5050Y4365D01*
X5044Y4358D01*
X5043Y4355D01*
X5060D01*
Y4372D01*
D02*
G37*
G36*
X5090D02*
Y4355D01*
X5107D01*
X5106Y4358D01*
X5100Y4365D01*
X5093Y4371D01*
X5090Y4372D01*
D02*
G37*
G36*
X6030Y4460D02*
X6021Y4459D01*
X6012Y4456D01*
X6005Y4450D01*
X5999Y4443D01*
X5996Y4434D01*
X5995Y4425D01*
X5996Y4416D01*
X5999Y4407D01*
X6005Y4400D01*
X6012Y4394D01*
X6021Y4391D01*
X6030Y4390D01*
X6039Y4391D01*
X6048Y4394D01*
X6055Y4400D01*
X6061Y4407D01*
X6064Y4416D01*
X6065Y4425D01*
X6064Y4434D01*
X6061Y4443D01*
X6055Y4450D01*
X6048Y4456D01*
X6039Y4459D01*
X6030Y4460D01*
D02*
G37*
G36*
X9620Y4485D02*
X9610Y4484D01*
X9602Y4478D01*
X9596Y4470D01*
X9595Y4460D01*
X9596Y4450D01*
X9598Y4448D01*
X9596Y4444D01*
X9595Y4444D01*
X9587Y4438D01*
X9581Y4430D01*
X9580Y4420D01*
X9581Y4410D01*
X9587Y4402D01*
X9595Y4396D01*
X9605Y4395D01*
X9615Y4396D01*
X9623Y4402D01*
X9629Y4410D01*
X9630Y4420D01*
X9629Y4430D01*
X9627Y4432D01*
X9629Y4436D01*
X9630Y4436D01*
X9638Y4442D01*
X9644Y4450D01*
X9645Y4460D01*
X9644Y4470D01*
X9638Y4478D01*
X9630Y4484D01*
X9620Y4485D01*
D02*
G37*
G36*
X6165Y4410D02*
X6135D01*
X6139Y4401D01*
X6146Y4391D01*
X6156Y4384D01*
X6165Y4380D01*
Y4410D01*
D02*
G37*
G36*
X6225D02*
X6195D01*
Y4380D01*
X6204Y4384D01*
X6214Y4391D01*
X6221Y4401D01*
X6225Y4410D01*
D02*
G37*
G36*
X10230Y4500D02*
X10220Y4499D01*
X10210Y4495D01*
X10201Y4489D01*
X10195Y4480D01*
X10191Y4470D01*
X10190Y4460D01*
X10191Y4450D01*
X10195Y4440D01*
X10201Y4431D01*
X10210Y4425D01*
X10220Y4421D01*
X10230Y4420D01*
X10240Y4421D01*
X10250Y4425D01*
X10259Y4431D01*
X10265Y4440D01*
X10269Y4450D01*
X10270Y4460D01*
X10269Y4470D01*
X10265Y4480D01*
X10259Y4489D01*
X10250Y4495D01*
X10240Y4499D01*
X10230Y4500D01*
D02*
G37*
G36*
X6195Y4470D02*
Y4440D01*
X6225D01*
X6221Y4449D01*
X6214Y4459D01*
X6204Y4466D01*
X6195Y4470D01*
D02*
G37*
G36*
X8555Y4482D02*
X8550Y4480D01*
X8541Y4474D01*
X8535Y4465D01*
X8533Y4460D01*
X8555D01*
Y4482D01*
D02*
G37*
G36*
X5080Y4493D02*
X5073Y4492D01*
X5066Y4489D01*
X5060Y4485D01*
X5056Y4479D01*
X5053Y4472D01*
X5052Y4465D01*
X5053Y4458D01*
X5056Y4451D01*
X5060Y4445D01*
X5066Y4441D01*
X5073Y4438D01*
X5080Y4437D01*
X5087Y4438D01*
X5094Y4441D01*
X5100Y4445D01*
X5104Y4451D01*
X5107Y4458D01*
X5108Y4465D01*
X5107Y4472D01*
X5104Y4479D01*
X5100Y4485D01*
X5094Y4489D01*
X5087Y4492D01*
X5080Y4493D01*
D02*
G37*
G36*
X6165Y4470D02*
X6156Y4466D01*
X6146Y4459D01*
X6139Y4449D01*
X6135Y4440D01*
X6165D01*
Y4470D01*
D02*
G37*
G36*
X3830Y4487D02*
Y4470D01*
X3847D01*
X3846Y4473D01*
X3840Y4480D01*
X3833Y4486D01*
X3830Y4487D01*
D02*
G37*
G36*
X6945Y4531D02*
X6938Y4530D01*
X6931Y4527D01*
X6925Y4523D01*
X6921Y4517D01*
X6918Y4510D01*
X6917Y4503D01*
X6918Y4496D01*
X6921Y4489D01*
X6925Y4484D01*
X6931Y4479D01*
X6938Y4476D01*
X6945Y4475D01*
X6952Y4476D01*
X6959Y4479D01*
X6965Y4484D01*
X6969Y4489D01*
X6972Y4496D01*
X6973Y4503D01*
X6972Y4510D01*
X6969Y4517D01*
X6965Y4523D01*
X6959Y4527D01*
X6952Y4530D01*
X6945Y4531D01*
D02*
G37*
G36*
X8585Y4482D02*
Y4460D01*
X8607D01*
X8605Y4465D01*
X8599Y4474D01*
X8590Y4480D01*
X8585Y4482D01*
D02*
G37*
G36*
X3800Y4487D02*
X3797Y4486D01*
X3790Y4480D01*
X3784Y4473D01*
X3783Y4470D01*
X3800D01*
Y4487D01*
D02*
G37*
G36*
X9945Y4483D02*
X9938Y4482D01*
X9931Y4479D01*
X9925Y4475D01*
X9921Y4469D01*
X9918Y4462D01*
X9917Y4455D01*
X9918Y4448D01*
X9921Y4441D01*
X9925Y4435D01*
X9931Y4431D01*
X9938Y4428D01*
X9945Y4427D01*
X9952Y4428D01*
X9959Y4431D01*
X9965Y4435D01*
X9969Y4441D01*
X9972Y4448D01*
X9973Y4455D01*
X9972Y4462D01*
X9969Y4469D01*
X9965Y4475D01*
X9959Y4479D01*
X9952Y4482D01*
X9945Y4483D01*
D02*
G37*
G36*
X10530Y4500D02*
X10520Y4499D01*
X10510Y4495D01*
X10501Y4489D01*
X10495Y4480D01*
X10491Y4470D01*
X10490Y4460D01*
X10491Y4450D01*
X10495Y4440D01*
X10501Y4431D01*
X10510Y4425D01*
X10520Y4421D01*
X10530Y4420D01*
X10540Y4421D01*
X10550Y4425D01*
X10559Y4431D01*
X10565Y4440D01*
X10569Y4450D01*
X10570Y4460D01*
X10569Y4470D01*
X10565Y4480D01*
X10559Y4489D01*
X10550Y4495D01*
X10540Y4499D01*
X10530Y4500D01*
D02*
G37*
G36*
X10630D02*
X10620Y4499D01*
X10610Y4495D01*
X10601Y4489D01*
X10595Y4480D01*
X10591Y4470D01*
X10590Y4460D01*
X10591Y4450D01*
X10595Y4440D01*
X10601Y4431D01*
X10610Y4425D01*
X10620Y4421D01*
X10630Y4420D01*
X10640Y4421D01*
X10650Y4425D01*
X10659Y4431D01*
X10665Y4440D01*
X10669Y4450D01*
X10670Y4460D01*
X10669Y4470D01*
X10665Y4480D01*
X10659Y4489D01*
X10650Y4495D01*
X10640Y4499D01*
X10630Y4500D01*
D02*
G37*
G36*
X10330D02*
X10320Y4499D01*
X10310Y4495D01*
X10301Y4489D01*
X10295Y4480D01*
X10291Y4470D01*
X10290Y4460D01*
X10291Y4450D01*
X10295Y4440D01*
X10301Y4431D01*
X10310Y4425D01*
X10320Y4421D01*
X10330Y4420D01*
X10340Y4421D01*
X10350Y4425D01*
X10359Y4431D01*
X10365Y4440D01*
X10369Y4450D01*
X10370Y4460D01*
X10369Y4470D01*
X10365Y4480D01*
X10359Y4489D01*
X10350Y4495D01*
X10340Y4499D01*
X10330Y4500D01*
D02*
G37*
G36*
X10430D02*
X10420Y4499D01*
X10410Y4495D01*
X10401Y4489D01*
X10395Y4480D01*
X10391Y4470D01*
X10390Y4460D01*
X10391Y4450D01*
X10395Y4440D01*
X10401Y4431D01*
X10410Y4425D01*
X10420Y4421D01*
X10430Y4420D01*
X10440Y4421D01*
X10450Y4425D01*
X10459Y4431D01*
X10465Y4440D01*
X10469Y4450D01*
X10470Y4460D01*
X10469Y4470D01*
X10465Y4480D01*
X10459Y4489D01*
X10450Y4495D01*
X10440Y4499D01*
X10430Y4500D01*
D02*
G37*
G36*
X3847Y4440D02*
X3830D01*
Y4423D01*
X3833Y4424D01*
X3840Y4430D01*
X3846Y4437D01*
X3847Y4440D01*
D02*
G37*
G36*
X9730Y4485D02*
X9720Y4484D01*
X9712Y4478D01*
X9706Y4470D01*
X9705Y4460D01*
X9706Y4450D01*
X9712Y4442D01*
X9720Y4436D01*
X9725Y4435D01*
X9727Y4431D01*
X9726Y4430D01*
X9725Y4420D01*
X9726Y4410D01*
X9732Y4402D01*
X9740Y4396D01*
X9750Y4395D01*
X9760Y4396D01*
X9768Y4402D01*
X9774Y4410D01*
X9775Y4420D01*
X9774Y4428D01*
X9778Y4431D01*
X9785Y4426D01*
X9795Y4425D01*
X9805Y4426D01*
X9813Y4432D01*
X9819Y4440D01*
X9820Y4450D01*
X9819Y4460D01*
X9813Y4468D01*
X9805Y4474D01*
X9795Y4475D01*
X9785Y4474D01*
X9777Y4468D01*
X9771Y4460D01*
X9770Y4450D01*
X9771Y4442D01*
X9767Y4439D01*
X9760Y4444D01*
X9755Y4445D01*
X9753Y4449D01*
X9754Y4450D01*
X9755Y4460D01*
X9754Y4470D01*
X9748Y4478D01*
X9740Y4484D01*
X9730Y4485D01*
D02*
G37*
G36*
X10730Y4500D02*
X10720Y4499D01*
X10710Y4495D01*
X10701Y4489D01*
X10695Y4480D01*
X10691Y4470D01*
X10690Y4460D01*
X10691Y4450D01*
X10695Y4440D01*
X10701Y4431D01*
X10710Y4425D01*
X10720Y4421D01*
X10730Y4420D01*
X10740Y4421D01*
X10750Y4425D01*
X10759Y4431D01*
X10765Y4440D01*
X10769Y4450D01*
X10770Y4460D01*
X10769Y4470D01*
X10765Y4480D01*
X10759Y4489D01*
X10750Y4495D01*
X10740Y4499D01*
X10730Y4500D01*
D02*
G37*
G36*
X3800Y4440D02*
X3783D01*
X3784Y4437D01*
X3790Y4430D01*
X3797Y4424D01*
X3800Y4423D01*
Y4440D01*
D02*
G37*
G36*
X5220Y4668D02*
X5213Y4667D01*
X5206Y4664D01*
X5200Y4660D01*
X5196Y4654D01*
X5193Y4647D01*
X5192Y4640D01*
X5193Y4633D01*
X5196Y4626D01*
X5200Y4620D01*
X5206Y4616D01*
X5213Y4613D01*
X5217Y4613D01*
X5218Y4613D01*
Y4607D01*
X5217Y4607D01*
X5213Y4607D01*
X5206Y4604D01*
X5200Y4600D01*
X5196Y4594D01*
X5193Y4587D01*
X5192Y4580D01*
X5193Y4573D01*
X5196Y4566D01*
X5200Y4560D01*
X5206Y4556D01*
X5213Y4553D01*
X5220Y4552D01*
X5227Y4553D01*
X5234Y4556D01*
X5240Y4560D01*
X5244Y4566D01*
X5247Y4573D01*
X5248Y4580D01*
X5247Y4587D01*
X5244Y4594D01*
X5240Y4600D01*
X5234Y4604D01*
X5227Y4607D01*
X5223Y4607D01*
X5222Y4607D01*
Y4613D01*
X5223Y4613D01*
X5227Y4613D01*
X5234Y4616D01*
X5240Y4620D01*
X5244Y4626D01*
X5247Y4633D01*
X5248Y4640D01*
X5247Y4647D01*
X5244Y4654D01*
X5240Y4660D01*
X5234Y4664D01*
X5227Y4667D01*
X5220Y4668D01*
D02*
G37*
G36*
X6540Y4675D02*
X6537Y4674D01*
X6530Y4668D01*
X6524Y4661D01*
X6523Y4658D01*
X6540D01*
Y4675D01*
D02*
G37*
G36*
X6570D02*
Y4658D01*
X6587D01*
X6586Y4661D01*
X6580Y4668D01*
X6573Y4674D01*
X6570Y4675D01*
D02*
G37*
G36*
X10925Y4680D02*
X10903D01*
X10905Y4675D01*
X10911Y4666D01*
X10920Y4660D01*
X10925Y4658D01*
Y4680D01*
D02*
G37*
G36*
X10977D02*
X10955D01*
Y4658D01*
X10960Y4660D01*
X10969Y4666D01*
X10975Y4675D01*
X10977Y4680D01*
D02*
G37*
G36*
X8555Y4682D02*
X8550Y4680D01*
X8541Y4674D01*
X8535Y4665D01*
X8533Y4660D01*
X8555D01*
Y4682D01*
D02*
G37*
G36*
X8585D02*
Y4660D01*
X8607D01*
X8605Y4665D01*
X8599Y4674D01*
X8590Y4680D01*
X8585Y4682D01*
D02*
G37*
G36*
X7300Y4675D02*
X7297Y4674D01*
X7290Y4668D01*
X7284Y4661D01*
X7283Y4658D01*
X7300D01*
Y4675D01*
D02*
G37*
G36*
X7330D02*
Y4658D01*
X7347D01*
X7346Y4661D01*
X7340Y4668D01*
X7333Y4674D01*
X7330Y4675D01*
D02*
G37*
G36*
X7115Y4708D02*
X7108Y4707D01*
X7101Y4704D01*
X7095Y4700D01*
X7091Y4694D01*
X7088Y4687D01*
X7087Y4680D01*
X7088Y4673D01*
X7091Y4666D01*
X7095Y4660D01*
X7101Y4656D01*
X7108Y4653D01*
X7115Y4652D01*
X7122Y4653D01*
X7129Y4656D01*
X7135Y4660D01*
X7139Y4666D01*
X7142Y4673D01*
X7143Y4680D01*
X7142Y4687D01*
X7139Y4694D01*
X7135Y4700D01*
X7129Y4704D01*
X7122Y4707D01*
X7115Y4708D01*
D02*
G37*
G36*
X10167Y4645D02*
X10145D01*
Y4623D01*
X10150Y4625D01*
X10159Y4631D01*
X10165Y4640D01*
X10167Y4645D01*
D02*
G37*
G36*
X10267D02*
X10245D01*
Y4623D01*
X10250Y4625D01*
X10259Y4631D01*
X10265Y4640D01*
X10267Y4645D01*
D02*
G37*
G36*
X10467D02*
X10445D01*
Y4623D01*
X10450Y4625D01*
X10459Y4631D01*
X10465Y4640D01*
X10467Y4645D01*
D02*
G37*
G36*
X10567D02*
X10545D01*
Y4623D01*
X10550Y4625D01*
X10559Y4631D01*
X10565Y4640D01*
X10567Y4645D01*
D02*
G37*
G36*
X4795Y4665D02*
X4778D01*
X4779Y4662D01*
X4785Y4655D01*
X4792Y4649D01*
X4795Y4648D01*
Y4665D01*
D02*
G37*
G36*
X4842D02*
X4825D01*
Y4648D01*
X4828Y4649D01*
X4835Y4655D01*
X4841Y4662D01*
X4842Y4665D01*
D02*
G37*
G36*
X10667Y4645D02*
X10645D01*
Y4623D01*
X10650Y4625D01*
X10659Y4631D01*
X10665Y4640D01*
X10667Y4645D01*
D02*
G37*
G36*
X10767D02*
X10745D01*
Y4623D01*
X10750Y4625D01*
X10759Y4631D01*
X10765Y4640D01*
X10767Y4645D01*
D02*
G37*
G36*
X10015Y4697D02*
X10010Y4695D01*
X10001Y4689D01*
X9995Y4680D01*
X9993Y4675D01*
X10015D01*
Y4697D01*
D02*
G37*
G36*
X10445D02*
Y4675D01*
X10467D01*
X10465Y4680D01*
X10459Y4689D01*
X10450Y4695D01*
X10445Y4697D01*
D02*
G37*
G36*
X10545D02*
Y4675D01*
X10567D01*
X10565Y4680D01*
X10559Y4689D01*
X10550Y4695D01*
X10545Y4697D01*
D02*
G37*
G36*
X10245D02*
Y4675D01*
X10267D01*
X10265Y4680D01*
X10259Y4689D01*
X10250Y4695D01*
X10245Y4697D01*
D02*
G37*
G36*
X10345D02*
Y4675D01*
X10367D01*
X10365Y4680D01*
X10359Y4689D01*
X10350Y4695D01*
X10345Y4697D01*
D02*
G37*
G36*
X4470Y4748D02*
X4463Y4747D01*
X4456Y4744D01*
X4450Y4740D01*
X4446Y4734D01*
X4443Y4727D01*
X4442Y4720D01*
X4443Y4713D01*
X4446Y4706D01*
X4450Y4700D01*
X4456Y4696D01*
X4463Y4693D01*
X4470Y4692D01*
X4477Y4693D01*
X4484Y4696D01*
X4490Y4700D01*
X4494Y4706D01*
X4497Y4713D01*
X4498Y4720D01*
X4497Y4727D01*
X4494Y4734D01*
X4490Y4740D01*
X4484Y4744D01*
X4477Y4747D01*
X4470Y4748D01*
D02*
G37*
G36*
X6690Y4710D02*
X6673D01*
X6674Y4707D01*
X6680Y4700D01*
X6687Y4694D01*
X6690Y4693D01*
Y4710D01*
D02*
G37*
G36*
X10645Y4697D02*
Y4675D01*
X10667D01*
X10665Y4680D01*
X10659Y4689D01*
X10650Y4695D01*
X10645Y4697D01*
D02*
G37*
G36*
X10745D02*
Y4675D01*
X10767D01*
X10765Y4680D01*
X10759Y4689D01*
X10750Y4695D01*
X10745Y4697D01*
D02*
G37*
G36*
X10145D02*
Y4675D01*
X10167D01*
X10165Y4680D01*
X10159Y4689D01*
X10150Y4695D01*
X10145Y4697D01*
D02*
G37*
G36*
X10315D02*
X10310Y4695D01*
X10301Y4689D01*
X10295Y4680D01*
X10293Y4675D01*
X10315D01*
Y4697D01*
D02*
G37*
G36*
X10415D02*
X10410Y4695D01*
X10401Y4689D01*
X10395Y4680D01*
X10393Y4675D01*
X10415D01*
Y4697D01*
D02*
G37*
G36*
X10115D02*
X10110Y4695D01*
X10101Y4689D01*
X10095Y4680D01*
X10093Y4675D01*
X10115D01*
Y4697D01*
D02*
G37*
G36*
X10215D02*
X10210Y4695D01*
X10201Y4689D01*
X10195Y4680D01*
X10193Y4675D01*
X10215D01*
Y4697D01*
D02*
G37*
G36*
X10715D02*
X10710Y4695D01*
X10701Y4689D01*
X10695Y4680D01*
X10693Y4675D01*
X10715D01*
Y4697D01*
D02*
G37*
G36*
X10045D02*
Y4675D01*
X10067D01*
X10065Y4680D01*
X10059Y4689D01*
X10050Y4695D01*
X10045Y4697D01*
D02*
G37*
G36*
X10515D02*
X10510Y4695D01*
X10501Y4689D01*
X10495Y4680D01*
X10493Y4675D01*
X10515D01*
Y4697D01*
D02*
G37*
G36*
X10615D02*
X10610Y4695D01*
X10601Y4689D01*
X10595Y4680D01*
X10593Y4675D01*
X10615D01*
Y4697D01*
D02*
G37*
G36*
X7065Y4641D02*
X7058Y4640D01*
X7051Y4637D01*
X7045Y4633D01*
X7041Y4627D01*
X7038Y4620D01*
X7037Y4613D01*
X7038Y4606D01*
X7041Y4599D01*
X7045Y4594D01*
X7051Y4589D01*
X7058Y4586D01*
X7065Y4585D01*
X7072Y4586D01*
X7079Y4589D01*
X7085Y4594D01*
X7089Y4599D01*
X7092Y4606D01*
X7093Y4613D01*
X7092Y4620D01*
X7089Y4627D01*
X7085Y4633D01*
X7079Y4637D01*
X7072Y4640D01*
X7065Y4641D01*
D02*
G37*
G36*
X6915Y4605D02*
X6912Y4604D01*
X6905Y4598D01*
X6899Y4591D01*
X6898Y4588D01*
X6915D01*
Y4605D01*
D02*
G37*
G36*
X4615Y4592D02*
X4598D01*
X4599Y4589D01*
X4605Y4582D01*
X4612Y4576D01*
X4615Y4575D01*
Y4592D01*
D02*
G37*
G36*
X4662D02*
X4645D01*
Y4575D01*
X4648Y4576D01*
X4655Y4582D01*
X4661Y4589D01*
X4662Y4592D01*
D02*
G37*
G36*
X8555Y4630D02*
X8533D01*
X8535Y4625D01*
X8541Y4616D01*
X8550Y4610D01*
X8555Y4608D01*
Y4630D01*
D02*
G37*
G36*
X8607D02*
X8585D01*
Y4608D01*
X8590Y4610D01*
X8599Y4616D01*
X8605Y4625D01*
X8607Y4630D01*
D02*
G37*
G36*
X6945Y4605D02*
Y4588D01*
X6962D01*
X6961Y4591D01*
X6955Y4598D01*
X6948Y4604D01*
X6945Y4605D01*
D02*
G37*
G36*
X8670Y4685D02*
X8660Y4684D01*
X8650Y4680D01*
X8641Y4674D01*
X8635Y4665D01*
X8631Y4655D01*
X8630Y4645D01*
X8631Y4635D01*
X8635Y4625D01*
X8641Y4616D01*
X8650Y4610D01*
X8660Y4606D01*
X8670Y4605D01*
X8680Y4606D01*
X8690Y4610D01*
X8699Y4616D01*
X8705Y4625D01*
X8709Y4635D01*
X8710Y4645D01*
X8709Y4655D01*
X8705Y4665D01*
X8699Y4674D01*
X8690Y4680D01*
X8680Y4684D01*
X8670Y4685D01*
D02*
G37*
G36*
X5457Y4590D02*
X5440D01*
Y4573D01*
X5443Y4574D01*
X5450Y4580D01*
X5456Y4587D01*
X5457Y4590D01*
D02*
G37*
G36*
X6520Y4587D02*
Y4560D01*
X6547D01*
X6544Y4568D01*
X6537Y4577D01*
X6528Y4584D01*
X6520Y4587D01*
D02*
G37*
G36*
X6605D02*
X6597Y4584D01*
X6588Y4577D01*
X6581Y4568D01*
X6578Y4560D01*
X6605D01*
Y4587D01*
D02*
G37*
G36*
X8555Y4582D02*
X8550Y4580D01*
X8541Y4574D01*
X8535Y4565D01*
X8533Y4560D01*
X8555D01*
Y4582D01*
D02*
G37*
G36*
X6490Y4587D02*
X6482Y4584D01*
X6473Y4577D01*
X6466Y4568D01*
X6463Y4560D01*
X6490D01*
Y4587D01*
D02*
G37*
G36*
X6365Y4634D02*
X6356Y4632D01*
X6347Y4629D01*
X6340Y4623D01*
X6334Y4616D01*
X6331Y4607D01*
X6330Y4598D01*
X6331Y4589D01*
X6334Y4581D01*
X6340Y4573D01*
X6347Y4568D01*
X6356Y4564D01*
X6365Y4563D01*
X6374Y4564D01*
X6383Y4568D01*
X6390Y4573D01*
X6396Y4581D01*
X6399Y4589D01*
X6400Y4598D01*
X6399Y4607D01*
X6396Y4616D01*
X6390Y4623D01*
X6383Y4629D01*
X6374Y4632D01*
X6365Y4634D01*
D02*
G37*
G36*
X5410Y4590D02*
X5393D01*
X5394Y4587D01*
X5400Y4580D01*
X5407Y4574D01*
X5410Y4573D01*
Y4590D01*
D02*
G37*
G36*
X6635Y4587D02*
Y4560D01*
X6662D01*
X6659Y4568D01*
X6652Y4577D01*
X6643Y4584D01*
X6635Y4587D01*
D02*
G37*
G36*
X8585Y4582D02*
Y4560D01*
X8607D01*
X8605Y4565D01*
X8599Y4574D01*
X8590Y4580D01*
X8585Y4582D01*
D02*
G37*
G36*
X6540Y4628D02*
X6523D01*
X6524Y4626D01*
X6530Y4618D01*
X6537Y4613D01*
X6540Y4612D01*
Y4628D01*
D02*
G37*
G36*
X10515Y4645D02*
X10493D01*
X10495Y4640D01*
X10501Y4631D01*
X10510Y4625D01*
X10515Y4623D01*
Y4645D01*
D02*
G37*
G36*
X10615D02*
X10593D01*
X10595Y4640D01*
X10601Y4631D01*
X10610Y4625D01*
X10615Y4623D01*
Y4645D01*
D02*
G37*
G36*
X10215D02*
X10193D01*
X10195Y4640D01*
X10201Y4631D01*
X10210Y4625D01*
X10215Y4623D01*
Y4645D01*
D02*
G37*
G36*
X10415D02*
X10393D01*
X10395Y4640D01*
X10401Y4631D01*
X10410Y4625D01*
X10415Y4623D01*
Y4645D01*
D02*
G37*
G36*
X10067D02*
X10045D01*
Y4623D01*
X10050Y4625D01*
X10059Y4631D01*
X10065Y4640D01*
X10067Y4645D01*
D02*
G37*
G36*
X10367D02*
X10345D01*
Y4623D01*
X10350Y4625D01*
X10359Y4631D01*
X10365Y4640D01*
X10367Y4645D01*
D02*
G37*
G36*
X10715D02*
X10693D01*
X10695Y4640D01*
X10701Y4631D01*
X10710Y4625D01*
X10715Y4623D01*
Y4645D01*
D02*
G37*
G36*
X10315D02*
X10293D01*
X10295Y4640D01*
X10301Y4631D01*
X10310Y4625D01*
X10315Y4623D01*
Y4645D01*
D02*
G37*
G36*
X10115D02*
X10093D01*
X10095Y4640D01*
X10101Y4631D01*
X10110Y4625D01*
X10115Y4623D01*
Y4645D01*
D02*
G37*
G36*
X7347Y4628D02*
X7330D01*
Y4612D01*
X7333Y4613D01*
X7340Y4618D01*
X7346Y4626D01*
X7347Y4628D01*
D02*
G37*
G36*
X5410Y4637D02*
X5407Y4636D01*
X5400Y4630D01*
X5394Y4623D01*
X5393Y4620D01*
X5410D01*
Y4637D01*
D02*
G37*
G36*
X6587Y4628D02*
X6570D01*
Y4612D01*
X6573Y4613D01*
X6580Y4618D01*
X6586Y4626D01*
X6587Y4628D01*
D02*
G37*
G36*
X7300D02*
X7283D01*
X7284Y4626D01*
X7290Y4618D01*
X7297Y4613D01*
X7300Y4612D01*
Y4628D01*
D02*
G37*
G36*
X4645Y4639D02*
Y4622D01*
X4662D01*
X4661Y4625D01*
X4655Y4632D01*
X4648Y4637D01*
X4645Y4639D01*
D02*
G37*
G36*
X10015Y4645D02*
X9993D01*
X9995Y4640D01*
X10001Y4631D01*
X10010Y4625D01*
X10015Y4623D01*
Y4645D01*
D02*
G37*
G36*
X5440Y4637D02*
Y4620D01*
X5457D01*
X5456Y4623D01*
X5450Y4630D01*
X5443Y4636D01*
X5440Y4637D01*
D02*
G37*
G36*
X4615Y4639D02*
X4612Y4637D01*
X4605Y4632D01*
X4599Y4625D01*
X4598Y4622D01*
X4615D01*
Y4639D01*
D02*
G37*
%LPD*%
D60*
X7669Y2515D02*
D03*
X7551D02*
D03*
X4600Y2520D02*
D03*
X4482D02*
D03*
X6148Y2517D02*
D03*
X6030D02*
D03*
X5239Y2520D02*
D03*
X5121D02*
D03*
D61*
X6620Y4545D02*
D03*
X6505D02*
D03*
D62*
X8160Y2600D02*
D03*
Y2500D02*
D03*
D63*
X7715Y5059D02*
D03*
D64*
Y3961D02*
D03*
D65*
X8755Y3295D02*
D03*
D66*
X10875Y3455D02*
D03*
Y2963D02*
D03*
D67*
X8570Y4145D02*
D03*
Y4245D02*
D03*
Y4345D02*
D03*
Y4445D02*
D03*
Y4545D02*
D03*
Y4645D02*
D03*
Y4745D02*
D03*
Y4845D02*
D03*
Y4945D02*
D03*
X10030Y4660D02*
D03*
X10130D02*
D03*
X10230D02*
D03*
X10330D02*
D03*
X10430D02*
D03*
X10530D02*
D03*
X10630D02*
D03*
X10730D02*
D03*
X10940Y4535D02*
D03*
Y4695D02*
D03*
D68*
X8570Y5045D02*
D03*
D69*
X10290Y5110D02*
D03*
D71*
X10275Y3885D02*
D03*
X5223Y4728D02*
D03*
X7115Y4765D02*
D03*
X10275Y4015D02*
D03*
X9200Y3845D02*
D03*
X9500Y4550D02*
D03*
D72*
X9440Y3550D02*
D03*
X10595Y3830D02*
D03*
X10590Y4040D02*
D03*
X5305Y4815D02*
D03*
X7195Y4855D02*
D03*
X9600Y4520D02*
D03*
D73*
X4270Y2880D02*
D03*
X4540Y2920D02*
D03*
X4960D02*
D03*
X4585Y3685D02*
D03*
X4580Y4380D02*
D03*
X9780Y3180D02*
D03*
X5840Y4065D02*
D03*
X3815Y4455D02*
D03*
X3670Y4795D02*
D03*
X4135Y4825D02*
D03*
X3615Y3675D02*
D03*
X3760Y3335D02*
D03*
X4080Y3705D02*
D03*
X5425Y4605D02*
D03*
X4640Y5040D02*
D03*
X8755Y3160D02*
D03*
X4925Y5010D02*
D03*
X5065Y4535D02*
D03*
X4540Y4820D02*
D03*
X6430Y4858D02*
D03*
X6930Y4573D02*
D03*
X6530Y5078D02*
D03*
X7315Y4643D02*
D03*
X6555D02*
D03*
X4810Y4680D02*
D03*
X4630Y4607D02*
D03*
X4805Y4340D02*
D03*
X5075D02*
D03*
X6705Y4725D02*
D03*
X6200Y3735D02*
D03*
X7425Y4230D02*
D03*
X10725Y3715D02*
D03*
X10870Y4000D02*
D03*
X10765Y4995D02*
D03*
X10620Y4990D02*
D03*
X10470D02*
D03*
X8870Y3675D02*
D03*
X5840Y2890D02*
D03*
X10025Y3175D02*
D03*
X9810Y3500D02*
D03*
X6815Y5048D02*
D03*
X10025Y4090D02*
D03*
X9855Y4780D02*
D03*
D74*
X6180Y4425D02*
D03*
M02*
