G04 Layer_Physical_Order=3*
G04 Layer_Color=16440176*
%FSLAX23Y23*%
%MOIN*%
G70*
G01*
G75*
%ADD51C,0.020*%
%ADD52C,0.010*%
%ADD53C,0.030*%
%ADD63C,0.075*%
%ADD65C,0.063*%
%ADD66C,0.071*%
%ADD67C,0.060*%
%ADD68R,0.060X0.060*%
%ADD69R,0.060X0.060*%
%ADD71C,0.030*%
%ADD72C,0.035*%
%ADD73C,0.050*%
%ADD74C,0.075*%
%ADD75C,0.034*%
G36*
X10942Y4580D02*
X10939Y4575D01*
X10930Y4574D01*
X10920Y4570D01*
X10911Y4564D01*
X10905Y4555D01*
X10901Y4545D01*
X10900Y4535D01*
X10901Y4525D01*
X10905Y4515D01*
X10911Y4506D01*
X10920Y4500D01*
X10930Y4496D01*
X10940Y4495D01*
X10950Y4496D01*
X10960Y4500D01*
X10969Y4506D01*
X10975Y4515D01*
X10979Y4525D01*
X10980Y4534D01*
X10985Y4536D01*
X11000Y4520D01*
X11000Y3455D01*
X10610Y3065D01*
X8955D01*
X8785Y3235D01*
Y3266D01*
X8791Y3274D01*
X8796Y3284D01*
X8797Y3295D01*
X8796Y3306D01*
X8791Y3316D01*
X8785Y3324D01*
Y3370D01*
X8955Y3540D01*
X8955Y3910D01*
X9025D01*
X9031Y3911D01*
X9036Y3914D01*
X9100Y3978D01*
X9105Y3977D01*
X9112Y3978D01*
X9119Y3981D01*
X9125Y3985D01*
X9129Y3991D01*
X9132Y3998D01*
X9133Y4005D01*
X9132Y4012D01*
X9129Y4019D01*
X9125Y4025D01*
X9119Y4029D01*
X9112Y4032D01*
X9105Y4033D01*
X9098Y4032D01*
X9091Y4029D01*
X9086Y4025D01*
X9084Y4024D01*
X9081D01*
X9079Y4025D01*
X9074Y4029D01*
X9067Y4032D01*
X9060Y4033D01*
X9053Y4032D01*
X9046Y4029D01*
X9041Y4025D01*
X9039Y4024D01*
X9036D01*
X9034Y4025D01*
X9029Y4029D01*
X9022Y4032D01*
X9015Y4033D01*
X9008Y4032D01*
X9001Y4029D01*
X8995Y4025D01*
X8993Y4022D01*
X8987D01*
X8985Y4025D01*
X8979Y4029D01*
X8972Y4032D01*
X8965Y4033D01*
X8960Y4032D01*
X8955Y4035D01*
Y4100D01*
X9180D01*
X9185Y4101D01*
X9186Y4100D01*
X9189Y4095D01*
X9188Y4092D01*
X9187Y4085D01*
X9188Y4078D01*
X9191Y4071D01*
X9195Y4065D01*
X9201Y4061D01*
X9208Y4058D01*
X9215Y4057D01*
X9222Y4058D01*
X9229Y4061D01*
X9235Y4065D01*
X9239Y4071D01*
X9242Y4078D01*
X9243Y4085D01*
X9242Y4092D01*
X9239Y4099D01*
X9235Y4105D01*
X9229Y4109D01*
X9222Y4112D01*
X9218Y4112D01*
X9217Y4113D01*
X9214Y4117D01*
X9214Y4118D01*
X9215Y4125D01*
X9214Y4135D01*
X9208Y4143D01*
X9200Y4149D01*
X9190Y4150D01*
X9182Y4149D01*
X9178Y4152D01*
X9177Y4153D01*
X9178Y4155D01*
X9177Y4158D01*
X9180Y4162D01*
X9187Y4163D01*
X9194Y4166D01*
X9200Y4170D01*
X9204Y4176D01*
X9207Y4183D01*
X9208Y4190D01*
X9207Y4197D01*
X9204Y4204D01*
X9200Y4210D01*
X9194Y4214D01*
X9187Y4217D01*
X9180Y4218D01*
X9173Y4217D01*
X9166Y4214D01*
X9160Y4210D01*
X9156Y4204D01*
X9153Y4197D01*
X9152Y4190D01*
X9153Y4187D01*
X9150Y4183D01*
X9143Y4182D01*
X9136Y4179D01*
X9130Y4175D01*
X9126Y4169D01*
X9123Y4162D01*
X9122Y4155D01*
X9123Y4148D01*
X9126Y4141D01*
X9130Y4135D01*
X9131Y4135D01*
X9129Y4130D01*
X8955D01*
X8955Y4497D01*
X9185Y4710D01*
X10814Y4710D01*
X10942Y4580D01*
D02*
G37*
G36*
X8715Y5165D02*
X8815Y5065D01*
Y4145D01*
X8780Y4110D01*
X8698D01*
X8697Y4115D01*
X8699Y4116D01*
X8705Y4125D01*
X8707Y4130D01*
X8670D01*
X8633D01*
X8635Y4125D01*
X8641Y4116D01*
X8643Y4115D01*
X8642Y4110D01*
X8598D01*
X8597Y4115D01*
X8599Y4116D01*
X8605Y4125D01*
X8609Y4135D01*
X8610Y4145D01*
X8609Y4155D01*
X8605Y4165D01*
X8599Y4174D01*
X8590Y4180D01*
X8580Y4184D01*
X8570Y4185D01*
X8560Y4184D01*
X8550Y4180D01*
X8541Y4174D01*
X8535Y4165D01*
X8531Y4155D01*
X8530Y4145D01*
X8531Y4135D01*
X8535Y4125D01*
X8541Y4116D01*
X8543Y4115D01*
X8542Y4110D01*
X8525D01*
X8519Y4109D01*
X8514Y4106D01*
X8479Y4071D01*
X8476Y4066D01*
X8475Y4060D01*
Y3931D01*
X8409Y3865D01*
X7982D01*
X7907Y3940D01*
X7911Y3948D01*
X7913Y3961D01*
X7911Y3973D01*
X7906Y3985D01*
X7899Y3995D01*
X7889Y4002D01*
X7877Y4007D01*
X7865Y4009D01*
X7852Y4007D01*
X7841Y4002D01*
X7831Y3995D01*
X7823Y3985D01*
X7818Y3973D01*
X7817Y3961D01*
X7818Y3948D01*
X7823Y3937D01*
X7831Y3927D01*
X7841Y3919D01*
X7852Y3914D01*
X7865Y3913D01*
X7877Y3914D01*
X7886Y3918D01*
X7965Y3839D01*
X7970Y3836D01*
X7976Y3835D01*
X8415D01*
X8421Y3836D01*
X8426Y3839D01*
X8501Y3914D01*
X8504Y3919D01*
X8505Y3925D01*
Y4054D01*
X8531Y4080D01*
X8542D01*
X8543Y4075D01*
X8541Y4074D01*
X8535Y4065D01*
X8531Y4055D01*
X8530Y4045D01*
X8531Y4035D01*
X8535Y4025D01*
X8541Y4016D01*
X8550Y4010D01*
X8560Y4006D01*
X8570Y4005D01*
X8580Y4006D01*
X8585Y4008D01*
X8609Y3984D01*
X8614Y3981D01*
X8620Y3980D01*
X8642D01*
X8643Y3975D01*
X8641Y3974D01*
X8635Y3965D01*
X8631Y3955D01*
X8630Y3945D01*
X8631Y3935D01*
X8635Y3925D01*
X8641Y3916D01*
X8643Y3915D01*
X8642Y3910D01*
X8626D01*
X8607Y3930D01*
X8609Y3935D01*
X8610Y3945D01*
X8609Y3955D01*
X8605Y3965D01*
X8599Y3974D01*
X8590Y3980D01*
X8580Y3984D01*
X8570Y3985D01*
X8560Y3984D01*
X8550Y3980D01*
X8541Y3974D01*
X8535Y3965D01*
X8531Y3955D01*
X8530Y3945D01*
X8531Y3935D01*
X8535Y3925D01*
X8541Y3916D01*
X8550Y3910D01*
X8560Y3906D01*
X8570Y3905D01*
X8580Y3906D01*
X8585Y3908D01*
X8609Y3884D01*
X8614Y3881D01*
X8620Y3880D01*
X8642D01*
X8643Y3875D01*
X8641Y3874D01*
X8635Y3865D01*
X8631Y3855D01*
X8630Y3845D01*
X8631Y3835D01*
X8635Y3825D01*
X8641Y3816D01*
X8643Y3815D01*
X8642Y3810D01*
X8626D01*
X8607Y3830D01*
X8609Y3835D01*
X8610Y3845D01*
X8609Y3855D01*
X8605Y3865D01*
X8599Y3874D01*
X8590Y3880D01*
X8580Y3884D01*
X8570Y3885D01*
X8560Y3884D01*
X8550Y3880D01*
X8541Y3874D01*
X8535Y3865D01*
X8531Y3855D01*
X8530Y3845D01*
X8531Y3835D01*
X8535Y3825D01*
X8541Y3816D01*
X8550Y3810D01*
X8560Y3806D01*
X8570Y3805D01*
X8580Y3806D01*
X8585Y3808D01*
X8609Y3784D01*
X8614Y3781D01*
X8620Y3780D01*
X8642D01*
X8643Y3775D01*
X8641Y3774D01*
X8635Y3765D01*
X8631Y3755D01*
X8630Y3745D01*
X8631Y3735D01*
X8635Y3725D01*
X8641Y3716D01*
X8643Y3715D01*
X8642Y3710D01*
X8626D01*
X8607Y3730D01*
X8609Y3735D01*
X8610Y3745D01*
X8609Y3755D01*
X8605Y3765D01*
X8599Y3774D01*
X8590Y3780D01*
X8580Y3784D01*
X8570Y3785D01*
X8560Y3784D01*
X8550Y3780D01*
X8541Y3774D01*
X8535Y3765D01*
X8531Y3755D01*
X8530Y3745D01*
X8531Y3735D01*
X8535Y3725D01*
X8541Y3716D01*
X8550Y3710D01*
X8560Y3706D01*
X8570Y3705D01*
X8580Y3706D01*
X8585Y3708D01*
X8609Y3684D01*
X8614Y3681D01*
X8620Y3680D01*
X8700D01*
X8705Y3681D01*
X8710Y3678D01*
X8710Y3155D01*
X8330Y2775D01*
X3355D01*
X3240Y2890D01*
X3240Y4685D01*
X3720Y5165D01*
X8715Y5165D01*
D02*
G37*
%LPC*%
G36*
X10955Y4082D02*
X10945Y4081D01*
X10936Y4077D01*
X10928Y4071D01*
X10921Y4063D01*
X10917Y4053D01*
X10916Y4043D01*
X10917Y4033D01*
X10921Y4024D01*
X10928Y4016D01*
X10936Y4010D01*
X10945Y4006D01*
X10955Y4005D01*
X10965Y4006D01*
X10974Y4010D01*
X10982Y4016D01*
X10989Y4024D01*
X10993Y4033D01*
X10994Y4043D01*
X10993Y4053D01*
X10989Y4063D01*
X10982Y4071D01*
X10974Y4077D01*
X10965Y4081D01*
X10955Y4082D01*
D02*
G37*
G36*
X10040Y4028D02*
X10035Y4025D01*
X10032Y4020D01*
X10040D01*
Y4028D01*
D02*
G37*
G36*
X10590Y4068D02*
X10583Y4067D01*
X10576Y4064D01*
X10570Y4060D01*
X10566Y4054D01*
X10563Y4047D01*
X10562Y4040D01*
X10563Y4033D01*
X10566Y4026D01*
X10570Y4020D01*
X10576Y4016D01*
X10583Y4013D01*
X10590Y4012D01*
X10597Y4013D01*
X10604Y4016D01*
X10610Y4020D01*
X10614Y4026D01*
X10617Y4033D01*
X10618Y4040D01*
X10617Y4047D01*
X10614Y4054D01*
X10610Y4060D01*
X10604Y4064D01*
X10597Y4067D01*
X10590Y4068D01*
D02*
G37*
G36*
X10025Y4125D02*
X10016Y4124D01*
X10007Y4121D01*
X10000Y4115D01*
X9994Y4108D01*
X9991Y4099D01*
X9990Y4090D01*
X9991Y4081D01*
X9994Y4072D01*
X10000Y4065D01*
X10007Y4059D01*
X10016Y4056D01*
X10025Y4055D01*
X10034Y4056D01*
X10043Y4059D01*
X10050Y4065D01*
X10056Y4072D01*
X10059Y4081D01*
X10060Y4090D01*
X10059Y4099D01*
X10056Y4108D01*
X10050Y4115D01*
X10043Y4121D01*
X10034Y4124D01*
X10025Y4125D01*
D02*
G37*
G36*
X10505Y4133D02*
X10498Y4132D01*
X10491Y4129D01*
X10485Y4125D01*
X10483Y4122D01*
X10477D01*
X10475Y4125D01*
X10469Y4129D01*
X10462Y4132D01*
X10455Y4133D01*
X10448Y4132D01*
X10441Y4129D01*
X10435Y4125D01*
X10431Y4119D01*
X10428Y4112D01*
X10427Y4105D01*
X10428Y4098D01*
X10431Y4091D01*
X10435Y4085D01*
X10441Y4081D01*
X10448Y4078D01*
X10455Y4077D01*
X10462Y4078D01*
X10469Y4081D01*
X10475Y4085D01*
X10477Y4088D01*
X10483D01*
X10485Y4085D01*
X10491Y4081D01*
X10498Y4078D01*
X10505Y4077D01*
X10512Y4078D01*
X10519Y4081D01*
X10525Y4085D01*
X10529Y4091D01*
X10532Y4098D01*
X10533Y4105D01*
X10532Y4112D01*
X10529Y4119D01*
X10525Y4125D01*
X10519Y4129D01*
X10512Y4132D01*
X10505Y4133D01*
D02*
G37*
G36*
X10010Y3990D02*
X10000Y3989D01*
X9992Y3983D01*
X9986Y3975D01*
X9985Y3965D01*
X9986Y3955D01*
X9992Y3947D01*
X10000Y3941D01*
X10010Y3940D01*
X10010Y3936D01*
X10010Y3935D01*
X10010Y3935D01*
X10011Y3925D01*
X10017Y3917D01*
Y3916D01*
X10012Y3913D01*
X10006Y3905D01*
X10005Y3895D01*
X10006Y3885D01*
X10012Y3877D01*
X10020Y3871D01*
X10030Y3870D01*
X10040Y3871D01*
X10048Y3877D01*
X10054Y3885D01*
X10055Y3895D01*
X10054Y3905D01*
X10048Y3913D01*
Y3914D01*
X10053Y3917D01*
X10059Y3925D01*
X10060Y3935D01*
X10059Y3945D01*
X10053Y3953D01*
X10045Y3959D01*
X10040Y3960D01*
X10035Y3965D01*
X10034Y3975D01*
X10028Y3983D01*
X10020Y3989D01*
X10010Y3990D01*
D02*
G37*
G36*
X10955Y3885D02*
X10945Y3884D01*
X10936Y3880D01*
X10928Y3874D01*
X10921Y3866D01*
X10917Y3857D01*
X10916Y3847D01*
X10917Y3837D01*
X10921Y3827D01*
X10928Y3819D01*
X10936Y3813D01*
X10945Y3809D01*
X10955Y3808D01*
X10965Y3809D01*
X10974Y3813D01*
X10982Y3819D01*
X10989Y3827D01*
X10993Y3837D01*
X10994Y3847D01*
X10993Y3857D01*
X10989Y3866D01*
X10982Y3874D01*
X10974Y3880D01*
X10965Y3884D01*
X10955Y3885D01*
D02*
G37*
G36*
X10595Y3858D02*
X10588Y3857D01*
X10581Y3854D01*
X10575Y3850D01*
X10571Y3844D01*
X10568Y3837D01*
X10567Y3830D01*
X10568Y3823D01*
X10571Y3816D01*
X10575Y3810D01*
X10581Y3806D01*
X10588Y3803D01*
X10595Y3802D01*
X10602Y3803D01*
X10609Y3806D01*
X10615Y3810D01*
X10619Y3816D01*
X10622Y3823D01*
X10623Y3830D01*
X10622Y3837D01*
X10619Y3844D01*
X10615Y3850D01*
X10609Y3854D01*
X10602Y3857D01*
X10595Y3858D01*
D02*
G37*
G36*
X9205Y3910D02*
X9195Y3908D01*
X9187Y3902D01*
X9181Y3894D01*
X9180Y3884D01*
X9181Y3875D01*
X9187Y3866D01*
Y3866D01*
X9182Y3863D01*
X9176Y3855D01*
X9175Y3845D01*
X9176Y3835D01*
X9182Y3827D01*
X9186Y3824D01*
X9186Y3821D01*
X9186Y3819D01*
X9180Y3815D01*
X9177Y3810D01*
X9223D01*
X9220Y3815D01*
X9214Y3819D01*
X9214Y3821D01*
X9214Y3824D01*
X9218Y3827D01*
X9223Y3835D01*
X9227Y3838D01*
X9227Y3838D01*
X9237Y3836D01*
X9247Y3838D01*
X9255Y3844D01*
X9261Y3852D01*
X9263Y3862D01*
X9261Y3871D01*
X9255Y3880D01*
X9247Y3885D01*
X9237Y3887D01*
X9230Y3886D01*
X9229Y3894D01*
X9223Y3902D01*
X9215Y3908D01*
X9205Y3910D01*
D02*
G37*
G36*
X10040Y3990D02*
X10032D01*
X10035Y3985D01*
X10040Y3982D01*
Y3990D01*
D02*
G37*
G36*
X10870Y4035D02*
X10861Y4034D01*
X10852Y4031D01*
X10845Y4025D01*
X10839Y4018D01*
X10836Y4009D01*
X10835Y4000D01*
X10836Y3991D01*
X10839Y3982D01*
X10845Y3975D01*
X10852Y3969D01*
X10861Y3966D01*
X10870Y3965D01*
X10879Y3966D01*
X10888Y3969D01*
X10895Y3975D01*
X10901Y3982D01*
X10904Y3991D01*
X10905Y4000D01*
X10904Y4009D01*
X10901Y4018D01*
X10895Y4025D01*
X10888Y4031D01*
X10879Y4034D01*
X10870Y4035D01*
D02*
G37*
G36*
X10030Y4500D02*
X10020Y4499D01*
X10010Y4495D01*
X10001Y4489D01*
X9995Y4480D01*
X9991Y4470D01*
X9990Y4460D01*
X9991Y4450D01*
X9995Y4440D01*
X10001Y4431D01*
X10010Y4425D01*
X10020Y4421D01*
X10030Y4420D01*
X10040Y4421D01*
X10050Y4425D01*
X10059Y4431D01*
X10065Y4440D01*
X10069Y4450D01*
X10070Y4460D01*
X10069Y4470D01*
X10065Y4480D01*
X10059Y4489D01*
X10050Y4495D01*
X10040Y4499D01*
X10030Y4500D01*
D02*
G37*
G36*
X10230D02*
X10220Y4499D01*
X10210Y4495D01*
X10201Y4489D01*
X10195Y4480D01*
X10191Y4470D01*
X10190Y4460D01*
X10191Y4450D01*
X10195Y4440D01*
X10201Y4431D01*
X10210Y4425D01*
X10220Y4421D01*
X10230Y4420D01*
X10240Y4421D01*
X10250Y4425D01*
X10259Y4431D01*
X10265Y4440D01*
X10269Y4450D01*
X10270Y4460D01*
X10269Y4470D01*
X10265Y4480D01*
X10259Y4489D01*
X10250Y4495D01*
X10240Y4499D01*
X10230Y4500D01*
D02*
G37*
G36*
X10130D02*
X10120Y4499D01*
X10110Y4495D01*
X10101Y4489D01*
X10095Y4480D01*
X10091Y4470D01*
X10090Y4460D01*
X10091Y4450D01*
X10095Y4440D01*
X10101Y4431D01*
X10110Y4425D01*
X10120Y4421D01*
X10130Y4420D01*
X10140Y4421D01*
X10150Y4425D01*
X10159Y4431D01*
X10165Y4440D01*
X10169Y4450D01*
X10170Y4460D01*
X10169Y4470D01*
X10165Y4480D01*
X10159Y4489D01*
X10150Y4495D01*
X10140Y4499D01*
X10130Y4500D01*
D02*
G37*
G36*
X10940Y4475D02*
X10930Y4474D01*
X10920Y4470D01*
X10911Y4464D01*
X10905Y4455D01*
X10901Y4445D01*
X10900Y4435D01*
X10901Y4425D01*
X10905Y4415D01*
X10911Y4406D01*
X10920Y4400D01*
X10930Y4396D01*
X10940Y4395D01*
X10950Y4396D01*
X10960Y4400D01*
X10969Y4406D01*
X10975Y4415D01*
X10979Y4425D01*
X10980Y4435D01*
X10979Y4445D01*
X10975Y4455D01*
X10969Y4464D01*
X10960Y4470D01*
X10950Y4474D01*
X10940Y4475D01*
D02*
G37*
G36*
X10980Y4220D02*
X10955D01*
Y4195D01*
X10980D01*
Y4220D01*
D02*
G37*
G36*
X10925D02*
X10900D01*
Y4195D01*
X10925D01*
Y4220D01*
D02*
G37*
G36*
X10940Y4375D02*
X10930Y4374D01*
X10920Y4370D01*
X10911Y4364D01*
X10905Y4355D01*
X10901Y4345D01*
X10900Y4335D01*
X10901Y4325D01*
X10905Y4315D01*
X10911Y4306D01*
X10920Y4300D01*
X10930Y4296D01*
X10940Y4295D01*
X10950Y4296D01*
X10960Y4300D01*
X10969Y4306D01*
X10975Y4315D01*
X10979Y4325D01*
X10980Y4335D01*
X10979Y4345D01*
X10975Y4355D01*
X10969Y4364D01*
X10960Y4370D01*
X10950Y4374D01*
X10940Y4375D01*
D02*
G37*
G36*
X10925Y4275D02*
X10900D01*
Y4250D01*
X10925D01*
Y4275D01*
D02*
G37*
G36*
X10980D02*
X10955D01*
Y4250D01*
X10980D01*
Y4275D01*
D02*
G37*
G36*
X9780Y3215D02*
X9771Y3214D01*
X9762Y3211D01*
X9755Y3205D01*
X9749Y3198D01*
X9746Y3189D01*
X9745Y3180D01*
X9746Y3171D01*
X9749Y3162D01*
X9755Y3155D01*
X9762Y3149D01*
X9771Y3146D01*
X9780Y3145D01*
X9789Y3146D01*
X9798Y3149D01*
X9805Y3155D01*
X9811Y3162D01*
X9814Y3171D01*
X9815Y3180D01*
X9814Y3189D01*
X9811Y3198D01*
X9805Y3205D01*
X9798Y3211D01*
X9789Y3214D01*
X9780Y3215D01*
D02*
G37*
G36*
X10025Y3210D02*
X10016Y3209D01*
X10007Y3206D01*
X10000Y3200D01*
X9994Y3193D01*
X9991Y3184D01*
X9990Y3175D01*
X9991Y3166D01*
X9994Y3157D01*
X10000Y3150D01*
X10007Y3144D01*
X10016Y3141D01*
X10025Y3140D01*
X10034Y3141D01*
X10043Y3144D01*
X10050Y3150D01*
X10056Y3157D01*
X10059Y3166D01*
X10060Y3175D01*
X10059Y3184D01*
X10056Y3193D01*
X10050Y3200D01*
X10043Y3206D01*
X10034Y3209D01*
X10025Y3210D01*
D02*
G37*
G36*
X10075Y3257D02*
X10072Y3256D01*
X10065Y3250D01*
X10059Y3243D01*
X10058Y3240D01*
X10075D01*
Y3257D01*
D02*
G37*
G36*
X8840Y3280D02*
X8816D01*
X8819Y3274D01*
X8825Y3265D01*
X8834Y3259D01*
X8840Y3256D01*
Y3280D01*
D02*
G37*
G36*
X10105Y3257D02*
Y3240D01*
X10122D01*
X10121Y3243D01*
X10115Y3250D01*
X10108Y3256D01*
X10105Y3257D01*
D02*
G37*
G36*
X10122Y3210D02*
X10105D01*
Y3193D01*
X10108Y3194D01*
X10115Y3200D01*
X10121Y3207D01*
X10122Y3210D01*
D02*
G37*
G36*
X10075D02*
X10058D01*
X10059Y3207D01*
X10065Y3200D01*
X10072Y3194D01*
X10075Y3193D01*
Y3210D01*
D02*
G37*
G36*
X8894Y3280D02*
X8870D01*
Y3256D01*
X8876Y3259D01*
X8885Y3265D01*
X8891Y3274D01*
X8894Y3280D01*
D02*
G37*
G36*
X10630Y3647D02*
Y3630D01*
X10647D01*
X10646Y3633D01*
X10640Y3640D01*
X10633Y3646D01*
X10630Y3647D01*
D02*
G37*
G36*
X10600D02*
X10598Y3646D01*
X10591Y3640D01*
X10585Y3633D01*
X10584Y3630D01*
X10600D01*
Y3647D01*
D02*
G37*
G36*
X10647Y3600D02*
X10630D01*
Y3583D01*
X10633Y3584D01*
X10640Y3590D01*
X10646Y3597D01*
X10647Y3600D01*
D02*
G37*
G36*
X10600D02*
X10584D01*
X10585Y3597D01*
X10591Y3590D01*
X10598Y3584D01*
X10600Y3583D01*
Y3600D01*
D02*
G37*
G36*
X9237Y3685D02*
X9228Y3684D01*
X9219Y3681D01*
X9212Y3675D01*
X9206Y3668D01*
X9203Y3659D01*
X9202Y3650D01*
X9203Y3641D01*
X9206Y3632D01*
X9212Y3625D01*
X9219Y3619D01*
X9228Y3616D01*
X9237Y3615D01*
X9246Y3616D01*
X9255Y3619D01*
X9262Y3625D01*
X9268Y3632D01*
X9271Y3641D01*
X9272Y3650D01*
X9271Y3659D01*
X9268Y3668D01*
X9262Y3675D01*
X9255Y3681D01*
X9246Y3684D01*
X9237Y3685D01*
D02*
G37*
G36*
X9223Y3780D02*
X9215D01*
Y3772D01*
X9220Y3775D01*
X9223Y3780D01*
D02*
G37*
G36*
X9185D02*
X9177D01*
X9180Y3775D01*
X9185Y3772D01*
Y3780D01*
D02*
G37*
G36*
X10725Y3750D02*
X10716Y3749D01*
X10707Y3746D01*
X10700Y3740D01*
X10694Y3733D01*
X10691Y3724D01*
X10690Y3715D01*
X10691Y3706D01*
X10694Y3697D01*
X10700Y3690D01*
X10707Y3684D01*
X10716Y3681D01*
X10725Y3680D01*
X10734Y3681D01*
X10743Y3684D01*
X10750Y3690D01*
X10756Y3697D01*
X10759Y3706D01*
X10760Y3715D01*
X10759Y3724D01*
X10756Y3733D01*
X10750Y3740D01*
X10743Y3746D01*
X10734Y3749D01*
X10725Y3750D01*
D02*
G37*
G36*
X10115Y3788D02*
X10108Y3787D01*
X10101Y3784D01*
X10095Y3780D01*
X10091Y3774D01*
X10088Y3767D01*
X10087Y3760D01*
X10088Y3753D01*
X10091Y3746D01*
X10095Y3740D01*
X10101Y3736D01*
X10108Y3733D01*
X10115Y3732D01*
X10122Y3733D01*
X10129Y3736D01*
X10135Y3740D01*
X10139Y3746D01*
X10142Y3753D01*
X10143Y3760D01*
X10142Y3767D01*
X10139Y3774D01*
X10135Y3780D01*
X10129Y3784D01*
X10122Y3787D01*
X10115Y3788D01*
D02*
G37*
G36*
X8840Y3334D02*
X8834Y3331D01*
X8825Y3325D01*
X8819Y3316D01*
X8816Y3310D01*
X8840D01*
Y3334D01*
D02*
G37*
G36*
X9490Y3453D02*
X9483Y3452D01*
X9476Y3449D01*
X9470Y3445D01*
X9466Y3439D01*
X9463Y3432D01*
X9462Y3425D01*
X9463Y3418D01*
X9466Y3411D01*
X9470Y3405D01*
X9476Y3401D01*
X9483Y3398D01*
X9490Y3397D01*
X9497Y3398D01*
X9504Y3401D01*
X9510Y3405D01*
X9514Y3411D01*
X9517Y3418D01*
X9518Y3425D01*
X9517Y3432D01*
X9514Y3439D01*
X9510Y3445D01*
X9504Y3449D01*
X9497Y3452D01*
X9490Y3453D01*
D02*
G37*
G36*
X8870Y3334D02*
Y3310D01*
X8894D01*
X8891Y3316D01*
X8885Y3325D01*
X8876Y3331D01*
X8870Y3334D01*
D02*
G37*
G36*
X10678Y3501D02*
X10666Y3499D01*
X10655Y3495D01*
X10646Y3488D01*
X10638Y3478D01*
X10634Y3467D01*
X10632Y3455D01*
X10634Y3443D01*
X10637Y3435D01*
X10582Y3380D01*
X10418D01*
X10415Y3385D01*
X10409Y3389D01*
X10402Y3392D01*
X10395Y3393D01*
X10388Y3392D01*
X10381Y3389D01*
X10375Y3385D01*
X10371Y3379D01*
X10368Y3372D01*
X10367Y3365D01*
X10368Y3358D01*
X10371Y3351D01*
X10375Y3345D01*
X10381Y3341D01*
X10388Y3338D01*
X10395Y3337D01*
X10402Y3338D01*
X10409Y3341D01*
X10415Y3345D01*
X10418Y3350D01*
X10588D01*
X10594Y3351D01*
X10599Y3354D01*
X10659Y3414D01*
X10666Y3411D01*
X10678Y3409D01*
X10690Y3411D01*
X10701Y3415D01*
X10711Y3422D01*
X10718Y3432D01*
X10723Y3443D01*
X10724Y3455D01*
X10723Y3467D01*
X10718Y3478D01*
X10711Y3488D01*
X10701Y3495D01*
X10690Y3499D01*
X10678Y3501D01*
D02*
G37*
G36*
X9140Y3585D02*
X9131Y3584D01*
X9122Y3581D01*
X9115Y3575D01*
X9109Y3568D01*
X9106Y3559D01*
X9105Y3550D01*
X9106Y3541D01*
X9109Y3532D01*
X9115Y3525D01*
X9122Y3519D01*
X9131Y3516D01*
X9140Y3515D01*
X9149Y3516D01*
X9158Y3519D01*
X9165Y3525D01*
X9171Y3532D01*
X9174Y3541D01*
X9175Y3550D01*
X9174Y3559D01*
X9171Y3568D01*
X9165Y3575D01*
X9158Y3581D01*
X9149Y3584D01*
X9140Y3585D01*
D02*
G37*
G36*
X10330Y3550D02*
X10320Y3549D01*
X10312Y3543D01*
X10306Y3535D01*
X10305Y3525D01*
X10306Y3515D01*
X10312Y3507D01*
X10320Y3501D01*
X10330Y3500D01*
X10340Y3501D01*
X10348Y3507D01*
X10354Y3515D01*
X10355Y3525D01*
X10354Y3535D01*
X10348Y3543D01*
X10340Y3549D01*
X10330Y3550D01*
D02*
G37*
G36*
X9605Y3640D02*
X9595Y3639D01*
X9587Y3633D01*
X9581Y3625D01*
X9580Y3615D01*
X9581Y3605D01*
X9587Y3597D01*
X9595Y3591D01*
X9605Y3590D01*
X9605Y3586D01*
X9605Y3585D01*
X9605Y3585D01*
X9606Y3575D01*
X9612Y3567D01*
X9617Y3564D01*
Y3563D01*
X9611Y3555D01*
X9610Y3545D01*
X9611Y3535D01*
X9617Y3527D01*
X9625Y3521D01*
X9635Y3520D01*
X9645Y3521D01*
X9653Y3527D01*
X9657Y3533D01*
X9663D01*
X9667Y3527D01*
X9675Y3521D01*
X9685Y3520D01*
X9695Y3521D01*
X9703Y3527D01*
X9709Y3535D01*
X9709Y3536D01*
X9713Y3538D01*
X9715Y3536D01*
X9725Y3535D01*
X9735Y3536D01*
X9743Y3542D01*
X9748Y3549D01*
X9750Y3550D01*
X9754Y3551D01*
X9760Y3546D01*
X9770Y3545D01*
X9780Y3546D01*
X9788Y3552D01*
X9794Y3560D01*
X9795Y3570D01*
X9794Y3580D01*
X9788Y3588D01*
X9780Y3594D01*
X9770Y3595D01*
X9760Y3594D01*
X9752Y3588D01*
X9747Y3581D01*
X9745Y3580D01*
X9741Y3579D01*
X9735Y3584D01*
X9725Y3585D01*
X9715Y3584D01*
X9707Y3578D01*
X9701Y3570D01*
X9701Y3569D01*
X9697Y3567D01*
X9695Y3569D01*
X9685Y3570D01*
X9675Y3569D01*
X9667Y3563D01*
X9663Y3557D01*
X9657D01*
X9653Y3563D01*
X9648Y3566D01*
Y3567D01*
X9654Y3575D01*
X9655Y3585D01*
X9654Y3595D01*
X9648Y3603D01*
X9640Y3609D01*
X9635Y3610D01*
X9632Y3610D01*
X9630Y3614D01*
X9630Y3615D01*
X9630Y3619D01*
X9629Y3625D01*
X9623Y3633D01*
X9615Y3639D01*
X9605Y3640D01*
D02*
G37*
G36*
X9440Y3578D02*
X9433Y3577D01*
X9426Y3574D01*
X9420Y3570D01*
X9416Y3564D01*
X9413Y3557D01*
X9412Y3550D01*
X9413Y3543D01*
X9416Y3536D01*
X9420Y3530D01*
X9426Y3526D01*
X9433Y3523D01*
X9440Y3522D01*
X9447Y3523D01*
X9454Y3526D01*
X9460Y3530D01*
X9464Y3536D01*
X9467Y3543D01*
X9468Y3550D01*
X9467Y3557D01*
X9464Y3564D01*
X9460Y3570D01*
X9454Y3574D01*
X9447Y3577D01*
X9440Y3578D01*
D02*
G37*
G36*
X10875Y3501D02*
X10863Y3499D01*
X10852Y3495D01*
X10842Y3488D01*
X10835Y3478D01*
X10831Y3467D01*
X10829Y3455D01*
X10831Y3443D01*
X10835Y3432D01*
X10842Y3422D01*
X10852Y3415D01*
X10863Y3411D01*
X10875Y3409D01*
X10887Y3411D01*
X10898Y3415D01*
X10908Y3422D01*
X10915Y3432D01*
X10919Y3443D01*
X10921Y3455D01*
X10919Y3467D01*
X10915Y3478D01*
X10908Y3488D01*
X10898Y3495D01*
X10887Y3499D01*
X10875Y3501D01*
D02*
G37*
G36*
X10230Y3550D02*
X10220Y3549D01*
X10212Y3543D01*
X10206Y3535D01*
X10205Y3525D01*
X10206Y3515D01*
X10212Y3507D01*
X10220Y3501D01*
X10230Y3500D01*
X10240Y3501D01*
X10248Y3507D01*
X10254Y3515D01*
X10255Y3525D01*
X10254Y3535D01*
X10248Y3543D01*
X10240Y3549D01*
X10230Y3550D01*
D02*
G37*
G36*
X10330Y4500D02*
X10320Y4499D01*
X10310Y4495D01*
X10301Y4489D01*
X10295Y4480D01*
X10291Y4470D01*
X10290Y4460D01*
X10291Y4450D01*
X10295Y4440D01*
X10301Y4431D01*
X10310Y4425D01*
X10320Y4421D01*
X10330Y4420D01*
X10340Y4421D01*
X10350Y4425D01*
X10359Y4431D01*
X10365Y4440D01*
X10369Y4450D01*
X10370Y4460D01*
X10369Y4470D01*
X10365Y4480D01*
X10359Y4489D01*
X10350Y4495D01*
X10340Y4499D01*
X10330Y4500D01*
D02*
G37*
G36*
X10730Y4700D02*
X10720Y4699D01*
X10710Y4695D01*
X10701Y4689D01*
X10695Y4680D01*
X10691Y4670D01*
X10690Y4660D01*
X10691Y4650D01*
X10695Y4640D01*
X10701Y4631D01*
X10710Y4625D01*
X10720Y4621D01*
X10730Y4620D01*
X10740Y4621D01*
X10750Y4625D01*
X10759Y4631D01*
X10765Y4640D01*
X10769Y4650D01*
X10770Y4660D01*
X10769Y4670D01*
X10765Y4680D01*
X10759Y4689D01*
X10750Y4695D01*
X10740Y4699D01*
X10730Y4700D01*
D02*
G37*
G36*
X10630D02*
X10620Y4699D01*
X10610Y4695D01*
X10601Y4689D01*
X10595Y4680D01*
X10591Y4670D01*
X10590Y4660D01*
X10591Y4650D01*
X10595Y4640D01*
X10601Y4631D01*
X10610Y4625D01*
X10620Y4621D01*
X10630Y4620D01*
X10640Y4621D01*
X10650Y4625D01*
X10659Y4631D01*
X10665Y4640D01*
X10669Y4650D01*
X10670Y4660D01*
X10669Y4670D01*
X10665Y4680D01*
X10659Y4689D01*
X10650Y4695D01*
X10640Y4699D01*
X10630Y4700D01*
D02*
G37*
G36*
X10715Y4545D02*
X10693D01*
X10695Y4540D01*
X10701Y4531D01*
X10710Y4525D01*
X10715Y4523D01*
Y4545D01*
D02*
G37*
G36*
X10615D02*
X10593D01*
X10595Y4540D01*
X10601Y4531D01*
X10610Y4525D01*
X10615Y4523D01*
Y4545D01*
D02*
G37*
G36*
X10315D02*
X10293D01*
X10295Y4540D01*
X10301Y4531D01*
X10310Y4525D01*
X10315Y4523D01*
Y4545D01*
D02*
G37*
G36*
X10015D02*
X9993D01*
X9995Y4540D01*
X10001Y4531D01*
X10010Y4525D01*
X10015Y4523D01*
Y4545D01*
D02*
G37*
G36*
X10215D02*
X10193D01*
X10195Y4540D01*
X10201Y4531D01*
X10210Y4525D01*
X10215Y4523D01*
Y4545D01*
D02*
G37*
G36*
X10115D02*
X10093D01*
X10095Y4540D01*
X10101Y4531D01*
X10110Y4525D01*
X10115Y4523D01*
Y4545D01*
D02*
G37*
G36*
X10415D02*
X10393D01*
X10395Y4540D01*
X10401Y4531D01*
X10410Y4525D01*
X10415Y4523D01*
Y4545D01*
D02*
G37*
G36*
X10167D02*
X10145D01*
Y4523D01*
X10150Y4525D01*
X10159Y4531D01*
X10165Y4540D01*
X10167Y4545D01*
D02*
G37*
G36*
X10567D02*
X10545D01*
Y4523D01*
X10550Y4525D01*
X10559Y4531D01*
X10565Y4540D01*
X10567Y4545D01*
D02*
G37*
G36*
X10667D02*
X10645D01*
Y4523D01*
X10650Y4525D01*
X10659Y4531D01*
X10665Y4540D01*
X10667Y4545D01*
D02*
G37*
G36*
X10267D02*
X10245D01*
Y4523D01*
X10250Y4525D01*
X10259Y4531D01*
X10265Y4540D01*
X10267Y4545D01*
D02*
G37*
G36*
X10067D02*
X10045D01*
Y4523D01*
X10050Y4525D01*
X10059Y4531D01*
X10065Y4540D01*
X10067Y4545D01*
D02*
G37*
G36*
X10515D02*
X10493D01*
X10495Y4540D01*
X10501Y4531D01*
X10510Y4525D01*
X10515Y4523D01*
Y4545D01*
D02*
G37*
G36*
X10467D02*
X10445D01*
Y4523D01*
X10450Y4525D01*
X10459Y4531D01*
X10465Y4540D01*
X10467Y4545D01*
D02*
G37*
G36*
X10367D02*
X10345D01*
Y4523D01*
X10350Y4525D01*
X10359Y4531D01*
X10365Y4540D01*
X10367Y4545D01*
D02*
G37*
G36*
X10730Y4500D02*
X10720Y4499D01*
X10710Y4495D01*
X10701Y4489D01*
X10695Y4480D01*
X10691Y4470D01*
X10690Y4460D01*
X10691Y4450D01*
X10693Y4445D01*
X10360Y4112D01*
X10355Y4113D01*
Y4164D01*
X10615Y4423D01*
X10620Y4421D01*
X10630Y4420D01*
X10640Y4421D01*
X10650Y4425D01*
X10659Y4431D01*
X10665Y4440D01*
X10669Y4450D01*
X10670Y4460D01*
X10669Y4470D01*
X10665Y4480D01*
X10659Y4489D01*
X10650Y4495D01*
X10640Y4499D01*
X10630Y4500D01*
X10620Y4499D01*
X10610Y4495D01*
X10601Y4489D01*
X10595Y4480D01*
X10591Y4470D01*
X10590Y4460D01*
X10591Y4450D01*
X10593Y4445D01*
X10340Y4192D01*
X10335Y4193D01*
Y4244D01*
X10515Y4423D01*
X10520Y4421D01*
X10530Y4420D01*
X10540Y4421D01*
X10550Y4425D01*
X10559Y4431D01*
X10565Y4440D01*
X10569Y4450D01*
X10570Y4460D01*
X10569Y4470D01*
X10565Y4480D01*
X10559Y4489D01*
X10550Y4495D01*
X10540Y4499D01*
X10530Y4500D01*
X10520Y4499D01*
X10510Y4495D01*
X10501Y4489D01*
X10495Y4480D01*
X10491Y4470D01*
X10490Y4460D01*
X10491Y4450D01*
X10493Y4445D01*
X10323Y4275D01*
X10318Y4276D01*
Y4302D01*
X10437Y4421D01*
X10440Y4421D01*
X10450Y4425D01*
X10459Y4431D01*
X10465Y4440D01*
X10469Y4450D01*
X10470Y4460D01*
X10469Y4470D01*
X10465Y4480D01*
X10459Y4489D01*
X10450Y4495D01*
X10440Y4499D01*
X10430Y4500D01*
X10420Y4499D01*
X10410Y4495D01*
X10401Y4489D01*
X10395Y4480D01*
X10391Y4470D01*
X10390Y4460D01*
X10391Y4450D01*
X10395Y4440D01*
X10401Y4431D01*
X10402Y4428D01*
X10292Y4319D01*
X10289Y4314D01*
X10288Y4308D01*
Y4042D01*
X10283Y4039D01*
X10275Y4040D01*
X10265Y4039D01*
X10257Y4033D01*
X10251Y4025D01*
X10250Y4015D01*
X10251Y4005D01*
X10257Y3997D01*
X10265Y3991D01*
X10275Y3990D01*
X10283Y3991D01*
X10288Y3988D01*
Y3912D01*
X10283Y3909D01*
X10275Y3910D01*
X10265Y3909D01*
X10257Y3903D01*
X10251Y3895D01*
X10250Y3885D01*
X10251Y3875D01*
X10257Y3867D01*
X10265Y3861D01*
X10275Y3860D01*
X10283Y3861D01*
X10288Y3858D01*
Y3850D01*
X10225Y3787D01*
X10220Y3788D01*
X10212Y3787D01*
X10206Y3784D01*
X10200Y3780D01*
X10195Y3774D01*
X10193Y3767D01*
X10192Y3760D01*
X10193Y3753D01*
X10195Y3746D01*
X10200Y3740D01*
X10206Y3736D01*
X10212Y3733D01*
X10220Y3732D01*
X10227Y3733D01*
X10233Y3736D01*
X10239Y3740D01*
X10244Y3746D01*
X10244Y3746D01*
X10249Y3746D01*
X10251Y3741D01*
X10255Y3735D01*
X10261Y3731D01*
X10268Y3728D01*
X10275Y3727D01*
X10282Y3728D01*
X10289Y3731D01*
X10295Y3735D01*
X10296Y3738D01*
X10300Y3740D01*
X10303Y3738D01*
X10306Y3736D01*
X10313Y3733D01*
X10320Y3732D01*
X10327Y3733D01*
X10334Y3736D01*
X10340Y3740D01*
X10342Y3743D01*
X10348D01*
X10350Y3740D01*
X10356Y3736D01*
X10363Y3733D01*
X10370Y3732D01*
X10377Y3733D01*
X10384Y3736D01*
X10390Y3740D01*
X10394Y3746D01*
X10395Y3748D01*
X10401Y3749D01*
X10405Y3746D01*
X10415Y3745D01*
X10425Y3746D01*
X10433Y3752D01*
X10439Y3760D01*
X10440Y3770D01*
X10439Y3780D01*
X10433Y3788D01*
X10425Y3794D01*
X10415Y3795D01*
X10405Y3794D01*
X10397Y3788D01*
X10393Y3783D01*
X10393Y3782D01*
X10387Y3782D01*
X10387Y3782D01*
X10384Y3784D01*
X10377Y3787D01*
X10375Y3787D01*
Y4084D01*
X10715Y4423D01*
X10720Y4421D01*
X10730Y4420D01*
X10740Y4421D01*
X10750Y4425D01*
X10759Y4431D01*
X10765Y4440D01*
X10769Y4450D01*
X10770Y4460D01*
X10769Y4470D01*
X10765Y4480D01*
X10759Y4489D01*
X10750Y4495D01*
X10740Y4499D01*
X10730Y4500D01*
D02*
G37*
G36*
X9600Y4548D02*
X9593Y4547D01*
X9586Y4544D01*
X9580Y4540D01*
X9576Y4534D01*
X9573Y4527D01*
X9572Y4520D01*
X9573Y4513D01*
X9576Y4506D01*
X9580Y4500D01*
X9586Y4496D01*
X9588Y4495D01*
X9589Y4490D01*
X9539Y4440D01*
X9416D01*
X9395Y4461D01*
Y4492D01*
X9400Y4495D01*
X9404Y4501D01*
X9407Y4508D01*
X9408Y4515D01*
X9407Y4522D01*
X9404Y4529D01*
X9400Y4535D01*
X9394Y4539D01*
X9387Y4542D01*
X9380Y4543D01*
X9373Y4542D01*
X9366Y4539D01*
X9360Y4535D01*
X9356Y4529D01*
X9353Y4522D01*
X9352Y4515D01*
X9353Y4508D01*
X9356Y4501D01*
X9360Y4495D01*
X9365Y4492D01*
Y4455D01*
X9366Y4449D01*
X9369Y4444D01*
X9399Y4414D01*
X9404Y4411D01*
X9410Y4410D01*
X9545D01*
X9551Y4411D01*
X9556Y4414D01*
X9581Y4439D01*
X9581Y4439D01*
X9583Y4436D01*
X9584Y4434D01*
X9581Y4430D01*
X9580Y4420D01*
X9581Y4410D01*
X9587Y4402D01*
X9595Y4396D01*
X9605Y4395D01*
X9615Y4396D01*
X9623Y4402D01*
X9629Y4410D01*
X9630Y4420D01*
X9629Y4430D01*
X9627Y4432D01*
X9629Y4436D01*
X9630Y4436D01*
X9638Y4442D01*
X9644Y4450D01*
X9645Y4460D01*
X9644Y4470D01*
X9638Y4478D01*
X9636Y4479D01*
X9636Y4484D01*
X9656Y4505D01*
X9809D01*
X10070Y4243D01*
Y4034D01*
X10070Y4034D01*
Y4005D01*
Y3976D01*
X10070Y3976D01*
Y3807D01*
X10029Y3766D01*
X10026Y3761D01*
X10025Y3755D01*
Y3671D01*
X9850Y3497D01*
X9845Y3499D01*
X9845Y3500D01*
X9844Y3509D01*
X9841Y3518D01*
X9835Y3525D01*
X9828Y3531D01*
X9819Y3534D01*
X9810Y3535D01*
X9801Y3534D01*
X9792Y3531D01*
X9785Y3525D01*
X9779Y3518D01*
X9776Y3509D01*
X9775Y3500D01*
X9776Y3491D01*
X9779Y3482D01*
X9785Y3475D01*
X9792Y3469D01*
X9801Y3466D01*
X9810Y3465D01*
X9811Y3465D01*
X9813Y3460D01*
X9809Y3455D01*
X9606D01*
X9595Y3466D01*
Y3515D01*
X9598Y3517D01*
X9604Y3525D01*
X9605Y3535D01*
X9604Y3545D01*
X9598Y3553D01*
X9590Y3559D01*
X9580Y3560D01*
X9570Y3559D01*
X9562Y3553D01*
X9556Y3545D01*
X9555Y3535D01*
X9556Y3525D01*
X9562Y3517D01*
X9565Y3515D01*
Y3460D01*
X9566Y3454D01*
X9569Y3449D01*
X9589Y3429D01*
X9594Y3426D01*
X9600Y3425D01*
X9815D01*
X9821Y3426D01*
X9826Y3429D01*
X10051Y3654D01*
X10054Y3659D01*
X10055Y3665D01*
Y3749D01*
X10096Y3790D01*
X10100Y3795D01*
X10101Y3800D01*
Y4249D01*
X10100Y4255D01*
X10096Y4260D01*
X9931Y4426D01*
X9934Y4430D01*
X9938Y4428D01*
X9945Y4427D01*
X9952Y4428D01*
X9959Y4431D01*
X9965Y4435D01*
X9969Y4441D01*
X9972Y4448D01*
X9973Y4455D01*
X9972Y4462D01*
X9969Y4469D01*
X9965Y4475D01*
X9959Y4479D01*
X9952Y4482D01*
X9945Y4483D01*
X9938Y4482D01*
X9931Y4479D01*
X9925Y4475D01*
X9921Y4469D01*
X9918Y4462D01*
X9917Y4455D01*
X9918Y4448D01*
X9920Y4444D01*
X9916Y4441D01*
X9826Y4531D01*
X9821Y4534D01*
X9815Y4535D01*
X9650D01*
X9644Y4534D01*
X9639Y4531D01*
X9632Y4524D01*
X9627Y4526D01*
X9627Y4527D01*
X9624Y4534D01*
X9620Y4540D01*
X9614Y4544D01*
X9607Y4547D01*
X9600Y4548D01*
D02*
G37*
G36*
X9730Y4485D02*
X9720Y4484D01*
X9712Y4478D01*
X9706Y4470D01*
X9705Y4460D01*
X9706Y4450D01*
X9712Y4442D01*
X9720Y4436D01*
X9725Y4435D01*
X9727Y4431D01*
X9726Y4430D01*
X9725Y4420D01*
X9726Y4410D01*
X9732Y4402D01*
X9740Y4396D01*
X9750Y4395D01*
X9760Y4396D01*
X9768Y4402D01*
X9774Y4410D01*
X9775Y4420D01*
X9774Y4428D01*
X9778Y4431D01*
X9785Y4426D01*
X9795Y4425D01*
X9805Y4426D01*
X9813Y4432D01*
X9819Y4440D01*
X9820Y4450D01*
X9819Y4460D01*
X9813Y4468D01*
X9805Y4474D01*
X9795Y4475D01*
X9785Y4474D01*
X9777Y4468D01*
X9771Y4460D01*
X9770Y4450D01*
X9771Y4442D01*
X9767Y4439D01*
X9760Y4444D01*
X9755Y4445D01*
X9753Y4449D01*
X9754Y4450D01*
X9755Y4460D01*
X9754Y4470D01*
X9748Y4478D01*
X9740Y4484D01*
X9730Y4485D01*
D02*
G37*
G36*
X10767Y4545D02*
X10745D01*
Y4523D01*
X10750Y4525D01*
X10759Y4531D01*
X10765Y4540D01*
X10767Y4545D01*
D02*
G37*
G36*
X10745Y4597D02*
Y4575D01*
X10767D01*
X10765Y4580D01*
X10759Y4589D01*
X10750Y4595D01*
X10745Y4597D01*
D02*
G37*
G36*
X10645D02*
Y4575D01*
X10667D01*
X10665Y4580D01*
X10659Y4589D01*
X10650Y4595D01*
X10645Y4597D01*
D02*
G37*
G36*
X10345D02*
Y4575D01*
X10367D01*
X10365Y4580D01*
X10359Y4589D01*
X10350Y4595D01*
X10345Y4597D01*
D02*
G37*
G36*
X10245D02*
Y4575D01*
X10267D01*
X10265Y4580D01*
X10259Y4589D01*
X10250Y4595D01*
X10245Y4597D01*
D02*
G37*
G36*
X10545D02*
Y4575D01*
X10567D01*
X10565Y4580D01*
X10559Y4589D01*
X10550Y4595D01*
X10545Y4597D01*
D02*
G37*
G36*
X10445D02*
Y4575D01*
X10467D01*
X10465Y4580D01*
X10459Y4589D01*
X10450Y4595D01*
X10445Y4597D01*
D02*
G37*
G36*
X10330Y4700D02*
X10320Y4699D01*
X10310Y4695D01*
X10301Y4689D01*
X10295Y4680D01*
X10291Y4670D01*
X10290Y4660D01*
X10291Y4650D01*
X10295Y4640D01*
X10301Y4631D01*
X10310Y4625D01*
X10320Y4621D01*
X10330Y4620D01*
X10340Y4621D01*
X10350Y4625D01*
X10359Y4631D01*
X10365Y4640D01*
X10369Y4650D01*
X10370Y4660D01*
X10369Y4670D01*
X10365Y4680D01*
X10359Y4689D01*
X10350Y4695D01*
X10340Y4699D01*
X10330Y4700D01*
D02*
G37*
G36*
X10230D02*
X10220Y4699D01*
X10210Y4695D01*
X10201Y4689D01*
X10195Y4680D01*
X10191Y4670D01*
X10190Y4660D01*
X10191Y4650D01*
X10195Y4640D01*
X10201Y4631D01*
X10210Y4625D01*
X10220Y4621D01*
X10230Y4620D01*
X10240Y4621D01*
X10250Y4625D01*
X10259Y4631D01*
X10265Y4640D01*
X10269Y4650D01*
X10270Y4660D01*
X10269Y4670D01*
X10265Y4680D01*
X10259Y4689D01*
X10250Y4695D01*
X10240Y4699D01*
X10230Y4700D01*
D02*
G37*
G36*
X10530D02*
X10520Y4699D01*
X10510Y4695D01*
X10501Y4689D01*
X10495Y4680D01*
X10491Y4670D01*
X10490Y4660D01*
X10491Y4650D01*
X10495Y4640D01*
X10501Y4631D01*
X10510Y4625D01*
X10520Y4621D01*
X10530Y4620D01*
X10540Y4621D01*
X10550Y4625D01*
X10559Y4631D01*
X10565Y4640D01*
X10569Y4650D01*
X10570Y4660D01*
X10569Y4670D01*
X10565Y4680D01*
X10559Y4689D01*
X10550Y4695D01*
X10540Y4699D01*
X10530Y4700D01*
D02*
G37*
G36*
X10430D02*
X10420Y4699D01*
X10410Y4695D01*
X10401Y4689D01*
X10395Y4680D01*
X10391Y4670D01*
X10390Y4660D01*
X10391Y4650D01*
X10395Y4640D01*
X10401Y4631D01*
X10410Y4625D01*
X10420Y4621D01*
X10430Y4620D01*
X10440Y4621D01*
X10450Y4625D01*
X10459Y4631D01*
X10465Y4640D01*
X10469Y4650D01*
X10470Y4660D01*
X10469Y4670D01*
X10465Y4680D01*
X10459Y4689D01*
X10450Y4695D01*
X10440Y4699D01*
X10430Y4700D01*
D02*
G37*
G36*
X10130D02*
X10120Y4699D01*
X10110Y4695D01*
X10101Y4689D01*
X10095Y4680D01*
X10091Y4670D01*
X10090Y4660D01*
X10091Y4650D01*
X10095Y4640D01*
X10101Y4631D01*
X10110Y4625D01*
X10120Y4621D01*
X10130Y4620D01*
X10140Y4621D01*
X10150Y4625D01*
X10159Y4631D01*
X10165Y4640D01*
X10169Y4650D01*
X10170Y4660D01*
X10169Y4670D01*
X10165Y4680D01*
X10159Y4689D01*
X10150Y4695D01*
X10140Y4699D01*
X10130Y4700D01*
D02*
G37*
G36*
X10030D02*
X10020Y4699D01*
X10010Y4695D01*
X10001Y4689D01*
X9995Y4680D01*
X9991Y4670D01*
X9990Y4660D01*
X9991Y4650D01*
X9995Y4640D01*
X10001Y4631D01*
X10010Y4625D01*
X10020Y4621D01*
X10030Y4620D01*
X10040Y4621D01*
X10050Y4625D01*
X10059Y4631D01*
X10065Y4640D01*
X10069Y4650D01*
X10070Y4660D01*
X10069Y4670D01*
X10065Y4680D01*
X10059Y4689D01*
X10050Y4695D01*
X10040Y4699D01*
X10030Y4700D01*
D02*
G37*
G36*
X10145Y4597D02*
Y4575D01*
X10167D01*
X10165Y4580D01*
X10159Y4589D01*
X10150Y4595D01*
X10145Y4597D01*
D02*
G37*
G36*
X9530Y4608D02*
X9523Y4607D01*
X9516Y4604D01*
X9510Y4600D01*
X9506Y4594D01*
X9503Y4587D01*
X9502Y4580D01*
X9502Y4577D01*
X9500Y4575D01*
X9490Y4574D01*
X9482Y4568D01*
X9476Y4560D01*
X9475Y4550D01*
X9476Y4540D01*
X9482Y4532D01*
X9490Y4526D01*
X9500Y4525D01*
X9510Y4526D01*
X9518Y4532D01*
X9524Y4540D01*
X9525Y4550D01*
X9527Y4552D01*
X9530Y4552D01*
X9537Y4553D01*
X9544Y4556D01*
X9550Y4560D01*
X9554Y4566D01*
X9557Y4573D01*
X9558Y4580D01*
X9557Y4587D01*
X9554Y4594D01*
X9550Y4600D01*
X9544Y4604D01*
X9537Y4607D01*
X9530Y4608D01*
D02*
G37*
G36*
X10015Y4597D02*
X10010Y4595D01*
X10001Y4589D01*
X9995Y4580D01*
X9993Y4575D01*
X10015D01*
Y4597D01*
D02*
G37*
G36*
X10615D02*
X10610Y4595D01*
X10601Y4589D01*
X10595Y4580D01*
X10593Y4575D01*
X10615D01*
Y4597D01*
D02*
G37*
G36*
X10515D02*
X10510Y4595D01*
X10501Y4589D01*
X10495Y4580D01*
X10493Y4575D01*
X10515D01*
Y4597D01*
D02*
G37*
G36*
X10045D02*
Y4575D01*
X10067D01*
X10065Y4580D01*
X10059Y4589D01*
X10050Y4595D01*
X10045Y4597D01*
D02*
G37*
G36*
X10715D02*
X10710Y4595D01*
X10701Y4589D01*
X10695Y4580D01*
X10693Y4575D01*
X10715D01*
Y4597D01*
D02*
G37*
G36*
X10215D02*
X10210Y4595D01*
X10201Y4589D01*
X10195Y4580D01*
X10193Y4575D01*
X10215D01*
Y4597D01*
D02*
G37*
G36*
X10115D02*
X10110Y4595D01*
X10101Y4589D01*
X10095Y4580D01*
X10093Y4575D01*
X10115D01*
Y4597D01*
D02*
G37*
G36*
X10415D02*
X10410Y4595D01*
X10401Y4589D01*
X10395Y4580D01*
X10393Y4575D01*
X10415D01*
Y4597D01*
D02*
G37*
G36*
X10315D02*
X10310Y4595D01*
X10301Y4589D01*
X10295Y4580D01*
X10293Y4575D01*
X10315D01*
Y4597D01*
D02*
G37*
G36*
X3547Y4020D02*
X3530D01*
Y4003D01*
X3533Y4004D01*
X3540Y4010D01*
X3546Y4017D01*
X3547Y4020D01*
D02*
G37*
G36*
X3400D02*
X3383D01*
X3384Y4017D01*
X3390Y4010D01*
X3397Y4004D01*
X3400Y4003D01*
Y4020D01*
D02*
G37*
G36*
X3447D02*
X3430D01*
Y4003D01*
X3433Y4004D01*
X3440Y4010D01*
X3446Y4017D01*
X3447Y4020D01*
D02*
G37*
G36*
X3500D02*
X3483D01*
X3484Y4017D01*
X3490Y4010D01*
X3497Y4004D01*
X3500Y4003D01*
Y4020D01*
D02*
G37*
G36*
X5840Y4100D02*
X5831Y4099D01*
X5822Y4096D01*
X5815Y4090D01*
X5809Y4083D01*
X5806Y4074D01*
X5805Y4065D01*
X5806Y4056D01*
X5809Y4047D01*
X5815Y4040D01*
X5822Y4034D01*
X5831Y4031D01*
X5840Y4030D01*
X5849Y4031D01*
X5858Y4034D01*
X5865Y4040D01*
X5871Y4047D01*
X5874Y4056D01*
X5875Y4065D01*
X5874Y4074D01*
X5871Y4083D01*
X5865Y4090D01*
X5858Y4096D01*
X5849Y4099D01*
X5840Y4100D01*
D02*
G37*
G36*
X7660Y4158D02*
X7648Y4157D01*
X7636Y4152D01*
X7626Y4144D01*
X7618Y4134D01*
X7614Y4123D01*
X7612Y4110D01*
X7614Y4098D01*
X7618Y4086D01*
X7626Y4076D01*
X7636Y4069D01*
X7648Y4064D01*
X7660Y4062D01*
X7672Y4064D01*
X7684Y4069D01*
X7694Y4076D01*
X7702Y4086D01*
X7706Y4098D01*
X7708Y4110D01*
X7706Y4123D01*
X7702Y4134D01*
X7694Y4144D01*
X7684Y4152D01*
X7672Y4157D01*
X7660Y4158D01*
D02*
G37*
G36*
X3530Y4067D02*
Y4050D01*
X3547D01*
X3546Y4053D01*
X3540Y4060D01*
X3533Y4066D01*
X3530Y4067D01*
D02*
G37*
G36*
X3400D02*
X3397Y4066D01*
X3390Y4060D01*
X3384Y4053D01*
X3383Y4050D01*
X3400D01*
Y4067D01*
D02*
G37*
G36*
X3430D02*
Y4050D01*
X3447D01*
X3446Y4053D01*
X3440Y4060D01*
X3433Y4066D01*
X3430Y4067D01*
D02*
G37*
G36*
X3500D02*
X3497Y4066D01*
X3490Y4060D01*
X3484Y4053D01*
X3483Y4050D01*
X3500D01*
Y4067D01*
D02*
G37*
G36*
X4213Y4063D02*
X4203Y4062D01*
X4195Y4058D01*
X4188Y4052D01*
X4182Y4045D01*
X4178Y4037D01*
X4177Y4028D01*
X4178Y4018D01*
X4182Y4010D01*
X4188Y4003D01*
X4195Y3997D01*
X4203Y3993D01*
X4213Y3992D01*
X4222Y3993D01*
X4230Y3997D01*
X4237Y4003D01*
X4243Y4010D01*
X4247Y4018D01*
X4248Y4028D01*
X4247Y4037D01*
X4243Y4045D01*
X4237Y4052D01*
X4230Y4058D01*
X4222Y4062D01*
X4213Y4063D01*
D02*
G37*
G36*
X5855Y3862D02*
Y3845D01*
X5872D01*
X5871Y3848D01*
X5865Y3855D01*
X5858Y3861D01*
X5855Y3862D01*
D02*
G37*
G36*
X7715Y4020D02*
X7704Y4019D01*
X7692Y4016D01*
X7682Y4010D01*
X7673Y4003D01*
X7666Y3994D01*
X7660Y3984D01*
X7657Y3972D01*
X7656Y3961D01*
X7657Y3949D01*
X7660Y3938D01*
X7666Y3928D01*
X7673Y3919D01*
X7682Y3911D01*
X7692Y3906D01*
X7704Y3902D01*
X7715Y3901D01*
X7727Y3902D01*
X7738Y3906D01*
X7748Y3911D01*
X7757Y3919D01*
X7765Y3928D01*
X7770Y3938D01*
X7773Y3949D01*
X7775Y3961D01*
X7773Y3972D01*
X7770Y3984D01*
X7765Y3994D01*
X7757Y4003D01*
X7748Y4010D01*
X7738Y4016D01*
X7727Y4019D01*
X7715Y4020D01*
D02*
G37*
G36*
X3952Y3940D02*
X3943Y3939D01*
X3934Y3936D01*
X3927Y3930D01*
X3921Y3923D01*
X3918Y3914D01*
X3917Y3905D01*
X3918Y3896D01*
X3921Y3887D01*
X3927Y3880D01*
X3934Y3874D01*
X3943Y3871D01*
X3952Y3870D01*
X3961Y3871D01*
X3970Y3874D01*
X3977Y3880D01*
X3982Y3887D01*
X3986Y3896D01*
X3987Y3905D01*
X3986Y3914D01*
X3982Y3923D01*
X3977Y3930D01*
X3970Y3936D01*
X3961Y3939D01*
X3952Y3940D01*
D02*
G37*
G36*
X5825Y3862D02*
X5822Y3861D01*
X5815Y3855D01*
X5809Y3848D01*
X5808Y3845D01*
X5825D01*
Y3862D01*
D02*
G37*
G36*
X8314Y4020D02*
X8302Y4019D01*
X8291Y4016D01*
X8280Y4010D01*
X8271Y4003D01*
X8264Y3994D01*
X8259Y3984D01*
X8255Y3972D01*
X8254Y3961D01*
X8255Y3949D01*
X8259Y3938D01*
X8264Y3928D01*
X8271Y3919D01*
X8280Y3911D01*
X8291Y3906D01*
X8302Y3902D01*
X8314Y3901D01*
X8325Y3902D01*
X8336Y3906D01*
X8347Y3911D01*
X8356Y3919D01*
X8363Y3928D01*
X8369Y3938D01*
X8372Y3949D01*
X8373Y3961D01*
X8372Y3972D01*
X8369Y3984D01*
X8363Y3994D01*
X8356Y4003D01*
X8347Y4010D01*
X8336Y4016D01*
X8325Y4019D01*
X8314Y4020D01*
D02*
G37*
G36*
X7440Y4007D02*
Y3990D01*
X7457D01*
X7456Y3993D01*
X7450Y4000D01*
X7443Y4006D01*
X7440Y4007D01*
D02*
G37*
G36*
X7410D02*
X7407Y4006D01*
X7400Y4000D01*
X7394Y3993D01*
X7393Y3990D01*
X7410D01*
Y4007D01*
D02*
G37*
G36*
X8164Y4009D02*
X8152Y4007D01*
X8140Y4002D01*
X8130Y3995D01*
X8122Y3985D01*
X8118Y3973D01*
X8116Y3961D01*
X8118Y3948D01*
X8122Y3937D01*
X8130Y3927D01*
X8140Y3919D01*
X8152Y3914D01*
X8164Y3913D01*
X8176Y3914D01*
X8188Y3919D01*
X8198Y3927D01*
X8205Y3937D01*
X8210Y3948D01*
X8212Y3961D01*
X8210Y3973D01*
X8205Y3985D01*
X8198Y3995D01*
X8188Y4002D01*
X8176Y4007D01*
X8164Y4009D01*
D02*
G37*
G36*
X8014D02*
X8002Y4007D01*
X7990Y4002D01*
X7980Y3995D01*
X7973Y3985D01*
X7968Y3973D01*
X7966Y3961D01*
X7968Y3948D01*
X7973Y3937D01*
X7980Y3927D01*
X7990Y3919D01*
X8002Y3914D01*
X8014Y3913D01*
X8027Y3914D01*
X8038Y3919D01*
X8048Y3927D01*
X8056Y3937D01*
X8061Y3948D01*
X8062Y3961D01*
X8061Y3973D01*
X8056Y3985D01*
X8048Y3995D01*
X8038Y4002D01*
X8027Y4007D01*
X8014Y4009D01*
D02*
G37*
G36*
X7457Y3960D02*
X7440D01*
Y3943D01*
X7443Y3944D01*
X7450Y3950D01*
X7456Y3957D01*
X7457Y3960D01*
D02*
G37*
G36*
X7410D02*
X7393D01*
X7394Y3957D01*
X7400Y3950D01*
X7407Y3944D01*
X7410Y3943D01*
Y3960D01*
D02*
G37*
G36*
X8655Y4182D02*
X8650Y4180D01*
X8641Y4174D01*
X8635Y4165D01*
X8633Y4160D01*
X8655D01*
Y4182D01*
D02*
G37*
G36*
Y4382D02*
X8650Y4380D01*
X8641Y4374D01*
X8635Y4365D01*
X8633Y4360D01*
X8655D01*
Y4382D01*
D02*
G37*
G36*
X4470Y4425D02*
X4461Y4424D01*
X4452Y4421D01*
X4445Y4415D01*
X4439Y4408D01*
X4436Y4399D01*
X4435Y4390D01*
X4436Y4381D01*
X4439Y4372D01*
X4445Y4365D01*
X4452Y4359D01*
X4461Y4356D01*
X4470Y4355D01*
X4479Y4356D01*
X4488Y4359D01*
X4495Y4365D01*
X4501Y4372D01*
X4504Y4381D01*
X4505Y4390D01*
X4504Y4399D01*
X4501Y4408D01*
X4495Y4415D01*
X4488Y4421D01*
X4479Y4424D01*
X4470Y4425D01*
D02*
G37*
G36*
X6180Y4473D02*
X6168Y4471D01*
X6156Y4466D01*
X6146Y4459D01*
X6139Y4449D01*
X6134Y4437D01*
X6132Y4425D01*
X6134Y4413D01*
X6139Y4401D01*
X6146Y4391D01*
X6156Y4384D01*
X6168Y4379D01*
X6180Y4377D01*
X6192Y4379D01*
X6204Y4384D01*
X6214Y4391D01*
X6221Y4401D01*
X6226Y4413D01*
X6228Y4425D01*
X6226Y4437D01*
X6221Y4449D01*
X6214Y4459D01*
X6204Y4466D01*
X6192Y4471D01*
X6180Y4473D01*
D02*
G37*
G36*
X8685Y4382D02*
Y4360D01*
X8707D01*
X8705Y4365D01*
X8699Y4374D01*
X8690Y4380D01*
X8685Y4382D01*
D02*
G37*
G36*
X8707Y4330D02*
X8685D01*
Y4308D01*
X8690Y4310D01*
X8699Y4316D01*
X8705Y4325D01*
X8707Y4330D01*
D02*
G37*
G36*
X8655D02*
X8633D01*
X8635Y4325D01*
X8641Y4316D01*
X8650Y4310D01*
X8655Y4308D01*
Y4330D01*
D02*
G37*
G36*
X4580Y4415D02*
X4571Y4414D01*
X4562Y4411D01*
X4555Y4405D01*
X4549Y4398D01*
X4546Y4389D01*
X4545Y4380D01*
X4546Y4371D01*
X4549Y4362D01*
X4555Y4355D01*
X4562Y4349D01*
X4571Y4346D01*
X4580Y4345D01*
X4589Y4346D01*
X4598Y4349D01*
X4605Y4355D01*
X4611Y4362D01*
X4614Y4371D01*
X4615Y4380D01*
X4614Y4389D01*
X4611Y4398D01*
X4605Y4405D01*
X4598Y4411D01*
X4589Y4414D01*
X4580Y4415D01*
D02*
G37*
G36*
X6710Y4385D02*
X6701Y4384D01*
X6692Y4381D01*
X6685Y4375D01*
X6679Y4368D01*
X6676Y4359D01*
X6675Y4350D01*
X6676Y4341D01*
X6679Y4332D01*
X6685Y4325D01*
X6692Y4319D01*
X6701Y4316D01*
X6710Y4315D01*
X6719Y4316D01*
X6728Y4319D01*
X6735Y4325D01*
X6741Y4332D01*
X6744Y4341D01*
X6745Y4350D01*
X6744Y4359D01*
X6741Y4368D01*
X6735Y4375D01*
X6728Y4381D01*
X6719Y4384D01*
X6710Y4385D01*
D02*
G37*
G36*
X6030Y4460D02*
X6021Y4459D01*
X6012Y4456D01*
X6005Y4450D01*
X5999Y4443D01*
X5996Y4434D01*
X5995Y4425D01*
X5996Y4416D01*
X5999Y4407D01*
X6005Y4400D01*
X6012Y4394D01*
X6021Y4391D01*
X6030Y4390D01*
X6039Y4391D01*
X6048Y4394D01*
X6055Y4400D01*
X6061Y4407D01*
X6064Y4416D01*
X6065Y4425D01*
X6064Y4434D01*
X6061Y4443D01*
X6055Y4450D01*
X6048Y4456D01*
X6039Y4459D01*
X6030Y4460D01*
D02*
G37*
G36*
X5220Y4668D02*
X5213Y4667D01*
X5206Y4664D01*
X5200Y4660D01*
X5196Y4654D01*
X5193Y4647D01*
X5192Y4640D01*
X5193Y4633D01*
X5196Y4626D01*
X5200Y4620D01*
X5206Y4616D01*
X5213Y4613D01*
X5217Y4613D01*
X5218Y4613D01*
Y4607D01*
X5217Y4607D01*
X5213Y4607D01*
X5206Y4604D01*
X5200Y4600D01*
X5196Y4594D01*
X5193Y4587D01*
X5192Y4580D01*
X5193Y4573D01*
X5196Y4566D01*
X5200Y4560D01*
X5205Y4557D01*
Y4326D01*
X5164Y4286D01*
X5161Y4281D01*
X5160Y4275D01*
Y3670D01*
X5161Y3664D01*
X5164Y3659D01*
X5190Y3633D01*
X5190Y3630D01*
X5191Y3621D01*
X5194Y3612D01*
X5200Y3605D01*
X5207Y3599D01*
X5216Y3596D01*
X5225Y3595D01*
X5234Y3596D01*
X5243Y3599D01*
X5250Y3605D01*
X5256Y3612D01*
X5259Y3621D01*
X5260Y3630D01*
X5259Y3639D01*
X5256Y3648D01*
X5250Y3655D01*
X5243Y3661D01*
X5234Y3664D01*
X5225Y3665D01*
X5216Y3664D01*
X5207Y3661D01*
X5207Y3660D01*
X5190Y3676D01*
Y4269D01*
X5231Y4309D01*
X5234Y4314D01*
X5235Y4320D01*
Y4414D01*
X5240Y4416D01*
X5242Y4414D01*
X5251Y4411D01*
X5260Y4410D01*
X5269Y4411D01*
X5278Y4414D01*
X5285Y4420D01*
X5291Y4427D01*
X5294Y4436D01*
X5295Y4445D01*
X5294Y4454D01*
X5291Y4463D01*
X5285Y4470D01*
X5278Y4476D01*
X5269Y4479D01*
X5260Y4480D01*
X5251Y4479D01*
X5242Y4476D01*
X5240Y4474D01*
X5235Y4476D01*
Y4557D01*
X5240Y4560D01*
X5244Y4566D01*
X5247Y4573D01*
X5248Y4580D01*
X5247Y4587D01*
X5244Y4594D01*
X5240Y4600D01*
X5234Y4604D01*
X5227Y4607D01*
X5223Y4607D01*
X5222Y4607D01*
Y4613D01*
X5223Y4613D01*
X5227Y4613D01*
X5234Y4616D01*
X5240Y4620D01*
X5244Y4626D01*
X5247Y4633D01*
X5248Y4640D01*
X5247Y4647D01*
X5244Y4654D01*
X5240Y4660D01*
X5234Y4664D01*
X5227Y4667D01*
X5220Y4668D01*
D02*
G37*
G36*
X8570Y4485D02*
X8560Y4484D01*
X8550Y4480D01*
X8541Y4474D01*
X8535Y4465D01*
X8531Y4455D01*
X8530Y4445D01*
X8531Y4435D01*
X8535Y4425D01*
X8541Y4416D01*
X8550Y4410D01*
X8560Y4406D01*
X8570Y4405D01*
X8580Y4406D01*
X8590Y4410D01*
X8599Y4416D01*
X8605Y4425D01*
X8609Y4435D01*
X8610Y4445D01*
X8609Y4455D01*
X8605Y4465D01*
X8599Y4474D01*
X8590Y4480D01*
X8580Y4484D01*
X8570Y4485D01*
D02*
G37*
G36*
X8707Y4430D02*
X8685D01*
Y4408D01*
X8690Y4410D01*
X8699Y4416D01*
X8705Y4425D01*
X8707Y4430D01*
D02*
G37*
G36*
X8655D02*
X8633D01*
X8635Y4425D01*
X8641Y4416D01*
X8650Y4410D01*
X8655Y4408D01*
Y4430D01*
D02*
G37*
G36*
X5075Y4375D02*
X5066Y4374D01*
X5057Y4371D01*
X5050Y4365D01*
X5044Y4358D01*
X5041Y4349D01*
X5040Y4340D01*
X5041Y4331D01*
X5044Y4322D01*
X5050Y4315D01*
X5057Y4309D01*
X5066Y4306D01*
X5075Y4305D01*
X5084Y4306D01*
X5093Y4309D01*
X5100Y4315D01*
X5106Y4322D01*
X5109Y4331D01*
X5110Y4340D01*
X5109Y4349D01*
X5106Y4358D01*
X5100Y4365D01*
X5093Y4371D01*
X5084Y4374D01*
X5075Y4375D01*
D02*
G37*
G36*
X8570Y4285D02*
X8560Y4284D01*
X8550Y4280D01*
X8541Y4274D01*
X8535Y4265D01*
X8531Y4255D01*
X8530Y4245D01*
X8531Y4235D01*
X8535Y4225D01*
X8541Y4216D01*
X8550Y4210D01*
X8560Y4206D01*
X8570Y4205D01*
X8580Y4206D01*
X8590Y4210D01*
X8599Y4216D01*
X8605Y4225D01*
X8609Y4235D01*
X8610Y4245D01*
X8609Y4255D01*
X8605Y4265D01*
X8599Y4274D01*
X8590Y4280D01*
X8580Y4284D01*
X8570Y4285D01*
D02*
G37*
G36*
X8707Y4230D02*
X8685D01*
Y4208D01*
X8690Y4210D01*
X8699Y4216D01*
X8705Y4225D01*
X8707Y4230D01*
D02*
G37*
G36*
X8655D02*
X8633D01*
X8635Y4225D01*
X8641Y4216D01*
X8650Y4210D01*
X8655Y4208D01*
Y4230D01*
D02*
G37*
G36*
X5085Y4240D02*
X5076Y4239D01*
X5067Y4236D01*
X5060Y4230D01*
X5054Y4223D01*
X5051Y4214D01*
X5050Y4205D01*
X5051Y4196D01*
X5054Y4187D01*
X5060Y4180D01*
X5067Y4174D01*
X5076Y4171D01*
X5085Y4170D01*
X5094Y4171D01*
X5103Y4174D01*
X5110Y4180D01*
X5116Y4187D01*
X5119Y4196D01*
X5120Y4205D01*
X5119Y4214D01*
X5116Y4223D01*
X5110Y4230D01*
X5103Y4236D01*
X5094Y4239D01*
X5085Y4240D01*
D02*
G37*
G36*
X8685Y4182D02*
Y4160D01*
X8707D01*
X8705Y4165D01*
X8699Y4174D01*
X8690Y4180D01*
X8685Y4182D01*
D02*
G37*
G36*
X7425Y4265D02*
X7416Y4264D01*
X7407Y4261D01*
X7400Y4255D01*
X7394Y4248D01*
X7391Y4239D01*
X7390Y4230D01*
X7391Y4221D01*
X7394Y4212D01*
X7400Y4205D01*
X7407Y4199D01*
X7416Y4196D01*
X7425Y4195D01*
X7434Y4196D01*
X7443Y4199D01*
X7450Y4205D01*
X7456Y4212D01*
X7459Y4221D01*
X7460Y4230D01*
X7459Y4239D01*
X7456Y4248D01*
X7450Y4255D01*
X7443Y4261D01*
X7434Y4264D01*
X7425Y4265D01*
D02*
G37*
G36*
X7660Y4308D02*
X7648Y4306D01*
X7636Y4302D01*
X7626Y4294D01*
X7618Y4284D01*
X7614Y4272D01*
X7612Y4260D01*
X7614Y4248D01*
X7618Y4236D01*
X7626Y4226D01*
X7636Y4218D01*
X7648Y4214D01*
X7660Y4212D01*
X7672Y4214D01*
X7684Y4218D01*
X7694Y4226D01*
X7702Y4236D01*
X7706Y4248D01*
X7708Y4260D01*
X7706Y4272D01*
X7702Y4284D01*
X7694Y4294D01*
X7684Y4302D01*
X7672Y4306D01*
X7660Y4308D01*
D02*
G37*
G36*
X8685Y4282D02*
Y4260D01*
X8707D01*
X8705Y4265D01*
X8699Y4274D01*
X8690Y4280D01*
X8685Y4282D01*
D02*
G37*
G36*
X4805Y4375D02*
X4796Y4374D01*
X4787Y4371D01*
X4780Y4365D01*
X4774Y4358D01*
X4771Y4349D01*
X4770Y4340D01*
X4771Y4331D01*
X4774Y4322D01*
X4780Y4315D01*
X4787Y4309D01*
X4796Y4306D01*
X4805Y4305D01*
X4814Y4306D01*
X4823Y4309D01*
X4830Y4315D01*
X4836Y4322D01*
X4839Y4331D01*
X4840Y4340D01*
X4839Y4349D01*
X4836Y4358D01*
X4830Y4365D01*
X4823Y4371D01*
X4814Y4374D01*
X4805Y4375D01*
D02*
G37*
G36*
X8570Y4385D02*
X8560Y4384D01*
X8550Y4380D01*
X8541Y4374D01*
X8535Y4365D01*
X8531Y4355D01*
X8530Y4345D01*
X8531Y4335D01*
X8535Y4325D01*
X8541Y4316D01*
X8550Y4310D01*
X8560Y4306D01*
X8570Y4305D01*
X8580Y4306D01*
X8590Y4310D01*
X8599Y4316D01*
X8605Y4325D01*
X8609Y4335D01*
X8610Y4345D01*
X8609Y4355D01*
X8605Y4365D01*
X8599Y4374D01*
X8590Y4380D01*
X8580Y4384D01*
X8570Y4385D01*
D02*
G37*
G36*
X3955Y4315D02*
X3946Y4314D01*
X3937Y4311D01*
X3930Y4305D01*
X3924Y4298D01*
X3921Y4289D01*
X3920Y4280D01*
X3921Y4271D01*
X3924Y4262D01*
X3930Y4255D01*
X3937Y4249D01*
X3946Y4246D01*
X3955Y4245D01*
X3964Y4246D01*
X3973Y4249D01*
X3980Y4255D01*
X3986Y4262D01*
X3989Y4271D01*
X3990Y4280D01*
X3989Y4289D01*
X3986Y4298D01*
X3980Y4305D01*
X3973Y4311D01*
X3964Y4314D01*
X3955Y4315D01*
D02*
G37*
G36*
X8655Y4282D02*
X8650Y4280D01*
X8641Y4274D01*
X8635Y4265D01*
X8633Y4260D01*
X8655D01*
Y4282D01*
D02*
G37*
G36*
X7550Y3190D02*
X7520D01*
Y3160D01*
X7529Y3164D01*
X7539Y3171D01*
X7546Y3181D01*
X7550Y3190D01*
D02*
G37*
G36*
X7355Y3255D02*
Y3210D01*
Y3165D01*
X7364Y3169D01*
X7374Y3176D01*
X7375Y3177D01*
X7381D01*
X7386Y3171D01*
X7396Y3164D01*
X7405Y3160D01*
Y3205D01*
Y3250D01*
X7396Y3246D01*
X7386Y3239D01*
X7385Y3238D01*
X7379D01*
X7374Y3244D01*
X7364Y3251D01*
X7355Y3255D01*
D02*
G37*
G36*
X5635Y3127D02*
X5632Y3126D01*
X5625Y3120D01*
X5619Y3113D01*
X5618Y3110D01*
X5635D01*
Y3127D01*
D02*
G37*
G36*
X5755Y3122D02*
Y3105D01*
X5772D01*
X5771Y3108D01*
X5765Y3115D01*
X5758Y3121D01*
X5755Y3122D01*
D02*
G37*
G36*
X3895Y3195D02*
X3886Y3194D01*
X3877Y3191D01*
X3870Y3185D01*
X3864Y3178D01*
X3861Y3169D01*
X3860Y3160D01*
X3861Y3151D01*
X3864Y3142D01*
X3870Y3135D01*
X3877Y3129D01*
X3886Y3126D01*
X3895Y3125D01*
X3904Y3126D01*
X3913Y3129D01*
X3920Y3135D01*
X3926Y3142D01*
X3929Y3151D01*
X3930Y3160D01*
X3929Y3169D01*
X3926Y3178D01*
X3920Y3185D01*
X3913Y3191D01*
X3904Y3194D01*
X3895Y3195D01*
D02*
G37*
G36*
X5665Y3127D02*
Y3110D01*
X5682D01*
X5681Y3113D01*
X5675Y3120D01*
X5668Y3126D01*
X5665Y3127D01*
D02*
G37*
G36*
X7325Y3195D02*
X7295D01*
X7299Y3186D01*
X7306Y3176D01*
X7316Y3169D01*
X7325Y3165D01*
Y3195D01*
D02*
G37*
G36*
X7490Y3250D02*
X7481Y3246D01*
X7471Y3239D01*
X7466Y3232D01*
X7459D01*
X7454Y3239D01*
X7444Y3246D01*
X7435Y3250D01*
Y3205D01*
Y3160D01*
X7444Y3164D01*
X7454Y3171D01*
X7459Y3178D01*
X7466D01*
X7471Y3171D01*
X7481Y3164D01*
X7490Y3160D01*
Y3205D01*
Y3250D01*
D02*
G37*
G36*
X7325Y3255D02*
X7316Y3251D01*
X7306Y3244D01*
X7299Y3234D01*
X7295Y3225D01*
X7325D01*
Y3255D01*
D02*
G37*
G36*
X7520Y3250D02*
Y3220D01*
X7550D01*
X7546Y3229D01*
X7539Y3239D01*
X7529Y3246D01*
X7520Y3250D01*
D02*
G37*
G36*
X5725Y3122D02*
X5722Y3121D01*
X5715Y3115D01*
X5709Y3108D01*
X5708Y3105D01*
X5725D01*
Y3122D01*
D02*
G37*
G36*
X3492Y2900D02*
X3475D01*
Y2883D01*
X3478Y2884D01*
X3485Y2890D01*
X3491Y2897D01*
X3492Y2900D01*
D02*
G37*
G36*
X3445D02*
X3428D01*
X3429Y2897D01*
X3435Y2890D01*
X3442Y2884D01*
X3445Y2883D01*
Y2900D01*
D02*
G37*
G36*
X4960Y2955D02*
X4951Y2954D01*
X4942Y2951D01*
X4935Y2945D01*
X4929Y2938D01*
X4926Y2929D01*
X4925Y2920D01*
X4926Y2911D01*
X4929Y2902D01*
X4935Y2895D01*
X4942Y2889D01*
X4951Y2886D01*
X4960Y2885D01*
X4969Y2886D01*
X4978Y2889D01*
X4985Y2895D01*
X4991Y2902D01*
X4994Y2911D01*
X4995Y2920D01*
X4994Y2929D01*
X4991Y2938D01*
X4985Y2945D01*
X4978Y2951D01*
X4969Y2954D01*
X4960Y2955D01*
D02*
G37*
G36*
X4540D02*
X4531Y2954D01*
X4522Y2951D01*
X4515Y2945D01*
X4509Y2938D01*
X4506Y2929D01*
X4505Y2920D01*
X4506Y2911D01*
X4509Y2902D01*
X4515Y2895D01*
X4522Y2889D01*
X4531Y2886D01*
X4540Y2885D01*
X4549Y2886D01*
X4558Y2889D01*
X4565Y2895D01*
X4571Y2902D01*
X4574Y2911D01*
X4575Y2920D01*
X4574Y2929D01*
X4571Y2938D01*
X4565Y2945D01*
X4558Y2951D01*
X4549Y2954D01*
X4540Y2955D01*
D02*
G37*
G36*
X5840Y2925D02*
X5831Y2924D01*
X5822Y2921D01*
X5815Y2915D01*
X5809Y2908D01*
X5806Y2899D01*
X5805Y2890D01*
X5806Y2881D01*
X5809Y2872D01*
X5815Y2865D01*
X5822Y2859D01*
X5831Y2856D01*
X5840Y2855D01*
X5849Y2856D01*
X5858Y2859D01*
X5865Y2865D01*
X5871Y2872D01*
X5874Y2881D01*
X5875Y2890D01*
X5874Y2899D01*
X5871Y2908D01*
X5865Y2915D01*
X5858Y2921D01*
X5849Y2924D01*
X5840Y2925D01*
D02*
G37*
G36*
X4270Y2915D02*
X4261Y2914D01*
X4252Y2911D01*
X4245Y2905D01*
X4239Y2898D01*
X4236Y2889D01*
X4235Y2880D01*
X4236Y2871D01*
X4239Y2862D01*
X4245Y2855D01*
X4252Y2849D01*
X4261Y2846D01*
X4270Y2845D01*
X4279Y2846D01*
X4288Y2849D01*
X4295Y2855D01*
X4301Y2862D01*
X4304Y2871D01*
X4305Y2880D01*
X4304Y2889D01*
X4301Y2898D01*
X4295Y2905D01*
X4288Y2911D01*
X4279Y2914D01*
X4270Y2915D01*
D02*
G37*
G36*
X3392Y2900D02*
X3375D01*
Y2883D01*
X3378Y2884D01*
X3385Y2890D01*
X3391Y2897D01*
X3392Y2900D01*
D02*
G37*
G36*
X3345D02*
X3328D01*
X3329Y2897D01*
X3335Y2890D01*
X3342Y2884D01*
X3345Y2883D01*
Y2900D01*
D02*
G37*
G36*
Y2947D02*
X3342Y2946D01*
X3335Y2940D01*
X3329Y2933D01*
X3328Y2930D01*
X3345D01*
Y2947D01*
D02*
G37*
G36*
X5772Y3075D02*
X5755D01*
Y3058D01*
X5758Y3059D01*
X5765Y3065D01*
X5771Y3072D01*
X5772Y3075D01*
D02*
G37*
G36*
X5725D02*
X5708D01*
X5709Y3072D01*
X5715Y3065D01*
X5722Y3059D01*
X5725Y3058D01*
Y3075D01*
D02*
G37*
G36*
X5682Y3080D02*
X5665D01*
Y3063D01*
X5668Y3064D01*
X5675Y3070D01*
X5681Y3077D01*
X5682Y3080D01*
D02*
G37*
G36*
X5635D02*
X5618D01*
X5619Y3077D01*
X5625Y3070D01*
X5632Y3064D01*
X5635Y3063D01*
Y3080D01*
D02*
G37*
G36*
X3445Y2947D02*
X3442Y2946D01*
X3435Y2940D01*
X3429Y2933D01*
X3428Y2930D01*
X3445D01*
Y2947D01*
D02*
G37*
G36*
X3375D02*
Y2930D01*
X3392D01*
X3391Y2933D01*
X3385Y2940D01*
X3378Y2946D01*
X3375Y2947D01*
D02*
G37*
G36*
X4255Y3030D02*
X4246Y3029D01*
X4237Y3026D01*
X4230Y3020D01*
X4224Y3013D01*
X4221Y3004D01*
X4220Y2995D01*
X4221Y2986D01*
X4224Y2977D01*
X4230Y2970D01*
X4237Y2964D01*
X4246Y2961D01*
X4255Y2960D01*
X4264Y2961D01*
X4273Y2964D01*
X4280Y2970D01*
X4286Y2977D01*
X4289Y2986D01*
X4290Y2995D01*
X4289Y3004D01*
X4286Y3013D01*
X4280Y3020D01*
X4273Y3026D01*
X4264Y3029D01*
X4255Y3030D01*
D02*
G37*
G36*
X3475Y2947D02*
Y2930D01*
X3492D01*
X3491Y2933D01*
X3485Y2940D01*
X3478Y2946D01*
X3475Y2947D01*
D02*
G37*
G36*
X4585Y3720D02*
X4576Y3719D01*
X4567Y3716D01*
X4560Y3710D01*
X4554Y3703D01*
X4551Y3694D01*
X4550Y3685D01*
X4551Y3676D01*
X4554Y3667D01*
X4560Y3660D01*
X4567Y3654D01*
X4576Y3651D01*
X4585Y3650D01*
X4594Y3651D01*
X4603Y3654D01*
X4610Y3660D01*
X4616Y3667D01*
X4619Y3676D01*
X4620Y3685D01*
X4619Y3694D01*
X4616Y3703D01*
X4610Y3710D01*
X4603Y3716D01*
X4594Y3719D01*
X4585Y3720D01*
D02*
G37*
G36*
X3615Y3710D02*
X3606Y3709D01*
X3597Y3706D01*
X3590Y3700D01*
X3584Y3693D01*
X3581Y3684D01*
X3580Y3675D01*
X3581Y3666D01*
X3584Y3657D01*
X3590Y3650D01*
X3597Y3644D01*
X3606Y3641D01*
X3615Y3640D01*
X3624Y3641D01*
X3633Y3644D01*
X3640Y3650D01*
X3646Y3657D01*
X3649Y3666D01*
X3650Y3675D01*
X3649Y3684D01*
X3646Y3693D01*
X3640Y3700D01*
X3633Y3706D01*
X3624Y3709D01*
X3615Y3710D01*
D02*
G37*
G36*
X5100Y3665D02*
X5091Y3664D01*
X5082Y3661D01*
X5075Y3655D01*
X5069Y3648D01*
X5066Y3639D01*
X5065Y3630D01*
X5066Y3621D01*
X5069Y3612D01*
X5075Y3605D01*
X5082Y3599D01*
X5091Y3596D01*
X5100Y3595D01*
X5109Y3596D01*
X5118Y3599D01*
X5125Y3605D01*
X5131Y3612D01*
X5134Y3621D01*
X5135Y3630D01*
X5134Y3639D01*
X5131Y3648D01*
X5125Y3655D01*
X5118Y3661D01*
X5109Y3664D01*
X5100Y3665D01*
D02*
G37*
G36*
X4080Y3740D02*
X4071Y3739D01*
X4062Y3736D01*
X4055Y3730D01*
X4049Y3723D01*
X4046Y3714D01*
X4045Y3705D01*
X4046Y3696D01*
X4049Y3687D01*
X4055Y3680D01*
X4062Y3674D01*
X4071Y3671D01*
X4080Y3670D01*
X4089Y3671D01*
X4098Y3674D01*
X4105Y3680D01*
X4111Y3687D01*
X4114Y3696D01*
X4115Y3705D01*
X4114Y3714D01*
X4111Y3723D01*
X4105Y3730D01*
X4098Y3736D01*
X4089Y3739D01*
X4080Y3740D01*
D02*
G37*
G36*
X5872Y3815D02*
X5855D01*
Y3798D01*
X5858Y3799D01*
X5865Y3805D01*
X5871Y3812D01*
X5872Y3815D01*
D02*
G37*
G36*
X5825D02*
X5808D01*
X5809Y3812D01*
X5815Y3805D01*
X5822Y3799D01*
X5825Y3798D01*
Y3815D01*
D02*
G37*
G36*
X6200Y3770D02*
X6191Y3769D01*
X6182Y3766D01*
X6175Y3760D01*
X6169Y3753D01*
X6166Y3744D01*
X6165Y3735D01*
X6166Y3726D01*
X6169Y3717D01*
X6175Y3710D01*
X6182Y3704D01*
X6191Y3701D01*
X6200Y3700D01*
X6209Y3701D01*
X6218Y3704D01*
X6225Y3710D01*
X6231Y3717D01*
X6234Y3726D01*
X6235Y3735D01*
X6234Y3744D01*
X6231Y3753D01*
X6225Y3760D01*
X6218Y3766D01*
X6209Y3769D01*
X6200Y3770D01*
D02*
G37*
G36*
X6710Y3805D02*
X6701Y3804D01*
X6692Y3801D01*
X6685Y3795D01*
X6679Y3788D01*
X6676Y3779D01*
X6675Y3770D01*
X6676Y3761D01*
X6679Y3752D01*
X6685Y3745D01*
X6692Y3739D01*
X6701Y3736D01*
X6710Y3735D01*
X6719Y3736D01*
X6728Y3739D01*
X6735Y3745D01*
X6741Y3752D01*
X6744Y3761D01*
X6745Y3770D01*
X6744Y3779D01*
X6741Y3788D01*
X6735Y3795D01*
X6728Y3801D01*
X6719Y3804D01*
X6710Y3805D01*
D02*
G37*
G36*
X8505Y3650D02*
X8496Y3649D01*
X8487Y3646D01*
X8480Y3640D01*
X8474Y3633D01*
X8471Y3624D01*
X8470Y3615D01*
X8471Y3606D01*
X8474Y3597D01*
X8480Y3590D01*
X8487Y3584D01*
X8496Y3581D01*
X8505Y3580D01*
X8514Y3581D01*
X8523Y3584D01*
X8530Y3590D01*
X8536Y3597D01*
X8539Y3606D01*
X8540Y3615D01*
X8539Y3624D01*
X8536Y3633D01*
X8530Y3640D01*
X8523Y3646D01*
X8514Y3649D01*
X8505Y3650D01*
D02*
G37*
G36*
X8670Y3334D02*
Y3310D01*
X8694D01*
X8691Y3316D01*
X8685Y3325D01*
X8676Y3331D01*
X8670Y3334D01*
D02*
G37*
G36*
X8694Y3280D02*
X8670D01*
Y3256D01*
X8676Y3259D01*
X8685Y3265D01*
X8691Y3274D01*
X8694Y3280D01*
D02*
G37*
G36*
X8640D02*
X8616D01*
X8619Y3274D01*
X8625Y3265D01*
X8634Y3259D01*
X8640Y3256D01*
Y3280D01*
D02*
G37*
G36*
Y3334D02*
X8634Y3331D01*
X8625Y3325D01*
X8619Y3316D01*
X8616Y3310D01*
X8640D01*
Y3334D01*
D02*
G37*
G36*
X3760Y3370D02*
X3751Y3369D01*
X3742Y3366D01*
X3735Y3360D01*
X3729Y3353D01*
X3726Y3344D01*
X3725Y3335D01*
X3726Y3326D01*
X3729Y3317D01*
X3735Y3310D01*
X3742Y3304D01*
X3751Y3301D01*
X3760Y3300D01*
X3769Y3301D01*
X3778Y3304D01*
X3785Y3310D01*
X3791Y3317D01*
X3794Y3326D01*
X3795Y3335D01*
X3794Y3344D01*
X3791Y3353D01*
X3785Y3360D01*
X3778Y3366D01*
X3769Y3369D01*
X3760Y3370D01*
D02*
G37*
G36*
X4770Y3485D02*
X4761Y3484D01*
X4752Y3481D01*
X4745Y3475D01*
X4739Y3468D01*
X4736Y3459D01*
X4735Y3450D01*
X4736Y3441D01*
X4739Y3432D01*
X4745Y3425D01*
X4752Y3419D01*
X4761Y3416D01*
X4770Y3415D01*
X4779Y3416D01*
X4788Y3419D01*
X4795Y3425D01*
X4801Y3432D01*
X4804Y3441D01*
X4805Y3450D01*
X4804Y3459D01*
X4801Y3468D01*
X4795Y3475D01*
X4788Y3481D01*
X4779Y3484D01*
X4770Y3485D01*
D02*
G37*
G36*
X6365Y3530D02*
X6356Y3529D01*
X6347Y3526D01*
X6340Y3520D01*
X6334Y3513D01*
X6331Y3504D01*
X6330Y3495D01*
X6331Y3486D01*
X6334Y3477D01*
X6340Y3470D01*
X6347Y3464D01*
X6356Y3461D01*
X6365Y3460D01*
X6374Y3461D01*
X6383Y3464D01*
X6390Y3470D01*
X6396Y3477D01*
X6399Y3486D01*
X6400Y3495D01*
X6399Y3504D01*
X6396Y3513D01*
X6390Y3520D01*
X6383Y3526D01*
X6374Y3529D01*
X6365Y3530D01*
D02*
G37*
G36*
X8655Y4830D02*
X8633D01*
X8635Y4825D01*
X8641Y4816D01*
X8650Y4810D01*
X8655Y4808D01*
Y4830D01*
D02*
G37*
G36*
X8570Y4885D02*
X8560Y4884D01*
X8550Y4880D01*
X8541Y4874D01*
X8535Y4865D01*
X8531Y4855D01*
X8530Y4845D01*
X8531Y4835D01*
X8535Y4825D01*
X8541Y4816D01*
X8550Y4810D01*
X8560Y4806D01*
X8570Y4805D01*
X8580Y4806D01*
X8590Y4810D01*
X8599Y4816D01*
X8605Y4825D01*
X8609Y4835D01*
X8610Y4845D01*
X8609Y4855D01*
X8605Y4865D01*
X8599Y4874D01*
X8590Y4880D01*
X8580Y4884D01*
X8570Y4885D01*
D02*
G37*
G36*
X5220Y4820D02*
X5212D01*
X5216Y4816D01*
X5220Y4812D01*
Y4820D01*
D02*
G37*
G36*
X8707Y4830D02*
X8685D01*
Y4808D01*
X8690Y4810D01*
X8699Y4816D01*
X8705Y4825D01*
X8707Y4830D01*
D02*
G37*
G36*
X4540Y4855D02*
X4531Y4854D01*
X4522Y4851D01*
X4515Y4845D01*
X4509Y4838D01*
X4506Y4829D01*
X4505Y4820D01*
X4506Y4811D01*
X4509Y4802D01*
X4515Y4795D01*
X4522Y4789D01*
X4531Y4786D01*
X4540Y4785D01*
X4549Y4786D01*
X4558Y4789D01*
X4565Y4795D01*
X4571Y4802D01*
X4574Y4811D01*
X4575Y4820D01*
X4574Y4829D01*
X4571Y4838D01*
X4565Y4845D01*
X4558Y4851D01*
X4549Y4854D01*
X4540Y4855D01*
D02*
G37*
G36*
X6700Y4838D02*
X6693Y4837D01*
X6686Y4834D01*
X6680Y4830D01*
X6676Y4824D01*
X6673Y4817D01*
X6672Y4810D01*
X6673Y4803D01*
X6676Y4796D01*
X6680Y4790D01*
X6686Y4786D01*
X6693Y4783D01*
X6700Y4782D01*
X6707Y4783D01*
X6714Y4786D01*
X6720Y4790D01*
X6724Y4796D01*
X6727Y4803D01*
X6728Y4810D01*
X6727Y4817D01*
X6724Y4824D01*
X6720Y4830D01*
X6714Y4834D01*
X6707Y4837D01*
X6700Y4838D01*
D02*
G37*
G36*
X4135Y4860D02*
X4126Y4859D01*
X4117Y4856D01*
X4110Y4850D01*
X4104Y4843D01*
X4101Y4834D01*
X4100Y4825D01*
X4101Y4816D01*
X4104Y4807D01*
X4110Y4800D01*
X4117Y4794D01*
X4126Y4791D01*
X4135Y4790D01*
X4144Y4791D01*
X4153Y4794D01*
X4160Y4800D01*
X4166Y4807D01*
X4169Y4816D01*
X4170Y4825D01*
X4169Y4834D01*
X4166Y4843D01*
X4160Y4850D01*
X4153Y4856D01*
X4144Y4859D01*
X4135Y4860D01*
D02*
G37*
G36*
X5305Y4843D02*
X5298Y4842D01*
X5291Y4839D01*
X5285Y4835D01*
X5281Y4829D01*
X5278Y4822D01*
X5277Y4815D01*
X5278Y4808D01*
X5281Y4801D01*
X5285Y4795D01*
X5291Y4791D01*
X5298Y4788D01*
X5305Y4787D01*
X5312Y4788D01*
X5319Y4791D01*
X5325Y4795D01*
X5329Y4801D01*
X5332Y4808D01*
X5333Y4815D01*
X5332Y4822D01*
X5329Y4829D01*
X5325Y4835D01*
X5319Y4839D01*
X5312Y4842D01*
X5305Y4843D01*
D02*
G37*
G36*
X5258Y4820D02*
X5250D01*
Y4812D01*
X5254Y4816D01*
X5258Y4820D01*
D02*
G37*
G36*
X7110Y4860D02*
X7105D01*
X7107Y4857D01*
X7110Y4855D01*
Y4860D01*
D02*
G37*
G36*
X5250Y4858D02*
Y4850D01*
X5258D01*
X5254Y4854D01*
X5250Y4858D01*
D02*
G37*
G36*
X8655Y4882D02*
X8650Y4880D01*
X8641Y4874D01*
X8635Y4865D01*
X8633Y4860D01*
X8655D01*
Y4882D01*
D02*
G37*
G36*
X7145Y4860D02*
X7140D01*
Y4855D01*
X7143Y4857D01*
X7145Y4860D01*
D02*
G37*
G36*
X7195Y4883D02*
X7188Y4882D01*
X7181Y4879D01*
X7175Y4875D01*
X7171Y4869D01*
X7168Y4862D01*
X7167Y4855D01*
X7168Y4848D01*
X7171Y4841D01*
X7175Y4835D01*
X7181Y4831D01*
X7188Y4828D01*
X7195Y4827D01*
X7202Y4828D01*
X7209Y4831D01*
X7215Y4835D01*
X7219Y4841D01*
X7222Y4848D01*
X7223Y4855D01*
X7222Y4862D01*
X7219Y4869D01*
X7215Y4875D01*
X7209Y4879D01*
X7202Y4882D01*
X7195Y4883D01*
D02*
G37*
G36*
X6430Y4894D02*
X6421Y4892D01*
X6412Y4889D01*
X6405Y4883D01*
X6399Y4876D01*
X6396Y4867D01*
X6395Y4858D01*
X6396Y4849D01*
X6399Y4841D01*
X6405Y4833D01*
X6412Y4828D01*
X6421Y4824D01*
X6430Y4823D01*
X6439Y4824D01*
X6448Y4828D01*
X6455Y4833D01*
X6461Y4841D01*
X6464Y4849D01*
X6465Y4858D01*
X6464Y4867D01*
X6461Y4876D01*
X6455Y4883D01*
X6448Y4889D01*
X6439Y4892D01*
X6430Y4894D01*
D02*
G37*
G36*
X5220Y4858D02*
X5216Y4854D01*
X5212Y4850D01*
X5220D01*
Y4858D01*
D02*
G37*
G36*
X5375Y4905D02*
X5366Y4904D01*
X5357Y4901D01*
X5350Y4895D01*
X5344Y4888D01*
X5341Y4879D01*
X5340Y4870D01*
X5341Y4861D01*
X5344Y4852D01*
X5350Y4845D01*
X5357Y4839D01*
X5366Y4836D01*
X5375Y4835D01*
X5384Y4836D01*
X5393Y4839D01*
X5400Y4845D01*
X5406Y4852D01*
X5409Y4861D01*
X5410Y4870D01*
X5409Y4879D01*
X5406Y4888D01*
X5400Y4895D01*
X5393Y4901D01*
X5384Y4904D01*
X5375Y4905D01*
D02*
G37*
G36*
X7195Y4813D02*
X7188Y4812D01*
X7181Y4809D01*
X7175Y4805D01*
X7171Y4799D01*
X7168Y4792D01*
X7167Y4785D01*
X7168Y4778D01*
X7169Y4775D01*
X7166Y4771D01*
X7165Y4771D01*
X7158Y4770D01*
X7151Y4767D01*
X7145Y4763D01*
X7145Y4763D01*
X7140Y4765D01*
X7140Y4765D01*
X7139Y4774D01*
X7133Y4783D01*
X7125Y4788D01*
X7115Y4790D01*
X7105Y4788D01*
X7097Y4783D01*
X7091Y4774D01*
X7090Y4765D01*
X7091Y4755D01*
X7097Y4747D01*
X7105Y4741D01*
X7115Y4739D01*
X7125Y4741D01*
X7133Y4746D01*
X7134Y4746D01*
X7137Y4744D01*
X7137Y4743D01*
X7138Y4736D01*
X7141Y4729D01*
X7145Y4724D01*
X7151Y4719D01*
X7158Y4716D01*
X7165Y4715D01*
X7172Y4716D01*
X7179Y4719D01*
X7185Y4724D01*
X7188Y4728D01*
X7210D01*
X7240Y4699D01*
Y4551D01*
X7217Y4529D01*
X7212Y4531D01*
X7213Y4533D01*
X7212Y4540D01*
X7209Y4547D01*
X7205Y4553D01*
X7199Y4557D01*
X7192Y4560D01*
X7185Y4561D01*
X7178Y4560D01*
X7171Y4557D01*
X7165Y4553D01*
X7162Y4549D01*
X7151D01*
X7092Y4608D01*
X7093Y4613D01*
X7092Y4620D01*
X7089Y4627D01*
X7085Y4633D01*
X7079Y4637D01*
X7072Y4640D01*
X7065Y4641D01*
X7058Y4640D01*
X7051Y4637D01*
X7045Y4633D01*
X7041Y4627D01*
X7038Y4620D01*
X7037Y4613D01*
X7038Y4606D01*
X7041Y4599D01*
X7045Y4594D01*
X7051Y4589D01*
X7058Y4586D01*
X7065Y4585D01*
X7070Y4586D01*
X7134Y4522D01*
X7139Y4519D01*
X7145Y4518D01*
X7162D01*
X7165Y4514D01*
X7171Y4509D01*
X7178Y4506D01*
X7185Y4505D01*
X7187Y4506D01*
X7189Y4501D01*
X7054Y4366D01*
X7048Y4371D01*
X7039Y4374D01*
X7030Y4375D01*
X7030Y4375D01*
X7029Y4380D01*
X7030Y4380D01*
X7033Y4381D01*
X7038Y4384D01*
X7081Y4427D01*
X7083Y4431D01*
X7084Y4431D01*
X7090Y4435D01*
X7094Y4441D01*
X7097Y4448D01*
X7098Y4455D01*
X7097Y4462D01*
X7096Y4464D01*
X7099Y4470D01*
X7100Y4470D01*
X7101Y4469D01*
X7108Y4466D01*
X7115Y4465D01*
X7122Y4466D01*
X7129Y4469D01*
X7135Y4474D01*
X7139Y4479D01*
X7142Y4486D01*
X7143Y4493D01*
X7142Y4500D01*
X7139Y4507D01*
X7135Y4513D01*
X7129Y4517D01*
X7122Y4520D01*
X7115Y4521D01*
X7108Y4520D01*
X7101Y4517D01*
X7095Y4513D01*
X7091Y4507D01*
X7088Y4500D01*
X7087Y4493D01*
X7088Y4486D01*
X7089Y4485D01*
X7086Y4479D01*
X7085Y4478D01*
X7084Y4479D01*
X7077Y4482D01*
X7070Y4483D01*
X7063Y4482D01*
X7056Y4479D01*
X7050Y4475D01*
X7046Y4469D01*
X7043Y4462D01*
X7042Y4455D01*
X7043Y4448D01*
X7046Y4441D01*
X7048Y4438D01*
X7020Y4410D01*
X6825D01*
X6819Y4409D01*
X6814Y4406D01*
X6779Y4371D01*
X6776Y4366D01*
X6775Y4360D01*
Y3810D01*
X6776Y3804D01*
X6779Y3799D01*
X6810Y3768D01*
X6811Y3761D01*
X6814Y3752D01*
X6820Y3745D01*
X6827Y3739D01*
X6836Y3736D01*
X6845Y3735D01*
X6854Y3736D01*
X6863Y3739D01*
X6870Y3745D01*
X6876Y3752D01*
X6879Y3761D01*
X6880Y3770D01*
X6879Y3779D01*
X6876Y3788D01*
X6870Y3795D01*
X6863Y3801D01*
X6854Y3804D01*
X6845Y3805D01*
X6836Y3804D01*
X6827Y3801D01*
X6824Y3798D01*
X6805Y3816D01*
Y4354D01*
X6831Y4380D01*
X7024D01*
X7025Y4380D01*
X7025Y4375D01*
X7025Y4375D01*
X7021Y4374D01*
X7012Y4371D01*
X7005Y4365D01*
X6999Y4358D01*
X6996Y4349D01*
X6995Y4340D01*
X6996Y4331D01*
X6999Y4322D01*
X7005Y4315D01*
X7012Y4309D01*
X7021Y4306D01*
X7030Y4305D01*
X7039Y4306D01*
X7048Y4309D01*
X7055Y4315D01*
X7061Y4322D01*
X7064Y4331D01*
X7064Y4333D01*
X7266Y4534D01*
X7269Y4539D01*
X7270Y4545D01*
Y4705D01*
X7269Y4711D01*
X7266Y4716D01*
X7228Y4754D01*
X7223Y4757D01*
X7217Y4759D01*
X7214D01*
X7212Y4764D01*
X7215Y4765D01*
X7219Y4771D01*
X7222Y4778D01*
X7223Y4785D01*
X7222Y4792D01*
X7219Y4799D01*
X7215Y4805D01*
X7209Y4809D01*
X7202Y4812D01*
X7195Y4813D01*
D02*
G37*
G36*
X8685Y4682D02*
Y4660D01*
X8707D01*
X8705Y4665D01*
X8699Y4674D01*
X8690Y4680D01*
X8685Y4682D01*
D02*
G37*
G36*
X8655D02*
X8650Y4680D01*
X8641Y4674D01*
X8635Y4665D01*
X8633Y4660D01*
X8655D01*
Y4682D01*
D02*
G37*
G36*
X4470Y4748D02*
X4463Y4747D01*
X4456Y4744D01*
X4450Y4740D01*
X4446Y4734D01*
X4443Y4727D01*
X4442Y4720D01*
X4443Y4713D01*
X4446Y4706D01*
X4450Y4700D01*
X4456Y4696D01*
X4463Y4693D01*
X4470Y4692D01*
X4477Y4693D01*
X4484Y4696D01*
X4490Y4700D01*
X4494Y4706D01*
X4497Y4713D01*
X4498Y4720D01*
X4497Y4727D01*
X4494Y4734D01*
X4490Y4740D01*
X4484Y4744D01*
X4477Y4747D01*
X4470Y4748D01*
D02*
G37*
G36*
X6705Y4760D02*
X6696Y4759D01*
X6687Y4756D01*
X6680Y4750D01*
X6674Y4743D01*
X6671Y4734D01*
X6670Y4725D01*
X6671Y4716D01*
X6674Y4707D01*
X6680Y4700D01*
X6687Y4694D01*
X6696Y4691D01*
X6705Y4690D01*
X6714Y4691D01*
X6723Y4694D01*
X6730Y4700D01*
X6736Y4707D01*
X6739Y4716D01*
X6740Y4725D01*
X6739Y4734D01*
X6736Y4743D01*
X6730Y4750D01*
X6723Y4756D01*
X6714Y4759D01*
X6705Y4760D01*
D02*
G37*
G36*
X7115Y4708D02*
X7108Y4707D01*
X7101Y4704D01*
X7095Y4700D01*
X7091Y4694D01*
X7088Y4687D01*
X7087Y4680D01*
X7088Y4673D01*
X7091Y4666D01*
X7095Y4660D01*
X7101Y4656D01*
X7108Y4653D01*
X7115Y4652D01*
X7122Y4653D01*
X7129Y4656D01*
X7135Y4660D01*
X7139Y4666D01*
X7142Y4673D01*
X7143Y4680D01*
X7142Y4687D01*
X7139Y4694D01*
X7135Y4700D01*
X7129Y4704D01*
X7122Y4707D01*
X7115Y4708D01*
D02*
G37*
G36*
X4810Y4715D02*
X4801Y4714D01*
X4792Y4711D01*
X4785Y4705D01*
X4779Y4698D01*
X4776Y4689D01*
X4775Y4680D01*
X4776Y4671D01*
X4779Y4662D01*
X4785Y4655D01*
X4792Y4649D01*
X4801Y4646D01*
X4810Y4645D01*
X4819Y4646D01*
X4828Y4649D01*
X4835Y4655D01*
X4841Y4662D01*
X4844Y4671D01*
X4845Y4680D01*
X4844Y4689D01*
X4841Y4698D01*
X4835Y4705D01*
X4828Y4711D01*
X4819Y4714D01*
X4810Y4715D01*
D02*
G37*
G36*
X8570Y4785D02*
X8560Y4784D01*
X8550Y4780D01*
X8541Y4774D01*
X8535Y4765D01*
X8531Y4755D01*
X8530Y4745D01*
X8531Y4735D01*
X8535Y4725D01*
X8541Y4716D01*
X8550Y4710D01*
X8560Y4706D01*
X8570Y4705D01*
X8580Y4706D01*
X8590Y4710D01*
X8599Y4716D01*
X8605Y4725D01*
X8609Y4735D01*
X8610Y4745D01*
X8609Y4755D01*
X8605Y4765D01*
X8599Y4774D01*
X8590Y4780D01*
X8580Y4784D01*
X8570Y4785D01*
D02*
G37*
G36*
X3670Y4830D02*
X3661Y4829D01*
X3652Y4826D01*
X3645Y4820D01*
X3639Y4813D01*
X3636Y4804D01*
X3635Y4795D01*
X3636Y4786D01*
X3639Y4777D01*
X3645Y4770D01*
X3652Y4764D01*
X3661Y4761D01*
X3670Y4760D01*
X3679Y4761D01*
X3688Y4764D01*
X3695Y4770D01*
X3701Y4777D01*
X3704Y4786D01*
X3705Y4795D01*
X3704Y4804D01*
X3701Y4813D01*
X3695Y4820D01*
X3688Y4826D01*
X3679Y4829D01*
X3670Y4830D01*
D02*
G37*
G36*
X6360Y4786D02*
X6353Y4785D01*
X6346Y4782D01*
X6340Y4778D01*
X6336Y4772D01*
X6333Y4765D01*
X6332Y4758D01*
X6333Y4751D01*
X6336Y4744D01*
X6340Y4739D01*
X6346Y4734D01*
X6353Y4731D01*
X6360Y4730D01*
X6367Y4731D01*
X6374Y4734D01*
X6380Y4739D01*
X6384Y4744D01*
X6387Y4751D01*
X6388Y4758D01*
X6387Y4765D01*
X6384Y4772D01*
X6380Y4778D01*
X6374Y4782D01*
X6367Y4785D01*
X6360Y4786D01*
D02*
G37*
G36*
X8685Y4782D02*
Y4760D01*
X8707D01*
X8705Y4765D01*
X8699Y4774D01*
X8690Y4780D01*
X8685Y4782D01*
D02*
G37*
G36*
X8655D02*
X8650Y4780D01*
X8641Y4774D01*
X8635Y4765D01*
X8633Y4760D01*
X8655D01*
Y4782D01*
D02*
G37*
G36*
X8707Y4730D02*
X8685D01*
Y4708D01*
X8690Y4710D01*
X8699Y4716D01*
X8705Y4725D01*
X8707Y4730D01*
D02*
G37*
G36*
X8655D02*
X8633D01*
X8635Y4725D01*
X8641Y4716D01*
X8650Y4710D01*
X8655Y4708D01*
Y4730D01*
D02*
G37*
G36*
X5320Y4768D02*
X5313Y4767D01*
X5306Y4764D01*
X5300Y4760D01*
X5296Y4754D01*
X5293Y4747D01*
X5292Y4740D01*
X5293Y4733D01*
X5293Y4733D01*
X5291Y4731D01*
X5289Y4730D01*
X5284Y4734D01*
X5277Y4737D01*
X5270Y4738D01*
X5263Y4737D01*
X5256Y4734D01*
X5253Y4732D01*
X5248Y4734D01*
X5247Y4738D01*
X5241Y4746D01*
X5233Y4752D01*
X5223Y4754D01*
X5213Y4752D01*
X5205Y4746D01*
X5200Y4738D01*
X5198Y4728D01*
X5200Y4718D01*
X5205Y4710D01*
X5213Y4705D01*
X5223Y4703D01*
X5233Y4705D01*
X5238Y4708D01*
X5243Y4705D01*
X5243Y4703D01*
X5246Y4696D01*
X5250Y4690D01*
X5256Y4686D01*
X5263Y4683D01*
X5270Y4682D01*
X5277Y4683D01*
X5284Y4686D01*
X5290Y4690D01*
X5293Y4695D01*
X5299D01*
X5330Y4664D01*
Y4265D01*
X5331Y4259D01*
X5334Y4254D01*
X5367Y4221D01*
X5366Y4219D01*
X5365Y4210D01*
X5366Y4201D01*
X5369Y4192D01*
X5375Y4185D01*
X5382Y4179D01*
X5391Y4176D01*
X5400Y4175D01*
X5409Y4176D01*
X5418Y4179D01*
X5425Y4185D01*
X5431Y4192D01*
X5434Y4201D01*
X5435Y4210D01*
X5434Y4219D01*
X5431Y4228D01*
X5425Y4235D01*
X5418Y4241D01*
X5409Y4244D01*
X5400Y4245D01*
X5391Y4244D01*
X5389Y4243D01*
X5360Y4271D01*
Y4670D01*
X5359Y4676D01*
X5356Y4681D01*
X5328Y4709D01*
X5330Y4714D01*
X5334Y4716D01*
X5340Y4720D01*
X5344Y4726D01*
X5347Y4733D01*
X5348Y4740D01*
X5347Y4747D01*
X5344Y4754D01*
X5340Y4760D01*
X5334Y4764D01*
X5327Y4767D01*
X5320Y4768D01*
D02*
G37*
G36*
X4795Y4800D02*
X4786Y4799D01*
X4777Y4796D01*
X4770Y4790D01*
X4764Y4783D01*
X4761Y4774D01*
X4760Y4765D01*
X4761Y4756D01*
X4764Y4747D01*
X4770Y4740D01*
X4777Y4734D01*
X4786Y4731D01*
X4795Y4730D01*
X4804Y4731D01*
X4813Y4734D01*
X4820Y4740D01*
X4826Y4747D01*
X4829Y4756D01*
X4830Y4765D01*
X4829Y4774D01*
X4826Y4783D01*
X4820Y4790D01*
X4813Y4796D01*
X4804Y4799D01*
X4795Y4800D01*
D02*
G37*
G36*
X8685Y4882D02*
Y4860D01*
X8707D01*
X8705Y4865D01*
X8699Y4874D01*
X8690Y4880D01*
X8685Y4882D01*
D02*
G37*
G36*
X8299Y5044D02*
X8268D01*
X8272Y5035D01*
X8280Y5025D01*
X8290Y5018D01*
X8299Y5014D01*
Y5044D01*
D02*
G37*
G36*
X8359D02*
X8329D01*
Y5014D01*
X8338Y5018D01*
X8347Y5025D01*
X8355Y5035D01*
X8359Y5044D01*
D02*
G37*
G36*
X7077Y5033D02*
X7060D01*
Y5017D01*
X7063Y5018D01*
X7070Y5023D01*
X7076Y5031D01*
X7077Y5033D01*
D02*
G37*
G36*
X7030D02*
X7013D01*
X7014Y5031D01*
X7020Y5023D01*
X7027Y5018D01*
X7030Y5017D01*
Y5033D01*
D02*
G37*
G36*
X8014Y5107D02*
X8002Y5106D01*
X7990Y5101D01*
X7980Y5093D01*
X7973Y5083D01*
X7968Y5072D01*
X7966Y5059D01*
X7968Y5047D01*
X7973Y5035D01*
X7980Y5025D01*
X7990Y5018D01*
X8002Y5013D01*
X8014Y5011D01*
X8027Y5013D01*
X8038Y5018D01*
X8048Y5025D01*
X8056Y5035D01*
X8061Y5047D01*
X8062Y5059D01*
X8061Y5072D01*
X8056Y5083D01*
X8048Y5093D01*
X8038Y5101D01*
X8027Y5106D01*
X8014Y5107D01*
D02*
G37*
G36*
X7715D02*
X7703Y5106D01*
X7691Y5101D01*
X7681Y5093D01*
X7674Y5083D01*
X7669Y5072D01*
X7667Y5059D01*
X7669Y5047D01*
X7674Y5035D01*
X7681Y5025D01*
X7691Y5018D01*
X7703Y5013D01*
X7715Y5011D01*
X7728Y5013D01*
X7739Y5018D01*
X7749Y5025D01*
X7757Y5035D01*
X7761Y5047D01*
X7763Y5059D01*
X7761Y5072D01*
X7757Y5083D01*
X7749Y5093D01*
X7739Y5101D01*
X7728Y5106D01*
X7715Y5107D01*
D02*
G37*
G36*
X6815Y5084D02*
X6806Y5082D01*
X6797Y5079D01*
X6790Y5073D01*
X6784Y5066D01*
X6781Y5057D01*
X6780Y5048D01*
X6781Y5039D01*
X6784Y5031D01*
X6790Y5023D01*
X6797Y5018D01*
X6806Y5014D01*
X6815Y5013D01*
X6824Y5014D01*
X6833Y5018D01*
X6840Y5023D01*
X6846Y5031D01*
X6849Y5039D01*
X6850Y5048D01*
X6849Y5057D01*
X6846Y5066D01*
X6840Y5073D01*
X6833Y5079D01*
X6824Y5082D01*
X6815Y5084D01*
D02*
G37*
G36*
X8164Y5107D02*
X8152Y5106D01*
X8140Y5101D01*
X8130Y5093D01*
X8122Y5083D01*
X8118Y5072D01*
X8116Y5059D01*
X8118Y5047D01*
X8122Y5035D01*
X8130Y5025D01*
X8140Y5018D01*
X8152Y5013D01*
X8164Y5011D01*
X8176Y5013D01*
X8188Y5018D01*
X8198Y5025D01*
X8205Y5035D01*
X8210Y5047D01*
X8212Y5059D01*
X8210Y5072D01*
X8205Y5083D01*
X8198Y5093D01*
X8188Y5101D01*
X8176Y5106D01*
X8164Y5107D01*
D02*
G37*
G36*
X5140Y5042D02*
X5137Y5041D01*
X5130Y5035D01*
X5124Y5028D01*
X5123Y5025D01*
X5140D01*
Y5042D01*
D02*
G37*
G36*
X7060Y5080D02*
Y5063D01*
X7077D01*
X7076Y5066D01*
X7070Y5073D01*
X7063Y5079D01*
X7060Y5080D01*
D02*
G37*
G36*
X7030D02*
X7027Y5079D01*
X7020Y5073D01*
X7014Y5066D01*
X7013Y5063D01*
X7030D01*
Y5080D01*
D02*
G37*
G36*
X8329Y5104D02*
Y5074D01*
X8359D01*
X8355Y5083D01*
X8347Y5093D01*
X8338Y5101D01*
X8329Y5104D01*
D02*
G37*
G36*
X8299Y5104D02*
X8290Y5101D01*
X8280Y5093D01*
X8272Y5083D01*
X8268Y5074D01*
X8299D01*
Y5104D01*
D02*
G37*
G36*
X6530Y5114D02*
X6521Y5112D01*
X6512Y5109D01*
X6505Y5103D01*
X6499Y5096D01*
X6496Y5087D01*
X6495Y5078D01*
X6496Y5069D01*
X6499Y5061D01*
X6505Y5053D01*
X6512Y5048D01*
X6521Y5044D01*
X6530Y5043D01*
X6539Y5044D01*
X6548Y5048D01*
X6555Y5053D01*
X6561Y5061D01*
X6564Y5069D01*
X6565Y5078D01*
X6564Y5087D01*
X6561Y5096D01*
X6555Y5103D01*
X6548Y5109D01*
X6539Y5112D01*
X6530Y5114D01*
D02*
G37*
G36*
X5170Y5042D02*
Y5025D01*
X5187D01*
X5186Y5028D01*
X5180Y5035D01*
X5173Y5041D01*
X5170Y5042D01*
D02*
G37*
G36*
X8685Y5082D02*
Y5060D01*
X8707D01*
X8705Y5065D01*
X8699Y5074D01*
X8690Y5080D01*
X8685Y5082D01*
D02*
G37*
G36*
X8655D02*
X8650Y5080D01*
X8641Y5074D01*
X8635Y5065D01*
X8633Y5060D01*
X8655D01*
Y5082D01*
D02*
G37*
G36*
X8707Y5030D02*
X8685D01*
Y5008D01*
X8690Y5010D01*
X8699Y5016D01*
X8705Y5025D01*
X8707Y5030D01*
D02*
G37*
G36*
X8655Y4930D02*
X8633D01*
X8635Y4925D01*
X8641Y4916D01*
X8650Y4910D01*
X8655Y4908D01*
Y4930D01*
D02*
G37*
G36*
X8570Y4985D02*
X8560Y4984D01*
X8550Y4980D01*
X8541Y4974D01*
X8535Y4965D01*
X8531Y4955D01*
X8530Y4945D01*
X8531Y4935D01*
X8535Y4925D01*
X8541Y4916D01*
X8550Y4910D01*
X8560Y4906D01*
X8570Y4905D01*
X8580Y4906D01*
X8590Y4910D01*
X8599Y4916D01*
X8605Y4925D01*
X8609Y4935D01*
X8610Y4945D01*
X8609Y4955D01*
X8605Y4965D01*
X8599Y4974D01*
X8590Y4980D01*
X8580Y4984D01*
X8570Y4985D01*
D02*
G37*
G36*
X7120Y4971D02*
X7113Y4970D01*
X7106Y4967D01*
X7100Y4963D01*
X7096Y4957D01*
X7093Y4950D01*
X7092Y4943D01*
X7093Y4936D01*
X7096Y4929D01*
X7100Y4924D01*
X7106Y4919D01*
X7113Y4916D01*
X7120Y4915D01*
X7127Y4916D01*
X7134Y4919D01*
X7140Y4924D01*
X7144Y4929D01*
X7147Y4936D01*
X7148Y4943D01*
X7147Y4950D01*
X7144Y4957D01*
X7140Y4963D01*
X7134Y4967D01*
X7127Y4970D01*
X7120Y4971D01*
D02*
G37*
G36*
X8707Y4930D02*
X8685D01*
Y4908D01*
X8690Y4910D01*
X8699Y4916D01*
X8705Y4925D01*
X8707Y4930D01*
D02*
G37*
G36*
X5225Y4955D02*
X5216Y4954D01*
X5207Y4951D01*
X5200Y4945D01*
X5194Y4938D01*
X5191Y4929D01*
X5190Y4920D01*
X5191Y4911D01*
X5194Y4902D01*
X5200Y4895D01*
X5207Y4889D01*
X5216Y4886D01*
X5225Y4885D01*
X5234Y4886D01*
X5243Y4889D01*
X5250Y4895D01*
X5256Y4902D01*
X5259Y4911D01*
X5260Y4920D01*
X5259Y4929D01*
X5256Y4938D01*
X5250Y4945D01*
X5243Y4951D01*
X5234Y4954D01*
X5225Y4955D01*
D02*
G37*
G36*
X7265Y4944D02*
X7256Y4942D01*
X7247Y4939D01*
X7240Y4933D01*
X7234Y4926D01*
X7231Y4917D01*
X7230Y4908D01*
X7231Y4899D01*
X7234Y4891D01*
X7240Y4883D01*
X7247Y4878D01*
X7256Y4874D01*
X7265Y4873D01*
X7274Y4874D01*
X7283Y4878D01*
X7290Y4883D01*
X7296Y4891D01*
X7299Y4899D01*
X7300Y4908D01*
X7299Y4917D01*
X7296Y4926D01*
X7290Y4933D01*
X7283Y4939D01*
X7274Y4942D01*
X7265Y4944D01*
D02*
G37*
G36*
X7140Y4895D02*
Y4890D01*
X7145D01*
X7143Y4893D01*
X7140Y4895D01*
D02*
G37*
G36*
X7110D02*
X7107Y4893D01*
X7105Y4890D01*
X7110D01*
Y4895D01*
D02*
G37*
G36*
X8655Y4982D02*
X8650Y4980D01*
X8641Y4974D01*
X8635Y4965D01*
X8633Y4960D01*
X8655D01*
Y4982D01*
D02*
G37*
G36*
X4640Y5075D02*
X4631Y5074D01*
X4622Y5071D01*
X4615Y5065D01*
X4609Y5058D01*
X4606Y5049D01*
X4605Y5040D01*
X4606Y5031D01*
X4609Y5022D01*
X4615Y5015D01*
X4622Y5009D01*
X4631Y5006D01*
X4640Y5005D01*
X4649Y5006D01*
X4658Y5009D01*
X4665Y5015D01*
X4671Y5022D01*
X4674Y5031D01*
X4675Y5040D01*
X4674Y5049D01*
X4671Y5058D01*
X4665Y5065D01*
X4658Y5071D01*
X4649Y5074D01*
X4640Y5075D01*
D02*
G37*
G36*
X4007Y5060D02*
X3998Y5059D01*
X3989Y5056D01*
X3982Y5050D01*
X3976Y5043D01*
X3973Y5034D01*
X3972Y5025D01*
X3973Y5016D01*
X3976Y5007D01*
X3982Y5000D01*
X3989Y4994D01*
X3998Y4991D01*
X4007Y4990D01*
X4016Y4991D01*
X4025Y4994D01*
X4032Y5000D01*
X4037Y5007D01*
X4041Y5016D01*
X4042Y5025D01*
X4041Y5034D01*
X4037Y5043D01*
X4032Y5050D01*
X4025Y5056D01*
X4016Y5059D01*
X4007Y5060D01*
D02*
G37*
G36*
X8655Y5030D02*
X8633D01*
X8635Y5025D01*
X8641Y5016D01*
X8650Y5010D01*
X8655Y5008D01*
Y5030D01*
D02*
G37*
G36*
X8610Y5085D02*
X8530D01*
Y5005D01*
X8610D01*
Y5085D01*
D02*
G37*
G36*
X4925Y5045D02*
X4916Y5044D01*
X4907Y5041D01*
X4900Y5035D01*
X4894Y5028D01*
X4891Y5019D01*
X4890Y5010D01*
X4891Y5001D01*
X4894Y4992D01*
X4900Y4985D01*
X4907Y4979D01*
X4916Y4976D01*
X4925Y4975D01*
X4934Y4976D01*
X4943Y4979D01*
X4950Y4985D01*
X4956Y4992D01*
X4959Y5001D01*
X4960Y5010D01*
X4959Y5019D01*
X4956Y5028D01*
X4950Y5035D01*
X4943Y5041D01*
X4934Y5044D01*
X4925Y5045D01*
D02*
G37*
G36*
X8685Y4982D02*
Y4960D01*
X8707D01*
X8705Y4965D01*
X8699Y4974D01*
X8690Y4980D01*
X8685Y4982D01*
D02*
G37*
G36*
X5187Y4995D02*
X5170D01*
Y4978D01*
X5173Y4979D01*
X5180Y4985D01*
X5186Y4992D01*
X5187Y4995D01*
D02*
G37*
G36*
X5140D02*
X5123D01*
X5124Y4992D01*
X5130Y4985D01*
X5137Y4979D01*
X5140Y4978D01*
Y4995D01*
D02*
G37*
G36*
X6960Y4526D02*
Y4518D01*
X6968D01*
X6965Y4523D01*
X6960Y4526D01*
D02*
G37*
G36*
X6930D02*
X6925Y4523D01*
X6922Y4518D01*
X6930D01*
Y4526D01*
D02*
G37*
G36*
X8707Y4530D02*
X8685D01*
Y4508D01*
X8690Y4510D01*
X8699Y4516D01*
X8705Y4525D01*
X8707Y4530D01*
D02*
G37*
G36*
X5103Y4450D02*
X5095D01*
Y4442D01*
X5100Y4445D01*
X5103Y4450D01*
D02*
G37*
G36*
X5065D02*
X5057D01*
X5060Y4445D01*
X5065Y4442D01*
Y4450D01*
D02*
G37*
G36*
X8685Y4482D02*
Y4460D01*
X8707D01*
X8705Y4465D01*
X8699Y4474D01*
X8690Y4480D01*
X8685Y4482D01*
D02*
G37*
G36*
X8655D02*
X8650Y4480D01*
X8641Y4474D01*
X8635Y4465D01*
X8633Y4460D01*
X8655D01*
Y4482D01*
D02*
G37*
G36*
X3815Y4490D02*
X3806Y4489D01*
X3797Y4486D01*
X3790Y4480D01*
X3784Y4473D01*
X3781Y4464D01*
X3780Y4455D01*
X3781Y4446D01*
X3784Y4437D01*
X3790Y4430D01*
X3797Y4424D01*
X3806Y4421D01*
X3815Y4420D01*
X3824Y4421D01*
X3833Y4424D01*
X3840Y4430D01*
X3846Y4437D01*
X3849Y4446D01*
X3850Y4455D01*
X3849Y4464D01*
X3846Y4473D01*
X3840Y4480D01*
X3833Y4486D01*
X3824Y4489D01*
X3815Y4490D01*
D02*
G37*
G36*
X5065Y4488D02*
X5060Y4485D01*
X5057Y4480D01*
X5065D01*
Y4488D01*
D02*
G37*
G36*
Y4570D02*
X5056Y4569D01*
X5047Y4566D01*
X5040Y4560D01*
X5034Y4553D01*
X5031Y4544D01*
X5030Y4535D01*
X5031Y4526D01*
X5034Y4517D01*
X5040Y4510D01*
X5047Y4504D01*
X5056Y4501D01*
X5065Y4500D01*
X5074Y4501D01*
X5083Y4504D01*
X5090Y4510D01*
X5096Y4517D01*
X5099Y4526D01*
X5100Y4535D01*
X5099Y4544D01*
X5096Y4553D01*
X5090Y4560D01*
X5083Y4566D01*
X5074Y4569D01*
X5065Y4570D01*
D02*
G37*
G36*
X6620Y4590D02*
X6608Y4589D01*
X6597Y4584D01*
X6588Y4577D01*
X6581Y4568D01*
X6576Y4557D01*
X6575Y4545D01*
X6576Y4533D01*
X6581Y4522D01*
X6588Y4513D01*
X6597Y4506D01*
X6608Y4501D01*
X6620Y4500D01*
X6632Y4501D01*
X6643Y4506D01*
X6652Y4513D01*
X6659Y4522D01*
X6664Y4533D01*
X6665Y4545D01*
X6664Y4557D01*
X6659Y4568D01*
X6652Y4577D01*
X6643Y4584D01*
X6632Y4589D01*
X6620Y4590D01*
D02*
G37*
G36*
X8655Y4530D02*
X8633D01*
X8635Y4525D01*
X8641Y4516D01*
X8650Y4510D01*
X8655Y4508D01*
Y4530D01*
D02*
G37*
G36*
X8570Y4585D02*
X8560Y4584D01*
X8550Y4580D01*
X8541Y4574D01*
X8535Y4565D01*
X8531Y4555D01*
X8530Y4545D01*
X8531Y4535D01*
X8535Y4525D01*
X8541Y4516D01*
X8550Y4510D01*
X8560Y4506D01*
X8570Y4505D01*
X8580Y4506D01*
X8590Y4510D01*
X8599Y4516D01*
X8605Y4525D01*
X8609Y4535D01*
X8610Y4545D01*
X8609Y4555D01*
X8605Y4565D01*
X8599Y4574D01*
X8590Y4580D01*
X8580Y4584D01*
X8570Y4585D01*
D02*
G37*
G36*
X6930Y4488D02*
X6922D01*
X6925Y4484D01*
X6930Y4480D01*
Y4488D01*
D02*
G37*
G36*
X5095Y4488D02*
Y4480D01*
X5103D01*
X5100Y4485D01*
X5095Y4488D01*
D02*
G37*
G36*
X6505Y4590D02*
X6493Y4589D01*
X6482Y4584D01*
X6473Y4577D01*
X6466Y4568D01*
X6461Y4557D01*
X6460Y4545D01*
X6461Y4533D01*
X6466Y4522D01*
X6473Y4513D01*
X6482Y4506D01*
X6493Y4501D01*
X6505Y4500D01*
X6517Y4501D01*
X6528Y4506D01*
X6537Y4513D01*
X6544Y4522D01*
X6549Y4533D01*
X6550Y4545D01*
X6549Y4557D01*
X6544Y4568D01*
X6537Y4577D01*
X6528Y4584D01*
X6517Y4589D01*
X6505Y4590D01*
D02*
G37*
G36*
X6968Y4488D02*
X6960D01*
Y4480D01*
X6965Y4484D01*
X6968Y4488D01*
D02*
G37*
G36*
X8655Y4630D02*
X8633D01*
X8635Y4625D01*
X8641Y4616D01*
X8650Y4610D01*
X8655Y4608D01*
Y4630D01*
D02*
G37*
G36*
X8570Y4685D02*
X8560Y4684D01*
X8550Y4680D01*
X8541Y4674D01*
X8535Y4665D01*
X8531Y4655D01*
X8530Y4645D01*
X8531Y4635D01*
X8535Y4625D01*
X8541Y4616D01*
X8550Y4610D01*
X8560Y4606D01*
X8570Y4605D01*
X8580Y4606D01*
X8590Y4610D01*
X8599Y4616D01*
X8605Y4625D01*
X8609Y4635D01*
X8610Y4645D01*
X8609Y4655D01*
X8605Y4665D01*
X8599Y4674D01*
X8590Y4680D01*
X8580Y4684D01*
X8570Y4685D01*
D02*
G37*
G36*
X8707Y4630D02*
X8685D01*
Y4608D01*
X8690Y4610D01*
X8699Y4616D01*
X8705Y4625D01*
X8707Y4630D01*
D02*
G37*
G36*
X7315Y4679D02*
X7306Y4677D01*
X7297Y4674D01*
X7290Y4668D01*
X7284Y4661D01*
X7281Y4652D01*
X7280Y4643D01*
X7281Y4634D01*
X7284Y4626D01*
X7290Y4618D01*
X7297Y4613D01*
X7306Y4609D01*
X7315Y4608D01*
X7324Y4609D01*
X7333Y4613D01*
X7340Y4618D01*
X7346Y4626D01*
X7349Y4634D01*
X7350Y4643D01*
X7349Y4652D01*
X7346Y4661D01*
X7340Y4668D01*
X7333Y4674D01*
X7324Y4677D01*
X7315Y4679D01*
D02*
G37*
G36*
X6555D02*
X6546Y4677D01*
X6537Y4674D01*
X6530Y4668D01*
X6524Y4661D01*
X6521Y4652D01*
X6520Y4643D01*
X6521Y4634D01*
X6524Y4626D01*
X6530Y4618D01*
X6537Y4613D01*
X6546Y4609D01*
X6555Y4608D01*
X6564Y4609D01*
X6573Y4613D01*
X6580Y4618D01*
X6586Y4626D01*
X6589Y4634D01*
X6590Y4643D01*
X6589Y4652D01*
X6586Y4661D01*
X6580Y4668D01*
X6573Y4674D01*
X6564Y4677D01*
X6555Y4679D01*
D02*
G37*
G36*
X6365Y4634D02*
X6356Y4632D01*
X6347Y4629D01*
X6340Y4623D01*
X6334Y4616D01*
X6331Y4607D01*
X6330Y4598D01*
X6331Y4589D01*
X6334Y4581D01*
X6340Y4573D01*
X6347Y4568D01*
X6356Y4564D01*
X6365Y4563D01*
X6374Y4564D01*
X6383Y4568D01*
X6390Y4573D01*
X6396Y4581D01*
X6399Y4589D01*
X6400Y4598D01*
X6399Y4607D01*
X6396Y4616D01*
X6390Y4623D01*
X6383Y4629D01*
X6374Y4632D01*
X6365Y4634D01*
D02*
G37*
G36*
X8685Y4582D02*
Y4560D01*
X8707D01*
X8705Y4565D01*
X8699Y4574D01*
X8690Y4580D01*
X8685Y4582D01*
D02*
G37*
G36*
X4630Y4642D02*
X4621Y4641D01*
X4612Y4637D01*
X4605Y4632D01*
X4599Y4625D01*
X4596Y4616D01*
X4595Y4607D01*
X4596Y4598D01*
X4599Y4589D01*
X4605Y4582D01*
X4612Y4576D01*
X4621Y4573D01*
X4630Y4572D01*
X4639Y4573D01*
X4648Y4576D01*
X4655Y4582D01*
X4661Y4589D01*
X4664Y4598D01*
X4665Y4607D01*
X4664Y4616D01*
X4661Y4625D01*
X4655Y4632D01*
X4648Y4637D01*
X4639Y4641D01*
X4630Y4642D01*
D02*
G37*
G36*
X5425Y4640D02*
X5416Y4639D01*
X5407Y4636D01*
X5400Y4630D01*
X5394Y4623D01*
X5391Y4614D01*
X5390Y4605D01*
X5391Y4596D01*
X5394Y4587D01*
X5400Y4580D01*
X5407Y4574D01*
X5416Y4571D01*
X5425Y4570D01*
X5434Y4571D01*
X5443Y4574D01*
X5450Y4580D01*
X5456Y4587D01*
X5459Y4596D01*
X5460Y4605D01*
X5459Y4614D01*
X5456Y4623D01*
X5450Y4630D01*
X5443Y4636D01*
X5434Y4639D01*
X5425Y4640D01*
D02*
G37*
G36*
X4475Y4595D02*
X4466Y4594D01*
X4457Y4591D01*
X4450Y4585D01*
X4444Y4578D01*
X4441Y4569D01*
X4440Y4560D01*
X4441Y4551D01*
X4444Y4542D01*
X4450Y4535D01*
X4457Y4529D01*
X4466Y4526D01*
X4475Y4525D01*
X4484Y4526D01*
X4493Y4529D01*
X4500Y4535D01*
X4506Y4542D01*
X4509Y4551D01*
X4510Y4560D01*
X4509Y4569D01*
X4506Y4578D01*
X4500Y4585D01*
X4493Y4591D01*
X4484Y4594D01*
X4475Y4595D01*
D02*
G37*
G36*
X8655Y4582D02*
X8650Y4580D01*
X8641Y4574D01*
X8635Y4565D01*
X8633Y4560D01*
X8655D01*
Y4582D01*
D02*
G37*
G36*
X6930Y4609D02*
X6921Y4607D01*
X6912Y4604D01*
X6905Y4598D01*
X6899Y4591D01*
X6896Y4582D01*
X6895Y4573D01*
X6896Y4564D01*
X6899Y4556D01*
X6905Y4548D01*
X6912Y4543D01*
X6921Y4539D01*
X6930Y4538D01*
X6939Y4539D01*
X6948Y4543D01*
X6955Y4548D01*
X6961Y4556D01*
X6964Y4564D01*
X6965Y4573D01*
X6964Y4582D01*
X6961Y4591D01*
X6955Y4598D01*
X6948Y4604D01*
X6939Y4607D01*
X6930Y4609D01*
D02*
G37*
%LPD*%
D51*
X10230Y4890D02*
X10240D01*
X10450Y5110D02*
X10470D01*
D52*
X8620Y3795D02*
X8700D01*
X8570Y3845D02*
X8620Y3795D01*
X8525Y4095D02*
X8915D01*
X8570Y3745D02*
X8620Y3695D01*
X8700D01*
X8570Y3945D02*
X8620Y3895D01*
X8700D01*
X8955Y3995D02*
X8965Y4005D01*
X8620Y3995D02*
X8955D01*
X8570Y4045D02*
X8620Y3995D01*
X8490Y4060D02*
X8525Y4095D01*
X8490Y3925D02*
Y4060D01*
X8415Y3850D02*
X8490Y3925D01*
X7976Y3850D02*
X8415D01*
X7865Y3961D02*
X7976Y3850D01*
X5175Y3670D02*
X5215Y3630D01*
X5225D01*
X5175Y3670D02*
Y4275D01*
X5400Y4210D02*
X5410Y4220D01*
X5345Y4265D02*
X5400Y4210D01*
X7145Y4533D02*
X7185D01*
X7065Y4613D02*
X7145Y4533D01*
X6825Y4395D02*
X7027D01*
X7165Y4743D02*
X7217D01*
X7030Y4340D02*
X7050D01*
X7255Y4545D01*
Y4705D01*
X7217Y4743D02*
X7255Y4705D01*
X6830Y3770D02*
X6845D01*
X6790Y3810D02*
X6830Y3770D01*
X6790Y3810D02*
Y4360D01*
X6825Y4395D01*
X10430Y4435D02*
Y4460D01*
X7340Y3210D02*
X7345Y3205D01*
X10040Y3665D02*
Y3755D01*
X9600Y3440D02*
X9815D01*
X10040Y3665D01*
X9580Y3460D02*
X9600Y3440D01*
X9580Y3460D02*
Y3535D01*
X5175Y4275D02*
X5220Y4320D01*
X10360Y4090D02*
X10730Y4460D01*
X10320Y4250D02*
X10530Y4460D01*
X10303Y4308D02*
X10430Y4435D01*
X10340Y4170D02*
X10630Y4460D01*
X9410Y4425D02*
X9545D01*
X5220Y4320D02*
Y4580D01*
X5345Y4265D02*
Y4670D01*
X5270Y4710D02*
X5305D01*
X5345Y4670D01*
X7027Y4395D02*
X7070Y4438D01*
Y4455D01*
X8700Y3695D02*
X8930Y3925D01*
X9025D01*
X9105Y4005D01*
X8700Y3795D02*
X8850Y3945D01*
X9000D01*
X9060Y4005D01*
X8700Y3895D02*
X8775Y3970D01*
X8980D01*
X9015Y4005D01*
X9380Y4455D02*
Y4515D01*
Y4455D02*
X9410Y4425D01*
X9545D02*
X9610Y4490D01*
X9620D01*
X9650Y4520D02*
X9815D01*
X9620Y4490D02*
X9650Y4520D01*
X10085Y3800D02*
Y4249D01*
X10040Y3755D02*
X10085Y3800D01*
X9815Y4520D02*
X10085Y4249D01*
X10220Y3760D02*
X10303Y3843D01*
Y4308D01*
X10275Y3755D02*
Y3770D01*
X10320Y3815D01*
Y4250D01*
X10340Y3780D02*
Y4170D01*
X10320Y3760D02*
X10340Y3780D01*
X10370Y3760D02*
Y3770D01*
X10360Y3780D02*
Y4090D01*
Y3780D02*
X10370Y3770D01*
X10395Y3365D02*
X10588D01*
X10678Y3455D01*
X8915Y4095D02*
X8935Y4115D01*
X9180D01*
X9190Y4125D01*
D53*
X8885Y4870D02*
X8895Y4860D01*
X10270D02*
X10805D01*
X10240Y4890D02*
X10270Y4860D01*
X10230Y4890D02*
X10450Y5110D01*
X10805Y4860D02*
X10940Y4995D01*
X8675Y5010D02*
X8820D01*
X8890Y4940D01*
X9820D01*
X9990Y5110D01*
X7420Y3205D02*
X7505D01*
X7345D02*
X7420D01*
X8885Y4855D02*
Y4870D01*
X8925Y4890D02*
X10230D01*
X8895Y4860D02*
X8925Y4890D01*
D63*
X7865Y3961D02*
D03*
X8314Y5059D02*
D03*
D65*
X8855Y3295D02*
D03*
X8655D02*
D03*
D66*
X10678Y3455D02*
D03*
D67*
X8570Y3745D02*
D03*
Y3845D02*
D03*
Y3945D02*
D03*
Y4045D02*
D03*
X8670Y4145D02*
D03*
Y4245D02*
D03*
Y4345D02*
D03*
Y4445D02*
D03*
Y4545D02*
D03*
Y4645D02*
D03*
Y4745D02*
D03*
Y4845D02*
D03*
Y4945D02*
D03*
Y5045D02*
D03*
X10030Y4560D02*
D03*
X10130D02*
D03*
X10230D02*
D03*
X10330D02*
D03*
X10430Y4460D02*
D03*
Y4560D02*
D03*
X10530Y4460D02*
D03*
Y4560D02*
D03*
X10630Y4460D02*
D03*
Y4560D02*
D03*
X10730D02*
D03*
Y4460D02*
D03*
X9990Y5110D02*
D03*
D68*
X10940Y4235D02*
D03*
Y4995D02*
D03*
D69*
X10470Y5110D02*
D03*
D71*
X9190Y4125D02*
D03*
X9580Y3535D02*
D03*
X7125Y4875D02*
D03*
D72*
X9015Y4005D02*
D03*
X8965D02*
D03*
X9060D02*
D03*
X9105D02*
D03*
X5080Y4465D02*
D03*
X6945Y4503D02*
D03*
X7165Y4743D02*
D03*
X7185Y4533D02*
D03*
X7065Y4613D02*
D03*
X10220Y3760D02*
D03*
X5220Y4580D02*
D03*
X5270Y4710D02*
D03*
X7070Y4455D02*
D03*
X9200Y3795D02*
D03*
X9380Y4515D02*
D03*
X10055Y4005D02*
D03*
X10275Y3755D02*
D03*
X10320Y3760D02*
D03*
X10370D02*
D03*
X10395Y3365D02*
D03*
D73*
X10615Y3615D02*
D03*
X10090Y3225D02*
D03*
X5840Y3830D02*
D03*
X5225Y3630D02*
D03*
X3415Y4035D02*
D03*
X3515D02*
D03*
X3360Y2915D02*
D03*
X3460D02*
D03*
X5155Y5010D02*
D03*
X7045Y5048D02*
D03*
X5400Y4210D02*
D03*
X7030Y4340D02*
D03*
X6845Y3770D02*
D03*
X7425Y3975D02*
D03*
X5650Y3095D02*
D03*
X5740Y3090D02*
D03*
D74*
X7420Y3205D02*
D03*
X7340Y3210D02*
D03*
X7505Y3205D02*
D03*
X8885Y4855D02*
D03*
D75*
X5235Y4835D02*
D03*
M02*
