G04*
G04 #@! TF.GenerationSoftware,Altium Limited,Altium Designer,18.1.7 (191)*
G04*
G04 Layer_Physical_Order=1*
G04 Layer_Color=255*
%FSLAX23Y23*%
%MOIN*%
G70*
G01*
G75*
%ADD18O,0.041X0.024*%
%ADD19R,0.037X0.024*%
%ADD20R,0.170X0.211*%
%ADD21R,0.054X0.028*%
%ADD22R,0.175X0.178*%
%ADD23C,0.020*%
%ADD24C,0.010*%
%ADD25C,0.030*%
%ADD26R,0.059X0.059*%
%ADD27C,0.059*%
%ADD28R,0.059X0.059*%
D18*
X2057Y1322D02*
D03*
Y1285D02*
D03*
Y1248D02*
D03*
X1953Y1322D02*
D03*
Y1285D02*
D03*
Y1248D02*
D03*
D19*
X1325Y1450D02*
D03*
Y1399D02*
D03*
Y1349D02*
D03*
Y1300D02*
D03*
D20*
X1181Y1376D02*
D03*
D21*
X1338Y1080D02*
D03*
Y1130D02*
D03*
Y1180D02*
D03*
Y1230D02*
D03*
D22*
X1180Y1155D02*
D03*
D23*
X1440Y1550D02*
X1120D01*
X1060Y1490D01*
Y1050D02*
Y1490D01*
X1075Y1035D02*
X1060Y1050D01*
X1615Y1035D02*
X1075D01*
X1635Y1055D02*
X1615Y1035D01*
X1181Y1156D02*
Y1376D01*
X1306Y1500D02*
X1181Y1376D01*
X1985Y1500D02*
X1306D01*
X2055Y1430D02*
X1985Y1500D01*
D24*
X1181Y1156D02*
X1180Y1155D01*
X2130Y1285D02*
X2057D01*
X2149Y1305D02*
X2130Y1285D01*
X2260Y1305D02*
X2149D01*
X2305Y1260D02*
X2260Y1305D01*
X1560Y1330D02*
X1440Y1450D01*
X1480Y1285D02*
X1455Y1260D01*
X1338Y1080D02*
X1305D01*
X1290Y1095D01*
Y1250D01*
X1300Y1260D02*
X1290Y1250D01*
X1455Y1260D02*
X1300D01*
X1465Y1300D02*
X1325D01*
X1480Y1285D02*
X1465Y1300D01*
X1445Y1145D02*
X1430Y1130D01*
X1953Y1285D02*
X1580D01*
X1710Y1330D02*
X1560D01*
X1500Y1200D02*
X1445Y1145D01*
X1640Y1200D02*
X1500D01*
X1730Y1110D02*
X1640Y1200D01*
X1830Y1230D02*
X1710D01*
X1830Y1110D02*
Y1230D01*
X1848Y1248D02*
X1830Y1230D01*
X1953Y1248D02*
X1848D01*
X1838Y1322D02*
X1830Y1330D01*
X1953Y1322D02*
X1838D01*
X1325Y1450D02*
X1325Y1450D01*
X1955Y1430D02*
X1953Y1428D01*
Y1322D02*
Y1428D01*
X2173Y1248D02*
X2057D01*
X2185Y1260D02*
X2173Y1248D01*
D25*
X2125Y1322D02*
X2057D01*
X2137Y1335D02*
X2125Y1322D01*
X2160Y1335D02*
X2137D01*
X2185Y1360D02*
X2160Y1335D01*
X1635Y1055D02*
X1545Y1145D01*
X2100Y1055D02*
X1635D01*
X2305Y1260D02*
X2100Y1055D01*
X2425Y1260D02*
X2305D01*
X1338Y1180D02*
Y1230D01*
Y1130D02*
Y1180D01*
X1430Y1130D02*
X1338D01*
X1325Y1349D02*
Y1399D01*
Y1450D01*
X1440Y1450D02*
X1325D01*
X2115Y1430D02*
X2055D01*
X2185Y1360D02*
X2115Y1430D01*
X2305Y1360D02*
X2185D01*
X2425D02*
X2305D01*
D26*
X1830Y1110D02*
D03*
X1480Y1285D02*
D03*
X2055Y1430D02*
D03*
X1445Y1145D02*
D03*
D27*
X1730Y1110D02*
D03*
X1710Y1230D02*
D03*
X1580Y1285D02*
D03*
X2185Y1360D02*
D03*
X2305D02*
D03*
X2425D02*
D03*
X1955Y1430D02*
D03*
X1440Y1550D02*
D03*
X1545Y1145D02*
D03*
X1830Y1230D02*
D03*
D28*
X1710Y1330D02*
D03*
X2185Y1260D02*
D03*
X2305D02*
D03*
X2425D02*
D03*
X1440Y1450D02*
D03*
X1830Y1330D02*
D03*
M02*
