G04 Layer_Color=16711935*
%FSLAX23Y23*%
%MOIN*%
G70*
G01*
G75*
%ADD72C,0.035*%
%ADD74C,0.075*%
%ADD124C,0.162*%
%ADD125C,0.072*%
%ADD126C,0.065*%
%ADD127C,0.080*%
%ADD128C,0.103*%
%ADD129C,0.068*%
%ADD130C,0.076*%
%ADD131C,0.065*%
%ADD132R,0.065X0.065*%
%ADD133R,0.065X0.065*%
%ADD134C,0.062*%
%ADD135C,0.005*%
%ADD136C,0.040*%
%ADD137C,0.055*%
%ADD138C,0.080*%
%ADD139C,0.039*%
D72*
X9795Y4450D02*
D03*
X9630Y3585D02*
D03*
X9190Y4125D02*
D03*
X9605Y4420D02*
D03*
X9620Y4460D02*
D03*
X9750Y4420D02*
D03*
X10275Y3885D02*
D03*
X5223Y4728D02*
D03*
X7115Y4765D02*
D03*
X10275Y4015D02*
D03*
X10030Y3895D02*
D03*
X10415Y3770D02*
D03*
X9685Y3545D02*
D03*
X9725Y3560D02*
D03*
X9770Y3570D02*
D03*
X10230Y3525D02*
D03*
X9580Y3535D02*
D03*
X9605Y3615D02*
D03*
X9237Y3862D02*
D03*
X9205Y3884D02*
D03*
X7125Y4875D02*
D03*
X9730Y4460D02*
D03*
X9200Y3845D02*
D03*
X9500Y4550D02*
D03*
X10035Y3935D02*
D03*
X10010Y3965D02*
D03*
X9635Y3545D02*
D03*
X10330Y3525D02*
D03*
D74*
X8245Y2500D02*
D03*
X6620Y4545D02*
D03*
X6505D02*
D03*
D124*
X7610Y2345D02*
D03*
X4541Y2350D02*
D03*
X6089Y2347D02*
D03*
X5180Y2350D02*
D03*
D125*
X7551Y2633D02*
D03*
X7669D02*
D03*
Y2515D02*
D03*
X7551D02*
D03*
X4482Y2638D02*
D03*
X4600D02*
D03*
Y2520D02*
D03*
X4482D02*
D03*
X6030Y2635D02*
D03*
X6148D02*
D03*
Y2517D02*
D03*
X6030D02*
D03*
X5121Y2638D02*
D03*
X5239D02*
D03*
Y2520D02*
D03*
X5121D02*
D03*
D126*
X8160Y2700D02*
D03*
Y2600D02*
D03*
Y2500D02*
D03*
Y2400D02*
D03*
D127*
X7660Y4110D02*
D03*
Y4260D02*
D03*
X8164Y3961D02*
D03*
X8014D02*
D03*
X7865D02*
D03*
X7715Y5059D02*
D03*
X8014D02*
D03*
X8164D02*
D03*
X8314D02*
D03*
D128*
Y3961D02*
D03*
X7715D02*
D03*
D129*
X8855Y3295D02*
D03*
X8755D02*
D03*
X8655D02*
D03*
D130*
X10678Y3455D02*
D03*
Y2963D02*
D03*
X10875Y3455D02*
D03*
Y2963D02*
D03*
D131*
X8670Y3745D02*
D03*
X8570D02*
D03*
X8670Y3845D02*
D03*
X8570D02*
D03*
X8670Y3945D02*
D03*
X8570D02*
D03*
X8670Y4045D02*
D03*
X8570D02*
D03*
X8670Y4145D02*
D03*
X8570D02*
D03*
X8670Y4245D02*
D03*
X8570D02*
D03*
X8670Y4345D02*
D03*
X8570D02*
D03*
X8670Y4445D02*
D03*
X8570D02*
D03*
X8670Y4545D02*
D03*
X8570D02*
D03*
X8670Y4645D02*
D03*
X8570D02*
D03*
X8670Y4745D02*
D03*
X8570D02*
D03*
X8670Y4845D02*
D03*
X8570D02*
D03*
X8670Y4945D02*
D03*
X8570D02*
D03*
X8670Y5045D02*
D03*
X9990Y2965D02*
D03*
Y2865D02*
D03*
X9890Y2965D02*
D03*
Y2865D02*
D03*
X9790Y2965D02*
D03*
Y2865D02*
D03*
X9690Y2965D02*
D03*
Y2865D02*
D03*
X9590Y2965D02*
D03*
Y2865D02*
D03*
X9490Y2965D02*
D03*
Y2865D02*
D03*
X9390Y2965D02*
D03*
Y2865D02*
D03*
X9290Y2965D02*
D03*
Y2865D02*
D03*
X9190Y2965D02*
D03*
Y2865D02*
D03*
X9090Y2965D02*
D03*
X10030Y4460D02*
D03*
Y4560D02*
D03*
Y4660D02*
D03*
X10130Y4460D02*
D03*
Y4560D02*
D03*
Y4660D02*
D03*
X10230Y4460D02*
D03*
Y4560D02*
D03*
Y4660D02*
D03*
X10330Y4460D02*
D03*
Y4560D02*
D03*
Y4660D02*
D03*
X10430Y4460D02*
D03*
Y4560D02*
D03*
Y4660D02*
D03*
X10530Y4460D02*
D03*
Y4560D02*
D03*
Y4660D02*
D03*
X10630Y4460D02*
D03*
Y4560D02*
D03*
Y4660D02*
D03*
X10730D02*
D03*
Y4560D02*
D03*
Y4460D02*
D03*
X9795Y5010D02*
D03*
X9695Y5110D02*
D03*
Y5010D02*
D03*
X9595Y5110D02*
D03*
Y5010D02*
D03*
X9495Y5110D02*
D03*
Y5010D02*
D03*
X9395Y5110D02*
D03*
Y5010D02*
D03*
X9295Y5110D02*
D03*
Y5010D02*
D03*
X9195Y5110D02*
D03*
Y5010D02*
D03*
X9095Y5110D02*
D03*
Y5010D02*
D03*
X8995Y5110D02*
D03*
Y5010D02*
D03*
X10940Y4335D02*
D03*
Y4435D02*
D03*
Y4535D02*
D03*
Y4895D02*
D03*
Y4795D02*
D03*
Y4695D02*
D03*
X10190Y5110D02*
D03*
X10090D02*
D03*
X9990D02*
D03*
X10570D02*
D03*
X10670D02*
D03*
X10770D02*
D03*
D132*
X8570Y5045D02*
D03*
X10940Y4235D02*
D03*
Y4995D02*
D03*
D133*
X9090Y2865D02*
D03*
X9795Y5110D02*
D03*
X10290D02*
D03*
X10470D02*
D03*
D134*
X10955Y4043D02*
D03*
Y3847D02*
D03*
D135*
X11061Y4083D02*
D03*
Y3807D02*
D03*
X3380Y2480D02*
D03*
X3345Y4990D02*
D03*
X10755Y2480D02*
D03*
D136*
X9440Y3550D02*
D03*
X9015Y4005D02*
D03*
X8965D02*
D03*
X9060D02*
D03*
X9105D02*
D03*
X5080Y4465D02*
D03*
X4470Y4720D02*
D03*
X6945Y4503D02*
D03*
X7120Y4943D02*
D03*
X6360Y4758D02*
D03*
X7165Y4743D02*
D03*
X7185Y4533D02*
D03*
X7065Y4613D02*
D03*
X7115Y4493D02*
D03*
X10595Y3830D02*
D03*
X10590Y4040D02*
D03*
X10505Y4105D02*
D03*
X10455D02*
D03*
X9945Y4455D02*
D03*
X10220Y3760D02*
D03*
X9150Y4155D02*
D03*
X5220Y4640D02*
D03*
X7115Y4680D02*
D03*
X9530Y4580D02*
D03*
X9795Y4760D02*
D03*
X5305Y4815D02*
D03*
X5220Y4580D02*
D03*
X5320Y4740D02*
D03*
X5270Y4710D02*
D03*
X6700Y4810D02*
D03*
X7070Y4455D02*
D03*
X7195Y4785D02*
D03*
Y4855D02*
D03*
X9200Y3795D02*
D03*
X9380Y4515D02*
D03*
X9600Y4520D02*
D03*
X10055Y4005D02*
D03*
X10115Y3760D02*
D03*
X10275Y3755D02*
D03*
X10320Y3760D02*
D03*
X10370D02*
D03*
X10395Y3365D02*
D03*
X9490Y3425D02*
D03*
X9180Y4190D02*
D03*
X9215Y4085D02*
D03*
D137*
X4270Y2880D02*
D03*
X4213Y4028D02*
D03*
X4255Y2995D02*
D03*
X8795Y3615D02*
D03*
X5845Y2715D02*
D03*
X4540Y2920D02*
D03*
X4955Y2725D02*
D03*
X4960Y2920D02*
D03*
X4770Y3450D02*
D03*
X4470Y4390D02*
D03*
X4585Y3685D02*
D03*
X4580Y4380D02*
D03*
X10615Y3615D02*
D03*
X10090Y3225D02*
D03*
X9780Y3180D02*
D03*
X5840Y3830D02*
D03*
Y4065D02*
D03*
X5225Y3630D02*
D03*
X5260Y4445D02*
D03*
X5100Y3630D02*
D03*
X6365Y4598D02*
D03*
X3815Y4455D02*
D03*
X3670Y4795D02*
D03*
X3955Y4280D02*
D03*
X4135Y4825D02*
D03*
X3415Y4035D02*
D03*
X3515D02*
D03*
X4007Y5025D02*
D03*
X3952Y3905D02*
D03*
X3615Y3675D02*
D03*
X3360Y2915D02*
D03*
X3460D02*
D03*
X3895Y3160D02*
D03*
X3760Y3335D02*
D03*
X4080Y3705D02*
D03*
X5375Y4870D02*
D03*
X5425Y4605D02*
D03*
X4640Y5040D02*
D03*
X8755Y3160D02*
D03*
X5155Y5010D02*
D03*
X4925D02*
D03*
X5065Y4535D02*
D03*
X4475Y4560D02*
D03*
X4540Y4820D02*
D03*
X6430Y4858D02*
D03*
X6930Y4573D02*
D03*
X7265Y4908D02*
D03*
X6530Y5078D02*
D03*
X7315Y4643D02*
D03*
X6555D02*
D03*
X7045Y5048D02*
D03*
X5400Y4210D02*
D03*
X5085Y4205D02*
D03*
X4810Y4680D02*
D03*
X4630Y4607D02*
D03*
X4805Y4340D02*
D03*
X5075D02*
D03*
X6705Y4725D02*
D03*
X6030Y4425D02*
D03*
X6365Y3495D02*
D03*
X6200Y3735D02*
D03*
X7030Y4340D02*
D03*
X6710Y3770D02*
D03*
X6845D02*
D03*
X6710Y4350D02*
D03*
X7425Y3975D02*
D03*
Y4230D02*
D03*
X10725Y3715D02*
D03*
X10870Y4000D02*
D03*
X9140Y3550D02*
D03*
X10765Y4995D02*
D03*
X10620Y4990D02*
D03*
X10470D02*
D03*
X8870Y3675D02*
D03*
X4535Y2725D02*
D03*
X5650Y3095D02*
D03*
X5740Y3090D02*
D03*
X5840Y2890D02*
D03*
X8505Y3615D02*
D03*
X10025Y3175D02*
D03*
X9810Y3500D02*
D03*
X6815Y5048D02*
D03*
X10025Y4090D02*
D03*
X9855Y4780D02*
D03*
X5225Y4920D02*
D03*
X4795Y4765D02*
D03*
X9237Y3650D02*
D03*
X10235Y2790D02*
D03*
X10335Y2805D02*
D03*
D138*
X6180Y4425D02*
D03*
X7420Y3205D02*
D03*
X7340Y3210D02*
D03*
X7505Y3205D02*
D03*
X8885Y4855D02*
D03*
D139*
X5235Y4835D02*
D03*
M02*
