G04 Layer_Physical_Order=1*
G04 Layer_Color=255*
%FSLAX23Y23*%
%MOIN*%
G70*
G01*
G75*
%ADD10R,0.136X0.065*%
%ADD11O,0.063X0.016*%
%ADD12R,0.063X0.016*%
%ADD13R,0.178X0.175*%
%ADD14R,0.028X0.054*%
%ADD15R,0.066X0.065*%
%ADD16O,0.063X0.018*%
%ADD17R,0.043X0.067*%
%ADD18R,0.110X0.031*%
%ADD19R,0.140X0.382*%
%ADD20R,0.035X0.028*%
%ADD21O,0.057X0.024*%
%ADD22R,0.067X0.043*%
%ADD23R,0.028X0.035*%
%ADD24C,0.010*%
%ADD25C,0.030*%
%ADD26R,0.031X0.315*%
%ADD27R,0.055X0.398*%
%ADD28R,0.146X0.382*%
%ADD29C,0.060*%
%ADD30C,0.098*%
%ADD31C,0.160*%
%ADD32C,0.059*%
%ADD33R,0.059X0.059*%
%ADD34R,0.059X0.059*%
%ADD35C,0.050*%
G36*
X5920Y2092D02*
X5918Y2096D01*
X5914Y2102D01*
X5912Y2104D01*
X5912Y2107D01*
X5911Y2115D01*
X5907Y2120D01*
X5911Y2125D01*
X5912Y2133D01*
X5911Y2140D01*
X5907Y2146D01*
X5911Y2151D01*
X5912Y2158D01*
X5911Y2166D01*
X5907Y2172D01*
X5900Y2176D01*
X5893Y2178D01*
X5886D01*
Y2191D01*
X5891Y2197D01*
X5894Y2206D01*
X5895Y2215D01*
X5894Y2224D01*
X5891Y2233D01*
X5885Y2240D01*
X5878Y2246D01*
X5869Y2249D01*
X5860Y2250D01*
X5851Y2249D01*
X5842Y2246D01*
X5835Y2240D01*
X5829Y2233D01*
X5829Y2232D01*
X5778D01*
Y2248D01*
X5692D01*
Y2230D01*
X5670D01*
Y2258D01*
X5606D01*
Y2172D01*
X5670D01*
Y2200D01*
X5692D01*
Y2185D01*
X5778D01*
Y2201D01*
X5828D01*
X5829Y2197D01*
X5835Y2190D01*
X5842Y2184D01*
X5851Y2181D01*
X5855Y2180D01*
Y2178D01*
X5848D01*
X5840Y2176D01*
X5834Y2172D01*
X5830Y2166D01*
X5828Y2158D01*
X5830Y2151D01*
X5834Y2146D01*
X5830Y2140D01*
X5828Y2133D01*
X5830Y2125D01*
X5832Y2122D01*
X5778D01*
Y2142D01*
X5692D01*
Y2125D01*
X5669D01*
Y2138D01*
X5621D01*
Y2082D01*
X5669D01*
Y2095D01*
X5692D01*
Y2078D01*
X5778D01*
Y2092D01*
X5821D01*
X5820Y2089D01*
X5819Y2082D01*
X5820Y2074D01*
X5823Y2067D01*
X5827Y2061D01*
X5833Y2056D01*
X5840Y2053D01*
X5848Y2053D01*
X5850D01*
Y2082D01*
X5890D01*
Y2053D01*
X5893D01*
X5901Y2053D01*
X5908Y2056D01*
X5914Y2061D01*
X5918Y2067D01*
X5920Y2071D01*
Y1025D01*
X1525D01*
Y4975D01*
X5920D01*
Y2092D01*
D02*
G37*
G36*
X6972Y3000D02*
X6975Y2996D01*
X6975Y2876D01*
X6970Y2875D01*
X6968Y2883D01*
X6960Y2898D01*
X6948Y2912D01*
X6935Y2923D01*
X6919Y2932D01*
X6902Y2937D01*
X6884Y2938D01*
X6867Y2937D01*
X6850Y2932D01*
X6834Y2923D01*
X6820Y2912D01*
X6809Y2898D01*
X6801Y2883D01*
X6796Y2866D01*
X6794Y2848D01*
X6796Y2830D01*
X6801Y2813D01*
X6809Y2798D01*
X6820Y2784D01*
X6834Y2773D01*
X6850Y2764D01*
X6867Y2759D01*
X6884Y2758D01*
X6902Y2759D01*
X6919Y2764D01*
X6935Y2773D01*
X6948Y2784D01*
X6960Y2798D01*
X6968Y2813D01*
X6970Y2821D01*
X6975Y2820D01*
X6975Y1244D01*
X6970Y1243D01*
X6968Y1250D01*
X6960Y1266D01*
X6948Y1280D01*
X6935Y1291D01*
X6919Y1299D01*
X6902Y1304D01*
X6884Y1306D01*
X6867Y1304D01*
X6850Y1299D01*
X6834Y1291D01*
X6820Y1280D01*
X6809Y1266D01*
X6801Y1250D01*
X6796Y1233D01*
X6794Y1216D01*
X6796Y1198D01*
X6801Y1181D01*
X6809Y1165D01*
X6820Y1152D01*
X6834Y1141D01*
X6850Y1132D01*
X6867Y1127D01*
X6884Y1125D01*
X6902Y1127D01*
X6919Y1132D01*
X6935Y1141D01*
X6948Y1152D01*
X6960Y1165D01*
X6968Y1181D01*
X6970Y1188D01*
X6975Y1187D01*
X6975Y1025D01*
X5940D01*
X5940Y3000D01*
X6972Y3000D01*
D02*
G37*
G36*
X6975Y4842D02*
X6970Y4842D01*
X6968Y4849D01*
X6960Y4865D01*
X6948Y4878D01*
X6935Y4889D01*
X6919Y4898D01*
X6902Y4903D01*
X6884Y4905D01*
X6867Y4903D01*
X6850Y4898D01*
X6834Y4889D01*
X6820Y4878D01*
X6809Y4865D01*
X6801Y4849D01*
X6796Y4832D01*
X6794Y4814D01*
X6796Y4797D01*
X6801Y4780D01*
X6809Y4764D01*
X6820Y4750D01*
X6834Y4739D01*
X6850Y4731D01*
X6867Y4726D01*
X6884Y4724D01*
X6902Y4726D01*
X6919Y4731D01*
X6935Y4739D01*
X6948Y4750D01*
X6960Y4764D01*
X6968Y4780D01*
X6970Y4787D01*
X6975Y4786D01*
X6976Y3208D01*
X6971Y3207D01*
X6968Y3217D01*
X6960Y3232D01*
X6948Y3246D01*
X6935Y3257D01*
X6919Y3266D01*
X6902Y3271D01*
X6884Y3272D01*
X6867Y3271D01*
X6850Y3266D01*
X6834Y3257D01*
X6820Y3246D01*
X6809Y3232D01*
X6801Y3217D01*
X6796Y3200D01*
X6794Y3182D01*
X6796Y3164D01*
X6801Y3147D01*
X6809Y3132D01*
X6820Y3118D01*
X6834Y3107D01*
X6850Y3098D01*
X6867Y3093D01*
X6884Y3092D01*
X6902Y3093D01*
X6919Y3098D01*
X6935Y3107D01*
X6948Y3118D01*
X6960Y3132D01*
X6968Y3147D01*
X6971Y3157D01*
X6976Y3157D01*
X6976Y3054D01*
X6972Y3050D01*
X5940Y3050D01*
X5940Y4940D01*
Y4975D01*
X6975Y4975D01*
X6975Y4842D01*
D02*
G37*
%LPC*%
G36*
X5775Y2480D02*
X5705D01*
Y2289D01*
X5775D01*
Y2480D01*
D02*
G37*
G36*
X4480Y2345D02*
X4475Y2343D01*
X4465Y2335D01*
X4457Y2325D01*
X4455Y2320D01*
X4480D01*
Y2345D01*
D02*
G37*
G36*
X4520D02*
Y2320D01*
X4545D01*
X4543Y2325D01*
X4535Y2335D01*
X4525Y2343D01*
X4520Y2345D01*
D02*
G37*
G36*
X4400Y2340D02*
X4390Y2339D01*
X4380Y2335D01*
X4372Y2328D01*
X4365Y2320D01*
X4361Y2310D01*
X4360Y2300D01*
X4361Y2290D01*
X4365Y2280D01*
X4372Y2272D01*
X4380Y2265D01*
X4390Y2261D01*
X4400Y2260D01*
X4410Y2261D01*
X4420Y2265D01*
X4428Y2272D01*
X4435Y2280D01*
X4439Y2290D01*
X4440Y2300D01*
X4439Y2310D01*
X4435Y2320D01*
X4428Y2328D01*
X4420Y2335D01*
X4410Y2339D01*
X4400Y2340D01*
D02*
G37*
G36*
X2035Y2335D02*
X2026Y2334D01*
X2017Y2331D01*
X2010Y2325D01*
X2004Y2318D01*
X2001Y2309D01*
X2000Y2300D01*
X2001Y2291D01*
X2002Y2287D01*
X1584Y1868D01*
X1564D01*
X1557Y1867D01*
X1551Y1863D01*
X1547Y1857D01*
X1545Y1850D01*
X1547Y1843D01*
X1551Y1837D01*
X1547Y1832D01*
X1545Y1825D01*
X1547Y1818D01*
X1551Y1812D01*
X1547Y1806D01*
X1545Y1799D01*
X1547Y1792D01*
X1551Y1786D01*
X1547Y1780D01*
X1545Y1773D01*
X1547Y1766D01*
X1551Y1760D01*
X1557Y1757D01*
X1564Y1755D01*
X1572D01*
Y1579D01*
X1573Y1573D01*
X1576Y1568D01*
X1686Y1459D01*
X1672D01*
Y1374D01*
X1828D01*
Y1458D01*
X1974Y1604D01*
X2003D01*
X2007Y1597D01*
X2014Y1588D01*
X2023Y1581D01*
X2033Y1575D01*
X2045Y1572D01*
X2056Y1571D01*
X2068Y1572D01*
X2079Y1575D01*
X2089Y1581D01*
X2098Y1588D01*
X2106Y1597D01*
X2109Y1604D01*
X2345D01*
X2352Y1597D01*
Y1548D01*
X2438D01*
Y1633D01*
X2389D01*
X2374Y1648D01*
X2366Y1653D01*
X2356Y1655D01*
X2110D01*
X2106Y1663D01*
X2098Y1672D01*
X2089Y1679D01*
X2079Y1685D01*
X2068Y1688D01*
X2056Y1689D01*
X2045Y1688D01*
X2033Y1685D01*
X2023Y1679D01*
X2014Y1672D01*
X2007Y1663D01*
X2002Y1655D01*
X1963D01*
X1954Y1653D01*
X1945Y1648D01*
X1757Y1459D01*
X1729D01*
X1603Y1586D01*
Y1755D01*
X1611D01*
X1618Y1757D01*
X1624Y1760D01*
X1628Y1766D01*
X1629Y1773D01*
X1628Y1780D01*
X1624Y1786D01*
X1628Y1792D01*
X1629Y1799D01*
X1628Y1806D01*
X1624Y1812D01*
X1628Y1818D01*
X1629Y1825D01*
X1628Y1832D01*
X1624Y1837D01*
X1628Y1843D01*
X1629Y1850D01*
X1628Y1857D01*
X1624Y1863D01*
X1623Y1864D01*
X2025Y2266D01*
X2026Y2266D01*
X2035Y2265D01*
X2044Y2266D01*
X2053Y2269D01*
X2060Y2275D01*
X2066Y2282D01*
X2069Y2291D01*
X2070Y2300D01*
X2069Y2309D01*
X2066Y2318D01*
X2060Y2325D01*
X2053Y2331D01*
X2044Y2334D01*
X2035Y2335D01*
D02*
G37*
G36*
X5665Y2480D02*
X5595D01*
Y2289D01*
X5665D01*
Y2480D01*
D02*
G37*
G36*
X4480Y2445D02*
X4475Y2443D01*
X4465Y2435D01*
X4457Y2425D01*
X4455Y2420D01*
X4480D01*
Y2445D01*
D02*
G37*
G36*
X4520D02*
Y2420D01*
X4545D01*
X4543Y2425D01*
X4535Y2435D01*
X4525Y2443D01*
X4520Y2445D01*
D02*
G37*
G36*
X4400Y2440D02*
X4390Y2439D01*
X4380Y2435D01*
X4372Y2428D01*
X4365Y2420D01*
X4361Y2410D01*
X4360Y2400D01*
X4361Y2390D01*
X4365Y2380D01*
X4372Y2372D01*
X4380Y2365D01*
X4390Y2361D01*
X4400Y2360D01*
X4410Y2361D01*
X4420Y2365D01*
X4428Y2372D01*
X4435Y2380D01*
X4439Y2390D01*
X4440Y2400D01*
X4439Y2410D01*
X4435Y2420D01*
X4428Y2428D01*
X4420Y2435D01*
X4410Y2439D01*
X4400Y2440D01*
D02*
G37*
G36*
X4480Y2380D02*
X4455D01*
X4457Y2375D01*
X4465Y2365D01*
X4475Y2357D01*
X4480Y2355D01*
Y2380D01*
D02*
G37*
G36*
X4545D02*
X4520D01*
Y2355D01*
X4525Y2357D01*
X4535Y2365D01*
X4543Y2375D01*
X4545Y2380D01*
D02*
G37*
G36*
X5512Y2195D02*
X5490D01*
Y2162D01*
X5512D01*
Y2195D01*
D02*
G37*
G36*
X5574D02*
X5552D01*
Y2162D01*
X5574D01*
Y2195D01*
D02*
G37*
G36*
X4480Y2245D02*
X4475Y2243D01*
X4465Y2235D01*
X4457Y2225D01*
X4455Y2220D01*
X4480D01*
Y2245D01*
D02*
G37*
G36*
Y2180D02*
X4455D01*
X4457Y2175D01*
X4465Y2165D01*
X4475Y2157D01*
X4480Y2155D01*
Y2180D01*
D02*
G37*
G36*
X4545D02*
X4520D01*
Y2155D01*
X4525Y2157D01*
X4535Y2165D01*
X4543Y2175D01*
X4545Y2180D01*
D02*
G37*
G36*
X4400Y2240D02*
X4390Y2239D01*
X4380Y2235D01*
X4372Y2228D01*
X4365Y2220D01*
X4361Y2210D01*
X4360Y2200D01*
X4361Y2190D01*
X4365Y2180D01*
X4372Y2172D01*
X4380Y2165D01*
X4390Y2161D01*
X4400Y2160D01*
X4410Y2161D01*
X4420Y2165D01*
X4428Y2172D01*
X4435Y2180D01*
X4439Y2190D01*
X4440Y2200D01*
X4439Y2210D01*
X4435Y2220D01*
X4428Y2228D01*
X4420Y2235D01*
X4410Y2239D01*
X4400Y2240D01*
D02*
G37*
G36*
X4520Y2245D02*
Y2220D01*
X4545D01*
X4543Y2225D01*
X4535Y2235D01*
X4525Y2243D01*
X4520Y2245D01*
D02*
G37*
G36*
X4480Y2280D02*
X4455D01*
X4457Y2275D01*
X4465Y2265D01*
X4475Y2257D01*
X4480Y2255D01*
Y2280D01*
D02*
G37*
G36*
X4545D02*
X4520D01*
Y2255D01*
X4525Y2257D01*
X4535Y2265D01*
X4543Y2275D01*
X4545Y2280D01*
D02*
G37*
G36*
X5512Y2268D02*
X5490D01*
Y2235D01*
X5512D01*
Y2268D01*
D02*
G37*
G36*
X5574D02*
X5552D01*
Y2235D01*
X5574D01*
Y2268D01*
D02*
G37*
G36*
X4520Y2645D02*
Y2620D01*
X4545D01*
X4543Y2625D01*
X4535Y2635D01*
X4525Y2643D01*
X4520Y2645D01*
D02*
G37*
G36*
X4400Y2640D02*
X4390Y2639D01*
X4380Y2635D01*
X4372Y2628D01*
X4365Y2620D01*
X4361Y2610D01*
X4360Y2600D01*
X4361Y2590D01*
X4365Y2580D01*
X4372Y2572D01*
X4380Y2565D01*
X4390Y2561D01*
X4400Y2560D01*
X4410Y2561D01*
X4420Y2565D01*
X4428Y2572D01*
X4435Y2580D01*
X4439Y2590D01*
X4440Y2600D01*
X4439Y2610D01*
X4435Y2620D01*
X4428Y2628D01*
X4420Y2635D01*
X4410Y2639D01*
X4400Y2640D01*
D02*
G37*
G36*
X4480Y2645D02*
X4475Y2643D01*
X4465Y2635D01*
X4457Y2625D01*
X4455Y2620D01*
X4480D01*
Y2645D01*
D02*
G37*
G36*
Y2745D02*
X4475Y2743D01*
X4465Y2735D01*
X4457Y2725D01*
X4455Y2720D01*
X4480D01*
Y2745D01*
D02*
G37*
G36*
Y2680D02*
X4455D01*
X4457Y2675D01*
X4465Y2665D01*
X4475Y2657D01*
X4480Y2655D01*
Y2680D01*
D02*
G37*
G36*
X4545D02*
X4520D01*
Y2655D01*
X4525Y2657D01*
X4535Y2665D01*
X4543Y2675D01*
X4545Y2680D01*
D02*
G37*
G36*
X4400Y2740D02*
X4390Y2739D01*
X4380Y2735D01*
X4372Y2728D01*
X4365Y2720D01*
X4361Y2710D01*
X4360Y2700D01*
X4361Y2690D01*
X4365Y2680D01*
X4372Y2672D01*
X4380Y2665D01*
X4390Y2661D01*
X4400Y2660D01*
X4410Y2661D01*
X4420Y2665D01*
X4428Y2672D01*
X4435Y2680D01*
X4439Y2690D01*
X4440Y2700D01*
X4439Y2710D01*
X4435Y2720D01*
X4428Y2728D01*
X4420Y2735D01*
X4410Y2739D01*
X4400Y2740D01*
D02*
G37*
G36*
X4545Y2580D02*
X4520D01*
Y2555D01*
X4525Y2557D01*
X4535Y2565D01*
X4543Y2575D01*
X4545Y2580D01*
D02*
G37*
G36*
X4480Y2545D02*
X4475Y2543D01*
X4465Y2535D01*
X4457Y2525D01*
X4455Y2520D01*
X4480D01*
Y2545D01*
D02*
G37*
G36*
X4520D02*
Y2520D01*
X4545D01*
X4543Y2525D01*
X4535Y2535D01*
X4525Y2543D01*
X4520Y2545D01*
D02*
G37*
G36*
X4480Y2480D02*
X4455D01*
X4457Y2475D01*
X4465Y2465D01*
X4475Y2457D01*
X4480Y2455D01*
Y2480D01*
D02*
G37*
G36*
X4545D02*
X4520D01*
Y2455D01*
X4525Y2457D01*
X4535Y2465D01*
X4543Y2475D01*
X4545Y2480D01*
D02*
G37*
G36*
X4400Y2540D02*
X4390Y2539D01*
X4380Y2535D01*
X4372Y2528D01*
X4365Y2520D01*
X4361Y2510D01*
X4360Y2500D01*
X4361Y2490D01*
X4365Y2480D01*
X4372Y2472D01*
X4380Y2465D01*
X4390Y2461D01*
X4400Y2460D01*
X4410Y2461D01*
X4420Y2465D01*
X4428Y2472D01*
X4435Y2480D01*
X4439Y2490D01*
X4440Y2500D01*
X4439Y2510D01*
X4435Y2520D01*
X4428Y2528D01*
X4420Y2535D01*
X4410Y2539D01*
X4400Y2540D01*
D02*
G37*
G36*
X5665Y2711D02*
X5595D01*
Y2520D01*
X5665D01*
Y2711D01*
D02*
G37*
G36*
X4480Y2580D02*
X4455D01*
X4457Y2575D01*
X4465Y2565D01*
X4475Y2557D01*
X4480Y2555D01*
Y2580D01*
D02*
G37*
G36*
X5775Y2711D02*
X5705D01*
Y2520D01*
X5775D01*
Y2711D01*
D02*
G37*
G36*
X1780Y1935D02*
X1771Y1934D01*
X1762Y1930D01*
X1755Y1924D01*
X1750Y1917D01*
X1746Y1909D01*
X1745Y1900D01*
X1746Y1890D01*
X1750Y1882D01*
X1755Y1875D01*
X1762Y1869D01*
X1764Y1868D01*
X1757D01*
X1750Y1867D01*
X1744Y1863D01*
X1740Y1857D01*
X1738Y1850D01*
X1740Y1843D01*
X1744Y1837D01*
X1740Y1832D01*
X1738Y1825D01*
X1740Y1818D01*
X1744Y1812D01*
X1740Y1806D01*
X1738Y1799D01*
X1740Y1792D01*
X1740Y1791D01*
X1739D01*
Y1755D01*
X1741D01*
X1739Y1754D01*
X1736Y1749D01*
X1735Y1743D01*
Y1685D01*
X1672D01*
Y1600D01*
X1828D01*
Y1685D01*
X1970Y1826D01*
X1986D01*
Y1815D01*
X2034D01*
Y1826D01*
X2036D01*
Y1815D01*
X2084D01*
Y1826D01*
X2086D01*
Y1815D01*
X2134D01*
Y1844D01*
X2136Y1852D01*
X2134Y1859D01*
Y1889D01*
X2086D01*
Y1877D01*
X2084D01*
Y1889D01*
X2036D01*
Y1877D01*
X2034D01*
Y1889D01*
X1986D01*
Y1877D01*
X1959D01*
X1949Y1875D01*
X1941Y1870D01*
X1765Y1694D01*
Y1737D01*
X1784Y1755D01*
X1822D01*
Y1791D01*
X1820D01*
X1821Y1792D01*
X1822Y1799D01*
X1821Y1806D01*
X1817Y1812D01*
X1821Y1818D01*
X1822Y1825D01*
X1821Y1832D01*
X1817Y1837D01*
X1821Y1843D01*
X1822Y1850D01*
X1821Y1857D01*
X1817Y1863D01*
X1811Y1867D01*
X1804Y1868D01*
X1796D01*
X1798Y1869D01*
X1805Y1875D01*
X1811Y1882D01*
X1814Y1890D01*
X1815Y1900D01*
X1814Y1909D01*
X1811Y1917D01*
X1805Y1924D01*
X1798Y1930D01*
X1789Y1934D01*
X1780Y1935D01*
D02*
G37*
G36*
X2720Y1935D02*
X2711Y1934D01*
X2702Y1931D01*
X2695Y1925D01*
X2689Y1918D01*
X2686Y1909D01*
X2685Y1900D01*
X2686Y1891D01*
X2689Y1882D01*
X2695Y1875D01*
X2702Y1869D01*
X2704Y1869D01*
X2696D01*
X2689Y1867D01*
X2683Y1863D01*
X2680Y1858D01*
X2678Y1851D01*
X2680Y1844D01*
X2683Y1838D01*
X2680Y1832D01*
X2678Y1825D01*
X2680Y1818D01*
X2683Y1812D01*
X2680Y1806D01*
X2678Y1799D01*
X2680Y1792D01*
X2680Y1792D01*
X2679D01*
Y1756D01*
X2680D01*
X2679Y1755D01*
X2676Y1750D01*
X2675Y1744D01*
Y1686D01*
X2612D01*
Y1601D01*
X2768D01*
Y1685D01*
X2910Y1827D01*
X2926D01*
Y1815D01*
X2974D01*
Y1827D01*
X2976D01*
Y1815D01*
X3024D01*
Y1827D01*
X3026D01*
Y1815D01*
X3074D01*
Y1845D01*
X3075Y1852D01*
X3074Y1860D01*
Y1889D01*
X3026D01*
Y1878D01*
X3024D01*
Y1889D01*
X2976D01*
Y1878D01*
X2974D01*
Y1889D01*
X2926D01*
Y1878D01*
X2899D01*
X2889Y1876D01*
X2881Y1870D01*
X2705Y1695D01*
Y1737D01*
X2724Y1756D01*
X2761D01*
Y1792D01*
X2760D01*
X2760Y1792D01*
X2762Y1799D01*
X2760Y1806D01*
X2757Y1812D01*
X2760Y1818D01*
X2762Y1825D01*
X2760Y1832D01*
X2757Y1838D01*
X2760Y1844D01*
X2762Y1851D01*
X2760Y1858D01*
X2757Y1863D01*
X2751Y1867D01*
X2744Y1869D01*
X2736D01*
X2738Y1869D01*
X2745Y1875D01*
X2751Y1882D01*
X2754Y1891D01*
X2755Y1900D01*
X2754Y1909D01*
X2751Y1918D01*
X2745Y1925D01*
X2738Y1931D01*
X2729Y1934D01*
X2720Y1935D01*
D02*
G37*
G36*
X3670D02*
X3661Y1934D01*
X3652Y1931D01*
X3645Y1925D01*
X3639Y1918D01*
X3636Y1909D01*
X3635Y1900D01*
X3636Y1891D01*
X3639Y1882D01*
X3645Y1875D01*
X3652Y1869D01*
X3654Y1869D01*
X3646D01*
X3639Y1867D01*
X3633Y1863D01*
X3630Y1858D01*
X3628Y1851D01*
X3630Y1844D01*
X3633Y1838D01*
X3630Y1832D01*
X3628Y1825D01*
X3630Y1818D01*
X3633Y1812D01*
X3630Y1806D01*
X3628Y1799D01*
X3630Y1792D01*
X3630Y1792D01*
X3629D01*
Y1756D01*
X3630D01*
X3629Y1755D01*
X3626Y1750D01*
X3625Y1744D01*
Y1686D01*
X3562D01*
Y1601D01*
X3718D01*
Y1685D01*
X3860Y1827D01*
X3876D01*
Y1815D01*
X3924D01*
Y1827D01*
X3926D01*
Y1815D01*
X3974D01*
Y1827D01*
X3976D01*
Y1815D01*
X4024D01*
Y1845D01*
X4025Y1852D01*
X4024Y1860D01*
Y1889D01*
X3976D01*
Y1878D01*
X3974D01*
Y1889D01*
X3926D01*
Y1878D01*
X3924D01*
Y1889D01*
X3876D01*
Y1878D01*
X3849D01*
X3839Y1876D01*
X3831Y1870D01*
X3655Y1695D01*
Y1737D01*
X3674Y1756D01*
X3711D01*
Y1792D01*
X3710D01*
X3710Y1792D01*
X3712Y1799D01*
X3710Y1806D01*
X3707Y1812D01*
X3710Y1818D01*
X3712Y1825D01*
X3710Y1832D01*
X3707Y1838D01*
X3710Y1844D01*
X3712Y1851D01*
X3710Y1858D01*
X3707Y1863D01*
X3701Y1867D01*
X3694Y1869D01*
X3686D01*
X3688Y1869D01*
X3695Y1875D01*
X3701Y1882D01*
X3704Y1891D01*
X3705Y1900D01*
X3704Y1909D01*
X3701Y1918D01*
X3695Y1925D01*
X3688Y1931D01*
X3679Y1934D01*
X3670Y1935D01*
D02*
G37*
G36*
X3033Y2729D02*
X2947D01*
Y2665D01*
X3033D01*
Y2682D01*
X3712D01*
X4290Y2104D01*
Y1847D01*
X4287Y1846D01*
X4280Y1840D01*
X4274Y1833D01*
X4271Y1824D01*
X4270Y1815D01*
X4271Y1806D01*
X4274Y1797D01*
X4280Y1790D01*
X4287Y1784D01*
X4296Y1781D01*
X4305Y1780D01*
X4314Y1781D01*
X4323Y1784D01*
X4330Y1790D01*
X4336Y1797D01*
X4339Y1806D01*
X4340Y1815D01*
X4339Y1824D01*
X4336Y1833D01*
X4330Y1840D01*
X4323Y1846D01*
X4320Y1847D01*
Y2110D01*
X4319Y2116D01*
X4316Y2121D01*
X3729Y2708D01*
X3724Y2711D01*
X3718Y2712D01*
X3033D01*
Y2729D01*
D02*
G37*
G36*
X4630Y1935D02*
X4621Y1934D01*
X4612Y1931D01*
X4605Y1925D01*
X4599Y1918D01*
X4596Y1909D01*
X4595Y1900D01*
X4596Y1891D01*
X4599Y1882D01*
X4605Y1875D01*
X4612Y1869D01*
X4614Y1869D01*
X4606D01*
X4599Y1867D01*
X4593Y1863D01*
X4590Y1858D01*
X4588Y1851D01*
X4590Y1844D01*
X4593Y1838D01*
X4590Y1832D01*
X4588Y1825D01*
X4590Y1818D01*
X4593Y1812D01*
X4590Y1806D01*
X4588Y1799D01*
X4590Y1792D01*
X4590Y1792D01*
X4589D01*
Y1756D01*
X4590D01*
X4589Y1755D01*
X4586Y1750D01*
X4585Y1744D01*
Y1686D01*
X4579D01*
X4558Y1707D01*
X4559Y1709D01*
X4560Y1718D01*
X4559Y1727D01*
X4556Y1736D01*
X4550Y1743D01*
X4543Y1749D01*
X4534Y1752D01*
X4525Y1753D01*
X4516Y1752D01*
X4507Y1749D01*
X4500Y1743D01*
X4494Y1736D01*
X4491Y1727D01*
X4490Y1718D01*
X4491Y1709D01*
X4494Y1701D01*
X4500Y1693D01*
X4507Y1688D01*
X4516Y1684D01*
X4522Y1683D01*
Y1601D01*
X4678D01*
Y1685D01*
X4820Y1827D01*
X4836D01*
Y1815D01*
X4884D01*
Y1827D01*
X4886D01*
Y1815D01*
X4934D01*
Y1827D01*
X4936D01*
Y1815D01*
X4984D01*
Y1845D01*
X4985Y1852D01*
X4984Y1860D01*
Y1889D01*
X4936D01*
Y1878D01*
X4934D01*
Y1889D01*
X4886D01*
Y1878D01*
X4884D01*
Y1889D01*
X4836D01*
Y1878D01*
X4809D01*
X4799Y1876D01*
X4791Y1870D01*
X4615Y1695D01*
Y1737D01*
X4634Y1756D01*
X4671D01*
Y1792D01*
X4670D01*
X4670Y1792D01*
X4672Y1799D01*
X4670Y1806D01*
X4667Y1812D01*
X4670Y1818D01*
X4672Y1825D01*
X4670Y1832D01*
X4667Y1838D01*
X4670Y1844D01*
X4672Y1851D01*
X4670Y1858D01*
X4667Y1863D01*
X4661Y1867D01*
X4654Y1869D01*
X4646D01*
X4648Y1869D01*
X4655Y1875D01*
X4661Y1882D01*
X4664Y1891D01*
X4665Y1900D01*
X4664Y1909D01*
X4661Y1918D01*
X4655Y1925D01*
X4648Y1931D01*
X4639Y1934D01*
X4630Y1935D01*
D02*
G37*
G36*
X5034Y1889D02*
X4986D01*
Y1815D01*
X5034D01*
Y1837D01*
X5051D01*
X5052Y1835D01*
X5058Y1827D01*
X5065Y1822D01*
X5074Y1818D01*
X5083Y1817D01*
X5092Y1818D01*
X5100Y1822D01*
X5108Y1827D01*
X5113Y1835D01*
X5117Y1843D01*
X5118Y1852D01*
X5117Y1861D01*
X5113Y1870D01*
X5108Y1877D01*
X5100Y1883D01*
X5092Y1886D01*
X5083Y1888D01*
X5074Y1886D01*
X5065Y1883D01*
X5058Y1877D01*
X5052Y1870D01*
X5051Y1868D01*
X5034D01*
Y1889D01*
D02*
G37*
G36*
X2065Y1990D02*
X1976D01*
Y1902D01*
X2065D01*
Y1990D01*
D02*
G37*
G36*
X2194D02*
X2105D01*
Y1902D01*
X2194D01*
Y1990D01*
D02*
G37*
G36*
X2184Y1889D02*
X2136D01*
Y1815D01*
X2184D01*
Y1837D01*
X2201D01*
X2202Y1834D01*
X2208Y1827D01*
X2215Y1821D01*
X2224Y1818D01*
X2233Y1817D01*
X2242Y1818D01*
X2251Y1821D01*
X2258Y1827D01*
X2263Y1834D01*
X2267Y1843D01*
X2268Y1852D01*
X2267Y1861D01*
X2263Y1869D01*
X2258Y1877D01*
X2251Y1882D01*
X2242Y1886D01*
X2233Y1887D01*
X2224Y1886D01*
X2215Y1882D01*
X2208Y1877D01*
X2202Y1869D01*
X2201Y1867D01*
X2184D01*
Y1889D01*
D02*
G37*
G36*
X3124Y1889D02*
X3076D01*
Y1815D01*
X3124D01*
Y1837D01*
X3141D01*
X3142Y1835D01*
X3148Y1827D01*
X3155Y1822D01*
X3164Y1818D01*
X3173Y1817D01*
X3182Y1818D01*
X3190Y1822D01*
X3198Y1827D01*
X3203Y1835D01*
X3207Y1843D01*
X3208Y1852D01*
X3207Y1861D01*
X3203Y1870D01*
X3198Y1877D01*
X3190Y1883D01*
X3182Y1886D01*
X3173Y1888D01*
X3164Y1886D01*
X3155Y1883D01*
X3148Y1877D01*
X3142Y1870D01*
X3141Y1868D01*
X3124D01*
Y1889D01*
D02*
G37*
G36*
X4074D02*
X4026D01*
Y1815D01*
X4074D01*
Y1837D01*
X4091D01*
X4092Y1835D01*
X4098Y1827D01*
X4105Y1822D01*
X4114Y1818D01*
X4123Y1817D01*
X4132Y1818D01*
X4140Y1822D01*
X4148Y1827D01*
X4153Y1835D01*
X4157Y1843D01*
X4158Y1852D01*
X4157Y1861D01*
X4153Y1870D01*
X4148Y1877D01*
X4140Y1883D01*
X4132Y1886D01*
X4123Y1888D01*
X4114Y1886D01*
X4105Y1883D01*
X4098Y1877D01*
X4092Y1870D01*
X4091Y1868D01*
X4074D01*
Y1889D01*
D02*
G37*
G36*
X4437Y2013D02*
X4428Y2012D01*
X4419Y2008D01*
X4412Y2003D01*
X4407Y1996D01*
X4403Y1987D01*
X4402Y1978D01*
X4403Y1969D01*
X4407Y1960D01*
X4412Y1953D01*
X4419Y1947D01*
X4422Y1946D01*
Y1869D01*
X4413D01*
X4406Y1867D01*
X4401Y1863D01*
X4397Y1858D01*
X4395Y1851D01*
X4397Y1844D01*
X4401Y1838D01*
X4397Y1832D01*
X4395Y1825D01*
X4397Y1818D01*
X4401Y1812D01*
X4397Y1806D01*
X4395Y1799D01*
X4397Y1792D01*
X4401Y1787D01*
X4397Y1781D01*
X4395Y1774D01*
X4397Y1767D01*
X4401Y1761D01*
X4406Y1757D01*
X4413Y1756D01*
X4422D01*
Y1580D01*
X4423Y1574D01*
X4426Y1569D01*
X4536Y1459D01*
X4522D01*
Y1374D01*
X4678D01*
Y1459D01*
X4824Y1605D01*
X4853D01*
X4857Y1597D01*
X4864Y1588D01*
X4873Y1581D01*
X4883Y1575D01*
X4895Y1572D01*
X4906Y1571D01*
X4918Y1572D01*
X4929Y1575D01*
X4939Y1581D01*
X4948Y1588D01*
X4956Y1597D01*
X4960Y1605D01*
X5195D01*
X5202Y1598D01*
Y1548D01*
X5288D01*
Y1633D01*
X5238D01*
X5224Y1648D01*
X5216Y1654D01*
X5206Y1655D01*
X4960D01*
X4956Y1663D01*
X4948Y1672D01*
X4939Y1679D01*
X4929Y1685D01*
X4918Y1688D01*
X4906Y1689D01*
X4895Y1688D01*
X4883Y1685D01*
X4873Y1679D01*
X4864Y1672D01*
X4857Y1663D01*
X4853Y1655D01*
X4813D01*
X4803Y1654D01*
X4795Y1648D01*
X4606Y1459D01*
X4579D01*
X4452Y1586D01*
Y1756D01*
X4461D01*
X4468Y1757D01*
X4474Y1761D01*
X4478Y1767D01*
X4479Y1774D01*
X4478Y1781D01*
X4474Y1787D01*
X4478Y1792D01*
X4479Y1799D01*
X4478Y1806D01*
X4474Y1812D01*
X4478Y1818D01*
X4479Y1825D01*
X4478Y1832D01*
X4474Y1838D01*
X4478Y1844D01*
X4479Y1851D01*
X4478Y1858D01*
X4474Y1863D01*
X4468Y1867D01*
X4461Y1869D01*
X4452D01*
Y1946D01*
X4455Y1947D01*
X4462Y1953D01*
X4468Y1960D01*
X4471Y1969D01*
X4472Y1978D01*
X4471Y1987D01*
X4468Y1996D01*
X4462Y2003D01*
X4455Y2008D01*
X4446Y2012D01*
X4437Y2013D01*
D02*
G37*
G36*
X5043Y1342D02*
X5031Y1341D01*
X5020Y1336D01*
X5011Y1329D01*
X5003Y1319D01*
X4999Y1308D01*
X4997Y1297D01*
X4999Y1285D01*
X5003Y1274D01*
X5011Y1264D01*
X5020Y1257D01*
X5031Y1252D01*
X5043Y1251D01*
X5055Y1252D01*
X5066Y1257D01*
X5076Y1264D01*
X5083Y1274D01*
X5087Y1285D01*
X5089Y1297D01*
X5087Y1308D01*
X5083Y1319D01*
X5076Y1329D01*
X5066Y1336D01*
X5055Y1341D01*
X5043Y1342D01*
D02*
G37*
G36*
X2193D02*
X2181Y1341D01*
X2170Y1336D01*
X2161Y1329D01*
X2153Y1319D01*
X2149Y1308D01*
X2147Y1297D01*
X2149Y1285D01*
X2153Y1274D01*
X2161Y1264D01*
X2170Y1257D01*
X2181Y1252D01*
X2193Y1251D01*
X2205Y1252D01*
X2216Y1257D01*
X2226Y1264D01*
X2233Y1274D01*
X2237Y1285D01*
X2239Y1297D01*
X2237Y1308D01*
X2233Y1319D01*
X2226Y1329D01*
X2216Y1336D01*
X2205Y1341D01*
X2193Y1342D01*
D02*
G37*
G36*
X3133D02*
X3121Y1341D01*
X3110Y1336D01*
X3101Y1329D01*
X3093Y1319D01*
X3089Y1308D01*
X3087Y1297D01*
X3089Y1285D01*
X3093Y1274D01*
X3101Y1264D01*
X3110Y1257D01*
X3121Y1252D01*
X3133Y1251D01*
X3145Y1252D01*
X3156Y1257D01*
X3166Y1264D01*
X3173Y1274D01*
X3177Y1285D01*
X3179Y1297D01*
X3177Y1308D01*
X3173Y1319D01*
X3166Y1329D01*
X3156Y1336D01*
X3145Y1341D01*
X3133Y1342D01*
D02*
G37*
G36*
X4083D02*
X4071Y1341D01*
X4060Y1336D01*
X4051Y1329D01*
X4043Y1319D01*
X4039Y1308D01*
X4037Y1297D01*
X4039Y1285D01*
X4043Y1274D01*
X4051Y1264D01*
X4060Y1257D01*
X4071Y1252D01*
X4083Y1251D01*
X4095Y1252D01*
X4106Y1257D01*
X4116Y1264D01*
X4123Y1274D01*
X4127Y1285D01*
X4129Y1297D01*
X4127Y1308D01*
X4123Y1319D01*
X4116Y1329D01*
X4106Y1336D01*
X4095Y1341D01*
X4083Y1342D01*
D02*
G37*
G36*
X5620Y1610D02*
X5603Y1609D01*
X5586Y1605D01*
X5570Y1598D01*
X5555Y1589D01*
X5542Y1578D01*
X5531Y1565D01*
X5522Y1550D01*
X5515Y1534D01*
X5511Y1517D01*
X5510Y1500D01*
X5511Y1483D01*
X5515Y1466D01*
X5522Y1450D01*
X5531Y1435D01*
X5542Y1422D01*
X5555Y1411D01*
X5570Y1402D01*
X5586Y1395D01*
X5603Y1391D01*
X5620Y1390D01*
X5637Y1391D01*
X5654Y1395D01*
X5670Y1402D01*
X5685Y1411D01*
X5698Y1422D01*
X5709Y1435D01*
X5718Y1450D01*
X5725Y1466D01*
X5729Y1483D01*
X5730Y1500D01*
X5729Y1517D01*
X5725Y1534D01*
X5718Y1550D01*
X5709Y1565D01*
X5698Y1578D01*
X5685Y1589D01*
X5670Y1598D01*
X5654Y1605D01*
X5637Y1609D01*
X5620Y1610D01*
D02*
G37*
G36*
X5288Y1483D02*
X5202D01*
Y1433D01*
X5200Y1431D01*
X4960D01*
X4956Y1439D01*
X4948Y1448D01*
X4939Y1455D01*
X4929Y1461D01*
X4918Y1464D01*
X4906Y1465D01*
X4895Y1464D01*
X4883Y1461D01*
X4873Y1455D01*
X4864Y1448D01*
X4857Y1439D01*
X4851Y1428D01*
X4848Y1417D01*
X4847Y1406D01*
X4848Y1394D01*
X4851Y1383D01*
X4857Y1373D01*
X4864Y1364D01*
X4873Y1356D01*
X4883Y1351D01*
X4895Y1347D01*
X4906Y1346D01*
X4918Y1347D01*
X4929Y1351D01*
X4939Y1356D01*
X4948Y1364D01*
X4956Y1373D01*
X4960Y1380D01*
X5211D01*
X5220Y1382D01*
X5229Y1388D01*
X5238Y1397D01*
X5288D01*
Y1483D01*
D02*
G37*
G36*
X2527Y2012D02*
X2518Y2011D01*
X2509Y2008D01*
X2502Y2002D01*
X2497Y1995D01*
X2493Y1986D01*
X2492Y1977D01*
X2493Y1968D01*
X2497Y1959D01*
X2502Y1952D01*
X2509Y1947D01*
X2512Y1946D01*
Y1869D01*
X2503D01*
X2496Y1867D01*
X2491Y1863D01*
X2487Y1858D01*
X2485Y1851D01*
X2487Y1844D01*
X2491Y1838D01*
X2487Y1832D01*
X2485Y1825D01*
X2487Y1818D01*
X2491Y1812D01*
X2487Y1806D01*
X2485Y1799D01*
X2487Y1792D01*
X2491Y1787D01*
X2487Y1781D01*
X2485Y1774D01*
X2487Y1767D01*
X2491Y1761D01*
X2496Y1757D01*
X2503Y1756D01*
X2512D01*
Y1580D01*
X2513Y1574D01*
X2516Y1569D01*
X2626Y1459D01*
X2612D01*
Y1374D01*
X2768D01*
Y1459D01*
X2914Y1605D01*
X2943D01*
X2947Y1597D01*
X2954Y1588D01*
X2963Y1581D01*
X2973Y1575D01*
X2985Y1572D01*
X2996Y1571D01*
X3008Y1572D01*
X3019Y1575D01*
X3029Y1581D01*
X3038Y1588D01*
X3046Y1597D01*
X3050Y1605D01*
X3285D01*
X3292Y1598D01*
Y1548D01*
X3378D01*
Y1633D01*
X3328D01*
X3314Y1648D01*
X3306Y1654D01*
X3296Y1655D01*
X3050D01*
X3046Y1663D01*
X3038Y1672D01*
X3029Y1679D01*
X3019Y1685D01*
X3008Y1688D01*
X2996Y1689D01*
X2985Y1688D01*
X2973Y1685D01*
X2963Y1679D01*
X2954Y1672D01*
X2947Y1663D01*
X2943Y1655D01*
X2903D01*
X2893Y1654D01*
X2885Y1648D01*
X2696Y1459D01*
X2669D01*
X2542Y1586D01*
Y1756D01*
X2551D01*
X2558Y1757D01*
X2564Y1761D01*
X2568Y1767D01*
X2569Y1774D01*
X2568Y1781D01*
X2564Y1787D01*
X2568Y1792D01*
X2569Y1799D01*
X2568Y1806D01*
X2564Y1812D01*
X2568Y1818D01*
X2569Y1825D01*
X2568Y1832D01*
X2564Y1838D01*
X2568Y1844D01*
X2569Y1851D01*
X2568Y1858D01*
X2564Y1863D01*
X2558Y1867D01*
X2551Y1869D01*
X2542D01*
Y1946D01*
X2545Y1947D01*
X2552Y1952D01*
X2558Y1959D01*
X2561Y1968D01*
X2562Y1977D01*
X2561Y1986D01*
X2558Y1995D01*
X2552Y2002D01*
X2545Y2008D01*
X2536Y2011D01*
X2527Y2012D01*
D02*
G37*
G36*
X3477Y2013D02*
X3468Y2012D01*
X3459Y2008D01*
X3452Y2003D01*
X3447Y1996D01*
X3443Y1987D01*
X3442Y1978D01*
X3443Y1969D01*
X3447Y1960D01*
X3452Y1953D01*
X3459Y1947D01*
X3462Y1946D01*
Y1869D01*
X3453D01*
X3446Y1867D01*
X3441Y1863D01*
X3437Y1858D01*
X3435Y1851D01*
X3437Y1844D01*
X3441Y1838D01*
X3437Y1832D01*
X3435Y1825D01*
X3437Y1818D01*
X3441Y1812D01*
X3437Y1806D01*
X3435Y1799D01*
X3437Y1792D01*
X3441Y1787D01*
X3437Y1781D01*
X3435Y1774D01*
X3437Y1767D01*
X3441Y1761D01*
X3446Y1757D01*
X3453Y1756D01*
X3462D01*
Y1580D01*
X3463Y1574D01*
X3466Y1569D01*
X3576Y1459D01*
X3562D01*
Y1374D01*
X3718D01*
Y1459D01*
X3864Y1605D01*
X3893D01*
X3897Y1597D01*
X3904Y1588D01*
X3913Y1581D01*
X3923Y1575D01*
X3935Y1572D01*
X3946Y1571D01*
X3958Y1572D01*
X3969Y1575D01*
X3979Y1581D01*
X3988Y1588D01*
X3996Y1597D01*
X4000Y1605D01*
X4235D01*
X4242Y1598D01*
Y1548D01*
X4328D01*
Y1633D01*
X4278D01*
X4264Y1648D01*
X4256Y1654D01*
X4246Y1655D01*
X4000D01*
X3996Y1663D01*
X3988Y1672D01*
X3979Y1679D01*
X3969Y1685D01*
X3958Y1688D01*
X3946Y1689D01*
X3935Y1688D01*
X3923Y1685D01*
X3913Y1679D01*
X3904Y1672D01*
X3897Y1663D01*
X3893Y1655D01*
X3853D01*
X3843Y1654D01*
X3835Y1648D01*
X3646Y1459D01*
X3619D01*
X3492Y1586D01*
Y1756D01*
X3501D01*
X3508Y1757D01*
X3514Y1761D01*
X3518Y1767D01*
X3519Y1774D01*
X3518Y1781D01*
X3514Y1787D01*
X3518Y1792D01*
X3519Y1799D01*
X3518Y1806D01*
X3514Y1812D01*
X3518Y1818D01*
X3519Y1825D01*
X3518Y1832D01*
X3514Y1838D01*
X3518Y1844D01*
X3519Y1851D01*
X3518Y1858D01*
X3514Y1863D01*
X3508Y1867D01*
X3501Y1869D01*
X3492D01*
Y1946D01*
X3495Y1947D01*
X3502Y1953D01*
X3508Y1960D01*
X3511Y1969D01*
X3512Y1978D01*
X3511Y1987D01*
X3508Y1996D01*
X3502Y2003D01*
X3495Y2008D01*
X3486Y2012D01*
X3477Y2013D01*
D02*
G37*
G36*
X2438Y1482D02*
X2352D01*
Y1433D01*
X2350Y1431D01*
X2110D01*
X2106Y1439D01*
X2098Y1448D01*
X2089Y1455D01*
X2079Y1461D01*
X2068Y1464D01*
X2056Y1465D01*
X2045Y1464D01*
X2033Y1461D01*
X2023Y1455D01*
X2014Y1448D01*
X2007Y1439D01*
X2001Y1428D01*
X1998Y1417D01*
X1997Y1406D01*
X1998Y1394D01*
X2001Y1383D01*
X2007Y1373D01*
X2014Y1364D01*
X2023Y1356D01*
X2033Y1351D01*
X2045Y1347D01*
X2056Y1346D01*
X2068Y1347D01*
X2079Y1351D01*
X2089Y1356D01*
X2098Y1364D01*
X2106Y1373D01*
X2109Y1380D01*
X2361D01*
X2370Y1382D01*
X2379Y1387D01*
X2389Y1397D01*
X2438D01*
Y1482D01*
D02*
G37*
G36*
X3378Y1483D02*
X3292D01*
Y1433D01*
X3290Y1431D01*
X3050D01*
X3046Y1439D01*
X3038Y1448D01*
X3029Y1455D01*
X3019Y1461D01*
X3008Y1464D01*
X2996Y1465D01*
X2985Y1464D01*
X2973Y1461D01*
X2963Y1455D01*
X2954Y1448D01*
X2947Y1439D01*
X2941Y1428D01*
X2938Y1417D01*
X2937Y1406D01*
X2938Y1394D01*
X2941Y1383D01*
X2947Y1373D01*
X2954Y1364D01*
X2963Y1356D01*
X2973Y1351D01*
X2985Y1347D01*
X2996Y1346D01*
X3008Y1347D01*
X3019Y1351D01*
X3029Y1356D01*
X3038Y1364D01*
X3046Y1373D01*
X3050Y1380D01*
X3301D01*
X3310Y1382D01*
X3319Y1388D01*
X3328Y1397D01*
X3378D01*
Y1483D01*
D02*
G37*
G36*
X4328D02*
X4242D01*
Y1433D01*
X4240Y1431D01*
X4000D01*
X3996Y1439D01*
X3988Y1448D01*
X3979Y1455D01*
X3969Y1461D01*
X3958Y1464D01*
X3946Y1465D01*
X3935Y1464D01*
X3923Y1461D01*
X3913Y1455D01*
X3904Y1448D01*
X3897Y1439D01*
X3891Y1428D01*
X3888Y1417D01*
X3887Y1406D01*
X3888Y1394D01*
X3891Y1383D01*
X3897Y1373D01*
X3904Y1364D01*
X3913Y1356D01*
X3923Y1351D01*
X3935Y1347D01*
X3946Y1346D01*
X3958Y1347D01*
X3969Y1351D01*
X3979Y1356D01*
X3988Y1364D01*
X3996Y1373D01*
X4000Y1380D01*
X4251D01*
X4260Y1382D01*
X4269Y1388D01*
X4278Y1397D01*
X4328D01*
Y1483D01*
D02*
G37*
G36*
X4400Y2140D02*
X4390Y2139D01*
X4380Y2135D01*
X4372Y2128D01*
X4365Y2120D01*
X4361Y2110D01*
X4360Y2100D01*
X4361Y2090D01*
X4365Y2080D01*
X4372Y2072D01*
X4380Y2065D01*
X4390Y2061D01*
X4400Y2060D01*
X4410Y2061D01*
X4420Y2065D01*
X4428Y2072D01*
X4435Y2080D01*
X4439Y2090D01*
X4440Y2100D01*
X4439Y2110D01*
X4435Y2120D01*
X4428Y2128D01*
X4420Y2135D01*
X4410Y2139D01*
X4400Y2140D01*
D02*
G37*
G36*
X5566Y2090D02*
X5552D01*
Y2072D01*
X5566D01*
Y2090D01*
D02*
G37*
G36*
X5620D02*
X5606D01*
Y2072D01*
X5620D01*
Y2090D01*
D02*
G37*
G36*
X4480Y2080D02*
X4450D01*
Y2050D01*
X4480D01*
Y2080D01*
D02*
G37*
G36*
X4550D02*
X4520D01*
Y2050D01*
X4550D01*
Y2080D01*
D02*
G37*
G36*
X5620Y2148D02*
X5606D01*
Y2130D01*
X5620D01*
Y2148D01*
D02*
G37*
G36*
X4480Y2150D02*
X4450D01*
Y2120D01*
X4480D01*
Y2150D01*
D02*
G37*
G36*
X4550D02*
X4520D01*
Y2120D01*
X4550D01*
Y2150D01*
D02*
G37*
G36*
X5566Y2148D02*
X5552D01*
Y2130D01*
X5566D01*
Y2148D01*
D02*
G37*
G36*
X5044Y2117D02*
X4955D01*
Y2030D01*
X5044D01*
Y2117D01*
D02*
G37*
G36*
X4084Y1990D02*
X3995D01*
Y1903D01*
X4084D01*
Y1990D01*
D02*
G37*
G36*
X4915D02*
X4826D01*
Y1903D01*
X4915D01*
Y1990D01*
D02*
G37*
G36*
X5044D02*
X4955D01*
Y1903D01*
X5044D01*
Y1990D01*
D02*
G37*
G36*
X3005D02*
X2916D01*
Y1903D01*
X3005D01*
Y1990D01*
D02*
G37*
G36*
X3134D02*
X3045D01*
Y1903D01*
X3134D01*
Y1990D01*
D02*
G37*
G36*
X3955D02*
X3866D01*
Y1903D01*
X3955D01*
Y1990D01*
D02*
G37*
G36*
X2065Y2117D02*
X1976D01*
Y2030D01*
X2065D01*
Y2117D01*
D02*
G37*
G36*
X4915Y2117D02*
X4826D01*
Y2030D01*
X4915D01*
Y2117D01*
D02*
G37*
G36*
X3134D02*
X3045D01*
Y2030D01*
X3134D01*
Y2117D01*
D02*
G37*
G36*
X4084D02*
X3995D01*
Y2030D01*
X4084D01*
Y2117D01*
D02*
G37*
G36*
X2194Y2117D02*
X2105D01*
Y2030D01*
X2194D01*
Y2117D01*
D02*
G37*
G36*
X3005Y2117D02*
X2916D01*
Y2030D01*
X3005D01*
Y2117D01*
D02*
G37*
G36*
X3955D02*
X3866D01*
Y2030D01*
X3955D01*
Y2117D01*
D02*
G37*
G36*
X4520Y2745D02*
Y2720D01*
X4545D01*
X4543Y2725D01*
X4535Y2735D01*
X4525Y2743D01*
X4520Y2745D01*
D02*
G37*
G36*
X4328Y4626D02*
X4172D01*
Y4541D01*
X4026Y4395D01*
X3997D01*
X3993Y4403D01*
X3986Y4412D01*
X3977Y4419D01*
X3967Y4425D01*
X3955Y4428D01*
X3944Y4429D01*
X3932Y4428D01*
X3921Y4425D01*
X3911Y4419D01*
X3902Y4412D01*
X3894Y4403D01*
X3890Y4395D01*
X3655D01*
X3648Y4402D01*
Y4452D01*
X3562D01*
Y4367D01*
X3612D01*
X3626Y4352D01*
X3634Y4346D01*
X3644Y4345D01*
X3890D01*
X3894Y4337D01*
X3902Y4328D01*
X3911Y4321D01*
X3921Y4315D01*
X3932Y4312D01*
X3944Y4311D01*
X3955Y4312D01*
X3967Y4315D01*
X3977Y4321D01*
X3986Y4328D01*
X3993Y4337D01*
X3997Y4345D01*
X4037D01*
X4047Y4346D01*
X4055Y4352D01*
X4244Y4541D01*
X4271D01*
X4398Y4414D01*
Y4244D01*
X4389D01*
X4382Y4243D01*
X4376Y4239D01*
X4372Y4233D01*
X4371Y4226D01*
X4372Y4219D01*
X4376Y4213D01*
X4372Y4208D01*
X4371Y4201D01*
X4372Y4194D01*
X4376Y4188D01*
X4372Y4182D01*
X4371Y4175D01*
X4372Y4168D01*
X4376Y4162D01*
X4372Y4156D01*
X4371Y4149D01*
X4372Y4142D01*
X4376Y4137D01*
X4382Y4133D01*
X4389Y4131D01*
X4398D01*
Y4054D01*
X4395Y4053D01*
X4388Y4047D01*
X4382Y4040D01*
X4379Y4031D01*
X4378Y4022D01*
X4379Y4013D01*
X4382Y4004D01*
X4388Y3997D01*
X4395Y3992D01*
X4404Y3988D01*
X4413Y3987D01*
X4422Y3988D01*
X4431Y3992D01*
X4438Y3997D01*
X4443Y4004D01*
X4447Y4013D01*
X4448Y4022D01*
X4447Y4031D01*
X4443Y4040D01*
X4438Y4047D01*
X4431Y4053D01*
X4428Y4054D01*
Y4131D01*
X4437D01*
X4444Y4133D01*
X4449Y4137D01*
X4453Y4142D01*
X4455Y4149D01*
X4453Y4156D01*
X4449Y4162D01*
X4453Y4168D01*
X4455Y4175D01*
X4453Y4182D01*
X4449Y4188D01*
X4453Y4194D01*
X4455Y4201D01*
X4453Y4208D01*
X4449Y4213D01*
X4453Y4219D01*
X4455Y4226D01*
X4453Y4233D01*
X4449Y4239D01*
X4444Y4243D01*
X4437Y4244D01*
X4428D01*
Y4420D01*
X4427Y4425D01*
X4427Y4426D01*
X4424Y4431D01*
X4314Y4541D01*
X4328D01*
Y4626D01*
D02*
G37*
G36*
X5288D02*
X5132D01*
Y4541D01*
X4986Y4395D01*
X4957D01*
X4953Y4403D01*
X4946Y4412D01*
X4937Y4419D01*
X4927Y4425D01*
X4915Y4428D01*
X4904Y4429D01*
X4892Y4428D01*
X4881Y4425D01*
X4871Y4419D01*
X4862Y4412D01*
X4854Y4403D01*
X4850Y4395D01*
X4615D01*
X4608Y4402D01*
Y4452D01*
X4522D01*
Y4367D01*
X4572D01*
X4586Y4352D01*
X4594Y4346D01*
X4604Y4345D01*
X4850D01*
X4854Y4337D01*
X4862Y4328D01*
X4871Y4321D01*
X4881Y4315D01*
X4892Y4312D01*
X4904Y4311D01*
X4915Y4312D01*
X4927Y4315D01*
X4937Y4321D01*
X4946Y4328D01*
X4953Y4337D01*
X4957Y4345D01*
X4997D01*
X5007Y4346D01*
X5015Y4352D01*
X5204Y4541D01*
X5231D01*
X5358Y4414D01*
Y4244D01*
X5349D01*
X5342Y4243D01*
X5336Y4239D01*
X5332Y4233D01*
X5331Y4226D01*
X5332Y4219D01*
X5336Y4213D01*
X5332Y4208D01*
X5331Y4201D01*
X5332Y4194D01*
X5336Y4188D01*
X5332Y4182D01*
X5331Y4175D01*
X5332Y4168D01*
X5336Y4162D01*
X5332Y4156D01*
X5331Y4149D01*
X5332Y4142D01*
X5336Y4137D01*
X5342Y4133D01*
X5349Y4131D01*
X5358D01*
Y4054D01*
X5355Y4053D01*
X5348Y4048D01*
X5342Y4041D01*
X5339Y4032D01*
X5338Y4023D01*
X5339Y4014D01*
X5342Y4005D01*
X5348Y3998D01*
X5355Y3992D01*
X5364Y3989D01*
X5373Y3988D01*
X5382Y3989D01*
X5391Y3992D01*
X5398Y3998D01*
X5403Y4005D01*
X5407Y4014D01*
X5408Y4023D01*
X5407Y4032D01*
X5403Y4041D01*
X5398Y4048D01*
X5391Y4053D01*
X5388Y4054D01*
Y4131D01*
X5397D01*
X5404Y4133D01*
X5409Y4137D01*
X5413Y4142D01*
X5415Y4149D01*
X5413Y4156D01*
X5409Y4162D01*
X5413Y4168D01*
X5415Y4175D01*
X5413Y4182D01*
X5409Y4188D01*
X5413Y4194D01*
X5415Y4201D01*
X5413Y4208D01*
X5409Y4213D01*
X5413Y4219D01*
X5415Y4226D01*
X5413Y4233D01*
X5409Y4239D01*
X5404Y4243D01*
X5397Y4244D01*
X5388D01*
Y4420D01*
X5387Y4425D01*
X5387Y4426D01*
X5384Y4431D01*
X5274Y4541D01*
X5288D01*
Y4626D01*
D02*
G37*
G36*
X2005Y4097D02*
X1916D01*
Y4010D01*
X2005D01*
Y4097D01*
D02*
G37*
G36*
X4984Y3970D02*
X4895D01*
Y3883D01*
X4984D01*
Y3970D01*
D02*
G37*
G36*
X2438Y4626D02*
X2282D01*
Y4541D01*
X2136Y4395D01*
X2107D01*
X2103Y4403D01*
X2096Y4412D01*
X2087Y4419D01*
X2077Y4425D01*
X2065Y4428D01*
X2054Y4429D01*
X2042Y4428D01*
X2031Y4425D01*
X2021Y4419D01*
X2012Y4412D01*
X2004Y4403D01*
X2000Y4395D01*
X1765D01*
X1758Y4402D01*
Y4452D01*
X1672D01*
Y4367D01*
X1722D01*
X1736Y4352D01*
X1744Y4346D01*
X1754Y4345D01*
X2000D01*
X2004Y4337D01*
X2012Y4328D01*
X2021Y4321D01*
X2031Y4315D01*
X2042Y4312D01*
X2054Y4311D01*
X2065Y4312D01*
X2077Y4315D01*
X2087Y4321D01*
X2096Y4328D01*
X2103Y4337D01*
X2107Y4345D01*
X2147D01*
X2157Y4346D01*
X2165Y4352D01*
X2354Y4541D01*
X2381D01*
X2508Y4414D01*
Y4244D01*
X2499D01*
X2492Y4243D01*
X2486Y4239D01*
X2482Y4233D01*
X2481Y4226D01*
X2482Y4219D01*
X2486Y4213D01*
X2482Y4208D01*
X2481Y4201D01*
X2482Y4194D01*
X2486Y4188D01*
X2482Y4182D01*
X2481Y4175D01*
X2482Y4168D01*
X2486Y4162D01*
X2482Y4156D01*
X2481Y4149D01*
X2482Y4142D01*
X2486Y4137D01*
X2492Y4133D01*
X2499Y4131D01*
X2508D01*
Y4054D01*
X2505Y4053D01*
X2498Y4047D01*
X2492Y4040D01*
X2489Y4031D01*
X2488Y4022D01*
X2489Y4013D01*
X2492Y4004D01*
X2498Y3997D01*
X2505Y3992D01*
X2514Y3988D01*
X2523Y3987D01*
X2532Y3988D01*
X2541Y3992D01*
X2548Y3997D01*
X2553Y4004D01*
X2557Y4013D01*
X2558Y4022D01*
X2557Y4031D01*
X2553Y4040D01*
X2548Y4047D01*
X2541Y4053D01*
X2538Y4054D01*
Y4131D01*
X2547D01*
X2554Y4133D01*
X2559Y4137D01*
X2563Y4142D01*
X2565Y4149D01*
X2563Y4156D01*
X2559Y4162D01*
X2563Y4168D01*
X2565Y4175D01*
X2563Y4182D01*
X2559Y4188D01*
X2563Y4194D01*
X2565Y4201D01*
X2563Y4208D01*
X2559Y4213D01*
X2563Y4219D01*
X2565Y4226D01*
X2563Y4233D01*
X2559Y4239D01*
X2554Y4243D01*
X2547Y4244D01*
X2538D01*
Y4420D01*
X2537Y4425D01*
X2537Y4426D01*
X2534Y4431D01*
X2424Y4541D01*
X2438D01*
Y4626D01*
D02*
G37*
G36*
X3378D02*
X3222D01*
Y4541D01*
X3076Y4395D01*
X3047D01*
X3043Y4403D01*
X3036Y4412D01*
X3027Y4419D01*
X3017Y4425D01*
X3005Y4428D01*
X2994Y4429D01*
X2982Y4428D01*
X2971Y4425D01*
X2961Y4419D01*
X2952Y4412D01*
X2944Y4403D01*
X2940Y4395D01*
X2705D01*
X2698Y4402D01*
Y4452D01*
X2612D01*
Y4367D01*
X2662D01*
X2676Y4352D01*
X2684Y4346D01*
X2694Y4345D01*
X2940D01*
X2944Y4337D01*
X2952Y4328D01*
X2961Y4321D01*
X2971Y4315D01*
X2982Y4312D01*
X2994Y4311D01*
X3005Y4312D01*
X3017Y4315D01*
X3027Y4321D01*
X3036Y4328D01*
X3043Y4337D01*
X3047Y4345D01*
X3087D01*
X3097Y4346D01*
X3105Y4352D01*
X3294Y4541D01*
X3321D01*
X3448Y4414D01*
Y4244D01*
X3439D01*
X3432Y4243D01*
X3426Y4239D01*
X3422Y4233D01*
X3421Y4226D01*
X3422Y4219D01*
X3426Y4213D01*
X3422Y4208D01*
X3421Y4201D01*
X3422Y4194D01*
X3426Y4188D01*
X3422Y4182D01*
X3421Y4175D01*
X3422Y4168D01*
X3426Y4162D01*
X3422Y4156D01*
X3421Y4149D01*
X3422Y4142D01*
X3426Y4137D01*
X3432Y4133D01*
X3439Y4131D01*
X3448D01*
Y4054D01*
X3445Y4053D01*
X3438Y4047D01*
X3432Y4040D01*
X3429Y4031D01*
X3428Y4022D01*
X3429Y4013D01*
X3432Y4004D01*
X3438Y3997D01*
X3445Y3992D01*
X3454Y3988D01*
X3463Y3987D01*
X3472Y3988D01*
X3481Y3992D01*
X3488Y3997D01*
X3493Y4004D01*
X3497Y4013D01*
X3498Y4022D01*
X3497Y4031D01*
X3493Y4040D01*
X3488Y4047D01*
X3481Y4053D01*
X3478Y4054D01*
Y4131D01*
X3487D01*
X3494Y4133D01*
X3499Y4137D01*
X3503Y4142D01*
X3505Y4149D01*
X3503Y4156D01*
X3499Y4162D01*
X3503Y4168D01*
X3505Y4175D01*
X3503Y4182D01*
X3499Y4188D01*
X3503Y4194D01*
X3505Y4201D01*
X3503Y4208D01*
X3499Y4213D01*
X3503Y4219D01*
X3505Y4226D01*
X3503Y4233D01*
X3499Y4239D01*
X3494Y4243D01*
X3487Y4244D01*
X3478D01*
Y4420D01*
X3477Y4425D01*
X3477Y4426D01*
X3474Y4431D01*
X3364Y4541D01*
X3378D01*
Y4626D01*
D02*
G37*
G36*
X2945Y4097D02*
X2856D01*
Y4010D01*
X2945D01*
Y4097D01*
D02*
G37*
G36*
X3074D02*
X2985D01*
Y4010D01*
X3074D01*
Y4097D01*
D02*
G37*
G36*
X4024D02*
X3935D01*
Y4010D01*
X4024D01*
Y4097D01*
D02*
G37*
G36*
X4984D02*
X4895D01*
Y4010D01*
X4984D01*
Y4097D01*
D02*
G37*
G36*
X3895D02*
X3806D01*
Y4010D01*
X3895D01*
Y4097D01*
D02*
G37*
G36*
X4855D02*
X4766D01*
Y4010D01*
X4855D01*
Y4097D01*
D02*
G37*
G36*
X2134D02*
X2045D01*
Y4010D01*
X2134D01*
Y4097D01*
D02*
G37*
G36*
X4855Y3970D02*
X4766D01*
Y3883D01*
X4855D01*
Y3970D01*
D02*
G37*
G36*
X5660Y3906D02*
X5590D01*
Y3715D01*
X5660D01*
Y3906D01*
D02*
G37*
G36*
X5770D02*
X5700D01*
Y3715D01*
X5770D01*
Y3906D01*
D02*
G37*
G36*
X3074Y3970D02*
X2985D01*
Y3883D01*
X3074D01*
Y3970D01*
D02*
G37*
G36*
X3895D02*
X3806D01*
Y3883D01*
X3895D01*
Y3970D01*
D02*
G37*
G36*
X4024D02*
X3935D01*
Y3883D01*
X4024D01*
Y3970D01*
D02*
G37*
G36*
X2005D02*
X1916D01*
Y3883D01*
X2005D01*
Y3970D01*
D02*
G37*
G36*
X2134D02*
X2045D01*
Y3883D01*
X2134D01*
Y3970D01*
D02*
G37*
G36*
X2945D02*
X2856D01*
Y3883D01*
X2945D01*
Y3970D01*
D02*
G37*
G36*
X2054Y4654D02*
X2042Y4653D01*
X2031Y4649D01*
X2021Y4644D01*
X2012Y4636D01*
X2004Y4627D01*
X2000Y4620D01*
X1749D01*
X1740Y4618D01*
X1731Y4612D01*
X1722Y4603D01*
X1672D01*
Y4517D01*
X1758D01*
Y4567D01*
X1760Y4569D01*
X2000D01*
X2004Y4561D01*
X2012Y4552D01*
X2021Y4545D01*
X2031Y4539D01*
X2042Y4536D01*
X2054Y4535D01*
X2065Y4536D01*
X2077Y4539D01*
X2087Y4545D01*
X2096Y4552D01*
X2103Y4561D01*
X2109Y4572D01*
X2112Y4583D01*
X2113Y4594D01*
X2112Y4606D01*
X2109Y4617D01*
X2103Y4627D01*
X2096Y4636D01*
X2087Y4644D01*
X2077Y4649D01*
X2065Y4653D01*
X2054Y4654D01*
D02*
G37*
G36*
X2994D02*
X2982Y4653D01*
X2971Y4649D01*
X2961Y4644D01*
X2952Y4636D01*
X2944Y4627D01*
X2940Y4620D01*
X2689D01*
X2680Y4618D01*
X2671Y4612D01*
X2662Y4603D01*
X2612D01*
Y4517D01*
X2698D01*
Y4567D01*
X2700Y4569D01*
X2940D01*
X2944Y4561D01*
X2952Y4552D01*
X2961Y4545D01*
X2971Y4539D01*
X2982Y4536D01*
X2994Y4535D01*
X3005Y4536D01*
X3017Y4539D01*
X3027Y4545D01*
X3036Y4552D01*
X3043Y4561D01*
X3049Y4572D01*
X3052Y4583D01*
X3053Y4594D01*
X3052Y4606D01*
X3049Y4617D01*
X3043Y4627D01*
X3036Y4636D01*
X3027Y4644D01*
X3017Y4649D01*
X3005Y4653D01*
X2994Y4654D01*
D02*
G37*
G36*
X3944D02*
X3932Y4653D01*
X3921Y4649D01*
X3911Y4644D01*
X3902Y4636D01*
X3894Y4627D01*
X3890Y4620D01*
X3639D01*
X3630Y4618D01*
X3621Y4612D01*
X3612Y4603D01*
X3562D01*
Y4517D01*
X3648D01*
Y4567D01*
X3650Y4569D01*
X3890D01*
X3894Y4561D01*
X3902Y4552D01*
X3911Y4545D01*
X3921Y4539D01*
X3932Y4536D01*
X3944Y4535D01*
X3955Y4536D01*
X3967Y4539D01*
X3977Y4545D01*
X3986Y4552D01*
X3993Y4561D01*
X3999Y4572D01*
X4002Y4583D01*
X4003Y4594D01*
X4002Y4606D01*
X3999Y4617D01*
X3993Y4627D01*
X3986Y4636D01*
X3977Y4644D01*
X3967Y4649D01*
X3955Y4653D01*
X3944Y4654D01*
D02*
G37*
G36*
X4904D02*
X4892Y4653D01*
X4881Y4649D01*
X4871Y4644D01*
X4862Y4636D01*
X4854Y4627D01*
X4850Y4620D01*
X4599D01*
X4590Y4618D01*
X4581Y4612D01*
X4572Y4603D01*
X4522D01*
Y4517D01*
X4608D01*
Y4567D01*
X4610Y4569D01*
X4850D01*
X4854Y4561D01*
X4862Y4552D01*
X4871Y4545D01*
X4881Y4539D01*
X4892Y4536D01*
X4904Y4535D01*
X4915Y4536D01*
X4927Y4539D01*
X4937Y4545D01*
X4946Y4552D01*
X4953Y4561D01*
X4959Y4572D01*
X4962Y4583D01*
X4963Y4594D01*
X4962Y4606D01*
X4959Y4617D01*
X4953Y4627D01*
X4946Y4636D01*
X4937Y4644D01*
X4927Y4649D01*
X4915Y4653D01*
X4904Y4654D01*
D02*
G37*
G36*
X2857Y4749D02*
X2845Y4748D01*
X2834Y4743D01*
X2824Y4736D01*
X2817Y4726D01*
X2813Y4715D01*
X2811Y4703D01*
X2813Y4692D01*
X2817Y4681D01*
X2824Y4671D01*
X2834Y4664D01*
X2845Y4659D01*
X2857Y4658D01*
X2869Y4659D01*
X2880Y4664D01*
X2889Y4671D01*
X2897Y4681D01*
X2901Y4692D01*
X2903Y4703D01*
X2901Y4715D01*
X2897Y4726D01*
X2889Y4736D01*
X2880Y4743D01*
X2869Y4748D01*
X2857Y4749D01*
D02*
G37*
G36*
X3807D02*
X3795Y4748D01*
X3784Y4743D01*
X3774Y4736D01*
X3767Y4726D01*
X3763Y4715D01*
X3761Y4703D01*
X3763Y4692D01*
X3767Y4681D01*
X3774Y4671D01*
X3784Y4664D01*
X3795Y4659D01*
X3807Y4658D01*
X3819Y4659D01*
X3830Y4664D01*
X3839Y4671D01*
X3847Y4681D01*
X3851Y4692D01*
X3853Y4703D01*
X3851Y4715D01*
X3847Y4726D01*
X3839Y4736D01*
X3830Y4743D01*
X3819Y4748D01*
X3807Y4749D01*
D02*
G37*
G36*
X4767D02*
X4755Y4748D01*
X4744Y4743D01*
X4734Y4736D01*
X4727Y4726D01*
X4723Y4715D01*
X4721Y4703D01*
X4723Y4692D01*
X4727Y4681D01*
X4734Y4671D01*
X4744Y4664D01*
X4755Y4659D01*
X4767Y4658D01*
X4779Y4659D01*
X4790Y4664D01*
X4799Y4671D01*
X4807Y4681D01*
X4811Y4692D01*
X4813Y4703D01*
X4811Y4715D01*
X4807Y4726D01*
X4799Y4736D01*
X4790Y4743D01*
X4779Y4748D01*
X4767Y4749D01*
D02*
G37*
G36*
X1917D02*
X1905Y4748D01*
X1894Y4743D01*
X1884Y4736D01*
X1877Y4726D01*
X1873Y4715D01*
X1871Y4703D01*
X1873Y4692D01*
X1877Y4681D01*
X1884Y4671D01*
X1894Y4664D01*
X1905Y4659D01*
X1917Y4658D01*
X1929Y4659D01*
X1940Y4664D01*
X1949Y4671D01*
X1957Y4681D01*
X1961Y4692D01*
X1963Y4703D01*
X1961Y4715D01*
X1957Y4726D01*
X1949Y4736D01*
X1940Y4743D01*
X1929Y4748D01*
X1917Y4749D01*
D02*
G37*
G36*
X5620Y4610D02*
X5603Y4609D01*
X5586Y4605D01*
X5570Y4598D01*
X5555Y4589D01*
X5542Y4578D01*
X5531Y4565D01*
X5522Y4550D01*
X5515Y4534D01*
X5511Y4517D01*
X5510Y4500D01*
X5511Y4483D01*
X5515Y4466D01*
X5522Y4450D01*
X5531Y4435D01*
X5542Y4422D01*
X5555Y4411D01*
X5570Y4402D01*
X5586Y4395D01*
X5603Y4391D01*
X5620Y4390D01*
X5637Y4391D01*
X5654Y4395D01*
X5670Y4402D01*
X5685Y4411D01*
X5698Y4422D01*
X5709Y4435D01*
X5718Y4450D01*
X5725Y4466D01*
X5729Y4483D01*
X5730Y4500D01*
X5729Y4517D01*
X5725Y4534D01*
X5718Y4550D01*
X5709Y4565D01*
X5698Y4578D01*
X5685Y4589D01*
X5670Y4598D01*
X5654Y4605D01*
X5637Y4609D01*
X5620Y4610D01*
D02*
G37*
G36*
X5288Y4399D02*
X5132D01*
Y4315D01*
X4990Y4173D01*
X4974D01*
Y4185D01*
X4926D01*
Y4173D01*
X4924D01*
Y4185D01*
X4876D01*
Y4173D01*
X4874D01*
Y4185D01*
X4826D01*
Y4155D01*
X4825Y4148D01*
X4826Y4140D01*
Y4111D01*
X4874D01*
Y4122D01*
X4876D01*
Y4111D01*
X4924D01*
Y4122D01*
X4926D01*
Y4111D01*
X4974D01*
Y4122D01*
X5001D01*
X5011Y4124D01*
X5019Y4130D01*
X5195Y4305D01*
Y4263D01*
X5176Y4244D01*
X5139D01*
Y4208D01*
X5140D01*
X5140Y4208D01*
X5138Y4201D01*
X5140Y4194D01*
X5143Y4188D01*
X5140Y4182D01*
X5138Y4175D01*
X5140Y4168D01*
X5143Y4162D01*
X5140Y4156D01*
X5138Y4149D01*
X5140Y4142D01*
X5143Y4137D01*
X5149Y4133D01*
X5156Y4131D01*
X5164D01*
X5162Y4131D01*
X5155Y4125D01*
X5149Y4118D01*
X5146Y4109D01*
X5145Y4100D01*
X5146Y4091D01*
X5149Y4082D01*
X5155Y4075D01*
X5162Y4069D01*
X5171Y4066D01*
X5180Y4065D01*
X5189Y4066D01*
X5198Y4069D01*
X5205Y4075D01*
X5211Y4082D01*
X5214Y4091D01*
X5215Y4100D01*
X5214Y4109D01*
X5211Y4118D01*
X5205Y4125D01*
X5198Y4131D01*
X5196Y4131D01*
X5204D01*
X5211Y4133D01*
X5217Y4137D01*
X5220Y4142D01*
X5222Y4149D01*
X5220Y4156D01*
X5217Y4162D01*
X5220Y4168D01*
X5222Y4175D01*
X5220Y4182D01*
X5217Y4188D01*
X5220Y4194D01*
X5222Y4201D01*
X5220Y4208D01*
X5220Y4208D01*
X5221D01*
Y4244D01*
X5220D01*
X5221Y4245D01*
X5224Y4250D01*
X5225Y4256D01*
Y4314D01*
X5288D01*
Y4399D01*
D02*
G37*
G36*
X2438D02*
X2282D01*
Y4315D01*
X2140Y4173D01*
X2124D01*
Y4185D01*
X2076D01*
Y4173D01*
X2074D01*
Y4185D01*
X2026D01*
Y4173D01*
X2024D01*
Y4185D01*
X1976D01*
Y4155D01*
X1975Y4148D01*
X1976Y4140D01*
Y4111D01*
X2024D01*
Y4122D01*
X2026D01*
Y4111D01*
X2074D01*
Y4122D01*
X2076D01*
Y4111D01*
X2124D01*
Y4122D01*
X2151D01*
X2161Y4124D01*
X2169Y4130D01*
X2345Y4305D01*
Y4263D01*
X2326Y4244D01*
X2289D01*
Y4208D01*
X2290D01*
X2290Y4208D01*
X2288Y4201D01*
X2290Y4194D01*
X2293Y4188D01*
X2290Y4182D01*
X2288Y4175D01*
X2290Y4168D01*
X2293Y4162D01*
X2290Y4156D01*
X2288Y4149D01*
X2290Y4142D01*
X2293Y4137D01*
X2299Y4133D01*
X2306Y4131D01*
X2314D01*
X2312Y4131D01*
X2305Y4125D01*
X2299Y4118D01*
X2296Y4109D01*
X2295Y4100D01*
X2296Y4091D01*
X2299Y4082D01*
X2305Y4075D01*
X2312Y4069D01*
X2321Y4066D01*
X2330Y4065D01*
X2339Y4066D01*
X2348Y4069D01*
X2355Y4075D01*
X2361Y4082D01*
X2364Y4091D01*
X2365Y4100D01*
X2364Y4109D01*
X2361Y4118D01*
X2355Y4125D01*
X2348Y4131D01*
X2346Y4131D01*
X2354D01*
X2361Y4133D01*
X2367Y4137D01*
X2370Y4142D01*
X2372Y4149D01*
X2370Y4156D01*
X2367Y4162D01*
X2370Y4168D01*
X2372Y4175D01*
X2370Y4182D01*
X2367Y4188D01*
X2370Y4194D01*
X2372Y4201D01*
X2370Y4208D01*
X2370Y4208D01*
X2371D01*
Y4244D01*
X2370D01*
X2371Y4245D01*
X2374Y4250D01*
X2375Y4256D01*
Y4314D01*
X2438D01*
Y4399D01*
D02*
G37*
G36*
X3378D02*
X3222D01*
Y4315D01*
X3080Y4173D01*
X3064D01*
Y4185D01*
X3016D01*
Y4173D01*
X3014D01*
Y4185D01*
X2966D01*
Y4173D01*
X2964D01*
Y4185D01*
X2916D01*
Y4155D01*
X2915Y4148D01*
X2916Y4140D01*
Y4111D01*
X2964D01*
Y4122D01*
X2966D01*
Y4111D01*
X3014D01*
Y4122D01*
X3016D01*
Y4111D01*
X3064D01*
Y4122D01*
X3091D01*
X3101Y4124D01*
X3109Y4130D01*
X3285Y4305D01*
Y4263D01*
X3266Y4244D01*
X3229D01*
Y4208D01*
X3230D01*
X3230Y4208D01*
X3228Y4201D01*
X3230Y4194D01*
X3233Y4188D01*
X3230Y4182D01*
X3228Y4175D01*
X3230Y4168D01*
X3233Y4162D01*
X3230Y4156D01*
X3228Y4149D01*
X3230Y4142D01*
X3233Y4137D01*
X3239Y4133D01*
X3246Y4131D01*
X3254D01*
X3252Y4131D01*
X3245Y4125D01*
X3239Y4118D01*
X3236Y4109D01*
X3235Y4100D01*
X3236Y4091D01*
X3239Y4082D01*
X3245Y4075D01*
X3252Y4069D01*
X3261Y4066D01*
X3270Y4065D01*
X3279Y4066D01*
X3288Y4069D01*
X3295Y4075D01*
X3301Y4082D01*
X3304Y4091D01*
X3305Y4100D01*
X3304Y4109D01*
X3301Y4118D01*
X3295Y4125D01*
X3288Y4131D01*
X3286Y4131D01*
X3294D01*
X3301Y4133D01*
X3307Y4137D01*
X3310Y4142D01*
X3312Y4149D01*
X3310Y4156D01*
X3307Y4162D01*
X3310Y4168D01*
X3312Y4175D01*
X3310Y4182D01*
X3307Y4188D01*
X3310Y4194D01*
X3312Y4201D01*
X3310Y4208D01*
X3310Y4208D01*
X3311D01*
Y4244D01*
X3310D01*
X3311Y4245D01*
X3314Y4250D01*
X3315Y4256D01*
Y4314D01*
X3378D01*
Y4399D01*
D02*
G37*
G36*
X4328D02*
X4172D01*
Y4315D01*
X4030Y4173D01*
X4014D01*
Y4185D01*
X3966D01*
Y4173D01*
X3964D01*
Y4185D01*
X3916D01*
Y4173D01*
X3914D01*
Y4185D01*
X3866D01*
Y4155D01*
X3865Y4148D01*
X3866Y4140D01*
Y4111D01*
X3914D01*
Y4122D01*
X3916D01*
Y4111D01*
X3964D01*
Y4122D01*
X3966D01*
Y4111D01*
X4014D01*
Y4122D01*
X4041D01*
X4051Y4124D01*
X4059Y4130D01*
X4235Y4305D01*
Y4263D01*
X4216Y4244D01*
X4179D01*
Y4208D01*
X4180D01*
X4180Y4208D01*
X4178Y4201D01*
X4180Y4194D01*
X4183Y4188D01*
X4180Y4182D01*
X4178Y4175D01*
X4180Y4168D01*
X4183Y4162D01*
X4180Y4156D01*
X4178Y4149D01*
X4180Y4142D01*
X4183Y4137D01*
X4189Y4133D01*
X4196Y4131D01*
X4204D01*
X4202Y4131D01*
X4195Y4125D01*
X4189Y4118D01*
X4186Y4109D01*
X4185Y4100D01*
X4186Y4091D01*
X4189Y4082D01*
X4195Y4075D01*
X4202Y4069D01*
X4211Y4066D01*
X4220Y4065D01*
X4229Y4066D01*
X4238Y4069D01*
X4245Y4075D01*
X4251Y4082D01*
X4254Y4091D01*
X4255Y4100D01*
X4254Y4109D01*
X4251Y4118D01*
X4245Y4125D01*
X4238Y4131D01*
X4236Y4131D01*
X4244D01*
X4251Y4133D01*
X4257Y4137D01*
X4260Y4142D01*
X4262Y4149D01*
X4260Y4156D01*
X4257Y4162D01*
X4260Y4168D01*
X4262Y4175D01*
X4260Y4182D01*
X4257Y4188D01*
X4260Y4194D01*
X4262Y4201D01*
X4260Y4208D01*
X4260Y4208D01*
X4261D01*
Y4244D01*
X4260D01*
X4261Y4245D01*
X4264Y4250D01*
X4265Y4256D01*
Y4314D01*
X4328D01*
Y4399D01*
D02*
G37*
G36*
X4824Y4185D02*
X4776D01*
Y4163D01*
X4759D01*
X4758Y4165D01*
X4752Y4173D01*
X4745Y4178D01*
X4736Y4182D01*
X4727Y4183D01*
X4718Y4182D01*
X4710Y4178D01*
X4702Y4173D01*
X4697Y4165D01*
X4693Y4157D01*
X4692Y4148D01*
X4693Y4139D01*
X4697Y4130D01*
X4702Y4123D01*
X4710Y4117D01*
X4718Y4114D01*
X4727Y4112D01*
X4736Y4114D01*
X4745Y4117D01*
X4752Y4123D01*
X4758Y4130D01*
X4759Y4132D01*
X4776D01*
Y4111D01*
X4824D01*
Y4185D01*
D02*
G37*
G36*
X1974D02*
X1926D01*
Y4163D01*
X1909D01*
X1908Y4165D01*
X1902Y4173D01*
X1895Y4178D01*
X1886Y4182D01*
X1877Y4183D01*
X1868Y4182D01*
X1860Y4178D01*
X1852Y4173D01*
X1847Y4165D01*
X1843Y4157D01*
X1842Y4148D01*
X1843Y4139D01*
X1847Y4130D01*
X1852Y4123D01*
X1860Y4117D01*
X1868Y4114D01*
X1877Y4112D01*
X1886Y4114D01*
X1895Y4117D01*
X1902Y4123D01*
X1908Y4130D01*
X1909Y4132D01*
X1926D01*
Y4111D01*
X1974D01*
Y4185D01*
D02*
G37*
G36*
X2914D02*
X2866D01*
Y4163D01*
X2859D01*
X2858Y4165D01*
X2852Y4173D01*
X2845Y4178D01*
X2836Y4182D01*
X2827Y4183D01*
X2818Y4182D01*
X2810Y4178D01*
X2802Y4173D01*
X2797Y4165D01*
X2793Y4157D01*
X2792Y4148D01*
X2793Y4139D01*
X2797Y4130D01*
X2802Y4123D01*
X2810Y4117D01*
X2818Y4114D01*
X2827Y4112D01*
X2836Y4114D01*
X2845Y4117D01*
X2852Y4123D01*
X2858Y4130D01*
X2859Y4132D01*
X2866D01*
Y4111D01*
X2914D01*
Y4185D01*
D02*
G37*
G36*
X3864D02*
X3816D01*
Y4163D01*
X3809D01*
X3808Y4165D01*
X3802Y4173D01*
X3795Y4178D01*
X3786Y4182D01*
X3777Y4183D01*
X3768Y4182D01*
X3760Y4178D01*
X3752Y4173D01*
X3747Y4165D01*
X3743Y4157D01*
X3742Y4148D01*
X3743Y4139D01*
X3747Y4130D01*
X3752Y4123D01*
X3760Y4117D01*
X3768Y4114D01*
X3777Y4112D01*
X3786Y4114D01*
X3795Y4117D01*
X3802Y4123D01*
X3808Y4130D01*
X3809Y4132D01*
X3816D01*
Y4111D01*
X3864D01*
Y4185D01*
D02*
G37*
G36*
X4480Y2945D02*
X4475Y2943D01*
X4465Y2935D01*
X4457Y2925D01*
X4455Y2920D01*
X4480D01*
Y2945D01*
D02*
G37*
G36*
X4520D02*
Y2920D01*
X4545D01*
X4543Y2925D01*
X4535Y2935D01*
X4525Y2943D01*
X4520Y2945D01*
D02*
G37*
G36*
X4480Y2980D02*
X4455D01*
X4457Y2975D01*
X4465Y2965D01*
X4475Y2957D01*
X4480Y2955D01*
Y2980D01*
D02*
G37*
G36*
X3275Y2919D02*
X3257D01*
Y2905D01*
X3275D01*
Y2919D01*
D02*
G37*
G36*
X3207Y3138D02*
X3198Y3136D01*
X3190Y3133D01*
X3182Y3127D01*
X3177Y3120D01*
X3173Y3111D01*
X3172Y3102D01*
X3173Y3093D01*
X3177Y3085D01*
X3182Y3077D01*
X3190Y3072D01*
X3192Y3071D01*
Y3062D01*
X3191D01*
X3182Y3061D01*
X3175Y3056D01*
X3170Y3049D01*
X3168Y3040D01*
X3170Y3031D01*
X3175Y3024D01*
X3182Y3019D01*
X3191Y3018D01*
X3224D01*
X3233Y3019D01*
X3240Y3024D01*
X3245Y3031D01*
X3246Y3040D01*
X3245Y3049D01*
X3240Y3056D01*
X3233Y3061D01*
X3224Y3062D01*
X3223D01*
Y3071D01*
X3225Y3072D01*
X3232Y3077D01*
X3238Y3085D01*
X3239Y3087D01*
X3301D01*
X3371Y3017D01*
Y2972D01*
X3394D01*
Y2968D01*
X3386D01*
Y2912D01*
X3433D01*
Y2968D01*
X3425D01*
Y2972D01*
X3435D01*
Y3058D01*
X3373D01*
X3319Y3113D01*
X3314Y3116D01*
X3308Y3118D01*
X3239D01*
X3238Y3120D01*
X3232Y3127D01*
X3225Y3133D01*
X3216Y3136D01*
X3207Y3138D01*
D02*
G37*
G36*
X2890Y3040D02*
X2810D01*
Y2960D01*
X2868D01*
X2899Y2929D01*
X2904Y2926D01*
X2910Y2925D01*
X2960D01*
X2960Y2924D01*
X2967Y2919D01*
X2976Y2918D01*
X3009D01*
X3018Y2919D01*
X3025Y2924D01*
X3030Y2931D01*
X3032Y2940D01*
X3030Y2949D01*
X3025Y2956D01*
X3019Y2960D01*
X3025Y2962D01*
X3032Y2967D01*
X3034Y2970D01*
X2993D01*
X2951D01*
X2953Y2967D01*
X2960Y2962D01*
X2966Y2960D01*
X2960Y2956D01*
X2960Y2955D01*
X2916D01*
X2890Y2982D01*
Y3040D01*
D02*
G37*
G36*
X4545Y2980D02*
X4520D01*
Y2955D01*
X4525Y2957D01*
X4535Y2965D01*
X4543Y2975D01*
X4545Y2980D01*
D02*
G37*
G36*
X3329Y3058D02*
X3265D01*
Y3005D01*
X3240D01*
X3240Y3006D01*
X3233Y3011D01*
X3224Y3012D01*
X3191D01*
X3182Y3011D01*
X3175Y3006D01*
X3170Y2999D01*
X3168Y2990D01*
X3170Y2981D01*
X3175Y2974D01*
X3182Y2969D01*
X3191Y2968D01*
X3224D01*
X3233Y2969D01*
X3240Y2974D01*
X3240Y2975D01*
X3265D01*
Y2972D01*
X3329D01*
Y3058D01*
D02*
G37*
G36*
X3034Y3020D02*
X2993D01*
X2951D01*
X2953Y3017D01*
X2956Y3015D01*
X2953Y3013D01*
X2951Y3010D01*
X2993D01*
X3034D01*
X3032Y3013D01*
X3029Y3015D01*
X3032Y3017D01*
X3034Y3020D01*
D02*
G37*
G36*
X4480Y3045D02*
X4475Y3043D01*
X4465Y3035D01*
X4457Y3025D01*
X4455Y3020D01*
X4480D01*
Y3045D01*
D02*
G37*
G36*
X3323Y2968D02*
X3267D01*
Y2955D01*
X3240D01*
X3240Y2956D01*
X3233Y2961D01*
X3224Y2962D01*
X3191D01*
X3182Y2961D01*
X3175Y2956D01*
X3170Y2949D01*
X3168Y2940D01*
X3170Y2931D01*
X3175Y2924D01*
X3181Y2920D01*
X3175Y2918D01*
X3168Y2913D01*
X3166Y2910D01*
X3207D01*
X3249D01*
X3247Y2913D01*
X3240Y2918D01*
X3234Y2920D01*
X3240Y2924D01*
X3240Y2925D01*
X3267D01*
Y2921D01*
X3323D01*
Y2929D01*
X3327D01*
Y2919D01*
X3315D01*
Y2905D01*
X3333D01*
Y2912D01*
X3374D01*
Y2968D01*
X3327D01*
Y2960D01*
X3323D01*
Y2968D01*
D02*
G37*
G36*
X2663Y3053D02*
X2607D01*
Y3006D01*
X2637D01*
X2649Y2994D01*
X2607D01*
Y2947D01*
X2620D01*
Y2947D01*
X2617Y2946D01*
X2610Y2940D01*
X2604Y2933D01*
X2601Y2924D01*
X2600Y2915D01*
X2601Y2906D01*
X2604Y2897D01*
X2610Y2890D01*
X2617Y2884D01*
X2626Y2881D01*
X2635Y2880D01*
X2644Y2881D01*
X2653Y2884D01*
X2660Y2890D01*
X2666Y2897D01*
X2669Y2906D01*
X2670Y2915D01*
X2669Y2924D01*
X2666Y2933D01*
X2660Y2940D01*
X2653Y2946D01*
X2650Y2947D01*
Y2947D01*
X2663D01*
Y2985D01*
X2665Y2985D01*
X2714D01*
X2715Y2980D01*
X2722Y2972D01*
X2730Y2965D01*
X2740Y2961D01*
X2750Y2960D01*
X2760Y2961D01*
X2770Y2965D01*
X2778Y2972D01*
X2785Y2980D01*
X2789Y2990D01*
X2790Y3000D01*
X2789Y3010D01*
X2785Y3020D01*
X2778Y3028D01*
X2770Y3035D01*
X2760Y3039D01*
X2750Y3040D01*
X2740Y3039D01*
X2730Y3035D01*
X2722Y3028D01*
X2715Y3020D01*
X2714Y3015D01*
X2671D01*
X2663Y3023D01*
Y3053D01*
D02*
G37*
G36*
X4400Y3040D02*
X4390Y3039D01*
X4380Y3035D01*
X4372Y3028D01*
X4365Y3020D01*
X4361Y3010D01*
X4360Y3000D01*
X4361Y2990D01*
X4365Y2980D01*
X4372Y2972D01*
X4380Y2965D01*
X4390Y2961D01*
X4400Y2960D01*
X4410Y2961D01*
X4420Y2965D01*
X4428Y2972D01*
X4435Y2980D01*
X4439Y2990D01*
X4440Y3000D01*
X4439Y3010D01*
X4435Y3020D01*
X4428Y3028D01*
X4420Y3035D01*
X4410Y3039D01*
X4400Y3040D01*
D02*
G37*
G36*
X1980Y3090D02*
X1963Y3089D01*
X1946Y3085D01*
X1930Y3078D01*
X1915Y3069D01*
X1902Y3058D01*
X1891Y3045D01*
X1882Y3030D01*
X1875Y3014D01*
X1871Y2997D01*
X1870Y2980D01*
X1871Y2963D01*
X1875Y2946D01*
X1882Y2930D01*
X1891Y2915D01*
X1902Y2902D01*
X1915Y2891D01*
X1930Y2882D01*
X1946Y2875D01*
X1963Y2871D01*
X1980Y2870D01*
X1997Y2871D01*
X2014Y2875D01*
X2030Y2882D01*
X2045Y2891D01*
X2058Y2902D01*
X2069Y2915D01*
X2078Y2930D01*
X2085Y2946D01*
X2089Y2963D01*
X2090Y2980D01*
X2089Y2997D01*
X2085Y3014D01*
X2078Y3030D01*
X2069Y3045D01*
X2058Y3058D01*
X2045Y3069D01*
X2030Y3078D01*
X2014Y3085D01*
X1997Y3089D01*
X1980Y3090D01*
D02*
G37*
G36*
X3009Y2912D02*
X2976D01*
X2967Y2911D01*
X2960Y2906D01*
X2955Y2899D01*
X2954Y2890D01*
X2955Y2881D01*
X2960Y2874D01*
X2967Y2869D01*
X2975Y2868D01*
Y2835D01*
X2947D01*
Y2771D01*
X3033D01*
Y2835D01*
X3005D01*
Y2868D01*
X3009D01*
X3018Y2869D01*
X3025Y2874D01*
X3030Y2881D01*
X3032Y2890D01*
X3030Y2899D01*
X3025Y2906D01*
X3018Y2911D01*
X3009Y2912D01*
D02*
G37*
G36*
X4480Y2845D02*
X4475Y2843D01*
X4465Y2835D01*
X4457Y2825D01*
X4455Y2820D01*
X4480D01*
Y2845D01*
D02*
G37*
G36*
X4520D02*
Y2820D01*
X4545D01*
X4543Y2825D01*
X4535Y2835D01*
X4525Y2843D01*
X4520Y2845D01*
D02*
G37*
G36*
X4480Y2780D02*
X4455D01*
X4457Y2775D01*
X4465Y2765D01*
X4475Y2757D01*
X4480Y2755D01*
Y2780D01*
D02*
G37*
G36*
X4545D02*
X4520D01*
Y2755D01*
X4525Y2757D01*
X4535Y2765D01*
X4543Y2775D01*
X4545Y2780D01*
D02*
G37*
G36*
X4400Y2840D02*
X4390Y2839D01*
X4380Y2835D01*
X4372Y2828D01*
X4365Y2820D01*
X4361Y2810D01*
X4360Y2800D01*
X4361Y2790D01*
X4365Y2780D01*
X4372Y2772D01*
X4380Y2765D01*
X4390Y2761D01*
X4400Y2760D01*
X4410Y2761D01*
X4420Y2765D01*
X4428Y2772D01*
X4435Y2780D01*
X4439Y2790D01*
X4440Y2800D01*
X4439Y2810D01*
X4435Y2820D01*
X4428Y2828D01*
X4420Y2835D01*
X4410Y2839D01*
X4400Y2840D01*
D02*
G37*
G36*
X3275Y2865D02*
X3257D01*
Y2852D01*
X3275D01*
Y2865D01*
D02*
G37*
G36*
X3187Y2870D02*
X3166D01*
X3168Y2867D01*
X3175Y2862D01*
X3182Y2859D01*
X3187Y2858D01*
Y2870D01*
D02*
G37*
G36*
X3249D02*
X3227D01*
Y2858D01*
X3232Y2859D01*
X3240Y2862D01*
X3247Y2867D01*
X3249Y2870D01*
D02*
G37*
G36*
X4400Y2940D02*
X4390Y2939D01*
X4380Y2935D01*
X4372Y2928D01*
X4365Y2920D01*
X4361Y2910D01*
X4360Y2900D01*
X4361Y2890D01*
X4365Y2880D01*
X4372Y2872D01*
X4380Y2865D01*
X4390Y2861D01*
X4400Y2860D01*
X4410Y2861D01*
X4420Y2865D01*
X4428Y2872D01*
X4435Y2880D01*
X4439Y2890D01*
X4440Y2900D01*
X4439Y2910D01*
X4435Y2920D01*
X4428Y2928D01*
X4420Y2935D01*
X4410Y2939D01*
X4400Y2940D01*
D02*
G37*
G36*
X3333Y2865D02*
X3315D01*
Y2852D01*
X3333D01*
Y2865D01*
D02*
G37*
G36*
X4480Y2880D02*
X4455D01*
X4457Y2875D01*
X4465Y2865D01*
X4475Y2857D01*
X4480Y2855D01*
Y2880D01*
D02*
G37*
G36*
X4545D02*
X4520D01*
Y2855D01*
X4525Y2857D01*
X4535Y2865D01*
X4543Y2875D01*
X4545Y2880D01*
D02*
G37*
G36*
X4500Y3440D02*
X4490Y3439D01*
X4480Y3435D01*
X4472Y3428D01*
X4465Y3420D01*
X4461Y3410D01*
X4460Y3400D01*
X4461Y3390D01*
X4465Y3380D01*
X4472Y3372D01*
X4480Y3365D01*
X4490Y3361D01*
X4500Y3360D01*
X4510Y3361D01*
X4520Y3365D01*
X4528Y3372D01*
X4535Y3380D01*
X4539Y3390D01*
X4540Y3400D01*
X4539Y3410D01*
X4535Y3420D01*
X4528Y3428D01*
X4520Y3435D01*
X4510Y3439D01*
X4500Y3440D01*
D02*
G37*
G36*
X5595Y3403D02*
X5577D01*
Y3390D01*
X5595D01*
Y3403D01*
D02*
G37*
G36*
X5653D02*
X5635D01*
Y3390D01*
X5653D01*
Y3403D01*
D02*
G37*
G36*
X5595Y3350D02*
X5577D01*
Y3336D01*
X5595D01*
Y3350D01*
D02*
G37*
G36*
X5653D02*
X5635D01*
Y3336D01*
X5653D01*
Y3350D01*
D02*
G37*
G36*
X4400Y3440D02*
X4390Y3439D01*
X4380Y3435D01*
X4372Y3428D01*
X4365Y3420D01*
X4361Y3410D01*
X4360Y3400D01*
X4361Y3390D01*
X4365Y3380D01*
X4372Y3372D01*
X4380Y3365D01*
X4390Y3361D01*
X4400Y3360D01*
X4410Y3361D01*
X4420Y3365D01*
X4428Y3372D01*
X4435Y3380D01*
X4439Y3390D01*
X4440Y3400D01*
X4439Y3410D01*
X4435Y3420D01*
X4428Y3428D01*
X4420Y3435D01*
X4410Y3439D01*
X4400Y3440D01*
D02*
G37*
G36*
X5860Y3450D02*
X5851Y3449D01*
X5843Y3445D01*
X5835Y3440D01*
X5831Y3433D01*
X5768D01*
Y3450D01*
X5682D01*
Y3386D01*
X5768D01*
Y3403D01*
X5827D01*
X5830Y3397D01*
X5835Y3390D01*
X5843Y3384D01*
X5845Y3383D01*
Y3383D01*
X5838D01*
X5830Y3381D01*
X5824Y3377D01*
X5820Y3371D01*
X5818Y3363D01*
X5820Y3356D01*
X5824Y3351D01*
X5820Y3345D01*
X5818Y3338D01*
X5820Y3330D01*
X5822Y3327D01*
X5768D01*
Y3344D01*
X5682D01*
Y3327D01*
X5643D01*
Y3334D01*
X5587D01*
Y3287D01*
X5643D01*
Y3297D01*
X5682D01*
Y3280D01*
X5768D01*
Y3297D01*
X5811D01*
X5810Y3294D01*
X5809Y3287D01*
X5810Y3279D01*
X5813Y3272D01*
X5817Y3266D01*
X5823Y3261D01*
X5830Y3258D01*
X5838Y3258D01*
X5840D01*
Y3287D01*
X5860D01*
Y3293D01*
X5883D01*
X5890Y3294D01*
X5897Y3299D01*
X5901Y3305D01*
X5901Y3307D01*
X5904D01*
X5904Y3307D01*
X5902Y3309D01*
X5902Y3312D01*
X5901Y3320D01*
X5897Y3325D01*
X5901Y3330D01*
X5902Y3338D01*
X5901Y3345D01*
X5897Y3351D01*
X5901Y3356D01*
X5902Y3363D01*
X5901Y3371D01*
X5897Y3377D01*
X5890Y3381D01*
X5883Y3383D01*
X5876D01*
Y3383D01*
X5878Y3384D01*
X5885Y3390D01*
X5891Y3397D01*
X5894Y3406D01*
X5896Y3415D01*
X5894Y3424D01*
X5891Y3432D01*
X5885Y3440D01*
X5878Y3445D01*
X5869Y3449D01*
X5860Y3450D01*
D02*
G37*
G36*
X5660Y3675D02*
X5590D01*
Y3484D01*
X5660D01*
Y3675D01*
D02*
G37*
G36*
X5770D02*
X5700D01*
Y3484D01*
X5770D01*
Y3675D01*
D02*
G37*
G36*
X4400Y3140D02*
X4390Y3139D01*
X4380Y3135D01*
X4372Y3128D01*
X4365Y3120D01*
X4361Y3110D01*
X4360Y3100D01*
X4361Y3090D01*
X4365Y3080D01*
X4372Y3072D01*
X4380Y3065D01*
X4390Y3061D01*
X4400Y3060D01*
X4410Y3061D01*
X4420Y3065D01*
X4428Y3072D01*
X4435Y3080D01*
X4439Y3090D01*
X4440Y3100D01*
X4439Y3110D01*
X4435Y3120D01*
X4428Y3128D01*
X4420Y3135D01*
X4410Y3139D01*
X4400Y3140D01*
D02*
G37*
G36*
X4500D02*
X4490Y3139D01*
X4480Y3135D01*
X4472Y3128D01*
X4465Y3120D01*
X4461Y3110D01*
X4460Y3100D01*
X4461Y3090D01*
X4465Y3080D01*
X4472Y3072D01*
X4480Y3065D01*
X4490Y3061D01*
X4500Y3060D01*
X4510Y3061D01*
X4520Y3065D01*
X4528Y3072D01*
X4535Y3080D01*
X4539Y3090D01*
X4540Y3100D01*
X4539Y3110D01*
X4535Y3120D01*
X4528Y3128D01*
X4520Y3135D01*
X4510Y3139D01*
X4500Y3140D01*
D02*
G37*
G36*
X4400Y3240D02*
X4390Y3239D01*
X4380Y3235D01*
X4372Y3228D01*
X4365Y3220D01*
X4361Y3210D01*
X4360Y3200D01*
X4361Y3190D01*
X4365Y3180D01*
X4372Y3172D01*
X4380Y3165D01*
X4390Y3161D01*
X4400Y3160D01*
X4410Y3161D01*
X4420Y3165D01*
X4428Y3172D01*
X4435Y3180D01*
X4439Y3190D01*
X4440Y3200D01*
X4439Y3210D01*
X4435Y3220D01*
X4428Y3228D01*
X4420Y3235D01*
X4410Y3239D01*
X4400Y3240D01*
D02*
G37*
G36*
X4520Y3045D02*
Y3020D01*
X4545D01*
X4543Y3025D01*
X4535Y3035D01*
X4525Y3043D01*
X4520Y3045D01*
D02*
G37*
G36*
X2973Y3072D02*
X2968Y3071D01*
X2960Y3068D01*
X2953Y3063D01*
X2951Y3060D01*
X2973D01*
Y3072D01*
D02*
G37*
G36*
X3013D02*
Y3060D01*
X3034D01*
X3032Y3063D01*
X3025Y3068D01*
X3018Y3071D01*
X3013Y3072D01*
D02*
G37*
G36*
X4500Y3240D02*
X4490Y3239D01*
X4480Y3235D01*
X4472Y3228D01*
X4465Y3220D01*
X4461Y3210D01*
X4460Y3200D01*
X4461Y3190D01*
X4465Y3180D01*
X4472Y3172D01*
X4480Y3165D01*
X4490Y3161D01*
X4500Y3160D01*
X4510Y3161D01*
X4520Y3165D01*
X4528Y3172D01*
X4535Y3180D01*
X4539Y3190D01*
X4540Y3200D01*
X4539Y3210D01*
X4535Y3220D01*
X4528Y3228D01*
X4520Y3235D01*
X4510Y3239D01*
X4500Y3240D01*
D02*
G37*
G36*
Y3340D02*
X4490Y3339D01*
X4480Y3335D01*
X4472Y3328D01*
X4465Y3320D01*
X4461Y3310D01*
X4460Y3300D01*
X4461Y3290D01*
X4465Y3280D01*
X4472Y3272D01*
X4480Y3265D01*
X4490Y3261D01*
X4500Y3260D01*
X4510Y3261D01*
X4520Y3265D01*
X4528Y3272D01*
X4535Y3280D01*
X4539Y3290D01*
X4540Y3300D01*
X4539Y3310D01*
X4535Y3320D01*
X4528Y3328D01*
X4520Y3335D01*
X4510Y3339D01*
X4500Y3340D01*
D02*
G37*
G36*
X5904Y3267D02*
X5880D01*
Y3258D01*
X5883D01*
X5891Y3258D01*
X5898Y3261D01*
X5904Y3266D01*
X5904Y3267D01*
D02*
G37*
G36*
X4400Y3340D02*
X4390Y3339D01*
X4380Y3335D01*
X4372Y3328D01*
X4365Y3320D01*
X4361Y3310D01*
X4360Y3300D01*
X4361Y3290D01*
X4365Y3280D01*
X4372Y3272D01*
X4380Y3265D01*
X4390Y3261D01*
X4400Y3260D01*
X4410Y3261D01*
X4420Y3265D01*
X4428Y3272D01*
X4435Y3280D01*
X4439Y3290D01*
X4440Y3300D01*
X4439Y3310D01*
X4435Y3320D01*
X4428Y3328D01*
X4420Y3335D01*
X4410Y3339D01*
X4400Y3340D01*
D02*
G37*
G36*
X6117Y2409D02*
X6042D01*
X5967D01*
Y2402D01*
X6042D01*
X6117D01*
Y2409D01*
D02*
G37*
G36*
Y2456D02*
X6042D01*
X5967D01*
Y2449D01*
X6042D01*
X6117D01*
Y2456D01*
D02*
G37*
G36*
X6550Y2327D02*
Y2249D01*
X6628D01*
X6623Y2267D01*
X6614Y2285D01*
X6601Y2300D01*
X6586Y2312D01*
X6568Y2322D01*
X6550Y2327D01*
D02*
G37*
G36*
X6313D02*
X6295Y2322D01*
X6277Y2312D01*
X6262Y2300D01*
X6250Y2285D01*
X6240Y2267D01*
X6235Y2249D01*
X6313D01*
Y2327D01*
D02*
G37*
G36*
X6117Y2645D02*
X6042D01*
X5967D01*
Y2638D01*
X6042D01*
X6117D01*
Y2645D01*
D02*
G37*
G36*
X6313Y2721D02*
X6295Y2715D01*
X6277Y2706D01*
X6262Y2693D01*
X6250Y2678D01*
X6240Y2661D01*
X6235Y2642D01*
X6313D01*
Y2721D01*
D02*
G37*
G36*
X6117Y2598D02*
X6042D01*
X5967D01*
Y2591D01*
X6042D01*
X6117D01*
Y2598D01*
D02*
G37*
G36*
X6550Y2721D02*
Y2642D01*
X6628D01*
X6623Y2661D01*
X6614Y2678D01*
X6601Y2693D01*
X6586Y2706D01*
X6568Y2715D01*
X6550Y2721D01*
D02*
G37*
G36*
X6022Y2701D02*
X5967D01*
Y2685D01*
X6022D01*
Y2701D01*
D02*
G37*
G36*
X6117D02*
X6062D01*
Y2685D01*
X6117D01*
Y2701D01*
D02*
G37*
G36*
Y2504D02*
X6042D01*
X5967D01*
Y2496D01*
X6042D01*
X6117D01*
Y2504D01*
D02*
G37*
G36*
X6628Y2602D02*
X6550D01*
Y2524D01*
X6568Y2530D01*
X6586Y2539D01*
X6601Y2551D01*
X6614Y2567D01*
X6623Y2584D01*
X6628Y2602D01*
D02*
G37*
G36*
X6117Y2551D02*
X6042D01*
X5967D01*
Y2544D01*
X6042D01*
X6117D01*
Y2551D01*
D02*
G37*
G36*
X6313Y2602D02*
X6235D01*
X6240Y2584D01*
X6250Y2567D01*
X6262Y2551D01*
X6277Y2539D01*
X6295Y2530D01*
X6313Y2524D01*
Y2602D01*
D02*
G37*
G36*
X6353Y2721D02*
Y2622D01*
Y2524D01*
X6372Y2530D01*
X6389Y2539D01*
X6404Y2551D01*
X6417Y2567D01*
X6426Y2584D01*
X6429Y2594D01*
X6434D01*
X6437Y2584D01*
X6446Y2567D01*
X6459Y2551D01*
X6474Y2539D01*
X6492Y2530D01*
X6510Y2524D01*
Y2622D01*
Y2721D01*
X6492Y2715D01*
X6474Y2706D01*
X6459Y2693D01*
X6446Y2678D01*
X6437Y2661D01*
X6434Y2651D01*
X6429D01*
X6426Y2661D01*
X6417Y2678D01*
X6404Y2693D01*
X6389Y2706D01*
X6372Y2715D01*
X6353Y2721D01*
D02*
G37*
G36*
X6628Y2209D02*
X6550D01*
Y2130D01*
X6568Y2136D01*
X6586Y2145D01*
X6601Y2158D01*
X6614Y2173D01*
X6623Y2190D01*
X6628Y2209D01*
D02*
G37*
G36*
X6333Y1925D02*
X6316Y1924D01*
X6299Y1919D01*
X6283Y1910D01*
X6269Y1899D01*
X6258Y1885D01*
X6250Y1870D01*
X6244Y1853D01*
X6243Y1835D01*
X6244Y1817D01*
X6250Y1800D01*
X6258Y1785D01*
X6269Y1771D01*
X6283Y1760D01*
X6299Y1751D01*
X6316Y1746D01*
X6333Y1745D01*
X6351Y1746D01*
X6368Y1751D01*
X6383Y1760D01*
X6397Y1771D01*
X6408Y1785D01*
X6417Y1800D01*
X6422Y1817D01*
X6424Y1835D01*
X6422Y1853D01*
X6417Y1870D01*
X6408Y1885D01*
X6397Y1899D01*
X6383Y1910D01*
X6368Y1919D01*
X6351Y1924D01*
X6333Y1925D01*
D02*
G37*
G36*
X6530D02*
X6512Y1924D01*
X6495Y1919D01*
X6480Y1910D01*
X6466Y1899D01*
X6455Y1885D01*
X6446Y1870D01*
X6441Y1853D01*
X6440Y1835D01*
X6441Y1817D01*
X6446Y1800D01*
X6455Y1785D01*
X6466Y1771D01*
X6480Y1760D01*
X6495Y1751D01*
X6512Y1746D01*
X6530Y1745D01*
X6548Y1746D01*
X6565Y1751D01*
X6580Y1760D01*
X6594Y1771D01*
X6605Y1785D01*
X6614Y1800D01*
X6619Y1817D01*
X6620Y1835D01*
X6619Y1853D01*
X6614Y1870D01*
X6605Y1885D01*
X6594Y1899D01*
X6580Y1910D01*
X6565Y1919D01*
X6548Y1924D01*
X6530Y1925D01*
D02*
G37*
G36*
X6333Y1532D02*
X6316Y1530D01*
X6299Y1525D01*
X6283Y1516D01*
X6269Y1505D01*
X6258Y1492D01*
X6250Y1476D01*
X6244Y1459D01*
X6243Y1441D01*
X6244Y1424D01*
X6250Y1407D01*
X6258Y1391D01*
X6269Y1377D01*
X6283Y1366D01*
X6299Y1358D01*
X6316Y1353D01*
X6333Y1351D01*
X6351Y1353D01*
X6368Y1358D01*
X6383Y1366D01*
X6397Y1377D01*
X6408Y1391D01*
X6417Y1407D01*
X6422Y1424D01*
X6424Y1441D01*
X6422Y1459D01*
X6417Y1476D01*
X6408Y1492D01*
X6397Y1505D01*
X6383Y1516D01*
X6368Y1525D01*
X6351Y1530D01*
X6333Y1532D01*
D02*
G37*
G36*
X6530D02*
X6512Y1530D01*
X6495Y1525D01*
X6480Y1516D01*
X6466Y1505D01*
X6455Y1492D01*
X6446Y1476D01*
X6441Y1459D01*
X6440Y1441D01*
X6441Y1424D01*
X6446Y1407D01*
X6455Y1391D01*
X6466Y1377D01*
X6480Y1366D01*
X6495Y1358D01*
X6512Y1353D01*
X6530Y1351D01*
X6548Y1353D01*
X6565Y1358D01*
X6580Y1366D01*
X6594Y1377D01*
X6605Y1391D01*
X6614Y1407D01*
X6619Y1424D01*
X6620Y1441D01*
X6619Y1459D01*
X6614Y1476D01*
X6605Y1492D01*
X6594Y1505D01*
X6580Y1516D01*
X6565Y1525D01*
X6548Y1530D01*
X6530Y1532D01*
D02*
G37*
G36*
X6020Y2062D02*
X5996D01*
X5996Y2061D01*
X6002Y2056D01*
X6009Y2053D01*
X6017Y2053D01*
X6020D01*
Y2062D01*
D02*
G37*
G36*
X6117Y2362D02*
X6042D01*
X5967D01*
Y2346D01*
X5977D01*
Y2309D01*
X6025D01*
Y2178D01*
X6017D01*
X6010Y2176D01*
X6003Y2172D01*
X5999Y2166D01*
X5998Y2158D01*
X5999Y2151D01*
X6003Y2146D01*
X5999Y2140D01*
X5998Y2133D01*
X5999Y2125D01*
X6003Y2120D01*
X5999Y2115D01*
X5998Y2107D01*
X5998Y2104D01*
X5996Y2102D01*
X5996Y2102D01*
X5999D01*
X5999Y2100D01*
X6003Y2094D01*
X6010Y2089D01*
X6017Y2088D01*
X6040D01*
Y2082D01*
X6060D01*
Y2053D01*
X6062D01*
X6070Y2053D01*
X6077Y2056D01*
X6083Y2061D01*
X6087Y2067D01*
X6090Y2074D01*
X6091Y2082D01*
X6091Y2083D01*
X6095Y2086D01*
X6096Y2086D01*
X6105Y2085D01*
X6114Y2086D01*
X6123Y2089D01*
X6130Y2095D01*
X6136Y2102D01*
X6139Y2111D01*
X6140Y2120D01*
X6139Y2129D01*
X6136Y2138D01*
X6130Y2145D01*
X6123Y2151D01*
X6114Y2154D01*
X6105Y2155D01*
X6096Y2154D01*
X6087Y2151D01*
X6081Y2152D01*
X6080Y2153D01*
X6082Y2158D01*
X6080Y2166D01*
X6076Y2172D01*
X6070Y2176D01*
X6062Y2178D01*
X6055D01*
Y2309D01*
X6107D01*
Y2346D01*
X6117D01*
Y2362D01*
D02*
G37*
G36*
X6313Y2209D02*
X6235D01*
X6240Y2190D01*
X6250Y2173D01*
X6262Y2158D01*
X6277Y2145D01*
X6295Y2136D01*
X6313Y2130D01*
Y2209D01*
D02*
G37*
G36*
X6353Y2327D02*
Y2229D01*
Y2130D01*
X6372Y2136D01*
X6389Y2145D01*
X6404Y2158D01*
X6417Y2173D01*
X6426Y2190D01*
X6429Y2200D01*
X6434D01*
X6437Y2190D01*
X6446Y2173D01*
X6459Y2158D01*
X6474Y2145D01*
X6492Y2136D01*
X6510Y2130D01*
Y2229D01*
Y2327D01*
X6492Y2322D01*
X6474Y2312D01*
X6459Y2300D01*
X6446Y2285D01*
X6437Y2267D01*
X6434Y2257D01*
X6429D01*
X6426Y2267D01*
X6417Y2285D01*
X6404Y2300D01*
X6389Y2312D01*
X6372Y2322D01*
X6353Y2327D01*
D02*
G37*
G36*
X6112Y3793D02*
X6037D01*
X5962D01*
Y3786D01*
X6037D01*
X6112D01*
Y3793D01*
D02*
G37*
G36*
Y3840D02*
X6037D01*
X5962D01*
Y3833D01*
X6037D01*
X6112D01*
Y3840D01*
D02*
G37*
G36*
X6017Y3896D02*
X5962D01*
Y3880D01*
X6017D01*
Y3896D01*
D02*
G37*
G36*
X6112Y3746D02*
X6037D01*
X5962D01*
Y3739D01*
X6037D01*
X6112D01*
Y3746D01*
D02*
G37*
G36*
Y3896D02*
X6057D01*
Y3880D01*
X6112D01*
Y3896D01*
D02*
G37*
G36*
X6313Y4569D02*
X6235D01*
X6240Y4550D01*
X6250Y4533D01*
X6262Y4518D01*
X6277Y4505D01*
X6295Y4496D01*
X6313Y4490D01*
Y4569D01*
D02*
G37*
G36*
X6353Y4687D02*
Y4589D01*
Y4490D01*
X6372Y4496D01*
X6389Y4505D01*
X6404Y4518D01*
X6417Y4533D01*
X6426Y4550D01*
X6429Y4560D01*
X6434D01*
X6437Y4550D01*
X6446Y4533D01*
X6459Y4518D01*
X6474Y4505D01*
X6492Y4496D01*
X6510Y4490D01*
Y4589D01*
Y4687D01*
X6492Y4682D01*
X6474Y4672D01*
X6459Y4660D01*
X6446Y4645D01*
X6437Y4627D01*
X6434Y4617D01*
X6429D01*
X6426Y4627D01*
X6417Y4645D01*
X6404Y4660D01*
X6389Y4672D01*
X6372Y4682D01*
X6353Y4687D01*
D02*
G37*
G36*
X6628Y4569D02*
X6550D01*
Y4490D01*
X6568Y4496D01*
X6586Y4505D01*
X6601Y4518D01*
X6614Y4533D01*
X6623Y4550D01*
X6628Y4569D01*
D02*
G37*
G36*
X6313Y4687D02*
X6295Y4682D01*
X6277Y4672D01*
X6262Y4660D01*
X6250Y4645D01*
X6240Y4627D01*
X6235Y4609D01*
X6313D01*
Y4687D01*
D02*
G37*
G36*
X6550D02*
Y4609D01*
X6628D01*
X6623Y4627D01*
X6614Y4645D01*
X6601Y4660D01*
X6586Y4672D01*
X6568Y4682D01*
X6550Y4687D01*
D02*
G37*
G36*
X6313Y4175D02*
X6235D01*
X6240Y4157D01*
X6250Y4139D01*
X6262Y4124D01*
X6277Y4111D01*
X6295Y4102D01*
X6313Y4097D01*
Y4175D01*
D02*
G37*
G36*
X6353Y4293D02*
Y4195D01*
Y4097D01*
X6372Y4102D01*
X6389Y4111D01*
X6404Y4124D01*
X6417Y4139D01*
X6426Y4157D01*
X6429Y4167D01*
X6434D01*
X6437Y4157D01*
X6446Y4139D01*
X6459Y4124D01*
X6474Y4111D01*
X6492Y4102D01*
X6510Y4097D01*
Y4195D01*
Y4293D01*
X6492Y4288D01*
X6474Y4279D01*
X6459Y4266D01*
X6446Y4251D01*
X6437Y4233D01*
X6434Y4223D01*
X6429D01*
X6426Y4233D01*
X6417Y4251D01*
X6404Y4266D01*
X6389Y4279D01*
X6372Y4288D01*
X6353Y4293D01*
D02*
G37*
G36*
X6628Y4175D02*
X6550D01*
Y4097D01*
X6568Y4102D01*
X6586Y4111D01*
X6601Y4124D01*
X6614Y4139D01*
X6623Y4157D01*
X6628Y4175D01*
D02*
G37*
G36*
X6313Y4293D02*
X6295Y4288D01*
X6277Y4279D01*
X6262Y4266D01*
X6250Y4251D01*
X6240Y4233D01*
X6235Y4215D01*
X6313D01*
Y4293D01*
D02*
G37*
G36*
X6550D02*
Y4215D01*
X6628D01*
X6623Y4233D01*
X6614Y4251D01*
X6601Y4266D01*
X6586Y4279D01*
X6568Y4288D01*
X6550Y4293D01*
D02*
G37*
G36*
X6530Y3892D02*
X6512Y3890D01*
X6495Y3885D01*
X6480Y3876D01*
X6466Y3865D01*
X6455Y3852D01*
X6446Y3836D01*
X6441Y3819D01*
X6440Y3801D01*
X6441Y3784D01*
X6446Y3767D01*
X6455Y3751D01*
X6466Y3737D01*
X6480Y3726D01*
X6495Y3718D01*
X6512Y3713D01*
X6530Y3711D01*
X6548Y3713D01*
X6565Y3718D01*
X6580Y3726D01*
X6594Y3737D01*
X6605Y3751D01*
X6614Y3767D01*
X6619Y3784D01*
X6620Y3801D01*
X6619Y3819D01*
X6614Y3836D01*
X6605Y3852D01*
X6594Y3865D01*
X6580Y3876D01*
X6565Y3885D01*
X6548Y3890D01*
X6530Y3892D01*
D02*
G37*
G36*
X6112Y3651D02*
X6037D01*
X5962D01*
Y3644D01*
X6037D01*
X6112D01*
Y3651D01*
D02*
G37*
G36*
Y3699D02*
X6037D01*
X5962D01*
Y3691D01*
X6037D01*
X6112D01*
Y3699D01*
D02*
G37*
G36*
X6333Y3892D02*
X6316Y3890D01*
X6299Y3885D01*
X6283Y3876D01*
X6269Y3865D01*
X6258Y3852D01*
X6250Y3836D01*
X6244Y3819D01*
X6243Y3801D01*
X6244Y3784D01*
X6250Y3767D01*
X6258Y3751D01*
X6269Y3737D01*
X6283Y3726D01*
X6299Y3718D01*
X6316Y3713D01*
X6333Y3711D01*
X6351Y3713D01*
X6368Y3718D01*
X6383Y3726D01*
X6397Y3737D01*
X6408Y3751D01*
X6417Y3767D01*
X6422Y3784D01*
X6424Y3801D01*
X6422Y3819D01*
X6417Y3836D01*
X6408Y3852D01*
X6397Y3865D01*
X6383Y3876D01*
X6368Y3885D01*
X6351Y3890D01*
X6333Y3892D01*
D02*
G37*
G36*
X6112Y3604D02*
X6037D01*
X5962D01*
Y3597D01*
X6037D01*
X6112D01*
Y3604D01*
D02*
G37*
G36*
X6530Y3498D02*
X6512Y3496D01*
X6495Y3491D01*
X6480Y3483D01*
X6466Y3472D01*
X6455Y3458D01*
X6446Y3442D01*
X6441Y3425D01*
X6440Y3408D01*
X6441Y3390D01*
X6446Y3373D01*
X6455Y3357D01*
X6466Y3344D01*
X6480Y3332D01*
X6495Y3324D01*
X6512Y3319D01*
X6530Y3317D01*
X6548Y3319D01*
X6565Y3324D01*
X6580Y3332D01*
X6594Y3344D01*
X6605Y3357D01*
X6614Y3373D01*
X6619Y3390D01*
X6620Y3408D01*
X6619Y3425D01*
X6614Y3442D01*
X6605Y3458D01*
X6594Y3472D01*
X6580Y3483D01*
X6565Y3491D01*
X6548Y3496D01*
X6530Y3498D01*
D02*
G37*
G36*
X6112Y3557D02*
X6037D01*
X5962D01*
Y3541D01*
X5972D01*
Y3504D01*
X6014D01*
Y3383D01*
X6007D01*
X6000Y3381D01*
X5993Y3377D01*
X5989Y3371D01*
X5988Y3363D01*
X5989Y3356D01*
X5993Y3351D01*
X5989Y3345D01*
X5988Y3338D01*
X5989Y3330D01*
X5993Y3325D01*
X5989Y3320D01*
X5988Y3312D01*
X5988Y3309D01*
X5986Y3307D01*
X5986Y3307D01*
X5989D01*
X5989Y3305D01*
X5993Y3299D01*
X6000Y3294D01*
X6007Y3293D01*
X6030D01*
Y3287D01*
X6050D01*
Y3258D01*
X6052D01*
X6060Y3258D01*
X6067Y3261D01*
X6073Y3266D01*
X6077Y3272D01*
X6080Y3279D01*
X6081Y3286D01*
X6082Y3287D01*
X6086Y3290D01*
X6090Y3290D01*
X6099Y3291D01*
X6108Y3294D01*
X6115Y3300D01*
X6121Y3307D01*
X6124Y3316D01*
X6125Y3325D01*
X6124Y3334D01*
X6121Y3343D01*
X6115Y3350D01*
X6108Y3356D01*
X6099Y3359D01*
X6090Y3360D01*
X6081Y3359D01*
X6075Y3357D01*
X6071Y3360D01*
X6072Y3363D01*
X6070Y3371D01*
X6066Y3377D01*
X6060Y3381D01*
X6052Y3383D01*
X6045D01*
Y3504D01*
X6102D01*
Y3541D01*
X6112D01*
Y3557D01*
D02*
G37*
G36*
X6333Y3498D02*
X6316Y3496D01*
X6299Y3491D01*
X6283Y3483D01*
X6269Y3472D01*
X6258Y3458D01*
X6250Y3442D01*
X6244Y3425D01*
X6243Y3408D01*
X6244Y3390D01*
X6250Y3373D01*
X6258Y3357D01*
X6269Y3344D01*
X6283Y3332D01*
X6299Y3324D01*
X6316Y3319D01*
X6333Y3317D01*
X6351Y3319D01*
X6368Y3324D01*
X6383Y3332D01*
X6397Y3344D01*
X6408Y3357D01*
X6417Y3373D01*
X6422Y3390D01*
X6424Y3408D01*
X6422Y3425D01*
X6417Y3442D01*
X6408Y3458D01*
X6397Y3472D01*
X6383Y3483D01*
X6368Y3491D01*
X6351Y3496D01*
X6333Y3498D01*
D02*
G37*
G36*
X6010Y3267D02*
X5986D01*
X5986Y3266D01*
X5992Y3261D01*
X5999Y3258D01*
X6007Y3258D01*
X6010D01*
Y3267D01*
D02*
G37*
%LPD*%
D10*
X4600Y1643D02*
D03*
Y1417D02*
D03*
X3640Y1643D02*
D03*
Y1417D02*
D03*
X2690Y1643D02*
D03*
Y1417D02*
D03*
X1750Y1643D02*
D03*
Y1416D02*
D03*
X2360Y4357D02*
D03*
Y4583D02*
D03*
X3300Y4357D02*
D03*
Y4583D02*
D03*
X4250Y4357D02*
D03*
Y4583D02*
D03*
X5210Y4357D02*
D03*
Y4583D02*
D03*
D11*
X4437Y1851D02*
D03*
Y1825D02*
D03*
Y1799D02*
D03*
Y1774D02*
D03*
X4630Y1851D02*
D03*
Y1825D02*
D03*
Y1799D02*
D03*
X5373Y4149D02*
D03*
Y4175D02*
D03*
Y4201D02*
D03*
Y4226D02*
D03*
X5180Y4149D02*
D03*
Y4175D02*
D03*
Y4201D02*
D03*
X4413Y4149D02*
D03*
Y4175D02*
D03*
Y4201D02*
D03*
Y4226D02*
D03*
X4220Y4149D02*
D03*
Y4175D02*
D03*
Y4201D02*
D03*
X3463Y4149D02*
D03*
Y4175D02*
D03*
Y4201D02*
D03*
Y4226D02*
D03*
X3270Y4149D02*
D03*
Y4175D02*
D03*
Y4201D02*
D03*
X2523Y4149D02*
D03*
Y4175D02*
D03*
Y4201D02*
D03*
Y4226D02*
D03*
X2330Y4149D02*
D03*
Y4175D02*
D03*
Y4201D02*
D03*
X3477Y1851D02*
D03*
Y1825D02*
D03*
Y1799D02*
D03*
Y1774D02*
D03*
X3670Y1851D02*
D03*
Y1825D02*
D03*
Y1799D02*
D03*
X2527Y1851D02*
D03*
Y1825D02*
D03*
Y1799D02*
D03*
Y1774D02*
D03*
X2720Y1851D02*
D03*
Y1825D02*
D03*
Y1799D02*
D03*
X1587Y1850D02*
D03*
Y1825D02*
D03*
Y1799D02*
D03*
Y1773D02*
D03*
X1780Y1850D02*
D03*
Y1825D02*
D03*
Y1799D02*
D03*
D12*
X4630Y1774D02*
D03*
X5180Y4226D02*
D03*
X4220D02*
D03*
X3270D02*
D03*
X2330D02*
D03*
X3670Y1774D02*
D03*
X2720D02*
D03*
X1780Y1773D02*
D03*
D13*
X4935Y2010D02*
D03*
X3975D02*
D03*
X3025D02*
D03*
X2085Y2010D02*
D03*
X4875Y3990D02*
D03*
X3915D02*
D03*
X2965D02*
D03*
X2025D02*
D03*
D14*
X5010Y1852D02*
D03*
X4960D02*
D03*
X4910D02*
D03*
X4860D02*
D03*
X4050D02*
D03*
X4000D02*
D03*
X3950D02*
D03*
X3900D02*
D03*
X3100D02*
D03*
X3050D02*
D03*
X3000D02*
D03*
X2950D02*
D03*
X2160Y1852D02*
D03*
X2110D02*
D03*
X2060D02*
D03*
X2010D02*
D03*
X4800Y4148D02*
D03*
X4850D02*
D03*
X4900D02*
D03*
X4950D02*
D03*
X3840D02*
D03*
X3890D02*
D03*
X3940D02*
D03*
X3990D02*
D03*
X2890D02*
D03*
X2940D02*
D03*
X2990D02*
D03*
X3040D02*
D03*
X1950D02*
D03*
X2000D02*
D03*
X2050D02*
D03*
X2100D02*
D03*
D15*
X4565Y4560D02*
D03*
Y4409D02*
D03*
X3605Y4560D02*
D03*
Y4409D02*
D03*
X2655Y4560D02*
D03*
Y4409D02*
D03*
X1715Y4560D02*
D03*
Y4409D02*
D03*
X5245Y1440D02*
D03*
Y1591D02*
D03*
X4285Y1440D02*
D03*
Y1591D02*
D03*
X3335Y1440D02*
D03*
Y1591D02*
D03*
X2395Y1440D02*
D03*
Y1590D02*
D03*
D16*
X6040Y2082D02*
D03*
Y2107D02*
D03*
Y2133D02*
D03*
Y2158D02*
D03*
X5870Y2082D02*
D03*
Y2107D02*
D03*
Y2133D02*
D03*
Y2158D02*
D03*
X6030Y3287D02*
D03*
Y3312D02*
D03*
Y3338D02*
D03*
Y3363D02*
D03*
X5860Y3287D02*
D03*
Y3312D02*
D03*
Y3338D02*
D03*
Y3363D02*
D03*
D17*
X3403Y3015D02*
D03*
X3297D02*
D03*
X5532Y2215D02*
D03*
X5638D02*
D03*
D18*
X6037Y3530D02*
D03*
Y3577D02*
D03*
Y3624D02*
D03*
Y3860D02*
D03*
Y3813D02*
D03*
Y3766D02*
D03*
Y3719D02*
D03*
Y3671D02*
D03*
X6042Y2335D02*
D03*
Y2382D02*
D03*
Y2429D02*
D03*
Y2665D02*
D03*
Y2618D02*
D03*
Y2571D02*
D03*
Y2524D02*
D03*
Y2476D02*
D03*
D19*
X5680Y3695D02*
D03*
X5685Y2500D02*
D03*
D20*
X5615Y3370D02*
D03*
Y3310D02*
D03*
X3295Y2885D02*
D03*
Y2945D02*
D03*
X2635Y3030D02*
D03*
Y2970D02*
D03*
D21*
X2993Y3040D02*
D03*
Y2990D02*
D03*
Y2940D02*
D03*
Y2890D02*
D03*
X3207Y3040D02*
D03*
Y2990D02*
D03*
Y2940D02*
D03*
Y2890D02*
D03*
D22*
X5725Y3418D02*
D03*
Y3312D02*
D03*
X5735Y2216D02*
D03*
Y2110D02*
D03*
X2990Y2697D02*
D03*
Y2803D02*
D03*
D23*
X5586Y2110D02*
D03*
X5645D02*
D03*
X3350Y2940D02*
D03*
X3410D02*
D03*
D24*
X3718Y2697D02*
X4305Y2110D01*
Y1815D02*
Y2110D01*
X4525Y1718D02*
X4600Y1643D01*
X2035Y2298D02*
Y2300D01*
X1587Y1850D02*
X2035Y2298D01*
X2527Y1851D02*
Y1977D01*
X3477Y1851D02*
Y1978D01*
X4437Y1851D02*
Y1978D01*
X4600Y1643D02*
Y1744D01*
X4630Y1774D01*
X4437Y1580D02*
X4600Y1417D01*
X4437Y1580D02*
Y1774D01*
X4630Y1851D02*
Y1900D01*
X5010Y1852D02*
X5083D01*
X3640Y1643D02*
Y1744D01*
X3670Y1774D01*
X3477Y1580D02*
X3640Y1417D01*
X3477Y1580D02*
Y1774D01*
X3670Y1851D02*
Y1900D01*
X4050Y1852D02*
X4123D01*
X2690Y1643D02*
Y1744D01*
X2720Y1774D01*
X2527Y1580D02*
X2690Y1417D01*
X2527Y1580D02*
Y1774D01*
X2720Y1851D02*
Y1900D01*
X3100Y1852D02*
X3173D01*
X1750Y1643D02*
Y1743D01*
X1780Y1773D01*
X1587Y1579D02*
X1750Y1416D01*
X1587Y1579D02*
Y1773D01*
X1780Y1850D02*
Y1900D01*
X2160Y1852D02*
X2233D01*
X4250Y4583D02*
X4413Y4420D01*
X1877Y4148D02*
X1950D01*
X2827D02*
X2890D01*
X3777D02*
X3840D01*
X4727D02*
X4800D01*
X2665Y3000D02*
X2750D01*
X2635Y3030D02*
X2665Y3000D01*
X2330Y4100D02*
Y4149D01*
X3270Y4100D02*
Y4149D01*
X4220Y4100D02*
Y4149D01*
X5180Y4100D02*
Y4149D01*
X5373Y4023D02*
Y4149D01*
X4413Y4022D02*
Y4149D01*
X3463Y4022D02*
Y4149D01*
X2523Y4022D02*
Y4149D01*
X5210Y4256D02*
Y4357D01*
X5180Y4226D02*
X5210Y4256D01*
Y4583D02*
X5373Y4420D01*
Y4226D02*
Y4420D01*
X4250Y4256D02*
Y4357D01*
X4220Y4226D02*
X4250Y4256D01*
X4413Y4226D02*
Y4420D01*
X3300Y4256D02*
Y4357D01*
X3270Y4226D02*
X3300Y4256D01*
Y4583D02*
X3463Y4420D01*
Y4226D02*
Y4420D01*
X5870Y2158D02*
Y2205D01*
X5860Y3338D02*
Y3363D01*
X2523Y4226D02*
Y4420D01*
X2360Y4583D02*
X2523Y4420D01*
X2330Y4226D02*
X2360Y4256D01*
Y4357D01*
X6030Y3523D02*
X6037Y3530D01*
X6030Y3363D02*
Y3523D01*
X6040Y2333D02*
X6042Y2335D01*
X6040Y2158D02*
Y2333D01*
X5738Y2107D02*
X5870D01*
X5735Y2110D02*
X5738Y2107D01*
X5725Y3312D02*
X5860D01*
X5725Y3312D02*
X5725Y3312D01*
X6030Y3338D02*
X6077D01*
X6090Y3325D01*
X6030Y3312D02*
X6077D01*
X6090Y3325D01*
X6040Y2133D02*
X6092D01*
X6105Y2120D01*
X6040Y2107D02*
X6092D01*
X6105Y2120D01*
X5870Y2133D02*
Y2158D01*
X5860Y2215D02*
X5870Y2205D01*
X5735Y2216D02*
X5859D01*
X5860Y2215D01*
X5860Y3363D02*
Y3415D01*
X5725Y3418D02*
X5857D01*
X5860Y3415D01*
X5616Y3312D02*
X5725D01*
X5615Y3310D02*
X5616Y3312D01*
X5638Y2215D02*
X5734D01*
X5735Y2216D01*
X5645Y2110D02*
X5735D01*
X3207Y2940D02*
X3290D01*
X3295Y2945D01*
X3207Y2890D02*
X3290D01*
X3295Y2885D01*
X3207Y3040D02*
Y3102D01*
Y2990D02*
X3272D01*
X3207Y3102D02*
X3308D01*
X3395Y3015D01*
X3403D01*
X3272Y2990D02*
X3297Y3015D01*
X3295Y2945D02*
X3346D01*
X3350Y2940D01*
X3410D02*
Y3009D01*
X3403Y3015D02*
X3410Y3009D01*
X2910Y2940D02*
X2993D01*
X2850Y3000D02*
X2910Y2940D01*
X3205Y3105D02*
X3207Y3102D01*
X2635Y2915D02*
Y2970D01*
X2990Y2803D02*
Y2887D01*
X2993Y2890D01*
X2990Y2697D02*
X3718D01*
D25*
X4906Y1406D02*
X5211D01*
X5245Y1440D01*
X5206Y1630D02*
X5245Y1591D01*
X4600Y1643D02*
X4809Y1852D01*
X4600Y1417D02*
X4813Y1630D01*
X4906D02*
X5206D01*
X4813D02*
X4906D01*
X4910Y1852D02*
X4960D01*
X4860D02*
X4910D01*
X4809D02*
X4860D01*
X3946Y1406D02*
X4251D01*
X4285Y1440D01*
X4246Y1630D02*
X4285Y1591D01*
X3640Y1643D02*
X3849Y1852D01*
X3640Y1417D02*
X3853Y1630D01*
X3946D02*
X4246D01*
X3853D02*
X3946D01*
X3950Y1852D02*
X4000D01*
X3900D02*
X3950D01*
X3849D02*
X3900D01*
X2996Y1406D02*
X3301D01*
X3335Y1440D01*
X3296Y1630D02*
X3335Y1591D01*
X2690Y1643D02*
X2899Y1852D01*
X2690Y1417D02*
X2903Y1630D01*
X2996D02*
X3296D01*
X2903D02*
X2996D01*
X3000Y1852D02*
X3050D01*
X2950D02*
X3000D01*
X2899D02*
X2950D01*
X1963Y1630D02*
X2356D01*
X2056Y1405D02*
X2361D01*
X2395Y1440D01*
X2356Y1630D02*
X2395Y1590D01*
X1750Y1643D02*
X1959Y1852D01*
X1750Y1416D02*
X1963Y1630D01*
X2060Y1852D02*
X2110D01*
X2010D02*
X2060D01*
X1959D02*
X2010D01*
X3644Y4370D02*
X3944D01*
X3890Y4148D02*
X3940D01*
X3890D02*
X3990D01*
X4604Y4370D02*
X4904D01*
X4997D01*
X4850Y4148D02*
X4900D01*
X4950D02*
X5001D01*
X4599Y4594D02*
X4904D01*
X4565Y4560D02*
X4599Y4594D01*
X4565Y4409D02*
X4604Y4370D01*
X5001Y4148D02*
X5210Y4357D01*
X4997Y4370D02*
X5210Y4583D01*
X4900Y4148D02*
X4950D01*
X3639Y4594D02*
X3944D01*
X3605Y4560D02*
X3639Y4594D01*
X3605Y4409D02*
X3644Y4370D01*
X4041Y4148D02*
X4250Y4357D01*
X4037Y4370D02*
X4250Y4583D01*
X3944Y4370D02*
X4037D01*
X3990Y4148D02*
X4041D01*
X2689Y4594D02*
X2994D01*
X2655Y4560D02*
X2689Y4594D01*
X2655Y4409D02*
X2694Y4370D01*
X3091Y4148D02*
X3300Y4357D01*
X3087Y4370D02*
X3300Y4583D01*
X2694Y4370D02*
X2994D01*
X3087D01*
X2940Y4148D02*
X2990D01*
X3040D01*
X3091D01*
X2100D02*
X2151D01*
X2050D02*
X2100D01*
X2000D02*
X2050D01*
X2054Y4370D02*
X2147D01*
X1754D02*
X2054D01*
X2147D02*
X2360Y4583D01*
X2151Y4148D02*
X2360Y4357D01*
X1715Y4409D02*
X1754Y4370D01*
X1715Y4560D02*
X1749Y4594D01*
X2054D01*
D26*
X5997Y3719D02*
D03*
X6002Y2524D02*
D03*
D27*
X5596Y3695D02*
D03*
X5601Y2500D02*
D03*
D28*
X5810Y3695D02*
D03*
X5815Y2500D02*
D03*
D29*
X5620Y4500D02*
D03*
Y1500D02*
D03*
X1980Y2980D02*
D03*
D30*
X4904Y4594D02*
D03*
Y4370D02*
D03*
X3944Y4594D02*
D03*
Y4370D02*
D03*
X2994Y4594D02*
D03*
Y4370D02*
D03*
X2054Y4594D02*
D03*
Y4370D02*
D03*
X4906Y1406D02*
D03*
Y1630D02*
D03*
X3946Y1406D02*
D03*
Y1630D02*
D03*
X2996Y1406D02*
D03*
Y1630D02*
D03*
X2056Y1406D02*
D03*
Y1630D02*
D03*
D31*
X6884Y4814D02*
D03*
Y3182D02*
D03*
X6530Y4589D02*
D03*
X6333D02*
D03*
Y4195D02*
D03*
X6530D02*
D03*
Y3801D02*
D03*
X6333D02*
D03*
Y3408D02*
D03*
X6530D02*
D03*
X6884Y2848D02*
D03*
Y1216D02*
D03*
X6530Y2622D02*
D03*
X6333D02*
D03*
Y2229D02*
D03*
X6530D02*
D03*
Y1835D02*
D03*
X6333D02*
D03*
Y1441D02*
D03*
X6530D02*
D03*
D32*
X4400Y3400D02*
D03*
X4500D02*
D03*
X4400Y3300D02*
D03*
X4500D02*
D03*
X4400Y3200D02*
D03*
X4500D02*
D03*
X4400Y3100D02*
D03*
X4500D02*
D03*
X4400Y3000D02*
D03*
X4500D02*
D03*
X4400Y2900D02*
D03*
X4500D02*
D03*
X4400Y2800D02*
D03*
X4500D02*
D03*
X4400Y2700D02*
D03*
X4500D02*
D03*
X4400Y2600D02*
D03*
X4500D02*
D03*
X4400Y2500D02*
D03*
X4500D02*
D03*
X4400Y2400D02*
D03*
X4500D02*
D03*
X4400Y2300D02*
D03*
X4500D02*
D03*
X4400Y2200D02*
D03*
X4500D02*
D03*
X4400Y2100D02*
D03*
X2750Y3000D02*
D03*
D33*
X4500Y2100D02*
D03*
D34*
X2850Y3000D02*
D03*
D35*
X4305Y1815D02*
D03*
X4525Y1718D02*
D03*
X2035Y2300D02*
D03*
X2527Y1977D02*
D03*
X3477Y1978D02*
D03*
X4437D02*
D03*
X4630Y1900D02*
D03*
X5083Y1852D02*
D03*
X3670Y1900D02*
D03*
X4123Y1852D02*
D03*
X2720Y1900D02*
D03*
X3173Y1852D02*
D03*
X1780Y1900D02*
D03*
X2233Y1852D02*
D03*
X1877Y4148D02*
D03*
X2827D02*
D03*
X3777D02*
D03*
X4727D02*
D03*
X2330Y4100D02*
D03*
X3270D02*
D03*
X4220D02*
D03*
X5180D02*
D03*
X5373Y4023D02*
D03*
X4413Y4022D02*
D03*
X3463D02*
D03*
X2523D02*
D03*
X6090Y3325D02*
D03*
X6105Y2120D02*
D03*
X5860Y2215D02*
D03*
X5860Y3415D02*
D03*
X3207Y3102D02*
D03*
X2635Y2915D02*
D03*
M02*
