G04 Layer_Color=8421504*
%FSLAX25Y25*%
%MOIN*%
G70*
G01*
G75*
%ADD10R,0.02795X0.05402*%
%ADD11R,0.17795X0.17480*%
%ADD12R,0.04331X0.06693*%
%ADD13R,0.06693X0.04331*%
%ADD14R,0.06575X0.06516*%
%ADD15R,0.02756X0.03543*%
%ADD16R,0.03543X0.02756*%
%ADD17R,0.14000X0.38200*%
%ADD18R,0.11024X0.03150*%
%ADD19R,0.22047X0.09606*%
%ADD20R,0.03504X0.09606*%
%ADD21O,0.06299X0.01772*%
%ADD22O,0.05512X0.01772*%
%ADD26R,0.14567X0.38189*%
%ADD27R,0.05512X0.39764*%
%ADD28R,0.03150X0.31496*%
D10*
X472500Y394272D02*
D03*
X467500D02*
D03*
X462500D02*
D03*
X457500D02*
D03*
X600500D02*
D03*
X595500D02*
D03*
X590500D02*
D03*
X585500D02*
D03*
X728500D02*
D03*
X723500D02*
D03*
X718500D02*
D03*
X713500D02*
D03*
X240500Y180728D02*
D03*
X245500D02*
D03*
X250500D02*
D03*
X255500D02*
D03*
X624500D02*
D03*
X629500D02*
D03*
X634500D02*
D03*
X639500D02*
D03*
X496500D02*
D03*
X501500D02*
D03*
X506500D02*
D03*
X511500D02*
D03*
X368500D02*
D03*
X373500D02*
D03*
X378500D02*
D03*
X383500D02*
D03*
X344500Y394272D02*
D03*
X339500D02*
D03*
X334500D02*
D03*
X329500D02*
D03*
D11*
X465000Y378500D02*
D03*
X593000D02*
D03*
X721000D02*
D03*
X248000Y196500D02*
D03*
X632000D02*
D03*
X504000D02*
D03*
X376000D02*
D03*
X337000Y378500D02*
D03*
D12*
X775185Y346500D02*
D03*
X785815D02*
D03*
X774685Y160500D02*
D03*
X785315D02*
D03*
X717106Y211937D02*
D03*
X706476D02*
D03*
X589106D02*
D03*
X578476D02*
D03*
X461106D02*
D03*
X450476D02*
D03*
X333106D02*
D03*
X322476D02*
D03*
X251894Y363063D02*
D03*
X262524D02*
D03*
X379894D02*
D03*
X390524D02*
D03*
X507894D02*
D03*
X518524D02*
D03*
X635894D02*
D03*
X646524D02*
D03*
X717421Y191937D02*
D03*
X706791D02*
D03*
X589421D02*
D03*
X578791D02*
D03*
X461421D02*
D03*
X450791D02*
D03*
X333421D02*
D03*
X322791D02*
D03*
X251579Y383063D02*
D03*
X262209D02*
D03*
X379579D02*
D03*
X390209D02*
D03*
X507579D02*
D03*
X518209D02*
D03*
X635579D02*
D03*
X646209D02*
D03*
D13*
X653291Y196158D02*
D03*
Y185528D02*
D03*
X525291Y196158D02*
D03*
Y185528D02*
D03*
X397291Y196158D02*
D03*
Y185528D02*
D03*
X269291Y196158D02*
D03*
Y185528D02*
D03*
X315709Y378842D02*
D03*
Y389472D02*
D03*
X443709Y378842D02*
D03*
Y389472D02*
D03*
X571709Y378842D02*
D03*
Y389472D02*
D03*
X699709Y378842D02*
D03*
Y389472D02*
D03*
D14*
X625000Y137000D02*
D03*
Y152079D02*
D03*
X497000Y137000D02*
D03*
Y152079D02*
D03*
X369000Y137000D02*
D03*
Y152079D02*
D03*
X241000Y137000D02*
D03*
Y152079D02*
D03*
X344000Y438000D02*
D03*
Y422921D02*
D03*
X472000Y438000D02*
D03*
Y422921D02*
D03*
X600000Y438000D02*
D03*
Y422921D02*
D03*
X728000Y438000D02*
D03*
Y422921D02*
D03*
D15*
X679953Y167421D02*
D03*
X674047D02*
D03*
X551953D02*
D03*
X546047D02*
D03*
X423953D02*
D03*
X418047D02*
D03*
X295953D02*
D03*
X290047D02*
D03*
X289047Y407579D02*
D03*
X294953D02*
D03*
X417047D02*
D03*
X422953D02*
D03*
X545047D02*
D03*
X550953D02*
D03*
X673047D02*
D03*
X678953D02*
D03*
X679953Y161921D02*
D03*
X674047D02*
D03*
X551953D02*
D03*
X546047D02*
D03*
X423953D02*
D03*
X418047D02*
D03*
X295953D02*
D03*
X290047D02*
D03*
X289047Y413079D02*
D03*
X294953D02*
D03*
X417047D02*
D03*
X422953D02*
D03*
X545047D02*
D03*
X550953D02*
D03*
X673047D02*
D03*
X678953D02*
D03*
X690906Y161921D02*
D03*
X685000D02*
D03*
X562906D02*
D03*
X557000D02*
D03*
X434905D02*
D03*
X429000D02*
D03*
X306906D02*
D03*
X301000D02*
D03*
X278095Y413079D02*
D03*
X284000D02*
D03*
X406095D02*
D03*
X412000D02*
D03*
X534094D02*
D03*
X540000D02*
D03*
X662094D02*
D03*
X668000D02*
D03*
X690906Y167421D02*
D03*
X685000D02*
D03*
X562906D02*
D03*
X557000D02*
D03*
X434905D02*
D03*
X429000D02*
D03*
X306906D02*
D03*
X301000D02*
D03*
X278095Y407579D02*
D03*
X284000D02*
D03*
X406095D02*
D03*
X412000D02*
D03*
X534094D02*
D03*
X540000D02*
D03*
X662094D02*
D03*
X668000D02*
D03*
X690906Y178421D02*
D03*
X685000D02*
D03*
X562906D02*
D03*
X557000D02*
D03*
X434905D02*
D03*
X429000D02*
D03*
X306906D02*
D03*
X301000D02*
D03*
X278095Y396579D02*
D03*
X284000D02*
D03*
X406095D02*
D03*
X412000D02*
D03*
X534094D02*
D03*
X540000D02*
D03*
X662094D02*
D03*
X668000D02*
D03*
X690906Y172921D02*
D03*
X685000D02*
D03*
X562906D02*
D03*
X557000D02*
D03*
X434905D02*
D03*
X429000D02*
D03*
X306906D02*
D03*
X301000D02*
D03*
X278095Y402079D02*
D03*
X284000D02*
D03*
X406095D02*
D03*
X412000D02*
D03*
X534094D02*
D03*
X540000D02*
D03*
X662094D02*
D03*
X668000D02*
D03*
X791953Y336000D02*
D03*
X786047D02*
D03*
X791453Y151000D02*
D03*
X785547D02*
D03*
X717953Y292000D02*
D03*
X712047D02*
D03*
X712047Y282000D02*
D03*
X717953D02*
D03*
D16*
X651291Y208295D02*
D03*
Y202390D02*
D03*
X523291Y208295D02*
D03*
Y202390D02*
D03*
X395291Y208295D02*
D03*
Y202390D02*
D03*
X267291Y208295D02*
D03*
Y202390D02*
D03*
X317709Y366705D02*
D03*
Y372610D02*
D03*
X445709Y366705D02*
D03*
Y372610D02*
D03*
X573709Y366705D02*
D03*
Y372610D02*
D03*
X701709Y366705D02*
D03*
Y372610D02*
D03*
X651291Y225795D02*
D03*
Y219890D02*
D03*
X523291Y225795D02*
D03*
Y219890D02*
D03*
X395291Y225795D02*
D03*
Y219890D02*
D03*
X267291Y225795D02*
D03*
Y219890D02*
D03*
X317709Y349205D02*
D03*
Y355110D02*
D03*
X445709Y349205D02*
D03*
Y355110D02*
D03*
X573709Y349205D02*
D03*
Y355110D02*
D03*
X701709Y349205D02*
D03*
Y355110D02*
D03*
X706291Y198984D02*
D03*
Y204890D02*
D03*
X578291Y198984D02*
D03*
Y204890D02*
D03*
X450291Y198984D02*
D03*
Y204890D02*
D03*
X322291Y198984D02*
D03*
Y204890D02*
D03*
X262709Y376016D02*
D03*
Y370110D02*
D03*
X390709Y376016D02*
D03*
Y370110D02*
D03*
X518709Y376016D02*
D03*
Y370110D02*
D03*
X646709Y376016D02*
D03*
Y370110D02*
D03*
D17*
X778539Y383500D02*
D03*
Y199000D02*
D03*
D18*
X814167Y381138D02*
D03*
Y385862D02*
D03*
Y390587D02*
D03*
Y395311D02*
D03*
Y400035D02*
D03*
Y376413D02*
D03*
Y371689D02*
D03*
Y366965D02*
D03*
Y182465D02*
D03*
Y187189D02*
D03*
Y191913D02*
D03*
Y215535D02*
D03*
Y210811D02*
D03*
Y206087D02*
D03*
Y201362D02*
D03*
Y196638D02*
D03*
D19*
X626500Y237528D02*
D03*
Y218000D02*
D03*
X498500Y237528D02*
D03*
Y218000D02*
D03*
X370500Y237528D02*
D03*
Y218000D02*
D03*
X242500Y237528D02*
D03*
Y218000D02*
D03*
X342500Y337472D02*
D03*
Y357000D02*
D03*
X470500Y337472D02*
D03*
Y357000D02*
D03*
X598500Y337472D02*
D03*
Y357000D02*
D03*
X726500Y337472D02*
D03*
Y357000D02*
D03*
D20*
X642779Y237528D02*
D03*
Y218000D02*
D03*
X514780Y237528D02*
D03*
Y218000D02*
D03*
X386779Y237528D02*
D03*
Y218000D02*
D03*
X258780Y237528D02*
D03*
Y218000D02*
D03*
X326220Y337472D02*
D03*
Y357000D02*
D03*
X454220Y337472D02*
D03*
Y357000D02*
D03*
X582221Y337472D02*
D03*
Y357000D02*
D03*
X710220Y337472D02*
D03*
Y357000D02*
D03*
D21*
X797535Y351339D02*
D03*
Y348780D02*
D03*
Y346220D02*
D03*
Y343661D02*
D03*
X814465Y351339D02*
D03*
Y348780D02*
D03*
Y346220D02*
D03*
Y343661D02*
D03*
X797035Y165839D02*
D03*
Y163279D02*
D03*
Y160721D02*
D03*
Y158161D02*
D03*
X813965Y165839D02*
D03*
Y163279D02*
D03*
Y160721D02*
D03*
Y158161D02*
D03*
D22*
X667677Y208453D02*
D03*
Y205894D02*
D03*
Y203335D02*
D03*
Y200776D02*
D03*
Y198216D02*
D03*
Y195658D02*
D03*
Y193098D02*
D03*
Y190539D02*
D03*
Y187980D02*
D03*
Y185421D02*
D03*
X690906Y208453D02*
D03*
Y205894D02*
D03*
Y203335D02*
D03*
Y200776D02*
D03*
Y198216D02*
D03*
Y195658D02*
D03*
Y193098D02*
D03*
Y190539D02*
D03*
Y187980D02*
D03*
Y185421D02*
D03*
X539677Y208453D02*
D03*
Y205894D02*
D03*
Y203335D02*
D03*
Y200776D02*
D03*
Y198216D02*
D03*
Y195658D02*
D03*
Y193098D02*
D03*
Y190539D02*
D03*
Y187980D02*
D03*
Y185421D02*
D03*
X562906Y208453D02*
D03*
Y205894D02*
D03*
Y203335D02*
D03*
Y200776D02*
D03*
Y198216D02*
D03*
Y195658D02*
D03*
Y193098D02*
D03*
Y190539D02*
D03*
Y187980D02*
D03*
Y185421D02*
D03*
X411677Y208453D02*
D03*
Y205894D02*
D03*
Y203335D02*
D03*
Y200776D02*
D03*
Y198216D02*
D03*
Y195658D02*
D03*
Y193098D02*
D03*
Y190539D02*
D03*
Y187980D02*
D03*
Y185421D02*
D03*
X434905Y208453D02*
D03*
Y205894D02*
D03*
Y203335D02*
D03*
Y200776D02*
D03*
Y198216D02*
D03*
Y195658D02*
D03*
Y193098D02*
D03*
Y190539D02*
D03*
Y187980D02*
D03*
Y185421D02*
D03*
X283677Y208453D02*
D03*
Y205894D02*
D03*
Y203335D02*
D03*
Y200776D02*
D03*
Y198216D02*
D03*
Y195658D02*
D03*
Y193098D02*
D03*
Y190539D02*
D03*
Y187980D02*
D03*
Y185421D02*
D03*
X306906Y208453D02*
D03*
Y205894D02*
D03*
Y203335D02*
D03*
Y200776D02*
D03*
Y198216D02*
D03*
Y195658D02*
D03*
Y193098D02*
D03*
Y190539D02*
D03*
Y187980D02*
D03*
Y185421D02*
D03*
X301323Y366547D02*
D03*
Y369106D02*
D03*
Y371665D02*
D03*
Y374224D02*
D03*
Y376783D02*
D03*
Y379343D02*
D03*
Y381902D02*
D03*
Y384461D02*
D03*
Y387020D02*
D03*
Y389579D02*
D03*
X278095Y366547D02*
D03*
Y369106D02*
D03*
Y371665D02*
D03*
Y374224D02*
D03*
Y376783D02*
D03*
Y379343D02*
D03*
Y381902D02*
D03*
Y384461D02*
D03*
Y387020D02*
D03*
Y389579D02*
D03*
X429323Y366547D02*
D03*
Y369106D02*
D03*
Y371665D02*
D03*
Y374224D02*
D03*
Y376783D02*
D03*
Y379343D02*
D03*
Y381902D02*
D03*
Y384461D02*
D03*
Y387020D02*
D03*
Y389579D02*
D03*
X406095Y366547D02*
D03*
Y369106D02*
D03*
Y371665D02*
D03*
Y374224D02*
D03*
Y376783D02*
D03*
Y379343D02*
D03*
Y381902D02*
D03*
Y384461D02*
D03*
Y387020D02*
D03*
Y389579D02*
D03*
X557323Y366547D02*
D03*
Y369106D02*
D03*
Y371665D02*
D03*
Y374224D02*
D03*
Y376783D02*
D03*
Y379343D02*
D03*
Y381902D02*
D03*
Y384461D02*
D03*
Y387020D02*
D03*
Y389579D02*
D03*
X534094Y366547D02*
D03*
Y369106D02*
D03*
Y371665D02*
D03*
Y374224D02*
D03*
Y376783D02*
D03*
Y379343D02*
D03*
Y381902D02*
D03*
Y384461D02*
D03*
Y387020D02*
D03*
Y389579D02*
D03*
X685323Y366547D02*
D03*
Y369106D02*
D03*
Y371665D02*
D03*
Y374224D02*
D03*
Y376783D02*
D03*
Y379343D02*
D03*
Y381902D02*
D03*
Y384461D02*
D03*
Y387020D02*
D03*
Y389579D02*
D03*
X662094Y366547D02*
D03*
Y369106D02*
D03*
Y371665D02*
D03*
Y374224D02*
D03*
Y376783D02*
D03*
Y379343D02*
D03*
Y381902D02*
D03*
Y384461D02*
D03*
Y387020D02*
D03*
Y389579D02*
D03*
D26*
X791532Y383500D02*
D03*
Y199000D02*
D03*
D27*
X770075Y383500D02*
D03*
Y199000D02*
D03*
D28*
X810232Y385862D02*
D03*
Y201362D02*
D03*
M02*
