G04 Layer_Physical_Order=4*
G04 Layer_Color=16711680*
%FSLAX25Y25*%
%MOIN*%
G70*
G01*
G75*
%ADD29C,0.03543*%
%ADD30R,0.03543X0.03543*%
%ADD31C,0.09842*%
%ADD32C,0.16000*%
%ADD33C,0.05905*%
%ADD34R,0.05905X0.05905*%
%ADD35C,0.20000*%
%ADD36C,0.08661*%
%ADD37C,0.11811*%
%ADD38C,0.02600*%
G36*
X917451Y102549D02*
X227549D01*
Y472451D01*
X917451D01*
Y102549D01*
D02*
G37*
%LPC*%
G36*
X277500Y197625D02*
Y197000D01*
X278125D01*
X277854Y197354D01*
X277500Y197625D01*
D02*
G37*
G36*
X273500D02*
X273146Y197354D01*
X272875Y197000D01*
X273500D01*
Y197625D01*
D02*
G37*
G36*
X405500D02*
Y197000D01*
X406125D01*
X405854Y197354D01*
X405500Y197625D01*
D02*
G37*
G36*
X401500D02*
X401146Y197354D01*
X400875Y197000D01*
X401500D01*
Y197625D01*
D02*
G37*
G36*
X644000Y196828D02*
X643139Y196715D01*
X642336Y196382D01*
X641646Y195854D01*
X641117Y195164D01*
X640785Y194361D01*
X640671Y193500D01*
X640785Y192639D01*
X641117Y191836D01*
X641646Y191146D01*
X642336Y190618D01*
X643139Y190285D01*
X644000Y190172D01*
X644862Y190285D01*
X645664Y190618D01*
X646354Y191146D01*
X646882Y191836D01*
X647215Y192639D01*
X647329Y193500D01*
X647215Y194361D01*
X646882Y195164D01*
X646354Y195854D01*
X645664Y196382D01*
X644862Y196715D01*
X644000Y196828D01*
D02*
G37*
G36*
X260000D02*
X259138Y196715D01*
X258336Y196382D01*
X257646Y195854D01*
X257118Y195164D01*
X256785Y194361D01*
X256672Y193500D01*
X256785Y192639D01*
X257118Y191836D01*
X257646Y191146D01*
X258336Y190618D01*
X259138Y190285D01*
X260000Y190172D01*
X260861Y190285D01*
X261664Y190618D01*
X262354Y191146D01*
X262882Y191836D01*
X263215Y192639D01*
X263329Y193500D01*
X263215Y194361D01*
X262882Y195164D01*
X262354Y195854D01*
X261664Y196382D01*
X260861Y196715D01*
X260000Y196828D01*
D02*
G37*
G36*
X697905Y201250D02*
X697044Y201136D01*
X696241Y200804D01*
X695552Y200275D01*
X695023Y199585D01*
X694690Y198783D01*
X694577Y197921D01*
X694690Y197060D01*
X695023Y196257D01*
X695552Y195568D01*
X696241Y195039D01*
X697044Y194706D01*
X697905Y194593D01*
X698055Y194612D01*
X698406Y194154D01*
X698285Y193861D01*
X698172Y193000D01*
X698285Y192139D01*
X698618Y191336D01*
X699146Y190646D01*
X699836Y190118D01*
X700638Y189785D01*
X701500Y189672D01*
X702361Y189785D01*
X703164Y190118D01*
X703854Y190646D01*
X704383Y191336D01*
X704715Y192139D01*
X704829Y193000D01*
X704715Y193861D01*
X704383Y194664D01*
X703854Y195354D01*
X703164Y195882D01*
X702361Y196215D01*
X701500Y196328D01*
X701351Y196309D01*
X700999Y196767D01*
X701121Y197060D01*
X701234Y197921D01*
X701121Y198783D01*
X700788Y199585D01*
X700259Y200275D01*
X699570Y200804D01*
X698767Y201136D01*
X697905Y201250D01*
D02*
G37*
G36*
X516000Y196828D02*
X515138Y196715D01*
X514336Y196382D01*
X513646Y195854D01*
X513118Y195164D01*
X512785Y194361D01*
X512672Y193500D01*
X512785Y192639D01*
X513118Y191836D01*
X513646Y191146D01*
X514336Y190618D01*
X515138Y190285D01*
X516000Y190172D01*
X516861Y190285D01*
X517664Y190618D01*
X518354Y191146D01*
X518883Y191836D01*
X519215Y192639D01*
X519328Y193500D01*
X519215Y194361D01*
X518883Y195164D01*
X518354Y195854D01*
X517664Y196382D01*
X516861Y196715D01*
X516000Y196828D01*
D02*
G37*
G36*
X388000D02*
X387139Y196715D01*
X386336Y196382D01*
X385646Y195854D01*
X385118Y195164D01*
X384785Y194361D01*
X384671Y193500D01*
X384785Y192639D01*
X385118Y191836D01*
X385646Y191146D01*
X386336Y190618D01*
X387139Y190285D01*
X388000Y190172D01*
X388861Y190285D01*
X389664Y190618D01*
X390354Y191146D01*
X390882Y191836D01*
X391215Y192639D01*
X391329Y193500D01*
X391215Y194361D01*
X390882Y195164D01*
X390354Y195854D01*
X389664Y196382D01*
X388861Y196715D01*
X388000Y196828D01*
D02*
G37*
G36*
X529500Y197625D02*
X529146Y197354D01*
X528875Y197000D01*
X529500D01*
Y197625D01*
D02*
G37*
G36*
X464030Y203921D02*
X463406D01*
Y203296D01*
X463759Y203568D01*
X464030Y203921D01*
D02*
G37*
G36*
X459406D02*
X458781D01*
X459052Y203568D01*
X459406Y203296D01*
Y203921D01*
D02*
G37*
G36*
X592030D02*
X591405D01*
Y203296D01*
X591759Y203568D01*
X592030Y203921D01*
D02*
G37*
G36*
X587405D02*
X586781D01*
X587052Y203568D01*
X587405Y203296D01*
Y203921D01*
D02*
G37*
G36*
X336030D02*
X335405D01*
Y203296D01*
X335759Y203568D01*
X336030Y203921D01*
D02*
G37*
G36*
X657500Y197625D02*
X657146Y197354D01*
X656875Y197000D01*
X657500D01*
Y197625D01*
D02*
G37*
G36*
X533500D02*
Y197000D01*
X534125D01*
X533854Y197354D01*
X533500Y197625D01*
D02*
G37*
G36*
X331405Y203921D02*
X330781D01*
X331052Y203568D01*
X331405Y203296D01*
Y203921D01*
D02*
G37*
G36*
X661500Y197625D02*
Y197000D01*
X662125D01*
X661854Y197354D01*
X661500Y197625D01*
D02*
G37*
G36*
X860000Y185843D02*
Y178000D01*
X867843D01*
X867284Y179845D01*
X866355Y181583D01*
X865105Y183105D01*
X863583Y184355D01*
X861845Y185284D01*
X860000Y185843D01*
D02*
G37*
G36*
X836315Y185843D02*
X834470Y185284D01*
X832732Y184355D01*
X831210Y183105D01*
X829960Y181583D01*
X829031Y179845D01*
X828472Y178000D01*
X836315D01*
Y185843D01*
D02*
G37*
G36*
X439500Y184828D02*
X438638Y184715D01*
X437836Y184382D01*
X437146Y183854D01*
X436618Y183164D01*
X436285Y182361D01*
X436171Y181500D01*
X436285Y180639D01*
X436618Y179836D01*
X437146Y179146D01*
X437836Y178618D01*
X438638Y178285D01*
X439500Y178172D01*
X440361Y178285D01*
X441164Y178618D01*
X441854Y179146D01*
X442382Y179836D01*
X442715Y180639D01*
X442829Y181500D01*
X442715Y182361D01*
X442382Y183164D01*
X441854Y183854D01*
X441164Y184382D01*
X440361Y184715D01*
X439500Y184828D01*
D02*
G37*
G36*
X311500D02*
X310638Y184715D01*
X309836Y184382D01*
X309146Y183854D01*
X308617Y183164D01*
X308285Y182361D01*
X308172Y181500D01*
X308285Y180639D01*
X308617Y179836D01*
X309146Y179146D01*
X309836Y178618D01*
X310638Y178285D01*
X311500Y178172D01*
X312362Y178285D01*
X313164Y178618D01*
X313854Y179146D01*
X314383Y179836D01*
X314715Y180639D01*
X314828Y181500D01*
X314715Y182361D01*
X314383Y183164D01*
X313854Y183854D01*
X313164Y184382D01*
X312362Y184715D01*
X311500Y184828D01*
D02*
G37*
G36*
X644000Y183828D02*
X643139Y183715D01*
X642336Y183382D01*
X641646Y182854D01*
X641117Y182164D01*
X640785Y181361D01*
X640671Y180500D01*
X640785Y179639D01*
X641117Y178836D01*
X641646Y178146D01*
X642336Y177618D01*
X643139Y177285D01*
X644000Y177172D01*
X644862Y177285D01*
X645664Y177618D01*
X646354Y178146D01*
X646882Y178836D01*
X647215Y179639D01*
X647329Y180500D01*
X647215Y181361D01*
X646882Y182164D01*
X646354Y182854D01*
X645664Y183382D01*
X644862Y183715D01*
X644000Y183828D01*
D02*
G37*
G36*
X260000D02*
X259138Y183715D01*
X258336Y183382D01*
X257646Y182854D01*
X257118Y182164D01*
X256785Y181361D01*
X256672Y180500D01*
X256785Y179639D01*
X257118Y178836D01*
X257646Y178146D01*
X258336Y177618D01*
X259138Y177285D01*
X260000Y177172D01*
X260861Y177285D01*
X261664Y177618D01*
X262354Y178146D01*
X262882Y178836D01*
X263215Y179639D01*
X263329Y180500D01*
X263215Y181361D01*
X262882Y182164D01*
X262354Y182854D01*
X261664Y183382D01*
X260861Y183715D01*
X260000Y183828D01*
D02*
G37*
G36*
X682000Y175546D02*
Y174921D01*
X682625D01*
X682354Y175275D01*
X682000Y175546D01*
D02*
G37*
G36*
X516000Y183828D02*
X515138Y183715D01*
X514336Y183382D01*
X513646Y182854D01*
X513118Y182164D01*
X512785Y181361D01*
X512672Y180500D01*
X512785Y179639D01*
X513118Y178836D01*
X513646Y178146D01*
X514336Y177618D01*
X515138Y177285D01*
X516000Y177172D01*
X516861Y177285D01*
X517664Y177618D01*
X518354Y178146D01*
X518883Y178836D01*
X519215Y179639D01*
X519328Y180500D01*
X519215Y181361D01*
X518883Y182164D01*
X518354Y182854D01*
X517664Y183382D01*
X516861Y183715D01*
X516000Y183828D01*
D02*
G37*
G36*
X388000D02*
X387139Y183715D01*
X386336Y183382D01*
X385646Y182854D01*
X385118Y182164D01*
X384785Y181361D01*
X384671Y180500D01*
X384785Y179639D01*
X385118Y178836D01*
X385646Y178146D01*
X386336Y177618D01*
X387139Y177285D01*
X388000Y177172D01*
X388861Y177285D01*
X389664Y177618D01*
X390354Y178146D01*
X390882Y178836D01*
X391215Y179639D01*
X391329Y180500D01*
X391215Y181361D01*
X390882Y182164D01*
X390354Y182854D01*
X389664Y183382D01*
X388861Y183715D01*
X388000Y183828D01*
D02*
G37*
G36*
X567500Y184828D02*
X566639Y184715D01*
X565836Y184382D01*
X565146Y183854D01*
X564617Y183164D01*
X564285Y182361D01*
X564172Y181500D01*
X564285Y180639D01*
X564617Y179836D01*
X565146Y179146D01*
X565836Y178618D01*
X566639Y178285D01*
X567500Y178172D01*
X568362Y178285D01*
X569164Y178618D01*
X569854Y179146D01*
X570382Y179836D01*
X570715Y180639D01*
X570828Y181500D01*
X570715Y182361D01*
X570382Y183164D01*
X569854Y183854D01*
X569164Y184382D01*
X568362Y184715D01*
X567500Y184828D01*
D02*
G37*
G36*
X313906Y201250D02*
X313044Y201136D01*
X312241Y200804D01*
X311552Y200275D01*
X311023Y199585D01*
X310690Y198783D01*
X310577Y197921D01*
X310690Y197060D01*
X311023Y196257D01*
X311552Y195568D01*
X312241Y195039D01*
X313044Y194706D01*
X313565Y194638D01*
X313888Y194110D01*
X313785Y193861D01*
X313671Y193000D01*
X313785Y192139D01*
X314118Y191336D01*
X314646Y190646D01*
X315336Y190118D01*
X316139Y189785D01*
X317000Y189672D01*
X317862Y189785D01*
X318664Y190118D01*
X319354Y190646D01*
X319882Y191336D01*
X320215Y192139D01*
X320328Y193000D01*
X320215Y193861D01*
X319882Y194664D01*
X319354Y195354D01*
X318664Y195882D01*
X317862Y196215D01*
X317340Y196284D01*
X317018Y196811D01*
X317121Y197060D01*
X317234Y197921D01*
X317121Y198783D01*
X316788Y199585D01*
X316259Y200275D01*
X315570Y200804D01*
X314767Y201136D01*
X313906Y201250D01*
D02*
G37*
G36*
X662125Y193000D02*
X656875D01*
X657146Y192646D01*
X657836Y192118D01*
X658638Y191785D01*
X658833Y191759D01*
X658892Y191687D01*
X659031Y191229D01*
X658617Y190690D01*
X658285Y189887D01*
X658172Y189026D01*
X658285Y188164D01*
X658617Y187361D01*
X659146Y186672D01*
X659836Y186143D01*
X660639Y185810D01*
X661500Y185697D01*
X662361Y185810D01*
X663164Y186143D01*
X663854Y186672D01*
X664383Y187361D01*
X664715Y188164D01*
X664828Y189026D01*
X664715Y189887D01*
X664383Y190690D01*
X663854Y191379D01*
X663164Y191908D01*
X662361Y192241D01*
X662168Y192266D01*
X662108Y192339D01*
X661969Y192797D01*
X662125Y193000D01*
D02*
G37*
G36*
X569906Y201250D02*
X569044Y201136D01*
X568241Y200804D01*
X567552Y200275D01*
X567023Y199585D01*
X566690Y198783D01*
X566577Y197921D01*
X566690Y197060D01*
X567023Y196257D01*
X567552Y195568D01*
X568241Y195039D01*
X569044Y194706D01*
X569906Y194593D01*
X570055Y194612D01*
X570406Y194154D01*
X570285Y193861D01*
X570171Y193000D01*
X570285Y192139D01*
X570617Y191336D01*
X571146Y190646D01*
X571836Y190118D01*
X572639Y189785D01*
X573500Y189672D01*
X574362Y189785D01*
X575164Y190118D01*
X575854Y190646D01*
X576382Y191336D01*
X576715Y192139D01*
X576828Y193000D01*
X576715Y193861D01*
X576382Y194664D01*
X575854Y195354D01*
X575164Y195882D01*
X574362Y196215D01*
X573500Y196328D01*
X573351Y196309D01*
X572999Y196767D01*
X573121Y197060D01*
X573234Y197921D01*
X573121Y198783D01*
X572788Y199585D01*
X572259Y200275D01*
X571570Y200804D01*
X570767Y201136D01*
X569906Y201250D01*
D02*
G37*
G36*
X441905D02*
X441044Y201136D01*
X440241Y200804D01*
X439552Y200275D01*
X439023Y199585D01*
X438690Y198783D01*
X438577Y197921D01*
X438690Y197060D01*
X439023Y196257D01*
X439552Y195568D01*
X440241Y195039D01*
X441044Y194706D01*
X441905Y194593D01*
X442055Y194612D01*
X442406Y194154D01*
X442285Y193861D01*
X442171Y193000D01*
X442285Y192139D01*
X442618Y191336D01*
X443146Y190646D01*
X443836Y190118D01*
X444638Y189785D01*
X445500Y189672D01*
X446361Y189785D01*
X447164Y190118D01*
X447854Y190646D01*
X448383Y191336D01*
X448715Y192139D01*
X448829Y193000D01*
X448715Y193861D01*
X448383Y194664D01*
X447854Y195354D01*
X447164Y195882D01*
X446361Y196215D01*
X445500Y196328D01*
X445351Y196309D01*
X444999Y196767D01*
X445121Y197060D01*
X445234Y197921D01*
X445121Y198783D01*
X444788Y199585D01*
X444259Y200275D01*
X443570Y200804D01*
X442767Y201136D01*
X441905Y201250D01*
D02*
G37*
G36*
X534125Y193000D02*
X528875D01*
X529146Y192646D01*
X529836Y192118D01*
X530639Y191785D01*
X530832Y191759D01*
X530893Y191687D01*
X531031Y191229D01*
X530618Y190690D01*
X530285Y189887D01*
X530171Y189026D01*
X530285Y188164D01*
X530618Y187361D01*
X531146Y186672D01*
X531836Y186143D01*
X532639Y185810D01*
X533500Y185697D01*
X534362Y185810D01*
X535164Y186143D01*
X535854Y186672D01*
X536382Y187361D01*
X536715Y188164D01*
X536829Y189026D01*
X536715Y189887D01*
X536382Y190690D01*
X535854Y191379D01*
X535164Y191908D01*
X534362Y192241D01*
X534167Y192266D01*
X534107Y192339D01*
X533969Y192797D01*
X534125Y193000D01*
D02*
G37*
G36*
X856000Y185843D02*
X854155Y185284D01*
X852417Y184355D01*
X850895Y183105D01*
X849645Y181583D01*
X848717Y179845D01*
X848407Y178827D01*
X847908D01*
X847598Y179845D01*
X846670Y181583D01*
X845420Y183105D01*
X843898Y184355D01*
X842160Y185284D01*
X840315Y185843D01*
Y176000D01*
Y166157D01*
X842160Y166717D01*
X843898Y167645D01*
X845420Y168895D01*
X846670Y170417D01*
X847598Y172155D01*
X847908Y173173D01*
X848407D01*
X848717Y172155D01*
X849645Y170417D01*
X850895Y168895D01*
X852417Y167645D01*
X854155Y166717D01*
X856000Y166157D01*
Y176000D01*
Y185843D01*
D02*
G37*
G36*
X695500Y184828D02*
X694638Y184715D01*
X693836Y184382D01*
X693146Y183854D01*
X692618Y183164D01*
X692285Y182361D01*
X692171Y181500D01*
X692285Y180639D01*
X692618Y179836D01*
X693146Y179146D01*
X693836Y178618D01*
X694638Y178285D01*
X695500Y178172D01*
X696361Y178285D01*
X697164Y178618D01*
X697854Y179146D01*
X698383Y179836D01*
X698715Y180639D01*
X698829Y181500D01*
X698715Y182361D01*
X698383Y183164D01*
X697854Y183854D01*
X697164Y184382D01*
X696361Y184715D01*
X695500Y184828D01*
D02*
G37*
G36*
X406125Y193000D02*
X400875D01*
X401146Y192646D01*
X401836Y192118D01*
X402638Y191785D01*
X402833Y191759D01*
X402892Y191687D01*
X403031Y191229D01*
X402618Y190690D01*
X402285Y189887D01*
X402172Y189026D01*
X402285Y188164D01*
X402618Y187361D01*
X403146Y186672D01*
X403836Y186143D01*
X404638Y185810D01*
X405500Y185697D01*
X406361Y185810D01*
X407164Y186143D01*
X407854Y186672D01*
X408383Y187361D01*
X408715Y188164D01*
X408828Y189026D01*
X408715Y189887D01*
X408383Y190690D01*
X407854Y191379D01*
X407164Y191908D01*
X406361Y192241D01*
X406168Y192266D01*
X406108Y192339D01*
X405969Y192797D01*
X406125Y193000D01*
D02*
G37*
G36*
X278125D02*
X272875D01*
X273146Y192646D01*
X273836Y192118D01*
X274639Y191785D01*
X274833Y191759D01*
X274892Y191687D01*
X275031Y191229D01*
X274618Y190690D01*
X274285Y189887D01*
X274171Y189026D01*
X274285Y188164D01*
X274618Y187361D01*
X275146Y186672D01*
X275836Y186143D01*
X276639Y185810D01*
X277500Y185697D01*
X278362Y185810D01*
X279164Y186143D01*
X279854Y186672D01*
X280382Y187361D01*
X280715Y188164D01*
X280828Y189026D01*
X280715Y189887D01*
X280382Y190690D01*
X279854Y191379D01*
X279164Y191908D01*
X278362Y192241D01*
X278168Y192266D01*
X278108Y192339D01*
X277969Y192797D01*
X278125Y193000D01*
D02*
G37*
G36*
X715406Y203921D02*
X714781D01*
X715052Y203568D01*
X715406Y203296D01*
Y203921D01*
D02*
G37*
G36*
X566905Y215046D02*
X566552Y214775D01*
X566281Y214421D01*
X566905D01*
Y215046D01*
D02*
G37*
G36*
X442906D02*
Y214421D01*
X443530D01*
X443259Y214775D01*
X442906Y215046D01*
D02*
G37*
G36*
X694906D02*
X694552Y214775D01*
X694281Y214421D01*
X694906D01*
Y215046D01*
D02*
G37*
G36*
X570905D02*
Y214421D01*
X571530D01*
X571259Y214775D01*
X570905Y215046D01*
D02*
G37*
G36*
X438905D02*
X438552Y214775D01*
X438281Y214421D01*
X438905D01*
Y215046D01*
D02*
G37*
G36*
X661500Y212828D02*
X660639Y212715D01*
X659836Y212383D01*
X659174Y211875D01*
X659164Y211882D01*
X658361Y212215D01*
X657500Y212329D01*
X656638Y212215D01*
X655836Y211882D01*
X655146Y211354D01*
X654618Y210664D01*
X654285Y209861D01*
X654172Y209000D01*
X654285Y208138D01*
X654618Y207336D01*
X655146Y206646D01*
X655836Y206118D01*
X656638Y205785D01*
X657500Y205672D01*
X658361Y205785D01*
X659164Y206118D01*
X659826Y206625D01*
X659836Y206617D01*
X660639Y206285D01*
X661500Y206171D01*
X662361Y206285D01*
X663164Y206617D01*
X663854Y207146D01*
X664383Y207836D01*
X664715Y208639D01*
X664828Y209500D01*
X664715Y210362D01*
X664383Y211164D01*
X663854Y211854D01*
X663164Y212383D01*
X662361Y212715D01*
X661500Y212828D01*
D02*
G37*
G36*
X533500D02*
X532639Y212715D01*
X531836Y212383D01*
X531174Y211875D01*
X531164Y211882D01*
X530362Y212215D01*
X529500Y212329D01*
X528639Y212215D01*
X527836Y211882D01*
X527146Y211354D01*
X526617Y210664D01*
X526285Y209861D01*
X526171Y209000D01*
X526285Y208138D01*
X526617Y207336D01*
X527146Y206646D01*
X527836Y206118D01*
X528639Y205785D01*
X529500Y205672D01*
X530362Y205785D01*
X531164Y206118D01*
X531826Y206625D01*
X531836Y206617D01*
X532639Y206285D01*
X533500Y206171D01*
X534362Y206285D01*
X535164Y206617D01*
X535854Y207146D01*
X536382Y207836D01*
X536715Y208639D01*
X536829Y209500D01*
X536715Y210362D01*
X536382Y211164D01*
X535854Y211854D01*
X535164Y212383D01*
X534362Y212715D01*
X533500Y212828D01*
D02*
G37*
G36*
X314906Y215046D02*
Y214421D01*
X315530D01*
X315259Y214775D01*
X314906Y215046D01*
D02*
G37*
G36*
X310906D02*
X310552Y214775D01*
X310281Y214421D01*
X310906D01*
Y215046D01*
D02*
G37*
G36*
X698906D02*
Y214421D01*
X699530D01*
X699259Y214775D01*
X698906Y215046D01*
D02*
G37*
G36*
X732000Y296995D02*
X730707Y296825D01*
X729502Y296326D01*
X728468Y295532D01*
X727674Y294498D01*
X727175Y293293D01*
X727004Y292000D01*
X727175Y290707D01*
X727674Y289502D01*
X728468Y288468D01*
X729502Y287674D01*
X730036Y287453D01*
X729936Y286953D01*
X727047D01*
Y277047D01*
X736953D01*
Y286953D01*
X734064D01*
X733964Y287453D01*
X734498Y287674D01*
X735532Y288468D01*
X736326Y289502D01*
X736825Y290707D01*
X736996Y292000D01*
X736825Y293293D01*
X736326Y294498D01*
X735532Y295532D01*
X734498Y296326D01*
X733293Y296825D01*
X732000Y296995D01*
D02*
G37*
G36*
X262551Y274579D02*
X260780D01*
Y272807D01*
X262551D01*
Y274579D01*
D02*
G37*
G36*
X773009Y284221D02*
X769000D01*
Y280212D01*
X769434Y280343D01*
X770534Y280931D01*
X771498Y281722D01*
X772289Y282686D01*
X772877Y283786D01*
X773009Y284221D01*
D02*
G37*
G36*
X258780Y295147D02*
X257795Y295017D01*
X256877Y294637D01*
X256090Y294033D01*
X255485Y293245D01*
X255105Y292327D01*
X254975Y291342D01*
X255105Y290358D01*
X255485Y289440D01*
X255914Y288882D01*
X255485Y288323D01*
X255105Y287406D01*
X254975Y286421D01*
X255105Y285437D01*
X255485Y284519D01*
X255914Y283961D01*
X255485Y283402D01*
X255105Y282485D01*
X254975Y281500D01*
X255061Y280850D01*
X255008Y280350D01*
X255008Y280350D01*
X255008Y280350D01*
Y278579D01*
X256391D01*
X256877Y278205D01*
X257795Y277825D01*
X258780Y277696D01*
X259764Y277825D01*
X260682Y278205D01*
X261168Y278579D01*
X262551D01*
Y280350D01*
X262551Y280350D01*
X262498Y280850D01*
X262584Y281500D01*
X262454Y282485D01*
X262074Y283402D01*
X261646Y283961D01*
X262074Y284519D01*
X262454Y285437D01*
X262584Y286421D01*
X262454Y287406D01*
X262074Y288323D01*
X261646Y288882D01*
X262074Y289440D01*
X262454Y290358D01*
X262584Y291342D01*
X262454Y292327D01*
X262074Y293245D01*
X261470Y294033D01*
X260682Y294637D01*
X259764Y295017D01*
X258780Y295147D01*
D02*
G37*
G36*
X256780Y274579D02*
X255008D01*
Y272807D01*
X256780D01*
Y274579D01*
D02*
G37*
G36*
X767000Y270141D02*
X765759Y270019D01*
X764566Y269657D01*
X763466Y269069D01*
X762502Y268278D01*
X761711Y267314D01*
X761123Y266214D01*
X760761Y265021D01*
X760639Y263779D01*
X760761Y262539D01*
X761123Y261345D01*
X761369Y260886D01*
X761133Y260445D01*
X760175Y260350D01*
X758684Y259898D01*
X757311Y259164D01*
X756107Y258176D01*
X755119Y256972D01*
X754385Y255599D01*
X753933Y254109D01*
X753781Y252559D01*
X753933Y251009D01*
X754385Y249519D01*
X755119Y248146D01*
X756107Y246942D01*
X757311Y245954D01*
X758684Y245220D01*
X760175Y244768D01*
X761133Y244674D01*
X761369Y244233D01*
X761123Y243773D01*
X760761Y242580D01*
X760639Y241339D01*
X760761Y240097D01*
X761123Y238904D01*
X761711Y237804D01*
X762502Y236840D01*
X763466Y236049D01*
X764566Y235461D01*
X765759Y235100D01*
X767000Y234977D01*
X768241Y235100D01*
X769434Y235461D01*
X770534Y236049D01*
X771498Y236840D01*
X772289Y237804D01*
X772877Y238904D01*
X773239Y240097D01*
X773361Y241339D01*
X773239Y242580D01*
X772877Y243773D01*
X772289Y244873D01*
X771498Y245837D01*
X770534Y246628D01*
X769434Y247216D01*
X768456Y247512D01*
X768244Y248042D01*
X768329Y248146D01*
X769064Y249519D01*
X769516Y251009D01*
X769668Y252559D01*
X769516Y254109D01*
X769064Y255599D01*
X768329Y256972D01*
X768244Y257076D01*
X768456Y257606D01*
X769434Y257902D01*
X770534Y258490D01*
X771498Y259281D01*
X772289Y260245D01*
X772877Y261345D01*
X773239Y262539D01*
X773361Y263779D01*
X773239Y265021D01*
X772877Y266214D01*
X772289Y267314D01*
X771498Y268278D01*
X770534Y269069D01*
X769434Y269657D01*
X768241Y270019D01*
X767000Y270141D01*
D02*
G37*
G36*
X858000Y225418D02*
X856040Y225225D01*
X854155Y224654D01*
X852417Y223725D01*
X850895Y222475D01*
X849645Y220953D01*
X848717Y219215D01*
X848407Y218197D01*
X847908D01*
X847598Y219215D01*
X846670Y220953D01*
X845420Y222475D01*
X843898Y223725D01*
X842160Y224654D01*
X840275Y225225D01*
X838315Y225418D01*
X836355Y225225D01*
X834470Y224654D01*
X832732Y223725D01*
X831210Y222475D01*
X829960Y220953D01*
X829031Y219215D01*
X828460Y217330D01*
X828267Y215370D01*
X828460Y213410D01*
X829031Y211525D01*
X829960Y209788D01*
X831210Y208265D01*
X832732Y207015D01*
X834470Y206087D01*
X836355Y205515D01*
X838315Y205322D01*
X840275Y205515D01*
X842160Y206087D01*
X843898Y207015D01*
X845420Y208265D01*
X846670Y209788D01*
X847598Y211525D01*
X847908Y212543D01*
X848407D01*
X848717Y211525D01*
X849645Y209788D01*
X850895Y208265D01*
X852417Y207015D01*
X854155Y206087D01*
X856040Y205515D01*
X858000Y205322D01*
X859960Y205515D01*
X861845Y206087D01*
X863583Y207015D01*
X865105Y208265D01*
X866355Y209788D01*
X867284Y211525D01*
X867855Y213410D01*
X868048Y215370D01*
X867855Y217330D01*
X867284Y219215D01*
X866355Y220953D01*
X865105Y222475D01*
X863583Y223725D01*
X861845Y224654D01*
X859960Y225225D01*
X858000Y225418D01*
D02*
G37*
G36*
X893433Y287348D02*
X891473Y287155D01*
X889588Y286583D01*
X887850Y285654D01*
X886328Y284404D01*
X885078Y282882D01*
X884150Y281144D01*
X883578Y279259D01*
X883385Y277299D01*
X883578Y275339D01*
X884150Y273454D01*
X885078Y271717D01*
X886328Y270194D01*
X887850Y268944D01*
X889588Y268016D01*
X891473Y267444D01*
X893433Y267251D01*
X895393Y267444D01*
X897278Y268016D01*
X899016Y268944D01*
X900538Y270194D01*
X901788Y271717D01*
X902717Y273454D01*
X903288Y275339D01*
X903481Y277299D01*
X903288Y279259D01*
X902717Y281144D01*
X901788Y282882D01*
X900538Y284404D01*
X899016Y285654D01*
X897278Y286583D01*
X895393Y287155D01*
X893433Y287348D01*
D02*
G37*
G36*
X858000Y264789D02*
X856040Y264595D01*
X854155Y264024D01*
X852417Y263095D01*
X850895Y261845D01*
X849645Y260323D01*
X848717Y258585D01*
X848407Y257567D01*
X847908D01*
X847598Y258585D01*
X846670Y260323D01*
X845420Y261845D01*
X843898Y263095D01*
X842160Y264024D01*
X840275Y264595D01*
X838315Y264789D01*
X836355Y264595D01*
X834470Y264024D01*
X832732Y263095D01*
X831210Y261845D01*
X829960Y260323D01*
X829031Y258585D01*
X828460Y256700D01*
X828267Y254740D01*
X828460Y252780D01*
X829031Y250895D01*
X829960Y249158D01*
X831210Y247635D01*
X832732Y246385D01*
X834470Y245457D01*
X836355Y244885D01*
X838315Y244692D01*
X840275Y244885D01*
X842160Y245457D01*
X843898Y246385D01*
X845420Y247635D01*
X846670Y249158D01*
X847598Y250895D01*
X847908Y251913D01*
X848407D01*
X848717Y250895D01*
X849645Y249158D01*
X850895Y247635D01*
X852417Y246385D01*
X854155Y245457D01*
X856040Y244885D01*
X858000Y244692D01*
X859960Y244885D01*
X861845Y245457D01*
X863583Y246385D01*
X865105Y247635D01*
X866355Y249158D01*
X867284Y250895D01*
X867855Y252780D01*
X868048Y254740D01*
X867855Y256700D01*
X867284Y258585D01*
X866355Y260323D01*
X865105Y261845D01*
X863583Y263095D01*
X861845Y264024D01*
X859960Y264595D01*
X858000Y264789D01*
D02*
G37*
G36*
X591405Y208546D02*
Y207921D01*
X592030D01*
X591759Y208275D01*
X591405Y208546D01*
D02*
G37*
G36*
X587405D02*
X587052Y208275D01*
X586781Y207921D01*
X587405D01*
Y208546D01*
D02*
G37*
G36*
X719406D02*
Y207921D01*
X720030D01*
X719759Y208275D01*
X719406Y208546D01*
D02*
G37*
G36*
X715406D02*
X715052Y208275D01*
X714781Y207921D01*
X715406D01*
Y208546D01*
D02*
G37*
G36*
X463406D02*
Y207921D01*
X464030D01*
X463759Y208275D01*
X463406Y208546D01*
D02*
G37*
G36*
X331405D02*
X331052Y208275D01*
X330781Y207921D01*
X331405D01*
Y208546D01*
D02*
G37*
G36*
X720030Y203921D02*
X719406D01*
Y203296D01*
X719759Y203568D01*
X720030Y203921D01*
D02*
G37*
G36*
X459406Y208546D02*
X459052Y208275D01*
X458781Y207921D01*
X459406D01*
Y208546D01*
D02*
G37*
G36*
X335405D02*
Y207921D01*
X336030D01*
X335759Y208275D01*
X335405Y208546D01*
D02*
G37*
G36*
X438905Y210421D02*
X438281D01*
X438552Y210068D01*
X438905Y209796D01*
Y210421D01*
D02*
G37*
G36*
X699530D02*
X698906D01*
Y209796D01*
X699259Y210068D01*
X699530Y210421D01*
D02*
G37*
G36*
X694906D02*
X694281D01*
X694552Y210068D01*
X694906Y209796D01*
Y210421D01*
D02*
G37*
G36*
X405500Y212828D02*
X404638Y212715D01*
X403836Y212383D01*
X403174Y211875D01*
X403164Y211882D01*
X402361Y212215D01*
X401500Y212329D01*
X400638Y212215D01*
X399836Y211882D01*
X399146Y211354D01*
X398618Y210664D01*
X398285Y209861D01*
X398171Y209000D01*
X398285Y208138D01*
X398618Y207336D01*
X399146Y206646D01*
X399836Y206118D01*
X400638Y205785D01*
X401500Y205672D01*
X402361Y205785D01*
X403164Y206118D01*
X403826Y206625D01*
X403836Y206617D01*
X404638Y206285D01*
X405500Y206171D01*
X406361Y206285D01*
X407164Y206617D01*
X407854Y207146D01*
X408383Y207836D01*
X408715Y208639D01*
X408828Y209500D01*
X408715Y210362D01*
X408383Y211164D01*
X407854Y211854D01*
X407164Y212383D01*
X406361Y212715D01*
X405500Y212828D01*
D02*
G37*
G36*
X277500D02*
X276639Y212715D01*
X275836Y212383D01*
X275174Y211875D01*
X275164Y211882D01*
X274361Y212215D01*
X273500Y212329D01*
X272639Y212215D01*
X271836Y211882D01*
X271146Y211354D01*
X270618Y210664D01*
X270285Y209861D01*
X270171Y209000D01*
X270285Y208138D01*
X270618Y207336D01*
X271146Y206646D01*
X271836Y206118D01*
X272639Y205785D01*
X273500Y205672D01*
X274361Y205785D01*
X275164Y206118D01*
X275826Y206625D01*
X275836Y206617D01*
X276639Y206285D01*
X277500Y206171D01*
X278362Y206285D01*
X279164Y206617D01*
X279854Y207146D01*
X280382Y207836D01*
X280715Y208639D01*
X280828Y209500D01*
X280715Y210362D01*
X280382Y211164D01*
X279854Y211854D01*
X279164Y212383D01*
X278362Y212715D01*
X277500Y212828D01*
D02*
G37*
G36*
X315530Y210421D02*
X314906D01*
Y209796D01*
X315259Y210068D01*
X315530Y210421D01*
D02*
G37*
G36*
X566905D02*
X566281D01*
X566552Y210068D01*
X566905Y209796D01*
Y210421D01*
D02*
G37*
G36*
X443530D02*
X442906D01*
Y209796D01*
X443259Y210068D01*
X443530Y210421D01*
D02*
G37*
G36*
X310906D02*
X310281D01*
X310552Y210068D01*
X310906Y209796D01*
Y210421D01*
D02*
G37*
G36*
X571530D02*
X570905D01*
Y209796D01*
X571259Y210068D01*
X571530Y210421D01*
D02*
G37*
G36*
X836315Y146473D02*
X834470Y145913D01*
X832732Y144985D01*
X831210Y143735D01*
X829960Y142212D01*
X829031Y140475D01*
X828472Y138630D01*
X836315D01*
Y146473D01*
D02*
G37*
G36*
X653291Y139563D02*
Y134937D01*
X657917D01*
X657717Y135599D01*
X657074Y136801D01*
X656209Y137855D01*
X655155Y138720D01*
X653953Y139362D01*
X653291Y139563D01*
D02*
G37*
G36*
X856000Y146473D02*
X854155Y145913D01*
X852417Y144985D01*
X850895Y143735D01*
X849645Y142212D01*
X848717Y140475D01*
X848407Y139457D01*
X847908D01*
X847598Y140475D01*
X846670Y142212D01*
X845420Y143735D01*
X843898Y144985D01*
X842160Y145913D01*
X840315Y146473D01*
Y136630D01*
Y126787D01*
X842160Y127346D01*
X843898Y128275D01*
X845420Y129525D01*
X846670Y131047D01*
X847598Y132784D01*
X847908Y133803D01*
X848407D01*
X848717Y132784D01*
X849645Y131047D01*
X850895Y129525D01*
X852417Y128275D01*
X854155Y127346D01*
X856000Y126787D01*
Y136630D01*
Y146473D01*
D02*
G37*
G36*
X860000D02*
Y138630D01*
X867843D01*
X867284Y140475D01*
X866355Y142212D01*
X865105Y143735D01*
X863583Y144985D01*
X861845Y145913D01*
X860000Y146473D01*
D02*
G37*
G36*
X525291Y139563D02*
Y134937D01*
X529917D01*
X529717Y135599D01*
X529074Y136801D01*
X528209Y137855D01*
X527155Y138720D01*
X525953Y139362D01*
X525291Y139563D01*
D02*
G37*
G36*
X649291Y139563D02*
X648630Y139362D01*
X647428Y138720D01*
X646374Y137855D01*
X645509Y136801D01*
X644866Y135599D01*
X644665Y134937D01*
X649291D01*
Y139563D01*
D02*
G37*
G36*
X521291D02*
X520630Y139362D01*
X519427Y138720D01*
X518374Y137855D01*
X517509Y136801D01*
X516866Y135599D01*
X516665Y134937D01*
X521291D01*
Y139563D01*
D02*
G37*
G36*
X397291Y139563D02*
Y134937D01*
X401917D01*
X401717Y135599D01*
X401074Y136801D01*
X400209Y137855D01*
X399155Y138720D01*
X397953Y139362D01*
X397291Y139563D01*
D02*
G37*
G36*
X269291D02*
Y134937D01*
X273917D01*
X273717Y135599D01*
X273074Y136801D01*
X272209Y137855D01*
X271155Y138720D01*
X269953Y139362D01*
X269291Y139563D01*
D02*
G37*
G36*
X267291Y162333D02*
X265934Y162199D01*
X264630Y161803D01*
X263427Y161161D01*
X262374Y160296D01*
X261509Y159242D01*
X260866Y158039D01*
X260470Y156735D01*
X260337Y155378D01*
X260470Y154021D01*
X260866Y152717D01*
X261509Y151514D01*
X262374Y150460D01*
X263427Y149595D01*
X264630Y148953D01*
X265934Y148557D01*
X267291Y148423D01*
X268648Y148557D01*
X269953Y148953D01*
X271155Y149595D01*
X272209Y150460D01*
X273074Y151514D01*
X273717Y152717D01*
X274112Y154021D01*
X274246Y155378D01*
X274112Y156735D01*
X273717Y158039D01*
X273074Y159242D01*
X272209Y160296D01*
X271155Y161161D01*
X269953Y161803D01*
X268648Y162199D01*
X267291Y162333D01*
D02*
G37*
G36*
X437625Y154921D02*
X437000D01*
Y154296D01*
X437354Y154568D01*
X437625Y154921D01*
D02*
G37*
G36*
X433000D02*
X432375D01*
X432646Y154568D01*
X433000Y154296D01*
Y154921D01*
D02*
G37*
G36*
X565625D02*
X565000D01*
Y154296D01*
X565354Y154568D01*
X565625Y154921D01*
D02*
G37*
G36*
X561000D02*
X560375D01*
X560646Y154568D01*
X561000Y154296D01*
Y154921D01*
D02*
G37*
G36*
X309625D02*
X309000D01*
Y154296D01*
X309354Y154568D01*
X309625Y154921D01*
D02*
G37*
G36*
X523291Y162333D02*
X521935Y162199D01*
X520630Y161803D01*
X519427Y161161D01*
X518374Y160296D01*
X517509Y159242D01*
X516866Y158039D01*
X516470Y156735D01*
X516337Y155378D01*
X516470Y154021D01*
X516866Y152717D01*
X517509Y151514D01*
X518374Y150460D01*
X519427Y149595D01*
X520630Y148953D01*
X521935Y148557D01*
X523291Y148423D01*
X524648Y148557D01*
X525953Y148953D01*
X527155Y149595D01*
X528209Y150460D01*
X529074Y151514D01*
X529717Y152717D01*
X530112Y154021D01*
X530246Y155378D01*
X530112Y156735D01*
X529717Y158039D01*
X529074Y159242D01*
X528209Y160296D01*
X527155Y161161D01*
X525953Y161803D01*
X524648Y162199D01*
X523291Y162333D01*
D02*
G37*
G36*
X395291D02*
X393934Y162199D01*
X392630Y161803D01*
X391427Y161161D01*
X390374Y160296D01*
X389509Y159242D01*
X388866Y158039D01*
X388470Y156735D01*
X388337Y155378D01*
X388470Y154021D01*
X388866Y152717D01*
X389509Y151514D01*
X390374Y150460D01*
X391427Y149595D01*
X392630Y148953D01*
X393934Y148557D01*
X395291Y148423D01*
X396648Y148557D01*
X397953Y148953D01*
X399155Y149595D01*
X400209Y150460D01*
X401074Y151514D01*
X401717Y152717D01*
X402112Y154021D01*
X402246Y155378D01*
X402112Y156735D01*
X401717Y158039D01*
X401074Y159242D01*
X400209Y160296D01*
X399155Y161161D01*
X397953Y161803D01*
X396648Y162199D01*
X395291Y162333D01*
D02*
G37*
G36*
X305000Y154921D02*
X304375D01*
X304646Y154568D01*
X305000Y154296D01*
Y154921D01*
D02*
G37*
G36*
X651291Y162333D02*
X649934Y162199D01*
X648630Y161803D01*
X647428Y161161D01*
X646374Y160296D01*
X645509Y159242D01*
X644866Y158039D01*
X644470Y156735D01*
X644337Y155378D01*
X644470Y154021D01*
X644866Y152717D01*
X645509Y151514D01*
X646374Y150460D01*
X647428Y149595D01*
X648630Y148953D01*
X649934Y148557D01*
X651291Y148423D01*
X652648Y148557D01*
X653953Y148953D01*
X655155Y149595D01*
X656209Y150460D01*
X657074Y151514D01*
X657717Y152717D01*
X658112Y154021D01*
X658246Y155378D01*
X658112Y156735D01*
X657717Y158039D01*
X657074Y159242D01*
X656209Y160296D01*
X655155Y161161D01*
X653953Y161803D01*
X652648Y162199D01*
X651291Y162333D01*
D02*
G37*
G36*
X767500Y147037D02*
X765617Y146889D01*
X763780Y146448D01*
X762035Y145725D01*
X760425Y144738D01*
X758989Y143511D01*
X757762Y142075D01*
X756775Y140465D01*
X756052Y138720D01*
X755611Y136883D01*
X755463Y135000D01*
X755611Y133117D01*
X756052Y131280D01*
X756775Y129535D01*
X757762Y127925D01*
X758989Y126488D01*
X760425Y125262D01*
X762035Y124275D01*
X763780Y123552D01*
X765617Y123111D01*
X767500Y122963D01*
X769383Y123111D01*
X771220Y123552D01*
X772965Y124275D01*
X774575Y125262D01*
X776012Y126488D01*
X777238Y127925D01*
X778225Y129535D01*
X778948Y131280D01*
X779389Y133117D01*
X779537Y135000D01*
X779389Y136883D01*
X778948Y138720D01*
X778225Y140465D01*
X777238Y142075D01*
X776012Y143511D01*
X774575Y144738D01*
X772965Y145725D01*
X771220Y146448D01*
X769383Y146889D01*
X767500Y147037D01*
D02*
G37*
G36*
X335000D02*
X333117Y146889D01*
X331280Y146448D01*
X329535Y145725D01*
X327925Y144738D01*
X326488Y143511D01*
X325262Y142075D01*
X324275Y140465D01*
X323552Y138720D01*
X323111Y136883D01*
X322963Y135000D01*
X323111Y133117D01*
X323552Y131280D01*
X324275Y129535D01*
X325262Y127925D01*
X326488Y126488D01*
X327925Y125262D01*
X329535Y124275D01*
X331280Y123552D01*
X333117Y123111D01*
X335000Y122963D01*
X336883Y123111D01*
X338720Y123552D01*
X340465Y124275D01*
X342075Y125262D01*
X343512Y126488D01*
X344738Y127925D01*
X345725Y129535D01*
X346448Y131280D01*
X346889Y133117D01*
X347037Y135000D01*
X346889Y136883D01*
X346448Y138720D01*
X345725Y140465D01*
X344738Y142075D01*
X343512Y143511D01*
X342075Y144738D01*
X340465Y145725D01*
X338720Y146448D01*
X336883Y146889D01*
X335000Y147037D01*
D02*
G37*
G36*
X401917Y130937D02*
X397291D01*
Y126311D01*
X397953Y126512D01*
X399155Y127154D01*
X400209Y128019D01*
X401074Y129073D01*
X401717Y130275D01*
X401917Y130937D01*
D02*
G37*
G36*
X273917D02*
X269291D01*
Y126311D01*
X269953Y126512D01*
X271155Y127154D01*
X272209Y128019D01*
X273074Y129073D01*
X273717Y130275D01*
X273917Y130937D01*
D02*
G37*
G36*
X664992Y127623D02*
X663545Y127432D01*
X662197Y126874D01*
X661039Y125985D01*
X660150Y124827D01*
X659591Y123479D01*
X659401Y122031D01*
X659591Y120584D01*
X660150Y119236D01*
X661039Y118078D01*
X662197Y117189D01*
X663545Y116631D01*
X664992Y116440D01*
X666439Y116631D01*
X667788Y117189D01*
X668946Y118078D01*
X669834Y119236D01*
X670393Y120584D01*
X670583Y122031D01*
X670393Y123479D01*
X669834Y124827D01*
X668946Y125985D01*
X667788Y126874D01*
X666439Y127432D01*
X664992Y127623D01*
D02*
G37*
G36*
X280992D02*
X279545Y127432D01*
X278197Y126874D01*
X277039Y125985D01*
X276150Y124827D01*
X275591Y123479D01*
X275401Y122031D01*
X275591Y120584D01*
X276150Y119236D01*
X277039Y118078D01*
X278197Y117189D01*
X279545Y116631D01*
X280992Y116440D01*
X282439Y116631D01*
X283788Y117189D01*
X284946Y118078D01*
X285834Y119236D01*
X286393Y120584D01*
X286583Y122031D01*
X286393Y123479D01*
X285834Y124827D01*
X284946Y125985D01*
X283788Y126874D01*
X282439Y127432D01*
X280992Y127623D01*
D02*
G37*
G36*
X893433Y124119D02*
X891473Y123926D01*
X889588Y123354D01*
X887850Y122426D01*
X886328Y121176D01*
X885078Y119653D01*
X884150Y117916D01*
X883578Y116031D01*
X883385Y114071D01*
X883578Y112110D01*
X884150Y110225D01*
X885078Y108488D01*
X886328Y106965D01*
X887850Y105716D01*
X889588Y104787D01*
X891473Y104216D01*
X893433Y104022D01*
X895393Y104216D01*
X897278Y104787D01*
X899016Y105716D01*
X900538Y106965D01*
X901788Y108488D01*
X902717Y110225D01*
X903288Y112110D01*
X903481Y114071D01*
X903288Y116031D01*
X902717Y117916D01*
X901788Y119653D01*
X900538Y121176D01*
X899016Y122426D01*
X897278Y123354D01*
X895393Y123926D01*
X893433Y124119D01*
D02*
G37*
G36*
X536992Y127623D02*
X535545Y127432D01*
X534197Y126874D01*
X533039Y125985D01*
X532150Y124827D01*
X531592Y123479D01*
X531401Y122031D01*
X531592Y120584D01*
X532150Y119236D01*
X533039Y118078D01*
X534197Y117189D01*
X535545Y116631D01*
X536992Y116440D01*
X538439Y116631D01*
X539788Y117189D01*
X540946Y118078D01*
X541834Y119236D01*
X542393Y120584D01*
X542583Y122031D01*
X542393Y123479D01*
X541834Y124827D01*
X540946Y125985D01*
X539788Y126874D01*
X538439Y127432D01*
X536992Y127623D01*
D02*
G37*
G36*
X408992D02*
X407545Y127432D01*
X406197Y126874D01*
X405039Y125985D01*
X404150Y124827D01*
X403591Y123479D01*
X403401Y122031D01*
X403591Y120584D01*
X404150Y119236D01*
X405039Y118078D01*
X406197Y117189D01*
X407545Y116631D01*
X408992Y116440D01*
X410439Y116631D01*
X411788Y117189D01*
X412946Y118078D01*
X413834Y119236D01*
X414393Y120584D01*
X414583Y122031D01*
X414393Y123479D01*
X413834Y124827D01*
X412946Y125985D01*
X411788Y126874D01*
X410439Y127432D01*
X408992Y127623D01*
D02*
G37*
G36*
X529917Y130937D02*
X525291D01*
Y126311D01*
X525953Y126512D01*
X527155Y127154D01*
X528209Y128019D01*
X529074Y129073D01*
X529717Y130275D01*
X529917Y130937D01*
D02*
G37*
G36*
X867843Y134630D02*
X860000D01*
Y126787D01*
X861845Y127346D01*
X863583Y128275D01*
X865105Y129525D01*
X866355Y131047D01*
X867284Y132784D01*
X867843Y134630D01*
D02*
G37*
G36*
X836315Y134630D02*
X828472D01*
X829031Y132784D01*
X829960Y131047D01*
X831210Y129525D01*
X832732Y128275D01*
X834470Y127346D01*
X836315Y126787D01*
Y134630D01*
D02*
G37*
G36*
X393291Y139563D02*
X392630Y139362D01*
X391427Y138720D01*
X390374Y137855D01*
X389509Y136801D01*
X388866Y135599D01*
X388665Y134937D01*
X393291D01*
Y139563D01*
D02*
G37*
G36*
X265291D02*
X264630Y139362D01*
X263427Y138720D01*
X262374Y137855D01*
X261509Y136801D01*
X260866Y135599D01*
X260665Y134937D01*
X265291D01*
Y139563D01*
D02*
G37*
G36*
X649291Y130937D02*
X644665D01*
X644866Y130275D01*
X645509Y129073D01*
X646374Y128019D01*
X647428Y127154D01*
X648630Y126512D01*
X649291Y126311D01*
Y130937D01*
D02*
G37*
G36*
X265291D02*
X260665D01*
X260866Y130275D01*
X261509Y129073D01*
X262374Y128019D01*
X263427Y127154D01*
X264630Y126512D01*
X265291Y126311D01*
Y130937D01*
D02*
G37*
G36*
X657917D02*
X653291D01*
Y126311D01*
X653953Y126512D01*
X655155Y127154D01*
X656209Y128019D01*
X657074Y129073D01*
X657717Y130275D01*
X657917Y130937D01*
D02*
G37*
G36*
X521291D02*
X516665D01*
X516866Y130275D01*
X517509Y129073D01*
X518374Y128019D01*
X519427Y127154D01*
X520630Y126512D01*
X521291Y126311D01*
Y130937D01*
D02*
G37*
G36*
X393291D02*
X388665D01*
X388866Y130275D01*
X389509Y129073D01*
X390374Y128019D01*
X391427Y127154D01*
X392630Y126512D01*
X393291Y126311D01*
Y130937D01*
D02*
G37*
G36*
X689000Y154921D02*
X688375D01*
X688646Y154568D01*
X689000Y154296D01*
Y154921D01*
D02*
G37*
G36*
X294000Y170921D02*
X293375D01*
X293646Y170568D01*
X294000Y170296D01*
Y170921D01*
D02*
G37*
G36*
X682625D02*
X682000D01*
Y170296D01*
X682354Y170568D01*
X682625Y170921D01*
D02*
G37*
G36*
X422000D02*
X421375D01*
X421646Y170568D01*
X422000Y170296D01*
Y170921D01*
D02*
G37*
G36*
X298625D02*
X298000D01*
Y170296D01*
X298354Y170568D01*
X298625Y170921D01*
D02*
G37*
G36*
X678000D02*
X677375D01*
X677646Y170568D01*
X678000Y170296D01*
Y170921D01*
D02*
G37*
G36*
X442709Y176329D02*
X441847Y176215D01*
X441044Y175882D01*
X440355Y175354D01*
X439826Y174664D01*
X439494Y173862D01*
X439380Y173000D01*
X439494Y172139D01*
X439826Y171336D01*
X440355Y170646D01*
X441044Y170117D01*
X441847Y169785D01*
X442709Y169671D01*
X443570Y169785D01*
X444373Y170117D01*
X445062Y170646D01*
X445591Y171336D01*
X445924Y172139D01*
X446037Y173000D01*
X445924Y173862D01*
X445591Y174664D01*
X445062Y175354D01*
X444373Y175882D01*
X443570Y176215D01*
X442709Y176329D01*
D02*
G37*
G36*
X314709D02*
X313847Y176215D01*
X313044Y175882D01*
X312355Y175354D01*
X311826Y174664D01*
X311494Y173862D01*
X311380Y173000D01*
X311494Y172139D01*
X311826Y171336D01*
X312355Y170646D01*
X313044Y170117D01*
X313847Y169785D01*
X314709Y169671D01*
X315570Y169785D01*
X316373Y170117D01*
X317062Y170646D01*
X317591Y171336D01*
X317924Y172139D01*
X318037Y173000D01*
X317924Y173862D01*
X317591Y174664D01*
X317062Y175354D01*
X316373Y175882D01*
X315570Y176215D01*
X314709Y176329D01*
D02*
G37*
G36*
X698709D02*
X697847Y176215D01*
X697044Y175882D01*
X696355Y175354D01*
X695826Y174664D01*
X695494Y173862D01*
X695380Y173000D01*
X695494Y172139D01*
X695826Y171336D01*
X696355Y170646D01*
X697044Y170117D01*
X697847Y169785D01*
X698709Y169671D01*
X699570Y169785D01*
X700373Y170117D01*
X701062Y170646D01*
X701591Y171336D01*
X701924Y172139D01*
X702037Y173000D01*
X701924Y173862D01*
X701591Y174664D01*
X701062Y175354D01*
X700373Y175882D01*
X699570Y176215D01*
X698709Y176329D01*
D02*
G37*
G36*
X570709D02*
X569847Y176215D01*
X569044Y175882D01*
X568355Y175354D01*
X567826Y174664D01*
X567494Y173862D01*
X567380Y173000D01*
X567494Y172139D01*
X567826Y171336D01*
X568355Y170646D01*
X569044Y170117D01*
X569847Y169785D01*
X570709Y169671D01*
X571570Y169785D01*
X572373Y170117D01*
X573062Y170646D01*
X573591Y171336D01*
X573924Y172139D01*
X574037Y173000D01*
X573924Y173862D01*
X573591Y174664D01*
X573062Y175354D01*
X572373Y175882D01*
X571570Y176215D01*
X570709Y176329D01*
D02*
G37*
G36*
X426625Y170921D02*
X426000D01*
Y170296D01*
X426354Y170568D01*
X426625Y170921D01*
D02*
G37*
G36*
X550000Y175546D02*
X549646Y175275D01*
X549375Y174921D01*
X550000D01*
Y175546D01*
D02*
G37*
G36*
X426000D02*
Y174921D01*
X426625D01*
X426354Y175275D01*
X426000Y175546D01*
D02*
G37*
G36*
X678000D02*
X677646Y175275D01*
X677375Y174921D01*
X678000D01*
Y175546D01*
D02*
G37*
G36*
X554000D02*
Y174921D01*
X554625D01*
X554354Y175275D01*
X554000Y175546D01*
D02*
G37*
G36*
X422000D02*
X421646Y175275D01*
X421375Y174921D01*
X422000D01*
Y175546D01*
D02*
G37*
G36*
X554625Y170921D02*
X554000D01*
Y170296D01*
X554354Y170568D01*
X554625Y170921D01*
D02*
G37*
G36*
X550000D02*
X549375D01*
X549646Y170568D01*
X550000Y170296D01*
Y170921D01*
D02*
G37*
G36*
X298000Y175546D02*
Y174921D01*
X298625D01*
X298354Y175275D01*
X298000Y175546D01*
D02*
G37*
G36*
X294000D02*
X293646Y175275D01*
X293375Y174921D01*
X294000D01*
Y175546D01*
D02*
G37*
G36*
X565000Y159546D02*
Y158921D01*
X565625D01*
X565354Y159275D01*
X565000Y159546D01*
D02*
G37*
G36*
X561000D02*
X560646Y159275D01*
X560375Y158921D01*
X561000D01*
Y159546D01*
D02*
G37*
G36*
X693000D02*
Y158921D01*
X693625D01*
X693354Y159275D01*
X693000Y159546D01*
D02*
G37*
G36*
X689000D02*
X688646Y159275D01*
X688375Y158921D01*
X689000D01*
Y159546D01*
D02*
G37*
G36*
X437000D02*
Y158921D01*
X437625D01*
X437354Y159275D01*
X437000Y159546D01*
D02*
G37*
G36*
X305000D02*
X304646Y159275D01*
X304375Y158921D01*
X305000D01*
Y159546D01*
D02*
G37*
G36*
X693625Y154921D02*
X693000D01*
Y154296D01*
X693354Y154568D01*
X693625Y154921D01*
D02*
G37*
G36*
X433000Y159546D02*
X432646Y159275D01*
X432375Y158921D01*
X433000D01*
Y159546D01*
D02*
G37*
G36*
X309000D02*
Y158921D01*
X309625D01*
X309354Y159275D01*
X309000Y159546D01*
D02*
G37*
G36*
X818000Y160000D02*
X817375D01*
X817646Y159646D01*
X818000Y159375D01*
Y160000D01*
D02*
G37*
G36*
X867843Y174000D02*
X860000D01*
Y166157D01*
X861845Y166717D01*
X863583Y167645D01*
X865105Y168895D01*
X866355Y170417D01*
X867284Y172155D01*
X867843Y174000D01*
D02*
G37*
G36*
X836315Y174000D02*
X828472D01*
X829031Y172155D01*
X829960Y170417D01*
X831210Y168895D01*
X832732Y167645D01*
X834470Y166717D01*
X836315Y166157D01*
Y174000D01*
D02*
G37*
G36*
X793000Y167125D02*
Y166500D01*
X793625D01*
X793354Y166854D01*
X793000Y167125D01*
D02*
G37*
G36*
X789000D02*
X788646Y166854D01*
X788375Y166500D01*
X789000D01*
Y167125D01*
D02*
G37*
G36*
X822000Y164625D02*
Y164000D01*
X822625D01*
X822354Y164354D01*
X822000Y164625D01*
D02*
G37*
G36*
X789000Y162500D02*
X788375D01*
X788646Y162146D01*
X789000Y161875D01*
Y162500D01*
D02*
G37*
G36*
X822625Y160000D02*
X822000D01*
Y159375D01*
X822354Y159646D01*
X822625Y160000D01*
D02*
G37*
G36*
X818000Y164625D02*
X817646Y164354D01*
X817375Y164000D01*
X818000D01*
Y164625D01*
D02*
G37*
G36*
X793625Y162500D02*
X793000D01*
Y161875D01*
X793354Y162146D01*
X793625Y162500D01*
D02*
G37*
G36*
X287000Y404704D02*
X286646Y404432D01*
X286375Y404079D01*
X287000D01*
Y404704D01*
D02*
G37*
G36*
X858500Y409918D02*
X856540Y409725D01*
X854655Y409154D01*
X852917Y408225D01*
X851395Y406975D01*
X850145Y405453D01*
X849216Y403716D01*
X848907Y402697D01*
X848407D01*
X848098Y403716D01*
X847170Y405453D01*
X845920Y406975D01*
X844398Y408225D01*
X842660Y409154D01*
X840775Y409725D01*
X838815Y409918D01*
X836855Y409725D01*
X834970Y409154D01*
X833232Y408225D01*
X831710Y406975D01*
X830460Y405453D01*
X829531Y403716D01*
X828960Y401830D01*
X828767Y399870D01*
X828960Y397910D01*
X829531Y396025D01*
X830460Y394287D01*
X831710Y392765D01*
X833232Y391515D01*
X834970Y390587D01*
X836855Y390015D01*
X838815Y389822D01*
X840775Y390015D01*
X842660Y390587D01*
X844398Y391515D01*
X845920Y392765D01*
X847170Y394287D01*
X848098Y396025D01*
X848407Y397043D01*
X848907D01*
X849216Y396025D01*
X850145Y394287D01*
X851395Y392765D01*
X852917Y391515D01*
X854655Y390587D01*
X856540Y390015D01*
X858500Y389822D01*
X860460Y390015D01*
X862345Y390587D01*
X864083Y391515D01*
X865605Y392765D01*
X866855Y394287D01*
X867784Y396025D01*
X868355Y397910D01*
X868548Y399870D01*
X868355Y401830D01*
X867784Y403716D01*
X866855Y405453D01*
X865605Y406975D01*
X864083Y408225D01*
X862345Y409154D01*
X860460Y409725D01*
X858500Y409918D01*
D02*
G37*
G36*
X415000Y404704D02*
X414646Y404432D01*
X414375Y404079D01*
X415000D01*
Y404704D01*
D02*
G37*
G36*
X291000D02*
Y404079D01*
X291625D01*
X291354Y404432D01*
X291000Y404704D01*
D02*
G37*
G36*
X675625Y400079D02*
X675000D01*
Y399454D01*
X675354Y399725D01*
X675625Y400079D01*
D02*
G37*
G36*
X543000D02*
X542375D01*
X542646Y399725D01*
X543000Y399454D01*
Y400079D01*
D02*
G37*
G36*
X419625D02*
X419000D01*
Y399454D01*
X419354Y399725D01*
X419625Y400079D01*
D02*
G37*
G36*
X671000D02*
X670375D01*
X670646Y399725D01*
X671000Y399454D01*
Y400079D01*
D02*
G37*
G36*
X547625D02*
X547000D01*
Y399454D01*
X547354Y399725D01*
X547625Y400079D01*
D02*
G37*
G36*
X419000Y404704D02*
Y404079D01*
X419625D01*
X419354Y404432D01*
X419000Y404704D01*
D02*
G37*
G36*
X573709Y426577D02*
X572352Y426443D01*
X571047Y426047D01*
X569845Y425405D01*
X568791Y424540D01*
X567926Y423486D01*
X567283Y422284D01*
X566888Y420979D01*
X566754Y419622D01*
X566888Y418265D01*
X567283Y416961D01*
X567926Y415758D01*
X568791Y414704D01*
X569845Y413839D01*
X571047Y413197D01*
X572352Y412801D01*
X573709Y412667D01*
X575066Y412801D01*
X576370Y413197D01*
X577572Y413839D01*
X578626Y414704D01*
X579491Y415758D01*
X580134Y416961D01*
X580530Y418265D01*
X580663Y419622D01*
X580530Y420979D01*
X580134Y422284D01*
X579491Y423486D01*
X578626Y424540D01*
X577572Y425405D01*
X576370Y426047D01*
X575066Y426443D01*
X573709Y426577D01*
D02*
G37*
G36*
X445709D02*
X444352Y426443D01*
X443047Y426047D01*
X441845Y425405D01*
X440791Y424540D01*
X439926Y423486D01*
X439283Y422284D01*
X438888Y420979D01*
X438754Y419622D01*
X438888Y418265D01*
X439283Y416961D01*
X439926Y415758D01*
X440791Y414704D01*
X441845Y413839D01*
X443047Y413197D01*
X444352Y412801D01*
X445709Y412667D01*
X447065Y412801D01*
X448370Y413197D01*
X449573Y413839D01*
X450626Y414704D01*
X451491Y415758D01*
X452134Y416961D01*
X452530Y418265D01*
X452663Y419622D01*
X452530Y420979D01*
X452134Y422284D01*
X451491Y423486D01*
X450626Y424540D01*
X449573Y425405D01*
X448370Y426047D01*
X447065Y426443D01*
X445709Y426577D01*
D02*
G37*
G36*
X276000Y416079D02*
X275375D01*
X275646Y415725D01*
X276000Y415454D01*
Y416079D01*
D02*
G37*
G36*
X701709Y426577D02*
X700352Y426443D01*
X699047Y426047D01*
X697845Y425405D01*
X696791Y424540D01*
X695926Y423486D01*
X695283Y422284D01*
X694888Y420979D01*
X694754Y419622D01*
X694888Y418265D01*
X695283Y416961D01*
X695926Y415758D01*
X696791Y414704D01*
X697845Y413839D01*
X699047Y413197D01*
X700352Y412801D01*
X701709Y412667D01*
X703065Y412801D01*
X704370Y413197D01*
X705573Y413839D01*
X706626Y414704D01*
X707491Y415758D01*
X708134Y416961D01*
X708530Y418265D01*
X708663Y419622D01*
X708530Y420979D01*
X708134Y422284D01*
X707491Y423486D01*
X706626Y424540D01*
X705573Y425405D01*
X704370Y426047D01*
X703065Y426443D01*
X701709Y426577D01*
D02*
G37*
G36*
X317709D02*
X316352Y426443D01*
X315047Y426047D01*
X313845Y425405D01*
X312791Y424540D01*
X311926Y423486D01*
X311283Y422284D01*
X310888Y420979D01*
X310754Y419622D01*
X310888Y418265D01*
X311283Y416961D01*
X311926Y415758D01*
X312791Y414704D01*
X313845Y413839D01*
X315047Y413197D01*
X316352Y412801D01*
X317709Y412667D01*
X319065Y412801D01*
X320370Y413197D01*
X321572Y413839D01*
X322626Y414704D01*
X323491Y415758D01*
X324134Y416961D01*
X324530Y418265D01*
X324663Y419622D01*
X324530Y420979D01*
X324134Y422284D01*
X323491Y423486D01*
X322626Y424540D01*
X321572Y425405D01*
X320370Y426047D01*
X319065Y426443D01*
X317709Y426577D01*
D02*
G37*
G36*
X547000Y404704D02*
Y404079D01*
X547625D01*
X547354Y404432D01*
X547000Y404704D01*
D02*
G37*
G36*
X543000D02*
X542646Y404432D01*
X542375Y404079D01*
X543000D01*
Y404704D01*
D02*
G37*
G36*
X675000D02*
Y404079D01*
X675625D01*
X675354Y404432D01*
X675000Y404704D01*
D02*
G37*
G36*
X671000D02*
X670646Y404432D01*
X670375Y404079D01*
X671000D01*
Y404704D01*
D02*
G37*
G36*
X529500Y396829D02*
X528639Y396715D01*
X527836Y396382D01*
X527146Y395854D01*
X526617Y395164D01*
X526285Y394361D01*
X526171Y393500D01*
X526285Y392638D01*
X526617Y391836D01*
X527146Y391146D01*
X527836Y390617D01*
X528639Y390285D01*
X529500Y390172D01*
X530362Y390285D01*
X531164Y390617D01*
X531854Y391146D01*
X532382Y391836D01*
X532715Y392638D01*
X532829Y393500D01*
X532715Y394361D01*
X532382Y395164D01*
X531854Y395854D01*
X531164Y396382D01*
X530362Y396715D01*
X529500Y396829D01*
D02*
G37*
G36*
X401500D02*
X400638Y396715D01*
X399836Y396382D01*
X399146Y395854D01*
X398618Y395164D01*
X398285Y394361D01*
X398171Y393500D01*
X398285Y392638D01*
X398618Y391836D01*
X399146Y391146D01*
X399836Y390617D01*
X400638Y390285D01*
X401500Y390172D01*
X402361Y390285D01*
X403164Y390617D01*
X403854Y391146D01*
X404383Y391836D01*
X404715Y392638D01*
X404829Y393500D01*
X404715Y394361D01*
X404383Y395164D01*
X403854Y395854D01*
X403164Y396382D01*
X402361Y396715D01*
X401500Y396829D01*
D02*
G37*
G36*
X325000Y397829D02*
X324138Y397715D01*
X323336Y397382D01*
X322646Y396854D01*
X322117Y396164D01*
X321785Y395361D01*
X321672Y394500D01*
X321785Y393638D01*
X322117Y392836D01*
X322646Y392146D01*
X323336Y391617D01*
X324138Y391285D01*
X325000Y391172D01*
X325862Y391285D01*
X326664Y391617D01*
X327354Y392146D01*
X327883Y392836D01*
X328215Y393638D01*
X328328Y394500D01*
X328215Y395361D01*
X327883Y396164D01*
X327354Y396854D01*
X326664Y397382D01*
X325862Y397715D01*
X325000Y397829D01*
D02*
G37*
G36*
X657500Y396829D02*
X656638Y396715D01*
X655836Y396382D01*
X655146Y395854D01*
X654618Y395164D01*
X654285Y394361D01*
X654172Y393500D01*
X654285Y392638D01*
X654618Y391836D01*
X655146Y391146D01*
X655836Y390617D01*
X656638Y390285D01*
X657500Y390172D01*
X658361Y390285D01*
X659164Y390617D01*
X659854Y391146D01*
X660383Y391836D01*
X660715Y392638D01*
X660828Y393500D01*
X660715Y394361D01*
X660383Y395164D01*
X659854Y395854D01*
X659164Y396382D01*
X658361Y396715D01*
X657500Y396829D01*
D02*
G37*
G36*
X273500D02*
X272639Y396715D01*
X271836Y396382D01*
X271146Y395854D01*
X270618Y395164D01*
X270285Y394361D01*
X270171Y393500D01*
X270285Y392638D01*
X270618Y391836D01*
X271146Y391146D01*
X271836Y390617D01*
X272639Y390285D01*
X273500Y390172D01*
X274361Y390285D01*
X275164Y390617D01*
X275854Y391146D01*
X276382Y391836D01*
X276715Y392638D01*
X276829Y393500D01*
X276715Y394361D01*
X276382Y395164D01*
X275854Y395854D01*
X275164Y396382D01*
X274361Y396715D01*
X273500Y396829D01*
D02*
G37*
G36*
X435500Y389303D02*
X434639Y389190D01*
X433836Y388857D01*
X433146Y388328D01*
X432618Y387639D01*
X432285Y386836D01*
X432171Y385974D01*
X432285Y385113D01*
X432618Y384310D01*
X433146Y383621D01*
X433836Y383092D01*
X434639Y382759D01*
X434832Y382734D01*
X434893Y382661D01*
X435031Y382203D01*
X434875Y382000D01*
X440125D01*
X439854Y382354D01*
X439164Y382882D01*
X438362Y383215D01*
X438167Y383241D01*
X438107Y383313D01*
X437969Y383771D01*
X438382Y384310D01*
X438715Y385113D01*
X438829Y385974D01*
X438715Y386836D01*
X438382Y387639D01*
X437854Y388328D01*
X437164Y388857D01*
X436362Y389190D01*
X435500Y389303D01*
D02*
G37*
G36*
X307500D02*
X306639Y389190D01*
X305836Y388857D01*
X305146Y388328D01*
X304618Y387639D01*
X304285Y386836D01*
X304171Y385974D01*
X304285Y385113D01*
X304618Y384310D01*
X305146Y383621D01*
X305836Y383092D01*
X306639Y382759D01*
X306833Y382734D01*
X306892Y382661D01*
X307031Y382203D01*
X306875Y382000D01*
X312125D01*
X311854Y382354D01*
X311164Y382882D01*
X310362Y383215D01*
X310168Y383241D01*
X310107Y383313D01*
X309969Y383771D01*
X310383Y384310D01*
X310715Y385113D01*
X310828Y385974D01*
X310715Y386836D01*
X310383Y387639D01*
X309854Y388328D01*
X309164Y388857D01*
X308362Y389190D01*
X307500Y389303D01*
D02*
G37*
G36*
X691500D02*
X690638Y389190D01*
X689836Y388857D01*
X689146Y388328D01*
X688618Y387639D01*
X688285Y386836D01*
X688171Y385974D01*
X688285Y385113D01*
X688618Y384310D01*
X689146Y383621D01*
X689836Y383092D01*
X690638Y382759D01*
X690833Y382734D01*
X690893Y382661D01*
X691031Y382203D01*
X690875Y382000D01*
X696125D01*
X695854Y382354D01*
X695164Y382882D01*
X694361Y383215D01*
X694168Y383241D01*
X694107Y383313D01*
X693969Y383771D01*
X694382Y384310D01*
X694715Y385113D01*
X694829Y385974D01*
X694715Y386836D01*
X694382Y387639D01*
X693854Y388328D01*
X693164Y388857D01*
X692361Y389190D01*
X691500Y389303D01*
D02*
G37*
G36*
X563500D02*
X562639Y389190D01*
X561836Y388857D01*
X561146Y388328D01*
X560617Y387639D01*
X560285Y386836D01*
X560172Y385974D01*
X560285Y385113D01*
X560617Y384310D01*
X561146Y383621D01*
X561836Y383092D01*
X562639Y382759D01*
X562832Y382734D01*
X562892Y382661D01*
X563031Y382203D01*
X562875Y382000D01*
X568125D01*
X567854Y382354D01*
X567164Y382882D01*
X566362Y383215D01*
X566167Y383241D01*
X566108Y383313D01*
X565969Y383771D01*
X566383Y384310D01*
X566715Y385113D01*
X566828Y385974D01*
X566715Y386836D01*
X566383Y387639D01*
X565854Y388328D01*
X565164Y388857D01*
X564361Y389190D01*
X563500Y389303D01*
D02*
G37*
G36*
X453000Y397829D02*
X452139Y397715D01*
X451336Y397382D01*
X450646Y396854D01*
X450117Y396164D01*
X449785Y395361D01*
X449672Y394500D01*
X449785Y393638D01*
X450117Y392836D01*
X450646Y392146D01*
X451336Y391617D01*
X452139Y391285D01*
X453000Y391172D01*
X453862Y391285D01*
X454664Y391617D01*
X455354Y392146D01*
X455883Y392836D01*
X456215Y393638D01*
X456328Y394500D01*
X456215Y395361D01*
X455883Y396164D01*
X455354Y396854D01*
X454664Y397382D01*
X453862Y397715D01*
X453000Y397829D01*
D02*
G37*
G36*
X287000Y400079D02*
X286375D01*
X286646Y399725D01*
X287000Y399454D01*
Y400079D01*
D02*
G37*
G36*
X654291Y405329D02*
X653430Y405215D01*
X652627Y404882D01*
X651938Y404354D01*
X651409Y403664D01*
X651076Y402861D01*
X650963Y402000D01*
X651076Y401138D01*
X651409Y400336D01*
X651938Y399646D01*
X652627Y399117D01*
X653430Y398785D01*
X654291Y398672D01*
X655153Y398785D01*
X655956Y399117D01*
X656645Y399646D01*
X657174Y400336D01*
X657506Y401138D01*
X657620Y402000D01*
X657506Y402861D01*
X657174Y403664D01*
X656645Y404354D01*
X655956Y404882D01*
X655153Y405215D01*
X654291Y405329D01*
D02*
G37*
G36*
X415000Y400079D02*
X414375D01*
X414646Y399725D01*
X415000Y399454D01*
Y400079D01*
D02*
G37*
G36*
X291625D02*
X291000D01*
Y399454D01*
X291354Y399725D01*
X291625Y400079D01*
D02*
G37*
G36*
X526291Y405329D02*
X525430Y405215D01*
X524627Y404882D01*
X523938Y404354D01*
X523409Y403664D01*
X523076Y402861D01*
X522963Y402000D01*
X523076Y401138D01*
X523409Y400336D01*
X523938Y399646D01*
X524627Y399117D01*
X525430Y398785D01*
X526291Y398672D01*
X527153Y398785D01*
X527956Y399117D01*
X528645Y399646D01*
X529174Y400336D01*
X529506Y401138D01*
X529620Y402000D01*
X529506Y402861D01*
X529174Y403664D01*
X528645Y404354D01*
X527956Y404882D01*
X527153Y405215D01*
X526291Y405329D01*
D02*
G37*
G36*
X709000Y397829D02*
X708139Y397715D01*
X707336Y397382D01*
X706646Y396854D01*
X706117Y396164D01*
X705785Y395361D01*
X705672Y394500D01*
X705785Y393638D01*
X706117Y392836D01*
X706646Y392146D01*
X707336Y391617D01*
X708139Y391285D01*
X709000Y391172D01*
X709862Y391285D01*
X710664Y391617D01*
X711354Y392146D01*
X711882Y392836D01*
X712215Y393638D01*
X712328Y394500D01*
X712215Y395361D01*
X711882Y396164D01*
X711354Y396854D01*
X710664Y397382D01*
X709862Y397715D01*
X709000Y397829D01*
D02*
G37*
G36*
X581000D02*
X580138Y397715D01*
X579336Y397382D01*
X578646Y396854D01*
X578118Y396164D01*
X577785Y395361D01*
X577671Y394500D01*
X577785Y393638D01*
X578118Y392836D01*
X578646Y392146D01*
X579336Y391617D01*
X580138Y391285D01*
X581000Y391172D01*
X581861Y391285D01*
X582664Y391617D01*
X583354Y392146D01*
X583883Y392836D01*
X584215Y393638D01*
X584329Y394500D01*
X584215Y395361D01*
X583883Y396164D01*
X583354Y396854D01*
X582664Y397382D01*
X581861Y397715D01*
X581000Y397829D01*
D02*
G37*
G36*
X398291Y405329D02*
X397430Y405215D01*
X396627Y404882D01*
X395938Y404354D01*
X395409Y403664D01*
X395076Y402861D01*
X394963Y402000D01*
X395076Y401138D01*
X395409Y400336D01*
X395938Y399646D01*
X396627Y399117D01*
X397430Y398785D01*
X398291Y398672D01*
X399153Y398785D01*
X399956Y399117D01*
X400645Y399646D01*
X401174Y400336D01*
X401506Y401138D01*
X401620Y402000D01*
X401506Y402861D01*
X401174Y403664D01*
X400645Y404354D01*
X399956Y404882D01*
X399153Y405215D01*
X398291Y405329D01*
D02*
G37*
G36*
X270291D02*
X269430Y405215D01*
X268627Y404882D01*
X267938Y404354D01*
X267409Y403664D01*
X267076Y402861D01*
X266963Y402000D01*
X267076Y401138D01*
X267409Y400336D01*
X267938Y399646D01*
X268627Y399117D01*
X269430Y398785D01*
X270291Y398672D01*
X271153Y398785D01*
X271956Y399117D01*
X272645Y399646D01*
X273174Y400336D01*
X273506Y401138D01*
X273620Y402000D01*
X273506Y402861D01*
X273174Y403664D01*
X272645Y404354D01*
X271956Y404882D01*
X271153Y405215D01*
X270291Y405329D01*
D02*
G37*
G36*
X280625Y416079D02*
X280000D01*
Y415454D01*
X280354Y415725D01*
X280625Y416079D01*
D02*
G37*
G36*
X315709Y448689D02*
X315047Y448488D01*
X313845Y447846D01*
X312791Y446981D01*
X311926Y445927D01*
X311283Y444725D01*
X311083Y444063D01*
X315709D01*
Y448689D01*
D02*
G37*
G36*
X858500Y449289D02*
X856540Y449095D01*
X854655Y448524D01*
X852917Y447595D01*
X851395Y446345D01*
X850145Y444823D01*
X849216Y443085D01*
X848907Y442067D01*
X848407D01*
X848098Y443085D01*
X847170Y444823D01*
X845920Y446345D01*
X844398Y447595D01*
X842660Y448524D01*
X840775Y449095D01*
X838815Y449289D01*
X836855Y449095D01*
X834970Y448524D01*
X833232Y447595D01*
X831710Y446345D01*
X830460Y444823D01*
X829531Y443085D01*
X828960Y441200D01*
X828767Y439240D01*
X828960Y437280D01*
X829531Y435395D01*
X830460Y433658D01*
X831710Y432135D01*
X833232Y430885D01*
X834970Y429957D01*
X836855Y429385D01*
X838815Y429192D01*
X840775Y429385D01*
X842660Y429957D01*
X844398Y430885D01*
X845920Y432135D01*
X847170Y433658D01*
X848098Y435395D01*
X848407Y436413D01*
X848907D01*
X849216Y435395D01*
X850145Y433658D01*
X851395Y432135D01*
X852917Y430885D01*
X854655Y429957D01*
X856540Y429385D01*
X858500Y429192D01*
X860460Y429385D01*
X862345Y429957D01*
X864083Y430885D01*
X865605Y432135D01*
X866855Y433658D01*
X867784Y435395D01*
X868355Y437280D01*
X868548Y439240D01*
X868355Y441200D01*
X867784Y443085D01*
X866855Y444823D01*
X865605Y446345D01*
X864083Y447595D01*
X862345Y448524D01*
X860460Y449095D01*
X858500Y449289D01*
D02*
G37*
G36*
X443709Y448689D02*
X443047Y448488D01*
X441845Y447846D01*
X440791Y446981D01*
X439926Y445927D01*
X439283Y444725D01*
X439083Y444063D01*
X443709D01*
Y448689D01*
D02*
G37*
G36*
X319709D02*
Y444063D01*
X324335D01*
X324134Y444725D01*
X323491Y445927D01*
X322626Y446981D01*
X321572Y447846D01*
X320370Y448488D01*
X319709Y448689D01*
D02*
G37*
G36*
X767500Y462037D02*
X765617Y461889D01*
X763780Y461448D01*
X762035Y460725D01*
X760425Y459738D01*
X758989Y458511D01*
X757762Y457075D01*
X756775Y455465D01*
X756052Y453720D01*
X755611Y451883D01*
X755463Y450000D01*
X755611Y448117D01*
X756052Y446280D01*
X756775Y444535D01*
X757762Y442925D01*
X758989Y441489D01*
X760425Y440262D01*
X762035Y439275D01*
X763780Y438552D01*
X765617Y438111D01*
X767500Y437963D01*
X769383Y438111D01*
X771220Y438552D01*
X772965Y439275D01*
X774575Y440262D01*
X776012Y441489D01*
X777238Y442925D01*
X778225Y444535D01*
X778948Y446280D01*
X779389Y448117D01*
X779537Y450000D01*
X779389Y451883D01*
X778948Y453720D01*
X778225Y455465D01*
X777238Y457075D01*
X776012Y458511D01*
X774575Y459738D01*
X772965Y460725D01*
X771220Y461448D01*
X769383Y461889D01*
X767500Y462037D01*
D02*
G37*
G36*
X580335Y440063D02*
X575709D01*
Y435437D01*
X576370Y435638D01*
X577572Y436280D01*
X578626Y437145D01*
X579491Y438199D01*
X580134Y439401D01*
X580335Y440063D01*
D02*
G37*
G36*
X571709D02*
X567083D01*
X567283Y439401D01*
X567926Y438199D01*
X568791Y437145D01*
X569845Y436280D01*
X571047Y435638D01*
X571709Y435437D01*
Y440063D01*
D02*
G37*
G36*
X708335D02*
X703709D01*
Y435437D01*
X704370Y435638D01*
X705573Y436280D01*
X706626Y437145D01*
X707491Y438199D01*
X708134Y439401D01*
X708335Y440063D01*
D02*
G37*
G36*
X699709D02*
X695083D01*
X695283Y439401D01*
X695926Y438199D01*
X696791Y437145D01*
X697845Y436280D01*
X699047Y435638D01*
X699709Y435437D01*
Y440063D01*
D02*
G37*
G36*
X447709Y448689D02*
Y444063D01*
X452335D01*
X452134Y444725D01*
X451491Y445927D01*
X450626Y446981D01*
X449573Y447846D01*
X448370Y448488D01*
X447709Y448689D01*
D02*
G37*
G36*
X560008Y458560D02*
X558561Y458369D01*
X557212Y457811D01*
X556054Y456922D01*
X555166Y455764D01*
X554607Y454416D01*
X554417Y452969D01*
X554607Y451521D01*
X555166Y450173D01*
X556054Y449015D01*
X557212Y448127D01*
X558561Y447568D01*
X560008Y447377D01*
X561455Y447568D01*
X562803Y448127D01*
X563961Y449015D01*
X564850Y450173D01*
X565409Y451521D01*
X565599Y452969D01*
X565409Y454416D01*
X564850Y455764D01*
X563961Y456922D01*
X562803Y457811D01*
X561455Y458369D01*
X560008Y458560D01*
D02*
G37*
G36*
X432008D02*
X430561Y458369D01*
X429212Y457811D01*
X428054Y456922D01*
X427166Y455764D01*
X426607Y454416D01*
X426417Y452969D01*
X426607Y451521D01*
X427166Y450173D01*
X428054Y449015D01*
X429212Y448127D01*
X430561Y447568D01*
X432008Y447377D01*
X433455Y447568D01*
X434803Y448127D01*
X435961Y449015D01*
X436850Y450173D01*
X437408Y451521D01*
X437599Y452969D01*
X437408Y454416D01*
X436850Y455764D01*
X435961Y456922D01*
X434803Y457811D01*
X433455Y458369D01*
X432008Y458560D01*
D02*
G37*
G36*
X893933Y471848D02*
X891973Y471655D01*
X890088Y471083D01*
X888350Y470154D01*
X886828Y468904D01*
X885578Y467382D01*
X884650Y465645D01*
X884078Y463760D01*
X883885Y461799D01*
X884078Y459839D01*
X884650Y457954D01*
X885578Y456217D01*
X886828Y454694D01*
X888350Y453444D01*
X890088Y452516D01*
X891973Y451944D01*
X893933Y451751D01*
X895893Y451944D01*
X897778Y452516D01*
X899516Y453444D01*
X901038Y454694D01*
X902288Y456217D01*
X903217Y457954D01*
X903788Y459839D01*
X903981Y461799D01*
X903788Y463760D01*
X903217Y465645D01*
X902288Y467382D01*
X901038Y468904D01*
X899516Y470154D01*
X897778Y471083D01*
X895893Y471655D01*
X893933Y471848D01*
D02*
G37*
G36*
X688008Y458560D02*
X686561Y458369D01*
X685212Y457811D01*
X684054Y456922D01*
X683166Y455764D01*
X682607Y454416D01*
X682417Y452969D01*
X682607Y451521D01*
X683166Y450173D01*
X684054Y449015D01*
X685212Y448127D01*
X686561Y447568D01*
X688008Y447377D01*
X689455Y447568D01*
X690803Y448127D01*
X691961Y449015D01*
X692850Y450173D01*
X693408Y451521D01*
X693599Y452969D01*
X693408Y454416D01*
X692850Y455764D01*
X691961Y456922D01*
X690803Y457811D01*
X689455Y458369D01*
X688008Y458560D01*
D02*
G37*
G36*
X304008D02*
X302561Y458369D01*
X301212Y457811D01*
X300054Y456922D01*
X299166Y455764D01*
X298607Y454416D01*
X298417Y452969D01*
X298607Y451521D01*
X299166Y450173D01*
X300054Y449015D01*
X301212Y448127D01*
X302561Y447568D01*
X304008Y447377D01*
X305455Y447568D01*
X306803Y448127D01*
X307961Y449015D01*
X308850Y450173D01*
X309408Y451521D01*
X309599Y452969D01*
X309408Y454416D01*
X308850Y455764D01*
X307961Y456922D01*
X306803Y457811D01*
X305455Y458369D01*
X304008Y458560D01*
D02*
G37*
G36*
X575709Y448689D02*
Y444063D01*
X580335D01*
X580134Y444725D01*
X579491Y445927D01*
X578626Y446981D01*
X577572Y447846D01*
X576370Y448488D01*
X575709Y448689D01*
D02*
G37*
G36*
X571709D02*
X571047Y448488D01*
X569845Y447846D01*
X568791Y446981D01*
X567926Y445927D01*
X567283Y444725D01*
X567083Y444063D01*
X571709D01*
Y448689D01*
D02*
G37*
G36*
X703709D02*
Y444063D01*
X708335D01*
X708134Y444725D01*
X707491Y445927D01*
X706626Y446981D01*
X705573Y447846D01*
X704370Y448488D01*
X703709Y448689D01*
D02*
G37*
G36*
X699709D02*
X699047Y448488D01*
X697845Y447846D01*
X696791Y446981D01*
X695926Y445927D01*
X695283Y444725D01*
X695083Y444063D01*
X699709D01*
Y448689D01*
D02*
G37*
G36*
X276000Y420704D02*
X275646Y420432D01*
X275375Y420079D01*
X276000D01*
Y420704D01*
D02*
G37*
G36*
X664625Y416079D02*
X664000D01*
Y415454D01*
X664354Y415725D01*
X664625Y416079D01*
D02*
G37*
G36*
X404000Y420704D02*
X403646Y420432D01*
X403375Y420079D01*
X404000D01*
Y420704D01*
D02*
G37*
G36*
X280000D02*
Y420079D01*
X280625D01*
X280354Y420432D01*
X280000Y420704D01*
D02*
G37*
G36*
X660000Y416079D02*
X659375D01*
X659646Y415725D01*
X660000Y415454D01*
Y416079D01*
D02*
G37*
G36*
X408625D02*
X408000D01*
Y415454D01*
X408354Y415725D01*
X408625Y416079D01*
D02*
G37*
G36*
X404000D02*
X403375D01*
X403646Y415725D01*
X404000Y415454D01*
Y416079D01*
D02*
G37*
G36*
X536625D02*
X536000D01*
Y415454D01*
X536354Y415725D01*
X536625Y416079D01*
D02*
G37*
G36*
X532000D02*
X531375D01*
X531646Y415725D01*
X532000Y415454D01*
Y416079D01*
D02*
G37*
G36*
X408000Y420704D02*
Y420079D01*
X408625D01*
X408354Y420432D01*
X408000Y420704D01*
D02*
G37*
G36*
X324335Y440063D02*
X319709D01*
Y435437D01*
X320370Y435638D01*
X321572Y436280D01*
X322626Y437145D01*
X323491Y438199D01*
X324134Y439401D01*
X324335Y440063D01*
D02*
G37*
G36*
X315709D02*
X311083D01*
X311283Y439401D01*
X311926Y438199D01*
X312791Y437145D01*
X313845Y436280D01*
X315047Y435638D01*
X315709Y435437D01*
Y440063D01*
D02*
G37*
G36*
X452335D02*
X447709D01*
Y435437D01*
X448370Y435638D01*
X449573Y436280D01*
X450626Y437145D01*
X451491Y438199D01*
X452134Y439401D01*
X452335Y440063D01*
D02*
G37*
G36*
X443709D02*
X439083D01*
X439283Y439401D01*
X439926Y438199D01*
X440791Y437145D01*
X441845Y436280D01*
X443047Y435638D01*
X443709Y435437D01*
Y440063D01*
D02*
G37*
G36*
X255000Y452037D02*
X253117Y451889D01*
X251280Y451448D01*
X249535Y450725D01*
X247925Y449738D01*
X246488Y448512D01*
X245262Y447075D01*
X244275Y445465D01*
X243552Y443720D01*
X243111Y441883D01*
X242963Y440000D01*
X243111Y438117D01*
X243552Y436280D01*
X244275Y434535D01*
X245262Y432925D01*
X246488Y431489D01*
X247925Y430262D01*
X249535Y429275D01*
X251280Y428552D01*
X253117Y428111D01*
X255000Y427963D01*
X256883Y428111D01*
X258720Y428552D01*
X260465Y429275D01*
X262075Y430262D01*
X263511Y431489D01*
X264738Y432925D01*
X265725Y434535D01*
X266448Y436280D01*
X266889Y438117D01*
X267037Y440000D01*
X266889Y441883D01*
X266448Y443720D01*
X265725Y445465D01*
X264738Y447075D01*
X263511Y448512D01*
X262075Y449738D01*
X260465Y450725D01*
X258720Y451448D01*
X256883Y451889D01*
X255000Y452037D01*
D02*
G37*
G36*
X536000Y420704D02*
Y420079D01*
X536625D01*
X536354Y420432D01*
X536000Y420704D01*
D02*
G37*
G36*
X532000D02*
X531646Y420432D01*
X531375Y420079D01*
X532000D01*
Y420704D01*
D02*
G37*
G36*
X664000D02*
Y420079D01*
X664625D01*
X664354Y420432D01*
X664000Y420704D01*
D02*
G37*
G36*
X660000D02*
X659646Y420432D01*
X659375Y420079D01*
X660000D01*
Y420704D01*
D02*
G37*
G36*
X709000Y384828D02*
X708139Y384715D01*
X707336Y384383D01*
X706646Y383854D01*
X706117Y383164D01*
X705785Y382362D01*
X705672Y381500D01*
X705785Y380639D01*
X706117Y379836D01*
X706646Y379146D01*
X707336Y378618D01*
X708139Y378285D01*
X709000Y378171D01*
X709862Y378285D01*
X710664Y378618D01*
X711354Y379146D01*
X711882Y379836D01*
X712215Y380639D01*
X712328Y381500D01*
X712215Y382362D01*
X711882Y383164D01*
X711354Y383854D01*
X710664Y384383D01*
X709862Y384715D01*
X709000Y384828D01*
D02*
G37*
G36*
X398095Y360579D02*
X397470D01*
X397741Y360225D01*
X398095Y359954D01*
Y360579D01*
D02*
G37*
G36*
X274719D02*
X274095D01*
Y359954D01*
X274448Y360225D01*
X274719Y360579D01*
D02*
G37*
G36*
X526094D02*
X525470D01*
X525741Y360225D01*
X526094Y359954D01*
Y360579D01*
D02*
G37*
G36*
X402719D02*
X402095D01*
Y359954D01*
X402448Y360225D01*
X402719Y360579D01*
D02*
G37*
G36*
X270094D02*
X269470D01*
X269741Y360225D01*
X270094Y359954D01*
Y360579D01*
D02*
G37*
G36*
X868343Y358500D02*
X860500D01*
Y350657D01*
X862345Y351217D01*
X864083Y352145D01*
X865605Y353395D01*
X866855Y354917D01*
X867784Y356655D01*
X868343Y358500D01*
D02*
G37*
G36*
X836815Y358500D02*
X828972D01*
X829531Y356655D01*
X830460Y354917D01*
X831710Y353395D01*
X833232Y352145D01*
X834970Y351217D01*
X836815Y350657D01*
Y358500D01*
D02*
G37*
G36*
X793500Y352625D02*
Y352000D01*
X794125D01*
X793854Y352354D01*
X793500Y352625D01*
D02*
G37*
G36*
X789500D02*
X789146Y352354D01*
X788875Y352000D01*
X789500D01*
Y352625D01*
D02*
G37*
G36*
X530719Y360579D02*
X530094D01*
Y359954D01*
X530448Y360225D01*
X530719Y360579D01*
D02*
G37*
G36*
X274095Y365204D02*
Y364579D01*
X274719D01*
X274448Y364932D01*
X274095Y365204D01*
D02*
G37*
G36*
X270094D02*
X269741Y364932D01*
X269470Y364579D01*
X270094D01*
Y365204D01*
D02*
G37*
G36*
X402095D02*
Y364579D01*
X402719D01*
X402448Y364932D01*
X402095Y365204D01*
D02*
G37*
G36*
X398095D02*
X397741Y364932D01*
X397470Y364579D01*
X398095D01*
Y365204D01*
D02*
G37*
G36*
X856500Y370343D02*
X854655Y369783D01*
X852917Y368855D01*
X851395Y367605D01*
X850145Y366083D01*
X849216Y364345D01*
X848907Y363327D01*
X848407D01*
X848098Y364345D01*
X847170Y366083D01*
X845920Y367605D01*
X844398Y368855D01*
X842660Y369783D01*
X840815Y370343D01*
Y360500D01*
Y350657D01*
X842660Y351217D01*
X844398Y352145D01*
X845920Y353395D01*
X847170Y354917D01*
X848098Y356655D01*
X848407Y357673D01*
X848907D01*
X849216Y356655D01*
X850145Y354917D01*
X851395Y353395D01*
X852917Y352145D01*
X854655Y351217D01*
X856500Y350657D01*
Y360500D01*
Y370343D01*
D02*
G37*
G36*
X658719Y360579D02*
X658095D01*
Y359954D01*
X658448Y360225D01*
X658719Y360579D01*
D02*
G37*
G36*
X654095D02*
X653470D01*
X653741Y360225D01*
X654095Y359954D01*
Y360579D01*
D02*
G37*
G36*
X860500Y370343D02*
Y362500D01*
X868343D01*
X867784Y364345D01*
X866855Y366083D01*
X865605Y367605D01*
X864083Y368855D01*
X862345Y369783D01*
X860500Y370343D01*
D02*
G37*
G36*
X836815Y370343D02*
X834970Y369783D01*
X833232Y368855D01*
X831710Y367605D01*
X830460Y366083D01*
X829531Y364345D01*
X828972Y362500D01*
X836815D01*
Y370343D01*
D02*
G37*
G36*
X765000Y314670D02*
X764566Y314539D01*
X763466Y313951D01*
X762502Y313160D01*
X761711Y312196D01*
X761123Y311096D01*
X760991Y310661D01*
X765000D01*
Y314670D01*
D02*
G37*
G36*
X720000Y289625D02*
Y289000D01*
X720625D01*
X720354Y289354D01*
X720000Y289625D01*
D02*
G37*
G36*
X836815Y319130D02*
X828972D01*
X829531Y317284D01*
X830460Y315547D01*
X831710Y314025D01*
X833232Y312775D01*
X834970Y311846D01*
X836815Y311287D01*
Y319130D01*
D02*
G37*
G36*
X769000Y314670D02*
Y310661D01*
X773009D01*
X772877Y311096D01*
X772289Y312196D01*
X771498Y313160D01*
X770534Y313951D01*
X769434Y314539D01*
X769000Y314670D01*
D02*
G37*
G36*
X893933Y308619D02*
X891973Y308426D01*
X890088Y307854D01*
X888350Y306926D01*
X886828Y305676D01*
X885578Y304153D01*
X884650Y302416D01*
X884078Y300531D01*
X883885Y298571D01*
X884078Y296610D01*
X884650Y294725D01*
X885578Y292988D01*
X886828Y291465D01*
X888350Y290216D01*
X890088Y289287D01*
X891973Y288716D01*
X893933Y288522D01*
X895893Y288716D01*
X897778Y289287D01*
X899516Y290216D01*
X901038Y291465D01*
X902288Y292988D01*
X903217Y294725D01*
X903788Y296610D01*
X903981Y298571D01*
X903788Y300531D01*
X903217Y302416D01*
X902288Y304153D01*
X901038Y305676D01*
X899516Y306926D01*
X897778Y307854D01*
X895893Y308426D01*
X893933Y308619D01*
D02*
G37*
G36*
X712000Y290329D02*
X711138Y290215D01*
X710336Y289882D01*
X709646Y289354D01*
X709118Y288664D01*
X708785Y287861D01*
X708672Y287000D01*
X708785Y286139D01*
X709118Y285336D01*
X709646Y284646D01*
X710336Y284118D01*
X711138Y283785D01*
X712000Y283671D01*
X712861Y283785D01*
X713664Y284118D01*
X714354Y284646D01*
X714701Y285099D01*
X714704Y285101D01*
X715296D01*
X715299Y285099D01*
X715646Y284646D01*
X716000Y284375D01*
Y287000D01*
Y289625D01*
X715646Y289354D01*
X715299Y288901D01*
X715296Y288899D01*
X714704D01*
X714701Y288901D01*
X714354Y289354D01*
X713664Y289882D01*
X712861Y290215D01*
X712000Y290329D01*
D02*
G37*
G36*
X765000Y284221D02*
X760991D01*
X761123Y283786D01*
X761711Y282686D01*
X762502Y281722D01*
X763466Y280931D01*
X764566Y280343D01*
X765000Y280212D01*
Y284221D01*
D02*
G37*
G36*
X773009Y306661D02*
X767000D01*
X760991D01*
X761123Y306227D01*
X761369Y305767D01*
X761133Y305326D01*
X760175Y305232D01*
X758684Y304780D01*
X757311Y304046D01*
X756107Y303058D01*
X755119Y301854D01*
X754385Y300481D01*
X753933Y298991D01*
X753781Y297441D01*
X753933Y295891D01*
X754385Y294401D01*
X755119Y293028D01*
X756107Y291824D01*
X757311Y290836D01*
X758684Y290102D01*
X760175Y289650D01*
X761133Y289555D01*
X761369Y289114D01*
X761123Y288655D01*
X760991Y288221D01*
X767000D01*
X773009D01*
X772877Y288655D01*
X772289Y289755D01*
X771498Y290719D01*
X770534Y291510D01*
X769434Y292098D01*
X768456Y292394D01*
X768244Y292924D01*
X768329Y293028D01*
X769064Y294401D01*
X769516Y295891D01*
X769668Y297441D01*
X769516Y298991D01*
X769064Y300481D01*
X768329Y301854D01*
X768244Y301958D01*
X768456Y302488D01*
X769434Y302784D01*
X770534Y303372D01*
X771498Y304163D01*
X772289Y305127D01*
X772877Y306227D01*
X773009Y306661D01*
D02*
G37*
G36*
X720625Y285000D02*
X720000D01*
Y284375D01*
X720354Y284646D01*
X720625Y285000D01*
D02*
G37*
G36*
X868343Y319130D02*
X860500D01*
Y311287D01*
X862345Y311846D01*
X864083Y312775D01*
X865605Y314025D01*
X866855Y315547D01*
X867784Y317284D01*
X868343Y319130D01*
D02*
G37*
G36*
X794125Y348000D02*
X793500D01*
Y347375D01*
X793854Y347646D01*
X794125Y348000D01*
D02*
G37*
G36*
X789500D02*
X788875D01*
X789146Y347646D01*
X789500Y347375D01*
Y348000D01*
D02*
G37*
G36*
X822500Y350125D02*
Y349500D01*
X823125D01*
X822854Y349854D01*
X822500Y350125D01*
D02*
G37*
G36*
X818500D02*
X818146Y349854D01*
X817875Y349500D01*
X818500D01*
Y350125D01*
D02*
G37*
G36*
X823125Y345500D02*
X822500D01*
Y344875D01*
X822854Y345146D01*
X823125Y345500D01*
D02*
G37*
G36*
X860500Y330973D02*
Y323130D01*
X868343D01*
X867784Y324975D01*
X866855Y326712D01*
X865605Y328235D01*
X864083Y329485D01*
X862345Y330413D01*
X860500Y330973D01*
D02*
G37*
G36*
X836815Y330973D02*
X834970Y330413D01*
X833232Y329485D01*
X831710Y328235D01*
X830460Y326712D01*
X829531Y324975D01*
X828972Y323130D01*
X836815D01*
Y330973D01*
D02*
G37*
G36*
X818500Y345500D02*
X817875D01*
X818146Y345146D01*
X818500Y344875D01*
Y345500D01*
D02*
G37*
G36*
X856500Y330973D02*
X854655Y330413D01*
X852917Y329485D01*
X851395Y328235D01*
X850145Y326712D01*
X849216Y324975D01*
X848907Y323957D01*
X848407D01*
X848098Y324975D01*
X847170Y326712D01*
X845920Y328235D01*
X844398Y329485D01*
X842660Y330413D01*
X840815Y330973D01*
Y321130D01*
Y311287D01*
X842660Y311846D01*
X844398Y312775D01*
X845920Y314025D01*
X847170Y315547D01*
X848098Y317284D01*
X848407Y318303D01*
X848907D01*
X849216Y317284D01*
X850145Y315547D01*
X851395Y314025D01*
X852917Y312775D01*
X854655Y311846D01*
X856500Y311287D01*
Y321130D01*
Y330973D01*
D02*
G37*
G36*
X526094Y365204D02*
X525741Y364932D01*
X525470Y364579D01*
X526094D01*
Y365204D01*
D02*
G37*
G36*
X524000Y385329D02*
X523139Y385215D01*
X522336Y384882D01*
X521646Y384354D01*
X521117Y383664D01*
X520785Y382861D01*
X520672Y382000D01*
X520785Y381138D01*
X521117Y380336D01*
X521646Y379646D01*
X522336Y379117D01*
X523139Y378785D01*
X523660Y378716D01*
X523982Y378188D01*
X523879Y377940D01*
X523766Y377079D01*
X523879Y376217D01*
X524212Y375414D01*
X524741Y374725D01*
X525430Y374196D01*
X526233Y373864D01*
X527095Y373750D01*
X527956Y373864D01*
X528759Y374196D01*
X529448Y374725D01*
X529977Y375414D01*
X530310Y376217D01*
X530423Y377079D01*
X530310Y377940D01*
X529977Y378743D01*
X529448Y379432D01*
X528759Y379961D01*
X527956Y380294D01*
X527435Y380362D01*
X527112Y380890D01*
X527215Y381138D01*
X527328Y382000D01*
X527215Y382861D01*
X526883Y383664D01*
X526354Y384354D01*
X525664Y384882D01*
X524861Y385215D01*
X524000Y385329D01*
D02*
G37*
G36*
X395000D02*
X394139Y385215D01*
X393336Y384882D01*
X392646Y384354D01*
X392118Y383664D01*
X391785Y382861D01*
X391671Y382000D01*
X391785Y381138D01*
X392118Y380336D01*
X392646Y379646D01*
X393336Y379117D01*
X394139Y378785D01*
X395000Y378672D01*
X395678Y378761D01*
X396001Y378419D01*
X396038Y378323D01*
X395879Y377940D01*
X395766Y377079D01*
X395879Y376217D01*
X396212Y375414D01*
X396741Y374725D01*
X397430Y374196D01*
X398233Y373864D01*
X399095Y373750D01*
X399956Y373864D01*
X400759Y374196D01*
X401448Y374725D01*
X401977Y375414D01*
X402310Y376217D01*
X402423Y377079D01*
X402310Y377940D01*
X401977Y378743D01*
X401448Y379432D01*
X400759Y379961D01*
X399956Y380294D01*
X399095Y380407D01*
X398416Y380318D01*
X398093Y380659D01*
X398057Y380756D01*
X398215Y381138D01*
X398328Y382000D01*
X398215Y382861D01*
X397883Y383664D01*
X397354Y384354D01*
X396664Y384882D01*
X395862Y385215D01*
X395000Y385329D01*
D02*
G37*
G36*
X307500Y378000D02*
X306875D01*
X307146Y377646D01*
X307500Y377375D01*
Y378000D01*
D02*
G37*
G36*
X651500Y385329D02*
X650638Y385215D01*
X649836Y384882D01*
X649146Y384354D01*
X648618Y383664D01*
X648285Y382861D01*
X648172Y382000D01*
X648285Y381138D01*
X648618Y380336D01*
X649146Y379646D01*
X649836Y379117D01*
X650638Y378785D01*
X651500Y378672D01*
X651649Y378691D01*
X652001Y378233D01*
X651879Y377940D01*
X651766Y377079D01*
X651879Y376217D01*
X652212Y375414D01*
X652741Y374725D01*
X653430Y374196D01*
X654233Y373864D01*
X655094Y373750D01*
X655956Y373864D01*
X656759Y374196D01*
X657448Y374725D01*
X657977Y375414D01*
X658310Y376217D01*
X658423Y377079D01*
X658310Y377940D01*
X657977Y378743D01*
X657448Y379432D01*
X656759Y379961D01*
X655956Y380294D01*
X655094Y380407D01*
X654945Y380388D01*
X654594Y380846D01*
X654715Y381138D01*
X654829Y382000D01*
X654715Y382861D01*
X654383Y383664D01*
X653854Y384354D01*
X653164Y384882D01*
X652361Y385215D01*
X651500Y385329D01*
D02*
G37*
G36*
X267500D02*
X266638Y385215D01*
X265836Y384882D01*
X265146Y384354D01*
X264617Y383664D01*
X264285Y382861D01*
X264172Y382000D01*
X264285Y381138D01*
X264617Y380336D01*
X265146Y379646D01*
X265836Y379117D01*
X266638Y378785D01*
X267500Y378672D01*
X267649Y378691D01*
X268001Y378233D01*
X267879Y377940D01*
X267766Y377079D01*
X267879Y376217D01*
X268212Y375414D01*
X268741Y374725D01*
X269430Y374196D01*
X270233Y373864D01*
X271094Y373750D01*
X271956Y373864D01*
X272759Y374196D01*
X273448Y374725D01*
X273977Y375414D01*
X274310Y376217D01*
X274423Y377079D01*
X274310Y377940D01*
X273977Y378743D01*
X273448Y379432D01*
X272759Y379961D01*
X271956Y380294D01*
X271094Y380407D01*
X270945Y380388D01*
X270594Y380846D01*
X270715Y381138D01*
X270829Y382000D01*
X270715Y382861D01*
X270382Y383664D01*
X269854Y384354D01*
X269164Y384882D01*
X268361Y385215D01*
X267500Y385329D01*
D02*
G37*
G36*
X509594Y371704D02*
Y371079D01*
X510219D01*
X509948Y371432D01*
X509594Y371704D01*
D02*
G37*
G36*
X505594D02*
X505241Y371432D01*
X504970Y371079D01*
X505594D01*
Y371704D01*
D02*
G37*
G36*
X637595D02*
Y371079D01*
X638219D01*
X637948Y371432D01*
X637595Y371704D01*
D02*
G37*
G36*
X633595D02*
X633241Y371432D01*
X632970Y371079D01*
X633595D01*
Y371704D01*
D02*
G37*
G36*
X312125Y378000D02*
X311500D01*
Y377375D01*
X311854Y377646D01*
X312125Y378000D01*
D02*
G37*
G36*
X325000Y384828D02*
X324138Y384715D01*
X323336Y384383D01*
X322646Y383854D01*
X322117Y383164D01*
X321785Y382362D01*
X321672Y381500D01*
X321785Y380639D01*
X322117Y379836D01*
X322646Y379146D01*
X323336Y378618D01*
X324138Y378285D01*
X325000Y378171D01*
X325862Y378285D01*
X326664Y378618D01*
X327354Y379146D01*
X327883Y379836D01*
X328215Y380639D01*
X328328Y381500D01*
X328215Y382362D01*
X327883Y383164D01*
X327354Y383854D01*
X326664Y384383D01*
X325862Y384715D01*
X325000Y384828D01*
D02*
G37*
G36*
X696125Y378000D02*
X695500D01*
Y377375D01*
X695854Y377646D01*
X696125Y378000D01*
D02*
G37*
G36*
X581000Y384828D02*
X580138Y384715D01*
X579336Y384383D01*
X578646Y383854D01*
X578118Y383164D01*
X577785Y382362D01*
X577671Y381500D01*
X577785Y380639D01*
X578118Y379836D01*
X578646Y379146D01*
X579336Y378618D01*
X580138Y378285D01*
X581000Y378171D01*
X581861Y378285D01*
X582664Y378618D01*
X583354Y379146D01*
X583883Y379836D01*
X584215Y380639D01*
X584329Y381500D01*
X584215Y382362D01*
X583883Y383164D01*
X583354Y383854D01*
X582664Y384383D01*
X581861Y384715D01*
X581000Y384828D01*
D02*
G37*
G36*
X453000D02*
X452139Y384715D01*
X451336Y384383D01*
X450646Y383854D01*
X450117Y383164D01*
X449785Y382362D01*
X449672Y381500D01*
X449785Y380639D01*
X450117Y379836D01*
X450646Y379146D01*
X451336Y378618D01*
X452139Y378285D01*
X453000Y378171D01*
X453862Y378285D01*
X454664Y378618D01*
X455354Y379146D01*
X455883Y379836D01*
X456215Y380639D01*
X456328Y381500D01*
X456215Y382362D01*
X455883Y383164D01*
X455354Y383854D01*
X454664Y384383D01*
X453862Y384715D01*
X453000Y384828D01*
D02*
G37*
G36*
X691500Y378000D02*
X690875D01*
X691146Y377646D01*
X691500Y377375D01*
Y378000D01*
D02*
G37*
G36*
X440125D02*
X439500D01*
Y377375D01*
X439854Y377646D01*
X440125Y378000D01*
D02*
G37*
G36*
X435500D02*
X434875D01*
X435146Y377646D01*
X435500Y377375D01*
Y378000D01*
D02*
G37*
G36*
X568125D02*
X567500D01*
Y377375D01*
X567854Y377646D01*
X568125Y378000D01*
D02*
G37*
G36*
X563500D02*
X562875D01*
X563146Y377646D01*
X563500Y377375D01*
Y378000D01*
D02*
G37*
G36*
X382219Y367079D02*
X381594D01*
Y366454D01*
X381948Y366725D01*
X382219Y367079D01*
D02*
G37*
G36*
X377594D02*
X376970D01*
X377241Y366725D01*
X377594Y366454D01*
Y367079D01*
D02*
G37*
G36*
X510219D02*
X509594D01*
Y366454D01*
X509948Y366725D01*
X510219Y367079D01*
D02*
G37*
G36*
X505594D02*
X504970D01*
X505241Y366725D01*
X505594Y366454D01*
Y367079D01*
D02*
G37*
G36*
X254219D02*
X253594D01*
Y366454D01*
X253948Y366725D01*
X254219Y367079D01*
D02*
G37*
G36*
X654095Y365204D02*
X653741Y364932D01*
X653470Y364579D01*
X654095D01*
Y365204D01*
D02*
G37*
G36*
X530094D02*
Y364579D01*
X530719D01*
X530448Y364932D01*
X530094Y365204D01*
D02*
G37*
G36*
X249594Y367079D02*
X248970D01*
X249241Y366725D01*
X249594Y366454D01*
Y367079D01*
D02*
G37*
G36*
X658095Y365204D02*
Y364579D01*
X658719D01*
X658448Y364932D01*
X658095Y365204D01*
D02*
G37*
G36*
X633595Y367079D02*
X632970D01*
X633241Y366725D01*
X633595Y366454D01*
Y367079D01*
D02*
G37*
G36*
X253594Y371704D02*
Y371079D01*
X254219D01*
X253948Y371432D01*
X253594Y371704D01*
D02*
G37*
G36*
X249594D02*
X249241Y371432D01*
X248970Y371079D01*
X249594D01*
Y371704D01*
D02*
G37*
G36*
X381594D02*
Y371079D01*
X382219D01*
X381948Y371432D01*
X381594Y371704D01*
D02*
G37*
G36*
X377594D02*
X377241Y371432D01*
X376970Y371079D01*
X377594D01*
Y371704D01*
D02*
G37*
G36*
X567500Y369328D02*
X566639Y369215D01*
X565836Y368882D01*
X565174Y368375D01*
X565164Y368383D01*
X564361Y368715D01*
X563500Y368829D01*
X562639Y368715D01*
X561836Y368383D01*
X561146Y367854D01*
X560617Y367164D01*
X560285Y366361D01*
X560172Y365500D01*
X560285Y364638D01*
X560617Y363836D01*
X561146Y363146D01*
X561836Y362617D01*
X562639Y362285D01*
X563500Y362172D01*
X564361Y362285D01*
X565164Y362617D01*
X565826Y363125D01*
X565836Y363118D01*
X566639Y362785D01*
X567500Y362671D01*
X568362Y362785D01*
X569164Y363118D01*
X569854Y363646D01*
X570382Y364336D01*
X570715Y365139D01*
X570828Y366000D01*
X570715Y366862D01*
X570382Y367664D01*
X569854Y368354D01*
X569164Y368882D01*
X568362Y369215D01*
X567500Y369328D01*
D02*
G37*
G36*
X695500D02*
X694638Y369215D01*
X693836Y368882D01*
X693174Y368375D01*
X693164Y368383D01*
X692361Y368715D01*
X691500Y368829D01*
X690638Y368715D01*
X689836Y368383D01*
X689146Y367854D01*
X688618Y367164D01*
X688285Y366361D01*
X688171Y365500D01*
X688285Y364638D01*
X688618Y363836D01*
X689146Y363146D01*
X689836Y362617D01*
X690638Y362285D01*
X691500Y362172D01*
X692361Y362285D01*
X693164Y362617D01*
X693826Y363125D01*
X693836Y363118D01*
X694638Y362785D01*
X695500Y362671D01*
X696361Y362785D01*
X697164Y363118D01*
X697854Y363646D01*
X698383Y364336D01*
X698715Y365139D01*
X698829Y366000D01*
X698715Y366862D01*
X698383Y367664D01*
X697854Y368354D01*
X697164Y368882D01*
X696361Y369215D01*
X695500Y369328D01*
D02*
G37*
G36*
X638219Y367079D02*
X637595D01*
Y366454D01*
X637948Y366725D01*
X638219Y367079D01*
D02*
G37*
G36*
X439500Y369328D02*
X438638Y369215D01*
X437836Y368882D01*
X437174Y368375D01*
X437164Y368383D01*
X436362Y368715D01*
X435500Y368829D01*
X434639Y368715D01*
X433836Y368383D01*
X433146Y367854D01*
X432618Y367164D01*
X432285Y366361D01*
X432171Y365500D01*
X432285Y364638D01*
X432618Y363836D01*
X433146Y363146D01*
X433836Y362617D01*
X434639Y362285D01*
X435500Y362172D01*
X436362Y362285D01*
X437164Y362617D01*
X437826Y363125D01*
X437836Y363118D01*
X438638Y362785D01*
X439500Y362671D01*
X440361Y362785D01*
X441164Y363118D01*
X441854Y363646D01*
X442382Y364336D01*
X442715Y365139D01*
X442829Y366000D01*
X442715Y366862D01*
X442382Y367664D01*
X441854Y368354D01*
X441164Y368882D01*
X440361Y369215D01*
X439500Y369328D01*
D02*
G37*
G36*
X311500D02*
X310638Y369215D01*
X309836Y368882D01*
X309174Y368375D01*
X309164Y368383D01*
X308362Y368715D01*
X307500Y368829D01*
X306639Y368715D01*
X305836Y368383D01*
X305146Y367854D01*
X304618Y367164D01*
X304285Y366361D01*
X304171Y365500D01*
X304285Y364638D01*
X304618Y363836D01*
X305146Y363146D01*
X305836Y362617D01*
X306639Y362285D01*
X307500Y362172D01*
X308362Y362285D01*
X309164Y362617D01*
X309826Y363125D01*
X309836Y363118D01*
X310638Y362785D01*
X311500Y362671D01*
X312362Y362785D01*
X313164Y363118D01*
X313854Y363646D01*
X314383Y364336D01*
X314715Y365139D01*
X314828Y366000D01*
X314715Y366862D01*
X314383Y367664D01*
X313854Y368354D01*
X313164Y368882D01*
X312362Y369215D01*
X311500Y369328D01*
D02*
G37*
%LPD*%
D29*
X258780Y291342D02*
D03*
Y286421D02*
D03*
Y281500D02*
D03*
D30*
Y276579D02*
D03*
D31*
X395291Y155378D02*
D03*
Y132937D02*
D03*
X651291Y155378D02*
D03*
Y132937D02*
D03*
X523291Y155378D02*
D03*
Y132937D02*
D03*
X267291Y155378D02*
D03*
Y132937D02*
D03*
X317709Y419622D02*
D03*
Y442063D02*
D03*
X445709Y419622D02*
D03*
Y442063D02*
D03*
X573709Y419622D02*
D03*
Y442063D02*
D03*
X701709Y419622D02*
D03*
Y442063D02*
D03*
D32*
X893933Y461799D02*
D03*
Y298571D02*
D03*
X858500Y439240D02*
D03*
X838815D02*
D03*
Y399870D02*
D03*
X858500D02*
D03*
Y360500D02*
D03*
X838815D02*
D03*
Y321130D02*
D03*
X858500D02*
D03*
X893433Y277299D02*
D03*
Y114071D02*
D03*
X858000Y254740D02*
D03*
X838315D02*
D03*
Y215370D02*
D03*
X858000D02*
D03*
Y176000D02*
D03*
X838315D02*
D03*
Y136630D02*
D03*
X858000D02*
D03*
D33*
X732000Y292000D02*
D03*
D34*
Y282000D02*
D03*
D35*
X255000Y440000D02*
D03*
X335000Y135000D02*
D03*
X767500D02*
D03*
Y450000D02*
D03*
D36*
X767000Y263779D02*
D03*
Y241339D02*
D03*
Y308661D02*
D03*
Y286221D02*
D03*
D37*
X761724Y252559D02*
D03*
Y297441D02*
D03*
D38*
X696906Y212421D02*
D03*
X267500Y382000D02*
D03*
X395000D02*
D03*
X317000Y193000D02*
D03*
X712000Y287000D02*
D03*
X272094Y362579D02*
D03*
X271094Y377079D02*
D03*
X273500Y393500D02*
D03*
X325000Y394500D02*
D03*
X311500Y366000D02*
D03*
X325000Y381500D02*
D03*
X307500Y385974D02*
D03*
Y365500D02*
D03*
X270291Y402000D02*
D03*
X278000Y418079D02*
D03*
X289000Y402079D02*
D03*
X309500Y380000D02*
D03*
X251594Y369079D02*
D03*
X400095Y362579D02*
D03*
X399095Y377079D02*
D03*
X401500Y393500D02*
D03*
X453000Y394500D02*
D03*
X439500Y366000D02*
D03*
X453000Y381500D02*
D03*
X435500Y385974D02*
D03*
Y365500D02*
D03*
X398291Y402000D02*
D03*
X406000Y418079D02*
D03*
X417000Y402079D02*
D03*
X437500Y380000D02*
D03*
X379594Y369079D02*
D03*
X528094Y362579D02*
D03*
X527095Y377079D02*
D03*
X529500Y393500D02*
D03*
X581000Y394500D02*
D03*
X567500Y366000D02*
D03*
X581000Y381500D02*
D03*
X563500Y385974D02*
D03*
Y365500D02*
D03*
X526291Y402000D02*
D03*
X534000Y418079D02*
D03*
X545000Y402079D02*
D03*
X565500Y380000D02*
D03*
X524000Y382000D02*
D03*
X507594Y369079D02*
D03*
X656095Y362579D02*
D03*
X655094Y377079D02*
D03*
X657500Y393500D02*
D03*
X695500Y366000D02*
D03*
X709000Y394500D02*
D03*
X691500Y385974D02*
D03*
X709000Y381500D02*
D03*
X691500Y365500D02*
D03*
X654291Y402000D02*
D03*
X662000Y418079D02*
D03*
X673000Y402079D02*
D03*
X693500Y380000D02*
D03*
X651500Y382000D02*
D03*
X635595Y369079D02*
D03*
X312906Y212421D02*
D03*
X313906Y197921D02*
D03*
X311500Y181500D02*
D03*
X273500Y209000D02*
D03*
X260000Y180500D02*
D03*
X277500Y189026D02*
D03*
X260000Y193500D02*
D03*
X277500Y209500D02*
D03*
X314709Y173000D02*
D03*
X307000Y156921D02*
D03*
X296000Y172921D02*
D03*
X275500Y195000D02*
D03*
X333405Y205921D02*
D03*
X440906Y212421D02*
D03*
X441905Y197921D02*
D03*
X439500Y181500D02*
D03*
X401500Y209000D02*
D03*
X388000Y180500D02*
D03*
X405500Y189026D02*
D03*
X388000Y193500D02*
D03*
X405500Y209500D02*
D03*
X442709Y173000D02*
D03*
X435000Y156921D02*
D03*
X424000Y172921D02*
D03*
X403500Y195000D02*
D03*
X445500Y193000D02*
D03*
X461406Y205921D02*
D03*
X697905Y197921D02*
D03*
X695500Y181500D02*
D03*
X657500Y209000D02*
D03*
X644000Y180500D02*
D03*
X661500Y189026D02*
D03*
X644000Y193500D02*
D03*
X661500Y209500D02*
D03*
X698709Y173000D02*
D03*
X691000Y156921D02*
D03*
X680000Y172921D02*
D03*
X659500Y195000D02*
D03*
X701500Y193000D02*
D03*
X717406Y205921D02*
D03*
X533500Y209500D02*
D03*
X568905Y212421D02*
D03*
X569906Y197921D02*
D03*
X567500Y181500D02*
D03*
X529500Y209000D02*
D03*
X516000Y180500D02*
D03*
X533500Y189026D02*
D03*
X516000Y193500D02*
D03*
X570709Y173000D02*
D03*
X563000Y156921D02*
D03*
X552000Y172921D02*
D03*
X531500Y195000D02*
D03*
X573500Y193000D02*
D03*
X589405Y205921D02*
D03*
X820000Y162000D02*
D03*
X791000Y164500D02*
D03*
X791500Y350000D02*
D03*
X820500Y347500D02*
D03*
X718000Y287000D02*
D03*
M02*
