M48
;Layer_Color=9474304
;FILE_FORMAT=2:5
INCH,LZ
;TYPE=PLATED
T1F00S00C0.01400
T2F00S00C0.02559
T3F00S00C0.03543
T4F00S00C0.07087
T5F00S00C0.07087
T6F00S00C0.11024
;TYPE=NON_PLATED
T7F00S00C0.07087
T8F00S00C0.11811
T9F00S00C0.11811
T10F00S00C0.20000
%
T01
X0791Y01645
X082Y0162
X0698709Y0173
X06955Y01815
X07015Y0193
X0697905Y0197921
X0696906Y0212421
X0717406Y0205921
X06615Y02095
X06575Y0209
X06595Y0195
X06615Y0189026
X0644Y01935
Y01805
X068Y0172921
X0691Y0156921
X0712Y0287
X0718
X0589405Y0205921
X0568905Y0212421
X0569906Y0197921
X05735Y0193
X05675Y01815
X0570709Y0173
X0552Y0172921
X0563Y0156921
X05335Y0189026
X05315Y0195
X05295Y0209
X05335Y02095
X0516Y01935
Y01805
X04395Y01815
X0442709Y0173
X0424Y0172921
X0435Y0156921
X04455Y0193
X0441905Y0197921
X0440906Y0212421
X0461406Y0205921
X04055Y02095
X04015Y0209
X04035Y0195
X04055Y0189026
X0388Y01935
Y01805
X0333405Y0205921
X0312906Y0212421
X0313906Y0197921
X0317Y0193
X0314709Y0173
X03115Y01815
X0296Y0172921
X0307Y0156921
X02775Y0189026
X02755Y0195
X02735Y0209
X02775Y02095
X026Y01935
Y01805
X0272094Y0362579
X0271094Y0377079
X02675Y0382
X02735Y03935
X0270291Y0402
X0289Y0402079
X0278Y0418079
X03075Y0385974
X03095Y038
X03115Y0366
X03075Y03655
X0251594Y0369079
X0325Y03815
Y03945
X04015Y03935
X0398291Y0402
X0417Y0402079
X0406Y0418079
X0395Y0382
X0399095Y0377079
X0400095Y0362579
X0379594Y0369079
X04355Y03655
X04395Y0366
X04375Y038
X04355Y0385974
X0453Y03815
Y03945
X05295Y03935
X0526291Y0402
X0545Y0402079
X0534Y0418079
X0524Y0382
X0527095Y0377079
X0528094Y0362579
X0507594Y0369079
X05635Y03655
X05675Y0366
X05655Y038
X05635Y0385974
X0581Y03815
Y03945
X06575Y03935
X0654291Y0402
X0673Y0402079
X0662Y0418079
X06515Y0382
X0655094Y0377079
X0656095Y0362579
X0635595Y0369079
X06915Y03655
X06955Y0366
X06935Y038
X06915Y0385974
X0709Y03815
Y03945
X07915Y035
X08205Y03475
T02
X025878Y0276579
Y02815
Y0286421
Y0291342
T03
X0732Y0282
Y0292
T04
X0767Y0241339
Y0263779
Y0286221
Y0308661
T05
X0267291Y0132937
Y0155378
X0395291
Y0132937
X0523291
Y0155378
X0651291
Y0132937
X0445709Y0419622
Y0442063
X0317709
Y0419622
X0573709
Y0442063
X0701709
Y0419622
T06
X0838315Y013663
X0858
Y0176
X0838315
Y021537
X0858
Y025474
X0838315
X0838815Y032113
X08585
Y03605
X0838815
Y039987
X08585
Y043924
X0838815
T07
X0280992Y0122031
X0408992
X0536992
X0664992
X0304008Y0452969
X0432008
X0560008
X0688008
T08
X0761724Y0252559
Y0297441
T09
X0893433Y0114071
Y0277299
X0893933Y0298571
Y0461799
T10
X0335Y0135
X07675
X0255Y044
X07675Y045
M30
