G04 Layer_Physical_Order=3*
G04 Layer_Color=128*
%FSLAX25Y25*%
%MOIN*%
G70*
G01*
G75*
%ADD22C,0.01000*%
%ADD33C,0.04000*%
%ADD34C,0.06756*%
%ADD35C,0.07543*%
%ADD38C,0.06800*%
%ADD39C,0.17779*%
G04:AMPARAMS|DCode=40|XSize=88mil|YSize=88mil|CornerRadius=0mil|HoleSize=0mil|Usage=FLASHONLY|Rotation=0.000|XOffset=0mil|YOffset=0mil|HoleType=Round|Shape=Relief|Width=10mil|Gap=10mil|Entries=4|*
%AMTHD40*
7,0,0,0.08800,0.06800,0.01000,45*
%
%ADD40THD40*%
%ADD41C,0.11874*%
D22*
X437500Y210000D02*
Y407500D01*
Y210000D02*
X500000D01*
X437500Y407500D02*
Y412500D01*
D33*
X100000Y100000D02*
X500000D01*
Y412500D01*
X100000D02*
X500000D01*
X100000Y100000D02*
Y412500D01*
D34*
X249272Y317500D02*
D03*
X259272D02*
D03*
X269272D02*
D03*
X249272Y397500D02*
D03*
X259272D02*
D03*
X269272D02*
D03*
X249272Y237500D02*
D03*
X259272D02*
D03*
X269272D02*
D03*
X269272Y157500D02*
D03*
X259272D02*
D03*
X249272D02*
D03*
X327500Y142500D02*
D03*
Y132500D02*
D03*
Y122500D02*
D03*
Y202500D02*
D03*
Y212500D02*
D03*
Y222500D02*
D03*
Y282500D02*
D03*
Y292500D02*
D03*
Y302500D02*
D03*
Y362500D02*
D03*
Y372500D02*
D03*
Y382500D02*
D03*
D35*
X147500Y130000D02*
D03*
Y120158D02*
D03*
Y210000D02*
D03*
Y200157D02*
D03*
Y290000D02*
D03*
Y280157D02*
D03*
Y370000D02*
D03*
Y360157D02*
D03*
X310000Y222500D02*
D03*
Y212500D02*
D03*
Y202500D02*
D03*
Y122500D02*
D03*
Y132500D02*
D03*
Y142500D02*
D03*
Y382500D02*
D03*
Y372500D02*
D03*
Y362500D02*
D03*
Y302500D02*
D03*
Y292500D02*
D03*
Y282500D02*
D03*
X490000Y217500D02*
D03*
Y237500D02*
D03*
Y247500D02*
D03*
Y257500D02*
D03*
Y267500D02*
D03*
Y277500D02*
D03*
Y287500D02*
D03*
Y297500D02*
D03*
Y227500D02*
D03*
X492500Y170000D02*
D03*
Y160000D02*
D03*
Y150000D02*
D03*
Y140000D02*
D03*
Y130000D02*
D03*
X442500Y405000D02*
D03*
X432500D02*
D03*
D38*
X200335Y354921D02*
D03*
X350000Y112500D02*
D03*
X259272Y220000D02*
D03*
X262835Y367421D02*
D03*
X230335Y379921D02*
D03*
X259606D02*
D03*
X270335Y356693D02*
D03*
X262579Y287421D02*
D03*
X207579Y304921D02*
D03*
X230079Y299921D02*
D03*
X259350D02*
D03*
X230000Y220000D02*
D03*
X262500Y207500D02*
D03*
X350000Y142500D02*
D03*
X259272Y140000D02*
D03*
X230000D02*
D03*
X207500Y385000D02*
D03*
X200000Y275000D02*
D03*
Y115000D02*
D03*
X262500Y127500D02*
D03*
X375000Y212500D02*
D03*
X387500Y162500D02*
D03*
Y170000D02*
D03*
Y155000D02*
D03*
Y147500D02*
D03*
Y140000D02*
D03*
Y132500D02*
D03*
X300000Y115000D02*
D03*
X397500Y127500D02*
D03*
X315000Y245000D02*
D03*
X375000Y205000D02*
D03*
X269114Y275886D02*
D03*
X442500Y285000D02*
D03*
X354095Y295905D02*
D03*
X300000Y275000D02*
D03*
X397500Y220000D02*
D03*
X370000Y292500D02*
D03*
Y285000D02*
D03*
X345000Y272500D02*
D03*
X315000Y265000D02*
D03*
X300000Y195000D02*
D03*
X377500Y372500D02*
D03*
Y362500D02*
D03*
X268543Y197500D02*
D03*
X267500Y116043D02*
D03*
X385000Y377500D02*
D03*
X442100Y241600D02*
D03*
X416100Y274900D02*
D03*
X458900Y122500D02*
D03*
X207500Y225000D02*
D03*
Y145000D02*
D03*
X200000Y195000D02*
D03*
D39*
X487500Y112500D02*
D03*
Y400000D02*
D03*
X125000Y170000D02*
D03*
Y250000D02*
D03*
Y330000D02*
D03*
D40*
X427500Y227500D02*
D03*
X220256Y152244D02*
D03*
Y232244D02*
D03*
X220000Y312500D02*
D03*
Y392500D02*
D03*
X332756Y180256D02*
D03*
X372500Y187500D02*
D03*
X405000Y397500D02*
D03*
X442500Y390000D02*
D03*
X297244Y224744D02*
D03*
X297500Y145000D02*
D03*
X297244Y304744D02*
D03*
X297500Y385000D02*
D03*
X400256Y309744D02*
D03*
X380000Y340000D02*
D03*
X454244Y292244D02*
D03*
X336244Y335256D02*
D03*
X455800Y243300D02*
D03*
X433200Y283300D02*
D03*
X458700Y137500D02*
D03*
D41*
X127421Y109921D02*
D03*
Y150079D02*
D03*
Y189921D02*
D03*
Y230079D02*
D03*
Y269921D02*
D03*
Y310079D02*
D03*
Y349921D02*
D03*
Y390079D02*
D03*
M02*
