G04 Layer_Color=32896*
%FSLAX23Y23*%
%MOIN*%
G70*
G01*
G75*
%ADD35C,0.006*%
D35*
X3009Y2006D02*
X3014Y2011D01*
X3024D01*
X3029Y2006D01*
Y1986D01*
X3024Y1981D01*
X3014D01*
X3009Y1986D01*
X2999Y2011D02*
Y1986D01*
X2994Y1981D01*
X2984D01*
X2979Y1986D01*
Y2011D01*
X2939D02*
Y1981D01*
X2924D01*
X2919Y1986D01*
Y1991D01*
X2924Y1996D01*
X2939D01*
X2924D01*
X2919Y2001D01*
Y2006D01*
X2924Y2011D01*
X2939D01*
X2904Y1981D02*
X2894D01*
X2889Y1986D01*
Y1996D01*
X2894Y2001D01*
X2904D01*
X2909Y1996D01*
Y1986D01*
X2904Y1981D01*
X2879Y2001D02*
Y1986D01*
X2874Y1981D01*
X2859D01*
Y2001D01*
X2849Y1981D02*
X2839D01*
X2844D01*
Y2011D01*
X2849D01*
X2804D02*
Y1981D01*
X2819D01*
X2824Y1986D01*
Y1996D01*
X2819Y2001D01*
X2804D01*
X2779Y1981D02*
X2789D01*
X2794Y1986D01*
Y1996D01*
X2789Y2001D01*
X2779D01*
X2774Y1996D01*
Y1991D01*
X2794D01*
X2764Y2001D02*
Y1981D01*
Y1991D01*
X2759Y1996D01*
X2754Y2001D01*
X2749D01*
X2704Y1981D02*
Y2011D01*
X2689D01*
X2684Y2006D01*
Y1996D01*
X2689Y1991D01*
X2704D01*
X2694D02*
X2684Y1981D01*
X2669D02*
X2659D01*
X2654Y1986D01*
Y1996D01*
X2659Y2001D01*
X2669D01*
X2674Y1996D01*
Y1986D01*
X2669Y1981D01*
X2644Y2011D02*
Y1981D01*
X2629D01*
X2624Y1986D01*
Y1991D01*
Y1996D01*
X2629Y2001D01*
X2644D01*
X2609Y1981D02*
X2599D01*
X2594Y1986D01*
Y1996D01*
X2599Y2001D01*
X2609D01*
X2614Y1996D01*
Y1986D01*
X2609Y1981D01*
X2564Y2006D02*
X2569Y2011D01*
X2579D01*
X2584Y2006D01*
Y2001D01*
X2579Y1996D01*
X2569D01*
X2564Y1991D01*
Y1986D01*
X2569Y1981D01*
X2579D01*
X2584Y1986D01*
X2554Y2001D02*
Y1986D01*
X2549Y1981D01*
X2534D01*
Y2001D01*
X2524Y2011D02*
Y1981D01*
X2509D01*
X2504Y1986D01*
Y1991D01*
Y1996D01*
X2509Y2001D01*
X2524D01*
X3029Y1931D02*
Y1961D01*
X3014D01*
X3009Y1956D01*
Y1946D01*
X3014Y1941D01*
X3029D01*
X2999Y1931D02*
Y1951D01*
X2984D01*
X2979Y1946D01*
Y1931D01*
X2954D02*
X2964D01*
X2969Y1936D01*
Y1946D01*
X2964Y1951D01*
X2954D01*
X2949Y1946D01*
Y1941D01*
X2969D01*
X2939Y1951D02*
Y1936D01*
X2934Y1931D01*
X2919D01*
Y1951D01*
X2909Y1931D02*
Y1951D01*
X2904D01*
X2899Y1946D01*
Y1931D01*
Y1946D01*
X2894Y1951D01*
X2889Y1946D01*
Y1931D01*
X2874Y1951D02*
X2864D01*
X2859Y1946D01*
Y1931D01*
X2874D01*
X2879Y1936D01*
X2874Y1941D01*
X2859D01*
X2844Y1956D02*
Y1951D01*
X2849D01*
X2839D01*
X2844D01*
Y1936D01*
X2839Y1931D01*
X2824D02*
X2814D01*
X2819D01*
Y1951D01*
X2824D01*
X2779D02*
X2794D01*
X2799Y1946D01*
Y1936D01*
X2794Y1931D01*
X2779D01*
X2769D02*
X2754D01*
X2749Y1936D01*
X2754Y1941D01*
X2764D01*
X2769Y1946D01*
X2764Y1951D01*
X2749D01*
X2709Y1961D02*
Y1931D01*
X2694D01*
X2689Y1936D01*
Y1941D01*
X2694Y1946D01*
X2709D01*
X2694D01*
X2689Y1951D01*
Y1956D01*
X2694Y1961D01*
X2709D01*
X2674Y1931D02*
X2664D01*
X2659Y1936D01*
Y1946D01*
X2664Y1951D01*
X2674D01*
X2679Y1946D01*
Y1936D01*
X2674Y1931D01*
X2644Y1951D02*
X2634D01*
X2629Y1946D01*
Y1931D01*
X2644D01*
X2649Y1936D01*
X2644Y1941D01*
X2629D01*
X2619Y1951D02*
Y1931D01*
Y1941D01*
X2614Y1946D01*
X2609Y1951D01*
X2604D01*
X2569Y1961D02*
Y1931D01*
X2584D01*
X2589Y1936D01*
Y1946D01*
X2584Y1951D01*
X2569D01*
X2529Y1931D02*
Y1961D01*
X2514D01*
X2509Y1956D01*
Y1946D01*
X2514Y1941D01*
X2529D01*
X2519D02*
X2509Y1931D01*
X2484D02*
X2494D01*
X2499Y1936D01*
Y1946D01*
X2494Y1951D01*
X2484D01*
X2479Y1946D01*
Y1941D01*
X2499D01*
X2469Y1951D02*
X2459Y1931D01*
X2449Y1951D01*
X2389Y1931D02*
X2409D01*
X2389Y1951D01*
Y1956D01*
X2394Y1961D01*
X2404D01*
X2409Y1956D01*
M02*
