G04 Layer_Color=8388736*
%FSLAX25Y25*%
%MOIN*%
G70*
G01*
G75*
%ADD76R,0.04343X0.03556*%
%ADD77R,0.02165X0.05905*%
%ADD78R,0.03950X0.04737*%
%ADD79R,0.07375X0.07316*%
%ADD80R,0.05131X0.11036*%
%ADD81R,0.07493X0.05131*%
%ADD82R,0.03556X0.04343*%
%ADD83R,0.05131X0.07493*%
%ADD84R,0.07493X0.04934*%
%ADD85R,0.07316X0.07375*%
%ADD86R,0.11036X0.13398*%
%ADD87R,0.13398X0.11036*%
%ADD88R,0.15367X0.21272*%
%ADD89R,0.17139X0.10052*%
%ADD90O,0.07520X0.02205*%
%ADD91R,0.28753X0.22847*%
%ADD92R,0.08477X0.04934*%
%ADD93R,0.22847X0.28753*%
%ADD94R,0.04934X0.08477*%
%ADD95R,0.10052X0.18320*%
%ADD96O,0.15800X0.02800*%
%ADD97R,0.15800X0.02800*%
%ADD98R,0.05603X0.04383*%
%ADD99R,0.07433X0.01933*%
%ADD100O,0.07433X0.01933*%
%ADD101R,0.03819X0.01457*%
%ADD102R,0.01457X0.03819*%
%ADD103R,0.21666X0.21666*%
%ADD104R,0.07887X0.08280*%
%ADD105R,0.06706X0.08280*%
%ADD106C,0.20800*%
%ADD107C,0.06706*%
%ADD108R,0.06706X0.06706*%
%ADD109C,0.06800*%
%ADD110R,0.06800X0.06800*%
%ADD111R,0.06800X0.06800*%
%ADD112C,0.09300*%
%ADD113C,0.07918*%
%ADD114C,0.07131*%
%ADD115C,0.04343*%
%ADD116R,0.04343X0.04343*%
%ADD117C,0.12611*%
%ADD118C,0.09461*%
%ADD119C,0.16548*%
%ADD120C,0.07493*%
%ADD121C,0.06509*%
%ADD122C,0.00800*%
%ADD123C,0.04300*%
%ADD124C,0.05800*%
%ADD125C,0.08300*%
D76*
X681000Y236500D02*
D03*
X687000D02*
D03*
X587500Y307095D02*
D03*
Y313000D02*
D03*
X581000Y307594D02*
D03*
Y313500D02*
D03*
X587500Y328953D02*
D03*
Y323047D02*
D03*
X581000Y329906D02*
D03*
Y324000D02*
D03*
X666000Y251047D02*
D03*
Y256953D02*
D03*
X679000Y299905D02*
D03*
Y294000D02*
D03*
X673500Y299905D02*
D03*
Y294000D02*
D03*
X664000Y379047D02*
D03*
Y384953D02*
D03*
X650106Y323953D02*
D03*
Y318047D02*
D03*
X649500Y230047D02*
D03*
Y235953D02*
D03*
X644500Y323953D02*
D03*
Y318047D02*
D03*
X379000Y411917D02*
D03*
Y406012D02*
D03*
Y393417D02*
D03*
Y387512D02*
D03*
X400500Y397512D02*
D03*
Y403417D02*
D03*
X226953Y359095D02*
D03*
Y365000D02*
D03*
X436500Y371917D02*
D03*
Y366012D02*
D03*
X687000Y230594D02*
D03*
X681000D02*
D03*
D77*
X683004Y178130D02*
D03*
X685563D02*
D03*
X680445D02*
D03*
X688122D02*
D03*
X690681D02*
D03*
D78*
X451740Y209949D02*
D03*
X444260D02*
D03*
X448000Y200500D02*
D03*
X437740Y209949D02*
D03*
X430260D02*
D03*
X434000Y200500D02*
D03*
X680000Y405500D02*
D03*
X687480D02*
D03*
X683740Y414949D02*
D03*
X666500Y405500D02*
D03*
X673980D02*
D03*
X670240Y414949D02*
D03*
X653020Y405500D02*
D03*
X660500D02*
D03*
X656760Y414949D02*
D03*
X465240Y209949D02*
D03*
X457760D02*
D03*
X461500Y200500D02*
D03*
D79*
X430000Y182000D02*
D03*
Y166921D02*
D03*
X444000Y182079D02*
D03*
Y167000D02*
D03*
X500000Y378386D02*
D03*
Y393465D02*
D03*
X457500Y166921D02*
D03*
Y182000D02*
D03*
D80*
X322315Y216000D02*
D03*
X311685D02*
D03*
D81*
X636500Y400685D02*
D03*
Y411315D02*
D03*
X646000D02*
D03*
Y400685D02*
D03*
X669500Y362370D02*
D03*
Y373000D02*
D03*
X654500Y261315D02*
D03*
Y250685D02*
D03*
X499500Y310650D02*
D03*
Y321280D02*
D03*
X390500Y396280D02*
D03*
Y385650D02*
D03*
X410500Y420280D02*
D03*
Y409650D02*
D03*
X469500Y378650D02*
D03*
Y389280D02*
D03*
X487000Y404280D02*
D03*
Y393650D02*
D03*
X226815Y427500D02*
D03*
Y416870D02*
D03*
X477000Y411650D02*
D03*
Y422280D02*
D03*
X410000Y392650D02*
D03*
Y403279D02*
D03*
X671000Y238000D02*
D03*
Y227370D02*
D03*
X697500Y238500D02*
D03*
Y227870D02*
D03*
X711500Y237185D02*
D03*
Y247815D02*
D03*
X631000Y321185D02*
D03*
Y331815D02*
D03*
D82*
X654953Y240500D02*
D03*
X649047D02*
D03*
X591094Y352000D02*
D03*
X597000D02*
D03*
X611547Y337500D02*
D03*
X617453D02*
D03*
X591094Y358000D02*
D03*
X597000D02*
D03*
X402953Y420465D02*
D03*
X397047D02*
D03*
X402953Y409465D02*
D03*
X397047D02*
D03*
X433453Y436465D02*
D03*
X427547D02*
D03*
X663406Y374500D02*
D03*
X657500D02*
D03*
D83*
X619000Y345000D02*
D03*
X608370D02*
D03*
X647870Y383000D02*
D03*
X658500D02*
D03*
X647685Y391500D02*
D03*
X658315D02*
D03*
X597685Y257000D02*
D03*
X608315D02*
D03*
X597185Y238500D02*
D03*
X607815D02*
D03*
X353370Y289965D02*
D03*
X364000D02*
D03*
X419315Y434965D02*
D03*
X408685D02*
D03*
X452315Y428965D02*
D03*
X441685D02*
D03*
X265815Y219000D02*
D03*
X255185D02*
D03*
X436315Y378965D02*
D03*
X425685D02*
D03*
D84*
X402000Y351354D02*
D03*
Y362575D02*
D03*
X412500Y351354D02*
D03*
Y362575D02*
D03*
D85*
X488421Y422465D02*
D03*
X503500D02*
D03*
D86*
X387846Y232965D02*
D03*
X359500D02*
D03*
D87*
X477500Y345965D02*
D03*
Y317618D02*
D03*
D88*
X455382Y261465D02*
D03*
X415618D02*
D03*
D89*
X294839Y254500D02*
D03*
X262161D02*
D03*
D90*
X454386Y388890D02*
D03*
Y391449D02*
D03*
Y394008D02*
D03*
Y396567D02*
D03*
Y399126D02*
D03*
Y401685D02*
D03*
Y404244D02*
D03*
Y406803D02*
D03*
Y409362D02*
D03*
Y411921D02*
D03*
Y414480D02*
D03*
Y417039D02*
D03*
X427614Y388890D02*
D03*
Y391449D02*
D03*
Y394008D02*
D03*
Y396567D02*
D03*
Y399126D02*
D03*
Y401685D02*
D03*
Y404244D02*
D03*
Y406803D02*
D03*
Y409362D02*
D03*
Y411921D02*
D03*
Y414480D02*
D03*
Y417039D02*
D03*
D91*
X359945Y267965D02*
D03*
D92*
X387898Y276980D02*
D03*
Y258949D02*
D03*
D93*
X410984Y313012D02*
D03*
X447016D02*
D03*
X489000Y253465D02*
D03*
D94*
X401968Y340965D02*
D03*
X420000D02*
D03*
X438000D02*
D03*
X456032D02*
D03*
X479984Y281417D02*
D03*
X498016D02*
D03*
D95*
X368000Y308142D02*
D03*
Y342787D02*
D03*
D96*
X610000Y369500D02*
D03*
Y374500D02*
D03*
Y379500D02*
D03*
Y384500D02*
D03*
Y389500D02*
D03*
X590000Y369500D02*
D03*
Y374500D02*
D03*
Y379500D02*
D03*
Y384500D02*
D03*
D97*
Y389500D02*
D03*
D98*
X450500Y378902D02*
D03*
Y366028D02*
D03*
D99*
X695500Y248000D02*
D03*
D100*
Y250500D02*
D03*
Y253000D02*
D03*
Y255500D02*
D03*
Y258000D02*
D03*
Y260500D02*
D03*
Y263000D02*
D03*
Y265500D02*
D03*
X675000Y248000D02*
D03*
Y250500D02*
D03*
Y253000D02*
D03*
Y255500D02*
D03*
Y258000D02*
D03*
Y260500D02*
D03*
Y263000D02*
D03*
Y265500D02*
D03*
D101*
X629929Y364303D02*
D03*
Y362335D02*
D03*
Y360366D02*
D03*
Y358398D02*
D03*
Y356429D02*
D03*
Y354461D02*
D03*
Y352492D02*
D03*
Y350524D02*
D03*
Y348555D02*
D03*
Y346587D02*
D03*
Y344618D02*
D03*
Y342650D02*
D03*
X656976D02*
D03*
Y344618D02*
D03*
Y346587D02*
D03*
Y348555D02*
D03*
Y350524D02*
D03*
Y352492D02*
D03*
Y354461D02*
D03*
Y356429D02*
D03*
Y358398D02*
D03*
Y360366D02*
D03*
Y362335D02*
D03*
Y364303D02*
D03*
D102*
X632626Y339953D02*
D03*
X634594D02*
D03*
X636563D02*
D03*
X638531D02*
D03*
X640500D02*
D03*
X642469D02*
D03*
X644437D02*
D03*
X646406D02*
D03*
X648374D02*
D03*
X650343D02*
D03*
X652311D02*
D03*
X654280D02*
D03*
Y367000D02*
D03*
X652311D02*
D03*
X650343D02*
D03*
X648374D02*
D03*
X646406D02*
D03*
X644437D02*
D03*
X642469D02*
D03*
X640500D02*
D03*
X638531D02*
D03*
X636563D02*
D03*
X634594D02*
D03*
X632626D02*
D03*
D103*
X643453Y353476D02*
D03*
D104*
X698161Y167500D02*
D03*
X672965D02*
D03*
D105*
X681626D02*
D03*
X689500D02*
D03*
D106*
X353500Y430000D02*
D03*
X635500Y185000D02*
D03*
X393500D02*
D03*
D107*
X458000Y192500D02*
D03*
X448000D02*
D03*
X438000D02*
D03*
D108*
X428000D02*
D03*
D109*
X686500Y428000D02*
D03*
X676500D02*
D03*
X666500D02*
D03*
X571000Y324500D02*
D03*
Y334500D02*
D03*
Y344500D02*
D03*
X632500Y306500D02*
D03*
X642500D02*
D03*
X652500D02*
D03*
X547000Y425000D02*
D03*
Y415000D02*
D03*
Y405000D02*
D03*
X557000D02*
D03*
Y415000D02*
D03*
Y425000D02*
D03*
X567000Y405000D02*
D03*
Y415000D02*
D03*
Y425000D02*
D03*
X577000Y405000D02*
D03*
Y415000D02*
D03*
Y425000D02*
D03*
X587000Y405000D02*
D03*
Y415000D02*
D03*
Y425000D02*
D03*
X597000Y405000D02*
D03*
Y415000D02*
D03*
Y425000D02*
D03*
X607000Y405000D02*
D03*
Y415000D02*
D03*
Y425000D02*
D03*
X617000Y405000D02*
D03*
Y415000D02*
D03*
Y425000D02*
D03*
X701500Y379500D02*
D03*
X691500D02*
D03*
X681500D02*
D03*
Y369500D02*
D03*
X691500D02*
D03*
X701500D02*
D03*
X681500Y359500D02*
D03*
X691500D02*
D03*
X701500D02*
D03*
X681500Y349500D02*
D03*
X691500D02*
D03*
X701500D02*
D03*
X681500Y339500D02*
D03*
X691500D02*
D03*
X701500D02*
D03*
X681500Y329500D02*
D03*
X691500D02*
D03*
X701500D02*
D03*
X681500Y319500D02*
D03*
X691500D02*
D03*
X701500D02*
D03*
X681500Y309500D02*
D03*
X691500D02*
D03*
X701500D02*
D03*
D110*
X656500Y428000D02*
D03*
X662500Y306500D02*
D03*
D111*
X571000Y354500D02*
D03*
D112*
X320000Y290000D02*
D03*
X245000D02*
D03*
Y352500D02*
D03*
Y365000D02*
D03*
Y377500D02*
D03*
Y427500D02*
D03*
X320000D02*
D03*
X319750Y254250D02*
D03*
D113*
X554287Y185815D02*
D03*
X603500D02*
D03*
X554287Y205500D02*
D03*
X603500D02*
D03*
D114*
X582500Y258000D02*
D03*
Y248000D02*
D03*
Y238000D02*
D03*
D115*
X642500Y245921D02*
D03*
Y241000D02*
D03*
Y236079D02*
D03*
X630500Y245500D02*
D03*
Y240579D02*
D03*
Y235658D02*
D03*
D116*
X642500Y231157D02*
D03*
X630500Y230736D02*
D03*
D117*
X522724Y359221D02*
D03*
Y314339D02*
D03*
D118*
X528000Y348000D02*
D03*
Y370441D02*
D03*
Y303118D02*
D03*
Y325559D02*
D03*
D119*
X261595Y172492D02*
D03*
X347500Y172500D02*
D03*
X305000D02*
D03*
D120*
X255689Y201311D02*
D03*
X267500D02*
D03*
Y189500D02*
D03*
X255689D02*
D03*
X341595Y201319D02*
D03*
X353405D02*
D03*
Y189508D02*
D03*
X341595D02*
D03*
X299095Y201319D02*
D03*
X310906D02*
D03*
Y189508D02*
D03*
X299095D02*
D03*
D121*
X695405Y178130D02*
D03*
X675721D02*
D03*
D122*
X699342Y167500D02*
D03*
X671783D02*
D03*
D123*
X691000Y184500D02*
D03*
X673500Y288500D02*
D03*
X636500Y277000D02*
D03*
X452000Y215500D02*
D03*
X438000Y216000D02*
D03*
X584000Y303000D02*
D03*
X581000Y318500D02*
D03*
X587500Y318000D02*
D03*
X607000Y363500D02*
D03*
X593725Y332500D02*
D03*
X603500Y345000D02*
D03*
X651500Y245500D02*
D03*
X653000Y375000D02*
D03*
X648000Y376500D02*
D03*
X664000Y389500D02*
D03*
X624500Y345500D02*
D03*
X624000Y321000D02*
D03*
X642500Y259500D02*
D03*
X702500Y262500D02*
D03*
X659500Y244500D02*
D03*
X704500Y237500D02*
D03*
Y248000D02*
D03*
X646000Y422000D02*
D03*
X669500Y378500D02*
D03*
X674000Y400500D02*
D03*
X663500Y415500D02*
D03*
X628500Y382500D02*
D03*
X621000D02*
D03*
X578500Y369500D02*
D03*
X577000Y383000D02*
D03*
X579500Y390500D02*
D03*
X462500Y390965D02*
D03*
X463000Y399134D02*
D03*
X468000Y395965D02*
D03*
X459000Y363965D02*
D03*
X469500Y372965D02*
D03*
X462984Y368980D02*
D03*
X458000Y382465D02*
D03*
X418500Y403465D02*
D03*
X468000Y400965D02*
D03*
X469500Y406965D02*
D03*
X464500Y409465D02*
D03*
Y415965D02*
D03*
X678500Y244000D02*
D03*
X637000Y394500D02*
D03*
X687500Y400500D02*
D03*
X643000Y332000D02*
D03*
X638000Y331500D02*
D03*
X589500Y394000D02*
D03*
X663000Y361500D02*
D03*
D124*
X455000Y202500D02*
D03*
X441500Y203000D02*
D03*
X428000D02*
D03*
X274000Y219000D02*
D03*
X226953Y353453D02*
D03*
X227000Y409500D02*
D03*
X398000Y258965D02*
D03*
X422500Y351465D02*
D03*
X456000Y350465D02*
D03*
X486500Y411465D02*
D03*
X435500Y291965D02*
D03*
X422000D02*
D03*
X354000Y362965D02*
D03*
X379000Y381465D02*
D03*
X371685Y289965D02*
D03*
X499500Y329465D02*
D03*
Y302965D02*
D03*
X443000Y371965D02*
D03*
Y378965D02*
D03*
X379000Y399965D02*
D03*
X388500Y409465D02*
D03*
X399500Y386650D02*
D03*
X419000Y393965D02*
D03*
X400000Y434965D02*
D03*
X487000Y385965D02*
D03*
X434500Y428965D02*
D03*
X459500D02*
D03*
D125*
X498000Y234000D02*
D03*
X480000Y234500D02*
D03*
X489000Y234000D02*
D03*
X368000Y359465D02*
D03*
X412500Y371465D02*
D03*
X402000D02*
D03*
M02*
