G04*
G04 #@! TF.GenerationSoftware,Altium Limited,Altium Designer,18.0.11 (651)*
G04*
G04 Layer_Color=65535*
%FSLAX25Y25*%
%MOIN*%
G70*
G01*
G75*
%ADD10C,0.00984*%
%ADD11C,0.02362*%
%ADD12C,0.00787*%
%ADD13C,0.01000*%
%ADD14C,0.00500*%
D10*
X488256Y344000D02*
G03*
X488256Y344000I-492J0D01*
G01*
X415890Y257752D02*
G03*
X415890Y257752I-492J0D01*
G01*
X455606Y423126D02*
G03*
X455606Y423126I-492J0D01*
G01*
X530240Y284453D02*
G03*
X530240Y284453I-492J0D01*
G01*
X452224Y344000D02*
G03*
X452224Y344000I-492J0D01*
G01*
X473925Y369063D02*
G03*
X473925Y369063I-492J0D01*
G01*
D11*
X465350Y418795D02*
G03*
X465350Y418795I-1181J0D01*
G01*
D12*
X352994Y246543D02*
G03*
X351715Y246543I-640J0D01*
G01*
X267624Y234224D02*
X297201D01*
Y248693D01*
Y260307D02*
Y274776D01*
X267624D02*
X297201D01*
X259799Y242049D02*
Y248693D01*
Y242049D02*
X267624Y234224D01*
X259799Y266951D02*
X267624Y274776D01*
X259799Y260307D02*
Y266951D01*
X350925Y231276D02*
X354075D01*
X350925Y240724D02*
X354075D01*
X487705Y331598D02*
Y332189D01*
X461327D02*
X487705D01*
X461327Y331598D02*
Y332189D01*
X402996Y257811D02*
X403587D01*
Y284189D01*
X402996D02*
X403587D01*
X384610Y295953D02*
X387760D01*
X384610Y290047D02*
X387760D01*
X416169Y315852D02*
Y349169D01*
X401307D02*
X416169D01*
X374831D02*
X389693D01*
X374831Y315852D02*
Y349169D01*
X401307Y307831D02*
X408148D01*
X416169Y315852D01*
X374831D02*
X382852Y307831D01*
X389693D01*
X442953Y358032D02*
Y361968D01*
X437047Y358032D02*
Y361968D01*
X432453Y358032D02*
Y361968D01*
X426547Y358032D02*
Y361968D01*
X524047Y317425D02*
Y320575D01*
X529953Y317425D02*
Y320575D01*
X407878Y411213D02*
Y412787D01*
X405122Y411213D02*
Y412787D01*
X407878Y392713D02*
Y394287D01*
X405122Y392713D02*
Y394287D01*
X420953Y392425D02*
Y395575D01*
X415047Y392425D02*
Y395575D01*
X426622Y402713D02*
Y404287D01*
X429378Y402713D02*
Y404287D01*
X426713Y422122D02*
X428287D01*
X426713Y424878D02*
X428287D01*
X426713Y411122D02*
X428287D01*
X426713Y413878D02*
X428287D01*
X440953Y416425D02*
Y419575D01*
X435047Y416425D02*
Y419575D01*
X439925Y435047D02*
X443075D01*
X439925Y440953D02*
X443075D01*
X494047Y385425D02*
Y388575D01*
X499953Y385425D02*
Y388575D01*
X517453Y400425D02*
Y403575D01*
X511547Y400425D02*
Y403575D01*
X457213Y438122D02*
X458787D01*
X457213Y440878D02*
X458787D01*
X472925Y429047D02*
X476075D01*
X472925Y434953D02*
X476075D01*
X460232Y389268D02*
X476768D01*
X460232Y422732D02*
X476768D01*
Y389268D02*
Y422732D01*
X460232Y389268D02*
Y422732D01*
X258925Y216047D02*
X262075D01*
X258925Y221953D02*
X262075D01*
X437606Y239106D02*
X488394D01*
X437606Y289894D02*
X488394D01*
Y239106D02*
Y252689D01*
X437606Y239106D02*
Y252689D01*
X488394Y276311D02*
Y289894D01*
X437606Y276311D02*
Y289894D01*
X229768Y420610D02*
Y423760D01*
X223862Y420610D02*
Y423760D01*
X355000Y290000D02*
Y430000D01*
X335000Y290000D02*
Y430000D01*
X355000D01*
X335000Y290000D02*
X355000D01*
X300000Y172500D02*
X310000D01*
X300000D02*
Y212500D01*
X310000Y172500D02*
Y212500D01*
X300000D02*
X310000D01*
X225575Y361260D02*
Y362835D01*
X228331Y361260D02*
Y362835D01*
X501547Y418425D02*
Y421575D01*
X507453Y418425D02*
Y421575D01*
X352994Y246543D02*
X355563D01*
X349146D02*
X351715D01*
X349146D02*
Y256780D01*
X355563D01*
Y246543D02*
Y256780D01*
X503311Y272051D02*
Y272642D01*
X529689D01*
Y272051D02*
Y272642D01*
X465378Y371213D02*
Y372787D01*
X462622Y371213D02*
Y372787D01*
X425295Y331598D02*
Y332189D01*
X451673D01*
Y331598D02*
Y332189D01*
X456925Y379047D02*
X460075D01*
X456925Y384953D02*
X460075D01*
X474850Y378571D02*
X481150D01*
Y372429D02*
Y378571D01*
X474850Y372429D02*
Y378571D01*
Y372429D02*
X481150D01*
X434547Y399425D02*
Y402575D01*
X440453Y399425D02*
Y402575D01*
D13*
X387098Y223697D02*
X415248D01*
X387098Y248303D02*
X415248D01*
Y243382D02*
Y248303D01*
Y223697D02*
Y228618D01*
X387098Y243382D02*
Y248303D01*
Y223697D02*
Y228618D01*
X521791Y398016D02*
X523209D01*
X521791Y379906D02*
X523209D01*
X531791D02*
X533209D01*
X531791Y398016D02*
X533209D01*
X521791Y379906D02*
Y398016D01*
X533209Y379906D02*
Y398016D01*
X236000Y436500D02*
X329000D01*
Y281200D02*
Y436500D01*
X236000Y281200D02*
X329000D01*
X236000D02*
Y436500D01*
X512382Y320752D02*
X517303D01*
X492697D02*
X497618D01*
X512382Y348902D02*
X517303D01*
X492697D02*
X497618D01*
X492697Y320752D02*
Y348902D01*
X517303Y320752D02*
Y348902D01*
X514405Y419791D02*
X532516D01*
X514405Y431209D02*
X532516D01*
Y419791D02*
Y421209D01*
X514405Y419791D02*
Y421209D01*
Y429791D02*
Y431209D01*
X532516Y429791D02*
Y431209D01*
X308999Y269498D02*
X307999Y270498D01*
X306000D01*
X305000Y269498D01*
Y265500D01*
X306000Y264500D01*
X307999D01*
X308999Y265500D01*
X310998Y269498D02*
X311998Y270498D01*
X313997D01*
X314997Y269498D01*
Y268499D01*
X313997Y267499D01*
X312997D01*
X313997D01*
X314997Y266499D01*
Y265500D01*
X313997Y264500D01*
X311998D01*
X310998Y265500D01*
D14*
X397630Y235462D02*
Y238461D01*
Y237461D01*
X395631Y235462D01*
X397130Y236961D01*
X395631Y238461D01*
X408653D02*
Y236461D01*
X407654Y235462D01*
X406654Y236461D01*
Y238461D01*
Y236961D01*
X408653D01*
X529219Y387642D02*
X526221D01*
X527220D01*
X529219Y385642D01*
X527720Y387142D01*
X526221Y385642D01*
Y392366D02*
X528220D01*
X529219Y391367D01*
X528220Y390367D01*
X526221D01*
X527720D01*
Y392366D01*
X246099Y447500D02*
X244100D01*
X243100Y446500D01*
X244100Y445501D01*
X246099D01*
Y444501D02*
Y443501D01*
Y444001D01*
X243100D01*
Y444501D01*
Y443501D01*
Y442002D02*
X246099D01*
X243100Y440002D01*
X246099D01*
X271437Y185563D02*
X272437D01*
X271937D01*
Y188562D01*
X271437Y188062D01*
X261625Y185563D02*
X259626D01*
X261625Y187562D01*
Y188062D01*
X261125Y188562D01*
X260126D01*
X259626Y188062D01*
X261125Y197374D02*
Y200373D01*
X259626Y198873D01*
X261625D01*
X271437Y199873D02*
X271937Y200373D01*
X272937D01*
X273436Y199873D01*
Y199373D01*
X272937Y198873D01*
X272437D01*
X272937D01*
X273436Y198374D01*
Y197874D01*
X272937Y197374D01*
X271937D01*
X271437Y197874D01*
X357343Y199881D02*
X357842Y200381D01*
X358842D01*
X359342Y199881D01*
Y199381D01*
X358842Y198881D01*
X358342D01*
X358842D01*
X359342Y198382D01*
Y197882D01*
X358842Y197382D01*
X357842D01*
X357343Y197882D01*
X347031Y197382D02*
Y200381D01*
X345532Y198881D01*
X347531D01*
Y185571D02*
X345532D01*
X347531Y187570D01*
Y188070D01*
X347031Y188570D01*
X346031D01*
X345532Y188070D01*
X357343Y185571D02*
X358342D01*
X357842D01*
Y188570D01*
X357343Y188070D01*
X348000Y285501D02*
Y287500D01*
X349999Y285501D01*
X350499D01*
X350999Y286000D01*
Y287000D01*
X350499Y287500D01*
Y284501D02*
X350999Y284001D01*
Y283001D01*
X350499Y282502D01*
X349999D01*
X349500Y283001D01*
X349000Y282502D01*
X348500D01*
X348000Y283001D01*
Y284001D01*
X348500Y284501D01*
X349000D01*
X349500Y284001D01*
X349999Y284501D01*
X350499D01*
X349500Y284001D02*
Y283001D01*
X338000Y285501D02*
Y287500D01*
X339999Y285501D01*
X340499D01*
X340999Y286000D01*
Y287000D01*
X340499Y287500D01*
X340999Y284501D02*
Y282502D01*
X340499D01*
X338500Y284501D01*
X338000D01*
Y435000D02*
Y434000D01*
Y434500D01*
X340999D01*
X340499Y435000D01*
X348000Y433001D02*
Y435000D01*
X349999Y433001D01*
X350499D01*
X350999Y433500D01*
Y434500D01*
X350499Y435000D01*
X502539Y342307D02*
X504539D01*
X505538Y341307D01*
X504539Y340308D01*
X502539D01*
X504039D01*
Y342307D01*
X505538Y331283D02*
X502539D01*
X503539D01*
X505538Y329284D01*
X504039Y330784D01*
X502539Y329284D01*
X526866Y426780D02*
Y424780D01*
X525867Y423780D01*
X524867Y424780D01*
Y426780D01*
Y425280D01*
X526866D01*
X522142Y423780D02*
Y426780D01*
Y425780D01*
X520142Y423780D01*
X521642Y425280D01*
X520142Y426780D01*
X435300Y296499D02*
Y293500D01*
X437299D01*
X438299D02*
X439299D01*
X438799D01*
Y296499D01*
X438299Y295999D01*
X254999Y212999D02*
X254500Y213499D01*
X253500D01*
X253000Y212999D01*
Y211000D01*
X253500Y210500D01*
X254500D01*
X254999Y211000D01*
X257998Y210500D02*
X255999D01*
X257998Y212499D01*
Y212999D01*
X257499Y213499D01*
X256499D01*
X255999Y212999D01*
X225414Y435284D02*
X224915Y435784D01*
X223915D01*
X223415Y435284D01*
Y433285D01*
X223915Y432785D01*
X224915D01*
X225414Y433285D01*
X226414Y432785D02*
X227414D01*
X226914D01*
Y435784D01*
X226414Y435284D01*
X255500Y443999D02*
Y441500D01*
X256000Y441000D01*
X256999D01*
X257499Y441500D01*
Y443999D01*
X260498Y441000D02*
X258499D01*
X260498Y442999D01*
Y443499D01*
X259998Y443999D01*
X258999D01*
X258499Y443499D01*
X225053Y369447D02*
Y372446D01*
X226552D01*
X227052Y371946D01*
Y370947D01*
X226552Y370447D01*
X225053D01*
X226052D02*
X227052Y369447D01*
X228052D02*
X229051D01*
X228552D01*
Y372446D01*
X228052Y371946D01*
X300100Y215400D02*
Y218399D01*
X301600D01*
X302099Y217899D01*
Y216899D01*
X301600Y216400D01*
X300100D01*
X305098Y215400D02*
X303099D01*
X305098Y217399D01*
Y217899D01*
X304598Y218399D01*
X303599D01*
X303099Y217899D01*
X335100Y438000D02*
Y440999D01*
X336599D01*
X337099Y440499D01*
Y439500D01*
X336599Y439000D01*
X335100D01*
X338099Y438000D02*
X339099D01*
X338599D01*
Y440999D01*
X338099Y440499D01*
X330005Y210607D02*
X329005D01*
X329505D01*
Y208108D01*
X329005Y207608D01*
X328505D01*
X328006Y208108D01*
X333004Y207608D02*
X331005D01*
X333004Y209607D01*
Y210107D01*
X332504Y210607D01*
X331504D01*
X331005Y210107D01*
X275999Y208999D02*
X275000D01*
X275500D01*
Y206500D01*
X275000Y206000D01*
X274500D01*
X274000Y206500D01*
X276999Y206000D02*
X277999D01*
X277499D01*
Y208999D01*
X276999Y208499D01*
X525499Y300999D02*
X525000Y301499D01*
X524000D01*
X523500Y300999D01*
Y299000D01*
X524000Y298500D01*
X525000D01*
X525499Y299000D01*
X526499Y298500D02*
X527499D01*
X526999D01*
Y301499D01*
X526499Y300999D01*
X528998D02*
X529498Y301499D01*
X530498D01*
X530998Y300999D01*
Y300499D01*
X530498Y299999D01*
X529998D01*
X530498D01*
X530998Y299500D01*
Y299000D01*
X530498Y298500D01*
X529498D01*
X528998Y299000D01*
X478499Y439999D02*
X477999Y440499D01*
X477000D01*
X476500Y439999D01*
Y438000D01*
X477000Y437500D01*
X477999D01*
X478499Y438000D01*
X479499Y437500D02*
X480499D01*
X479999D01*
Y440499D01*
X479499Y439999D01*
X483498Y437500D02*
Y440499D01*
X481998Y439000D01*
X483998D01*
X415999Y406499D02*
X415499Y406999D01*
X414500D01*
X414000Y406499D01*
Y404500D01*
X414500Y404000D01*
X415499D01*
X415999Y404500D01*
X416999Y404000D02*
X417999D01*
X417499D01*
Y406999D01*
X416999Y406499D01*
X421498Y406999D02*
X419498D01*
Y405500D01*
X420498Y405999D01*
X420998D01*
X421498Y405500D01*
Y404500D01*
X420998Y404000D01*
X419998D01*
X419498Y404500D01*
X435499Y390999D02*
X435000Y391499D01*
X434000D01*
X433500Y390999D01*
Y389000D01*
X434000Y388500D01*
X435000D01*
X435499Y389000D01*
X436499Y388500D02*
X437499D01*
X436999D01*
Y391499D01*
X436499Y390999D01*
X440998Y391499D02*
X439998Y390999D01*
X438998Y390000D01*
Y389000D01*
X439498Y388500D01*
X440498D01*
X440998Y389000D01*
Y389500D01*
X440498Y390000D01*
X438998D01*
X522499Y408999D02*
X522000Y409499D01*
X521000D01*
X520500Y408999D01*
Y407000D01*
X521000Y406500D01*
X522000D01*
X522499Y407000D01*
X523499Y406500D02*
X524499D01*
X523999D01*
Y409499D01*
X523499Y408999D01*
X525998Y409499D02*
X527998D01*
Y408999D01*
X525998Y407000D01*
Y406500D01*
X439499Y432499D02*
X439000Y432999D01*
X438000D01*
X437500Y432499D01*
Y430500D01*
X438000Y430000D01*
X439000D01*
X439499Y430500D01*
X440499Y430000D02*
X441499D01*
X440999D01*
Y432999D01*
X440499Y432499D01*
X442998D02*
X443498Y432999D01*
X444498D01*
X444998Y432499D01*
Y431999D01*
X444498Y431499D01*
X444998Y431000D01*
Y430500D01*
X444498Y430000D01*
X443498D01*
X442998Y430500D01*
Y431000D01*
X443498Y431499D01*
X442998Y431999D01*
Y432499D01*
X443498Y431499D02*
X444498D01*
X443499Y383999D02*
X443000Y384499D01*
X442000D01*
X441500Y383999D01*
Y382000D01*
X442000Y381500D01*
X443000D01*
X443499Y382000D01*
X444499Y381500D02*
X445499D01*
X444999D01*
Y384499D01*
X444499Y383999D01*
X446998Y382000D02*
X447498Y381500D01*
X448498D01*
X448998Y382000D01*
Y383999D01*
X448498Y384499D01*
X447498D01*
X446998Y383999D01*
Y383499D01*
X447498Y382999D01*
X448998D01*
X503099Y433099D02*
X502599Y433599D01*
X501600D01*
X501100Y433099D01*
Y431100D01*
X501600Y430600D01*
X502599D01*
X503099Y431100D01*
X506098Y430600D02*
X504099D01*
X506098Y432599D01*
Y433099D01*
X505598Y433599D01*
X504599D01*
X504099Y433099D01*
X507098D02*
X507598Y433599D01*
X508598D01*
X509097Y433099D01*
Y431100D01*
X508598Y430600D01*
X507598D01*
X507098Y431100D01*
Y433099D01*
X427999Y419499D02*
X427499Y419999D01*
X426500D01*
X426000Y419499D01*
Y417500D01*
X426500Y417000D01*
X427499D01*
X427999Y417500D01*
X430998Y417000D02*
X428999D01*
X430998Y418999D01*
Y419499D01*
X430499Y419999D01*
X429499D01*
X428999Y419499D01*
X431998Y417000D02*
X432998D01*
X432498D01*
Y419999D01*
X431998Y419499D01*
X485999Y381499D02*
X485499Y381999D01*
X484500D01*
X484000Y381499D01*
Y379500D01*
X484500Y379000D01*
X485499D01*
X485999Y379500D01*
X488998Y379000D02*
X486999D01*
X488998Y380999D01*
Y381499D01*
X488498Y381999D01*
X487499D01*
X486999Y381499D01*
X491997Y379000D02*
X489998D01*
X491997Y380999D01*
Y381499D01*
X491498Y381999D01*
X490498D01*
X489998Y381499D01*
X369999Y295499D02*
X369499Y295999D01*
X368500D01*
X368000Y295499D01*
Y293500D01*
X368500Y293000D01*
X369499D01*
X369999Y293500D01*
X372998Y293000D02*
X370999D01*
X372998Y294999D01*
Y295499D01*
X372498Y295999D01*
X371499D01*
X370999Y295499D01*
X373998D02*
X374498Y295999D01*
X375498D01*
X375997Y295499D01*
Y294999D01*
X375498Y294499D01*
X374998D01*
X375498D01*
X375997Y294000D01*
Y293500D01*
X375498Y293000D01*
X374498D01*
X373998Y293500D01*
X377999Y356499D02*
X377500Y356999D01*
X376500D01*
X376000Y356499D01*
Y354500D01*
X376500Y354000D01*
X377500D01*
X377999Y354500D01*
X380998Y354000D02*
X378999D01*
X380998Y355999D01*
Y356499D01*
X380499Y356999D01*
X379499D01*
X378999Y356499D01*
X383498Y354000D02*
Y356999D01*
X381998Y355500D01*
X383997D01*
X512721Y437199D02*
Y434200D01*
X514221D01*
X514721Y434700D01*
Y436699D01*
X514221Y437199D01*
X512721D01*
X517720D02*
X516720Y436699D01*
X515720Y435700D01*
Y434700D01*
X516220Y434200D01*
X517220D01*
X517720Y434700D01*
Y435200D01*
X517220Y435700D01*
X515720D01*
X515000Y384684D02*
Y381685D01*
X516500D01*
X516999Y382185D01*
Y384184D01*
X516500Y384684D01*
X515000D01*
X517999D02*
X519998D01*
Y384184D01*
X517999Y382185D01*
Y381685D01*
X475500Y364999D02*
Y362000D01*
X477000D01*
X477499Y362500D01*
Y364499D01*
X477000Y364999D01*
X475500D01*
X478499Y364499D02*
X478999Y364999D01*
X479998D01*
X480498Y364499D01*
Y363999D01*
X479998Y363499D01*
X480498Y363000D01*
Y362500D01*
X479998Y362000D01*
X478999D01*
X478499Y362500D01*
Y363000D01*
X478999Y363499D01*
X478499Y363999D01*
Y364499D01*
X478999Y363499D02*
X479998D01*
X492700Y360053D02*
Y357053D01*
X494200D01*
X494699Y357553D01*
Y359553D01*
X494200Y360053D01*
X492700D01*
X495699Y357553D02*
X496199Y357053D01*
X497198D01*
X497698Y357553D01*
Y359553D01*
X497198Y360053D01*
X496199D01*
X495699Y359553D01*
Y359053D01*
X496199Y358553D01*
X497698D01*
X374000Y249499D02*
Y246500D01*
X375500D01*
X375999Y247000D01*
Y248999D01*
X375500Y249499D01*
X374000D01*
X376999Y246500D02*
X377999D01*
X377499D01*
Y249499D01*
X376999Y248999D01*
X379498D02*
X379998Y249499D01*
X380998D01*
X381498Y248999D01*
Y247000D01*
X380998Y246500D01*
X379998D01*
X379498Y247000D01*
Y248999D01*
X503599Y293355D02*
Y295354D01*
X503099Y295854D01*
X502100D01*
X501600Y295354D01*
Y293355D01*
X502100Y292855D01*
X503099D01*
X502600Y293855D02*
X503599Y292855D01*
X503099D02*
X503599Y293355D01*
X506598Y295854D02*
X504599D01*
Y294355D01*
X505599Y294854D01*
X506099D01*
X506598Y294355D01*
Y293355D01*
X506099Y292855D01*
X505099D01*
X504599Y293355D01*
X473499Y352000D02*
Y353999D01*
X472999Y354499D01*
X472000D01*
X471500Y353999D01*
Y352000D01*
X472000Y351500D01*
X472999D01*
X472500Y352500D02*
X473499Y351500D01*
X472999D02*
X473499Y352000D01*
X476498Y354499D02*
X475499Y353999D01*
X474499Y352999D01*
Y352000D01*
X474999Y351500D01*
X475998D01*
X476498Y352000D01*
Y352500D01*
X475998Y352999D01*
X474499D01*
X437999Y341500D02*
Y343499D01*
X437500Y343999D01*
X436500D01*
X436000Y343499D01*
Y341500D01*
X436500Y341000D01*
X437500D01*
X437000Y342000D02*
X437999Y341000D01*
X437500D02*
X437999Y341500D01*
X438999Y343999D02*
X440998D01*
Y343499D01*
X438999Y341500D01*
Y341000D01*
X371999Y289000D02*
Y290999D01*
X371499Y291499D01*
X370500D01*
X370000Y290999D01*
Y289000D01*
X370500Y288500D01*
X371499D01*
X371000Y289500D02*
X371999Y288500D01*
X371499D02*
X371999Y289000D01*
X372999Y290999D02*
X373499Y291499D01*
X374499D01*
X374998Y290999D01*
Y290499D01*
X374499Y290000D01*
X374998Y289500D01*
Y289000D01*
X374499Y288500D01*
X373499D01*
X372999Y289000D01*
Y289500D01*
X373499Y290000D01*
X372999Y290499D01*
Y290999D01*
X373499Y290000D02*
X374499D01*
X424000Y394500D02*
Y397499D01*
X425499D01*
X425999Y396999D01*
Y396000D01*
X425499Y395500D01*
X424000D01*
X425000D02*
X425999Y394500D01*
X426999D02*
X427999D01*
X427499D01*
Y397499D01*
X426999Y396999D01*
X431498Y394500D02*
X429498D01*
X431498Y396499D01*
Y396999D01*
X430998Y397499D01*
X429998D01*
X429498Y396999D01*
X452500Y370500D02*
Y373499D01*
X454000D01*
X454499Y372999D01*
Y372000D01*
X454000Y371500D01*
X452500D01*
X453500D02*
X454499Y370500D01*
X455499D02*
X456499D01*
X455999D01*
Y373499D01*
X455499Y372999D01*
X457998D02*
X458498Y373499D01*
X459498D01*
X459998Y372999D01*
Y372499D01*
X459498Y372000D01*
X458998D01*
X459498D01*
X459998Y371500D01*
Y371000D01*
X459498Y370500D01*
X458498D01*
X457998Y371000D01*
X464500Y438000D02*
Y440999D01*
X466000D01*
X466499Y440499D01*
Y439500D01*
X466000Y439000D01*
X464500D01*
X465500D02*
X466499Y438000D01*
X467499D02*
X468499D01*
X467999D01*
Y440999D01*
X467499Y440499D01*
X471498Y438000D02*
Y440999D01*
X469998Y439500D01*
X471998D01*
X416500Y416000D02*
Y418999D01*
X418000D01*
X418499Y418499D01*
Y417499D01*
X418000Y417000D01*
X416500D01*
X417500D02*
X418499Y416000D01*
X419499D02*
X420499D01*
X419999D01*
Y418999D01*
X419499Y418499D01*
X423998Y418999D02*
X421998D01*
Y417499D01*
X422998Y417999D01*
X423498D01*
X423998Y417499D01*
Y416500D01*
X423498Y416000D01*
X422498D01*
X421998Y416500D01*
X446000Y358000D02*
Y360999D01*
X447500D01*
X447999Y360499D01*
Y359500D01*
X447500Y359000D01*
X446000D01*
X447000D02*
X447999Y358000D01*
X448999D02*
X449999D01*
X449499D01*
Y360999D01*
X448999Y360499D01*
X453498Y360999D02*
X452498Y360499D01*
X451498Y359500D01*
Y358500D01*
X451998Y358000D01*
X452998D01*
X453498Y358500D01*
Y359000D01*
X452998Y359500D01*
X451498D01*
X415500Y363500D02*
Y366499D01*
X416999D01*
X417499Y365999D01*
Y365000D01*
X416999Y364500D01*
X415500D01*
X416500D02*
X417499Y363500D01*
X418499D02*
X419499D01*
X418999D01*
Y366499D01*
X418499Y365999D01*
X420998Y366499D02*
X422998D01*
Y365999D01*
X420998Y364000D01*
Y363500D01*
X413000Y422000D02*
Y424999D01*
X414500D01*
X414999Y424499D01*
Y423499D01*
X414500Y423000D01*
X413000D01*
X414000D02*
X414999Y422000D01*
X415999D02*
X416999D01*
X416499D01*
Y424999D01*
X415999Y424499D01*
X418498D02*
X418998Y424999D01*
X419998D01*
X420498Y424499D01*
Y423999D01*
X419998Y423499D01*
X420498Y423000D01*
Y422500D01*
X419998Y422000D01*
X418998D01*
X418498Y422500D01*
Y423000D01*
X418998Y423499D01*
X418498Y423999D01*
Y424499D01*
X418998Y423499D02*
X419998D01*
X356000Y226000D02*
Y228999D01*
X357500D01*
X357999Y228499D01*
Y227500D01*
X357500Y227000D01*
X356000D01*
X357000D02*
X357999Y226000D01*
X358999D02*
X359999D01*
X359499D01*
Y228999D01*
X358999Y228499D01*
X361498Y226500D02*
X361998Y226000D01*
X362998D01*
X363498Y226500D01*
Y228499D01*
X362998Y228999D01*
X361998D01*
X361498Y228499D01*
Y227999D01*
X361998Y227500D01*
X363498D01*
X394500Y391500D02*
Y394499D01*
X396000D01*
X396499Y393999D01*
Y393000D01*
X396000Y392500D01*
X394500D01*
X395500D02*
X396499Y391500D01*
X399498D02*
X397499D01*
X399498Y393499D01*
Y393999D01*
X398998Y394499D01*
X397999D01*
X397499Y393999D01*
X400498D02*
X400998Y394499D01*
X401998D01*
X402497Y393999D01*
Y392000D01*
X401998Y391500D01*
X400998D01*
X400498Y392000D01*
Y393999D01*
X396000Y410500D02*
Y413499D01*
X397499D01*
X397999Y412999D01*
Y412000D01*
X397499Y411500D01*
X396000D01*
X397000D02*
X397999Y410500D01*
X400998D02*
X398999D01*
X400998Y412499D01*
Y412999D01*
X400498Y413499D01*
X399499D01*
X398999Y412999D01*
X401998Y410500D02*
X402998D01*
X402498D01*
Y413499D01*
X401998Y412999D01*
X467000Y400499D02*
Y398000D01*
X467500Y397500D01*
X468500D01*
X468999Y398000D01*
Y400499D01*
X469999Y399999D02*
X470499Y400499D01*
X471498D01*
X471998Y399999D01*
Y399499D01*
X471498Y399000D01*
X470999D01*
X471498D01*
X471998Y398500D01*
Y398000D01*
X471498Y397500D01*
X470499D01*
X469999Y398000D01*
X339700Y262699D02*
Y260200D01*
X340200Y259700D01*
X341199D01*
X341699Y260200D01*
Y262699D01*
X344198Y259700D02*
Y262699D01*
X342699Y261199D01*
X344698D01*
M02*
