G04*
G04 #@! TF.GenerationSoftware,Altium Limited,Altium Designer,18.0.11 (651)*
G04*
G04 Layer_Physical_Order=3*
G04 Layer_Color=16440176*
%FSLAX25Y25*%
%MOIN*%
G70*
G01*
G75*
%ADD13C,0.01000*%
%ADD72C,0.08500*%
%ADD75C,0.06000*%
%ADD77C,0.03500*%
%ADD78C,0.05000*%
%ADD79C,0.07500*%
G36*
X537500Y226000D02*
X526500Y215000D01*
X473000Y215000D01*
X461000Y203000D01*
Y173000D01*
X450039Y162039D01*
X220000D01*
Y450000D01*
X355000D01*
Y421000D01*
X369500Y406500D01*
X391500Y406500D01*
X406500Y421500D01*
X406500Y450000D01*
X537500D01*
Y226000D01*
D02*
G37*
%LPC*%
G36*
X427500Y441530D02*
X426586Y441410D01*
X425735Y441057D01*
X425004Y440496D01*
X424443Y439765D01*
X424090Y438914D01*
X423970Y438000D01*
X424090Y437086D01*
X424443Y436235D01*
X425004Y435504D01*
X425735Y434943D01*
X426586Y434590D01*
X427500Y434470D01*
X428414Y434590D01*
X429265Y434943D01*
X429996Y435504D01*
X430557Y436235D01*
X430910Y437086D01*
X431030Y438000D01*
X430910Y438914D01*
X430557Y439765D01*
X429996Y440496D01*
X429265Y441057D01*
X428414Y441410D01*
X427500Y441530D01*
D02*
G37*
G36*
X489000Y434877D02*
Y434000D01*
X489877D01*
X489496Y434496D01*
X489000Y434877D01*
D02*
G37*
G36*
X485000D02*
X484504Y434496D01*
X484123Y434000D01*
X485000D01*
Y434877D01*
D02*
G37*
G36*
X247000Y432354D02*
Y429500D01*
X249854D01*
X249586Y430148D01*
X248744Y431244D01*
X247648Y432086D01*
X247000Y432354D01*
D02*
G37*
G36*
X243000D02*
X242352Y432086D01*
X241256Y431244D01*
X240414Y430148D01*
X240146Y429500D01*
X243000D01*
Y432354D01*
D02*
G37*
G36*
X489877Y430000D02*
X489000D01*
Y429123D01*
X489496Y429504D01*
X489877Y430000D01*
D02*
G37*
G36*
X485000D02*
X484123D01*
X484504Y429504D01*
X485000Y429123D01*
Y430000D01*
D02*
G37*
G36*
X462000Y435530D02*
X461086Y435410D01*
X460235Y435057D01*
X459504Y434496D01*
X458943Y433765D01*
X458590Y432914D01*
X458470Y432000D01*
X458590Y431086D01*
X458943Y430235D01*
X459504Y429504D01*
X460235Y428943D01*
X461086Y428590D01*
X462000Y428470D01*
X462914Y428590D01*
X463765Y428943D01*
X464496Y429504D01*
X465057Y430235D01*
X465410Y431086D01*
X465530Y432000D01*
X465410Y432914D01*
X465057Y433765D01*
X464496Y434496D01*
X463765Y435057D01*
X462914Y435410D01*
X462000Y435530D01*
D02*
G37*
G36*
X352000Y428501D02*
Y427000D01*
X353501D01*
X353494Y427017D01*
X352853Y427853D01*
X352017Y428494D01*
X352000Y428501D01*
D02*
G37*
G36*
X348000D02*
X347983Y428494D01*
X347147Y427853D01*
X346506Y427017D01*
X346499Y427000D01*
X348000D01*
Y428501D01*
D02*
G37*
G36*
X249854Y425500D02*
X247000D01*
Y422646D01*
X247648Y422914D01*
X248744Y423756D01*
X249586Y424852D01*
X249854Y425500D01*
D02*
G37*
G36*
X243000D02*
X240146D01*
X240414Y424852D01*
X241256Y423756D01*
X242352Y422914D01*
X243000Y422646D01*
Y425500D01*
D02*
G37*
G36*
X320000Y432795D02*
X318630Y432615D01*
X317352Y432086D01*
X316256Y431244D01*
X315414Y430148D01*
X314885Y428870D01*
X314705Y427500D01*
X314885Y426129D01*
X315414Y424852D01*
X316256Y423756D01*
X317352Y422914D01*
X318630Y422385D01*
X320000Y422205D01*
X321371Y422385D01*
X322648Y422914D01*
X323744Y423756D01*
X324586Y424852D01*
X325115Y426129D01*
X325295Y427500D01*
X325115Y428870D01*
X324586Y430148D01*
X323744Y431244D01*
X322648Y432086D01*
X321371Y432615D01*
X320000Y432795D01*
D02*
G37*
G36*
X353501Y423000D02*
X352000D01*
Y421499D01*
X352017Y421506D01*
X352853Y422147D01*
X353494Y422983D01*
X353501Y423000D01*
D02*
G37*
G36*
X348000D02*
X346499D01*
X346506Y422983D01*
X347147Y422147D01*
X347983Y421506D01*
X348000Y421499D01*
Y423000D01*
D02*
G37*
G36*
X344000Y429000D02*
X336000D01*
Y421000D01*
X344000D01*
Y429000D01*
D02*
G37*
G36*
X352000Y418501D02*
Y417000D01*
X353501D01*
X353494Y417017D01*
X352853Y417853D01*
X352017Y418494D01*
X352000Y418501D01*
D02*
G37*
G36*
X348000D02*
X347983Y418494D01*
X347147Y417853D01*
X346506Y417017D01*
X346499Y417000D01*
X348000D01*
Y418501D01*
D02*
G37*
G36*
X492000Y421774D02*
X491282Y421679D01*
X490613Y421402D01*
X490039Y420961D01*
X489598Y420387D01*
X489321Y419718D01*
X489226Y419000D01*
X489321Y418282D01*
X489598Y417613D01*
X490039Y417039D01*
X490613Y416598D01*
X491282Y416321D01*
X492000Y416226D01*
X492718Y416321D01*
X493387Y416598D01*
X493961Y417039D01*
X494402Y417613D01*
X494679Y418282D01*
X494774Y419000D01*
X494679Y419718D01*
X494402Y420387D01*
X493961Y420961D01*
X493387Y421402D01*
X492718Y421679D01*
X492000Y421774D01*
D02*
G37*
G36*
X353501Y413000D02*
X352000D01*
Y411499D01*
X352017Y411506D01*
X352853Y412147D01*
X353494Y412983D01*
X353501Y413000D01*
D02*
G37*
G36*
X348000D02*
X346499D01*
X346506Y412983D01*
X347147Y412147D01*
X347983Y411506D01*
X348000Y411499D01*
Y413000D01*
D02*
G37*
G36*
X514000Y418030D02*
X513086Y417910D01*
X512235Y417557D01*
X511504Y416996D01*
X510943Y416265D01*
X510590Y415414D01*
X510470Y414500D01*
X510590Y413586D01*
X510943Y412735D01*
X511504Y412004D01*
X512235Y411443D01*
X513086Y411090D01*
X514000Y410970D01*
X514914Y411090D01*
X515765Y411443D01*
X516496Y412004D01*
X517057Y412735D01*
X517410Y413586D01*
X517530Y414500D01*
X517410Y415414D01*
X517057Y416265D01*
X516496Y416996D01*
X515765Y417557D01*
X514914Y417910D01*
X514000Y418030D01*
D02*
G37*
G36*
X340000Y419034D02*
X338956Y418897D01*
X337983Y418494D01*
X337147Y417853D01*
X336506Y417017D01*
X336103Y416044D01*
X335965Y415000D01*
X336103Y413956D01*
X336506Y412983D01*
X337147Y412147D01*
X337983Y411506D01*
X338956Y411103D01*
X340000Y410965D01*
X341044Y411103D01*
X342017Y411506D01*
X342853Y412147D01*
X343494Y412983D01*
X343897Y413956D01*
X344035Y415000D01*
X343897Y416044D01*
X343494Y417017D01*
X342853Y417853D01*
X342017Y418494D01*
X341044Y418897D01*
X340000Y419034D01*
D02*
G37*
G36*
X416000Y416030D02*
X415086Y415910D01*
X414235Y415557D01*
X413504Y414996D01*
X412943Y414265D01*
X412590Y413414D01*
X412470Y412500D01*
X412590Y411586D01*
X412943Y410735D01*
X413504Y410004D01*
X414235Y409443D01*
X415086Y409090D01*
X416000Y408970D01*
X416914Y409090D01*
X417765Y409443D01*
X418496Y410004D01*
X419057Y410735D01*
X419410Y411586D01*
X419530Y412500D01*
X419410Y413414D01*
X419057Y414265D01*
X418496Y414996D01*
X417765Y415557D01*
X416914Y415910D01*
X416000Y416030D01*
D02*
G37*
G36*
X494000Y414411D02*
Y412500D01*
Y410264D01*
X494243Y410124D01*
X494226Y410000D01*
X494321Y409282D01*
X494598Y408613D01*
X495039Y408039D01*
X495613Y407598D01*
X496282Y407321D01*
X497000Y407226D01*
X497718Y407321D01*
X498387Y407598D01*
X498961Y408039D01*
X499402Y408613D01*
X499679Y409282D01*
X499774Y410000D01*
X499679Y410718D01*
X499402Y411387D01*
X498961Y411961D01*
X498387Y412402D01*
X497718Y412679D01*
X497000Y412774D01*
X496282Y412679D01*
X495613Y412402D01*
X495226Y412105D01*
X494757Y412376D01*
X494774Y412500D01*
X494679Y413218D01*
X494402Y413887D01*
X494000Y414411D01*
D02*
G37*
G36*
X352000Y408501D02*
Y407000D01*
X353501D01*
X353494Y407017D01*
X352853Y407853D01*
X352017Y408494D01*
X352000Y408501D01*
D02*
G37*
G36*
X348000D02*
X347983Y408494D01*
X347147Y407853D01*
X346506Y407017D01*
X346499Y407000D01*
X348000D01*
Y408501D01*
D02*
G37*
G36*
X227000Y413030D02*
X226086Y412910D01*
X225235Y412557D01*
X224504Y411996D01*
X223943Y411265D01*
X223590Y410414D01*
X223470Y409500D01*
X223590Y408586D01*
X223943Y407735D01*
X224504Y407004D01*
X225235Y406443D01*
X226086Y406090D01*
X227000Y405970D01*
X227914Y406090D01*
X228765Y406443D01*
X229496Y407004D01*
X230057Y407735D01*
X230410Y408586D01*
X230530Y409500D01*
X230410Y410414D01*
X230057Y411265D01*
X229496Y411996D01*
X228765Y412557D01*
X227914Y412910D01*
X227000Y413030D01*
D02*
G37*
G36*
X495500Y406774D02*
X494782Y406679D01*
X494113Y406402D01*
X493539Y405961D01*
X493098Y405387D01*
X492821Y404718D01*
X492790Y404485D01*
X492260Y404285D01*
X491887Y404571D01*
X491218Y404848D01*
X490500Y404943D01*
X489782Y404848D01*
X489113Y404571D01*
X488539Y404131D01*
X488098Y403556D01*
X487821Y402887D01*
X487726Y402169D01*
X487821Y401451D01*
X488098Y400782D01*
X488539Y400208D01*
X489113Y399767D01*
X489782Y399490D01*
X490500Y399396D01*
X491218Y399490D01*
X491887Y399767D01*
X492461Y400208D01*
X492508Y400268D01*
X492944Y400016D01*
X492821Y399718D01*
X492726Y399000D01*
X492821Y398282D01*
X493098Y397613D01*
X493539Y397039D01*
X494113Y396598D01*
X494782Y396321D01*
X495500Y396226D01*
X496218Y396321D01*
X496887Y396598D01*
X497369Y396968D01*
X500471Y393866D01*
Y371133D01*
X485621Y356284D01*
X485265Y356557D01*
X484414Y356910D01*
X483500Y357030D01*
X482586Y356910D01*
X481735Y356557D01*
X481004Y355996D01*
X480443Y355265D01*
X480090Y354414D01*
X479970Y353500D01*
X480090Y352586D01*
X480443Y351735D01*
X481004Y351004D01*
X481735Y350443D01*
X482586Y350090D01*
X483500Y349970D01*
X484414Y350090D01*
X485265Y350443D01*
X485996Y351004D01*
X486557Y351735D01*
X486910Y352586D01*
X487010Y353347D01*
X503081Y369419D01*
X503413Y369915D01*
X503529Y370500D01*
Y394500D01*
X503413Y395085D01*
X503081Y395581D01*
X497979Y400684D01*
X497979Y400684D01*
X497483Y401015D01*
X497359Y401040D01*
X497160Y401193D01*
Y401807D01*
X497461Y402039D01*
X497902Y402613D01*
X498179Y403282D01*
X498274Y404000D01*
X498179Y404718D01*
X497902Y405387D01*
X497461Y405961D01*
X496887Y406402D01*
X496218Y406679D01*
X495500Y406774D01*
D02*
G37*
G36*
X446000Y409274D02*
X445282Y409179D01*
X444613Y408902D01*
X444039Y408461D01*
X443598Y407887D01*
X443321Y407218D01*
X443226Y406500D01*
X443321Y405782D01*
X443598Y405113D01*
X444039Y404539D01*
X444613Y404098D01*
X445282Y403821D01*
X446000Y403726D01*
X446718Y403821D01*
X447387Y404098D01*
X447961Y404539D01*
X448402Y405113D01*
X448679Y405782D01*
X448774Y406500D01*
X448679Y407218D01*
X448402Y407887D01*
X447961Y408461D01*
X447387Y408902D01*
X446718Y409179D01*
X446000Y409274D01*
D02*
G37*
G36*
X353501Y403000D02*
X352000D01*
Y401499D01*
X352017Y401506D01*
X352853Y402147D01*
X353494Y402983D01*
X353501Y403000D01*
D02*
G37*
G36*
X348000D02*
X346499D01*
X346506Y402983D01*
X347147Y402147D01*
X347983Y401506D01*
X348000Y401499D01*
Y403000D01*
D02*
G37*
G36*
X340000Y409034D02*
X338956Y408897D01*
X337983Y408494D01*
X337147Y407853D01*
X336506Y407017D01*
X336103Y406044D01*
X335965Y405000D01*
X336103Y403956D01*
X336506Y402983D01*
X337147Y402147D01*
X337983Y401506D01*
X338956Y401103D01*
X340000Y400965D01*
X341044Y401103D01*
X342017Y401506D01*
X342853Y402147D01*
X343494Y402983D01*
X343897Y403956D01*
X344035Y405000D01*
X343897Y406044D01*
X343494Y407017D01*
X342853Y407853D01*
X342017Y408494D01*
X341044Y408897D01*
X340000Y409034D01*
D02*
G37*
G36*
X406500Y406530D02*
X405586Y406410D01*
X404735Y406057D01*
X404004Y405496D01*
X403443Y404765D01*
X403090Y403914D01*
X402970Y403000D01*
X403090Y402086D01*
X403443Y401235D01*
X404004Y400504D01*
X404735Y399943D01*
X405586Y399590D01*
X406500Y399470D01*
X407414Y399590D01*
X408265Y399943D01*
X408996Y400504D01*
X409557Y401235D01*
X409910Y402086D01*
X410030Y403000D01*
X409910Y403914D01*
X409557Y404765D01*
X408996Y405496D01*
X408265Y406057D01*
X407414Y406410D01*
X406500Y406530D01*
D02*
G37*
G36*
X352000Y398501D02*
Y397000D01*
X353501D01*
X353494Y397017D01*
X352853Y397853D01*
X352017Y398494D01*
X352000Y398501D01*
D02*
G37*
G36*
X348000D02*
X347983Y398494D01*
X347147Y397853D01*
X346506Y397017D01*
X346499Y397000D01*
X348000D01*
Y398501D01*
D02*
G37*
G36*
X446500Y400530D02*
X445586Y400410D01*
X444735Y400057D01*
X444004Y399496D01*
X443443Y398765D01*
X443090Y397914D01*
X442970Y397000D01*
X443090Y396086D01*
X443443Y395235D01*
X444004Y394504D01*
X444735Y393943D01*
X445586Y393590D01*
X446500Y393470D01*
X447414Y393590D01*
X448265Y393943D01*
X448996Y394504D01*
X449557Y395235D01*
X449910Y396086D01*
X450030Y397000D01*
X449910Y397914D01*
X449557Y398765D01*
X448996Y399496D01*
X448265Y400057D01*
X447414Y400410D01*
X446500Y400530D01*
D02*
G37*
G36*
X353501Y393000D02*
X352000D01*
Y391499D01*
X352017Y391506D01*
X352853Y392147D01*
X353494Y392983D01*
X353501Y393000D01*
D02*
G37*
G36*
X348000D02*
X346499D01*
X346506Y392983D01*
X347147Y392147D01*
X347983Y391506D01*
X348000Y391499D01*
Y393000D01*
D02*
G37*
G36*
X490000Y396774D02*
X489282Y396679D01*
X488613Y396402D01*
X488039Y395961D01*
X487598Y395387D01*
X487321Y394718D01*
X487226Y394000D01*
X487321Y393282D01*
X487598Y392613D01*
X488039Y392039D01*
X488613Y391598D01*
X489282Y391321D01*
X490000Y391226D01*
X490718Y391321D01*
X491387Y391598D01*
X491961Y392039D01*
X492402Y392613D01*
X492679Y393282D01*
X492774Y394000D01*
X492679Y394718D01*
X492402Y395387D01*
X491961Y395961D01*
X491387Y396402D01*
X490718Y396679D01*
X490000Y396774D01*
D02*
G37*
G36*
X340000Y399035D02*
X338956Y398897D01*
X337983Y398494D01*
X337147Y397853D01*
X336506Y397017D01*
X336103Y396044D01*
X335965Y395000D01*
X336103Y393956D01*
X336506Y392983D01*
X337147Y392147D01*
X337983Y391506D01*
X338956Y391103D01*
X340000Y390966D01*
X341044Y391103D01*
X342017Y391506D01*
X342853Y392147D01*
X343494Y392983D01*
X343897Y393956D01*
X344035Y395000D01*
X343897Y396044D01*
X343494Y397017D01*
X342853Y397853D01*
X342017Y398494D01*
X341044Y398897D01*
X340000Y399035D01*
D02*
G37*
G36*
X352000Y388501D02*
Y387000D01*
X353501D01*
X353494Y387017D01*
X352853Y387853D01*
X352017Y388494D01*
X352000Y388501D01*
D02*
G37*
G36*
X348000D02*
X347983Y388494D01*
X347147Y387853D01*
X346506Y387017D01*
X346499Y387000D01*
X348000D01*
Y388501D01*
D02*
G37*
G36*
X427000Y393215D02*
X426086Y393095D01*
X425235Y392742D01*
X424504Y392181D01*
X423943Y391450D01*
X423590Y390599D01*
X423470Y389685D01*
X423590Y388771D01*
X423943Y387920D01*
X424504Y387189D01*
X425235Y386628D01*
X426086Y386275D01*
X427000Y386155D01*
X427914Y386275D01*
X428765Y386628D01*
X429496Y387189D01*
X430057Y387920D01*
X430410Y388771D01*
X430530Y389685D01*
X430410Y390599D01*
X430057Y391450D01*
X429496Y392181D01*
X428765Y392742D01*
X427914Y393095D01*
X427000Y393215D01*
D02*
G37*
G36*
X514500Y392530D02*
X513586Y392410D01*
X512735Y392057D01*
X512004Y391496D01*
X511443Y390765D01*
X511090Y389914D01*
X510970Y389000D01*
X511090Y388086D01*
X511443Y387235D01*
X512004Y386504D01*
X512735Y385943D01*
X513586Y385590D01*
X514500Y385470D01*
X515414Y385590D01*
X516265Y385943D01*
X516996Y386504D01*
X517557Y387235D01*
X517910Y388086D01*
X518030Y389000D01*
X517910Y389914D01*
X517557Y390765D01*
X516996Y391496D01*
X516265Y392057D01*
X515414Y392410D01*
X514500Y392530D01*
D02*
G37*
G36*
X353501Y383000D02*
X352000D01*
Y381499D01*
X352017Y381506D01*
X352853Y382147D01*
X353494Y382983D01*
X353501Y383000D01*
D02*
G37*
G36*
X348000D02*
X346499D01*
X346506Y382983D01*
X347147Y382147D01*
X347983Y381506D01*
X348000Y381499D01*
Y383000D01*
D02*
G37*
G36*
X406500Y388030D02*
X405586Y387910D01*
X404735Y387557D01*
X404004Y386996D01*
X403443Y386265D01*
X403090Y385414D01*
X402970Y384500D01*
X403090Y383586D01*
X403443Y382735D01*
X404004Y382004D01*
X404735Y381443D01*
X405586Y381090D01*
X406500Y380970D01*
X407414Y381090D01*
X408265Y381443D01*
X408996Y382004D01*
X409557Y382735D01*
X409910Y383586D01*
X410030Y384500D01*
X409910Y385414D01*
X409557Y386265D01*
X408996Y386996D01*
X408265Y387557D01*
X407414Y387910D01*
X406500Y388030D01*
D02*
G37*
G36*
X340000Y389035D02*
X338956Y388897D01*
X337983Y388494D01*
X337147Y387853D01*
X336506Y387017D01*
X336103Y386044D01*
X335965Y385000D01*
X336103Y383956D01*
X336506Y382983D01*
X337147Y382147D01*
X337983Y381506D01*
X338956Y381103D01*
X340000Y380965D01*
X341044Y381103D01*
X342017Y381506D01*
X342853Y382147D01*
X343494Y382983D01*
X343897Y383956D01*
X344035Y385000D01*
X343897Y386044D01*
X343494Y387017D01*
X342853Y387853D01*
X342017Y388494D01*
X341044Y388897D01*
X340000Y389035D01*
D02*
G37*
G36*
X352000Y378501D02*
Y377000D01*
X353501D01*
X353494Y377017D01*
X352853Y377853D01*
X352017Y378494D01*
X352000Y378501D01*
D02*
G37*
G36*
X470500Y385530D02*
X469586Y385410D01*
X468735Y385057D01*
X468004Y384496D01*
X467443Y383765D01*
X467090Y382914D01*
X466970Y382000D01*
X467090Y381086D01*
X467443Y380235D01*
X468004Y379504D01*
X468735Y378943D01*
X469150Y378771D01*
Y378229D01*
X468735Y378057D01*
X468004Y377496D01*
X467623Y377000D01*
X473377D01*
X472996Y377496D01*
X472265Y378057D01*
X471849Y378229D01*
Y378771D01*
X472265Y378943D01*
X472996Y379504D01*
X473557Y380235D01*
X473910Y381086D01*
X474030Y382000D01*
X473910Y382914D01*
X473557Y383765D01*
X472996Y384496D01*
X472265Y385057D01*
X471414Y385410D01*
X470500Y385530D01*
D02*
G37*
G36*
X348000Y378501D02*
X347983Y378494D01*
X347147Y377853D01*
X346506Y377017D01*
X346499Y377000D01*
X348000D01*
Y378501D01*
D02*
G37*
G36*
X485500Y388274D02*
X484782Y388179D01*
X484113Y387902D01*
X483539Y387461D01*
X483098Y386887D01*
X482821Y386218D01*
X482726Y385500D01*
X482821Y384782D01*
X483098Y384113D01*
X483539Y383539D01*
X484113Y383098D01*
X484782Y382821D01*
X485500Y382726D01*
X486040Y382797D01*
X493919Y374919D01*
X494415Y374587D01*
X494655Y374539D01*
X495039Y374039D01*
X495613Y373598D01*
X496282Y373321D01*
X497000Y373226D01*
X497718Y373321D01*
X498387Y373598D01*
X498961Y374039D01*
X499402Y374613D01*
X499679Y375282D01*
X499774Y376000D01*
X499679Y376718D01*
X499402Y377387D01*
X498961Y377961D01*
X498387Y378402D01*
X497718Y378679D01*
X497000Y378774D01*
X496282Y378679D01*
X495613Y378402D01*
X495131Y378032D01*
X488203Y384960D01*
X488274Y385500D01*
X488179Y386218D01*
X487902Y386887D01*
X487461Y387461D01*
X486887Y387902D01*
X486218Y388179D01*
X485500Y388274D01*
D02*
G37*
G36*
X245000Y382795D02*
X243630Y382615D01*
X242352Y382086D01*
X241256Y381244D01*
X240414Y380148D01*
X239885Y378871D01*
X239705Y377500D01*
X239885Y376130D01*
X240414Y374852D01*
X241256Y373756D01*
X242352Y372914D01*
X243630Y372385D01*
X245000Y372205D01*
X246371Y372385D01*
X247648Y372914D01*
X248744Y373756D01*
X249586Y374852D01*
X250115Y376130D01*
X250295Y377500D01*
X250115Y378871D01*
X249586Y380148D01*
X248744Y381244D01*
X247648Y382086D01*
X246371Y382615D01*
X245000Y382795D01*
D02*
G37*
G36*
X473377Y373000D02*
X472500D01*
Y372123D01*
X472996Y372504D01*
X473377Y373000D01*
D02*
G37*
G36*
X468500D02*
X467623D01*
X468004Y372504D01*
X468500Y372123D01*
Y373000D01*
D02*
G37*
G36*
X353501D02*
X352000D01*
Y371499D01*
X352017Y371506D01*
X352853Y372147D01*
X353494Y372983D01*
X353501Y373000D01*
D02*
G37*
G36*
X348000D02*
X346499D01*
X346506Y372983D01*
X347147Y372147D01*
X347983Y371506D01*
X348000Y371499D01*
Y373000D01*
D02*
G37*
G36*
X340000Y379034D02*
X338956Y378897D01*
X337983Y378494D01*
X337147Y377853D01*
X336506Y377017D01*
X336103Y376044D01*
X335965Y375000D01*
X336103Y373956D01*
X336506Y372983D01*
X337147Y372147D01*
X337983Y371506D01*
X338956Y371103D01*
X340000Y370966D01*
X341044Y371103D01*
X342017Y371506D01*
X342853Y372147D01*
X343494Y372983D01*
X343897Y373956D01*
X344035Y375000D01*
X343897Y376044D01*
X343494Y377017D01*
X342853Y377853D01*
X342017Y378494D01*
X341044Y378897D01*
X340000Y379034D01*
D02*
G37*
G36*
X440000Y379291D02*
X438760Y379128D01*
X437605Y378649D01*
X436612Y377888D01*
X435851Y376895D01*
X435372Y375740D01*
X435209Y374500D01*
X435372Y373260D01*
X435851Y372105D01*
X436612Y371112D01*
X437605Y370351D01*
X438760Y369872D01*
X440000Y369709D01*
X441240Y369872D01*
X442395Y370351D01*
X443388Y371112D01*
X444149Y372105D01*
X444628Y373260D01*
X444791Y374500D01*
X444628Y375740D01*
X444149Y376895D01*
X443388Y377888D01*
X442395Y378649D01*
X441240Y379128D01*
X440000Y379291D01*
D02*
G37*
G36*
X429500D02*
X428260Y379128D01*
X427105Y378649D01*
X426112Y377888D01*
X425351Y376895D01*
X424872Y375740D01*
X424709Y374500D01*
X424872Y373260D01*
X425351Y372105D01*
X426112Y371112D01*
X427105Y370351D01*
X428260Y369872D01*
X429500Y369709D01*
X430740Y369872D01*
X431895Y370351D01*
X432888Y371112D01*
X433649Y372105D01*
X434128Y373260D01*
X434291Y374500D01*
X434128Y375740D01*
X433649Y376895D01*
X432888Y377888D01*
X431895Y378649D01*
X430740Y379128D01*
X429500Y379291D01*
D02*
G37*
G36*
X490484Y374790D02*
X489766Y374695D01*
X489097Y374418D01*
X488523Y373977D01*
X488082Y373403D01*
X487805Y372734D01*
X487711Y372016D01*
X487805Y371298D01*
X488082Y370629D01*
X488523Y370054D01*
X489097Y369614D01*
X489766Y369337D01*
X490484Y369242D01*
X491202Y369337D01*
X491871Y369614D01*
X492446Y370054D01*
X492886Y370629D01*
X493163Y371298D01*
X493258Y372016D01*
X493163Y372734D01*
X492886Y373403D01*
X492446Y373977D01*
X491871Y374418D01*
X491202Y374695D01*
X490484Y374790D01*
D02*
G37*
G36*
X352000Y368501D02*
Y367000D01*
X353501D01*
X353494Y367017D01*
X352853Y367853D01*
X352017Y368494D01*
X352000Y368501D01*
D02*
G37*
G36*
X348000D02*
X347983Y368494D01*
X347147Y367853D01*
X346506Y367017D01*
X346499Y367000D01*
X348000D01*
Y368501D01*
D02*
G37*
G36*
X486500Y369774D02*
X485782Y369679D01*
X485113Y369402D01*
X484539Y368961D01*
X484098Y368387D01*
X483821Y367718D01*
X483726Y367000D01*
X483797Y366460D01*
X474367Y357029D01*
X463500D01*
X462915Y356913D01*
X462419Y356581D01*
X457419Y351581D01*
X457087Y351085D01*
X456971Y350500D01*
Y299500D01*
X457087Y298915D01*
X457419Y298419D01*
X459688Y296149D01*
X459590Y295914D01*
X459470Y295000D01*
X459590Y294086D01*
X459943Y293235D01*
X460504Y292504D01*
X461235Y291943D01*
X462086Y291590D01*
X463000Y291470D01*
X463914Y291590D01*
X464765Y291943D01*
X465496Y292504D01*
X466057Y293235D01*
X466410Y294086D01*
X466530Y295000D01*
X466410Y295914D01*
X466057Y296765D01*
X465496Y297496D01*
X464765Y298057D01*
X463914Y298410D01*
X463000Y298530D01*
X462086Y298410D01*
X461851Y298312D01*
X460029Y300133D01*
Y349867D01*
X464134Y353971D01*
X475000D01*
X475585Y354087D01*
X476081Y354419D01*
X485960Y364297D01*
X486500Y364226D01*
X487218Y364321D01*
X487887Y364598D01*
X488461Y365039D01*
X488902Y365613D01*
X489179Y366282D01*
X489274Y367000D01*
X489179Y367718D01*
X488902Y368387D01*
X488461Y368961D01*
X487887Y369402D01*
X487218Y369679D01*
X486500Y369774D01*
D02*
G37*
G36*
X381500Y369530D02*
X380586Y369410D01*
X379735Y369057D01*
X379004Y368496D01*
X378443Y367765D01*
X378090Y366914D01*
X377970Y366000D01*
X378090Y365086D01*
X378443Y364235D01*
X379004Y363504D01*
X379735Y362943D01*
X380586Y362590D01*
X381500Y362470D01*
X382414Y362590D01*
X383265Y362943D01*
X383996Y363504D01*
X384557Y364235D01*
X384910Y365086D01*
X385030Y366000D01*
X384910Y366914D01*
X384557Y367765D01*
X383996Y368496D01*
X383265Y369057D01*
X382414Y369410D01*
X381500Y369530D01*
D02*
G37*
G36*
X353501Y363000D02*
X352000D01*
Y361499D01*
X352017Y361506D01*
X352853Y362147D01*
X353494Y362983D01*
X353501Y363000D01*
D02*
G37*
G36*
X348000D02*
X346499D01*
X346506Y362983D01*
X347147Y362147D01*
X347983Y361506D01*
X348000Y361499D01*
Y363000D01*
D02*
G37*
G36*
X340000Y369035D02*
X338956Y368897D01*
X337983Y368494D01*
X337147Y367853D01*
X336506Y367017D01*
X336103Y366044D01*
X335965Y365000D01*
X336103Y363956D01*
X336506Y362983D01*
X337147Y362147D01*
X337983Y361506D01*
X338956Y361103D01*
X340000Y360965D01*
X341044Y361103D01*
X342017Y361506D01*
X342853Y362147D01*
X343494Y362983D01*
X343897Y363956D01*
X344035Y365000D01*
X343897Y366044D01*
X343494Y367017D01*
X342853Y367853D01*
X342017Y368494D01*
X341044Y368897D01*
X340000Y369035D01*
D02*
G37*
G36*
X245000Y370295D02*
X243630Y370115D01*
X242352Y369586D01*
X241256Y368744D01*
X240414Y367648D01*
X239885Y366371D01*
X239705Y365000D01*
X239885Y363630D01*
X240414Y362352D01*
X241256Y361256D01*
X242352Y360414D01*
X243630Y359885D01*
X245000Y359705D01*
X246371Y359885D01*
X247648Y360414D01*
X248744Y361256D01*
X249586Y362352D01*
X250115Y363630D01*
X250295Y365000D01*
X250115Y366371D01*
X249586Y367648D01*
X248744Y368744D01*
X247648Y369586D01*
X246371Y370115D01*
X245000Y370295D01*
D02*
G37*
G36*
X395500Y367291D02*
X394260Y367128D01*
X393105Y366649D01*
X392112Y365888D01*
X391351Y364896D01*
X390872Y363740D01*
X390709Y362500D01*
X390872Y361260D01*
X391351Y360104D01*
X392112Y359112D01*
X393105Y358351D01*
X394260Y357872D01*
X395500Y357709D01*
X396740Y357872D01*
X397896Y358351D01*
X398888Y359112D01*
X399649Y360104D01*
X400128Y361260D01*
X400291Y362500D01*
X400128Y363740D01*
X399649Y364896D01*
X398888Y365888D01*
X397896Y366649D01*
X396740Y367128D01*
X395500Y367291D01*
D02*
G37*
G36*
X352000Y358501D02*
Y357000D01*
X353501D01*
X353494Y357017D01*
X352853Y357853D01*
X352017Y358494D01*
X352000Y358501D01*
D02*
G37*
G36*
X348000D02*
X347983Y358494D01*
X347147Y357853D01*
X346506Y357017D01*
X346499Y357000D01*
X348000D01*
Y358501D01*
D02*
G37*
G36*
X353501Y353000D02*
X352000D01*
Y351499D01*
X352017Y351506D01*
X352853Y352147D01*
X353494Y352983D01*
X353501Y353000D01*
D02*
G37*
G36*
X348000D02*
X346499D01*
X346506Y352983D01*
X347147Y352147D01*
X347983Y351506D01*
X348000Y351499D01*
Y353000D01*
D02*
G37*
G36*
X450000Y358030D02*
X449086Y357910D01*
X448235Y357557D01*
X447504Y356996D01*
X446943Y356265D01*
X446590Y355414D01*
X446470Y354500D01*
X446590Y353586D01*
X446943Y352735D01*
X447504Y352004D01*
X448235Y351443D01*
X449086Y351090D01*
X450000Y350970D01*
X450914Y351090D01*
X451765Y351443D01*
X452496Y352004D01*
X453057Y352735D01*
X453410Y353586D01*
X453530Y354500D01*
X453410Y355414D01*
X453057Y356265D01*
X452496Y356996D01*
X451765Y357557D01*
X450914Y357910D01*
X450000Y358030D01*
D02*
G37*
G36*
X340000Y359034D02*
X338956Y358897D01*
X337983Y358494D01*
X337147Y357853D01*
X336506Y357017D01*
X336103Y356044D01*
X335965Y355000D01*
X336103Y353956D01*
X336506Y352983D01*
X337147Y352147D01*
X337983Y351506D01*
X338956Y351103D01*
X340000Y350965D01*
X341044Y351103D01*
X342017Y351506D01*
X342853Y352147D01*
X343494Y352983D01*
X343897Y353956D01*
X344035Y355000D01*
X343897Y356044D01*
X343494Y357017D01*
X342853Y357853D01*
X342017Y358494D01*
X341044Y358897D01*
X340000Y359034D01*
D02*
G37*
G36*
X226953Y356983D02*
X226039Y356863D01*
X225188Y356510D01*
X224457Y355949D01*
X223896Y355218D01*
X223543Y354366D01*
X223423Y353453D01*
X223543Y352539D01*
X223896Y351688D01*
X224457Y350957D01*
X225188Y350395D01*
X226039Y350043D01*
X226953Y349923D01*
X227866Y350043D01*
X228718Y350395D01*
X229449Y350957D01*
X230010Y351688D01*
X230363Y352539D01*
X230483Y353453D01*
X230363Y354366D01*
X230010Y355218D01*
X229449Y355949D01*
X228718Y356510D01*
X227866Y356863D01*
X226953Y356983D01*
D02*
G37*
G36*
X245000Y357795D02*
X243630Y357615D01*
X242352Y357086D01*
X241256Y356244D01*
X240414Y355148D01*
X239885Y353871D01*
X239705Y352500D01*
X239885Y351130D01*
X240414Y349852D01*
X241256Y348756D01*
X242352Y347914D01*
X243630Y347385D01*
X245000Y347205D01*
X246371Y347385D01*
X247648Y347914D01*
X248744Y348756D01*
X249586Y349852D01*
X250115Y351130D01*
X250295Y352500D01*
X250115Y353871D01*
X249586Y355148D01*
X248744Y356244D01*
X247648Y357086D01*
X246371Y357615D01*
X245000Y357795D01*
D02*
G37*
G36*
X352000Y348501D02*
Y347000D01*
X353501D01*
X353494Y347017D01*
X352853Y347853D01*
X352017Y348494D01*
X352000Y348501D01*
D02*
G37*
G36*
X348000D02*
X347983Y348494D01*
X347147Y347853D01*
X346506Y347017D01*
X346499Y347000D01*
X348000D01*
Y348501D01*
D02*
G37*
G36*
X353501Y343000D02*
X352000D01*
Y341499D01*
X352017Y341506D01*
X352853Y342147D01*
X353494Y342983D01*
X353501Y343000D01*
D02*
G37*
G36*
X348000D02*
X346499D01*
X346506Y342983D01*
X347147Y342147D01*
X347983Y341506D01*
X348000Y341499D01*
Y343000D01*
D02*
G37*
G36*
X340000Y349035D02*
X338956Y348897D01*
X337983Y348494D01*
X337147Y347853D01*
X336506Y347017D01*
X336103Y346044D01*
X335965Y345000D01*
X336103Y343956D01*
X336506Y342983D01*
X337147Y342147D01*
X337983Y341506D01*
X338956Y341103D01*
X340000Y340966D01*
X341044Y341103D01*
X342017Y341506D01*
X342853Y342147D01*
X343494Y342983D01*
X343897Y343956D01*
X344035Y345000D01*
X343897Y346044D01*
X343494Y347017D01*
X342853Y347853D01*
X342017Y348494D01*
X341044Y348897D01*
X340000Y349035D01*
D02*
G37*
G36*
X352000Y338501D02*
Y337000D01*
X353501D01*
X353494Y337017D01*
X352853Y337853D01*
X352017Y338494D01*
X352000Y338501D01*
D02*
G37*
G36*
X348000D02*
X347983Y338494D01*
X347147Y337853D01*
X346506Y337017D01*
X346499Y337000D01*
X348000D01*
Y338501D01*
D02*
G37*
G36*
X353501Y333000D02*
X352000D01*
Y331499D01*
X352017Y331506D01*
X352853Y332147D01*
X353494Y332983D01*
X353501Y333000D01*
D02*
G37*
G36*
X348000D02*
X346499D01*
X346506Y332983D01*
X347147Y332147D01*
X347983Y331506D01*
X348000Y331499D01*
Y333000D01*
D02*
G37*
G36*
X340000Y339035D02*
X338956Y338897D01*
X337983Y338494D01*
X337147Y337853D01*
X336506Y337017D01*
X336103Y336044D01*
X335965Y335000D01*
X336103Y333956D01*
X336506Y332983D01*
X337147Y332147D01*
X337983Y331506D01*
X338956Y331103D01*
X340000Y330965D01*
X341044Y331103D01*
X342017Y331506D01*
X342853Y332147D01*
X343494Y332983D01*
X343897Y333956D01*
X344035Y335000D01*
X343897Y336044D01*
X343494Y337017D01*
X342853Y337853D01*
X342017Y338494D01*
X341044Y338897D01*
X340000Y339035D01*
D02*
G37*
G36*
X527000Y336030D02*
X526086Y335910D01*
X525235Y335557D01*
X524504Y334996D01*
X523943Y334265D01*
X523590Y333414D01*
X523470Y332500D01*
X523590Y331586D01*
X523943Y330735D01*
X524504Y330004D01*
X525235Y329443D01*
X526086Y329090D01*
X527000Y328970D01*
X527914Y329090D01*
X528765Y329443D01*
X529496Y330004D01*
X530057Y330735D01*
X530410Y331586D01*
X530530Y332500D01*
X530410Y333414D01*
X530057Y334265D01*
X529496Y334996D01*
X528765Y335557D01*
X527914Y335910D01*
X527000Y336030D01*
D02*
G37*
G36*
X350000Y329034D02*
X348956Y328897D01*
X347983Y328494D01*
X347147Y327853D01*
X346506Y327017D01*
X346103Y326044D01*
X345966Y325000D01*
X346103Y323956D01*
X346506Y322983D01*
X347147Y322147D01*
X347983Y321506D01*
X348956Y321103D01*
X350000Y320966D01*
X351044Y321103D01*
X352017Y321506D01*
X352853Y322147D01*
X353494Y322983D01*
X353897Y323956D01*
X354034Y325000D01*
X353897Y326044D01*
X353494Y327017D01*
X352853Y327853D01*
X352017Y328494D01*
X351044Y328897D01*
X350000Y329034D01*
D02*
G37*
G36*
X340000D02*
X338956Y328897D01*
X337983Y328494D01*
X337147Y327853D01*
X336506Y327017D01*
X336103Y326044D01*
X335965Y325000D01*
X336103Y323956D01*
X336506Y322983D01*
X337147Y322147D01*
X337983Y321506D01*
X338956Y321103D01*
X340000Y320966D01*
X341044Y321103D01*
X342017Y321506D01*
X342853Y322147D01*
X343494Y322983D01*
X343897Y323956D01*
X344035Y325000D01*
X343897Y326044D01*
X343494Y327017D01*
X342853Y327853D01*
X342017Y328494D01*
X341044Y328897D01*
X340000Y329034D01*
D02*
G37*
G36*
X350000Y319035D02*
X348956Y318897D01*
X347983Y318494D01*
X347147Y317853D01*
X346506Y317017D01*
X346103Y316044D01*
X345966Y315000D01*
X346103Y313956D01*
X346506Y312983D01*
X347147Y312147D01*
X347983Y311506D01*
X348956Y311103D01*
X350000Y310965D01*
X351044Y311103D01*
X352017Y311506D01*
X352853Y312147D01*
X353494Y312983D01*
X353897Y313956D01*
X354034Y315000D01*
X353897Y316044D01*
X353494Y317017D01*
X352853Y317853D01*
X352017Y318494D01*
X351044Y318897D01*
X350000Y319035D01*
D02*
G37*
G36*
X340000D02*
X338956Y318897D01*
X337983Y318494D01*
X337147Y317853D01*
X336506Y317017D01*
X336103Y316044D01*
X335965Y315000D01*
X336103Y313956D01*
X336506Y312983D01*
X337147Y312147D01*
X337983Y311506D01*
X338956Y311103D01*
X340000Y310965D01*
X341044Y311103D01*
X342017Y311506D01*
X342853Y312147D01*
X343494Y312983D01*
X343897Y313956D01*
X344035Y315000D01*
X343897Y316044D01*
X343494Y317017D01*
X342853Y317853D01*
X342017Y318494D01*
X341044Y318897D01*
X340000Y319035D01*
D02*
G37*
G36*
X529000Y308877D02*
Y308000D01*
X529877D01*
X529496Y308496D01*
X529000Y308877D01*
D02*
G37*
G36*
X525000D02*
X524504Y308496D01*
X524123Y308000D01*
X525000D01*
Y308877D01*
D02*
G37*
G36*
X529877Y304000D02*
X529000D01*
Y303123D01*
X529496Y303504D01*
X529877Y304000D01*
D02*
G37*
G36*
X525000D02*
X524123D01*
X524504Y303504D01*
X525000Y303123D01*
Y304000D01*
D02*
G37*
G36*
X350000Y309034D02*
X348956Y308897D01*
X347983Y308494D01*
X347147Y307853D01*
X346506Y307017D01*
X346103Y306044D01*
X345966Y305000D01*
X346103Y303956D01*
X346506Y302983D01*
X347147Y302147D01*
X347983Y301506D01*
X348956Y301103D01*
X350000Y300965D01*
X351044Y301103D01*
X352017Y301506D01*
X352853Y302147D01*
X353494Y302983D01*
X353897Y303956D01*
X354034Y305000D01*
X353897Y306044D01*
X353494Y307017D01*
X352853Y307853D01*
X352017Y308494D01*
X351044Y308897D01*
X350000Y309034D01*
D02*
G37*
G36*
X340000D02*
X338956Y308897D01*
X337983Y308494D01*
X337147Y307853D01*
X336506Y307017D01*
X336103Y306044D01*
X335965Y305000D01*
X336103Y303956D01*
X336506Y302983D01*
X337147Y302147D01*
X337983Y301506D01*
X338956Y301103D01*
X340000Y300965D01*
X341044Y301103D01*
X342017Y301506D01*
X342853Y302147D01*
X343494Y302983D01*
X343897Y303956D01*
X344035Y305000D01*
X343897Y306044D01*
X343494Y307017D01*
X342853Y307853D01*
X342017Y308494D01*
X341044Y308897D01*
X340000Y309034D01*
D02*
G37*
G36*
X449500Y298530D02*
X448586Y298410D01*
X447735Y298057D01*
X447004Y297496D01*
X446443Y296765D01*
X446090Y295914D01*
X445970Y295000D01*
X446090Y294086D01*
X446443Y293235D01*
X447004Y292504D01*
X447735Y291943D01*
X448586Y291590D01*
X449500Y291470D01*
X450414Y291590D01*
X451265Y291943D01*
X451996Y292504D01*
X452557Y293235D01*
X452910Y294086D01*
X453030Y295000D01*
X452910Y295914D01*
X452557Y296765D01*
X451996Y297496D01*
X451265Y298057D01*
X450414Y298410D01*
X449500Y298530D01*
D02*
G37*
G36*
X350000Y299035D02*
X348956Y298897D01*
X347983Y298494D01*
X347147Y297853D01*
X346506Y297017D01*
X346103Y296044D01*
X345966Y295000D01*
X346103Y293956D01*
X346506Y292983D01*
X347147Y292147D01*
X347983Y291506D01*
X348956Y291103D01*
X350000Y290966D01*
X351044Y291103D01*
X352017Y291506D01*
X352853Y292147D01*
X353494Y292983D01*
X353897Y293956D01*
X354034Y295000D01*
X353897Y296044D01*
X353494Y297017D01*
X352853Y297853D01*
X352017Y298494D01*
X351044Y298897D01*
X350000Y299035D01*
D02*
G37*
G36*
X340000D02*
X338956Y298897D01*
X337983Y298494D01*
X337147Y297853D01*
X336506Y297017D01*
X336103Y296044D01*
X335965Y295000D01*
X336103Y293956D01*
X336506Y292983D01*
X337147Y292147D01*
X337983Y291506D01*
X338956Y291103D01*
X340000Y290966D01*
X341044Y291103D01*
X342017Y291506D01*
X342853Y292147D01*
X343494Y292983D01*
X343897Y293956D01*
X344035Y295000D01*
X343897Y296044D01*
X343494Y297017D01*
X342853Y297853D01*
X342017Y298494D01*
X341044Y298897D01*
X340000Y299035D01*
D02*
G37*
G36*
X399185Y296530D02*
X398271Y296410D01*
X397420Y296057D01*
X396689Y295496D01*
X396128Y294765D01*
X395775Y293914D01*
X395655Y293000D01*
X395775Y292086D01*
X396128Y291235D01*
X396689Y290504D01*
X397420Y289943D01*
X398271Y289590D01*
X399185Y289470D01*
X400099Y289590D01*
X400950Y289943D01*
X401681Y290504D01*
X402242Y291235D01*
X402595Y292086D01*
X402715Y293000D01*
X402595Y293914D01*
X402242Y294765D01*
X401681Y295496D01*
X400950Y296057D01*
X400099Y296410D01*
X399185Y296530D01*
D02*
G37*
G36*
X320000Y295295D02*
X318630Y295115D01*
X317352Y294586D01*
X316256Y293744D01*
X315414Y292648D01*
X314885Y291371D01*
X314705Y290000D01*
X314885Y288630D01*
X315414Y287352D01*
X316256Y286256D01*
X317352Y285414D01*
X318630Y284885D01*
X320000Y284705D01*
X321371Y284885D01*
X322648Y285414D01*
X323744Y286256D01*
X324586Y287352D01*
X325115Y288630D01*
X325295Y290000D01*
X325115Y291371D01*
X324586Y292648D01*
X323744Y293744D01*
X322648Y294586D01*
X321371Y295115D01*
X320000Y295295D01*
D02*
G37*
G36*
X245000D02*
X243630Y295115D01*
X242352Y294586D01*
X241256Y293744D01*
X240414Y292648D01*
X239885Y291371D01*
X239705Y290000D01*
X239885Y288630D01*
X240414Y287352D01*
X241256Y286256D01*
X242352Y285414D01*
X243630Y284885D01*
X245000Y284705D01*
X246371Y284885D01*
X247648Y285414D01*
X248744Y286256D01*
X249586Y287352D01*
X250115Y288630D01*
X250295Y290000D01*
X250115Y291371D01*
X249586Y292648D01*
X248744Y293744D01*
X247648Y294586D01*
X246371Y295115D01*
X245000Y295295D01*
D02*
G37*
G36*
X425500Y265530D02*
X424586Y265410D01*
X423735Y265057D01*
X423004Y264496D01*
X422443Y263765D01*
X422090Y262914D01*
X421970Y262000D01*
X422090Y261086D01*
X422443Y260235D01*
X423004Y259504D01*
X423735Y258943D01*
X424586Y258590D01*
X425500Y258470D01*
X426414Y258590D01*
X427265Y258943D01*
X427996Y259504D01*
X428557Y260235D01*
X428910Y261086D01*
X429030Y262000D01*
X428910Y262914D01*
X428557Y263765D01*
X427996Y264496D01*
X427265Y265057D01*
X426414Y265410D01*
X425500Y265530D01*
D02*
G37*
G36*
X362000Y265030D02*
X361086Y264910D01*
X360235Y264557D01*
X359504Y263996D01*
X358943Y263265D01*
X358590Y262414D01*
X358470Y261500D01*
X358590Y260586D01*
X358943Y259735D01*
X359504Y259004D01*
X360235Y258443D01*
X361086Y258090D01*
X362000Y257970D01*
X362914Y258090D01*
X363765Y258443D01*
X364496Y259004D01*
X365057Y259735D01*
X365410Y260586D01*
X365530Y261500D01*
X365410Y262414D01*
X365057Y263265D01*
X364496Y263996D01*
X363765Y264557D01*
X362914Y264910D01*
X362000Y265030D01*
D02*
G37*
G36*
X319750Y259545D02*
X318379Y259365D01*
X317102Y258836D01*
X316006Y257994D01*
X315164Y256898D01*
X314635Y255621D01*
X314455Y254250D01*
X314635Y252880D01*
X315164Y251602D01*
X316006Y250506D01*
X317102Y249664D01*
X318379Y249135D01*
X319750Y248955D01*
X321121Y249135D01*
X322398Y249664D01*
X323494Y250506D01*
X324336Y251602D01*
X324865Y252880D01*
X325045Y254250D01*
X324865Y255621D01*
X324336Y256898D01*
X323494Y257994D01*
X322398Y258836D01*
X321121Y259365D01*
X319750Y259545D01*
D02*
G37*
G36*
X524000Y237313D02*
Y235000D01*
X526313D01*
X526149Y235396D01*
X525388Y236388D01*
X524396Y237149D01*
X524000Y237313D01*
D02*
G37*
G36*
X510000D02*
X509605Y237149D01*
X508612Y236388D01*
X507851Y235396D01*
X507687Y235000D01*
X510000D01*
Y237313D01*
D02*
G37*
G36*
X520000D02*
X519604Y237149D01*
X518612Y236388D01*
X517851Y235396D01*
X517372Y234240D01*
X517252Y233328D01*
X516748D01*
X516628Y234240D01*
X516149Y235396D01*
X515388Y236388D01*
X514396Y237149D01*
X514000Y237313D01*
Y233000D01*
Y228687D01*
X514396Y228851D01*
X515388Y229612D01*
X516149Y230605D01*
X516628Y231760D01*
X516748Y232672D01*
X517252D01*
X517372Y231760D01*
X517851Y230605D01*
X518612Y229612D01*
X519604Y228851D01*
X520000Y228687D01*
Y233000D01*
Y237313D01*
D02*
G37*
G36*
X526313Y231000D02*
X524000D01*
Y228687D01*
X524396Y228851D01*
X525388Y229612D01*
X526149Y230605D01*
X526313Y231000D01*
D02*
G37*
G36*
X510000D02*
X507687D01*
X507851Y230605D01*
X508612Y229612D01*
X509605Y228851D01*
X510000Y228687D01*
Y231000D01*
D02*
G37*
G36*
X274000Y222530D02*
X273086Y222410D01*
X272235Y222057D01*
X271504Y221496D01*
X270943Y220765D01*
X270590Y219914D01*
X270470Y219000D01*
X270590Y218086D01*
X270943Y217235D01*
X271504Y216504D01*
X272235Y215943D01*
X273086Y215590D01*
X274000Y215470D01*
X274914Y215590D01*
X275765Y215943D01*
X276496Y216504D01*
X277057Y217235D01*
X277410Y218086D01*
X277530Y219000D01*
X277410Y219914D01*
X277057Y220765D01*
X276496Y221496D01*
X275765Y222057D01*
X274914Y222410D01*
X274000Y222530D01*
D02*
G37*
G36*
X309000Y211500D02*
X301000D01*
Y203500D01*
X309000D01*
Y211500D01*
D02*
G37*
G36*
X353405Y205703D02*
X352271Y205554D01*
X351214Y205116D01*
X350306Y204419D01*
X349609Y203511D01*
X349171Y202453D01*
X349022Y201319D01*
X349171Y200184D01*
X349609Y199127D01*
X350306Y198219D01*
X351214Y197522D01*
X352271Y197084D01*
X353405Y196935D01*
X354540Y197084D01*
X355597Y197522D01*
X356505Y198219D01*
X357202Y199127D01*
X357640Y200184D01*
X357789Y201319D01*
X357640Y202453D01*
X357202Y203511D01*
X356505Y204419D01*
X355597Y205116D01*
X354540Y205554D01*
X353405Y205703D01*
D02*
G37*
G36*
X341595D02*
X340460Y205554D01*
X339403Y205116D01*
X338495Y204419D01*
X337798Y203511D01*
X337360Y202453D01*
X337210Y201319D01*
X337360Y200184D01*
X337798Y199127D01*
X338495Y198219D01*
X339403Y197522D01*
X340460Y197084D01*
X341595Y196935D01*
X342729Y197084D01*
X343787Y197522D01*
X344694Y198219D01*
X345391Y199127D01*
X345829Y200184D01*
X345978Y201319D01*
X345829Y202453D01*
X345391Y203511D01*
X344694Y204419D01*
X343787Y205116D01*
X342729Y205554D01*
X341595Y205703D01*
D02*
G37*
G36*
X267500Y205695D02*
X266365Y205546D01*
X265308Y205108D01*
X264400Y204411D01*
X263703Y203503D01*
X263265Y202446D01*
X263116Y201311D01*
X263265Y200176D01*
X263703Y199119D01*
X264400Y198211D01*
X265308Y197514D01*
X266365Y197076D01*
X267500Y196927D01*
X268635Y197076D01*
X269692Y197514D01*
X270600Y198211D01*
X271297Y199119D01*
X271735Y200176D01*
X271884Y201311D01*
X271735Y202446D01*
X271297Y203503D01*
X270600Y204411D01*
X269692Y205108D01*
X268635Y205546D01*
X267500Y205695D01*
D02*
G37*
G36*
X255689D02*
X254554Y205546D01*
X253497Y205108D01*
X252589Y204411D01*
X251892Y203503D01*
X251454Y202446D01*
X251305Y201311D01*
X251454Y200176D01*
X251892Y199119D01*
X252589Y198211D01*
X253497Y197514D01*
X254554Y197076D01*
X255689Y196927D01*
X256824Y197076D01*
X257881Y197514D01*
X258789Y198211D01*
X259486Y199119D01*
X259924Y200176D01*
X260073Y201311D01*
X259924Y202446D01*
X259486Y203503D01*
X258789Y204411D01*
X257881Y205108D01*
X256824Y205546D01*
X255689Y205695D01*
D02*
G37*
G36*
X305000Y201535D02*
X303956Y201397D01*
X302983Y200994D01*
X302147Y200353D01*
X301506Y199517D01*
X301103Y198544D01*
X300965Y197500D01*
X301103Y196456D01*
X301506Y195483D01*
X302147Y194647D01*
X302983Y194006D01*
X303956Y193603D01*
X305000Y193465D01*
X306044Y193603D01*
X307017Y194006D01*
X307853Y194647D01*
X308494Y195483D01*
X308897Y196456D01*
X309034Y197500D01*
X308897Y198544D01*
X308494Y199517D01*
X307853Y200353D01*
X307017Y200994D01*
X306044Y201397D01*
X305000Y201535D01*
D02*
G37*
G36*
X353405Y193892D02*
X352271Y193743D01*
X351214Y193305D01*
X350306Y192608D01*
X349609Y191700D01*
X349171Y190642D01*
X349022Y189508D01*
X349171Y188373D01*
X349609Y187316D01*
X350306Y186408D01*
X351214Y185711D01*
X352271Y185273D01*
X353405Y185124D01*
X354540Y185273D01*
X355597Y185711D01*
X356505Y186408D01*
X357202Y187316D01*
X357640Y188373D01*
X357789Y189508D01*
X357640Y190642D01*
X357202Y191700D01*
X356505Y192608D01*
X355597Y193305D01*
X354540Y193743D01*
X353405Y193892D01*
D02*
G37*
G36*
X341595D02*
X340460Y193743D01*
X339403Y193305D01*
X338495Y192608D01*
X337798Y191700D01*
X337360Y190642D01*
X337210Y189508D01*
X337360Y188373D01*
X337798Y187316D01*
X338495Y186408D01*
X339403Y185711D01*
X340460Y185273D01*
X341595Y185124D01*
X342729Y185273D01*
X343787Y185711D01*
X344694Y186408D01*
X345391Y187316D01*
X345829Y188373D01*
X345978Y189508D01*
X345829Y190642D01*
X345391Y191700D01*
X344694Y192608D01*
X343787Y193305D01*
X342729Y193743D01*
X341595Y193892D01*
D02*
G37*
G36*
X267500Y193884D02*
X266365Y193735D01*
X265308Y193297D01*
X264400Y192600D01*
X263703Y191692D01*
X263265Y190635D01*
X263116Y189500D01*
X263265Y188365D01*
X263703Y187308D01*
X264400Y186400D01*
X265308Y185703D01*
X266365Y185265D01*
X267500Y185116D01*
X268635Y185265D01*
X269692Y185703D01*
X270600Y186400D01*
X271297Y187308D01*
X271735Y188365D01*
X271884Y189500D01*
X271735Y190635D01*
X271297Y191692D01*
X270600Y192600D01*
X269692Y193297D01*
X268635Y193735D01*
X267500Y193884D01*
D02*
G37*
G36*
X255689D02*
X254554Y193735D01*
X253497Y193297D01*
X252589Y192600D01*
X251892Y191692D01*
X251454Y190635D01*
X251305Y189500D01*
X251454Y188365D01*
X251892Y187308D01*
X252589Y186400D01*
X253497Y185703D01*
X254554Y185265D01*
X255689Y185116D01*
X256824Y185265D01*
X257881Y185703D01*
X258789Y186400D01*
X259486Y187308D01*
X259924Y188365D01*
X260073Y189500D01*
X259924Y190635D01*
X259486Y191692D01*
X258789Y192600D01*
X257881Y193297D01*
X256824Y193735D01*
X255689Y193884D01*
D02*
G37*
G36*
X305000Y191534D02*
X303956Y191397D01*
X302983Y190994D01*
X302147Y190353D01*
X301506Y189517D01*
X301103Y188544D01*
X300965Y187500D01*
X301103Y186456D01*
X301506Y185483D01*
X302147Y184647D01*
X302983Y184006D01*
X303956Y183603D01*
X305000Y183466D01*
X306044Y183603D01*
X307017Y184006D01*
X307853Y184647D01*
X308494Y185483D01*
X308897Y186456D01*
X309034Y187500D01*
X308897Y188544D01*
X308494Y189517D01*
X307853Y190353D01*
X307017Y190994D01*
X306044Y191397D01*
X305000Y191534D01*
D02*
G37*
G36*
Y181535D02*
X303956Y181397D01*
X302983Y180994D01*
X302147Y180353D01*
X301506Y179517D01*
X301103Y178544D01*
X300965Y177500D01*
X301103Y176456D01*
X301506Y175483D01*
X302147Y174647D01*
X302983Y174006D01*
X303956Y173603D01*
X305000Y173466D01*
X306044Y173603D01*
X307017Y174006D01*
X307853Y174647D01*
X308494Y175483D01*
X308897Y176456D01*
X309034Y177500D01*
X308897Y178544D01*
X308494Y179517D01*
X307853Y180353D01*
X307017Y180994D01*
X306044Y181397D01*
X305000Y181535D01*
D02*
G37*
G36*
X347500Y181417D02*
X345760Y181246D01*
X344088Y180738D01*
X342546Y179914D01*
X341195Y178805D01*
X340086Y177454D01*
X339262Y175912D01*
X338754Y174240D01*
X338583Y172500D01*
X338754Y170760D01*
X339262Y169088D01*
X340086Y167546D01*
X341195Y166195D01*
X342546Y165086D01*
X344088Y164262D01*
X345760Y163754D01*
X347500Y163583D01*
X349240Y163754D01*
X350912Y164262D01*
X352454Y165086D01*
X353805Y166195D01*
X354914Y167546D01*
X355738Y169088D01*
X356246Y170760D01*
X356417Y172500D01*
X356246Y174240D01*
X355738Y175912D01*
X354914Y177454D01*
X353805Y178805D01*
X352454Y179914D01*
X350912Y180738D01*
X349240Y181246D01*
X347500Y181417D01*
D02*
G37*
G36*
X261595Y181409D02*
X259855Y181238D01*
X258182Y180730D01*
X256641Y179906D01*
X255289Y178797D01*
X254180Y177446D01*
X253356Y175905D01*
X252849Y174232D01*
X252677Y172492D01*
X252849Y170753D01*
X253356Y169080D01*
X254180Y167538D01*
X255289Y166187D01*
X256641Y165078D01*
X258182Y164254D01*
X259855Y163747D01*
X261595Y163575D01*
X263334Y163747D01*
X265007Y164254D01*
X266548Y165078D01*
X267900Y166187D01*
X269009Y167538D01*
X269833Y169080D01*
X270340Y170753D01*
X270511Y172492D01*
X270340Y174232D01*
X269833Y175905D01*
X269009Y177446D01*
X267900Y178797D01*
X266548Y179906D01*
X265007Y180730D01*
X263334Y181238D01*
X261595Y181409D01*
D02*
G37*
%LPD*%
D13*
X495500Y399000D02*
X496295D01*
X496898Y399602D01*
X502000Y370500D02*
Y394500D01*
X496898Y399602D02*
X502000Y394500D01*
X485000Y353500D02*
X502000Y370500D01*
X483500Y353500D02*
X485000D01*
X463500Y355500D02*
X475000D01*
X458500Y350500D02*
X463500Y355500D01*
X458500Y299500D02*
Y350500D01*
Y299500D02*
X463000Y295000D01*
X475000Y355500D02*
X486500Y367000D01*
X495000Y376000D02*
X497000D01*
X485500Y385500D02*
X495000Y376000D01*
D72*
X245000Y427500D02*
D03*
D75*
X350000Y335000D02*
D03*
Y345000D02*
D03*
Y355000D02*
D03*
Y365000D02*
D03*
Y375000D02*
D03*
Y385000D02*
D03*
Y395000D02*
D03*
Y405000D02*
D03*
Y415000D02*
D03*
Y425000D02*
D03*
D77*
X495500Y399000D02*
D03*
X486500Y367000D02*
D03*
X497000Y376000D02*
D03*
X485500Y385500D02*
D03*
X492000Y412500D02*
D03*
D78*
X483500Y353500D02*
D03*
X463000Y295000D02*
D03*
X527000Y306000D02*
D03*
X470500Y375000D02*
D03*
X487000Y432000D02*
D03*
D79*
X522000Y233000D02*
D03*
X512000D02*
D03*
M02*
