M48
;Layer_Color=9474304
;FILE_FORMAT=2:5
INCH,LZ
;TYPE=PLATED
T1F00S00C0.02000
T2F00S00C0.02800
T3F00S00C0.04000
T4F00S00C0.04016
T5F00S00C0.05500
%
T01
X0446Y04065
X04905Y0402169
X04955Y0404
Y0399
X049Y0394
X04855Y03855
X0490484Y0372016
X04865Y0367
X0497Y0376
Y041
X0492Y04125
Y0419
T02
X0527Y0306
X0463Y0295
X04495
X0399185Y0293
X04255Y0262
X0362Y02615
X0274Y0219
X0226953Y0353453
X0227Y04095
X04065Y0403
Y03845
X0427Y0389685
X04465Y0397
X045Y03545
X03815Y0366
X0416Y04125
X04275Y0438
X0462Y0432
X0487
X0514Y04145
X05145Y0389
X04705Y0382
Y0375
X04835Y03535
X0527Y03325
T03
X034Y0295
X035
Y0305
X034
X0305Y02075
Y01975
Y01875
Y01775
X034Y0315
X035
Y0325
X034
Y0335
X035
Y0345
X034
Y0355
X035
Y0365
X034
Y0375
X035
Y0385
X034
Y0395
X035
Y0405
X034
Y0415
X035
Y0425
X034
T04
X0341595Y0189508
X0353405
Y0201319
X0341595
X02675Y0201311
X0255689
Y01895
X02675
T05
X0512Y0233
X0522
X031975Y025425
X032Y029
X0245
Y03525
Y0365
Y03775
Y04275
X032
X03955Y03625
X04295Y03745
X044
M30
