G04*
G04 #@! TF.GenerationSoftware,Altium Limited,Altium Designer,18.0.11 (651)*
G04*
G04 Layer_Physical_Order=1*
G04 Layer_Color=255*
%FSLAX25Y25*%
%MOIN*%
G70*
G01*
G75*
%ADD13C,0.01000*%
%ADD45R,0.16339X0.09252*%
%ADD46R,0.04331X0.10236*%
%ADD47R,0.04134X0.07677*%
%ADD48R,0.22047X0.27953*%
%ADD49R,0.07677X0.04134*%
%ADD50R,0.27953X0.22047*%
%ADD51R,0.10236X0.12598*%
%ADD52R,0.04331X0.06693*%
%ADD53R,0.09252X0.17520*%
%ADD54R,0.06693X0.04134*%
%ADD55R,0.06693X0.04331*%
%ADD56R,0.03543X0.02756*%
%ADD57R,0.02756X0.03543*%
%ADD58R,0.06575X0.06516*%
%ADD59O,0.07087X0.01772*%
%ADD60R,0.14567X0.20472*%
%ADD61R,0.12598X0.10236*%
%ADD62R,0.06516X0.06575*%
%ADD63R,0.06299X0.01575*%
%ADD64O,0.06299X0.01575*%
%ADD65R,0.04803X0.03583*%
%ADD66C,0.03000*%
%ADD67C,0.02000*%
%ADD68C,0.08000*%
%ADD69C,0.07000*%
%ADD70C,0.05000*%
%ADD71R,0.00000X0.02000*%
%ADD72C,0.08500*%
%ADD73C,0.15748*%
%ADD74C,0.06693*%
%ADD75C,0.06000*%
%ADD76R,0.06000X0.06000*%
%ADD77C,0.03500*%
%ADD78C,0.05000*%
%ADD79C,0.07500*%
G36*
X405000Y366000D02*
Y234000D01*
X397000Y226000D01*
X376500D01*
X370500Y232000D01*
Y366000D01*
X376500Y372000D01*
X399000D01*
X405000Y366000D01*
D02*
G37*
G36*
X248500Y431000D02*
D01*
D02*
G37*
G36*
X323500D02*
D01*
D02*
G37*
G36*
X454000Y332000D02*
Y254500D01*
X425500Y226000D01*
X410000Y226000D01*
X407500Y228500D01*
Y283500D01*
X421500Y297500D01*
Y329500D01*
X426500Y334500D01*
X451500D01*
X454000Y332000D01*
D02*
G37*
G36*
X514000Y327000D02*
X514000Y282000D01*
X509000Y277000D01*
X501500D01*
X497500Y273000D01*
Y253000D01*
X494000Y249500D01*
X474000D01*
X469000Y254500D01*
X469000Y282000D01*
X457500Y293500D01*
X457500Y330500D01*
X461500Y334500D01*
X506500D01*
X514000Y327000D01*
D02*
G37*
G36*
X458500Y393500D02*
X447000D01*
X444500Y396000D01*
Y398000D01*
X447000Y400500D01*
X458500D01*
Y393500D01*
D02*
G37*
G36*
X514000Y354071D02*
Y342000D01*
X509000Y337000D01*
X426500D01*
X423000Y340500D01*
X423000Y357625D01*
X425700Y361000D01*
X508611Y361000D01*
X514000Y354071D01*
D02*
G37*
%LPC*%
G36*
X383500Y368877D02*
Y368000D01*
X384377D01*
X383996Y368496D01*
X383500Y368877D01*
D02*
G37*
G36*
X379500D02*
X379004Y368496D01*
X378623Y368000D01*
X379500D01*
Y368877D01*
D02*
G37*
G36*
X384377Y364000D02*
X383500D01*
Y363123D01*
X383996Y363504D01*
X384377Y364000D01*
D02*
G37*
G36*
X379500D02*
X378623D01*
X379004Y363504D01*
X379500Y363123D01*
Y364000D01*
D02*
G37*
G36*
X395500Y367291D02*
X394260Y367128D01*
X393105Y366649D01*
X392112Y365888D01*
X391351Y364896D01*
X390872Y363740D01*
X390709Y362500D01*
X390872Y361260D01*
X391351Y360104D01*
X391970Y359298D01*
Y355583D01*
X389874D01*
Y336063D01*
X401126D01*
Y355583D01*
X399030D01*
Y359298D01*
X399649Y360104D01*
X400128Y361260D01*
X400291Y362500D01*
X400128Y363740D01*
X399649Y364896D01*
X398888Y365888D01*
X397896Y366649D01*
X396740Y367128D01*
X395500Y367291D01*
D02*
G37*
G36*
X401126Y320937D02*
X397500D01*
Y313177D01*
X401126D01*
Y320937D01*
D02*
G37*
G36*
X393500D02*
X389874D01*
Y313177D01*
X393500D01*
Y320937D01*
D02*
G37*
G36*
X401126Y309177D02*
X397500D01*
Y301417D01*
X401126D01*
Y309177D01*
D02*
G37*
G36*
X393500D02*
X389874D01*
Y301417D01*
X393500D01*
Y309177D01*
D02*
G37*
G36*
X384035Y297346D02*
X382870D01*
Y295000D01*
X384035D01*
Y297346D01*
D02*
G37*
G36*
X378870D02*
X377705D01*
Y295000D01*
X378870D01*
Y297346D01*
D02*
G37*
G36*
X394665D02*
X388335D01*
Y288653D01*
X394665D01*
Y290961D01*
X396338D01*
X396689Y290504D01*
X397420Y289943D01*
X398271Y289590D01*
X399185Y289470D01*
X400099Y289590D01*
X400950Y289943D01*
X401681Y290504D01*
X402242Y291235D01*
X402595Y292086D01*
X402715Y293000D01*
X402595Y293914D01*
X402242Y294765D01*
X401681Y295496D01*
X400950Y296057D01*
X400099Y296410D01*
X399185Y296530D01*
X398271Y296410D01*
X397420Y296057D01*
X396689Y295496D01*
X396338Y295039D01*
X394665D01*
Y297346D01*
D02*
G37*
G36*
X384035Y291000D02*
X382870D01*
Y288653D01*
X384035D01*
Y291000D01*
D02*
G37*
G36*
X378870D02*
X377705D01*
Y288653D01*
X378870D01*
Y291000D01*
D02*
G37*
G36*
X402421Y283024D02*
X389445D01*
Y273000D01*
X402421D01*
Y283024D01*
D02*
G37*
G36*
X385445D02*
X372468D01*
Y273000D01*
X385445D01*
Y283024D01*
D02*
G37*
G36*
X402421Y269000D02*
X389445D01*
Y258976D01*
X402421D01*
Y269000D01*
D02*
G37*
G36*
X385445D02*
X372468D01*
Y258976D01*
X385445D01*
Y269000D01*
D02*
G37*
G36*
X393118Y243299D02*
X389000D01*
Y238000D01*
X393118D01*
Y243299D01*
D02*
G37*
G36*
X385000D02*
X380882D01*
Y238000D01*
X385000D01*
Y243299D01*
D02*
G37*
G36*
X393118Y234000D02*
X389000D01*
Y228701D01*
X393118D01*
Y234000D01*
D02*
G37*
G36*
X385000D02*
X380882D01*
Y228701D01*
X385000D01*
Y234000D01*
D02*
G37*
G36*
X450508Y331024D02*
X440484D01*
Y318047D01*
X450508D01*
Y331024D01*
D02*
G37*
G36*
X436484D02*
X426461D01*
Y318047D01*
X436484D01*
Y331024D01*
D02*
G37*
G36*
X450508Y314047D02*
X440484D01*
Y301071D01*
X450508D01*
Y314047D01*
D02*
G37*
G36*
X436484D02*
X426461D01*
Y301071D01*
X436484D01*
Y314047D01*
D02*
G37*
G36*
X451500Y297877D02*
Y297000D01*
X452377D01*
X451996Y297496D01*
X451500Y297877D01*
D02*
G37*
G36*
X447500D02*
X447004Y297496D01*
X446623Y297000D01*
X447500D01*
Y297877D01*
D02*
G37*
G36*
X452377Y293000D02*
X451500D01*
Y292123D01*
X451996Y292504D01*
X452377Y293000D01*
D02*
G37*
G36*
X447500D02*
X446623D01*
X447004Y292504D01*
X447500Y292123D01*
Y293000D01*
D02*
G37*
G36*
X420236Y283083D02*
X417398D01*
Y282016D01*
X420236D01*
Y283083D01*
D02*
G37*
G36*
X413398D02*
X410559D01*
Y282016D01*
X413398D01*
Y283083D01*
D02*
G37*
G36*
X420236Y278016D02*
X417398D01*
Y276949D01*
X420236D01*
Y278016D01*
D02*
G37*
G36*
X413398D02*
X410559D01*
Y276949D01*
X413398D01*
Y278016D01*
D02*
G37*
G36*
X451402Y275736D02*
X445118D01*
Y266500D01*
X451402D01*
Y275736D01*
D02*
G37*
G36*
X441118D02*
X434835D01*
Y266500D01*
X441118D01*
Y275736D01*
D02*
G37*
G36*
X425500Y265530D02*
X424586Y265410D01*
X423735Y265057D01*
X423004Y264496D01*
X422653Y264039D01*
X420236D01*
Y265051D01*
X410559D01*
Y258917D01*
X420236D01*
Y259961D01*
X422653D01*
X423004Y259504D01*
X423735Y258943D01*
X424586Y258590D01*
X425500Y258470D01*
X426414Y258590D01*
X427265Y258943D01*
X427996Y259504D01*
X428557Y260235D01*
X428910Y261086D01*
X429030Y262000D01*
X428910Y262914D01*
X428557Y263765D01*
X427996Y264496D01*
X427265Y265057D01*
X426414Y265410D01*
X425500Y265530D01*
D02*
G37*
G36*
X451402Y262500D02*
X445118D01*
Y253264D01*
X451402D01*
Y262500D01*
D02*
G37*
G36*
X441118D02*
X434835D01*
Y253264D01*
X441118D01*
Y262500D01*
D02*
G37*
G36*
X421465Y243299D02*
X417346D01*
Y238000D01*
X421465D01*
Y243299D01*
D02*
G37*
G36*
X413346D02*
X409228D01*
Y238000D01*
X413346D01*
Y243299D01*
D02*
G37*
G36*
X421465Y234000D02*
X417346D01*
Y228701D01*
X421465D01*
Y234000D01*
D02*
G37*
G36*
X413346D02*
X409228D01*
Y228701D01*
X413346D01*
Y234000D01*
D02*
G37*
G36*
X512299Y326772D02*
X507000D01*
Y322654D01*
X512299D01*
Y326772D01*
D02*
G37*
G36*
X503000D02*
X497701D01*
Y322654D01*
X503000D01*
Y326772D01*
D02*
G37*
G36*
X486539Y331024D02*
X476516D01*
Y318047D01*
X486539D01*
Y331024D01*
D02*
G37*
G36*
X472516D02*
X462492D01*
Y318047D01*
X472516D01*
Y331024D01*
D02*
G37*
G36*
X512299Y318653D02*
X507000D01*
Y314535D01*
X512299D01*
Y318653D01*
D02*
G37*
G36*
X503000D02*
X497701D01*
Y314535D01*
X503000D01*
Y318653D01*
D02*
G37*
G36*
X486539Y314047D02*
X476516D01*
Y301071D01*
X486539D01*
Y314047D01*
D02*
G37*
G36*
X472516D02*
X462492D01*
Y301071D01*
X472516D01*
Y314047D01*
D02*
G37*
G36*
X465000Y297877D02*
Y297000D01*
X465877D01*
X465496Y297496D01*
X465000Y297877D01*
D02*
G37*
G36*
X461000D02*
X460504Y297496D01*
X460123Y297000D01*
X461000D01*
Y297877D01*
D02*
G37*
G36*
X465877Y293000D02*
X465000D01*
Y292123D01*
X465496Y292504D01*
X465877Y293000D01*
D02*
G37*
G36*
X461000D02*
X460123D01*
X460504Y292504D01*
X461000Y292123D01*
Y293000D01*
D02*
G37*
G36*
X510551Y289291D02*
X509484D01*
Y286453D01*
X510551D01*
Y289291D01*
D02*
G37*
G36*
X505484D02*
X504417D01*
Y286453D01*
X505484D01*
Y289291D01*
D02*
G37*
G36*
X510551Y282453D02*
X509484D01*
Y279614D01*
X510551D01*
Y282453D01*
D02*
G37*
G36*
X505484D02*
X504417D01*
Y279614D01*
X505484D01*
Y282453D01*
D02*
G37*
G36*
X491165Y275736D02*
X484882D01*
Y266500D01*
X491165D01*
Y275736D01*
D02*
G37*
G36*
X480882D02*
X474598D01*
Y266500D01*
X480882D01*
Y275736D01*
D02*
G37*
G36*
X491165Y262500D02*
X484882D01*
Y253264D01*
X491165D01*
Y262500D01*
D02*
G37*
G36*
X480882D02*
X474598D01*
Y253264D01*
X480882D01*
Y262500D01*
D02*
G37*
G36*
X444347Y357457D02*
X442000D01*
Y356390D01*
X444347D01*
Y357457D01*
D02*
G37*
G36*
X438000D02*
X435653D01*
Y356390D01*
X438000D01*
Y357457D01*
D02*
G37*
G36*
X433847D02*
X431500D01*
Y356390D01*
X433847D01*
Y357457D01*
D02*
G37*
G36*
X427500D02*
X425153D01*
Y356390D01*
X427500D01*
Y357457D01*
D02*
G37*
G36*
X444347Y352390D02*
X442000D01*
Y351323D01*
X444347D01*
Y352390D01*
D02*
G37*
G36*
X438000D02*
X435653D01*
Y351323D01*
X438000D01*
Y352390D01*
D02*
G37*
G36*
X433847D02*
X431500D01*
Y351323D01*
X433847D01*
Y352390D01*
D02*
G37*
G36*
X427500D02*
X425153D01*
Y351323D01*
X427500D01*
Y352390D01*
D02*
G37*
G36*
X512299Y355118D02*
X507000D01*
Y351000D01*
X512299D01*
Y355118D01*
D02*
G37*
G36*
X503000D02*
X497701D01*
Y351000D01*
X503000D01*
Y355118D01*
D02*
G37*
G36*
X450000Y358030D02*
X449086Y357910D01*
X448235Y357557D01*
X447504Y356996D01*
X446943Y356265D01*
X446590Y355414D01*
X446470Y354500D01*
X446545Y353929D01*
X446058Y353442D01*
X445616Y352780D01*
X445461Y352000D01*
Y348839D01*
X444433D01*
Y339161D01*
X450567D01*
Y348839D01*
X449539D01*
Y350651D01*
X449915Y350981D01*
X450000Y350970D01*
X450914Y351090D01*
X451765Y351443D01*
X452496Y352004D01*
X453057Y352735D01*
X453410Y353586D01*
X453530Y354500D01*
X453410Y355414D01*
X453057Y356265D01*
X452496Y356996D01*
X451765Y357557D01*
X450914Y357910D01*
X450000Y358030D01*
D02*
G37*
G36*
X468567Y348839D02*
X467500D01*
Y346000D01*
X468567D01*
Y348839D01*
D02*
G37*
G36*
X463500D02*
X462433D01*
Y346000D01*
X463500D01*
Y348839D01*
D02*
G37*
G36*
X432535D02*
X431468D01*
Y346000D01*
X432535D01*
Y348839D01*
D02*
G37*
G36*
X427468D02*
X426402D01*
Y346000D01*
X427468D01*
Y348839D01*
D02*
G37*
G36*
X512299Y347000D02*
X507000D01*
Y342882D01*
X512299D01*
Y347000D01*
D02*
G37*
G36*
X503000D02*
X497701D01*
Y342882D01*
X503000D01*
Y347000D01*
D02*
G37*
G36*
X483500Y357030D02*
X482586Y356910D01*
X481735Y356557D01*
X481004Y355996D01*
X480443Y355265D01*
X480090Y354414D01*
X479970Y353500D01*
X480090Y352586D01*
X480443Y351735D01*
X481004Y351004D01*
X481461Y350653D01*
Y348839D01*
X480465D01*
Y339161D01*
X486598D01*
Y348839D01*
X485539D01*
Y350653D01*
X485996Y351004D01*
X486557Y351735D01*
X486910Y352586D01*
X487030Y353500D01*
X486910Y354414D01*
X486557Y355265D01*
X485996Y355996D01*
X485265Y356557D01*
X484414Y356910D01*
X483500Y357030D01*
D02*
G37*
G36*
X468567Y342000D02*
X467500D01*
Y339161D01*
X468567D01*
Y342000D01*
D02*
G37*
G36*
X463500D02*
X462433D01*
Y339161D01*
X463500D01*
Y342000D01*
D02*
G37*
G36*
X432535D02*
X431468D01*
Y339161D01*
X432535D01*
Y342000D01*
D02*
G37*
G36*
X427468D02*
X426402D01*
Y339161D01*
X427468D01*
Y342000D01*
D02*
G37*
%LPD*%
D13*
X482370Y394000D02*
X490000D01*
X481886Y394484D02*
X482370Y394000D01*
X418000Y389685D02*
X427000D01*
X225500Y353000D02*
X226500Y352000D01*
X481894Y402169D02*
X490500D01*
X481886Y402161D02*
X481894Y402169D01*
X492750Y405750D02*
X494500Y404000D01*
X488861Y405750D02*
X492750D01*
X488361Y405250D02*
X488861Y405750D01*
X482415Y405250D02*
X488361D01*
X482488Y399000D02*
X495500D01*
X481886Y399602D02*
X482488Y399000D01*
X409500Y423500D02*
X424547D01*
X401500Y415500D02*
X409500Y423500D01*
X401500Y382390D02*
Y415500D01*
X362000Y255500D02*
Y261500D01*
X226815Y416870D02*
X227000Y416685D01*
X486500Y367000D02*
Y381815D01*
X497000Y392315D01*
Y376000D02*
Y381685D01*
X415398Y261984D02*
X415413Y262000D01*
X482500Y344032D02*
X482531Y344000D01*
X513815Y414685D02*
X514000Y414500D01*
X504500Y414685D02*
X513815D01*
X520500Y289469D02*
X525516Y284453D01*
X520500Y289469D02*
Y355500D01*
X503984Y372016D02*
X520500Y355500D01*
X490484Y372016D02*
X503984D01*
X406500Y390547D02*
X406500Y390547D01*
X401500Y382390D02*
X429500Y354390D01*
X457453Y369047D02*
X464000D01*
X442500Y384000D02*
X457453Y369047D01*
X442500Y384000D02*
Y399500D01*
X464000Y369047D02*
X464016Y369063D01*
X478000D01*
X464000Y374953D02*
X464047Y375000D01*
X470500D01*
X482240Y388760D02*
X485500Y385500D01*
X482240Y388760D02*
Y391571D01*
X481886Y391925D02*
X482240Y391571D01*
X453185Y382000D02*
Y389996D01*
X455114Y391925D01*
X463815Y382000D02*
X470500D01*
X470563Y381937D01*
X478000D01*
X418232Y400547D02*
X428000D01*
X418000Y400315D02*
X418232Y400547D01*
X406500Y409047D02*
X406500Y409047D01*
X406500Y403000D02*
X406500Y403000D01*
X416000Y412500D02*
X416000Y412500D01*
X424547D01*
X428000Y406453D02*
X428138Y406315D01*
X437500D01*
X427000Y389685D02*
X431500D01*
X437500Y395685D01*
X442500Y399500D02*
X445161Y402161D01*
X455114D01*
X446000Y406500D02*
X446779Y407279D01*
X455114D01*
X445339Y409839D02*
X455114D01*
X441815Y406315D02*
X445339Y409839D01*
X437500Y406315D02*
X441815D01*
X430453Y412500D02*
X430638Y412685D01*
X438000D01*
X438287Y412398D01*
X455114D01*
X430453Y423500D02*
X430638Y423315D01*
X438000D01*
X441685D01*
X450043Y414957D01*
X455114D01*
X427500Y438000D02*
X436185D01*
X446815Y421216D02*
Y438000D01*
Y421216D02*
X450516Y417516D01*
X455114D01*
X494500Y404000D02*
X495500D01*
X481886Y404720D02*
X482415Y405250D01*
X527236Y381685D02*
X527500Y381421D01*
X497000Y381685D02*
X527236D01*
X492065Y397250D02*
X497000Y392315D01*
X482093Y397250D02*
X492065D01*
X481886Y397043D02*
X482093Y397250D01*
X516685Y407315D02*
X527500Y396500D01*
X514500Y407315D02*
X516685D01*
X514500D02*
X531000Y423815D01*
X514435Y407250D02*
X514500Y407315D01*
X531000Y423815D02*
Y425500D01*
X514500Y389000D02*
Y396685D01*
X481915Y407250D02*
X514435D01*
X481886Y407279D02*
X481915Y407250D01*
X517000Y439500D02*
X531000Y425500D01*
X460953Y439500D02*
X517000D01*
X455047D02*
X455114Y439433D01*
Y420075D02*
Y439433D01*
X503935Y415250D02*
X504500Y414685D01*
X482179Y415250D02*
X503935D01*
X481886Y414957D02*
X482179Y415250D01*
X487126Y425315D02*
X504500D01*
X481886Y420075D02*
X487126Y425315D01*
X515736D02*
X515921Y425500D01*
X504500Y425315D02*
X515736D01*
X496750Y409750D02*
X497000Y410000D01*
X481974Y409750D02*
X496750D01*
X481886Y409839D02*
X481974Y409750D01*
X491898Y412398D02*
X492000Y412500D01*
X481886Y412398D02*
X491898D01*
X490516Y417516D02*
X492000Y419000D01*
X481886Y417516D02*
X490516D01*
X455114Y404720D02*
X461779D01*
X464339Y402161D01*
X481886D01*
X319500Y254500D02*
X319750Y254250D01*
X235000Y290000D02*
X245000D01*
X230000Y295000D02*
X235000Y290000D01*
X230000Y295000D02*
Y347500D01*
X235000Y352500D02*
X245000D01*
X230000Y347500D02*
X235000Y352500D01*
X245000Y365000D02*
X245000Y365000D01*
Y217500D02*
X246500Y219000D01*
D45*
X294839Y254500D02*
D03*
X262161D02*
D03*
D46*
X357815Y236000D02*
D03*
X347185D02*
D03*
D47*
X483532Y344000D02*
D03*
X465500D02*
D03*
X507484Y284453D02*
D03*
X525516D02*
D03*
X429468Y344000D02*
D03*
X447500D02*
D03*
D48*
X474516Y316047D02*
D03*
X516500Y256500D02*
D03*
X438484Y316047D02*
D03*
D49*
X415398Y261984D02*
D03*
Y280016D02*
D03*
D50*
X387445Y271000D02*
D03*
D51*
X387000Y236000D02*
D03*
X415346D02*
D03*
D52*
X380870Y293000D02*
D03*
X391500D02*
D03*
X446815Y438000D02*
D03*
X436185D02*
D03*
X479815Y432000D02*
D03*
X469185D02*
D03*
X265815Y219000D02*
D03*
X255185D02*
D03*
X463815Y382000D02*
D03*
X453185D02*
D03*
D53*
X395500Y345823D02*
D03*
Y311177D02*
D03*
D54*
X440000Y365610D02*
D03*
Y354390D02*
D03*
X429500Y365610D02*
D03*
Y354390D02*
D03*
D55*
X527000Y313685D02*
D03*
Y324315D02*
D03*
X418000Y399315D02*
D03*
Y388685D02*
D03*
X438000Y423315D02*
D03*
Y412685D02*
D03*
X497000Y381685D02*
D03*
Y392315D02*
D03*
X514500Y407315D02*
D03*
Y396685D02*
D03*
X226815Y427500D02*
D03*
Y416870D02*
D03*
X504500Y414685D02*
D03*
Y425315D02*
D03*
X437500Y395685D02*
D03*
Y406315D02*
D03*
D56*
X406500Y414953D02*
D03*
Y409047D02*
D03*
Y396453D02*
D03*
Y390547D02*
D03*
X428000Y400547D02*
D03*
Y406453D02*
D03*
X226953Y359095D02*
D03*
Y365000D02*
D03*
X464000Y374953D02*
D03*
Y369047D02*
D03*
D57*
X430453Y423500D02*
D03*
X424547D02*
D03*
X430453Y412500D02*
D03*
X424547D02*
D03*
X460953Y439500D02*
D03*
X455047D02*
D03*
D58*
X527500Y396500D02*
D03*
Y381421D02*
D03*
D59*
X481886Y391925D02*
D03*
Y394484D02*
D03*
Y397043D02*
D03*
Y399602D02*
D03*
Y402161D02*
D03*
Y404720D02*
D03*
Y407279D02*
D03*
Y409839D02*
D03*
Y412398D02*
D03*
Y414957D02*
D03*
Y417516D02*
D03*
Y420075D02*
D03*
X455114Y391925D02*
D03*
Y394484D02*
D03*
Y397043D02*
D03*
Y399602D02*
D03*
Y402161D02*
D03*
Y404720D02*
D03*
Y407279D02*
D03*
Y409839D02*
D03*
Y412398D02*
D03*
Y414957D02*
D03*
Y417516D02*
D03*
Y420075D02*
D03*
D60*
X482882Y264500D02*
D03*
X443118D02*
D03*
D61*
X505000Y349000D02*
D03*
Y320654D02*
D03*
D62*
X515921Y425500D02*
D03*
X531000D02*
D03*
D63*
X362000Y247823D02*
D03*
D64*
Y250382D02*
D03*
Y252941D02*
D03*
Y255500D02*
D03*
X342709Y247823D02*
D03*
Y250382D02*
D03*
Y252941D02*
D03*
Y255500D02*
D03*
D65*
X478000Y381937D02*
D03*
Y369063D02*
D03*
D66*
X265815Y219000D02*
X274000D01*
X227000Y409500D02*
Y416685D01*
X226815Y427500D02*
X245000D01*
D67*
X305000Y177500D02*
X319500Y192000D01*
Y238000D01*
X337000Y255500D01*
X342709D01*
X357815Y236000D02*
X362000Y240185D01*
X357815Y236000D02*
X357815Y236000D01*
X362000Y240185D02*
Y247823D01*
X342709Y240476D02*
Y247823D01*
Y240476D02*
X347185Y236000D01*
X245000Y365000D02*
X245000D01*
X226953D02*
X245000D01*
X226953Y353453D02*
Y359095D01*
X415413Y262000D02*
X425500D01*
X447500Y344000D02*
Y352000D01*
X450000Y354500D01*
X483500Y344032D02*
Y353500D01*
X406500Y384500D02*
Y390547D01*
X391500Y293000D02*
X399185D01*
X527000Y324315D02*
Y332500D01*
Y306000D02*
Y313685D01*
X406500Y403000D02*
Y409047D01*
X406500Y396453D02*
Y403000D01*
Y414953D02*
X413547D01*
X416000Y412500D01*
X462000Y432000D02*
X469185D01*
X479815D02*
X487000D01*
D68*
X347185Y206909D02*
Y207539D01*
X341595Y201319D02*
X347185Y206909D01*
Y207539D02*
X353405Y201319D01*
X347185Y207539D02*
Y236000D01*
D69*
X357815Y236000D02*
X387000D01*
X298146Y254500D02*
X319500D01*
X255689Y201311D02*
X267500D01*
X245000Y212000D02*
X255689Y201311D01*
X245000Y212000D02*
Y217500D01*
Y254500D01*
X263500D01*
X245000D02*
Y290000D01*
D70*
X395500Y345823D02*
Y362500D01*
X429500Y365610D02*
Y374500D01*
X440000Y365610D02*
Y374500D01*
X512000Y252000D02*
X516500Y256500D01*
X512000Y233000D02*
Y252000D01*
X516500Y256500D02*
X522000Y251000D01*
Y233000D02*
Y251000D01*
X246500Y219000D02*
X255185D01*
D71*
X445000Y397000D02*
D03*
D72*
X320000Y427500D02*
D03*
X245000D02*
D03*
Y377500D02*
D03*
Y365000D02*
D03*
Y352500D02*
D03*
Y290000D02*
D03*
X320000D02*
D03*
X319750Y254250D02*
D03*
D73*
X261595Y172492D02*
D03*
X347500Y172500D02*
D03*
D74*
X255689Y201311D02*
D03*
X267500D02*
D03*
Y189500D02*
D03*
X255689D02*
D03*
X341595Y189508D02*
D03*
X353405D02*
D03*
Y201319D02*
D03*
X341595D02*
D03*
D75*
X350000Y295000D02*
D03*
X340000D02*
D03*
X350000Y305000D02*
D03*
X340000D02*
D03*
X350000Y315000D02*
D03*
X340000D02*
D03*
X350000Y325000D02*
D03*
X340000D02*
D03*
X350000Y335000D02*
D03*
X340000D02*
D03*
X350000Y345000D02*
D03*
X340000D02*
D03*
X350000Y355000D02*
D03*
X340000D02*
D03*
X350000Y365000D02*
D03*
X340000D02*
D03*
X350000Y375000D02*
D03*
X340000D02*
D03*
X350000Y385000D02*
D03*
X340000D02*
D03*
X350000Y395000D02*
D03*
X340000D02*
D03*
X350000Y405000D02*
D03*
X340000D02*
D03*
X350000Y415000D02*
D03*
X340000D02*
D03*
X350000Y425000D02*
D03*
X305000Y197500D02*
D03*
Y187500D02*
D03*
Y177500D02*
D03*
D76*
X340000Y425000D02*
D03*
X305000Y207500D02*
D03*
D77*
X490000Y394000D02*
D03*
X490500Y402169D02*
D03*
X495500Y399000D02*
D03*
X486500Y367000D02*
D03*
X497000Y376000D02*
D03*
X490484Y372016D02*
D03*
X485500Y385500D02*
D03*
X446000Y406500D02*
D03*
X495500Y404000D02*
D03*
X497000Y410000D02*
D03*
X492000Y412500D02*
D03*
Y419000D02*
D03*
D78*
X274000Y219000D02*
D03*
X362000Y261500D02*
D03*
X226953Y353453D02*
D03*
X227000Y409500D02*
D03*
X425500Y262000D02*
D03*
X450000Y354500D02*
D03*
X483500Y353500D02*
D03*
X514000Y414500D02*
D03*
X463000Y295000D02*
D03*
X449500D02*
D03*
X381500Y366000D02*
D03*
X406500Y384500D02*
D03*
X399185Y293000D02*
D03*
X527000Y332500D02*
D03*
Y306000D02*
D03*
X470500Y375000D02*
D03*
Y382000D02*
D03*
X406500Y403000D02*
D03*
X416000Y412500D02*
D03*
X427000Y389685D02*
D03*
X446500Y397000D02*
D03*
X427500Y438000D02*
D03*
X514500Y389000D02*
D03*
X462000Y432000D02*
D03*
X487000D02*
D03*
D79*
X395500Y362500D02*
D03*
X440000Y374500D02*
D03*
X429500D02*
D03*
X522000Y233000D02*
D03*
X512000D02*
D03*
M02*
