G04 Layer_Color=8421504*
%FSLAX25Y25*%
%MOIN*%
G70*
G01*
G75*
%ADD10R,0.01575X0.05315*%
%ADD11R,0.05905X0.07480*%
%ADD12R,0.07087X0.07480*%
%ADD13R,0.20866X0.20866*%
%ADD14R,0.01024X0.03386*%
%ADD15R,0.03386X0.01024*%
%ADD16O,0.07000X0.01500*%
%ADD17R,0.07000X0.01500*%
%ADD18R,0.04803X0.03583*%
%ADD19R,0.15000X0.02000*%
%ADD20O,0.15000X0.02000*%
%ADD21R,0.09252X0.17520*%
%ADD22R,0.04134X0.07677*%
%ADD23R,0.22047X0.27953*%
%ADD24R,0.07677X0.04134*%
%ADD25R,0.27953X0.22047*%
%ADD26R,0.03150X0.03937*%
%ADD27O,0.07087X0.01772*%
%ADD28R,0.16339X0.09252*%
%ADD29R,0.14567X0.20472*%
%ADD30R,0.12598X0.10236*%
%ADD31R,0.10236X0.12598*%
%ADD32R,0.06516X0.06575*%
%ADD33R,0.06575X0.06516*%
%ADD34R,0.06693X0.04134*%
%ADD35R,0.02756X0.03543*%
%ADD36R,0.06693X0.04331*%
%ADD37R,0.03543X0.02756*%
%ADD38R,0.04331X0.06693*%
%ADD39R,0.04331X0.10236*%
G36*
X652350Y344563D02*
X644991D01*
Y351941D01*
X652350D01*
Y344563D01*
D02*
G37*
G36*
X641917Y344559D02*
X634535D01*
Y351941D01*
X641917D01*
Y344559D01*
D02*
G37*
G36*
Y355016D02*
X634533D01*
Y362374D01*
X641917D01*
Y355016D01*
D02*
G37*
G36*
X652350Y355014D02*
Y355014D01*
X644990D01*
Y362374D01*
X652350D01*
Y355014D01*
D02*
G37*
D10*
X690677Y191500D02*
D03*
X688118D02*
D03*
X685559D02*
D03*
X683000D02*
D03*
X680441D02*
D03*
D11*
X689496Y180870D02*
D03*
X681622D02*
D03*
D12*
X672961D02*
D03*
X698158D02*
D03*
D13*
X643453Y353476D02*
D03*
D14*
X632626Y367000D02*
D03*
X634594D02*
D03*
X636563D02*
D03*
X638531D02*
D03*
X640500D02*
D03*
X642469D02*
D03*
X644437D02*
D03*
X646406D02*
D03*
X648374D02*
D03*
X650343D02*
D03*
X652311D02*
D03*
X654280D02*
D03*
Y339953D02*
D03*
X652311D02*
D03*
X650343D02*
D03*
X648374D02*
D03*
X646406D02*
D03*
X644437D02*
D03*
X642469D02*
D03*
X640500D02*
D03*
X638531D02*
D03*
X636563D02*
D03*
X634594D02*
D03*
X632626D02*
D03*
D15*
X656976Y364303D02*
D03*
Y362335D02*
D03*
Y360366D02*
D03*
Y358398D02*
D03*
Y356429D02*
D03*
Y354461D02*
D03*
Y352492D02*
D03*
Y350524D02*
D03*
Y348555D02*
D03*
Y346587D02*
D03*
Y344618D02*
D03*
Y342650D02*
D03*
X629929D02*
D03*
Y344618D02*
D03*
Y346587D02*
D03*
Y348555D02*
D03*
Y350524D02*
D03*
Y352492D02*
D03*
Y354461D02*
D03*
Y356429D02*
D03*
Y358398D02*
D03*
Y360366D02*
D03*
Y362335D02*
D03*
Y364303D02*
D03*
D16*
X675000Y265500D02*
D03*
Y263000D02*
D03*
Y260500D02*
D03*
Y258000D02*
D03*
Y255500D02*
D03*
Y253000D02*
D03*
Y250500D02*
D03*
Y248000D02*
D03*
X695500Y265500D02*
D03*
Y263000D02*
D03*
Y260500D02*
D03*
Y258000D02*
D03*
Y255500D02*
D03*
Y253000D02*
D03*
Y250500D02*
D03*
D17*
Y248000D02*
D03*
D18*
X450500Y366028D02*
D03*
Y378902D02*
D03*
D19*
X590000Y389500D02*
D03*
D20*
Y384500D02*
D03*
Y379500D02*
D03*
Y374500D02*
D03*
Y369500D02*
D03*
X610000Y389500D02*
D03*
Y384500D02*
D03*
Y379500D02*
D03*
Y374500D02*
D03*
Y369500D02*
D03*
D21*
X368000Y342787D02*
D03*
Y308142D02*
D03*
D22*
X498016Y281417D02*
D03*
X479984D02*
D03*
X456032Y340965D02*
D03*
X438000D02*
D03*
X420000D02*
D03*
X401968D02*
D03*
D23*
X489000Y253465D02*
D03*
X447016Y313012D02*
D03*
X410984D02*
D03*
D24*
X387898Y258949D02*
D03*
Y276980D02*
D03*
D25*
X359945Y267965D02*
D03*
D26*
X531500Y198500D02*
D03*
X527760Y207949D02*
D03*
X535240D02*
D03*
X656760Y414949D02*
D03*
X660500Y405500D02*
D03*
X653020D02*
D03*
X670240Y414949D02*
D03*
X673980Y405500D02*
D03*
X666500D02*
D03*
X683740Y414949D02*
D03*
X687480Y405500D02*
D03*
X680000D02*
D03*
D27*
X427614Y417039D02*
D03*
Y414480D02*
D03*
Y411921D02*
D03*
Y409362D02*
D03*
Y406803D02*
D03*
Y404244D02*
D03*
Y401685D02*
D03*
Y399126D02*
D03*
Y396567D02*
D03*
Y394008D02*
D03*
Y391449D02*
D03*
Y388890D02*
D03*
X454386Y417039D02*
D03*
Y414480D02*
D03*
Y411921D02*
D03*
Y409362D02*
D03*
Y406803D02*
D03*
Y404244D02*
D03*
Y401685D02*
D03*
Y399126D02*
D03*
Y396567D02*
D03*
Y394008D02*
D03*
Y391449D02*
D03*
Y388890D02*
D03*
D28*
X262161Y254500D02*
D03*
X294839D02*
D03*
D29*
X415618Y261465D02*
D03*
X455382D02*
D03*
D30*
X477500Y317618D02*
D03*
Y345965D02*
D03*
D31*
X359500Y232965D02*
D03*
X387846D02*
D03*
D32*
X532500Y189000D02*
D03*
X517421D02*
D03*
X503500Y422465D02*
D03*
X488421D02*
D03*
D33*
X500000Y393465D02*
D03*
Y378386D02*
D03*
D34*
X412500Y362575D02*
D03*
Y351354D02*
D03*
X402000Y362575D02*
D03*
Y351354D02*
D03*
D35*
X657500Y374500D02*
D03*
X663406D02*
D03*
X427547Y436465D02*
D03*
X433453D02*
D03*
X397047Y409465D02*
D03*
X402953D02*
D03*
X397047Y420465D02*
D03*
X402953D02*
D03*
X597000Y358000D02*
D03*
X591094D02*
D03*
X617453Y337500D02*
D03*
X611547D02*
D03*
X597000Y352000D02*
D03*
X591094D02*
D03*
X649047Y240500D02*
D03*
X654953D02*
D03*
X540547Y213500D02*
D03*
X546453D02*
D03*
X528547D02*
D03*
X534453D02*
D03*
D36*
X631000Y331815D02*
D03*
Y321185D02*
D03*
X711500Y247815D02*
D03*
Y237185D02*
D03*
X697500Y227870D02*
D03*
Y238500D02*
D03*
X671000Y227370D02*
D03*
Y238000D02*
D03*
X410000Y403279D02*
D03*
Y392650D02*
D03*
X477000Y422280D02*
D03*
Y411650D02*
D03*
X226815Y416870D02*
D03*
Y427500D02*
D03*
X487000Y393650D02*
D03*
Y404280D02*
D03*
X469500Y389280D02*
D03*
Y378650D02*
D03*
X410500Y409650D02*
D03*
Y420280D02*
D03*
X390500Y385650D02*
D03*
Y396280D02*
D03*
X499500Y321280D02*
D03*
Y310650D02*
D03*
X654500Y250685D02*
D03*
Y261315D02*
D03*
X669500Y373000D02*
D03*
Y362370D02*
D03*
X646000Y400685D02*
D03*
Y411315D02*
D03*
X636500D02*
D03*
Y400685D02*
D03*
D37*
X681000Y230594D02*
D03*
X687000D02*
D03*
X681000Y236500D02*
D03*
X687000D02*
D03*
X436500Y366012D02*
D03*
Y371917D02*
D03*
X226953Y365000D02*
D03*
Y359095D02*
D03*
X400500Y403417D02*
D03*
Y397512D02*
D03*
X379000Y387512D02*
D03*
Y393417D02*
D03*
Y406012D02*
D03*
Y411917D02*
D03*
X644500Y318047D02*
D03*
Y323953D02*
D03*
X649500Y235953D02*
D03*
Y230047D02*
D03*
X650106Y318047D02*
D03*
Y323953D02*
D03*
X664000Y384953D02*
D03*
Y379047D02*
D03*
X666000Y256953D02*
D03*
Y251047D02*
D03*
D38*
X425685Y378965D02*
D03*
X436315D02*
D03*
X255185Y219000D02*
D03*
X265815D02*
D03*
X441685Y428965D02*
D03*
X452315D02*
D03*
X408685Y434965D02*
D03*
X419315D02*
D03*
X364000Y289965D02*
D03*
X353370D02*
D03*
X607815Y238500D02*
D03*
X597185D02*
D03*
X608315Y257000D02*
D03*
X597685D02*
D03*
X658315Y391500D02*
D03*
X647685D02*
D03*
X658500Y383000D02*
D03*
X647870D02*
D03*
X608370Y345000D02*
D03*
X619000D02*
D03*
D39*
X311685Y216000D02*
D03*
X322315D02*
D03*
M02*
