G04*
G04 #@! TF.GenerationSoftware,Altium Limited,Altium Designer,18.0.11 (651)*
G04*
G04 Layer_Color=8388736*
%FSLAX25Y25*%
%MOIN*%
G70*
G01*
G75*
%ADD15R,0.17139X0.10052*%
%ADD16R,0.05131X0.11036*%
%ADD17R,0.04934X0.08477*%
%ADD18R,0.22847X0.28753*%
%ADD19R,0.08477X0.04934*%
%ADD20R,0.28753X0.22847*%
%ADD21R,0.11036X0.13398*%
%ADD22R,0.05131X0.07493*%
%ADD23R,0.10052X0.18320*%
%ADD24R,0.07493X0.04934*%
%ADD25R,0.07493X0.05131*%
%ADD26R,0.04343X0.03556*%
%ADD27R,0.03556X0.04343*%
%ADD28R,0.07375X0.07316*%
%ADD29O,0.07887X0.02572*%
%ADD30R,0.15367X0.21272*%
%ADD31R,0.13398X0.11036*%
%ADD32R,0.07316X0.07375*%
%ADD33R,0.07099X0.02375*%
%ADD34O,0.07099X0.02375*%
%ADD35R,0.05603X0.04383*%
%ADD36C,0.00800*%
%ADD37C,0.09300*%
%ADD38C,0.16548*%
%ADD39C,0.07493*%
%ADD40C,0.06800*%
%ADD41R,0.06800X0.06800*%
%ADD42C,0.04300*%
%ADD43C,0.05800*%
%ADD44C,0.08300*%
D15*
X294839Y254500D02*
D03*
X262161D02*
D03*
D16*
X357815Y236000D02*
D03*
X347185D02*
D03*
D17*
X483532Y344000D02*
D03*
X465500D02*
D03*
X507484Y284453D02*
D03*
X525516D02*
D03*
X429468Y344000D02*
D03*
X447500D02*
D03*
D18*
X474516Y316047D02*
D03*
X516500Y256500D02*
D03*
X438484Y316047D02*
D03*
D19*
X415398Y261984D02*
D03*
Y280016D02*
D03*
D20*
X387445Y271000D02*
D03*
D21*
X387000Y236000D02*
D03*
X415346D02*
D03*
D22*
X380870Y293000D02*
D03*
X391500D02*
D03*
X446815Y438000D02*
D03*
X436185D02*
D03*
X479815Y432000D02*
D03*
X469185D02*
D03*
X265815Y219000D02*
D03*
X255185D02*
D03*
X463815Y382000D02*
D03*
X453185D02*
D03*
D23*
X395500Y345823D02*
D03*
Y311177D02*
D03*
D24*
X440000Y365610D02*
D03*
Y354390D02*
D03*
X429500Y365610D02*
D03*
Y354390D02*
D03*
D25*
X527000Y313685D02*
D03*
Y324315D02*
D03*
X418000Y399315D02*
D03*
Y388685D02*
D03*
X438000Y423315D02*
D03*
Y412685D02*
D03*
X497000Y381685D02*
D03*
Y392315D02*
D03*
X514500Y407315D02*
D03*
Y396685D02*
D03*
X226815Y427500D02*
D03*
Y416870D02*
D03*
X504500Y414685D02*
D03*
Y425315D02*
D03*
X437500Y395685D02*
D03*
Y406315D02*
D03*
D26*
X406500Y414953D02*
D03*
Y409047D02*
D03*
Y396453D02*
D03*
Y390547D02*
D03*
X428000Y400547D02*
D03*
Y406453D02*
D03*
X226953Y359095D02*
D03*
Y365000D02*
D03*
X464000Y374953D02*
D03*
Y369047D02*
D03*
D27*
X430453Y423500D02*
D03*
X424547D02*
D03*
X430453Y412500D02*
D03*
X424547D02*
D03*
X460953Y439500D02*
D03*
X455047D02*
D03*
D28*
X527500Y396500D02*
D03*
Y381421D02*
D03*
D29*
X481886Y391925D02*
D03*
Y394484D02*
D03*
Y397043D02*
D03*
Y399602D02*
D03*
Y402161D02*
D03*
Y404720D02*
D03*
Y407279D02*
D03*
Y409839D02*
D03*
Y412398D02*
D03*
Y414957D02*
D03*
Y417516D02*
D03*
Y420075D02*
D03*
X455114Y391925D02*
D03*
Y394484D02*
D03*
Y397043D02*
D03*
Y399602D02*
D03*
Y402161D02*
D03*
Y404720D02*
D03*
Y407279D02*
D03*
Y409839D02*
D03*
Y412398D02*
D03*
Y414957D02*
D03*
Y417516D02*
D03*
Y420075D02*
D03*
D30*
X482882Y264500D02*
D03*
X443118D02*
D03*
D31*
X505000Y349000D02*
D03*
Y320654D02*
D03*
D32*
X515921Y425500D02*
D03*
X531000D02*
D03*
D33*
X362000Y247823D02*
D03*
D34*
Y250382D02*
D03*
Y252941D02*
D03*
Y255500D02*
D03*
X342709Y247823D02*
D03*
Y250382D02*
D03*
Y252941D02*
D03*
Y255500D02*
D03*
D35*
X478000Y381937D02*
D03*
Y369063D02*
D03*
D36*
X380500Y433000D02*
D03*
X502500Y184500D02*
D03*
D37*
X320000Y427500D02*
D03*
X245000D02*
D03*
Y377500D02*
D03*
Y365000D02*
D03*
Y352500D02*
D03*
Y290000D02*
D03*
X320000D02*
D03*
X319750Y254250D02*
D03*
D38*
X261595Y172492D02*
D03*
X347500Y172500D02*
D03*
D39*
X255689Y201311D02*
D03*
X267500D02*
D03*
Y189500D02*
D03*
X255689D02*
D03*
X341595Y189508D02*
D03*
X353405D02*
D03*
Y201319D02*
D03*
X341595D02*
D03*
D40*
X350000Y295000D02*
D03*
X340000D02*
D03*
X350000Y305000D02*
D03*
X340000D02*
D03*
X350000Y315000D02*
D03*
X340000D02*
D03*
X350000Y325000D02*
D03*
X340000D02*
D03*
X350000Y335000D02*
D03*
X340000D02*
D03*
X350000Y345000D02*
D03*
X340000D02*
D03*
X350000Y355000D02*
D03*
X340000D02*
D03*
X350000Y365000D02*
D03*
X340000D02*
D03*
X350000Y375000D02*
D03*
X340000D02*
D03*
X350000Y385000D02*
D03*
X340000D02*
D03*
X350000Y395000D02*
D03*
X340000D02*
D03*
X350000Y405000D02*
D03*
X340000D02*
D03*
X350000Y415000D02*
D03*
X340000D02*
D03*
X350000Y425000D02*
D03*
X305000Y197500D02*
D03*
Y187500D02*
D03*
Y177500D02*
D03*
D41*
X340000Y425000D02*
D03*
X305000Y207500D02*
D03*
D42*
X490000Y394000D02*
D03*
X490500Y402169D02*
D03*
X495500Y399000D02*
D03*
X486500Y367000D02*
D03*
X497000Y376000D02*
D03*
X490484Y372016D02*
D03*
X485500Y385500D02*
D03*
X446000Y406500D02*
D03*
X495500Y404000D02*
D03*
X497000Y410000D02*
D03*
X492000Y412500D02*
D03*
Y419000D02*
D03*
D43*
X274000Y219000D02*
D03*
X362000Y261500D02*
D03*
X226953Y353453D02*
D03*
X227000Y409500D02*
D03*
X425500Y262000D02*
D03*
X450000Y354500D02*
D03*
X483500Y353500D02*
D03*
X514000Y414500D02*
D03*
X463000Y295000D02*
D03*
X449500D02*
D03*
X381500Y366000D02*
D03*
X406500Y384500D02*
D03*
X399185Y293000D02*
D03*
X527000Y332500D02*
D03*
Y306000D02*
D03*
X470500Y375000D02*
D03*
Y382000D02*
D03*
X406500Y403000D02*
D03*
X416000Y412500D02*
D03*
X427000Y389685D02*
D03*
X446500Y397000D02*
D03*
X427500Y438000D02*
D03*
X514500Y389000D02*
D03*
X462000Y432000D02*
D03*
X487000D02*
D03*
D44*
X395500Y362500D02*
D03*
X440000Y374500D02*
D03*
X429500D02*
D03*
X522000Y233000D02*
D03*
X512000D02*
D03*
M02*
