G04 Layer_Physical_Order=4*
G04 Layer_Color=16711680*
%FSLAX25Y25*%
%MOIN*%
G70*
G01*
G75*
%ADD40C,0.01000*%
%ADD49C,0.20000*%
%ADD50C,0.05905*%
%ADD51R,0.05905X0.05905*%
%ADD52C,0.06000*%
%ADD53R,0.06000X0.06000*%
%ADD54R,0.06000X0.06000*%
%ADD55C,0.08500*%
%ADD56C,0.07118*%
%ADD57C,0.06331*%
%ADD58C,0.03543*%
%ADD59R,0.03543X0.03543*%
%ADD60C,0.11811*%
%ADD61C,0.08661*%
%ADD62C,0.15748*%
%ADD63C,0.06693*%
%ADD64C,0.05709*%
%ADD65C,0.03500*%
%ADD66C,0.05000*%
%ADD67C,0.07500*%
D40*
X663000Y387500D02*
X664700Y389200D01*
X593725Y281775D02*
Y332500D01*
Y281775D02*
X614500Y261000D01*
X578000Y294500D02*
Y315500D01*
X499000Y215500D02*
X578000Y294500D01*
X578500Y322000D02*
X583500D01*
X519000Y262500D02*
X578500Y322000D01*
X519000Y245000D02*
Y262500D01*
X583500Y322000D02*
X587500Y318000D01*
X438000Y216000D02*
X445000Y223000D01*
X497000D01*
X519000Y245000D01*
X452000Y215500D02*
X499000D01*
X578000Y315500D02*
X581000Y318500D01*
X636500Y277000D02*
X648000Y288500D01*
X673500D01*
X593725Y350225D02*
X607000Y363500D01*
X593725Y332500D02*
Y350225D01*
X603500Y205500D02*
Y206000D01*
X614500Y217000D01*
X637600Y269900D02*
X700100D01*
X624500Y283000D02*
X637600Y269900D01*
X632500Y268000D02*
X697000D01*
X618000Y282500D02*
X632500Y268000D01*
X700100Y269900D02*
X707000Y263000D01*
X697000Y268000D02*
X702500Y262500D01*
X643000Y325500D02*
Y332000D01*
X624500Y307000D02*
X643000Y325500D01*
X624500Y283000D02*
Y307000D01*
X618000Y304677D02*
X638000Y324677D01*
Y331500D01*
X618000Y282500D02*
Y304677D01*
X642500Y259500D02*
X647000Y255000D01*
Y240579D02*
Y255000D01*
X642500Y236079D02*
X647000Y240579D01*
X707000Y250500D02*
Y263000D01*
X704500Y248000D02*
X707000Y250500D01*
X571000Y354500D02*
X604000Y387500D01*
X663000D01*
X625488Y382500D02*
X628500D01*
X624988Y382000D02*
X625488Y382500D01*
X621000D02*
X624488D01*
X624988Y382000D01*
X462500Y369465D02*
Y390965D01*
Y369465D02*
X462984Y368980D01*
X435000Y354965D02*
X463500D01*
X429000Y348965D02*
X435000Y354965D01*
X429000Y295965D02*
Y348965D01*
X434500Y357465D02*
X463000D01*
X427000Y349965D02*
X434500Y357465D01*
X427000Y299465D02*
Y349965D01*
X476500Y374465D02*
Y392465D01*
X462000Y359965D02*
X476500Y374465D01*
X431000Y359965D02*
X462000D01*
X422500Y351465D02*
X431000Y359965D01*
X468000Y400965D02*
X476500Y392465D01*
X414500Y295965D02*
X423500D01*
X398000Y279465D02*
X414500Y295965D01*
X398000Y258965D02*
Y279465D01*
X423500Y295965D02*
X427000Y299465D01*
X463000Y357465D02*
X479000Y373465D01*
Y403465D01*
X466500Y415965D02*
X479000Y403465D01*
X464500Y415965D02*
X466500D01*
X425000Y291965D02*
X429000Y295965D01*
X422000Y291965D02*
X425000D01*
X463500Y354965D02*
X481500Y372965D01*
Y406465D01*
X486500Y411465D01*
X360500Y362965D02*
X379000Y381465D01*
X354000Y362965D02*
X360500D01*
X379000Y399965D02*
X415000D01*
X418500Y403465D01*
X614500Y217000D02*
Y261000D01*
D49*
X353500Y430000D02*
D03*
X635500Y185000D02*
D03*
X393500D02*
D03*
D50*
X458000Y192500D02*
D03*
X448000D02*
D03*
X438000D02*
D03*
D51*
X428000D02*
D03*
D52*
X686500Y428000D02*
D03*
X676500D02*
D03*
X666500D02*
D03*
X571000Y324500D02*
D03*
Y334500D02*
D03*
Y344500D02*
D03*
X632500Y306500D02*
D03*
X642500D02*
D03*
X652500D02*
D03*
X547000Y425000D02*
D03*
Y415000D02*
D03*
Y405000D02*
D03*
X557000D02*
D03*
Y415000D02*
D03*
Y425000D02*
D03*
X567000Y405000D02*
D03*
Y415000D02*
D03*
Y425000D02*
D03*
X577000Y405000D02*
D03*
Y415000D02*
D03*
Y425000D02*
D03*
X587000Y405000D02*
D03*
Y415000D02*
D03*
Y425000D02*
D03*
X597000Y405000D02*
D03*
Y415000D02*
D03*
Y425000D02*
D03*
X607000Y405000D02*
D03*
Y415000D02*
D03*
Y425000D02*
D03*
X617000Y405000D02*
D03*
Y415000D02*
D03*
Y425000D02*
D03*
X701500Y379500D02*
D03*
X691500D02*
D03*
X681500D02*
D03*
Y369500D02*
D03*
X691500D02*
D03*
X701500D02*
D03*
X681500Y359500D02*
D03*
X691500D02*
D03*
X701500D02*
D03*
X681500Y349500D02*
D03*
X691500D02*
D03*
X701500D02*
D03*
X681500Y339500D02*
D03*
X691500D02*
D03*
X701500D02*
D03*
X681500Y329500D02*
D03*
X691500D02*
D03*
X701500D02*
D03*
X681500Y319500D02*
D03*
X691500D02*
D03*
X701500D02*
D03*
X681500Y309500D02*
D03*
X691500D02*
D03*
X701500D02*
D03*
D53*
X656500Y428000D02*
D03*
X662500Y306500D02*
D03*
D54*
X571000Y354500D02*
D03*
D55*
X320000Y290000D02*
D03*
X245000D02*
D03*
Y352500D02*
D03*
Y365000D02*
D03*
Y377500D02*
D03*
Y427500D02*
D03*
X320000D02*
D03*
X319750Y254250D02*
D03*
D56*
X554287Y185815D02*
D03*
X603500D02*
D03*
X554287Y205500D02*
D03*
X603500D02*
D03*
D57*
X582500Y258000D02*
D03*
Y248000D02*
D03*
Y238000D02*
D03*
D58*
X642500Y245921D02*
D03*
Y241000D02*
D03*
Y236079D02*
D03*
X630500Y245500D02*
D03*
Y240579D02*
D03*
Y235658D02*
D03*
D59*
X642500Y231157D02*
D03*
X630500Y230736D02*
D03*
D60*
X522724Y359221D02*
D03*
Y314339D02*
D03*
D61*
X528000Y348000D02*
D03*
Y370441D02*
D03*
Y303118D02*
D03*
Y325559D02*
D03*
D62*
X261595Y172492D02*
D03*
X347500Y172500D02*
D03*
X305000D02*
D03*
D63*
X255689Y201311D02*
D03*
X267500D02*
D03*
Y189500D02*
D03*
X255689D02*
D03*
X341595Y201319D02*
D03*
X353405D02*
D03*
Y189508D02*
D03*
X341595D02*
D03*
X299095Y201319D02*
D03*
X310906D02*
D03*
Y189508D02*
D03*
X299095D02*
D03*
D64*
X695405Y178130D02*
D03*
X675721D02*
D03*
D65*
X691000Y184500D02*
D03*
X673500Y288500D02*
D03*
X636500Y277000D02*
D03*
X452000Y215500D02*
D03*
X438000Y216000D02*
D03*
X584000Y303000D02*
D03*
X581000Y318500D02*
D03*
X587500Y318000D02*
D03*
X607000Y363500D02*
D03*
X593725Y332500D02*
D03*
X603500Y345000D02*
D03*
X651500Y245500D02*
D03*
X653000Y375000D02*
D03*
X648000Y376500D02*
D03*
X664000Y389500D02*
D03*
X624500Y345500D02*
D03*
X624000Y321000D02*
D03*
X642500Y259500D02*
D03*
X702500Y262500D02*
D03*
X659500Y244500D02*
D03*
X704500Y237500D02*
D03*
Y248000D02*
D03*
X646000Y422000D02*
D03*
X669500Y378500D02*
D03*
X674000Y400500D02*
D03*
X663500Y415500D02*
D03*
X628500Y382500D02*
D03*
X621000D02*
D03*
X578500Y369500D02*
D03*
X577000Y383000D02*
D03*
X579500Y390500D02*
D03*
X462500Y390965D02*
D03*
X463000Y399134D02*
D03*
X468000Y395965D02*
D03*
X459000Y363965D02*
D03*
X469500Y372965D02*
D03*
X462984Y368980D02*
D03*
X458000Y382465D02*
D03*
X418500Y403465D02*
D03*
X468000Y400965D02*
D03*
X469500Y406965D02*
D03*
X464500Y409465D02*
D03*
Y415965D02*
D03*
X678500Y244000D02*
D03*
X637000Y394500D02*
D03*
X687500Y400500D02*
D03*
X643000Y332000D02*
D03*
X638000Y331500D02*
D03*
X589500Y394000D02*
D03*
X663000Y361500D02*
D03*
D66*
X455000Y202500D02*
D03*
X441500Y203000D02*
D03*
X428000D02*
D03*
X274000Y219000D02*
D03*
X226953Y353453D02*
D03*
X227000Y409500D02*
D03*
X398000Y258965D02*
D03*
X422500Y351465D02*
D03*
X456000Y350465D02*
D03*
X486500Y411465D02*
D03*
X435500Y291965D02*
D03*
X422000D02*
D03*
X354000Y362965D02*
D03*
X379000Y381465D02*
D03*
X371685Y289965D02*
D03*
X499500Y329465D02*
D03*
Y302965D02*
D03*
X443000Y371965D02*
D03*
Y378965D02*
D03*
X379000Y399965D02*
D03*
X388500Y409465D02*
D03*
X399500Y386650D02*
D03*
X419000Y393965D02*
D03*
X400000Y434965D02*
D03*
X487000Y385965D02*
D03*
X434500Y428965D02*
D03*
X459500D02*
D03*
D67*
X498000Y234000D02*
D03*
X480000Y234500D02*
D03*
X489000Y234000D02*
D03*
X368000Y359465D02*
D03*
X412500Y371465D02*
D03*
X402000D02*
D03*
M02*
