G04 Layer_Color=16711935*
%FSLAX23Y23*%
%MOIN*%
G70*
G01*
G75*
%ADD58C,0.066*%
%ADD59C,0.006*%
%ADD60C,0.122*%
%ADD61C,0.166*%
%ADD62C,0.065*%
%ADD63R,0.065X0.065*%
%ADD64R,0.065X0.065*%
%ADD65C,0.056*%
D58*
X5620Y4500D02*
D03*
Y1500D02*
D03*
X1980Y2980D02*
D03*
D59*
X4767Y4703D02*
D03*
X3807D02*
D03*
X2857D02*
D03*
X1917D02*
D03*
X5043Y1297D02*
D03*
X4083D02*
D03*
X3133D02*
D03*
X2193D02*
D03*
D60*
X4904Y4594D02*
D03*
Y4370D02*
D03*
X3944Y4594D02*
D03*
Y4370D02*
D03*
X2994Y4594D02*
D03*
Y4370D02*
D03*
X2054Y4594D02*
D03*
Y4370D02*
D03*
X4906Y1406D02*
D03*
Y1630D02*
D03*
X3946Y1406D02*
D03*
Y1630D02*
D03*
X2996Y1406D02*
D03*
Y1630D02*
D03*
X2056Y1406D02*
D03*
Y1630D02*
D03*
D61*
X6884Y4814D02*
D03*
Y3182D02*
D03*
X6530Y4589D02*
D03*
X6333D02*
D03*
Y4195D02*
D03*
X6530D02*
D03*
Y3801D02*
D03*
X6333D02*
D03*
Y3408D02*
D03*
X6530D02*
D03*
X6884Y2848D02*
D03*
Y1216D02*
D03*
X6530Y2622D02*
D03*
X6333D02*
D03*
Y2229D02*
D03*
X6530D02*
D03*
Y1835D02*
D03*
X6333D02*
D03*
Y1441D02*
D03*
X6530D02*
D03*
D62*
X4400Y3400D02*
D03*
X4500D02*
D03*
X4400Y3300D02*
D03*
X4500D02*
D03*
X4400Y3200D02*
D03*
X4500D02*
D03*
X4400Y3100D02*
D03*
X4500D02*
D03*
X4400Y3000D02*
D03*
X4500D02*
D03*
X4400Y2900D02*
D03*
X4500D02*
D03*
X4400Y2800D02*
D03*
X4500D02*
D03*
X4400Y2700D02*
D03*
X4500D02*
D03*
X4400Y2600D02*
D03*
X4500D02*
D03*
X4400Y2500D02*
D03*
X4500D02*
D03*
X4400Y2400D02*
D03*
X4500D02*
D03*
X4400Y2300D02*
D03*
X4500D02*
D03*
X4400Y2200D02*
D03*
X4500D02*
D03*
X4400Y2100D02*
D03*
X2750Y3000D02*
D03*
D63*
X4500Y2100D02*
D03*
D64*
X2850Y3000D02*
D03*
D65*
X4305Y1815D02*
D03*
X4525Y1718D02*
D03*
X2035Y2300D02*
D03*
X2527Y1977D02*
D03*
X3477Y1978D02*
D03*
X4437D02*
D03*
X4630Y1900D02*
D03*
X5083Y1852D02*
D03*
X3670Y1900D02*
D03*
X4123Y1852D02*
D03*
X2720Y1900D02*
D03*
X3173Y1852D02*
D03*
X1780Y1900D02*
D03*
X2233Y1852D02*
D03*
X1877Y4148D02*
D03*
X2827D02*
D03*
X3777D02*
D03*
X4727D02*
D03*
X2330Y4100D02*
D03*
X3270D02*
D03*
X4220D02*
D03*
X5180D02*
D03*
X5373Y4023D02*
D03*
X4413Y4022D02*
D03*
X3463D02*
D03*
X2523D02*
D03*
X6090Y3325D02*
D03*
X6105Y2120D02*
D03*
X5860Y2215D02*
D03*
X5860Y3415D02*
D03*
X3207Y3102D02*
D03*
X2635Y2915D02*
D03*
M02*
