M48
;Layer_Color=9474304
;FILE_FORMAT=2:3
INCH,LZ
;TYPE=PLATED
T1F00S00C0.028
T2F00S00C0.035
T3F00S00C0.071
T4F00S00C0.110
;TYPE=NON_PLATED
T5F00S00C0.071
T6F00S00C0.118
T7F00S00C0.200
%
T01
X05083Y01852
X0586Y02215
X06105Y0212
X0463Y019
X04437Y01978
X04305Y01815
X04123Y01852
X0367Y019
X03477Y01978
X03173Y01852
X03207Y03102
X04525Y01718
X0272Y019
X02527Y01977
X02233Y01852
X0178Y019
X02035Y023
X02635Y02915
X02523Y04022
X0233Y041
X01877Y04148
X02827
X0327Y041
X03463Y04022
X03777Y04148
X0422Y041
X04413Y04022
X04727Y04148
X0518Y041
X05373Y04023
X0586Y03415
X0609Y03325
T02
X044Y021
Y022
Y023
Y024
Y025
Y026
Y027
Y028
Y029
Y03
Y031
X045
Y03
Y029
Y028
Y027
Y026
Y025
Y024
Y023
Y022
Y021
X0285Y03
X0275
X044Y032
Y033
Y034
X045
Y033
Y032
T03
X02056Y01406
X02996
X03946
X04906
Y0163
X03946
X02996
X02056
X02054Y0437
Y04594
X02994
Y0437
X03944
Y04594
X04904
Y0437
T04
X06333Y01441
X0653
Y01835
X06333
Y02229
X0653
Y02622
X06333
Y03408
X0653
Y03801
X06333
Y04195
X0653
Y04589
X06333
T05
X02193Y01297
X03133
X04083
X05043
X04767Y04703
X03807
X02857
X01917
T06
X06884Y01216
Y02848
Y03182
Y04814
T07
X0562Y015
X0198Y0298
X0562Y045
M30
