G04 Layer_Color=16711935*
%FSLAX25Y25*%
%MOIN*%
G70*
G01*
G75*
%ADD61C,0.04343*%
%ADD62R,0.04343X0.04343*%
%ADD63C,0.12205*%
%ADD64C,0.00800*%
%ADD65C,0.16800*%
%ADD66C,0.06706*%
%ADD67R,0.06706X0.06706*%
%ADD68C,0.20800*%
%ADD69C,0.09461*%
%ADD70C,0.12611*%
%ADD71C,0.03400*%
D61*
X258780Y291342D02*
D03*
Y286421D02*
D03*
Y281500D02*
D03*
D62*
Y276579D02*
D03*
D63*
X395291Y155378D02*
D03*
Y132937D02*
D03*
X651291Y155378D02*
D03*
Y132937D02*
D03*
X523291Y155378D02*
D03*
Y132937D02*
D03*
X267291Y155378D02*
D03*
Y132937D02*
D03*
X317709Y419622D02*
D03*
Y442063D02*
D03*
X445709Y419622D02*
D03*
Y442063D02*
D03*
X573709Y419622D02*
D03*
Y442063D02*
D03*
X701709Y419622D02*
D03*
Y442063D02*
D03*
D64*
X408992Y122031D02*
D03*
X664992D02*
D03*
X536992D02*
D03*
X280992D02*
D03*
X304008Y452969D02*
D03*
X432008D02*
D03*
X560008D02*
D03*
X688008D02*
D03*
D65*
X893933Y461799D02*
D03*
Y298571D02*
D03*
X858500Y439240D02*
D03*
X838815D02*
D03*
Y399870D02*
D03*
X858500D02*
D03*
Y360500D02*
D03*
X838815D02*
D03*
Y321130D02*
D03*
X858500D02*
D03*
X893433Y277299D02*
D03*
Y114071D02*
D03*
X858000Y254740D02*
D03*
X838315D02*
D03*
Y215370D02*
D03*
X858000D02*
D03*
Y176000D02*
D03*
X838315D02*
D03*
Y136630D02*
D03*
X858000D02*
D03*
D66*
X732000Y292000D02*
D03*
D67*
Y282000D02*
D03*
D68*
X255000Y440000D02*
D03*
X335000Y135000D02*
D03*
X767500D02*
D03*
Y450000D02*
D03*
D69*
X767000Y263779D02*
D03*
Y241339D02*
D03*
Y308661D02*
D03*
Y286221D02*
D03*
D70*
X761724Y252559D02*
D03*
Y297441D02*
D03*
D71*
X696906Y212421D02*
D03*
X267500Y382000D02*
D03*
X395000D02*
D03*
X317000Y193000D02*
D03*
X712000Y287000D02*
D03*
X272094Y362579D02*
D03*
X271094Y377079D02*
D03*
X273500Y393500D02*
D03*
X325000Y394500D02*
D03*
X311500Y366000D02*
D03*
X325000Y381500D02*
D03*
X307500Y385974D02*
D03*
Y365500D02*
D03*
X270291Y402000D02*
D03*
X278000Y418079D02*
D03*
X289000Y402079D02*
D03*
X309500Y380000D02*
D03*
X251594Y369079D02*
D03*
X400095Y362579D02*
D03*
X399095Y377079D02*
D03*
X401500Y393500D02*
D03*
X453000Y394500D02*
D03*
X439500Y366000D02*
D03*
X453000Y381500D02*
D03*
X435500Y385974D02*
D03*
Y365500D02*
D03*
X398291Y402000D02*
D03*
X406000Y418079D02*
D03*
X417000Y402079D02*
D03*
X437500Y380000D02*
D03*
X379594Y369079D02*
D03*
X528094Y362579D02*
D03*
X527095Y377079D02*
D03*
X529500Y393500D02*
D03*
X581000Y394500D02*
D03*
X567500Y366000D02*
D03*
X581000Y381500D02*
D03*
X563500Y385974D02*
D03*
Y365500D02*
D03*
X526291Y402000D02*
D03*
X534000Y418079D02*
D03*
X545000Y402079D02*
D03*
X565500Y380000D02*
D03*
X524000Y382000D02*
D03*
X507594Y369079D02*
D03*
X656095Y362579D02*
D03*
X655094Y377079D02*
D03*
X657500Y393500D02*
D03*
X695500Y366000D02*
D03*
X709000Y394500D02*
D03*
X691500Y385974D02*
D03*
X709000Y381500D02*
D03*
X691500Y365500D02*
D03*
X654291Y402000D02*
D03*
X662000Y418079D02*
D03*
X673000Y402079D02*
D03*
X693500Y380000D02*
D03*
X651500Y382000D02*
D03*
X635595Y369079D02*
D03*
X312906Y212421D02*
D03*
X313906Y197921D02*
D03*
X311500Y181500D02*
D03*
X273500Y209000D02*
D03*
X260000Y180500D02*
D03*
X277500Y189026D02*
D03*
X260000Y193500D02*
D03*
X277500Y209500D02*
D03*
X314709Y173000D02*
D03*
X307000Y156921D02*
D03*
X296000Y172921D02*
D03*
X275500Y195000D02*
D03*
X333405Y205921D02*
D03*
X440906Y212421D02*
D03*
X441905Y197921D02*
D03*
X439500Y181500D02*
D03*
X401500Y209000D02*
D03*
X388000Y180500D02*
D03*
X405500Y189026D02*
D03*
X388000Y193500D02*
D03*
X405500Y209500D02*
D03*
X442709Y173000D02*
D03*
X435000Y156921D02*
D03*
X424000Y172921D02*
D03*
X403500Y195000D02*
D03*
X445500Y193000D02*
D03*
X461406Y205921D02*
D03*
X697905Y197921D02*
D03*
X695500Y181500D02*
D03*
X657500Y209000D02*
D03*
X644000Y180500D02*
D03*
X661500Y189026D02*
D03*
X644000Y193500D02*
D03*
X661500Y209500D02*
D03*
X698709Y173000D02*
D03*
X691000Y156921D02*
D03*
X680000Y172921D02*
D03*
X659500Y195000D02*
D03*
X701500Y193000D02*
D03*
X717406Y205921D02*
D03*
X533500Y209500D02*
D03*
X568905Y212421D02*
D03*
X569906Y197921D02*
D03*
X567500Y181500D02*
D03*
X529500Y209000D02*
D03*
X516000Y180500D02*
D03*
X533500Y189026D02*
D03*
X516000Y193500D02*
D03*
X570709Y173000D02*
D03*
X563000Y156921D02*
D03*
X552000Y172921D02*
D03*
X531500Y195000D02*
D03*
X573500Y193000D02*
D03*
X589405Y205921D02*
D03*
X820000Y162000D02*
D03*
X791000Y164500D02*
D03*
X791500Y350000D02*
D03*
X820500Y347500D02*
D03*
X718000Y287000D02*
D03*
M02*
